G04 Layer_Color=32896*
%FSLAX25Y25*%
%MOIN*%
G70*
G01*
G75*
%ADD16C,0.01000*%
G36*
X274068Y158562D02*
X274785Y158469D01*
X275456Y158330D01*
X276104Y158145D01*
X276706Y157937D01*
X277261Y157682D01*
X277794Y157428D01*
X278256Y157173D01*
X278696Y156895D01*
X279066Y156641D01*
X279390Y156410D01*
X279668Y156178D01*
X279899Y155993D01*
X280038Y155854D01*
X280154Y155762D01*
X280177Y155738D01*
X280663Y155183D01*
X281102Y154628D01*
X281496Y154049D01*
X281797Y153471D01*
X282074Y152892D01*
X282306Y152314D01*
X282491Y151781D01*
X282653Y151249D01*
X282769Y150763D01*
X282861Y150301D01*
X282907Y149907D01*
X282954Y149560D01*
X282977Y149282D01*
X283000Y149074D01*
Y148935D01*
Y148912D01*
Y148889D01*
X282977Y148149D01*
X282884Y147454D01*
X282746Y146760D01*
X282560Y146135D01*
X282352Y145534D01*
X282098Y144955D01*
X281843Y144446D01*
X281589Y143960D01*
X281334Y143544D01*
X281079Y143150D01*
X280825Y142826D01*
X280617Y142549D01*
X280432Y142340D01*
X280293Y142178D01*
X280200Y142063D01*
X280177Y142040D01*
X279645Y141554D01*
X279066Y141114D01*
X278488Y140721D01*
X277909Y140420D01*
X277331Y140142D01*
X276775Y139911D01*
X276220Y139725D01*
X275688Y139564D01*
X275202Y139448D01*
X274739Y139355D01*
X274346Y139309D01*
X273998Y139263D01*
X273721Y139240D01*
X273513Y139216D01*
X273327D01*
X272587Y139240D01*
X271893Y139332D01*
X271222Y139471D01*
X270574Y139656D01*
X269972Y139864D01*
X269417Y140119D01*
X268885Y140374D01*
X268422Y140628D01*
X267982Y140883D01*
X267612Y141137D01*
X267288Y141392D01*
X267010Y141600D01*
X266779Y141785D01*
X266640Y141924D01*
X266524Y142016D01*
X266501Y142040D01*
X265992Y142595D01*
X265552Y143150D01*
X265182Y143729D01*
X264858Y144307D01*
X264581Y144886D01*
X264349Y145464D01*
X264164Y146020D01*
X264002Y146529D01*
X263886Y147015D01*
X263794Y147477D01*
X263748Y147871D01*
X263701Y148218D01*
X263678Y148496D01*
X263655Y148704D01*
Y148843D01*
Y148889D01*
X263678Y149629D01*
X263771Y150324D01*
X263910Y151018D01*
X264095Y151643D01*
X264303Y152244D01*
X264557Y152823D01*
X264812Y153332D01*
X265067Y153818D01*
X265344Y154258D01*
X265599Y154628D01*
X265830Y154952D01*
X266061Y155229D01*
X266247Y155461D01*
X266386Y155600D01*
X266478Y155715D01*
X266501Y155738D01*
X267033Y156247D01*
X267612Y156687D01*
X268167Y157057D01*
X268769Y157381D01*
X269324Y157659D01*
X269903Y157890D01*
X270458Y158076D01*
X270967Y158238D01*
X271453Y158353D01*
X271916Y158446D01*
X272309Y158492D01*
X272656Y158538D01*
X272934Y158562D01*
X273142Y158585D01*
X273327D01*
X274068Y158562D01*
D02*
G37*
G36*
X261000Y157710D02*
X257089Y153638D01*
X256974Y152527D01*
X256719Y149866D01*
X256534Y147945D01*
X260722Y143618D01*
X260445Y143340D01*
X256488Y147390D01*
X256256Y144914D01*
X256141D01*
Y143965D01*
X255261D01*
Y144914D01*
X252531D01*
X252438Y144729D01*
X252299Y144544D01*
X252114Y144335D01*
X251860Y144150D01*
X251559Y144058D01*
X251281Y144035D01*
X251004D01*
X250795Y144104D01*
X250541Y144196D01*
X250332Y144335D01*
X250170Y144497D01*
X250009Y144729D01*
X249893Y144983D01*
X249823Y145215D01*
X249800Y145423D01*
X249823Y145654D01*
X249870Y145840D01*
X249939Y146025D01*
X250032Y146210D01*
X250147Y146372D01*
X250309Y146534D01*
X250494Y146649D01*
X250656Y146719D01*
X250633Y146927D01*
X247162Y143340D01*
X246885Y143641D01*
X250587Y147482D01*
X250286Y150838D01*
X250078Y153267D01*
X248967D01*
Y154818D01*
X249268D01*
X246445Y157710D01*
X246746Y157988D01*
X249384Y155257D01*
Y155466D01*
X249337Y155512D01*
X249268Y155558D01*
X249199Y155628D01*
X249129Y155697D01*
X249083Y155813D01*
X249060Y155905D01*
X249037Y156021D01*
X249060Y156160D01*
X249106Y156253D01*
X249199Y156414D01*
X249314Y156507D01*
X249476Y156576D01*
X249638Y156600D01*
X249800Y156576D01*
X249939Y156530D01*
X250055Y156461D01*
X250101Y156391D01*
X250217Y156484D01*
X250379Y156600D01*
X250587Y156692D01*
X250888Y156808D01*
X251212Y156900D01*
X251536Y156970D01*
X251883Y157039D01*
X252161Y157062D01*
Y157410D01*
X254382D01*
Y157109D01*
X254567D01*
X254845Y157086D01*
X255146Y157039D01*
X255446Y156993D01*
Y157178D01*
X256395D01*
Y156738D01*
X256511Y156669D01*
X256673Y156600D01*
X256835Y156507D01*
X256974Y156414D01*
X257113Y156299D01*
X257205Y156206D01*
X257251Y156137D01*
X257298Y156044D01*
X257275Y155882D01*
X257830D01*
Y155165D01*
X257228D01*
X257136Y154262D01*
X260722Y157988D01*
X261000Y157710D01*
D02*
G37*
G36*
X260167Y140147D02*
Y140101D01*
Y140008D01*
Y139916D01*
Y139823D01*
Y139731D01*
Y139684D01*
Y139661D01*
Y139291D01*
Y138944D01*
Y138782D01*
Y138666D01*
Y138597D01*
Y138574D01*
Y138157D01*
Y137972D01*
Y137810D01*
Y137671D01*
Y137578D01*
Y137509D01*
Y137486D01*
Y137324D01*
Y137208D01*
Y137116D01*
Y137069D01*
Y137000D01*
X247509D01*
Y137023D01*
Y137069D01*
Y137255D01*
Y137417D01*
Y137463D01*
Y137486D01*
Y137856D01*
Y138203D01*
Y138365D01*
Y138481D01*
Y138550D01*
Y138574D01*
Y138990D01*
Y139175D01*
Y139337D01*
Y139476D01*
Y139568D01*
Y139638D01*
Y139661D01*
Y139823D01*
Y139962D01*
Y140055D01*
Y140101D01*
Y140147D01*
Y140170D01*
X260167D01*
Y140147D01*
D02*
G37*
G36*
X221161Y299693D02*
X222366D01*
Y299392D01*
X222969D01*
Y299091D01*
X223571D01*
Y298790D01*
X223873D01*
Y298488D01*
X224174D01*
Y298187D01*
X224475D01*
Y297886D01*
X224777D01*
Y297584D01*
Y297283D01*
Y296982D01*
Y296680D01*
X224475D01*
Y296379D01*
X222065D01*
Y296078D01*
Y295777D01*
X221764D01*
Y295475D01*
X221462D01*
Y295174D01*
Y294873D01*
X221161D01*
Y294571D01*
Y294270D01*
X220860D01*
Y293969D01*
Y293668D01*
X220558D01*
Y293366D01*
X220257D01*
Y293065D01*
X219956D01*
Y292764D01*
Y292462D01*
X219654D01*
Y292161D01*
X219353D01*
Y291860D01*
X219052D01*
Y291558D01*
Y291257D01*
X218751D01*
Y290956D01*
X218449D01*
Y290655D01*
X218148D01*
Y290353D01*
X217847D01*
Y290052D01*
X217545D01*
Y289751D01*
X217244D01*
Y289449D01*
X216943D01*
Y289148D01*
X216642D01*
Y288847D01*
X216039D01*
Y288545D01*
X215738D01*
Y288244D01*
Y287943D01*
X216039D01*
Y287642D01*
Y287340D01*
X216340D01*
Y287039D01*
Y286738D01*
X216642D01*
Y286436D01*
Y286135D01*
Y285834D01*
X216943D01*
Y285532D01*
Y285231D01*
X217244D01*
Y284930D01*
Y284629D01*
Y284327D01*
Y284026D01*
X217545D01*
Y283725D01*
Y283423D01*
Y283122D01*
Y282821D01*
Y282520D01*
X217847D01*
Y282218D01*
Y281917D01*
Y281616D01*
Y281314D01*
Y281013D01*
Y280712D01*
Y280410D01*
Y280109D01*
Y279808D01*
Y279506D01*
Y279205D01*
Y278904D01*
Y278603D01*
Y278301D01*
Y278000D01*
Y277699D01*
X217545D01*
Y277397D01*
Y277096D01*
Y276795D01*
Y276494D01*
Y276192D01*
Y275891D01*
X217244D01*
Y275590D01*
Y275288D01*
Y274987D01*
Y274686D01*
Y274384D01*
X216943D01*
Y274083D01*
Y273782D01*
Y273481D01*
Y273179D01*
X216642D01*
Y272878D01*
Y272577D01*
Y272275D01*
Y271974D01*
X216340D01*
Y271673D01*
Y271371D01*
Y271070D01*
X216039D01*
Y270769D01*
Y270467D01*
Y270166D01*
Y269865D01*
X215738D01*
Y269564D01*
Y269262D01*
X215436D01*
Y268961D01*
Y268660D01*
Y268358D01*
X215135D01*
Y268057D01*
Y267756D01*
Y267455D01*
X214834D01*
Y267153D01*
Y266852D01*
X214532D01*
Y266551D01*
Y266249D01*
Y265948D01*
X214231D01*
Y265647D01*
Y265346D01*
X213930D01*
Y265044D01*
Y264743D01*
X213629D01*
Y264442D01*
Y264140D01*
X213327D01*
Y263839D01*
Y263538D01*
X213026D01*
Y263236D01*
Y262935D01*
X212725D01*
Y262634D01*
Y262333D01*
X212423D01*
Y262031D01*
X212122D01*
Y261730D01*
Y261429D01*
X211821D01*
Y261127D01*
Y260826D01*
X211520D01*
Y260525D01*
X211218D01*
Y260223D01*
Y259922D01*
X210917D01*
Y259621D01*
X210616D01*
Y259319D01*
Y259018D01*
X210314D01*
Y258717D01*
X210013D01*
Y258416D01*
X209712D01*
Y258114D01*
X209410D01*
Y257813D01*
X209109D01*
Y257512D01*
Y257210D01*
X208808D01*
Y256909D01*
X208506D01*
Y256608D01*
X208205D01*
Y256307D01*
X207904D01*
Y256005D01*
X207301D01*
Y255704D01*
X207000D01*
Y255403D01*
X206699D01*
Y255101D01*
X206096D01*
Y254800D01*
X205795D01*
Y254499D01*
X205192D01*
Y254197D01*
X204288D01*
Y253896D01*
X203384D01*
Y253595D01*
X200974D01*
Y253896D01*
X199769D01*
Y254197D01*
X199166D01*
Y254499D01*
X198564D01*
Y254800D01*
X197961D01*
Y255101D01*
X197660D01*
Y255403D01*
X197057D01*
Y255704D01*
X196756D01*
Y256005D01*
X196455D01*
Y256307D01*
X196153D01*
Y256608D01*
X195852D01*
Y256909D01*
X195551D01*
Y257210D01*
X195249D01*
Y257512D01*
X194948D01*
Y257813D01*
X194647D01*
Y258114D01*
X194345D01*
Y258416D01*
X194044D01*
Y258717D01*
Y259018D01*
X193743D01*
Y259319D01*
X193442D01*
Y259621D01*
X193140D01*
Y259922D01*
Y260223D01*
X192839D01*
Y260525D01*
X192538D01*
Y260826D01*
Y261127D01*
X192236D01*
Y261429D01*
Y261730D01*
X191935D01*
Y262031D01*
X191634D01*
Y262333D01*
Y262634D01*
X191332D01*
Y262935D01*
Y263236D01*
X191031D01*
Y263538D01*
Y263839D01*
X190730D01*
Y264140D01*
Y264442D01*
X190429D01*
Y264743D01*
Y265044D01*
X190127D01*
Y265346D01*
Y265647D01*
X189826D01*
Y265948D01*
Y266249D01*
X189525D01*
Y266551D01*
Y266852D01*
Y267153D01*
X189223D01*
Y267455D01*
Y267756D01*
X188922D01*
Y268057D01*
Y268358D01*
Y268660D01*
X188621D01*
Y268961D01*
Y269262D01*
Y269564D01*
X188320D01*
Y269865D01*
Y270166D01*
Y270467D01*
X188018D01*
Y270769D01*
Y271070D01*
Y271371D01*
X187717D01*
Y271673D01*
Y271974D01*
Y272275D01*
X187416D01*
Y272577D01*
Y272878D01*
Y273179D01*
Y273481D01*
X187114D01*
Y273782D01*
Y274083D01*
Y274384D01*
Y274686D01*
Y274987D01*
X186813D01*
Y275288D01*
Y275590D01*
Y275891D01*
Y276192D01*
Y276494D01*
X186512D01*
Y276795D01*
Y277096D01*
Y277397D01*
Y277699D01*
Y278000D01*
Y278301D01*
Y278603D01*
Y278904D01*
Y279205D01*
X186210D01*
Y279506D01*
Y279808D01*
Y280109D01*
Y280410D01*
Y280712D01*
Y281013D01*
Y281314D01*
X186512D01*
Y281616D01*
Y281917D01*
Y282218D01*
Y282520D01*
Y282821D01*
Y283122D01*
Y283423D01*
X186813D01*
Y283725D01*
Y284026D01*
Y284327D01*
Y284629D01*
X187114D01*
Y284930D01*
Y285231D01*
Y285532D01*
X187416D01*
Y285834D01*
Y286135D01*
Y286436D01*
X187717D01*
Y286738D01*
Y287039D01*
X188018D01*
Y287340D01*
Y287642D01*
X188320D01*
Y287943D01*
X188018D01*
Y288244D01*
X187717D01*
Y288545D01*
X187114D01*
Y288847D01*
X186813D01*
Y289148D01*
X186512D01*
Y289449D01*
X186210D01*
Y289751D01*
X185909D01*
Y290052D01*
X185608D01*
Y290353D01*
X185307D01*
Y290655D01*
X185005D01*
Y290956D01*
X184704D01*
Y291257D01*
X184403D01*
Y291558D01*
X184101D01*
Y291860D01*
Y292161D01*
X183800D01*
Y292462D01*
X183499D01*
Y292764D01*
X183197D01*
Y293065D01*
Y293366D01*
X182896D01*
Y293668D01*
X182595D01*
Y293969D01*
Y294270D01*
X182293D01*
Y294571D01*
X181992D01*
Y294873D01*
Y295174D01*
X181691D01*
Y295475D01*
Y295777D01*
X181390D01*
Y296078D01*
Y296379D01*
X178678D01*
Y296680D01*
Y296982D01*
X178377D01*
Y297283D01*
Y297584D01*
X178678D01*
Y297886D01*
X178979D01*
Y298187D01*
X179280D01*
Y298488D01*
X179582D01*
Y298790D01*
X179883D01*
Y299091D01*
X180486D01*
Y299392D01*
X181088D01*
Y299693D01*
X182293D01*
Y299995D01*
X183499D01*
Y299693D01*
X184101D01*
Y299392D01*
X184403D01*
Y299091D01*
Y298790D01*
X184101D01*
Y298488D01*
Y298187D01*
X183800D01*
Y297886D01*
X183499D01*
Y297584D01*
X183197D01*
Y297283D01*
X182896D01*
Y296982D01*
Y296680D01*
Y296379D01*
X183197D01*
Y296078D01*
X183499D01*
Y295777D01*
Y295475D01*
X183800D01*
Y295174D01*
X184101D01*
Y294873D01*
Y294571D01*
X184403D01*
Y294270D01*
X184704D01*
Y293969D01*
X185005D01*
Y293668D01*
X185307D01*
Y293366D01*
X185608D01*
Y293065D01*
X185909D01*
Y292764D01*
X186210D01*
Y292462D01*
X186512D01*
Y292161D01*
X186813D01*
Y291860D01*
X187114D01*
Y291558D01*
X187416D01*
Y291257D01*
X187717D01*
Y290956D01*
X188320D01*
Y290655D01*
X188621D01*
Y290353D01*
X189223D01*
Y290052D01*
X189826D01*
Y290353D01*
X190127D01*
Y290655D01*
X190429D01*
Y290956D01*
Y291257D01*
X190730D01*
Y291558D01*
X191031D01*
Y291860D01*
X191332D01*
Y292161D01*
X191634D01*
Y292462D01*
X192236D01*
Y292764D01*
X192538D01*
Y293065D01*
X192839D01*
Y293366D01*
X193442D01*
Y293668D01*
X193743D01*
Y293969D01*
X194345D01*
Y294270D01*
X194948D01*
Y294571D01*
X195551D01*
Y294873D01*
X196153D01*
Y295174D01*
X196756D01*
Y295475D01*
X197660D01*
Y295777D01*
X198865D01*
Y296078D01*
X201275D01*
Y296379D01*
X203083D01*
Y296078D01*
X205192D01*
Y295777D01*
X206397D01*
Y295475D01*
X207301D01*
Y295174D01*
X208205D01*
Y294873D01*
X208808D01*
Y294571D01*
X209410D01*
Y294270D01*
X210013D01*
Y293969D01*
X210314D01*
Y293668D01*
X210917D01*
Y293366D01*
X211218D01*
Y293065D01*
X211821D01*
Y292764D01*
X212122D01*
Y292462D01*
X212423D01*
Y292161D01*
X212725D01*
Y291860D01*
X213026D01*
Y291558D01*
X213327D01*
Y291257D01*
X213629D01*
Y290956D01*
X213930D01*
Y290655D01*
X214231D01*
Y290353D01*
X214834D01*
Y290655D01*
X215135D01*
Y290956D01*
X215436D01*
Y291257D01*
X216039D01*
Y291558D01*
X216340D01*
Y291860D01*
X216642D01*
Y292161D01*
X216943D01*
Y292462D01*
X217244D01*
Y292764D01*
X217545D01*
Y293065D01*
X217847D01*
Y293366D01*
X218148D01*
Y293668D01*
X218449D01*
Y293969D01*
X218751D01*
Y294270D01*
X219052D01*
Y294571D01*
Y294873D01*
X219353D01*
Y295174D01*
X219654D01*
Y295475D01*
Y295777D01*
X219956D01*
Y296078D01*
X220257D01*
Y296379D01*
Y296680D01*
X220558D01*
Y296982D01*
Y297283D01*
X220257D01*
Y297584D01*
X219956D01*
Y297886D01*
X219654D01*
Y298187D01*
X219353D01*
Y298488D01*
X219052D01*
Y298790D01*
Y299091D01*
Y299392D01*
X219353D01*
Y299693D01*
X219956D01*
Y299995D01*
X221161D01*
Y299693D01*
D02*
G37*
G36*
X267061Y135866D02*
X267547Y135820D01*
X267987Y135704D01*
X268427Y135588D01*
X268820Y135449D01*
X269214Y135287D01*
X269561Y135125D01*
X269862Y134940D01*
X270162Y134755D01*
X270417Y134593D01*
X270625Y134431D01*
X270810Y134292D01*
X270972Y134177D01*
X271065Y134084D01*
X271134Y134015D01*
X271157Y133992D01*
X271481Y133621D01*
X271782Y133251D01*
X272037Y132881D01*
X272245Y132487D01*
X272430Y132094D01*
X272569Y131724D01*
X272708Y131353D01*
X272800Y131006D01*
X272870Y130683D01*
X272939Y130382D01*
X272962Y130104D01*
X273008Y129873D01*
Y129688D01*
X273032Y129549D01*
Y129456D01*
Y129433D01*
X273008Y128947D01*
X272939Y128484D01*
X272847Y128021D01*
X272731Y127605D01*
X272592Y127188D01*
X272430Y126818D01*
X272268Y126471D01*
X272083Y126147D01*
X271921Y125869D01*
X271759Y125615D01*
X271597Y125407D01*
X271458Y125221D01*
X271319Y125059D01*
X271227Y124967D01*
X271180Y124898D01*
X271157Y124874D01*
X270787Y124550D01*
X270417Y124250D01*
X270023Y123995D01*
X269630Y123787D01*
X269260Y123602D01*
X268866Y123463D01*
X268496Y123324D01*
X268149Y123231D01*
X267825Y123162D01*
X267524Y123093D01*
X267247Y123069D01*
X267015Y123023D01*
X266830D01*
X266691Y123000D01*
X266344D01*
X266136Y123023D01*
X265928D01*
X265951Y124967D01*
X266159Y124944D01*
X266367Y124921D01*
X266576D01*
X266876Y124944D01*
X267154Y124967D01*
X267686Y125083D01*
X268172Y125245D01*
X268589Y125430D01*
X268936Y125592D01*
X269075Y125684D01*
X269190Y125754D01*
X269306Y125823D01*
X269375Y125869D01*
X269399Y125916D01*
X269422D01*
X269838Y126309D01*
X270185Y126749D01*
X270463Y127165D01*
X270671Y127582D01*
X270810Y127929D01*
X270880Y128091D01*
X270926Y128230D01*
X270949Y128322D01*
X270972Y128415D01*
X270995Y128461D01*
Y128484D01*
X267224D01*
Y130405D01*
X270995D01*
X270833Y130960D01*
X270602Y131469D01*
X270347Y131909D01*
X270093Y132279D01*
X269838Y132580D01*
X269630Y132788D01*
X269468Y132927D01*
X269445Y132973D01*
X269422D01*
X269190Y133159D01*
X268936Y133297D01*
X268450Y133552D01*
X267964Y133737D01*
X267524Y133853D01*
X267154Y133922D01*
X266992Y133945D01*
X266853D01*
X266738Y133968D01*
X266344D01*
X266136Y133945D01*
X265974Y133922D01*
X265928D01*
Y135866D01*
X266182Y135889D01*
X266576D01*
X267061Y135866D01*
D02*
G37*
G36*
X278030D02*
X278516Y135820D01*
X278956Y135704D01*
X279395Y135588D01*
X279788Y135449D01*
X280182Y135287D01*
X280529Y135125D01*
X280830Y134940D01*
X281131Y134755D01*
X281385Y134593D01*
X281593Y134431D01*
X281779Y134292D01*
X281941Y134177D01*
X282033Y134084D01*
X282102Y134015D01*
X282126Y133992D01*
X282450Y133621D01*
X282750Y133251D01*
X283005Y132881D01*
X283213Y132487D01*
X283398Y132094D01*
X283537Y131724D01*
X283676Y131353D01*
X283769Y131006D01*
X283838Y130683D01*
X283907Y130382D01*
X283931Y130104D01*
X283977Y129873D01*
Y129688D01*
X284000Y129549D01*
Y129456D01*
Y129433D01*
X283977Y128947D01*
X283907Y128484D01*
X283815Y128021D01*
X283699Y127605D01*
X283560Y127188D01*
X283398Y126818D01*
X283236Y126471D01*
X283051Y126147D01*
X282889Y125869D01*
X282727Y125615D01*
X282565Y125407D01*
X282427Y125221D01*
X282288Y125059D01*
X282195Y124967D01*
X282149Y124898D01*
X282126Y124874D01*
X281755Y124550D01*
X281385Y124250D01*
X280992Y123995D01*
X280598Y123787D01*
X280228Y123602D01*
X279835Y123463D01*
X279465Y123324D01*
X279117Y123231D01*
X278794Y123162D01*
X278493Y123093D01*
X278215Y123069D01*
X277984Y123023D01*
X277799D01*
X277660Y123000D01*
X277312D01*
X277104Y123023D01*
X276896D01*
Y124967D01*
X277127Y124944D01*
X277336Y124921D01*
X277544D01*
X277891Y124944D01*
X278215Y124967D01*
X278539Y125036D01*
X278840Y125129D01*
X279372Y125337D01*
X279835Y125592D01*
X280043Y125707D01*
X280228Y125823D01*
X280367Y125939D01*
X280506Y126031D01*
X280598Y126124D01*
X280668Y126193D01*
X280714Y126216D01*
X280737Y126240D01*
X280969Y126494D01*
X281177Y126772D01*
X281339Y127026D01*
X281501Y127304D01*
X281617Y127582D01*
X281732Y127836D01*
X281894Y128345D01*
X281987Y128785D01*
X282010Y128970D01*
X282033Y129132D01*
X282056Y129248D01*
Y129340D01*
Y129410D01*
Y129433D01*
X282033Y129780D01*
X282010Y130104D01*
X281941Y130428D01*
X281848Y130729D01*
X281640Y131261D01*
X281385Y131724D01*
X281270Y131932D01*
X281154Y132117D01*
X281038Y132256D01*
X280945Y132395D01*
X280853Y132487D01*
X280784Y132557D01*
X280760Y132603D01*
X280737Y132626D01*
X280483Y132858D01*
X280228Y133066D01*
X279950Y133251D01*
X279673Y133413D01*
X279418Y133529D01*
X279141Y133644D01*
X278655Y133806D01*
X278215Y133899D01*
X278007Y133922D01*
X277868Y133945D01*
X277729Y133968D01*
X277312D01*
X277104Y133945D01*
X276942Y133922D01*
X276896D01*
Y135866D01*
X277104Y135889D01*
X277544D01*
X278030Y135866D01*
D02*
G37*
%LPC*%
G36*
X273489Y157613D02*
X273327D01*
X272656Y157590D01*
X272032Y157497D01*
X271407Y157381D01*
X270851Y157219D01*
X270296Y157011D01*
X269787Y156803D01*
X269324Y156571D01*
X268885Y156340D01*
X268514Y156086D01*
X268167Y155854D01*
X267866Y155646D01*
X267635Y155438D01*
X267427Y155276D01*
X267288Y155160D01*
X267195Y155067D01*
X267172Y155044D01*
X266733Y154558D01*
X266339Y154049D01*
X265992Y153540D01*
X265691Y153008D01*
X265460Y152499D01*
X265252Y151990D01*
X265090Y151481D01*
X264951Y151018D01*
X264835Y150578D01*
X264766Y150162D01*
X264696Y149815D01*
X264673Y149491D01*
X264650Y149236D01*
X264627Y149051D01*
Y148935D01*
Y148889D01*
X264650Y148218D01*
X264742Y147593D01*
X264858Y146992D01*
X265020Y146413D01*
X265205Y145858D01*
X265437Y145349D01*
X265668Y144886D01*
X265899Y144469D01*
X266131Y144076D01*
X266362Y143729D01*
X266571Y143428D01*
X266779Y143196D01*
X266840Y143118D01*
X266825Y143104D01*
X266999Y142919D01*
X267056Y142849D01*
X267149Y142757D01*
X267172Y142734D01*
X266999Y142919D01*
X266941Y142988D01*
X266840Y143118D01*
X269509Y145788D01*
X269371Y145881D01*
X269255Y145973D01*
X269162Y146043D01*
X269139Y146066D01*
X268885Y146344D01*
X268700Y146668D01*
X268561Y146968D01*
X268468Y147269D01*
X268422Y147524D01*
X268375Y147732D01*
Y147871D01*
Y147894D01*
Y147917D01*
X268399Y148264D01*
X268445Y148588D01*
X268537Y148843D01*
X268607Y149074D01*
X268700Y149259D01*
X268792Y149375D01*
X268838Y149468D01*
X268862Y149491D01*
X269047Y149676D01*
X269255Y149815D01*
X269440Y149930D01*
X269625Y150000D01*
X269787Y150046D01*
X269903Y150069D01*
X270019D01*
X270296Y150023D01*
X270551Y149930D01*
X270782Y149791D01*
X270967Y149629D01*
X271152Y149468D01*
X271268Y149329D01*
X271361Y149236D01*
X271384Y149190D01*
Y152314D01*
X271592D01*
X272888Y151781D01*
X272818Y151620D01*
X272680Y151666D01*
X272587Y151689D01*
X272494D01*
X272356Y151666D01*
X272333Y151643D01*
X272309D01*
X272263Y151573D01*
X272217Y151504D01*
X272194Y151434D01*
Y151411D01*
Y151319D01*
X272170Y151203D01*
Y150902D01*
Y150740D01*
Y150625D01*
Y150532D01*
Y150509D01*
Y148426D01*
X273304Y149583D01*
X273258Y149815D01*
X273212Y150023D01*
Y150115D01*
Y150162D01*
Y150208D01*
Y150231D01*
X273235Y150439D01*
X273258Y150625D01*
X273327Y150810D01*
X273374Y150948D01*
X273443Y151064D01*
X273513Y151157D01*
X273536Y151203D01*
X273559Y151226D01*
X273698Y151388D01*
X273837Y151504D01*
X273975Y151620D01*
X274114Y151689D01*
X274230Y151758D01*
X274299Y151805D01*
X274369Y151828D01*
X274392D01*
X274600Y151897D01*
X274808Y151944D01*
X275040Y151967D01*
X275248Y151990D01*
X275433Y152013D01*
X275734D01*
X279136Y155391D01*
X279483Y155044D01*
X279737Y154790D01*
X279622Y154929D01*
X279529Y155021D01*
X279506Y155044D01*
X279020Y155507D01*
X278511Y155900D01*
X277979Y156224D01*
X277446Y156525D01*
X276937Y156780D01*
X276428Y156988D01*
X275919Y157150D01*
X275456Y157289D01*
X275017Y157404D01*
X274600Y157474D01*
X274253Y157543D01*
X273929Y157566D01*
X273675Y157590D01*
X273489Y157613D01*
D02*
G37*
G36*
X279737Y154790D02*
X279798Y154712D01*
X277099Y152013D01*
X278094D01*
Y151828D01*
X277840D01*
X277608Y151805D01*
X277446Y151735D01*
X277331Y151643D01*
X277308Y151620D01*
X277261Y151550D01*
X277215Y151458D01*
X277192Y151203D01*
X277169Y151087D01*
Y150972D01*
Y150902D01*
Y150879D01*
Y146737D01*
Y146552D01*
X277192Y146390D01*
Y146274D01*
X277215Y146182D01*
X277238Y146112D01*
Y146066D01*
X277261Y146043D01*
X277331Y145950D01*
X277423Y145904D01*
X277608Y145811D01*
X277770Y145788D01*
X278094D01*
Y145603D01*
X275341D01*
Y145788D01*
X275595D01*
X275827Y145811D01*
X275989Y145881D01*
X276081Y145950D01*
X276127Y145973D01*
X276174Y146043D01*
X276197Y146159D01*
X276243Y146413D01*
X276266Y146529D01*
Y146644D01*
Y146714D01*
Y146737D01*
Y148588D01*
X276035Y148542D01*
X275850Y148519D01*
X275734Y148496D01*
X275688D01*
X275480Y148472D01*
X275179D01*
X274901Y148496D01*
X274646Y148519D01*
X274438Y148588D01*
X274253Y148658D01*
X274091Y148704D01*
X273998Y148773D01*
X273929Y148796D01*
X273906Y148820D01*
X272170Y147061D01*
Y146020D01*
X271870Y145835D01*
X271615Y145719D01*
X271499Y145673D01*
X271430Y145626D01*
X271384Y145603D01*
X271361D01*
X271083Y145534D01*
X270851Y145487D01*
X270736Y145464D01*
X270574D01*
X267525Y142415D01*
X267658Y142294D01*
X268167Y141901D01*
X268676Y141554D01*
X269209Y141253D01*
X269718Y141021D01*
X270227Y140813D01*
X270736Y140651D01*
X271199Y140512D01*
X271638Y140397D01*
X272055Y140327D01*
X272402Y140258D01*
X272726Y140235D01*
X272980Y140211D01*
X273165Y140188D01*
X273327D01*
X273998Y140211D01*
X274623Y140304D01*
X275248Y140420D01*
X275803Y140582D01*
X276359Y140790D01*
X276868Y140998D01*
X277331Y141230D01*
X277770Y141461D01*
X278164Y141692D01*
X278511Y141924D01*
X278788Y142155D01*
X279043Y142340D01*
X279251Y142502D01*
X279390Y142618D01*
X279483Y142711D01*
X279506Y142734D01*
X279945Y143220D01*
X280339Y143729D01*
X280686Y144238D01*
X280987Y144770D01*
X281218Y145279D01*
X281427Y145811D01*
X281589Y146297D01*
X281727Y146760D01*
X281843Y147200D01*
X281912Y147616D01*
X281982Y147963D01*
X282005Y148287D01*
X282028Y148542D01*
X282051Y148727D01*
Y148843D01*
Y148889D01*
X282028Y149560D01*
X281936Y150185D01*
X281820Y150810D01*
X281658Y151365D01*
X281450Y151920D01*
X281241Y152429D01*
X281010Y152892D01*
X280779Y153332D01*
X280547Y153702D01*
X280316Y154049D01*
X280084Y154350D01*
X279899Y154581D01*
X279798Y154712D01*
X279807Y154720D01*
X279737Y154790D01*
D02*
G37*
G36*
X267172Y142734D02*
X267519Y142410D01*
X267525Y142415D01*
X267172Y142734D01*
D02*
G37*
G36*
X270435Y149375D02*
X270389D01*
X270227Y149352D01*
X270065Y149305D01*
X269787Y149167D01*
X269694Y149074D01*
X269625Y149005D01*
X269579Y148958D01*
X269556Y148935D01*
X269440Y148750D01*
X269347Y148542D01*
X269278Y148334D01*
X269232Y148125D01*
X269209Y147940D01*
X269185Y147801D01*
Y147709D01*
Y147663D01*
X269209Y147339D01*
X269232Y147061D01*
X269301Y146829D01*
X269371Y146644D01*
X269440Y146482D01*
X269486Y146390D01*
X269532Y146320D01*
X269556Y146297D01*
X269625Y146182D01*
X269694Y146112D01*
X269764Y146066D01*
X269787Y146043D01*
X271384Y147639D01*
Y148889D01*
X271176Y149074D01*
X271037Y149190D01*
X270921Y149236D01*
X270898Y149259D01*
X270713Y149329D01*
X270551Y149352D01*
X270435Y149375D01*
D02*
G37*
G36*
X275318Y151596D02*
X275179Y151550D01*
X275063Y151504D01*
X274970Y151458D01*
X274947Y151434D01*
X274739Y151272D01*
X274600Y151110D01*
X274484Y150972D01*
X274461Y150925D01*
Y150902D01*
X274392Y150786D01*
X274369Y150694D01*
X274346Y150648D01*
Y150625D01*
X275318Y151596D01*
D02*
G37*
G36*
X276266Y151157D02*
X274484Y149375D01*
X274531Y149282D01*
X274600Y149213D01*
X274623Y149190D01*
X274646Y149167D01*
X274785Y149028D01*
X274924Y148935D01*
X275063Y148866D01*
X275202Y148820D01*
X275318Y148796D01*
X275410Y148773D01*
X275595D01*
X275711Y148796D01*
X275827D01*
X275965Y148820D01*
X276104Y148843D01*
X276220Y148866D01*
X276266D01*
Y151157D01*
D02*
G37*
G36*
X253757Y150190D02*
X251004Y147344D01*
X251050Y146835D01*
X251235Y146858D01*
X251443Y146835D01*
X251698Y146765D01*
X251952Y146649D01*
X252137Y146511D01*
X252299Y146349D01*
X252461Y146117D01*
X252577Y145840D01*
X252646Y145539D01*
X252623Y145330D01*
X255886D01*
X256118Y147760D01*
X253757Y150190D01*
D02*
G37*
G36*
X251351Y146140D02*
X251235D01*
X251004Y146117D01*
X250841Y146025D01*
X250703Y145932D01*
X250633Y145793D01*
X250587Y145677D01*
X250541Y145562D01*
Y145469D01*
Y145446D01*
X250564Y145215D01*
X250656Y145053D01*
X250749Y144914D01*
X250888Y144844D01*
X251004Y144798D01*
X251119Y144775D01*
X251212Y144752D01*
X251235D01*
X251466Y144775D01*
X251628Y144868D01*
X251767Y144983D01*
X251837Y145099D01*
X251883Y145238D01*
X251906Y145330D01*
X251929Y145423D01*
Y145446D01*
X251906Y145677D01*
X251813Y145840D01*
X251698Y145978D01*
X251582Y146048D01*
X251443Y146094D01*
X251351Y146140D01*
D02*
G37*
G36*
X255747Y144914D02*
X255655D01*
Y144359D01*
X255747D01*
Y144914D01*
D02*
G37*
G36*
X254382Y156692D02*
Y156391D01*
X252161D01*
Y156646D01*
X251698Y156576D01*
X251281Y156484D01*
X250934Y156391D01*
X250656Y156253D01*
X250448Y156137D01*
X250286Y155975D01*
Y155882D01*
X255446D01*
Y156553D01*
X255122Y156623D01*
X254775Y156669D01*
X254382Y156692D01*
D02*
G37*
G36*
X256002Y156785D02*
X255840D01*
Y156253D01*
X256002D01*
Y156785D01*
D02*
G37*
G36*
X256395Y156276D02*
Y155882D01*
X256881D01*
Y155952D01*
X256765Y156067D01*
X256627Y156160D01*
X256395Y156276D01*
D02*
G37*
G36*
X253965Y157016D02*
X252554D01*
Y156785D01*
X253965D01*
Y157016D01*
D02*
G37*
G36*
X249685Y156206D02*
X249661D01*
X249546Y156183D01*
X249476Y156114D01*
X249453Y156021D01*
Y155998D01*
X249476Y155882D01*
X249546Y155836D01*
X249638Y155813D01*
X249661D01*
X249777Y155836D01*
X249823Y155905D01*
X249847Y155975D01*
Y155998D01*
X249823Y156114D01*
X249754Y156183D01*
X249685Y156206D01*
D02*
G37*
G36*
X256627Y153175D02*
X254035Y150491D01*
X256164Y148292D01*
X256627Y153175D01*
D02*
G37*
G36*
X250541Y153499D02*
Y153267D01*
X250494D01*
X250957Y147876D01*
X253480Y150491D01*
X251860Y152157D01*
X251513D01*
Y152504D01*
X250541Y153499D01*
D02*
G37*
G36*
X256812Y155165D02*
X250332D01*
X250379Y154818D01*
X250541D01*
Y154077D01*
X251513Y153082D01*
X254428D01*
Y152157D01*
X252415D01*
X253757Y150768D01*
X256696Y153823D01*
X256812Y155165D01*
D02*
G37*
G36*
X250147Y154424D02*
X249384D01*
Y153661D01*
X250147D01*
Y154424D01*
D02*
G37*
G36*
X254035Y152689D02*
X251952D01*
Y152550D01*
X254035D01*
Y152689D01*
D02*
G37*
%LPD*%
G36*
X251397Y145886D02*
X251513Y145840D01*
X251582Y145770D01*
X251628Y145677D01*
X251698Y145516D01*
Y145469D01*
Y145446D01*
X251675Y145284D01*
X251628Y145168D01*
X251559Y145099D01*
X251466Y145053D01*
X251304Y144983D01*
X251235D01*
X251073Y145006D01*
X250957Y145053D01*
X250888Y145122D01*
X250818Y145215D01*
X250772Y145377D01*
Y145423D01*
Y145446D01*
X250795Y145608D01*
X250841Y145724D01*
X250911Y145793D01*
X251004Y145863D01*
X251166Y145909D01*
X251235D01*
X251397Y145886D01*
D02*
G37*
%LPC*%
G36*
X251258Y145516D02*
X251189D01*
X251166Y145492D01*
Y145469D01*
Y145446D01*
Y145400D01*
X251189Y145377D01*
X251235D01*
X251281Y145400D01*
X251304Y145423D01*
Y145446D01*
X251281Y145492D01*
X251258Y145516D01*
D02*
G37*
G36*
X210314Y278904D02*
X209109D01*
Y278603D01*
X208205D01*
Y278301D01*
X207603D01*
Y278000D01*
X207000D01*
Y277699D01*
X206699D01*
Y277397D01*
X206397D01*
Y277096D01*
X206096D01*
Y276795D01*
X205795D01*
Y276494D01*
X205493D01*
Y276192D01*
Y275891D01*
X205192D01*
Y275590D01*
Y275288D01*
X204891D01*
Y274987D01*
Y274686D01*
X204590D01*
Y274384D01*
Y274083D01*
Y273782D01*
Y273481D01*
X204288D01*
Y273179D01*
Y272878D01*
Y272577D01*
Y272275D01*
Y271974D01*
Y271673D01*
Y271371D01*
Y271070D01*
X204590D01*
Y270769D01*
Y270467D01*
X204891D01*
Y270166D01*
X205192D01*
Y269865D01*
X205493D01*
Y269564D01*
X205795D01*
Y269262D01*
X206397D01*
Y268961D01*
X209712D01*
Y269262D01*
X210616D01*
Y269564D01*
X211218D01*
Y269865D01*
X211821D01*
Y270166D01*
X212423D01*
Y270467D01*
X212725D01*
Y270769D01*
X213026D01*
Y271070D01*
X213327D01*
Y271371D01*
X213629D01*
Y271673D01*
X213930D01*
Y271974D01*
X214231D01*
Y272275D01*
Y272577D01*
X214532D01*
Y272878D01*
Y273179D01*
Y273481D01*
X214834D01*
Y273782D01*
Y274083D01*
Y274384D01*
Y274686D01*
Y274987D01*
X214532D01*
Y275288D01*
Y275590D01*
Y275891D01*
X214231D01*
Y276192D01*
Y276494D01*
X213930D01*
Y276795D01*
X213629D01*
Y277096D01*
X213327D01*
Y277397D01*
X213026D01*
Y277699D01*
X212725D01*
Y278000D01*
X212122D01*
Y278301D01*
X211520D01*
Y278603D01*
X210314D01*
Y278904D01*
D02*
G37*
G36*
X194948D02*
X193743D01*
Y278603D01*
X192538D01*
Y278301D01*
X191935D01*
Y278000D01*
X191634D01*
Y277699D01*
X191031D01*
Y277397D01*
X190730D01*
Y277096D01*
X190429D01*
Y276795D01*
Y276494D01*
X190127D01*
Y276192D01*
X189826D01*
Y275891D01*
Y275590D01*
X189525D01*
Y275288D01*
Y274987D01*
Y274686D01*
Y274384D01*
Y274083D01*
Y273782D01*
Y273481D01*
Y273179D01*
Y272878D01*
X189826D01*
Y272577D01*
Y272275D01*
X190127D01*
Y271974D01*
X190429D01*
Y271673D01*
Y271371D01*
X190730D01*
Y271070D01*
X191031D01*
Y270769D01*
X191332D01*
Y270467D01*
X191935D01*
Y270166D01*
X192236D01*
Y269865D01*
X192839D01*
Y269564D01*
X193442D01*
Y269262D01*
X194345D01*
Y268961D01*
X197660D01*
Y269262D01*
X198564D01*
Y269564D01*
X198865D01*
Y269865D01*
X199166D01*
Y270166D01*
X199468D01*
Y270467D01*
Y270769D01*
X199769D01*
Y271070D01*
Y271371D01*
Y271673D01*
Y271974D01*
Y272275D01*
Y272577D01*
Y272878D01*
Y273179D01*
Y273481D01*
Y273782D01*
Y274083D01*
X199468D01*
Y274384D01*
Y274686D01*
Y274987D01*
X199166D01*
Y275288D01*
Y275590D01*
X198865D01*
Y275891D01*
Y276192D01*
X198564D01*
Y276494D01*
X198262D01*
Y276795D01*
X197961D01*
Y277096D01*
X197660D01*
Y277397D01*
X197358D01*
Y277699D01*
X197057D01*
Y278000D01*
X196756D01*
Y278301D01*
X196153D01*
Y278603D01*
X194948D01*
Y278904D01*
D02*
G37*
G36*
X206096Y261429D02*
X197660D01*
Y261127D01*
Y260826D01*
Y260525D01*
Y260223D01*
Y259922D01*
Y259621D01*
Y259319D01*
X206096D01*
Y259621D01*
X206397D01*
Y259922D01*
Y260223D01*
Y260525D01*
Y260826D01*
Y261127D01*
X206096D01*
Y261429D01*
D02*
G37*
%LPD*%
D16*
X192000Y161000D02*
Y162000D01*
X190000Y159000D02*
X192000Y161000D01*
X190000Y154000D02*
Y159000D01*
X187000Y151000D02*
X190000Y154000D01*
X184000Y151000D02*
X187000D01*
X182000Y149000D02*
X184000Y151000D01*
X182000Y146000D02*
Y149000D01*
X222000Y157000D02*
Y162000D01*
X180001Y134000D02*
Y136666D01*
Y135333D01*
X184000D01*
Y137999D02*
X180001D01*
X181334Y139332D01*
X180001Y140665D01*
X184000D01*
X180668Y144663D02*
X180001Y143997D01*
Y142664D01*
X180668Y141997D01*
X181334D01*
X182001Y142664D01*
Y143997D01*
X182667Y144663D01*
X183334D01*
X184000Y143997D01*
Y142664D01*
X183334Y141997D01*
X224000Y142000D02*
X221334D01*
Y143999D01*
X222001Y144666D01*
X224000D01*
Y145999D02*
X220001D01*
Y147998D01*
X220668Y148664D01*
X222001D01*
X222667Y147998D01*
Y145999D01*
Y147332D02*
X224000Y148664D01*
X220668Y152663D02*
X220001Y151997D01*
Y150664D01*
X220668Y149997D01*
X221334D01*
X222001Y150664D01*
Y151997D01*
X222667Y152663D01*
X223334D01*
X224000Y151997D01*
Y150664D01*
X223334Y149997D01*
X220001Y153996D02*
Y156662D01*
Y155329D01*
X224000D01*
X180001Y181000D02*
X182667D01*
X184000Y182333D01*
X182667Y183666D01*
X180001D01*
X180668Y187664D02*
X180001Y186998D01*
Y185665D01*
X180668Y184999D01*
X183334D01*
X184000Y185665D01*
Y186998D01*
X183334Y187664D01*
X180668Y191663D02*
X180001Y190997D01*
Y189664D01*
X180668Y188997D01*
X183334D01*
X184000Y189664D01*
Y190997D01*
X183334Y191663D01*
X200001Y181000D02*
Y183666D01*
Y182333D01*
X204000D01*
X200668Y187664D02*
X200001Y186998D01*
Y185665D01*
X200668Y184999D01*
X201334D01*
X202001Y185665D01*
Y186998D01*
X202667Y187664D01*
X203333D01*
X204000Y186998D01*
Y185665D01*
X203333Y184999D01*
X200001Y188997D02*
Y191663D01*
Y190330D01*
X204000D01*
X210668Y153666D02*
X210001Y152999D01*
Y151666D01*
X210668Y151000D01*
X213334D01*
X214000Y151666D01*
Y152999D01*
X213334Y153666D01*
X212001D01*
Y152333D01*
X214000Y154999D02*
X210001D01*
X214000Y157665D01*
X210001D01*
Y158997D02*
X214000D01*
Y160997D01*
X213334Y161663D01*
X210668D01*
X210001Y160997D01*
Y158997D01*
X200001Y152000D02*
Y154666D01*
Y153333D01*
X204000D01*
X200668Y158665D02*
X200001Y157998D01*
Y156665D01*
X200668Y155999D01*
X203333D01*
X204000Y156665D01*
Y157998D01*
X203333Y158665D01*
X200001Y159997D02*
X204000D01*
X202667D01*
X200001Y162663D01*
X202001Y160664D01*
X204000Y162663D01*
X180001Y152000D02*
Y154666D01*
Y153333D01*
X184000D01*
X180001Y155999D02*
X184000D01*
Y157998D01*
X183334Y158665D01*
X180668D01*
X180001Y157998D01*
Y155999D01*
Y159997D02*
Y161330D01*
Y160664D01*
X184000D01*
Y159997D01*
Y161330D01*
X163001Y160000D02*
Y162666D01*
Y161333D01*
X167000D01*
X163001Y163999D02*
X167000D01*
Y165998D01*
X166333Y166665D01*
X163668D01*
X163001Y165998D01*
Y163999D01*
Y169997D02*
Y168664D01*
X163668Y167997D01*
X166333D01*
X167000Y168664D01*
Y169997D01*
X166333Y170663D01*
X163668D01*
X163001Y169997D01*
X234000Y182000D02*
Y183333D01*
Y182667D01*
X230001D01*
X230668Y182000D01*
X234000Y187332D02*
X230001D01*
X232001Y185332D01*
Y187998D01*
X234000Y155000D02*
Y156333D01*
Y155666D01*
X230001D01*
X230668Y155000D01*
Y158332D02*
X230001Y158999D01*
Y160332D01*
X230668Y160998D01*
X231334D01*
X232001Y160332D01*
Y159665D01*
Y160332D01*
X232667Y160998D01*
X233334D01*
X234000Y160332D01*
Y158999D01*
X233334Y158332D01*
X174000Y184666D02*
Y182000D01*
X171334Y184666D01*
X170668D01*
X170001Y183999D01*
Y182667D01*
X170668Y182000D01*
X174000Y159000D02*
Y160333D01*
Y159667D01*
X170001D01*
X170668Y159000D01*
X256000Y335000D02*
Y339998D01*
X252668Y335000D01*
Y339998D01*
X248502Y335000D02*
X250169D01*
X251002Y335833D01*
Y337499D01*
X250169Y338332D01*
X248502D01*
X247669Y337499D01*
Y336666D01*
X251002D01*
X246003Y338332D02*
Y335833D01*
X245170Y335000D01*
X244337Y335833D01*
X243504Y335000D01*
X242671Y335833D01*
Y338332D01*
X241005Y335000D02*
Y338332D01*
X239339Y339998D01*
X237673Y338332D01*
Y335000D01*
Y337499D01*
X241005D01*
X232674Y339998D02*
X236006D01*
Y335000D01*
X232674D01*
X236006Y337499D02*
X234340D01*
X226010Y339998D02*
X222677D01*
X224344D01*
Y335000D01*
X218512D02*
X220178D01*
X221011Y335833D01*
Y337499D01*
X220178Y338332D01*
X218512D01*
X217679Y337499D01*
Y336666D01*
X221011D01*
X212681Y338332D02*
X215180D01*
X216013Y337499D01*
Y335833D01*
X215180Y335000D01*
X212681D01*
X211015Y339998D02*
Y335000D01*
Y337499D01*
X210181Y338332D01*
X208515D01*
X207682Y337499D01*
Y335000D01*
X206016D02*
Y338332D01*
X203517D01*
X202684Y337499D01*
Y335000D01*
X200185D02*
X198519D01*
X197686Y335833D01*
Y337499D01*
X198519Y338332D01*
X200185D01*
X201018Y337499D01*
Y335833D01*
X200185Y335000D01*
X196019D02*
X194353D01*
X195186D01*
Y339998D01*
X196019D01*
X191021Y335000D02*
X189355D01*
X188522Y335833D01*
Y337499D01*
X189355Y338332D01*
X191021D01*
X191854Y337499D01*
Y335833D01*
X191021Y335000D01*
X185190Y333334D02*
X184356D01*
X183523Y334167D01*
Y338332D01*
X186023D01*
X186856Y337499D01*
Y335833D01*
X186023Y335000D01*
X183523D01*
X181857Y338332D02*
Y335833D01*
X181024Y335000D01*
X178525D01*
Y334167D01*
X179358Y333334D01*
X180191D01*
X178525Y335000D02*
Y338332D01*
X171861Y339998D02*
X170194D01*
X171028D01*
Y335000D01*
X171861D01*
X170194D01*
X167695D02*
Y338332D01*
X165196D01*
X164363Y337499D01*
Y335000D01*
X159365Y338332D02*
X161864D01*
X162697Y337499D01*
Y335833D01*
X161864Y335000D01*
X159365D01*
X157699D02*
Y335833D01*
X156866D01*
Y335000D01*
X157699D01*
X256000Y326000D02*
Y330998D01*
X252668Y326000D01*
Y330998D01*
X251002Y326000D02*
Y329332D01*
X249336Y330998D01*
X247669Y329332D01*
Y326000D01*
Y328499D01*
X251002D01*
X242671Y330998D02*
X246003D01*
Y326000D01*
X242671D01*
X246003Y328499D02*
X244337D01*
X241005D02*
X237673D01*
X232674Y330165D02*
X233507Y330998D01*
X235173D01*
X236006Y330165D01*
Y326833D01*
X235173Y326000D01*
X233507D01*
X232674Y326833D01*
X231008Y330998D02*
Y326000D01*
X229342Y327666D01*
X227676Y326000D01*
Y330998D01*
X226010Y330165D02*
X225177Y330998D01*
X223511D01*
X222677Y330165D01*
Y329332D01*
X223511Y328499D01*
X224344D01*
X223511D01*
X222677Y327666D01*
Y326833D01*
X223511Y326000D01*
X225177D01*
X226010Y326833D01*
X221011Y330165D02*
X220178Y330998D01*
X218512D01*
X217679Y330165D01*
Y326833D01*
X218512Y326000D01*
X220178D01*
X221011Y326833D01*
Y330165D01*
X216013D02*
X215180Y330998D01*
X213514D01*
X212681Y330165D01*
Y329332D01*
X213514Y328499D01*
X212681Y327666D01*
Y326833D01*
X213514Y326000D01*
X215180D01*
X216013Y326833D01*
Y327666D01*
X215180Y328499D01*
X216013Y329332D01*
Y330165D01*
X215180Y328499D02*
X213514D01*
X211015Y330998D02*
X207682D01*
X209349D01*
Y326000D01*
X206016Y328499D02*
X202684D01*
X201018Y326000D02*
Y330998D01*
X199352Y329332D01*
X197686Y330998D01*
Y326000D01*
X192687Y330165D02*
X193520Y330998D01*
X195186D01*
X196019Y330165D01*
Y329332D01*
X195186Y328499D01*
X193520D01*
X192687Y327666D01*
Y326833D01*
X193520Y326000D01*
X195186D01*
X196019Y326833D01*
X191021Y326000D02*
Y330998D01*
X188522D01*
X187689Y330165D01*
Y328499D01*
X188522Y327666D01*
X191021D01*
X183523Y326000D02*
Y330998D01*
X186023Y328499D01*
X182690D01*
X181024Y330165D02*
X180191Y330998D01*
X178525D01*
X177692Y330165D01*
Y329332D01*
X178525Y328499D01*
X179358D01*
X178525D01*
X177692Y327666D01*
Y326833D01*
X178525Y326000D01*
X180191D01*
X181024Y326833D01*
X176026Y330165D02*
X175193Y330998D01*
X173527D01*
X172694Y330165D01*
Y326833D01*
X173527Y326000D01*
X175193D01*
X176026Y326833D01*
Y330165D01*
X167695Y330998D02*
X171028D01*
Y328499D01*
X169361D01*
X171028D01*
Y326000D01*
X166029D02*
Y330998D01*
X163530D01*
X162697Y330165D01*
Y328499D01*
X163530Y327666D01*
X166029D01*
X164363D02*
X162697Y326000D01*
X157699Y330998D02*
X161031D01*
Y328499D01*
X159365Y329332D01*
X158532D01*
X157699Y328499D01*
Y326833D01*
X158532Y326000D01*
X160198D01*
X161031Y326833D01*
X156032Y328499D02*
X152700D01*
X151034Y330165D02*
X150201Y330998D01*
X148535D01*
X147702Y330165D01*
Y326833D01*
X148535Y326000D01*
X150201D01*
X151034Y326833D01*
Y330165D01*
X146036Y326000D02*
X144369D01*
X145203D01*
Y330998D01*
X146036Y330165D01*
X256000Y318000D02*
Y322998D01*
X253501D01*
X252668Y322165D01*
Y320499D01*
X253501Y319666D01*
X256000D01*
X254334D02*
X252668Y318000D01*
X250169D02*
X248502D01*
X247669Y318833D01*
Y320499D01*
X248502Y321332D01*
X250169D01*
X251002Y320499D01*
Y318833D01*
X250169Y318000D01*
X246003Y322998D02*
Y318000D01*
Y320499D01*
X242671D01*
Y322998D01*
Y318000D01*
X237673Y322165D02*
X238506Y322998D01*
X240172D01*
X241005Y322165D01*
Y321332D01*
X240172Y320499D01*
X238506D01*
X237673Y319666D01*
Y318833D01*
X238506Y318000D01*
X240172D01*
X241005Y318833D01*
X231008Y318000D02*
X227676Y321332D01*
X221011Y318000D02*
Y322998D01*
X218512D01*
X217679Y322165D01*
Y320499D01*
X218512Y319666D01*
X221011D01*
X216013Y322998D02*
Y318000D01*
X213514D01*
X212681Y318833D01*
Y319666D01*
X213514Y320499D01*
X216013D01*
X213514D01*
X212681Y321332D01*
Y322165D01*
X213514Y322998D01*
X216013D01*
X211015Y320499D02*
X207682D01*
X202684Y322998D02*
X206016D01*
Y320499D01*
X204350D01*
X206016D01*
Y318000D01*
X201018Y321332D02*
Y318000D01*
Y319666D01*
X200185Y320499D01*
X199352Y321332D01*
X198519D01*
X193520Y318000D02*
X195186D01*
X196019Y318833D01*
Y320499D01*
X195186Y321332D01*
X193520D01*
X192687Y320499D01*
Y319666D01*
X196019D01*
X188522Y318000D02*
X190188D01*
X191021Y318833D01*
Y320499D01*
X190188Y321332D01*
X188522D01*
X187689Y320499D01*
Y319666D01*
X191021D01*
M02*
