G04 Layer_Physical_Order=2*
G04 Layer_Color=16711680*
%FSLAX25Y25*%
%MOIN*%
G70*
G01*
G75*
%ADD15C,0.00600*%
%ADD16C,0.01000*%
%ADD18C,0.02000*%
%ADD20C,0.25000*%
%ADD21R,0.11000X0.06000*%
%ADD22O,0.11000X0.06000*%
%ADD23R,0.06000X0.11000*%
%ADD24O,0.06000X0.11000*%
%ADD25R,0.06102X0.06102*%
%ADD26C,0.06102*%
%ADD27C,0.05984*%
%ADD28R,0.05984X0.05984*%
%ADD29C,0.02400*%
%ADD30C,0.02362*%
G36*
X290500Y177856D02*
X290858Y177928D01*
X290901Y177956D01*
X291941Y177449D01*
X291993Y177060D01*
X292355Y176184D01*
X292933Y175432D01*
X293685Y174855D01*
X294560Y174493D01*
X295500Y174369D01*
X300500D01*
X301440Y174493D01*
X302315Y174855D01*
X303067Y175432D01*
X303645Y176184D01*
X304007Y177060D01*
X304980Y176898D01*
Y170249D01*
X304038Y170027D01*
X303980Y170035D01*
X303353Y170853D01*
X302517Y171494D01*
X301544Y171897D01*
X300500Y172035D01*
X298500D01*
Y168000D01*
Y163965D01*
X300500D01*
X301544Y164103D01*
X302517Y164506D01*
X303353Y165147D01*
X303980Y165965D01*
X304038Y165972D01*
X304980Y165751D01*
Y160249D01*
X304038Y160028D01*
X303980Y160035D01*
X303353Y160853D01*
X302517Y161494D01*
X301544Y161897D01*
X300500Y162034D01*
X298500D01*
Y158000D01*
Y153965D01*
X300500D01*
X301544Y154103D01*
X302517Y154506D01*
X303353Y155147D01*
X303980Y155965D01*
X304038Y155973D01*
X304980Y155751D01*
Y149102D01*
X304007Y148940D01*
X303645Y149815D01*
X303067Y150568D01*
X302315Y151145D01*
X301440Y151507D01*
X300500Y151631D01*
X295500D01*
X294560Y151507D01*
X293685Y151145D01*
X292933Y150568D01*
X292355Y149815D01*
X291993Y148940D01*
X291869Y148000D01*
X291993Y147060D01*
X292355Y146185D01*
X292933Y145432D01*
X293685Y144855D01*
X294560Y144493D01*
X295500Y144369D01*
X300500D01*
X301440Y144493D01*
X302315Y144855D01*
X303067Y145432D01*
X303645Y146185D01*
X304007Y147060D01*
X304980Y146898D01*
Y139102D01*
X304007Y138940D01*
X303645Y139815D01*
X303067Y140568D01*
X302315Y141145D01*
X301440Y141507D01*
X300500Y141631D01*
X295500D01*
X294560Y141507D01*
X293685Y141145D01*
X292933Y140568D01*
X292355Y139815D01*
X291993Y138940D01*
X291869Y138000D01*
X291993Y137060D01*
X292355Y136185D01*
X292933Y135432D01*
X293685Y134855D01*
X294560Y134493D01*
X295500Y134369D01*
X300500D01*
X301440Y134493D01*
X302315Y134855D01*
X303067Y135432D01*
X303645Y136185D01*
X304007Y137060D01*
X304980Y136898D01*
Y129102D01*
X304007Y128940D01*
X303645Y129815D01*
X303067Y130568D01*
X302315Y131145D01*
X301440Y131507D01*
X300500Y131631D01*
X295500D01*
X294560Y131507D01*
X293685Y131145D01*
X292933Y130568D01*
X292355Y129815D01*
X291993Y128940D01*
X291869Y128000D01*
X291993Y127060D01*
X292355Y126184D01*
X292933Y125432D01*
X293685Y124855D01*
X294560Y124493D01*
X295500Y124369D01*
X300500D01*
X301440Y124493D01*
X302315Y124855D01*
X303067Y125432D01*
X303645Y126184D01*
X304007Y127060D01*
X304980Y126898D01*
Y101020D01*
X299102D01*
X298940Y101993D01*
X299816Y102355D01*
X300568Y102932D01*
X301145Y103684D01*
X301507Y104560D01*
X301631Y105500D01*
Y110500D01*
X301507Y111440D01*
X301145Y112315D01*
X300568Y113068D01*
X299816Y113645D01*
X298940Y114007D01*
X298000Y114131D01*
X297060Y114007D01*
X296184Y113645D01*
X295432Y113068D01*
X294855Y112315D01*
X294493Y111440D01*
X294369Y110500D01*
Y105500D01*
X294493Y104560D01*
X294855Y103684D01*
X295432Y102932D01*
X296184Y102355D01*
X297060Y101993D01*
X296898Y101020D01*
X290249D01*
X290027Y101962D01*
X290035Y102020D01*
X290853Y102647D01*
X291494Y103483D01*
X291897Y104456D01*
X292035Y105500D01*
Y107500D01*
X288000D01*
X283965D01*
Y105500D01*
X284103Y104456D01*
X284506Y103483D01*
X285147Y102647D01*
X285965Y102020D01*
X285972Y101962D01*
X285751Y101020D01*
X279102D01*
X278940Y101993D01*
X279816Y102355D01*
X280568Y102932D01*
X281145Y103684D01*
X281507Y104560D01*
X281631Y105500D01*
Y110500D01*
X281507Y111440D01*
X281145Y112315D01*
X280568Y113068D01*
X279816Y113645D01*
X278940Y114007D01*
X278000Y114131D01*
X277060Y114007D01*
X276185Y113645D01*
X275432Y113068D01*
X274855Y112315D01*
X274493Y111440D01*
X274369Y110500D01*
Y105500D01*
X274493Y104560D01*
X274855Y103684D01*
X275432Y102932D01*
X276185Y102355D01*
X277060Y101993D01*
X276898Y101020D01*
X269102D01*
X268940Y101993D01*
X269815Y102355D01*
X270567Y102932D01*
X271145Y103684D01*
X271507Y104560D01*
X271631Y105500D01*
Y110500D01*
X271507Y111440D01*
X271145Y112315D01*
X270567Y113068D01*
X269815Y113645D01*
X268940Y114007D01*
X268000Y114131D01*
X267060Y114007D01*
X266184Y113645D01*
X265433Y113068D01*
X264855Y112315D01*
X264493Y111440D01*
X264369Y110500D01*
Y105500D01*
X264493Y104560D01*
X264855Y103684D01*
X265433Y102932D01*
X266184Y102355D01*
X267060Y101993D01*
X266898Y101020D01*
X259102D01*
X258940Y101993D01*
X259816Y102355D01*
X260567Y102932D01*
X261145Y103684D01*
X261507Y104560D01*
X261631Y105500D01*
Y110500D01*
X261507Y111440D01*
X261145Y112315D01*
X260567Y113068D01*
X259816Y113645D01*
X258940Y114007D01*
X258000Y114131D01*
X257060Y114007D01*
X256185Y113645D01*
X255433Y113068D01*
X254855Y112315D01*
X254493Y111440D01*
X254369Y110500D01*
Y105500D01*
X254493Y104560D01*
X254855Y103684D01*
X255433Y102932D01*
X256185Y102355D01*
X257060Y101993D01*
X256898Y101020D01*
X249102D01*
X248940Y101993D01*
X249816Y102355D01*
X250568Y102932D01*
X251145Y103684D01*
X251507Y104560D01*
X251631Y105500D01*
Y110500D01*
X251507Y111440D01*
X251145Y112315D01*
X250568Y113068D01*
X249816Y113645D01*
X248940Y114007D01*
X248000Y114131D01*
X247060Y114007D01*
X246184Y113645D01*
X245432Y113068D01*
X244855Y112315D01*
X244493Y111440D01*
X244369Y110500D01*
Y105500D01*
X244493Y104560D01*
X244855Y103684D01*
X245432Y102932D01*
X246184Y102355D01*
X247060Y101993D01*
X246898Y101020D01*
X239102D01*
X238940Y101993D01*
X239815Y102355D01*
X240567Y102932D01*
X241145Y103684D01*
X241507Y104560D01*
X241631Y105500D01*
Y110500D01*
X241507Y111440D01*
X241145Y112315D01*
X240567Y113068D01*
X239815Y113645D01*
X238940Y114007D01*
X238778Y114029D01*
X237862Y114945D01*
X238245Y115869D01*
X277500D01*
X278124Y115993D01*
X278654Y116347D01*
X287154Y124846D01*
X287507Y125376D01*
X287631Y126000D01*
X287631Y126000D01*
Y177826D01*
X287869Y178005D01*
X288631Y178269D01*
X289142Y177928D01*
X289500Y177856D01*
Y180000D01*
X290500D01*
Y177856D01*
D02*
G37*
G36*
X304980Y322801D02*
X304500Y322000D01*
X303980Y322000D01*
X298500D01*
Y318000D01*
Y314000D01*
X303980D01*
X304500Y314000D01*
X304980Y313199D01*
Y309102D01*
X304007Y308940D01*
X303645Y309816D01*
X303067Y310567D01*
X302315Y311145D01*
X301440Y311507D01*
X300500Y311631D01*
X295500D01*
X294560Y311507D01*
X293685Y311145D01*
X292933Y310567D01*
X292355Y309816D01*
X291993Y308940D01*
X291869Y308000D01*
X291993Y307060D01*
X292355Y306185D01*
X292933Y305433D01*
X293685Y304855D01*
X294560Y304493D01*
X295500Y304369D01*
X300500D01*
X301440Y304493D01*
X302315Y304855D01*
X303067Y305433D01*
X303645Y306185D01*
X304007Y307060D01*
X304980Y306898D01*
Y299102D01*
X304007Y298940D01*
X303645Y299816D01*
X303067Y300568D01*
X302315Y301145D01*
X301440Y301507D01*
X300500Y301631D01*
X295500D01*
X294560Y301507D01*
X293685Y301145D01*
X292933Y300568D01*
X292355Y299816D01*
X291993Y298940D01*
X291869Y298000D01*
X291993Y297060D01*
X292355Y296184D01*
X292933Y295432D01*
X293685Y294855D01*
X294560Y294493D01*
X295500Y294369D01*
X300500D01*
X301440Y294493D01*
X302315Y294855D01*
X303067Y295432D01*
X303645Y296184D01*
X304007Y297060D01*
X304980Y296898D01*
Y290249D01*
X304038Y290027D01*
X303980Y290035D01*
X303353Y290853D01*
X302517Y291494D01*
X301544Y291897D01*
X300500Y292035D01*
X298500D01*
Y288000D01*
Y283965D01*
X300500D01*
X301544Y284103D01*
X302517Y284506D01*
X303353Y285147D01*
X303980Y285965D01*
X304038Y285972D01*
X304980Y285751D01*
Y279102D01*
X304007Y278940D01*
X303645Y279816D01*
X303067Y280568D01*
X302315Y281145D01*
X301440Y281507D01*
X300500Y281631D01*
X295500D01*
X294560Y281507D01*
X293685Y281145D01*
X292933Y280568D01*
X292355Y279816D01*
X291993Y278940D01*
X291869Y278000D01*
X291993Y277060D01*
X292355Y276185D01*
X292933Y275432D01*
X293685Y274855D01*
X294560Y274493D01*
X295500Y274369D01*
X300500D01*
X301440Y274493D01*
X302315Y274855D01*
X303067Y275432D01*
X303645Y276185D01*
X304007Y277060D01*
X304980Y276898D01*
Y269102D01*
X304007Y268940D01*
X303645Y269815D01*
X303067Y270567D01*
X302315Y271145D01*
X301440Y271507D01*
X300500Y271631D01*
X295500D01*
X294560Y271507D01*
X293685Y271145D01*
X292933Y270567D01*
X292355Y269815D01*
X291993Y268940D01*
X291869Y268000D01*
X291993Y267060D01*
X292355Y266184D01*
X292933Y265433D01*
X293685Y264855D01*
X294560Y264493D01*
X295500Y264369D01*
X300500D01*
X301440Y264493D01*
X302315Y264855D01*
X303067Y265433D01*
X303645Y266184D01*
X304007Y267060D01*
X304980Y266898D01*
Y260249D01*
X304038Y260028D01*
X303980Y260035D01*
X303353Y260853D01*
X302517Y261494D01*
X301544Y261897D01*
X300500Y262035D01*
X298500D01*
Y258000D01*
Y253965D01*
X300500D01*
X301544Y254103D01*
X302517Y254506D01*
X303353Y255147D01*
X303980Y255965D01*
X304038Y255973D01*
X304980Y255751D01*
Y249102D01*
X304007Y248940D01*
X303645Y249816D01*
X303067Y250568D01*
X302315Y251145D01*
X301440Y251507D01*
X300500Y251631D01*
X295500D01*
X294560Y251507D01*
X293685Y251145D01*
X292933Y250568D01*
X292355Y249816D01*
X291993Y248940D01*
X291869Y248000D01*
X291993Y247060D01*
X292355Y246184D01*
X292933Y245432D01*
X293685Y244855D01*
X294560Y244493D01*
X295500Y244369D01*
X300500D01*
X301440Y244493D01*
X302315Y244855D01*
X303067Y245432D01*
X303645Y246184D01*
X304007Y247060D01*
X304980Y246898D01*
Y240249D01*
X304038Y240027D01*
X303980Y240035D01*
X303353Y240853D01*
X302517Y241494D01*
X301544Y241897D01*
X300500Y242035D01*
X298500D01*
Y238000D01*
Y233965D01*
X300500D01*
X301544Y234103D01*
X302517Y234506D01*
X303353Y235147D01*
X303980Y235965D01*
X304038Y235972D01*
X304980Y235751D01*
Y230249D01*
X304038Y230028D01*
X303980Y230035D01*
X303353Y230853D01*
X302517Y231494D01*
X301544Y231897D01*
X300500Y232034D01*
X298500D01*
Y228000D01*
Y223966D01*
X300500D01*
X301544Y224103D01*
X302517Y224506D01*
X303353Y225147D01*
X303980Y225965D01*
X304038Y225973D01*
X304980Y225751D01*
Y219102D01*
X304007Y218940D01*
X303645Y219815D01*
X303067Y220567D01*
X302315Y221145D01*
X301440Y221507D01*
X300500Y221631D01*
X295500D01*
X294560Y221507D01*
X293685Y221145D01*
X292933Y220567D01*
X292355Y219815D01*
X291993Y218940D01*
X291869Y218000D01*
X291993Y217060D01*
X292355Y216184D01*
X292933Y215433D01*
X293685Y214855D01*
X294560Y214493D01*
X295500Y214369D01*
X300500D01*
X301440Y214493D01*
X302315Y214855D01*
X303067Y215433D01*
X303645Y216184D01*
X304007Y217060D01*
X304980Y216898D01*
Y209102D01*
X304007Y208940D01*
X303645Y209816D01*
X303067Y210567D01*
X302315Y211145D01*
X301440Y211507D01*
X300500Y211631D01*
X295500D01*
X294560Y211507D01*
X293685Y211145D01*
X292933Y210567D01*
X292355Y209816D01*
X291993Y208940D01*
X291869Y208000D01*
X291993Y207060D01*
X292355Y206185D01*
X292933Y205433D01*
X293685Y204855D01*
X294560Y204493D01*
X295500Y204369D01*
X300500D01*
X301440Y204493D01*
X302315Y204855D01*
X303067Y205433D01*
X303645Y206185D01*
X304007Y207060D01*
X304980Y206898D01*
Y199102D01*
X304007Y198940D01*
X303645Y199815D01*
X303067Y200568D01*
X302315Y201145D01*
X301440Y201507D01*
X300500Y201631D01*
X295500D01*
X294560Y201507D01*
X293685Y201145D01*
X292933Y200568D01*
X292355Y199815D01*
X291993Y198940D01*
X291869Y198000D01*
X291993Y197060D01*
X292355Y196185D01*
X292933Y195432D01*
X293685Y194855D01*
X294560Y194493D01*
X295500Y194369D01*
X300500D01*
X301440Y194493D01*
X302315Y194855D01*
X303067Y195432D01*
X303645Y196185D01*
X304007Y197060D01*
X304980Y196898D01*
Y189102D01*
X304007Y188940D01*
X303645Y189815D01*
X303067Y190568D01*
X302315Y191145D01*
X301440Y191507D01*
X300500Y191631D01*
X295500D01*
X294560Y191507D01*
X293685Y191145D01*
X292933Y190568D01*
X292355Y189815D01*
X292279Y189631D01*
X288000D01*
X287376Y189507D01*
X286846Y189154D01*
X284846Y187153D01*
X284493Y186624D01*
X284369Y186000D01*
Y167600D01*
X283369Y167066D01*
X283358Y167072D01*
X283000Y167144D01*
Y165000D01*
Y162856D01*
X283358Y162928D01*
X283369Y162935D01*
X284369Y162400D01*
Y155100D01*
X283369Y154566D01*
X283358Y154572D01*
X283000Y154644D01*
Y152500D01*
Y150356D01*
X283358Y150428D01*
X283369Y150435D01*
X284369Y149900D01*
Y126676D01*
X276824Y119131D01*
X168676D01*
X158653Y129154D01*
X158124Y129507D01*
X157500Y129631D01*
X125131D01*
Y132824D01*
X161153Y168846D01*
X161507Y169376D01*
X161631Y170000D01*
X161631Y170000D01*
Y181324D01*
X165676Y185369D01*
X180369D01*
Y179776D01*
X180159Y179689D01*
X179396Y179104D01*
X178811Y178341D01*
X178443Y177453D01*
X178317Y176500D01*
X178443Y175547D01*
X178811Y174659D01*
X179396Y173896D01*
X180159Y173311D01*
X181047Y172943D01*
X182000Y172817D01*
X182953Y172943D01*
X183841Y173311D01*
X184604Y173896D01*
X185189Y174659D01*
X185557Y175547D01*
X185683Y176500D01*
X185557Y177453D01*
X185189Y178341D01*
X184604Y179104D01*
X183841Y179689D01*
X183631Y179776D01*
Y187000D01*
Y195500D01*
X183507Y196124D01*
X183153Y196653D01*
X181653Y198153D01*
X181124Y198507D01*
X180925Y198547D01*
X180702Y198696D01*
X180000Y198835D01*
X179298Y198696D01*
X178702Y198298D01*
X178304Y197702D01*
X178165Y197000D01*
X178304Y196298D01*
X178702Y195702D01*
X179298Y195304D01*
X180000Y195165D01*
X180369Y194289D01*
Y188631D01*
X165000D01*
X164376Y188507D01*
X163847Y188154D01*
X158846Y183153D01*
X158493Y182624D01*
X158369Y182000D01*
Y170676D01*
X122346Y134653D01*
X121993Y134124D01*
X121869Y133500D01*
Y129631D01*
X113721D01*
X113645Y129815D01*
X113068Y130568D01*
X112315Y131145D01*
X111440Y131507D01*
X110500Y131631D01*
X105500D01*
X104560Y131507D01*
X103684Y131145D01*
X102932Y130568D01*
X102355Y129815D01*
X101993Y128940D01*
X101020Y129102D01*
Y136898D01*
X101993Y137060D01*
X102355Y136185D01*
X102932Y135432D01*
X103684Y134855D01*
X104560Y134493D01*
X105500Y134369D01*
X110500D01*
X111440Y134493D01*
X112315Y134855D01*
X113068Y135432D01*
X113645Y136185D01*
X114007Y137060D01*
X114131Y138000D01*
X114007Y138940D01*
X113645Y139815D01*
X113068Y140568D01*
X112315Y141145D01*
X111440Y141507D01*
X110500Y141631D01*
X105500D01*
X104560Y141507D01*
X103684Y141145D01*
X102932Y140568D01*
X102355Y139815D01*
X101993Y138940D01*
X101020Y139102D01*
Y146898D01*
X101993Y147060D01*
X102355Y146185D01*
X102932Y145432D01*
X103684Y144855D01*
X104560Y144493D01*
X105500Y144369D01*
X110500D01*
X111440Y144493D01*
X112315Y144855D01*
X113068Y145432D01*
X113645Y146185D01*
X114007Y147060D01*
X114131Y148000D01*
X114007Y148940D01*
X113645Y149815D01*
X113068Y150568D01*
X112315Y151145D01*
X111440Y151507D01*
X110500Y151631D01*
X105500D01*
X104560Y151507D01*
X103684Y151145D01*
X102932Y150568D01*
X102355Y149815D01*
X101993Y148940D01*
X101020Y149102D01*
Y156898D01*
X101993Y157060D01*
X102355Y156184D01*
X102932Y155432D01*
X103684Y154855D01*
X104560Y154493D01*
X105500Y154369D01*
X110500D01*
X111440Y154493D01*
X112315Y154855D01*
X113068Y155432D01*
X113645Y156184D01*
X114007Y157060D01*
X114131Y158000D01*
X114007Y158940D01*
X113645Y159816D01*
X113068Y160568D01*
X112315Y161145D01*
X111440Y161507D01*
X110500Y161631D01*
X105500D01*
X104560Y161507D01*
X103684Y161145D01*
X102932Y160568D01*
X102355Y159816D01*
X101993Y158940D01*
X101020Y159102D01*
Y165751D01*
X101962Y165972D01*
X102020Y165965D01*
X102647Y165147D01*
X103483Y164506D01*
X104456Y164103D01*
X105500Y163965D01*
X107500D01*
Y168000D01*
Y172035D01*
X105500D01*
X104456Y171897D01*
X103483Y171494D01*
X102647Y170853D01*
X102020Y170035D01*
X101962Y170027D01*
X101020Y170249D01*
Y175751D01*
X101962Y175972D01*
X102020Y175965D01*
X102647Y175147D01*
X103483Y174506D01*
X104456Y174103D01*
X105500Y173966D01*
X107500D01*
Y178000D01*
Y182035D01*
X105500D01*
X104456Y181897D01*
X103483Y181494D01*
X102647Y180853D01*
X102020Y180035D01*
X101962Y180027D01*
X101020Y180249D01*
Y186898D01*
X101993Y187060D01*
X102355Y186185D01*
X102932Y185432D01*
X103684Y184855D01*
X104560Y184493D01*
X105500Y184369D01*
X110500D01*
X111440Y184493D01*
X112315Y184855D01*
X113068Y185432D01*
X113645Y186185D01*
X114007Y187060D01*
X114131Y188000D01*
X114007Y188940D01*
X113645Y189815D01*
X113068Y190568D01*
X112315Y191145D01*
X111440Y191507D01*
X110500Y191631D01*
X105500D01*
X104560Y191507D01*
X103684Y191145D01*
X102932Y190568D01*
X102355Y189815D01*
X101993Y188940D01*
X101020Y189102D01*
Y196898D01*
X101993Y197060D01*
X102355Y196185D01*
X102932Y195432D01*
X103684Y194855D01*
X104560Y194493D01*
X105500Y194369D01*
X110500D01*
X111440Y194493D01*
X112315Y194855D01*
X113068Y195432D01*
X113645Y196185D01*
X114007Y197060D01*
X114131Y198000D01*
X114007Y198940D01*
X113645Y199815D01*
X113068Y200568D01*
X112315Y201145D01*
X111440Y201507D01*
X110500Y201631D01*
X105500D01*
X104560Y201507D01*
X103684Y201145D01*
X102932Y200568D01*
X102355Y199815D01*
X101993Y198940D01*
X101020Y199102D01*
Y206898D01*
X101993Y207060D01*
X102355Y206185D01*
X102932Y205433D01*
X103684Y204855D01*
X104560Y204493D01*
X105500Y204369D01*
X110500D01*
X111440Y204493D01*
X112315Y204855D01*
X113068Y205433D01*
X113645Y206185D01*
X114007Y207060D01*
X114131Y208000D01*
X114007Y208940D01*
X113645Y209816D01*
X113068Y210567D01*
X112315Y211145D01*
X111440Y211507D01*
X110500Y211631D01*
X105500D01*
X104560Y211507D01*
X103684Y211145D01*
X102932Y210567D01*
X102355Y209816D01*
X101993Y208940D01*
X101020Y209102D01*
Y216898D01*
X101993Y217060D01*
X102355Y216184D01*
X102932Y215433D01*
X103684Y214855D01*
X104560Y214493D01*
X105500Y214369D01*
X110500D01*
X111440Y214493D01*
X112315Y214855D01*
X113068Y215433D01*
X113645Y216184D01*
X114007Y217060D01*
X114131Y218000D01*
X114007Y218940D01*
X113645Y219815D01*
X113068Y220567D01*
X112315Y221145D01*
X111440Y221507D01*
X110500Y221631D01*
X105500D01*
X104560Y221507D01*
X103684Y221145D01*
X102932Y220567D01*
X102355Y219815D01*
X101993Y218940D01*
X101020Y219102D01*
Y226898D01*
X101993Y227060D01*
X102355Y226185D01*
X102932Y225432D01*
X103684Y224855D01*
X104560Y224493D01*
X105500Y224369D01*
X110500D01*
X111440Y224493D01*
X112315Y224855D01*
X113068Y225432D01*
X113645Y226185D01*
X114007Y227060D01*
X114010Y227082D01*
X118000D01*
X118351Y227152D01*
X118649Y227351D01*
X121649Y230351D01*
X121848Y230649D01*
X121918Y231000D01*
Y259448D01*
X122298Y259702D01*
X122696Y260298D01*
X122835Y261000D01*
X122696Y261702D01*
X122298Y262298D01*
X121702Y262696D01*
X121000Y262835D01*
X120298Y262696D01*
X119702Y262298D01*
X118798D01*
X118202Y262696D01*
X117500Y262835D01*
X116798Y262696D01*
X116202Y262298D01*
X115804Y261702D01*
X115665Y261000D01*
X115804Y260298D01*
X116202Y259702D01*
X116582Y259448D01*
Y241380D01*
X114812Y239610D01*
X113648Y239815D01*
X113627Y239839D01*
X113068Y240567D01*
X112315Y241145D01*
X111440Y241507D01*
X110500Y241631D01*
X105500D01*
X104560Y241507D01*
X103684Y241145D01*
X102932Y240567D01*
X102355Y239815D01*
X101993Y238940D01*
X101020Y239102D01*
Y246898D01*
X101993Y247060D01*
X102355Y246184D01*
X102932Y245432D01*
X103684Y244855D01*
X104560Y244493D01*
X105500Y244369D01*
X110500D01*
X111440Y244493D01*
X112315Y244855D01*
X113068Y245432D01*
X113645Y246184D01*
X114007Y247060D01*
X114131Y248000D01*
X114007Y248940D01*
X113645Y249816D01*
X113068Y250568D01*
X112315Y251145D01*
X111440Y251507D01*
X110500Y251631D01*
X105500D01*
X104560Y251507D01*
X103684Y251145D01*
X102932Y250568D01*
X102355Y249816D01*
X101993Y248940D01*
X101020Y249102D01*
Y256898D01*
X101993Y257060D01*
X102355Y256185D01*
X102932Y255433D01*
X103684Y254855D01*
X104560Y254493D01*
X105500Y254369D01*
X110500D01*
X111440Y254493D01*
X112315Y254855D01*
X113068Y255433D01*
X113645Y256185D01*
X114007Y257060D01*
X114131Y258000D01*
X114007Y258940D01*
X113645Y259816D01*
X113068Y260567D01*
X112315Y261145D01*
X111440Y261507D01*
X110500Y261631D01*
X105500D01*
X104560Y261507D01*
X103684Y261145D01*
X102932Y260567D01*
X102355Y259816D01*
X101993Y258940D01*
X101020Y259102D01*
Y265751D01*
X101962Y265972D01*
X102020Y265965D01*
X102647Y265147D01*
X103483Y264506D01*
X104456Y264103D01*
X105500Y263966D01*
X107500D01*
Y268000D01*
Y272035D01*
X105500D01*
X104456Y271897D01*
X103483Y271494D01*
X102647Y270853D01*
X102020Y270035D01*
X101962Y270027D01*
X101020Y270249D01*
Y276898D01*
X101993Y277060D01*
X102355Y276185D01*
X102932Y275432D01*
X103684Y274855D01*
X104560Y274493D01*
X105500Y274369D01*
X110500D01*
X111440Y274493D01*
X112315Y274855D01*
X113068Y275432D01*
X113645Y276185D01*
X114007Y277060D01*
X114131Y278000D01*
X114007Y278940D01*
X113645Y279816D01*
X113068Y280568D01*
X112315Y281145D01*
X111440Y281507D01*
X110500Y281631D01*
X105500D01*
X104560Y281507D01*
X103684Y281145D01*
X102932Y280568D01*
X102355Y279816D01*
X101993Y278940D01*
X101020Y279102D01*
Y285751D01*
X101962Y285972D01*
X102020Y285965D01*
X102647Y285147D01*
X103483Y284506D01*
X104456Y284103D01*
X105500Y283965D01*
X107500D01*
Y288000D01*
Y292035D01*
X105500D01*
X104456Y291897D01*
X103483Y291494D01*
X102647Y290853D01*
X102020Y290035D01*
X101962Y290027D01*
X101020Y290249D01*
Y296898D01*
X101993Y297060D01*
X102355Y296184D01*
X102932Y295432D01*
X103684Y294855D01*
X104560Y294493D01*
X105500Y294369D01*
X110500D01*
X111440Y294493D01*
X112315Y294855D01*
X113068Y295432D01*
X113645Y296184D01*
X114007Y297060D01*
X114131Y298000D01*
X114007Y298940D01*
X113645Y299816D01*
X113068Y300568D01*
X112315Y301145D01*
X111440Y301507D01*
X110500Y301631D01*
X105500D01*
X104560Y301507D01*
X103684Y301145D01*
X102932Y300568D01*
X102355Y299816D01*
X101993Y298940D01*
X101020Y299102D01*
Y305751D01*
X101962Y305973D01*
X102020Y305965D01*
X102647Y305147D01*
X103483Y304506D01*
X104456Y304103D01*
X105500Y303965D01*
X107500D01*
Y308000D01*
Y312035D01*
X105500D01*
X104456Y311897D01*
X103483Y311494D01*
X102647Y310853D01*
X102020Y310035D01*
X101962Y310028D01*
X101020Y310249D01*
Y314111D01*
X101900Y314400D01*
X102020Y314400D01*
X114100D01*
Y321600D01*
X102020D01*
X101900Y321600D01*
X101020Y321889D01*
Y360981D01*
X304980D01*
Y322801D01*
D02*
G37*
G36*
X102355Y126184D02*
X102932Y125432D01*
X103684Y124855D01*
X104560Y124493D01*
X105500Y124369D01*
X110500D01*
X111440Y124493D01*
X112315Y124855D01*
X113068Y125432D01*
X113645Y126184D01*
X113721Y126369D01*
X156824D01*
X166369Y116824D01*
Y113721D01*
X166184Y113645D01*
X165432Y113068D01*
X164855Y112315D01*
X164493Y111440D01*
X164369Y110500D01*
Y105500D01*
X164493Y104560D01*
X164855Y103684D01*
X165432Y102932D01*
X166184Y102355D01*
X167060Y101993D01*
X166898Y101020D01*
X159102D01*
X158940Y101993D01*
X159816Y102355D01*
X160568Y102932D01*
X161145Y103684D01*
X161507Y104560D01*
X161631Y105500D01*
Y110500D01*
X161507Y111440D01*
X161145Y112315D01*
X160568Y113068D01*
X159816Y113645D01*
X158940Y114007D01*
X158000Y114131D01*
X157060Y114007D01*
X156184Y113645D01*
X155432Y113068D01*
X154855Y112315D01*
X154493Y111440D01*
X154369Y110500D01*
Y105500D01*
X154493Y104560D01*
X154855Y103684D01*
X155432Y102932D01*
X156184Y102355D01*
X157060Y101993D01*
X156898Y101020D01*
X149102D01*
X148940Y101993D01*
X149815Y102355D01*
X150568Y102932D01*
X151145Y103684D01*
X151507Y104560D01*
X151631Y105500D01*
Y110500D01*
X151507Y111440D01*
X151145Y112315D01*
X150568Y113068D01*
X149815Y113645D01*
X148940Y114007D01*
X148000Y114131D01*
X147060Y114007D01*
X146185Y113645D01*
X145432Y113068D01*
X144855Y112315D01*
X144493Y111440D01*
X144369Y110500D01*
Y105500D01*
X144493Y104560D01*
X144855Y103684D01*
X145432Y102932D01*
X146185Y102355D01*
X147060Y101993D01*
X146898Y101020D01*
X139102D01*
X138940Y101993D01*
X139815Y102355D01*
X140568Y102932D01*
X141145Y103684D01*
X141507Y104560D01*
X141631Y105500D01*
Y110500D01*
X141507Y111440D01*
X141145Y112315D01*
X140568Y113068D01*
X139815Y113645D01*
X138940Y114007D01*
X138000Y114131D01*
X137060Y114007D01*
X136185Y113645D01*
X135432Y113068D01*
X134855Y112315D01*
X134493Y111440D01*
X134369Y110500D01*
Y105500D01*
X134493Y104560D01*
X134855Y103684D01*
X135432Y102932D01*
X136185Y102355D01*
X137060Y101993D01*
X136898Y101020D01*
X129102D01*
X128940Y101993D01*
X129815Y102355D01*
X130568Y102932D01*
X131145Y103684D01*
X131507Y104560D01*
X131631Y105500D01*
Y110500D01*
X131507Y111440D01*
X131145Y112315D01*
X130568Y113068D01*
X129815Y113645D01*
X128940Y114007D01*
X128000Y114131D01*
X127060Y114007D01*
X126184Y113645D01*
X125432Y113068D01*
X124855Y112315D01*
X124493Y111440D01*
X124369Y110500D01*
Y105500D01*
X124493Y104560D01*
X124855Y103684D01*
X125432Y102932D01*
X126184Y102355D01*
X127060Y101993D01*
X126898Y101020D01*
X119102D01*
X118940Y101993D01*
X119816Y102355D01*
X120568Y102932D01*
X121145Y103684D01*
X121507Y104560D01*
X121631Y105500D01*
Y110500D01*
X121507Y111440D01*
X121145Y112315D01*
X120568Y113068D01*
X119816Y113645D01*
X118940Y114007D01*
X118000Y114131D01*
X117060Y114007D01*
X116184Y113645D01*
X115432Y113068D01*
X114855Y112315D01*
X114493Y111440D01*
X114369Y110500D01*
Y105500D01*
X114493Y104560D01*
X114855Y103684D01*
X115432Y102932D01*
X116184Y102355D01*
X117060Y101993D01*
X116898Y101020D01*
X112801D01*
X112000Y101500D01*
X112000Y102020D01*
Y107500D01*
X108000D01*
X104000D01*
Y102020D01*
X104000Y101500D01*
X103199Y101020D01*
X101020D01*
Y126898D01*
X101993Y127060D01*
X102355Y126184D01*
D02*
G37*
%LPC*%
G36*
X289500Y119500D02*
X287856D01*
X287928Y119142D01*
X288414Y118414D01*
X289142Y117928D01*
X289500Y117856D01*
Y119500D01*
D02*
G37*
G36*
X292144D02*
X290500D01*
Y117856D01*
X290858Y117928D01*
X291586Y118414D01*
X292072Y119142D01*
X292144Y119500D01*
D02*
G37*
G36*
X287500Y114469D02*
X286956Y114397D01*
X285983Y113994D01*
X285147Y113353D01*
X284506Y112517D01*
X284103Y111544D01*
X283965Y110500D01*
Y108500D01*
X287500D01*
Y114469D01*
D02*
G37*
G36*
X288500D02*
Y108500D01*
X292035D01*
Y110500D01*
X291897Y111544D01*
X291494Y112517D01*
X290853Y113353D01*
X290017Y113994D01*
X289044Y114397D01*
X288500Y114469D01*
D02*
G37*
G36*
X289500Y122144D02*
X289142Y122072D01*
X288414Y121586D01*
X287928Y120858D01*
X287856Y120500D01*
X289500D01*
Y122144D01*
D02*
G37*
G36*
X290500D02*
Y120500D01*
X292144D01*
X292072Y120858D01*
X291586Y121586D01*
X290858Y122072D01*
X290500Y122144D01*
D02*
G37*
G36*
X297500Y167500D02*
X291531D01*
X291603Y166956D01*
X292006Y165983D01*
X292647Y165147D01*
X293483Y164506D01*
X294456Y164103D01*
X295500Y163965D01*
X297500D01*
Y167500D01*
D02*
G37*
G36*
Y172035D02*
X295500D01*
X294456Y171897D01*
X293483Y171494D01*
X292647Y170853D01*
X292006Y170017D01*
X291603Y169044D01*
X291531Y168500D01*
X297500D01*
Y172035D01*
D02*
G37*
G36*
Y157500D02*
X291531D01*
X291603Y156956D01*
X292006Y155983D01*
X292647Y155147D01*
X293483Y154506D01*
X294456Y154103D01*
X295500Y153965D01*
X297500D01*
Y157500D01*
D02*
G37*
G36*
Y162034D02*
X295500D01*
X294456Y161897D01*
X293483Y161494D01*
X292647Y160853D01*
X292006Y160017D01*
X291603Y159044D01*
X291531Y158500D01*
X297500D01*
Y162034D01*
D02*
G37*
G36*
X169500Y199144D02*
X169142Y199072D01*
X168414Y198586D01*
X167928Y197858D01*
X167856Y197500D01*
X169500D01*
Y199144D01*
D02*
G37*
G36*
X139500Y202144D02*
X139142Y202072D01*
X138414Y201586D01*
X137928Y200858D01*
X137757Y200000D01*
X136816Y199607D01*
X136642Y199572D01*
X135914Y199086D01*
X135428Y198358D01*
X135356Y198000D01*
X137500D01*
Y197500D01*
X138000D01*
Y195356D01*
X138358Y195428D01*
X139086Y195914D01*
X139572Y196642D01*
X139743Y197500D01*
X140684Y197893D01*
X140858Y197928D01*
X141586Y198414D01*
X142072Y199142D01*
X142144Y199500D01*
X140000D01*
Y200000D01*
X139500D01*
Y202144D01*
D02*
G37*
G36*
X215347Y199346D02*
X213703D01*
X213774Y198988D01*
X214260Y198260D01*
X214988Y197774D01*
X215347Y197703D01*
Y199346D01*
D02*
G37*
G36*
X170500Y199144D02*
Y197500D01*
X172144D01*
X172072Y197858D01*
X171586Y198586D01*
X170858Y199072D01*
X170500Y199144D01*
D02*
G37*
G36*
X137000Y197000D02*
X135356D01*
X135428Y196642D01*
X135914Y195914D01*
X136642Y195428D01*
X137000Y195356D01*
Y197000D01*
D02*
G37*
G36*
X257500Y208123D02*
X256562Y208000D01*
X255688Y207638D01*
X254938Y207062D01*
X254362Y206312D01*
X254000Y205438D01*
X253877Y204500D01*
X254000Y203562D01*
X254362Y202688D01*
X254938Y201938D01*
X255688Y201362D01*
X256562Y201000D01*
X256927Y200952D01*
X257757Y200000D01*
X257928Y199142D01*
X257976Y199069D01*
X257628Y198378D01*
X257413Y198112D01*
X256562Y198000D01*
X255688Y197638D01*
X254938Y197062D01*
X254362Y196312D01*
X254000Y195438D01*
X253877Y194500D01*
X254000Y193562D01*
X254362Y192688D01*
X254938Y191938D01*
X255688Y191362D01*
X256562Y191000D01*
X257500Y190877D01*
X258438Y191000D01*
X259312Y191362D01*
X260062Y191938D01*
X260638Y192688D01*
X261000Y193562D01*
X261123Y194500D01*
X261000Y195438D01*
X260638Y196312D01*
X260270Y196791D01*
X260476Y197656D01*
X260634Y197883D01*
X260858Y197928D01*
X261586Y198414D01*
X262072Y199142D01*
X262144Y199500D01*
X260000D01*
Y200500D01*
X262144D01*
X262072Y200858D01*
X261586Y201586D01*
X261233Y201822D01*
X260843Y202390D01*
X260809Y203102D01*
X261000Y203562D01*
X261123Y204500D01*
X261000Y205438D01*
X260638Y206312D01*
X260062Y207062D01*
X259312Y207638D01*
X258438Y208000D01*
X257500Y208123D01*
D02*
G37*
G36*
X147500Y198123D02*
X146562Y198000D01*
X145688Y197638D01*
X144938Y197062D01*
X144362Y196312D01*
X144000Y195438D01*
X143877Y194500D01*
X144000Y193562D01*
X144362Y192688D01*
X144938Y191938D01*
X145688Y191362D01*
X146562Y191000D01*
X147500Y190877D01*
X148438Y191000D01*
X149312Y191362D01*
X150062Y191938D01*
X150638Y192688D01*
X151000Y193562D01*
X151123Y194500D01*
X151000Y195438D01*
X150638Y196312D01*
X150062Y197062D01*
X149312Y197638D01*
X148438Y198000D01*
X147500Y198123D01*
D02*
G37*
G36*
X172144Y196500D02*
X170500D01*
Y194856D01*
X170858Y194928D01*
X171586Y195414D01*
X172072Y196142D01*
X172144Y196500D01*
D02*
G37*
G36*
X169500D02*
X167856D01*
X167928Y196142D01*
X168414Y195414D01*
X169142Y194928D01*
X169500Y194856D01*
Y196500D01*
D02*
G37*
G36*
X119500Y202144D02*
X119142Y202072D01*
X118414Y201586D01*
X117928Y200858D01*
X117856Y200500D01*
X119500D01*
Y202144D01*
D02*
G37*
G36*
X215347Y201990D02*
X214988Y201919D01*
X214260Y201433D01*
X213774Y200705D01*
X213703Y200346D01*
X215347D01*
Y201990D01*
D02*
G37*
G36*
X120500Y202144D02*
Y200500D01*
X122144D01*
X122072Y200858D01*
X121586Y201586D01*
X120858Y202072D01*
X120500Y202144D01*
D02*
G37*
G36*
X220500D02*
Y200500D01*
X222144D01*
X222072Y200858D01*
X221586Y201586D01*
X220858Y202072D01*
X220500Y202144D01*
D02*
G37*
G36*
X140500D02*
Y200500D01*
X142144D01*
X142072Y200858D01*
X141586Y201586D01*
X140858Y202072D01*
X140500Y202144D01*
D02*
G37*
G36*
X122144Y199500D02*
X120500D01*
Y197856D01*
X120858Y197928D01*
X121586Y198414D01*
X122072Y199142D01*
X122144Y199500D01*
D02*
G37*
G36*
X119500D02*
X117856D01*
X117928Y199142D01*
X118414Y198414D01*
X119142Y197928D01*
X119500Y197856D01*
Y199500D01*
D02*
G37*
G36*
X222144D02*
X220500D01*
Y197856D01*
X220858Y197928D01*
X221586Y198414D01*
X222072Y199142D01*
X222144Y199500D01*
D02*
G37*
G36*
X242144D02*
X240500D01*
Y197856D01*
X240858Y197928D01*
X241586Y198414D01*
X242072Y199142D01*
X242144Y199500D01*
D02*
G37*
G36*
X239500D02*
X237856D01*
X237928Y199142D01*
X238414Y198414D01*
X239142Y197928D01*
X239500Y197856D01*
Y199500D01*
D02*
G37*
G36*
X120500Y192144D02*
Y190500D01*
X122144D01*
X122072Y190858D01*
X121586Y191586D01*
X120858Y192072D01*
X120500Y192144D01*
D02*
G37*
G36*
X252144Y179500D02*
X250500D01*
Y177856D01*
X250858Y177928D01*
X251586Y178414D01*
X252072Y179142D01*
X252144Y179500D01*
D02*
G37*
G36*
X249500D02*
X247856D01*
X247928Y179142D01*
X248414Y178414D01*
X249142Y177928D01*
X249500Y177856D01*
Y179500D01*
D02*
G37*
G36*
X119500D02*
X117856D01*
X117928Y179142D01*
X118414Y178414D01*
X119142Y177928D01*
X119500Y177856D01*
Y179500D01*
D02*
G37*
G36*
X222000Y180183D02*
X221047Y180057D01*
X220159Y179689D01*
X219396Y179104D01*
X218811Y178341D01*
X218443Y177453D01*
X218317Y176500D01*
X218443Y175547D01*
X218811Y174659D01*
X219396Y173896D01*
X220159Y173311D01*
X221047Y172943D01*
X222000Y172817D01*
X222953Y172943D01*
X223841Y173311D01*
X224604Y173896D01*
X225189Y174659D01*
X225557Y175547D01*
X225683Y176500D01*
X225557Y177453D01*
X225189Y178341D01*
X224604Y179104D01*
X223841Y179689D01*
X222953Y180057D01*
X222000Y180183D01*
D02*
G37*
G36*
X258000Y178461D02*
Y175000D01*
X261461D01*
X261389Y175542D01*
X260987Y176513D01*
X260347Y177347D01*
X259513Y177987D01*
X258542Y178389D01*
X258000Y178461D01*
D02*
G37*
G36*
X114469Y177500D02*
X108500D01*
Y173966D01*
X110500D01*
X111544Y174103D01*
X112517Y174506D01*
X113353Y175147D01*
X113994Y175983D01*
X114397Y176956D01*
X114469Y177500D01*
D02*
G37*
G36*
X232000Y180183D02*
X231047Y180057D01*
X230159Y179689D01*
X229396Y179104D01*
X228811Y178341D01*
X228443Y177453D01*
X228317Y176500D01*
X228443Y175547D01*
X228811Y174659D01*
X229396Y173896D01*
X230159Y173311D01*
X231047Y172943D01*
X232000Y172817D01*
X232953Y172943D01*
X233841Y173311D01*
X234604Y173896D01*
X235189Y174659D01*
X235557Y175547D01*
X235683Y176500D01*
X235557Y177453D01*
X235189Y178341D01*
X234604Y179104D01*
X233841Y179689D01*
X232953Y180057D01*
X232000Y180183D01*
D02*
G37*
G36*
X257000Y178461D02*
X256458Y178389D01*
X255487Y177987D01*
X254653Y177347D01*
X254013Y176513D01*
X253611Y175542D01*
X253539Y175000D01*
X257000D01*
Y178461D01*
D02*
G37*
G36*
X147500Y188123D02*
X146562Y188000D01*
X145688Y187638D01*
X144938Y187062D01*
X144362Y186312D01*
X144000Y185438D01*
X143877Y184500D01*
X144000Y183562D01*
X144362Y182688D01*
X144938Y181938D01*
X145688Y181362D01*
X146562Y181000D01*
X146927Y180952D01*
X147757Y180000D01*
X147859Y179488D01*
X147751Y179200D01*
X147363Y178653D01*
X147165Y178482D01*
X146458Y178389D01*
X145487Y177987D01*
X144653Y177347D01*
X144013Y176513D01*
X143611Y175542D01*
X143539Y175000D01*
X147500D01*
X151461D01*
X151389Y175542D01*
X150987Y176513D01*
X150707Y176878D01*
X150773Y177331D01*
X151011Y178027D01*
X151017Y178034D01*
X151586Y178414D01*
X152072Y179142D01*
X152144Y179500D01*
X150000D01*
Y180500D01*
X152144D01*
X152072Y180858D01*
X151586Y181586D01*
X151233Y181822D01*
X150843Y182389D01*
X150809Y183102D01*
X151000Y183562D01*
X151123Y184500D01*
X151000Y185438D01*
X150638Y186312D01*
X150062Y187062D01*
X149312Y187638D01*
X148438Y188000D01*
X147500Y188123D01*
D02*
G37*
G36*
X122144Y179500D02*
X120500D01*
Y177856D01*
X120858Y177928D01*
X121586Y178414D01*
X122072Y179142D01*
X122144Y179500D01*
D02*
G37*
G36*
X119500Y189500D02*
X117856D01*
X117928Y189142D01*
X118414Y188414D01*
X119142Y187928D01*
X119500Y187856D01*
Y189500D01*
D02*
G37*
G36*
X257500Y188123D02*
X256562Y188000D01*
X255688Y187638D01*
X254938Y187062D01*
X254362Y186312D01*
X254000Y185438D01*
X253877Y184500D01*
X254000Y183562D01*
X254362Y182688D01*
X254938Y181938D01*
X255688Y181362D01*
X256562Y181000D01*
X257500Y180877D01*
X258438Y181000D01*
X259312Y181362D01*
X260062Y181938D01*
X260638Y182688D01*
X261000Y183562D01*
X261123Y184500D01*
X261000Y185438D01*
X260638Y186312D01*
X260062Y187062D01*
X259312Y187638D01*
X258438Y188000D01*
X257500Y188123D01*
D02*
G37*
G36*
X119500Y192144D02*
X119142Y192072D01*
X118414Y191586D01*
X117928Y190858D01*
X117856Y190500D01*
X119500D01*
Y192144D01*
D02*
G37*
G36*
X122144Y189500D02*
X120500D01*
Y187856D01*
X120858Y187928D01*
X121586Y188414D01*
X122072Y189142D01*
X122144Y189500D01*
D02*
G37*
G36*
X250500Y182144D02*
Y180500D01*
X252144D01*
X252072Y180858D01*
X251586Y181586D01*
X250858Y182072D01*
X250500Y182144D01*
D02*
G37*
G36*
X119500D02*
X119142Y182072D01*
X118414Y181586D01*
X117928Y180858D01*
X117856Y180500D01*
X119500D01*
Y182144D01*
D02*
G37*
G36*
X110500Y182035D02*
X108500D01*
Y178500D01*
X114469D01*
X114397Y179044D01*
X113994Y180017D01*
X113353Y180853D01*
X112517Y181494D01*
X111544Y181897D01*
X110500Y182035D01*
D02*
G37*
G36*
X249500Y182144D02*
X249142Y182072D01*
X248414Y181586D01*
X247928Y180858D01*
X247856Y180500D01*
X249500D01*
Y182144D01*
D02*
G37*
G36*
X120500D02*
Y180500D01*
X122144D01*
X122072Y180858D01*
X121586Y181586D01*
X120858Y182072D01*
X120500Y182144D01*
D02*
G37*
G36*
X239500Y202144D02*
X239142Y202072D01*
X238414Y201586D01*
X237928Y200858D01*
X237856Y200500D01*
X239500D01*
Y202144D01*
D02*
G37*
G36*
X129644Y239500D02*
X128000D01*
Y237856D01*
X128358Y237928D01*
X129086Y238414D01*
X129572Y239142D01*
X129644Y239500D01*
D02*
G37*
G36*
X127000D02*
X125356D01*
X125428Y239142D01*
X125914Y238414D01*
X126642Y237928D01*
X127000Y237856D01*
Y239500D01*
D02*
G37*
G36*
X159500D02*
X157856D01*
X157928Y239142D01*
X158414Y238414D01*
X159142Y237928D01*
X159500Y237856D01*
Y239500D01*
D02*
G37*
G36*
X279500D02*
X277856D01*
X277928Y239142D01*
X278414Y238414D01*
X279142Y237928D01*
X279500Y237856D01*
Y239500D01*
D02*
G37*
G36*
X162144D02*
X160500D01*
Y237856D01*
X160858Y237928D01*
X161586Y238414D01*
X162072Y239142D01*
X162144Y239500D01*
D02*
G37*
G36*
X297500Y232034D02*
X295500D01*
X294456Y231897D01*
X293483Y231494D01*
X292647Y230853D01*
X292006Y230017D01*
X291603Y229044D01*
X291531Y228500D01*
X297500D01*
Y232034D01*
D02*
G37*
G36*
X210731Y230079D02*
X209106D01*
Y228454D01*
X209457Y228524D01*
X210179Y229006D01*
X210661Y229728D01*
X210731Y230079D01*
D02*
G37*
G36*
X147500Y238123D02*
X146562Y238000D01*
X145688Y237638D01*
X144938Y237062D01*
X144362Y236312D01*
X144000Y235438D01*
X143877Y234500D01*
X144000Y233562D01*
X144362Y232688D01*
X144938Y231938D01*
X145688Y231362D01*
X146562Y231000D01*
X147500Y230877D01*
X148438Y231000D01*
X149312Y231362D01*
X150062Y231938D01*
X150638Y232688D01*
X151000Y233562D01*
X151123Y234500D01*
X151000Y235438D01*
X150638Y236312D01*
X150062Y237062D01*
X149312Y237638D01*
X148438Y238000D01*
X147500Y238123D01*
D02*
G37*
G36*
X297500Y237500D02*
X291531D01*
X291603Y236956D01*
X292006Y235983D01*
X292647Y235147D01*
X293483Y234506D01*
X294456Y234103D01*
X295500Y233965D01*
X297500D01*
Y237500D01*
D02*
G37*
G36*
X257500Y248123D02*
X256562Y248000D01*
X255688Y247638D01*
X254938Y247062D01*
X254362Y246312D01*
X254000Y245438D01*
X253877Y244500D01*
X254000Y243562D01*
X254362Y242688D01*
X254938Y241938D01*
X255688Y241362D01*
X256562Y241000D01*
X256927Y240952D01*
X257757Y240000D01*
X257928Y239142D01*
X257976Y239069D01*
X257628Y238378D01*
X257413Y238112D01*
X256562Y238000D01*
X255688Y237638D01*
X254938Y237062D01*
X254362Y236312D01*
X254000Y235438D01*
X253877Y234500D01*
X254000Y233562D01*
X254362Y232688D01*
X254938Y231938D01*
X255688Y231362D01*
X256562Y231000D01*
X257500Y230877D01*
X258438Y231000D01*
X259312Y231362D01*
X260062Y231938D01*
X260638Y232688D01*
X261000Y233562D01*
X261123Y234500D01*
X261000Y235438D01*
X260638Y236312D01*
X260270Y236791D01*
X260476Y237656D01*
X260634Y237883D01*
X260858Y237928D01*
X261586Y238414D01*
X262072Y239142D01*
X262144Y239500D01*
X260000D01*
Y240500D01*
X262144D01*
X262072Y240858D01*
X261586Y241586D01*
X261233Y241822D01*
X260843Y242389D01*
X260809Y243102D01*
X261000Y243562D01*
X261123Y244500D01*
X261000Y245438D01*
X260638Y246312D01*
X260062Y247062D01*
X259312Y247638D01*
X258438Y248000D01*
X257500Y248123D01*
D02*
G37*
G36*
X279500Y242144D02*
X279142Y242072D01*
X278414Y241586D01*
X277928Y240858D01*
X277856Y240500D01*
X279500D01*
Y242144D01*
D02*
G37*
G36*
X160500D02*
Y240500D01*
X162144D01*
X162072Y240858D01*
X161586Y241586D01*
X160858Y242072D01*
X160500Y242144D01*
D02*
G37*
G36*
X280500D02*
Y240500D01*
X282144D01*
X282072Y240858D01*
X281586Y241586D01*
X280858Y242072D01*
X280500Y242144D01*
D02*
G37*
G36*
X195114Y245695D02*
X194763Y245625D01*
X194042Y245143D01*
X193560Y244422D01*
X193490Y244071D01*
X195114D01*
Y245695D01*
D02*
G37*
G36*
X147500Y248123D02*
X146562Y248000D01*
X145688Y247638D01*
X144938Y247062D01*
X144362Y246312D01*
X144000Y245438D01*
X143877Y244500D01*
X144000Y243562D01*
X144362Y242688D01*
X144938Y241938D01*
X145688Y241362D01*
X146562Y241000D01*
X147500Y240877D01*
X148438Y241000D01*
X149312Y241362D01*
X150062Y241938D01*
X150638Y242688D01*
X151000Y243562D01*
X151123Y244500D01*
X151000Y245438D01*
X150638Y246312D01*
X150062Y247062D01*
X149312Y247638D01*
X148438Y248000D01*
X147500Y248123D01*
D02*
G37*
G36*
X297500Y242035D02*
X295500D01*
X294456Y241897D01*
X293483Y241494D01*
X292647Y240853D01*
X292006Y240017D01*
X291603Y239044D01*
X291531Y238500D01*
X297500D01*
Y242035D01*
D02*
G37*
G36*
X282144Y239500D02*
X280500D01*
Y237856D01*
X280858Y237928D01*
X281586Y238414D01*
X282072Y239142D01*
X282144Y239500D01*
D02*
G37*
G36*
X127000Y242144D02*
X126642Y242072D01*
X125914Y241586D01*
X125428Y240858D01*
X125356Y240500D01*
X127000D01*
Y242144D01*
D02*
G37*
G36*
X159500D02*
X159142Y242072D01*
X158414Y241586D01*
X157928Y240858D01*
X157856Y240500D01*
X159500D01*
Y242144D01*
D02*
G37*
G36*
X128000D02*
Y240500D01*
X129644D01*
X129572Y240858D01*
X129086Y241586D01*
X128358Y242072D01*
X128000Y242144D01*
D02*
G37*
G36*
X195114Y230079D02*
X193490D01*
X193560Y229728D01*
X194042Y229006D01*
X194763Y228524D01*
X195114Y228454D01*
Y230079D01*
D02*
G37*
G36*
X147500Y218123D02*
X146562Y218000D01*
X145688Y217638D01*
X144938Y217062D01*
X144362Y216312D01*
X144000Y215438D01*
X143877Y214500D01*
X144000Y213562D01*
X144362Y212688D01*
X144938Y211938D01*
X145688Y211362D01*
X146562Y211000D01*
X147500Y210877D01*
X148438Y211000D01*
X149312Y211362D01*
X150062Y211938D01*
X150638Y212688D01*
X151000Y213562D01*
X151123Y214500D01*
X151000Y215438D01*
X150638Y216312D01*
X150062Y217062D01*
X149312Y217638D01*
X148438Y218000D01*
X147500Y218123D01*
D02*
G37*
G36*
X217000Y214335D02*
X216298Y214196D01*
X215702Y213798D01*
X215304Y213202D01*
X215165Y212500D01*
X215254Y212052D01*
X213620Y210418D01*
X212052D01*
X211798Y210798D01*
X211202Y211196D01*
X210500Y211335D01*
X209798Y211196D01*
X209202Y210798D01*
X208804Y210202D01*
X208665Y209500D01*
X208804Y208798D01*
X209202Y208202D01*
X209798Y207804D01*
X210500Y207665D01*
X211202Y207804D01*
X211798Y208202D01*
X212052Y208582D01*
X214000D01*
X214351Y208652D01*
X214649Y208851D01*
X216552Y210754D01*
X217000Y210665D01*
X217702Y210804D01*
X218298Y211202D01*
X218696Y211798D01*
X218835Y212500D01*
X218696Y213202D01*
X218298Y213798D01*
X217702Y214196D01*
X217000Y214335D01*
D02*
G37*
G36*
X257500Y218123D02*
X256562Y218000D01*
X255688Y217638D01*
X254938Y217062D01*
X254362Y216312D01*
X254000Y215438D01*
X253877Y214500D01*
X254000Y213562D01*
X254362Y212688D01*
X254938Y211938D01*
X255688Y211362D01*
X256562Y211000D01*
X257500Y210877D01*
X258438Y211000D01*
X259312Y211362D01*
X260062Y211938D01*
X260638Y212688D01*
X261000Y213562D01*
X261123Y214500D01*
X261000Y215438D01*
X260638Y216312D01*
X260062Y217062D01*
X259312Y217638D01*
X258438Y218000D01*
X257500Y218123D01*
D02*
G37*
G36*
X181500Y219835D02*
X180798Y219696D01*
X180202Y219298D01*
X179804Y218702D01*
X179665Y218000D01*
X179804Y217298D01*
X180202Y216702D01*
X180798Y216304D01*
X181500Y216165D01*
X182202Y216304D01*
X182798Y216702D01*
X183052Y217082D01*
X184620D01*
X185851Y215851D01*
X186149Y215652D01*
X186500Y215582D01*
X195948D01*
X196202Y215202D01*
X196798Y214804D01*
X197500Y214665D01*
X198202Y214804D01*
X198798Y215202D01*
X199196Y215798D01*
X199335Y216500D01*
X199196Y217202D01*
X198798Y217798D01*
X198202Y218196D01*
X197500Y218335D01*
X196798Y218196D01*
X196202Y217798D01*
X195948Y217418D01*
X186880D01*
X185649Y218649D01*
X185351Y218848D01*
X185000Y218918D01*
X183052D01*
X182798Y219298D01*
X182202Y219696D01*
X181500Y219835D01*
D02*
G37*
G36*
X118000Y222335D02*
X117298Y222196D01*
X116702Y221798D01*
X116304Y221202D01*
X116165Y220500D01*
X116304Y219798D01*
X116702Y219202D01*
X117082Y218948D01*
Y217052D01*
X116702Y216798D01*
X116304Y216202D01*
X116165Y215500D01*
X116304Y214798D01*
X116702Y214202D01*
X117298Y213804D01*
X118000Y213665D01*
X118702Y213804D01*
X119298Y214202D01*
X119696Y214798D01*
X119835Y215500D01*
X119696Y216202D01*
X119298Y216798D01*
X118918Y217052D01*
Y218948D01*
X119298Y219202D01*
X119696Y219798D01*
X119835Y220500D01*
X119696Y221202D01*
X119298Y221798D01*
X118702Y222196D01*
X118000Y222335D01*
D02*
G37*
G36*
X147500Y208123D02*
X146562Y208000D01*
X145688Y207638D01*
X144938Y207062D01*
X144362Y206312D01*
X144000Y205438D01*
X143877Y204500D01*
X144000Y203562D01*
X144362Y202688D01*
X144938Y201938D01*
X145688Y201362D01*
X146562Y201000D01*
X147500Y200877D01*
X148438Y201000D01*
X149312Y201362D01*
X150062Y201938D01*
X150638Y202688D01*
X151000Y203562D01*
X151123Y204500D01*
X151000Y205438D01*
X150638Y206312D01*
X150062Y207062D01*
X149312Y207638D01*
X148438Y208000D01*
X147500Y208123D01*
D02*
G37*
G36*
X240500Y202144D02*
Y200500D01*
X242144D01*
X242072Y200858D01*
X241586Y201586D01*
X240858Y202072D01*
X240500Y202144D01*
D02*
G37*
G36*
X219500D02*
X219142Y202072D01*
X218496Y201641D01*
X218300Y201568D01*
X217433Y201433D01*
X216705Y201919D01*
X216347Y201990D01*
Y199846D01*
Y197703D01*
X216705Y197774D01*
X217351Y198205D01*
X217547Y198278D01*
X218414Y198414D01*
X219142Y197928D01*
X219500Y197856D01*
Y200000D01*
Y202144D01*
D02*
G37*
G36*
X164000Y211335D02*
X163298Y211196D01*
X162702Y210798D01*
X162448Y210418D01*
X154552D01*
X154298Y210798D01*
X153702Y211196D01*
X153000Y211335D01*
X152298Y211196D01*
X151702Y210798D01*
X151304Y210202D01*
X151165Y209500D01*
X151304Y208798D01*
X151702Y208202D01*
X152298Y207804D01*
X153000Y207665D01*
X153702Y207804D01*
X154298Y208202D01*
X154552Y208582D01*
X162448D01*
X162702Y208202D01*
X163298Y207804D01*
X164000Y207665D01*
X164702Y207804D01*
X165298Y208202D01*
X165696Y208798D01*
X165835Y209500D01*
X165696Y210202D01*
X165298Y210798D01*
X164702Y211196D01*
X164000Y211335D01*
D02*
G37*
G36*
X181500Y211835D02*
X180798Y211696D01*
X180202Y211298D01*
X179804Y210702D01*
X179665Y210000D01*
X179804Y209298D01*
X180202Y208702D01*
X180798Y208304D01*
X181500Y208165D01*
X182202Y208304D01*
X182798Y208702D01*
X183052Y209082D01*
X195748D01*
X195804Y208798D01*
X196202Y208202D01*
X196798Y207804D01*
X197500Y207665D01*
X198202Y207804D01*
X198798Y208202D01*
X199196Y208798D01*
X199335Y209500D01*
X199196Y210202D01*
X198798Y210798D01*
X198202Y211196D01*
X197500Y211335D01*
X196798Y211196D01*
X196382Y210918D01*
X183052D01*
X182798Y211298D01*
X182202Y211696D01*
X181500Y211835D01*
D02*
G37*
G36*
X147500Y228123D02*
X146562Y228000D01*
X145688Y227638D01*
X144938Y227062D01*
X144362Y226312D01*
X144000Y225438D01*
X143877Y224500D01*
X144000Y223562D01*
X144362Y222688D01*
X144938Y221938D01*
X145688Y221362D01*
X146562Y221000D01*
X147500Y220877D01*
X148438Y221000D01*
X149312Y221362D01*
X150062Y221938D01*
X150638Y222688D01*
X151000Y223562D01*
X151123Y224500D01*
X151000Y225438D01*
X150638Y226312D01*
X150062Y227062D01*
X149312Y227638D01*
X148438Y228000D01*
X147500Y228123D01*
D02*
G37*
G36*
X130500Y222144D02*
Y220500D01*
X132144D01*
X132072Y220858D01*
X131586Y221586D01*
X130858Y222072D01*
X130500Y222144D01*
D02*
G37*
G36*
X257500Y228123D02*
X256562Y228000D01*
X255688Y227638D01*
X254938Y227062D01*
X254362Y226312D01*
X254000Y225438D01*
X253877Y224500D01*
X254000Y223562D01*
X254362Y222688D01*
X254938Y221938D01*
X255688Y221362D01*
X256562Y221000D01*
X257500Y220877D01*
X258438Y221000D01*
X259312Y221362D01*
X260062Y221938D01*
X260638Y222688D01*
X261000Y223562D01*
X261123Y224500D01*
X261000Y225438D01*
X260638Y226312D01*
X260062Y227062D01*
X259312Y227638D01*
X258438Y228000D01*
X257500Y228123D01*
D02*
G37*
G36*
X297500Y227500D02*
X291531D01*
X291603Y226956D01*
X292006Y225983D01*
X292647Y225147D01*
X293483Y224506D01*
X294456Y224103D01*
X295500Y223966D01*
X297500D01*
Y227500D01*
D02*
G37*
G36*
X180000Y252835D02*
X179298Y252696D01*
X178702Y252298D01*
X178304Y251702D01*
X178165Y251000D01*
X178304Y250298D01*
X178369Y250202D01*
Y225798D01*
X178304Y225702D01*
X178165Y225000D01*
X178304Y224298D01*
X178702Y223702D01*
X179298Y223304D01*
X180000Y223165D01*
X180702Y223304D01*
X181298Y223702D01*
X181696Y224298D01*
X181835Y225000D01*
X181696Y225702D01*
X181631Y225798D01*
Y250202D01*
X181696Y250298D01*
X181835Y251000D01*
X181696Y251702D01*
X181298Y252298D01*
X180702Y252696D01*
X180000Y252835D01*
D02*
G37*
G36*
X129500Y219500D02*
X127856D01*
X127928Y219142D01*
X128414Y218414D01*
X129142Y217928D01*
X129500Y217856D01*
Y219500D01*
D02*
G37*
G36*
X213500Y218335D02*
X212798Y218196D01*
X212202Y217798D01*
X211804Y217202D01*
X211748Y216918D01*
X208552D01*
X208298Y217298D01*
X207702Y217696D01*
X207000Y217835D01*
X206298Y217696D01*
X205702Y217298D01*
X205304Y216702D01*
X205165Y216000D01*
X205304Y215298D01*
X205702Y214702D01*
X206298Y214304D01*
X207000Y214165D01*
X207702Y214304D01*
X208298Y214702D01*
X208552Y215082D01*
X212382D01*
X212798Y214804D01*
X213500Y214665D01*
X214202Y214804D01*
X214798Y215202D01*
X215196Y215798D01*
X215335Y216500D01*
X215196Y217202D01*
X214798Y217798D01*
X214202Y218196D01*
X213500Y218335D01*
D02*
G37*
G36*
X132144Y219500D02*
X130500D01*
Y217856D01*
X130858Y217928D01*
X131586Y218414D01*
X132072Y219142D01*
X132144Y219500D01*
D02*
G37*
G36*
X129500Y222144D02*
X129142Y222072D01*
X128414Y221586D01*
X127928Y220858D01*
X127856Y220500D01*
X129500D01*
Y222144D01*
D02*
G37*
G36*
X153500Y222335D02*
X152798Y222196D01*
X152202Y221798D01*
X151804Y221202D01*
X151665Y220500D01*
X151804Y219798D01*
X152202Y219202D01*
X152798Y218804D01*
X153500Y218665D01*
X154202Y218804D01*
X154798Y219202D01*
X155052Y219582D01*
X171748D01*
X171804Y219298D01*
X172202Y218702D01*
X172798Y218304D01*
X173500Y218165D01*
X174202Y218304D01*
X174798Y218702D01*
X175196Y219298D01*
X175335Y220000D01*
X175196Y220702D01*
X174798Y221298D01*
X174202Y221696D01*
X173500Y221835D01*
X172798Y221696D01*
X172382Y221418D01*
X155052D01*
X154798Y221798D01*
X154202Y222196D01*
X153500Y222335D01*
D02*
G37*
G36*
X122000Y142144D02*
X121642Y142072D01*
X120914Y141586D01*
X120428Y140858D01*
X120356Y140500D01*
X122000D01*
Y142144D01*
D02*
G37*
G36*
X252144Y139500D02*
X250500D01*
Y137856D01*
X250858Y137928D01*
X251586Y138414D01*
X252072Y139142D01*
X252144Y139500D01*
D02*
G37*
G36*
X123000Y142144D02*
Y140500D01*
X124644D01*
X124572Y140858D01*
X124086Y141586D01*
X123358Y142072D01*
X123000Y142144D01*
D02*
G37*
G36*
X230500D02*
Y140500D01*
X232144D01*
X232072Y140858D01*
X231586Y141586D01*
X230858Y142072D01*
X230500Y142144D01*
D02*
G37*
G36*
X229500D02*
X229142Y142072D01*
X228414Y141586D01*
X227928Y140858D01*
X227856Y140500D01*
X229500D01*
Y142144D01*
D02*
G37*
G36*
X124644Y139500D02*
X123000D01*
Y137856D01*
X123358Y137928D01*
X124086Y138414D01*
X124572Y139142D01*
X124644Y139500D01*
D02*
G37*
G36*
X122000D02*
X120356D01*
X120428Y139142D01*
X120914Y138414D01*
X121642Y137928D01*
X122000Y137856D01*
Y139500D01*
D02*
G37*
G36*
X229500D02*
X227856D01*
X227928Y139142D01*
X228414Y138414D01*
X229142Y137928D01*
X229500Y137856D01*
Y139500D01*
D02*
G37*
G36*
X249500D02*
X247856D01*
X247928Y139142D01*
X248414Y138414D01*
X249142Y137928D01*
X249500Y137856D01*
Y139500D01*
D02*
G37*
G36*
X232144D02*
X230500D01*
Y137856D01*
X230858Y137928D01*
X231586Y138414D01*
X232072Y139142D01*
X232144Y139500D01*
D02*
G37*
G36*
X149644Y149500D02*
X148000D01*
Y147856D01*
X148358Y147928D01*
X149086Y148414D01*
X149572Y149142D01*
X149644Y149500D01*
D02*
G37*
G36*
X147000D02*
X145356D01*
X145428Y149142D01*
X145914Y148414D01*
X146642Y147928D01*
X147000Y147856D01*
Y149500D01*
D02*
G37*
G36*
X282000Y152000D02*
X280356D01*
X280428Y151642D01*
X280914Y150914D01*
X281642Y150428D01*
X282000Y150356D01*
Y152000D01*
D02*
G37*
G36*
X133000Y152144D02*
Y150500D01*
X134644D01*
X134572Y150858D01*
X134086Y151586D01*
X133358Y152072D01*
X133000Y152144D01*
D02*
G37*
G36*
X132000D02*
X131642Y152072D01*
X130914Y151586D01*
X130428Y150858D01*
X130356Y150500D01*
X132000D01*
Y152144D01*
D02*
G37*
G36*
X250500Y142144D02*
Y140500D01*
X252144D01*
X252072Y140858D01*
X251586Y141586D01*
X250858Y142072D01*
X250500Y142144D01*
D02*
G37*
G36*
X249500D02*
X249142Y142072D01*
X248414Y141586D01*
X247928Y140858D01*
X247856Y140500D01*
X249500D01*
Y142144D01*
D02*
G37*
G36*
X118000Y152335D02*
X117298Y152196D01*
X116702Y151798D01*
X116304Y151202D01*
X116165Y150500D01*
X116304Y149798D01*
X116702Y149202D01*
X117082Y148948D01*
Y146552D01*
X116702Y146298D01*
X116304Y145702D01*
X116165Y145000D01*
X116304Y144298D01*
X116702Y143702D01*
X117298Y143304D01*
X118000Y143165D01*
X118702Y143304D01*
X119298Y143702D01*
X119696Y144298D01*
X119835Y145000D01*
X119696Y145702D01*
X119298Y146298D01*
X118918Y146552D01*
Y148948D01*
X119298Y149202D01*
X119696Y149798D01*
X119835Y150500D01*
X119696Y151202D01*
X119298Y151798D01*
X118702Y152196D01*
X118000Y152335D01*
D02*
G37*
G36*
X134644Y149500D02*
X133000D01*
Y147856D01*
X133358Y147928D01*
X134086Y148414D01*
X134572Y149142D01*
X134644Y149500D01*
D02*
G37*
G36*
X132000D02*
X130356D01*
X130428Y149142D01*
X130914Y148414D01*
X131642Y147928D01*
X132000Y147856D01*
Y149500D01*
D02*
G37*
G36*
X180500Y132144D02*
Y130500D01*
X182144D01*
X182072Y130858D01*
X181586Y131586D01*
X180858Y132072D01*
X180500Y132144D01*
D02*
G37*
G36*
X247144Y122000D02*
X245500D01*
Y120356D01*
X245858Y120428D01*
X246586Y120914D01*
X247072Y121642D01*
X247144Y122000D01*
D02*
G37*
G36*
X244500D02*
X242856D01*
X242928Y121642D01*
X243414Y120914D01*
X244142Y120428D01*
X244500Y120356D01*
Y122000D01*
D02*
G37*
G36*
X198000Y151140D02*
X195944Y150979D01*
X193939Y150497D01*
X192034Y149708D01*
X190276Y148631D01*
X188708Y147292D01*
X187369Y145724D01*
X186292Y143966D01*
X185503Y142061D01*
X185021Y140056D01*
X184860Y138000D01*
X185021Y135944D01*
X185503Y133939D01*
X186292Y132034D01*
X187369Y130276D01*
X188708Y128708D01*
X190276Y127369D01*
X192034Y126292D01*
X193939Y125503D01*
X195944Y125021D01*
X198000Y124859D01*
X200056Y125021D01*
X202061Y125503D01*
X203966Y126292D01*
X205724Y127369D01*
X207292Y128708D01*
X208631Y130276D01*
X209708Y132034D01*
X210497Y133939D01*
X210979Y135944D01*
X211140Y138000D01*
X210979Y140056D01*
X210497Y142061D01*
X209708Y143966D01*
X208631Y145724D01*
X207292Y147292D01*
X205724Y148631D01*
X203966Y149708D01*
X202061Y150497D01*
X200056Y150979D01*
X198000Y151140D01*
D02*
G37*
G36*
X245500Y124644D02*
Y123000D01*
X247144D01*
X247072Y123358D01*
X246586Y124086D01*
X245858Y124572D01*
X245500Y124644D01*
D02*
G37*
G36*
X179500Y129500D02*
X177856D01*
X177928Y129142D01*
X178414Y128414D01*
X179142Y127928D01*
X179500Y127856D01*
Y129500D01*
D02*
G37*
G36*
Y132144D02*
X179142Y132072D01*
X178414Y131586D01*
X177928Y130858D01*
X177856Y130500D01*
X179500D01*
Y132144D01*
D02*
G37*
G36*
X182144Y129500D02*
X180500D01*
Y127856D01*
X180858Y127928D01*
X181586Y128414D01*
X182072Y129142D01*
X182144Y129500D01*
D02*
G37*
G36*
X244500Y124644D02*
X244142Y124572D01*
X243414Y124086D01*
X242928Y123358D01*
X242856Y123000D01*
X244500D01*
Y124644D01*
D02*
G37*
G36*
X114469Y167500D02*
X108500D01*
Y163965D01*
X110500D01*
X111544Y164103D01*
X112517Y164506D01*
X113353Y165147D01*
X113994Y165983D01*
X114397Y166956D01*
X114469Y167500D01*
D02*
G37*
G36*
X282000Y167144D02*
X281642Y167072D01*
X280914Y166586D01*
X280428Y165858D01*
X280356Y165500D01*
X282000D01*
Y167144D01*
D02*
G37*
G36*
X212500Y170520D02*
Y167000D01*
X216020D01*
X215947Y167558D01*
X215539Y168543D01*
X214889Y169389D01*
X214043Y170039D01*
X213058Y170447D01*
X212500Y170520D01*
D02*
G37*
G36*
X211500D02*
X210942Y170447D01*
X209957Y170039D01*
X209111Y169389D01*
X208461Y168543D01*
X208053Y167558D01*
X207980Y167000D01*
X211500D01*
Y170520D01*
D02*
G37*
G36*
X222000Y170183D02*
X221047Y170057D01*
X220159Y169689D01*
X219396Y169104D01*
X218811Y168341D01*
X218443Y167453D01*
X218317Y166500D01*
X218443Y165547D01*
X218811Y164659D01*
X219396Y163896D01*
X220159Y163311D01*
X221047Y162943D01*
X222000Y162817D01*
X222953Y162943D01*
X223841Y163311D01*
X224604Y163896D01*
X225189Y164659D01*
X225557Y165547D01*
X225683Y166500D01*
X225557Y167453D01*
X225189Y168341D01*
X224604Y169104D01*
X223841Y169689D01*
X222953Y170057D01*
X222000Y170183D01*
D02*
G37*
G36*
X202000D02*
X201047Y170057D01*
X200159Y169689D01*
X199396Y169104D01*
X198811Y168341D01*
X198443Y167453D01*
X198317Y166500D01*
X198443Y165547D01*
X198811Y164659D01*
X199396Y163896D01*
X200159Y163311D01*
X201047Y162943D01*
X202000Y162817D01*
X202953Y162943D01*
X203841Y163311D01*
X204604Y163896D01*
X205189Y164659D01*
X205557Y165547D01*
X205683Y166500D01*
X205557Y167453D01*
X205189Y168341D01*
X204604Y169104D01*
X203841Y169689D01*
X202953Y170057D01*
X202000Y170183D01*
D02*
G37*
G36*
X232000D02*
X231047Y170057D01*
X230159Y169689D01*
X229396Y169104D01*
X228811Y168341D01*
X228443Y167453D01*
X228317Y166500D01*
X228443Y165547D01*
X228811Y164659D01*
X229396Y163896D01*
X230159Y163311D01*
X231047Y162943D01*
X232000Y162817D01*
X232953Y162943D01*
X233841Y163311D01*
X234604Y163896D01*
X235189Y164659D01*
X235557Y165547D01*
X235683Y166500D01*
X235557Y167453D01*
X235189Y168341D01*
X234604Y169104D01*
X233841Y169689D01*
X232953Y170057D01*
X232000Y170183D01*
D02*
G37*
G36*
X182000D02*
X181047Y170057D01*
X180159Y169689D01*
X179396Y169104D01*
X178811Y168341D01*
X178443Y167453D01*
X178317Y166500D01*
X178443Y165547D01*
X178811Y164659D01*
X179379Y163918D01*
X179365Y163814D01*
X179028Y162918D01*
X175651D01*
Y170151D01*
X168349D01*
Y162849D01*
X171353D01*
X172851Y161351D01*
X173149Y161152D01*
X173500Y161082D01*
X184432D01*
X184474Y161018D01*
X183936Y160018D01*
X176100D01*
X175749Y159948D01*
X175451Y159749D01*
X174351Y158649D01*
X174152Y158351D01*
X174082Y158000D01*
Y156252D01*
X173798Y156196D01*
X173202Y155798D01*
X172804Y155202D01*
X172665Y154500D01*
X172804Y153798D01*
X173202Y153202D01*
X173798Y152804D01*
X174500Y152665D01*
X175202Y152804D01*
X175798Y153202D01*
X176196Y153798D01*
X176335Y154500D01*
X176279Y154782D01*
X177179Y155384D01*
X177298Y155304D01*
X178000Y155165D01*
X178702Y155304D01*
X179298Y155702D01*
X179552Y156082D01*
X191948D01*
X192202Y155702D01*
X192798Y155304D01*
X193500Y155165D01*
X194202Y155304D01*
X194798Y155702D01*
X195196Y156298D01*
X195335Y157000D01*
X196310Y157226D01*
X196702Y157304D01*
X197298Y157702D01*
X197696Y158298D01*
X197835Y159000D01*
X197696Y159702D01*
X197298Y160298D01*
X196702Y160696D01*
X196000Y160835D01*
X195298Y160696D01*
X194702Y160298D01*
X194515Y160018D01*
X188951D01*
X188924Y160047D01*
X188508Y161018D01*
X188696Y161298D01*
X188835Y162000D01*
X188696Y162702D01*
X188298Y163298D01*
X187702Y163696D01*
X187000Y163835D01*
X186298Y163696D01*
X185858Y163402D01*
X185515Y163440D01*
X185103Y164218D01*
X185098Y164539D01*
X185189Y164659D01*
X185557Y165547D01*
X185683Y166500D01*
X185557Y167453D01*
X185189Y168341D01*
X184604Y169104D01*
X183841Y169689D01*
X182953Y170057D01*
X182000Y170183D01*
D02*
G37*
G36*
X282000Y164500D02*
X280356D01*
X280428Y164142D01*
X280914Y163414D01*
X281642Y162928D01*
X282000Y162856D01*
Y164500D01*
D02*
G37*
G36*
X172000Y180183D02*
X171047Y180057D01*
X170159Y179689D01*
X169396Y179104D01*
X168811Y178341D01*
X168443Y177453D01*
X168317Y176500D01*
X168443Y175547D01*
X168811Y174659D01*
X169396Y173896D01*
X170159Y173311D01*
X171047Y172943D01*
X172000Y172817D01*
X172953Y172943D01*
X173841Y173311D01*
X174604Y173896D01*
X175189Y174659D01*
X175557Y175547D01*
X175683Y176500D01*
X175557Y177453D01*
X175189Y178341D01*
X174604Y179104D01*
X173841Y179689D01*
X172953Y180057D01*
X172000Y180183D01*
D02*
G37*
G36*
X261461Y174000D02*
X258000D01*
Y170539D01*
X258542Y170611D01*
X259513Y171013D01*
X260347Y171653D01*
X260987Y172487D01*
X261389Y173458D01*
X261461Y174000D01*
D02*
G37*
G36*
X192000Y180183D02*
X191047Y180057D01*
X190159Y179689D01*
X189396Y179104D01*
X188811Y178341D01*
X188443Y177453D01*
X188317Y176500D01*
X188443Y175547D01*
X188811Y174659D01*
X189396Y173896D01*
X190159Y173311D01*
X191047Y172943D01*
X192000Y172817D01*
X192953Y172943D01*
X193841Y173311D01*
X194604Y173896D01*
X195189Y174659D01*
X195557Y175547D01*
X195683Y176500D01*
X195557Y177453D01*
X195189Y178341D01*
X194604Y179104D01*
X193841Y179689D01*
X192953Y180057D01*
X192000Y180183D01*
D02*
G37*
G36*
X212000D02*
X211047Y180057D01*
X210159Y179689D01*
X209396Y179104D01*
X208811Y178341D01*
X208443Y177453D01*
X208317Y176500D01*
X208443Y175547D01*
X208811Y174659D01*
X209396Y173896D01*
X210159Y173311D01*
X211047Y172943D01*
X212000Y172817D01*
X212953Y172943D01*
X213841Y173311D01*
X214604Y173896D01*
X215189Y174659D01*
X215557Y175547D01*
X215683Y176500D01*
X215557Y177453D01*
X215189Y178341D01*
X214604Y179104D01*
X213841Y179689D01*
X212953Y180057D01*
X212000Y180183D01*
D02*
G37*
G36*
X202000D02*
X201047Y180057D01*
X200159Y179689D01*
X199396Y179104D01*
X198811Y178341D01*
X198443Y177453D01*
X198317Y176500D01*
X198443Y175547D01*
X198811Y174659D01*
X199396Y173896D01*
X200159Y173311D01*
X201047Y172943D01*
X202000Y172817D01*
X202953Y172943D01*
X203841Y173311D01*
X204604Y173896D01*
X205189Y174659D01*
X205557Y175547D01*
X205683Y176500D01*
X205557Y177453D01*
X205189Y178341D01*
X204604Y179104D01*
X203841Y179689D01*
X202953Y180057D01*
X202000Y180183D01*
D02*
G37*
G36*
X110500Y172035D02*
X108500D01*
Y168500D01*
X114469D01*
X114397Y169044D01*
X113994Y170017D01*
X113353Y170853D01*
X112517Y171494D01*
X111544Y171897D01*
X110500Y172035D01*
D02*
G37*
G36*
X147000Y174000D02*
X143539D01*
X143611Y173458D01*
X144013Y172487D01*
X144653Y171653D01*
X145487Y171013D01*
X146458Y170611D01*
X147000Y170539D01*
Y174000D01*
D02*
G37*
G36*
X151461D02*
X148000D01*
Y170539D01*
X148542Y170611D01*
X149513Y171013D01*
X150347Y171653D01*
X150987Y172487D01*
X151389Y173458D01*
X151461Y174000D01*
D02*
G37*
G36*
X257000D02*
X253539D01*
X253611Y173458D01*
X254013Y172487D01*
X254653Y171653D01*
X255487Y171013D01*
X256458Y170611D01*
X257000Y170539D01*
Y174000D01*
D02*
G37*
G36*
X192000Y170183D02*
X191047Y170057D01*
X190159Y169689D01*
X189396Y169104D01*
X188811Y168341D01*
X188443Y167453D01*
X188317Y166500D01*
X188443Y165547D01*
X188811Y164659D01*
X189396Y163896D01*
X190159Y163311D01*
X191047Y162943D01*
X192000Y162817D01*
X192953Y162943D01*
X193841Y163311D01*
X194604Y163896D01*
X195189Y164659D01*
X195557Y165547D01*
X195683Y166500D01*
X195557Y167453D01*
X195189Y168341D01*
X194604Y169104D01*
X193841Y169689D01*
X192953Y170057D01*
X192000Y170183D01*
D02*
G37*
G36*
X159500Y159500D02*
X157856D01*
X157928Y159142D01*
X158414Y158414D01*
X159142Y157928D01*
X159500Y157856D01*
Y159500D01*
D02*
G37*
G36*
X142144D02*
X140500D01*
Y157856D01*
X140858Y157928D01*
X141586Y158414D01*
X142072Y159142D01*
X142144Y159500D01*
D02*
G37*
G36*
X162144D02*
X160500D01*
Y157856D01*
X160858Y157928D01*
X161586Y158414D01*
X162072Y159142D01*
X162144Y159500D01*
D02*
G37*
G36*
X262144D02*
X260500D01*
Y157856D01*
X260858Y157928D01*
X261586Y158414D01*
X262072Y159142D01*
X262144Y159500D01*
D02*
G37*
G36*
X259500D02*
X257856D01*
X257928Y159142D01*
X258414Y158414D01*
X259142Y157928D01*
X259500Y157856D01*
Y159500D01*
D02*
G37*
G36*
X148000Y152144D02*
Y150500D01*
X149644D01*
X149572Y150858D01*
X149086Y151586D01*
X148358Y152072D01*
X148000Y152144D01*
D02*
G37*
G36*
X147000D02*
X146642Y152072D01*
X145914Y151586D01*
X145428Y150858D01*
X145356Y150500D01*
X147000D01*
Y152144D01*
D02*
G37*
G36*
X282000Y154644D02*
X281642Y154572D01*
X280914Y154086D01*
X280428Y153358D01*
X280356Y153000D01*
X282000D01*
Y154644D01*
D02*
G37*
G36*
X139500Y159500D02*
X137856D01*
X137928Y159142D01*
X138414Y158414D01*
X139142Y157928D01*
X139500Y157856D01*
Y159500D01*
D02*
G37*
G36*
X259500Y162144D02*
X259142Y162072D01*
X258414Y161586D01*
X257928Y160858D01*
X257856Y160500D01*
X259500D01*
Y162144D01*
D02*
G37*
G36*
X160500D02*
Y160500D01*
X162144D01*
X162072Y160858D01*
X161586Y161586D01*
X160858Y162072D01*
X160500Y162144D01*
D02*
G37*
G36*
X260500D02*
Y160500D01*
X262144D01*
X262072Y160858D01*
X261586Y161586D01*
X260858Y162072D01*
X260500Y162144D01*
D02*
G37*
G36*
X216020Y166000D02*
X212500D01*
Y162480D01*
X213058Y162553D01*
X214043Y162961D01*
X214889Y163611D01*
X215539Y164457D01*
X215947Y165442D01*
X216020Y166000D01*
D02*
G37*
G36*
X211500D02*
X207980D01*
X208053Y165442D01*
X208461Y164457D01*
X209111Y163611D01*
X209957Y162961D01*
X210942Y162553D01*
X211500Y162480D01*
Y166000D01*
D02*
G37*
G36*
X225000Y160835D02*
X224298Y160696D01*
X223702Y160298D01*
X223448Y159918D01*
X220552D01*
X220298Y160298D01*
X219702Y160696D01*
X219000Y160835D01*
X218298Y160696D01*
X217702Y160298D01*
X217304Y159702D01*
X217165Y159000D01*
X217304Y158298D01*
X217702Y157702D01*
X218298Y157304D01*
X219000Y157165D01*
X219702Y157304D01*
X220298Y157702D01*
X220552Y158082D01*
X223448D01*
X223702Y157702D01*
X224298Y157304D01*
X225000Y157165D01*
X225702Y157304D01*
X226298Y157702D01*
X226696Y158298D01*
X226835Y159000D01*
X226696Y159702D01*
X226298Y160298D01*
X225702Y160696D01*
X225000Y160835D01*
D02*
G37*
G36*
X139500Y162144D02*
X139142Y162072D01*
X138414Y161586D01*
X137928Y160858D01*
X137856Y160500D01*
X139500D01*
Y162144D01*
D02*
G37*
G36*
X159500D02*
X159142Y162072D01*
X158414Y161586D01*
X157928Y160858D01*
X157856Y160500D01*
X159500D01*
Y162144D01*
D02*
G37*
G36*
X140500D02*
Y160500D01*
X142144D01*
X142072Y160858D01*
X141586Y161586D01*
X140858Y162072D01*
X140500Y162144D01*
D02*
G37*
G36*
X199500Y319500D02*
X197856D01*
X197928Y319142D01*
X198414Y318414D01*
X199142Y317928D01*
X199500Y317856D01*
Y319500D01*
D02*
G37*
G36*
X182144D02*
X180500D01*
Y317856D01*
X180858Y317928D01*
X181586Y318414D01*
X182072Y319142D01*
X182144Y319500D01*
D02*
G37*
G36*
X202144D02*
X200500D01*
Y317856D01*
X200858Y317928D01*
X201586Y318414D01*
X202072Y319142D01*
X202144Y319500D01*
D02*
G37*
G36*
X222144D02*
X220500D01*
Y317856D01*
X220858Y317928D01*
X221586Y318414D01*
X222072Y319142D01*
X222144Y319500D01*
D02*
G37*
G36*
X219500D02*
X217856D01*
X217928Y319142D01*
X218414Y318414D01*
X219142Y317928D01*
X219500Y317856D01*
Y319500D01*
D02*
G37*
G36*
X142144D02*
X140500D01*
Y317856D01*
X140858Y317928D01*
X141586Y318414D01*
X142072Y319142D01*
X142144Y319500D01*
D02*
G37*
G36*
X139500D02*
X137856D01*
X137928Y319142D01*
X138414Y318414D01*
X139142Y317928D01*
X139500Y317856D01*
Y319500D01*
D02*
G37*
G36*
X159500D02*
X157856D01*
X157928Y319142D01*
X158414Y318414D01*
X159142Y317928D01*
X159500Y317856D01*
Y319500D01*
D02*
G37*
G36*
X179500D02*
X177856D01*
X177928Y319142D01*
X178414Y318414D01*
X179142Y317928D01*
X179500Y317856D01*
Y319500D01*
D02*
G37*
G36*
X162144D02*
X160500D01*
Y317856D01*
X160858Y317928D01*
X161586Y318414D01*
X162072Y319142D01*
X162144Y319500D01*
D02*
G37*
G36*
X297500Y322000D02*
X291500D01*
Y318500D01*
X297500D01*
Y322000D01*
D02*
G37*
G36*
X282144Y319500D02*
X280500D01*
Y317856D01*
X280858Y317928D01*
X281586Y318414D01*
X282072Y319142D01*
X282144Y319500D01*
D02*
G37*
G36*
X119500Y322144D02*
X119142Y322072D01*
X118414Y321586D01*
X117928Y320858D01*
X117856Y320500D01*
X119500D01*
Y322144D01*
D02*
G37*
G36*
X139500D02*
X139142Y322072D01*
X138414Y321586D01*
X137928Y320858D01*
X137856Y320500D01*
X139500D01*
Y322144D01*
D02*
G37*
G36*
X120500D02*
Y320500D01*
X122144D01*
X122072Y320858D01*
X121586Y321586D01*
X120858Y322072D01*
X120500Y322144D01*
D02*
G37*
G36*
X242144Y319500D02*
X240500D01*
Y317856D01*
X240858Y317928D01*
X241586Y318414D01*
X242072Y319142D01*
X242144Y319500D01*
D02*
G37*
G36*
X239500D02*
X237856D01*
X237928Y319142D01*
X238414Y318414D01*
X239142Y317928D01*
X239500Y317856D01*
Y319500D01*
D02*
G37*
G36*
X259500D02*
X257856D01*
X257928Y319142D01*
X258414Y318414D01*
X259142Y317928D01*
X259500Y317856D01*
Y319500D01*
D02*
G37*
G36*
X279500D02*
X277856D01*
X277928Y319142D01*
X278414Y318414D01*
X279142Y317928D01*
X279500Y317856D01*
Y319500D01*
D02*
G37*
G36*
X262144D02*
X260500D01*
Y317856D01*
X260858Y317928D01*
X261586Y318414D01*
X262072Y319142D01*
X262144Y319500D01*
D02*
G37*
G36*
X122144D02*
X120500D01*
Y317856D01*
X120858Y317928D01*
X121586Y318414D01*
X122072Y319142D01*
X122144Y319500D01*
D02*
G37*
G36*
X249500Y299500D02*
X247856D01*
X247928Y299142D01*
X248414Y298414D01*
X249142Y297928D01*
X249500Y297856D01*
Y299500D01*
D02*
G37*
G36*
X212144D02*
X210500D01*
Y297856D01*
X210858Y297928D01*
X211586Y298414D01*
X212072Y299142D01*
X212144Y299500D01*
D02*
G37*
G36*
X252144D02*
X250500D01*
Y297856D01*
X250858Y297928D01*
X251586Y298414D01*
X252072Y299142D01*
X252144Y299500D01*
D02*
G37*
G36*
X272144D02*
X270500D01*
Y297856D01*
X270858Y297928D01*
X271586Y298414D01*
X272072Y299142D01*
X272144Y299500D01*
D02*
G37*
G36*
X269500D02*
X267856D01*
X267928Y299142D01*
X268414Y298414D01*
X269142Y297928D01*
X269500Y297856D01*
Y299500D01*
D02*
G37*
G36*
X128000Y294644D02*
Y293000D01*
X129644D01*
X129572Y293358D01*
X129086Y294086D01*
X128358Y294572D01*
X128000Y294644D01*
D02*
G37*
G36*
X127000D02*
X126642Y294572D01*
X125914Y294086D01*
X125428Y293358D01*
X125356Y293000D01*
X127000D01*
Y294644D01*
D02*
G37*
G36*
X179500D02*
X179142Y294572D01*
X178414Y294086D01*
X177928Y293358D01*
X177856Y293000D01*
X179500D01*
Y294644D01*
D02*
G37*
G36*
X209500Y299500D02*
X207856D01*
X207928Y299142D01*
X208414Y298414D01*
X209142Y297928D01*
X209500Y297856D01*
Y299500D01*
D02*
G37*
G36*
X180500Y294644D02*
Y293000D01*
X182144D01*
X182072Y293358D01*
X181586Y294086D01*
X180858Y294572D01*
X180500Y294644D01*
D02*
G37*
G36*
X114469Y307500D02*
X108500D01*
Y303965D01*
X110500D01*
X111544Y304103D01*
X112517Y304506D01*
X113353Y305147D01*
X113994Y305983D01*
X114397Y306956D01*
X114469Y307500D01*
D02*
G37*
G36*
X270500Y302144D02*
Y300500D01*
X272144D01*
X272072Y300858D01*
X271586Y301586D01*
X270858Y302072D01*
X270500Y302144D01*
D02*
G37*
G36*
X110500Y312035D02*
X108500D01*
Y308500D01*
X114469D01*
X114397Y309044D01*
X113994Y310017D01*
X113353Y310853D01*
X112517Y311494D01*
X111544Y311897D01*
X110500Y312035D01*
D02*
G37*
G36*
X119500Y319500D02*
X117856D01*
X117928Y319142D01*
X118414Y318414D01*
X119142Y317928D01*
X119500Y317856D01*
Y319500D01*
D02*
G37*
G36*
X297500Y317500D02*
X291500D01*
Y314000D01*
X297500D01*
Y317500D01*
D02*
G37*
G36*
X210500Y302144D02*
Y300500D01*
X212144D01*
X212072Y300858D01*
X211586Y301586D01*
X210858Y302072D01*
X210500Y302144D01*
D02*
G37*
G36*
X209500D02*
X209142Y302072D01*
X208414Y301586D01*
X207928Y300858D01*
X207856Y300500D01*
X209500D01*
Y302144D01*
D02*
G37*
G36*
X249500D02*
X249142Y302072D01*
X248414Y301586D01*
X247928Y300858D01*
X247856Y300500D01*
X249500D01*
Y302144D01*
D02*
G37*
G36*
X269500D02*
X269142Y302072D01*
X268414Y301586D01*
X267928Y300858D01*
X267856Y300500D01*
X269500D01*
Y302144D01*
D02*
G37*
G36*
X250500D02*
Y300500D01*
X252144D01*
X252072Y300858D01*
X251586Y301586D01*
X250858Y302072D01*
X250500Y302144D01*
D02*
G37*
G36*
X249500Y339500D02*
X247856D01*
X247928Y339142D01*
X248414Y338414D01*
X249142Y337928D01*
X249500Y337856D01*
Y339500D01*
D02*
G37*
G36*
X232144D02*
X230500D01*
Y337856D01*
X230858Y337928D01*
X231586Y338414D01*
X232072Y339142D01*
X232144Y339500D01*
D02*
G37*
G36*
X252144D02*
X250500D01*
Y337856D01*
X250858Y337928D01*
X251586Y338414D01*
X252072Y339142D01*
X252144Y339500D01*
D02*
G37*
G36*
X150500Y342144D02*
Y340500D01*
X152144D01*
X152072Y340858D01*
X151586Y341586D01*
X150858Y342072D01*
X150500Y342144D01*
D02*
G37*
G36*
X149500D02*
X149142Y342072D01*
X148414Y341586D01*
X147928Y340858D01*
X147856Y340500D01*
X149500D01*
Y342144D01*
D02*
G37*
G36*
X192144Y339500D02*
X190500D01*
Y337856D01*
X190858Y337928D01*
X191586Y338414D01*
X192072Y339142D01*
X192144Y339500D01*
D02*
G37*
G36*
X189500D02*
X187856D01*
X187928Y339142D01*
X188414Y338414D01*
X189142Y337928D01*
X189500Y337856D01*
Y339500D01*
D02*
G37*
G36*
X209500D02*
X207856D01*
X207928Y339142D01*
X208414Y338414D01*
X209142Y337928D01*
X209500Y337856D01*
Y339500D01*
D02*
G37*
G36*
X229500D02*
X227856D01*
X227928Y339142D01*
X228414Y338414D01*
X229142Y337928D01*
X229500Y337856D01*
Y339500D01*
D02*
G37*
G36*
X212144D02*
X210500D01*
Y337856D01*
X210858Y337928D01*
X211586Y338414D01*
X212072Y339142D01*
X212144Y339500D01*
D02*
G37*
G36*
X229500Y342144D02*
X229142Y342072D01*
X228414Y341586D01*
X227928Y340858D01*
X227856Y340500D01*
X229500D01*
Y342144D01*
D02*
G37*
G36*
X210500D02*
Y340500D01*
X212144D01*
X212072Y340858D01*
X211586Y341586D01*
X210858Y342072D01*
X210500Y342144D01*
D02*
G37*
G36*
X230500D02*
Y340500D01*
X232144D01*
X232072Y340858D01*
X231586Y341586D01*
X230858Y342072D01*
X230500Y342144D01*
D02*
G37*
G36*
X250500D02*
Y340500D01*
X252144D01*
X252072Y340858D01*
X251586Y341586D01*
X250858Y342072D01*
X250500Y342144D01*
D02*
G37*
G36*
X249500D02*
X249142Y342072D01*
X248414Y341586D01*
X247928Y340858D01*
X247856Y340500D01*
X249500D01*
Y342144D01*
D02*
G37*
G36*
X170500D02*
Y340500D01*
X172144D01*
X172072Y340858D01*
X171586Y341586D01*
X170858Y342072D01*
X170500Y342144D01*
D02*
G37*
G36*
X169500D02*
X169142Y342072D01*
X168414Y341586D01*
X167928Y340858D01*
X167856Y340500D01*
X169500D01*
Y342144D01*
D02*
G37*
G36*
X189500D02*
X189142Y342072D01*
X188414Y341586D01*
X187928Y340858D01*
X187856Y340500D01*
X189500D01*
Y342144D01*
D02*
G37*
G36*
X209500D02*
X209142Y342072D01*
X208414Y341586D01*
X207928Y340858D01*
X207856Y340500D01*
X209500D01*
Y342144D01*
D02*
G37*
G36*
X190500D02*
Y340500D01*
X192144D01*
X192072Y340858D01*
X191586Y341586D01*
X190858Y342072D01*
X190500Y342144D01*
D02*
G37*
G36*
X172144Y339500D02*
X170500D01*
Y337856D01*
X170858Y337928D01*
X171586Y338414D01*
X172072Y339142D01*
X172144Y339500D01*
D02*
G37*
G36*
X200500Y322144D02*
Y320500D01*
X202144D01*
X202072Y320858D01*
X201586Y321586D01*
X200858Y322072D01*
X200500Y322144D01*
D02*
G37*
G36*
X199500D02*
X199142Y322072D01*
X198414Y321586D01*
X197928Y320858D01*
X197856Y320500D01*
X199500D01*
Y322144D01*
D02*
G37*
G36*
X219500D02*
X219142Y322072D01*
X218414Y321586D01*
X217928Y320858D01*
X217856Y320500D01*
X219500D01*
Y322144D01*
D02*
G37*
G36*
X239500D02*
X239142Y322072D01*
X238414Y321586D01*
X237928Y320858D01*
X237856Y320500D01*
X239500D01*
Y322144D01*
D02*
G37*
G36*
X220500D02*
Y320500D01*
X222144D01*
X222072Y320858D01*
X221586Y321586D01*
X220858Y322072D01*
X220500Y322144D01*
D02*
G37*
G36*
X159500D02*
X159142Y322072D01*
X158414Y321586D01*
X157928Y320858D01*
X157856Y320500D01*
X159500D01*
Y322144D01*
D02*
G37*
G36*
X140500D02*
Y320500D01*
X142144D01*
X142072Y320858D01*
X141586Y321586D01*
X140858Y322072D01*
X140500Y322144D01*
D02*
G37*
G36*
X160500D02*
Y320500D01*
X162144D01*
X162072Y320858D01*
X161586Y321586D01*
X160858Y322072D01*
X160500Y322144D01*
D02*
G37*
G36*
X180500D02*
Y320500D01*
X182144D01*
X182072Y320858D01*
X181586Y321586D01*
X180858Y322072D01*
X180500Y322144D01*
D02*
G37*
G36*
X179500D02*
X179142Y322072D01*
X178414Y321586D01*
X177928Y320858D01*
X177856Y320500D01*
X179500D01*
Y322144D01*
D02*
G37*
G36*
X278000Y351140D02*
X275944Y350979D01*
X273939Y350497D01*
X272034Y349708D01*
X270276Y348631D01*
X268708Y347292D01*
X267369Y345724D01*
X266292Y343966D01*
X265503Y342061D01*
X265021Y340056D01*
X264860Y338000D01*
X265021Y335944D01*
X265503Y333939D01*
X266292Y332034D01*
X267369Y330276D01*
X268708Y328708D01*
X270276Y327369D01*
X272034Y326292D01*
X273939Y325503D01*
X275944Y325021D01*
X278000Y324859D01*
X280056Y325021D01*
X282061Y325503D01*
X283966Y326292D01*
X285724Y327369D01*
X287292Y328708D01*
X288631Y330276D01*
X289708Y332034D01*
X290497Y333939D01*
X290979Y335944D01*
X291141Y338000D01*
X290979Y340056D01*
X290497Y342061D01*
X289708Y343966D01*
X288631Y345724D01*
X287292Y347292D01*
X285724Y348631D01*
X283966Y349708D01*
X282061Y350497D01*
X280056Y350979D01*
X278000Y351140D01*
D02*
G37*
G36*
X128000D02*
X125944Y350979D01*
X123939Y350497D01*
X122034Y349708D01*
X120276Y348631D01*
X118708Y347292D01*
X117369Y345724D01*
X116292Y343966D01*
X115503Y342061D01*
X115021Y340056D01*
X114859Y338000D01*
X115021Y335944D01*
X115503Y333939D01*
X116292Y332034D01*
X117369Y330276D01*
X118708Y328708D01*
X120276Y327369D01*
X122034Y326292D01*
X123939Y325503D01*
X125944Y325021D01*
X128000Y324859D01*
X130056Y325021D01*
X132061Y325503D01*
X133966Y326292D01*
X135724Y327369D01*
X137292Y328708D01*
X138631Y330276D01*
X139708Y332034D01*
X140497Y333939D01*
X140979Y335944D01*
X141140Y338000D01*
X140979Y340056D01*
X140497Y342061D01*
X139708Y343966D01*
X138631Y345724D01*
X137292Y347292D01*
X135724Y348631D01*
X133966Y349708D01*
X132061Y350497D01*
X130056Y350979D01*
X128000Y351140D01*
D02*
G37*
G36*
X149500Y339500D02*
X147856D01*
X147928Y339142D01*
X148414Y338414D01*
X149142Y337928D01*
X149500Y337856D01*
Y339500D01*
D02*
G37*
G36*
X169500D02*
X167856D01*
X167928Y339142D01*
X168414Y338414D01*
X169142Y337928D01*
X169500Y337856D01*
Y339500D01*
D02*
G37*
G36*
X152144D02*
X150500D01*
Y337856D01*
X150858Y337928D01*
X151586Y338414D01*
X152072Y339142D01*
X152144Y339500D01*
D02*
G37*
G36*
X259500Y322144D02*
X259142Y322072D01*
X258414Y321586D01*
X257928Y320858D01*
X257856Y320500D01*
X259500D01*
Y322144D01*
D02*
G37*
G36*
X240500D02*
Y320500D01*
X242144D01*
X242072Y320858D01*
X241586Y321586D01*
X240858Y322072D01*
X240500Y322144D01*
D02*
G37*
G36*
X260500D02*
Y320500D01*
X262144D01*
X262072Y320858D01*
X261586Y321586D01*
X260858Y322072D01*
X260500Y322144D01*
D02*
G37*
G36*
X280500D02*
Y320500D01*
X282144D01*
X282072Y320858D01*
X281586Y321586D01*
X280858Y322072D01*
X280500Y322144D01*
D02*
G37*
G36*
X279500D02*
X279142Y322072D01*
X278414Y321586D01*
X277928Y320858D01*
X277856Y320500D01*
X279500D01*
Y322144D01*
D02*
G37*
G36*
X228346Y294297D02*
Y292653D01*
X229990D01*
X229919Y293012D01*
X229433Y293740D01*
X228705Y294226D01*
X228346Y294297D01*
D02*
G37*
G36*
X210500Y262144D02*
Y260500D01*
X212144D01*
X212072Y260858D01*
X211586Y261586D01*
X210858Y262072D01*
X210500Y262144D01*
D02*
G37*
G36*
X209500D02*
X209142Y262072D01*
X208414Y261586D01*
X207928Y260858D01*
X207856Y260500D01*
X209500D01*
Y262144D01*
D02*
G37*
G36*
X229500D02*
X229142Y262072D01*
X228414Y261586D01*
X227928Y260858D01*
X227856Y260500D01*
X229500D01*
Y262144D01*
D02*
G37*
G36*
X249500D02*
X249142Y262072D01*
X248414Y261586D01*
X247928Y260858D01*
X247856Y260500D01*
X249500D01*
Y262144D01*
D02*
G37*
G36*
X230500D02*
Y260500D01*
X232144D01*
X232072Y260858D01*
X231586Y261586D01*
X230858Y262072D01*
X230500Y262144D01*
D02*
G37*
G36*
X159500D02*
X159142Y262072D01*
X158414Y261586D01*
X157928Y260858D01*
X157856Y260500D01*
X159500D01*
Y262144D01*
D02*
G37*
G36*
X289500Y259500D02*
X287856D01*
X287928Y259142D01*
X288414Y258414D01*
X289142Y257928D01*
X289500Y257856D01*
Y259500D01*
D02*
G37*
G36*
X160500Y262144D02*
Y260500D01*
X162144D01*
X162072Y260858D01*
X161586Y261586D01*
X160858Y262072D01*
X160500Y262144D01*
D02*
G37*
G36*
X190500D02*
Y260500D01*
X192144D01*
X192072Y260858D01*
X191586Y261586D01*
X190858Y262072D01*
X190500Y262144D01*
D02*
G37*
G36*
X189500D02*
X189142Y262072D01*
X188414Y261586D01*
X187928Y260858D01*
X187856Y260500D01*
X189500D01*
Y262144D01*
D02*
G37*
G36*
X114469Y267500D02*
X108500D01*
Y263966D01*
X110500D01*
X111544Y264103D01*
X112517Y264506D01*
X113353Y265147D01*
X113994Y265983D01*
X114397Y266956D01*
X114469Y267500D01*
D02*
G37*
G36*
X257500Y268123D02*
X256562Y268000D01*
X255688Y267638D01*
X254938Y267062D01*
X254362Y266312D01*
X254000Y265438D01*
X253877Y264500D01*
X254000Y263562D01*
X254362Y262688D01*
X254938Y261938D01*
X255688Y261362D01*
X256562Y261000D01*
X257500Y260877D01*
X258438Y261000D01*
X259312Y261362D01*
X260062Y261938D01*
X260638Y262688D01*
X261000Y263562D01*
X261123Y264500D01*
X261000Y265438D01*
X260638Y266312D01*
X260062Y267062D01*
X259312Y267638D01*
X258438Y268000D01*
X257500Y268123D01*
D02*
G37*
G36*
X197000Y266000D02*
X195356D01*
X195428Y265642D01*
X195914Y264914D01*
X196642Y264428D01*
X197000Y264356D01*
Y266000D01*
D02*
G37*
G36*
X132000Y267000D02*
X130356D01*
X130428Y266642D01*
X130914Y265914D01*
X131642Y265428D01*
X132000Y265356D01*
Y267000D01*
D02*
G37*
G36*
X199644Y266000D02*
X198000D01*
Y264356D01*
X198358Y264428D01*
X199086Y264914D01*
X199572Y265642D01*
X199644Y266000D01*
D02*
G37*
G36*
X269500Y262144D02*
X269142Y262072D01*
X268414Y261586D01*
X267928Y260858D01*
X267856Y260500D01*
X269500D01*
Y262144D01*
D02*
G37*
G36*
X250500D02*
Y260500D01*
X252144D01*
X252072Y260858D01*
X251586Y261586D01*
X250858Y262072D01*
X250500Y262144D01*
D02*
G37*
G36*
X270500D02*
Y260500D01*
X272144D01*
X272072Y260858D01*
X271586Y261586D01*
X270858Y262072D01*
X270500Y262144D01*
D02*
G37*
G36*
X147500Y268123D02*
X146562Y268000D01*
X145688Y267638D01*
X144938Y267062D01*
X144362Y266312D01*
X144000Y265438D01*
X143877Y264500D01*
X144000Y263562D01*
X144362Y262688D01*
X144938Y261938D01*
X145688Y261362D01*
X146562Y261000D01*
X147500Y260877D01*
X148438Y261000D01*
X149312Y261362D01*
X150062Y261938D01*
X150638Y262688D01*
X151000Y263562D01*
X151123Y264500D01*
X151000Y265438D01*
X150638Y266312D01*
X150062Y267062D01*
X149312Y267638D01*
X148438Y268000D01*
X147500Y268123D01*
D02*
G37*
G36*
X289500Y262144D02*
X289142Y262072D01*
X288414Y261586D01*
X287928Y260858D01*
X287856Y260500D01*
X289500D01*
Y262144D01*
D02*
G37*
G36*
X272144Y259500D02*
X270500D01*
Y257856D01*
X270858Y257928D01*
X271586Y258414D01*
X272072Y259142D01*
X272144Y259500D01*
D02*
G37*
G36*
X147500Y258123D02*
X146562Y258000D01*
X145688Y257638D01*
X144938Y257062D01*
X144362Y256312D01*
X144000Y255438D01*
X143877Y254500D01*
X144000Y253562D01*
X144362Y252688D01*
X144938Y251938D01*
X145688Y251362D01*
X146562Y251000D01*
X147500Y250877D01*
X148438Y251000D01*
X149312Y251362D01*
X150062Y251938D01*
X150638Y252688D01*
X151000Y253562D01*
X151123Y254500D01*
X151000Y255438D01*
X150638Y256312D01*
X150062Y257062D01*
X149312Y257638D01*
X148438Y258000D01*
X147500Y258123D01*
D02*
G37*
G36*
X223902Y250045D02*
Y248402D01*
X225545D01*
X225474Y248760D01*
X224988Y249488D01*
X224260Y249974D01*
X223902Y250045D01*
D02*
G37*
G36*
X257500Y258123D02*
X256562Y258000D01*
X255688Y257638D01*
X254938Y257062D01*
X254362Y256312D01*
X254000Y255438D01*
X253877Y254500D01*
X254000Y253562D01*
X254362Y252688D01*
X254938Y251938D01*
X255688Y251362D01*
X256562Y251000D01*
X257500Y250877D01*
X258438Y251000D01*
X259312Y251362D01*
X260062Y251938D01*
X260638Y252688D01*
X261000Y253562D01*
X261123Y254500D01*
X261000Y255438D01*
X260638Y256312D01*
X260062Y257062D01*
X259312Y257638D01*
X258438Y258000D01*
X257500Y258123D01*
D02*
G37*
G36*
X159500Y259500D02*
X157856D01*
X157928Y259142D01*
X158414Y258414D01*
X159142Y257928D01*
X159500Y257856D01*
Y259500D01*
D02*
G37*
G36*
X290500Y262144D02*
Y260000D01*
Y257839D01*
X291413Y257362D01*
X291571Y257201D01*
X291603Y256956D01*
X292006Y255983D01*
X292647Y255147D01*
X293483Y254506D01*
X294456Y254103D01*
X295500Y253965D01*
X297500D01*
Y258000D01*
Y262035D01*
X295500D01*
X294456Y261897D01*
X293483Y261494D01*
X293004Y261127D01*
X292924Y261104D01*
X291940Y261234D01*
X291755Y261333D01*
X291586Y261586D01*
X290858Y262072D01*
X290500Y262144D01*
D02*
G37*
G36*
X208106Y245695D02*
X207755Y245625D01*
X207034Y245143D01*
X205848D01*
X205127Y245625D01*
X204776Y245695D01*
Y243571D01*
X203776D01*
Y245695D01*
X203425Y245625D01*
X202703Y245143D01*
X201517D01*
X200796Y245625D01*
X200445Y245695D01*
Y243571D01*
X199445D01*
Y245695D01*
X199094Y245625D01*
X198372Y245143D01*
X197187D01*
X196465Y245625D01*
X196114Y245695D01*
Y243571D01*
X195614D01*
Y243071D01*
X193490D01*
X193560Y242720D01*
X194042Y241998D01*
Y240813D01*
X193560Y240091D01*
X193490Y239740D01*
X195614D01*
Y238740D01*
X193490D01*
X193560Y238389D01*
X194042Y237668D01*
Y236482D01*
X193560Y235760D01*
X193490Y235409D01*
X195614D01*
Y234409D01*
X193490D01*
X193560Y234058D01*
X194042Y233337D01*
Y232151D01*
X193560Y231430D01*
X193490Y231079D01*
X195614D01*
Y230579D01*
X196114D01*
Y228454D01*
X196465Y228524D01*
X197187Y229006D01*
X198372D01*
X199094Y228524D01*
X199445Y228454D01*
Y230579D01*
X200445D01*
Y228454D01*
X200796Y228524D01*
X201517Y229006D01*
X202703D01*
X203425Y228524D01*
X203776Y228454D01*
Y230579D01*
X204776D01*
Y228454D01*
X205127Y228524D01*
X205848Y229006D01*
X207034D01*
X207755Y228524D01*
X208106Y228454D01*
Y230579D01*
X208606D01*
Y231079D01*
X210731D01*
X210661Y231430D01*
X210179Y232151D01*
Y233337D01*
X210661Y234058D01*
X210731Y234409D01*
X208606D01*
Y235409D01*
X210731D01*
X210661Y235760D01*
X210179Y236482D01*
Y237668D01*
X210661Y238389D01*
X210731Y238740D01*
X208606D01*
Y239740D01*
X210731D01*
X210661Y240091D01*
X210179Y240813D01*
Y241998D01*
X210661Y242720D01*
X210731Y243071D01*
X208606D01*
Y243571D01*
X208106D01*
Y245695D01*
D02*
G37*
G36*
X209106D02*
Y244071D01*
X210731D01*
X210661Y244422D01*
X210179Y245143D01*
X209457Y245625D01*
X209106Y245695D01*
D02*
G37*
G36*
X222902Y247402D02*
X221258D01*
X221329Y247043D01*
X221815Y246316D01*
X222543Y245829D01*
X222902Y245758D01*
Y247402D01*
D02*
G37*
G36*
Y250045D02*
X222543Y249974D01*
X221815Y249488D01*
X221329Y248760D01*
X221258Y248402D01*
X222902D01*
Y250045D01*
D02*
G37*
G36*
X225545Y247402D02*
X223902D01*
Y245758D01*
X224260Y245829D01*
X224988Y246316D01*
X225474Y247043D01*
X225545Y247402D01*
D02*
G37*
G36*
X232144Y259500D02*
X230500D01*
Y257856D01*
X230858Y257928D01*
X231586Y258414D01*
X232072Y259142D01*
X232144Y259500D01*
D02*
G37*
G36*
X229500D02*
X227856D01*
X227928Y259142D01*
X228414Y258414D01*
X229142Y257928D01*
X229500Y257856D01*
Y259500D01*
D02*
G37*
G36*
X249500D02*
X247856D01*
X247928Y259142D01*
X248414Y258414D01*
X249142Y257928D01*
X249500Y257856D01*
Y259500D01*
D02*
G37*
G36*
X269500D02*
X267856D01*
X267928Y259142D01*
X268414Y258414D01*
X269142Y257928D01*
X269500Y257856D01*
Y259500D01*
D02*
G37*
G36*
X252144D02*
X250500D01*
Y257856D01*
X250858Y257928D01*
X251586Y258414D01*
X252072Y259142D01*
X252144Y259500D01*
D02*
G37*
G36*
X189500D02*
X187856D01*
X187928Y259142D01*
X188414Y258414D01*
X189142Y257928D01*
X189500Y257856D01*
Y259500D01*
D02*
G37*
G36*
X162144D02*
X160500D01*
Y257856D01*
X160858Y257928D01*
X161586Y258414D01*
X162072Y259142D01*
X162144Y259500D01*
D02*
G37*
G36*
X192144D02*
X190500D01*
Y257856D01*
X190858Y257928D01*
X191586Y258414D01*
X192072Y259142D01*
X192144Y259500D01*
D02*
G37*
G36*
X212144D02*
X210500D01*
Y257856D01*
X210858Y257928D01*
X211586Y258414D01*
X212072Y259142D01*
X212144Y259500D01*
D02*
G37*
G36*
X209500D02*
X207856D01*
X207928Y259142D01*
X208414Y258414D01*
X209142Y257928D01*
X209500Y257856D01*
Y259500D01*
D02*
G37*
G36*
X297500Y287500D02*
X291531D01*
X291603Y286956D01*
X292006Y285983D01*
X292647Y285147D01*
X293483Y284506D01*
X294456Y284103D01*
X295500Y283965D01*
X297500D01*
Y287500D01*
D02*
G37*
G36*
X114469D02*
X108500D01*
Y283965D01*
X110500D01*
X111544Y284103D01*
X112517Y284506D01*
X113353Y285147D01*
X113994Y285983D01*
X114397Y286956D01*
X114469Y287500D01*
D02*
G37*
G36*
X233500D02*
X231856D01*
X231928Y287142D01*
X232414Y286414D01*
X233142Y285928D01*
X233500Y285856D01*
Y287500D01*
D02*
G37*
G36*
X110500Y292035D02*
X108500D01*
Y288500D01*
X114469D01*
X114397Y289044D01*
X113994Y290017D01*
X113353Y290853D01*
X112517Y291494D01*
X111544Y291897D01*
X110500Y292035D01*
D02*
G37*
G36*
X236144Y287500D02*
X234500D01*
Y285856D01*
X234858Y285928D01*
X235586Y286414D01*
X236072Y287142D01*
X236144Y287500D01*
D02*
G37*
G36*
X233500Y282144D02*
X233142Y282072D01*
X232414Y281586D01*
X231928Y280858D01*
X231856Y280500D01*
X233500D01*
Y282144D01*
D02*
G37*
G36*
X200500D02*
Y280500D01*
X202144D01*
X202072Y280858D01*
X201586Y281586D01*
X200858Y282072D01*
X200500Y282144D01*
D02*
G37*
G36*
X234500D02*
Y280500D01*
X236144D01*
X236072Y280858D01*
X235586Y281586D01*
X234858Y282072D01*
X234500Y282144D01*
D02*
G37*
G36*
X261092Y288092D02*
X253908D01*
Y280908D01*
X261092D01*
Y288092D01*
D02*
G37*
G36*
X151092D02*
X143908D01*
Y280908D01*
X151092D01*
Y288092D01*
D02*
G37*
G36*
X129644Y292000D02*
X128000D01*
Y290356D01*
X128358Y290428D01*
X129086Y290914D01*
X129572Y291642D01*
X129644Y292000D01*
D02*
G37*
G36*
X127000D02*
X125356D01*
X125428Y291642D01*
X125914Y290914D01*
X126642Y290428D01*
X127000Y290356D01*
Y292000D01*
D02*
G37*
G36*
X179500D02*
X177856D01*
X177928Y291642D01*
X178414Y290914D01*
X179142Y290428D01*
X179500Y290356D01*
Y292000D01*
D02*
G37*
G36*
X227346Y294297D02*
X226988Y294226D01*
X226260Y293740D01*
X225774Y293012D01*
X225703Y292653D01*
X227346D01*
Y294297D01*
D02*
G37*
G36*
X182144Y292000D02*
X180500D01*
Y290356D01*
X180858Y290428D01*
X181586Y290914D01*
X182072Y291642D01*
X182144Y292000D01*
D02*
G37*
G36*
X234500Y290144D02*
Y288500D01*
X236144D01*
X236072Y288858D01*
X235586Y289586D01*
X234858Y290072D01*
X234500Y290144D01*
D02*
G37*
G36*
X233500D02*
X233142Y290072D01*
X232414Y289586D01*
X231928Y288858D01*
X231856Y288500D01*
X233500D01*
Y290144D01*
D02*
G37*
G36*
X297500Y292035D02*
X295500D01*
X294456Y291897D01*
X293483Y291494D01*
X292647Y290853D01*
X292006Y290017D01*
X291603Y289044D01*
X291531Y288500D01*
X297500D01*
Y292035D01*
D02*
G37*
G36*
X229990Y291653D02*
X228346D01*
Y290010D01*
X228705Y290081D01*
X229433Y290567D01*
X229919Y291295D01*
X229990Y291653D01*
D02*
G37*
G36*
X227346D02*
X225703D01*
X225774Y291295D01*
X226260Y290567D01*
X226988Y290081D01*
X227346Y290010D01*
Y291653D01*
D02*
G37*
G36*
X199500Y282144D02*
X199142Y282072D01*
X198414Y281586D01*
X197928Y280858D01*
X197856Y280500D01*
X199500D01*
Y282144D01*
D02*
G37*
G36*
X147500Y278123D02*
X146562Y278000D01*
X145688Y277638D01*
X144938Y277062D01*
X144362Y276312D01*
X144000Y275438D01*
X143877Y274500D01*
X144000Y273562D01*
X144362Y272688D01*
X144938Y271938D01*
X145688Y271362D01*
X146562Y271000D01*
X147500Y270877D01*
X148438Y271000D01*
X149312Y271362D01*
X150062Y271938D01*
X150638Y272688D01*
X151000Y273562D01*
X151123Y274500D01*
X151000Y275438D01*
X150638Y276312D01*
X150062Y277062D01*
X149312Y277638D01*
X148438Y278000D01*
X147500Y278123D01*
D02*
G37*
G36*
X110500Y272035D02*
X108500D01*
Y268500D01*
X114469D01*
X114397Y269044D01*
X113994Y270017D01*
X113353Y270853D01*
X112517Y271494D01*
X111544Y271897D01*
X110500Y272035D01*
D02*
G37*
G36*
X257500Y278123D02*
X256562Y278000D01*
X255688Y277638D01*
X254938Y277062D01*
X254362Y276312D01*
X254000Y275438D01*
X253877Y274500D01*
X254000Y273562D01*
X254362Y272688D01*
X254938Y271938D01*
X255688Y271362D01*
X256562Y271000D01*
X257500Y270877D01*
X258438Y271000D01*
X259312Y271362D01*
X260062Y271938D01*
X260638Y272688D01*
X261000Y273562D01*
X261123Y274500D01*
X261000Y275438D01*
X260638Y276312D01*
X260062Y277062D01*
X259312Y277638D01*
X258438Y278000D01*
X257500Y278123D01*
D02*
G37*
G36*
X229990Y274153D02*
X228346D01*
Y272510D01*
X228705Y272581D01*
X229433Y273067D01*
X229919Y273795D01*
X229990Y274153D01*
D02*
G37*
G36*
X227346D02*
X225703D01*
X225774Y273795D01*
X226260Y273067D01*
X226988Y272581D01*
X227346Y272510D01*
Y274153D01*
D02*
G37*
G36*
X197000Y268644D02*
X196642Y268572D01*
X195914Y268086D01*
X195428Y267358D01*
X195356Y267000D01*
X197000D01*
Y268644D01*
D02*
G37*
G36*
X134644Y267000D02*
X133000D01*
Y265356D01*
X133358Y265428D01*
X134086Y265914D01*
X134572Y266642D01*
X134644Y267000D01*
D02*
G37*
G36*
X198000Y268644D02*
Y267000D01*
X199644D01*
X199572Y267358D01*
X199086Y268086D01*
X198358Y268572D01*
X198000Y268644D01*
D02*
G37*
G36*
X133000Y269644D02*
Y268000D01*
X134644D01*
X134572Y268358D01*
X134086Y269086D01*
X133358Y269572D01*
X133000Y269644D01*
D02*
G37*
G36*
X132000D02*
X131642Y269572D01*
X130914Y269086D01*
X130428Y268358D01*
X130356Y268000D01*
X132000D01*
Y269644D01*
D02*
G37*
G36*
X233500Y279500D02*
X231856D01*
X231928Y279142D01*
X232414Y278414D01*
X233142Y277928D01*
X233500Y277856D01*
Y279500D01*
D02*
G37*
G36*
X202144D02*
X200500D01*
Y277856D01*
X200858Y277928D01*
X201586Y278414D01*
X202072Y279142D01*
X202144Y279500D01*
D02*
G37*
G36*
X236144D02*
X234500D01*
Y277856D01*
X234858Y277928D01*
X235586Y278414D01*
X236072Y279142D01*
X236144Y279500D01*
D02*
G37*
G36*
X180500Y282144D02*
Y280500D01*
X182144D01*
X182072Y280858D01*
X181586Y281586D01*
X180858Y282072D01*
X180500Y282144D01*
D02*
G37*
G36*
X179500D02*
X179142Y282072D01*
X178414Y281586D01*
X177928Y280858D01*
X177856Y280500D01*
X179500D01*
Y282144D01*
D02*
G37*
G36*
X228346Y276797D02*
Y275153D01*
X229990D01*
X229919Y275512D01*
X229433Y276240D01*
X228705Y276726D01*
X228346Y276797D01*
D02*
G37*
G36*
X227346D02*
X226988Y276726D01*
X226260Y276240D01*
X225774Y275512D01*
X225703Y275153D01*
X227346D01*
Y276797D01*
D02*
G37*
G36*
X179500Y279500D02*
X177856D01*
X177928Y279142D01*
X178414Y278414D01*
X179142Y277928D01*
X179500Y277856D01*
Y279500D01*
D02*
G37*
G36*
X199500D02*
X197856D01*
X197928Y279142D01*
X198414Y278414D01*
X199142Y277928D01*
X199500Y277856D01*
Y279500D01*
D02*
G37*
G36*
X182144D02*
X180500D01*
Y277856D01*
X180858Y277928D01*
X181586Y278414D01*
X182072Y279142D01*
X182144Y279500D01*
D02*
G37*
G36*
X124644Y119500D02*
X123000D01*
Y117856D01*
X123358Y117928D01*
X124086Y118414D01*
X124572Y119142D01*
X124644Y119500D01*
D02*
G37*
G36*
X107500Y114500D02*
X104000D01*
Y108500D01*
X107500D01*
Y114500D01*
D02*
G37*
G36*
X112000D02*
X108500D01*
Y108500D01*
X112000D01*
Y114500D01*
D02*
G37*
G36*
X122000Y119500D02*
X120356D01*
X120428Y119142D01*
X120914Y118414D01*
X121642Y117928D01*
X122000Y117856D01*
Y119500D01*
D02*
G37*
G36*
X123000Y122144D02*
Y120500D01*
X124644D01*
X124572Y120858D01*
X124086Y121586D01*
X123358Y122072D01*
X123000Y122144D01*
D02*
G37*
G36*
X122000D02*
X121642Y122072D01*
X120914Y121586D01*
X120428Y120858D01*
X120356Y120500D01*
X122000D01*
Y122144D01*
D02*
G37*
%LPD*%
D15*
X121000Y231000D02*
Y261000D01*
X118000Y228000D02*
X121000Y231000D01*
X108000Y228000D02*
X118000D01*
X117500Y241000D02*
Y261000D01*
X114500Y238000D02*
X117500Y241000D01*
X108000Y238000D02*
X114500D01*
X118000Y215500D02*
Y220500D01*
X178000Y157000D02*
X193500D01*
X118000Y145000D02*
Y150500D01*
X195900Y159100D02*
X196000Y159000D01*
X176100Y159100D02*
X195900D01*
X175000Y158000D02*
X176100Y159100D01*
X174500Y154500D02*
X175000D01*
Y158000D01*
X172000Y163500D02*
Y166500D01*
Y163500D02*
X173500Y162000D01*
X187000D01*
X153000Y209500D02*
X164000D01*
X210500D02*
X214000D01*
X217000Y212500D01*
X213000Y216000D02*
X213500Y216500D01*
X207000Y216000D02*
X213000D01*
X186500Y216500D02*
X197500D01*
X219000Y159000D02*
X225000D01*
X197000Y210000D02*
X197500Y209500D01*
X181500Y210000D02*
X197000D01*
X181500Y218000D02*
X185000D01*
X186500Y216500D01*
X153500Y220500D02*
X174000D01*
D16*
X199945Y239240D02*
Y243571D01*
Y234910D02*
Y239240D01*
Y230579D02*
Y234910D01*
X204276Y239240D02*
Y243571D01*
Y234910D02*
Y239240D01*
Y230579D02*
Y234910D01*
X208606D01*
X199945D02*
X204276D01*
X195614D02*
X199945D01*
X204276Y239240D02*
X208606D01*
X199945D02*
X204276D01*
X195614D02*
X199945D01*
X208606D02*
Y243571D01*
Y234910D02*
Y239240D01*
Y230579D02*
Y234910D01*
X204276Y230579D02*
X208606D01*
X199945D02*
X204276D01*
X195614D02*
X199945D01*
X195614Y239240D02*
Y243571D01*
Y234910D02*
Y239240D01*
Y230579D02*
Y234910D01*
X204276Y243571D02*
X208606D01*
X199945D02*
X204276D01*
X195614D02*
X199945D01*
D18*
X157500Y128000D02*
X168000Y117500D01*
Y108000D02*
Y117500D01*
X238000Y108000D02*
Y112500D01*
X233000Y117500D02*
X238000Y112500D01*
X168000Y117500D02*
X233000D01*
X180000Y225000D02*
Y251000D01*
X180500Y197000D02*
X182000Y195500D01*
X180000Y197000D02*
X180500D01*
X123500Y128000D02*
Y133500D01*
X160000Y170000D01*
Y182000D01*
X165000Y187000D01*
X182000D01*
X108000Y128000D02*
X123500D01*
X157500D01*
X182000Y176500D02*
Y187000D01*
Y195500D01*
X233000Y117500D02*
X277500D01*
X286000Y126000D01*
Y186000D01*
X288000Y188000D01*
X298000D01*
D20*
X198000Y138000D02*
D03*
X128000Y338000D02*
D03*
X278000D02*
D03*
D21*
X108000Y318000D02*
D03*
X298000D02*
D03*
D22*
X108000Y308000D02*
D03*
Y298000D02*
D03*
Y288000D02*
D03*
Y278000D02*
D03*
Y268000D02*
D03*
Y258000D02*
D03*
Y248000D02*
D03*
Y238000D02*
D03*
Y228000D02*
D03*
Y218000D02*
D03*
Y208000D02*
D03*
Y198000D02*
D03*
Y188000D02*
D03*
Y178000D02*
D03*
Y168000D02*
D03*
Y158000D02*
D03*
Y148000D02*
D03*
Y138000D02*
D03*
Y128000D02*
D03*
X298000Y308000D02*
D03*
Y298000D02*
D03*
Y288000D02*
D03*
Y278000D02*
D03*
Y268000D02*
D03*
Y258000D02*
D03*
Y248000D02*
D03*
Y238000D02*
D03*
Y228000D02*
D03*
Y218000D02*
D03*
Y208000D02*
D03*
Y198000D02*
D03*
Y188000D02*
D03*
Y178000D02*
D03*
Y168000D02*
D03*
Y158000D02*
D03*
Y148000D02*
D03*
Y138000D02*
D03*
Y128000D02*
D03*
D23*
X108000Y108000D02*
D03*
D24*
X118000D02*
D03*
X128000D02*
D03*
X138000D02*
D03*
X148000D02*
D03*
X158000D02*
D03*
X168000D02*
D03*
X178000D02*
D03*
X188000D02*
D03*
X198000D02*
D03*
X208000D02*
D03*
X218000D02*
D03*
X228000D02*
D03*
X238000D02*
D03*
X248000D02*
D03*
X258000D02*
D03*
X268000D02*
D03*
X278000D02*
D03*
X288000D02*
D03*
X298000D02*
D03*
D25*
X172000Y166500D02*
D03*
D26*
X182000D02*
D03*
X192000D02*
D03*
X202000D02*
D03*
X212000D02*
D03*
X222000D02*
D03*
X232000D02*
D03*
X172000Y176500D02*
D03*
X182000D02*
D03*
X192000D02*
D03*
X202000D02*
D03*
X212000D02*
D03*
X222000D02*
D03*
X232000D02*
D03*
D27*
X147500Y174500D02*
D03*
Y184500D02*
D03*
Y194500D02*
D03*
Y204500D02*
D03*
Y214500D02*
D03*
Y224500D02*
D03*
Y234500D02*
D03*
Y244500D02*
D03*
Y254500D02*
D03*
Y264500D02*
D03*
Y274500D02*
D03*
X257500Y174500D02*
D03*
Y184500D02*
D03*
Y194500D02*
D03*
Y204500D02*
D03*
Y214500D02*
D03*
Y224500D02*
D03*
Y234500D02*
D03*
Y244500D02*
D03*
Y254500D02*
D03*
Y264500D02*
D03*
Y274500D02*
D03*
D28*
X147500Y284500D02*
D03*
X257500D02*
D03*
D29*
X160000Y260000D02*
D03*
X282500Y152500D02*
D03*
Y165000D02*
D03*
X180000Y292500D02*
D03*
X127500D02*
D03*
X132500Y267500D02*
D03*
X127500Y240000D02*
D03*
X120000Y190000D02*
D03*
Y180000D02*
D03*
X137500Y197500D02*
D03*
X122500Y140000D02*
D03*
X132500Y150000D02*
D03*
X147500D02*
D03*
X122500Y120000D02*
D03*
X245000Y122500D02*
D03*
X290000Y120000D02*
D03*
X180000Y130000D02*
D03*
X170000Y197000D02*
D03*
X280000Y320000D02*
D03*
X290000Y260000D02*
D03*
X280000Y240000D02*
D03*
X290000Y180000D02*
D03*
X260000Y320000D02*
D03*
X270000Y300000D02*
D03*
Y260000D02*
D03*
X260000Y240000D02*
D03*
Y200000D02*
D03*
Y160000D02*
D03*
X250000Y340000D02*
D03*
X240000Y320000D02*
D03*
X250000Y300000D02*
D03*
Y260000D02*
D03*
X240000Y200000D02*
D03*
X250000Y180000D02*
D03*
Y140000D02*
D03*
X230000Y340000D02*
D03*
X220000Y320000D02*
D03*
X230000Y260000D02*
D03*
X220000Y200000D02*
D03*
X230000Y140000D02*
D03*
X210000Y340000D02*
D03*
X200000Y320000D02*
D03*
X210000Y300000D02*
D03*
X200000Y280000D02*
D03*
X210000Y260000D02*
D03*
X190000Y340000D02*
D03*
X180000Y320000D02*
D03*
Y280000D02*
D03*
X190000Y260000D02*
D03*
X170000Y340000D02*
D03*
X160000Y320000D02*
D03*
Y240000D02*
D03*
Y160000D02*
D03*
X150000Y340000D02*
D03*
X140000Y320000D02*
D03*
Y200000D02*
D03*
X150000Y180000D02*
D03*
X140000Y160000D02*
D03*
X120000Y320000D02*
D03*
X130000Y220000D02*
D03*
X120000Y200000D02*
D03*
X117500Y261000D02*
D03*
X121000D02*
D03*
X118000Y220500D02*
D03*
Y215500D02*
D03*
X197500Y266500D02*
D03*
X234000Y288000D02*
D03*
Y280000D02*
D03*
X227847Y274654D02*
D03*
Y292154D02*
D03*
X215846Y199846D02*
D03*
X153500Y220500D02*
D03*
X173500Y220000D02*
D03*
X178000Y157000D02*
D03*
X193500D02*
D03*
X118000Y145000D02*
D03*
Y150500D02*
D03*
X196000Y159000D02*
D03*
X174500Y154500D02*
D03*
X187000Y162000D02*
D03*
X153000Y209500D02*
D03*
X164000D02*
D03*
X197500D02*
D03*
X210500D02*
D03*
X217000Y212500D02*
D03*
X197500Y216500D02*
D03*
X213500D02*
D03*
X207000Y216000D02*
D03*
X223402Y247902D02*
D03*
X225000Y159000D02*
D03*
X219000D02*
D03*
X180000Y251000D02*
D03*
Y225000D02*
D03*
Y197000D02*
D03*
X181500Y210000D02*
D03*
Y218000D02*
D03*
D30*
X195614Y243571D02*
D03*
X199945D02*
D03*
X204276D02*
D03*
X208606D02*
D03*
X195614Y239240D02*
D03*
X199945D02*
D03*
X204276D02*
D03*
X208606D02*
D03*
X195614Y234910D02*
D03*
X199945D02*
D03*
X204276D02*
D03*
X208606D02*
D03*
X195614Y230579D02*
D03*
X199945D02*
D03*
X204276D02*
D03*
X208606D02*
D03*
M02*
