G04 Layer_Physical_Order=1*
G04 Layer_Color=255*
%FSLAX25Y25*%
%MOIN*%
G70*
G01*
G75*
%ADD10O,0.04724X0.00984*%
%ADD11O,0.00984X0.04724*%
%ADD12R,0.16142X0.16142*%
G04:AMPARAMS|DCode=13|XSize=39.37mil|YSize=35.43mil|CornerRadius=4.43mil|HoleSize=0mil|Usage=FLASHONLY|Rotation=0.000|XOffset=0mil|YOffset=0mil|HoleType=Round|Shape=RoundedRectangle|*
%AMROUNDEDRECTD13*
21,1,0.03937,0.02658,0,0,0.0*
21,1,0.03051,0.03543,0,0,0.0*
1,1,0.00886,0.01526,-0.01329*
1,1,0.00886,-0.01526,-0.01329*
1,1,0.00886,-0.01526,0.01329*
1,1,0.00886,0.01526,0.01329*
%
%ADD13ROUNDEDRECTD13*%
G04:AMPARAMS|DCode=14|XSize=39.37mil|YSize=35.43mil|CornerRadius=4.43mil|HoleSize=0mil|Usage=FLASHONLY|Rotation=90.000|XOffset=0mil|YOffset=0mil|HoleType=Round|Shape=RoundedRectangle|*
%AMROUNDEDRECTD14*
21,1,0.03937,0.02658,0,0,90.0*
21,1,0.03051,0.03543,0,0,90.0*
1,1,0.00886,0.01329,0.01526*
1,1,0.00886,0.01329,-0.01526*
1,1,0.00886,-0.01329,-0.01526*
1,1,0.00886,-0.01329,0.01526*
%
%ADD14ROUNDEDRECTD14*%
%ADD15C,0.00600*%
%ADD16C,0.01000*%
%ADD17C,0.00800*%
%ADD18C,0.02000*%
%ADD19C,0.01200*%
%ADD20C,0.25000*%
%ADD21R,0.11000X0.06000*%
%ADD22O,0.11000X0.06000*%
%ADD23R,0.06000X0.11000*%
%ADD24O,0.06000X0.11000*%
%ADD25R,0.06102X0.06102*%
%ADD26C,0.06102*%
%ADD27C,0.05984*%
%ADD28R,0.05984X0.05984*%
%ADD29C,0.02400*%
%ADD30C,0.02362*%
G36*
X168582Y268620D02*
Y251000D01*
X168652Y250649D01*
X168851Y250351D01*
X173320Y245882D01*
X172906Y244882D01*
X171915D01*
X165418Y251380D01*
Y262000D01*
X165348Y262351D01*
X165149Y262649D01*
X162649Y265149D01*
X162351Y265348D01*
X162000Y265418D01*
X151002D01*
X151000Y265438D01*
X150638Y266312D01*
X150062Y267062D01*
X149312Y267638D01*
X148438Y268000D01*
X147500Y268123D01*
X146562Y268000D01*
X145688Y267638D01*
X144938Y267062D01*
X144362Y266312D01*
X144000Y265438D01*
X143877Y264500D01*
X144000Y263562D01*
X144362Y262688D01*
X144938Y261938D01*
X145688Y261362D01*
X146562Y261000D01*
X147500Y260877D01*
X148438Y261000D01*
X149312Y261362D01*
X150062Y261938D01*
X150638Y262688D01*
X151000Y263562D01*
X151002Y263582D01*
X161620D01*
X163582Y261620D01*
Y251000D01*
X163652Y250649D01*
X163851Y250351D01*
X170289Y243914D01*
X169874Y242914D01*
X168884D01*
X156649Y255149D01*
X156351Y255348D01*
X156000Y255418D01*
X151002D01*
X151000Y255438D01*
X150638Y256312D01*
X150062Y257062D01*
X149312Y257638D01*
X148438Y258000D01*
X147500Y258123D01*
X146562Y258000D01*
X145688Y257638D01*
X144938Y257062D01*
X144362Y256312D01*
X144000Y255438D01*
X143877Y254500D01*
X144000Y253562D01*
X144362Y252688D01*
X144938Y251938D01*
X145688Y251362D01*
X146562Y251000D01*
X147500Y250877D01*
X148438Y251000D01*
X149312Y251362D01*
X150062Y251938D01*
X150638Y252688D01*
X151000Y253562D01*
X151002Y253582D01*
X155620D01*
X162831Y246371D01*
X162606Y245723D01*
X162370Y245418D01*
X151002D01*
X151000Y245438D01*
X150638Y246312D01*
X150062Y247062D01*
X149312Y247638D01*
X148438Y248000D01*
X147500Y248123D01*
X146562Y248000D01*
X145688Y247638D01*
X144938Y247062D01*
X144362Y246312D01*
X144000Y245438D01*
X143877Y244500D01*
X144000Y243562D01*
X144362Y242688D01*
X144938Y241938D01*
X145688Y241362D01*
X146562Y241000D01*
X147500Y240877D01*
X148438Y241000D01*
X149312Y241362D01*
X150062Y241938D01*
X150638Y242688D01*
X151000Y243562D01*
X151002Y243582D01*
X162120D01*
X166039Y239663D01*
X166254Y239111D01*
X166057Y238354D01*
X163120Y235418D01*
X151002D01*
X151000Y235438D01*
X150638Y236312D01*
X150062Y237062D01*
X149312Y237638D01*
X148438Y238000D01*
X147500Y238123D01*
X146562Y238000D01*
X145688Y237638D01*
X144938Y237062D01*
X144362Y236312D01*
X144000Y235438D01*
X143877Y234500D01*
X144000Y233562D01*
X144362Y232688D01*
X144938Y231938D01*
X145688Y231362D01*
X146562Y231000D01*
X147500Y230877D01*
X148438Y231000D01*
X149312Y231362D01*
X150062Y231938D01*
X150638Y232688D01*
X151000Y233562D01*
X151002Y233582D01*
X162870D01*
X163285Y232582D01*
X156120Y225418D01*
X151002D01*
X151000Y225438D01*
X150638Y226312D01*
X150062Y227062D01*
X149312Y227638D01*
X148438Y228000D01*
X147500Y228123D01*
X146562Y228000D01*
X145688Y227638D01*
X144938Y227062D01*
X144362Y226312D01*
X144000Y225438D01*
X143877Y224500D01*
X144000Y223562D01*
X144362Y222688D01*
X144938Y221938D01*
X145616Y221418D01*
X145619Y221308D01*
X145243Y220748D01*
X144129Y220669D01*
X140918Y223880D01*
Y252500D01*
X140848Y252851D01*
X140649Y253149D01*
X135149Y258649D01*
X134851Y258848D01*
X134500Y258918D01*
X122885D01*
X122702Y259161D01*
X122442Y259918D01*
X122696Y260298D01*
X122835Y261000D01*
X122696Y261702D01*
X122298Y262298D01*
X121918Y262552D01*
Y265120D01*
X130380Y273582D01*
X143998D01*
X144000Y273562D01*
X144362Y272688D01*
X144938Y271938D01*
X145688Y271362D01*
X146562Y271000D01*
X147500Y270877D01*
X148438Y271000D01*
X149312Y271362D01*
X150062Y271938D01*
X150638Y272688D01*
X151000Y273562D01*
X151002Y273582D01*
X163620D01*
X168582Y268620D01*
D02*
G37*
G36*
X304980Y322801D02*
X304500Y322000D01*
X303980Y322000D01*
X298500D01*
Y318000D01*
Y314000D01*
X303980D01*
X304500Y314000D01*
X304980Y313199D01*
Y309102D01*
X304007Y308940D01*
X303645Y309816D01*
X303067Y310567D01*
X302315Y311145D01*
X301440Y311507D01*
X300500Y311631D01*
X295500D01*
X294560Y311507D01*
X293685Y311145D01*
X292933Y310567D01*
X292355Y309816D01*
X292068Y309121D01*
X222000D01*
X222000Y309122D01*
X221571Y309036D01*
X221207Y308793D01*
X213361Y300947D01*
X213140Y300617D01*
X212986Y300592D01*
X212112Y300657D01*
X212072Y300858D01*
X211586Y301586D01*
X210858Y302072D01*
X210500Y302144D01*
Y300000D01*
Y297856D01*
X210858Y297928D01*
X211586Y298414D01*
X212032Y299081D01*
X212105Y299092D01*
X213032Y298573D01*
Y275089D01*
X212825D01*
X212418Y275008D01*
X212073Y274778D01*
X211842Y274432D01*
X211761Y274026D01*
Y270974D01*
X211842Y270567D01*
X212073Y270222D01*
X212418Y269992D01*
X212825Y269911D01*
X213134D01*
Y268576D01*
X212216Y267658D01*
X211995Y267327D01*
X211917Y266937D01*
Y262567D01*
X210917Y262033D01*
X210858Y262072D01*
X210500Y262144D01*
Y260000D01*
Y257856D01*
X210858Y257928D01*
X210917Y257967D01*
X211917Y257433D01*
Y254887D01*
X211832Y254749D01*
X210968Y254133D01*
X210542Y254048D01*
X209984Y253870D01*
X209426Y254048D01*
X209000Y254133D01*
X208574Y254048D01*
X208016Y253870D01*
X207458Y254048D01*
X207031Y254133D01*
X206605Y254048D01*
X206553Y254013D01*
X206139Y254096D01*
X205645Y254425D01*
X205563Y254442D01*
Y251150D01*
X204563D01*
Y254720D01*
X204072Y255180D01*
X204020Y255276D01*
Y294000D01*
X203942Y294390D01*
X203721Y294721D01*
X197721Y300721D01*
X197390Y300942D01*
X197000Y301020D01*
X136392D01*
Y301526D01*
X136311Y301933D01*
X136081Y302277D01*
X135736Y302508D01*
X135329Y302589D01*
X132671D01*
X132441Y302543D01*
X132228Y302756D01*
X129079D01*
X128866Y302543D01*
X128636Y302589D01*
X125978D01*
X125571Y302508D01*
X125226Y302277D01*
X124996Y301933D01*
X124915Y301526D01*
Y301020D01*
X124000D01*
X123610Y300942D01*
X123279Y300721D01*
X121578Y299020D01*
X113974D01*
X113645Y299816D01*
X113068Y300568D01*
X112315Y301145D01*
X111440Y301507D01*
X110500Y301631D01*
X105500D01*
X104560Y301507D01*
X103684Y301145D01*
X102932Y300568D01*
X102355Y299816D01*
X101993Y298940D01*
X101020Y299102D01*
Y305751D01*
X101962Y305973D01*
X102020Y305965D01*
X102647Y305147D01*
X103483Y304506D01*
X104456Y304103D01*
X105500Y303965D01*
X107500D01*
Y308000D01*
Y312035D01*
X105500D01*
X104456Y311897D01*
X103483Y311494D01*
X102647Y310853D01*
X102020Y310035D01*
X101962Y310028D01*
X101020Y310249D01*
Y314111D01*
X101900Y314400D01*
X102020Y314400D01*
X114100D01*
Y321600D01*
X102020D01*
X101900Y321600D01*
X101020Y321889D01*
Y360981D01*
X304980D01*
Y322801D01*
D02*
G37*
G36*
X136082Y244620D02*
Y214000D01*
X136152Y213649D01*
X136351Y213351D01*
X140851Y208851D01*
X141149Y208652D01*
X141500Y208582D01*
X145021D01*
X145619Y207692D01*
X145616Y207582D01*
X144938Y207062D01*
X144362Y206312D01*
X144000Y205438D01*
X143877Y204500D01*
X144000Y203562D01*
X144362Y202688D01*
X144938Y201938D01*
X145688Y201362D01*
X146562Y201000D01*
X147500Y200877D01*
X148438Y201000D01*
X149312Y201362D01*
X150062Y201938D01*
X150638Y202688D01*
X151000Y203562D01*
X151002Y203582D01*
X153000D01*
X153351Y203652D01*
X153649Y203851D01*
X156149Y206351D01*
X156348Y206649D01*
X156418Y207000D01*
Y213620D01*
X173615Y230817D01*
X174035Y230746D01*
X174377Y229674D01*
X158351Y213649D01*
X158152Y213351D01*
X158082Y213000D01*
Y198380D01*
X155120Y195418D01*
X151002D01*
X151000Y195438D01*
X150638Y196312D01*
X150062Y197062D01*
X149312Y197638D01*
X148438Y198000D01*
X147500Y198123D01*
X146562Y198000D01*
X145688Y197638D01*
X144938Y197062D01*
X144362Y196312D01*
X144000Y195438D01*
X143877Y194500D01*
X144000Y193562D01*
X144362Y192688D01*
X144938Y191938D01*
X145688Y191362D01*
X146562Y191000D01*
X147500Y190877D01*
X148438Y191000D01*
X149312Y191362D01*
X150062Y191938D01*
X150638Y192688D01*
X151000Y193562D01*
X151002Y193582D01*
X155500D01*
X155851Y193652D01*
X156149Y193851D01*
X159582Y197285D01*
X159864Y197258D01*
X160582Y196948D01*
Y190880D01*
X155120Y185418D01*
X151002D01*
X151000Y185438D01*
X150638Y186312D01*
X150062Y187062D01*
X149312Y187638D01*
X148438Y188000D01*
X147500Y188123D01*
X146562Y188000D01*
X145688Y187638D01*
X144938Y187062D01*
X144362Y186312D01*
X144000Y185438D01*
X143877Y184500D01*
X144000Y183562D01*
X144362Y182688D01*
X144938Y181938D01*
X145688Y181362D01*
X146562Y181000D01*
X146927Y180952D01*
X147757Y180000D01*
X147859Y179488D01*
X147751Y179200D01*
X147363Y178653D01*
X147165Y178482D01*
X146458Y178389D01*
X145487Y177987D01*
X144653Y177347D01*
X144013Y176513D01*
X143611Y175542D01*
X143539Y175000D01*
X147500D01*
X151461D01*
X151389Y175542D01*
X150987Y176513D01*
X150707Y176878D01*
X150773Y177331D01*
X151011Y178027D01*
X151017Y178034D01*
X151586Y178414D01*
X152072Y179142D01*
X152144Y179500D01*
X150000D01*
Y180500D01*
X152144D01*
X152072Y180858D01*
X151586Y181586D01*
X151233Y181822D01*
X150850Y182677D01*
X151604Y183582D01*
X155500D01*
X155851Y183652D01*
X156149Y183851D01*
X162149Y189851D01*
X162348Y190149D01*
X162418Y190500D01*
Y207190D01*
X163156Y207705D01*
X163418Y207781D01*
X164000Y207665D01*
X164702Y207804D01*
X165298Y208202D01*
X165696Y208798D01*
X165752Y209082D01*
X179948D01*
X180202Y208702D01*
X180798Y208304D01*
X181500Y208165D01*
X182202Y208304D01*
X182369Y208416D01*
X183369Y207894D01*
Y202676D01*
X179411Y198718D01*
X179298Y198696D01*
X178702Y198298D01*
X178304Y197702D01*
X178165Y197000D01*
X178304Y196298D01*
X178702Y195702D01*
X179298Y195304D01*
X180000Y195165D01*
X180714Y194287D01*
X180740Y194038D01*
X164851Y178149D01*
X164652Y177851D01*
X164582Y177500D01*
Y168500D01*
X164652Y168149D01*
X164851Y167851D01*
X166851Y165851D01*
X167149Y165652D01*
X167500Y165582D01*
X168349D01*
Y162849D01*
X175651D01*
Y170137D01*
X176368Y170834D01*
X178832Y168370D01*
X178811Y168341D01*
X178443Y167453D01*
X178317Y166500D01*
X178443Y165547D01*
X178811Y164659D01*
X179396Y163896D01*
X180159Y163311D01*
X181047Y162943D01*
X181082Y162938D01*
Y158421D01*
X180534Y157935D01*
X179406Y158136D01*
X179298Y158298D01*
X178702Y158696D01*
X178000Y158835D01*
X177298Y158696D01*
X176702Y158298D01*
X176448Y157918D01*
X162457D01*
X161923Y158918D01*
X162072Y159142D01*
X162144Y159500D01*
X157856D01*
X157928Y159142D01*
X158077Y158918D01*
X157543Y157918D01*
X142457D01*
X141923Y158918D01*
X142072Y159142D01*
X142144Y159500D01*
X137856D01*
X137928Y159142D01*
X138077Y158918D01*
X137543Y157918D01*
X131918D01*
Y209000D01*
X131848Y209351D01*
X131649Y209649D01*
X122649Y218649D01*
X122351Y218848D01*
X122000Y218918D01*
X120310D01*
X119795Y219656D01*
X119719Y219918D01*
X119835Y220500D01*
X119696Y221202D01*
X119298Y221798D01*
X118918Y222052D01*
Y235500D01*
X118848Y235851D01*
X118649Y236149D01*
X116149Y238649D01*
X115851Y238848D01*
X115500Y238918D01*
X114010D01*
X114007Y238940D01*
X113645Y239815D01*
X113068Y240567D01*
X112315Y241145D01*
X111440Y241507D01*
X110500Y241631D01*
X105500D01*
X104560Y241507D01*
X103684Y241145D01*
X102932Y240567D01*
X102355Y239815D01*
X101993Y238940D01*
X101020Y239102D01*
Y246898D01*
X101993Y247060D01*
X102355Y246184D01*
X102932Y245432D01*
X103684Y244855D01*
X104560Y244493D01*
X105500Y244369D01*
X110500D01*
X111440Y244493D01*
X112315Y244855D01*
X113068Y245432D01*
X113645Y246184D01*
X114007Y247060D01*
X114010Y247082D01*
X133620D01*
X136082Y244620D01*
D02*
G37*
G36*
X116205Y216344D02*
X116281Y216082D01*
X116165Y215500D01*
X116304Y214798D01*
X116702Y214202D01*
X117082Y213948D01*
Y212500D01*
X117152Y212149D01*
X117351Y211851D01*
X122082Y207120D01*
Y202457D01*
X121082Y201923D01*
X120858Y202072D01*
X120500Y202144D01*
Y200000D01*
Y197856D01*
X120858Y197928D01*
X121082Y198077D01*
X122082Y197543D01*
Y192457D01*
X121082Y191923D01*
X120858Y192072D01*
X120500Y192144D01*
Y190000D01*
Y187856D01*
X120858Y187928D01*
X121082Y188077D01*
X122082Y187543D01*
Y182457D01*
X121082Y181923D01*
X120858Y182072D01*
X120500Y182144D01*
Y180000D01*
Y177856D01*
X120858Y177928D01*
X121082Y178077D01*
X122082Y177543D01*
Y171239D01*
X121474D01*
X121068Y171158D01*
X120722Y170927D01*
X120492Y170582D01*
X120411Y170175D01*
Y167518D01*
X120457Y167288D01*
X120244Y167075D01*
Y163925D01*
X120457Y163712D01*
X120411Y163482D01*
Y160862D01*
X117423Y157875D01*
X116649Y158649D01*
X116351Y158848D01*
X116000Y158918D01*
X114010D01*
X114007Y158940D01*
X113645Y159816D01*
X113068Y160568D01*
X112315Y161145D01*
X111440Y161507D01*
X110500Y161631D01*
X105500D01*
X104560Y161507D01*
X103684Y161145D01*
X102932Y160568D01*
X102355Y159816D01*
X101993Y158940D01*
X101020Y159102D01*
Y165751D01*
X101962Y165972D01*
X102020Y165965D01*
X102647Y165147D01*
X103483Y164506D01*
X104456Y164103D01*
X105500Y163965D01*
X107500D01*
Y168000D01*
Y172035D01*
X105500D01*
X104456Y171897D01*
X103483Y171494D01*
X102647Y170853D01*
X102020Y170035D01*
X101962Y170027D01*
X101020Y170249D01*
Y175751D01*
X101962Y175972D01*
X102020Y175965D01*
X102647Y175147D01*
X103483Y174506D01*
X104456Y174103D01*
X105500Y173966D01*
X107500D01*
Y178000D01*
Y182035D01*
X105500D01*
X104456Y181897D01*
X103483Y181494D01*
X102647Y180853D01*
X102020Y180035D01*
X101962Y180027D01*
X101020Y180249D01*
Y186898D01*
X101993Y187060D01*
X102355Y186185D01*
X102932Y185432D01*
X103684Y184855D01*
X104560Y184493D01*
X105500Y184369D01*
X110500D01*
X111440Y184493D01*
X112315Y184855D01*
X113068Y185432D01*
X113645Y186185D01*
X114007Y187060D01*
X114131Y188000D01*
X114007Y188940D01*
X113645Y189815D01*
X113068Y190568D01*
X112315Y191145D01*
X111440Y191507D01*
X110500Y191631D01*
X105500D01*
X104560Y191507D01*
X103684Y191145D01*
X102932Y190568D01*
X102355Y189815D01*
X101993Y188940D01*
X101020Y189102D01*
Y196898D01*
X101993Y197060D01*
X102355Y196185D01*
X102932Y195432D01*
X103684Y194855D01*
X104560Y194493D01*
X105500Y194369D01*
X110500D01*
X111440Y194493D01*
X112315Y194855D01*
X113068Y195432D01*
X113645Y196185D01*
X114007Y197060D01*
X114131Y198000D01*
X114007Y198940D01*
X113645Y199815D01*
X113068Y200568D01*
X112315Y201145D01*
X111440Y201507D01*
X110500Y201631D01*
X105500D01*
X104560Y201507D01*
X103684Y201145D01*
X102932Y200568D01*
X102355Y199815D01*
X101993Y198940D01*
X101020Y199102D01*
Y206898D01*
X101993Y207060D01*
X102355Y206185D01*
X102932Y205433D01*
X103684Y204855D01*
X104560Y204493D01*
X105500Y204369D01*
X110500D01*
X111440Y204493D01*
X112315Y204855D01*
X113068Y205433D01*
X113645Y206185D01*
X114007Y207060D01*
X114131Y208000D01*
X114007Y208940D01*
X113645Y209816D01*
X113068Y210567D01*
X112315Y211145D01*
X111440Y211507D01*
X110500Y211631D01*
X105500D01*
X104560Y211507D01*
X103684Y211145D01*
X102932Y210567D01*
X102355Y209816D01*
X101993Y208940D01*
X101020Y209102D01*
Y216898D01*
X101993Y217060D01*
X102355Y216184D01*
X102932Y215433D01*
X103684Y214855D01*
X104560Y214493D01*
X105500Y214369D01*
X110500D01*
X111440Y214493D01*
X112315Y214855D01*
X113068Y215433D01*
X113645Y216184D01*
X114007Y217060D01*
X114010Y217082D01*
X115690D01*
X116205Y216344D01*
D02*
G37*
G36*
X283369Y277324D02*
Y270500D01*
X283493Y269876D01*
X283846Y269346D01*
X286347Y266846D01*
X286876Y266493D01*
X287500Y266369D01*
X292279D01*
X292355Y266184D01*
X292933Y265433D01*
X293685Y264855D01*
X294560Y264493D01*
X295500Y264369D01*
X300500D01*
X301440Y264493D01*
X302315Y264855D01*
X303067Y265433D01*
X303645Y266184D01*
X304007Y267060D01*
X304980Y266898D01*
Y260249D01*
X304038Y260028D01*
X303980Y260035D01*
X303353Y260853D01*
X302517Y261494D01*
X301544Y261897D01*
X300500Y262035D01*
X298500D01*
Y258000D01*
Y253965D01*
X300500D01*
X301544Y254103D01*
X302517Y254506D01*
X303353Y255147D01*
X303980Y255965D01*
X304038Y255973D01*
X304980Y255751D01*
Y249102D01*
X304007Y248940D01*
X303645Y249816D01*
X303067Y250568D01*
X302315Y251145D01*
X301440Y251507D01*
X300500Y251631D01*
X295500D01*
X294560Y251507D01*
X293685Y251145D01*
X292933Y250568D01*
X292355Y249816D01*
X292279Y249631D01*
X286000D01*
X285376Y249507D01*
X284846Y249153D01*
X284493Y248624D01*
X284369Y248000D01*
Y189000D01*
X284493Y188376D01*
X284846Y187847D01*
X285846Y186846D01*
X286376Y186493D01*
X287000Y186369D01*
X292279D01*
X292355Y186185D01*
X292933Y185432D01*
X293685Y184855D01*
X294560Y184493D01*
X295500Y184369D01*
X300500D01*
X301440Y184493D01*
X302315Y184855D01*
X303067Y185432D01*
X303645Y186185D01*
X304007Y187060D01*
X304980Y186898D01*
Y179102D01*
X304007Y178940D01*
X303645Y179815D01*
X303067Y180568D01*
X302315Y181145D01*
X301440Y181507D01*
X300500Y181631D01*
X295500D01*
X294560Y181507D01*
X293685Y181145D01*
X293121Y180712D01*
X292363Y180818D01*
X291990Y180982D01*
X291586Y181586D01*
X290858Y182072D01*
X290500Y182144D01*
Y180000D01*
Y177856D01*
X290858Y177928D01*
X290901Y177956D01*
X291941Y177449D01*
X291993Y177060D01*
X292355Y176184D01*
X292933Y175432D01*
X293685Y174855D01*
X294560Y174493D01*
X295500Y174369D01*
X300500D01*
X301440Y174493D01*
X302315Y174855D01*
X303067Y175432D01*
X303645Y176184D01*
X304007Y177060D01*
X304980Y176898D01*
Y170249D01*
X304038Y170027D01*
X303980Y170035D01*
X303353Y170853D01*
X302517Y171494D01*
X301544Y171897D01*
X300500Y172035D01*
X298500D01*
Y168000D01*
Y163965D01*
X300500D01*
X301544Y164103D01*
X302517Y164506D01*
X303353Y165147D01*
X303980Y165965D01*
X304038Y165972D01*
X304980Y165751D01*
Y160249D01*
X304038Y160028D01*
X303980Y160035D01*
X303353Y160853D01*
X302517Y161494D01*
X301544Y161897D01*
X300500Y162034D01*
X298500D01*
Y158000D01*
Y153965D01*
X300500D01*
X301544Y154103D01*
X302517Y154506D01*
X303353Y155147D01*
X303980Y155965D01*
X304038Y155973D01*
X304980Y155751D01*
Y149102D01*
X304007Y148940D01*
X303645Y149815D01*
X303067Y150568D01*
X302315Y151145D01*
X301440Y151507D01*
X300500Y151631D01*
X295500D01*
X294560Y151507D01*
X293685Y151145D01*
X292933Y150568D01*
X292355Y149815D01*
X291993Y148940D01*
X291990Y148918D01*
X282856D01*
X282600Y149295D01*
X283077Y150372D01*
X283358Y150428D01*
X284086Y150914D01*
X284572Y151642D01*
X284644Y152000D01*
X282500D01*
Y152500D01*
X282000D01*
Y154644D01*
X281642Y154572D01*
X280914Y154086D01*
X280428Y153358D01*
X280372Y153077D01*
X279295Y152600D01*
X278918Y152856D01*
Y214000D01*
X278848Y214351D01*
X278649Y214649D01*
X260625Y232672D01*
X260638Y232688D01*
X261000Y233562D01*
X261123Y234500D01*
X261000Y235438D01*
X260638Y236312D01*
X260270Y236791D01*
X260476Y237656D01*
X260634Y237883D01*
X260858Y237928D01*
X261586Y238414D01*
X262072Y239142D01*
X262144Y239500D01*
X260000D01*
Y240500D01*
X262144D01*
X262072Y240858D01*
X261586Y241586D01*
X261233Y241822D01*
X260843Y242389D01*
X260809Y243102D01*
X261000Y243562D01*
X261123Y244500D01*
X261000Y245438D01*
X260638Y246312D01*
X260062Y247062D01*
X259312Y247638D01*
X258438Y248000D01*
X257500Y248123D01*
X256562Y248000D01*
X255688Y247638D01*
X254938Y247062D01*
X254362Y246312D01*
X254000Y245438D01*
X253998Y245418D01*
X243000D01*
X242649Y245348D01*
X242351Y245149D01*
X234210Y237008D01*
X233220D01*
X232806Y238008D01*
X248380Y253582D01*
X253998D01*
X254000Y253562D01*
X254362Y252688D01*
X254938Y251938D01*
X255688Y251362D01*
X256562Y251000D01*
X257500Y250877D01*
X258438Y251000D01*
X259312Y251362D01*
X260062Y251938D01*
X260638Y252688D01*
X261000Y253562D01*
X261123Y254500D01*
X261000Y255438D01*
X260638Y256312D01*
X260062Y257062D01*
X259312Y257638D01*
X258438Y258000D01*
X257500Y258123D01*
X256562Y258000D01*
X255688Y257638D01*
X254938Y257062D01*
X254362Y256312D01*
X254000Y255438D01*
X253998Y255418D01*
X248000D01*
X247649Y255348D01*
X247351Y255149D01*
X246371Y254169D01*
X245723Y254394D01*
X245418Y254630D01*
Y262120D01*
X246880Y263582D01*
X253998D01*
X254000Y263562D01*
X254362Y262688D01*
X254938Y261938D01*
X255688Y261362D01*
X256562Y261000D01*
X257500Y260877D01*
X258438Y261000D01*
X259312Y261362D01*
X260062Y261938D01*
X260638Y262688D01*
X261000Y263562D01*
X261123Y264500D01*
X261000Y265438D01*
X260638Y266312D01*
X260062Y267062D01*
X259312Y267638D01*
X258438Y268000D01*
X257500Y268123D01*
X256562Y268000D01*
X255688Y267638D01*
X254938Y267062D01*
X254362Y266312D01*
X254000Y265438D01*
X253998Y265418D01*
X246500D01*
X246149Y265348D01*
X245851Y265149D01*
X243851Y263149D01*
X243652Y262851D01*
X243582Y262500D01*
Y255730D01*
X243418Y255619D01*
X242418Y256154D01*
Y272120D01*
X243880Y273582D01*
X253998D01*
X254000Y273562D01*
X254362Y272688D01*
X254938Y271938D01*
X255688Y271362D01*
X256562Y271000D01*
X257500Y270877D01*
X258438Y271000D01*
X259312Y271362D01*
X260062Y271938D01*
X260638Y272688D01*
X261000Y273562D01*
X261123Y274500D01*
X261000Y275438D01*
X260638Y276312D01*
X260062Y277062D01*
X259312Y277638D01*
X258438Y278000D01*
X257500Y278123D01*
X256562Y278000D01*
X255688Y277638D01*
X254938Y277062D01*
X254362Y276312D01*
X254000Y275438D01*
X253998Y275418D01*
X243500D01*
X243149Y275348D01*
X242851Y275149D01*
X240918Y273215D01*
X240636Y273242D01*
X239918Y273552D01*
Y280120D01*
X243380Y283582D01*
X253908D01*
Y280908D01*
X261092D01*
Y288092D01*
X253908D01*
Y285418D01*
X243000D01*
X242649Y285348D01*
X242351Y285149D01*
X238351Y281149D01*
X238152Y280851D01*
X238082Y280500D01*
Y256380D01*
X226585Y244882D01*
X224960D01*
X224851Y245042D01*
X224988Y246316D01*
X225474Y247043D01*
X225545Y247402D01*
X221258D01*
X221329Y247043D01*
X221815Y246316D01*
X221952Y245042D01*
X221843Y244882D01*
X219869D01*
X219689Y245026D01*
X219159Y245882D01*
X219169Y245933D01*
X219084Y246359D01*
X219049Y246412D01*
X219131Y246826D01*
X219461Y247319D01*
X219477Y247402D01*
X216185D01*
Y247902D01*
X215685D01*
Y249423D01*
X214315D01*
X214051Y249640D01*
Y253020D01*
X213966Y253446D01*
X213957Y253460D01*
Y266515D01*
X214875Y267433D01*
X215095Y267763D01*
X215173Y268154D01*
Y269082D01*
X215925Y269744D01*
X219075D01*
X219288Y269957D01*
X219518Y269911D01*
X222175D01*
X222582Y269992D01*
X222927Y270222D01*
X223158Y270567D01*
X223238Y270974D01*
Y274026D01*
X223158Y274432D01*
X222927Y274778D01*
X222785Y274872D01*
Y277186D01*
X222925Y277244D01*
X225762D01*
X225863Y277177D01*
X226001Y276851D01*
X226140Y276059D01*
X225774Y275512D01*
X225703Y275153D01*
X229990D01*
X229919Y275512D01*
X229553Y276059D01*
X229692Y276851D01*
X229830Y277177D01*
X230216Y277434D01*
X230534Y277911D01*
X230646Y278474D01*
Y279500D01*
X227847D01*
Y280000D01*
X227346D01*
Y282997D01*
X226518D01*
X225955Y282885D01*
X225762Y282756D01*
X222925D01*
X222785Y282814D01*
Y285186D01*
X222925Y285244D01*
X225762D01*
X225955Y285115D01*
X226518Y285003D01*
X227346D01*
Y288000D01*
X227847D01*
Y288500D01*
X230646D01*
Y289526D01*
X230534Y290089D01*
X230216Y290566D01*
X229919Y291295D01*
X229990Y291653D01*
X227847D01*
Y292653D01*
X229990D01*
X229919Y293012D01*
X229680Y293369D01*
X230154Y294369D01*
X266324D01*
X283369Y277324D01*
D02*
G37*
G36*
X267082Y128620D02*
Y114010D01*
X267060Y114007D01*
X266184Y113645D01*
X265433Y113068D01*
X264855Y112315D01*
X264493Y111440D01*
X264369Y110500D01*
Y105500D01*
X264493Y104560D01*
X264855Y103684D01*
X265433Y102932D01*
X266184Y102355D01*
X267060Y101993D01*
X266898Y101020D01*
X259102D01*
X258940Y101993D01*
X259816Y102355D01*
X260567Y102932D01*
X261145Y103684D01*
X261507Y104560D01*
X261631Y105500D01*
Y110500D01*
X261507Y111440D01*
X261145Y112315D01*
X260567Y113068D01*
X259816Y113645D01*
X258940Y114007D01*
X258000Y114131D01*
X257060Y114007D01*
X256185Y113645D01*
X255433Y113068D01*
X254855Y112315D01*
X254493Y111440D01*
X254369Y110500D01*
Y105500D01*
X254493Y104560D01*
X254855Y103684D01*
X255433Y102932D01*
X256185Y102355D01*
X257060Y101993D01*
X256898Y101020D01*
X249102D01*
X248940Y101993D01*
X249816Y102355D01*
X250568Y102932D01*
X251145Y103684D01*
X251507Y104560D01*
X251631Y105500D01*
Y110500D01*
X251507Y111440D01*
X251145Y112315D01*
X250568Y113068D01*
X249816Y113645D01*
X248940Y114007D01*
X248000Y114131D01*
X247060Y114007D01*
X246184Y113645D01*
X245432Y113068D01*
X244855Y112315D01*
X244493Y111440D01*
X244369Y110500D01*
Y105500D01*
X244493Y104560D01*
X244855Y103684D01*
X245432Y102932D01*
X246184Y102355D01*
X247060Y101993D01*
X246898Y101020D01*
X239102D01*
X238940Y101993D01*
X239815Y102355D01*
X240567Y102932D01*
X241145Y103684D01*
X241507Y104560D01*
X241631Y105500D01*
Y110500D01*
X241507Y111440D01*
X241145Y112315D01*
X240567Y113068D01*
X239815Y113645D01*
X238940Y114007D01*
X238000Y114131D01*
X237060Y114007D01*
X236185Y113645D01*
X235433Y113068D01*
X234855Y112315D01*
X234493Y111440D01*
X234369Y110500D01*
Y105500D01*
X234493Y104560D01*
X234855Y103684D01*
X235433Y102932D01*
X236185Y102355D01*
X237060Y101993D01*
X236898Y101020D01*
X229102D01*
X228940Y101993D01*
X229816Y102355D01*
X230568Y102932D01*
X231145Y103684D01*
X231507Y104560D01*
X231631Y105500D01*
Y110500D01*
X231507Y111440D01*
X231145Y112315D01*
X230568Y113068D01*
X229816Y113645D01*
X228940Y114007D01*
X228000Y114131D01*
X227060Y114007D01*
X226185Y113645D01*
X225432Y113068D01*
X224855Y112315D01*
X224493Y111440D01*
X224369Y110500D01*
Y105500D01*
X224493Y104560D01*
X224855Y103684D01*
X225432Y102932D01*
X226185Y102355D01*
X227060Y101993D01*
X226898Y101020D01*
X219102D01*
X218940Y101993D01*
X219815Y102355D01*
X220567Y102932D01*
X221145Y103684D01*
X221507Y104560D01*
X221631Y105500D01*
Y110500D01*
X221507Y111440D01*
X221145Y112315D01*
X220567Y113068D01*
X219815Y113645D01*
X218940Y114007D01*
X218000Y114131D01*
X217060Y114007D01*
X216184Y113645D01*
X215433Y113068D01*
X214855Y112315D01*
X214493Y111440D01*
X214369Y110500D01*
Y105500D01*
X214493Y104560D01*
X214855Y103684D01*
X215433Y102932D01*
X216184Y102355D01*
X217060Y101993D01*
X216898Y101020D01*
X209102D01*
X208940Y101993D01*
X209816Y102355D01*
X210567Y102932D01*
X211145Y103684D01*
X211507Y104560D01*
X211631Y105500D01*
Y110500D01*
X211507Y111440D01*
X211145Y112315D01*
X210567Y113068D01*
X209816Y113645D01*
X208940Y114007D01*
X208918Y114010D01*
Y119120D01*
X222649Y132851D01*
X222848Y133149D01*
X222918Y133500D01*
Y157115D01*
X223161Y157298D01*
X223918Y157558D01*
X224298Y157304D01*
X225000Y157165D01*
X225702Y157304D01*
X226298Y157702D01*
X226552Y158082D01*
X237620D01*
X267082Y128620D01*
D02*
G37*
G36*
X304980Y246898D02*
Y240249D01*
X304038Y240027D01*
X303980Y240035D01*
X303353Y240853D01*
X302517Y241494D01*
X301544Y241897D01*
X300500Y242035D01*
X298500D01*
Y238000D01*
Y233965D01*
X300500D01*
X301544Y234103D01*
X302517Y234506D01*
X303353Y235147D01*
X303980Y235965D01*
X304038Y235972D01*
X304980Y235751D01*
Y230249D01*
X304038Y230028D01*
X303980Y230035D01*
X303353Y230853D01*
X302517Y231494D01*
X301544Y231897D01*
X300500Y232034D01*
X298500D01*
Y228000D01*
Y223966D01*
X300500D01*
X301544Y224103D01*
X302517Y224506D01*
X303353Y225147D01*
X303980Y225965D01*
X304038Y225973D01*
X304980Y225751D01*
Y219102D01*
X304007Y218940D01*
X303645Y219815D01*
X303067Y220567D01*
X302315Y221145D01*
X301440Y221507D01*
X300500Y221631D01*
X295500D01*
X294560Y221507D01*
X293685Y221145D01*
X292933Y220567D01*
X292355Y219815D01*
X291993Y218940D01*
X291869Y218000D01*
X291993Y217060D01*
X292355Y216184D01*
X292933Y215433D01*
X293685Y214855D01*
X294560Y214493D01*
X295500Y214369D01*
X300500D01*
X301440Y214493D01*
X302315Y214855D01*
X303067Y215433D01*
X303645Y216184D01*
X304007Y217060D01*
X304980Y216898D01*
Y209102D01*
X304007Y208940D01*
X303645Y209816D01*
X303067Y210567D01*
X302315Y211145D01*
X301440Y211507D01*
X300500Y211631D01*
X295500D01*
X294560Y211507D01*
X293685Y211145D01*
X292933Y210567D01*
X292355Y209816D01*
X291993Y208940D01*
X291869Y208000D01*
X291993Y207060D01*
X292355Y206185D01*
X292933Y205433D01*
X293685Y204855D01*
X294560Y204493D01*
X295500Y204369D01*
X300500D01*
X301440Y204493D01*
X302315Y204855D01*
X303067Y205433D01*
X303645Y206185D01*
X304007Y207060D01*
X304980Y206898D01*
Y199102D01*
X304007Y198940D01*
X303645Y199815D01*
X303067Y200568D01*
X302315Y201145D01*
X301440Y201507D01*
X300500Y201631D01*
X295500D01*
X294560Y201507D01*
X293685Y201145D01*
X292933Y200568D01*
X292355Y199815D01*
X291993Y198940D01*
X291869Y198000D01*
X291993Y197060D01*
X292355Y196185D01*
X292933Y195432D01*
X293685Y194855D01*
X294560Y194493D01*
X295500Y194369D01*
X300500D01*
X301440Y194493D01*
X302315Y194855D01*
X303067Y195432D01*
X303645Y196185D01*
X304007Y197060D01*
X304980Y196898D01*
Y189102D01*
X304007Y188940D01*
X303645Y189815D01*
X303067Y190568D01*
X302315Y191145D01*
X301440Y191507D01*
X300500Y191631D01*
X295500D01*
X294560Y191507D01*
X293685Y191145D01*
X292933Y190568D01*
X292355Y189815D01*
X292279Y189631D01*
X287676D01*
X287631Y189676D01*
Y246369D01*
X292279D01*
X292355Y246184D01*
X292933Y245432D01*
X293685Y244855D01*
X294560Y244493D01*
X295500Y244369D01*
X300500D01*
X301440Y244493D01*
X302315Y244855D01*
X303067Y245432D01*
X303645Y246184D01*
X304007Y247060D01*
X304980Y246898D01*
D02*
G37*
G36*
X193410Y159182D02*
X193258Y158789D01*
X193190Y158774D01*
X192798Y158696D01*
X192202Y158298D01*
X191804Y157702D01*
X191665Y157000D01*
X191804Y156298D01*
X192202Y155702D01*
X192798Y155304D01*
X193500Y155165D01*
X194202Y155304D01*
X194798Y155702D01*
X194985Y155982D01*
X221082D01*
Y133880D01*
X207620Y120418D01*
X179500D01*
X179149Y120348D01*
X178851Y120149D01*
X177351Y118649D01*
X177152Y118351D01*
X177082Y118000D01*
Y114010D01*
X177060Y114007D01*
X176184Y113645D01*
X175432Y113068D01*
X174855Y112315D01*
X174493Y111440D01*
X174369Y110500D01*
Y105500D01*
X174493Y104560D01*
X174855Y103684D01*
X175432Y102932D01*
X176184Y102355D01*
X177060Y101993D01*
X176898Y101020D01*
X169102D01*
X168940Y101993D01*
X169816Y102355D01*
X170568Y102932D01*
X171145Y103684D01*
X171507Y104560D01*
X171631Y105500D01*
Y110500D01*
X171507Y111440D01*
X171145Y112315D01*
X170568Y113068D01*
X169816Y113645D01*
X168940Y114007D01*
X168000Y114131D01*
X167060Y114007D01*
X166184Y113645D01*
X165432Y113068D01*
X164855Y112315D01*
X164493Y111440D01*
X164369Y110500D01*
Y105500D01*
X164493Y104560D01*
X164855Y103684D01*
X165432Y102932D01*
X166184Y102355D01*
X167060Y101993D01*
X166898Y101020D01*
X159102D01*
X158940Y101993D01*
X159816Y102355D01*
X160568Y102932D01*
X161145Y103684D01*
X161507Y104560D01*
X161631Y105500D01*
Y110500D01*
X161507Y111440D01*
X161145Y112315D01*
X160568Y113068D01*
X159816Y113645D01*
X158940Y114007D01*
X158918Y114010D01*
Y135620D01*
X160880Y137582D01*
X169197D01*
X169548Y137652D01*
X169846Y137851D01*
X192177Y160182D01*
X192726D01*
X193410Y159182D01*
D02*
G37*
G36*
X246851Y213851D02*
X247149Y213652D01*
X247500Y213582D01*
X253998D01*
X254000Y213562D01*
X254362Y212688D01*
X254938Y211938D01*
X255688Y211362D01*
X256562Y211000D01*
X257500Y210877D01*
X258438Y211000D01*
X259312Y211362D01*
X260062Y211938D01*
X260638Y212688D01*
X261000Y213562D01*
X261002Y213582D01*
X262120D01*
X270582Y205120D01*
Y140500D01*
X270652Y140149D01*
X270851Y139851D01*
X283351Y127351D01*
X283649Y127152D01*
X284000Y127082D01*
X291990D01*
X291993Y127060D01*
X292355Y126184D01*
X292933Y125432D01*
X293685Y124855D01*
X294560Y124493D01*
X295500Y124369D01*
X300500D01*
X301440Y124493D01*
X302315Y124855D01*
X303067Y125432D01*
X303645Y126184D01*
X304007Y127060D01*
X304980Y126898D01*
Y101020D01*
X299102D01*
X298940Y101993D01*
X299816Y102355D01*
X300568Y102932D01*
X301145Y103684D01*
X301507Y104560D01*
X301631Y105500D01*
Y110500D01*
X301507Y111440D01*
X301145Y112315D01*
X300568Y113068D01*
X299816Y113645D01*
X298940Y114007D01*
X298000Y114131D01*
X297060Y114007D01*
X296184Y113645D01*
X295432Y113068D01*
X294855Y112315D01*
X294493Y111440D01*
X294369Y110500D01*
Y105500D01*
X294493Y104560D01*
X294855Y103684D01*
X295432Y102932D01*
X296184Y102355D01*
X297060Y101993D01*
X296898Y101020D01*
X290249D01*
X290027Y101962D01*
X290035Y102020D01*
X290853Y102647D01*
X291494Y103483D01*
X291897Y104456D01*
X292035Y105500D01*
Y107500D01*
X288000D01*
X283965D01*
Y105500D01*
X284103Y104456D01*
X284506Y103483D01*
X285147Y102647D01*
X285965Y102020D01*
X285972Y101962D01*
X285751Y101020D01*
X279102D01*
X278940Y101993D01*
X279816Y102355D01*
X280568Y102932D01*
X281145Y103684D01*
X281507Y104560D01*
X281631Y105500D01*
Y110500D01*
X281507Y111440D01*
X281145Y112315D01*
X280568Y113068D01*
X279816Y113645D01*
X278940Y114007D01*
X278000Y114131D01*
X277060Y114007D01*
X276185Y113645D01*
X275432Y113068D01*
X274855Y112315D01*
X274493Y111440D01*
X274369Y110500D01*
Y105500D01*
X274493Y104560D01*
X274855Y103684D01*
X275432Y102932D01*
X276185Y102355D01*
X277060Y101993D01*
X276898Y101020D01*
X269102D01*
X268940Y101993D01*
X269815Y102355D01*
X270567Y102932D01*
X271145Y103684D01*
X271507Y104560D01*
X271631Y105500D01*
Y110500D01*
X271507Y111440D01*
X271145Y112315D01*
X270567Y113068D01*
X269815Y113645D01*
X268940Y114007D01*
X268918Y114010D01*
Y129000D01*
X268848Y129351D01*
X268649Y129649D01*
X238649Y159649D01*
X238351Y159848D01*
X238000Y159918D01*
X226552D01*
X226298Y160298D01*
X225702Y160696D01*
X225000Y160835D01*
X224298Y160696D01*
X223918Y160442D01*
X223161Y160702D01*
X222918Y160885D01*
Y162938D01*
X222953Y162943D01*
X223841Y163311D01*
X224604Y163896D01*
X225189Y164659D01*
X225557Y165547D01*
X225683Y166500D01*
X225557Y167453D01*
X225189Y168341D01*
X225167Y168370D01*
X227649Y170851D01*
X227848Y171149D01*
X227918Y171500D01*
Y174245D01*
X228401Y174469D01*
X228918Y174519D01*
X229396Y173896D01*
X230159Y173311D01*
X231047Y172943D01*
X232000Y172817D01*
X232953Y172943D01*
X233841Y173311D01*
X234604Y173896D01*
X235189Y174659D01*
X235557Y175547D01*
X235683Y176500D01*
X235557Y177453D01*
X235189Y178341D01*
X234604Y179104D01*
X233841Y179689D01*
X232953Y180057D01*
X232000Y180183D01*
X231047Y180057D01*
X230159Y179689D01*
X229396Y179104D01*
X228918Y178481D01*
X228401Y178531D01*
X227918Y178755D01*
Y199000D01*
X227848Y199351D01*
X227649Y199649D01*
X218815Y208482D01*
X218968Y209130D01*
X219201Y209482D01*
X223220D01*
X248851Y183851D01*
X249149Y183652D01*
X249500Y183582D01*
X253998D01*
X254000Y183562D01*
X254362Y182688D01*
X254938Y181938D01*
X255688Y181362D01*
X256562Y181000D01*
X257500Y180877D01*
X258438Y181000D01*
X259312Y181362D01*
X260062Y181938D01*
X260638Y182688D01*
X261000Y183562D01*
X261123Y184500D01*
X261000Y185438D01*
X260638Y186312D01*
X260062Y187062D01*
X259312Y187638D01*
X258438Y188000D01*
X257500Y188123D01*
X256562Y188000D01*
X255688Y187638D01*
X254938Y187062D01*
X254362Y186312D01*
X254000Y185438D01*
X253998Y185418D01*
X249880D01*
X224249Y211049D01*
X223951Y211248D01*
X223600Y211318D01*
X219486D01*
X218799Y212318D01*
X218835Y212500D01*
X218746Y212948D01*
X228000Y222202D01*
X249582Y200620D01*
Y195500D01*
X249652Y195149D01*
X249851Y194851D01*
X250851Y193851D01*
X251149Y193652D01*
X251500Y193582D01*
X253998D01*
X254000Y193562D01*
X254362Y192688D01*
X254938Y191938D01*
X255688Y191362D01*
X256562Y191000D01*
X257500Y190877D01*
X258438Y191000D01*
X259312Y191362D01*
X260062Y191938D01*
X260638Y192688D01*
X261000Y193562D01*
X261123Y194500D01*
X261000Y195438D01*
X260638Y196312D01*
X260270Y196791D01*
X260476Y197656D01*
X260634Y197883D01*
X260858Y197928D01*
X261586Y198414D01*
X262072Y199142D01*
X262144Y199500D01*
X260000D01*
Y200500D01*
X262144D01*
X262072Y200858D01*
X261586Y201586D01*
X261233Y201822D01*
X260843Y202390D01*
X260809Y203102D01*
X261000Y203562D01*
X261123Y204500D01*
X261000Y205438D01*
X260638Y206312D01*
X260062Y207062D01*
X259312Y207638D01*
X258438Y208000D01*
X257500Y208123D01*
X256562Y208000D01*
X255688Y207638D01*
X254938Y207062D01*
X254362Y206312D01*
X254000Y205438D01*
X253998Y205418D01*
X252880D01*
X230030Y228267D01*
X230445Y229267D01*
X231435D01*
X246851Y213851D01*
D02*
G37*
G36*
X291207Y297207D02*
X291207Y297207D01*
X291571Y296964D01*
X292000Y296878D01*
X292000Y296879D01*
X292068D01*
X292355Y296184D01*
X292933Y295432D01*
X293685Y294855D01*
X294560Y294493D01*
X295500Y294369D01*
X300500D01*
X301440Y294493D01*
X302315Y294855D01*
X303067Y295432D01*
X303645Y296184D01*
X304007Y297060D01*
X304980Y296898D01*
Y290249D01*
X304038Y290027D01*
X303980Y290035D01*
X303353Y290853D01*
X302517Y291494D01*
X301544Y291897D01*
X300500Y292035D01*
X298500D01*
Y288000D01*
Y283965D01*
X300500D01*
X301544Y284103D01*
X302517Y284506D01*
X303353Y285147D01*
X303980Y285965D01*
X304038Y285972D01*
X304980Y285751D01*
Y279102D01*
X304007Y278940D01*
X303645Y279816D01*
X303067Y280568D01*
X302315Y281145D01*
X301440Y281507D01*
X300500Y281631D01*
X295500D01*
X294560Y281507D01*
X293685Y281145D01*
X292933Y280568D01*
X292355Y279816D01*
X292279Y279631D01*
X285676D01*
X268154Y297153D01*
X267624Y297507D01*
X267000Y297631D01*
X252174D01*
X251995Y297869D01*
X251731Y298631D01*
X252072Y299142D01*
X252144Y299500D01*
X250000D01*
Y300500D01*
X252144D01*
X252072Y300858D01*
X251586Y301586D01*
X251149Y301878D01*
X251452Y302878D01*
X268548D01*
X268851Y301878D01*
X268414Y301586D01*
X267928Y300858D01*
X267856Y300500D01*
X272144D01*
X272072Y300858D01*
X271586Y301586D01*
X271149Y301878D01*
X271452Y302878D01*
X285535D01*
X291207Y297207D01*
D02*
G37*
G36*
X201980Y293578D02*
Y282525D01*
X200980Y281991D01*
X200858Y282072D01*
X200500Y282144D01*
Y280000D01*
Y277856D01*
X200858Y277928D01*
X200980Y278009D01*
X201980Y277475D01*
Y255000D01*
X202000Y254901D01*
X201934Y254775D01*
X201411Y254231D01*
X201283Y254156D01*
X201177Y254123D01*
X201126Y254133D01*
X200700Y254048D01*
X200647Y254013D01*
X200233Y254096D01*
X199740Y254425D01*
X199657Y254442D01*
Y251150D01*
X198658D01*
Y254442D01*
X198575Y254425D01*
X198082Y254096D01*
X197668Y254013D01*
X197615Y254048D01*
X197189Y254133D01*
X196763Y254048D01*
X196205Y253870D01*
X195647Y254048D01*
X195220Y254133D01*
X194794Y254048D01*
X194741Y254013D01*
X194328Y254096D01*
X193834Y254425D01*
X193752Y254442D01*
Y251150D01*
X192752D01*
Y254442D01*
X192670Y254425D01*
X192216Y254122D01*
X192004Y254437D01*
X189631Y256811D01*
X189884Y257460D01*
X190083Y257773D01*
X190858Y257928D01*
X191586Y258414D01*
X192072Y259142D01*
X192144Y259500D01*
X190000D01*
Y260000D01*
X189500D01*
Y262144D01*
X189142Y262072D01*
X188841Y261871D01*
X187839Y262217D01*
X187631Y262866D01*
X188107Y263744D01*
X190762D01*
X190955Y263615D01*
X191518Y263503D01*
X192347D01*
Y266500D01*
Y269497D01*
X191518D01*
X190955Y269385D01*
X190762Y269256D01*
X187925D01*
X187712Y269043D01*
X187482Y269089D01*
X184825D01*
X184418Y269008D01*
X184073Y268777D01*
X183842Y268432D01*
X183782Y268131D01*
X180000D01*
X179376Y268007D01*
X178847Y267653D01*
X178493Y267124D01*
X178369Y266500D01*
Y251798D01*
X178304Y251702D01*
X178165Y251000D01*
X178304Y250298D01*
X178624Y249819D01*
X178490Y249311D01*
X178224Y248819D01*
X176479D01*
X172918Y252380D01*
Y276500D01*
X172848Y276851D01*
X172649Y277149D01*
X164649Y285149D01*
X164351Y285348D01*
X164000Y285418D01*
X151092D01*
Y288092D01*
X143908D01*
Y285418D01*
X125000D01*
X124649Y285348D01*
X124351Y285149D01*
X116851Y277649D01*
X116652Y277351D01*
X116582Y277000D01*
Y262552D01*
X116202Y262298D01*
X115804Y261702D01*
X115665Y261000D01*
X115804Y260298D01*
X116058Y259918D01*
X115798Y259161D01*
X115615Y258918D01*
X114010D01*
X114007Y258940D01*
X113645Y259816D01*
X113068Y260567D01*
X112315Y261145D01*
X111440Y261507D01*
X110500Y261631D01*
X105500D01*
X104560Y261507D01*
X103684Y261145D01*
X102932Y260567D01*
X102355Y259816D01*
X101993Y258940D01*
X101020Y259102D01*
Y265751D01*
X101962Y265972D01*
X102020Y265965D01*
X102647Y265147D01*
X103483Y264506D01*
X104456Y264103D01*
X105500Y263966D01*
X107500D01*
Y268000D01*
Y272035D01*
X105500D01*
X104456Y271897D01*
X103483Y271494D01*
X102647Y270853D01*
X102020Y270035D01*
X101962Y270027D01*
X101020Y270249D01*
Y276898D01*
X101993Y277060D01*
X102355Y276185D01*
X102932Y275432D01*
X103684Y274855D01*
X104560Y274493D01*
X105500Y274369D01*
X110500D01*
X111440Y274493D01*
X112315Y274855D01*
X113068Y275432D01*
X113645Y276185D01*
X114007Y277060D01*
X114131Y278000D01*
X114007Y278940D01*
X113645Y279816D01*
X113068Y280568D01*
X112315Y281145D01*
X111440Y281507D01*
X110500Y281631D01*
X105500D01*
X104560Y281507D01*
X103684Y281145D01*
X102932Y280568D01*
X102355Y279816D01*
X101993Y278940D01*
X101020Y279102D01*
Y285751D01*
X101962Y285972D01*
X102020Y285965D01*
X102647Y285147D01*
X103483Y284506D01*
X104456Y284103D01*
X105500Y283965D01*
X107500D01*
Y288000D01*
Y292035D01*
X105500D01*
X104456Y291897D01*
X103483Y291494D01*
X102647Y290853D01*
X102020Y290035D01*
X101962Y290027D01*
X101020Y290249D01*
Y296898D01*
X101993Y297060D01*
X102355Y296184D01*
X102932Y295432D01*
X103684Y294855D01*
X104560Y294493D01*
X105500Y294369D01*
X110500D01*
X111440Y294493D01*
X112315Y294855D01*
X113068Y295432D01*
X113645Y296184D01*
X113974Y296980D01*
X122000D01*
X122390Y297058D01*
X122721Y297279D01*
X123915Y298474D01*
X124158Y298474D01*
X124984Y298128D01*
X124996Y298067D01*
X125226Y297723D01*
X125571Y297492D01*
X125978Y297411D01*
X128636D01*
X128866Y297457D01*
X129079Y297244D01*
X132228D01*
X132441Y297457D01*
X132671Y297411D01*
X135329D01*
X135736Y297492D01*
X136081Y297723D01*
X136311Y298067D01*
X136392Y298474D01*
Y298980D01*
X196578D01*
X201980Y293578D01*
D02*
G37*
G36*
X216184Y207351D02*
X216482Y207152D01*
X216833Y207082D01*
X217620D01*
X226082Y198620D01*
Y178755D01*
X225599Y178531D01*
X225082Y178481D01*
X224604Y179104D01*
X223841Y179689D01*
X222953Y180057D01*
X222000Y180183D01*
X221047Y180057D01*
X220159Y179689D01*
X219396Y179104D01*
X218811Y178341D01*
X218443Y177453D01*
X218317Y176500D01*
X218443Y175547D01*
X218811Y174659D01*
X219396Y173896D01*
X220159Y173311D01*
X221047Y172943D01*
X222000Y172817D01*
X222953Y172943D01*
X223841Y173311D01*
X224604Y173896D01*
X225082Y174519D01*
X225599Y174469D01*
X226082Y174245D01*
Y171880D01*
X223870Y169667D01*
X223841Y169689D01*
X222953Y170057D01*
X222000Y170183D01*
X221047Y170057D01*
X220159Y169689D01*
X219396Y169104D01*
X218811Y168341D01*
X218443Y167453D01*
X218317Y166500D01*
X218443Y165547D01*
X218811Y164659D01*
X219396Y163896D01*
X220159Y163311D01*
X221047Y162943D01*
X221082Y162938D01*
Y160885D01*
X220839Y160702D01*
X220082Y160442D01*
X219702Y160696D01*
X219000Y160835D01*
X218298Y160696D01*
X217702Y160298D01*
X217448Y159918D01*
X210380D01*
X208418Y161880D01*
Y162944D01*
X208453Y162978D01*
X209418Y163375D01*
X209957Y162961D01*
X210942Y162553D01*
X211500Y162480D01*
Y166500D01*
Y170520D01*
X210942Y170447D01*
X209957Y170039D01*
X209418Y169625D01*
X208453Y170022D01*
X208418Y170056D01*
Y171000D01*
X208348Y171351D01*
X208149Y171649D01*
X205168Y174630D01*
X205189Y174659D01*
X205557Y175547D01*
X205683Y176500D01*
X205557Y177453D01*
X205189Y178341D01*
X204604Y179104D01*
X203841Y179689D01*
X202953Y180057D01*
X202918Y180062D01*
Y184120D01*
X209802Y191005D01*
X210001Y191302D01*
X210071Y191654D01*
Y191684D01*
X210925Y192244D01*
X213762D01*
X213955Y192115D01*
X214518Y192003D01*
X215347D01*
Y195000D01*
X215846D01*
Y195500D01*
X218646D01*
Y196526D01*
X218534Y197089D01*
X218484Y197165D01*
X219055Y197827D01*
X219182Y197920D01*
X219500Y197856D01*
Y200000D01*
Y202144D01*
X219142Y202072D01*
X218496Y201641D01*
X218300Y201568D01*
X217433Y201433D01*
X216705Y201919D01*
X216347Y201990D01*
Y199846D01*
X215846D01*
Y199346D01*
X213703D01*
X213774Y198988D01*
X213845Y198882D01*
X213881Y198555D01*
X213241Y197756D01*
X210925D01*
X210918Y197748D01*
X209918Y198038D01*
Y202620D01*
X213649Y206351D01*
X213848Y206649D01*
X213918Y207000D01*
Y208311D01*
X214842Y208694D01*
X216184Y207351D01*
D02*
G37*
G36*
X172804Y153798D02*
X173202Y153202D01*
X173798Y152804D01*
X174461Y152673D01*
X174575Y152503D01*
X174934Y151731D01*
X169120Y145918D01*
X142000D01*
X141649Y145848D01*
X141351Y145649D01*
X127351Y131649D01*
X127152Y131351D01*
X127082Y131000D01*
Y114010D01*
X127060Y114007D01*
X126184Y113645D01*
X125432Y113068D01*
X124855Y112315D01*
X124493Y111440D01*
X124369Y110500D01*
Y105500D01*
X124493Y104560D01*
X124855Y103684D01*
X125432Y102932D01*
X126184Y102355D01*
X127060Y101993D01*
X126898Y101020D01*
X119102D01*
X118940Y101993D01*
X119816Y102355D01*
X120568Y102932D01*
X121145Y103684D01*
X121507Y104560D01*
X121631Y105500D01*
Y110500D01*
X121507Y111440D01*
X121145Y112315D01*
X120568Y113068D01*
X119816Y113645D01*
X118940Y114007D01*
X118918Y114010D01*
Y143448D01*
X119298Y143702D01*
X119552Y144082D01*
X124000D01*
X124351Y144152D01*
X124649Y144351D01*
X127149Y146851D01*
X127348Y147149D01*
X127418Y147500D01*
Y153620D01*
X127880Y154082D01*
X172748D01*
X172804Y153798D01*
D02*
G37*
%LPC*%
G36*
X162144Y239500D02*
X160500D01*
Y237856D01*
X160858Y237928D01*
X161586Y238414D01*
X162072Y239142D01*
X162144Y239500D01*
D02*
G37*
G36*
X159500D02*
X157856D01*
X157928Y239142D01*
X158414Y238414D01*
X159142Y237928D01*
X159500Y237856D01*
Y239500D01*
D02*
G37*
G36*
Y242144D02*
X159142Y242072D01*
X158414Y241586D01*
X157928Y240858D01*
X157856Y240500D01*
X159500D01*
Y242144D01*
D02*
G37*
G36*
X160500D02*
Y240500D01*
X162144D01*
X162072Y240858D01*
X161586Y241586D01*
X160858Y242072D01*
X160500Y242144D01*
D02*
G37*
G36*
X159500Y259500D02*
X157856D01*
X157928Y259142D01*
X158414Y258414D01*
X159142Y257928D01*
X159500Y257856D01*
Y259500D01*
D02*
G37*
G36*
X132000Y267000D02*
X130356D01*
X130428Y266642D01*
X130914Y265914D01*
X131642Y265428D01*
X132000Y265356D01*
Y267000D01*
D02*
G37*
G36*
X134644D02*
X133000D01*
Y265356D01*
X133358Y265428D01*
X134086Y265914D01*
X134572Y266642D01*
X134644Y267000D01*
D02*
G37*
G36*
X133000Y269644D02*
Y268000D01*
X134644D01*
X134572Y268358D01*
X134086Y269086D01*
X133358Y269572D01*
X133000Y269644D01*
D02*
G37*
G36*
X132000D02*
X131642Y269572D01*
X130914Y269086D01*
X130428Y268358D01*
X130356Y268000D01*
X132000D01*
Y269644D01*
D02*
G37*
G36*
X162144Y259500D02*
X160500D01*
Y257856D01*
X160858Y257928D01*
X161586Y258414D01*
X162072Y259142D01*
X162144Y259500D01*
D02*
G37*
G36*
X159500Y262144D02*
X159142Y262072D01*
X158414Y261586D01*
X157928Y260858D01*
X157856Y260500D01*
X159500D01*
Y262144D01*
D02*
G37*
G36*
X160500D02*
Y260500D01*
X162144D01*
X162072Y260858D01*
X161586Y261586D01*
X160858Y262072D01*
X160500Y262144D01*
D02*
G37*
G36*
X120500Y322144D02*
Y320500D01*
X122144D01*
X122072Y320858D01*
X121586Y321586D01*
X120858Y322072D01*
X120500Y322144D01*
D02*
G37*
G36*
X119500D02*
X119142Y322072D01*
X118414Y321586D01*
X117928Y320858D01*
X117856Y320500D01*
X119500D01*
Y322144D01*
D02*
G37*
G36*
X140500D02*
Y320500D01*
X142144D01*
X142072Y320858D01*
X141586Y321586D01*
X140858Y322072D01*
X140500Y322144D01*
D02*
G37*
G36*
X139500D02*
X139142Y322072D01*
X138414Y321586D01*
X137928Y320858D01*
X137856Y320500D01*
X139500D01*
Y322144D01*
D02*
G37*
G36*
X279500Y319500D02*
X277856D01*
X277928Y319142D01*
X278414Y318414D01*
X279142Y317928D01*
X279500Y317856D01*
Y319500D01*
D02*
G37*
G36*
X262144D02*
X260500D01*
Y317856D01*
X260858Y317928D01*
X261586Y318414D01*
X262072Y319142D01*
X262144Y319500D01*
D02*
G37*
G36*
X297500Y322000D02*
X291500D01*
Y318500D01*
X297500D01*
Y322000D01*
D02*
G37*
G36*
X282144Y319500D02*
X280500D01*
Y317856D01*
X280858Y317928D01*
X281586Y318414D01*
X282072Y319142D01*
X282144Y319500D01*
D02*
G37*
G36*
X200500Y322144D02*
Y320500D01*
X202144D01*
X202072Y320858D01*
X201586Y321586D01*
X200858Y322072D01*
X200500Y322144D01*
D02*
G37*
G36*
X199500D02*
X199142Y322072D01*
X198414Y321586D01*
X197928Y320858D01*
X197856Y320500D01*
X199500D01*
Y322144D01*
D02*
G37*
G36*
X220500D02*
Y320500D01*
X222144D01*
X222072Y320858D01*
X221586Y321586D01*
X220858Y322072D01*
X220500Y322144D01*
D02*
G37*
G36*
X219500D02*
X219142Y322072D01*
X218414Y321586D01*
X217928Y320858D01*
X217856Y320500D01*
X219500D01*
Y322144D01*
D02*
G37*
G36*
X160500D02*
Y320500D01*
X162144D01*
X162072Y320858D01*
X161586Y321586D01*
X160858Y322072D01*
X160500Y322144D01*
D02*
G37*
G36*
X159500D02*
X159142Y322072D01*
X158414Y321586D01*
X157928Y320858D01*
X157856Y320500D01*
X159500D01*
Y322144D01*
D02*
G37*
G36*
X180500D02*
Y320500D01*
X182144D01*
X182072Y320858D01*
X181586Y321586D01*
X180858Y322072D01*
X180500Y322144D01*
D02*
G37*
G36*
X179500D02*
X179142Y322072D01*
X178414Y321586D01*
X177928Y320858D01*
X177856Y320500D01*
X179500D01*
Y322144D01*
D02*
G37*
G36*
X159500Y319500D02*
X157856D01*
X157928Y319142D01*
X158414Y318414D01*
X159142Y317928D01*
X159500Y317856D01*
Y319500D01*
D02*
G37*
G36*
X142144D02*
X140500D01*
Y317856D01*
X140858Y317928D01*
X141586Y318414D01*
X142072Y319142D01*
X142144Y319500D01*
D02*
G37*
G36*
X179500D02*
X177856D01*
X177928Y319142D01*
X178414Y318414D01*
X179142Y317928D01*
X179500Y317856D01*
Y319500D01*
D02*
G37*
G36*
X162144D02*
X160500D01*
Y317856D01*
X160858Y317928D01*
X161586Y318414D01*
X162072Y319142D01*
X162144Y319500D01*
D02*
G37*
G36*
X119500D02*
X117856D01*
X117928Y319142D01*
X118414Y318414D01*
X119142Y317928D01*
X119500Y317856D01*
Y319500D01*
D02*
G37*
G36*
X297500Y317500D02*
X291500D01*
Y314000D01*
X297500D01*
Y317500D01*
D02*
G37*
G36*
X139500Y319500D02*
X137856D01*
X137928Y319142D01*
X138414Y318414D01*
X139142Y317928D01*
X139500Y317856D01*
Y319500D01*
D02*
G37*
G36*
X122144D02*
X120500D01*
Y317856D01*
X120858Y317928D01*
X121586Y318414D01*
X122072Y319142D01*
X122144Y319500D01*
D02*
G37*
G36*
X239500D02*
X237856D01*
X237928Y319142D01*
X238414Y318414D01*
X239142Y317928D01*
X239500Y317856D01*
Y319500D01*
D02*
G37*
G36*
X222144D02*
X220500D01*
Y317856D01*
X220858Y317928D01*
X221586Y318414D01*
X222072Y319142D01*
X222144Y319500D01*
D02*
G37*
G36*
X259500D02*
X257856D01*
X257928Y319142D01*
X258414Y318414D01*
X259142Y317928D01*
X259500Y317856D01*
Y319500D01*
D02*
G37*
G36*
X242144D02*
X240500D01*
Y317856D01*
X240858Y317928D01*
X241586Y318414D01*
X242072Y319142D01*
X242144Y319500D01*
D02*
G37*
G36*
X199500D02*
X197856D01*
X197928Y319142D01*
X198414Y318414D01*
X199142Y317928D01*
X199500Y317856D01*
Y319500D01*
D02*
G37*
G36*
X182144D02*
X180500D01*
Y317856D01*
X180858Y317928D01*
X181586Y318414D01*
X182072Y319142D01*
X182144Y319500D01*
D02*
G37*
G36*
X219500D02*
X217856D01*
X217928Y319142D01*
X218414Y318414D01*
X219142Y317928D01*
X219500Y317856D01*
Y319500D01*
D02*
G37*
G36*
X202144D02*
X200500D01*
Y317856D01*
X200858Y317928D01*
X201586Y318414D01*
X202072Y319142D01*
X202144Y319500D01*
D02*
G37*
G36*
X150500Y342144D02*
Y340500D01*
X152144D01*
X152072Y340858D01*
X151586Y341586D01*
X150858Y342072D01*
X150500Y342144D01*
D02*
G37*
G36*
X149500D02*
X149142Y342072D01*
X148414Y341586D01*
X147928Y340858D01*
X147856Y340500D01*
X149500D01*
Y342144D01*
D02*
G37*
G36*
X170500D02*
Y340500D01*
X172144D01*
X172072Y340858D01*
X171586Y341586D01*
X170858Y342072D01*
X170500Y342144D01*
D02*
G37*
G36*
X169500D02*
X169142Y342072D01*
X168414Y341586D01*
X167928Y340858D01*
X167856Y340500D01*
X169500D01*
Y342144D01*
D02*
G37*
G36*
X232144Y339500D02*
X230500D01*
Y337856D01*
X230858Y337928D01*
X231586Y338414D01*
X232072Y339142D01*
X232144Y339500D01*
D02*
G37*
G36*
X229500D02*
X227856D01*
X227928Y339142D01*
X228414Y338414D01*
X229142Y337928D01*
X229500Y337856D01*
Y339500D01*
D02*
G37*
G36*
X252144D02*
X250500D01*
Y337856D01*
X250858Y337928D01*
X251586Y338414D01*
X252072Y339142D01*
X252144Y339500D01*
D02*
G37*
G36*
X249500D02*
X247856D01*
X247928Y339142D01*
X248414Y338414D01*
X249142Y337928D01*
X249500Y337856D01*
Y339500D01*
D02*
G37*
G36*
X230500Y342144D02*
Y340500D01*
X232144D01*
X232072Y340858D01*
X231586Y341586D01*
X230858Y342072D01*
X230500Y342144D01*
D02*
G37*
G36*
X229500D02*
X229142Y342072D01*
X228414Y341586D01*
X227928Y340858D01*
X227856Y340500D01*
X229500D01*
Y342144D01*
D02*
G37*
G36*
X250500D02*
Y340500D01*
X252144D01*
X252072Y340858D01*
X251586Y341586D01*
X250858Y342072D01*
X250500Y342144D01*
D02*
G37*
G36*
X249500D02*
X249142Y342072D01*
X248414Y341586D01*
X247928Y340858D01*
X247856Y340500D01*
X249500D01*
Y342144D01*
D02*
G37*
G36*
X190500D02*
Y340500D01*
X192144D01*
X192072Y340858D01*
X191586Y341586D01*
X190858Y342072D01*
X190500Y342144D01*
D02*
G37*
G36*
X189500D02*
X189142Y342072D01*
X188414Y341586D01*
X187928Y340858D01*
X187856Y340500D01*
X189500D01*
Y342144D01*
D02*
G37*
G36*
X210500D02*
Y340500D01*
X212144D01*
X212072Y340858D01*
X211586Y341586D01*
X210858Y342072D01*
X210500Y342144D01*
D02*
G37*
G36*
X209500D02*
X209142Y342072D01*
X208414Y341586D01*
X207928Y340858D01*
X207856Y340500D01*
X209500D01*
Y342144D01*
D02*
G37*
G36*
X280500Y322144D02*
Y320500D01*
X282144D01*
X282072Y320858D01*
X281586Y321586D01*
X280858Y322072D01*
X280500Y322144D01*
D02*
G37*
G36*
X279500D02*
X279142Y322072D01*
X278414Y321586D01*
X277928Y320858D01*
X277856Y320500D01*
X279500D01*
Y322144D01*
D02*
G37*
G36*
X278000Y351140D02*
X275944Y350979D01*
X273939Y350497D01*
X272034Y349708D01*
X270276Y348631D01*
X268708Y347292D01*
X267369Y345724D01*
X266292Y343966D01*
X265503Y342061D01*
X265021Y340056D01*
X264860Y338000D01*
X265021Y335944D01*
X265503Y333939D01*
X266292Y332034D01*
X267369Y330276D01*
X268708Y328708D01*
X270276Y327369D01*
X272034Y326292D01*
X273939Y325503D01*
X275944Y325021D01*
X278000Y324859D01*
X280056Y325021D01*
X282061Y325503D01*
X283966Y326292D01*
X285724Y327369D01*
X287292Y328708D01*
X288631Y330276D01*
X289708Y332034D01*
X290497Y333939D01*
X290979Y335944D01*
X291141Y338000D01*
X290979Y340056D01*
X290497Y342061D01*
X289708Y343966D01*
X288631Y345724D01*
X287292Y347292D01*
X285724Y348631D01*
X283966Y349708D01*
X282061Y350497D01*
X280056Y350979D01*
X278000Y351140D01*
D02*
G37*
G36*
X128000D02*
X125944Y350979D01*
X123939Y350497D01*
X122034Y349708D01*
X120276Y348631D01*
X118708Y347292D01*
X117369Y345724D01*
X116292Y343966D01*
X115503Y342061D01*
X115021Y340056D01*
X114859Y338000D01*
X115021Y335944D01*
X115503Y333939D01*
X116292Y332034D01*
X117369Y330276D01*
X118708Y328708D01*
X120276Y327369D01*
X122034Y326292D01*
X123939Y325503D01*
X125944Y325021D01*
X128000Y324859D01*
X130056Y325021D01*
X132061Y325503D01*
X133966Y326292D01*
X135724Y327369D01*
X137292Y328708D01*
X138631Y330276D01*
X139708Y332034D01*
X140497Y333939D01*
X140979Y335944D01*
X141140Y338000D01*
X140979Y340056D01*
X140497Y342061D01*
X139708Y343966D01*
X138631Y345724D01*
X137292Y347292D01*
X135724Y348631D01*
X133966Y349708D01*
X132061Y350497D01*
X130056Y350979D01*
X128000Y351140D01*
D02*
G37*
G36*
X240500Y322144D02*
Y320500D01*
X242144D01*
X242072Y320858D01*
X241586Y321586D01*
X240858Y322072D01*
X240500Y322144D01*
D02*
G37*
G36*
X239500D02*
X239142Y322072D01*
X238414Y321586D01*
X237928Y320858D01*
X237856Y320500D01*
X239500D01*
Y322144D01*
D02*
G37*
G36*
X260500D02*
Y320500D01*
X262144D01*
X262072Y320858D01*
X261586Y321586D01*
X260858Y322072D01*
X260500Y322144D01*
D02*
G37*
G36*
X259500D02*
X259142Y322072D01*
X258414Y321586D01*
X257928Y320858D01*
X257856Y320500D01*
X259500D01*
Y322144D01*
D02*
G37*
G36*
X192144Y339500D02*
X190500D01*
Y337856D01*
X190858Y337928D01*
X191586Y338414D01*
X192072Y339142D01*
X192144Y339500D01*
D02*
G37*
G36*
X189500D02*
X187856D01*
X187928Y339142D01*
X188414Y338414D01*
X189142Y337928D01*
X189500Y337856D01*
Y339500D01*
D02*
G37*
G36*
X212144D02*
X210500D01*
Y337856D01*
X210858Y337928D01*
X211586Y338414D01*
X212072Y339142D01*
X212144Y339500D01*
D02*
G37*
G36*
X209500D02*
X207856D01*
X207928Y339142D01*
X208414Y338414D01*
X209142Y337928D01*
X209500Y337856D01*
Y339500D01*
D02*
G37*
G36*
X152144D02*
X150500D01*
Y337856D01*
X150858Y337928D01*
X151586Y338414D01*
X152072Y339142D01*
X152144Y339500D01*
D02*
G37*
G36*
X149500D02*
X147856D01*
X147928Y339142D01*
X148414Y338414D01*
X149142Y337928D01*
X149500Y337856D01*
Y339500D01*
D02*
G37*
G36*
X172144D02*
X170500D01*
Y337856D01*
X170858Y337928D01*
X171586Y338414D01*
X172072Y339142D01*
X172144Y339500D01*
D02*
G37*
G36*
X169500D02*
X167856D01*
X167928Y339142D01*
X168414Y338414D01*
X169142Y337928D01*
X169500Y337856D01*
Y339500D01*
D02*
G37*
G36*
X110500Y312035D02*
X108500D01*
Y308500D01*
X114469D01*
X114397Y309044D01*
X113994Y310017D01*
X113353Y310853D01*
X112517Y311494D01*
X111544Y311897D01*
X110500Y312035D01*
D02*
G37*
G36*
X209500Y259500D02*
X207856D01*
X207928Y259142D01*
X208414Y258414D01*
X209142Y257928D01*
X209500Y257856D01*
Y259500D01*
D02*
G37*
G36*
Y262144D02*
X209142Y262072D01*
X208414Y261586D01*
X207928Y260858D01*
X207856Y260500D01*
X209500D01*
Y262144D01*
D02*
G37*
G36*
X114469Y307500D02*
X108500D01*
Y303965D01*
X110500D01*
X111544Y304103D01*
X112517Y304506D01*
X113353Y305147D01*
X113994Y305983D01*
X114397Y306956D01*
X114469Y307500D01*
D02*
G37*
G36*
X209500Y302144D02*
X209142Y302072D01*
X208414Y301586D01*
X207928Y300858D01*
X207856Y300500D01*
X209500D01*
Y302144D01*
D02*
G37*
G36*
Y299500D02*
X207856D01*
X207928Y299142D01*
X208414Y298414D01*
X209142Y297928D01*
X209500Y297856D01*
Y299500D01*
D02*
G37*
G36*
X169500Y196500D02*
X167856D01*
X167928Y196142D01*
X168414Y195414D01*
X169142Y194928D01*
X169500Y194856D01*
Y196500D01*
D02*
G37*
G36*
X172144D02*
X170500D01*
Y194856D01*
X170858Y194928D01*
X171586Y195414D01*
X172072Y196142D01*
X172144Y196500D01*
D02*
G37*
G36*
X137000Y197000D02*
X135356D01*
X135428Y196642D01*
X135914Y195914D01*
X136642Y195428D01*
X137000Y195356D01*
Y197000D01*
D02*
G37*
G36*
X170500Y199144D02*
Y197500D01*
X172144D01*
X172072Y197858D01*
X171586Y198586D01*
X170858Y199072D01*
X170500Y199144D01*
D02*
G37*
G36*
X139500Y202144D02*
X139142Y202072D01*
X138414Y201586D01*
X137928Y200858D01*
X137757Y200000D01*
X136816Y199607D01*
X136642Y199572D01*
X135914Y199086D01*
X135428Y198358D01*
X135356Y198000D01*
X137500D01*
Y197500D01*
X138000D01*
Y195356D01*
X138358Y195428D01*
X139086Y195914D01*
X139572Y196642D01*
X139743Y197500D01*
X140684Y197893D01*
X140858Y197928D01*
X141586Y198414D01*
X142072Y199142D01*
X142144Y199500D01*
X140000D01*
Y200000D01*
X139500D01*
Y202144D01*
D02*
G37*
G36*
X169500Y199144D02*
X169142Y199072D01*
X168414Y198586D01*
X167928Y197858D01*
X167856Y197500D01*
X169500D01*
Y199144D01*
D02*
G37*
G36*
X127000Y242144D02*
X126642Y242072D01*
X125914Y241586D01*
X125428Y240858D01*
X125356Y240500D01*
X127000D01*
Y242144D01*
D02*
G37*
G36*
X128000D02*
Y240500D01*
X129644D01*
X129572Y240858D01*
X129086Y241586D01*
X128358Y242072D01*
X128000Y242144D01*
D02*
G37*
G36*
X127000Y239500D02*
X125356D01*
X125428Y239142D01*
X125914Y238414D01*
X126642Y237928D01*
X127000Y237856D01*
Y239500D01*
D02*
G37*
G36*
X129644D02*
X128000D01*
Y237856D01*
X128358Y237928D01*
X129086Y238414D01*
X129572Y239142D01*
X129644Y239500D01*
D02*
G37*
G36*
X140500Y202144D02*
Y200500D01*
X142144D01*
X142072Y200858D01*
X141586Y201586D01*
X140858Y202072D01*
X140500Y202144D01*
D02*
G37*
G36*
X129500Y219500D02*
X127856D01*
X127928Y219142D01*
X128414Y218414D01*
X129142Y217928D01*
X129500Y217856D01*
Y219500D01*
D02*
G37*
G36*
X132144D02*
X130500D01*
Y217856D01*
X130858Y217928D01*
X131586Y218414D01*
X132072Y219142D01*
X132144Y219500D01*
D02*
G37*
G36*
X129500Y222144D02*
X129142Y222072D01*
X128414Y221586D01*
X127928Y220858D01*
X127856Y220500D01*
X129500D01*
Y222144D01*
D02*
G37*
G36*
X130500D02*
Y220500D01*
X132144D01*
X132072Y220858D01*
X131586Y221586D01*
X130858Y222072D01*
X130500Y222144D01*
D02*
G37*
G36*
X147000Y174000D02*
X143539D01*
X143611Y173458D01*
X144013Y172487D01*
X144653Y171653D01*
X145487Y171013D01*
X146458Y170611D01*
X147000Y170539D01*
Y174000D01*
D02*
G37*
G36*
X151461D02*
X148000D01*
Y170539D01*
X148542Y170611D01*
X149513Y171013D01*
X150347Y171653D01*
X150987Y172487D01*
X151389Y173458D01*
X151461Y174000D01*
D02*
G37*
G36*
X140500Y162144D02*
Y160500D01*
X142144D01*
X142072Y160858D01*
X141586Y161586D01*
X140858Y162072D01*
X140500Y162144D01*
D02*
G37*
G36*
X139500D02*
X139142Y162072D01*
X138414Y161586D01*
X137928Y160858D01*
X137856Y160500D01*
X139500D01*
Y162144D01*
D02*
G37*
G36*
X160500D02*
Y160500D01*
X162144D01*
X162072Y160858D01*
X161586Y161586D01*
X160858Y162072D01*
X160500Y162144D01*
D02*
G37*
G36*
X159500D02*
X159142Y162072D01*
X158414Y161586D01*
X157928Y160858D01*
X157856Y160500D01*
X159500D01*
Y162144D01*
D02*
G37*
G36*
X119500Y199500D02*
X117856D01*
X117928Y199142D01*
X118414Y198414D01*
X119142Y197928D01*
X119500Y197856D01*
Y199500D01*
D02*
G37*
G36*
Y179500D02*
X117856D01*
X117928Y179142D01*
X118414Y178414D01*
X119142Y177928D01*
X119500Y177856D01*
Y179500D01*
D02*
G37*
G36*
X114469Y177500D02*
X108500D01*
Y173966D01*
X110500D01*
X111544Y174103D01*
X112517Y174506D01*
X113353Y175147D01*
X113994Y175983D01*
X114397Y176956D01*
X114469Y177500D01*
D02*
G37*
G36*
X119500Y189500D02*
X117856D01*
X117928Y189142D01*
X118414Y188414D01*
X119142Y187928D01*
X119500Y187856D01*
Y189500D01*
D02*
G37*
G36*
Y192144D02*
X119142Y192072D01*
X118414Y191586D01*
X117928Y190858D01*
X117856Y190500D01*
X119500D01*
Y192144D01*
D02*
G37*
G36*
X110500Y182035D02*
X108500D01*
Y178500D01*
X114469D01*
X114397Y179044D01*
X113994Y180017D01*
X113353Y180853D01*
X112517Y181494D01*
X111544Y181897D01*
X110500Y182035D01*
D02*
G37*
G36*
X119500Y182144D02*
X119142Y182072D01*
X118414Y181586D01*
X117928Y180858D01*
X117856Y180500D01*
X119500D01*
Y182144D01*
D02*
G37*
G36*
Y202144D02*
X119142Y202072D01*
X118414Y201586D01*
X117928Y200858D01*
X117856Y200500D01*
X119500D01*
Y202144D01*
D02*
G37*
G36*
X114469Y167500D02*
X108500D01*
Y163965D01*
X110500D01*
X111544Y164103D01*
X112517Y164506D01*
X113353Y165147D01*
X113994Y165983D01*
X114397Y166956D01*
X114469Y167500D01*
D02*
G37*
G36*
X110500Y172035D02*
X108500D01*
Y168500D01*
X114469D01*
X114397Y169044D01*
X113994Y170017D01*
X113353Y170853D01*
X112517Y171494D01*
X111544Y171897D01*
X110500Y172035D01*
D02*
G37*
G36*
X289500Y179500D02*
X287856D01*
X287928Y179142D01*
X288414Y178414D01*
X289142Y177928D01*
X289500Y177856D01*
Y179500D01*
D02*
G37*
G36*
Y182144D02*
X289142Y182072D01*
X288414Y181586D01*
X287928Y180858D01*
X287856Y180500D01*
X289500D01*
Y182144D01*
D02*
G37*
G36*
X223902Y250045D02*
Y248402D01*
X225545D01*
X225474Y248760D01*
X224988Y249488D01*
X224260Y249974D01*
X223902Y250045D01*
D02*
G37*
G36*
X218055Y249423D02*
X216685D01*
Y248402D01*
X219477D01*
X219461Y248484D01*
X219131Y248977D01*
X218637Y249307D01*
X218055Y249423D01*
D02*
G37*
G36*
X290500Y262144D02*
Y260000D01*
Y257839D01*
X291413Y257362D01*
X291571Y257201D01*
X291603Y256956D01*
X292006Y255983D01*
X292647Y255147D01*
X293483Y254506D01*
X294456Y254103D01*
X295500Y253965D01*
X297500D01*
Y258000D01*
Y262035D01*
X295500D01*
X294456Y261897D01*
X293483Y261494D01*
X293004Y261127D01*
X292924Y261104D01*
X291940Y261234D01*
X291755Y261333D01*
X291586Y261586D01*
X290858Y262072D01*
X290500Y262144D01*
D02*
G37*
G36*
X222902Y250045D02*
X222543Y249974D01*
X221815Y249488D01*
X221329Y248760D01*
X221258Y248402D01*
X222902D01*
Y250045D01*
D02*
G37*
G36*
X279500Y242144D02*
X279142Y242072D01*
X278414Y241586D01*
X277928Y240858D01*
X277856Y240500D01*
X279500D01*
Y242144D01*
D02*
G37*
G36*
X280500D02*
Y240500D01*
X282144D01*
X282072Y240858D01*
X281586Y241586D01*
X280858Y242072D01*
X280500Y242144D01*
D02*
G37*
G36*
X282144Y239500D02*
X280500D01*
Y237856D01*
X280858Y237928D01*
X281586Y238414D01*
X282072Y239142D01*
X282144Y239500D01*
D02*
G37*
G36*
X279500D02*
X277856D01*
X277928Y239142D01*
X278414Y238414D01*
X279142Y237928D01*
X279500Y237856D01*
Y239500D01*
D02*
G37*
G36*
X284644Y164500D02*
X283000D01*
Y162856D01*
X283358Y162928D01*
X284086Y163414D01*
X284572Y164142D01*
X284644Y164500D01*
D02*
G37*
G36*
X282000D02*
X280356D01*
X280428Y164142D01*
X280914Y163414D01*
X281642Y162928D01*
X282000Y162856D01*
Y164500D01*
D02*
G37*
G36*
X297500Y167500D02*
X291531D01*
X291603Y166956D01*
X292006Y165983D01*
X292647Y165147D01*
X293483Y164506D01*
X294456Y164103D01*
X295500Y163965D01*
X297500D01*
Y167500D01*
D02*
G37*
G36*
Y172035D02*
X295500D01*
X294456Y171897D01*
X293483Y171494D01*
X292647Y170853D01*
X292006Y170017D01*
X291603Y169044D01*
X291531Y168500D01*
X297500D01*
Y172035D01*
D02*
G37*
G36*
X283000Y167144D02*
Y165500D01*
X284644D01*
X284572Y165858D01*
X284086Y166586D01*
X283358Y167072D01*
X283000Y167144D01*
D02*
G37*
G36*
X282000D02*
X281642Y167072D01*
X280914Y166586D01*
X280428Y165858D01*
X280356Y165500D01*
X282000D01*
Y167144D01*
D02*
G37*
G36*
X283000Y154644D02*
Y153000D01*
X284644D01*
X284572Y153358D01*
X284086Y154086D01*
X283358Y154572D01*
X283000Y154644D01*
D02*
G37*
G36*
X297500Y157500D02*
X291531D01*
X291603Y156956D01*
X292006Y155983D01*
X292647Y155147D01*
X293483Y154506D01*
X294456Y154103D01*
X295500Y153965D01*
X297500D01*
Y157500D01*
D02*
G37*
G36*
Y162034D02*
X295500D01*
X294456Y161897D01*
X293483Y161494D01*
X292647Y160853D01*
X292006Y160017D01*
X291603Y159044D01*
X291531Y158500D01*
X297500D01*
Y162034D01*
D02*
G37*
G36*
X269500Y262144D02*
X269142Y262072D01*
X268414Y261586D01*
X267928Y260858D01*
X267856Y260500D01*
X269500D01*
Y262144D01*
D02*
G37*
G36*
X250500D02*
Y260500D01*
X252144D01*
X252072Y260858D01*
X251586Y261586D01*
X250858Y262072D01*
X250500Y262144D01*
D02*
G37*
G36*
X289500D02*
X289142Y262072D01*
X288414Y261586D01*
X287928Y260858D01*
X287856Y260500D01*
X289500D01*
Y262144D01*
D02*
G37*
G36*
X270500D02*
Y260500D01*
X272144D01*
X272072Y260858D01*
X271586Y261586D01*
X270858Y262072D01*
X270500Y262144D01*
D02*
G37*
G36*
X227346Y274153D02*
X225703D01*
X225774Y273795D01*
X226260Y273067D01*
X226988Y272581D01*
X227346Y272510D01*
Y274153D01*
D02*
G37*
G36*
X229990D02*
X228346D01*
Y272510D01*
X228705Y272581D01*
X229433Y273067D01*
X229919Y273795D01*
X229990Y274153D01*
D02*
G37*
G36*
X252144Y259500D02*
X250500D01*
Y257856D01*
X250858Y257928D01*
X251586Y258414D01*
X252072Y259142D01*
X252144Y259500D01*
D02*
G37*
G36*
X249500D02*
X247856D01*
X247928Y259142D01*
X248414Y258414D01*
X249142Y257928D01*
X249500Y257856D01*
Y259500D01*
D02*
G37*
G36*
X272144D02*
X270500D01*
Y257856D01*
X270858Y257928D01*
X271586Y258414D01*
X272072Y259142D01*
X272144Y259500D01*
D02*
G37*
G36*
X269500D02*
X267856D01*
X267928Y259142D01*
X268414Y258414D01*
X269142Y257928D01*
X269500Y257856D01*
Y259500D01*
D02*
G37*
G36*
X232144D02*
X230500D01*
Y257856D01*
X230858Y257928D01*
X231586Y258414D01*
X232072Y259142D01*
X232144Y259500D01*
D02*
G37*
G36*
X229500D02*
X227856D01*
X227928Y259142D01*
X228414Y258414D01*
X229142Y257928D01*
X229500Y257856D01*
Y259500D01*
D02*
G37*
G36*
Y262144D02*
X229142Y262072D01*
X228414Y261586D01*
X227928Y260858D01*
X227856Y260500D01*
X229500D01*
Y262144D01*
D02*
G37*
G36*
X249500D02*
X249142Y262072D01*
X248414Y261586D01*
X247928Y260858D01*
X247856Y260500D01*
X249500D01*
Y262144D01*
D02*
G37*
G36*
X230500D02*
Y260500D01*
X232144D01*
X232072Y260858D01*
X231586Y261586D01*
X230858Y262072D01*
X230500Y262144D01*
D02*
G37*
G36*
X289500Y259500D02*
X287856D01*
X287928Y259142D01*
X288414Y258414D01*
X289142Y257928D01*
X289500Y257856D01*
Y259500D01*
D02*
G37*
G36*
X234500Y290144D02*
Y288500D01*
X236144D01*
X236072Y288858D01*
X235586Y289586D01*
X234858Y290072D01*
X234500Y290144D01*
D02*
G37*
G36*
X233500D02*
X233142Y290072D01*
X232414Y289586D01*
X231928Y288858D01*
X231856Y288500D01*
X233500D01*
Y290144D01*
D02*
G37*
G36*
Y282144D02*
X233142Y282072D01*
X232414Y281586D01*
X231928Y280858D01*
X231856Y280500D01*
X233500D01*
Y282144D01*
D02*
G37*
G36*
X236144Y279500D02*
X234500D01*
Y277856D01*
X234858Y277928D01*
X235586Y278414D01*
X236072Y279142D01*
X236144Y279500D01*
D02*
G37*
G36*
X233500D02*
X231856D01*
X231928Y279142D01*
X232414Y278414D01*
X233142Y277928D01*
X233500Y277856D01*
Y279500D01*
D02*
G37*
G36*
Y287500D02*
X231856D01*
X231928Y287142D01*
X232414Y286414D01*
X233142Y285928D01*
X233500Y285856D01*
Y287500D01*
D02*
G37*
G36*
X230646D02*
X228346D01*
Y285003D01*
X229175D01*
X229738Y285115D01*
X230216Y285434D01*
X230534Y285911D01*
X230646Y286474D01*
Y287500D01*
D02*
G37*
G36*
X236144D02*
X234500D01*
Y285856D01*
X234858Y285928D01*
X235586Y286414D01*
X236072Y287142D01*
X236144Y287500D01*
D02*
G37*
G36*
X229175Y282997D02*
X228346D01*
Y280500D01*
X230646D01*
Y281526D01*
X230534Y282089D01*
X230216Y282566D01*
X229738Y282885D01*
X229175Y282997D01*
D02*
G37*
G36*
X234500Y282144D02*
Y280500D01*
X236144D01*
X236072Y280858D01*
X235586Y281586D01*
X234858Y282072D01*
X234500Y282144D01*
D02*
G37*
G36*
X229500Y139500D02*
X227856D01*
X227928Y139142D01*
X228414Y138414D01*
X229142Y137928D01*
X229500Y137856D01*
Y139500D01*
D02*
G37*
G36*
X249500D02*
X247856D01*
X247928Y139142D01*
X248414Y138414D01*
X249142Y137928D01*
X249500Y137856D01*
Y139500D01*
D02*
G37*
G36*
X232144D02*
X230500D01*
Y137856D01*
X230858Y137928D01*
X231586Y138414D01*
X232072Y139142D01*
X232144Y139500D01*
D02*
G37*
G36*
X249500Y142144D02*
X249142Y142072D01*
X248414Y141586D01*
X247928Y140858D01*
X247856Y140500D01*
X249500D01*
Y142144D01*
D02*
G37*
G36*
X230500D02*
Y140500D01*
X232144D01*
X232072Y140858D01*
X231586Y141586D01*
X230858Y142072D01*
X230500Y142144D01*
D02*
G37*
G36*
X250500D02*
Y140500D01*
X252144D01*
X252072Y140858D01*
X251586Y141586D01*
X250858Y142072D01*
X250500Y142144D01*
D02*
G37*
G36*
X252144Y139500D02*
X250500D01*
Y137856D01*
X250858Y137928D01*
X251586Y138414D01*
X252072Y139142D01*
X252144Y139500D01*
D02*
G37*
G36*
X229500Y142144D02*
X229142Y142072D01*
X228414Y141586D01*
X227928Y140858D01*
X227856Y140500D01*
X229500D01*
Y142144D01*
D02*
G37*
G36*
X247144Y122000D02*
X245500D01*
Y120356D01*
X245858Y120428D01*
X246586Y120914D01*
X247072Y121642D01*
X247144Y122000D01*
D02*
G37*
G36*
X244500D02*
X242856D01*
X242928Y121642D01*
X243414Y120914D01*
X244142Y120428D01*
X244500Y120356D01*
Y122000D01*
D02*
G37*
G36*
X245500Y124644D02*
Y123000D01*
X247144D01*
X247072Y123358D01*
X246586Y124086D01*
X245858Y124572D01*
X245500Y124644D01*
D02*
G37*
G36*
X244500D02*
X244142Y124572D01*
X243414Y124086D01*
X242928Y123358D01*
X242856Y123000D01*
X244500D01*
Y124644D01*
D02*
G37*
G36*
X297500Y242035D02*
X295500D01*
X294456Y241897D01*
X293483Y241494D01*
X292647Y240853D01*
X292006Y240017D01*
X291603Y239044D01*
X291531Y238500D01*
X297500D01*
Y242035D01*
D02*
G37*
G36*
Y232034D02*
X295500D01*
X294456Y231897D01*
X293483Y231494D01*
X292647Y230853D01*
X292006Y230017D01*
X291603Y229044D01*
X291531Y228500D01*
X297500D01*
Y232034D01*
D02*
G37*
G36*
Y237500D02*
X291531D01*
X291603Y236956D01*
X292006Y235983D01*
X292647Y235147D01*
X293483Y234506D01*
X294456Y234103D01*
X295500Y233965D01*
X297500D01*
Y237500D01*
D02*
G37*
G36*
Y227500D02*
X291531D01*
X291603Y226956D01*
X292006Y225983D01*
X292647Y225147D01*
X293483Y224506D01*
X294456Y224103D01*
X295500Y223966D01*
X297500D01*
Y227500D01*
D02*
G37*
G36*
X179500Y132144D02*
X179142Y132072D01*
X178414Y131586D01*
X177928Y130858D01*
X177856Y130500D01*
X179500D01*
Y132144D01*
D02*
G37*
G36*
X182144Y129500D02*
X180500D01*
Y127856D01*
X180858Y127928D01*
X181586Y128414D01*
X182072Y129142D01*
X182144Y129500D01*
D02*
G37*
G36*
X180500Y132144D02*
Y130500D01*
X182144D01*
X182072Y130858D01*
X181586Y131586D01*
X180858Y132072D01*
X180500Y132144D01*
D02*
G37*
G36*
X179500Y129500D02*
X177856D01*
X177928Y129142D01*
X178414Y128414D01*
X179142Y127928D01*
X179500Y127856D01*
Y129500D01*
D02*
G37*
G36*
X198000Y151140D02*
X195944Y150979D01*
X193939Y150497D01*
X192034Y149708D01*
X190276Y148631D01*
X188708Y147292D01*
X187369Y145724D01*
X186292Y143966D01*
X185503Y142061D01*
X185021Y140056D01*
X184860Y138000D01*
X185021Y135944D01*
X185503Y133939D01*
X186292Y132034D01*
X187369Y130276D01*
X188708Y128708D01*
X190276Y127369D01*
X192034Y126292D01*
X193939Y125503D01*
X195944Y125021D01*
X198000Y124859D01*
X200056Y125021D01*
X202061Y125503D01*
X203966Y126292D01*
X205724Y127369D01*
X207292Y128708D01*
X208631Y130276D01*
X209708Y132034D01*
X210497Y133939D01*
X210979Y135944D01*
X211140Y138000D01*
X210979Y140056D01*
X210497Y142061D01*
X209708Y143966D01*
X208631Y145724D01*
X207292Y147292D01*
X205724Y148631D01*
X203966Y149708D01*
X202061Y150497D01*
X200056Y150979D01*
X198000Y151140D01*
D02*
G37*
G36*
X249500Y179500D02*
X247856D01*
X247928Y179142D01*
X248414Y178414D01*
X249142Y177928D01*
X249500Y177856D01*
Y179500D01*
D02*
G37*
G36*
X252144D02*
X250500D01*
Y177856D01*
X250858Y177928D01*
X251586Y178414D01*
X252072Y179142D01*
X252144Y179500D01*
D02*
G37*
G36*
X258000Y178461D02*
Y175000D01*
X261461D01*
X261389Y175542D01*
X260987Y176513D01*
X260347Y177347D01*
X259513Y177987D01*
X258542Y178389D01*
X258000Y178461D01*
D02*
G37*
G36*
X257000D02*
X256458Y178389D01*
X255487Y177987D01*
X254653Y177347D01*
X254013Y176513D01*
X253611Y175542D01*
X253539Y175000D01*
X257000D01*
Y178461D01*
D02*
G37*
G36*
X250500Y182144D02*
Y180500D01*
X252144D01*
X252072Y180858D01*
X251586Y181586D01*
X250858Y182072D01*
X250500Y182144D01*
D02*
G37*
G36*
X249500D02*
X249142Y182072D01*
X248414Y181586D01*
X247928Y180858D01*
X247856Y180500D01*
X249500D01*
Y182144D01*
D02*
G37*
G36*
X239500Y199500D02*
X237856D01*
X237928Y199142D01*
X238414Y198414D01*
X239142Y197928D01*
X239500Y197856D01*
Y199500D01*
D02*
G37*
G36*
Y202144D02*
X239142Y202072D01*
X238414Y201586D01*
X237928Y200858D01*
X237856Y200500D01*
X239500D01*
Y202144D01*
D02*
G37*
G36*
X240500D02*
Y200500D01*
X242144D01*
X242072Y200858D01*
X241586Y201586D01*
X240858Y202072D01*
X240500Y202144D01*
D02*
G37*
G36*
X242144Y199500D02*
X240500D01*
Y197856D01*
X240858Y197928D01*
X241586Y198414D01*
X242072Y199142D01*
X242144Y199500D01*
D02*
G37*
G36*
X261461Y174000D02*
X258000D01*
Y170539D01*
X258542Y170611D01*
X259513Y171013D01*
X260347Y171653D01*
X260987Y172487D01*
X261389Y173458D01*
X261461Y174000D01*
D02*
G37*
G36*
X292144Y119500D02*
X290500D01*
Y117856D01*
X290858Y117928D01*
X291586Y118414D01*
X292072Y119142D01*
X292144Y119500D01*
D02*
G37*
G36*
X289500D02*
X287856D01*
X287928Y119142D01*
X288414Y118414D01*
X289142Y117928D01*
X289500Y117856D01*
Y119500D01*
D02*
G37*
G36*
X288500Y114469D02*
Y108500D01*
X292035D01*
Y110500D01*
X291897Y111544D01*
X291494Y112517D01*
X290853Y113353D01*
X290017Y113994D01*
X289044Y114397D01*
X288500Y114469D01*
D02*
G37*
G36*
X287500D02*
X286956Y114397D01*
X285983Y113994D01*
X285147Y113353D01*
X284506Y112517D01*
X284103Y111544D01*
X283965Y110500D01*
Y108500D01*
X287500D01*
Y114469D01*
D02*
G37*
G36*
X290500Y122144D02*
Y120500D01*
X292144D01*
X292072Y120858D01*
X291586Y121586D01*
X290858Y122072D01*
X290500Y122144D01*
D02*
G37*
G36*
X289500D02*
X289142Y122072D01*
X288414Y121586D01*
X287928Y120858D01*
X287856Y120500D01*
X289500D01*
Y122144D01*
D02*
G37*
G36*
X260500Y162144D02*
Y160500D01*
X262144D01*
X262072Y160858D01*
X261586Y161586D01*
X260858Y162072D01*
X260500Y162144D01*
D02*
G37*
G36*
X259500D02*
X259142Y162072D01*
X258414Y161586D01*
X257928Y160858D01*
X257856Y160500D01*
X259500D01*
Y162144D01*
D02*
G37*
G36*
X232000Y170183D02*
X231047Y170057D01*
X230159Y169689D01*
X229396Y169104D01*
X228811Y168341D01*
X228443Y167453D01*
X228317Y166500D01*
X228443Y165547D01*
X228811Y164659D01*
X229396Y163896D01*
X230159Y163311D01*
X231047Y162943D01*
X232000Y162817D01*
X232953Y162943D01*
X233841Y163311D01*
X234604Y163896D01*
X235189Y164659D01*
X235557Y165547D01*
X235683Y166500D01*
X235557Y167453D01*
X235189Y168341D01*
X234604Y169104D01*
X233841Y169689D01*
X232953Y170057D01*
X232000Y170183D01*
D02*
G37*
G36*
X257000Y174000D02*
X253539D01*
X253611Y173458D01*
X254013Y172487D01*
X254653Y171653D01*
X255487Y171013D01*
X256458Y170611D01*
X257000Y170539D01*
Y174000D01*
D02*
G37*
G36*
X259500Y159500D02*
X257856D01*
X257928Y159142D01*
X258414Y158414D01*
X259142Y157928D01*
X259500Y157856D01*
Y159500D01*
D02*
G37*
G36*
X262144D02*
X260500D01*
Y157856D01*
X260858Y157928D01*
X261586Y158414D01*
X262072Y159142D01*
X262144Y159500D01*
D02*
G37*
G36*
X297500Y292035D02*
X295500D01*
X294456Y291897D01*
X293483Y291494D01*
X292647Y290853D01*
X292006Y290017D01*
X291603Y289044D01*
X291531Y288500D01*
X297500D01*
Y292035D01*
D02*
G37*
G36*
X272144Y299500D02*
X270500D01*
Y297856D01*
X270858Y297928D01*
X271586Y298414D01*
X272072Y299142D01*
X272144Y299500D01*
D02*
G37*
G36*
X269500D02*
X267856D01*
X267928Y299142D01*
X268414Y298414D01*
X269142Y297928D01*
X269500Y297856D01*
Y299500D01*
D02*
G37*
G36*
X297500Y287500D02*
X291531D01*
X291603Y286956D01*
X292006Y285983D01*
X292647Y285147D01*
X293483Y284506D01*
X294456Y284103D01*
X295500Y283965D01*
X297500D01*
Y287500D01*
D02*
G37*
G36*
X194175Y269497D02*
X193347D01*
Y266500D01*
Y263503D01*
X194175D01*
X194738Y263615D01*
X195215Y263934D01*
X195370Y264166D01*
X195549Y264412D01*
X196567Y264477D01*
X196642Y264428D01*
X197000Y264356D01*
Y266500D01*
Y268644D01*
X196642Y268572D01*
X196567Y268523D01*
X195549Y268588D01*
X195370Y268834D01*
X195215Y269066D01*
X194738Y269385D01*
X194175Y269497D01*
D02*
G37*
G36*
X114469Y267500D02*
X108500D01*
Y263966D01*
X110500D01*
X111544Y264103D01*
X112517Y264506D01*
X113353Y265147D01*
X113994Y265983D01*
X114397Y266956D01*
X114469Y267500D01*
D02*
G37*
G36*
X199644Y266000D02*
X198000D01*
Y264356D01*
X198358Y264428D01*
X199086Y264914D01*
X199572Y265642D01*
X199644Y266000D01*
D02*
G37*
G36*
X110500Y272035D02*
X108500D01*
Y268500D01*
X114469D01*
X114397Y269044D01*
X113994Y270017D01*
X113353Y270853D01*
X112517Y271494D01*
X111544Y271897D01*
X110500Y272035D01*
D02*
G37*
G36*
X179500Y279500D02*
X177856D01*
X177928Y279142D01*
X178414Y278414D01*
X179142Y277928D01*
X179500Y277856D01*
Y279500D01*
D02*
G37*
G36*
X198000Y268644D02*
Y267000D01*
X199644D01*
X199572Y267358D01*
X199086Y268086D01*
X198358Y268572D01*
X198000Y268644D01*
D02*
G37*
G36*
X190500Y262144D02*
Y260500D01*
X192144D01*
X192072Y260858D01*
X191586Y261586D01*
X190858Y262072D01*
X190500Y262144D01*
D02*
G37*
G36*
X179500Y292000D02*
X177856D01*
X177928Y291642D01*
X178414Y290914D01*
X179142Y290428D01*
X179500Y290356D01*
Y292000D01*
D02*
G37*
G36*
X129644D02*
X128000D01*
Y290356D01*
X128358Y290428D01*
X129086Y290914D01*
X129572Y291642D01*
X129644Y292000D01*
D02*
G37*
G36*
X127000Y294644D02*
X126642Y294572D01*
X125914Y294086D01*
X125428Y293358D01*
X125356Y293000D01*
X127000D01*
Y294644D01*
D02*
G37*
G36*
X182144Y292000D02*
X180500D01*
Y290356D01*
X180858Y290428D01*
X181586Y290914D01*
X182072Y291642D01*
X182144Y292000D01*
D02*
G37*
G36*
X127000D02*
X125356D01*
X125428Y291642D01*
X125914Y290914D01*
X126642Y290428D01*
X127000Y290356D01*
Y292000D01*
D02*
G37*
G36*
X179500Y294644D02*
X179142Y294572D01*
X178414Y294086D01*
X177928Y293358D01*
X177856Y293000D01*
X179500D01*
Y294644D01*
D02*
G37*
G36*
X128000D02*
Y293000D01*
X129644D01*
X129572Y293358D01*
X129086Y294086D01*
X128358Y294572D01*
X128000Y294644D01*
D02*
G37*
G36*
X180500D02*
Y293000D01*
X182144D01*
X182072Y293358D01*
X181586Y294086D01*
X180858Y294572D01*
X180500Y294644D01*
D02*
G37*
G36*
Y282144D02*
Y280500D01*
X182144D01*
X182072Y280858D01*
X181586Y281586D01*
X180858Y282072D01*
X180500Y282144D01*
D02*
G37*
G36*
X179500D02*
X179142Y282072D01*
X178414Y281586D01*
X177928Y280858D01*
X177856Y280500D01*
X179500D01*
Y282144D01*
D02*
G37*
G36*
X199500D02*
X199142Y282072D01*
X198414Y281586D01*
X197928Y280858D01*
X197856Y280500D01*
X199500D01*
Y282144D01*
D02*
G37*
G36*
Y279500D02*
X197856D01*
X197928Y279142D01*
X198414Y278414D01*
X199142Y277928D01*
X199500Y277856D01*
Y279500D01*
D02*
G37*
G36*
X182144D02*
X180500D01*
Y277856D01*
X180858Y277928D01*
X181586Y278414D01*
X182072Y279142D01*
X182144Y279500D01*
D02*
G37*
G36*
X110500Y292035D02*
X108500D01*
Y288500D01*
X114469D01*
X114397Y289044D01*
X113994Y290017D01*
X113353Y290853D01*
X112517Y291494D01*
X111544Y291897D01*
X110500Y292035D01*
D02*
G37*
G36*
X114469Y287500D02*
X108500D01*
Y283965D01*
X110500D01*
X111544Y284103D01*
X112517Y284506D01*
X113353Y285147D01*
X113994Y285983D01*
X114397Y286956D01*
X114469Y287500D01*
D02*
G37*
G36*
X218646Y194500D02*
X216347D01*
Y192003D01*
X217175D01*
X217738Y192115D01*
X218215Y192434D01*
X218534Y192911D01*
X218646Y193474D01*
Y194500D01*
D02*
G37*
G36*
X222144Y199500D02*
X220500D01*
Y197856D01*
X220858Y197928D01*
X221586Y198414D01*
X222072Y199142D01*
X222144Y199500D01*
D02*
G37*
G36*
X212000Y180183D02*
X211047Y180057D01*
X210159Y179689D01*
X209396Y179104D01*
X208811Y178341D01*
X208443Y177453D01*
X208317Y176500D01*
X208443Y175547D01*
X208811Y174659D01*
X209396Y173896D01*
X210159Y173311D01*
X211047Y172943D01*
X212000Y172817D01*
X212953Y172943D01*
X213841Y173311D01*
X214604Y173896D01*
X215189Y174659D01*
X215557Y175547D01*
X215683Y176500D01*
X215557Y177453D01*
X215189Y178341D01*
X214604Y179104D01*
X213841Y179689D01*
X212953Y180057D01*
X212000Y180183D01*
D02*
G37*
G36*
X220500Y202144D02*
Y200500D01*
X222144D01*
X222072Y200858D01*
X221586Y201586D01*
X220858Y202072D01*
X220500Y202144D01*
D02*
G37*
G36*
X215347Y201990D02*
X214988Y201919D01*
X214260Y201433D01*
X213774Y200705D01*
X213703Y200346D01*
X215347D01*
Y201990D01*
D02*
G37*
G36*
X216020Y166000D02*
X212500D01*
Y162480D01*
X213058Y162553D01*
X214043Y162961D01*
X214889Y163611D01*
X215539Y164457D01*
X215947Y165442D01*
X216020Y166000D01*
D02*
G37*
G36*
X212500Y170520D02*
Y167000D01*
X216020D01*
X215947Y167558D01*
X215539Y168543D01*
X214889Y169389D01*
X214043Y170039D01*
X213058Y170447D01*
X212500Y170520D01*
D02*
G37*
G36*
X124644Y139500D02*
X123000D01*
Y137856D01*
X123358Y137928D01*
X124086Y138414D01*
X124572Y139142D01*
X124644Y139500D01*
D02*
G37*
G36*
X122000D02*
X120356D01*
X120428Y139142D01*
X120914Y138414D01*
X121642Y137928D01*
X122000Y137856D01*
Y139500D01*
D02*
G37*
G36*
X132000Y149500D02*
X130356D01*
X130428Y149142D01*
X130914Y148414D01*
X131642Y147928D01*
X132000Y147856D01*
Y149500D01*
D02*
G37*
G36*
X122000Y142144D02*
X121642Y142072D01*
X120914Y141586D01*
X120428Y140858D01*
X120356Y140500D01*
X122000D01*
Y142144D01*
D02*
G37*
G36*
X123000D02*
Y140500D01*
X124644D01*
X124572Y140858D01*
X124086Y141586D01*
X123358Y142072D01*
X123000Y142144D01*
D02*
G37*
G36*
X124644Y119500D02*
X123000D01*
Y117856D01*
X123358Y117928D01*
X124086Y118414D01*
X124572Y119142D01*
X124644Y119500D01*
D02*
G37*
G36*
X122000D02*
X120356D01*
X120428Y119142D01*
X120914Y118414D01*
X121642Y117928D01*
X122000Y117856D01*
Y119500D01*
D02*
G37*
G36*
X123000Y122144D02*
Y120500D01*
X124644D01*
X124572Y120858D01*
X124086Y121586D01*
X123358Y122072D01*
X123000Y122144D01*
D02*
G37*
G36*
X122000D02*
X121642Y122072D01*
X120914Y121586D01*
X120428Y120858D01*
X120356Y120500D01*
X122000D01*
Y122144D01*
D02*
G37*
G36*
X147000Y152144D02*
X146642Y152072D01*
X145914Y151586D01*
X145428Y150858D01*
X145356Y150500D01*
X147000D01*
Y152144D01*
D02*
G37*
G36*
X133000D02*
Y150500D01*
X134644D01*
X134572Y150858D01*
X134086Y151586D01*
X133358Y152072D01*
X133000Y152144D01*
D02*
G37*
G36*
X148000D02*
Y150500D01*
X149644D01*
X149572Y150858D01*
X149086Y151586D01*
X148358Y152072D01*
X148000Y152144D01*
D02*
G37*
G36*
X147000Y149500D02*
X145356D01*
X145428Y149142D01*
X145914Y148414D01*
X146642Y147928D01*
X147000Y147856D01*
Y149500D01*
D02*
G37*
G36*
X134644D02*
X133000D01*
Y147856D01*
X133358Y147928D01*
X134086Y148414D01*
X134572Y149142D01*
X134644Y149500D01*
D02*
G37*
G36*
X132000Y152144D02*
X131642Y152072D01*
X130914Y151586D01*
X130428Y150858D01*
X130356Y150500D01*
X132000D01*
Y152144D01*
D02*
G37*
G36*
X149644Y149500D02*
X148000D01*
Y147856D01*
X148358Y147928D01*
X149086Y148414D01*
X149572Y149142D01*
X149644Y149500D01*
D02*
G37*
%LPD*%
D10*
X188035Y247902D02*
D03*
Y245933D02*
D03*
Y243965D02*
D03*
Y241996D02*
D03*
Y240028D02*
D03*
Y238059D02*
D03*
Y236090D02*
D03*
Y234122D02*
D03*
Y232154D02*
D03*
Y230185D02*
D03*
Y228217D02*
D03*
Y226248D02*
D03*
X216185D02*
D03*
Y228217D02*
D03*
Y230185D02*
D03*
Y232154D02*
D03*
Y234122D02*
D03*
Y236090D02*
D03*
Y238059D02*
D03*
Y240028D02*
D03*
Y241996D02*
D03*
Y243965D02*
D03*
Y245933D02*
D03*
Y247902D02*
D03*
D11*
X191284Y223000D02*
D03*
X193252D02*
D03*
X195220D02*
D03*
X197189D02*
D03*
X199158D02*
D03*
X201126D02*
D03*
X203095D02*
D03*
X205063D02*
D03*
X207031D02*
D03*
X209000D02*
D03*
X210968D02*
D03*
X212937D02*
D03*
Y251150D02*
D03*
X210968D02*
D03*
X209000D02*
D03*
X207031D02*
D03*
X205063D02*
D03*
X203095D02*
D03*
X201126D02*
D03*
X199158D02*
D03*
X197189D02*
D03*
X195220D02*
D03*
X193252D02*
D03*
X191284D02*
D03*
D12*
X202110Y237075D02*
D03*
D13*
X123000Y168846D02*
D03*
Y162153D02*
D03*
D14*
X215846Y195000D02*
D03*
X209154D02*
D03*
X127307Y300000D02*
D03*
X134000D02*
D03*
X214154Y272500D02*
D03*
X220847D02*
D03*
X227847Y280000D02*
D03*
X221153D02*
D03*
X227847Y288000D02*
D03*
X221153D02*
D03*
X192847Y266500D02*
D03*
X186153D02*
D03*
D15*
X199158Y240028D02*
Y251150D01*
X205063Y240028D02*
Y251150D01*
X195614Y243571D02*
X199158Y240028D01*
X199945Y239240D01*
X202110Y237075D02*
X204276Y239240D01*
X199945D02*
X202110Y237075D01*
X282000Y148000D02*
X298000D01*
X278000Y152000D02*
X282000Y148000D01*
X278000Y152000D02*
Y214000D01*
X257500Y234500D02*
X278000Y214000D01*
X282000Y138000D02*
X298000D01*
X275000Y145000D02*
X282000Y138000D01*
X275000Y145000D02*
Y208000D01*
X258500Y224500D02*
X275000Y208000D01*
X257500Y224500D02*
X258500D01*
X284000Y128000D02*
X298000D01*
X271500Y140500D02*
X284000Y128000D01*
X271500Y140500D02*
Y205500D01*
X262500Y214500D02*
X271500Y205500D01*
X257500Y214500D02*
X262500D01*
X117500Y261000D02*
Y277000D01*
X125000Y284500D01*
X147500D01*
X121000Y261000D02*
Y265500D01*
X130000Y274500D01*
X147500D01*
X118000Y220500D02*
Y235500D01*
X115500Y238000D02*
X118000Y235500D01*
X108000Y238000D02*
X115500D01*
X118000Y212500D02*
Y215500D01*
Y212500D02*
X123000Y207500D01*
Y168846D02*
Y207500D01*
X118000Y156000D02*
Y157153D01*
X123000Y162153D01*
X124500Y149500D02*
Y156000D01*
X125500Y157000D01*
X131000D01*
X178000D01*
X122000Y218000D02*
X131000Y209000D01*
Y157000D02*
Y209000D01*
X164000Y284500D02*
X172000Y276500D01*
X147500Y284500D02*
X164000D01*
Y274500D02*
X169500Y269000D01*
X147500Y274500D02*
X164000D01*
X162000Y264500D02*
X164500Y262000D01*
X147500Y264500D02*
X162000D01*
X147500Y244500D02*
X162500D01*
X166972Y240028D01*
X188035D01*
X147500Y234500D02*
X163500D01*
X167059Y238059D01*
X188035D01*
X147500Y224500D02*
X156500D01*
X168091Y236090D01*
X188035D01*
X147500Y254500D02*
X156000D01*
X168504Y241996D01*
X188035D01*
X147500Y214500D02*
X152000D01*
X171622Y234122D01*
X188035D01*
X164500Y251000D02*
Y262000D01*
X169500Y251000D02*
Y269000D01*
Y251000D02*
X174567Y245933D01*
X188035D01*
X173653Y232154D02*
X188035D01*
X155500Y214000D02*
X173653Y232154D01*
X155500Y207000D02*
Y214000D01*
X153000Y204500D02*
X155500Y207000D01*
X147500Y204500D02*
X153000D01*
X176185Y230185D02*
X188035D01*
X159000Y213000D02*
X176185Y230185D01*
X159000Y198000D02*
Y213000D01*
X155500Y194500D02*
X159000Y198000D01*
X147500Y194500D02*
X155500D01*
X161500Y190500D02*
Y211500D01*
X155500Y184500D02*
X161500Y190500D01*
X147500Y184500D02*
X155500D01*
X197000Y171500D02*
X202000Y166500D01*
X187000Y171500D02*
X192000Y166500D01*
X165500Y168500D02*
X167500Y166500D01*
X172000D01*
X128000Y108000D02*
Y131000D01*
X169500Y145000D02*
X182000Y157500D01*
Y166500D01*
X148000Y108000D02*
Y136500D01*
X153000Y141500D01*
X170000D01*
X189500Y161000D01*
X190000D01*
X192000Y163000D01*
Y166500D01*
X158000Y108000D02*
Y136000D01*
X160500Y138500D01*
X200000Y161000D02*
X202000Y163000D01*
Y166500D01*
X208000Y119500D02*
X222000Y133500D01*
X208000Y108000D02*
Y119500D01*
X202000Y176500D02*
Y184500D01*
X209154Y191654D01*
Y195000D01*
X209000Y195153D02*
X209154Y195000D01*
X222000Y166500D02*
X227000Y171500D01*
X216185Y243965D02*
X226965D01*
X239000Y256000D01*
Y280500D01*
X243000Y284500D01*
X257500D01*
X216185Y241996D02*
X228996D01*
X241500Y254500D01*
Y272500D01*
X243500Y274500D01*
X257500D01*
X216185Y240028D02*
X230028D01*
X244500Y254500D01*
Y262500D01*
X246500Y264500D01*
X257500D01*
X216185Y238059D02*
X231559D01*
X248000Y254500D01*
X257500D01*
X216185Y236090D02*
X234591D01*
X243000Y244500D01*
X257500D01*
X216185Y234122D02*
X257122D01*
X257500Y234500D01*
X216185Y232154D02*
X234846D01*
X242500Y224500D01*
X257500D01*
X216185Y230185D02*
X231815D01*
X247500Y214500D01*
X257500D01*
X216185Y228217D02*
X228783D01*
X252500Y204500D01*
X257500D01*
X216185Y226248D02*
X225252D01*
X250500Y195500D02*
Y201000D01*
Y195500D02*
X251500Y194500D01*
X257500D01*
X223600Y210400D02*
X249500Y184500D01*
X257500D01*
X193252Y245933D02*
Y251150D01*
Y245933D02*
X195614Y243571D01*
X203095Y251150D02*
Y254906D01*
X203000Y255000D02*
X203095Y254906D01*
X164500Y251000D02*
X171535Y243965D01*
X188035D01*
X108000Y258000D02*
X134500D01*
X140000Y252500D01*
Y223500D02*
Y252500D01*
Y223500D02*
X144000Y219500D01*
X152500D01*
X153500Y220500D01*
X108000Y218000D02*
X122000D01*
X123000Y148000D02*
X124500Y149500D01*
X108000Y148000D02*
X123000D01*
X222000Y133500D02*
Y157000D01*
Y166500D01*
X118000Y108000D02*
Y145000D01*
X108000Y158000D02*
X116000D01*
X118000Y156000D01*
Y150500D02*
Y156000D01*
X202000Y176500D02*
X207500Y171000D01*
Y161500D02*
Y171000D01*
X205000Y159000D02*
X207500Y161500D01*
X196000Y159000D02*
X205000D01*
X196870Y161100D02*
X196970Y161000D01*
X200000D01*
X118000Y145000D02*
X124000D01*
X126500Y147500D01*
Y154000D01*
X127500Y155000D01*
X174000D01*
X174500Y154500D01*
X128000Y131000D02*
X142000Y145000D01*
X169500D01*
X138000Y108000D02*
Y132000D01*
X149500Y143500D01*
X170000D01*
X187000Y160500D01*
Y162000D01*
X108000Y248000D02*
X134000D01*
X137000Y245000D01*
Y214000D02*
Y245000D01*
Y214000D02*
X141500Y209500D01*
X153000D01*
X227000Y171500D02*
Y199000D01*
X197500Y209500D02*
X210500D01*
X214900Y211630D02*
X216130Y210400D01*
X217000Y212500D02*
X228000Y223500D01*
X225252Y226248D02*
X228000Y223500D01*
X250500Y201000D01*
X216130Y210400D02*
X223600D01*
X214500Y223000D02*
X214900Y222600D01*
X212937Y223000D02*
X214500D01*
X209000Y195153D02*
Y203000D01*
X213000Y207000D01*
Y209970D01*
X218000Y208000D02*
X227000Y199000D01*
X213500Y216500D02*
X214900D01*
Y211630D02*
Y216500D01*
Y222600D01*
X209000Y213970D02*
X213000Y209970D01*
X197500Y216500D02*
X198000Y216000D01*
X207000D01*
X209000Y213970D02*
Y215030D01*
X209100Y215130D01*
X209000Y223000D02*
X209100Y222900D01*
Y215130D02*
Y222900D01*
X193252Y186752D02*
Y223000D01*
X195220Y186779D02*
Y223000D01*
X191797Y161100D02*
X196870D01*
X160500Y138500D02*
X169197D01*
X191797Y161100D01*
X210968Y213865D02*
Y223000D01*
Y213865D02*
X216833Y208000D01*
X218000D01*
X216185Y247902D02*
X223402D01*
X178000Y108000D02*
Y118000D01*
X179500Y119500D01*
X208000D01*
X268000Y108000D02*
Y129000D01*
X238000Y159000D02*
X268000Y129000D01*
X225000Y159000D02*
X238000D01*
X221900Y156900D02*
X222000Y157000D01*
X193500D02*
X193600Y156900D01*
X221900D01*
X207500Y161500D02*
X210000Y159000D01*
X219000D01*
X172000Y252000D02*
Y276500D01*
X176098Y247902D02*
X188035D01*
X172000Y252000D02*
X176098Y247902D01*
X195220Y186779D02*
X197000Y185000D01*
Y171500D02*
Y185000D01*
X187000Y171500D02*
Y180500D01*
X193252Y186752D01*
X177000Y171500D02*
X182000Y166500D01*
X165500Y168500D02*
Y177500D01*
X188035Y200035D01*
Y226248D01*
X177000Y171500D02*
Y187000D01*
X191284Y201284D01*
Y223000D01*
X164000Y209500D02*
X164500Y210000D01*
X181500D01*
X161500Y211500D02*
X178217Y228217D01*
X188035D01*
X175500Y218000D02*
X181500D01*
X173500Y220000D02*
X175500Y218000D01*
D16*
X222000Y308000D02*
X298000D01*
X292000Y298000D02*
X298000D01*
X286000Y304000D02*
X292000Y298000D01*
X214154Y300153D02*
X222000Y308000D01*
X214154Y272500D02*
Y300153D01*
X222500Y304000D02*
X286000D01*
X217500Y299000D02*
X222500Y304000D01*
X217500Y276831D02*
Y299000D01*
Y276831D02*
X220847Y273484D01*
Y272500D02*
Y273484D01*
X186500Y258500D02*
Y266154D01*
X186153Y266500D02*
X186500Y266154D01*
D17*
X212937Y251150D02*
Y266937D01*
X214154Y268154D01*
Y272500D01*
X108000Y298000D02*
X122000D01*
X124000Y300000D01*
X127307D01*
X134000D02*
X197000D01*
X203000Y294000D01*
Y255000D02*
Y294000D01*
X191284Y251150D02*
Y253716D01*
X186500Y258500D02*
X191284Y253716D01*
D18*
X285000Y278000D02*
X298000D01*
X267000Y296000D02*
X285000Y278000D01*
X224500Y296000D02*
X267000D01*
X221153Y292653D02*
X224500Y296000D01*
X221153Y288000D02*
Y292653D01*
Y280000D02*
Y288000D01*
Y272807D02*
Y280000D01*
X220847Y272500D02*
X221153Y272807D01*
X287500Y268000D02*
X298000D01*
X285000Y270500D02*
X287500Y268000D01*
X285000Y270500D02*
Y278000D01*
X286000Y248000D02*
X298000D01*
X286000Y189000D02*
Y248000D01*
Y189000D02*
X287000Y188000D01*
X298000D01*
X180000Y266500D02*
X186153D01*
X180000Y251000D02*
Y266500D01*
Y225000D02*
X185000Y220000D01*
Y202000D02*
Y220000D01*
X180000Y197000D02*
X185000Y202000D01*
D19*
X192847Y266500D02*
X197500D01*
X227847Y288000D02*
X234000D01*
X227847Y280000D02*
X234000D01*
X227847Y274654D02*
Y280000D01*
Y288000D02*
Y292154D01*
Y280000D02*
Y288000D01*
X215846Y195000D02*
Y199846D01*
D20*
X198000Y138000D02*
D03*
X128000Y338000D02*
D03*
X278000D02*
D03*
D21*
X108000Y318000D02*
D03*
X298000D02*
D03*
D22*
X108000Y308000D02*
D03*
Y298000D02*
D03*
Y288000D02*
D03*
Y278000D02*
D03*
Y268000D02*
D03*
Y258000D02*
D03*
Y248000D02*
D03*
Y238000D02*
D03*
Y228000D02*
D03*
Y218000D02*
D03*
Y208000D02*
D03*
Y198000D02*
D03*
Y188000D02*
D03*
Y178000D02*
D03*
Y168000D02*
D03*
Y158000D02*
D03*
Y148000D02*
D03*
Y138000D02*
D03*
Y128000D02*
D03*
X298000Y308000D02*
D03*
Y298000D02*
D03*
Y288000D02*
D03*
Y278000D02*
D03*
Y268000D02*
D03*
Y258000D02*
D03*
Y248000D02*
D03*
Y238000D02*
D03*
Y228000D02*
D03*
Y218000D02*
D03*
Y208000D02*
D03*
Y198000D02*
D03*
Y188000D02*
D03*
Y178000D02*
D03*
Y168000D02*
D03*
Y158000D02*
D03*
Y148000D02*
D03*
Y138000D02*
D03*
Y128000D02*
D03*
D23*
X108000Y108000D02*
D03*
D24*
X118000D02*
D03*
X128000D02*
D03*
X138000D02*
D03*
X148000D02*
D03*
X158000D02*
D03*
X168000D02*
D03*
X178000D02*
D03*
X188000D02*
D03*
X198000D02*
D03*
X208000D02*
D03*
X218000D02*
D03*
X228000D02*
D03*
X238000D02*
D03*
X248000D02*
D03*
X258000D02*
D03*
X268000D02*
D03*
X278000D02*
D03*
X288000D02*
D03*
X298000D02*
D03*
D25*
X172000Y166500D02*
D03*
D26*
X182000D02*
D03*
X192000D02*
D03*
X202000D02*
D03*
X212000D02*
D03*
X222000D02*
D03*
X232000D02*
D03*
X172000Y176500D02*
D03*
X182000D02*
D03*
X192000D02*
D03*
X202000D02*
D03*
X212000D02*
D03*
X222000D02*
D03*
X232000D02*
D03*
D27*
X147500Y174500D02*
D03*
Y184500D02*
D03*
Y194500D02*
D03*
Y204500D02*
D03*
Y214500D02*
D03*
Y224500D02*
D03*
Y234500D02*
D03*
Y244500D02*
D03*
Y254500D02*
D03*
Y264500D02*
D03*
Y274500D02*
D03*
X257500Y174500D02*
D03*
Y184500D02*
D03*
Y194500D02*
D03*
Y204500D02*
D03*
Y214500D02*
D03*
Y224500D02*
D03*
Y234500D02*
D03*
Y244500D02*
D03*
Y254500D02*
D03*
Y264500D02*
D03*
Y274500D02*
D03*
D28*
X147500Y284500D02*
D03*
X257500D02*
D03*
D29*
X160000Y260000D02*
D03*
X282500Y152500D02*
D03*
Y165000D02*
D03*
X180000Y292500D02*
D03*
X127500D02*
D03*
X132500Y267500D02*
D03*
X127500Y240000D02*
D03*
X120000Y190000D02*
D03*
Y180000D02*
D03*
X137500Y197500D02*
D03*
X122500Y140000D02*
D03*
X132500Y150000D02*
D03*
X147500D02*
D03*
X122500Y120000D02*
D03*
X245000Y122500D02*
D03*
X290000Y120000D02*
D03*
X180000Y130000D02*
D03*
X170000Y197000D02*
D03*
X280000Y320000D02*
D03*
X290000Y260000D02*
D03*
X280000Y240000D02*
D03*
X290000Y180000D02*
D03*
X260000Y320000D02*
D03*
X270000Y300000D02*
D03*
Y260000D02*
D03*
X260000Y240000D02*
D03*
Y200000D02*
D03*
Y160000D02*
D03*
X250000Y340000D02*
D03*
X240000Y320000D02*
D03*
X250000Y300000D02*
D03*
Y260000D02*
D03*
X240000Y200000D02*
D03*
X250000Y180000D02*
D03*
Y140000D02*
D03*
X230000Y340000D02*
D03*
X220000Y320000D02*
D03*
X230000Y260000D02*
D03*
X220000Y200000D02*
D03*
X230000Y140000D02*
D03*
X210000Y340000D02*
D03*
X200000Y320000D02*
D03*
X210000Y300000D02*
D03*
X200000Y280000D02*
D03*
X210000Y260000D02*
D03*
X190000Y340000D02*
D03*
X180000Y320000D02*
D03*
Y280000D02*
D03*
X190000Y260000D02*
D03*
X170000Y340000D02*
D03*
X160000Y320000D02*
D03*
Y240000D02*
D03*
Y160000D02*
D03*
X150000Y340000D02*
D03*
X140000Y320000D02*
D03*
Y200000D02*
D03*
X150000Y180000D02*
D03*
X140000Y160000D02*
D03*
X120000Y320000D02*
D03*
X130000Y220000D02*
D03*
X120000Y200000D02*
D03*
X117500Y261000D02*
D03*
X121000D02*
D03*
X118000Y220500D02*
D03*
Y215500D02*
D03*
X197500Y266500D02*
D03*
X234000Y288000D02*
D03*
Y280000D02*
D03*
X227847Y274654D02*
D03*
Y292154D02*
D03*
X215846Y199846D02*
D03*
X153500Y220500D02*
D03*
X173500Y220000D02*
D03*
X178000Y157000D02*
D03*
X193500D02*
D03*
X118000Y145000D02*
D03*
Y150500D02*
D03*
X196000Y159000D02*
D03*
X174500Y154500D02*
D03*
X187000Y162000D02*
D03*
X153000Y209500D02*
D03*
X164000D02*
D03*
X197500D02*
D03*
X210500D02*
D03*
X217000Y212500D02*
D03*
X197500Y216500D02*
D03*
X213500D02*
D03*
X207000Y216000D02*
D03*
X223402Y247902D02*
D03*
X225000Y159000D02*
D03*
X219000D02*
D03*
X180000Y251000D02*
D03*
Y225000D02*
D03*
Y197000D02*
D03*
X181500Y210000D02*
D03*
Y218000D02*
D03*
D30*
X195614Y243571D02*
D03*
X199945D02*
D03*
X204276D02*
D03*
X208606D02*
D03*
X195614Y239240D02*
D03*
X199945D02*
D03*
X204276D02*
D03*
X208606D02*
D03*
X195614Y234910D02*
D03*
X199945D02*
D03*
X204276D02*
D03*
X208606D02*
D03*
X195614Y230579D02*
D03*
X199945D02*
D03*
X204276D02*
D03*
X208606D02*
D03*
M02*
