G04 Layer_Color=8421504*
%FSLAX25Y25*%
%MOIN*%
G70*
G01*
G75*
%ADD10O,0.04724X0.00984*%
%ADD11O,0.00984X0.04724*%
%ADD12R,0.16142X0.16142*%
G04:AMPARAMS|DCode=13|XSize=39.37mil|YSize=35.43mil|CornerRadius=4.43mil|HoleSize=0mil|Usage=FLASHONLY|Rotation=0.000|XOffset=0mil|YOffset=0mil|HoleType=Round|Shape=RoundedRectangle|*
%AMROUNDEDRECTD13*
21,1,0.03937,0.02658,0,0,0.0*
21,1,0.03051,0.03543,0,0,0.0*
1,1,0.00886,0.01526,-0.01329*
1,1,0.00886,-0.01526,-0.01329*
1,1,0.00886,-0.01526,0.01329*
1,1,0.00886,0.01526,0.01329*
%
%ADD13ROUNDEDRECTD13*%
G04:AMPARAMS|DCode=14|XSize=39.37mil|YSize=35.43mil|CornerRadius=4.43mil|HoleSize=0mil|Usage=FLASHONLY|Rotation=90.000|XOffset=0mil|YOffset=0mil|HoleType=Round|Shape=RoundedRectangle|*
%AMROUNDEDRECTD14*
21,1,0.03937,0.02658,0,0,90.0*
21,1,0.03051,0.03543,0,0,90.0*
1,1,0.00886,0.01329,0.01526*
1,1,0.00886,0.01329,-0.01526*
1,1,0.00886,-0.01329,-0.01526*
1,1,0.00886,-0.01329,0.01526*
%
%ADD14ROUNDEDRECTD14*%
D10*
X188035Y247902D02*
D03*
Y245933D02*
D03*
Y243965D02*
D03*
Y241996D02*
D03*
Y240028D02*
D03*
Y238059D02*
D03*
Y236090D02*
D03*
Y234122D02*
D03*
Y232154D02*
D03*
Y230185D02*
D03*
Y228217D02*
D03*
Y226248D02*
D03*
X216185D02*
D03*
Y228217D02*
D03*
Y230185D02*
D03*
Y232154D02*
D03*
Y234122D02*
D03*
Y236090D02*
D03*
Y238059D02*
D03*
Y240028D02*
D03*
Y241996D02*
D03*
Y243965D02*
D03*
Y245933D02*
D03*
Y247902D02*
D03*
D11*
X191284Y223000D02*
D03*
X193252D02*
D03*
X195220D02*
D03*
X197189D02*
D03*
X199158D02*
D03*
X201126D02*
D03*
X203095D02*
D03*
X205063D02*
D03*
X207031D02*
D03*
X209000D02*
D03*
X210968D02*
D03*
X212937D02*
D03*
Y251150D02*
D03*
X210968D02*
D03*
X209000D02*
D03*
X207031D02*
D03*
X205063D02*
D03*
X203095D02*
D03*
X201126D02*
D03*
X199158D02*
D03*
X197189D02*
D03*
X195220D02*
D03*
X193252D02*
D03*
X191284D02*
D03*
D12*
X202110Y237075D02*
D03*
D13*
X123000Y168846D02*
D03*
Y162153D02*
D03*
D14*
X215846Y195000D02*
D03*
X209154D02*
D03*
X127307Y300000D02*
D03*
X134000D02*
D03*
X214154Y272500D02*
D03*
X220847D02*
D03*
X227847Y280000D02*
D03*
X221153D02*
D03*
X227847Y288000D02*
D03*
X221153D02*
D03*
X192847Y266500D02*
D03*
X186153D02*
D03*
M02*
