G04 Layer_Color=16711935*
%FSLAX25Y25*%
%MOIN*%
G70*
G01*
G75*
%ADD42C,0.25800*%
%ADD43R,0.11800X0.06800*%
%ADD44O,0.11800X0.06800*%
%ADD45R,0.06800X0.11800*%
%ADD46O,0.06800X0.11800*%
%ADD47R,0.06902X0.06902*%
%ADD48C,0.06902*%
%ADD49C,0.06784*%
%ADD50R,0.06784X0.06784*%
%ADD51C,0.03162*%
%ADD52C,0.03200*%
D42*
X198000Y138000D02*
D03*
X128000Y338000D02*
D03*
X278000D02*
D03*
D43*
X108000Y318000D02*
D03*
X298000D02*
D03*
D44*
X108000Y308000D02*
D03*
Y298000D02*
D03*
Y288000D02*
D03*
Y278000D02*
D03*
Y268000D02*
D03*
Y258000D02*
D03*
Y248000D02*
D03*
Y238000D02*
D03*
Y228000D02*
D03*
Y218000D02*
D03*
Y208000D02*
D03*
Y198000D02*
D03*
Y188000D02*
D03*
Y178000D02*
D03*
Y168000D02*
D03*
Y158000D02*
D03*
Y148000D02*
D03*
Y138000D02*
D03*
Y128000D02*
D03*
X298000Y308000D02*
D03*
Y298000D02*
D03*
Y288000D02*
D03*
Y278000D02*
D03*
Y268000D02*
D03*
Y258000D02*
D03*
Y248000D02*
D03*
Y238000D02*
D03*
Y228000D02*
D03*
Y218000D02*
D03*
Y208000D02*
D03*
Y198000D02*
D03*
Y188000D02*
D03*
Y178000D02*
D03*
Y168000D02*
D03*
Y158000D02*
D03*
Y148000D02*
D03*
Y138000D02*
D03*
Y128000D02*
D03*
D45*
X108000Y108000D02*
D03*
D46*
X118000D02*
D03*
X128000D02*
D03*
X138000D02*
D03*
X148000D02*
D03*
X158000D02*
D03*
X168000D02*
D03*
X178000D02*
D03*
X188000D02*
D03*
X198000D02*
D03*
X208000D02*
D03*
X218000D02*
D03*
X228000D02*
D03*
X238000D02*
D03*
X248000D02*
D03*
X258000D02*
D03*
X268000D02*
D03*
X278000D02*
D03*
X288000D02*
D03*
X298000D02*
D03*
D47*
X172000Y166500D02*
D03*
D48*
X182000D02*
D03*
X192000D02*
D03*
X202000D02*
D03*
X212000D02*
D03*
X222000D02*
D03*
X232000D02*
D03*
X172000Y176500D02*
D03*
X182000D02*
D03*
X192000D02*
D03*
X202000D02*
D03*
X212000D02*
D03*
X222000D02*
D03*
X232000D02*
D03*
D49*
X147500Y174500D02*
D03*
Y184500D02*
D03*
Y194500D02*
D03*
Y204500D02*
D03*
Y214500D02*
D03*
Y224500D02*
D03*
Y234500D02*
D03*
Y244500D02*
D03*
Y254500D02*
D03*
Y264500D02*
D03*
Y274500D02*
D03*
X257500Y174500D02*
D03*
Y184500D02*
D03*
Y194500D02*
D03*
Y204500D02*
D03*
Y214500D02*
D03*
Y224500D02*
D03*
Y234500D02*
D03*
Y244500D02*
D03*
Y254500D02*
D03*
Y264500D02*
D03*
Y274500D02*
D03*
D50*
X147500Y284500D02*
D03*
X257500D02*
D03*
D51*
X195614Y243571D02*
D03*
X199945D02*
D03*
X204276D02*
D03*
X208606D02*
D03*
X195614Y239240D02*
D03*
X199945D02*
D03*
X204276D02*
D03*
X208606D02*
D03*
X195614Y234910D02*
D03*
X199945D02*
D03*
X204276D02*
D03*
X208606D02*
D03*
X195614Y230579D02*
D03*
X199945D02*
D03*
X204276D02*
D03*
X208606D02*
D03*
D52*
X170000Y197000D02*
D03*
X117500Y261000D02*
D03*
X121000D02*
D03*
X118000Y220500D02*
D03*
Y215500D02*
D03*
X153500Y220500D02*
D03*
X173500Y220000D02*
D03*
X178000Y157000D02*
D03*
X193500D02*
D03*
X118000Y145000D02*
D03*
Y150500D02*
D03*
X196000Y159000D02*
D03*
X174500Y154500D02*
D03*
X187000Y162000D02*
D03*
X153000Y209500D02*
D03*
X164000D02*
D03*
X197500D02*
D03*
X210500D02*
D03*
X217000Y212500D02*
D03*
X197500Y216500D02*
D03*
X213500D02*
D03*
X207000Y216000D02*
D03*
X225000Y159000D02*
D03*
X219000D02*
D03*
X180000Y251000D02*
D03*
Y225000D02*
D03*
Y197000D02*
D03*
X181500Y210000D02*
D03*
Y218000D02*
D03*
M02*
