G75*
%MOIN*%
%OFA0B0*%
%FSLAX24Y24*%
%IPPOS*%
%LPD*%
%AMOC8*
5,1,8,0,0,1.08239X$1,22.5*
%
%ADD10C,0.0000*%
%ADD11C,0.0600*%
%ADD12OC8,0.0680*%
%ADD13C,0.0600*%
%ADD14R,0.0592X0.0671*%
%ADD15C,0.0680*%
%ADD16C,0.1340*%
%ADD17C,0.0674*%
%ADD18R,0.0671X0.0277*%
%ADD19R,0.0277X0.0671*%
%ADD20R,0.0867X0.0789*%
%ADD21R,0.0513X0.0474*%
%ADD22C,0.0935*%
%ADD23C,0.1130*%
%ADD24R,0.0395X0.0552*%
%ADD25R,0.0513X0.0631*%
%ADD26OC8,0.0710*%
%ADD27C,0.0710*%
%ADD28OC8,0.0740*%
%ADD29R,0.0671X0.0592*%
D10*
X000650Y000650D02*
X000650Y034020D01*
X049142Y034020D01*
X049142Y000650D01*
X000650Y000650D01*
X023520Y006150D02*
X023522Y006200D01*
X023528Y006250D01*
X023538Y006299D01*
X023552Y006347D01*
X023569Y006394D01*
X023590Y006439D01*
X023615Y006483D01*
X023643Y006524D01*
X023675Y006563D01*
X023709Y006600D01*
X023746Y006634D01*
X023786Y006664D01*
X023828Y006691D01*
X023872Y006715D01*
X023918Y006736D01*
X023965Y006752D01*
X024013Y006765D01*
X024063Y006774D01*
X024112Y006779D01*
X024163Y006780D01*
X024213Y006777D01*
X024262Y006770D01*
X024311Y006759D01*
X024359Y006744D01*
X024405Y006726D01*
X024450Y006704D01*
X024493Y006678D01*
X024534Y006649D01*
X024573Y006617D01*
X024609Y006582D01*
X024641Y006544D01*
X024671Y006504D01*
X024698Y006461D01*
X024721Y006417D01*
X024740Y006371D01*
X024756Y006323D01*
X024768Y006274D01*
X024776Y006225D01*
X024780Y006175D01*
X024780Y006125D01*
X024776Y006075D01*
X024768Y006026D01*
X024756Y005977D01*
X024740Y005929D01*
X024721Y005883D01*
X024698Y005839D01*
X024671Y005796D01*
X024641Y005756D01*
X024609Y005718D01*
X024573Y005683D01*
X024534Y005651D01*
X024493Y005622D01*
X024450Y005596D01*
X024405Y005574D01*
X024359Y005556D01*
X024311Y005541D01*
X024262Y005530D01*
X024213Y005523D01*
X024163Y005520D01*
X024112Y005521D01*
X024063Y005526D01*
X024013Y005535D01*
X023965Y005548D01*
X023918Y005564D01*
X023872Y005585D01*
X023828Y005609D01*
X023786Y005636D01*
X023746Y005666D01*
X023709Y005700D01*
X023675Y005737D01*
X023643Y005776D01*
X023615Y005817D01*
X023590Y005861D01*
X023569Y005906D01*
X023552Y005953D01*
X023538Y006001D01*
X023528Y006050D01*
X023522Y006100D01*
X023520Y006150D01*
X023520Y014024D02*
X023522Y014074D01*
X023528Y014124D01*
X023538Y014173D01*
X023552Y014221D01*
X023569Y014268D01*
X023590Y014313D01*
X023615Y014357D01*
X023643Y014398D01*
X023675Y014437D01*
X023709Y014474D01*
X023746Y014508D01*
X023786Y014538D01*
X023828Y014565D01*
X023872Y014589D01*
X023918Y014610D01*
X023965Y014626D01*
X024013Y014639D01*
X024063Y014648D01*
X024112Y014653D01*
X024163Y014654D01*
X024213Y014651D01*
X024262Y014644D01*
X024311Y014633D01*
X024359Y014618D01*
X024405Y014600D01*
X024450Y014578D01*
X024493Y014552D01*
X024534Y014523D01*
X024573Y014491D01*
X024609Y014456D01*
X024641Y014418D01*
X024671Y014378D01*
X024698Y014335D01*
X024721Y014291D01*
X024740Y014245D01*
X024756Y014197D01*
X024768Y014148D01*
X024776Y014099D01*
X024780Y014049D01*
X024780Y013999D01*
X024776Y013949D01*
X024768Y013900D01*
X024756Y013851D01*
X024740Y013803D01*
X024721Y013757D01*
X024698Y013713D01*
X024671Y013670D01*
X024641Y013630D01*
X024609Y013592D01*
X024573Y013557D01*
X024534Y013525D01*
X024493Y013496D01*
X024450Y013470D01*
X024405Y013448D01*
X024359Y013430D01*
X024311Y013415D01*
X024262Y013404D01*
X024213Y013397D01*
X024163Y013394D01*
X024112Y013395D01*
X024063Y013400D01*
X024013Y013409D01*
X023965Y013422D01*
X023918Y013438D01*
X023872Y013459D01*
X023828Y013483D01*
X023786Y013510D01*
X023746Y013540D01*
X023709Y013574D01*
X023675Y013611D01*
X023643Y013650D01*
X023615Y013691D01*
X023590Y013735D01*
X023569Y013780D01*
X023552Y013827D01*
X023538Y013875D01*
X023528Y013924D01*
X023522Y013974D01*
X023520Y014024D01*
X046355Y014024D02*
X046357Y014074D01*
X046363Y014124D01*
X046373Y014173D01*
X046387Y014221D01*
X046404Y014268D01*
X046425Y014313D01*
X046450Y014357D01*
X046478Y014398D01*
X046510Y014437D01*
X046544Y014474D01*
X046581Y014508D01*
X046621Y014538D01*
X046663Y014565D01*
X046707Y014589D01*
X046753Y014610D01*
X046800Y014626D01*
X046848Y014639D01*
X046898Y014648D01*
X046947Y014653D01*
X046998Y014654D01*
X047048Y014651D01*
X047097Y014644D01*
X047146Y014633D01*
X047194Y014618D01*
X047240Y014600D01*
X047285Y014578D01*
X047328Y014552D01*
X047369Y014523D01*
X047408Y014491D01*
X047444Y014456D01*
X047476Y014418D01*
X047506Y014378D01*
X047533Y014335D01*
X047556Y014291D01*
X047575Y014245D01*
X047591Y014197D01*
X047603Y014148D01*
X047611Y014099D01*
X047615Y014049D01*
X047615Y013999D01*
X047611Y013949D01*
X047603Y013900D01*
X047591Y013851D01*
X047575Y013803D01*
X047556Y013757D01*
X047533Y013713D01*
X047506Y013670D01*
X047476Y013630D01*
X047444Y013592D01*
X047408Y013557D01*
X047369Y013525D01*
X047328Y013496D01*
X047285Y013470D01*
X047240Y013448D01*
X047194Y013430D01*
X047146Y013415D01*
X047097Y013404D01*
X047048Y013397D01*
X046998Y013394D01*
X046947Y013395D01*
X046898Y013400D01*
X046848Y013409D01*
X046800Y013422D01*
X046753Y013438D01*
X046707Y013459D01*
X046663Y013483D01*
X046621Y013510D01*
X046581Y013540D01*
X046544Y013574D01*
X046510Y013611D01*
X046478Y013650D01*
X046450Y013691D01*
X046425Y013735D01*
X046404Y013780D01*
X046387Y013827D01*
X046373Y013875D01*
X046363Y013924D01*
X046357Y013974D01*
X046355Y014024D01*
X046355Y006150D02*
X046357Y006200D01*
X046363Y006250D01*
X046373Y006299D01*
X046387Y006347D01*
X046404Y006394D01*
X046425Y006439D01*
X046450Y006483D01*
X046478Y006524D01*
X046510Y006563D01*
X046544Y006600D01*
X046581Y006634D01*
X046621Y006664D01*
X046663Y006691D01*
X046707Y006715D01*
X046753Y006736D01*
X046800Y006752D01*
X046848Y006765D01*
X046898Y006774D01*
X046947Y006779D01*
X046998Y006780D01*
X047048Y006777D01*
X047097Y006770D01*
X047146Y006759D01*
X047194Y006744D01*
X047240Y006726D01*
X047285Y006704D01*
X047328Y006678D01*
X047369Y006649D01*
X047408Y006617D01*
X047444Y006582D01*
X047476Y006544D01*
X047506Y006504D01*
X047533Y006461D01*
X047556Y006417D01*
X047575Y006371D01*
X047591Y006323D01*
X047603Y006274D01*
X047611Y006225D01*
X047615Y006175D01*
X047615Y006125D01*
X047611Y006075D01*
X047603Y006026D01*
X047591Y005977D01*
X047575Y005929D01*
X047556Y005883D01*
X047533Y005839D01*
X047506Y005796D01*
X047476Y005756D01*
X047444Y005718D01*
X047408Y005683D01*
X047369Y005651D01*
X047328Y005622D01*
X047285Y005596D01*
X047240Y005574D01*
X047194Y005556D01*
X047146Y005541D01*
X047097Y005530D01*
X047048Y005523D01*
X046998Y005520D01*
X046947Y005521D01*
X046898Y005526D01*
X046848Y005535D01*
X046800Y005548D01*
X046753Y005564D01*
X046707Y005585D01*
X046663Y005609D01*
X046621Y005636D01*
X046581Y005666D01*
X046544Y005700D01*
X046510Y005737D01*
X046478Y005776D01*
X046450Y005817D01*
X046425Y005861D01*
X046404Y005906D01*
X046387Y005953D01*
X046373Y006001D01*
X046363Y006050D01*
X046357Y006100D01*
X046355Y006150D01*
D11*
X020410Y005650D02*
X019890Y005650D01*
X019890Y004650D02*
X020410Y004650D01*
X020410Y003650D02*
X019890Y003650D01*
X017410Y003650D02*
X016890Y003650D01*
X016890Y004650D02*
X017410Y004650D01*
X017410Y005650D02*
X016890Y005650D01*
X016890Y006650D02*
X017410Y006650D01*
X017410Y007650D02*
X016890Y007650D01*
X016890Y008650D02*
X017410Y008650D01*
X017410Y009650D02*
X016890Y009650D01*
X016890Y010650D02*
X017410Y010650D01*
X017410Y011650D02*
X016890Y011650D01*
X016890Y012650D02*
X017410Y012650D01*
X017410Y013650D02*
X016890Y013650D01*
X016890Y014650D02*
X017410Y014650D01*
X017410Y015650D02*
X016890Y015650D01*
X016890Y016650D02*
X017410Y016650D01*
X019890Y016650D02*
X020410Y016650D01*
X020410Y015650D02*
X019890Y015650D01*
X019890Y014650D02*
X020410Y014650D01*
X020410Y013650D02*
X019890Y013650D01*
X019890Y012650D02*
X020410Y012650D01*
X020410Y011650D02*
X019890Y011650D01*
X019890Y010650D02*
X020410Y010650D01*
X020410Y009650D02*
X019890Y009650D01*
X019890Y008650D02*
X020410Y008650D01*
X020410Y007650D02*
X019890Y007650D01*
X019890Y006650D02*
X020410Y006650D01*
X035050Y029190D02*
X035050Y029710D01*
X036050Y029710D02*
X036050Y029190D01*
X037050Y029190D02*
X037050Y029710D01*
X038050Y029710D02*
X038050Y029190D01*
X039050Y029190D02*
X039050Y029710D01*
X040050Y029710D02*
X040050Y029190D01*
X041050Y029190D02*
X041050Y029710D01*
X041050Y032190D02*
X041050Y032710D01*
X040050Y032710D02*
X040050Y032190D01*
X039050Y032190D02*
X039050Y032710D01*
X038050Y032710D02*
X038050Y032190D01*
X037050Y032190D02*
X037050Y032710D01*
X036050Y032710D02*
X036050Y032190D01*
X035050Y032190D02*
X035050Y032710D01*
D12*
X031850Y032650D03*
X030850Y032650D03*
X029850Y032650D03*
X028850Y032650D03*
X027850Y032650D03*
X026850Y032650D03*
X025850Y032650D03*
X024850Y032650D03*
X023850Y032650D03*
X022850Y032650D03*
X022850Y031650D03*
X023850Y031650D03*
X024850Y031650D03*
X025850Y031650D03*
X026850Y031650D03*
X027850Y031650D03*
X028850Y031650D03*
X029850Y031650D03*
X030850Y031650D03*
X031850Y031650D03*
X030350Y030250D03*
X038350Y028150D03*
X039350Y028150D03*
X039350Y027150D03*
X038350Y027150D03*
X038350Y026150D03*
X039350Y026150D03*
X044750Y023150D03*
X045750Y023150D03*
X045750Y022150D03*
X044750Y022150D03*
X044750Y021150D03*
X045750Y021150D03*
X045750Y020150D03*
X044750Y020150D03*
X039050Y020050D03*
X038050Y020050D03*
X037050Y020050D03*
X036050Y020050D03*
X036050Y021050D03*
X037050Y021050D03*
X038050Y021050D03*
X039050Y021050D03*
X031550Y021050D03*
X030550Y021050D03*
X029550Y021050D03*
X029550Y020050D03*
X030550Y020050D03*
X031550Y020050D03*
X026250Y019950D03*
X025250Y019950D03*
X024250Y019950D03*
X024250Y020950D03*
X025250Y020950D03*
X026250Y020950D03*
X020650Y020950D03*
X019650Y020950D03*
X018650Y020950D03*
X018650Y019950D03*
X019650Y019950D03*
X020650Y019950D03*
X011650Y021450D03*
X010650Y021450D03*
X009650Y021450D03*
X009650Y022450D03*
X010650Y022450D03*
X011650Y022450D03*
X006300Y021800D03*
X006150Y018850D03*
X005150Y018850D03*
X005150Y017850D03*
X006150Y017850D03*
X013150Y011650D03*
X014150Y011650D03*
X014150Y010650D03*
X013150Y010650D03*
X013150Y009650D03*
X014150Y009650D03*
D13*
X010150Y006100D03*
X010150Y004200D03*
D14*
X008385Y004250D03*
X007715Y004250D03*
X007715Y006150D03*
X008385Y006150D03*
X014176Y028750D03*
X014924Y028750D03*
X014924Y029950D03*
X014176Y029950D03*
X009185Y029850D03*
X008515Y029850D03*
D15*
X010250Y030450D02*
X010250Y031050D01*
X011250Y031050D02*
X011250Y030450D01*
X014250Y026150D02*
X014250Y025550D01*
X015250Y025550D02*
X015250Y026150D01*
X014350Y020250D02*
X014350Y019650D01*
X013350Y019650D02*
X013350Y020250D01*
X013550Y016450D02*
X013550Y015850D01*
X014550Y015850D02*
X014550Y016450D01*
X014550Y015050D02*
X014550Y014450D01*
X013550Y014450D02*
X013550Y015050D01*
X022250Y014650D02*
X022850Y014650D01*
X022850Y013650D02*
X022250Y013650D01*
X022250Y012650D02*
X022850Y012650D01*
X022850Y015650D02*
X022250Y015650D01*
X022250Y016650D02*
X022850Y016650D01*
X022850Y017650D02*
X022250Y017650D01*
X033550Y022850D02*
X033550Y023450D01*
X034550Y023450D02*
X034550Y022850D01*
X035550Y022850D02*
X035550Y023450D01*
X031350Y025350D02*
X031350Y025950D01*
X030350Y025950D02*
X030350Y025350D01*
X029350Y025350D02*
X029350Y025950D01*
X040750Y023650D02*
X041350Y023650D01*
X041350Y022650D02*
X040750Y022650D01*
X040750Y021650D02*
X041350Y021650D01*
X013150Y006450D02*
X013150Y005850D01*
X012150Y005850D02*
X012150Y006450D01*
X012150Y004450D02*
X012150Y003850D01*
X013150Y003850D02*
X013150Y004450D01*
X006250Y024650D02*
X005650Y024650D01*
X004550Y024650D02*
X003950Y024650D01*
X003050Y024650D02*
X002450Y024650D01*
X002450Y025650D02*
X003050Y025650D01*
X003950Y025650D02*
X004550Y025650D01*
X005650Y025650D02*
X006250Y025650D01*
D16*
X024150Y014024D03*
X024150Y006150D03*
X046985Y006150D03*
X046985Y014024D03*
D17*
X037656Y016587D02*
X037062Y016587D01*
X035859Y017290D02*
X035859Y017884D01*
X034859Y017884D02*
X034859Y017290D01*
X033859Y017290D02*
X033859Y017884D01*
X032859Y017884D02*
X032859Y017290D01*
X037062Y017587D02*
X037656Y017587D01*
X035859Y002884D02*
X035859Y002290D01*
X034859Y002290D02*
X034859Y002884D01*
X033859Y002884D02*
X033859Y002290D01*
X032859Y002290D02*
X032859Y002884D01*
D18*
X012433Y024575D03*
X012433Y024890D03*
X012433Y025205D03*
X012433Y025520D03*
X012433Y025835D03*
X012433Y026150D03*
X012433Y026465D03*
X012433Y026780D03*
X012433Y027095D03*
X012433Y027410D03*
X012433Y027725D03*
X007867Y027725D03*
X007867Y027410D03*
X007867Y027095D03*
X007867Y026780D03*
X007867Y026465D03*
X007867Y026150D03*
X007867Y025835D03*
X007867Y025520D03*
X007867Y025205D03*
X007867Y024890D03*
X007867Y024575D03*
D19*
X008575Y023867D03*
X008890Y023867D03*
X009205Y023867D03*
X009520Y023867D03*
X009835Y023867D03*
X010150Y023867D03*
X010465Y023867D03*
X010780Y023867D03*
X011095Y023867D03*
X011410Y023867D03*
X011725Y023867D03*
X011725Y028433D03*
X011410Y028433D03*
X011095Y028433D03*
X010780Y028433D03*
X010465Y028433D03*
X010150Y028433D03*
X009835Y028433D03*
X009520Y028433D03*
X009205Y028433D03*
X008890Y028433D03*
X008575Y028433D03*
D20*
X042923Y029450D03*
X044577Y029450D03*
X046523Y029450D03*
X048177Y029450D03*
X048177Y031450D03*
X046523Y031450D03*
X044577Y031450D03*
X042923Y031450D03*
D21*
X043715Y032150D03*
X043715Y032650D03*
X044385Y032650D03*
X044385Y032150D03*
X047315Y032150D03*
X047315Y032650D03*
X047985Y032650D03*
X047985Y032150D03*
D22*
X003350Y020950D03*
X003350Y015550D03*
X003350Y009550D03*
X003450Y003250D03*
D23*
X002446Y002246D03*
X004454Y002246D03*
X004454Y004254D03*
X002446Y004254D03*
X002346Y008546D03*
X004354Y008546D03*
X004354Y010554D03*
X002346Y010554D03*
X002346Y014546D03*
X004354Y014546D03*
X004354Y016554D03*
X002346Y016554D03*
X002346Y019946D03*
X004354Y019946D03*
X004354Y021954D03*
X002346Y021954D03*
D24*
X017896Y029950D03*
X018604Y029950D03*
D25*
X017244Y029950D03*
X016456Y029950D03*
D26*
X015350Y032750D03*
X018950Y032850D03*
D27*
X018950Y031450D03*
X015350Y031350D03*
D28*
X018700Y027900D03*
X019700Y027900D03*
D29*
X033600Y032626D03*
X033600Y033374D03*
M02*
