G75*
%MOIN*%
%OFA0B0*%
%FSLAX24Y24*%
%IPPOS*%
%LPD*%
%AMOC8*
5,1,8,0,0,1.08239X$1,22.5*
%
%ADD10C,0.0000*%
%ADD11C,0.0160*%
%ADD12C,0.0110*%
%ADD13C,0.0140*%
%ADD14C,0.0080*%
%ADD15C,0.0040*%
%ADD16C,0.0050*%
D10*
X000650Y000650D02*
X000650Y034020D01*
X049142Y034020D01*
X049142Y000650D01*
X000650Y000650D01*
X023520Y006150D02*
X023522Y006200D01*
X023528Y006250D01*
X023538Y006299D01*
X023552Y006347D01*
X023569Y006394D01*
X023590Y006439D01*
X023615Y006483D01*
X023643Y006524D01*
X023675Y006563D01*
X023709Y006600D01*
X023746Y006634D01*
X023786Y006664D01*
X023828Y006691D01*
X023872Y006715D01*
X023918Y006736D01*
X023965Y006752D01*
X024013Y006765D01*
X024063Y006774D01*
X024112Y006779D01*
X024163Y006780D01*
X024213Y006777D01*
X024262Y006770D01*
X024311Y006759D01*
X024359Y006744D01*
X024405Y006726D01*
X024450Y006704D01*
X024493Y006678D01*
X024534Y006649D01*
X024573Y006617D01*
X024609Y006582D01*
X024641Y006544D01*
X024671Y006504D01*
X024698Y006461D01*
X024721Y006417D01*
X024740Y006371D01*
X024756Y006323D01*
X024768Y006274D01*
X024776Y006225D01*
X024780Y006175D01*
X024780Y006125D01*
X024776Y006075D01*
X024768Y006026D01*
X024756Y005977D01*
X024740Y005929D01*
X024721Y005883D01*
X024698Y005839D01*
X024671Y005796D01*
X024641Y005756D01*
X024609Y005718D01*
X024573Y005683D01*
X024534Y005651D01*
X024493Y005622D01*
X024450Y005596D01*
X024405Y005574D01*
X024359Y005556D01*
X024311Y005541D01*
X024262Y005530D01*
X024213Y005523D01*
X024163Y005520D01*
X024112Y005521D01*
X024063Y005526D01*
X024013Y005535D01*
X023965Y005548D01*
X023918Y005564D01*
X023872Y005585D01*
X023828Y005609D01*
X023786Y005636D01*
X023746Y005666D01*
X023709Y005700D01*
X023675Y005737D01*
X023643Y005776D01*
X023615Y005817D01*
X023590Y005861D01*
X023569Y005906D01*
X023552Y005953D01*
X023538Y006001D01*
X023528Y006050D01*
X023522Y006100D01*
X023520Y006150D01*
X023520Y014024D02*
X023522Y014074D01*
X023528Y014124D01*
X023538Y014173D01*
X023552Y014221D01*
X023569Y014268D01*
X023590Y014313D01*
X023615Y014357D01*
X023643Y014398D01*
X023675Y014437D01*
X023709Y014474D01*
X023746Y014508D01*
X023786Y014538D01*
X023828Y014565D01*
X023872Y014589D01*
X023918Y014610D01*
X023965Y014626D01*
X024013Y014639D01*
X024063Y014648D01*
X024112Y014653D01*
X024163Y014654D01*
X024213Y014651D01*
X024262Y014644D01*
X024311Y014633D01*
X024359Y014618D01*
X024405Y014600D01*
X024450Y014578D01*
X024493Y014552D01*
X024534Y014523D01*
X024573Y014491D01*
X024609Y014456D01*
X024641Y014418D01*
X024671Y014378D01*
X024698Y014335D01*
X024721Y014291D01*
X024740Y014245D01*
X024756Y014197D01*
X024768Y014148D01*
X024776Y014099D01*
X024780Y014049D01*
X024780Y013999D01*
X024776Y013949D01*
X024768Y013900D01*
X024756Y013851D01*
X024740Y013803D01*
X024721Y013757D01*
X024698Y013713D01*
X024671Y013670D01*
X024641Y013630D01*
X024609Y013592D01*
X024573Y013557D01*
X024534Y013525D01*
X024493Y013496D01*
X024450Y013470D01*
X024405Y013448D01*
X024359Y013430D01*
X024311Y013415D01*
X024262Y013404D01*
X024213Y013397D01*
X024163Y013394D01*
X024112Y013395D01*
X024063Y013400D01*
X024013Y013409D01*
X023965Y013422D01*
X023918Y013438D01*
X023872Y013459D01*
X023828Y013483D01*
X023786Y013510D01*
X023746Y013540D01*
X023709Y013574D01*
X023675Y013611D01*
X023643Y013650D01*
X023615Y013691D01*
X023590Y013735D01*
X023569Y013780D01*
X023552Y013827D01*
X023538Y013875D01*
X023528Y013924D01*
X023522Y013974D01*
X023520Y014024D01*
X046355Y014024D02*
X046357Y014074D01*
X046363Y014124D01*
X046373Y014173D01*
X046387Y014221D01*
X046404Y014268D01*
X046425Y014313D01*
X046450Y014357D01*
X046478Y014398D01*
X046510Y014437D01*
X046544Y014474D01*
X046581Y014508D01*
X046621Y014538D01*
X046663Y014565D01*
X046707Y014589D01*
X046753Y014610D01*
X046800Y014626D01*
X046848Y014639D01*
X046898Y014648D01*
X046947Y014653D01*
X046998Y014654D01*
X047048Y014651D01*
X047097Y014644D01*
X047146Y014633D01*
X047194Y014618D01*
X047240Y014600D01*
X047285Y014578D01*
X047328Y014552D01*
X047369Y014523D01*
X047408Y014491D01*
X047444Y014456D01*
X047476Y014418D01*
X047506Y014378D01*
X047533Y014335D01*
X047556Y014291D01*
X047575Y014245D01*
X047591Y014197D01*
X047603Y014148D01*
X047611Y014099D01*
X047615Y014049D01*
X047615Y013999D01*
X047611Y013949D01*
X047603Y013900D01*
X047591Y013851D01*
X047575Y013803D01*
X047556Y013757D01*
X047533Y013713D01*
X047506Y013670D01*
X047476Y013630D01*
X047444Y013592D01*
X047408Y013557D01*
X047369Y013525D01*
X047328Y013496D01*
X047285Y013470D01*
X047240Y013448D01*
X047194Y013430D01*
X047146Y013415D01*
X047097Y013404D01*
X047048Y013397D01*
X046998Y013394D01*
X046947Y013395D01*
X046898Y013400D01*
X046848Y013409D01*
X046800Y013422D01*
X046753Y013438D01*
X046707Y013459D01*
X046663Y013483D01*
X046621Y013510D01*
X046581Y013540D01*
X046544Y013574D01*
X046510Y013611D01*
X046478Y013650D01*
X046450Y013691D01*
X046425Y013735D01*
X046404Y013780D01*
X046387Y013827D01*
X046373Y013875D01*
X046363Y013924D01*
X046357Y013974D01*
X046355Y014024D01*
X046355Y006150D02*
X046357Y006200D01*
X046363Y006250D01*
X046373Y006299D01*
X046387Y006347D01*
X046404Y006394D01*
X046425Y006439D01*
X046450Y006483D01*
X046478Y006524D01*
X046510Y006563D01*
X046544Y006600D01*
X046581Y006634D01*
X046621Y006664D01*
X046663Y006691D01*
X046707Y006715D01*
X046753Y006736D01*
X046800Y006752D01*
X046848Y006765D01*
X046898Y006774D01*
X046947Y006779D01*
X046998Y006780D01*
X047048Y006777D01*
X047097Y006770D01*
X047146Y006759D01*
X047194Y006744D01*
X047240Y006726D01*
X047285Y006704D01*
X047328Y006678D01*
X047369Y006649D01*
X047408Y006617D01*
X047444Y006582D01*
X047476Y006544D01*
X047506Y006504D01*
X047533Y006461D01*
X047556Y006417D01*
X047575Y006371D01*
X047591Y006323D01*
X047603Y006274D01*
X047611Y006225D01*
X047615Y006175D01*
X047615Y006125D01*
X047611Y006075D01*
X047603Y006026D01*
X047591Y005977D01*
X047575Y005929D01*
X047556Y005883D01*
X047533Y005839D01*
X047506Y005796D01*
X047476Y005756D01*
X047444Y005718D01*
X047408Y005683D01*
X047369Y005651D01*
X047328Y005622D01*
X047285Y005596D01*
X047240Y005574D01*
X047194Y005556D01*
X047146Y005541D01*
X047097Y005530D01*
X047048Y005523D01*
X046998Y005520D01*
X046947Y005521D01*
X046898Y005526D01*
X046848Y005535D01*
X046800Y005548D01*
X046753Y005564D01*
X046707Y005585D01*
X046663Y005609D01*
X046621Y005636D01*
X046581Y005666D01*
X046544Y005700D01*
X046510Y005737D01*
X046478Y005776D01*
X046450Y005817D01*
X046425Y005861D01*
X046404Y005906D01*
X046387Y005953D01*
X046373Y006001D01*
X046363Y006050D01*
X046357Y006100D01*
X046355Y006150D01*
D11*
X041515Y013900D02*
X041515Y014740D01*
X041094Y014740D01*
X040954Y014600D01*
X040954Y014320D01*
X041094Y014180D01*
X041515Y014180D01*
X041848Y014180D02*
X042128Y014180D01*
X041988Y014180D02*
X041988Y014740D01*
X042128Y014740D01*
X041988Y015021D02*
X041988Y015161D01*
X042489Y014600D02*
X042629Y014740D01*
X042909Y014740D01*
X043049Y014600D01*
X043049Y014180D02*
X043049Y015021D01*
X043410Y014881D02*
X043550Y015021D01*
X043830Y015021D01*
X043970Y014881D01*
X043970Y014320D01*
X043830Y014180D01*
X043550Y014180D01*
X043410Y014320D01*
X042489Y014180D02*
X042489Y014600D01*
X040594Y014180D02*
X040314Y014460D01*
X040033Y014180D01*
X040033Y015021D01*
X039673Y015021D02*
X039673Y014180D01*
X039673Y014600D02*
X039533Y014740D01*
X039253Y014740D01*
X039113Y014600D01*
X039113Y014180D01*
X038752Y014180D02*
X038472Y014180D01*
X038612Y014180D02*
X038612Y014740D01*
X038752Y014740D01*
X038612Y015021D02*
X038612Y015161D01*
X038138Y014600D02*
X037998Y014740D01*
X037578Y014740D01*
X037718Y014460D02*
X037998Y014460D01*
X038138Y014600D01*
X038138Y014180D02*
X037718Y014180D01*
X037578Y014320D01*
X037718Y014460D01*
X037218Y014180D02*
X036797Y014180D01*
X036657Y014320D01*
X036657Y014600D01*
X036797Y014740D01*
X037218Y014740D01*
X037218Y013900D01*
X036297Y014320D02*
X036297Y014600D01*
X036157Y014740D01*
X035876Y014740D01*
X035736Y014600D01*
X035736Y014460D01*
X036297Y014460D01*
X036297Y014320D02*
X036157Y014180D01*
X035876Y014180D01*
X035376Y014180D02*
X035376Y014740D01*
X035376Y014460D02*
X035096Y014740D01*
X034956Y014740D01*
X034609Y014600D02*
X034469Y014740D01*
X034188Y014740D01*
X034048Y014600D01*
X034048Y014460D01*
X034609Y014460D01*
X034609Y014320D02*
X034609Y014600D01*
X034609Y014320D02*
X034469Y014180D01*
X034188Y014180D01*
X033688Y014180D02*
X033688Y014740D01*
X033688Y014460D02*
X033408Y014740D01*
X033268Y014740D01*
X032921Y014320D02*
X032780Y014320D01*
X032780Y014180D01*
X032921Y014180D01*
X032921Y014320D01*
X032460Y014320D02*
X032460Y014600D01*
X032320Y014740D01*
X031900Y014740D01*
X031539Y014600D02*
X031399Y014740D01*
X031119Y014740D01*
X030979Y014600D01*
X030979Y014320D01*
X031119Y014180D01*
X031399Y014180D01*
X031539Y014320D01*
X031539Y014600D01*
X031900Y014180D02*
X032320Y014180D01*
X032460Y014320D01*
X030619Y014180D02*
X030619Y014740D01*
X030478Y014740D01*
X030338Y014600D01*
X030198Y014740D01*
X030058Y014600D01*
X030058Y014180D01*
X030338Y014180D02*
X030338Y014600D01*
X040594Y015021D02*
X040594Y014180D01*
D12*
X040674Y013696D02*
X040477Y013696D01*
X040379Y013597D01*
X040477Y013400D02*
X040379Y013302D01*
X040379Y013203D01*
X040477Y013105D01*
X040674Y013105D01*
X040772Y013203D01*
X040674Y013400D02*
X040477Y013400D01*
X040674Y013400D02*
X040772Y013499D01*
X040772Y013597D01*
X040674Y013696D01*
X041220Y013696D02*
X041417Y013499D01*
X041220Y013696D02*
X041220Y013105D01*
X041417Y013105D02*
X041023Y013105D01*
X040128Y013105D02*
X039734Y013105D01*
X039483Y013105D02*
X039483Y013696D01*
X039188Y013696D01*
X039089Y013597D01*
X039089Y013400D01*
X039188Y013302D01*
X039483Y013302D01*
X039931Y013400D02*
X040128Y013400D01*
X040128Y013105D02*
X040128Y013696D01*
X039734Y013696D01*
X038839Y013696D02*
X038445Y013696D01*
X038642Y013696D02*
X038642Y013105D01*
X038194Y013105D02*
X037800Y013499D01*
X037800Y013597D01*
X037899Y013696D01*
X038096Y013696D01*
X038194Y013597D01*
X038194Y013105D02*
X037800Y013105D01*
X037550Y013203D02*
X037156Y013597D01*
X037156Y013203D01*
X037254Y013105D01*
X037451Y013105D01*
X037550Y013203D01*
X037550Y013597D01*
X037451Y013696D01*
X037254Y013696D01*
X037156Y013597D01*
X036905Y013499D02*
X036708Y013696D01*
X036708Y013105D01*
X036905Y013105D02*
X036511Y013105D01*
X036260Y013203D02*
X036162Y013105D01*
X035965Y013105D01*
X035867Y013203D01*
X035867Y013302D01*
X035965Y013400D01*
X036064Y013400D01*
X035965Y013400D02*
X035867Y013499D01*
X035867Y013597D01*
X035965Y013696D01*
X036162Y013696D01*
X036260Y013597D01*
X042312Y013499D02*
X042509Y013105D01*
X042706Y013499D01*
X042957Y013400D02*
X042957Y013302D01*
X043350Y013302D01*
X043350Y013400D02*
X043350Y013203D01*
X043252Y013105D01*
X043055Y013105D01*
X042957Y013400D02*
X043055Y013499D01*
X043252Y013499D01*
X043350Y013400D01*
X043601Y013400D02*
X043700Y013302D01*
X043995Y013302D01*
X043798Y013302D02*
X043601Y013105D01*
X043601Y013400D02*
X043601Y013597D01*
X043700Y013696D01*
X043995Y013696D01*
X043995Y013105D01*
D13*
X043950Y010441D02*
X043950Y009720D01*
X044190Y009960D01*
X044430Y009720D01*
X044430Y010441D01*
X043638Y010200D02*
X043638Y009720D01*
X043638Y010080D02*
X043158Y010080D01*
X043158Y010200D02*
X043158Y009720D01*
X042846Y009720D02*
X042846Y010441D01*
X042486Y010441D01*
X042366Y010321D01*
X042366Y010080D01*
X042486Y009960D01*
X042846Y009960D01*
X042606Y009960D02*
X042366Y009720D01*
X042054Y009720D02*
X042054Y010441D01*
X041574Y009720D01*
X041574Y010441D01*
X041262Y010441D02*
X041022Y010441D01*
X041142Y010441D02*
X041142Y009720D01*
X041262Y009720D02*
X041022Y009720D01*
X040735Y009720D02*
X040735Y010441D01*
X040254Y009720D01*
X040254Y010441D01*
X039943Y010321D02*
X039943Y009840D01*
X039823Y009720D01*
X039582Y009720D01*
X039462Y009840D01*
X039462Y010080D01*
X039702Y010080D01*
X039462Y010321D02*
X039582Y010441D01*
X039823Y010441D01*
X039943Y010321D01*
X039151Y010200D02*
X039151Y010080D01*
X039031Y010080D01*
X039031Y010200D01*
X039151Y010200D01*
X039151Y009840D02*
X039151Y009720D01*
X039031Y009720D01*
X039031Y009840D01*
X039151Y009840D01*
X043158Y010200D02*
X043398Y010441D01*
X043638Y010200D01*
D14*
X043539Y009270D02*
X043539Y009060D01*
X043469Y008990D01*
X043259Y008990D01*
X043259Y009270D01*
X043719Y009200D02*
X043789Y009270D01*
X043930Y009270D01*
X044000Y009200D01*
X044000Y009060D01*
X043930Y008990D01*
X043789Y008990D01*
X043719Y009060D01*
X043719Y009200D01*
X044180Y009340D02*
X044180Y009410D01*
X044180Y009340D02*
X044320Y009200D01*
X044320Y008990D01*
X044320Y009200D02*
X044460Y009340D01*
X044460Y009410D01*
X044460Y008660D02*
X044460Y008240D01*
X044250Y008240D01*
X044180Y008310D01*
X044180Y008450D01*
X044250Y008520D01*
X044460Y008520D01*
X044000Y008520D02*
X044000Y008310D01*
X043930Y008240D01*
X043719Y008240D01*
X043719Y008170D02*
X043719Y008520D01*
X043719Y008170D02*
X043789Y008100D01*
X043859Y008100D01*
X043789Y007770D02*
X043719Y007700D01*
X043719Y007490D01*
X043930Y007490D01*
X044000Y007560D01*
X043930Y007630D01*
X043719Y007630D01*
X043789Y007770D02*
X043930Y007770D01*
X044180Y007700D02*
X044180Y007490D01*
X044320Y007490D02*
X044320Y007700D01*
X044250Y007770D01*
X044180Y007700D01*
X044320Y007700D02*
X044390Y007770D01*
X044460Y007770D01*
X044460Y007490D01*
X043539Y007490D02*
X043539Y007770D01*
X043329Y007770D01*
X043259Y007700D01*
X043259Y007490D01*
X043079Y007560D02*
X043009Y007490D01*
X042799Y007490D01*
X042799Y007770D01*
X042548Y007770D02*
X042408Y007770D01*
X042338Y007700D01*
X042338Y007490D01*
X042548Y007490D01*
X042618Y007560D01*
X042548Y007630D01*
X042338Y007630D01*
X042158Y007490D02*
X042018Y007490D01*
X042088Y007490D02*
X042088Y007910D01*
X042158Y007910D01*
X042018Y008240D02*
X042088Y008310D01*
X042088Y008590D01*
X042158Y008520D02*
X042018Y008520D01*
X041851Y008520D02*
X041711Y008520D01*
X041781Y008590D02*
X041781Y008310D01*
X041711Y008240D01*
X041544Y008240D02*
X041404Y008240D01*
X041474Y008240D02*
X041474Y008520D01*
X041544Y008520D01*
X041474Y008660D02*
X041474Y008730D01*
X041417Y008990D02*
X041417Y009200D01*
X041487Y009270D01*
X041698Y009270D01*
X041698Y008990D01*
X041878Y008990D02*
X042088Y008990D01*
X042158Y009060D01*
X042088Y009130D01*
X041878Y009130D01*
X041878Y009200D02*
X041878Y008990D01*
X041878Y009200D02*
X041948Y009270D01*
X042088Y009270D01*
X042338Y009270D02*
X042548Y009270D01*
X042618Y009200D01*
X042618Y009060D01*
X042548Y008990D01*
X042338Y008990D01*
X042408Y008520D02*
X042338Y008450D01*
X042338Y008380D01*
X042618Y008380D01*
X042618Y008310D02*
X042618Y008450D01*
X042548Y008520D01*
X042408Y008520D01*
X042408Y008240D02*
X042548Y008240D01*
X042618Y008310D01*
X042799Y008310D02*
X042869Y008380D01*
X043009Y008380D01*
X043079Y008450D01*
X043009Y008520D01*
X042799Y008520D01*
X042799Y008310D02*
X042869Y008240D01*
X043079Y008240D01*
X043079Y007770D02*
X043079Y007560D01*
X041391Y007560D02*
X041321Y007490D01*
X041181Y007490D01*
X041110Y007560D01*
X041110Y007700D01*
X041181Y007770D01*
X041321Y007770D01*
X041391Y007700D01*
X041391Y007560D01*
X040930Y007490D02*
X040930Y007770D01*
X040720Y007770D01*
X040650Y007700D01*
X040650Y007490D01*
X040470Y007490D02*
X040330Y007490D01*
X040400Y007490D02*
X040400Y007910D01*
X040470Y007910D01*
X040567Y008100D02*
X040497Y008170D01*
X040497Y008520D01*
X040707Y008520D01*
X040777Y008450D01*
X040777Y008310D01*
X040707Y008240D01*
X040497Y008240D01*
X040567Y008100D02*
X040637Y008100D01*
X040957Y008240D02*
X040957Y008450D01*
X041027Y008520D01*
X041237Y008520D01*
X041237Y008240D01*
X040777Y008990D02*
X040567Y008990D01*
X040497Y009060D01*
X040567Y009130D01*
X040707Y009130D01*
X040777Y009200D01*
X040707Y009270D01*
X040497Y009270D01*
X040316Y009200D02*
X040246Y009270D01*
X040106Y009270D01*
X040036Y009200D01*
X040036Y009130D01*
X040316Y009130D01*
X040316Y009060D02*
X040316Y009200D01*
X040316Y009060D02*
X040246Y008990D01*
X040106Y008990D01*
X039856Y009270D02*
X039716Y008990D01*
X039576Y009270D01*
X039396Y009200D02*
X039326Y009270D01*
X039186Y009270D01*
X039115Y009200D01*
X039115Y009130D01*
X039396Y009130D01*
X039396Y009060D02*
X039396Y009200D01*
X039396Y009060D02*
X039326Y008990D01*
X039186Y008990D01*
X038935Y008990D02*
X038935Y009270D01*
X038795Y009270D02*
X038725Y009270D01*
X038795Y009270D02*
X038935Y009130D01*
X038552Y008990D02*
X038412Y008990D01*
X038482Y008990D02*
X038482Y009410D01*
X038552Y009410D01*
X038245Y009270D02*
X038245Y009060D01*
X038175Y008990D01*
X037964Y008990D01*
X037964Y008920D02*
X038035Y008850D01*
X038105Y008850D01*
X037964Y008920D02*
X037964Y009270D01*
X037324Y009200D02*
X037254Y009270D01*
X037044Y009270D01*
X037044Y009410D02*
X037044Y008990D01*
X037254Y008990D01*
X037324Y009060D01*
X037324Y009200D01*
X036864Y009060D02*
X036793Y009130D01*
X036583Y009130D01*
X036583Y009200D02*
X036583Y008990D01*
X036793Y008990D01*
X036864Y009060D01*
X036793Y009270D02*
X036653Y009270D01*
X036583Y009200D01*
X036403Y009270D02*
X036403Y008990D01*
X036263Y008990D02*
X036263Y009200D01*
X036193Y009270D01*
X036123Y009200D01*
X036123Y008990D01*
X035943Y009060D02*
X035873Y009130D01*
X035663Y009130D01*
X035663Y009200D02*
X035663Y008990D01*
X035873Y008990D01*
X035943Y009060D01*
X035873Y009270D02*
X035733Y009270D01*
X035663Y009200D01*
X035482Y009200D02*
X035482Y009060D01*
X035412Y008990D01*
X035202Y008990D01*
X035202Y008920D02*
X035202Y009270D01*
X035412Y009270D01*
X035482Y009200D01*
X035342Y008850D02*
X035272Y008850D01*
X035202Y008920D01*
X035022Y009060D02*
X035022Y009200D01*
X034952Y009270D01*
X034812Y009270D01*
X034742Y009200D01*
X034742Y009130D01*
X035022Y009130D01*
X035022Y009060D02*
X034952Y008990D01*
X034812Y008990D01*
X034101Y009270D02*
X033961Y009270D01*
X034031Y009340D02*
X034031Y009060D01*
X033961Y008990D01*
X033794Y008990D02*
X033794Y009410D01*
X033724Y009270D02*
X033584Y009270D01*
X033514Y009200D01*
X033514Y008990D01*
X033334Y008990D02*
X033194Y008990D01*
X033264Y008990D02*
X033264Y009270D01*
X033334Y009270D01*
X033264Y009410D02*
X033264Y009480D01*
X033027Y009200D02*
X032957Y009130D01*
X032817Y009130D01*
X032747Y009060D01*
X032817Y008990D01*
X033027Y008990D01*
X033027Y009200D02*
X032957Y009270D01*
X032747Y009270D01*
X032106Y009270D02*
X031896Y009270D01*
X031826Y009200D01*
X031826Y009060D01*
X031896Y008990D01*
X032106Y008990D01*
X032106Y009410D01*
X031646Y009200D02*
X031646Y009060D01*
X031576Y008990D01*
X031436Y008990D01*
X031366Y009060D01*
X031366Y009200D01*
X031436Y009270D01*
X031576Y009270D01*
X031646Y009200D01*
X031185Y009060D02*
X031115Y009130D01*
X030905Y009130D01*
X030905Y009200D02*
X030905Y008990D01*
X031115Y008990D01*
X031185Y009060D01*
X031115Y009270D02*
X030975Y009270D01*
X030905Y009200D01*
X030725Y009130D02*
X030585Y009270D01*
X030515Y009270D01*
X030341Y009200D02*
X030271Y009270D01*
X030061Y009270D01*
X030061Y009410D02*
X030061Y008990D01*
X030271Y008990D01*
X030341Y009060D01*
X030341Y009200D01*
X030725Y009270D02*
X030725Y008990D01*
X031826Y008660D02*
X031826Y008240D01*
X032036Y008240D01*
X032106Y008310D01*
X032106Y008450D01*
X032036Y008520D01*
X031826Y008520D01*
X032286Y008450D02*
X032286Y008240D01*
X032496Y008240D01*
X032567Y008310D01*
X032496Y008380D01*
X032286Y008380D01*
X032286Y008450D02*
X032356Y008520D01*
X032496Y008520D01*
X032747Y008450D02*
X032747Y008380D01*
X033027Y008380D01*
X033027Y008310D02*
X033027Y008450D01*
X032957Y008520D01*
X032817Y008520D01*
X032747Y008450D01*
X032817Y008240D02*
X032957Y008240D01*
X033027Y008310D01*
X033207Y008240D02*
X033347Y008380D01*
X033277Y008380D02*
X033487Y008380D01*
X033487Y008240D02*
X033487Y008660D01*
X033277Y008660D01*
X033207Y008590D01*
X033207Y008450D01*
X033277Y008380D01*
X034108Y008310D02*
X034108Y008240D01*
X034178Y008240D01*
X034178Y008310D01*
X034108Y008310D01*
X034358Y008240D02*
X034568Y008240D01*
X034638Y008310D01*
X034638Y008450D01*
X034568Y008520D01*
X034358Y008520D01*
X034358Y008170D01*
X034428Y008100D01*
X034498Y008100D01*
X034492Y007770D02*
X034351Y007770D01*
X034281Y007700D01*
X034281Y007630D01*
X034562Y007630D01*
X034562Y007560D02*
X034562Y007700D01*
X034492Y007770D01*
X034562Y007560D02*
X034492Y007490D01*
X034351Y007490D01*
X034101Y007490D02*
X034031Y007490D01*
X034031Y007560D01*
X034101Y007560D01*
X034101Y007490D01*
X034742Y007560D02*
X034812Y007630D01*
X034952Y007630D01*
X035022Y007700D01*
X034952Y007770D01*
X034742Y007770D01*
X034742Y007560D02*
X034812Y007490D01*
X035022Y007490D01*
X035202Y007490D02*
X035202Y007770D01*
X035202Y007490D02*
X035412Y007490D01*
X035482Y007560D01*
X035482Y007770D01*
X036123Y007700D02*
X036123Y007630D01*
X036403Y007630D01*
X036403Y007560D02*
X036403Y007700D01*
X036333Y007770D01*
X036193Y007770D01*
X036123Y007700D01*
X036193Y007490D02*
X036333Y007490D01*
X036403Y007560D01*
X036577Y007770D02*
X036647Y007770D01*
X036787Y007630D01*
X036787Y007490D02*
X036787Y007770D01*
X036967Y007700D02*
X037037Y007770D01*
X037177Y007770D01*
X037247Y007700D01*
X037247Y007560D01*
X037177Y007490D01*
X037037Y007490D01*
X036967Y007560D01*
X036967Y007700D01*
X037414Y007700D02*
X037554Y007700D01*
X037484Y007840D02*
X037414Y007910D01*
X037484Y007840D02*
X037484Y007490D01*
X037734Y007630D02*
X038015Y007630D01*
X038015Y007560D02*
X038015Y007700D01*
X037944Y007770D01*
X037804Y007770D01*
X037734Y007700D01*
X037734Y007630D01*
X037804Y007490D02*
X037944Y007490D01*
X038015Y007560D01*
X038195Y007560D02*
X038195Y007700D01*
X038265Y007770D01*
X038475Y007770D01*
X038475Y007910D02*
X038475Y007490D01*
X038265Y007490D01*
X038195Y007560D01*
X038628Y008100D02*
X038628Y008520D01*
X038418Y008520D01*
X038348Y008450D01*
X038348Y008310D01*
X038418Y008240D01*
X038628Y008240D01*
X038809Y008240D02*
X038809Y008450D01*
X038879Y008520D01*
X038949Y008450D01*
X038949Y008240D01*
X039089Y008240D02*
X039089Y008520D01*
X039019Y008520D01*
X038949Y008450D01*
X039269Y008520D02*
X039269Y008240D01*
X039479Y008240D01*
X039549Y008310D01*
X039549Y008520D01*
X039716Y008520D02*
X039716Y008170D01*
X039786Y008100D01*
X039856Y008100D01*
X040093Y007980D02*
X040093Y007910D01*
X040093Y007770D02*
X040093Y007490D01*
X040163Y007490D02*
X040023Y007490D01*
X039856Y007490D02*
X039856Y007770D01*
X039646Y007770D01*
X039576Y007700D01*
X039576Y007490D01*
X039396Y007560D02*
X039396Y007700D01*
X039326Y007770D01*
X039186Y007770D01*
X039115Y007700D01*
X039115Y007630D01*
X039396Y007630D01*
X039396Y007560D02*
X039326Y007490D01*
X039186Y007490D01*
X040093Y007770D02*
X040163Y007770D01*
X039716Y008660D02*
X039716Y008730D01*
X038168Y008450D02*
X038098Y008520D01*
X037958Y008520D01*
X037888Y008450D01*
X037888Y008380D01*
X038168Y008380D01*
X038168Y008310D02*
X038168Y008450D01*
X038168Y008310D02*
X038098Y008240D01*
X037958Y008240D01*
X037708Y008240D02*
X037708Y008520D01*
X037708Y008380D02*
X037567Y008520D01*
X037497Y008520D01*
X037324Y008450D02*
X037254Y008520D01*
X037044Y008520D01*
X037114Y008380D02*
X037254Y008380D01*
X037324Y008450D01*
X037324Y008240D02*
X037114Y008240D01*
X037044Y008310D01*
X037114Y008380D01*
X036403Y008310D02*
X036333Y008240D01*
X036263Y008310D01*
X036193Y008240D01*
X036123Y008310D01*
X036123Y008520D01*
X035943Y008520D02*
X035943Y008240D01*
X035943Y008380D02*
X035803Y008520D01*
X035733Y008520D01*
X035559Y008450D02*
X035559Y008310D01*
X035489Y008240D01*
X035349Y008240D01*
X035279Y008310D01*
X035279Y008450D01*
X035349Y008520D01*
X035489Y008520D01*
X035559Y008450D01*
X035099Y008520D02*
X034889Y008520D01*
X034818Y008450D01*
X034818Y008240D01*
X035099Y008240D02*
X035099Y008520D01*
X033794Y009200D02*
X033724Y009270D01*
X036263Y009200D02*
X036333Y009270D01*
X036403Y009270D01*
X036403Y008520D02*
X036403Y008310D01*
D15*
X022780Y008547D02*
X022704Y008470D01*
X022397Y008470D01*
X022320Y008547D01*
X022320Y008700D01*
X022397Y008777D01*
X022550Y008930D02*
X022550Y009237D01*
X022320Y009161D02*
X022780Y009161D01*
X022550Y008930D01*
X022704Y008777D02*
X022780Y008700D01*
X022780Y008547D01*
X021730Y008547D02*
X021654Y008470D01*
X021347Y008470D01*
X021270Y008547D01*
X021270Y008700D01*
X021347Y008777D01*
X021270Y008930D02*
X021270Y009237D01*
X021270Y009084D02*
X021730Y009084D01*
X021577Y008930D01*
X021654Y008777D02*
X021730Y008700D01*
X021730Y008547D01*
X014151Y008230D02*
X014151Y007770D01*
X014151Y007923D02*
X013921Y007923D01*
X013844Y008000D01*
X013844Y008154D01*
X013921Y008230D01*
X014151Y008230D01*
X013997Y007923D02*
X013844Y007770D01*
X013690Y007770D02*
X013383Y008077D01*
X013383Y008154D01*
X013460Y008230D01*
X013614Y008230D01*
X013690Y008154D01*
X013690Y007770D02*
X013383Y007770D01*
X012154Y011549D02*
X011847Y011549D01*
X011770Y011626D01*
X011770Y011779D01*
X011847Y011856D01*
X011847Y012010D02*
X011770Y012086D01*
X011770Y012240D01*
X011847Y012317D01*
X011923Y012317D01*
X012000Y012240D01*
X012000Y012163D01*
X012000Y012240D02*
X012077Y012317D01*
X012154Y012317D01*
X012230Y012240D01*
X012230Y012086D01*
X012154Y012010D01*
X012154Y011856D02*
X012230Y011779D01*
X012230Y011626D01*
X012154Y011549D01*
X011330Y011626D02*
X011254Y011549D01*
X010947Y011549D01*
X010870Y011626D01*
X010870Y011779D01*
X010947Y011856D01*
X010870Y012010D02*
X011177Y012317D01*
X011254Y012317D01*
X011330Y012240D01*
X011330Y012086D01*
X011254Y012010D01*
X011254Y011856D02*
X011330Y011779D01*
X011330Y011626D01*
X010870Y012010D02*
X010870Y012317D01*
X013483Y011870D02*
X013790Y011870D01*
X013637Y011870D02*
X013637Y012330D01*
X013790Y012177D01*
X013944Y012254D02*
X013944Y012100D01*
X014021Y012023D01*
X014251Y012023D01*
X014251Y011870D02*
X014251Y012330D01*
X014021Y012330D01*
X013944Y012254D01*
X014097Y012023D02*
X013944Y011870D01*
X006830Y011797D02*
X006754Y011720D01*
X006447Y011720D01*
X006370Y011797D01*
X006370Y011950D01*
X006447Y012027D01*
X006370Y012180D02*
X006677Y012487D01*
X006754Y012487D01*
X006830Y012411D01*
X006830Y012257D01*
X006754Y012180D01*
X006754Y012027D02*
X006830Y011950D01*
X006830Y011797D01*
X006370Y012180D02*
X006370Y012487D01*
X006447Y012641D02*
X006370Y012718D01*
X006370Y012871D01*
X006447Y012948D01*
X006523Y012948D01*
X006600Y012871D01*
X006600Y012641D01*
X006447Y012641D01*
X006600Y012641D02*
X006754Y012794D01*
X006830Y012948D01*
X006230Y012821D02*
X006154Y012898D01*
X006077Y012898D01*
X006000Y012821D01*
X005923Y012898D01*
X005847Y012898D01*
X005770Y012821D01*
X005770Y012668D01*
X005847Y012591D01*
X005770Y012437D02*
X005770Y012130D01*
X006077Y012437D01*
X006154Y012437D01*
X006230Y012361D01*
X006230Y012207D01*
X006154Y012130D01*
X006154Y011977D02*
X006230Y011900D01*
X006230Y011747D01*
X006154Y011670D01*
X005847Y011670D01*
X005770Y011747D01*
X005770Y011900D01*
X005847Y011977D01*
X006154Y012591D02*
X006230Y012668D01*
X006230Y012821D01*
X006000Y012821D02*
X006000Y012744D01*
X004230Y013416D02*
X004154Y013339D01*
X003847Y013339D01*
X003770Y013416D01*
X003770Y013569D01*
X003847Y013646D01*
X003770Y013799D02*
X003770Y014106D01*
X003770Y013953D02*
X004230Y013953D01*
X004077Y013799D01*
X004154Y013646D02*
X004230Y013569D01*
X004230Y013416D01*
X004154Y014260D02*
X004077Y014260D01*
X004000Y014336D01*
X004000Y014567D01*
X003847Y014567D02*
X004154Y014567D01*
X004230Y014490D01*
X004230Y014336D01*
X004154Y014260D01*
X003847Y014260D02*
X003770Y014336D01*
X003770Y014490D01*
X003847Y014567D01*
X002290Y012925D02*
X002019Y013196D01*
X001802Y012979D02*
X002073Y012708D01*
X002182Y012708D01*
X002290Y012816D01*
X002290Y012925D01*
X002019Y012545D02*
X001802Y012328D01*
X001910Y012436D02*
X001585Y012762D01*
X001802Y012762D01*
X002620Y011367D02*
X002620Y011060D01*
X002620Y011213D02*
X003080Y011213D01*
X002927Y011060D01*
X002927Y010906D02*
X003004Y010906D01*
X003080Y010829D01*
X003080Y010676D01*
X003004Y010599D01*
X003004Y010446D02*
X003080Y010369D01*
X003080Y010216D01*
X003004Y010139D01*
X002697Y010139D01*
X002620Y010216D01*
X002620Y010369D01*
X002697Y010446D01*
X002620Y010599D02*
X002927Y010906D01*
X002620Y010906D02*
X002620Y010599D01*
X001604Y008517D02*
X001297Y008210D01*
X001220Y008286D01*
X001220Y008440D01*
X001297Y008517D01*
X001604Y008517D01*
X001680Y008440D01*
X001680Y008286D01*
X001604Y008210D01*
X001297Y008210D01*
X001220Y008056D02*
X001220Y007749D01*
X001527Y008056D01*
X001604Y008056D01*
X001680Y007979D01*
X001680Y007826D01*
X001604Y007749D01*
X001604Y007596D02*
X001680Y007519D01*
X001680Y007366D01*
X001604Y007289D01*
X001297Y007289D01*
X001220Y007366D01*
X001220Y007519D01*
X001297Y007596D01*
X002119Y006896D02*
X002390Y006625D01*
X002390Y006516D01*
X002282Y006408D01*
X002173Y006408D01*
X001902Y006679D01*
X001848Y006516D02*
X001739Y006516D01*
X001631Y006408D01*
X001631Y006299D01*
X001685Y006245D01*
X002119Y006245D01*
X001902Y006028D01*
X002420Y005917D02*
X002420Y005610D01*
X002727Y005917D01*
X002804Y005917D01*
X002880Y005840D01*
X002880Y005686D01*
X002804Y005610D01*
X002804Y005456D02*
X002880Y005379D01*
X002880Y005226D01*
X002804Y005149D01*
X002804Y004996D02*
X002880Y004919D01*
X002880Y004766D01*
X002804Y004689D01*
X002497Y004689D01*
X002420Y004766D01*
X002420Y004919D01*
X002497Y004996D01*
X002420Y005149D02*
X002727Y005456D01*
X002804Y005456D01*
X002420Y005456D02*
X002420Y005149D01*
X004520Y006847D02*
X004597Y006770D01*
X004904Y006770D01*
X004980Y006847D01*
X004980Y007000D01*
X004904Y007077D01*
X004904Y007230D02*
X004980Y007307D01*
X004980Y007461D01*
X004904Y007537D01*
X004827Y007537D01*
X004520Y007230D01*
X004520Y007537D01*
X004750Y007691D02*
X004750Y007998D01*
X004520Y007921D02*
X004980Y007921D01*
X004750Y007691D01*
X005170Y007768D02*
X005170Y007921D01*
X005247Y007998D01*
X005400Y007998D01*
X005477Y007921D01*
X005477Y007844D01*
X005400Y007691D01*
X005630Y007691D01*
X005630Y007998D01*
X005554Y007537D02*
X005630Y007461D01*
X005630Y007307D01*
X005554Y007230D01*
X005554Y007077D02*
X005630Y007000D01*
X005630Y006847D01*
X005554Y006770D01*
X005247Y006770D01*
X005170Y006847D01*
X005170Y007000D01*
X005247Y007077D01*
X005170Y007230D02*
X005477Y007537D01*
X005554Y007537D01*
X005247Y007691D02*
X005170Y007768D01*
X005170Y007537D02*
X005170Y007230D01*
X004597Y007077D02*
X004520Y007000D01*
X004520Y006847D01*
X011329Y018670D02*
X011329Y019130D01*
X011559Y018900D01*
X011252Y018900D01*
X011713Y018670D02*
X012020Y018670D01*
X011866Y018670D02*
X011866Y019130D01*
X012020Y018977D01*
X012173Y019054D02*
X012250Y019130D01*
X012403Y019130D01*
X012480Y019054D01*
X012480Y018747D01*
X012403Y018670D01*
X012250Y018670D01*
X012173Y018747D01*
X012250Y019470D02*
X012173Y019547D01*
X012250Y019470D02*
X012403Y019470D01*
X012480Y019547D01*
X012480Y019854D01*
X012403Y019930D01*
X012250Y019930D01*
X012173Y019854D01*
X012020Y019777D02*
X011866Y019930D01*
X011866Y019470D01*
X011713Y019470D02*
X012020Y019470D01*
X011559Y019470D02*
X011252Y019777D01*
X011252Y019854D01*
X011329Y019930D01*
X011482Y019930D01*
X011559Y019854D01*
X011532Y020170D02*
X011609Y020247D01*
X011532Y020170D02*
X011379Y020170D01*
X011302Y020247D01*
X011302Y020323D01*
X011379Y020400D01*
X011456Y020400D01*
X011379Y020400D02*
X011302Y020477D01*
X011302Y020554D01*
X011379Y020630D01*
X011532Y020630D01*
X011609Y020554D01*
X011916Y020630D02*
X012070Y020477D01*
X012223Y020554D02*
X012300Y020630D01*
X012453Y020630D01*
X012530Y020554D01*
X012530Y020247D01*
X012453Y020170D01*
X012300Y020170D01*
X012223Y020247D01*
X012070Y020170D02*
X011763Y020170D01*
X011916Y020170D02*
X011916Y020630D01*
X013220Y021520D02*
X013680Y021520D01*
X013680Y021750D01*
X013604Y021827D01*
X013450Y021827D01*
X013373Y021750D01*
X013373Y021520D01*
X013373Y021673D02*
X013220Y021827D01*
X013297Y021980D02*
X013220Y022057D01*
X013220Y022211D01*
X013297Y022287D01*
X013450Y022287D01*
X013527Y022211D01*
X013527Y022134D01*
X013450Y021980D01*
X013680Y021980D01*
X013680Y022287D01*
X011559Y019470D02*
X011252Y019470D01*
X008180Y021520D02*
X007720Y021520D01*
X007873Y021520D02*
X007873Y021750D01*
X007950Y021827D01*
X008104Y021827D01*
X008180Y021750D01*
X008180Y021520D01*
X007873Y021673D02*
X007720Y021827D01*
X007797Y021980D02*
X007720Y022057D01*
X007720Y022211D01*
X007797Y022287D01*
X007873Y022287D01*
X007950Y022211D01*
X007950Y021980D01*
X007797Y021980D01*
X007950Y021980D02*
X008104Y022134D01*
X008180Y022287D01*
X008947Y025989D02*
X008870Y026066D01*
X008870Y026219D01*
X008947Y026296D01*
X008870Y026449D02*
X008870Y026756D01*
X008870Y026603D02*
X009330Y026603D01*
X009177Y026449D01*
X009254Y026296D02*
X009330Y026219D01*
X009330Y026066D01*
X009254Y025989D01*
X008947Y025989D01*
X008870Y026910D02*
X008870Y027217D01*
X008870Y027063D02*
X009330Y027063D01*
X009177Y026910D01*
X014063Y028147D02*
X014139Y028070D01*
X014293Y028070D01*
X014370Y028147D01*
X014370Y028223D01*
X014293Y028300D01*
X014139Y028300D01*
X014063Y028223D01*
X014063Y028147D01*
X014139Y028300D02*
X014063Y028377D01*
X014063Y028454D01*
X014139Y028530D01*
X014293Y028530D01*
X014370Y028454D01*
X014370Y028377D01*
X014293Y028300D01*
X014523Y028300D02*
X014600Y028223D01*
X014830Y028223D01*
X014830Y028070D02*
X014830Y028530D01*
X014600Y028530D01*
X014523Y028454D01*
X014523Y028300D01*
X014677Y028223D02*
X014523Y028070D01*
X014373Y029120D02*
X014527Y029273D01*
X014450Y029273D02*
X014680Y029273D01*
X014680Y029120D02*
X014680Y029580D01*
X014450Y029580D01*
X014373Y029504D01*
X014373Y029350D01*
X014450Y029273D01*
X014220Y029197D02*
X014220Y029120D01*
X014220Y029197D02*
X013913Y029504D01*
X013913Y029580D01*
X014220Y029580D01*
X020633Y027404D02*
X020940Y027097D01*
X020864Y027020D01*
X020710Y027020D01*
X020633Y027097D01*
X020633Y027404D01*
X020710Y027480D01*
X020864Y027480D01*
X020940Y027404D01*
X020940Y027097D01*
X021094Y027020D02*
X021401Y027020D01*
X021554Y027020D02*
X021708Y027173D01*
X021631Y027173D02*
X021861Y027173D01*
X021861Y027020D02*
X021861Y027480D01*
X021631Y027480D01*
X021554Y027404D01*
X021554Y027250D01*
X021631Y027173D01*
X021401Y027327D02*
X021247Y027480D01*
X021247Y027020D01*
X031413Y023004D02*
X031413Y022697D01*
X031489Y022620D01*
X031643Y022620D01*
X031720Y022697D01*
X031873Y022697D02*
X031950Y022620D01*
X032103Y022620D01*
X032180Y022697D01*
X032180Y023004D01*
X032103Y023080D01*
X031950Y023080D01*
X031873Y023004D01*
X031720Y023004D02*
X031720Y022927D01*
X031643Y022850D01*
X031413Y022850D01*
X031413Y023004D02*
X031489Y023080D01*
X031643Y023080D01*
X031720Y023004D01*
X031643Y022230D02*
X031489Y022230D01*
X031413Y022154D01*
X031413Y022077D01*
X031489Y022000D01*
X031643Y022000D01*
X031720Y022077D01*
X031720Y022154D01*
X031643Y022230D01*
X031643Y022000D02*
X031720Y021923D01*
X031720Y021847D01*
X031643Y021770D01*
X031489Y021770D01*
X031413Y021847D01*
X031413Y021923D01*
X031489Y022000D01*
X031873Y021847D02*
X031950Y021770D01*
X032103Y021770D01*
X032180Y021847D01*
X032180Y022154D01*
X032103Y022230D01*
X031950Y022230D01*
X031873Y022154D01*
X032447Y019567D02*
X032370Y019490D01*
X032370Y019336D01*
X032447Y019260D01*
X032370Y019106D02*
X032523Y018953D01*
X032523Y019029D02*
X032523Y018799D01*
X032370Y018799D02*
X032830Y018799D01*
X032830Y019029D01*
X032754Y019106D01*
X032600Y019106D01*
X032523Y019029D01*
X032754Y019260D02*
X032830Y019336D01*
X032830Y019490D01*
X032754Y019567D01*
X032677Y019567D01*
X032600Y019490D01*
X032523Y019567D01*
X032447Y019567D01*
X032600Y019490D02*
X032600Y019413D01*
X028730Y019590D02*
X028500Y019360D01*
X028500Y019667D01*
X028270Y019590D02*
X028730Y019590D01*
X028654Y019206D02*
X028500Y019206D01*
X028423Y019129D01*
X028423Y018899D01*
X028270Y018899D02*
X028730Y018899D01*
X028730Y019129D01*
X028654Y019206D01*
X028423Y019053D02*
X028270Y019206D01*
X036183Y021870D02*
X036490Y021870D01*
X036337Y021870D02*
X036337Y022330D01*
X036490Y022177D01*
X036644Y021870D02*
X036951Y021870D01*
X037104Y021870D02*
X037258Y022023D01*
X037181Y022023D02*
X037411Y022023D01*
X037411Y021870D02*
X037411Y022330D01*
X037181Y022330D01*
X037104Y022254D01*
X037104Y022100D01*
X037181Y022023D01*
X036951Y022177D02*
X036797Y022330D01*
X036797Y021870D01*
X036763Y023170D02*
X037070Y023170D01*
X037223Y023170D02*
X037377Y023323D01*
X037300Y023323D02*
X037530Y023323D01*
X037530Y023170D02*
X037530Y023630D01*
X037300Y023630D01*
X037223Y023554D01*
X037223Y023400D01*
X037300Y023323D01*
X037070Y023477D02*
X036916Y023630D01*
X036916Y023170D01*
X036609Y023170D02*
X036302Y023477D01*
X036302Y023554D01*
X036379Y023630D01*
X036532Y023630D01*
X036609Y023554D01*
X036609Y023170D02*
X036302Y023170D01*
X038510Y030070D02*
X038664Y030070D01*
X038740Y030147D01*
X038740Y030300D02*
X038587Y030377D01*
X038510Y030377D01*
X038433Y030300D01*
X038433Y030147D01*
X038510Y030070D01*
X038740Y030300D02*
X038740Y030530D01*
X038433Y030530D01*
X038894Y030454D02*
X038971Y030530D01*
X039124Y030530D01*
X039201Y030454D01*
X039201Y030147D01*
X039124Y030070D01*
X038971Y030070D01*
X038894Y030147D01*
D16*
X004090Y012612D02*
X003311Y013391D01*
X003311Y007191D02*
X004090Y006412D01*
M02*
