G75*
%MOIN*%
%OFA0B0*%
%FSLAX24Y24*%
%IPPOS*%
%LPD*%
%AMOC8*
5,1,8,0,0,1.08239X$1,22.5*
%
%ADD10C,0.0000*%
D10*
X000650Y000650D02*
X000650Y034020D01*
X049142Y034020D01*
X049142Y000650D01*
X000650Y000650D01*
X023520Y006150D02*
X023522Y006200D01*
X023528Y006250D01*
X023538Y006299D01*
X023552Y006347D01*
X023569Y006394D01*
X023590Y006439D01*
X023615Y006483D01*
X023643Y006524D01*
X023675Y006563D01*
X023709Y006600D01*
X023746Y006634D01*
X023786Y006664D01*
X023828Y006691D01*
X023872Y006715D01*
X023918Y006736D01*
X023965Y006752D01*
X024013Y006765D01*
X024063Y006774D01*
X024112Y006779D01*
X024163Y006780D01*
X024213Y006777D01*
X024262Y006770D01*
X024311Y006759D01*
X024359Y006744D01*
X024405Y006726D01*
X024450Y006704D01*
X024493Y006678D01*
X024534Y006649D01*
X024573Y006617D01*
X024609Y006582D01*
X024641Y006544D01*
X024671Y006504D01*
X024698Y006461D01*
X024721Y006417D01*
X024740Y006371D01*
X024756Y006323D01*
X024768Y006274D01*
X024776Y006225D01*
X024780Y006175D01*
X024780Y006125D01*
X024776Y006075D01*
X024768Y006026D01*
X024756Y005977D01*
X024740Y005929D01*
X024721Y005883D01*
X024698Y005839D01*
X024671Y005796D01*
X024641Y005756D01*
X024609Y005718D01*
X024573Y005683D01*
X024534Y005651D01*
X024493Y005622D01*
X024450Y005596D01*
X024405Y005574D01*
X024359Y005556D01*
X024311Y005541D01*
X024262Y005530D01*
X024213Y005523D01*
X024163Y005520D01*
X024112Y005521D01*
X024063Y005526D01*
X024013Y005535D01*
X023965Y005548D01*
X023918Y005564D01*
X023872Y005585D01*
X023828Y005609D01*
X023786Y005636D01*
X023746Y005666D01*
X023709Y005700D01*
X023675Y005737D01*
X023643Y005776D01*
X023615Y005817D01*
X023590Y005861D01*
X023569Y005906D01*
X023552Y005953D01*
X023538Y006001D01*
X023528Y006050D01*
X023522Y006100D01*
X023520Y006150D01*
X023520Y014024D02*
X023522Y014074D01*
X023528Y014124D01*
X023538Y014173D01*
X023552Y014221D01*
X023569Y014268D01*
X023590Y014313D01*
X023615Y014357D01*
X023643Y014398D01*
X023675Y014437D01*
X023709Y014474D01*
X023746Y014508D01*
X023786Y014538D01*
X023828Y014565D01*
X023872Y014589D01*
X023918Y014610D01*
X023965Y014626D01*
X024013Y014639D01*
X024063Y014648D01*
X024112Y014653D01*
X024163Y014654D01*
X024213Y014651D01*
X024262Y014644D01*
X024311Y014633D01*
X024359Y014618D01*
X024405Y014600D01*
X024450Y014578D01*
X024493Y014552D01*
X024534Y014523D01*
X024573Y014491D01*
X024609Y014456D01*
X024641Y014418D01*
X024671Y014378D01*
X024698Y014335D01*
X024721Y014291D01*
X024740Y014245D01*
X024756Y014197D01*
X024768Y014148D01*
X024776Y014099D01*
X024780Y014049D01*
X024780Y013999D01*
X024776Y013949D01*
X024768Y013900D01*
X024756Y013851D01*
X024740Y013803D01*
X024721Y013757D01*
X024698Y013713D01*
X024671Y013670D01*
X024641Y013630D01*
X024609Y013592D01*
X024573Y013557D01*
X024534Y013525D01*
X024493Y013496D01*
X024450Y013470D01*
X024405Y013448D01*
X024359Y013430D01*
X024311Y013415D01*
X024262Y013404D01*
X024213Y013397D01*
X024163Y013394D01*
X024112Y013395D01*
X024063Y013400D01*
X024013Y013409D01*
X023965Y013422D01*
X023918Y013438D01*
X023872Y013459D01*
X023828Y013483D01*
X023786Y013510D01*
X023746Y013540D01*
X023709Y013574D01*
X023675Y013611D01*
X023643Y013650D01*
X023615Y013691D01*
X023590Y013735D01*
X023569Y013780D01*
X023552Y013827D01*
X023538Y013875D01*
X023528Y013924D01*
X023522Y013974D01*
X023520Y014024D01*
X046355Y014024D02*
X046357Y014074D01*
X046363Y014124D01*
X046373Y014173D01*
X046387Y014221D01*
X046404Y014268D01*
X046425Y014313D01*
X046450Y014357D01*
X046478Y014398D01*
X046510Y014437D01*
X046544Y014474D01*
X046581Y014508D01*
X046621Y014538D01*
X046663Y014565D01*
X046707Y014589D01*
X046753Y014610D01*
X046800Y014626D01*
X046848Y014639D01*
X046898Y014648D01*
X046947Y014653D01*
X046998Y014654D01*
X047048Y014651D01*
X047097Y014644D01*
X047146Y014633D01*
X047194Y014618D01*
X047240Y014600D01*
X047285Y014578D01*
X047328Y014552D01*
X047369Y014523D01*
X047408Y014491D01*
X047444Y014456D01*
X047476Y014418D01*
X047506Y014378D01*
X047533Y014335D01*
X047556Y014291D01*
X047575Y014245D01*
X047591Y014197D01*
X047603Y014148D01*
X047611Y014099D01*
X047615Y014049D01*
X047615Y013999D01*
X047611Y013949D01*
X047603Y013900D01*
X047591Y013851D01*
X047575Y013803D01*
X047556Y013757D01*
X047533Y013713D01*
X047506Y013670D01*
X047476Y013630D01*
X047444Y013592D01*
X047408Y013557D01*
X047369Y013525D01*
X047328Y013496D01*
X047285Y013470D01*
X047240Y013448D01*
X047194Y013430D01*
X047146Y013415D01*
X047097Y013404D01*
X047048Y013397D01*
X046998Y013394D01*
X046947Y013395D01*
X046898Y013400D01*
X046848Y013409D01*
X046800Y013422D01*
X046753Y013438D01*
X046707Y013459D01*
X046663Y013483D01*
X046621Y013510D01*
X046581Y013540D01*
X046544Y013574D01*
X046510Y013611D01*
X046478Y013650D01*
X046450Y013691D01*
X046425Y013735D01*
X046404Y013780D01*
X046387Y013827D01*
X046373Y013875D01*
X046363Y013924D01*
X046357Y013974D01*
X046355Y014024D01*
X046355Y006150D02*
X046357Y006200D01*
X046363Y006250D01*
X046373Y006299D01*
X046387Y006347D01*
X046404Y006394D01*
X046425Y006439D01*
X046450Y006483D01*
X046478Y006524D01*
X046510Y006563D01*
X046544Y006600D01*
X046581Y006634D01*
X046621Y006664D01*
X046663Y006691D01*
X046707Y006715D01*
X046753Y006736D01*
X046800Y006752D01*
X046848Y006765D01*
X046898Y006774D01*
X046947Y006779D01*
X046998Y006780D01*
X047048Y006777D01*
X047097Y006770D01*
X047146Y006759D01*
X047194Y006744D01*
X047240Y006726D01*
X047285Y006704D01*
X047328Y006678D01*
X047369Y006649D01*
X047408Y006617D01*
X047444Y006582D01*
X047476Y006544D01*
X047506Y006504D01*
X047533Y006461D01*
X047556Y006417D01*
X047575Y006371D01*
X047591Y006323D01*
X047603Y006274D01*
X047611Y006225D01*
X047615Y006175D01*
X047615Y006125D01*
X047611Y006075D01*
X047603Y006026D01*
X047591Y005977D01*
X047575Y005929D01*
X047556Y005883D01*
X047533Y005839D01*
X047506Y005796D01*
X047476Y005756D01*
X047444Y005718D01*
X047408Y005683D01*
X047369Y005651D01*
X047328Y005622D01*
X047285Y005596D01*
X047240Y005574D01*
X047194Y005556D01*
X047146Y005541D01*
X047097Y005530D01*
X047048Y005523D01*
X046998Y005520D01*
X046947Y005521D01*
X046898Y005526D01*
X046848Y005535D01*
X046800Y005548D01*
X046753Y005564D01*
X046707Y005585D01*
X046663Y005609D01*
X046621Y005636D01*
X046581Y005666D01*
X046544Y005700D01*
X046510Y005737D01*
X046478Y005776D01*
X046450Y005817D01*
X046425Y005861D01*
X046404Y005906D01*
X046387Y005953D01*
X046373Y006001D01*
X046363Y006050D01*
X046357Y006100D01*
X046355Y006150D01*
M02*
