G04*
G04 #@! TF.GenerationSoftware,Altium Limited,Altium Designer,18.1.9 (240)*
G04*
G04 Layer_Physical_Order=1*
G04 Layer_Color=255*
%FSLAX43Y43*%
%MOMM*%
G71*
G01*
G75*
%ADD11C,0.152*%
%ADD12C,0.200*%
%ADD14C,0.150*%
%ADD16R,0.800X0.850*%
%ADD17R,0.750X0.800*%
G04:AMPARAMS|DCode=18|XSize=0.85mm|YSize=0.8mm|CornerRadius=0mm|HoleSize=0mm|Usage=FLASHONLY|Rotation=225.000|XOffset=0mm|YOffset=0mm|HoleType=Round|Shape=Rectangle|*
%AMROTATEDRECTD18*
4,1,4,0.018,0.583,0.583,0.018,-0.018,-0.583,-0.583,-0.018,0.018,0.583,0.0*
%
%ADD18ROTATEDRECTD18*%

%ADD19R,0.850X0.800*%
%ADD20C,0.300*%
%ADD34C,0.500*%
%ADD35C,0.200*%
%ADD36C,1.500*%
%ADD37R,1.500X1.500*%
%ADD38R,1.500X1.500*%
%ADD39C,6.350*%
%ADD40R,2.794X1.524*%
%ADD41O,2.794X1.524*%
%ADD42R,1.524X2.794*%
%ADD43O,1.524X2.794*%
%ADD44C,0.600*%
%ADD45C,0.250*%
G36*
X49949Y54467D02*
X49911Y54356D01*
X49822Y54356D01*
X48387D01*
Y53340D01*
Y52324D01*
X49822D01*
X49911Y52324D01*
X49949Y52213D01*
Y51245D01*
X49822Y51217D01*
X49792Y51280D01*
X49741Y51365D01*
X49681Y51445D01*
X49614Y51519D01*
X49540Y51586D01*
X49460Y51646D01*
X49375Y51697D01*
X49284Y51740D01*
X49190Y51773D01*
X49093Y51798D01*
X48995Y51812D01*
X48895Y51817D01*
X47625D01*
X47525Y51812D01*
X47427Y51798D01*
X47330Y51773D01*
X47236Y51740D01*
X47145Y51697D01*
X47060Y51646D01*
X46980Y51586D01*
X46906Y51519D01*
X46839Y51445D01*
X46779Y51365D01*
X46743Y51304D01*
X46601Y51300D01*
X46431Y51286D01*
X46262Y51262D01*
X46094Y51229D01*
X45929Y51186D01*
X45766Y51134D01*
X45607Y51073D01*
X45451Y51004D01*
X45299Y50925D01*
X45152Y50838D01*
X45010Y50744D01*
X44873Y50641D01*
X44743Y50531D01*
X44619Y50413D01*
X44619Y50413D01*
X44301Y50096D01*
X44184Y50144D01*
Y51804D01*
X42176D01*
Y49796D01*
X43836D01*
X43884Y49679D01*
X43436Y49231D01*
X43376Y49246D01*
X43279Y49260D01*
X43180Y49265D01*
X43081Y49260D01*
X42984Y49246D01*
X42888Y49222D01*
X42795Y49189D01*
X42706Y49147D01*
X42622Y49096D01*
X42574Y49060D01*
X42569Y49061D01*
X42476Y49105D01*
X42454Y49128D01*
X42455Y49150D01*
X42450Y49222D01*
X42436Y49294D01*
X42413Y49362D01*
X42381Y49428D01*
X42340Y49488D01*
X42293Y49543D01*
X42238Y49590D01*
X42178Y49631D01*
X42112Y49663D01*
X42044Y49686D01*
X41972Y49700D01*
X41900Y49705D01*
X41828Y49700D01*
X41756Y49686D01*
X41688Y49663D01*
X41622Y49631D01*
X41562Y49590D01*
X41507Y49543D01*
X41460Y49488D01*
X41419Y49428D01*
X41387Y49362D01*
X41364Y49294D01*
X41350Y49222D01*
X41345Y49150D01*
X41345Y49145D01*
X41222Y49078D01*
X41198Y49096D01*
X41114Y49147D01*
X41025Y49189D01*
X40932Y49222D01*
X40836Y49246D01*
X40739Y49260D01*
X40640Y49265D01*
X40541Y49260D01*
X40444Y49246D01*
X40348Y49222D01*
X40255Y49189D01*
X40166Y49147D01*
X40082Y49096D01*
X40002Y49037D01*
X39929Y48971D01*
X39863Y48898D01*
X39804Y48818D01*
X39753Y48734D01*
X39711Y48645D01*
X39678Y48552D01*
X39654Y48456D01*
X39640Y48359D01*
X39635Y48260D01*
X39640Y48161D01*
X39654Y48064D01*
X39678Y47968D01*
X39711Y47875D01*
X39753Y47786D01*
X39804Y47702D01*
X39863Y47622D01*
X39929Y47549D01*
X40002Y47483D01*
X40082Y47424D01*
X40166Y47373D01*
X40255Y47331D01*
X40348Y47298D01*
X40444Y47274D01*
X40541Y47260D01*
X40640Y47255D01*
X40739Y47260D01*
X40836Y47274D01*
X40932Y47298D01*
X41025Y47331D01*
X41114Y47373D01*
X41198Y47424D01*
X41278Y47483D01*
X41351Y47549D01*
X41417Y47622D01*
X41476Y47702D01*
X41508Y47755D01*
X42312D01*
X42344Y47702D01*
X42403Y47622D01*
X42469Y47549D01*
X42542Y47483D01*
X42622Y47424D01*
X42706Y47373D01*
X42795Y47331D01*
X42888Y47298D01*
X42984Y47274D01*
X43081Y47260D01*
X43180Y47255D01*
X43279Y47260D01*
X43376Y47274D01*
X43472Y47298D01*
X43565Y47331D01*
X43572Y47335D01*
X43657Y47243D01*
X43610Y47188D01*
X43569Y47128D01*
X43537Y47062D01*
X43514Y46994D01*
X43500Y46922D01*
X43495Y46850D01*
X43498Y46806D01*
X43445Y46742D01*
X43385Y46704D01*
X43376Y46706D01*
X43279Y46720D01*
X43180Y46725D01*
X43081Y46720D01*
X42984Y46706D01*
X42888Y46682D01*
X42795Y46649D01*
X42706Y46607D01*
X42622Y46556D01*
X42542Y46497D01*
X42469Y46431D01*
X42403Y46358D01*
X42344Y46278D01*
X42293Y46194D01*
X42251Y46105D01*
X42218Y46012D01*
X42194Y45916D01*
X42180Y45819D01*
X42175Y45720D01*
X42180Y45621D01*
X42194Y45524D01*
X42218Y45428D01*
X42251Y45335D01*
X42293Y45246D01*
X42344Y45162D01*
X42403Y45082D01*
X42469Y45009D01*
X42542Y44943D01*
X42622Y44884D01*
X42706Y44833D01*
X42795Y44791D01*
X42888Y44758D01*
X42984Y44734D01*
X43081Y44720D01*
X43180Y44715D01*
X43279Y44720D01*
X43376Y44734D01*
X43472Y44758D01*
X43565Y44791D01*
X43654Y44833D01*
X43738Y44884D01*
X43818Y44943D01*
X43891Y45009D01*
X43957Y45082D01*
X44016Y45162D01*
X44067Y45246D01*
X44109Y45335D01*
X44142Y45428D01*
X44166Y45524D01*
X44180Y45621D01*
X44185Y45720D01*
X44180Y45819D01*
X44166Y45916D01*
X44142Y46012D01*
X44109Y46105D01*
X44078Y46169D01*
X44104Y46244D01*
X44148Y46305D01*
X44194Y46314D01*
X44262Y46337D01*
X44328Y46369D01*
X44388Y46410D01*
X44443Y46457D01*
X44490Y46512D01*
X44531Y46572D01*
X44563Y46638D01*
X44586Y46706D01*
X44600Y46778D01*
X44605Y46850D01*
X44600Y46922D01*
X44586Y46994D01*
X44563Y47062D01*
X44531Y47128D01*
X44490Y47188D01*
X44443Y47243D01*
X44388Y47290D01*
X44328Y47331D01*
X44262Y47363D01*
X44194Y47386D01*
X44122Y47400D01*
X44050Y47405D01*
X43978Y47400D01*
X43906Y47386D01*
X43894Y47382D01*
X43818Y47483D01*
X43891Y47549D01*
X43957Y47622D01*
X44016Y47702D01*
X44067Y47786D01*
X44109Y47875D01*
X44142Y47968D01*
X44166Y48064D01*
X44180Y48161D01*
X44185Y48260D01*
X44180Y48359D01*
X44166Y48456D01*
X44151Y48516D01*
X45333Y49699D01*
X45339Y49706D01*
X45430Y49791D01*
X45533Y49875D01*
X45641Y49953D01*
X45754Y50023D01*
X45872Y50086D01*
X45993Y50141D01*
X46118Y50188D01*
X46245Y50226D01*
X46375Y50257D01*
X46506Y50278D01*
X46639Y50291D01*
X46743Y50295D01*
X46779Y50235D01*
X46839Y50155D01*
X46906Y50081D01*
X46980Y50014D01*
X47060Y49954D01*
X47145Y49903D01*
X47236Y49860D01*
X47330Y49827D01*
X47427Y49802D01*
X47525Y49788D01*
X47625Y49783D01*
X48895D01*
X48995Y49788D01*
X49093Y49802D01*
X49190Y49827D01*
X49284Y49860D01*
X49375Y49903D01*
X49460Y49954D01*
X49540Y50014D01*
X49614Y50081D01*
X49681Y50155D01*
X49741Y50235D01*
X49792Y50320D01*
X49822Y50383D01*
X49949Y50355D01*
Y48705D01*
X49822Y48677D01*
X49792Y48740D01*
X49741Y48825D01*
X49681Y48905D01*
X49614Y48979D01*
X49540Y49046D01*
X49460Y49106D01*
X49375Y49157D01*
X49284Y49200D01*
X49190Y49233D01*
X49093Y49258D01*
X48995Y49272D01*
X48895Y49277D01*
X47625D01*
X47525Y49272D01*
X47427Y49258D01*
X47330Y49233D01*
X47236Y49200D01*
X47145Y49157D01*
X47060Y49106D01*
X46980Y49046D01*
X46906Y48979D01*
X46839Y48905D01*
X46779Y48825D01*
X46728Y48740D01*
X46685Y48649D01*
X46652Y48555D01*
X46627Y48458D01*
X46613Y48360D01*
X46609Y48291D01*
X46478Y48204D01*
X46341Y48101D01*
X46211Y47991D01*
X46087Y47873D01*
X45969Y47749D01*
X45859Y47619D01*
X45756Y47482D01*
X45662Y47340D01*
X45575Y47193D01*
X45496Y47041D01*
X45427Y46885D01*
X45366Y46726D01*
X45314Y46563D01*
X45271Y46398D01*
X45238Y46230D01*
X45214Y46061D01*
X45200Y45891D01*
X45195Y45720D01*
X45195D01*
Y44212D01*
X45196Y44203D01*
X45191Y44079D01*
X45178Y43946D01*
X45157Y43815D01*
X45126Y43685D01*
X45088Y43558D01*
X45041Y43433D01*
X44986Y43312D01*
X44923Y43194D01*
X44853Y43081D01*
X44775Y42973D01*
X44691Y42870D01*
X44606Y42779D01*
X44599Y42773D01*
X43470Y41644D01*
X42176D01*
Y39636D01*
X44184D01*
Y40930D01*
X45313Y42059D01*
X45313Y42059D01*
X45431Y42183D01*
X45541Y42313D01*
X45644Y42450D01*
X45738Y42592D01*
X45825Y42739D01*
X45904Y42891D01*
X45973Y43047D01*
X46034Y43206D01*
X46086Y43369D01*
X46129Y43534D01*
X46162Y43702D01*
X46186Y43871D01*
X46200Y44041D01*
X46205Y44212D01*
X46205D01*
Y45720D01*
X46204Y45729D01*
X46209Y45853D01*
X46222Y45986D01*
X46243Y46117D01*
X46274Y46247D01*
X46312Y46374D01*
X46359Y46499D01*
X46414Y46620D01*
X46477Y46738D01*
X46547Y46851D01*
X46625Y46959D01*
X46709Y47062D01*
X46800Y47160D01*
X46898Y47251D01*
X47001Y47335D01*
X47088Y47398D01*
X47145Y47363D01*
X47236Y47320D01*
X47330Y47287D01*
X47427Y47262D01*
X47525Y47248D01*
X47625Y47243D01*
X48895D01*
X48995Y47248D01*
X49093Y47262D01*
X49190Y47287D01*
X49284Y47320D01*
X49375Y47363D01*
X49460Y47414D01*
X49540Y47474D01*
X49614Y47541D01*
X49681Y47615D01*
X49741Y47695D01*
X49792Y47780D01*
X49822Y47843D01*
X49949Y47815D01*
Y46165D01*
X49822Y46137D01*
X49792Y46200D01*
X49741Y46285D01*
X49681Y46365D01*
X49614Y46439D01*
X49540Y46506D01*
X49460Y46566D01*
X49375Y46617D01*
X49284Y46660D01*
X49190Y46693D01*
X49093Y46718D01*
X48995Y46732D01*
X48895Y46737D01*
X48387D01*
Y45720D01*
Y44703D01*
X48895D01*
X48995Y44708D01*
X49093Y44722D01*
X49190Y44747D01*
X49284Y44780D01*
X49375Y44823D01*
X49460Y44874D01*
X49540Y44934D01*
X49614Y45001D01*
X49681Y45075D01*
X49741Y45155D01*
X49792Y45240D01*
X49822Y45303D01*
X49949Y45275D01*
Y43625D01*
X49822Y43597D01*
X49792Y43660D01*
X49741Y43745D01*
X49681Y43825D01*
X49614Y43899D01*
X49540Y43966D01*
X49460Y44026D01*
X49375Y44077D01*
X49284Y44120D01*
X49190Y44153D01*
X49093Y44178D01*
X48995Y44192D01*
X48895Y44197D01*
X47625D01*
X47525Y44192D01*
X47427Y44178D01*
X47330Y44153D01*
X47236Y44120D01*
X47145Y44077D01*
X47060Y44026D01*
X46980Y43966D01*
X46906Y43899D01*
X46839Y43825D01*
X46779Y43745D01*
X46728Y43660D01*
X46685Y43569D01*
X46652Y43475D01*
X46627Y43378D01*
X46613Y43280D01*
X46608Y43180D01*
X46613Y43080D01*
X46627Y42982D01*
X46652Y42885D01*
X46685Y42791D01*
X46728Y42700D01*
X46779Y42615D01*
X46839Y42535D01*
X46906Y42461D01*
X46980Y42394D01*
X47060Y42334D01*
X47145Y42283D01*
X47236Y42240D01*
X47330Y42207D01*
X47427Y42182D01*
X47525Y42168D01*
X47625Y42163D01*
X48895D01*
X48995Y42168D01*
X49093Y42182D01*
X49190Y42207D01*
X49284Y42240D01*
X49375Y42283D01*
X49460Y42334D01*
X49540Y42394D01*
X49614Y42461D01*
X49681Y42535D01*
X49741Y42615D01*
X49792Y42700D01*
X49822Y42763D01*
X49949Y42735D01*
Y41085D01*
X49822Y41057D01*
X49792Y41120D01*
X49741Y41205D01*
X49681Y41285D01*
X49614Y41359D01*
X49540Y41426D01*
X49460Y41486D01*
X49375Y41537D01*
X49284Y41580D01*
X49190Y41613D01*
X49093Y41638D01*
X48995Y41652D01*
X48895Y41657D01*
X47625D01*
X47525Y41652D01*
X47427Y41638D01*
X47330Y41613D01*
X47236Y41580D01*
X47145Y41537D01*
X47060Y41486D01*
X46980Y41426D01*
X46906Y41359D01*
X46839Y41285D01*
X46779Y41205D01*
X46728Y41120D01*
X46685Y41029D01*
X46652Y40935D01*
X46627Y40838D01*
X46613Y40740D01*
X46608Y40640D01*
X46613Y40540D01*
X46627Y40442D01*
X46652Y40345D01*
X46685Y40251D01*
X46728Y40160D01*
X46779Y40075D01*
X46839Y39995D01*
X46906Y39921D01*
X46980Y39854D01*
X47060Y39794D01*
X47145Y39743D01*
X47236Y39700D01*
X47330Y39667D01*
X47427Y39642D01*
X47525Y39628D01*
X47625Y39623D01*
X48895D01*
X48995Y39628D01*
X49093Y39642D01*
X49190Y39667D01*
X49284Y39700D01*
X49375Y39743D01*
X49460Y39794D01*
X49540Y39854D01*
X49614Y39921D01*
X49681Y39995D01*
X49741Y40075D01*
X49792Y40160D01*
X49822Y40223D01*
X49949Y40195D01*
Y38545D01*
X49822Y38517D01*
X49792Y38580D01*
X49741Y38665D01*
X49681Y38745D01*
X49614Y38819D01*
X49540Y38886D01*
X49460Y38946D01*
X49375Y38997D01*
X49284Y39040D01*
X49190Y39073D01*
X49093Y39098D01*
X48995Y39112D01*
X48895Y39117D01*
X48387D01*
Y38100D01*
Y37083D01*
X48895D01*
X48995Y37088D01*
X49093Y37102D01*
X49190Y37127D01*
X49284Y37160D01*
X49375Y37203D01*
X49460Y37254D01*
X49540Y37314D01*
X49614Y37381D01*
X49681Y37455D01*
X49741Y37535D01*
X49792Y37620D01*
X49822Y37683D01*
X49949Y37655D01*
Y36005D01*
X49822Y35977D01*
X49792Y36040D01*
X49741Y36125D01*
X49681Y36205D01*
X49614Y36279D01*
X49540Y36346D01*
X49460Y36406D01*
X49375Y36457D01*
X49284Y36500D01*
X49190Y36533D01*
X49093Y36558D01*
X48995Y36572D01*
X48895Y36577D01*
X47625D01*
X47525Y36572D01*
X47427Y36558D01*
X47330Y36533D01*
X47236Y36500D01*
X47145Y36457D01*
X47060Y36406D01*
X46980Y36346D01*
X46906Y36279D01*
X46839Y36205D01*
X46779Y36125D01*
X46728Y36040D01*
X46685Y35949D01*
X46652Y35855D01*
X46627Y35758D01*
X46613Y35660D01*
X46608Y35560D01*
X46613Y35462D01*
X46564Y35422D01*
X46452Y35316D01*
X46452Y35316D01*
X46452Y35316D01*
X45237Y34101D01*
X45237Y34101D01*
X45119Y33977D01*
X45009Y33847D01*
X44906Y33710D01*
X44812Y33568D01*
X44725Y33421D01*
X44646Y33269D01*
X44577Y33113D01*
X44516Y32954D01*
X44464Y32791D01*
X44421Y32626D01*
X44388Y32458D01*
X44364Y32289D01*
X44350Y32119D01*
X44345Y31948D01*
X44345D01*
Y20502D01*
X44346Y20493D01*
X44341Y20369D01*
X44328Y20236D01*
X44311Y20131D01*
X44184Y20141D01*
Y21324D01*
X42176D01*
Y19316D01*
X43805D01*
X43865Y19189D01*
X43841Y19160D01*
X43756Y19069D01*
X43749Y19063D01*
X43436Y18751D01*
X43376Y18766D01*
X43279Y18780D01*
X43180Y18785D01*
X43081Y18780D01*
X42984Y18766D01*
X42888Y18742D01*
X42795Y18709D01*
X42706Y18667D01*
X42622Y18616D01*
X42542Y18557D01*
X42469Y18491D01*
X42403Y18418D01*
X42344Y18338D01*
X42312Y18285D01*
X41508D01*
X41476Y18338D01*
X41417Y18418D01*
X41351Y18491D01*
X41278Y18557D01*
X41198Y18616D01*
X41114Y18667D01*
X41025Y18709D01*
X40932Y18742D01*
X40836Y18766D01*
X40739Y18780D01*
X40640Y18785D01*
X40541Y18780D01*
X40444Y18766D01*
X40348Y18742D01*
X40255Y18709D01*
X40166Y18667D01*
X40082Y18616D01*
X40002Y18557D01*
X39929Y18491D01*
X39863Y18418D01*
X39804Y18338D01*
X39753Y18254D01*
X39711Y18165D01*
X39678Y18072D01*
X39654Y17976D01*
X39640Y17879D01*
X39635Y17780D01*
X39640Y17681D01*
X39654Y17584D01*
X39678Y17488D01*
X39711Y17395D01*
X39753Y17306D01*
X39804Y17222D01*
X39863Y17142D01*
X39929Y17069D01*
X40002Y17003D01*
X40082Y16944D01*
X40166Y16893D01*
X40255Y16851D01*
X40348Y16818D01*
X40444Y16794D01*
X40541Y16780D01*
X40640Y16775D01*
X40739Y16780D01*
X40836Y16794D01*
X40932Y16818D01*
X41025Y16851D01*
X41114Y16893D01*
X41198Y16944D01*
X41278Y17003D01*
X41351Y17069D01*
X41417Y17142D01*
X41476Y17222D01*
X41508Y17275D01*
X42312D01*
X42344Y17222D01*
X42403Y17142D01*
X42445Y17096D01*
X42424Y16999D01*
X42399Y16962D01*
X42234Y16929D01*
X42069Y16886D01*
X41906Y16834D01*
X41747Y16773D01*
X41591Y16704D01*
X41439Y16625D01*
X41292Y16538D01*
X41150Y16444D01*
X41013Y16341D01*
X40883Y16231D01*
X40869Y16218D01*
X40836Y16226D01*
X40739Y16240D01*
X40640Y16245D01*
X40541Y16240D01*
X40444Y16226D01*
X40348Y16202D01*
X40322Y16192D01*
X39121Y17393D01*
X39121Y17393D01*
X38997Y17511D01*
X38867Y17621D01*
X38730Y17724D01*
X38588Y17818D01*
X38441Y17905D01*
X38289Y17984D01*
X38133Y18053D01*
X37974Y18114D01*
X37811Y18166D01*
X37646Y18209D01*
X37478Y18242D01*
X37309Y18266D01*
X37139Y18280D01*
X36968Y18285D01*
Y18285D01*
X33888D01*
X33856Y18338D01*
X33797Y18418D01*
X33731Y18491D01*
X33658Y18557D01*
X33578Y18616D01*
X33494Y18667D01*
X33405Y18709D01*
X33312Y18742D01*
X33216Y18766D01*
X33119Y18780D01*
X33020Y18785D01*
X32921Y18780D01*
X32824Y18766D01*
X32728Y18742D01*
X32635Y18709D01*
X32546Y18667D01*
X32462Y18616D01*
X32382Y18557D01*
X32309Y18491D01*
X32243Y18418D01*
X32184Y18338D01*
X32152Y18285D01*
X27447D01*
X27444Y18286D01*
X27372Y18300D01*
X27300Y18305D01*
X27228Y18300D01*
X27156Y18286D01*
X27088Y18263D01*
X27022Y18231D01*
X26962Y18190D01*
X26907Y18143D01*
X26860Y18088D01*
X26819Y18028D01*
X26787Y17962D01*
X26764Y17894D01*
X26750Y17822D01*
X26745Y17750D01*
X26750Y17678D01*
X26764Y17606D01*
X26787Y17538D01*
X26819Y17472D01*
X26860Y17412D01*
X26907Y17357D01*
X26962Y17310D01*
X27022Y17269D01*
X27088Y17237D01*
X27156Y17214D01*
X27228Y17200D01*
X27300Y17195D01*
X27372Y17200D01*
X27444Y17214D01*
X27512Y17237D01*
X27578Y17269D01*
X27586Y17275D01*
X32152D01*
X32184Y17222D01*
X32243Y17142D01*
X32309Y17069D01*
X32382Y17003D01*
X32462Y16944D01*
X32546Y16893D01*
X32635Y16851D01*
X32728Y16818D01*
X32824Y16794D01*
X32921Y16780D01*
X33020Y16775D01*
X33119Y16780D01*
X33216Y16794D01*
X33312Y16818D01*
X33405Y16851D01*
X33494Y16893D01*
X33578Y16944D01*
X33658Y17003D01*
X33731Y17069D01*
X33797Y17142D01*
X33856Y17222D01*
X33888Y17275D01*
X36968D01*
X36977Y17276D01*
X37101Y17271D01*
X37234Y17258D01*
X37365Y17237D01*
X37495Y17206D01*
X37622Y17168D01*
X37747Y17121D01*
X37868Y17066D01*
X37986Y17003D01*
X38099Y16933D01*
X38207Y16855D01*
X38310Y16771D01*
X38401Y16686D01*
X38407Y16679D01*
X39654Y15432D01*
X39640Y15339D01*
X39635Y15240D01*
X39640Y15141D01*
X39654Y15044D01*
X39678Y14948D01*
X39711Y14855D01*
X39753Y14766D01*
X39804Y14682D01*
X39863Y14602D01*
X39929Y14529D01*
X40002Y14463D01*
X40082Y14404D01*
X40166Y14353D01*
X40255Y14311D01*
X40348Y14278D01*
X40444Y14254D01*
X40541Y14240D01*
X40640Y14235D01*
X40739Y14240D01*
X40836Y14254D01*
X40932Y14278D01*
X41025Y14311D01*
X41114Y14353D01*
X41198Y14404D01*
X41278Y14463D01*
X41351Y14529D01*
X41417Y14602D01*
X41476Y14682D01*
X41527Y14766D01*
X41569Y14855D01*
X41602Y14948D01*
X41626Y15044D01*
X41640Y15141D01*
X41645Y15240D01*
X41640Y15339D01*
X41626Y15436D01*
X41605Y15520D01*
X41673Y15575D01*
X41781Y15653D01*
X41894Y15723D01*
X42012Y15786D01*
X42133Y15841D01*
X42250Y15885D01*
X42268Y15877D01*
X42328Y15771D01*
X42293Y15714D01*
X42251Y15625D01*
X42218Y15532D01*
X42194Y15436D01*
X42180Y15339D01*
X42175Y15240D01*
X42180Y15141D01*
X42194Y15044D01*
X42218Y14948D01*
X42251Y14855D01*
X42293Y14766D01*
X42344Y14682D01*
X42403Y14602D01*
X42469Y14529D01*
X42542Y14463D01*
X42622Y14404D01*
X42706Y14353D01*
X42795Y14311D01*
X42888Y14278D01*
X42984Y14254D01*
X43081Y14240D01*
X43180Y14235D01*
X43279Y14240D01*
X43376Y14254D01*
X43472Y14278D01*
X43565Y14311D01*
X43654Y14353D01*
X43738Y14404D01*
X43818Y14463D01*
X43891Y14529D01*
X43957Y14602D01*
X44016Y14682D01*
X44067Y14766D01*
X44109Y14855D01*
X44142Y14948D01*
X44166Y15044D01*
X44180Y15141D01*
X44185Y15240D01*
X44180Y15339D01*
X44166Y15436D01*
X44142Y15532D01*
X44109Y15625D01*
X44067Y15714D01*
X44016Y15798D01*
X43957Y15878D01*
X43924Y15914D01*
X43952Y16031D01*
X43968Y16052D01*
X44066Y16071D01*
X44231Y16114D01*
X44394Y16166D01*
X44553Y16227D01*
X44709Y16296D01*
X44861Y16375D01*
X45008Y16462D01*
X45150Y16556D01*
X45287Y16659D01*
X45417Y16769D01*
X45541Y16887D01*
X45541Y16887D01*
X46483Y17829D01*
X46595Y17785D01*
X46608Y17774D01*
X46613Y17680D01*
X46627Y17582D01*
X46652Y17485D01*
X46685Y17391D01*
X46728Y17300D01*
X46779Y17215D01*
X46839Y17135D01*
X46906Y17061D01*
X46980Y16994D01*
X47060Y16934D01*
X47145Y16883D01*
X47236Y16840D01*
X47330Y16807D01*
X47427Y16782D01*
X47525Y16768D01*
X47625Y16763D01*
X48895D01*
X48995Y16768D01*
X49093Y16782D01*
X49190Y16807D01*
X49284Y16840D01*
X49375Y16883D01*
X49460Y16934D01*
X49540Y16994D01*
X49614Y17061D01*
X49681Y17135D01*
X49741Y17215D01*
X49792Y17300D01*
X49822Y17363D01*
X49949Y17335D01*
Y15685D01*
X49822Y15657D01*
X49792Y15720D01*
X49741Y15805D01*
X49681Y15885D01*
X49614Y15959D01*
X49540Y16026D01*
X49460Y16086D01*
X49375Y16137D01*
X49284Y16180D01*
X49190Y16213D01*
X49093Y16238D01*
X48995Y16252D01*
X48895Y16257D01*
X48387D01*
Y15240D01*
Y14223D01*
X48895D01*
X48995Y14228D01*
X49093Y14242D01*
X49190Y14267D01*
X49284Y14300D01*
X49375Y14343D01*
X49460Y14394D01*
X49540Y14454D01*
X49614Y14521D01*
X49681Y14595D01*
X49741Y14675D01*
X49792Y14760D01*
X49822Y14823D01*
X49949Y14795D01*
Y13145D01*
X49822Y13117D01*
X49792Y13180D01*
X49741Y13265D01*
X49681Y13345D01*
X49614Y13419D01*
X49540Y13486D01*
X49460Y13546D01*
X49375Y13597D01*
X49284Y13640D01*
X49190Y13673D01*
X49093Y13698D01*
X48995Y13712D01*
X48895Y13717D01*
X48387D01*
Y12700D01*
Y11683D01*
X48895D01*
X48995Y11688D01*
X49093Y11702D01*
X49190Y11727D01*
X49284Y11760D01*
X49375Y11803D01*
X49460Y11854D01*
X49540Y11914D01*
X49614Y11981D01*
X49681Y12055D01*
X49741Y12135D01*
X49792Y12220D01*
X49822Y12283D01*
X49949Y12255D01*
Y10605D01*
X49822Y10577D01*
X49792Y10640D01*
X49741Y10725D01*
X49681Y10805D01*
X49614Y10879D01*
X49540Y10946D01*
X49460Y11006D01*
X49375Y11057D01*
X49284Y11100D01*
X49190Y11133D01*
X49093Y11158D01*
X48995Y11172D01*
X48895Y11177D01*
X47625D01*
X47525Y11172D01*
X47427Y11158D01*
X47330Y11133D01*
X47236Y11100D01*
X47145Y11057D01*
X47060Y11006D01*
X46980Y10946D01*
X46906Y10879D01*
X46839Y10805D01*
X46779Y10725D01*
X46728Y10640D01*
X46685Y10549D01*
X46652Y10455D01*
X46627Y10358D01*
X46613Y10260D01*
X46608Y10160D01*
X46613Y10060D01*
X46627Y9962D01*
X46652Y9865D01*
X46685Y9771D01*
X46728Y9680D01*
X46747Y9649D01*
X46118Y9020D01*
X46112Y9013D01*
X46014Y8922D01*
X45904Y8831D01*
X45787Y8747D01*
X45666Y8672D01*
X45540Y8605D01*
X45409Y8545D01*
X45276Y8495D01*
X45139Y8454D01*
X44999Y8421D01*
X44858Y8398D01*
X44716Y8384D01*
X44582Y8379D01*
X44573Y8380D01*
X33177D01*
X33168Y8379D01*
X33034Y8384D01*
X32892Y8398D01*
X32751Y8421D01*
X32611Y8454D01*
X32474Y8495D01*
X32341Y8545D01*
X32210Y8605D01*
X32084Y8672D01*
X31963Y8747D01*
X31846Y8831D01*
X31736Y8922D01*
X31638Y9013D01*
X31632Y9020D01*
X26820Y13832D01*
X26813Y13838D01*
X26722Y13936D01*
X26631Y14046D01*
X26547Y14163D01*
X26472Y14284D01*
X26405Y14410D01*
X26345Y14541D01*
X26295Y14674D01*
X26254Y14811D01*
X26221Y14951D01*
X26198Y15092D01*
X26184Y15234D01*
X26179Y15368D01*
X26180Y15377D01*
Y26719D01*
X26296Y26746D01*
X26307Y26746D01*
X26598D01*
X26653Y26660D01*
X26714Y26580D01*
X26722Y26571D01*
X26798Y26488D01*
X26798Y26488D01*
X26943Y26343D01*
X26943Y26343D01*
X27041Y26252D01*
X27145Y26168D01*
X27254Y26092D01*
X27369Y26024D01*
X27488Y25964D01*
X27612Y25913D01*
X27739Y25871D01*
X27868Y25838D01*
X27999Y25814D01*
X28132Y25800D01*
X28266Y25795D01*
Y25795D01*
X38398D01*
Y25795D01*
X38569Y25800D01*
X38739Y25814D01*
X38908Y25838D01*
X39076Y25871D01*
X39241Y25914D01*
X39404Y25966D01*
X39563Y26027D01*
X39719Y26096D01*
X39871Y26175D01*
X40018Y26262D01*
X40160Y26356D01*
X40297Y26459D01*
X40427Y26569D01*
X40551Y26687D01*
X40551Y26687D01*
X41513Y27649D01*
X41513Y27649D01*
X41631Y27773D01*
X41741Y27903D01*
X41844Y28040D01*
X41938Y28182D01*
X42025Y28329D01*
X42104Y28481D01*
X42173Y28637D01*
X42234Y28796D01*
X42286Y28959D01*
X42329Y29124D01*
X42362Y29292D01*
X42386Y29461D01*
X42400Y29631D01*
X42401Y29659D01*
X42530Y29714D01*
X42542Y29703D01*
X42622Y29644D01*
X42706Y29593D01*
X42795Y29551D01*
X42888Y29518D01*
X42984Y29494D01*
X43081Y29480D01*
X43180Y29475D01*
X43279Y29480D01*
X43376Y29494D01*
X43472Y29518D01*
X43565Y29551D01*
X43654Y29593D01*
X43738Y29644D01*
X43818Y29703D01*
X43891Y29769D01*
X43957Y29842D01*
X44016Y29922D01*
X44067Y30006D01*
X44109Y30095D01*
X44142Y30188D01*
X44166Y30284D01*
X44180Y30381D01*
X44185Y30480D01*
X44180Y30579D01*
X44166Y30676D01*
X44142Y30772D01*
X44109Y30865D01*
X44067Y30954D01*
X44016Y31038D01*
X43957Y31118D01*
X43891Y31191D01*
X43818Y31257D01*
X43738Y31316D01*
X43654Y31367D01*
X43565Y31409D01*
X43472Y31442D01*
X43376Y31466D01*
X43279Y31480D01*
X43180Y31485D01*
X43081Y31480D01*
X42984Y31466D01*
X42888Y31442D01*
X42795Y31409D01*
X42706Y31367D01*
X42622Y31316D01*
X42542Y31257D01*
X42532Y31248D01*
X42405Y31304D01*
Y32196D01*
X42532Y32252D01*
X42542Y32243D01*
X42622Y32184D01*
X42706Y32133D01*
X42795Y32091D01*
X42888Y32058D01*
X42984Y32034D01*
X43081Y32020D01*
X43180Y32015D01*
X43279Y32020D01*
X43376Y32034D01*
X43472Y32058D01*
X43565Y32091D01*
X43654Y32133D01*
X43738Y32184D01*
X43818Y32243D01*
X43891Y32309D01*
X43957Y32382D01*
X44016Y32462D01*
X44067Y32546D01*
X44109Y32635D01*
X44142Y32728D01*
X44166Y32824D01*
X44180Y32921D01*
X44185Y33020D01*
X44180Y33119D01*
X44166Y33216D01*
X44142Y33312D01*
X44109Y33405D01*
X44067Y33494D01*
X44016Y33578D01*
X43957Y33658D01*
X43891Y33731D01*
X43818Y33797D01*
X43738Y33856D01*
X43654Y33907D01*
X43565Y33949D01*
X43472Y33982D01*
X43376Y34006D01*
X43279Y34020D01*
X43180Y34025D01*
X43081Y34020D01*
X42984Y34006D01*
X42888Y33982D01*
X42795Y33949D01*
X42706Y33907D01*
X42622Y33856D01*
X42542Y33797D01*
X42491Y33751D01*
X42426Y33754D01*
X42355Y33794D01*
X42329Y33926D01*
X42286Y34091D01*
X42234Y34254D01*
X42173Y34413D01*
X42164Y34434D01*
X42249Y34556D01*
X44184D01*
Y36564D01*
X42176D01*
Y34706D01*
X42049Y34675D01*
X42025Y34721D01*
X41938Y34868D01*
X41844Y35010D01*
X41741Y35147D01*
X41644Y35261D01*
Y36564D01*
X39636D01*
Y34556D01*
X40919D01*
X40975Y34487D01*
X41053Y34379D01*
X41123Y34266D01*
X41186Y34148D01*
X41241Y34027D01*
X41265Y33963D01*
X41161Y33878D01*
X41114Y33907D01*
X41025Y33949D01*
X40932Y33982D01*
X40836Y34006D01*
X40739Y34020D01*
X40640Y34025D01*
X40541Y34020D01*
X40444Y34006D01*
X40348Y33982D01*
X40255Y33949D01*
X40166Y33907D01*
X40082Y33856D01*
X40002Y33797D01*
X39929Y33731D01*
X39863Y33658D01*
X39804Y33578D01*
X39753Y33494D01*
X39711Y33405D01*
X39678Y33312D01*
X39654Y33216D01*
X39640Y33119D01*
X39635Y33020D01*
X39640Y32921D01*
X39654Y32824D01*
X39678Y32728D01*
X39711Y32635D01*
X39753Y32546D01*
X39804Y32462D01*
X39863Y32382D01*
X39929Y32309D01*
X40002Y32243D01*
X40082Y32184D01*
X40166Y32133D01*
X40255Y32091D01*
X40348Y32058D01*
X40444Y32034D01*
X40541Y32020D01*
X40640Y32015D01*
X40739Y32020D01*
X40836Y32034D01*
X40932Y32058D01*
X41025Y32091D01*
X41114Y32133D01*
X41198Y32184D01*
X41268Y32236D01*
X41304Y32229D01*
X41395Y32178D01*
Y31322D01*
X41304Y31271D01*
X41268Y31264D01*
X41198Y31316D01*
X41114Y31367D01*
X41025Y31409D01*
X40932Y31442D01*
X40836Y31466D01*
X40739Y31480D01*
X40640Y31485D01*
X40541Y31480D01*
X40444Y31466D01*
X40384Y31451D01*
X37401Y34433D01*
X37394Y34439D01*
X37309Y34530D01*
X37225Y34633D01*
X37147Y34741D01*
X37077Y34854D01*
X37014Y34972D01*
X36959Y35093D01*
X36912Y35218D01*
X36874Y35345D01*
X36843Y35475D01*
X36822Y35606D01*
X36809Y35739D01*
X36804Y35863D01*
X36805Y35872D01*
Y42686D01*
X36830Y42717D01*
X36932Y42772D01*
X36956Y42764D01*
X37028Y42750D01*
X37100Y42745D01*
X37172Y42750D01*
X37244Y42764D01*
X37312Y42787D01*
X37378Y42819D01*
X37438Y42860D01*
X37493Y42907D01*
X37540Y42962D01*
X37581Y43022D01*
X37613Y43088D01*
X37636Y43156D01*
X37650Y43228D01*
X37655Y43300D01*
X37650Y43372D01*
X37636Y43444D01*
X37613Y43512D01*
X37581Y43578D01*
X37540Y43638D01*
X37493Y43693D01*
X37438Y43740D01*
X37378Y43781D01*
X37312Y43813D01*
X37244Y43836D01*
X37172Y43850D01*
X37100Y43855D01*
X37028Y43850D01*
X36956Y43836D01*
X36932Y43828D01*
X36830Y43883D01*
X36805Y43914D01*
Y44298D01*
X36805D01*
X36800Y44469D01*
X36807Y44478D01*
X36921Y44545D01*
X36938Y44537D01*
X37006Y44514D01*
X37078Y44500D01*
X37150Y44495D01*
X37222Y44500D01*
X37294Y44514D01*
X37362Y44537D01*
X37428Y44569D01*
X37488Y44610D01*
X37543Y44657D01*
X37590Y44712D01*
X37631Y44772D01*
X37663Y44838D01*
X37686Y44906D01*
X37700Y44978D01*
X37705Y45050D01*
X37700Y45122D01*
X37686Y45194D01*
X37663Y45262D01*
X37631Y45328D01*
X37590Y45388D01*
X37543Y45443D01*
X37488Y45490D01*
X37428Y45531D01*
X37362Y45563D01*
X37294Y45586D01*
X37222Y45600D01*
X37150Y45605D01*
X37078Y45600D01*
X37006Y45586D01*
X36938Y45563D01*
X36872Y45531D01*
X36812Y45490D01*
X36757Y45443D01*
X36729Y45411D01*
X36644Y45411D01*
X36586Y45431D01*
X36573Y45463D01*
X36504Y45619D01*
X36425Y45771D01*
X36338Y45918D01*
X36244Y46060D01*
X36141Y46197D01*
X36031Y46327D01*
X35913Y46451D01*
X35913Y46451D01*
X35251Y47113D01*
X35251Y47113D01*
X35127Y47231D01*
X34997Y47341D01*
X34860Y47444D01*
X34718Y47538D01*
X34571Y47625D01*
X34419Y47704D01*
X34263Y47773D01*
X34104Y47834D01*
X33941Y47886D01*
X33776Y47929D01*
X33608Y47962D01*
X33439Y47986D01*
X33269Y48000D01*
X33098Y48005D01*
Y48005D01*
X32804D01*
Y48154D01*
X31581D01*
X31546Y48154D01*
X31454D01*
X31419Y48154D01*
X30952D01*
Y47500D01*
X30825D01*
Y47373D01*
X30196D01*
Y46846D01*
Y46327D01*
X30825D01*
Y46073D01*
X30196D01*
Y45546D01*
Y45027D01*
X30825D01*
Y44773D01*
X30196D01*
Y44246D01*
Y43727D01*
X30825D01*
Y43473D01*
X30196D01*
Y43035D01*
X30146Y42929D01*
Y42886D01*
X30085Y42826D01*
X30019Y42791D01*
X29972Y42800D01*
X29900Y42805D01*
X29828Y42800D01*
X29756Y42786D01*
X29688Y42763D01*
X29622Y42731D01*
X29562Y42690D01*
X29507Y42643D01*
X29460Y42588D01*
X29419Y42528D01*
X29387Y42462D01*
X29364Y42394D01*
X29350Y42322D01*
X29345Y42250D01*
X29350Y42178D01*
X29364Y42106D01*
X29387Y42038D01*
X29419Y41972D01*
X29460Y41912D01*
X29507Y41857D01*
X29562Y41810D01*
X29622Y41769D01*
X29688Y41737D01*
X29756Y41714D01*
X29828Y41700D01*
X29900Y41695D01*
X29972Y41700D01*
X30019Y41709D01*
X30085Y41674D01*
X30146Y41614D01*
Y41571D01*
X31419D01*
X31454Y41571D01*
X31546D01*
X31581Y41571D01*
X32854D01*
Y42929D01*
X32804Y42946D01*
Y44246D01*
Y45546D01*
Y46995D01*
X33098D01*
X33107Y46996D01*
X33231Y46991D01*
X33364Y46978D01*
X33495Y46957D01*
X33625Y46926D01*
X33752Y46888D01*
X33877Y46841D01*
X33998Y46786D01*
X34116Y46723D01*
X34229Y46653D01*
X34337Y46575D01*
X34440Y46491D01*
X34531Y46406D01*
X34537Y46399D01*
X35199Y45737D01*
X35206Y45731D01*
X35291Y45640D01*
X35345Y45574D01*
X35341Y45554D01*
X35289Y45462D01*
X35279Y45453D01*
X35251Y45455D01*
X35179Y45450D01*
X35107Y45436D01*
X35039Y45413D01*
X34974Y45381D01*
X34913Y45340D01*
X34859Y45293D01*
X34811Y45238D01*
X34770Y45178D01*
X34738Y45112D01*
X34715Y45044D01*
X34701Y44972D01*
X34696Y44900D01*
X34701Y44828D01*
X34715Y44756D01*
X34738Y44688D01*
X34770Y44622D01*
X34811Y44562D01*
X34859Y44507D01*
X34913Y44460D01*
X34974Y44419D01*
X35039Y44387D01*
X35107Y44364D01*
X35179Y44350D01*
X35251Y44345D01*
X35324Y44350D01*
X35395Y44364D01*
X35464Y44387D01*
X35529Y44419D01*
X35589Y44460D01*
X35644Y44507D01*
X35655Y44520D01*
X35787Y44478D01*
X35791Y44431D01*
X35796Y44307D01*
X35795Y44298D01*
Y35872D01*
X35795D01*
X35800Y35701D01*
X35814Y35531D01*
X35838Y35362D01*
X35871Y35194D01*
X35914Y35029D01*
X35966Y34866D01*
X36027Y34707D01*
X36096Y34551D01*
X36175Y34399D01*
X36262Y34252D01*
X36356Y34110D01*
X36459Y33973D01*
X36569Y33843D01*
X36687Y33719D01*
X36687Y33719D01*
X39669Y30736D01*
X39654Y30676D01*
X39640Y30579D01*
X39635Y30480D01*
X39640Y30381D01*
X39654Y30284D01*
X39678Y30188D01*
X39711Y30095D01*
X39753Y30006D01*
X39804Y29922D01*
X39863Y29842D01*
X39929Y29769D01*
X40002Y29703D01*
X40082Y29644D01*
X40166Y29593D01*
X40255Y29551D01*
X40348Y29518D01*
X40444Y29494D01*
X40541Y29480D01*
X40640Y29475D01*
X40739Y29480D01*
X40836Y29494D01*
X40932Y29518D01*
X41025Y29551D01*
X41114Y29593D01*
X41198Y29644D01*
X41265Y29694D01*
X41303Y29686D01*
X41388Y29631D01*
X41378Y29536D01*
X41357Y29405D01*
X41326Y29275D01*
X41288Y29148D01*
X41241Y29023D01*
X41186Y28902D01*
X41123Y28784D01*
X41053Y28671D01*
X40975Y28563D01*
X40891Y28460D01*
X40806Y28369D01*
X40799Y28363D01*
X39837Y27401D01*
X39831Y27394D01*
X39740Y27309D01*
X39637Y27225D01*
X39529Y27147D01*
X39416Y27077D01*
X39298Y27014D01*
X39177Y26959D01*
X39052Y26912D01*
X38925Y26874D01*
X38795Y26843D01*
X38664Y26822D01*
X38531Y26809D01*
X38407Y26804D01*
X38398Y26805D01*
X30268D01*
X30239Y26845D01*
X30214Y26932D01*
X30240Y26962D01*
X30281Y27022D01*
X30313Y27088D01*
X30319Y27104D01*
X30565Y27350D01*
X30565Y27350D01*
X30682Y27474D01*
X30792Y27605D01*
X30894Y27741D01*
X30989Y27883D01*
X31076Y28029D01*
X31154Y28181D01*
X31224Y28337D01*
X31285Y28496D01*
X31336Y28658D01*
X31379Y28824D01*
X31412Y28991D01*
X31436Y29160D01*
X31450Y29330D01*
X31455Y29500D01*
X31455D01*
Y29848D01*
X31455D01*
X31450Y30019D01*
X31436Y30189D01*
X31412Y30358D01*
X31379Y30526D01*
X31336Y30691D01*
X31284Y30854D01*
X31223Y31013D01*
X31154Y31169D01*
X31075Y31321D01*
X30988Y31468D01*
X30894Y31610D01*
X30791Y31747D01*
X30681Y31877D01*
X30563Y32001D01*
X30563Y32001D01*
X30374Y32190D01*
X30391Y32327D01*
X30413Y32346D01*
X30698D01*
Y32873D01*
X30196D01*
Y32604D01*
X30099Y32544D01*
X30069Y32535D01*
X30012Y32563D01*
X29944Y32586D01*
X29872Y32600D01*
X29800Y32605D01*
X29728Y32600D01*
X29656Y32586D01*
X29588Y32563D01*
X29522Y32531D01*
X29462Y32490D01*
X29407Y32443D01*
X29360Y32388D01*
X29319Y32328D01*
X29287Y32262D01*
X29264Y32194D01*
X29250Y32122D01*
X29245Y32050D01*
X29250Y31978D01*
X29264Y31906D01*
X29287Y31838D01*
X29319Y31772D01*
X29360Y31712D01*
X29407Y31657D01*
X29462Y31610D01*
X29522Y31569D01*
X29588Y31537D01*
X29604Y31531D01*
X29849Y31287D01*
X29856Y31281D01*
X29941Y31190D01*
X30025Y31087D01*
X30103Y30979D01*
X30173Y30866D01*
X30236Y30748D01*
X30291Y30627D01*
X30338Y30502D01*
X30376Y30375D01*
X30407Y30245D01*
X30428Y30114D01*
X30441Y29981D01*
X30446Y29857D01*
X30445Y29848D01*
Y29500D01*
X30446Y29491D01*
X30441Y29367D01*
X30428Y29235D01*
X30407Y29104D01*
X30377Y28974D01*
X30338Y28847D01*
X30291Y28723D01*
X30236Y28602D01*
X30174Y28485D01*
X30104Y28372D01*
X30026Y28264D01*
X29942Y28161D01*
X29857Y28071D01*
X29850Y28065D01*
X29604Y27819D01*
X29588Y27813D01*
X29522Y27781D01*
X29462Y27740D01*
X29407Y27693D01*
X29360Y27638D01*
X29319Y27578D01*
X29287Y27512D01*
X29264Y27444D01*
X29250Y27372D01*
X29245Y27300D01*
X29250Y27228D01*
X29264Y27156D01*
X29287Y27088D01*
X29319Y27022D01*
X29360Y26962D01*
X29386Y26932D01*
X29361Y26845D01*
X29331Y26805D01*
X28904D01*
Y27273D01*
X28275D01*
Y27527D01*
X28904D01*
Y28046D01*
Y28573D01*
X28275D01*
Y28827D01*
X28904D01*
Y29346D01*
Y29873D01*
X28275D01*
Y30127D01*
X28904D01*
Y30646D01*
Y31173D01*
X28275D01*
Y31300D01*
X28148D01*
Y31954D01*
X27753D01*
X27646Y31954D01*
X27629Y32074D01*
Y33219D01*
X27629Y33254D01*
Y33346D01*
X27629Y33381D01*
Y34654D01*
X27592D01*
X27501Y34777D01*
X27501Y34781D01*
X27505Y34850D01*
X27500Y34922D01*
X27486Y34994D01*
X27463Y35062D01*
X27431Y35128D01*
X27390Y35188D01*
X27343Y35243D01*
X27288Y35290D01*
X27228Y35331D01*
X27162Y35363D01*
X27094Y35386D01*
X27022Y35400D01*
X26950Y35405D01*
X26878Y35400D01*
X26806Y35386D01*
X26738Y35363D01*
X26672Y35331D01*
X26612Y35290D01*
X26557Y35243D01*
X26510Y35188D01*
X26469Y35128D01*
X26437Y35062D01*
X26414Y34994D01*
X26400Y34922D01*
X26395Y34850D01*
X26399Y34781D01*
X26399Y34777D01*
X26365Y34731D01*
X26301Y34727D01*
X26180Y34839D01*
Y35474D01*
X26180Y35481D01*
X26184Y35542D01*
X26197Y35608D01*
X26218Y35672D01*
X26242Y35720D01*
X26264Y35729D01*
X26318Y35762D01*
X26367Y35803D01*
X26443D01*
X26492Y35762D01*
X26546Y35729D01*
X26605Y35705D01*
X26667Y35690D01*
X26730Y35685D01*
X26793Y35690D01*
X26855Y35705D01*
X26914Y35729D01*
X26968Y35762D01*
X27055Y35791D01*
X27142Y35762D01*
X27196Y35729D01*
X27255Y35705D01*
X27317Y35690D01*
X27380Y35685D01*
X27443Y35690D01*
X27505Y35705D01*
X27564Y35729D01*
X27618Y35762D01*
X27667Y35803D01*
X27743D01*
X27792Y35762D01*
X27846Y35729D01*
X27905Y35705D01*
X27967Y35690D01*
X28030Y35685D01*
X28093Y35690D01*
X28155Y35705D01*
X28214Y35729D01*
X28268Y35762D01*
X28355Y35791D01*
X28442Y35762D01*
X28496Y35729D01*
X28555Y35705D01*
X28617Y35690D01*
X28680Y35685D01*
X28743Y35690D01*
X28805Y35705D01*
X28864Y35729D01*
X28918Y35762D01*
X28967Y35803D01*
X29008Y35852D01*
X29041Y35906D01*
X29065Y35965D01*
X29080Y36027D01*
X29085Y36090D01*
X29080Y36153D01*
X29065Y36215D01*
X29041Y36274D01*
X29008Y36328D01*
X28979Y36415D01*
X29008Y36502D01*
X29041Y36556D01*
X29065Y36615D01*
X29080Y36677D01*
X29085Y36740D01*
X29080Y36803D01*
X29065Y36865D01*
X29041Y36924D01*
X29008Y36978D01*
X28967Y37027D01*
Y37103D01*
X29008Y37152D01*
X29041Y37206D01*
X29065Y37265D01*
X29080Y37327D01*
X29085Y37390D01*
X29080Y37453D01*
X29065Y37515D01*
X29041Y37574D01*
X29008Y37628D01*
X28979Y37715D01*
X29008Y37802D01*
X29041Y37856D01*
X29065Y37915D01*
X29080Y37977D01*
X29085Y38040D01*
X29080Y38103D01*
X29065Y38165D01*
X29041Y38224D01*
X29008Y38278D01*
X28967Y38327D01*
Y38403D01*
X29008Y38452D01*
X29041Y38506D01*
X29065Y38565D01*
X29080Y38627D01*
X29085Y38690D01*
X29080Y38753D01*
X29065Y38815D01*
X29041Y38874D01*
X29008Y38928D01*
X28979Y39015D01*
X29008Y39102D01*
X29041Y39156D01*
X29065Y39215D01*
X29080Y39277D01*
X29085Y39340D01*
X29080Y39403D01*
X29065Y39465D01*
X29041Y39524D01*
X29008Y39578D01*
X28967Y39627D01*
Y39703D01*
X29008Y39752D01*
X29041Y39806D01*
X29065Y39865D01*
X29080Y39927D01*
X29085Y39990D01*
X29080Y40053D01*
X29065Y40115D01*
X29049Y40155D01*
X29162Y40215D01*
X29180Y40187D01*
X29228Y40132D01*
X29283Y40085D01*
X29343Y40044D01*
X29408Y40012D01*
X29477Y39989D01*
X29548Y39975D01*
X29621Y39970D01*
X29693Y39975D01*
X29764Y39989D01*
X29833Y40012D01*
X29898Y40044D01*
X29959Y40085D01*
X30013Y40132D01*
X30061Y40187D01*
X30102Y40247D01*
X30134Y40313D01*
X30157Y40381D01*
X30171Y40453D01*
X30176Y40525D01*
X30171Y40597D01*
X30157Y40669D01*
X30134Y40737D01*
X30102Y40803D01*
X30061Y40863D01*
X30013Y40918D01*
X29959Y40965D01*
X29898Y41006D01*
X29833Y41038D01*
X29764Y41061D01*
X29693Y41075D01*
X29621Y41080D01*
X29548Y41075D01*
X29477Y41061D01*
X29408Y41038D01*
X29343Y41006D01*
X29283Y40965D01*
X29228Y40918D01*
X29180Y40863D01*
X29169Y40846D01*
X29109Y40836D01*
X29048Y40842D01*
X29023Y40853D01*
X29008Y40878D01*
X28967Y40927D01*
Y41003D01*
X29008Y41052D01*
X29041Y41106D01*
X29065Y41165D01*
X29080Y41227D01*
X29085Y41290D01*
X29080Y41353D01*
X29065Y41415D01*
X29041Y41474D01*
X29008Y41528D01*
X28979Y41615D01*
X29008Y41702D01*
X29041Y41756D01*
X29065Y41815D01*
X29080Y41877D01*
X29085Y41940D01*
X29080Y42003D01*
X29065Y42065D01*
X29041Y42124D01*
X29008Y42178D01*
X28967Y42227D01*
Y42303D01*
X29008Y42352D01*
X29041Y42406D01*
X29065Y42465D01*
X29080Y42527D01*
X29085Y42590D01*
X29080Y42653D01*
X29065Y42715D01*
X29041Y42774D01*
X29008Y42828D01*
X28979Y42915D01*
X29008Y43002D01*
X29041Y43056D01*
X29065Y43115D01*
X29080Y43177D01*
X29085Y43240D01*
X29080Y43303D01*
X29065Y43365D01*
X29041Y43424D01*
X29008Y43478D01*
X28967Y43527D01*
Y43603D01*
X29008Y43652D01*
X29041Y43706D01*
X29065Y43765D01*
X29080Y43827D01*
X29085Y43890D01*
X29080Y43953D01*
X29065Y44015D01*
X29041Y44074D01*
X29008Y44128D01*
X28979Y44215D01*
X29008Y44302D01*
X29041Y44356D01*
X29065Y44415D01*
X29080Y44477D01*
X29085Y44540D01*
X29080Y44603D01*
X29065Y44665D01*
X29041Y44724D01*
X29008Y44778D01*
X28967Y44827D01*
Y44903D01*
X29008Y44952D01*
X29041Y45006D01*
X29065Y45065D01*
X29080Y45127D01*
X29085Y45190D01*
X29080Y45253D01*
X29065Y45315D01*
X29041Y45374D01*
X29008Y45428D01*
X28967Y45477D01*
X28918Y45518D01*
X28864Y45551D01*
X28838Y45562D01*
X28814Y45605D01*
X28788Y45667D01*
X28769Y45732D01*
X28758Y45799D01*
X28755Y45860D01*
X28755Y45866D01*
Y50398D01*
X28755D01*
X28751Y50611D01*
X28737Y50825D01*
X28713Y51037D01*
X28681Y51248D01*
X28639Y51457D01*
X28588Y51665D01*
X28529Y51870D01*
X28460Y52072D01*
X28383Y52271D01*
X28297Y52467D01*
X28202Y52658D01*
X28099Y52845D01*
X27989Y53028D01*
X27870Y53206D01*
X27744Y53378D01*
X27610Y53544D01*
X27469Y53705D01*
X27321Y53859D01*
X27321Y53859D01*
X27321Y53859D01*
X23809Y57371D01*
X23809Y57371D01*
X23809Y57371D01*
X23655Y57519D01*
X23494Y57660D01*
X23328Y57794D01*
X23156Y57920D01*
X22978Y58039D01*
X22795Y58149D01*
X22608Y58252D01*
X22417Y58347D01*
X22221Y58433D01*
X22022Y58510D01*
X21820Y58579D01*
X21615Y58638D01*
X21407Y58689D01*
X21198Y58731D01*
X20987Y58763D01*
X20775Y58787D01*
X20561Y58801D01*
X20348Y58805D01*
Y58805D01*
X16702D01*
X16693Y58804D01*
X16559Y58809D01*
X16417Y58823D01*
X16276Y58846D01*
X16136Y58879D01*
X15999Y58920D01*
X15866Y58970D01*
X15735Y59030D01*
X15609Y59097D01*
X15488Y59172D01*
X15455Y59196D01*
X15455Y59200D01*
X15450Y59272D01*
X15436Y59344D01*
X15413Y59412D01*
X15381Y59478D01*
X15340Y59538D01*
X15293Y59593D01*
X15238Y59640D01*
X15178Y59681D01*
X15112Y59713D01*
X15044Y59736D01*
X14972Y59750D01*
X14900Y59755D01*
X14828Y59750D01*
X14756Y59736D01*
X14688Y59713D01*
X14622Y59681D01*
X14562Y59640D01*
X14507Y59593D01*
X14460Y59538D01*
X14419Y59478D01*
X14387Y59412D01*
X14364Y59344D01*
X14350Y59272D01*
X14348Y59253D01*
X14239Y59188D01*
X14219Y59185D01*
X14162Y59213D01*
X14094Y59236D01*
X14022Y59250D01*
X13950Y59255D01*
X13878Y59250D01*
X13806Y59236D01*
X13738Y59213D01*
X13672Y59181D01*
X13612Y59140D01*
X13557Y59093D01*
X13510Y59038D01*
X13469Y58978D01*
X13437Y58912D01*
X13414Y58844D01*
X13400Y58772D01*
X13396Y58715D01*
X13342Y58674D01*
X13271Y58652D01*
X13228Y58681D01*
X13162Y58713D01*
X13094Y58736D01*
X13022Y58750D01*
X12950Y58755D01*
X12878Y58750D01*
X12806Y58736D01*
X12738Y58713D01*
X12672Y58681D01*
X12612Y58640D01*
X12557Y58593D01*
X12510Y58538D01*
X12469Y58478D01*
X12437Y58412D01*
X12414Y58344D01*
X12400Y58272D01*
X12396Y58215D01*
X12342Y58174D01*
X12271Y58152D01*
X12228Y58181D01*
X12162Y58213D01*
X12094Y58236D01*
X12022Y58250D01*
X11950Y58255D01*
X11878Y58250D01*
X11806Y58236D01*
X11738Y58213D01*
X11672Y58181D01*
X11612Y58140D01*
X11557Y58093D01*
X11510Y58038D01*
X11469Y57978D01*
X11437Y57912D01*
X11414Y57844D01*
X11400Y57772D01*
X11396Y57715D01*
X11342Y57674D01*
X11271Y57652D01*
X11228Y57681D01*
X11162Y57713D01*
X11094Y57736D01*
X11022Y57750D01*
X10950Y57755D01*
X10878Y57750D01*
X10806Y57736D01*
X10738Y57713D01*
X10672Y57681D01*
X10612Y57640D01*
X10557Y57593D01*
X10510Y57538D01*
X10469Y57478D01*
X10437Y57412D01*
X10414Y57344D01*
X10400Y57272D01*
X10395Y57200D01*
X10400Y57128D01*
X10414Y57056D01*
X10437Y56988D01*
X10469Y56922D01*
X10510Y56862D01*
X10557Y56807D01*
X10612Y56760D01*
X10672Y56719D01*
X10738Y56687D01*
X10806Y56664D01*
X10878Y56650D01*
X10950Y56645D01*
X11022Y56650D01*
X11044Y56654D01*
X11077Y56629D01*
X11212Y56539D01*
X11352Y56456D01*
X11496Y56382D01*
X11644Y56315D01*
X11796Y56257D01*
X11951Y56208D01*
X12108Y56167D01*
X12267Y56136D01*
X12428Y56113D01*
X12590Y56099D01*
X12752Y56095D01*
Y56095D01*
X20348D01*
X20357Y56096D01*
X20491Y56091D01*
X20633Y56077D01*
X20774Y56054D01*
X20914Y56021D01*
X21051Y55980D01*
X21184Y55930D01*
X21315Y55870D01*
X21441Y55803D01*
X21562Y55728D01*
X21679Y55644D01*
X21789Y55553D01*
X21887Y55462D01*
X21893Y55455D01*
X24167Y53180D01*
X24134Y53071D01*
X24119Y53049D01*
X24056Y53036D01*
X23988Y53013D01*
X23922Y52981D01*
X23862Y52940D01*
X23807Y52893D01*
X23760Y52838D01*
X23719Y52778D01*
X23687Y52712D01*
X23664Y52644D01*
X23650Y52572D01*
X23645Y52500D01*
X23650Y52428D01*
X23664Y52356D01*
X23687Y52288D01*
X23719Y52222D01*
X23760Y52162D01*
X23807Y52107D01*
X23862Y52060D01*
X23904Y52032D01*
X23923Y51958D01*
X23966Y51827D01*
X24019Y51701D01*
X24080Y51578D01*
X24150Y51460D01*
X24171Y51430D01*
Y50581D01*
X24171Y50546D01*
Y50454D01*
X24171Y50419D01*
Y49146D01*
X24408D01*
X24456Y49024D01*
X24456Y49019D01*
X24410Y48966D01*
X24369Y48905D01*
X24337Y48840D01*
X24314Y48771D01*
X24300Y48700D01*
X24295Y48628D01*
X24300Y48555D01*
X24314Y48484D01*
X24337Y48415D01*
X24369Y48350D01*
X24410Y48290D01*
X24457Y48235D01*
X24512Y48187D01*
X24572Y48147D01*
X24638Y48115D01*
X24706Y48091D01*
X24778Y48077D01*
X24850Y48072D01*
X24922Y48077D01*
X24994Y48091D01*
X25062Y48115D01*
X25128Y48147D01*
X25188Y48187D01*
X25243Y48235D01*
X25290Y48290D01*
X25331Y48350D01*
X25363Y48415D01*
X25386Y48484D01*
X25400Y48555D01*
X25405Y48628D01*
X25400Y48700D01*
X25386Y48771D01*
X25363Y48840D01*
X25331Y48905D01*
X25290Y48966D01*
X25244Y49019D01*
X25244Y49024D01*
X25292Y49146D01*
X25529D01*
Y50419D01*
X25529Y50454D01*
Y50546D01*
X25529Y50581D01*
Y51602D01*
X25656Y51642D01*
X25678Y51612D01*
X25753Y51491D01*
X25820Y51365D01*
X25880Y51234D01*
X25930Y51101D01*
X25971Y50964D01*
X26004Y50824D01*
X26027Y50683D01*
X26041Y50541D01*
X26046Y50407D01*
X26045Y50398D01*
Y47862D01*
X26046Y47853D01*
X26041Y47719D01*
X26027Y47577D01*
X26004Y47436D01*
X25971Y47296D01*
X25930Y47159D01*
X25880Y47026D01*
X25820Y46895D01*
X25753Y46769D01*
X25678Y46648D01*
X25594Y46531D01*
X25503Y46421D01*
X25412Y46323D01*
X25405Y46317D01*
X25199Y46111D01*
X25106Y46198D01*
X25140Y46237D01*
X25181Y46297D01*
X25213Y46363D01*
X25236Y46431D01*
X25250Y46503D01*
X25255Y46575D01*
X25250Y46647D01*
X25236Y46719D01*
X25213Y46787D01*
X25181Y46853D01*
X25140Y46913D01*
X25093Y46968D01*
X25038Y47015D01*
X24978Y47056D01*
X24912Y47088D01*
X24844Y47111D01*
X24772Y47125D01*
X24700Y47130D01*
X24628Y47125D01*
X24556Y47111D01*
X24488Y47088D01*
X24472Y47080D01*
X22985D01*
Y47080D01*
X22858Y47075D01*
X22732Y47060D01*
X22608Y47036D01*
X22486Y47001D01*
X22367Y46957D01*
X22251Y46904D01*
X22141Y46842D01*
X22057Y46786D01*
X22056Y46786D01*
X22012Y46771D01*
X21942Y46803D01*
X21885Y46854D01*
Y49568D01*
X21885D01*
X21881Y49730D01*
X21867Y49892D01*
X21844Y50053D01*
X21813Y50212D01*
X21772Y50369D01*
X21723Y50524D01*
X21665Y50676D01*
X21598Y50824D01*
X21524Y50968D01*
X21441Y51108D01*
X21351Y51243D01*
X21254Y51373D01*
X21149Y51497D01*
X21037Y51615D01*
X21037Y51615D01*
X21037Y51615D01*
X19545Y53107D01*
X19545Y53107D01*
X19427Y53219D01*
X19303Y53324D01*
X19173Y53421D01*
X19038Y53511D01*
X18898Y53594D01*
X18754Y53668D01*
X18606Y53735D01*
X18454Y53793D01*
X18299Y53842D01*
X18142Y53883D01*
X17983Y53914D01*
X17822Y53937D01*
X17660Y53951D01*
X17498Y53955D01*
Y53955D01*
X6752D01*
Y53955D01*
X6590Y53951D01*
X6428Y53937D01*
X6267Y53914D01*
X6108Y53883D01*
X5951Y53842D01*
X5796Y53793D01*
X5644Y53735D01*
X5496Y53668D01*
X5352Y53594D01*
X5212Y53511D01*
X5077Y53421D01*
X4947Y53324D01*
X4823Y53219D01*
X4705Y53107D01*
X4705Y53107D01*
X4100Y52502D01*
X4050Y52505D01*
X3978Y52500D01*
X3906Y52486D01*
X3838Y52463D01*
X3772Y52431D01*
X3712Y52390D01*
X3657Y52343D01*
X3610Y52288D01*
X3569Y52228D01*
X3537Y52162D01*
X3514Y52094D01*
X3500Y52022D01*
X3495Y51950D01*
X3500Y51878D01*
X3514Y51806D01*
X3537Y51738D01*
X3569Y51672D01*
X3610Y51612D01*
X3657Y51557D01*
X3712Y51510D01*
X3772Y51469D01*
X3838Y51437D01*
X3906Y51414D01*
X3978Y51400D01*
X4050Y51395D01*
X4122Y51400D01*
X4194Y51414D01*
X4262Y51437D01*
X4328Y51469D01*
X4371Y51498D01*
X4442Y51476D01*
X4496Y51435D01*
X4500Y51378D01*
X4514Y51306D01*
X4537Y51238D01*
X4569Y51172D01*
X4610Y51112D01*
X4657Y51057D01*
X4712Y51010D01*
X4772Y50969D01*
X4838Y50937D01*
X4906Y50914D01*
X4978Y50900D01*
X5050Y50895D01*
X5122Y50900D01*
X5194Y50914D01*
X5262Y50937D01*
X5328Y50969D01*
X5371Y50998D01*
X5442Y50976D01*
X5496Y50935D01*
X5500Y50878D01*
X5514Y50806D01*
X5537Y50738D01*
X5569Y50672D01*
X5610Y50612D01*
X5657Y50557D01*
X5712Y50510D01*
X5772Y50469D01*
X5838Y50437D01*
X5906Y50414D01*
X5978Y50400D01*
X6050Y50395D01*
X6122Y50400D01*
X6194Y50414D01*
X6262Y50437D01*
X6328Y50469D01*
X6371Y50498D01*
X6442Y50476D01*
X6496Y50435D01*
X6500Y50378D01*
X6514Y50306D01*
X6537Y50238D01*
X6569Y50172D01*
X6610Y50112D01*
X6657Y50057D01*
X6712Y50010D01*
X6772Y49969D01*
X6838Y49937D01*
X6906Y49914D01*
X6978Y49900D01*
X7050Y49895D01*
X7122Y49900D01*
X7194Y49914D01*
X7262Y49937D01*
X7328Y49969D01*
X7388Y50010D01*
X7443Y50057D01*
X7490Y50112D01*
X7531Y50172D01*
X7563Y50238D01*
X7586Y50306D01*
X7600Y50378D01*
X7605Y50450D01*
X7602Y50500D01*
X8207Y51105D01*
X8213Y51112D01*
X8311Y51203D01*
X8421Y51294D01*
X8538Y51378D01*
X8659Y51453D01*
X8785Y51520D01*
X8916Y51580D01*
X9049Y51630D01*
X9186Y51671D01*
X9326Y51704D01*
X9467Y51727D01*
X9609Y51741D01*
X9743Y51746D01*
X9752Y51745D01*
X16298D01*
X16307Y51746D01*
X16441Y51741D01*
X16583Y51727D01*
X16724Y51704D01*
X16864Y51671D01*
X17001Y51630D01*
X17134Y51580D01*
X17265Y51520D01*
X17391Y51453D01*
X17512Y51378D01*
X17629Y51294D01*
X17739Y51203D01*
X17837Y51112D01*
X17843Y51105D01*
X18585Y50363D01*
X18592Y50357D01*
X18683Y50259D01*
X18774Y50149D01*
X18858Y50032D01*
X18933Y49911D01*
X19000Y49785D01*
X19060Y49654D01*
X19110Y49521D01*
X19151Y49384D01*
X19184Y49244D01*
X19207Y49103D01*
X19221Y48961D01*
X19226Y48827D01*
X19225Y48818D01*
Y45384D01*
X19219Y45374D01*
X19195Y45315D01*
X19180Y45253D01*
X19175Y45190D01*
X19180Y45127D01*
X19195Y45065D01*
X19219Y45006D01*
X19252Y44952D01*
X19293Y44903D01*
Y44827D01*
X19252Y44778D01*
X19219Y44724D01*
X19195Y44665D01*
X19180Y44603D01*
X19175Y44540D01*
X19180Y44477D01*
X19195Y44415D01*
X19212Y44372D01*
X19192Y44319D01*
X19138Y44245D01*
X18504D01*
Y44554D01*
X17281D01*
X17246Y44554D01*
X17154D01*
X17119Y44554D01*
X16652D01*
Y43900D01*
Y43246D01*
X17119D01*
X17154Y43246D01*
X17246D01*
X17324Y43123D01*
X17324Y43119D01*
X17320Y43050D01*
X17325Y42978D01*
X17339Y42906D01*
X17362Y42838D01*
X17394Y42772D01*
X17435Y42712D01*
X17482Y42657D01*
X17537Y42610D01*
X17597Y42569D01*
X17663Y42537D01*
X17731Y42514D01*
X17803Y42500D01*
X17875Y42495D01*
X17947Y42500D01*
X18019Y42514D01*
X18087Y42537D01*
X18153Y42569D01*
X18213Y42610D01*
X18268Y42657D01*
X18315Y42712D01*
X18356Y42772D01*
X18388Y42838D01*
X18411Y42906D01*
X18425Y42978D01*
X18430Y43050D01*
X18426Y43119D01*
X18426Y43123D01*
X18504Y43246D01*
X18504D01*
Y43535D01*
X19138D01*
X19192Y43461D01*
X19212Y43408D01*
X19195Y43365D01*
X19180Y43303D01*
X19175Y43240D01*
X19180Y43177D01*
X19195Y43115D01*
X19219Y43056D01*
X19252Y43002D01*
X19281Y42915D01*
X19252Y42828D01*
X19219Y42774D01*
X19195Y42715D01*
X19180Y42653D01*
X19175Y42590D01*
X19180Y42527D01*
X19195Y42465D01*
X19219Y42406D01*
X19252Y42352D01*
X19293Y42303D01*
Y42227D01*
X19252Y42178D01*
X19219Y42124D01*
X19195Y42065D01*
X19180Y42003D01*
X19175Y41940D01*
X19180Y41877D01*
X19195Y41815D01*
X19212Y41772D01*
X19192Y41719D01*
X19138Y41645D01*
X14562D01*
X14553Y41644D01*
X14419Y41649D01*
X14277Y41663D01*
X14136Y41686D01*
X13996Y41719D01*
X13859Y41760D01*
X13726Y41810D01*
X13595Y41870D01*
X13469Y41937D01*
X13437Y41957D01*
X13423Y42083D01*
X13563Y42223D01*
X12662Y43123D01*
X12605Y43180D01*
X12548Y43237D01*
X11648Y44138D01*
X11406Y43896D01*
X7535Y47767D01*
X7535Y47767D01*
X7417Y47879D01*
X7293Y47984D01*
X7163Y48081D01*
X7028Y48171D01*
X6888Y48254D01*
X6744Y48328D01*
X6596Y48395D01*
X6444Y48453D01*
X6289Y48502D01*
X6132Y48543D01*
X5973Y48574D01*
X5812Y48597D01*
X5650Y48611D01*
X5488Y48615D01*
Y48615D01*
X1587D01*
X1575Y48649D01*
X1532Y48740D01*
X1481Y48825D01*
X1421Y48905D01*
X1354Y48979D01*
X1280Y49046D01*
X1200Y49106D01*
X1115Y49157D01*
X1024Y49200D01*
X930Y49233D01*
X833Y49258D01*
X735Y49272D01*
X635Y49277D01*
X-635D01*
X-735Y49272D01*
X-833Y49258D01*
X-930Y49233D01*
X-1024Y49200D01*
X-1115Y49157D01*
X-1200Y49106D01*
X-1280Y49046D01*
X-1354Y48979D01*
X-1421Y48905D01*
X-1481Y48825D01*
X-1532Y48740D01*
X-1562Y48677D01*
X-1689Y48705D01*
Y50355D01*
X-1562Y50383D01*
X-1532Y50320D01*
X-1481Y50235D01*
X-1421Y50155D01*
X-1354Y50081D01*
X-1280Y50014D01*
X-1200Y49954D01*
X-1115Y49903D01*
X-1024Y49860D01*
X-930Y49827D01*
X-833Y49802D01*
X-735Y49788D01*
X-635Y49783D01*
X-127D01*
Y50800D01*
Y51817D01*
X-635D01*
X-735Y51812D01*
X-833Y51798D01*
X-930Y51773D01*
X-1024Y51740D01*
X-1115Y51697D01*
X-1200Y51646D01*
X-1280Y51586D01*
X-1354Y51519D01*
X-1421Y51445D01*
X-1481Y51365D01*
X-1532Y51280D01*
X-1562Y51217D01*
X-1689Y51245D01*
Y52213D01*
X-1651Y52324D01*
X-1562Y52324D01*
X1651D01*
Y54356D01*
X-1562D01*
X-1651Y54356D01*
X-1689Y54467D01*
Y65589D01*
X49949D01*
Y54467D01*
D02*
G37*
G36*
X5631Y47901D02*
X5773Y47887D01*
X5914Y47864D01*
X6054Y47831D01*
X6191Y47790D01*
X6324Y47740D01*
X6455Y47680D01*
X6581Y47613D01*
X6702Y47538D01*
X6819Y47454D01*
X6929Y47363D01*
X7027Y47272D01*
X7033Y47265D01*
X10904Y43394D01*
X10687Y43177D01*
X11588Y42277D01*
X11645Y42220D01*
X11702Y42163D01*
X12602Y41262D01*
X12842Y41502D01*
X12887Y41469D01*
X13022Y41379D01*
X13162Y41296D01*
X13306Y41222D01*
X13454Y41155D01*
X13606Y41097D01*
X13761Y41048D01*
X13918Y41007D01*
X14077Y40976D01*
X14238Y40953D01*
X14400Y40939D01*
X14562Y40935D01*
Y40935D01*
X18013D01*
X18062Y40870D01*
X18084Y40808D01*
X18062Y40762D01*
X18039Y40694D01*
X18025Y40622D01*
X18020Y40550D01*
X18025Y40478D01*
X18026Y40472D01*
X17939Y40345D01*
X14467D01*
Y40345D01*
X14305Y40341D01*
X14143Y40327D01*
X13982Y40304D01*
X13823Y40273D01*
X13666Y40232D01*
X13511Y40183D01*
X13359Y40125D01*
X13211Y40058D01*
X13067Y39984D01*
X12927Y39901D01*
X12792Y39811D01*
X12662Y39714D01*
X12538Y39609D01*
X12420Y39497D01*
X12420Y39497D01*
X1858Y28935D01*
X1852Y28928D01*
X1754Y28837D01*
X1644Y28746D01*
X1527Y28662D01*
X1415Y28593D01*
X1354Y28659D01*
X1280Y28726D01*
X1200Y28786D01*
X1115Y28837D01*
X1024Y28880D01*
X930Y28913D01*
X833Y28938D01*
X735Y28952D01*
X635Y28957D01*
X-635D01*
X-735Y28952D01*
X-833Y28938D01*
X-930Y28913D01*
X-1024Y28880D01*
X-1115Y28837D01*
X-1200Y28786D01*
X-1280Y28726D01*
X-1354Y28659D01*
X-1421Y28585D01*
X-1481Y28505D01*
X-1532Y28420D01*
X-1562Y28357D01*
X-1689Y28385D01*
Y30035D01*
X-1562Y30063D01*
X-1532Y30000D01*
X-1481Y29915D01*
X-1421Y29835D01*
X-1354Y29761D01*
X-1280Y29694D01*
X-1200Y29634D01*
X-1115Y29583D01*
X-1024Y29540D01*
X-930Y29507D01*
X-833Y29482D01*
X-735Y29468D01*
X-635Y29463D01*
X635D01*
X735Y29468D01*
X833Y29482D01*
X930Y29507D01*
X1024Y29540D01*
X1115Y29583D01*
X1200Y29634D01*
X1280Y29694D01*
X1354Y29761D01*
X1421Y29835D01*
X1481Y29915D01*
X1532Y30000D01*
X1575Y30091D01*
X1608Y30185D01*
X1633Y30282D01*
X1647Y30380D01*
X1652Y30480D01*
X1647Y30580D01*
X1633Y30678D01*
X1608Y30775D01*
X1575Y30869D01*
X1532Y30960D01*
X1481Y31045D01*
X1421Y31125D01*
X1354Y31199D01*
X1280Y31266D01*
X1200Y31326D01*
X1115Y31377D01*
X1024Y31420D01*
X930Y31453D01*
X833Y31478D01*
X735Y31492D01*
X635Y31497D01*
X-635D01*
X-735Y31492D01*
X-833Y31478D01*
X-930Y31453D01*
X-1024Y31420D01*
X-1115Y31377D01*
X-1200Y31326D01*
X-1280Y31266D01*
X-1354Y31199D01*
X-1421Y31125D01*
X-1481Y31045D01*
X-1532Y30960D01*
X-1562Y30897D01*
X-1689Y30925D01*
Y32575D01*
X-1562Y32603D01*
X-1532Y32540D01*
X-1481Y32455D01*
X-1421Y32375D01*
X-1354Y32301D01*
X-1280Y32234D01*
X-1200Y32174D01*
X-1115Y32123D01*
X-1024Y32080D01*
X-930Y32047D01*
X-833Y32022D01*
X-735Y32008D01*
X-635Y32003D01*
X635D01*
X735Y32008D01*
X833Y32022D01*
X930Y32047D01*
X1024Y32080D01*
X1115Y32123D01*
X1200Y32174D01*
X1280Y32234D01*
X1354Y32301D01*
X1421Y32375D01*
X1481Y32455D01*
X1532Y32540D01*
X1575Y32631D01*
X1608Y32725D01*
X1633Y32822D01*
X1647Y32920D01*
X1652Y33020D01*
X1647Y33120D01*
X1633Y33218D01*
X1608Y33315D01*
X1575Y33409D01*
X1532Y33500D01*
X1481Y33585D01*
X1421Y33665D01*
X1354Y33739D01*
X1280Y33806D01*
X1200Y33866D01*
X1115Y33917D01*
X1024Y33960D01*
X930Y33993D01*
X833Y34018D01*
X735Y34032D01*
X635Y34037D01*
X-635D01*
X-735Y34032D01*
X-833Y34018D01*
X-930Y33993D01*
X-1024Y33960D01*
X-1115Y33917D01*
X-1200Y33866D01*
X-1280Y33806D01*
X-1354Y33739D01*
X-1421Y33665D01*
X-1481Y33585D01*
X-1532Y33500D01*
X-1562Y33437D01*
X-1689Y33465D01*
Y35115D01*
X-1562Y35143D01*
X-1532Y35080D01*
X-1481Y34995D01*
X-1421Y34915D01*
X-1354Y34841D01*
X-1280Y34774D01*
X-1200Y34714D01*
X-1115Y34663D01*
X-1024Y34620D01*
X-930Y34587D01*
X-833Y34562D01*
X-735Y34548D01*
X-635Y34543D01*
X635D01*
X735Y34548D01*
X833Y34562D01*
X930Y34587D01*
X1024Y34620D01*
X1115Y34663D01*
X1200Y34714D01*
X1280Y34774D01*
X1354Y34841D01*
X1421Y34915D01*
X1481Y34995D01*
X1532Y35080D01*
X1575Y35171D01*
X1608Y35265D01*
X1633Y35362D01*
X1647Y35460D01*
X1652Y35560D01*
X1647Y35660D01*
X1633Y35758D01*
X1608Y35855D01*
X1575Y35949D01*
X1532Y36040D01*
X1481Y36125D01*
X1421Y36205D01*
X1354Y36279D01*
X1280Y36346D01*
X1200Y36406D01*
X1115Y36457D01*
X1024Y36500D01*
X930Y36533D01*
X833Y36558D01*
X735Y36572D01*
X635Y36577D01*
X-635D01*
X-735Y36572D01*
X-833Y36558D01*
X-930Y36533D01*
X-1024Y36500D01*
X-1115Y36457D01*
X-1200Y36406D01*
X-1280Y36346D01*
X-1354Y36279D01*
X-1421Y36205D01*
X-1481Y36125D01*
X-1532Y36040D01*
X-1562Y35977D01*
X-1689Y36005D01*
Y37655D01*
X-1562Y37683D01*
X-1532Y37620D01*
X-1481Y37535D01*
X-1421Y37455D01*
X-1354Y37381D01*
X-1280Y37314D01*
X-1200Y37254D01*
X-1115Y37203D01*
X-1024Y37160D01*
X-930Y37127D01*
X-833Y37102D01*
X-735Y37088D01*
X-635Y37083D01*
X635D01*
X735Y37088D01*
X833Y37102D01*
X930Y37127D01*
X1024Y37160D01*
X1115Y37203D01*
X1200Y37254D01*
X1280Y37314D01*
X1354Y37381D01*
X1421Y37455D01*
X1481Y37535D01*
X1532Y37620D01*
X1575Y37711D01*
X1608Y37805D01*
X1633Y37902D01*
X1647Y38000D01*
X1652Y38100D01*
X1647Y38200D01*
X1633Y38298D01*
X1608Y38395D01*
X1575Y38489D01*
X1532Y38580D01*
X1481Y38665D01*
X1421Y38745D01*
X1354Y38819D01*
X1280Y38886D01*
X1200Y38946D01*
X1115Y38997D01*
X1024Y39040D01*
X930Y39073D01*
X833Y39098D01*
X735Y39112D01*
X635Y39117D01*
X-635D01*
X-735Y39112D01*
X-833Y39098D01*
X-930Y39073D01*
X-1024Y39040D01*
X-1115Y38997D01*
X-1200Y38946D01*
X-1280Y38886D01*
X-1354Y38819D01*
X-1421Y38745D01*
X-1481Y38665D01*
X-1532Y38580D01*
X-1562Y38517D01*
X-1689Y38545D01*
Y40195D01*
X-1562Y40223D01*
X-1532Y40160D01*
X-1481Y40075D01*
X-1421Y39995D01*
X-1354Y39921D01*
X-1280Y39854D01*
X-1200Y39794D01*
X-1115Y39743D01*
X-1024Y39700D01*
X-930Y39667D01*
X-833Y39642D01*
X-735Y39628D01*
X-635Y39623D01*
X-127D01*
Y40640D01*
Y41657D01*
X-635D01*
X-735Y41652D01*
X-833Y41638D01*
X-930Y41613D01*
X-1024Y41580D01*
X-1115Y41537D01*
X-1200Y41486D01*
X-1280Y41426D01*
X-1354Y41359D01*
X-1421Y41285D01*
X-1481Y41205D01*
X-1532Y41120D01*
X-1562Y41057D01*
X-1689Y41085D01*
Y42735D01*
X-1562Y42763D01*
X-1532Y42700D01*
X-1481Y42615D01*
X-1421Y42535D01*
X-1354Y42461D01*
X-1280Y42394D01*
X-1200Y42334D01*
X-1115Y42283D01*
X-1024Y42240D01*
X-930Y42207D01*
X-833Y42182D01*
X-735Y42168D01*
X-635Y42163D01*
X635D01*
X735Y42168D01*
X833Y42182D01*
X930Y42207D01*
X1024Y42240D01*
X1115Y42283D01*
X1200Y42334D01*
X1280Y42394D01*
X1354Y42461D01*
X1421Y42535D01*
X1481Y42615D01*
X1532Y42700D01*
X1575Y42791D01*
X1608Y42885D01*
X1633Y42982D01*
X1647Y43080D01*
X1652Y43180D01*
X1647Y43280D01*
X1633Y43378D01*
X1608Y43475D01*
X1575Y43569D01*
X1532Y43660D01*
X1481Y43745D01*
X1421Y43825D01*
X1354Y43899D01*
X1280Y43966D01*
X1200Y44026D01*
X1115Y44077D01*
X1024Y44120D01*
X930Y44153D01*
X833Y44178D01*
X735Y44192D01*
X635Y44197D01*
X-635D01*
X-735Y44192D01*
X-833Y44178D01*
X-930Y44153D01*
X-1024Y44120D01*
X-1115Y44077D01*
X-1200Y44026D01*
X-1280Y43966D01*
X-1354Y43899D01*
X-1421Y43825D01*
X-1481Y43745D01*
X-1532Y43660D01*
X-1562Y43597D01*
X-1689Y43625D01*
Y45275D01*
X-1562Y45303D01*
X-1532Y45240D01*
X-1481Y45155D01*
X-1421Y45075D01*
X-1354Y45001D01*
X-1280Y44934D01*
X-1200Y44874D01*
X-1115Y44823D01*
X-1024Y44780D01*
X-930Y44747D01*
X-833Y44722D01*
X-735Y44708D01*
X-635Y44703D01*
X-127D01*
Y45720D01*
Y46737D01*
X-635D01*
X-735Y46732D01*
X-833Y46718D01*
X-930Y46693D01*
X-1024Y46660D01*
X-1115Y46617D01*
X-1200Y46566D01*
X-1280Y46506D01*
X-1354Y46439D01*
X-1421Y46365D01*
X-1481Y46285D01*
X-1532Y46200D01*
X-1562Y46137D01*
X-1689Y46165D01*
Y47815D01*
X-1562Y47843D01*
X-1532Y47780D01*
X-1481Y47695D01*
X-1421Y47615D01*
X-1354Y47541D01*
X-1280Y47474D01*
X-1200Y47414D01*
X-1115Y47363D01*
X-1024Y47320D01*
X-930Y47287D01*
X-833Y47262D01*
X-735Y47248D01*
X-635Y47243D01*
X635D01*
X735Y47248D01*
X833Y47262D01*
X930Y47287D01*
X1024Y47320D01*
X1115Y47363D01*
X1200Y47414D01*
X1280Y47474D01*
X1354Y47541D01*
X1421Y47615D01*
X1481Y47695D01*
X1532Y47780D01*
X1575Y47871D01*
X1587Y47905D01*
X5488D01*
X5497Y47906D01*
X5631Y47901D01*
D02*
G37*
G36*
X24907Y42855D02*
X24964Y42879D01*
X25018Y42912D01*
X25067Y42953D01*
X25143D01*
X25192Y42912D01*
X25246Y42879D01*
X25305Y42855D01*
X25367Y42840D01*
X25430Y42835D01*
X25493Y42840D01*
X25555Y42855D01*
X25614Y42879D01*
X25668Y42912D01*
X25755Y42941D01*
X25842Y42912D01*
X25896Y42879D01*
X25955Y42855D01*
X26017Y42840D01*
X26080Y42835D01*
X26143Y42840D01*
X26205Y42855D01*
X26264Y42879D01*
X26303Y42903D01*
X26354Y42864D01*
X26393Y42813D01*
X26369Y42774D01*
X26345Y42715D01*
X26330Y42653D01*
X26325Y42590D01*
X26330Y42527D01*
X26345Y42465D01*
X26369Y42406D01*
X26402Y42352D01*
X26443Y42303D01*
Y42227D01*
X26402Y42178D01*
X26369Y42124D01*
X26345Y42067D01*
X26730D01*
Y41813D01*
X26345D01*
X26369Y41756D01*
X26402Y41702D01*
X26431Y41615D01*
X26402Y41528D01*
X26369Y41474D01*
X26345Y41417D01*
X26730D01*
Y41163D01*
X26345D01*
X26369Y41106D01*
X26402Y41052D01*
X26443Y41003D01*
Y40927D01*
X26402Y40878D01*
X26369Y40824D01*
X26345Y40767D01*
X26730D01*
Y40513D01*
X26345D01*
X26369Y40456D01*
X26402Y40402D01*
X26431Y40315D01*
X26402Y40228D01*
X26369Y40174D01*
X26345Y40115D01*
X26330Y40053D01*
X26325Y39990D01*
X26330Y39927D01*
X26345Y39865D01*
X26369Y39806D01*
X26402Y39752D01*
X26443Y39703D01*
Y39627D01*
X26402Y39578D01*
X26369Y39524D01*
X26345Y39465D01*
X26330Y39403D01*
X26325Y39340D01*
X26330Y39277D01*
X26345Y39215D01*
X26369Y39156D01*
X26402Y39102D01*
X26431Y39015D01*
X26402Y38928D01*
X26369Y38874D01*
X26345Y38815D01*
X26330Y38753D01*
X26325Y38690D01*
X26330Y38627D01*
X26345Y38565D01*
X26369Y38506D01*
X26393Y38467D01*
X26354Y38416D01*
X26303Y38377D01*
X26264Y38401D01*
X26205Y38425D01*
X26143Y38440D01*
X26113Y38443D01*
X26052Y38489D01*
X26003Y38565D01*
X26005Y38600D01*
X26000Y38672D01*
X25986Y38744D01*
X25963Y38812D01*
X25931Y38878D01*
X25890Y38938D01*
X25843Y38993D01*
X25788Y39040D01*
X25764Y39056D01*
X25758Y39102D01*
X25791Y39156D01*
X25815Y39213D01*
X25430D01*
Y39467D01*
X25815D01*
X25791Y39524D01*
X25758Y39578D01*
X25717Y39627D01*
Y39703D01*
X25758Y39752D01*
X25791Y39806D01*
X25815Y39863D01*
X25430D01*
Y40117D01*
X25815D01*
X25791Y40174D01*
X25758Y40228D01*
X25729Y40315D01*
X25758Y40402D01*
X25791Y40456D01*
X25815Y40513D01*
X25430D01*
Y40767D01*
X25815D01*
X25791Y40824D01*
X25758Y40878D01*
X25717Y40927D01*
Y41003D01*
X25758Y41052D01*
X25791Y41106D01*
X25815Y41163D01*
X25430D01*
Y41417D01*
X25815D01*
X25791Y41474D01*
X25758Y41528D01*
X25729Y41615D01*
X25758Y41702D01*
X25791Y41756D01*
X25815Y41813D01*
X25430D01*
Y41940D01*
X25303D01*
Y42325D01*
X25246Y42301D01*
X25192Y42268D01*
X25143Y42227D01*
X25067D01*
X25018Y42268D01*
X24964Y42301D01*
X24907Y42325D01*
Y41940D01*
X24653D01*
Y42325D01*
X24596Y42301D01*
X24542Y42268D01*
X24455Y42239D01*
X24368Y42268D01*
X24314Y42301D01*
X24257Y42325D01*
Y41940D01*
X24003D01*
Y42325D01*
X23946Y42301D01*
X23892Y42268D01*
X23843Y42227D01*
X23767D01*
X23718Y42268D01*
X23664Y42301D01*
X23605Y42325D01*
X23543Y42340D01*
X23480Y42345D01*
X23466Y42344D01*
X23380Y42433D01*
X23369Y42459D01*
X23380Y42518D01*
X23385Y42590D01*
X23380Y42662D01*
X23369Y42721D01*
X23380Y42747D01*
X23466Y42836D01*
X23480Y42835D01*
X23543Y42840D01*
X23605Y42855D01*
X23664Y42879D01*
X23718Y42912D01*
X23767Y42953D01*
X23843D01*
X23892Y42912D01*
X23946Y42879D01*
X24003Y42855D01*
Y43240D01*
X24257D01*
Y42855D01*
X24314Y42879D01*
X24368Y42912D01*
X24455Y42941D01*
X24542Y42912D01*
X24596Y42879D01*
X24653Y42855D01*
Y43240D01*
X24907D01*
Y42855D01*
D02*
G37*
G36*
X21996Y42879D02*
X22055Y42855D01*
X22117Y42840D01*
X22180Y42835D01*
X22194Y42836D01*
X22280Y42747D01*
X22291Y42721D01*
X22280Y42662D01*
X22275Y42590D01*
X22280Y42518D01*
X22294Y42446D01*
X22317Y42378D01*
X22349Y42312D01*
X22390Y42252D01*
X22437Y42197D01*
X22487Y42154D01*
X22469Y42124D01*
X22445Y42067D01*
X22647D01*
X22686Y42054D01*
X22758Y42040D01*
X22830Y42035D01*
Y41813D01*
X22445D01*
X22469Y41756D01*
X22502Y41702D01*
X22531Y41615D01*
X22502Y41528D01*
X22469Y41474D01*
X22445Y41417D01*
X22830D01*
Y41163D01*
X22445D01*
X22469Y41106D01*
X22502Y41052D01*
X22543Y41003D01*
Y40927D01*
X22502Y40878D01*
X22469Y40824D01*
X22445Y40767D01*
X22830D01*
Y40513D01*
X22445D01*
X22469Y40456D01*
X22502Y40402D01*
X22531Y40315D01*
X22502Y40228D01*
X22469Y40174D01*
X22445Y40117D01*
X22830D01*
Y39863D01*
X22445D01*
X22469Y39806D01*
X22502Y39752D01*
X22543Y39703D01*
Y39627D01*
X22502Y39578D01*
X22469Y39524D01*
X22445Y39465D01*
X22430Y39403D01*
X22425Y39340D01*
X22426Y39326D01*
X22337Y39240D01*
X22311Y39229D01*
X22252Y39240D01*
X22180Y39245D01*
X22108Y39240D01*
X22049Y39229D01*
X22023Y39240D01*
X21934Y39326D01*
X21935Y39340D01*
X21930Y39403D01*
X21915Y39465D01*
X21891Y39524D01*
X21858Y39578D01*
X21817Y39627D01*
Y39703D01*
X21858Y39752D01*
X21891Y39806D01*
X21915Y39865D01*
X21930Y39927D01*
X21935Y39990D01*
X21930Y40053D01*
X21915Y40115D01*
X21891Y40174D01*
X21858Y40228D01*
X21829Y40315D01*
X21858Y40402D01*
X21891Y40456D01*
X21915Y40515D01*
X21930Y40577D01*
X21935Y40640D01*
X21930Y40703D01*
X21915Y40765D01*
X21891Y40824D01*
X21858Y40878D01*
X21817Y40927D01*
Y41003D01*
X21858Y41052D01*
X21891Y41106D01*
X21915Y41165D01*
X21930Y41227D01*
X21935Y41290D01*
X21930Y41353D01*
X21915Y41415D01*
X21891Y41474D01*
X21858Y41528D01*
X21829Y41615D01*
X21858Y41702D01*
X21891Y41756D01*
X21915Y41815D01*
X21930Y41877D01*
X21935Y41940D01*
X21930Y42003D01*
X21915Y42065D01*
X21891Y42124D01*
X21858Y42178D01*
X21817Y42227D01*
Y42303D01*
X21858Y42352D01*
X21891Y42406D01*
X21915Y42465D01*
X21930Y42527D01*
X21935Y42590D01*
X21930Y42653D01*
X21915Y42715D01*
X21891Y42774D01*
X21867Y42813D01*
X21906Y42864D01*
X21957Y42903D01*
X21996Y42879D01*
D02*
G37*
G36*
X24907Y38900D02*
X24942Y38857D01*
X24949Y38837D01*
X24937Y38812D01*
X24914Y38744D01*
X24900Y38672D01*
X24895Y38600D01*
X24898Y38558D01*
X24883Y38526D01*
X24857Y38497D01*
X24787Y38445D01*
X24780Y38445D01*
X24717Y38440D01*
X24655Y38425D01*
X24596Y38401D01*
X24542Y38368D01*
X24455Y38339D01*
X24368Y38368D01*
X24314Y38401D01*
X24257Y38425D01*
Y38040D01*
X24003D01*
Y38425D01*
X23946Y38401D01*
X23892Y38368D01*
X23843Y38327D01*
X23767D01*
X23718Y38368D01*
X23664Y38401D01*
X23605Y38425D01*
X23543Y38440D01*
X23480Y38445D01*
X23417Y38440D01*
X23355Y38425D01*
X23296Y38401D01*
X23242Y38368D01*
X23155Y38339D01*
X23068Y38368D01*
X23014Y38401D01*
X22955Y38425D01*
X22893Y38440D01*
X22830Y38445D01*
X22816Y38444D01*
X22730Y38533D01*
X22719Y38559D01*
X22730Y38618D01*
X22735Y38690D01*
X22730Y38762D01*
X22719Y38821D01*
X22730Y38847D01*
X22816Y38936D01*
X22830Y38935D01*
X22893Y38940D01*
X22955Y38955D01*
X23014Y38979D01*
X23068Y39012D01*
X23155Y39041D01*
X23242Y39012D01*
X23296Y38979D01*
X23353Y38955D01*
Y39340D01*
X23607D01*
Y38955D01*
X23664Y38979D01*
X23718Y39012D01*
X23767Y39053D01*
X23843D01*
X23892Y39012D01*
X23946Y38979D01*
X24003Y38955D01*
Y39340D01*
X24257D01*
Y38955D01*
X24314Y38979D01*
X24368Y39012D01*
X24455Y39041D01*
X24542Y39012D01*
X24596Y38979D01*
X24653Y38955D01*
Y39340D01*
X24907D01*
Y38900D01*
D02*
G37*
G36*
X14467Y39635D02*
X19138D01*
X19192Y39561D01*
X19212Y39508D01*
X19195Y39465D01*
X19180Y39403D01*
X19175Y39340D01*
X19180Y39277D01*
X19195Y39215D01*
X19219Y39156D01*
X19252Y39102D01*
X19281Y39015D01*
X19252Y38928D01*
X19219Y38874D01*
X19195Y38815D01*
X19180Y38753D01*
X19175Y38690D01*
X19180Y38627D01*
X19195Y38565D01*
X19219Y38506D01*
X19252Y38452D01*
X19293Y38403D01*
Y38327D01*
X19252Y38278D01*
X19219Y38224D01*
X19195Y38167D01*
X19580D01*
Y37913D01*
X19195D01*
X19219Y37856D01*
X19252Y37802D01*
X19281Y37715D01*
X19252Y37628D01*
X19219Y37574D01*
X19195Y37515D01*
X19180Y37453D01*
X19175Y37390D01*
X19180Y37327D01*
X19195Y37265D01*
X19219Y37206D01*
X19252Y37152D01*
X19293Y37103D01*
Y37027D01*
X19252Y36978D01*
X19219Y36924D01*
X19195Y36865D01*
X19180Y36803D01*
X19175Y36740D01*
X19180Y36677D01*
X19195Y36615D01*
X19219Y36556D01*
X19233Y36534D01*
X19233Y36498D01*
X19215Y36444D01*
X19181Y36389D01*
X19120Y36372D01*
X19011Y36332D01*
X18905Y36283D01*
X18878Y36268D01*
X18822Y36279D01*
X18750Y36284D01*
X18678Y36279D01*
X18606Y36265D01*
X18538Y36242D01*
X18472Y36210D01*
X18412Y36169D01*
X18357Y36121D01*
X18310Y36067D01*
X18269Y36007D01*
X18237Y35941D01*
X18214Y35873D01*
X18200Y35801D01*
X18195Y35729D01*
X18200Y35656D01*
X18214Y35585D01*
X18237Y35516D01*
X18242Y35507D01*
X18177Y35389D01*
X18164Y35380D01*
X16602D01*
Y35380D01*
X16440Y35376D01*
X16278Y35362D01*
X16117Y35339D01*
X15958Y35308D01*
X15866Y35284D01*
X15800Y35398D01*
X15832Y35430D01*
X15838Y35437D01*
X15936Y35528D01*
X16046Y35619D01*
X16163Y35703D01*
X16284Y35778D01*
X16410Y35845D01*
X16541Y35905D01*
X16674Y35955D01*
X16811Y35996D01*
X16899Y36017D01*
X16907Y36007D01*
X16962Y35960D01*
X17022Y35919D01*
X17088Y35887D01*
X17156Y35864D01*
X17228Y35850D01*
X17300Y35845D01*
X17372Y35850D01*
X17444Y35864D01*
X17512Y35887D01*
X17578Y35919D01*
X17638Y35960D01*
X17693Y36007D01*
X17740Y36062D01*
X17781Y36122D01*
X17813Y36188D01*
X17836Y36256D01*
X17850Y36328D01*
X17855Y36400D01*
X17850Y36472D01*
X17836Y36544D01*
X17813Y36612D01*
X17781Y36678D01*
X17740Y36738D01*
X17693Y36793D01*
X17638Y36840D01*
X17578Y36881D01*
X17512Y36913D01*
X17444Y36936D01*
X17372Y36950D01*
X17300Y36955D01*
X17228Y36950D01*
X17156Y36936D01*
X17088Y36913D01*
X17022Y36881D01*
X16962Y36840D01*
X16907Y36793D01*
X16860Y36738D01*
X16856Y36732D01*
X16733Y36708D01*
X16671Y36819D01*
X16788Y36903D01*
X16909Y36978D01*
X17035Y37045D01*
X17166Y37105D01*
X17299Y37155D01*
X17436Y37196D01*
X17503Y37212D01*
X17507Y37207D01*
X17562Y37160D01*
X17622Y37119D01*
X17688Y37087D01*
X17756Y37064D01*
X17828Y37050D01*
X17900Y37045D01*
X17972Y37050D01*
X18044Y37064D01*
X18112Y37087D01*
X18178Y37119D01*
X18238Y37160D01*
X18293Y37207D01*
X18340Y37262D01*
X18381Y37322D01*
X18413Y37388D01*
X18436Y37456D01*
X18450Y37528D01*
X18455Y37600D01*
X18450Y37672D01*
X18436Y37744D01*
X18413Y37812D01*
X18381Y37878D01*
X18340Y37938D01*
X18293Y37993D01*
X18238Y38040D01*
X18178Y38081D01*
X18112Y38113D01*
X18044Y38136D01*
X17972Y38150D01*
X17900Y38155D01*
X17828Y38150D01*
X17756Y38136D01*
X17688Y38113D01*
X17627Y38083D01*
X17595Y38096D01*
X17523Y38167D01*
X17536Y38206D01*
X17550Y38278D01*
X17555Y38350D01*
X17550Y38422D01*
X17536Y38494D01*
X17513Y38562D01*
X17481Y38628D01*
X17440Y38688D01*
X17393Y38743D01*
X17338Y38790D01*
X17278Y38831D01*
X17212Y38863D01*
X17144Y38886D01*
X17072Y38900D01*
X17000Y38905D01*
X16928Y38900D01*
X16856Y38886D01*
X16788Y38863D01*
X16722Y38831D01*
X16662Y38790D01*
X16607Y38743D01*
X16560Y38688D01*
X16519Y38628D01*
X16487Y38562D01*
X16464Y38494D01*
X16450Y38422D01*
X16445Y38350D01*
X16448Y38300D01*
X15974Y37826D01*
X15959Y37828D01*
X15853Y37885D01*
X15855Y37917D01*
X15850Y37990D01*
X15836Y38061D01*
X15813Y38130D01*
X15781Y38195D01*
X15740Y38255D01*
X15693Y38310D01*
X15638Y38358D01*
X15578Y38398D01*
X15512Y38430D01*
X15444Y38454D01*
X15372Y38468D01*
X15300Y38473D01*
X15228Y38468D01*
X15156Y38454D01*
X15088Y38430D01*
X15022Y38398D01*
X14962Y38358D01*
X14907Y38310D01*
X14875Y38273D01*
X14742D01*
X14742Y38273D01*
X14659Y38268D01*
X14620Y38261D01*
X14620Y38261D01*
X14620Y38261D01*
X14620D01*
X14620Y38261D01*
X14576Y38254D01*
X14496Y38231D01*
X14431Y38204D01*
X13731D01*
X13696Y38204D01*
X13604D01*
X13569Y38204D01*
X12311D01*
X12231Y38304D01*
X12922Y38995D01*
X12928Y39002D01*
X13026Y39093D01*
X13136Y39184D01*
X13253Y39268D01*
X13374Y39343D01*
X13500Y39410D01*
X13631Y39470D01*
X13764Y39520D01*
X13901Y39561D01*
X14041Y39594D01*
X14182Y39617D01*
X14324Y39631D01*
X14458Y39636D01*
X14467Y39635D01*
D02*
G37*
G36*
X23892Y35762D02*
X23946Y35729D01*
X24005Y35705D01*
X24067Y35690D01*
X24130Y35685D01*
X24193Y35690D01*
X24255Y35705D01*
X24314Y35729D01*
X24368Y35762D01*
X24455Y35791D01*
X24542Y35762D01*
X24596Y35729D01*
X24615Y35721D01*
X24634Y35683D01*
X24654Y35623D01*
X24667Y35561D01*
X24670Y35504D01*
X24670Y35499D01*
Y15377D01*
X24670D01*
X24675Y15184D01*
X24690Y14991D01*
X24715Y14799D01*
X24750Y14609D01*
X24796Y14421D01*
X24851Y14235D01*
X24915Y14053D01*
X24989Y13874D01*
X25072Y13699D01*
X25165Y13529D01*
X25266Y13365D01*
X25375Y13205D01*
X25493Y13052D01*
X25619Y12904D01*
X25752Y12764D01*
X25752Y12764D01*
X25752Y12764D01*
X30564Y7952D01*
X30564Y7952D01*
X30564Y7952D01*
X30704Y7819D01*
X30852Y7693D01*
X31005Y7575D01*
X31165Y7466D01*
X31329Y7365D01*
X31499Y7272D01*
X31674Y7189D01*
X31853Y7115D01*
X32035Y7051D01*
X32221Y6996D01*
X32409Y6950D01*
X32599Y6915D01*
X32791Y6890D01*
X32984Y6875D01*
X33177Y6870D01*
Y6870D01*
X44448D01*
X44457Y6871D01*
X44591Y6866D01*
X44733Y6852D01*
X44874Y6829D01*
X45014Y6796D01*
X45151Y6755D01*
X45284Y6705D01*
X45415Y6645D01*
X45541Y6578D01*
X45662Y6503D01*
X45779Y6419D01*
X45889Y6328D01*
X45987Y6237D01*
X45993Y6230D01*
X46707Y5516D01*
X46685Y5469D01*
X46652Y5375D01*
X46627Y5278D01*
X46613Y5180D01*
X46608Y5080D01*
X46613Y4980D01*
X46627Y4882D01*
X46652Y4785D01*
X46685Y4691D01*
X46728Y4600D01*
X46779Y4515D01*
X46839Y4435D01*
X46906Y4361D01*
X46980Y4294D01*
X47060Y4234D01*
X47145Y4183D01*
X47236Y4140D01*
X47330Y4107D01*
X47427Y4082D01*
X47525Y4068D01*
X47625Y4063D01*
X48895D01*
X48995Y4068D01*
X49093Y4082D01*
X49190Y4107D01*
X49284Y4140D01*
X49375Y4183D01*
X49460Y4234D01*
X49540Y4294D01*
X49614Y4361D01*
X49681Y4435D01*
X49741Y4515D01*
X49792Y4600D01*
X49822Y4663D01*
X49949Y4635D01*
Y-1749D01*
X48518D01*
X48502Y-1622D01*
X48555Y-1608D01*
X48649Y-1575D01*
X48740Y-1532D01*
X48825Y-1481D01*
X48905Y-1421D01*
X48979Y-1354D01*
X49046Y-1280D01*
X49106Y-1200D01*
X49157Y-1115D01*
X49200Y-1024D01*
X49233Y-930D01*
X49258Y-833D01*
X49272Y-735D01*
X49277Y-635D01*
Y635D01*
X49272Y735D01*
X49258Y833D01*
X49233Y930D01*
X49200Y1024D01*
X49157Y1115D01*
X49106Y1200D01*
X49046Y1280D01*
X48979Y1354D01*
X48905Y1421D01*
X48825Y1481D01*
X48740Y1532D01*
X48649Y1575D01*
X48555Y1608D01*
X48458Y1633D01*
X48360Y1647D01*
X48260Y1652D01*
X48160Y1647D01*
X48062Y1633D01*
X47965Y1608D01*
X47871Y1575D01*
X47780Y1532D01*
X47695Y1481D01*
X47615Y1421D01*
X47541Y1354D01*
X47474Y1280D01*
X47414Y1200D01*
X47363Y1115D01*
X47320Y1024D01*
X47287Y930D01*
X47262Y833D01*
X47248Y735D01*
X47243Y635D01*
Y-635D01*
X47248Y-735D01*
X47262Y-833D01*
X47287Y-930D01*
X47320Y-1024D01*
X47363Y-1115D01*
X47414Y-1200D01*
X47474Y-1280D01*
X47541Y-1354D01*
X47615Y-1421D01*
X47695Y-1481D01*
X47780Y-1532D01*
X47871Y-1575D01*
X47965Y-1608D01*
X48018Y-1622D01*
X48002Y-1749D01*
X45978D01*
X45962Y-1622D01*
X46015Y-1608D01*
X46109Y-1575D01*
X46200Y-1532D01*
X46285Y-1481D01*
X46365Y-1421D01*
X46439Y-1354D01*
X46506Y-1280D01*
X46566Y-1200D01*
X46617Y-1115D01*
X46660Y-1024D01*
X46693Y-930D01*
X46718Y-833D01*
X46732Y-735D01*
X46737Y-635D01*
Y635D01*
X46732Y735D01*
X46718Y833D01*
X46693Y930D01*
X46660Y1024D01*
X46617Y1115D01*
X46566Y1200D01*
X46506Y1280D01*
X46439Y1354D01*
X46365Y1421D01*
X46285Y1481D01*
X46200Y1532D01*
X46109Y1575D01*
X46015Y1608D01*
X45918Y1633D01*
X45820Y1647D01*
X45720Y1652D01*
X45620Y1647D01*
X45522Y1633D01*
X45425Y1608D01*
X45331Y1575D01*
X45240Y1532D01*
X45155Y1481D01*
X45075Y1421D01*
X45001Y1354D01*
X44934Y1280D01*
X44874Y1200D01*
X44823Y1115D01*
X44780Y1024D01*
X44747Y930D01*
X44722Y833D01*
X44708Y735D01*
X44703Y635D01*
Y-635D01*
X44708Y-735D01*
X44722Y-833D01*
X44747Y-930D01*
X44780Y-1024D01*
X44823Y-1115D01*
X44874Y-1200D01*
X44934Y-1280D01*
X45001Y-1354D01*
X45075Y-1421D01*
X45155Y-1481D01*
X45240Y-1532D01*
X45331Y-1575D01*
X45425Y-1608D01*
X45478Y-1622D01*
X45462Y-1749D01*
X43438D01*
X43422Y-1622D01*
X43475Y-1608D01*
X43569Y-1575D01*
X43660Y-1532D01*
X43745Y-1481D01*
X43825Y-1421D01*
X43899Y-1354D01*
X43966Y-1280D01*
X44026Y-1200D01*
X44077Y-1115D01*
X44120Y-1024D01*
X44153Y-930D01*
X44178Y-833D01*
X44192Y-735D01*
X44197Y-635D01*
Y635D01*
X44192Y735D01*
X44178Y833D01*
X44153Y930D01*
X44120Y1024D01*
X44077Y1115D01*
X44026Y1200D01*
X43966Y1280D01*
X43899Y1354D01*
X43825Y1421D01*
X43745Y1481D01*
X43660Y1532D01*
X43569Y1575D01*
X43475Y1608D01*
X43378Y1633D01*
X43280Y1647D01*
X43180Y1652D01*
X43080Y1647D01*
X42982Y1633D01*
X42885Y1608D01*
X42791Y1575D01*
X42700Y1532D01*
X42615Y1481D01*
X42535Y1421D01*
X42461Y1354D01*
X42394Y1280D01*
X42334Y1200D01*
X42283Y1115D01*
X42240Y1024D01*
X42207Y930D01*
X42182Y833D01*
X42168Y735D01*
X42163Y635D01*
Y-635D01*
X42168Y-735D01*
X42182Y-833D01*
X42207Y-930D01*
X42240Y-1024D01*
X42283Y-1115D01*
X42334Y-1200D01*
X42394Y-1280D01*
X42461Y-1354D01*
X42535Y-1421D01*
X42615Y-1481D01*
X42700Y-1532D01*
X42791Y-1575D01*
X42885Y-1608D01*
X42938Y-1622D01*
X42922Y-1749D01*
X40898D01*
X40882Y-1622D01*
X40935Y-1608D01*
X41029Y-1575D01*
X41120Y-1532D01*
X41205Y-1481D01*
X41285Y-1421D01*
X41359Y-1354D01*
X41426Y-1280D01*
X41486Y-1200D01*
X41537Y-1115D01*
X41580Y-1024D01*
X41613Y-930D01*
X41638Y-833D01*
X41652Y-735D01*
X41657Y-635D01*
Y635D01*
X41652Y735D01*
X41638Y833D01*
X41613Y930D01*
X41580Y1024D01*
X41537Y1115D01*
X41486Y1200D01*
X41426Y1280D01*
X41359Y1354D01*
X41285Y1421D01*
X41205Y1481D01*
X41120Y1532D01*
X41029Y1575D01*
X40935Y1608D01*
X40838Y1633D01*
X40740Y1647D01*
X40640Y1652D01*
X40540Y1647D01*
X40442Y1633D01*
X40345Y1608D01*
X40251Y1575D01*
X40160Y1532D01*
X40075Y1481D01*
X39995Y1421D01*
X39921Y1354D01*
X39854Y1280D01*
X39794Y1200D01*
X39743Y1115D01*
X39700Y1024D01*
X39667Y930D01*
X39642Y833D01*
X39628Y735D01*
X39623Y635D01*
Y-635D01*
X39628Y-735D01*
X39642Y-833D01*
X39667Y-930D01*
X39700Y-1024D01*
X39743Y-1115D01*
X39794Y-1200D01*
X39854Y-1280D01*
X39921Y-1354D01*
X39995Y-1421D01*
X40075Y-1481D01*
X40160Y-1532D01*
X40251Y-1575D01*
X40345Y-1608D01*
X40398Y-1622D01*
X40382Y-1749D01*
X38358D01*
X38342Y-1622D01*
X38395Y-1608D01*
X38489Y-1575D01*
X38580Y-1532D01*
X38665Y-1481D01*
X38745Y-1421D01*
X38819Y-1354D01*
X38886Y-1280D01*
X38946Y-1200D01*
X38997Y-1115D01*
X39040Y-1024D01*
X39073Y-930D01*
X39098Y-833D01*
X39112Y-735D01*
X39117Y-635D01*
Y635D01*
X39112Y735D01*
X39098Y833D01*
X39073Y930D01*
X39040Y1024D01*
X38997Y1115D01*
X38946Y1200D01*
X38886Y1280D01*
X38819Y1354D01*
X38745Y1421D01*
X38665Y1481D01*
X38580Y1532D01*
X38489Y1575D01*
X38395Y1608D01*
X38298Y1633D01*
X38200Y1647D01*
X38100Y1652D01*
X38000Y1647D01*
X37902Y1633D01*
X37805Y1608D01*
X37711Y1575D01*
X37620Y1532D01*
X37535Y1481D01*
X37455Y1421D01*
X37381Y1354D01*
X37314Y1280D01*
X37254Y1200D01*
X37203Y1115D01*
X37160Y1024D01*
X37127Y930D01*
X37102Y833D01*
X37088Y735D01*
X37083Y635D01*
Y-635D01*
X37088Y-735D01*
X37102Y-833D01*
X37127Y-930D01*
X37160Y-1024D01*
X37203Y-1115D01*
X37254Y-1200D01*
X37314Y-1280D01*
X37381Y-1354D01*
X37455Y-1421D01*
X37535Y-1481D01*
X37620Y-1532D01*
X37711Y-1575D01*
X37805Y-1608D01*
X37858Y-1622D01*
X37842Y-1749D01*
X35818D01*
X35802Y-1622D01*
X35855Y-1608D01*
X35949Y-1575D01*
X36040Y-1532D01*
X36125Y-1481D01*
X36205Y-1421D01*
X36279Y-1354D01*
X36346Y-1280D01*
X36406Y-1200D01*
X36457Y-1115D01*
X36500Y-1024D01*
X36533Y-930D01*
X36558Y-833D01*
X36572Y-735D01*
X36577Y-635D01*
Y635D01*
X36572Y735D01*
X36558Y833D01*
X36533Y930D01*
X36500Y1024D01*
X36457Y1115D01*
X36406Y1200D01*
X36346Y1280D01*
X36279Y1354D01*
X36205Y1421D01*
X36125Y1481D01*
X36040Y1532D01*
X35949Y1575D01*
X35855Y1608D01*
X35758Y1633D01*
X35660Y1647D01*
X35560Y1652D01*
X35460Y1647D01*
X35362Y1633D01*
X35265Y1608D01*
X35171Y1575D01*
X35080Y1532D01*
X34995Y1481D01*
X34915Y1421D01*
X34841Y1354D01*
X34774Y1280D01*
X34714Y1200D01*
X34663Y1115D01*
X34620Y1024D01*
X34587Y930D01*
X34562Y833D01*
X34548Y735D01*
X34543Y635D01*
Y-635D01*
X34548Y-735D01*
X34562Y-833D01*
X34587Y-930D01*
X34620Y-1024D01*
X34663Y-1115D01*
X34714Y-1200D01*
X34774Y-1280D01*
X34841Y-1354D01*
X34915Y-1421D01*
X34995Y-1481D01*
X35080Y-1532D01*
X35171Y-1575D01*
X35265Y-1608D01*
X35318Y-1622D01*
X35302Y-1749D01*
X33278D01*
X33262Y-1622D01*
X33315Y-1608D01*
X33409Y-1575D01*
X33500Y-1532D01*
X33585Y-1481D01*
X33665Y-1421D01*
X33739Y-1354D01*
X33806Y-1280D01*
X33866Y-1200D01*
X33917Y-1115D01*
X33960Y-1024D01*
X33993Y-930D01*
X34018Y-833D01*
X34032Y-735D01*
X34037Y-635D01*
Y635D01*
X34032Y735D01*
X34018Y833D01*
X33993Y930D01*
X33960Y1024D01*
X33917Y1115D01*
X33866Y1200D01*
X33806Y1280D01*
X33739Y1354D01*
X33665Y1421D01*
X33585Y1481D01*
X33500Y1532D01*
X33409Y1575D01*
X33315Y1608D01*
X33218Y1633D01*
X33120Y1647D01*
X33020Y1652D01*
X32920Y1647D01*
X32822Y1633D01*
X32725Y1608D01*
X32631Y1575D01*
X32540Y1532D01*
X32455Y1481D01*
X32375Y1421D01*
X32301Y1354D01*
X32234Y1280D01*
X32174Y1200D01*
X32123Y1115D01*
X32080Y1024D01*
X32047Y930D01*
X32022Y833D01*
X32008Y735D01*
X32003Y635D01*
Y-635D01*
X32008Y-735D01*
X32022Y-833D01*
X32047Y-930D01*
X32080Y-1024D01*
X32123Y-1115D01*
X32174Y-1200D01*
X32234Y-1280D01*
X32301Y-1354D01*
X32375Y-1421D01*
X32455Y-1481D01*
X32540Y-1532D01*
X32631Y-1575D01*
X32725Y-1608D01*
X32778Y-1622D01*
X32762Y-1749D01*
X30738D01*
X30722Y-1622D01*
X30775Y-1608D01*
X30869Y-1575D01*
X30960Y-1532D01*
X31045Y-1481D01*
X31125Y-1421D01*
X31199Y-1354D01*
X31266Y-1280D01*
X31326Y-1200D01*
X31377Y-1115D01*
X31420Y-1024D01*
X31453Y-930D01*
X31478Y-833D01*
X31492Y-735D01*
X31497Y-635D01*
Y635D01*
X31492Y735D01*
X31478Y833D01*
X31453Y930D01*
X31420Y1024D01*
X31377Y1115D01*
X31326Y1200D01*
X31266Y1280D01*
X31199Y1354D01*
X31125Y1421D01*
X31045Y1481D01*
X30960Y1532D01*
X30869Y1575D01*
X30775Y1608D01*
X30678Y1633D01*
X30580Y1647D01*
X30480Y1652D01*
X30380Y1647D01*
X30282Y1633D01*
X30185Y1608D01*
X30091Y1575D01*
X30000Y1532D01*
X29915Y1481D01*
X29835Y1421D01*
X29761Y1354D01*
X29694Y1280D01*
X29634Y1200D01*
X29583Y1115D01*
X29540Y1024D01*
X29507Y930D01*
X29482Y833D01*
X29468Y735D01*
X29463Y635D01*
Y-635D01*
X29468Y-735D01*
X29482Y-833D01*
X29507Y-930D01*
X29540Y-1024D01*
X29583Y-1115D01*
X29634Y-1200D01*
X29694Y-1280D01*
X29761Y-1354D01*
X29835Y-1421D01*
X29915Y-1481D01*
X30000Y-1532D01*
X30091Y-1575D01*
X30185Y-1608D01*
X30238Y-1622D01*
X30222Y-1749D01*
X28198D01*
X28182Y-1622D01*
X28235Y-1608D01*
X28329Y-1575D01*
X28420Y-1532D01*
X28505Y-1481D01*
X28585Y-1421D01*
X28659Y-1354D01*
X28726Y-1280D01*
X28786Y-1200D01*
X28837Y-1115D01*
X28880Y-1024D01*
X28913Y-930D01*
X28938Y-833D01*
X28952Y-735D01*
X28957Y-635D01*
Y635D01*
X28952Y735D01*
X28938Y833D01*
X28913Y930D01*
X28880Y1024D01*
X28837Y1115D01*
X28786Y1200D01*
X28726Y1280D01*
X28659Y1354D01*
X28585Y1421D01*
X28505Y1481D01*
X28420Y1532D01*
X28329Y1575D01*
X28235Y1608D01*
X28138Y1633D01*
X28040Y1647D01*
X27940Y1652D01*
X27840Y1647D01*
X27742Y1633D01*
X27645Y1608D01*
X27551Y1575D01*
X27460Y1532D01*
X27375Y1481D01*
X27295Y1421D01*
X27221Y1354D01*
X27154Y1280D01*
X27094Y1200D01*
X27043Y1115D01*
X27000Y1024D01*
X26967Y930D01*
X26942Y833D01*
X26928Y735D01*
X26923Y635D01*
Y-635D01*
X26928Y-735D01*
X26942Y-833D01*
X26967Y-930D01*
X27000Y-1024D01*
X27043Y-1115D01*
X27094Y-1200D01*
X27154Y-1280D01*
X27221Y-1354D01*
X27295Y-1421D01*
X27375Y-1481D01*
X27460Y-1532D01*
X27551Y-1575D01*
X27645Y-1608D01*
X27698Y-1622D01*
X27682Y-1749D01*
X25658D01*
X25642Y-1622D01*
X25695Y-1608D01*
X25789Y-1575D01*
X25880Y-1532D01*
X25965Y-1481D01*
X26045Y-1421D01*
X26119Y-1354D01*
X26186Y-1280D01*
X26246Y-1200D01*
X26297Y-1115D01*
X26340Y-1024D01*
X26373Y-930D01*
X26398Y-833D01*
X26412Y-735D01*
X26417Y-635D01*
Y635D01*
X26412Y735D01*
X26398Y833D01*
X26373Y930D01*
X26340Y1024D01*
X26297Y1115D01*
X26246Y1200D01*
X26186Y1280D01*
X26119Y1354D01*
X26045Y1421D01*
X25965Y1481D01*
X25880Y1532D01*
X25789Y1575D01*
X25695Y1608D01*
X25598Y1633D01*
X25500Y1647D01*
X25400Y1652D01*
X25300Y1647D01*
X25202Y1633D01*
X25105Y1608D01*
X25011Y1575D01*
X24920Y1532D01*
X24835Y1481D01*
X24755Y1421D01*
X24681Y1354D01*
X24614Y1280D01*
X24554Y1200D01*
X24503Y1115D01*
X24460Y1024D01*
X24427Y930D01*
X24402Y833D01*
X24388Y735D01*
X24383Y635D01*
Y-635D01*
X24388Y-735D01*
X24402Y-833D01*
X24427Y-930D01*
X24460Y-1024D01*
X24503Y-1115D01*
X24554Y-1200D01*
X24614Y-1280D01*
X24681Y-1354D01*
X24755Y-1421D01*
X24835Y-1481D01*
X24920Y-1532D01*
X25011Y-1575D01*
X25105Y-1608D01*
X25158Y-1622D01*
X25142Y-1749D01*
X23118D01*
X23102Y-1622D01*
X23155Y-1608D01*
X23249Y-1575D01*
X23340Y-1532D01*
X23425Y-1481D01*
X23505Y-1421D01*
X23579Y-1354D01*
X23646Y-1280D01*
X23706Y-1200D01*
X23757Y-1115D01*
X23800Y-1024D01*
X23833Y-930D01*
X23858Y-833D01*
X23872Y-735D01*
X23877Y-635D01*
Y-127D01*
X22860D01*
X21843D01*
Y-635D01*
X21848Y-735D01*
X21862Y-833D01*
X21887Y-930D01*
X21920Y-1024D01*
X21963Y-1115D01*
X22014Y-1200D01*
X22074Y-1280D01*
X22141Y-1354D01*
X22215Y-1421D01*
X22295Y-1481D01*
X22380Y-1532D01*
X22471Y-1575D01*
X22565Y-1608D01*
X22618Y-1622D01*
X22602Y-1749D01*
X20578D01*
X20562Y-1622D01*
X20615Y-1608D01*
X20709Y-1575D01*
X20800Y-1532D01*
X20885Y-1481D01*
X20965Y-1421D01*
X21039Y-1354D01*
X21106Y-1280D01*
X21166Y-1200D01*
X21217Y-1115D01*
X21260Y-1024D01*
X21293Y-930D01*
X21318Y-833D01*
X21332Y-735D01*
X21337Y-635D01*
Y-127D01*
X20320D01*
X19303D01*
Y-635D01*
X19308Y-735D01*
X19322Y-833D01*
X19347Y-930D01*
X19380Y-1024D01*
X19423Y-1115D01*
X19474Y-1200D01*
X19534Y-1280D01*
X19601Y-1354D01*
X19675Y-1421D01*
X19755Y-1481D01*
X19840Y-1532D01*
X19931Y-1575D01*
X20025Y-1608D01*
X20078Y-1622D01*
X20062Y-1749D01*
X18038D01*
X18022Y-1622D01*
X18075Y-1608D01*
X18169Y-1575D01*
X18260Y-1532D01*
X18345Y-1481D01*
X18425Y-1421D01*
X18499Y-1354D01*
X18566Y-1280D01*
X18626Y-1200D01*
X18677Y-1115D01*
X18720Y-1024D01*
X18753Y-930D01*
X18778Y-833D01*
X18792Y-735D01*
X18797Y-635D01*
Y635D01*
X18792Y735D01*
X18778Y833D01*
X18753Y930D01*
X18720Y1024D01*
X18677Y1115D01*
X18626Y1200D01*
X18566Y1280D01*
X18499Y1354D01*
X18425Y1421D01*
X18345Y1481D01*
X18260Y1532D01*
X18169Y1575D01*
X18075Y1608D01*
X17978Y1633D01*
X17880Y1647D01*
X17780Y1652D01*
X17680Y1647D01*
X17582Y1633D01*
X17490Y1610D01*
X17451Y1651D01*
X17451Y1651D01*
X17045Y2057D01*
X17045Y2057D01*
X16927Y2169D01*
X16803Y2274D01*
X16673Y2371D01*
X16538Y2461D01*
X16398Y2544D01*
X16254Y2618D01*
X16106Y2685D01*
X15954Y2743D01*
X15799Y2792D01*
X15642Y2833D01*
X15483Y2864D01*
X15322Y2887D01*
X15160Y2901D01*
X14998Y2905D01*
Y2905D01*
X11152D01*
X11143Y2904D01*
X11009Y2909D01*
X10867Y2923D01*
X10726Y2946D01*
X10586Y2979D01*
X10449Y3020D01*
X10316Y3070D01*
X10185Y3130D01*
X10059Y3197D01*
X9938Y3272D01*
X9821Y3356D01*
X9711Y3447D01*
X9613Y3538D01*
X9607Y3545D01*
X6752Y6400D01*
X6755Y6450D01*
X6750Y6522D01*
X6736Y6594D01*
X6713Y6662D01*
X6681Y6728D01*
X6640Y6788D01*
X6593Y6843D01*
X6538Y6890D01*
X6478Y6931D01*
X6412Y6963D01*
X6344Y6986D01*
X6272Y7000D01*
X6200Y7005D01*
X6128Y7000D01*
X6056Y6986D01*
X5988Y6963D01*
X5922Y6931D01*
X5862Y6890D01*
X5807Y6843D01*
X5760Y6788D01*
X5719Y6728D01*
X5687Y6662D01*
X5670Y6612D01*
X5617Y6586D01*
X5530Y6572D01*
X2652Y9450D01*
X2652Y9450D01*
X2652Y9450D01*
X2566Y9541D01*
X2493Y9632D01*
X2424Y9732D01*
X2362Y9836D01*
X2308Y9945D01*
X2261Y10057D01*
X2223Y10172D01*
X2193Y10289D01*
X2171Y10408D01*
X2159Y10529D01*
X2154Y10642D01*
X2155Y10650D01*
Y10822D01*
X2155D01*
X2150Y10968D01*
X2136Y11114D01*
X2112Y11258D01*
X2079Y11400D01*
X2037Y11540D01*
X1985Y11677D01*
X1925Y11810D01*
X1856Y11939D01*
X1779Y12063D01*
X1694Y12182D01*
X1601Y12295D01*
X1578Y12319D01*
X1608Y12405D01*
X1633Y12502D01*
X1647Y12600D01*
X1652Y12700D01*
X1647Y12800D01*
X1633Y12898D01*
X1608Y12995D01*
X1575Y13089D01*
X1532Y13180D01*
X1481Y13265D01*
X1421Y13345D01*
X1354Y13419D01*
X1280Y13486D01*
X1200Y13546D01*
X1115Y13597D01*
X1024Y13640D01*
X930Y13673D01*
X833Y13698D01*
X735Y13712D01*
X635Y13717D01*
X-635D01*
X-735Y13712D01*
X-833Y13698D01*
X-930Y13673D01*
X-1024Y13640D01*
X-1115Y13597D01*
X-1200Y13546D01*
X-1280Y13486D01*
X-1354Y13419D01*
X-1421Y13345D01*
X-1481Y13265D01*
X-1532Y13180D01*
X-1562Y13117D01*
X-1689Y13145D01*
Y14795D01*
X-1562Y14823D01*
X-1532Y14760D01*
X-1481Y14675D01*
X-1421Y14595D01*
X-1354Y14521D01*
X-1280Y14454D01*
X-1200Y14394D01*
X-1115Y14343D01*
X-1024Y14300D01*
X-930Y14267D01*
X-833Y14242D01*
X-735Y14228D01*
X-635Y14223D01*
X-127D01*
Y15240D01*
Y16257D01*
X-635D01*
X-735Y16252D01*
X-833Y16238D01*
X-930Y16213D01*
X-1024Y16180D01*
X-1115Y16137D01*
X-1200Y16086D01*
X-1280Y16026D01*
X-1354Y15959D01*
X-1421Y15885D01*
X-1481Y15805D01*
X-1532Y15720D01*
X-1562Y15657D01*
X-1689Y15685D01*
Y17335D01*
X-1562Y17363D01*
X-1532Y17300D01*
X-1481Y17215D01*
X-1421Y17135D01*
X-1354Y17061D01*
X-1280Y16994D01*
X-1200Y16934D01*
X-1115Y16883D01*
X-1024Y16840D01*
X-930Y16807D01*
X-833Y16782D01*
X-735Y16768D01*
X-635Y16763D01*
X-127D01*
Y17780D01*
Y18797D01*
X-635D01*
X-735Y18792D01*
X-833Y18778D01*
X-930Y18753D01*
X-1024Y18720D01*
X-1115Y18677D01*
X-1200Y18626D01*
X-1280Y18566D01*
X-1354Y18499D01*
X-1421Y18425D01*
X-1481Y18345D01*
X-1532Y18260D01*
X-1562Y18197D01*
X-1689Y18225D01*
Y19875D01*
X-1562Y19903D01*
X-1532Y19840D01*
X-1481Y19755D01*
X-1421Y19675D01*
X-1354Y19601D01*
X-1280Y19534D01*
X-1200Y19474D01*
X-1115Y19423D01*
X-1024Y19380D01*
X-930Y19347D01*
X-833Y19322D01*
X-735Y19308D01*
X-635Y19303D01*
X635D01*
X735Y19308D01*
X833Y19322D01*
X930Y19347D01*
X1024Y19380D01*
X1115Y19423D01*
X1200Y19474D01*
X1280Y19534D01*
X1354Y19601D01*
X1421Y19675D01*
X1481Y19755D01*
X1532Y19840D01*
X1575Y19931D01*
X1608Y20025D01*
X1633Y20122D01*
X1647Y20220D01*
X1652Y20320D01*
X1647Y20420D01*
X1633Y20518D01*
X1614Y20592D01*
X1694Y20666D01*
X1694Y20666D01*
X15057Y34030D01*
X15063Y34037D01*
X15161Y34128D01*
X15271Y34219D01*
X15388Y34303D01*
X15509Y34378D01*
X15635Y34445D01*
X15766Y34505D01*
X15899Y34555D01*
X16036Y34596D01*
X16176Y34629D01*
X16317Y34652D01*
X16459Y34666D01*
X16593Y34671D01*
X16602Y34670D01*
X19815D01*
X19926Y34674D01*
X20037Y34687D01*
X20147Y34709D01*
X20254Y34739D01*
X20358Y34778D01*
X20460Y34825D01*
X20557Y34879D01*
X20650Y34941D01*
X20737Y35010D01*
X20819Y35086D01*
X20895Y35168D01*
X20964Y35255D01*
X21026Y35348D01*
X21080Y35445D01*
X21127Y35547D01*
X21166Y35651D01*
X21177Y35693D01*
X21231Y35725D01*
X21306Y35745D01*
X21322Y35743D01*
X21346Y35729D01*
X21405Y35705D01*
X21467Y35690D01*
X21530Y35685D01*
X21593Y35690D01*
X21655Y35705D01*
X21714Y35729D01*
X21768Y35762D01*
X21855Y35791D01*
X21942Y35762D01*
X21996Y35729D01*
X22055Y35705D01*
X22117Y35690D01*
X22180Y35685D01*
X22243Y35690D01*
X22305Y35705D01*
X22364Y35729D01*
X22418Y35762D01*
X22467Y35803D01*
X22543D01*
X22592Y35762D01*
X22646Y35729D01*
X22696Y35708D01*
X22720Y35663D01*
X22735Y35567D01*
X22710Y35538D01*
X22669Y35478D01*
X22637Y35412D01*
X22614Y35344D01*
X22600Y35272D01*
X22595Y35200D01*
X22600Y35128D01*
X22614Y35056D01*
X22637Y34988D01*
X22669Y34922D01*
X22710Y34862D01*
X22757Y34807D01*
X22812Y34760D01*
X22872Y34719D01*
X22938Y34687D01*
X23006Y34664D01*
X23078Y34650D01*
X23150Y34645D01*
X23222Y34650D01*
X23294Y34664D01*
X23362Y34687D01*
X23428Y34719D01*
X23488Y34760D01*
X23543Y34807D01*
X23590Y34862D01*
X23631Y34922D01*
X23663Y34988D01*
X23686Y35056D01*
X23700Y35128D01*
X23705Y35200D01*
X23700Y35272D01*
X23686Y35344D01*
X23663Y35412D01*
X23631Y35478D01*
X23590Y35538D01*
X23564Y35568D01*
X23582Y35663D01*
X23605Y35705D01*
X23664Y35729D01*
X23718Y35762D01*
X23767Y35803D01*
X23843D01*
X23892Y35762D01*
D02*
G37*
G36*
X49949Y35115D02*
Y33465D01*
X49822Y33437D01*
X49792Y33500D01*
X49741Y33585D01*
X49681Y33665D01*
X49614Y33739D01*
X49540Y33806D01*
X49460Y33866D01*
X49375Y33917D01*
X49284Y33960D01*
X49190Y33993D01*
X49093Y34018D01*
X48995Y34032D01*
X48895Y34037D01*
X48387D01*
Y33020D01*
Y32003D01*
X48895D01*
X48995Y32008D01*
X49093Y32022D01*
X49190Y32047D01*
X49284Y32080D01*
X49375Y32123D01*
X49460Y32174D01*
X49540Y32234D01*
X49614Y32301D01*
X49681Y32375D01*
X49741Y32455D01*
X49792Y32540D01*
X49822Y32603D01*
X49949Y32575D01*
Y30925D01*
X49822Y30897D01*
X49792Y30960D01*
X49741Y31045D01*
X49681Y31125D01*
X49614Y31199D01*
X49540Y31266D01*
X49460Y31326D01*
X49375Y31377D01*
X49284Y31420D01*
X49190Y31453D01*
X49093Y31478D01*
X48995Y31492D01*
X48895Y31497D01*
X48387D01*
Y30480D01*
Y29463D01*
X48895D01*
X48995Y29468D01*
X49093Y29482D01*
X49190Y29507D01*
X49284Y29540D01*
X49375Y29583D01*
X49460Y29634D01*
X49540Y29694D01*
X49614Y29761D01*
X49681Y29835D01*
X49741Y29915D01*
X49792Y30000D01*
X49822Y30063D01*
X49949Y30035D01*
Y28385D01*
X49822Y28357D01*
X49792Y28420D01*
X49741Y28505D01*
X49681Y28585D01*
X49614Y28659D01*
X49540Y28726D01*
X49460Y28786D01*
X49375Y28837D01*
X49284Y28880D01*
X49190Y28913D01*
X49093Y28938D01*
X48995Y28952D01*
X48895Y28957D01*
X47625D01*
X47525Y28952D01*
X47427Y28938D01*
X47330Y28913D01*
X47236Y28880D01*
X47145Y28837D01*
X47060Y28786D01*
X46980Y28726D01*
X46906Y28659D01*
X46839Y28585D01*
X46779Y28505D01*
X46728Y28420D01*
X46685Y28329D01*
X46652Y28235D01*
X46627Y28138D01*
X46613Y28040D01*
X46608Y27940D01*
X46613Y27840D01*
X46627Y27742D01*
X46652Y27645D01*
X46685Y27551D01*
X46728Y27460D01*
X46779Y27375D01*
X46839Y27295D01*
X46906Y27221D01*
X46980Y27154D01*
X47060Y27094D01*
X47145Y27043D01*
X47236Y27000D01*
X47330Y26967D01*
X47427Y26942D01*
X47525Y26928D01*
X47625Y26923D01*
X48895D01*
X48995Y26928D01*
X49093Y26942D01*
X49190Y26967D01*
X49284Y27000D01*
X49375Y27043D01*
X49460Y27094D01*
X49540Y27154D01*
X49614Y27221D01*
X49681Y27295D01*
X49741Y27375D01*
X49792Y27460D01*
X49822Y27523D01*
X49949Y27495D01*
Y25845D01*
X49822Y25817D01*
X49792Y25880D01*
X49741Y25965D01*
X49681Y26045D01*
X49614Y26119D01*
X49540Y26186D01*
X49460Y26246D01*
X49375Y26297D01*
X49284Y26340D01*
X49190Y26373D01*
X49093Y26398D01*
X48995Y26412D01*
X48895Y26417D01*
X47625D01*
X47525Y26412D01*
X47427Y26398D01*
X47330Y26373D01*
X47236Y26340D01*
X47145Y26297D01*
X47060Y26246D01*
X46980Y26186D01*
X46906Y26119D01*
X46839Y26045D01*
X46779Y25965D01*
X46728Y25880D01*
X46685Y25789D01*
X46652Y25695D01*
X46627Y25598D01*
X46613Y25500D01*
X46608Y25400D01*
X46613Y25300D01*
X46627Y25202D01*
X46652Y25105D01*
X46685Y25011D01*
X46728Y24920D01*
X46779Y24835D01*
X46839Y24755D01*
X46906Y24681D01*
X46980Y24614D01*
X47060Y24554D01*
X47145Y24503D01*
X47236Y24460D01*
X47330Y24427D01*
X47427Y24402D01*
X47525Y24388D01*
X47625Y24383D01*
X48895D01*
X48995Y24388D01*
X49093Y24402D01*
X49190Y24427D01*
X49284Y24460D01*
X49375Y24503D01*
X49460Y24554D01*
X49540Y24614D01*
X49614Y24681D01*
X49681Y24755D01*
X49741Y24835D01*
X49792Y24920D01*
X49822Y24983D01*
X49949Y24955D01*
Y23305D01*
X49822Y23277D01*
X49792Y23340D01*
X49741Y23425D01*
X49681Y23505D01*
X49614Y23579D01*
X49540Y23646D01*
X49460Y23706D01*
X49375Y23757D01*
X49284Y23800D01*
X49190Y23833D01*
X49093Y23858D01*
X48995Y23872D01*
X48895Y23877D01*
X47625D01*
X47525Y23872D01*
X47427Y23858D01*
X47330Y23833D01*
X47236Y23800D01*
X47145Y23757D01*
X47060Y23706D01*
X46980Y23646D01*
X46906Y23579D01*
X46839Y23505D01*
X46779Y23425D01*
X46728Y23340D01*
X46685Y23249D01*
X46652Y23155D01*
X46627Y23058D01*
X46613Y22960D01*
X46608Y22860D01*
X46613Y22760D01*
X46627Y22662D01*
X46652Y22565D01*
X46685Y22471D01*
X46728Y22380D01*
X46779Y22295D01*
X46839Y22215D01*
X46906Y22141D01*
X46980Y22074D01*
X47060Y22014D01*
X47145Y21963D01*
X47236Y21920D01*
X47330Y21887D01*
X47427Y21862D01*
X47525Y21848D01*
X47625Y21843D01*
X48895D01*
X48995Y21848D01*
X49093Y21862D01*
X49190Y21887D01*
X49284Y21920D01*
X49375Y21963D01*
X49460Y22014D01*
X49540Y22074D01*
X49614Y22141D01*
X49681Y22215D01*
X49741Y22295D01*
X49792Y22380D01*
X49822Y22443D01*
X49949Y22415D01*
Y20765D01*
X49822Y20737D01*
X49792Y20800D01*
X49741Y20885D01*
X49681Y20965D01*
X49614Y21039D01*
X49540Y21106D01*
X49460Y21166D01*
X49375Y21217D01*
X49284Y21260D01*
X49190Y21293D01*
X49093Y21318D01*
X48995Y21332D01*
X48895Y21337D01*
X47625D01*
X47525Y21332D01*
X47427Y21318D01*
X47330Y21293D01*
X47236Y21260D01*
X47145Y21217D01*
X47060Y21166D01*
X46980Y21106D01*
X46906Y21039D01*
X46839Y20965D01*
X46779Y20885D01*
X46728Y20800D01*
X46685Y20709D01*
X46652Y20615D01*
X46627Y20518D01*
X46613Y20420D01*
X46608Y20320D01*
X46613Y20220D01*
X46627Y20122D01*
X46652Y20025D01*
X46685Y19931D01*
X46728Y19840D01*
X46779Y19755D01*
X46839Y19675D01*
X46868Y19642D01*
X44827Y17601D01*
X44821Y17594D01*
X44730Y17509D01*
X44627Y17425D01*
X44519Y17347D01*
X44406Y17277D01*
X44288Y17214D01*
X44167Y17159D01*
X44112Y17139D01*
X44061Y17183D01*
X44029Y17243D01*
X44067Y17306D01*
X44109Y17395D01*
X44142Y17488D01*
X44166Y17584D01*
X44180Y17681D01*
X44185Y17780D01*
X44180Y17879D01*
X44166Y17976D01*
X44151Y18036D01*
X44463Y18349D01*
X44463Y18349D01*
X44581Y18473D01*
X44691Y18603D01*
X44794Y18740D01*
X44888Y18882D01*
X44975Y19029D01*
X45054Y19181D01*
X45123Y19337D01*
X45184Y19496D01*
X45236Y19659D01*
X45279Y19824D01*
X45312Y19992D01*
X45336Y20161D01*
X45350Y20331D01*
X45355Y20502D01*
X45355D01*
Y31948D01*
X45354Y31957D01*
X45359Y32081D01*
X45372Y32214D01*
X45393Y32345D01*
X45424Y32475D01*
X45462Y32602D01*
X45509Y32727D01*
X45564Y32848D01*
X45627Y32966D01*
X45697Y33079D01*
X45775Y33187D01*
X45859Y33290D01*
X45944Y33381D01*
X45951Y33387D01*
X47166Y34602D01*
X47166Y34602D01*
X47292Y34600D01*
X47330Y34587D01*
X47427Y34562D01*
X47525Y34548D01*
X47625Y34543D01*
X48895D01*
X48995Y34548D01*
X49093Y34562D01*
X49190Y34587D01*
X49284Y34620D01*
X49375Y34663D01*
X49460Y34714D01*
X49540Y34774D01*
X49614Y34841D01*
X49681Y34915D01*
X49741Y34995D01*
X49792Y35080D01*
X49822Y35143D01*
X49949Y35115D01*
D02*
G37*
G36*
X12296Y38189D02*
Y37373D01*
X11259Y36336D01*
X11259Y36336D01*
D01*
X11164Y36258D01*
X11146Y36245D01*
X11130Y36236D01*
X11078Y36272D01*
X11012Y36304D01*
X10944Y36327D01*
X10872Y36341D01*
X10800Y36346D01*
X10728Y36341D01*
X10656Y36327D01*
X10588Y36304D01*
X10522Y36272D01*
X10462Y36231D01*
X10407Y36183D01*
X10360Y36129D01*
X10319Y36068D01*
X10287Y36003D01*
X10264Y35934D01*
X10250Y35863D01*
X10245Y35791D01*
X10250Y35718D01*
X10264Y35647D01*
X10287Y35578D01*
X10319Y35513D01*
X10360Y35453D01*
X10407Y35398D01*
X10462Y35350D01*
X10522Y35310D01*
X10588Y35278D01*
X10656Y35255D01*
X10728Y35240D01*
X10800Y35236D01*
X10872Y35240D01*
X10944Y35255D01*
X11012Y35278D01*
X11078Y35310D01*
X11138Y35350D01*
X11193Y35398D01*
X11240Y35453D01*
X11281Y35513D01*
X11288Y35527D01*
X11320Y35539D01*
X11417Y35584D01*
X11510Y35636D01*
X11599Y35695D01*
X11682Y35761D01*
X11760Y35833D01*
X11761Y35834D01*
X12773Y36846D01*
X13569D01*
X13604Y36846D01*
X13696D01*
X13731Y36846D01*
X14828D01*
X14876Y36729D01*
X5945Y27797D01*
X5944Y27796D01*
X5856Y27708D01*
X5856Y27708D01*
X5765Y27622D01*
X5758Y27615D01*
X5654Y27530D01*
X5544Y27451D01*
X5430Y27380D01*
X5311Y27317D01*
X5188Y27261D01*
X5062Y27213D01*
X4933Y27174D01*
X4802Y27144D01*
X4793Y27142D01*
X4793Y27143D01*
X4738Y27190D01*
X4678Y27231D01*
X4612Y27263D01*
X4544Y27286D01*
X4472Y27300D01*
X4400Y27305D01*
X4328Y27300D01*
X4256Y27286D01*
X4188Y27263D01*
X4122Y27231D01*
X4062Y27190D01*
X4007Y27143D01*
X3960Y27088D01*
X3919Y27028D01*
X3887Y26962D01*
X3864Y26894D01*
X3850Y26822D01*
X3845Y26750D01*
X3850Y26678D01*
X3864Y26606D01*
X3887Y26538D01*
X3919Y26472D01*
X3960Y26412D01*
X4007Y26357D01*
X4062Y26310D01*
X4122Y26269D01*
X4188Y26237D01*
X4256Y26214D01*
X4328Y26200D01*
X4400Y26195D01*
X4472Y26200D01*
X4544Y26214D01*
X4612Y26237D01*
X4678Y26269D01*
X4738Y26310D01*
X4793Y26357D01*
X4840Y26412D01*
X4855Y26433D01*
X4899Y26440D01*
X5063Y26475D01*
X5119Y26491D01*
X5128Y26482D01*
X5127Y26308D01*
X5114Y26297D01*
X5004Y26206D01*
X4887Y26122D01*
X4766Y26047D01*
X4640Y25980D01*
X4509Y25920D01*
X4376Y25870D01*
X4239Y25829D01*
X4099Y25796D01*
X3958Y25773D01*
X3816Y25759D01*
X3682Y25754D01*
X3673Y25755D01*
X1587D01*
X1575Y25789D01*
X1532Y25880D01*
X1481Y25965D01*
X1421Y26045D01*
X1354Y26119D01*
X1280Y26186D01*
X1200Y26246D01*
X1115Y26297D01*
X1024Y26340D01*
X930Y26373D01*
X833Y26398D01*
X735Y26412D01*
X635Y26417D01*
X-635D01*
X-735Y26412D01*
X-833Y26398D01*
X-930Y26373D01*
X-1024Y26340D01*
X-1115Y26297D01*
X-1200Y26246D01*
X-1280Y26186D01*
X-1354Y26119D01*
X-1421Y26045D01*
X-1481Y25965D01*
X-1532Y25880D01*
X-1562Y25817D01*
X-1689Y25845D01*
Y27495D01*
X-1562Y27523D01*
X-1532Y27460D01*
X-1481Y27375D01*
X-1421Y27295D01*
X-1354Y27221D01*
X-1280Y27154D01*
X-1200Y27094D01*
X-1115Y27043D01*
X-1024Y27000D01*
X-930Y26967D01*
X-833Y26942D01*
X-735Y26928D01*
X-635Y26923D01*
X635D01*
X735Y26928D01*
X833Y26942D01*
X930Y26967D01*
X1024Y27000D01*
X1115Y27043D01*
X1200Y27094D01*
X1280Y27154D01*
X1354Y27221D01*
X1421Y27295D01*
X1481Y27375D01*
X1532Y27460D01*
X1575Y27551D01*
X1608Y27645D01*
X1633Y27742D01*
X1647Y27840D01*
X1651Y27914D01*
X1713Y27946D01*
X1853Y28029D01*
X1988Y28119D01*
X2118Y28216D01*
X2242Y28321D01*
X2360Y28433D01*
X2360Y28433D01*
X12196Y38269D01*
X12296Y38189D01*
D02*
G37*
G36*
X-1532Y9680D02*
X-1481Y9595D01*
X-1421Y9515D01*
X-1354Y9441D01*
X-1280Y9374D01*
X-1200Y9314D01*
X-1115Y9263D01*
X-1024Y9220D01*
X-930Y9187D01*
X-833Y9162D01*
X-735Y9148D01*
X-635Y9143D01*
X635D01*
X735Y9148D01*
X833Y9162D01*
X930Y9187D01*
X1024Y9220D01*
X1115Y9263D01*
X1127Y9271D01*
X9271Y1127D01*
X9263Y1115D01*
X9220Y1024D01*
X9187Y930D01*
X9162Y833D01*
X9148Y735D01*
X9143Y635D01*
Y-635D01*
X9148Y-735D01*
X9162Y-833D01*
X9187Y-930D01*
X9220Y-1024D01*
X9263Y-1115D01*
X9314Y-1200D01*
X9327Y-1218D01*
X9263Y-1345D01*
X8517D01*
X8453Y-1218D01*
X8466Y-1200D01*
X8517Y-1115D01*
X8560Y-1024D01*
X8593Y-930D01*
X8618Y-833D01*
X8632Y-735D01*
X8637Y-635D01*
Y635D01*
X8632Y735D01*
X8618Y833D01*
X8593Y930D01*
X8560Y1024D01*
X8517Y1115D01*
X8466Y1200D01*
X8406Y1280D01*
X8339Y1354D01*
X8265Y1421D01*
X8185Y1481D01*
X8100Y1532D01*
X8009Y1575D01*
X7915Y1608D01*
X7818Y1633D01*
X7720Y1647D01*
X7620Y1652D01*
X7520Y1647D01*
X7422Y1633D01*
X7325Y1608D01*
X7231Y1575D01*
X7140Y1532D01*
X7055Y1481D01*
X6975Y1421D01*
X6901Y1354D01*
X6834Y1280D01*
X6774Y1200D01*
X6723Y1115D01*
X6680Y1024D01*
X6647Y930D01*
X6622Y833D01*
X6608Y735D01*
X6603Y635D01*
Y-635D01*
X6608Y-735D01*
X6622Y-833D01*
X6647Y-930D01*
X6680Y-1024D01*
X6723Y-1115D01*
X6774Y-1200D01*
X6787Y-1218D01*
X6723Y-1345D01*
X5977D01*
X5913Y-1218D01*
X5926Y-1200D01*
X5977Y-1115D01*
X6020Y-1024D01*
X6053Y-930D01*
X6078Y-833D01*
X6092Y-735D01*
X6097Y-635D01*
Y635D01*
X6092Y735D01*
X6078Y833D01*
X6053Y930D01*
X6020Y1024D01*
X5977Y1115D01*
X5926Y1200D01*
X5866Y1280D01*
X5799Y1354D01*
X5725Y1421D01*
X5645Y1481D01*
X5560Y1532D01*
X5469Y1575D01*
X5375Y1608D01*
X5278Y1633D01*
X5180Y1647D01*
X5080Y1652D01*
X4980Y1647D01*
X4882Y1633D01*
X4785Y1608D01*
X4691Y1575D01*
X4600Y1532D01*
X4515Y1481D01*
X4435Y1421D01*
X4361Y1354D01*
X4294Y1280D01*
X4234Y1200D01*
X4183Y1115D01*
X4140Y1024D01*
X4107Y930D01*
X4082Y833D01*
X4068Y735D01*
X4063Y635D01*
Y-635D01*
X4068Y-735D01*
X4082Y-833D01*
X4107Y-930D01*
X4140Y-1024D01*
X4183Y-1115D01*
X4234Y-1200D01*
X4247Y-1218D01*
X4183Y-1345D01*
X3437D01*
X3373Y-1218D01*
X3386Y-1200D01*
X3437Y-1115D01*
X3480Y-1024D01*
X3513Y-930D01*
X3538Y-833D01*
X3552Y-735D01*
X3557Y-635D01*
Y635D01*
X3552Y735D01*
X3538Y833D01*
X3513Y930D01*
X3480Y1024D01*
X3437Y1115D01*
X3386Y1200D01*
X3326Y1280D01*
X3259Y1354D01*
X3185Y1421D01*
X3105Y1481D01*
X3020Y1532D01*
X2929Y1575D01*
X2835Y1608D01*
X2738Y1633D01*
X2640Y1647D01*
X2540Y1652D01*
X2440Y1647D01*
X2342Y1633D01*
X2245Y1608D01*
X2151Y1575D01*
X2060Y1532D01*
X1975Y1481D01*
X1895Y1421D01*
X1821Y1354D01*
X1754Y1280D01*
X1694Y1200D01*
X1643Y1115D01*
X1600Y1024D01*
X1567Y930D01*
X1542Y833D01*
X1528Y735D01*
X1523Y635D01*
Y-635D01*
X1528Y-735D01*
X1542Y-833D01*
X1567Y-930D01*
X1600Y-1024D01*
X1643Y-1115D01*
X1694Y-1200D01*
X1707Y-1218D01*
X1643Y-1345D01*
X1016D01*
Y-127D01*
X0D01*
X-1016D01*
Y-1133D01*
X-1034Y-1148D01*
X-1143Y-1183D01*
X-1154Y-1171D01*
X-1186Y-1123D01*
X-1212Y-1071D01*
X-1230Y-1015D01*
X-1242Y-958D01*
X-1245Y-905D01*
X-1245Y-900D01*
Y3480D01*
X-1246Y3488D01*
X-1241Y3589D01*
X-1227Y3696D01*
X-1203Y3802D01*
X-1171Y3906D01*
X-1129Y4007D01*
X-1079Y4103D01*
X-1048Y4151D01*
X-1024Y4140D01*
X-930Y4107D01*
X-833Y4082D01*
X-735Y4068D01*
X-635Y4063D01*
X635D01*
X735Y4068D01*
X833Y4082D01*
X930Y4107D01*
X1024Y4140D01*
X1115Y4183D01*
X1200Y4234D01*
X1280Y4294D01*
X1354Y4361D01*
X1421Y4435D01*
X1481Y4515D01*
X1532Y4600D01*
X1575Y4691D01*
X1608Y4785D01*
X1633Y4882D01*
X1647Y4980D01*
X1652Y5080D01*
X1647Y5180D01*
X1633Y5278D01*
X1608Y5375D01*
X1575Y5469D01*
X1532Y5560D01*
X1481Y5645D01*
X1421Y5725D01*
X1354Y5799D01*
X1280Y5866D01*
X1200Y5926D01*
X1115Y5977D01*
X1024Y6020D01*
X930Y6053D01*
X833Y6078D01*
X735Y6092D01*
X635Y6097D01*
X-635D01*
X-735Y6092D01*
X-833Y6078D01*
X-930Y6053D01*
X-1024Y6020D01*
X-1115Y5977D01*
X-1200Y5926D01*
X-1280Y5866D01*
X-1354Y5799D01*
X-1421Y5725D01*
X-1481Y5645D01*
X-1532Y5560D01*
X-1562Y5497D01*
X-1689Y5525D01*
Y7175D01*
X-1562Y7203D01*
X-1532Y7140D01*
X-1481Y7055D01*
X-1421Y6975D01*
X-1354Y6901D01*
X-1280Y6834D01*
X-1200Y6774D01*
X-1115Y6723D01*
X-1024Y6680D01*
X-930Y6647D01*
X-833Y6622D01*
X-735Y6608D01*
X-635Y6603D01*
X635D01*
X735Y6608D01*
X833Y6622D01*
X930Y6647D01*
X1024Y6680D01*
X1115Y6723D01*
X1200Y6774D01*
X1280Y6834D01*
X1354Y6901D01*
X1421Y6975D01*
X1481Y7055D01*
X1532Y7140D01*
X1575Y7231D01*
X1608Y7325D01*
X1633Y7422D01*
X1647Y7520D01*
X1652Y7620D01*
X1647Y7720D01*
X1633Y7818D01*
X1608Y7915D01*
X1575Y8009D01*
X1532Y8100D01*
X1481Y8185D01*
X1421Y8265D01*
X1354Y8339D01*
X1280Y8406D01*
X1200Y8466D01*
X1115Y8517D01*
X1024Y8560D01*
X930Y8593D01*
X833Y8618D01*
X735Y8632D01*
X635Y8637D01*
X-635D01*
X-735Y8632D01*
X-833Y8618D01*
X-930Y8593D01*
X-1024Y8560D01*
X-1115Y8517D01*
X-1200Y8466D01*
X-1280Y8406D01*
X-1354Y8339D01*
X-1421Y8265D01*
X-1481Y8185D01*
X-1532Y8100D01*
X-1562Y8037D01*
X-1689Y8065D01*
Y9715D01*
X-1562Y9743D01*
X-1532Y9680D01*
D02*
G37*
%LPC*%
G36*
X43180Y61850D02*
X43000Y61845D01*
X42821Y61831D01*
X42643Y61808D01*
X42467Y61775D01*
X42292Y61733D01*
X42120Y61682D01*
X41951Y61622D01*
X41785Y61554D01*
X41623Y61476D01*
X41465Y61391D01*
X41312Y61297D01*
X41164Y61195D01*
X41021Y61086D01*
X40885Y60969D01*
X40755Y60846D01*
X40631Y60715D01*
X40514Y60579D01*
X40405Y60436D01*
X40303Y60288D01*
X40209Y60135D01*
X40124Y59977D01*
X40046Y59815D01*
X39978Y59649D01*
X39918Y59480D01*
X39867Y59308D01*
X39825Y59133D01*
X39792Y58957D01*
X39769Y58779D01*
X39755Y58600D01*
X39750Y58420D01*
X39755Y58240D01*
X39769Y58061D01*
X39792Y57883D01*
X39825Y57707D01*
X39867Y57532D01*
X39918Y57360D01*
X39978Y57191D01*
X40046Y57025D01*
X40124Y56863D01*
X40209Y56705D01*
X40303Y56552D01*
X40405Y56404D01*
X40514Y56261D01*
X40631Y56125D01*
X40755Y55994D01*
X40885Y55871D01*
X41021Y55754D01*
X41164Y55645D01*
X41312Y55543D01*
X41465Y55449D01*
X41623Y55364D01*
X41785Y55286D01*
X41951Y55218D01*
X42120Y55158D01*
X42292Y55107D01*
X42467Y55065D01*
X42643Y55032D01*
X42821Y55009D01*
X43000Y54995D01*
X43180Y54990D01*
X43360Y54995D01*
X43539Y55009D01*
X43717Y55032D01*
X43893Y55065D01*
X44068Y55107D01*
X44240Y55158D01*
X44409Y55218D01*
X44575Y55286D01*
X44737Y55364D01*
X44895Y55449D01*
X45048Y55543D01*
X45196Y55645D01*
X45339Y55754D01*
X45475Y55871D01*
X45605Y55994D01*
X45729Y56125D01*
X45846Y56261D01*
X45955Y56404D01*
X46057Y56552D01*
X46151Y56705D01*
X46236Y56863D01*
X46314Y57025D01*
X46382Y57191D01*
X46442Y57360D01*
X46493Y57532D01*
X46535Y57707D01*
X46568Y57883D01*
X46591Y58061D01*
X46605Y58240D01*
X46610Y58420D01*
X46605Y58600D01*
X46591Y58779D01*
X46568Y58957D01*
X46535Y59133D01*
X46493Y59308D01*
X46442Y59480D01*
X46382Y59649D01*
X46314Y59815D01*
X46236Y59977D01*
X46151Y60135D01*
X46057Y60288D01*
X45955Y60436D01*
X45846Y60579D01*
X45729Y60715D01*
X45605Y60846D01*
X45475Y60969D01*
X45339Y61086D01*
X45196Y61195D01*
X45048Y61297D01*
X44895Y61391D01*
X44737Y61476D01*
X44575Y61554D01*
X44409Y61622D01*
X44240Y61682D01*
X44068Y61733D01*
X43893Y61775D01*
X43717Y61808D01*
X43539Y61831D01*
X43360Y61845D01*
X43180Y61850D01*
D02*
G37*
G36*
X5080D02*
X4900Y61845D01*
X4721Y61831D01*
X4543Y61808D01*
X4367Y61775D01*
X4192Y61733D01*
X4020Y61682D01*
X3851Y61622D01*
X3685Y61554D01*
X3523Y61476D01*
X3365Y61391D01*
X3212Y61297D01*
X3064Y61195D01*
X2921Y61086D01*
X2785Y60969D01*
X2655Y60846D01*
X2531Y60715D01*
X2414Y60579D01*
X2305Y60436D01*
X2203Y60288D01*
X2109Y60135D01*
X2024Y59977D01*
X1946Y59815D01*
X1878Y59649D01*
X1818Y59480D01*
X1767Y59308D01*
X1725Y59133D01*
X1692Y58957D01*
X1669Y58779D01*
X1655Y58600D01*
X1650Y58420D01*
X1655Y58240D01*
X1669Y58061D01*
X1692Y57883D01*
X1725Y57707D01*
X1767Y57532D01*
X1818Y57360D01*
X1878Y57191D01*
X1946Y57025D01*
X2024Y56863D01*
X2109Y56705D01*
X2203Y56552D01*
X2305Y56404D01*
X2414Y56261D01*
X2531Y56125D01*
X2655Y55994D01*
X2785Y55871D01*
X2921Y55754D01*
X3064Y55645D01*
X3212Y55543D01*
X3365Y55449D01*
X3523Y55364D01*
X3685Y55286D01*
X3851Y55218D01*
X4020Y55158D01*
X4192Y55107D01*
X4367Y55065D01*
X4543Y55032D01*
X4721Y55009D01*
X4900Y54995D01*
X5080Y54990D01*
X5260Y54995D01*
X5439Y55009D01*
X5617Y55032D01*
X5793Y55065D01*
X5968Y55107D01*
X6140Y55158D01*
X6309Y55218D01*
X6475Y55286D01*
X6637Y55364D01*
X6795Y55449D01*
X6948Y55543D01*
X7096Y55645D01*
X7239Y55754D01*
X7375Y55871D01*
X7505Y55994D01*
X7629Y56125D01*
X7746Y56261D01*
X7855Y56404D01*
X7957Y56552D01*
X8051Y56705D01*
X8136Y56863D01*
X8214Y57025D01*
X8282Y57191D01*
X8342Y57360D01*
X8393Y57532D01*
X8435Y57707D01*
X8468Y57883D01*
X8491Y58061D01*
X8505Y58240D01*
X8510Y58420D01*
X8505Y58600D01*
X8491Y58779D01*
X8468Y58957D01*
X8435Y59133D01*
X8393Y59308D01*
X8342Y59480D01*
X8282Y59649D01*
X8214Y59815D01*
X8136Y59977D01*
X8051Y60135D01*
X7957Y60288D01*
X7855Y60436D01*
X7746Y60579D01*
X7629Y60715D01*
X7505Y60846D01*
X7375Y60969D01*
X7239Y61086D01*
X7096Y61195D01*
X6948Y61297D01*
X6795Y61391D01*
X6637Y61476D01*
X6475Y61554D01*
X6309Y61622D01*
X6140Y61682D01*
X5968Y61733D01*
X5793Y61775D01*
X5617Y61808D01*
X5439Y61831D01*
X5260Y61845D01*
X5080Y61850D01*
D02*
G37*
G36*
X48133Y54356D02*
X46609D01*
Y53467D01*
X48133D01*
Y54356D01*
D02*
G37*
G36*
Y53213D02*
X46609D01*
Y52324D01*
X48133D01*
Y53213D01*
D02*
G37*
G36*
X23529Y51854D02*
X22977D01*
Y51327D01*
X23529D01*
Y51854D01*
D02*
G37*
G36*
X22723D02*
X22171D01*
Y51327D01*
X22723D01*
Y51854D01*
D02*
G37*
G36*
X635Y51817D02*
X127D01*
Y50927D01*
X1643D01*
X1633Y50998D01*
X1608Y51095D01*
X1575Y51189D01*
X1532Y51280D01*
X1481Y51365D01*
X1421Y51445D01*
X1354Y51519D01*
X1280Y51586D01*
X1200Y51646D01*
X1115Y51697D01*
X1024Y51740D01*
X930Y51773D01*
X833Y51798D01*
X735Y51812D01*
X635Y51817D01*
D02*
G37*
G36*
X41644Y51804D02*
X39636D01*
Y49796D01*
X41644D01*
Y51804D01*
D02*
G37*
G36*
X1643Y50673D02*
X127D01*
Y49783D01*
X635D01*
X735Y49788D01*
X833Y49802D01*
X930Y49827D01*
X1024Y49860D01*
X1115Y49903D01*
X1200Y49954D01*
X1280Y50014D01*
X1354Y50081D01*
X1421Y50155D01*
X1481Y50235D01*
X1532Y50320D01*
X1575Y50411D01*
X1608Y50505D01*
X1633Y50602D01*
X1643Y50673D01*
D02*
G37*
G36*
X23529Y51073D02*
X22171D01*
Y50581D01*
X22171Y50546D01*
Y50454D01*
X22171Y50419D01*
Y49146D01*
X22388D01*
X22436Y49024D01*
X22436Y49019D01*
X22390Y48966D01*
X22349Y48905D01*
X22317Y48840D01*
X22294Y48771D01*
X22280Y48700D01*
X22275Y48628D01*
X22280Y48555D01*
X22294Y48484D01*
X22317Y48415D01*
X22349Y48350D01*
X22390Y48290D01*
X22437Y48235D01*
X22492Y48187D01*
X22552Y48147D01*
X22618Y48115D01*
X22686Y48091D01*
X22758Y48077D01*
X22830Y48072D01*
X22902Y48077D01*
X22974Y48091D01*
X23042Y48115D01*
X23108Y48147D01*
X23168Y48187D01*
X23223Y48235D01*
X23270Y48290D01*
X23311Y48350D01*
X23343Y48415D01*
X23366Y48484D01*
X23380Y48555D01*
X23385Y48628D01*
X23380Y48700D01*
X23366Y48771D01*
X23343Y48840D01*
X23311Y48905D01*
X23270Y48966D01*
X23224Y49019D01*
X23224Y49024D01*
X23272Y49146D01*
X23529D01*
Y50419D01*
X23529Y50454D01*
Y50546D01*
X23529Y50581D01*
Y51073D01*
D02*
G37*
G36*
X30698Y48154D02*
X30196D01*
Y47627D01*
X30698D01*
Y48154D01*
D02*
G37*
G36*
X48133Y46737D02*
X47625D01*
X47525Y46732D01*
X47427Y46718D01*
X47330Y46693D01*
X47236Y46660D01*
X47145Y46617D01*
X47060Y46566D01*
X46980Y46506D01*
X46906Y46439D01*
X46839Y46365D01*
X46779Y46285D01*
X46728Y46200D01*
X46685Y46109D01*
X46652Y46015D01*
X46627Y45918D01*
X46617Y45847D01*
X48133D01*
Y46737D01*
D02*
G37*
G36*
X40640Y46725D02*
X40541Y46720D01*
X40444Y46706D01*
X40348Y46682D01*
X40255Y46649D01*
X40166Y46607D01*
X40082Y46556D01*
X40002Y46497D01*
X39929Y46431D01*
X39863Y46358D01*
X39804Y46278D01*
X39753Y46194D01*
X39711Y46105D01*
X39678Y46012D01*
X39654Y45916D01*
X39640Y45819D01*
X39635Y45720D01*
X39640Y45621D01*
X39654Y45524D01*
X39678Y45428D01*
X39696Y45379D01*
X39691Y45348D01*
X39656Y45278D01*
X39617Y45238D01*
X39606Y45236D01*
X39538Y45213D01*
X39472Y45181D01*
X39412Y45140D01*
X39357Y45093D01*
X39310Y45038D01*
X39269Y44978D01*
X39237Y44912D01*
X39214Y44844D01*
X39200Y44772D01*
X39195Y44700D01*
X39200Y44628D01*
X39214Y44556D01*
X39237Y44488D01*
X39269Y44422D01*
X39310Y44362D01*
X39357Y44307D01*
X39412Y44260D01*
X39472Y44219D01*
X39538Y44187D01*
X39606Y44164D01*
X39678Y44150D01*
X39750Y44145D01*
X39822Y44150D01*
X39894Y44164D01*
X39962Y44187D01*
X40028Y44219D01*
X40088Y44260D01*
X40143Y44307D01*
X40190Y44362D01*
X40231Y44422D01*
X40263Y44488D01*
X40286Y44556D01*
X40300Y44628D01*
X40301Y44640D01*
X40305Y44649D01*
X40400Y44728D01*
X40430Y44738D01*
X40444Y44734D01*
X40541Y44720D01*
X40640Y44715D01*
X40739Y44720D01*
X40836Y44734D01*
X40932Y44758D01*
X41025Y44791D01*
X41114Y44833D01*
X41198Y44884D01*
X41278Y44943D01*
X41351Y45009D01*
X41417Y45082D01*
X41476Y45162D01*
X41527Y45246D01*
X41569Y45335D01*
X41602Y45428D01*
X41626Y45524D01*
X41640Y45621D01*
X41645Y45720D01*
X41640Y45819D01*
X41626Y45916D01*
X41602Y46012D01*
X41569Y46105D01*
X41527Y46194D01*
X41476Y46278D01*
X41417Y46358D01*
X41351Y46431D01*
X41278Y46497D01*
X41198Y46556D01*
X41114Y46607D01*
X41025Y46649D01*
X40932Y46682D01*
X40836Y46706D01*
X40739Y46720D01*
X40640Y46725D01*
D02*
G37*
G36*
X48133Y45593D02*
X46617D01*
X46627Y45522D01*
X46652Y45425D01*
X46685Y45331D01*
X46728Y45240D01*
X46779Y45155D01*
X46839Y45075D01*
X46906Y45001D01*
X46980Y44934D01*
X47060Y44874D01*
X47145Y44823D01*
X47236Y44780D01*
X47330Y44747D01*
X47427Y44722D01*
X47525Y44708D01*
X47625Y44703D01*
X48133D01*
Y45593D01*
D02*
G37*
G36*
X16398Y44554D02*
X15896D01*
Y44027D01*
X16398D01*
Y44554D01*
D02*
G37*
G36*
Y43773D02*
X15896D01*
Y43246D01*
X16398D01*
Y43773D01*
D02*
G37*
G36*
X40640Y41645D02*
X40541Y41640D01*
X40444Y41626D01*
X40348Y41602D01*
X40255Y41569D01*
X40166Y41527D01*
X40082Y41476D01*
X40002Y41417D01*
X39929Y41351D01*
X39863Y41278D01*
X39804Y41198D01*
X39753Y41114D01*
X39711Y41025D01*
X39678Y40932D01*
X39654Y40836D01*
X39640Y40739D01*
X39635Y40640D01*
X39640Y40541D01*
X39654Y40444D01*
X39678Y40348D01*
X39711Y40255D01*
X39753Y40166D01*
X39804Y40082D01*
X39863Y40002D01*
X39929Y39929D01*
X40002Y39863D01*
X40082Y39804D01*
X40166Y39753D01*
X40255Y39711D01*
X40348Y39678D01*
X40444Y39654D01*
X40541Y39640D01*
X40640Y39635D01*
X40739Y39640D01*
X40836Y39654D01*
X40932Y39678D01*
X41025Y39711D01*
X41114Y39753D01*
X41198Y39804D01*
X41278Y39863D01*
X41351Y39929D01*
X41417Y40002D01*
X41476Y40082D01*
X41527Y40166D01*
X41569Y40255D01*
X41602Y40348D01*
X41626Y40444D01*
X41640Y40541D01*
X41645Y40640D01*
X41640Y40739D01*
X41626Y40836D01*
X41602Y40932D01*
X41569Y41025D01*
X41527Y41114D01*
X41476Y41198D01*
X41417Y41278D01*
X41351Y41351D01*
X41278Y41417D01*
X41198Y41476D01*
X41114Y41527D01*
X41025Y41569D01*
X40932Y41602D01*
X40836Y41626D01*
X40739Y41640D01*
X40640Y41645D01*
D02*
G37*
G36*
X31546Y38929D02*
X31454D01*
X31419Y38929D01*
X30146D01*
Y38749D01*
X30019Y38710D01*
X30012Y38713D01*
X29944Y38736D01*
X29872Y38750D01*
X29800Y38755D01*
X29728Y38750D01*
X29656Y38736D01*
X29588Y38713D01*
X29522Y38681D01*
X29462Y38640D01*
X29407Y38593D01*
X29360Y38538D01*
X29319Y38478D01*
X29287Y38412D01*
X29264Y38344D01*
X29250Y38272D01*
X29245Y38200D01*
X29250Y38128D01*
X29264Y38056D01*
X29287Y37988D01*
X29319Y37922D01*
X29360Y37862D01*
X29407Y37807D01*
X29462Y37760D01*
X29522Y37719D01*
X29588Y37687D01*
X29656Y37664D01*
X29728Y37650D01*
X29800Y37645D01*
X29872Y37650D01*
X29944Y37664D01*
X30012Y37687D01*
X30019Y37690D01*
X30146Y37651D01*
X30146Y37571D01*
X30196Y37465D01*
Y37027D01*
X30825D01*
Y36773D01*
X30196D01*
Y36246D01*
Y35727D01*
X30825D01*
Y35473D01*
X30196D01*
Y34946D01*
Y34427D01*
X30825D01*
Y34173D01*
X30196D01*
Y33646D01*
Y33127D01*
X30825D01*
Y33000D01*
X30952D01*
Y32346D01*
X31419D01*
X31454Y32346D01*
X31546D01*
X31670Y32256D01*
Y30427D01*
X31670D01*
X31675Y30256D01*
X31689Y30086D01*
X31713Y29917D01*
X31746Y29749D01*
X31789Y29584D01*
X31841Y29421D01*
X31902Y29262D01*
X31971Y29106D01*
X32050Y28954D01*
X32137Y28807D01*
X32231Y28665D01*
X32334Y28528D01*
X32444Y28398D01*
X32531Y28307D01*
X32537Y28288D01*
X32569Y28222D01*
X32610Y28162D01*
X32657Y28107D01*
X32712Y28060D01*
X32772Y28019D01*
X32838Y27987D01*
X32906Y27964D01*
X32978Y27950D01*
X33050Y27945D01*
X33122Y27950D01*
X33194Y27964D01*
X33262Y27987D01*
X33328Y28019D01*
X33388Y28060D01*
X33443Y28107D01*
X33490Y28162D01*
X33531Y28222D01*
X33563Y28288D01*
X33586Y28356D01*
X33600Y28428D01*
X33605Y28500D01*
X33600Y28572D01*
X33586Y28644D01*
X33563Y28712D01*
X33531Y28778D01*
X33490Y28838D01*
X33443Y28893D01*
X33388Y28940D01*
X33328Y28981D01*
X33262Y29013D01*
X33247Y29018D01*
X33184Y29085D01*
X33100Y29188D01*
X33022Y29296D01*
X32952Y29409D01*
X32889Y29527D01*
X32834Y29648D01*
X32787Y29773D01*
X32749Y29900D01*
X32718Y30030D01*
X32697Y30161D01*
X32684Y30294D01*
X32679Y30418D01*
X32680Y30427D01*
Y32346D01*
X32804D01*
Y33646D01*
Y34946D01*
Y36246D01*
Y37554D01*
X32854Y37571D01*
Y38929D01*
X31581D01*
X31546Y38929D01*
D02*
G37*
G36*
X48133Y39117D02*
X47625D01*
X47525Y39112D01*
X47427Y39098D01*
X47330Y39073D01*
X47236Y39040D01*
X47145Y38997D01*
X47060Y38946D01*
X46980Y38886D01*
X46906Y38819D01*
X46839Y38745D01*
X46779Y38665D01*
X46728Y38580D01*
X46685Y38489D01*
X46652Y38395D01*
X46627Y38298D01*
X46617Y38227D01*
X48133D01*
Y39117D01*
D02*
G37*
G36*
Y37973D02*
X46617D01*
X46627Y37902D01*
X46652Y37805D01*
X46685Y37711D01*
X46728Y37620D01*
X46779Y37535D01*
X46839Y37455D01*
X46906Y37381D01*
X46980Y37314D01*
X47060Y37254D01*
X47145Y37203D01*
X47236Y37160D01*
X47330Y37127D01*
X47427Y37102D01*
X47525Y37088D01*
X47625Y37083D01*
X48133D01*
Y37973D01*
D02*
G37*
G36*
X28402Y31954D02*
Y31427D01*
X28904D01*
Y31954D01*
X28402D01*
D02*
G37*
G36*
X41644Y21324D02*
X39636D01*
Y19316D01*
X41644D01*
Y21324D01*
D02*
G37*
G36*
X34024D02*
X32016D01*
Y19316D01*
X34024D01*
Y21324D01*
D02*
G37*
G36*
X48133Y16257D02*
X47625D01*
X47525Y16252D01*
X47427Y16238D01*
X47330Y16213D01*
X47236Y16180D01*
X47145Y16137D01*
X47060Y16086D01*
X46980Y16026D01*
X46906Y15959D01*
X46839Y15885D01*
X46779Y15805D01*
X46728Y15720D01*
X46685Y15629D01*
X46652Y15535D01*
X46627Y15438D01*
X46617Y15367D01*
X48133D01*
Y16257D01*
D02*
G37*
G36*
X33020Y16245D02*
X32921Y16240D01*
X32824Y16226D01*
X32728Y16202D01*
X32635Y16169D01*
X32546Y16127D01*
X32462Y16076D01*
X32382Y16017D01*
X32309Y15951D01*
X32243Y15878D01*
X32184Y15798D01*
X32133Y15714D01*
X32091Y15625D01*
X32058Y15532D01*
X32034Y15436D01*
X32020Y15339D01*
X32015Y15240D01*
X32020Y15141D01*
X32034Y15044D01*
X32058Y14948D01*
X32091Y14855D01*
X32133Y14766D01*
X32184Y14682D01*
X32243Y14602D01*
X32309Y14529D01*
X32382Y14463D01*
X32462Y14404D01*
X32546Y14353D01*
X32635Y14311D01*
X32728Y14278D01*
X32824Y14254D01*
X32921Y14240D01*
X33020Y14235D01*
X33119Y14240D01*
X33216Y14254D01*
X33312Y14278D01*
X33405Y14311D01*
X33494Y14353D01*
X33578Y14404D01*
X33658Y14463D01*
X33731Y14529D01*
X33797Y14602D01*
X33856Y14682D01*
X33907Y14766D01*
X33949Y14855D01*
X33982Y14948D01*
X34006Y15044D01*
X34020Y15141D01*
X34025Y15240D01*
X34020Y15339D01*
X34006Y15436D01*
X33982Y15532D01*
X33949Y15625D01*
X33907Y15714D01*
X33856Y15798D01*
X33797Y15878D01*
X33731Y15951D01*
X33658Y16017D01*
X33578Y16076D01*
X33494Y16127D01*
X33405Y16169D01*
X33312Y16202D01*
X33216Y16226D01*
X33119Y16240D01*
X33020Y16245D01*
D02*
G37*
G36*
X48133Y15113D02*
X46617D01*
X46627Y15042D01*
X46652Y14945D01*
X46685Y14851D01*
X46728Y14760D01*
X46779Y14675D01*
X46839Y14595D01*
X46906Y14521D01*
X46980Y14454D01*
X47060Y14394D01*
X47145Y14343D01*
X47236Y14300D01*
X47330Y14267D01*
X47427Y14242D01*
X47525Y14228D01*
X47625Y14223D01*
X48133D01*
Y15113D01*
D02*
G37*
G36*
Y13717D02*
X47625D01*
X47525Y13712D01*
X47427Y13698D01*
X47330Y13673D01*
X47236Y13640D01*
X47145Y13597D01*
X47060Y13546D01*
X46980Y13486D01*
X46906Y13419D01*
X46839Y13345D01*
X46779Y13265D01*
X46728Y13180D01*
X46685Y13089D01*
X46652Y12995D01*
X46627Y12898D01*
X46617Y12827D01*
X48133D01*
Y13717D01*
D02*
G37*
G36*
Y12573D02*
X46617D01*
X46627Y12502D01*
X46652Y12405D01*
X46685Y12311D01*
X46728Y12220D01*
X46779Y12135D01*
X46839Y12055D01*
X46906Y11981D01*
X46980Y11914D01*
X47060Y11854D01*
X47145Y11803D01*
X47236Y11760D01*
X47330Y11727D01*
X47427Y11702D01*
X47525Y11688D01*
X47625Y11683D01*
X48133D01*
Y12573D01*
D02*
G37*
G36*
X635Y46737D02*
X127D01*
Y45847D01*
X1643D01*
X1633Y45918D01*
X1608Y46015D01*
X1575Y46109D01*
X1532Y46200D01*
X1481Y46285D01*
X1421Y46365D01*
X1354Y46439D01*
X1280Y46506D01*
X1200Y46566D01*
X1115Y46617D01*
X1024Y46660D01*
X930Y46693D01*
X833Y46718D01*
X735Y46732D01*
X635Y46737D01*
D02*
G37*
G36*
X1643Y45593D02*
X127D01*
Y44703D01*
X635D01*
X735Y44708D01*
X833Y44722D01*
X930Y44747D01*
X1024Y44780D01*
X1115Y44823D01*
X1200Y44874D01*
X1280Y44934D01*
X1354Y45001D01*
X1421Y45075D01*
X1481Y45155D01*
X1532Y45240D01*
X1575Y45331D01*
X1608Y45425D01*
X1633Y45522D01*
X1643Y45593D01*
D02*
G37*
G36*
X635Y41657D02*
X127D01*
Y40767D01*
X1643D01*
X1633Y40838D01*
X1608Y40935D01*
X1575Y41029D01*
X1532Y41120D01*
X1481Y41205D01*
X1421Y41285D01*
X1354Y41359D01*
X1280Y41426D01*
X1200Y41486D01*
X1115Y41537D01*
X1024Y41580D01*
X930Y41613D01*
X833Y41638D01*
X735Y41652D01*
X635Y41657D01*
D02*
G37*
G36*
X1643Y40513D02*
X127D01*
Y39623D01*
X635D01*
X735Y39628D01*
X833Y39642D01*
X930Y39667D01*
X1024Y39700D01*
X1115Y39743D01*
X1200Y39794D01*
X1280Y39854D01*
X1354Y39921D01*
X1421Y39995D01*
X1481Y40075D01*
X1532Y40160D01*
X1575Y40251D01*
X1608Y40345D01*
X1633Y40442D01*
X1643Y40513D01*
D02*
G37*
G36*
X25557Y42325D02*
Y42067D01*
X25815D01*
X25791Y42124D01*
X25758Y42178D01*
X25717Y42227D01*
X25668Y42268D01*
X25614Y42301D01*
X25557Y42325D01*
D02*
G37*
G36*
X19046Y34454D02*
X18954D01*
X18919Y34454D01*
X17646D01*
Y34376D01*
X17575Y34318D01*
X17519Y34294D01*
X17469Y34311D01*
X17397Y34325D01*
X17325Y34330D01*
X17253Y34325D01*
X17181Y34311D01*
X17113Y34288D01*
X17047Y34256D01*
X16987Y34215D01*
X16932Y34168D01*
X16885Y34113D01*
X16844Y34053D01*
X16812Y33987D01*
X16789Y33919D01*
X16775Y33847D01*
X16770Y33775D01*
X16775Y33703D01*
X16789Y33631D01*
X16812Y33563D01*
X16844Y33497D01*
X16885Y33437D01*
X16932Y33382D01*
X16987Y33335D01*
X17047Y33294D01*
X17113Y33262D01*
X17181Y33239D01*
X17253Y33225D01*
X17325Y33220D01*
X17397Y33225D01*
X17469Y33239D01*
X17519Y33256D01*
X17575Y33232D01*
X17646Y33174D01*
Y33096D01*
X18919D01*
X18954Y33096D01*
X19046D01*
X19081Y33096D01*
X20354D01*
Y33305D01*
X20481Y33353D01*
X20482Y33351D01*
X20537Y33303D01*
X20597Y33263D01*
X20663Y33231D01*
X20731Y33208D01*
X20803Y33194D01*
X20875Y33189D01*
X20947Y33194D01*
X21019Y33208D01*
X21087Y33231D01*
X21153Y33263D01*
X21213Y33303D01*
X21268Y33351D01*
X21315Y33406D01*
X21356Y33466D01*
X21388Y33531D01*
X21411Y33600D01*
X21425Y33671D01*
X21430Y33744D01*
X21425Y33816D01*
X21411Y33888D01*
X21388Y33956D01*
X21356Y34022D01*
X21315Y34082D01*
X21268Y34137D01*
X21213Y34184D01*
X21153Y34225D01*
X21087Y34257D01*
X21019Y34280D01*
X20947Y34294D01*
X20875Y34299D01*
X20803Y34294D01*
X20731Y34280D01*
X20663Y34257D01*
X20597Y34225D01*
X20537Y34184D01*
X20482Y34137D01*
X20379Y34199D01*
X20354Y34224D01*
Y34454D01*
X19081D01*
X19046Y34454D01*
D02*
G37*
G36*
X15240Y31485D02*
X15141Y31480D01*
X15044Y31466D01*
X14948Y31442D01*
X14855Y31409D01*
X14766Y31367D01*
X14682Y31316D01*
X14602Y31257D01*
X14529Y31191D01*
X14463Y31118D01*
X14404Y31038D01*
X14353Y30954D01*
X14311Y30865D01*
X14278Y30772D01*
X14254Y30676D01*
X14240Y30579D01*
X14235Y30480D01*
X14240Y30381D01*
X14254Y30284D01*
X14278Y30188D01*
X14311Y30095D01*
X14353Y30006D01*
X14404Y29922D01*
X14463Y29842D01*
X14529Y29769D01*
X14602Y29703D01*
X14682Y29644D01*
X14766Y29593D01*
X14855Y29551D01*
X14948Y29518D01*
X15044Y29494D01*
X15141Y29480D01*
X15240Y29475D01*
X15339Y29480D01*
X15436Y29494D01*
X15532Y29518D01*
X15625Y29551D01*
X15714Y29593D01*
X15798Y29644D01*
X15878Y29703D01*
X15951Y29769D01*
X16017Y29842D01*
X16076Y29922D01*
X16127Y30006D01*
X16169Y30095D01*
X16179Y30125D01*
X17821D01*
Y29881D01*
X17821Y29846D01*
Y29754D01*
X17821Y29719D01*
Y29227D01*
X18500D01*
X19179D01*
Y29719D01*
X19179Y29754D01*
Y29846D01*
X19179Y29881D01*
Y31154D01*
X17821D01*
Y30835D01*
X16179D01*
X16169Y30865D01*
X16127Y30954D01*
X16076Y31038D01*
X16017Y31118D01*
X15951Y31191D01*
X15878Y31257D01*
X15798Y31316D01*
X15714Y31367D01*
X15625Y31409D01*
X15532Y31442D01*
X15436Y31466D01*
X15339Y31480D01*
X15240Y31485D01*
D02*
G37*
G36*
X19179Y28973D02*
X18627D01*
Y28446D01*
X19179D01*
Y28973D01*
D02*
G37*
G36*
X18373D02*
X17821D01*
Y28446D01*
X18373D01*
Y28973D01*
D02*
G37*
G36*
X16244Y28944D02*
X14236D01*
Y26936D01*
X16244D01*
Y28944D01*
D02*
G37*
G36*
X635Y18797D02*
X127D01*
Y17907D01*
X1643D01*
X1633Y17978D01*
X1608Y18075D01*
X1575Y18169D01*
X1532Y18260D01*
X1481Y18345D01*
X1421Y18425D01*
X1354Y18499D01*
X1280Y18566D01*
X1200Y18626D01*
X1115Y18677D01*
X1024Y18720D01*
X930Y18753D01*
X833Y18778D01*
X735Y18792D01*
X635Y18797D01*
D02*
G37*
G36*
X1643Y17653D02*
X127D01*
Y16763D01*
X635D01*
X735Y16768D01*
X833Y16782D01*
X930Y16807D01*
X1024Y16840D01*
X1115Y16883D01*
X1200Y16934D01*
X1280Y16994D01*
X1354Y17061D01*
X1421Y17135D01*
X1481Y17215D01*
X1532Y17300D01*
X1575Y17391D01*
X1608Y17485D01*
X1633Y17582D01*
X1643Y17653D01*
D02*
G37*
G36*
X635Y16257D02*
X127D01*
Y15367D01*
X1643D01*
X1633Y15438D01*
X1608Y15535D01*
X1575Y15629D01*
X1532Y15720D01*
X1481Y15805D01*
X1421Y15885D01*
X1354Y15959D01*
X1280Y16026D01*
X1200Y16086D01*
X1115Y16137D01*
X1024Y16180D01*
X930Y16213D01*
X833Y16238D01*
X735Y16252D01*
X635Y16257D01*
D02*
G37*
G36*
X1643Y15113D02*
X127D01*
Y14223D01*
X635D01*
X735Y14228D01*
X833Y14242D01*
X930Y14267D01*
X1024Y14300D01*
X1115Y14343D01*
X1200Y14394D01*
X1280Y14454D01*
X1354Y14521D01*
X1421Y14595D01*
X1481Y14675D01*
X1532Y14760D01*
X1575Y14851D01*
X1608Y14945D01*
X1633Y15042D01*
X1643Y15113D01*
D02*
G37*
G36*
X22860Y11050D02*
X22680Y11045D01*
X22501Y11031D01*
X22323Y11008D01*
X22147Y10975D01*
X21972Y10933D01*
X21800Y10882D01*
X21631Y10822D01*
X21465Y10754D01*
X21303Y10676D01*
X21145Y10591D01*
X20992Y10497D01*
X20844Y10395D01*
X20701Y10286D01*
X20565Y10169D01*
X20434Y10045D01*
X20311Y9915D01*
X20194Y9779D01*
X20085Y9636D01*
X19983Y9488D01*
X19889Y9335D01*
X19804Y9177D01*
X19726Y9015D01*
X19658Y8849D01*
X19598Y8680D01*
X19547Y8508D01*
X19505Y8333D01*
X19472Y8157D01*
X19449Y7979D01*
X19435Y7800D01*
X19430Y7620D01*
X19435Y7440D01*
X19449Y7261D01*
X19472Y7083D01*
X19505Y6907D01*
X19547Y6732D01*
X19598Y6560D01*
X19658Y6391D01*
X19726Y6225D01*
X19804Y6063D01*
X19889Y5905D01*
X19983Y5752D01*
X20085Y5604D01*
X20194Y5461D01*
X20311Y5325D01*
X20434Y5194D01*
X20565Y5071D01*
X20701Y4954D01*
X20844Y4845D01*
X20992Y4743D01*
X21145Y4649D01*
X21303Y4564D01*
X21465Y4486D01*
X21631Y4418D01*
X21800Y4358D01*
X21972Y4307D01*
X22147Y4265D01*
X22323Y4232D01*
X22501Y4209D01*
X22680Y4195D01*
X22860Y4190D01*
X23040Y4195D01*
X23219Y4209D01*
X23397Y4232D01*
X23573Y4265D01*
X23748Y4307D01*
X23920Y4358D01*
X24089Y4418D01*
X24255Y4486D01*
X24417Y4564D01*
X24575Y4649D01*
X24728Y4743D01*
X24876Y4845D01*
X25019Y4954D01*
X25155Y5071D01*
X25285Y5194D01*
X25409Y5325D01*
X25526Y5461D01*
X25635Y5604D01*
X25737Y5752D01*
X25831Y5905D01*
X25916Y6063D01*
X25994Y6225D01*
X26062Y6391D01*
X26122Y6560D01*
X26173Y6732D01*
X26215Y6907D01*
X26248Y7083D01*
X26271Y7261D01*
X26285Y7440D01*
X26290Y7620D01*
X26285Y7800D01*
X26271Y7979D01*
X26248Y8157D01*
X26215Y8333D01*
X26173Y8508D01*
X26122Y8680D01*
X26062Y8849D01*
X25994Y9015D01*
X25916Y9177D01*
X25831Y9335D01*
X25737Y9488D01*
X25635Y9636D01*
X25526Y9779D01*
X25409Y9915D01*
X25285Y10045D01*
X25155Y10169D01*
X25019Y10286D01*
X24876Y10395D01*
X24728Y10497D01*
X24575Y10591D01*
X24417Y10676D01*
X24255Y10754D01*
X24089Y10822D01*
X23920Y10882D01*
X23748Y10933D01*
X23573Y10975D01*
X23397Y11008D01*
X23219Y11031D01*
X23040Y11045D01*
X22860Y11050D01*
D02*
G37*
G36*
X22987Y1643D02*
Y127D01*
X23877D01*
Y635D01*
X23872Y735D01*
X23858Y833D01*
X23833Y930D01*
X23800Y1024D01*
X23757Y1115D01*
X23706Y1200D01*
X23646Y1280D01*
X23579Y1354D01*
X23505Y1421D01*
X23425Y1481D01*
X23340Y1532D01*
X23249Y1575D01*
X23155Y1608D01*
X23058Y1633D01*
X22987Y1643D01*
D02*
G37*
G36*
X20447D02*
Y127D01*
X21337D01*
Y635D01*
X21332Y735D01*
X21318Y833D01*
X21293Y930D01*
X21260Y1024D01*
X21217Y1115D01*
X21166Y1200D01*
X21106Y1280D01*
X21039Y1354D01*
X20965Y1421D01*
X20885Y1481D01*
X20800Y1532D01*
X20709Y1575D01*
X20615Y1608D01*
X20518Y1633D01*
X20447Y1643D01*
D02*
G37*
G36*
X22733D02*
X22662Y1633D01*
X22565Y1608D01*
X22471Y1575D01*
X22380Y1532D01*
X22295Y1481D01*
X22215Y1421D01*
X22141Y1354D01*
X22074Y1280D01*
X22014Y1200D01*
X21963Y1115D01*
X21920Y1024D01*
X21887Y930D01*
X21862Y833D01*
X21848Y735D01*
X21843Y635D01*
Y127D01*
X22733D01*
Y1643D01*
D02*
G37*
G36*
X20193D02*
X20122Y1633D01*
X20025Y1608D01*
X19931Y1575D01*
X19840Y1532D01*
X19755Y1481D01*
X19675Y1421D01*
X19601Y1354D01*
X19534Y1280D01*
X19474Y1200D01*
X19423Y1115D01*
X19380Y1024D01*
X19347Y930D01*
X19322Y833D01*
X19308Y735D01*
X19303Y635D01*
Y127D01*
X20193D01*
Y1643D01*
D02*
G37*
G36*
X48133Y34037D02*
X47625D01*
X47525Y34032D01*
X47427Y34018D01*
X47330Y33993D01*
X47236Y33960D01*
X47145Y33917D01*
X47060Y33866D01*
X46980Y33806D01*
X46906Y33739D01*
X46839Y33665D01*
X46779Y33585D01*
X46728Y33500D01*
X46685Y33409D01*
X46652Y33315D01*
X46627Y33218D01*
X46617Y33147D01*
X48133D01*
Y34037D01*
D02*
G37*
G36*
Y32893D02*
X46617D01*
X46627Y32822D01*
X46652Y32725D01*
X46685Y32631D01*
X46728Y32540D01*
X46779Y32455D01*
X46839Y32375D01*
X46906Y32301D01*
X46980Y32234D01*
X47060Y32174D01*
X47145Y32123D01*
X47236Y32080D01*
X47330Y32047D01*
X47427Y32022D01*
X47525Y32008D01*
X47625Y32003D01*
X48133D01*
Y32893D01*
D02*
G37*
G36*
Y31497D02*
X47625D01*
X47525Y31492D01*
X47427Y31478D01*
X47330Y31453D01*
X47236Y31420D01*
X47145Y31377D01*
X47060Y31326D01*
X46980Y31266D01*
X46906Y31199D01*
X46839Y31125D01*
X46779Y31045D01*
X46728Y30960D01*
X46685Y30869D01*
X46652Y30775D01*
X46627Y30678D01*
X46617Y30607D01*
X48133D01*
Y31497D01*
D02*
G37*
G36*
Y30353D02*
X46617D01*
X46627Y30282D01*
X46652Y30185D01*
X46685Y30091D01*
X46728Y30000D01*
X46779Y29915D01*
X46839Y29835D01*
X46906Y29761D01*
X46980Y29694D01*
X47060Y29634D01*
X47145Y29583D01*
X47236Y29540D01*
X47330Y29507D01*
X47427Y29482D01*
X47525Y29468D01*
X47625Y29463D01*
X48133D01*
Y30353D01*
D02*
G37*
G36*
X1016Y1651D02*
X127D01*
Y127D01*
X1016D01*
Y1651D01*
D02*
G37*
G36*
X-127D02*
X-1016D01*
Y127D01*
X-127D01*
Y1651D01*
D02*
G37*
%LPD*%
D11*
X27380Y41940D02*
X27700Y42250D01*
D12*
X10800Y35791D02*
G03*
X11510Y36085I0J1004D01*
G01*
X14742Y37917D02*
G03*
X14350Y37525I0J-392D01*
G01*
X19580Y36090D02*
G03*
X18779Y35758I0J-1132D01*
G01*
X12766Y42034D02*
G03*
X14562Y41290I1796J1796D01*
G01*
X7284Y47516D02*
G03*
X5488Y48260I-1796J-1796D01*
G01*
X20875Y33744D02*
G03*
X20800Y33775I-75J-75D01*
G01*
X14809Y-1041D02*
G03*
X15240Y0I-1041J1041D01*
G01*
X0Y5080D02*
G03*
X-1600Y3480I0J-1600D01*
G01*
X13219Y-1700D02*
G03*
X14809Y-1041I0J2249D01*
G01*
X-1600Y-900D02*
G03*
X-800Y-1700I800J0D01*
G01*
X14467Y39990D02*
G03*
X12671Y39246I0J-2540D01*
G01*
X9356Y3294D02*
G03*
X11152Y2550I1796J1796D01*
G01*
X16794Y1806D02*
G03*
X14998Y2550I-1796J-1796D01*
G01*
X313Y27940D02*
G03*
X2109Y28684I0J2540D01*
G01*
X17875Y43900D02*
G03*
X17899Y43890I24J24D01*
G01*
X24200Y52500D02*
G03*
X24660Y51390I1569J0D01*
G01*
X22850Y49800D02*
G03*
X22830Y49752I48J-48D01*
G01*
X22850Y49800D02*
G03*
X22800Y49679I121J-121D01*
G01*
X18452Y30480D02*
G03*
X18500Y30500I0J68D01*
G01*
X4400Y26750D02*
G03*
X6107Y27457I0J2414D01*
G01*
X17780Y0D02*
G03*
X17200Y1400I-1980J0D01*
G01*
X55Y12645D02*
G03*
X1250Y12150I1195J1195D01*
G01*
X1800Y10822D02*
G03*
X1250Y12150I-1878J0D01*
G01*
X1800Y10650D02*
G03*
X2401Y9199I2052J0D01*
G01*
X9043Y2557D02*
G03*
X10750Y1850I1707J1707D01*
G01*
X12030Y1320D02*
G03*
X10750Y1850I-1280J-1280D01*
G01*
X12700Y0D02*
G03*
X12240Y1110I-1569J0D01*
G01*
X1263Y9637D02*
G03*
X0Y10160I-1263J-1263D01*
G01*
X10160Y0D02*
G03*
X9637Y1263I-1787J0D01*
G01*
X23558Y57120D02*
G03*
X20348Y58450I-3210J-3210D01*
G01*
X28400Y45866D02*
G03*
X28680Y45190I956J0D01*
G01*
X28400Y50398D02*
G03*
X27070Y53608I-4540J0D01*
G01*
X14906Y59194D02*
G03*
X16702Y58450I1796J1796D01*
G01*
X23205Y56767D02*
G03*
X20348Y57950I-2857J-2857D01*
G01*
X27900Y45504D02*
G03*
X28030Y45190I444J0D01*
G01*
X27900Y50398D02*
G03*
X26717Y53255I-4040J0D01*
G01*
X13956Y58694D02*
G03*
X15752Y57950I1796J1796D01*
G01*
X22144Y55706D02*
G03*
X20348Y56450I-1796J-1796D01*
G01*
X26400Y50398D02*
G03*
X25656Y52194I-2540J0D01*
G01*
Y46066D02*
G03*
X26400Y47862I-1796J1796D01*
G01*
X10956Y57194D02*
G03*
X12752Y56450I1796J1796D01*
G01*
X22497Y56060D02*
G03*
X20348Y56950I-2150J-2150D01*
G01*
X26900Y50398D02*
G03*
X26010Y52548I-3040J0D01*
G01*
X26156Y45916D02*
G03*
X26900Y47712I-1796J1796D01*
G01*
X11956Y57694D02*
G03*
X13752Y56950I1796J1796D01*
G01*
X22851Y56413D02*
G03*
X20348Y57450I-2503J-2503D01*
G01*
X27400Y50398D02*
G03*
X26363Y52901I-3540J0D01*
G01*
X12956Y58194D02*
G03*
X14752Y57450I1796J1796D01*
G01*
X27380Y45190D02*
G03*
X27400Y45238I-48J48D01*
G01*
X21530Y49568D02*
G03*
X20786Y51364I-2540J0D01*
G01*
X19294Y52856D02*
G03*
X17498Y53600I-1796J-1796D01*
G01*
X6752D02*
G03*
X4956Y52856I0J-2540D01*
G01*
X7752Y53100D02*
G03*
X5956Y52356I0J-2540D01*
G01*
X18844D02*
G03*
X17048Y53100I-1796J-1796D01*
G01*
X20880Y49268D02*
G03*
X20136Y51064I-2540J0D01*
G01*
X8752Y52600D02*
G03*
X6956Y51856I0J-2540D01*
G01*
X18444D02*
G03*
X16648Y52600I-1796J-1796D01*
G01*
X20230Y49018D02*
G03*
X19486Y50814I-2540J0D01*
G01*
X9752Y52100D02*
G03*
X7956Y51356I0J-2540D01*
G01*
X18094D02*
G03*
X16298Y52100I-1796J-1796D01*
G01*
X19580Y48818D02*
G03*
X18836Y50614I-2540J0D01*
G01*
X18002Y37625D02*
G03*
X16206Y36881I0J-2540D01*
G01*
X19815Y35025D02*
G03*
X20880Y36090I0J1065D01*
G01*
X17377Y36425D02*
G03*
X15581Y35681I0J-2540D01*
G01*
X16602Y35025D02*
G03*
X14806Y34281I0J-2540D01*
G01*
X3673Y25400D02*
G03*
X5469Y26144I0J2540D01*
G01*
X1708Y22860D02*
G03*
X3504Y23604I0J2540D01*
G01*
X0Y20320D02*
G03*
X1442Y20917I0J2040D01*
G01*
X21530Y36740D02*
G03*
X21504Y36729I0J-36D01*
G01*
X20880Y36740D02*
G03*
X20854Y36729I0J-36D01*
G01*
X21530Y37390D02*
G03*
X21504Y37379I0J-36D01*
G01*
X47407Y9807D02*
G03*
X47406Y9806I853J-854D01*
G01*
X48260Y10160D02*
G03*
X47407Y9807I0J-1207D01*
G01*
X44573Y8025D02*
G03*
X46369Y8769I0J2540D01*
G01*
X47210Y5515D02*
G03*
X48260Y5080I1050J1050D01*
G01*
X46244Y6481D02*
G03*
X44448Y7225I-1796J-1796D01*
G01*
X26080Y36090D02*
G03*
X25825Y35474I616J-616D01*
G01*
X31381Y8769D02*
G03*
X33177Y8025I1796J1796D01*
G01*
X25825Y15377D02*
G03*
X26569Y13581I2540J0D01*
G01*
X25025Y35499D02*
G03*
X24780Y36090I-836J0D01*
G01*
X30815Y8203D02*
G03*
X33177Y7225I2362J2362D01*
G01*
X25025Y15377D02*
G03*
X26003Y13015I3340J0D01*
G01*
X31098Y8486D02*
G03*
X33177Y7625I2079J2079D01*
G01*
X25425Y15377D02*
G03*
X26286Y13298I2940J0D01*
G01*
X11510Y36085D02*
X12950Y37525D01*
X14742Y37917D02*
X15300D01*
X18750Y35729D02*
X18779Y35758D01*
X7284Y47516D02*
X11618Y43182D01*
X14562Y41290D02*
X19580D01*
X0Y48260D02*
X5488D01*
X19700Y33775D02*
X20800D01*
X17325D02*
X18300D01*
X20906Y37426D02*
X21185Y37705D01*
X6107Y27457D02*
X17000Y38350D01*
X-1600Y-900D02*
Y3480D01*
X-800Y-1700D02*
X13219D01*
X14467Y39990D02*
X19580D01*
X16794Y1806D02*
X17200Y1400D01*
X11152Y2550D02*
X14998D01*
X2109Y28684D02*
X12671Y39246D01*
X0Y27940D02*
X313D01*
X6200Y6450D02*
X9356Y3294D01*
X17875Y43050D02*
Y43900D01*
X17899Y43890D02*
X19580D01*
X21530Y45190D02*
Y49568D01*
X22830Y48628D02*
Y49752D01*
X27390Y40640D02*
X27700Y40950D01*
X27380Y40640D02*
X27390D01*
X24130Y38040D02*
Y39340D01*
X24780Y38040D02*
Y39340D01*
X23480Y41940D02*
Y43240D01*
X22830Y42590D02*
Y43240D01*
X22180Y41940D02*
X22830D01*
X22180D02*
Y43240D01*
X24660Y51390D02*
X24850Y51200D01*
Y48628D02*
Y49800D01*
X15240Y30480D02*
X18452D01*
X21530Y38690D02*
X22180D01*
X26950Y34000D02*
Y34850D01*
X25430Y38580D02*
X25450Y38600D01*
X25430Y38040D02*
Y38580D01*
X29900Y42250D02*
X30800D01*
X1800Y10650D02*
Y10822D01*
X2401Y9199D02*
X9043Y2557D01*
X12030Y1320D02*
X12240Y1110D01*
X0Y12700D02*
X55Y12645D01*
X1263Y9637D02*
X9637Y1263D01*
X23558Y57120D02*
X27070Y53608D01*
X16702Y58450D02*
X20348D01*
X28400Y45866D02*
Y50398D01*
X14900Y59200D02*
X14906Y59194D01*
X15752Y57950D02*
X20348D01*
X23205Y56767D02*
X26717Y53255D01*
X27900Y45504D02*
Y50398D01*
X13950Y58700D02*
X13956Y58694D01*
X22144Y55706D02*
X25656Y52194D01*
X26400Y47862D02*
Y50398D01*
X24780Y45190D02*
X25656Y46066D01*
X12752Y56450D02*
X20348D01*
X10950Y57200D02*
X10956Y57194D01*
X22497Y56060D02*
X26010Y52548D01*
X13752Y56950D02*
X20348D01*
X26900Y47712D02*
Y50398D01*
X25430Y45190D02*
X26156Y45916D01*
X11950Y57700D02*
X11956Y57694D01*
X14752Y57450D02*
X20348D01*
X27400Y45238D02*
Y50398D01*
X12950Y58200D02*
X12956Y58194D01*
X22851Y56413D02*
X26363Y52901D01*
X19294Y52856D02*
X20786Y51364D01*
X6752Y53600D02*
X17498D01*
X7050Y50450D02*
X7956Y51356D01*
X6050Y50950D02*
X6956Y51856D01*
X5050Y51450D02*
X5956Y52356D01*
X4050Y51950D02*
X4956Y52856D01*
X7752Y53100D02*
X17048D01*
X18844Y52356D02*
X20136Y51064D01*
X8752Y52600D02*
X16648D01*
X18444Y51856D02*
X19486Y50814D01*
X9752Y52100D02*
X16298D01*
X18094Y51356D02*
X18836Y50614D01*
X16602Y35025D02*
X19815D01*
X20575Y36425D02*
X20854Y36704D01*
X21225Y36425D02*
X21504Y36704D01*
X21225Y37075D02*
X21504Y37354D01*
X5469Y26144D02*
X16206Y36881D01*
X3504Y23604D02*
X15581Y35681D01*
X1442Y20917D02*
X14806Y34281D01*
X0Y25400D02*
X3673D01*
X0Y22860D02*
X1708D01*
X21504Y36729D02*
X21504Y36729D01*
X21504Y36704D02*
Y36729D01*
X20854D02*
X20854Y36729D01*
X20854Y36704D02*
Y36729D01*
X21504Y37354D02*
Y37379D01*
X21504Y37379D01*
X47406Y9806D02*
X47407Y9807D01*
X46369Y8769D02*
X47406Y9806D01*
X33177Y8025D02*
X44573D01*
X46244Y6481D02*
X47210Y5515D01*
X33177Y7225D02*
X44448D01*
X25825Y15377D02*
Y35474D01*
X26569Y13581D02*
X31381Y8769D01*
X25025Y15377D02*
Y35499D01*
X33177Y7625D02*
X48255D01*
X25425Y36085D02*
X25430Y36090D01*
X25425Y15377D02*
Y36085D01*
X48255Y7625D02*
X48260Y7620D01*
X26003Y13015D02*
X30815Y8203D01*
X26286Y13298D02*
X31098Y8486D01*
X19580Y45190D02*
Y48818D01*
X20230Y45190D02*
Y49018D01*
X20880Y45190D02*
Y49268D01*
D14*
X27380Y41290D02*
X27695Y41605D01*
X24780Y43890D02*
X25095Y44205D01*
X27380Y39990D02*
X27695Y40305D01*
X26730Y39990D02*
X27045Y39675D01*
X25110Y37070D02*
X25430Y37390D01*
X23480Y43890D02*
X23800Y44210D01*
X21860D02*
X22180Y43890D01*
X20880Y41940D02*
X21195Y42255D01*
X20880Y41290D02*
X21195Y41605D01*
X23815Y37075D02*
X24130Y37390D01*
X21215Y39655D02*
X21530Y39340D01*
X26730Y41940D02*
X27045Y41625D01*
X26735Y40630D02*
X27050Y40315D01*
X26400Y40980D02*
X26715Y41295D01*
X24780Y43240D02*
X25095Y43555D01*
X25105Y41615D02*
X25430Y41940D01*
X25097Y41623D02*
X25105Y41615D01*
X24780Y41940D02*
X25097Y41623D01*
X24455Y41615D02*
X24780Y41940D01*
X24130Y41290D02*
X24455Y40965D01*
X25105D02*
X25430Y41290D01*
X24780D02*
X25097Y40972D01*
X25105Y40965D01*
X25105Y40315D02*
X25430Y40640D01*
X24780Y40640D02*
X25105Y40315D01*
X24455Y40965D02*
X24780Y41290D01*
X24455Y40315D02*
X24780Y40640D01*
X24448Y40322D02*
X24455Y40315D01*
X24130Y40640D02*
X24448Y40322D01*
X24780Y39990D02*
X25097Y39673D01*
X25105Y39665D01*
X25430Y39990D01*
X24455Y39665D02*
X24780Y39990D01*
X24130D02*
X24455Y39665D01*
X24780Y38040D02*
X25095Y37725D01*
X24130Y43240D02*
X24445Y43555D01*
X23805Y41615D02*
X24130Y41940D01*
X24448Y41623D02*
X24455Y41615D01*
X24130Y41940D02*
X24448Y41623D01*
X23480Y43240D02*
X23795Y43555D01*
X23798Y41623D02*
X23805Y41615D01*
X23480Y41940D02*
X23798Y41623D01*
X23155Y41615D02*
X23480Y41940D01*
X23805Y40965D02*
X24130Y41290D01*
X23480D02*
X23798Y40972D01*
X23805Y40965D01*
X23805Y40315D02*
X24130Y40640D01*
X23155Y40965D02*
X23480Y41290D01*
X20230Y41940D02*
X20545Y42255D01*
X23147Y41623D02*
X23155Y41615D01*
X22830Y41940D02*
X23147Y41623D01*
X22830Y41290D02*
X23155Y40965D01*
X23147Y40322D02*
X23155Y40315D01*
X22830Y40640D02*
X23147Y40322D01*
X20230Y41290D02*
X20545Y41605D01*
X23480Y40640D02*
X23805Y40315D01*
X23805Y39665D02*
X24130Y39990D01*
X23480D02*
X23798Y39673D01*
X23805Y39665D01*
X23155Y40315D02*
X23480Y40640D01*
X23155Y39665D02*
X23480Y39990D01*
X22830D02*
X23155Y39665D01*
X24130Y38040D02*
X24445Y37725D01*
X23480Y39990D02*
X23805Y40315D01*
X22830Y39340D02*
X23155Y39665D01*
X22830Y39990D02*
X23155Y40315D01*
Y39665D02*
X23480Y39340D01*
Y39340D02*
Y39340D01*
Y39340D02*
X23805Y39665D01*
X23480Y40640D02*
X23805Y40965D01*
X23480Y40640D02*
X23480Y40640D01*
X23805Y39665D02*
X24130Y39340D01*
X23480Y39990D02*
X23480D01*
X23155Y40315D02*
X23480Y39990D01*
X24130Y39340D02*
X24455Y39665D01*
X24780Y41290D02*
X25105Y41615D01*
X22830Y40640D02*
X23155Y40965D01*
X24455Y39665D02*
X24780Y39340D01*
X23805Y40315D02*
X24130Y39990D01*
X23480Y40640D02*
X23480D01*
X23480Y40640D02*
Y40640D01*
X23155Y40965D02*
X23480Y40640D01*
X24780Y39340D02*
Y39340D01*
X24130Y41290D02*
X24455Y41615D01*
X25105D02*
X25430Y41290D01*
X24780Y41940D02*
X24780D01*
X23480Y41290D02*
X23805Y41615D01*
X24780Y39990D02*
X25105Y40315D01*
X24780Y40640D02*
X25105Y40965D01*
X25430Y40640D01*
X24780Y41290D02*
X24780D01*
X24455Y41615D02*
X24780Y41290D01*
X24130Y40640D02*
X24455Y40965D01*
X25105Y40315D02*
X25430Y39990D01*
X24780Y40640D02*
X24780Y40640D01*
X24780Y40640D02*
Y40640D01*
X24455Y40965D02*
X24780Y40640D01*
X23805Y41615D02*
X24130Y41290D01*
X22830D02*
X23155Y41615D01*
X23480Y41940D02*
X23480D01*
X23155Y41615D02*
X23480Y41290D01*
X24455Y40315D02*
X24780Y39990D01*
X23805Y40965D02*
X24130Y40640D01*
X23480Y41290D02*
X23480D01*
X25105Y39665D02*
X25430Y39340D01*
X24780D02*
X25105Y39665D01*
X24130Y39990D02*
X24455Y40315D01*
X24780Y39990D02*
X24780D01*
X20545Y41605D02*
X20550Y41600D01*
X24445Y37075D02*
X24780Y37390D01*
X24440Y37070D02*
X24445Y37075D01*
X27695Y40305D02*
X27700Y40300D01*
X24465Y44205D02*
X24470Y44210D01*
X24130Y43890D02*
X24465Y44205D01*
X21195Y41605D02*
X21200Y41600D01*
X22830Y43890D02*
X23150Y44210D01*
Y44200D02*
Y44210D01*
D16*
X12950Y37525D02*
D03*
X14350D02*
D03*
X18300Y33775D02*
D03*
X19700D02*
D03*
X32200Y42250D02*
D03*
X30800D02*
D03*
X30800Y38250D02*
D03*
X32200D02*
D03*
D17*
X32175Y35600D02*
D03*
X30825D02*
D03*
X32175Y46200D02*
D03*
X30825D02*
D03*
X32175Y44900D02*
D03*
X30825D02*
D03*
X32175Y47500D02*
D03*
X30825D02*
D03*
X32175Y33000D02*
D03*
X30825D02*
D03*
X17875Y43900D02*
D03*
X16525D02*
D03*
X28275Y27400D02*
D03*
X26925D02*
D03*
X28275Y28700D02*
D03*
X26925D02*
D03*
X28275Y30000D02*
D03*
X26925D02*
D03*
X28275Y31300D02*
D03*
X26925D02*
D03*
X30825Y34300D02*
D03*
X32175D02*
D03*
X30825Y36900D02*
D03*
X32175D02*
D03*
X30825Y43600D02*
D03*
X32175D02*
D03*
D18*
X11630Y43195D02*
D03*
X12620Y42205D02*
D03*
D19*
X26950Y32600D02*
D03*
Y34000D02*
D03*
X24850Y49800D02*
D03*
Y51200D02*
D03*
X22850Y49800D02*
D03*
Y51200D02*
D03*
X18500Y30500D02*
D03*
Y29100D02*
D03*
D20*
X19580Y45190D02*
D03*
X20230D02*
D03*
X20880D02*
D03*
X21530D02*
D03*
X22180D02*
D03*
X22830D02*
D03*
X23480D02*
D03*
X24130D02*
D03*
X24780D02*
D03*
X25430D02*
D03*
X26080D02*
D03*
X26730D02*
D03*
X27380D02*
D03*
X28030D02*
D03*
X28680D02*
D03*
X19580Y44540D02*
D03*
X20230D02*
D03*
X20880D02*
D03*
X21530D02*
D03*
X22180D02*
D03*
X22830D02*
D03*
X23480D02*
D03*
X24130D02*
D03*
X24780D02*
D03*
X25430D02*
D03*
X26080D02*
D03*
X26730D02*
D03*
X27380D02*
D03*
X28030D02*
D03*
X28680D02*
D03*
X19580Y43890D02*
D03*
X20230D02*
D03*
X20880D02*
D03*
X21530D02*
D03*
X22180D02*
D03*
X22830D02*
D03*
X23480D02*
D03*
X24130D02*
D03*
X24780D02*
D03*
X25430D02*
D03*
X26080D02*
D03*
X26730D02*
D03*
X27380D02*
D03*
X28030D02*
D03*
X28680D02*
D03*
X19580Y43240D02*
D03*
X20230D02*
D03*
X20880D02*
D03*
X21530D02*
D03*
X22180D02*
D03*
X22830D02*
D03*
X23480D02*
D03*
X24130D02*
D03*
X24780D02*
D03*
X25430D02*
D03*
X26080D02*
D03*
X26730D02*
D03*
X27380D02*
D03*
X28030D02*
D03*
X28680D02*
D03*
X19580Y42590D02*
D03*
X20230D02*
D03*
X20880D02*
D03*
X21530D02*
D03*
X26730D02*
D03*
X27380D02*
D03*
X28030D02*
D03*
X28680D02*
D03*
X19580Y41940D02*
D03*
X20230D02*
D03*
X20880D02*
D03*
X21530D02*
D03*
X22830D02*
D03*
X23480D02*
D03*
X24130D02*
D03*
X24780D02*
D03*
X25430D02*
D03*
X26730D02*
D03*
X27380D02*
D03*
X28030D02*
D03*
X28680D02*
D03*
X19580Y41290D02*
D03*
X20230D02*
D03*
X20880D02*
D03*
X21530D02*
D03*
X22830D02*
D03*
X23480D02*
D03*
X24130D02*
D03*
X24780D02*
D03*
X25430D02*
D03*
X26730D02*
D03*
X27380D02*
D03*
X28030D02*
D03*
X28680D02*
D03*
X19580Y40640D02*
D03*
X20230D02*
D03*
X20880D02*
D03*
X21530D02*
D03*
X22830D02*
D03*
X23480D02*
D03*
X24130D02*
D03*
X24780D02*
D03*
X25430D02*
D03*
X26730D02*
D03*
X27380D02*
D03*
X28030D02*
D03*
X28680D02*
D03*
X19580Y39990D02*
D03*
X20230D02*
D03*
X20880D02*
D03*
X21530D02*
D03*
X22830D02*
D03*
X23480D02*
D03*
X24130D02*
D03*
X24780D02*
D03*
X25430D02*
D03*
X26730D02*
D03*
X27380D02*
D03*
X28030D02*
D03*
X28680D02*
D03*
X19580Y39340D02*
D03*
X20230D02*
D03*
X20880D02*
D03*
X21530D02*
D03*
X22830D02*
D03*
X23480D02*
D03*
X24130D02*
D03*
X24780D02*
D03*
X25430D02*
D03*
X26730D02*
D03*
X27380D02*
D03*
X28030D02*
D03*
X28680D02*
D03*
X19580Y38690D02*
D03*
X20230D02*
D03*
X20880D02*
D03*
X21530D02*
D03*
X26730D02*
D03*
X27380D02*
D03*
X28030D02*
D03*
X28680D02*
D03*
X19580Y38040D02*
D03*
X20230D02*
D03*
X20880D02*
D03*
X21530D02*
D03*
X22180D02*
D03*
X22830D02*
D03*
X23480D02*
D03*
X24130D02*
D03*
X24780D02*
D03*
X25430D02*
D03*
X26080D02*
D03*
X26730D02*
D03*
X27380D02*
D03*
X28030D02*
D03*
X28680D02*
D03*
X19580Y37390D02*
D03*
X20230D02*
D03*
X20880D02*
D03*
X21530D02*
D03*
X22180D02*
D03*
X22830D02*
D03*
X23480D02*
D03*
X24130D02*
D03*
X24780D02*
D03*
X25430D02*
D03*
X26080D02*
D03*
X26730D02*
D03*
X27380D02*
D03*
X28030D02*
D03*
X28680D02*
D03*
X19580Y36740D02*
D03*
X20230D02*
D03*
X20880D02*
D03*
X21530D02*
D03*
X22180D02*
D03*
X22830D02*
D03*
X23480D02*
D03*
X24130D02*
D03*
X24780D02*
D03*
X25430D02*
D03*
X26080D02*
D03*
X26730D02*
D03*
X27380D02*
D03*
X28030D02*
D03*
X28680D02*
D03*
X19580Y36090D02*
D03*
X20230D02*
D03*
X20880D02*
D03*
X21530D02*
D03*
X22180D02*
D03*
X22830D02*
D03*
X23480D02*
D03*
X24130D02*
D03*
X24780D02*
D03*
X25430D02*
D03*
X26080D02*
D03*
X26730D02*
D03*
X27380D02*
D03*
X28030D02*
D03*
X28680D02*
D03*
D34*
X30679Y38200D02*
G03*
X30800Y38250I0J171D01*
G01*
X30950Y29848D02*
G03*
X30206Y31644I-2540J0D01*
G01*
X30208Y27708D02*
G03*
X30950Y29500I-1792J1792D01*
G01*
X22985Y46575D02*
G03*
X22200Y46250I0J-1110D01*
G01*
X27322Y17780D02*
G03*
X27250Y17750I0J-102D01*
G01*
X42912Y16500D02*
G03*
X41116Y15756I0J-2540D01*
G01*
X38764Y17036D02*
G03*
X36968Y17780I-1796J-1796D01*
G01*
X43388Y16500D02*
G03*
X45184Y17244I0J2540D01*
G01*
X32175Y30427D02*
G03*
X32919Y28631I2540J0D01*
G01*
X36300Y35872D02*
G03*
X37044Y34076I2540J0D01*
G01*
X41900Y33248D02*
G03*
X41156Y35044I-2540J0D01*
G01*
Y28006D02*
G03*
X41900Y29802I-1796J1796D01*
G01*
X38398Y26300D02*
G03*
X40194Y27044I0J2540D01*
G01*
X46772Y50800D02*
G03*
X44976Y50056I0J-2540D01*
G01*
X34894Y46756D02*
G03*
X33098Y47500I-1796J-1796D01*
G01*
X36300Y44298D02*
G03*
X35556Y46094I-2540J0D01*
G01*
X48260Y35560D02*
G03*
X46809Y34959I0J-2052D01*
G01*
X45594Y33744D02*
G03*
X44850Y31948I1796J-1796D01*
G01*
X44106Y18706D02*
G03*
X44850Y20502I-1796J1796D01*
G01*
X44956Y42416D02*
G03*
X45700Y44212I-1796J1796D01*
G01*
X48240Y48260D02*
G03*
X45700Y45720I0J-2540D01*
G01*
X32200Y38250D02*
G03*
X32175Y38190I60J-60D01*
G01*
Y42310D02*
G03*
X32200Y42250I85J0D01*
G01*
X26925Y27400D02*
G03*
X27155Y26845I785J0D01*
G01*
X26950Y32600D02*
G03*
X26925Y32540I60J-60D01*
G01*
X27300Y26700D02*
G03*
X28266Y26300I966J966D01*
G01*
X29800Y38200D02*
X30679D01*
X30950Y29500D02*
Y29848D01*
X29800Y32050D02*
X30206Y31644D01*
X29800Y27300D02*
X30208Y27708D01*
X22985Y46575D02*
X24700D01*
X33020Y17780D02*
X36968D01*
X27322D02*
X33020D01*
X27250Y17750D02*
X27300D01*
X38764Y17036D02*
X40600Y15200D01*
X42912Y16500D02*
X43388D01*
X45184Y17244D02*
X48260Y20320D01*
X32919Y28631D02*
X33050Y28500D01*
X32175Y30427D02*
Y33000D01*
X37044Y34076D02*
X40640Y30480D01*
X36300Y35872D02*
Y44298D01*
X40640Y35560D02*
X41156Y35044D01*
X41900Y29802D02*
Y33248D01*
X40194Y27044D02*
X41156Y28006D01*
X28266Y26300D02*
X38398D01*
X46772Y50800D02*
X48260D01*
X43180Y48260D02*
X44976Y50056D01*
X40640Y48260D02*
X43180D01*
X32175Y46200D02*
Y47500D01*
X33098D01*
X34894Y46756D02*
X35556Y46094D01*
X45594Y33744D02*
X46809Y34959D01*
X44850Y20502D02*
Y31948D01*
X43180Y17780D02*
X44106Y18706D01*
X40640Y17780D02*
X43180D01*
Y40640D02*
X44956Y42416D01*
X45700Y44212D02*
Y45720D01*
X48240Y48260D02*
X48260D01*
X32175Y36900D02*
Y38190D01*
Y35600D02*
Y36900D01*
Y34300D02*
Y35600D01*
Y33000D02*
Y34300D01*
Y44900D02*
Y46200D01*
Y43600D02*
Y44900D01*
Y42310D02*
Y43600D01*
X27155Y26845D02*
X27300Y26700D01*
X26925Y31300D02*
Y32540D01*
Y30000D02*
Y31300D01*
Y28700D02*
Y30000D01*
Y27400D02*
Y28700D01*
D35*
X21504Y36729D02*
D03*
X20854D02*
D03*
X21504Y37379D02*
D03*
D36*
X40640Y40640D02*
D03*
Y33020D02*
D03*
Y30480D02*
D03*
X43180Y33020D02*
D03*
Y30480D02*
D03*
X15240D02*
D03*
X43180Y15240D02*
D03*
Y17780D02*
D03*
X40640Y15240D02*
D03*
Y17780D02*
D03*
X33020Y15240D02*
D03*
Y17780D02*
D03*
X43180Y45720D02*
D03*
Y48260D02*
D03*
X40640Y45720D02*
D03*
Y48260D02*
D03*
D37*
X43180Y40640D02*
D03*
D38*
X40640Y35560D02*
D03*
X43180D02*
D03*
X15240Y27940D02*
D03*
X43180Y20320D02*
D03*
X40640D02*
D03*
X33020D02*
D03*
X43180Y50800D02*
D03*
X40640D02*
D03*
D39*
X22860Y7620D02*
D03*
X5080Y58420D02*
D03*
X43180D02*
D03*
D40*
X0Y53340D02*
D03*
X48260D02*
D03*
D41*
X0Y50800D02*
D03*
Y48260D02*
D03*
Y45720D02*
D03*
Y43180D02*
D03*
Y40640D02*
D03*
Y38100D02*
D03*
Y35560D02*
D03*
Y33020D02*
D03*
Y30480D02*
D03*
Y27940D02*
D03*
Y25400D02*
D03*
Y22860D02*
D03*
Y20320D02*
D03*
Y17780D02*
D03*
Y15240D02*
D03*
Y12700D02*
D03*
Y10160D02*
D03*
Y7620D02*
D03*
Y5080D02*
D03*
X48260Y50800D02*
D03*
Y48260D02*
D03*
Y45720D02*
D03*
Y43180D02*
D03*
Y40640D02*
D03*
Y38100D02*
D03*
Y35560D02*
D03*
Y33020D02*
D03*
Y30480D02*
D03*
Y27940D02*
D03*
Y25400D02*
D03*
Y22860D02*
D03*
Y20320D02*
D03*
Y17780D02*
D03*
Y15240D02*
D03*
Y12700D02*
D03*
Y10160D02*
D03*
Y7620D02*
D03*
Y5080D02*
D03*
D42*
X0Y0D02*
D03*
D43*
X2540D02*
D03*
X5080D02*
D03*
X7620D02*
D03*
X10160D02*
D03*
X12700D02*
D03*
X15240D02*
D03*
X17780D02*
D03*
X20320D02*
D03*
X22860D02*
D03*
X25400D02*
D03*
X27940D02*
D03*
X30480D02*
D03*
X33020D02*
D03*
X35560D02*
D03*
X38100D02*
D03*
X40640D02*
D03*
X43180D02*
D03*
X45720D02*
D03*
X48260D02*
D03*
D44*
X10800Y35791D02*
D03*
X15300Y37917D02*
D03*
X18750Y35729D02*
D03*
X20875Y33744D02*
D03*
X17325Y33775D02*
D03*
X18575Y40550D02*
D03*
X27300Y17750D02*
D03*
X22200Y46250D02*
D03*
X24700Y46575D02*
D03*
X26080Y40320D02*
D03*
X29621Y40525D02*
D03*
X23150Y35200D02*
D03*
X33050Y28500D02*
D03*
X37150Y45050D02*
D03*
X35251Y44900D02*
D03*
X37100Y43300D02*
D03*
X41900Y49150D02*
D03*
X44050Y46850D02*
D03*
X39750Y44700D02*
D03*
X33231Y33917D02*
D03*
X37250Y38100D02*
D03*
X35251Y42345D02*
D03*
X43180Y25400D02*
D03*
Y10160D02*
D03*
Y5080D02*
D03*
X38100Y60960D02*
D03*
Y55880D02*
D03*
Y40640D02*
D03*
Y35560D02*
D03*
Y30480D02*
D03*
Y25400D02*
D03*
Y20320D02*
D03*
Y15240D02*
D03*
Y10160D02*
D03*
Y5080D02*
D03*
X33020Y60960D02*
D03*
Y55880D02*
D03*
Y50800D02*
D03*
Y30480D02*
D03*
Y25400D02*
D03*
Y10160D02*
D03*
Y5080D02*
D03*
X27940Y60960D02*
D03*
Y55880D02*
D03*
Y25400D02*
D03*
Y20320D02*
D03*
Y15240D02*
D03*
Y5080D02*
D03*
X22860Y60960D02*
D03*
Y30480D02*
D03*
Y25400D02*
D03*
Y20320D02*
D03*
Y15240D02*
D03*
X17780Y60960D02*
D03*
Y45720D02*
D03*
Y25400D02*
D03*
Y20320D02*
D03*
Y15240D02*
D03*
Y10160D02*
D03*
Y5080D02*
D03*
X12700Y60960D02*
D03*
Y45720D02*
D03*
Y40640D02*
D03*
Y35560D02*
D03*
Y30480D02*
D03*
Y25400D02*
D03*
Y20320D02*
D03*
Y15240D02*
D03*
Y10160D02*
D03*
Y5080D02*
D03*
X2540Y50800D02*
D03*
Y45720D02*
D03*
Y35560D02*
D03*
Y30480D02*
D03*
Y20320D02*
D03*
Y15240D02*
D03*
Y5080D02*
D03*
X22830Y42590D02*
D03*
X5600Y7100D02*
D03*
X3550Y26750D02*
D03*
X17850Y35750D02*
D03*
X18452Y37000D02*
D03*
X17350Y39050D02*
D03*
X22850Y52500D02*
D03*
X29850Y43600D02*
D03*
X29800Y44900D02*
D03*
Y46200D02*
D03*
Y47500D02*
D03*
X33160Y42250D02*
D03*
X29100Y34350D02*
D03*
X29050Y33020D02*
D03*
X31000Y32000D02*
D03*
X30550Y27000D02*
D03*
X29250Y27850D02*
D03*
Y30650D02*
D03*
X29000Y32200D02*
D03*
X29250Y28700D02*
D03*
Y30000D02*
D03*
X17450Y29100D02*
D03*
X15550Y43924D02*
D03*
X22180Y39675D02*
D03*
X24440Y42590D02*
D03*
X29800Y27300D02*
D03*
Y32050D02*
D03*
X24200Y52500D02*
D03*
X32900Y40550D02*
D03*
X17875Y43050D02*
D03*
X24850Y48628D02*
D03*
X22830D02*
D03*
X22180Y38690D02*
D03*
X29800Y38200D02*
D03*
X26950Y34850D02*
D03*
X25450Y38600D02*
D03*
X29900Y42250D02*
D03*
X4400Y26750D02*
D03*
X17000Y38350D02*
D03*
X6200Y6450D02*
D03*
X14900Y59200D02*
D03*
X13950Y58700D02*
D03*
X10950Y57200D02*
D03*
X11950Y57700D02*
D03*
X12950Y58200D02*
D03*
X4050Y51950D02*
D03*
X5050Y51450D02*
D03*
X6050Y50950D02*
D03*
X7050Y50450D02*
D03*
X17900Y37600D02*
D03*
X17300Y36400D02*
D03*
D45*
X21185Y37705D02*
D03*
X23150Y41625D02*
D03*
X23800D02*
D03*
X24450D02*
D03*
X25100D02*
D03*
Y40975D02*
D03*
X24450Y40975D02*
D03*
X23800Y40975D02*
D03*
X23150Y40975D02*
D03*
Y40325D02*
D03*
X23800D02*
D03*
X24450D02*
D03*
X25100D02*
D03*
Y39675D02*
D03*
X24450Y39675D02*
D03*
X23800Y39675D02*
D03*
X23150Y39675D02*
D03*
X27045Y40310D02*
D03*
X25090Y37720D02*
D03*
X25110Y37080D02*
D03*
X26395Y40985D02*
D03*
X27040Y39670D02*
D03*
X21220Y39660D02*
D03*
X24440Y37720D02*
D03*
X23800Y43550D02*
D03*
X24450D02*
D03*
X25100D02*
D03*
X27040Y41620D02*
D03*
X23810Y37080D02*
D03*
X27700Y41600D02*
D03*
X25100Y44200D02*
D03*
X20550Y42250D02*
D03*
X21200D02*
D03*
X20550Y41600D02*
D03*
X24440Y37070D02*
D03*
X27700Y40950D02*
D03*
X27700Y40300D02*
D03*
X21200Y41600D02*
D03*
X23800Y44200D02*
D03*
X24470Y44210D02*
D03*
X21870D02*
D03*
X23150Y44200D02*
D03*
X27700Y42250D02*
D03*
X20575Y36425D02*
D03*
X21225D02*
D03*
Y37075D02*
D03*
M02*
