M48
;Layer_Color=9474304
;FILE_FORMAT=4:3
METRIC,TZ
;TYPE=PLATED
T2F00S00C0.300
T3F00S00C0.900
T4F00S00C0.991
T5F00S00C3.404
%
T02
X2540Y5080
X6200Y6450
X5600Y7100
X12700Y5080
X17780
Y10160
Y15240
X22860
X27940
X27300Y17750
X27940Y20320
Y25400
X29800Y27300
X30550Y27000
X29250Y27850
Y28700
Y30000
Y30650
X29000Y32200
X29800Y32050
X31000Y32000
X33020Y30480
X33050Y28500
X33020Y25400
X38100
Y30480
Y20320
Y15240
Y10160
Y5080
X33020
Y10160
X27940Y5080
X22860Y20320
Y25400
Y30480
X17450Y29100
X17780Y25400
Y20320
X12700
Y25400
Y30480
X2540
X3550Y26750
X4400
X2540Y20320
Y15240
X12700
Y10160
X43180
Y5080
Y25400
X44050Y46850
X41900Y49150
X39750Y44700
X37150Y45050
X37100Y43300
X35251Y42345
X33160Y42250
X32900Y40550
X29621Y40525
X29900Y42250
X29850Y43600
X29800Y44900
Y46200
Y47500
X24700Y46575
X24850Y48628
X22830
X22200Y46250
X22830Y42590
X24440
X26080Y40320
X25450Y38600
X22180Y38690
Y39675
X18575Y40550
X17350Y39050
X17000Y38350
X17900Y37600
X18452Y37000
X18750Y35729
X17850Y35750
X17300Y36400
X17325Y33775
X20875Y33744
X23150Y35200
X26950Y34850
X29100Y34350
X29050Y33020
X33231Y33917
X38100Y35560
X37250Y38100
X38100Y40640
X35251Y44900
X33020Y50800
Y55880
X38100
Y60960
X33020
X27940
Y55880
X24200Y52500
X22850
X22860Y60960
X17780
X14900Y59200
X13950Y58700
X12950Y58200
X11950Y57700
X10950Y57200
X12700Y60960
Y45720
X15550Y43924
X17875Y43050
X17780Y45720
X12700Y40640
Y35560
X10800Y35791
X15300Y37917
X29800Y38200
X2540Y35560
Y45720
Y50800
X4050Y51950
X5050Y51450
X6050Y50950
X7050Y50450
T03
X15240Y27940
Y30480
X40640
Y20320
Y17780
Y15240
X33020
Y17780
Y20320
X43180
Y17780
Y15240
Y30480
Y33020
Y35560
Y40640
Y45720
Y48260
Y50800
X40640
Y48260
Y45720
Y40640
Y35560
Y33020
T04
X0Y0
Y5080
Y7620
Y10160
Y12700
Y15240
Y17780
Y20320
Y22860
Y25400
Y27940
Y30480
X2540Y0
X5080
X7620
X10160
X12700
X15240
X17780
X20320
X22860
X25400
X27940
X30480
X33020
X35560
X38100
X40640
X43180
X45720
X48260
Y5080
Y7620
Y10160
Y12700
Y15240
Y17780
Y20320
Y22860
Y25400
Y27940
Y30480
Y33020
Y35560
Y38100
Y40640
Y43180
Y45720
Y48260
Y50800
Y53340
X0
Y50800
Y48260
Y45720
Y43180
Y40640
Y38100
Y35560
Y33020
T05
X22860Y7620
X43180Y58420
X5080
M30
