G04*
G04 #@! TF.GenerationSoftware,Altium Limited,Altium Designer,18.1.9 (240)*
G04*
G04 Layer_Color=8388736*
%FSLAX43Y43*%
%MOMM*%
G71*
G01*
G75*
%ADD21R,0.952X1.002*%
%ADD22R,0.902X0.952*%
G04:AMPARAMS|DCode=23|XSize=1.002mm|YSize=0.952mm|CornerRadius=0mm|HoleSize=0mm|Usage=FLASHONLY|Rotation=225.000|XOffset=0mm|YOffset=0mm|HoleType=Round|Shape=Rectangle|*
%AMROTATEDRECTD23*
4,1,4,0.018,0.691,0.691,0.018,-0.018,-0.691,-0.691,-0.018,0.018,0.691,0.0*
%
%ADD23ROTATEDRECTD23*%

%ADD24R,1.002X0.952*%
%ADD25C,0.452*%
%ADD26C,1.652*%
%ADD27R,1.652X1.652*%
%ADD28R,1.652X1.652*%
%ADD29C,6.502*%
%ADD30R,2.946X1.676*%
%ADD31O,2.946X1.676*%
%ADD32R,1.676X2.946*%
%ADD33O,1.676X2.946*%
D21*
X12950Y37525D02*
D03*
X14350D02*
D03*
X18300Y33775D02*
D03*
X19700D02*
D03*
X32200Y42250D02*
D03*
X30800D02*
D03*
X30800Y38250D02*
D03*
X32200D02*
D03*
D22*
X32175Y35600D02*
D03*
X30825D02*
D03*
X32175Y46200D02*
D03*
X30825D02*
D03*
X32175Y44900D02*
D03*
X30825D02*
D03*
X32175Y47500D02*
D03*
X30825D02*
D03*
X32175Y33000D02*
D03*
X30825D02*
D03*
X17875Y43900D02*
D03*
X16525D02*
D03*
X28275Y27400D02*
D03*
X26925D02*
D03*
X28275Y28700D02*
D03*
X26925D02*
D03*
X28275Y30000D02*
D03*
X26925D02*
D03*
X28275Y31300D02*
D03*
X26925D02*
D03*
X30825Y34300D02*
D03*
X32175D02*
D03*
X30825Y36900D02*
D03*
X32175D02*
D03*
X30825Y43600D02*
D03*
X32175D02*
D03*
D23*
X11630Y43195D02*
D03*
X12620Y42205D02*
D03*
D24*
X26950Y32600D02*
D03*
Y34000D02*
D03*
X24850Y49800D02*
D03*
Y51200D02*
D03*
X22850Y49800D02*
D03*
Y51200D02*
D03*
X18500Y30500D02*
D03*
Y29100D02*
D03*
D25*
X19580Y45190D02*
D03*
X20230D02*
D03*
X20880D02*
D03*
X21530D02*
D03*
X22180D02*
D03*
X22830D02*
D03*
X23480D02*
D03*
X24130D02*
D03*
X24780D02*
D03*
X25430D02*
D03*
X26080D02*
D03*
X26730D02*
D03*
X27380D02*
D03*
X28030D02*
D03*
X28680D02*
D03*
X19580Y44540D02*
D03*
X20230D02*
D03*
X20880D02*
D03*
X21530D02*
D03*
X22180D02*
D03*
X22830D02*
D03*
X23480D02*
D03*
X24130D02*
D03*
X24780D02*
D03*
X25430D02*
D03*
X26080D02*
D03*
X26730D02*
D03*
X27380D02*
D03*
X28030D02*
D03*
X28680D02*
D03*
X19580Y43890D02*
D03*
X20230D02*
D03*
X20880D02*
D03*
X21530D02*
D03*
X22180D02*
D03*
X22830D02*
D03*
X23480D02*
D03*
X24130D02*
D03*
X24780D02*
D03*
X25430D02*
D03*
X26080D02*
D03*
X26730D02*
D03*
X27380D02*
D03*
X28030D02*
D03*
X28680D02*
D03*
X19580Y43240D02*
D03*
X20230D02*
D03*
X20880D02*
D03*
X21530D02*
D03*
X22180D02*
D03*
X22830D02*
D03*
X23480D02*
D03*
X24130D02*
D03*
X24780D02*
D03*
X25430D02*
D03*
X26080D02*
D03*
X26730D02*
D03*
X27380D02*
D03*
X28030D02*
D03*
X28680D02*
D03*
X19580Y42590D02*
D03*
X20230D02*
D03*
X20880D02*
D03*
X21530D02*
D03*
X26730D02*
D03*
X27380D02*
D03*
X28030D02*
D03*
X28680D02*
D03*
X19580Y41940D02*
D03*
X20230D02*
D03*
X20880D02*
D03*
X21530D02*
D03*
X22830D02*
D03*
X23480D02*
D03*
X24130D02*
D03*
X24780D02*
D03*
X25430D02*
D03*
X26730D02*
D03*
X27380D02*
D03*
X28030D02*
D03*
X28680D02*
D03*
X19580Y41290D02*
D03*
X20230D02*
D03*
X20880D02*
D03*
X21530D02*
D03*
X22830D02*
D03*
X23480D02*
D03*
X24130D02*
D03*
X24780D02*
D03*
X25430D02*
D03*
X26730D02*
D03*
X27380D02*
D03*
X28030D02*
D03*
X28680D02*
D03*
X19580Y40640D02*
D03*
X20230D02*
D03*
X20880D02*
D03*
X21530D02*
D03*
X22830D02*
D03*
X23480D02*
D03*
X24130D02*
D03*
X24780D02*
D03*
X25430D02*
D03*
X26730D02*
D03*
X27380D02*
D03*
X28030D02*
D03*
X28680D02*
D03*
X19580Y39990D02*
D03*
X20230D02*
D03*
X20880D02*
D03*
X21530D02*
D03*
X22830D02*
D03*
X23480D02*
D03*
X24130D02*
D03*
X24780D02*
D03*
X25430D02*
D03*
X26730D02*
D03*
X27380D02*
D03*
X28030D02*
D03*
X28680D02*
D03*
X19580Y39340D02*
D03*
X20230D02*
D03*
X20880D02*
D03*
X21530D02*
D03*
X22830D02*
D03*
X23480D02*
D03*
X24130D02*
D03*
X24780D02*
D03*
X25430D02*
D03*
X26730D02*
D03*
X27380D02*
D03*
X28030D02*
D03*
X28680D02*
D03*
X19580Y38690D02*
D03*
X20230D02*
D03*
X20880D02*
D03*
X21530D02*
D03*
X26730D02*
D03*
X27380D02*
D03*
X28030D02*
D03*
X28680D02*
D03*
X19580Y38040D02*
D03*
X20230D02*
D03*
X20880D02*
D03*
X21530D02*
D03*
X22180D02*
D03*
X22830D02*
D03*
X23480D02*
D03*
X24130D02*
D03*
X24780D02*
D03*
X25430D02*
D03*
X26080D02*
D03*
X26730D02*
D03*
X27380D02*
D03*
X28030D02*
D03*
X28680D02*
D03*
X19580Y37390D02*
D03*
X20230D02*
D03*
X20880D02*
D03*
X21530D02*
D03*
X22180D02*
D03*
X22830D02*
D03*
X23480D02*
D03*
X24130D02*
D03*
X24780D02*
D03*
X25430D02*
D03*
X26080D02*
D03*
X26730D02*
D03*
X27380D02*
D03*
X28030D02*
D03*
X28680D02*
D03*
X19580Y36740D02*
D03*
X20230D02*
D03*
X20880D02*
D03*
X21530D02*
D03*
X22180D02*
D03*
X22830D02*
D03*
X23480D02*
D03*
X24130D02*
D03*
X24780D02*
D03*
X25430D02*
D03*
X26080D02*
D03*
X26730D02*
D03*
X27380D02*
D03*
X28030D02*
D03*
X28680D02*
D03*
X19580Y36090D02*
D03*
X20230D02*
D03*
X20880D02*
D03*
X21530D02*
D03*
X22180D02*
D03*
X22830D02*
D03*
X23480D02*
D03*
X24130D02*
D03*
X24780D02*
D03*
X25430D02*
D03*
X26080D02*
D03*
X26730D02*
D03*
X27380D02*
D03*
X28030D02*
D03*
X28680D02*
D03*
D26*
X40640Y40640D02*
D03*
Y33020D02*
D03*
Y30480D02*
D03*
X43180Y33020D02*
D03*
Y30480D02*
D03*
X15240D02*
D03*
X43180Y15240D02*
D03*
Y17780D02*
D03*
X40640Y15240D02*
D03*
Y17780D02*
D03*
X33020Y15240D02*
D03*
Y17780D02*
D03*
X43180Y45720D02*
D03*
Y48260D02*
D03*
X40640Y45720D02*
D03*
Y48260D02*
D03*
D27*
X43180Y40640D02*
D03*
D28*
X40640Y35560D02*
D03*
X43180D02*
D03*
X15240Y27940D02*
D03*
X43180Y20320D02*
D03*
X40640D02*
D03*
X33020D02*
D03*
X43180Y50800D02*
D03*
X40640D02*
D03*
D29*
X22860Y7620D02*
D03*
X5080Y58420D02*
D03*
X43180D02*
D03*
D30*
X0Y53340D02*
D03*
X48260D02*
D03*
D31*
X0Y50800D02*
D03*
Y48260D02*
D03*
Y45720D02*
D03*
Y43180D02*
D03*
Y40640D02*
D03*
Y38100D02*
D03*
Y35560D02*
D03*
Y33020D02*
D03*
Y30480D02*
D03*
Y27940D02*
D03*
Y25400D02*
D03*
Y22860D02*
D03*
Y20320D02*
D03*
Y17780D02*
D03*
Y15240D02*
D03*
Y12700D02*
D03*
Y10160D02*
D03*
Y7620D02*
D03*
Y5080D02*
D03*
X48260Y50800D02*
D03*
Y48260D02*
D03*
Y45720D02*
D03*
Y43180D02*
D03*
Y40640D02*
D03*
Y38100D02*
D03*
Y35560D02*
D03*
Y33020D02*
D03*
Y30480D02*
D03*
Y27940D02*
D03*
Y25400D02*
D03*
Y22860D02*
D03*
Y20320D02*
D03*
Y17780D02*
D03*
Y15240D02*
D03*
Y12700D02*
D03*
Y10160D02*
D03*
Y7620D02*
D03*
Y5080D02*
D03*
D32*
X0Y0D02*
D03*
D33*
X2540D02*
D03*
X5080D02*
D03*
X7620D02*
D03*
X10160D02*
D03*
X12700D02*
D03*
X15240D02*
D03*
X17780D02*
D03*
X20320D02*
D03*
X22860D02*
D03*
X25400D02*
D03*
X27940D02*
D03*
X30480D02*
D03*
X33020D02*
D03*
X35560D02*
D03*
X38100D02*
D03*
X40640D02*
D03*
X43180D02*
D03*
X45720D02*
D03*
X48260D02*
D03*
M02*
