M48
;Layer_Color=9474304
;FILE_FORMAT=4:3
METRIC,TZ
;TYPE=PLATED
T1F00S00C0.100
%
T01
X20575Y36425
X21225
Y37075
X21185Y37705
X21220Y39660
X23150Y39675
Y40325
Y40975
Y41625
X23800
X24450
X25100
Y40975
X24450Y40975
Y40325
X25100
Y39675
X24450Y39675
X23800Y39675
Y40325
X23800Y40975
X23800Y43550
X24450
X25100
Y44200
X24470Y44210
X23800Y44200
X23150
X21870Y44210
X21200Y42250
X20550
Y41600
X21200
X26395Y40985
X27040Y41620
X27700Y41600
X27700Y42250
Y40950
X27700Y40300
X27045Y40310
X27040Y39670
X25090Y37720
X24440
Y37070
X23810Y37080
X25110
M30
