G04*
G04 #@! TF.GenerationSoftware,Altium Limited,Altium Designer,18.1.9 (240)*
G04*
G04 Layer_Color=32896*
%FSLAX43Y43*%
%MOMM*%
G71*
G01*
G75*
%ADD11C,0.152*%
%ADD12C,0.200*%
%ADD14C,0.150*%
G36*
X31625Y31790D02*
Y24250D01*
X16625D01*
Y31790D01*
X31625D01*
D02*
G37*
G36*
X31917Y64847D02*
X31957Y64845D01*
X32032Y64830D01*
X32097Y64807D01*
X32124Y64795D01*
X32152Y64785D01*
X32174Y64772D01*
X32197Y64760D01*
X32214Y64747D01*
X32229Y64737D01*
X32242Y64730D01*
X32249Y64722D01*
X32254Y64720D01*
X32257Y64717D01*
X32284Y64692D01*
X32309Y64665D01*
X32351Y64605D01*
X32384Y64545D01*
X32411Y64487D01*
X32421Y64460D01*
X32429Y64435D01*
X32436Y64410D01*
X32441Y64392D01*
X32446Y64375D01*
X32449Y64362D01*
X32451Y64355D01*
Y64352D01*
X32217Y64310D01*
X32204Y64370D01*
X32189Y64422D01*
X32169Y64467D01*
X32149Y64502D01*
X32132Y64532D01*
X32117Y64552D01*
X32107Y64562D01*
X32102Y64567D01*
X32064Y64597D01*
X32027Y64617D01*
X31987Y64632D01*
X31952Y64645D01*
X31919Y64650D01*
X31892Y64652D01*
X31882Y64655D01*
X31869D01*
X31819Y64652D01*
X31777Y64642D01*
X31737Y64627D01*
X31704Y64612D01*
X31679Y64595D01*
X31659Y64582D01*
X31649Y64572D01*
X31644Y64567D01*
X31614Y64535D01*
X31592Y64497D01*
X31577Y64462D01*
X31564Y64430D01*
X31559Y64400D01*
X31557Y64377D01*
X31554Y64360D01*
Y64357D01*
Y64355D01*
X31557Y64325D01*
X31559Y64297D01*
X31574Y64247D01*
X31592Y64205D01*
X31614Y64170D01*
X31637Y64145D01*
X31657Y64125D01*
X31672Y64115D01*
X31674Y64110D01*
X31677D01*
X31722Y64085D01*
X31769Y64065D01*
X31814Y64052D01*
X31857Y64042D01*
X31892Y64037D01*
X31922Y64035D01*
X31932Y64032D01*
X31959D01*
X31972Y64035D01*
X31979Y64037D01*
X31984D01*
X32012Y63830D01*
X31977Y63837D01*
X31944Y63845D01*
X31914Y63850D01*
X31889Y63852D01*
X31872Y63855D01*
X31844D01*
X31784Y63850D01*
X31732Y63837D01*
X31687Y63822D01*
X31647Y63802D01*
X31617Y63782D01*
X31594Y63767D01*
X31579Y63755D01*
X31574Y63750D01*
X31554Y63730D01*
X31539Y63707D01*
X31512Y63665D01*
X31492Y63620D01*
X31479Y63577D01*
X31472Y63540D01*
X31469Y63522D01*
Y63510D01*
X31467Y63497D01*
Y63490D01*
Y63485D01*
Y63482D01*
Y63452D01*
X31472Y63422D01*
X31484Y63367D01*
X31504Y63317D01*
X31524Y63277D01*
X31544Y63242D01*
X31564Y63217D01*
X31572Y63210D01*
X31577Y63202D01*
X31579Y63200D01*
X31582Y63197D01*
X31604Y63177D01*
X31627Y63160D01*
X31674Y63130D01*
X31722Y63110D01*
X31767Y63097D01*
X31804Y63087D01*
X31822Y63085D01*
X31837D01*
X31847Y63082D01*
X31864D01*
X31914Y63087D01*
X31962Y63097D01*
X32002Y63110D01*
X32037Y63127D01*
X32067Y63142D01*
X32087Y63157D01*
X32099Y63167D01*
X32104Y63170D01*
X32122Y63187D01*
X32137Y63207D01*
X32164Y63255D01*
X32189Y63302D01*
X32207Y63350D01*
X32222Y63395D01*
X32227Y63412D01*
X32232Y63430D01*
X32234Y63442D01*
X32237Y63452D01*
X32239Y63460D01*
Y63462D01*
X32474Y63430D01*
X32469Y63385D01*
X32459Y63342D01*
X32449Y63305D01*
X32434Y63267D01*
X32419Y63232D01*
X32404Y63200D01*
X32386Y63170D01*
X32371Y63142D01*
X32354Y63120D01*
X32339Y63097D01*
X32324Y63080D01*
X32311Y63065D01*
X32299Y63052D01*
X32291Y63045D01*
X32286Y63040D01*
X32284Y63037D01*
X32251Y63010D01*
X32219Y62987D01*
X32184Y62967D01*
X32147Y62950D01*
X32112Y62938D01*
X32077Y62925D01*
X32012Y62908D01*
X31982Y62900D01*
X31952Y62895D01*
X31927Y62893D01*
X31907Y62890D01*
X31889Y62888D01*
X31864D01*
X31812Y62890D01*
X31764Y62895D01*
X31717Y62903D01*
X31674Y62915D01*
X31632Y62928D01*
X31594Y62943D01*
X31559Y62957D01*
X31527Y62975D01*
X31499Y62990D01*
X31474Y63005D01*
X31452Y63020D01*
X31434Y63032D01*
X31419Y63045D01*
X31409Y63052D01*
X31404Y63057D01*
X31402Y63060D01*
X31369Y63092D01*
X31342Y63127D01*
X31317Y63165D01*
X31294Y63200D01*
X31277Y63237D01*
X31262Y63272D01*
X31249Y63307D01*
X31239Y63340D01*
X31232Y63370D01*
X31227Y63397D01*
X31222Y63422D01*
X31219Y63445D01*
X31217Y63462D01*
Y63477D01*
Y63485D01*
Y63487D01*
X31222Y63555D01*
X31232Y63612D01*
X31247Y63665D01*
X31264Y63710D01*
X31282Y63747D01*
X31289Y63760D01*
X31297Y63772D01*
X31302Y63782D01*
X31307Y63790D01*
X31312Y63792D01*
Y63795D01*
X31349Y63837D01*
X31394Y63872D01*
X31437Y63902D01*
X31479Y63925D01*
X31517Y63940D01*
X31534Y63947D01*
X31549Y63952D01*
X31559Y63955D01*
X31569Y63957D01*
X31574Y63960D01*
X31577D01*
X31532Y63985D01*
X31492Y64010D01*
X31457Y64037D01*
X31429Y64065D01*
X31407Y64087D01*
X31392Y64105D01*
X31382Y64117D01*
X31379Y64122D01*
X31357Y64162D01*
X31339Y64202D01*
X31329Y64240D01*
X31319Y64275D01*
X31314Y64305D01*
X31312Y64330D01*
Y64345D01*
Y64347D01*
Y64350D01*
X31314Y64397D01*
X31322Y64442D01*
X31334Y64485D01*
X31347Y64522D01*
X31362Y64552D01*
X31372Y64577D01*
X31382Y64592D01*
X31384Y64595D01*
Y64597D01*
X31412Y64640D01*
X31444Y64675D01*
X31479Y64707D01*
X31512Y64735D01*
X31542Y64755D01*
X31564Y64770D01*
X31574Y64775D01*
X31582Y64780D01*
X31584Y64782D01*
X31587D01*
X31637Y64805D01*
X31687Y64822D01*
X31734Y64832D01*
X31779Y64842D01*
X31817Y64847D01*
X31834D01*
X31847Y64850D01*
X31874D01*
X31917Y64847D01*
D02*
G37*
G36*
X30399Y64847D02*
X30447Y64845D01*
X30492Y64837D01*
X30532Y64827D01*
X30572Y64817D01*
X30607Y64805D01*
X30639Y64792D01*
X30669Y64780D01*
X30697Y64765D01*
X30719Y64752D01*
X30739Y64740D01*
X30757Y64730D01*
X30769Y64720D01*
X30779Y64712D01*
X30784Y64710D01*
X30787Y64707D01*
X30817Y64680D01*
X30842Y64650D01*
X30864Y64617D01*
X30884Y64582D01*
X30902Y64550D01*
X30917Y64515D01*
X30939Y64447D01*
X30949Y64417D01*
X30957Y64387D01*
X30962Y64362D01*
X30967Y64340D01*
X30969Y64320D01*
Y64307D01*
X30972Y64297D01*
Y64295D01*
X30729Y64270D01*
X30724Y64335D01*
X30714Y64390D01*
X30697Y64437D01*
X30677Y64480D01*
X30659Y64510D01*
X30642Y64535D01*
X30632Y64547D01*
X30627Y64552D01*
X30587Y64587D01*
X30542Y64612D01*
X30494Y64630D01*
X30452Y64642D01*
X30414Y64650D01*
X30397Y64652D01*
X30382D01*
X30372Y64655D01*
X30354D01*
X30297Y64650D01*
X30245Y64640D01*
X30200Y64625D01*
X30162Y64607D01*
X30132Y64587D01*
X30110Y64572D01*
X30097Y64562D01*
X30092Y64557D01*
X30057Y64520D01*
X30032Y64480D01*
X30015Y64442D01*
X30002Y64405D01*
X29995Y64372D01*
X29992Y64345D01*
X29990Y64335D01*
Y64330D01*
Y64325D01*
Y64322D01*
Y64297D01*
X29995Y64272D01*
X30007Y64220D01*
X30025Y64172D01*
X30045Y64130D01*
X30067Y64092D01*
X30077Y64077D01*
X30085Y64062D01*
X30092Y64052D01*
X30097Y64045D01*
X30100Y64040D01*
X30102Y64037D01*
X30125Y64007D01*
X30152Y63977D01*
X30182Y63945D01*
X30215Y63910D01*
X30285Y63842D01*
X30354Y63777D01*
X30387Y63747D01*
X30419Y63720D01*
X30449Y63695D01*
X30474Y63672D01*
X30494Y63655D01*
X30512Y63642D01*
X30522Y63632D01*
X30524Y63630D01*
X30597Y63570D01*
X30659Y63515D01*
X30712Y63465D01*
X30754Y63422D01*
X30789Y63387D01*
X30814Y63360D01*
X30822Y63350D01*
X30829Y63342D01*
X30832Y63340D01*
X30834Y63337D01*
X30872Y63290D01*
X30904Y63245D01*
X30929Y63202D01*
X30952Y63162D01*
X30969Y63130D01*
X30979Y63105D01*
X30984Y63095D01*
X30987Y63087D01*
X30989Y63085D01*
Y63082D01*
X30999Y63052D01*
X31007Y63025D01*
X31012Y62997D01*
X31014Y62972D01*
X31017Y62950D01*
Y62935D01*
Y62925D01*
Y62920D01*
X29745Y62920D01*
Y63147D01*
X30689D01*
X30657Y63192D01*
X30639Y63215D01*
X30624Y63232D01*
X30609Y63250D01*
X30599Y63262D01*
X30592Y63270D01*
X30589Y63272D01*
X30577Y63285D01*
X30559Y63302D01*
X30542Y63320D01*
X30522Y63337D01*
X30477Y63377D01*
X30429Y63417D01*
X30387Y63455D01*
X30367Y63472D01*
X30352Y63487D01*
X30337Y63497D01*
X30327Y63507D01*
X30319Y63512D01*
X30317Y63515D01*
X30272Y63555D01*
X30227Y63592D01*
X30190Y63625D01*
X30152Y63657D01*
X30120Y63687D01*
X30090Y63717D01*
X30062Y63742D01*
X30040Y63765D01*
X30017Y63785D01*
X30000Y63802D01*
X29985Y63817D01*
X29972Y63830D01*
X29965Y63840D01*
X29957Y63847D01*
X29952Y63850D01*
Y63852D01*
X29915Y63897D01*
X29882Y63942D01*
X29855Y63982D01*
X29832Y64017D01*
X29815Y64045D01*
X29805Y64067D01*
X29797Y64082D01*
X29795Y64087D01*
X29780Y64130D01*
X29767Y64170D01*
X29760Y64210D01*
X29752Y64242D01*
X29750Y64272D01*
X29747Y64295D01*
Y64310D01*
Y64315D01*
X29750Y64357D01*
X29755Y64397D01*
X29762Y64435D01*
X29772Y64470D01*
X29800Y64535D01*
X29812Y64565D01*
X29827Y64590D01*
X29845Y64615D01*
X29857Y64635D01*
X29872Y64652D01*
X29885Y64667D01*
X29895Y64680D01*
X29902Y64687D01*
X29907Y64692D01*
X29910Y64695D01*
X29942Y64722D01*
X29975Y64745D01*
X30010Y64767D01*
X30047Y64785D01*
X30085Y64800D01*
X30120Y64812D01*
X30190Y64830D01*
X30222Y64837D01*
X30252Y64842D01*
X30280Y64845D01*
X30305Y64847D01*
X30322Y64850D01*
X30349D01*
X30399Y64847D01*
D02*
G37*
G36*
X17350Y64337D02*
X17410Y64327D01*
X17465Y64312D01*
X17513Y64297D01*
X17553Y64280D01*
X17568Y64272D01*
X17580Y64265D01*
X17590Y64257D01*
X17598Y64255D01*
X17603Y64250D01*
X17605D01*
X17653Y64212D01*
X17695Y64170D01*
X17730Y64127D01*
X17760Y64085D01*
X17783Y64047D01*
X17793Y64032D01*
X17800Y64017D01*
X17805Y64005D01*
X17810Y63997D01*
X17813Y63992D01*
Y63990D01*
X17838Y63925D01*
X17855Y63862D01*
X17868Y63800D01*
X17875Y63742D01*
X17880Y63717D01*
Y63695D01*
X17883Y63675D01*
X17885Y63657D01*
Y63642D01*
Y63632D01*
Y63625D01*
Y63622D01*
X17883Y63570D01*
X17878Y63517D01*
X17870Y63470D01*
X17860Y63422D01*
X17848Y63377D01*
X17835Y63337D01*
X17820Y63300D01*
X17805Y63265D01*
X17793Y63235D01*
X17778Y63205D01*
X17765Y63182D01*
X17753Y63162D01*
X17743Y63145D01*
X17735Y63135D01*
X17730Y63127D01*
X17728Y63125D01*
X17698Y63090D01*
X17663Y63057D01*
X17628Y63030D01*
X17593Y63007D01*
X17555Y62987D01*
X17518Y62970D01*
X17480Y62957D01*
X17445Y62945D01*
X17413Y62937D01*
X17383Y62930D01*
X17355Y62928D01*
X17330Y62923D01*
X17310D01*
X17295Y62920D01*
X17283D01*
X17240Y62923D01*
X17200Y62928D01*
X17163Y62937D01*
X17125Y62947D01*
X17060Y62977D01*
X17030Y62995D01*
X17003Y63012D01*
X16980Y63027D01*
X16958Y63045D01*
X16940Y63060D01*
X16925Y63075D01*
X16913Y63085D01*
X16905Y63095D01*
X16900Y63100D01*
X16898Y63102D01*
Y63062D01*
Y63025D01*
Y62990D01*
X16900Y62960D01*
Y62932D01*
X16903Y62908D01*
Y62885D01*
X16905Y62868D01*
X16908Y62850D01*
Y62838D01*
X16913Y62818D01*
X16915Y62805D01*
Y62803D01*
X16928Y62760D01*
X16948Y62725D01*
X16965Y62693D01*
X16985Y62668D01*
X17005Y62648D01*
X17020Y62633D01*
X17030Y62623D01*
X17035Y62620D01*
X17073Y62598D01*
X17113Y62580D01*
X17155Y62570D01*
X17195Y62560D01*
X17233Y62555D01*
X17260Y62553D01*
X17288D01*
X17343Y62555D01*
X17390Y62563D01*
X17430Y62575D01*
X17465Y62588D01*
X17493Y62598D01*
X17513Y62610D01*
X17523Y62618D01*
X17528Y62620D01*
X17550Y62640D01*
X17568Y62665D01*
X17583Y62690D01*
X17593Y62718D01*
X17600Y62740D01*
X17605Y62758D01*
X17608Y62770D01*
Y62775D01*
X17838Y62808D01*
Y62768D01*
X17833Y62728D01*
X17825Y62693D01*
X17818Y62660D01*
X17805Y62630D01*
X17793Y62603D01*
X17780Y62578D01*
X17765Y62555D01*
X17753Y62535D01*
X17738Y62518D01*
X17725Y62503D01*
X17713Y62490D01*
X17705Y62483D01*
X17698Y62475D01*
X17693Y62473D01*
X17690Y62470D01*
X17660Y62450D01*
X17628Y62433D01*
X17563Y62405D01*
X17495Y62385D01*
X17430Y62373D01*
X17400Y62368D01*
X17375Y62363D01*
X17350Y62360D01*
X17328D01*
X17313Y62358D01*
X17288D01*
X17213Y62360D01*
X17143Y62370D01*
X17083Y62383D01*
X17033Y62398D01*
X17010Y62405D01*
X16990Y62413D01*
X16975Y62420D01*
X16960Y62425D01*
X16950Y62430D01*
X16943Y62435D01*
X16938Y62438D01*
X16935D01*
X16885Y62470D01*
X16840Y62505D01*
X16805Y62540D01*
X16775Y62575D01*
X16753Y62605D01*
X16738Y62630D01*
X16733Y62640D01*
X16728Y62648D01*
X16725Y62650D01*
Y62653D01*
X16713Y62680D01*
X16703Y62710D01*
X16693Y62745D01*
X16685Y62780D01*
X16675Y62858D01*
X16665Y62932D01*
X16663Y62967D01*
X16660Y63000D01*
Y63030D01*
X16658Y63057D01*
Y63080D01*
Y63095D01*
Y63107D01*
Y63110D01*
Y64312D01*
X16875D01*
Y64140D01*
X16905Y64175D01*
X16938Y64207D01*
X16973Y64235D01*
X17005Y64257D01*
X17040Y64277D01*
X17075Y64292D01*
X17108Y64307D01*
X17138Y64317D01*
X17168Y64325D01*
X17195Y64332D01*
X17220Y64337D01*
X17240Y64340D01*
X17258D01*
X17273Y64342D01*
X17283D01*
X17350Y64337D01*
D02*
G37*
G36*
X19657Y64340D02*
X19717Y64335D01*
X19772Y64327D01*
X19817Y64317D01*
X19857Y64307D01*
X19872Y64305D01*
X19885Y64300D01*
X19895Y64297D01*
X19902Y64295D01*
X19907Y64292D01*
X19910D01*
X19957Y64272D01*
X20000Y64250D01*
X20035Y64227D01*
X20065Y64205D01*
X20087Y64182D01*
X20105Y64167D01*
X20115Y64157D01*
X20117Y64152D01*
X20142Y64117D01*
X20165Y64077D01*
X20182Y64037D01*
X20195Y64000D01*
X20207Y63967D01*
X20215Y63940D01*
X20217Y63930D01*
Y63922D01*
X20220Y63917D01*
Y63915D01*
X19990Y63882D01*
X19975Y63932D01*
X19955Y63977D01*
X19937Y64012D01*
X19917Y64040D01*
X19902Y64062D01*
X19887Y64077D01*
X19877Y64085D01*
X19875Y64087D01*
X19842Y64107D01*
X19802Y64122D01*
X19762Y64132D01*
X19720Y64140D01*
X19685Y64145D01*
X19655Y64147D01*
X19627D01*
X19565Y64145D01*
X19510Y64135D01*
X19465Y64122D01*
X19425Y64107D01*
X19395Y64092D01*
X19375Y64080D01*
X19362Y64070D01*
X19357Y64067D01*
X19335Y64042D01*
X19317Y64010D01*
X19307Y63977D01*
X19297Y63942D01*
X19292Y63912D01*
X19290Y63885D01*
Y63877D01*
Y63870D01*
Y63865D01*
Y63862D01*
Y63857D01*
Y63847D01*
Y63827D01*
X19292Y63817D01*
Y63810D01*
Y63805D01*
Y63802D01*
X19320Y63795D01*
X19350Y63785D01*
X19415Y63770D01*
X19485Y63755D01*
X19552Y63742D01*
X19585Y63737D01*
X19615Y63732D01*
X19642Y63730D01*
X19665Y63727D01*
X19685Y63722D01*
X19700D01*
X19710Y63720D01*
X19712D01*
X19762Y63712D01*
X19805Y63707D01*
X19840Y63702D01*
X19870Y63695D01*
X19892Y63692D01*
X19910Y63687D01*
X19920Y63685D01*
X19922D01*
X19957Y63675D01*
X19990Y63662D01*
X20017Y63650D01*
X20042Y63637D01*
X20062Y63625D01*
X20080Y63615D01*
X20090Y63610D01*
X20092Y63607D01*
X20120Y63587D01*
X20142Y63565D01*
X20165Y63542D01*
X20182Y63522D01*
X20195Y63502D01*
X20207Y63487D01*
X20212Y63477D01*
X20215Y63472D01*
X20230Y63440D01*
X20240Y63407D01*
X20250Y63375D01*
X20255Y63347D01*
X20257Y63322D01*
X20260Y63302D01*
Y63290D01*
Y63285D01*
X20257Y63252D01*
X20255Y63222D01*
X20240Y63167D01*
X20220Y63120D01*
X20197Y63077D01*
X20175Y63045D01*
X20157Y63020D01*
X20142Y63005D01*
X20140Y63002D01*
X20137Y63000D01*
X20112Y62980D01*
X20087Y62965D01*
X20030Y62937D01*
X19972Y62917D01*
X19915Y62905D01*
X19865Y62895D01*
X19842Y62893D01*
X19822D01*
X19807Y62890D01*
X19785D01*
X19735Y62893D01*
X19687Y62897D01*
X19642Y62905D01*
X19605Y62912D01*
X19572Y62920D01*
X19547Y62928D01*
X19540Y62930D01*
X19532Y62932D01*
X19530Y62935D01*
X19527D01*
X19482Y62955D01*
X19435Y62980D01*
X19392Y63007D01*
X19355Y63032D01*
X19320Y63057D01*
X19295Y63077D01*
X19285Y63085D01*
X19277Y63090D01*
X19275Y63095D01*
X19272D01*
X19267Y63057D01*
X19260Y63025D01*
X19255Y62995D01*
X19245Y62970D01*
X19240Y62947D01*
X19232Y62932D01*
X19230Y62923D01*
X19227Y62920D01*
X18980D01*
X18995Y62950D01*
X19007Y62980D01*
X19017Y63007D01*
X19027Y63035D01*
X19032Y63055D01*
X19037Y63072D01*
X19040Y63082D01*
Y63087D01*
X19042Y63107D01*
X19045Y63130D01*
Y63157D01*
X19047Y63190D01*
X19050Y63257D01*
Y63327D01*
X19052Y63362D01*
Y63395D01*
Y63425D01*
Y63450D01*
Y63472D01*
Y63487D01*
Y63500D01*
Y63502D01*
Y63817D01*
Y63872D01*
X19055Y63917D01*
X19057Y63955D01*
Y63985D01*
X19060Y64007D01*
X19062Y64022D01*
X19065Y64032D01*
Y64035D01*
X19075Y64070D01*
X19085Y64100D01*
X19097Y64127D01*
X19110Y64150D01*
X19122Y64167D01*
X19132Y64182D01*
X19137Y64190D01*
X19140Y64192D01*
X19162Y64215D01*
X19187Y64237D01*
X19215Y64255D01*
X19242Y64270D01*
X19267Y64282D01*
X19287Y64292D01*
X19300Y64297D01*
X19302Y64300D01*
X19305D01*
X19350Y64315D01*
X19395Y64325D01*
X19445Y64332D01*
X19490Y64337D01*
X19530Y64340D01*
X19547Y64342D01*
X19592D01*
X19657Y64340D01*
D02*
G37*
G36*
X9515Y64340D02*
X9575Y64335D01*
X9630Y64327D01*
X9675Y64317D01*
X9715Y64307D01*
X9730Y64305D01*
X9742Y64300D01*
X9752Y64297D01*
X9760Y64295D01*
X9765Y64292D01*
X9767D01*
X9815Y64272D01*
X9857Y64250D01*
X9892Y64227D01*
X9922Y64205D01*
X9945Y64182D01*
X9962Y64167D01*
X9972Y64157D01*
X9975Y64152D01*
X10000Y64117D01*
X10022Y64077D01*
X10040Y64037D01*
X10052Y64000D01*
X10065Y63967D01*
X10072Y63940D01*
X10075Y63930D01*
Y63922D01*
X10077Y63917D01*
Y63915D01*
X9847Y63882D01*
X9832Y63932D01*
X9812Y63977D01*
X9795Y64012D01*
X9775Y64040D01*
X9760Y64062D01*
X9745Y64077D01*
X9735Y64085D01*
X9732Y64087D01*
X9700Y64107D01*
X9660Y64122D01*
X9620Y64132D01*
X9577Y64140D01*
X9542Y64145D01*
X9512Y64147D01*
X9485D01*
X9422Y64145D01*
X9367Y64135D01*
X9322Y64122D01*
X9282Y64107D01*
X9252Y64092D01*
X9232Y64080D01*
X9220Y64070D01*
X9215Y64067D01*
X9192Y64042D01*
X9175Y64010D01*
X9165Y63977D01*
X9155Y63942D01*
X9150Y63912D01*
X9147Y63885D01*
Y63877D01*
Y63870D01*
Y63865D01*
Y63862D01*
Y63857D01*
Y63847D01*
Y63827D01*
X9150Y63817D01*
Y63810D01*
Y63805D01*
Y63802D01*
X9177Y63795D01*
X9207Y63785D01*
X9272Y63770D01*
X9342Y63755D01*
X9410Y63742D01*
X9442Y63737D01*
X9472Y63732D01*
X9500Y63730D01*
X9522Y63727D01*
X9542Y63722D01*
X9557D01*
X9567Y63720D01*
X9570D01*
X9620Y63712D01*
X9662Y63707D01*
X9697Y63702D01*
X9727Y63695D01*
X9750Y63692D01*
X9767Y63687D01*
X9777Y63685D01*
X9780D01*
X9815Y63675D01*
X9847Y63662D01*
X9875Y63650D01*
X9900Y63637D01*
X9920Y63625D01*
X9937Y63615D01*
X9947Y63610D01*
X9950Y63607D01*
X9977Y63587D01*
X10000Y63565D01*
X10022Y63542D01*
X10040Y63522D01*
X10052Y63502D01*
X10065Y63487D01*
X10070Y63477D01*
X10072Y63472D01*
X10087Y63440D01*
X10097Y63407D01*
X10107Y63375D01*
X10112Y63347D01*
X10115Y63322D01*
X10117Y63302D01*
Y63290D01*
Y63285D01*
X10115Y63252D01*
X10112Y63222D01*
X10097Y63167D01*
X10077Y63120D01*
X10055Y63077D01*
X10032Y63045D01*
X10015Y63020D01*
X10000Y63005D01*
X9997Y63002D01*
X9995Y63000D01*
X9970Y62980D01*
X9945Y62965D01*
X9887Y62937D01*
X9830Y62917D01*
X9772Y62905D01*
X9722Y62895D01*
X9700Y62893D01*
X9680D01*
X9665Y62890D01*
X9642D01*
X9592Y62893D01*
X9545Y62897D01*
X9500Y62905D01*
X9462Y62912D01*
X9430Y62920D01*
X9405Y62927D01*
X9397Y62930D01*
X9390Y62932D01*
X9387Y62935D01*
X9385D01*
X9340Y62955D01*
X9292Y62980D01*
X9250Y63007D01*
X9212Y63032D01*
X9177Y63057D01*
X9152Y63077D01*
X9142Y63085D01*
X9135Y63090D01*
X9132Y63095D01*
X9130D01*
X9125Y63057D01*
X9117Y63025D01*
X9112Y62995D01*
X9102Y62970D01*
X9097Y62947D01*
X9090Y62932D01*
X9087Y62923D01*
X9085Y62920D01*
X8837D01*
X8852Y62950D01*
X8865Y62980D01*
X8875Y63007D01*
X8885Y63035D01*
X8890Y63055D01*
X8895Y63072D01*
X8897Y63082D01*
Y63087D01*
X8900Y63107D01*
X8902Y63130D01*
Y63157D01*
X8905Y63190D01*
X8907Y63257D01*
Y63327D01*
X8910Y63362D01*
Y63395D01*
Y63425D01*
Y63450D01*
Y63472D01*
Y63487D01*
Y63500D01*
Y63502D01*
Y63817D01*
Y63872D01*
X8912Y63917D01*
X8915Y63955D01*
Y63985D01*
X8917Y64007D01*
X8920Y64022D01*
X8922Y64032D01*
Y64035D01*
X8932Y64070D01*
X8942Y64100D01*
X8955Y64127D01*
X8967Y64150D01*
X8980Y64167D01*
X8990Y64182D01*
X8995Y64190D01*
X8997Y64192D01*
X9020Y64215D01*
X9045Y64237D01*
X9072Y64255D01*
X9100Y64270D01*
X9125Y64282D01*
X9145Y64292D01*
X9157Y64297D01*
X9160Y64300D01*
X9162D01*
X9207Y64315D01*
X9252Y64325D01*
X9302Y64332D01*
X9347Y64337D01*
X9387Y64340D01*
X9405Y64342D01*
X9450D01*
X9515Y64340D01*
D02*
G37*
G36*
X29075Y63640D02*
X29585Y62920D01*
X29300D01*
X28925Y63457D01*
X28857Y63350D01*
X28567Y62920D01*
X28280D01*
X28790Y63642D01*
X28318Y64312D01*
X28600D01*
X28835Y63982D01*
X28872Y63930D01*
X28890Y63905D01*
X28907Y63880D01*
X28920Y63860D01*
X28932Y63845D01*
X28940Y63835D01*
X28942Y63830D01*
X28957Y63855D01*
X28972Y63880D01*
X28990Y63905D01*
X29005Y63930D01*
X29017Y63950D01*
X29027Y63967D01*
X29035Y63977D01*
X29037Y63982D01*
X29260Y64312D01*
X29547D01*
X29075Y63640D01*
D02*
G37*
G36*
X26241D02*
X26750Y62920D01*
X26465D01*
X26091Y63457D01*
X26023Y63350D01*
X25733Y62920D01*
X25446D01*
X25956Y63642D01*
X25483Y64312D01*
X25766D01*
X26001Y63982D01*
X26038Y63930D01*
X26056Y63905D01*
X26073Y63880D01*
X26086Y63860D01*
X26098Y63845D01*
X26106Y63835D01*
X26108Y63830D01*
X26123Y63855D01*
X26138Y63880D01*
X26156Y63905D01*
X26171Y63930D01*
X26183Y63950D01*
X26193Y63967D01*
X26201Y63977D01*
X26203Y63982D01*
X26425Y64312D01*
X26713D01*
X26241Y63640D01*
D02*
G37*
G36*
X24898D02*
X25408Y62920D01*
X25123D01*
X24748Y63457D01*
X24681Y63350D01*
X24391Y62920D01*
X24104D01*
X24613Y63642D01*
X24141Y64312D01*
X24424D01*
X24658Y63982D01*
X24696Y63930D01*
X24713Y63905D01*
X24731Y63880D01*
X24743Y63860D01*
X24756Y63845D01*
X24763Y63835D01*
X24766Y63830D01*
X24781Y63855D01*
X24796Y63880D01*
X24813Y63905D01*
X24828Y63930D01*
X24841Y63950D01*
X24851Y63967D01*
X24858Y63977D01*
X24861Y63982D01*
X25083Y64312D01*
X25371D01*
X24898Y63640D01*
D02*
G37*
G36*
X23556D02*
X24066Y62920D01*
X23781D01*
X23406Y63457D01*
X23339Y63350D01*
X23049Y62920D01*
X22761D01*
X23271Y63642D01*
X22799Y64312D01*
X23081D01*
X23316Y63982D01*
X23354Y63930D01*
X23371Y63905D01*
X23389Y63880D01*
X23401Y63860D01*
X23414Y63845D01*
X23421Y63835D01*
X23424Y63830D01*
X23439Y63855D01*
X23454Y63880D01*
X23471Y63905D01*
X23486Y63930D01*
X23499Y63950D01*
X23509Y63967D01*
X23516Y63977D01*
X23519Y63982D01*
X23741Y64312D01*
X24029D01*
X23556Y63640D01*
D02*
G37*
G36*
X34623Y62920D02*
X34378D01*
Y64557D01*
X33824Y62920D01*
X33596D01*
X33034Y64530D01*
Y62920D01*
X32789D01*
Y64842D01*
X33131D01*
X33594Y63505D01*
X33619Y63432D01*
X33639Y63370D01*
X33656Y63317D01*
X33671Y63272D01*
X33681Y63240D01*
X33689Y63215D01*
X33694Y63200D01*
X33696Y63195D01*
X33709Y63235D01*
X33724Y63280D01*
X33739Y63327D01*
X33754Y63372D01*
X33766Y63415D01*
X33774Y63432D01*
X33779Y63450D01*
X33784Y63462D01*
X33786Y63472D01*
X33789Y63477D01*
Y63480D01*
X34243Y64842D01*
X34623D01*
Y62920D01*
D02*
G37*
G36*
X14768Y64655D02*
Y64312D01*
X14943D01*
Y64130D01*
X14768D01*
Y63327D01*
Y63290D01*
X14766Y63255D01*
Y63222D01*
X14763Y63195D01*
X14761Y63167D01*
X14758Y63145D01*
X14756Y63125D01*
X14753Y63107D01*
X14748Y63080D01*
X14746Y63062D01*
X14741Y63050D01*
Y63047D01*
X14728Y63025D01*
X14713Y63005D01*
X14696Y62985D01*
X14679Y62970D01*
X14664Y62957D01*
X14654Y62950D01*
X14644Y62945D01*
X14641Y62942D01*
X14614Y62930D01*
X14581Y62920D01*
X14549Y62912D01*
X14516Y62908D01*
X14489Y62905D01*
X14464Y62903D01*
X14444D01*
X14381Y62905D01*
X14351Y62910D01*
X14324Y62912D01*
X14299Y62917D01*
X14281Y62920D01*
X14269Y62923D01*
X14264D01*
X14296Y63130D01*
X14319Y63127D01*
X14339Y63125D01*
X14359D01*
X14374Y63122D01*
X14401D01*
X14436Y63125D01*
X14461Y63130D01*
X14471Y63132D01*
X14479Y63135D01*
X14481Y63137D01*
X14484D01*
X14501Y63152D01*
X14514Y63167D01*
X14521Y63177D01*
X14524Y63182D01*
X14526Y63197D01*
X14529Y63215D01*
X14531Y63237D01*
Y63260D01*
X14534Y63280D01*
Y63297D01*
Y63310D01*
Y63315D01*
Y64130D01*
X14296D01*
Y64312D01*
X14534D01*
Y64797D01*
X14768Y64655D01*
D02*
G37*
G36*
X15786Y64340D02*
X15836Y64335D01*
X15883Y64325D01*
X15928Y64312D01*
X15968Y64297D01*
X16008Y64280D01*
X16043Y64262D01*
X16076Y64245D01*
X16103Y64227D01*
X16128Y64210D01*
X16151Y64192D01*
X16168Y64177D01*
X16183Y64165D01*
X16193Y64155D01*
X16198Y64150D01*
X16201Y64147D01*
X16233Y64110D01*
X16261Y64070D01*
X16283Y64025D01*
X16306Y63980D01*
X16323Y63935D01*
X16336Y63890D01*
X16348Y63845D01*
X16358Y63802D01*
X16366Y63762D01*
X16371Y63725D01*
X16376Y63690D01*
X16378Y63660D01*
Y63637D01*
X16381Y63617D01*
Y63607D01*
Y63602D01*
X16378Y63540D01*
X16373Y63482D01*
X16363Y63430D01*
X16353Y63377D01*
X16341Y63332D01*
X16326Y63287D01*
X16308Y63250D01*
X16291Y63212D01*
X16276Y63182D01*
X16258Y63155D01*
X16243Y63132D01*
X16231Y63112D01*
X16221Y63097D01*
X16211Y63087D01*
X16206Y63080D01*
X16203Y63077D01*
X16168Y63045D01*
X16131Y63015D01*
X16091Y62990D01*
X16051Y62970D01*
X16011Y62950D01*
X15971Y62935D01*
X15931Y62923D01*
X15893Y62912D01*
X15858Y62905D01*
X15823Y62900D01*
X15793Y62895D01*
X15768Y62893D01*
X15748D01*
X15731Y62890D01*
X15718D01*
X15673Y62893D01*
X15631Y62895D01*
X15553Y62908D01*
X15518Y62917D01*
X15486Y62927D01*
X15456Y62937D01*
X15428Y62950D01*
X15403Y62960D01*
X15383Y62970D01*
X15363Y62980D01*
X15348Y62990D01*
X15336Y62997D01*
X15328Y63002D01*
X15323Y63007D01*
X15321D01*
X15268Y63055D01*
X15223Y63110D01*
X15186Y63165D01*
X15156Y63217D01*
X15136Y63265D01*
X15126Y63287D01*
X15121Y63305D01*
X15113Y63320D01*
X15111Y63330D01*
X15108Y63337D01*
Y63340D01*
X15353Y63372D01*
X15373Y63320D01*
X15398Y63275D01*
X15423Y63235D01*
X15446Y63205D01*
X15466Y63182D01*
X15483Y63165D01*
X15493Y63155D01*
X15498Y63152D01*
X15533Y63130D01*
X15571Y63112D01*
X15608Y63102D01*
X15641Y63092D01*
X15673Y63087D01*
X15696Y63085D01*
X15718D01*
X15751Y63087D01*
X15781Y63090D01*
X15838Y63105D01*
X15888Y63122D01*
X15931Y63145D01*
X15963Y63167D01*
X15991Y63187D01*
X15998Y63195D01*
X16006Y63200D01*
X16008Y63202D01*
X16011Y63205D01*
X16031Y63230D01*
X16048Y63255D01*
X16078Y63310D01*
X16101Y63367D01*
X16118Y63425D01*
X16128Y63475D01*
X16131Y63497D01*
X16133Y63517D01*
X16136Y63532D01*
X16138Y63545D01*
Y63552D01*
Y63555D01*
X15101D01*
X15098Y63582D01*
Y63602D01*
Y63612D01*
Y63617D01*
X15101Y63680D01*
X15106Y63740D01*
X15116Y63795D01*
X15126Y63847D01*
X15138Y63895D01*
X15153Y63937D01*
X15171Y63977D01*
X15186Y64015D01*
X15203Y64047D01*
X15221Y64075D01*
X15236Y64097D01*
X15248Y64117D01*
X15258Y64132D01*
X15268Y64142D01*
X15273Y64150D01*
X15276Y64152D01*
X15311Y64185D01*
X15346Y64215D01*
X15383Y64240D01*
X15423Y64262D01*
X15461Y64280D01*
X15498Y64295D01*
X15536Y64310D01*
X15571Y64320D01*
X15603Y64327D01*
X15636Y64332D01*
X15663Y64337D01*
X15686Y64340D01*
X15706Y64342D01*
X15733D01*
X15786Y64340D01*
D02*
G37*
G36*
X36400Y64615D02*
X35768D01*
Y62920D01*
X35513D01*
Y64615D01*
X34881D01*
Y64842D01*
X36400D01*
Y64615D01*
D02*
G37*
G36*
X28133Y64590D02*
X27193D01*
X27258Y64510D01*
X27323Y64425D01*
X27380Y64340D01*
X27430Y64260D01*
X27453Y64225D01*
X27473Y64190D01*
X27490Y64160D01*
X27505Y64135D01*
X27518Y64115D01*
X27525Y64097D01*
X27530Y64087D01*
X27533Y64085D01*
X27588Y63972D01*
X27638Y63862D01*
X27678Y63757D01*
X27698Y63710D01*
X27713Y63662D01*
X27728Y63620D01*
X27740Y63582D01*
X27750Y63550D01*
X27760Y63520D01*
X27765Y63497D01*
X27770Y63480D01*
X27775Y63470D01*
Y63465D01*
X27790Y63405D01*
X27803Y63350D01*
X27815Y63295D01*
X27825Y63245D01*
X27833Y63197D01*
X27840Y63152D01*
X27845Y63110D01*
X27850Y63072D01*
X27855Y63037D01*
X27858Y63007D01*
X27860Y62982D01*
Y62960D01*
X27863Y62942D01*
Y62930D01*
Y62923D01*
Y62920D01*
X27620D01*
X27610Y63025D01*
X27598Y63122D01*
X27593Y63167D01*
X27585Y63212D01*
X27575Y63252D01*
X27568Y63290D01*
X27560Y63325D01*
X27555Y63355D01*
X27548Y63382D01*
X27543Y63405D01*
X27538Y63422D01*
X27533Y63437D01*
X27530Y63445D01*
Y63447D01*
X27490Y63575D01*
X27445Y63695D01*
X27423Y63752D01*
X27400Y63807D01*
X27378Y63860D01*
X27355Y63907D01*
X27335Y63952D01*
X27315Y63992D01*
X27300Y64027D01*
X27285Y64057D01*
X27273Y64080D01*
X27263Y64097D01*
X27258Y64110D01*
X27255Y64112D01*
X27220Y64172D01*
X27188Y64227D01*
X27155Y64282D01*
X27123Y64330D01*
X27090Y64377D01*
X27060Y64420D01*
X27033Y64460D01*
X27005Y64495D01*
X26980Y64525D01*
X26958Y64552D01*
X26938Y64577D01*
X26923Y64597D01*
X26908Y64612D01*
X26898Y64622D01*
X26893Y64630D01*
X26890Y64632D01*
Y64817D01*
X28133D01*
Y64590D01*
D02*
G37*
G36*
X21934Y64615D02*
X21302D01*
Y62920D01*
X21047D01*
Y64615D01*
X20415D01*
Y64842D01*
X21934D01*
Y64615D01*
D02*
G37*
G36*
X18208Y64340D02*
X18235Y64335D01*
X18263Y64327D01*
X18285Y64320D01*
X18303Y64310D01*
X18318Y64302D01*
X18328Y64297D01*
X18330Y64295D01*
X18355Y64272D01*
X18383Y64245D01*
X18408Y64212D01*
X18430Y64177D01*
X18448Y64147D01*
X18465Y64122D01*
X18470Y64112D01*
X18475Y64105D01*
X18478Y64100D01*
Y64312D01*
X18690D01*
Y62920D01*
X18455D01*
Y63645D01*
X18453Y63700D01*
X18450Y63752D01*
X18443Y63797D01*
X18435Y63840D01*
X18430Y63872D01*
X18423Y63897D01*
X18420Y63907D01*
Y63915D01*
X18418Y63917D01*
Y63920D01*
X18405Y63950D01*
X18393Y63975D01*
X18378Y63997D01*
X18363Y64015D01*
X18350Y64030D01*
X18340Y64042D01*
X18333Y64047D01*
X18330Y64050D01*
X18305Y64065D01*
X18283Y64077D01*
X18258Y64085D01*
X18238Y64092D01*
X18218Y64095D01*
X18203Y64097D01*
X18190D01*
X18158Y64095D01*
X18125Y64090D01*
X18095Y64082D01*
X18070Y64072D01*
X18048Y64062D01*
X18030Y64055D01*
X18020Y64050D01*
X18015Y64047D01*
X17933Y64265D01*
X17980Y64290D01*
X18023Y64310D01*
X18065Y64322D01*
X18103Y64332D01*
X18133Y64337D01*
X18158Y64342D01*
X18178D01*
X18208Y64340D01*
D02*
G37*
G36*
X13299Y62920D02*
X12569D01*
X12502Y62923D01*
X12442Y62925D01*
X12389Y62930D01*
X12344Y62935D01*
X12309Y62940D01*
X12294Y62942D01*
X12282Y62945D01*
X12272Y62947D01*
X12264Y62950D01*
X12259D01*
X12214Y62962D01*
X12172Y62977D01*
X12137Y62995D01*
X12107Y63010D01*
X12082Y63022D01*
X12064Y63035D01*
X12052Y63042D01*
X12049Y63045D01*
X12019Y63072D01*
X11992Y63100D01*
X11967Y63130D01*
X11947Y63160D01*
X11929Y63185D01*
X11917Y63205D01*
X11909Y63220D01*
X11907Y63225D01*
X11887Y63270D01*
X11874Y63312D01*
X11864Y63355D01*
X11857Y63392D01*
X11852Y63427D01*
X11849Y63452D01*
Y63462D01*
Y63470D01*
Y63472D01*
Y63475D01*
X11854Y63535D01*
X11864Y63590D01*
X11879Y63640D01*
X11897Y63682D01*
X11914Y63717D01*
X11929Y63742D01*
X11934Y63752D01*
X11939Y63760D01*
X11944Y63762D01*
Y63765D01*
X11982Y63807D01*
X12024Y63845D01*
X12069Y63875D01*
X12112Y63900D01*
X12152Y63920D01*
X12169Y63927D01*
X12182Y63932D01*
X12194Y63937D01*
X12204Y63940D01*
X12209Y63942D01*
X12212D01*
X12164Y63967D01*
X12124Y63997D01*
X12089Y64025D01*
X12059Y64052D01*
X12037Y64077D01*
X12022Y64097D01*
X12012Y64110D01*
X12009Y64115D01*
X11987Y64157D01*
X11969Y64197D01*
X11959Y64237D01*
X11949Y64275D01*
X11944Y64305D01*
X11942Y64330D01*
Y64337D01*
Y64345D01*
Y64347D01*
Y64350D01*
X11944Y64400D01*
X11954Y64445D01*
X11967Y64487D01*
X11979Y64525D01*
X11994Y64557D01*
X12007Y64582D01*
X12017Y64597D01*
X12019Y64600D01*
Y64602D01*
X12049Y64645D01*
X12084Y64682D01*
X12117Y64712D01*
X12152Y64737D01*
X12182Y64757D01*
X12204Y64772D01*
X12214Y64777D01*
X12222Y64780D01*
X12224Y64782D01*
X12227D01*
X12279Y64802D01*
X12337Y64817D01*
X12397Y64827D01*
X12452Y64835D01*
X12502Y64840D01*
X12524D01*
X12542Y64842D01*
X13299D01*
Y62920D01*
D02*
G37*
G36*
X8065Y64340D02*
X8093Y64335D01*
X8120Y64327D01*
X8143Y64320D01*
X8160Y64310D01*
X8175Y64302D01*
X8185Y64297D01*
X8188Y64295D01*
X8213Y64272D01*
X8240Y64245D01*
X8265Y64212D01*
X8288Y64177D01*
X8305Y64147D01*
X8323Y64122D01*
X8328Y64112D01*
X8333Y64105D01*
X8335Y64100D01*
Y64312D01*
X8548D01*
Y62920D01*
X8313D01*
Y63645D01*
X8310Y63700D01*
X8308Y63752D01*
X8300Y63797D01*
X8293Y63840D01*
X8288Y63872D01*
X8280Y63897D01*
X8278Y63907D01*
Y63915D01*
X8275Y63917D01*
Y63920D01*
X8263Y63950D01*
X8250Y63975D01*
X8235Y63997D01*
X8220Y64015D01*
X8208Y64030D01*
X8198Y64042D01*
X8190Y64047D01*
X8188Y64050D01*
X8163Y64065D01*
X8140Y64077D01*
X8115Y64085D01*
X8095Y64092D01*
X8075Y64095D01*
X8060Y64097D01*
X8048D01*
X8015Y64095D01*
X7983Y64090D01*
X7953Y64082D01*
X7928Y64072D01*
X7905Y64062D01*
X7888Y64055D01*
X7878Y64050D01*
X7873Y64047D01*
X7790Y64265D01*
X7838Y64290D01*
X7880Y64310D01*
X7923Y64322D01*
X7960Y64332D01*
X7990Y64337D01*
X8015Y64342D01*
X8035D01*
X8065Y64340D01*
D02*
G37*
G36*
X11014D02*
X11059Y64335D01*
X11102Y64327D01*
X11144Y64317D01*
X11182Y64307D01*
X11219Y64292D01*
X11252Y64280D01*
X11282Y64265D01*
X11309Y64250D01*
X11334Y64237D01*
X11354Y64222D01*
X11372Y64212D01*
X11387Y64202D01*
X11397Y64195D01*
X11402Y64190D01*
X11404Y64187D01*
X11442Y64150D01*
X11474Y64110D01*
X11502Y64065D01*
X11527Y64020D01*
X11547Y63972D01*
X11564Y63925D01*
X11579Y63877D01*
X11589Y63830D01*
X11599Y63787D01*
X11604Y63747D01*
X11609Y63710D01*
X11614Y63677D01*
Y63652D01*
X11617Y63632D01*
Y63620D01*
Y63615D01*
X11614Y63550D01*
X11609Y63490D01*
X11599Y63435D01*
X11589Y63382D01*
X11574Y63332D01*
X11559Y63290D01*
X11544Y63250D01*
X11527Y63212D01*
X11509Y63180D01*
X11494Y63152D01*
X11479Y63130D01*
X11464Y63110D01*
X11454Y63095D01*
X11444Y63085D01*
X11439Y63077D01*
X11437Y63075D01*
X11402Y63042D01*
X11364Y63015D01*
X11327Y62990D01*
X11287Y62967D01*
X11247Y62950D01*
X11209Y62935D01*
X11172Y62923D01*
X11134Y62912D01*
X11099Y62905D01*
X11067Y62900D01*
X11039Y62895D01*
X11014Y62893D01*
X10994D01*
X10979Y62890D01*
X10967D01*
X10899Y62893D01*
X10837Y62903D01*
X10780Y62917D01*
X10732Y62932D01*
X10690Y62947D01*
X10672Y62955D01*
X10660Y62962D01*
X10647Y62967D01*
X10640Y62972D01*
X10635Y62975D01*
X10632D01*
X10577Y63010D01*
X10530Y63047D01*
X10490Y63087D01*
X10457Y63125D01*
X10430Y63160D01*
X10412Y63187D01*
X10405Y63197D01*
X10400Y63205D01*
X10397Y63210D01*
Y63212D01*
X10382Y63242D01*
X10370Y63275D01*
X10350Y63345D01*
X10335Y63415D01*
X10325Y63482D01*
X10322Y63512D01*
X10320Y63542D01*
X10317Y63567D01*
X10315Y63590D01*
Y63610D01*
Y63622D01*
Y63632D01*
Y63635D01*
X10317Y63695D01*
X10322Y63752D01*
X10332Y63805D01*
X10342Y63855D01*
X10357Y63902D01*
X10372Y63945D01*
X10390Y63982D01*
X10405Y64017D01*
X10422Y64047D01*
X10440Y64075D01*
X10455Y64100D01*
X10470Y64117D01*
X10480Y64132D01*
X10490Y64145D01*
X10495Y64150D01*
X10497Y64152D01*
X10532Y64185D01*
X10570Y64215D01*
X10607Y64240D01*
X10647Y64262D01*
X10687Y64280D01*
X10727Y64295D01*
X10764Y64310D01*
X10800Y64320D01*
X10834Y64327D01*
X10867Y64332D01*
X10894Y64337D01*
X10919Y64340D01*
X10939Y64342D01*
X10967D01*
X11014Y64340D01*
D02*
G37*
G36*
X6766Y64150D02*
X6791Y64180D01*
X6818Y64207D01*
X6846Y64230D01*
X6871Y64250D01*
X6893Y64267D01*
X6910Y64277D01*
X6923Y64285D01*
X6928Y64287D01*
X6965Y64305D01*
X7003Y64320D01*
X7040Y64330D01*
X7075Y64335D01*
X7105Y64340D01*
X7130Y64342D01*
X7150D01*
X7213Y64337D01*
X7273Y64327D01*
X7325Y64312D01*
X7370Y64297D01*
X7410Y64280D01*
X7425Y64272D01*
X7438Y64265D01*
X7448Y64257D01*
X7455Y64255D01*
X7460Y64250D01*
X7463D01*
X7510Y64212D01*
X7553Y64172D01*
X7588Y64127D01*
X7618Y64087D01*
X7640Y64047D01*
X7650Y64032D01*
X7658Y64017D01*
X7663Y64007D01*
X7668Y63997D01*
X7670Y63992D01*
Y63990D01*
X7693Y63925D01*
X7710Y63860D01*
X7720Y63797D01*
X7730Y63737D01*
X7733Y63712D01*
X7735Y63687D01*
Y63667D01*
X7738Y63647D01*
Y63632D01*
Y63622D01*
Y63615D01*
Y63612D01*
X7735Y63535D01*
X7725Y63465D01*
X7713Y63400D01*
X7700Y63345D01*
X7693Y63320D01*
X7685Y63297D01*
X7680Y63280D01*
X7675Y63265D01*
X7670Y63252D01*
X7665Y63242D01*
X7663Y63237D01*
Y63235D01*
X7630Y63177D01*
X7595Y63127D01*
X7560Y63082D01*
X7525Y63047D01*
X7495Y63017D01*
X7470Y62997D01*
X7460Y62990D01*
X7453Y62985D01*
X7450Y62980D01*
X7448D01*
X7395Y62950D01*
X7340Y62927D01*
X7288Y62912D01*
X7240Y62903D01*
X7200Y62895D01*
X7183Y62893D01*
X7168D01*
X7158Y62890D01*
X7140D01*
X7093Y62893D01*
X7050Y62900D01*
X7008Y62910D01*
X6970Y62923D01*
X6935Y62937D01*
X6903Y62955D01*
X6876Y62975D01*
X6848Y62995D01*
X6826Y63012D01*
X6806Y63032D01*
X6788Y63050D01*
X6776Y63065D01*
X6766Y63077D01*
X6756Y63087D01*
X6753Y63095D01*
X6751Y63097D01*
Y62920D01*
X6531D01*
Y64842D01*
X6766D01*
Y64150D01*
D02*
G37*
G36*
X37453Y64872D02*
X37520Y64865D01*
X37580Y64852D01*
X37633Y64842D01*
X37655Y64835D01*
X37675Y64830D01*
X37693Y64822D01*
X37708Y64817D01*
X37720Y64815D01*
X37728Y64810D01*
X37733Y64807D01*
X37735D01*
X37790Y64780D01*
X37840Y64750D01*
X37880Y64717D01*
X37915Y64687D01*
X37940Y64660D01*
X37960Y64635D01*
X37970Y64620D01*
X37975Y64617D01*
Y64615D01*
X38003Y64567D01*
X38023Y64520D01*
X38038Y64475D01*
X38048Y64432D01*
X38053Y64395D01*
X38055Y64367D01*
X38058Y64357D01*
Y64350D01*
Y64345D01*
Y64342D01*
X38055Y64295D01*
X38048Y64250D01*
X38038Y64207D01*
X38025Y64172D01*
X38013Y64142D01*
X38003Y64122D01*
X37995Y64107D01*
X37993Y64105D01*
Y64102D01*
X37965Y64065D01*
X37933Y64030D01*
X37898Y64000D01*
X37865Y63975D01*
X37835Y63952D01*
X37810Y63937D01*
X37800Y63932D01*
X37793Y63927D01*
X37790Y63925D01*
X37788D01*
X37765Y63915D01*
X37740Y63902D01*
X37685Y63882D01*
X37623Y63860D01*
X37563Y63842D01*
X37505Y63825D01*
X37483Y63820D01*
X37460Y63812D01*
X37443Y63810D01*
X37430Y63805D01*
X37420Y63802D01*
X37418D01*
X37370Y63790D01*
X37328Y63780D01*
X37288Y63770D01*
X37253Y63762D01*
X37220Y63752D01*
X37193Y63745D01*
X37168Y63740D01*
X37148Y63732D01*
X37128Y63727D01*
X37113Y63722D01*
X37100Y63720D01*
X37090Y63715D01*
X37080Y63712D01*
X37075Y63710D01*
X37033Y63692D01*
X36998Y63672D01*
X36968Y63655D01*
X36943Y63637D01*
X36925Y63622D01*
X36913Y63610D01*
X36905Y63600D01*
X36903Y63597D01*
X36885Y63572D01*
X36870Y63545D01*
X36860Y63517D01*
X36855Y63492D01*
X36850Y63472D01*
X36848Y63455D01*
Y63445D01*
Y63440D01*
X36850Y63407D01*
X36855Y63377D01*
X36865Y63350D01*
X36875Y63325D01*
X36885Y63305D01*
X36895Y63287D01*
X36900Y63277D01*
X36903Y63275D01*
X36925Y63247D01*
X36953Y63225D01*
X36980Y63205D01*
X37008Y63187D01*
X37033Y63175D01*
X37053Y63165D01*
X37065Y63160D01*
X37068Y63157D01*
X37070D01*
X37113Y63142D01*
X37155Y63132D01*
X37200Y63125D01*
X37238Y63120D01*
X37273Y63117D01*
X37300Y63115D01*
X37325D01*
X37385Y63117D01*
X37440Y63122D01*
X37490Y63132D01*
X37533Y63142D01*
X37570Y63152D01*
X37585Y63157D01*
X37598Y63162D01*
X37608Y63165D01*
X37615Y63167D01*
X37618Y63170D01*
X37620D01*
X37665Y63192D01*
X37705Y63217D01*
X37738Y63242D01*
X37765Y63267D01*
X37785Y63287D01*
X37800Y63305D01*
X37810Y63315D01*
X37813Y63320D01*
X37833Y63357D01*
X37850Y63397D01*
X37865Y63437D01*
X37875Y63475D01*
X37883Y63510D01*
X37888Y63535D01*
Y63545D01*
X37890Y63552D01*
Y63557D01*
Y63560D01*
X38130Y63540D01*
X38125Y63470D01*
X38112Y63402D01*
X38095Y63345D01*
X38075Y63292D01*
X38065Y63270D01*
X38058Y63250D01*
X38048Y63235D01*
X38040Y63220D01*
X38035Y63207D01*
X38030Y63200D01*
X38025Y63195D01*
Y63192D01*
X37985Y63140D01*
X37940Y63092D01*
X37895Y63052D01*
X37850Y63020D01*
X37810Y62995D01*
X37793Y62985D01*
X37780Y62977D01*
X37768Y62970D01*
X37758Y62965D01*
X37753Y62962D01*
X37750D01*
X37680Y62938D01*
X37608Y62920D01*
X37533Y62905D01*
X37465Y62898D01*
X37433Y62895D01*
X37405Y62893D01*
X37378Y62890D01*
X37355D01*
X37338Y62888D01*
X37313D01*
X37238Y62890D01*
X37168Y62900D01*
X37105Y62912D01*
X37053Y62925D01*
X37028Y62932D01*
X37008Y62940D01*
X36990Y62945D01*
X36973Y62950D01*
X36963Y62955D01*
X36953Y62960D01*
X36948Y62962D01*
X36945D01*
X36888Y62992D01*
X36835Y63027D01*
X36793Y63062D01*
X36758Y63095D01*
X36730Y63125D01*
X36708Y63150D01*
X36703Y63160D01*
X36698Y63167D01*
X36693Y63170D01*
Y63172D01*
X36663Y63222D01*
X36640Y63275D01*
X36625Y63322D01*
X36613Y63367D01*
X36608Y63405D01*
X36605Y63420D01*
Y63435D01*
X36603Y63445D01*
Y63452D01*
Y63457D01*
Y63460D01*
X36605Y63517D01*
X36615Y63567D01*
X36628Y63615D01*
X36643Y63655D01*
X36660Y63687D01*
X36673Y63712D01*
X36678Y63720D01*
X36683Y63727D01*
X36685Y63730D01*
Y63732D01*
X36718Y63775D01*
X36758Y63815D01*
X36798Y63847D01*
X36838Y63877D01*
X36875Y63900D01*
X36905Y63915D01*
X36918Y63922D01*
X36925Y63927D01*
X36930Y63930D01*
X36933D01*
X36955Y63940D01*
X36983Y63950D01*
X37015Y63960D01*
X37048Y63972D01*
X37118Y63992D01*
X37188Y64010D01*
X37223Y64020D01*
X37253Y64027D01*
X37283Y64035D01*
X37308Y64040D01*
X37328Y64045D01*
X37345Y64050D01*
X37355Y64052D01*
X37358D01*
X37413Y64065D01*
X37463Y64077D01*
X37508Y64090D01*
X37548Y64102D01*
X37583Y64115D01*
X37613Y64125D01*
X37640Y64137D01*
X37665Y64147D01*
X37683Y64155D01*
X37700Y64162D01*
X37713Y64170D01*
X37723Y64177D01*
X37730Y64180D01*
X37735Y64185D01*
X37740Y64187D01*
X37765Y64215D01*
X37783Y64242D01*
X37795Y64270D01*
X37803Y64297D01*
X37808Y64322D01*
X37813Y64340D01*
Y64352D01*
Y64357D01*
X37808Y64400D01*
X37795Y64440D01*
X37780Y64475D01*
X37760Y64505D01*
X37740Y64530D01*
X37725Y64547D01*
X37713Y64557D01*
X37708Y64562D01*
X37688Y64577D01*
X37663Y64590D01*
X37610Y64612D01*
X37555Y64627D01*
X37500Y64637D01*
X37450Y64642D01*
X37430Y64645D01*
X37410Y64647D01*
X37333D01*
X37295Y64642D01*
X37260Y64640D01*
X37228Y64632D01*
X37198Y64625D01*
X37170Y64617D01*
X37145Y64610D01*
X37123Y64602D01*
X37105Y64592D01*
X37088Y64585D01*
X37073Y64577D01*
X37060Y64570D01*
X37053Y64562D01*
X37045Y64560D01*
X37040Y64555D01*
X37000Y64517D01*
X36970Y64472D01*
X36948Y64427D01*
X36930Y64385D01*
X36918Y64345D01*
X36913Y64327D01*
X36910Y64312D01*
X36908Y64300D01*
X36905Y64290D01*
Y64285D01*
Y64282D01*
X36660Y64300D01*
X36665Y64360D01*
X36678Y64417D01*
X36693Y64467D01*
X36710Y64512D01*
X36728Y64550D01*
X36735Y64565D01*
X36740Y64577D01*
X36748Y64587D01*
X36750Y64595D01*
X36755Y64597D01*
Y64600D01*
X36790Y64647D01*
X36833Y64690D01*
X36873Y64725D01*
X36915Y64752D01*
X36950Y64775D01*
X36980Y64792D01*
X36993Y64797D01*
X37000Y64802D01*
X37005Y64805D01*
X37008D01*
X37070Y64827D01*
X37135Y64845D01*
X37198Y64857D01*
X37255Y64867D01*
X37283Y64869D01*
X37308Y64872D01*
X37328D01*
X37348Y64874D01*
X37383D01*
X37453Y64872D01*
D02*
G37*
G36*
X34750Y58505D02*
X34777Y58503D01*
X34827Y58490D01*
X34870Y58474D01*
X34906Y58455D01*
X34937Y58436D01*
X34950Y58428D01*
X34960Y58420D01*
X34968Y58413D01*
X34975Y58407D01*
X34977Y58405D01*
X34979Y58403D01*
X34997Y58382D01*
X35014Y58359D01*
X35043Y58311D01*
X35066Y58261D01*
X35085Y58211D01*
X35091Y58188D01*
X35097Y58166D01*
X35102Y58147D01*
X35106Y58130D01*
X35108Y58116D01*
X35110Y58105D01*
X35112Y58099D01*
Y58097D01*
X34954Y58061D01*
X34945Y58111D01*
X34935Y58155D01*
X34920Y58193D01*
X34908Y58222D01*
X34895Y58247D01*
X34885Y58263D01*
X34877Y58272D01*
X34875Y58276D01*
X34850Y58299D01*
X34823Y58318D01*
X34798Y58330D01*
X34773Y58338D01*
X34752Y58343D01*
X34733Y58347D01*
X34718D01*
X34687Y58345D01*
X34658Y58336D01*
X34633Y58326D01*
X34610Y58313D01*
X34593Y58299D01*
X34579Y58288D01*
X34570Y58280D01*
X34568Y58278D01*
X34548Y58251D01*
X34533Y58222D01*
X34521Y58193D01*
X34514Y58166D01*
X34510Y58138D01*
X34506Y58120D01*
Y58111D01*
Y58105D01*
Y58103D01*
Y58101D01*
X34510Y58057D01*
X34518Y58020D01*
X34529Y57986D01*
X34543Y57959D01*
X34558Y57936D01*
X34568Y57920D01*
X34577Y57911D01*
X34581Y57907D01*
X34610Y57882D01*
X34643Y57866D01*
X34675Y57853D01*
X34704Y57843D01*
X34731Y57839D01*
X34754Y57836D01*
X34762Y57834D01*
X34773D01*
X34798Y57839D01*
X34816Y57668D01*
X34791Y57676D01*
X34770Y57680D01*
X34752Y57684D01*
X34735Y57689D01*
X34723D01*
X34712Y57691D01*
X34704D01*
X34666Y57686D01*
X34631Y57678D01*
X34600Y57664D01*
X34575Y57649D01*
X34554Y57632D01*
X34537Y57618D01*
X34529Y57609D01*
X34525Y57605D01*
X34500Y57572D01*
X34481Y57534D01*
X34468Y57499D01*
X34458Y57464D01*
X34454Y57430D01*
X34452Y57418D01*
Y57405D01*
X34450Y57395D01*
Y57389D01*
Y57384D01*
Y57382D01*
X34454Y57330D01*
X34462Y57284D01*
X34475Y57243D01*
X34489Y57210D01*
X34506Y57182D01*
X34518Y57162D01*
X34527Y57149D01*
X34531Y57147D01*
Y57145D01*
X34546Y57128D01*
X34562Y57116D01*
X34593Y57093D01*
X34625Y57076D01*
X34656Y57066D01*
X34681Y57057D01*
X34702Y57055D01*
X34710Y57053D01*
X34720D01*
X34756Y57057D01*
X34789Y57066D01*
X34818Y57082D01*
X34845Y57101D01*
X34868Y57126D01*
X34889Y57151D01*
X34906Y57180D01*
X34920Y57210D01*
X34933Y57237D01*
X34945Y57266D01*
X34954Y57291D01*
X34960Y57316D01*
X34964Y57334D01*
X34968Y57351D01*
X34970Y57359D01*
Y57364D01*
X35129Y57339D01*
X35125Y57301D01*
X35118Y57266D01*
X35112Y57232D01*
X35102Y57201D01*
X35091Y57172D01*
X35081Y57147D01*
X35070Y57122D01*
X35058Y57099D01*
X35047Y57080D01*
X35037Y57064D01*
X35027Y57047D01*
X35018Y57037D01*
X35010Y57026D01*
X35004Y57020D01*
X35002Y57016D01*
X35000Y57014D01*
X34977Y56993D01*
X34954Y56974D01*
X34931Y56957D01*
X34906Y56945D01*
X34883Y56932D01*
X34858Y56922D01*
X34814Y56908D01*
X34775Y56899D01*
X34758Y56897D01*
X34743Y56895D01*
X34733Y56893D01*
X34716D01*
X34683Y56895D01*
X34652Y56899D01*
X34623Y56905D01*
X34593Y56914D01*
X34541Y56937D01*
X34498Y56962D01*
X34477Y56974D01*
X34460Y56987D01*
X34446Y56999D01*
X34433Y57010D01*
X34423Y57018D01*
X34416Y57024D01*
X34412Y57028D01*
X34410Y57030D01*
X34387Y57057D01*
X34368Y57085D01*
X34350Y57114D01*
X34335Y57145D01*
X34323Y57174D01*
X34312Y57203D01*
X34298Y57259D01*
X34291Y57287D01*
X34287Y57309D01*
X34285Y57332D01*
X34283Y57351D01*
X34281Y57366D01*
Y57376D01*
Y57384D01*
Y57387D01*
X34283Y57424D01*
X34285Y57459D01*
X34291Y57491D01*
X34296Y57518D01*
X34302Y57541D01*
X34308Y57557D01*
X34310Y57568D01*
X34312Y57572D01*
X34325Y57601D01*
X34337Y57628D01*
X34352Y57651D01*
X34364Y57670D01*
X34377Y57684D01*
X34385Y57695D01*
X34391Y57701D01*
X34393Y57703D01*
X34412Y57720D01*
X34435Y57736D01*
X34456Y57749D01*
X34475Y57759D01*
X34493Y57766D01*
X34508Y57772D01*
X34516Y57776D01*
X34521D01*
X34491Y57795D01*
X34464Y57816D01*
X34443Y57839D01*
X34425Y57859D01*
X34410Y57876D01*
X34400Y57893D01*
X34393Y57901D01*
X34391Y57905D01*
X34375Y57936D01*
X34364Y57970D01*
X34356Y58003D01*
X34350Y58032D01*
X34346Y58057D01*
X34343Y58078D01*
Y58086D01*
Y58093D01*
Y58095D01*
Y58097D01*
X34346Y58130D01*
X34348Y58159D01*
X34360Y58218D01*
X34379Y58268D01*
X34398Y58309D01*
X34408Y58328D01*
X34418Y58345D01*
X34429Y58357D01*
X34437Y58370D01*
X34443Y58378D01*
X34450Y58384D01*
X34452Y58388D01*
X34454Y58390D01*
X34475Y58411D01*
X34498Y58430D01*
X34521Y58445D01*
X34541Y58457D01*
X34587Y58478D01*
X34629Y58493D01*
X34666Y58501D01*
X34683Y58503D01*
X34695Y58505D01*
X34708Y58507D01*
X34723D01*
X34750Y58505D01*
D02*
G37*
G36*
X24692Y58086D02*
X24723Y58082D01*
X24752Y58078D01*
X24777Y58072D01*
X24802Y58063D01*
X24825Y58055D01*
X24844Y58049D01*
X24860Y58041D01*
X24877Y58032D01*
X24890Y58026D01*
X24900Y58018D01*
X24908Y58013D01*
X24915Y58009D01*
X24917Y58005D01*
X24919D01*
X24938Y57988D01*
X24952Y57970D01*
X24981Y57928D01*
X25004Y57884D01*
X25023Y57841D01*
X25035Y57801D01*
X25042Y57784D01*
X25046Y57768D01*
X25048Y57755D01*
X25050Y57747D01*
X25052Y57741D01*
Y57739D01*
X24894Y57711D01*
X24883Y57755D01*
X24871Y57791D01*
X24858Y57820D01*
X24844Y57845D01*
X24833Y57861D01*
X24823Y57874D01*
X24817Y57880D01*
X24815Y57882D01*
X24792Y57899D01*
X24767Y57909D01*
X24740Y57918D01*
X24713Y57924D01*
X24688Y57928D01*
X24669Y57930D01*
X24650D01*
X24606Y57928D01*
X24569Y57920D01*
X24540Y57909D01*
X24513Y57897D01*
X24494Y57882D01*
X24479Y57872D01*
X24471Y57864D01*
X24469Y57861D01*
X24454Y57841D01*
X24444Y57816D01*
X24436Y57789D01*
X24431Y57761D01*
X24427Y57736D01*
X24425Y57716D01*
Y57707D01*
Y57701D01*
Y57699D01*
Y57697D01*
X24427Y57649D01*
X24446Y57641D01*
X24465Y57634D01*
X24511Y57620D01*
X24556Y57609D01*
X24604Y57599D01*
X24646Y57591D01*
X24665Y57589D01*
X24681Y57584D01*
X24694Y57582D01*
X24704D01*
X24711Y57580D01*
X24713D01*
X24763Y57572D01*
X24806Y57562D01*
X24844Y57551D01*
X24873Y57541D01*
X24898Y57530D01*
X24915Y57522D01*
X24923Y57518D01*
X24927Y57516D01*
X24952Y57499D01*
X24975Y57478D01*
X24994Y57457D01*
X25010Y57439D01*
X25023Y57422D01*
X25031Y57407D01*
X25038Y57399D01*
X25040Y57395D01*
X25052Y57366D01*
X25063Y57334D01*
X25069Y57305D01*
X25075Y57278D01*
X25077Y57255D01*
X25079Y57237D01*
Y57224D01*
Y57222D01*
Y57220D01*
X25075Y57166D01*
X25067Y57120D01*
X25052Y57078D01*
X25035Y57045D01*
X25021Y57016D01*
X25006Y56997D01*
X24998Y56985D01*
X24994Y56982D01*
Y56980D01*
X24958Y56951D01*
X24921Y56930D01*
X24881Y56914D01*
X24844Y56903D01*
X24810Y56897D01*
X24796Y56895D01*
X24783D01*
X24773Y56893D01*
X24758D01*
X24725Y56895D01*
X24692Y56899D01*
X24663Y56905D01*
X24636Y56914D01*
X24613Y56922D01*
X24596Y56928D01*
X24586Y56932D01*
X24581Y56935D01*
X24548Y56951D01*
X24519Y56972D01*
X24490Y56993D01*
X24465Y57014D01*
X24444Y57030D01*
X24427Y57045D01*
X24417Y57055D01*
X24413Y57060D01*
X24409Y57030D01*
X24404Y57003D01*
X24400Y56980D01*
X24394Y56960D01*
X24390Y56943D01*
X24386Y56930D01*
X24381Y56922D01*
Y56920D01*
X24215D01*
X24234Y56970D01*
X24242Y56993D01*
X24248Y57014D01*
X24252Y57030D01*
X24254Y57043D01*
X24256Y57053D01*
Y57055D01*
X24259Y57070D01*
Y57091D01*
X24261Y57114D01*
Y57139D01*
X24263Y57195D01*
Y57253D01*
X24265Y57282D01*
Y57309D01*
Y57334D01*
Y57355D01*
Y57374D01*
Y57387D01*
Y57397D01*
Y57399D01*
Y57657D01*
Y57714D01*
X24269Y57761D01*
X24271Y57803D01*
X24275Y57836D01*
X24279Y57864D01*
X24284Y57882D01*
X24286Y57893D01*
X24288Y57897D01*
X24298Y57926D01*
X24315Y57953D01*
X24331Y57976D01*
X24350Y57997D01*
X24367Y58011D01*
X24381Y58024D01*
X24392Y58032D01*
X24396Y58034D01*
X24429Y58053D01*
X24467Y58068D01*
X24504Y58076D01*
X24542Y58084D01*
X24575Y58088D01*
X24590D01*
X24600Y58091D01*
X24661D01*
X24692Y58086D01*
D02*
G37*
G36*
X36541Y56920D02*
X36368D01*
X36091Y58124D01*
X36085Y58155D01*
X36076Y58186D01*
X36070Y58218D01*
X36066Y58247D01*
X36060Y58272D01*
X36058Y58293D01*
X36053Y58305D01*
Y58307D01*
Y58309D01*
X36012Y58124D01*
X35739Y56920D01*
X35572D01*
X35216Y58501D01*
X35389D01*
X35593Y57484D01*
X35608Y57416D01*
X35620Y57351D01*
X35631Y57293D01*
X35635Y57266D01*
X35641Y57241D01*
X35643Y57220D01*
X35647Y57199D01*
X35651Y57182D01*
X35654Y57168D01*
X35656Y57155D01*
Y57147D01*
X35658Y57143D01*
Y57141D01*
X35672Y57241D01*
X35687Y57341D01*
X35695Y57389D01*
X35706Y57434D01*
X35714Y57478D01*
X35720Y57520D01*
X35729Y57557D01*
X35737Y57593D01*
X35743Y57624D01*
X35749Y57649D01*
X35754Y57670D01*
X35758Y57686D01*
X35760Y57695D01*
Y57699D01*
X35945Y58501D01*
X36151D01*
X36399Y57432D01*
X36458Y57141D01*
X36466Y57201D01*
X36476Y57259D01*
X36485Y57314D01*
X36493Y57364D01*
X36497Y57384D01*
X36501Y57405D01*
X36503Y57422D01*
X36505Y57437D01*
X36510Y57447D01*
Y57457D01*
X36512Y57462D01*
Y57464D01*
X36710Y58501D01*
X36882D01*
X36541Y56920D01*
D02*
G37*
G36*
X31540Y57586D02*
X31538Y57516D01*
X31534Y57451D01*
X31528Y57393D01*
X31519Y57339D01*
X31511Y57289D01*
X31500Y57245D01*
X31488Y57205D01*
X31475Y57170D01*
X31465Y57141D01*
X31453Y57114D01*
X31442Y57093D01*
X31432Y57076D01*
X31425Y57062D01*
X31419Y57053D01*
X31415Y57047D01*
X31413Y57045D01*
X31388Y57018D01*
X31361Y56995D01*
X31330Y56974D01*
X31298Y56957D01*
X31267Y56943D01*
X31236Y56930D01*
X31205Y56920D01*
X31173Y56912D01*
X31144Y56905D01*
X31117Y56901D01*
X31092Y56897D01*
X31071Y56895D01*
X31055D01*
X31040Y56893D01*
X31030D01*
X30965Y56897D01*
X30907Y56905D01*
X30855Y56920D01*
X30834Y56926D01*
X30813Y56935D01*
X30794Y56943D01*
X30778Y56949D01*
X30765Y56957D01*
X30753Y56964D01*
X30744Y56968D01*
X30738Y56972D01*
X30734Y56976D01*
X30732D01*
X30690Y57012D01*
X30657Y57049D01*
X30628Y57087D01*
X30607Y57124D01*
X30590Y57157D01*
X30584Y57172D01*
X30578Y57185D01*
X30574Y57195D01*
X30572Y57203D01*
X30569Y57207D01*
Y57210D01*
X30555Y57268D01*
X30542Y57330D01*
X30534Y57395D01*
X30530Y57453D01*
X30528Y57480D01*
X30526Y57505D01*
Y57528D01*
X30524Y57549D01*
Y57564D01*
Y57576D01*
Y57584D01*
Y57586D01*
Y58501D01*
X30694D01*
Y57589D01*
Y57534D01*
X30699Y57484D01*
X30703Y57441D01*
X30707Y57399D01*
X30713Y57362D01*
X30721Y57328D01*
X30728Y57299D01*
X30736Y57274D01*
X30744Y57251D01*
X30751Y57232D01*
X30759Y57218D01*
X30765Y57205D01*
X30769Y57197D01*
X30774Y57189D01*
X30778Y57187D01*
Y57185D01*
X30794Y57166D01*
X30813Y57151D01*
X30834Y57137D01*
X30855Y57126D01*
X30899Y57107D01*
X30940Y57095D01*
X30980Y57089D01*
X30998Y57087D01*
X31013Y57085D01*
X31026Y57082D01*
X31042D01*
X31082Y57085D01*
X31117Y57091D01*
X31148Y57099D01*
X31176Y57107D01*
X31198Y57116D01*
X31215Y57124D01*
X31223Y57130D01*
X31228Y57132D01*
X31255Y57153D01*
X31275Y57176D01*
X31294Y57201D01*
X31309Y57224D01*
X31321Y57245D01*
X31330Y57262D01*
X31334Y57274D01*
X31336Y57278D01*
X31342Y57297D01*
X31346Y57320D01*
X31355Y57368D01*
X31361Y57418D01*
X31365Y57470D01*
X31367Y57493D01*
Y57516D01*
Y57537D01*
X31369Y57553D01*
Y57568D01*
Y57580D01*
Y57586D01*
Y57589D01*
Y58501D01*
X31540D01*
Y57586D01*
D02*
G37*
G36*
X37580Y58524D02*
X37638Y58513D01*
X37693Y58499D01*
X37738Y58482D01*
X37759Y58472D01*
X37776Y58463D01*
X37793Y58455D01*
X37805Y58449D01*
X37815Y58443D01*
X37824Y58438D01*
X37828Y58436D01*
X37830Y58434D01*
X37855Y58415D01*
X37878Y58397D01*
X37922Y58353D01*
X37959Y58307D01*
X37990Y58263D01*
X38015Y58224D01*
X38026Y58207D01*
X38034Y58191D01*
X38040Y58178D01*
X38045Y58170D01*
X38049Y58163D01*
Y58161D01*
X38076Y58091D01*
X38097Y58016D01*
X38109Y57943D01*
X38115Y57907D01*
X38120Y57872D01*
X38124Y57841D01*
X38126Y57811D01*
X38128Y57786D01*
Y57764D01*
X38130Y57745D01*
Y57732D01*
Y57722D01*
Y57720D01*
X38126Y57624D01*
X38122Y57580D01*
X38118Y57537D01*
X38111Y57497D01*
X38105Y57459D01*
X38097Y57424D01*
X38088Y57391D01*
X38082Y57362D01*
X38074Y57337D01*
X38068Y57314D01*
X38061Y57297D01*
X38057Y57280D01*
X38053Y57270D01*
X38049Y57264D01*
Y57262D01*
X38032Y57226D01*
X38015Y57195D01*
X37999Y57164D01*
X37982Y57137D01*
X37963Y57112D01*
X37947Y57087D01*
X37930Y57068D01*
X37913Y57049D01*
X37899Y57032D01*
X37884Y57018D01*
X37872Y57007D01*
X37861Y56997D01*
X37853Y56991D01*
X37847Y56985D01*
X37843Y56982D01*
X37840Y56980D01*
X37791Y56951D01*
X37738Y56930D01*
X37686Y56914D01*
X37638Y56903D01*
X37616Y56901D01*
X37597Y56897D01*
X37578Y56895D01*
X37563D01*
X37549Y56893D01*
X37532D01*
X37495Y56895D01*
X37459Y56899D01*
X37424Y56905D01*
X37393Y56914D01*
X37361Y56922D01*
X37332Y56935D01*
X37307Y56945D01*
X37282Y56957D01*
X37261Y56970D01*
X37243Y56980D01*
X37226Y56993D01*
X37211Y57001D01*
X37201Y57010D01*
X37193Y57016D01*
X37189Y57020D01*
X37186Y57022D01*
X37161Y57049D01*
X37137Y57076D01*
X37095Y57141D01*
X37059Y57205D01*
X37032Y57272D01*
X37020Y57301D01*
X37009Y57330D01*
X37003Y57355D01*
X36995Y57378D01*
X36991Y57397D01*
X36987Y57409D01*
X36984Y57420D01*
Y57422D01*
X37157Y57474D01*
X37166Y57437D01*
X37174Y57403D01*
X37182Y57370D01*
X37193Y57341D01*
X37205Y57314D01*
X37216Y57289D01*
X37228Y57266D01*
X37239Y57245D01*
X37251Y57228D01*
X37261Y57212D01*
X37270Y57199D01*
X37278Y57189D01*
X37284Y57180D01*
X37291Y57174D01*
X37293Y57172D01*
X37295Y57170D01*
X37314Y57153D01*
X37334Y57139D01*
X37376Y57114D01*
X37416Y57097D01*
X37453Y57085D01*
X37486Y57078D01*
X37501Y57074D01*
X37513D01*
X37522Y57072D01*
X37536D01*
X37572Y57074D01*
X37603Y57078D01*
X37634Y57087D01*
X37663Y57097D01*
X37691Y57110D01*
X37716Y57122D01*
X37738Y57137D01*
X37759Y57153D01*
X37778Y57168D01*
X37795Y57182D01*
X37807Y57195D01*
X37820Y57207D01*
X37828Y57218D01*
X37834Y57226D01*
X37838Y57230D01*
X37840Y57232D01*
X37859Y57266D01*
X37878Y57299D01*
X37893Y57339D01*
X37905Y57378D01*
X37926Y57457D01*
X37938Y57537D01*
X37943Y57574D01*
X37947Y57609D01*
X37949Y57639D01*
X37951Y57666D01*
X37953Y57689D01*
Y57705D01*
Y57716D01*
Y57720D01*
X37951Y57797D01*
X37947Y57832D01*
X37945Y57866D01*
X37940Y57897D01*
X37934Y57926D01*
X37930Y57953D01*
X37924Y57978D01*
X37920Y57999D01*
X37915Y58018D01*
X37909Y58034D01*
X37905Y58049D01*
X37901Y58059D01*
X37899Y58068D01*
X37897Y58072D01*
Y58074D01*
X37874Y58124D01*
X37849Y58166D01*
X37824Y58203D01*
X37801Y58232D01*
X37780Y58253D01*
X37761Y58270D01*
X37751Y58280D01*
X37747Y58282D01*
X37709Y58305D01*
X37672Y58322D01*
X37634Y58332D01*
X37599Y58340D01*
X37568Y58345D01*
X37543Y58349D01*
X37522D01*
X37474Y58345D01*
X37432Y58334D01*
X37393Y58318D01*
X37357Y58297D01*
X37326Y58272D01*
X37297Y58245D01*
X37272Y58215D01*
X37251Y58184D01*
X37232Y58153D01*
X37216Y58124D01*
X37203Y58097D01*
X37191Y58072D01*
X37184Y58051D01*
X37178Y58034D01*
X37174Y58024D01*
Y58020D01*
X37005Y58068D01*
X37016Y58109D01*
X37028Y58147D01*
X37043Y58182D01*
X37057Y58215D01*
X37074Y58247D01*
X37089Y58274D01*
X37105Y58301D01*
X37120Y58324D01*
X37134Y58343D01*
X37149Y58361D01*
X37161Y58376D01*
X37172Y58388D01*
X37182Y58397D01*
X37189Y58403D01*
X37193Y58407D01*
X37195Y58409D01*
X37220Y58430D01*
X37247Y58449D01*
X37274Y58463D01*
X37303Y58478D01*
X37330Y58490D01*
X37357Y58499D01*
X37407Y58513D01*
X37430Y58518D01*
X37451Y58522D01*
X37470Y58524D01*
X37486Y58526D01*
X37499Y58528D01*
X37549D01*
X37580Y58524D01*
D02*
G37*
G36*
X30222Y56920D02*
X30051D01*
Y57639D01*
X29443D01*
Y57826D01*
X30051D01*
Y58313D01*
X29347D01*
Y58501D01*
X30222D01*
Y56920D01*
D02*
G37*
G36*
X27222D02*
X26729D01*
X26668Y56922D01*
X26614Y56928D01*
X26568Y56935D01*
X26531Y56945D01*
X26500Y56953D01*
X26487Y56957D01*
X26479Y56960D01*
X26470Y56964D01*
X26464Y56966D01*
X26462Y56968D01*
X26460D01*
X26425Y56989D01*
X26393Y57014D01*
X26368Y57041D01*
X26346Y57066D01*
X26327Y57089D01*
X26314Y57110D01*
X26306Y57122D01*
X26304Y57124D01*
Y57126D01*
X26283Y57168D01*
X26268Y57212D01*
X26258Y57253D01*
X26252Y57293D01*
X26246Y57326D01*
Y57341D01*
X26243Y57353D01*
Y57364D01*
Y57372D01*
Y57376D01*
Y57378D01*
X26246Y57430D01*
X26254Y57476D01*
X26264Y57518D01*
X26277Y57553D01*
X26289Y57582D01*
X26300Y57603D01*
X26304Y57609D01*
X26308Y57616D01*
X26310Y57618D01*
Y57620D01*
X26337Y57655D01*
X26364Y57684D01*
X26393Y57709D01*
X26423Y57728D01*
X26448Y57743D01*
X26468Y57753D01*
X26477Y57757D01*
X26483Y57759D01*
X26485Y57761D01*
X26487D01*
X26456Y57782D01*
X26431Y57805D01*
X26408Y57828D01*
X26389Y57851D01*
X26373Y57870D01*
X26362Y57886D01*
X26356Y57897D01*
X26354Y57901D01*
X26337Y57934D01*
X26327Y57968D01*
X26318Y58001D01*
X26312Y58032D01*
X26308Y58057D01*
X26306Y58078D01*
Y58086D01*
Y58093D01*
Y58095D01*
Y58097D01*
X26308Y58141D01*
X26314Y58180D01*
X26325Y58218D01*
X26333Y58249D01*
X26343Y58274D01*
X26354Y58295D01*
X26360Y58307D01*
X26362Y58311D01*
X26383Y58345D01*
X26408Y58376D01*
X26431Y58401D01*
X26454Y58420D01*
X26473Y58436D01*
X26489Y58447D01*
X26500Y58453D01*
X26504Y58455D01*
X26539Y58470D01*
X26577Y58482D01*
X26614Y58490D01*
X26652Y58495D01*
X26685Y58499D01*
X26700D01*
X26712Y58501D01*
X27222D01*
Y56920D01*
D02*
G37*
G36*
X23694Y58088D02*
X23713Y58084D01*
X23730Y58078D01*
X23746Y58072D01*
X23759Y58063D01*
X23767Y58057D01*
X23773Y58053D01*
X23775Y58051D01*
X23792Y58032D01*
X23811Y58009D01*
X23827Y57982D01*
X23842Y57955D01*
X23857Y57930D01*
X23867Y57909D01*
X23869Y57903D01*
X23873Y57897D01*
X23875Y57893D01*
Y58066D01*
X24019D01*
Y56920D01*
X23861D01*
Y57518D01*
X23859Y57564D01*
X23857Y57607D01*
X23852Y57647D01*
X23846Y57684D01*
X23840Y57714D01*
X23836Y57736D01*
X23834Y57745D01*
Y57751D01*
X23832Y57753D01*
Y57755D01*
X23823Y57778D01*
X23815Y57797D01*
X23807Y57814D01*
X23796Y57828D01*
X23788Y57839D01*
X23780Y57847D01*
X23775Y57851D01*
X23773Y57853D01*
X23757Y57866D01*
X23740Y57874D01*
X23725Y57882D01*
X23711Y57886D01*
X23698Y57889D01*
X23688Y57891D01*
X23680D01*
X23659Y57889D01*
X23638Y57884D01*
X23617Y57878D01*
X23600Y57870D01*
X23586Y57861D01*
X23573Y57855D01*
X23565Y57851D01*
X23563Y57849D01*
X23509Y58028D01*
X23540Y58049D01*
X23569Y58063D01*
X23598Y58076D01*
X23621Y58082D01*
X23644Y58086D01*
X23659Y58091D01*
X23673D01*
X23694Y58088D01*
D02*
G37*
G36*
X33737Y58505D02*
X33773Y58499D01*
X33808Y58488D01*
X33837Y58476D01*
X33867Y58459D01*
X33891Y58443D01*
X33916Y58424D01*
X33937Y58405D01*
X33956Y58384D01*
X33973Y58365D01*
X33985Y58349D01*
X33996Y58334D01*
X34006Y58320D01*
X34012Y58309D01*
X34014Y58303D01*
X34016Y58301D01*
X34035Y58261D01*
X34052Y58215D01*
X34066Y58170D01*
X34077Y58122D01*
X34098Y58022D01*
X34104Y57972D01*
X34110Y57924D01*
X34114Y57878D01*
X34116Y57836D01*
X34119Y57797D01*
X34121Y57764D01*
X34123Y57736D01*
Y57716D01*
Y57709D01*
Y57703D01*
Y57701D01*
Y57699D01*
X34121Y57618D01*
X34119Y57545D01*
X34112Y57476D01*
X34104Y57414D01*
X34096Y57355D01*
X34085Y57305D01*
X34075Y57259D01*
X34064Y57218D01*
X34054Y57182D01*
X34044Y57153D01*
X34033Y57128D01*
X34025Y57107D01*
X34016Y57091D01*
X34010Y57080D01*
X34008Y57074D01*
X34006Y57072D01*
X33983Y57041D01*
X33958Y57014D01*
X33933Y56989D01*
X33908Y56968D01*
X33883Y56951D01*
X33858Y56937D01*
X33833Y56924D01*
X33810Y56916D01*
X33789Y56908D01*
X33769Y56903D01*
X33750Y56899D01*
X33735Y56895D01*
X33721D01*
X33712Y56893D01*
X33704D01*
X33667Y56895D01*
X33629Y56901D01*
X33596Y56912D01*
X33567Y56924D01*
X33537Y56941D01*
X33510Y56957D01*
X33487Y56976D01*
X33467Y56995D01*
X33448Y57014D01*
X33431Y57032D01*
X33419Y57049D01*
X33408Y57066D01*
X33398Y57078D01*
X33392Y57089D01*
X33390Y57095D01*
X33387Y57097D01*
X33369Y57139D01*
X33352Y57182D01*
X33337Y57228D01*
X33325Y57278D01*
X33306Y57378D01*
X33298Y57428D01*
X33292Y57476D01*
X33287Y57520D01*
X33285Y57564D01*
X33283Y57601D01*
X33281Y57634D01*
X33279Y57661D01*
Y57682D01*
Y57689D01*
Y57695D01*
Y57697D01*
Y57699D01*
X33281Y57778D01*
X33285Y57853D01*
X33292Y57922D01*
X33300Y57984D01*
X33308Y58043D01*
X33321Y58095D01*
X33331Y58143D01*
X33344Y58184D01*
X33356Y58222D01*
X33367Y58253D01*
X33379Y58280D01*
X33387Y58303D01*
X33396Y58320D01*
X33402Y58330D01*
X33406Y58338D01*
X33408Y58340D01*
X33429Y58370D01*
X33452Y58395D01*
X33475Y58418D01*
X33500Y58436D01*
X33523Y58453D01*
X33548Y58468D01*
X33573Y58478D01*
X33594Y58486D01*
X33635Y58499D01*
X33654Y58503D01*
X33669Y58505D01*
X33683Y58507D01*
X33700D01*
X33737Y58505D01*
D02*
G37*
G36*
X32723D02*
X32752Y58503D01*
X32802Y58488D01*
X32848Y58472D01*
X32888Y58451D01*
X32919Y58428D01*
X32931Y58420D01*
X32942Y58411D01*
X32950Y58403D01*
X32956Y58397D01*
X32958Y58395D01*
X32960Y58393D01*
X32979Y58372D01*
X32994Y58349D01*
X33008Y58324D01*
X33021Y58299D01*
X33040Y58251D01*
X33052Y58205D01*
X33058Y58163D01*
X33060Y58147D01*
X33063Y58130D01*
X33065Y58118D01*
Y58109D01*
Y58103D01*
Y58101D01*
X33063Y58057D01*
X33056Y58018D01*
X33050Y57984D01*
X33040Y57955D01*
X33031Y57930D01*
X33025Y57914D01*
X33019Y57903D01*
X33017Y57899D01*
X32996Y57872D01*
X32973Y57847D01*
X32950Y57826D01*
X32927Y57807D01*
X32906Y57795D01*
X32890Y57784D01*
X32877Y57778D01*
X32873Y57776D01*
X32913Y57759D01*
X32950Y57739D01*
X32979Y57716D01*
X33006Y57693D01*
X33025Y57672D01*
X33040Y57653D01*
X33050Y57641D01*
X33052Y57639D01*
Y57636D01*
X33073Y57597D01*
X33090Y57553D01*
X33100Y57509D01*
X33108Y57468D01*
X33113Y57432D01*
X33115Y57416D01*
Y57403D01*
X33117Y57391D01*
Y57382D01*
Y57378D01*
Y57376D01*
X33115Y57337D01*
X33110Y57299D01*
X33106Y57262D01*
X33098Y57228D01*
X33090Y57197D01*
X33079Y57168D01*
X33067Y57143D01*
X33056Y57118D01*
X33046Y57097D01*
X33033Y57078D01*
X33023Y57062D01*
X33015Y57049D01*
X33006Y57039D01*
X33000Y57030D01*
X32998Y57026D01*
X32996Y57024D01*
X32973Y57001D01*
X32948Y56980D01*
X32921Y56964D01*
X32896Y56949D01*
X32871Y56937D01*
X32846Y56924D01*
X32796Y56910D01*
X32775Y56903D01*
X32754Y56899D01*
X32736Y56897D01*
X32721Y56895D01*
X32706Y56893D01*
X32690D01*
X32656Y56895D01*
X32625Y56899D01*
X32596Y56905D01*
X32567Y56914D01*
X32515Y56935D01*
X32492Y56947D01*
X32471Y56960D01*
X32452Y56970D01*
X32436Y56982D01*
X32421Y56993D01*
X32411Y57003D01*
X32400Y57012D01*
X32394Y57018D01*
X32390Y57022D01*
X32388Y57024D01*
X32367Y57049D01*
X32346Y57078D01*
X32331Y57105D01*
X32317Y57135D01*
X32304Y57164D01*
X32294Y57193D01*
X32279Y57247D01*
X32275Y57272D01*
X32271Y57295D01*
X32269Y57316D01*
X32267Y57334D01*
X32265Y57349D01*
Y57362D01*
Y57368D01*
Y57370D01*
X32267Y57426D01*
X32275Y57474D01*
X32286Y57518D01*
X32296Y57555D01*
X32309Y57586D01*
X32315Y57597D01*
X32319Y57607D01*
X32323Y57616D01*
X32327Y57622D01*
X32329Y57624D01*
Y57626D01*
X32354Y57661D01*
X32384Y57693D01*
X32413Y57720D01*
X32442Y57741D01*
X32469Y57755D01*
X32490Y57768D01*
X32498Y57772D01*
X32504Y57774D01*
X32506Y57776D01*
X32509D01*
X32475Y57795D01*
X32446Y57816D01*
X32421Y57836D01*
X32400Y57855D01*
X32386Y57874D01*
X32373Y57889D01*
X32367Y57897D01*
X32365Y57901D01*
X32348Y57932D01*
X32338Y57963D01*
X32329Y57997D01*
X32323Y58026D01*
X32319Y58053D01*
X32317Y58074D01*
Y58082D01*
Y58088D01*
Y58091D01*
Y58093D01*
X32319Y58126D01*
X32321Y58157D01*
X32334Y58218D01*
X32350Y58268D01*
X32361Y58290D01*
X32371Y58311D01*
X32381Y58328D01*
X32392Y58345D01*
X32400Y58359D01*
X32409Y58370D01*
X32415Y58378D01*
X32421Y58384D01*
X32423Y58388D01*
X32425Y58390D01*
X32446Y58411D01*
X32467Y58430D01*
X32490Y58445D01*
X32513Y58457D01*
X32556Y58478D01*
X32600Y58493D01*
X32638Y58501D01*
X32652Y58503D01*
X32667Y58505D01*
X32677Y58507D01*
X32694D01*
X32723Y58505D01*
D02*
G37*
G36*
X28603Y58526D02*
X28651Y58520D01*
X28695Y58507D01*
X28737Y58495D01*
X28776Y58478D01*
X28814Y58459D01*
X28847Y58438D01*
X28876Y58420D01*
X28905Y58399D01*
X28928Y58378D01*
X28949Y58359D01*
X28968Y58343D01*
X28980Y58330D01*
X28991Y58320D01*
X28997Y58311D01*
X28999Y58309D01*
X29030Y58268D01*
X29057Y58220D01*
X29080Y58172D01*
X29101Y58122D01*
X29118Y58070D01*
X29132Y58018D01*
X29145Y57968D01*
X29153Y57918D01*
X29161Y57872D01*
X29166Y57828D01*
X29170Y57789D01*
X29174Y57755D01*
Y57728D01*
X29176Y57707D01*
Y57699D01*
Y57693D01*
Y57691D01*
Y57689D01*
X29174Y57630D01*
X29170Y57574D01*
X29161Y57520D01*
X29151Y57468D01*
X29139Y57420D01*
X29126Y57374D01*
X29111Y57334D01*
X29097Y57295D01*
X29082Y57262D01*
X29068Y57230D01*
X29055Y57205D01*
X29043Y57182D01*
X29032Y57166D01*
X29024Y57153D01*
X29020Y57145D01*
X29018Y57143D01*
X28984Y57099D01*
X28949Y57060D01*
X28912Y57026D01*
X28872Y56999D01*
X28834Y56974D01*
X28797Y56953D01*
X28759Y56937D01*
X28722Y56924D01*
X28689Y56914D01*
X28657Y56905D01*
X28630Y56901D01*
X28605Y56897D01*
X28585Y56895D01*
X28570Y56893D01*
X28557D01*
X28505Y56895D01*
X28455Y56903D01*
X28410Y56916D01*
X28366Y56930D01*
X28324Y56949D01*
X28287Y56970D01*
X28251Y56991D01*
X28220Y57014D01*
X28193Y57037D01*
X28168Y57057D01*
X28147Y57078D01*
X28128Y57097D01*
X28116Y57112D01*
X28105Y57124D01*
X28099Y57132D01*
X28097Y57135D01*
X28068Y57178D01*
X28045Y57224D01*
X28022Y57270D01*
X28003Y57318D01*
X27989Y57366D01*
X27976Y57414D01*
X27966Y57459D01*
X27958Y57505D01*
X27949Y57547D01*
X27945Y57584D01*
X27941Y57620D01*
X27939Y57649D01*
X27937Y57674D01*
Y57693D01*
Y57703D01*
Y57707D01*
X27941Y57799D01*
X27945Y57843D01*
X27949Y57884D01*
X27956Y57922D01*
X27964Y57959D01*
X27970Y57993D01*
X27978Y58024D01*
X27987Y58051D01*
X27993Y58076D01*
X28001Y58097D01*
X28008Y58113D01*
X28012Y58128D01*
X28016Y58138D01*
X28020Y58145D01*
Y58147D01*
X28053Y58211D01*
X28072Y58243D01*
X28091Y58270D01*
X28110Y58295D01*
X28128Y58318D01*
X28147Y58338D01*
X28164Y58357D01*
X28180Y58374D01*
X28195Y58388D01*
X28210Y58401D01*
X28222Y58411D01*
X28230Y58420D01*
X28239Y58426D01*
X28243Y58428D01*
X28245Y58430D01*
X28272Y58447D01*
X28299Y58463D01*
X28353Y58486D01*
X28405Y58505D01*
X28453Y58515D01*
X28474Y58520D01*
X28493Y58524D01*
X28512Y58526D01*
X28526D01*
X28539Y58528D01*
X28555D01*
X28603Y58526D01*
D02*
G37*
G36*
X25687Y58088D02*
X25721Y58084D01*
X25752Y58076D01*
X25783Y58068D01*
X25835Y58043D01*
X25860Y58028D01*
X25881Y58016D01*
X25902Y58001D01*
X25919Y57986D01*
X25933Y57974D01*
X25946Y57961D01*
X25956Y57953D01*
X25962Y57945D01*
X25966Y57941D01*
X25969Y57938D01*
X25989Y57909D01*
X26008Y57876D01*
X26025Y57841D01*
X26039Y57805D01*
X26052Y57768D01*
X26062Y57730D01*
X26077Y57657D01*
X26081Y57624D01*
X26085Y57593D01*
X26087Y57564D01*
X26089Y57539D01*
X26091Y57520D01*
Y57503D01*
Y57495D01*
Y57491D01*
X26089Y57437D01*
X26085Y57387D01*
X26079Y57339D01*
X26073Y57297D01*
X26062Y57255D01*
X26052Y57220D01*
X26041Y57187D01*
X26029Y57155D01*
X26016Y57130D01*
X26006Y57107D01*
X25996Y57087D01*
X25985Y57072D01*
X25979Y57060D01*
X25973Y57049D01*
X25969Y57045D01*
X25966Y57043D01*
X25941Y57016D01*
X25916Y56993D01*
X25891Y56974D01*
X25864Y56955D01*
X25837Y56941D01*
X25812Y56930D01*
X25787Y56920D01*
X25762Y56912D01*
X25739Y56905D01*
X25719Y56901D01*
X25700Y56897D01*
X25683Y56895D01*
X25671D01*
X25660Y56893D01*
X25652D01*
X25617Y56895D01*
X25583Y56899D01*
X25552Y56908D01*
X25523Y56916D01*
X25494Y56928D01*
X25469Y56941D01*
X25444Y56953D01*
X25423Y56968D01*
X25404Y56982D01*
X25385Y56995D01*
X25371Y57007D01*
X25360Y57020D01*
X25350Y57028D01*
X25344Y57037D01*
X25340Y57041D01*
X25337Y57043D01*
X25315Y57074D01*
X25296Y57105D01*
X25279Y57143D01*
X25265Y57178D01*
X25252Y57218D01*
X25244Y57255D01*
X25227Y57330D01*
X25223Y57366D01*
X25219Y57397D01*
X25217Y57426D01*
X25215Y57453D01*
X25212Y57474D01*
Y57491D01*
Y57499D01*
Y57503D01*
X25215Y57555D01*
X25219Y57603D01*
X25225Y57649D01*
X25231Y57691D01*
X25242Y57730D01*
X25252Y57766D01*
X25265Y57799D01*
X25275Y57828D01*
X25287Y57853D01*
X25300Y57876D01*
X25310Y57895D01*
X25319Y57911D01*
X25327Y57922D01*
X25333Y57932D01*
X25337Y57936D01*
X25340Y57938D01*
X25365Y57966D01*
X25390Y57988D01*
X25414Y58009D01*
X25442Y58026D01*
X25469Y58041D01*
X25494Y58053D01*
X25519Y58063D01*
X25544Y58072D01*
X25567Y58078D01*
X25587Y58082D01*
X25604Y58086D01*
X25621Y58088D01*
X25633Y58091D01*
X25652D01*
X25687Y58088D01*
D02*
G37*
G36*
X22821Y57932D02*
X22840Y57957D01*
X22859Y57980D01*
X22878Y58001D01*
X22894Y58018D01*
X22911Y58030D01*
X22923Y58038D01*
X22932Y58045D01*
X22934Y58047D01*
X22959Y58061D01*
X22984Y58072D01*
X23009Y58080D01*
X23032Y58084D01*
X23051Y58088D01*
X23067Y58091D01*
X23080D01*
X23119Y58088D01*
X23157Y58080D01*
X23192Y58070D01*
X23221Y58057D01*
X23246Y58045D01*
X23263Y58034D01*
X23275Y58026D01*
X23278Y58024D01*
X23280D01*
X23311Y57997D01*
X23340Y57963D01*
X23365Y57930D01*
X23386Y57899D01*
X23400Y57868D01*
X23413Y57845D01*
X23417Y57834D01*
X23421Y57828D01*
X23423Y57824D01*
Y57822D01*
X23440Y57770D01*
X23453Y57714D01*
X23463Y57657D01*
X23469Y57605D01*
X23471Y57582D01*
X23473Y57559D01*
Y57541D01*
X23475Y57524D01*
Y57509D01*
Y57499D01*
Y57493D01*
Y57491D01*
X23473Y57439D01*
X23469Y57391D01*
X23465Y57345D01*
X23457Y57301D01*
X23448Y57262D01*
X23438Y57226D01*
X23425Y57193D01*
X23415Y57164D01*
X23405Y57137D01*
X23392Y57114D01*
X23382Y57095D01*
X23373Y57078D01*
X23365Y57066D01*
X23359Y57057D01*
X23357Y57051D01*
X23355Y57049D01*
X23332Y57022D01*
X23307Y56997D01*
X23284Y56976D01*
X23259Y56960D01*
X23234Y56943D01*
X23211Y56930D01*
X23188Y56920D01*
X23165Y56912D01*
X23126Y56901D01*
X23109Y56897D01*
X23094Y56895D01*
X23084D01*
X23076Y56893D01*
X23067D01*
X23038Y56895D01*
X23011Y56899D01*
X22986Y56908D01*
X22965Y56916D01*
X22946Y56922D01*
X22934Y56930D01*
X22923Y56935D01*
X22921Y56937D01*
X22896Y56955D01*
X22876Y56974D01*
X22855Y56997D01*
X22840Y57016D01*
X22826Y57035D01*
X22817Y57049D01*
X22811Y57060D01*
X22809Y57064D01*
Y56920D01*
X22661D01*
Y58501D01*
X22821D01*
Y57932D01*
D02*
G37*
G36*
X32636Y61278D02*
X32477D01*
Y61501D01*
X32636D01*
Y61278D01*
D02*
G37*
G36*
X28514Y61278D02*
X28355D01*
Y61501D01*
X28514D01*
Y61278D01*
D02*
G37*
G36*
X33642Y59920D02*
X33483D01*
Y60545D01*
Y60582D01*
X33481Y60618D01*
X33477Y60651D01*
X33473Y60680D01*
X33467Y60707D01*
X33460Y60732D01*
X33454Y60753D01*
X33448Y60772D01*
X33442Y60789D01*
X33435Y60803D01*
X33429Y60816D01*
X33423Y60824D01*
X33419Y60832D01*
X33415Y60836D01*
X33412Y60841D01*
X33383Y60868D01*
X33354Y60889D01*
X33325Y60903D01*
X33296Y60914D01*
X33273Y60920D01*
X33252Y60922D01*
X33240Y60924D01*
X33235D01*
X33202Y60922D01*
X33173Y60914D01*
X33148Y60903D01*
X33127Y60891D01*
X33110Y60878D01*
X33100Y60868D01*
X33092Y60859D01*
X33090Y60857D01*
X33071Y60830D01*
X33058Y60797D01*
X33048Y60761D01*
X33042Y60726D01*
X33038Y60695D01*
Y60680D01*
X33035Y60670D01*
Y60659D01*
Y60651D01*
Y60647D01*
Y60645D01*
Y59920D01*
X32877D01*
Y60645D01*
Y60691D01*
X32881Y60732D01*
X32886Y60772D01*
X32892Y60807D01*
X32898Y60839D01*
X32904Y60868D01*
X32913Y60893D01*
X32921Y60916D01*
X32929Y60934D01*
X32938Y60951D01*
X32944Y60966D01*
X32950Y60976D01*
X32956Y60984D01*
X32960Y60991D01*
X32963Y60993D01*
X32965Y60995D01*
X32981Y61011D01*
X33000Y61026D01*
X33038Y61051D01*
X33077Y61068D01*
X33117Y61078D01*
X33150Y61086D01*
X33165Y61088D01*
X33177D01*
X33188Y61091D01*
X33202D01*
X33233Y61088D01*
X33262Y61084D01*
X33290Y61078D01*
X33312Y61072D01*
X33331Y61063D01*
X33346Y61057D01*
X33354Y61053D01*
X33358Y61051D01*
X33383Y61034D01*
X33408Y61016D01*
X33429Y60997D01*
X33448Y60976D01*
X33462Y60959D01*
X33473Y60945D01*
X33481Y60936D01*
X33483Y60932D01*
Y61501D01*
X33642D01*
Y59920D01*
D02*
G37*
G36*
X29520Y59920D02*
X29361D01*
Y60545D01*
Y60582D01*
X29359Y60618D01*
X29355Y60651D01*
X29351Y60680D01*
X29345Y60707D01*
X29338Y60732D01*
X29332Y60753D01*
X29326Y60772D01*
X29320Y60789D01*
X29313Y60803D01*
X29307Y60816D01*
X29301Y60824D01*
X29297Y60832D01*
X29293Y60836D01*
X29291Y60841D01*
X29261Y60868D01*
X29232Y60889D01*
X29203Y60903D01*
X29174Y60914D01*
X29151Y60920D01*
X29130Y60922D01*
X29118Y60924D01*
X29114D01*
X29080Y60922D01*
X29051Y60914D01*
X29026Y60903D01*
X29005Y60891D01*
X28989Y60878D01*
X28978Y60868D01*
X28970Y60859D01*
X28968Y60857D01*
X28949Y60830D01*
X28937Y60797D01*
X28926Y60761D01*
X28920Y60726D01*
X28916Y60695D01*
Y60680D01*
X28914Y60670D01*
Y60659D01*
Y60651D01*
Y60647D01*
Y60645D01*
Y59920D01*
X28755D01*
Y60645D01*
Y60691D01*
X28759Y60732D01*
X28764Y60772D01*
X28770Y60807D01*
X28776Y60839D01*
X28782Y60868D01*
X28791Y60893D01*
X28799Y60916D01*
X28807Y60934D01*
X28816Y60951D01*
X28822Y60966D01*
X28828Y60976D01*
X28834Y60984D01*
X28839Y60991D01*
X28841Y60993D01*
X28843Y60995D01*
X28859Y61011D01*
X28878Y61026D01*
X28916Y61051D01*
X28955Y61068D01*
X28995Y61078D01*
X29028Y61086D01*
X29043Y61088D01*
X29055D01*
X29066Y61091D01*
X29080D01*
X29111Y61088D01*
X29141Y61084D01*
X29168Y61078D01*
X29191Y61072D01*
X29209Y61063D01*
X29224Y61057D01*
X29232Y61053D01*
X29236Y61051D01*
X29261Y61034D01*
X29286Y61016D01*
X29307Y60997D01*
X29326Y60976D01*
X29341Y60959D01*
X29351Y60945D01*
X29359Y60936D01*
X29361Y60932D01*
Y61501D01*
X29520D01*
Y59920D01*
D02*
G37*
G36*
X30976Y59920D02*
X30803Y59920D01*
X30526Y61124D01*
X30519Y61155D01*
X30511Y61186D01*
X30505Y61218D01*
X30501Y61247D01*
X30494Y61272D01*
X30492Y61293D01*
X30488Y61305D01*
Y61307D01*
Y61309D01*
X30447Y61124D01*
X30174Y59920D01*
X30007D01*
X29651Y61501D01*
X29824D01*
X30028Y60484D01*
X30042Y60416D01*
X30055Y60351D01*
X30065Y60293D01*
X30070Y60266D01*
X30076Y60241D01*
X30078Y60220D01*
X30082Y60199D01*
X30086Y60182D01*
X30088Y60168D01*
X30090Y60155D01*
Y60147D01*
X30092Y60143D01*
Y60141D01*
X30107Y60241D01*
X30122Y60341D01*
X30130Y60389D01*
X30140Y60434D01*
X30149Y60478D01*
X30155Y60520D01*
X30163Y60557D01*
X30172Y60593D01*
X30178Y60624D01*
X30184Y60649D01*
X30188Y60670D01*
X30192Y60686D01*
X30195Y60695D01*
Y60699D01*
X30380Y61501D01*
X30586D01*
X30834Y60432D01*
X30892Y60141D01*
X30901Y60201D01*
X30911Y60259D01*
X30919Y60314D01*
X30928Y60364D01*
X30932Y60384D01*
X30936Y60405D01*
X30938Y60422D01*
X30940Y60437D01*
X30944Y60447D01*
Y60457D01*
X30946Y60462D01*
Y60464D01*
X31144Y61501D01*
X31317D01*
X30976Y59920D01*
D02*
G37*
G36*
X34429Y61524D02*
X34487Y61513D01*
X34541Y61499D01*
X34587Y61482D01*
X34608Y61472D01*
X34625Y61463D01*
X34641Y61455D01*
X34654Y61449D01*
X34664Y61443D01*
X34673Y61438D01*
X34677Y61436D01*
X34679Y61434D01*
X34704Y61415D01*
X34727Y61397D01*
X34770Y61353D01*
X34808Y61307D01*
X34839Y61263D01*
X34864Y61224D01*
X34875Y61207D01*
X34883Y61191D01*
X34889Y61178D01*
X34893Y61170D01*
X34897Y61163D01*
Y61161D01*
X34925Y61091D01*
X34945Y61016D01*
X34958Y60943D01*
X34964Y60907D01*
X34968Y60872D01*
X34972Y60841D01*
X34975Y60811D01*
X34977Y60786D01*
Y60764D01*
X34979Y60745D01*
Y60732D01*
Y60722D01*
Y60720D01*
X34975Y60624D01*
X34970Y60580D01*
X34966Y60537D01*
X34960Y60497D01*
X34954Y60459D01*
X34945Y60424D01*
X34937Y60391D01*
X34931Y60362D01*
X34922Y60337D01*
X34916Y60314D01*
X34910Y60297D01*
X34906Y60280D01*
X34902Y60270D01*
X34897Y60264D01*
Y60262D01*
X34881Y60226D01*
X34864Y60195D01*
X34847Y60164D01*
X34831Y60137D01*
X34812Y60112D01*
X34795Y60087D01*
X34779Y60068D01*
X34762Y60049D01*
X34748Y60032D01*
X34733Y60018D01*
X34720Y60007D01*
X34710Y59997D01*
X34702Y59991D01*
X34695Y59985D01*
X34691Y59982D01*
X34689Y59980D01*
X34639Y59951D01*
X34587Y59930D01*
X34535Y59914D01*
X34487Y59903D01*
X34464Y59901D01*
X34446Y59897D01*
X34427Y59895D01*
X34412D01*
X34398Y59893D01*
X34381D01*
X34343Y59895D01*
X34308Y59899D01*
X34273Y59905D01*
X34241Y59914D01*
X34210Y59922D01*
X34181Y59935D01*
X34156Y59945D01*
X34131Y59957D01*
X34110Y59970D01*
X34091Y59980D01*
X34075Y59993D01*
X34060Y60001D01*
X34050Y60010D01*
X34041Y60016D01*
X34037Y60020D01*
X34035Y60022D01*
X34010Y60049D01*
X33985Y60076D01*
X33944Y60141D01*
X33908Y60205D01*
X33881Y60272D01*
X33869Y60301D01*
X33858Y60330D01*
X33852Y60355D01*
X33844Y60378D01*
X33839Y60397D01*
X33835Y60409D01*
X33833Y60420D01*
Y60422D01*
X34006Y60474D01*
X34014Y60437D01*
X34023Y60403D01*
X34031Y60370D01*
X34041Y60341D01*
X34054Y60314D01*
X34064Y60289D01*
X34077Y60266D01*
X34087Y60245D01*
X34100Y60228D01*
X34110Y60212D01*
X34119Y60199D01*
X34127Y60189D01*
X34133Y60180D01*
X34139Y60174D01*
X34141Y60172D01*
X34144Y60170D01*
X34162Y60153D01*
X34183Y60139D01*
X34225Y60114D01*
X34264Y60097D01*
X34302Y60085D01*
X34335Y60078D01*
X34350Y60074D01*
X34362D01*
X34371Y60072D01*
X34385D01*
X34421Y60074D01*
X34452Y60078D01*
X34483Y60087D01*
X34512Y60097D01*
X34539Y60110D01*
X34564Y60122D01*
X34587Y60137D01*
X34608Y60153D01*
X34627Y60168D01*
X34643Y60182D01*
X34656Y60195D01*
X34668Y60207D01*
X34677Y60218D01*
X34683Y60226D01*
X34687Y60230D01*
X34689Y60232D01*
X34708Y60266D01*
X34727Y60299D01*
X34741Y60339D01*
X34754Y60378D01*
X34775Y60457D01*
X34787Y60537D01*
X34791Y60574D01*
X34795Y60609D01*
X34798Y60639D01*
X34800Y60666D01*
X34802Y60689D01*
Y60705D01*
Y60716D01*
Y60720D01*
X34800Y60797D01*
X34795Y60832D01*
X34793Y60866D01*
X34789Y60897D01*
X34783Y60926D01*
X34779Y60953D01*
X34773Y60978D01*
X34768Y60999D01*
X34764Y61018D01*
X34758Y61034D01*
X34754Y61049D01*
X34750Y61059D01*
X34748Y61068D01*
X34745Y61072D01*
Y61074D01*
X34723Y61124D01*
X34698Y61166D01*
X34673Y61203D01*
X34650Y61232D01*
X34629Y61253D01*
X34610Y61270D01*
X34600Y61280D01*
X34595Y61282D01*
X34558Y61305D01*
X34521Y61322D01*
X34483Y61332D01*
X34448Y61340D01*
X34416Y61345D01*
X34391Y61349D01*
X34371D01*
X34323Y61345D01*
X34281Y61334D01*
X34241Y61318D01*
X34206Y61297D01*
X34175Y61272D01*
X34146Y61245D01*
X34121Y61215D01*
X34100Y61184D01*
X34081Y61153D01*
X34064Y61124D01*
X34052Y61097D01*
X34039Y61072D01*
X34033Y61051D01*
X34027Y61034D01*
X34023Y61024D01*
Y61020D01*
X33854Y61068D01*
X33864Y61109D01*
X33877Y61147D01*
X33891Y61182D01*
X33906Y61215D01*
X33923Y61247D01*
X33937Y61274D01*
X33954Y61301D01*
X33969Y61324D01*
X33983Y61343D01*
X33998Y61361D01*
X34010Y61376D01*
X34021Y61388D01*
X34031Y61397D01*
X34037Y61403D01*
X34041Y61407D01*
X34044Y61409D01*
X34069Y61430D01*
X34096Y61449D01*
X34123Y61463D01*
X34152Y61478D01*
X34179Y61490D01*
X34206Y61499D01*
X34256Y61513D01*
X34279Y61518D01*
X34300Y61522D01*
X34318Y61524D01*
X34335Y61526D01*
X34348Y61528D01*
X34398D01*
X34429Y61524D01*
D02*
G37*
G36*
X25850Y61088D02*
X25883Y61084D01*
X25914Y61076D01*
X25946Y61066D01*
X25998Y61041D01*
X26023Y61028D01*
X26044Y61013D01*
X26064Y60999D01*
X26081Y60984D01*
X26096Y60970D01*
X26108Y60959D01*
X26118Y60949D01*
X26125Y60941D01*
X26129Y60936D01*
X26131Y60934D01*
X26152Y60903D01*
X26171Y60870D01*
X26187Y60834D01*
X26202Y60797D01*
X26214Y60759D01*
X26225Y60722D01*
X26239Y60649D01*
X26243Y60614D01*
X26248Y60582D01*
X26250Y60553D01*
X26252Y60530D01*
X26254Y60509D01*
Y60493D01*
Y60484D01*
Y60480D01*
X26252Y60428D01*
X26248Y60380D01*
X26243Y60334D01*
X26235Y60291D01*
X26225Y60253D01*
X26214Y60216D01*
X26204Y60185D01*
X26191Y60155D01*
X26181Y60128D01*
X26171Y60105D01*
X26160Y60087D01*
X26150Y60072D01*
X26141Y60060D01*
X26137Y60049D01*
X26133Y60045D01*
X26131Y60043D01*
X26108Y60016D01*
X26081Y59993D01*
X26056Y59974D01*
X26029Y59955D01*
X26002Y59941D01*
X25975Y59930D01*
X25948Y59920D01*
X25923Y59912D01*
X25900Y59905D01*
X25877Y59901D01*
X25858Y59897D01*
X25841Y59895D01*
X25827D01*
X25816Y59893D01*
X25808D01*
X25779Y59895D01*
X25752Y59897D01*
X25700Y59908D01*
X25654Y59922D01*
X25617Y59939D01*
X25585Y59955D01*
X25573Y59964D01*
X25562Y59970D01*
X25554Y59976D01*
X25548Y59980D01*
X25546Y59985D01*
X25544D01*
X25525Y60003D01*
X25506Y60024D01*
X25475Y60068D01*
X25448Y60114D01*
X25427Y60160D01*
X25412Y60199D01*
X25406Y60218D01*
X25402Y60232D01*
X25398Y60247D01*
X25396Y60255D01*
X25394Y60262D01*
Y60264D01*
X25558Y60289D01*
X25573Y60247D01*
X25589Y60212D01*
X25608Y60180D01*
X25627Y60153D01*
X25648Y60130D01*
X25669Y60112D01*
X25689Y60095D01*
X25710Y60082D01*
X25729Y60072D01*
X25748Y60066D01*
X25764Y60060D01*
X25779Y60057D01*
X25791Y60055D01*
X25800Y60053D01*
X25808D01*
X25829Y60055D01*
X25848Y60057D01*
X25885Y60068D01*
X25919Y60085D01*
X25948Y60103D01*
X25971Y60120D01*
X25987Y60137D01*
X25998Y60147D01*
X26002Y60151D01*
X26016Y60170D01*
X26029Y60193D01*
X26050Y60239D01*
X26064Y60287D01*
X26075Y60334D01*
X26083Y60376D01*
X26085Y60395D01*
X26087Y60412D01*
Y60424D01*
X26089Y60434D01*
Y60441D01*
Y60443D01*
X25390D01*
Y60493D01*
X25392Y60545D01*
X25396Y60595D01*
X25400Y60643D01*
X25408Y60684D01*
X25419Y60724D01*
X25429Y60761D01*
X25440Y60795D01*
X25450Y60824D01*
X25462Y60851D01*
X25473Y60874D01*
X25483Y60893D01*
X25494Y60907D01*
X25502Y60920D01*
X25506Y60930D01*
X25510Y60934D01*
X25512Y60936D01*
X25535Y60963D01*
X25560Y60986D01*
X25585Y61007D01*
X25610Y61026D01*
X25635Y61041D01*
X25660Y61053D01*
X25685Y61063D01*
X25708Y61072D01*
X25731Y61078D01*
X25750Y61082D01*
X25769Y61086D01*
X25783Y61088D01*
X25798Y61091D01*
X25814D01*
X25850Y61088D01*
D02*
G37*
G36*
X24242D02*
X24275Y61084D01*
X24306Y61076D01*
X24338Y61066D01*
X24390Y61041D01*
X24415Y61028D01*
X24436Y61013D01*
X24456Y60999D01*
X24473Y60984D01*
X24488Y60970D01*
X24500Y60959D01*
X24511Y60949D01*
X24517Y60941D01*
X24521Y60936D01*
X24523Y60934D01*
X24544Y60903D01*
X24563Y60870D01*
X24579Y60834D01*
X24594Y60797D01*
X24606Y60759D01*
X24617Y60722D01*
X24631Y60649D01*
X24636Y60614D01*
X24640Y60582D01*
X24642Y60553D01*
X24644Y60530D01*
X24646Y60509D01*
Y60493D01*
Y60484D01*
Y60480D01*
X24644Y60428D01*
X24640Y60380D01*
X24636Y60334D01*
X24627Y60291D01*
X24617Y60253D01*
X24606Y60216D01*
X24596Y60185D01*
X24583Y60155D01*
X24573Y60128D01*
X24563Y60105D01*
X24552Y60087D01*
X24542Y60072D01*
X24533Y60060D01*
X24529Y60049D01*
X24525Y60045D01*
X24523Y60043D01*
X24500Y60016D01*
X24473Y59993D01*
X24448Y59974D01*
X24421Y59955D01*
X24394Y59941D01*
X24367Y59930D01*
X24340Y59920D01*
X24315Y59912D01*
X24292Y59905D01*
X24269Y59901D01*
X24250Y59897D01*
X24234Y59895D01*
X24219D01*
X24209Y59893D01*
X24200D01*
X24171Y59895D01*
X24144Y59897D01*
X24092Y59908D01*
X24046Y59922D01*
X24009Y59939D01*
X23977Y59955D01*
X23965Y59964D01*
X23954Y59970D01*
X23946Y59976D01*
X23940Y59980D01*
X23938Y59985D01*
X23936D01*
X23917Y60003D01*
X23898Y60024D01*
X23867Y60068D01*
X23840Y60114D01*
X23819Y60160D01*
X23805Y60199D01*
X23798Y60218D01*
X23794Y60232D01*
X23790Y60247D01*
X23788Y60255D01*
X23786Y60262D01*
Y60264D01*
X23950Y60289D01*
X23965Y60247D01*
X23982Y60212D01*
X24000Y60180D01*
X24019Y60153D01*
X24040Y60130D01*
X24061Y60112D01*
X24082Y60095D01*
X24102Y60082D01*
X24121Y60072D01*
X24140Y60066D01*
X24156Y60060D01*
X24171Y60057D01*
X24184Y60055D01*
X24192Y60053D01*
X24200D01*
X24221Y60055D01*
X24240Y60057D01*
X24277Y60068D01*
X24311Y60085D01*
X24340Y60103D01*
X24363Y60120D01*
X24379Y60137D01*
X24390Y60147D01*
X24394Y60151D01*
X24409Y60170D01*
X24421Y60193D01*
X24442Y60239D01*
X24456Y60287D01*
X24467Y60334D01*
X24475Y60376D01*
X24477Y60395D01*
X24479Y60412D01*
Y60424D01*
X24481Y60434D01*
Y60441D01*
Y60443D01*
X23782D01*
Y60493D01*
X23784Y60545D01*
X23788Y60595D01*
X23792Y60643D01*
X23800Y60684D01*
X23811Y60724D01*
X23821Y60761D01*
X23832Y60795D01*
X23842Y60824D01*
X23854Y60851D01*
X23865Y60874D01*
X23875Y60893D01*
X23886Y60907D01*
X23894Y60920D01*
X23898Y60930D01*
X23902Y60934D01*
X23904Y60936D01*
X23927Y60963D01*
X23952Y60986D01*
X23977Y61007D01*
X24002Y61026D01*
X24027Y61041D01*
X24052Y61053D01*
X24077Y61063D01*
X24100Y61072D01*
X24123Y61078D01*
X24142Y61082D01*
X24161Y61086D01*
X24175Y61088D01*
X24190Y61091D01*
X24206D01*
X24242Y61088D01*
D02*
G37*
G36*
X38130Y59920D02*
X37959D01*
Y60639D01*
X37351D01*
Y60826D01*
X37959D01*
Y61313D01*
X37255D01*
Y61501D01*
X38130D01*
Y59920D01*
D02*
G37*
G36*
X35729Y61088D02*
X35747Y61084D01*
X35764Y61078D01*
X35781Y61072D01*
X35793Y61063D01*
X35801Y61057D01*
X35808Y61053D01*
X35810Y61051D01*
X35826Y61032D01*
X35845Y61009D01*
X35862Y60982D01*
X35876Y60955D01*
X35891Y60930D01*
X35901Y60909D01*
X35903Y60903D01*
X35908Y60897D01*
X35910Y60893D01*
Y61066D01*
X36053D01*
Y59920D01*
X35895D01*
Y60518D01*
X35893Y60564D01*
X35891Y60607D01*
X35887Y60647D01*
X35881Y60684D01*
X35874Y60714D01*
X35870Y60736D01*
X35868Y60745D01*
Y60751D01*
X35866Y60753D01*
Y60755D01*
X35858Y60778D01*
X35849Y60797D01*
X35841Y60814D01*
X35831Y60828D01*
X35822Y60839D01*
X35814Y60847D01*
X35810Y60851D01*
X35808Y60853D01*
X35791Y60866D01*
X35774Y60874D01*
X35760Y60882D01*
X35745Y60886D01*
X35733Y60889D01*
X35722Y60891D01*
X35714D01*
X35693Y60889D01*
X35672Y60884D01*
X35651Y60878D01*
X35635Y60870D01*
X35620Y60861D01*
X35608Y60855D01*
X35599Y60851D01*
X35597Y60849D01*
X35543Y61028D01*
X35574Y61049D01*
X35604Y61063D01*
X35633Y61076D01*
X35656Y61082D01*
X35679Y61086D01*
X35693Y61091D01*
X35708D01*
X35729Y61088D01*
D02*
G37*
G36*
X32636Y59920D02*
X32477D01*
Y61066D01*
X32636D01*
Y59920D01*
D02*
G37*
G36*
X28514Y59920D02*
X28355D01*
Y61066D01*
X28514D01*
Y59920D01*
D02*
G37*
G36*
X24869Y61088D02*
X24888Y61084D01*
X24904Y61078D01*
X24921Y61072D01*
X24933Y61063D01*
X24942Y61057D01*
X24948Y61053D01*
X24950Y61051D01*
X24967Y61032D01*
X24985Y61009D01*
X25002Y60982D01*
X25017Y60955D01*
X25031Y60930D01*
X25042Y60909D01*
X25044Y60903D01*
X25048Y60897D01*
X25050Y60893D01*
Y61066D01*
X25194D01*
Y59920D01*
X25035D01*
Y60518D01*
X25033Y60564D01*
X25031Y60607D01*
X25027Y60647D01*
X25021Y60684D01*
X25015Y60714D01*
X25010Y60736D01*
X25008Y60745D01*
Y60751D01*
X25006Y60753D01*
Y60755D01*
X24998Y60778D01*
X24990Y60797D01*
X24981Y60814D01*
X24971Y60828D01*
X24963Y60839D01*
X24954Y60847D01*
X24950Y60851D01*
X24948Y60853D01*
X24931Y60866D01*
X24915Y60874D01*
X24900Y60882D01*
X24885Y60886D01*
X24873Y60889D01*
X24863Y60891D01*
X24854D01*
X24833Y60889D01*
X24813Y60884D01*
X24792Y60878D01*
X24775Y60870D01*
X24760Y60861D01*
X24748Y60855D01*
X24740Y60851D01*
X24738Y60849D01*
X24683Y61028D01*
X24715Y61049D01*
X24744Y61063D01*
X24773Y61076D01*
X24796Y61082D01*
X24819Y61086D01*
X24833Y61091D01*
X24848D01*
X24869Y61088D01*
D02*
G37*
G36*
X23261D02*
X23280Y61084D01*
X23296Y61078D01*
X23313Y61072D01*
X23325Y61063D01*
X23334Y61057D01*
X23340Y61053D01*
X23342Y61051D01*
X23359Y61032D01*
X23378Y61009D01*
X23394Y60982D01*
X23409Y60955D01*
X23423Y60930D01*
X23434Y60909D01*
X23436Y60903D01*
X23440Y60897D01*
X23442Y60893D01*
Y61066D01*
X23586D01*
Y59920D01*
X23428D01*
Y60518D01*
X23425Y60564D01*
X23423Y60607D01*
X23419Y60647D01*
X23413Y60684D01*
X23407Y60714D01*
X23403Y60736D01*
X23400Y60745D01*
Y60751D01*
X23398Y60753D01*
Y60755D01*
X23390Y60778D01*
X23382Y60797D01*
X23373Y60814D01*
X23363Y60828D01*
X23355Y60839D01*
X23346Y60847D01*
X23342Y60851D01*
X23340Y60853D01*
X23323Y60866D01*
X23307Y60874D01*
X23292Y60882D01*
X23278Y60886D01*
X23265Y60889D01*
X23255Y60891D01*
X23246D01*
X23225Y60889D01*
X23205Y60884D01*
X23184Y60878D01*
X23167Y60870D01*
X23153Y60861D01*
X23140Y60855D01*
X23132Y60851D01*
X23130Y60849D01*
X23076Y61028D01*
X23107Y61049D01*
X23136Y61063D01*
X23165Y61076D01*
X23188Y61082D01*
X23211Y61086D01*
X23225Y61091D01*
X23240D01*
X23261Y61088D01*
D02*
G37*
G36*
X36716Y61088D02*
X36749Y61084D01*
X36780Y61076D01*
X36812Y61068D01*
X36864Y61043D01*
X36889Y61028D01*
X36909Y61016D01*
X36930Y61001D01*
X36947Y60986D01*
X36962Y60974D01*
X36974Y60961D01*
X36984Y60953D01*
X36991Y60945D01*
X36995Y60941D01*
X36997Y60938D01*
X37018Y60909D01*
X37037Y60876D01*
X37053Y60841D01*
X37068Y60805D01*
X37080Y60768D01*
X37091Y60730D01*
X37105Y60657D01*
X37109Y60624D01*
X37114Y60593D01*
X37116Y60564D01*
X37118Y60539D01*
X37120Y60520D01*
Y60503D01*
Y60495D01*
Y60491D01*
X37118Y60437D01*
X37114Y60387D01*
X37107Y60339D01*
X37101Y60297D01*
X37091Y60255D01*
X37080Y60220D01*
X37070Y60187D01*
X37057Y60155D01*
X37045Y60130D01*
X37034Y60107D01*
X37024Y60087D01*
X37014Y60072D01*
X37007Y60060D01*
X37001Y60049D01*
X36997Y60045D01*
X36995Y60043D01*
X36970Y60016D01*
X36945Y59993D01*
X36920Y59974D01*
X36893Y59955D01*
X36866Y59941D01*
X36841Y59930D01*
X36816Y59920D01*
X36791Y59912D01*
X36768Y59905D01*
X36747Y59901D01*
X36728Y59897D01*
X36712Y59895D01*
X36699D01*
X36689Y59893D01*
X36680D01*
X36645Y59895D01*
X36612Y59899D01*
X36580Y59908D01*
X36551Y59916D01*
X36522Y59928D01*
X36497Y59941D01*
X36472Y59953D01*
X36451Y59968D01*
X36433Y59982D01*
X36414Y59995D01*
X36399Y60007D01*
X36389Y60020D01*
X36378Y60028D01*
X36372Y60037D01*
X36368Y60041D01*
X36366Y60043D01*
X36343Y60074D01*
X36324Y60105D01*
X36308Y60143D01*
X36293Y60178D01*
X36280Y60218D01*
X36272Y60255D01*
X36255Y60330D01*
X36251Y60366D01*
X36247Y60397D01*
X36245Y60426D01*
X36243Y60453D01*
X36241Y60474D01*
Y60491D01*
Y60499D01*
Y60503D01*
X36243Y60555D01*
X36247Y60603D01*
X36253Y60649D01*
X36260Y60691D01*
X36270Y60730D01*
X36280Y60766D01*
X36293Y60799D01*
X36303Y60828D01*
X36316Y60853D01*
X36328Y60876D01*
X36339Y60895D01*
X36347Y60911D01*
X36355Y60922D01*
X36362Y60932D01*
X36366Y60936D01*
X36368Y60938D01*
X36393Y60966D01*
X36418Y60988D01*
X36443Y61009D01*
X36470Y61026D01*
X36497Y61041D01*
X36522Y61053D01*
X36547Y61063D01*
X36572Y61072D01*
X36595Y61078D01*
X36616Y61082D01*
X36632Y61086D01*
X36649Y61088D01*
X36662Y61091D01*
X36680D01*
X36716Y61088D01*
D02*
G37*
G36*
X27851Y61086D02*
X27903Y61076D01*
X27947Y61061D01*
X27985Y61045D01*
X28014Y61026D01*
X28035Y61011D01*
X28041Y61005D01*
X28047Y61001D01*
X28049Y60999D01*
X28051Y60997D01*
X28068Y60980D01*
X28083Y60961D01*
X28105Y60922D01*
X28122Y60882D01*
X28133Y60845D01*
X28141Y60811D01*
X28143Y60797D01*
Y60784D01*
X28145Y60774D01*
Y60766D01*
Y60761D01*
Y60759D01*
X28143Y60728D01*
X28139Y60699D01*
X28135Y60674D01*
X28128Y60651D01*
X28122Y60632D01*
X28116Y60620D01*
X28114Y60609D01*
X28112Y60607D01*
X28097Y60584D01*
X28080Y60564D01*
X28066Y60545D01*
X28049Y60530D01*
X28035Y60518D01*
X28024Y60509D01*
X28016Y60503D01*
X28014Y60501D01*
X28001Y60493D01*
X27985Y60487D01*
X27949Y60470D01*
X27908Y60453D01*
X27866Y60437D01*
X27828Y60424D01*
X27812Y60418D01*
X27795Y60414D01*
X27783Y60409D01*
X27774Y60405D01*
X27768Y60403D01*
X27766D01*
X27743Y60397D01*
X27722Y60391D01*
X27687Y60378D01*
X27660Y60366D01*
X27639Y60357D01*
X27622Y60349D01*
X27612Y60343D01*
X27608Y60341D01*
X27606Y60339D01*
X27589Y60324D01*
X27576Y60305D01*
X27568Y60289D01*
X27562Y60272D01*
X27558Y60255D01*
X27556Y60243D01*
Y60235D01*
Y60232D01*
X27558Y60205D01*
X27564Y60180D01*
X27574Y60157D01*
X27585Y60139D01*
X27595Y60124D01*
X27606Y60114D01*
X27612Y60105D01*
X27614Y60103D01*
X27637Y60087D01*
X27662Y60074D01*
X27689Y60066D01*
X27714Y60060D01*
X27737Y60055D01*
X27756Y60053D01*
X27772D01*
X27810Y60055D01*
X27843Y60062D01*
X27870Y60072D01*
X27895Y60082D01*
X27914Y60091D01*
X27926Y60101D01*
X27937Y60107D01*
X27939Y60110D01*
X27960Y60135D01*
X27976Y60162D01*
X27991Y60193D01*
X27999Y60222D01*
X28006Y60247D01*
X28012Y60270D01*
Y60276D01*
X28014Y60282D01*
Y60287D01*
Y60289D01*
X28172Y60262D01*
X28166Y60228D01*
X28160Y60197D01*
X28141Y60141D01*
X28116Y60091D01*
X28089Y60049D01*
X28060Y60014D01*
X28026Y59982D01*
X27993Y59960D01*
X27958Y59939D01*
X27924Y59924D01*
X27893Y59912D01*
X27862Y59903D01*
X27837Y59899D01*
X27814Y59895D01*
X27797Y59893D01*
X27783D01*
X27749Y59895D01*
X27718Y59897D01*
X27662Y59910D01*
X27612Y59924D01*
X27591Y59935D01*
X27572Y59943D01*
X27556Y59953D01*
X27539Y59962D01*
X27526Y59970D01*
X27516Y59978D01*
X27508Y59985D01*
X27501Y59989D01*
X27499Y59991D01*
X27497Y59993D01*
X27479Y60014D01*
X27462Y60035D01*
X27449Y60055D01*
X27437Y60078D01*
X27418Y60122D01*
X27406Y60164D01*
X27399Y60201D01*
X27395Y60218D01*
Y60232D01*
X27393Y60243D01*
Y60253D01*
Y60257D01*
Y60259D01*
X27395Y60293D01*
X27397Y60322D01*
X27404Y60347D01*
X27410Y60370D01*
X27416Y60387D01*
X27420Y60401D01*
X27424Y60409D01*
X27426Y60412D01*
X27439Y60434D01*
X27454Y60455D01*
X27468Y60472D01*
X27483Y60487D01*
X27495Y60499D01*
X27506Y60507D01*
X27514Y60512D01*
X27516Y60514D01*
X27529Y60522D01*
X27543Y60528D01*
X27562Y60537D01*
X27581Y60545D01*
X27622Y60562D01*
X27666Y60578D01*
X27706Y60593D01*
X27724Y60599D01*
X27741Y60603D01*
X27753Y60607D01*
X27764Y60611D01*
X27770Y60614D01*
X27772D01*
X27797Y60622D01*
X27820Y60630D01*
X27841Y60639D01*
X27860Y60645D01*
X27876Y60651D01*
X27891Y60657D01*
X27912Y60666D01*
X27928Y60674D01*
X27939Y60678D01*
X27943Y60682D01*
X27945D01*
X27962Y60697D01*
X27972Y60714D01*
X27981Y60730D01*
X27987Y60747D01*
X27991Y60761D01*
X27993Y60772D01*
Y60780D01*
Y60782D01*
X27991Y60805D01*
X27985Y60826D01*
X27976Y60845D01*
X27968Y60859D01*
X27960Y60872D01*
X27951Y60880D01*
X27945Y60886D01*
X27943Y60889D01*
X27922Y60903D01*
X27897Y60914D01*
X27872Y60920D01*
X27847Y60926D01*
X27824Y60928D01*
X27806Y60930D01*
X27789D01*
X27758Y60928D01*
X27728Y60922D01*
X27704Y60914D01*
X27681Y60901D01*
X27662Y60886D01*
X27645Y60872D01*
X27631Y60853D01*
X27618Y60836D01*
X27610Y60820D01*
X27601Y60803D01*
X27595Y60786D01*
X27591Y60772D01*
X27589Y60759D01*
X27587Y60751D01*
X27585Y60745D01*
Y60743D01*
X27429Y60770D01*
X27437Y60811D01*
X27445Y60847D01*
X27456Y60878D01*
X27464Y60903D01*
X27474Y60924D01*
X27483Y60936D01*
X27487Y60947D01*
X27489Y60949D01*
X27506Y60972D01*
X27524Y60993D01*
X27545Y61009D01*
X27564Y61024D01*
X27583Y61036D01*
X27597Y61045D01*
X27606Y61049D01*
X27610Y61051D01*
X27641Y61063D01*
X27672Y61074D01*
X27704Y61080D01*
X27731Y61086D01*
X27756Y61088D01*
X27776Y61091D01*
X27822D01*
X27851Y61086D01*
D02*
G37*
G36*
X31850Y61088D02*
X31880Y61084D01*
X31905Y61078D01*
X31927Y61070D01*
X31946Y61061D01*
X31959Y61055D01*
X31969Y61051D01*
X31971Y61049D01*
X31994Y61032D01*
X32017Y61011D01*
X32036Y60988D01*
X32054Y60968D01*
X32067Y60947D01*
X32079Y60930D01*
X32086Y60920D01*
X32088Y60918D01*
Y61066D01*
X32234D01*
Y59481D01*
X32075D01*
Y60037D01*
X32057Y60012D01*
X32040Y59991D01*
X32021Y59972D01*
X32004Y59957D01*
X31990Y59945D01*
X31977Y59937D01*
X31969Y59932D01*
X31967Y59930D01*
X31942Y59918D01*
X31919Y59910D01*
X31894Y59901D01*
X31873Y59897D01*
X31857Y59895D01*
X31842Y59893D01*
X31830D01*
X31798Y59895D01*
X31769Y59899D01*
X31742Y59908D01*
X31715Y59918D01*
X31667Y59943D01*
X31623Y59972D01*
X31607Y59987D01*
X31590Y59999D01*
X31575Y60014D01*
X31563Y60024D01*
X31555Y60035D01*
X31548Y60043D01*
X31544Y60047D01*
X31542Y60049D01*
X31521Y60080D01*
X31500Y60114D01*
X31486Y60149D01*
X31471Y60187D01*
X31459Y60224D01*
X31448Y60262D01*
X31434Y60334D01*
X31430Y60368D01*
X31425Y60399D01*
X31423Y60428D01*
X31421Y60453D01*
X31419Y60474D01*
Y60489D01*
Y60497D01*
Y60501D01*
X31421Y60568D01*
X31428Y60630D01*
X31438Y60684D01*
X31442Y60709D01*
X31446Y60732D01*
X31453Y60751D01*
X31457Y60770D01*
X31463Y60784D01*
X31467Y60799D01*
X31469Y60809D01*
X31473Y60816D01*
X31475Y60820D01*
Y60822D01*
X31496Y60870D01*
X31521Y60911D01*
X31544Y60945D01*
X31567Y60974D01*
X31588Y60995D01*
X31605Y61011D01*
X31615Y61022D01*
X31617Y61024D01*
X31619D01*
X31652Y61047D01*
X31688Y61063D01*
X31721Y61074D01*
X31752Y61082D01*
X31780Y61086D01*
X31800Y61091D01*
X31819D01*
X31850Y61088D01*
D02*
G37*
G36*
X26822Y61088D02*
X26852Y61084D01*
X26877Y61078D01*
X26900Y61070D01*
X26918Y61061D01*
X26931Y61055D01*
X26941Y61051D01*
X26943Y61049D01*
X26966Y61032D01*
X26989Y61011D01*
X27008Y60988D01*
X27027Y60968D01*
X27039Y60947D01*
X27052Y60930D01*
X27058Y60920D01*
X27060Y60918D01*
Y61066D01*
X27206D01*
Y59481D01*
X27047D01*
Y60037D01*
X27029Y60012D01*
X27012Y59991D01*
X26993Y59972D01*
X26977Y59957D01*
X26962Y59945D01*
X26950Y59937D01*
X26941Y59932D01*
X26939Y59930D01*
X26914Y59918D01*
X26891Y59910D01*
X26866Y59901D01*
X26845Y59897D01*
X26829Y59895D01*
X26814Y59893D01*
X26802D01*
X26770Y59895D01*
X26741Y59899D01*
X26714Y59908D01*
X26687Y59918D01*
X26639Y59943D01*
X26595Y59972D01*
X26579Y59987D01*
X26562Y59999D01*
X26548Y60014D01*
X26535Y60024D01*
X26527Y60035D01*
X26520Y60043D01*
X26516Y60047D01*
X26514Y60049D01*
X26493Y60080D01*
X26473Y60114D01*
X26458Y60149D01*
X26443Y60187D01*
X26431Y60224D01*
X26420Y60262D01*
X26406Y60334D01*
X26402Y60368D01*
X26398Y60399D01*
X26396Y60428D01*
X26393Y60453D01*
X26391Y60474D01*
Y60489D01*
Y60497D01*
Y60501D01*
X26393Y60568D01*
X26400Y60630D01*
X26410Y60684D01*
X26414Y60709D01*
X26418Y60732D01*
X26425Y60751D01*
X26429Y60770D01*
X26435Y60784D01*
X26439Y60799D01*
X26441Y60809D01*
X26445Y60816D01*
X26448Y60820D01*
Y60822D01*
X26468Y60870D01*
X26493Y60911D01*
X26516Y60945D01*
X26539Y60974D01*
X26560Y60995D01*
X26577Y61011D01*
X26587Y61022D01*
X26589Y61024D01*
X26591D01*
X26625Y61047D01*
X26660Y61063D01*
X26693Y61074D01*
X26725Y61082D01*
X26752Y61086D01*
X26772Y61091D01*
X26791D01*
X26822Y61088D01*
D02*
G37*
%LPC*%
G36*
X28059Y28307D02*
X27879D01*
Y28127D01*
X28059D01*
Y27946D01*
Y28307D01*
D02*
G37*
G36*
X30625Y28682D02*
X29607D01*
X30103D01*
X30090Y28681D01*
X30077D01*
X30060Y28679D01*
X30042Y28677D01*
X30003Y28671D01*
X29962Y28662D01*
X29919Y28651D01*
X29877Y28636D01*
X29875D01*
X29872Y28634D01*
X29867Y28631D01*
X29859Y28627D01*
X29839Y28616D01*
X29815Y28601D01*
X29787Y28582D01*
X29760Y28559D01*
X29732Y28531D01*
X29709Y28499D01*
Y28497D01*
X29705Y28496D01*
X29704Y28491D01*
X29699Y28484D01*
X29695Y28476D01*
X29690Y28466D01*
X29679Y28441D01*
X29667Y28411D01*
X29657Y28377D01*
X29649Y28339D01*
X29645Y28299D01*
X29809Y28287D01*
Y28289D01*
Y28292D01*
X29810Y28299D01*
X29812Y28307D01*
X29814Y28317D01*
X29817Y28329D01*
X29825Y28356D01*
X29837Y28384D01*
X29852Y28414D01*
X29872Y28444D01*
X29899Y28469D01*
X29902Y28472D01*
X29907Y28474D01*
X29912Y28479D01*
X29920Y28484D01*
X29930Y28489D01*
X29942Y28494D01*
X29954Y28501D01*
X29969Y28506D01*
X29985Y28511D01*
X30003Y28516D01*
X30023Y28521D01*
X30045Y28526D01*
X30068Y28527D01*
X30093Y28531D01*
X30145D01*
X30158Y28529D01*
X30172Y28527D01*
X30205Y28524D01*
X30242Y28517D01*
X30278Y28507D01*
X30313Y28492D01*
X30330Y28484D01*
X30343Y28474D01*
X30347Y28471D01*
X30355Y28464D01*
X30365Y28452D01*
X30378Y28436D01*
X30392Y28416D01*
X30402Y28392D01*
X30410Y28366D01*
X30413Y28337D01*
Y28334D01*
Y28326D01*
X30410Y28314D01*
X30407Y28297D01*
X30402Y28279D01*
X30393Y28261D01*
X30382Y28242D01*
X30365Y28224D01*
X30362Y28222D01*
X30358Y28219D01*
X30353Y28217D01*
X30347Y28212D01*
X30338Y28207D01*
X30327Y28202D01*
X30315Y28197D01*
X30298Y28191D01*
X30280Y28182D01*
X30260Y28176D01*
X30237Y28167D01*
X30210Y28159D01*
X30180Y28151D01*
X30147Y28142D01*
X30110Y28134D01*
X30108D01*
X30102Y28132D01*
X30090Y28129D01*
X30077Y28126D01*
X30060Y28122D01*
X30040Y28117D01*
X30020Y28112D01*
X29997Y28106D01*
X29950Y28094D01*
X29904Y28081D01*
X29882Y28072D01*
X29860Y28066D01*
X29842Y28059D01*
X29827Y28052D01*
X29825D01*
X29822Y28051D01*
X29817Y28047D01*
X29809Y28042D01*
X29789Y28032D01*
X29764Y28017D01*
X29737Y27997D01*
X29710Y27976D01*
X29684Y27949D01*
X29662Y27921D01*
Y27919D01*
X29660Y27918D01*
X29657Y27913D01*
X29654Y27908D01*
X29645Y27891D01*
X29634Y27869D01*
X29624Y27843D01*
X29615Y27811D01*
X29609Y27778D01*
X29607Y27739D01*
Y27761D01*
Y27739D01*
Y27358D01*
Y27729D01*
X29609Y27723D01*
Y27713D01*
X29610Y27703D01*
X29614Y27678D01*
X29622Y27648D01*
X29632Y27616D01*
X29647Y27581D01*
X29667Y27548D01*
Y27546D01*
X29670Y27544D01*
X29674Y27539D01*
X29677Y27533D01*
X29692Y27516D01*
X29710Y27496D01*
X29734Y27474D01*
X29762Y27451D01*
X29797Y27428D01*
X29835Y27408D01*
X29837D01*
X29840Y27406D01*
X29847Y27403D01*
X29854Y27399D01*
X29865Y27396D01*
X29877Y27393D01*
X29890Y27388D01*
X29907Y27383D01*
X29942Y27374D01*
X29983Y27366D01*
X30030Y27359D01*
X30080Y27358D01*
X29607D01*
X30625D01*
X30097D01*
X30108Y27359D01*
X30123D01*
X30142Y27361D01*
X30160Y27363D01*
X30182Y27364D01*
X30227Y27369D01*
X30277Y27379D01*
X30325Y27391D01*
X30372Y27408D01*
X30373D01*
X30377Y27409D01*
X30383Y27413D01*
X30392Y27418D01*
X30400Y27423D01*
X30412Y27429D01*
X30438Y27446D01*
X30468Y27468D01*
X30498Y27494D01*
X30528Y27526D01*
X30555Y27561D01*
Y27563D01*
X30558Y27566D01*
X30562Y27571D01*
X30565Y27579D01*
X30570Y27589D01*
X30577Y27599D01*
X30582Y27613D01*
X30588Y27628D01*
X30602Y27663D01*
X30613Y27701D01*
X30622Y27746D01*
X30625Y27793D01*
X30465Y27806D01*
Y27804D01*
Y27801D01*
X30463Y27796D01*
Y27789D01*
X30460Y27773D01*
X30455Y27749D01*
X30448Y27724D01*
X30438Y27698D01*
X30427Y27671D01*
X30413Y27646D01*
X30412Y27643D01*
X30405Y27636D01*
X30395Y27624D01*
X30382Y27611D01*
X30363Y27594D01*
X30342Y27578D01*
X30315Y27561D01*
X30285Y27546D01*
X30283D01*
X30282Y27544D01*
X30277Y27543D01*
X30270Y27541D01*
X30262Y27538D01*
X30252Y27534D01*
X30227Y27528D01*
X30198Y27521D01*
X30165Y27514D01*
X30128Y27511D01*
X30088Y27509D01*
X30072D01*
X30053Y27511D01*
X30030Y27513D01*
X30005Y27516D01*
X29975Y27521D01*
X29947Y27528D01*
X29919Y27538D01*
X29917D01*
X29915Y27539D01*
X29907Y27543D01*
X29894Y27549D01*
X29877Y27558D01*
X29859Y27569D01*
X29840Y27583D01*
X29822Y27598D01*
X29807Y27616D01*
X29805Y27618D01*
X29802Y27624D01*
X29795Y27636D01*
X29789Y27649D01*
X29782Y27666D01*
X29775Y27684D01*
X29772Y27704D01*
X29770Y27726D01*
Y27729D01*
Y27736D01*
X29772Y27748D01*
X29775Y27761D01*
X29779Y27778D01*
X29785Y27796D01*
X29795Y27814D01*
X29807Y27831D01*
X29809Y27833D01*
X29814Y27839D01*
X29822Y27848D01*
X29834Y27858D01*
X29850Y27869D01*
X29870Y27881D01*
X29894Y27894D01*
X29922Y27906D01*
X29925Y27908D01*
X29932Y27909D01*
X29939Y27913D01*
X29947Y27914D01*
X29957Y27918D01*
X29970Y27921D01*
X29983Y27926D01*
X30000Y27929D01*
X30018Y27934D01*
X30040Y27941D01*
X30063Y27946D01*
X30090Y27953D01*
X30118Y27959D01*
X30150Y27968D01*
X30152D01*
X30158Y27969D01*
X30167Y27972D01*
X30178Y27974D01*
X30193Y27979D01*
X30208Y27983D01*
X30247Y27994D01*
X30287Y28006D01*
X30328Y28021D01*
X30365Y28034D01*
X30382Y28042D01*
X30397Y28049D01*
X30398D01*
X30400Y28051D01*
X30405Y28054D01*
X30412Y28057D01*
X30428Y28067D01*
X30448Y28082D01*
X30470Y28099D01*
X30493Y28119D01*
X30515Y28142D01*
X30533Y28167D01*
Y28169D01*
X30535Y28171D01*
X30540Y28181D01*
X30547Y28194D01*
X30555Y28214D01*
X30563Y28237D01*
X30570Y28266D01*
X30575Y28296D01*
X30577Y28327D01*
Y28329D01*
Y28332D01*
Y28337D01*
X30575Y28344D01*
X30573Y28362D01*
X30570Y28387D01*
X30563Y28416D01*
X30553Y28446D01*
X30540Y28477D01*
X30522Y28509D01*
Y28511D01*
X30518Y28512D01*
X30512Y28522D01*
X30498Y28539D01*
X30482Y28557D01*
X30458Y28577D01*
X30432Y28599D01*
X30398Y28619D01*
X30362Y28637D01*
X30360D01*
X30357Y28639D01*
X30352Y28642D01*
X30343Y28644D01*
X30333Y28647D01*
X30322Y28652D01*
X30308Y28656D01*
X30293Y28661D01*
X30258Y28667D01*
X30218Y28676D01*
X30173Y28681D01*
X30127Y28682D01*
X30625D01*
D02*
G37*
G36*
X29377Y28661D02*
X29204D01*
X28531Y27654D01*
Y28661D01*
X28367D01*
Y27379D01*
X29377D01*
Y28661D01*
D02*
G37*
G36*
X28059Y27559D02*
X27879D01*
Y27379D01*
X28059D01*
Y27559D01*
D02*
G37*
%LPD*%
G36*
X29214Y27379D02*
X28542D01*
X29214Y28384D01*
Y27379D01*
D02*
G37*
%LPC*%
G36*
X17280Y64147D02*
X17265D01*
X17235Y64145D01*
X17208Y64142D01*
X17155Y64127D01*
X17108Y64107D01*
X17068Y64082D01*
X17038Y64057D01*
X17013Y64037D01*
X16998Y64022D01*
X16993Y64020D01*
Y64017D01*
X16973Y63992D01*
X16955Y63962D01*
X16925Y63902D01*
X16905Y63837D01*
X16893Y63777D01*
X16888Y63747D01*
X16883Y63720D01*
X16880Y63695D01*
Y63675D01*
X16878Y63657D01*
Y63645D01*
Y63635D01*
Y63632D01*
Y63585D01*
X16883Y63540D01*
X16888Y63497D01*
X16895Y63457D01*
X16903Y63422D01*
X16913Y63390D01*
X16923Y63362D01*
X16933Y63335D01*
X16943Y63312D01*
X16953Y63292D01*
X16963Y63277D01*
X16970Y63265D01*
X16978Y63252D01*
X16983Y63245D01*
X16985Y63242D01*
X16988Y63240D01*
X17008Y63217D01*
X17030Y63200D01*
X17053Y63182D01*
X17078Y63167D01*
X17123Y63145D01*
X17165Y63130D01*
X17203Y63122D01*
X17220Y63120D01*
X17233Y63117D01*
X17245Y63115D01*
X17260D01*
X17290Y63117D01*
X17320Y63120D01*
X17373Y63135D01*
X17420Y63155D01*
X17460Y63177D01*
X17493Y63200D01*
X17515Y63220D01*
X17530Y63235D01*
X17533Y63237D01*
X17535Y63240D01*
X17555Y63265D01*
X17570Y63292D01*
X17598Y63355D01*
X17615Y63422D01*
X17630Y63487D01*
X17633Y63517D01*
X17638Y63547D01*
X17640Y63572D01*
Y63595D01*
X17643Y63615D01*
Y63627D01*
Y63637D01*
Y63640D01*
X17640Y63685D01*
X17638Y63727D01*
X17633Y63767D01*
X17625Y63805D01*
X17618Y63837D01*
X17608Y63870D01*
X17598Y63897D01*
X17588Y63922D01*
X17578Y63945D01*
X17568Y63965D01*
X17558Y63980D01*
X17550Y63995D01*
X17543Y64005D01*
X17538Y64012D01*
X17533Y64015D01*
Y64017D01*
X17513Y64040D01*
X17490Y64060D01*
X17468Y64077D01*
X17445Y64092D01*
X17400Y64115D01*
X17358Y64132D01*
X17320Y64140D01*
X17290Y64145D01*
X17280Y64147D01*
D02*
G37*
G36*
X19295Y63617D02*
X19292D01*
Y63530D01*
X19295Y63475D01*
X19297Y63427D01*
X19305Y63387D01*
X19310Y63355D01*
X19317Y63327D01*
X19325Y63310D01*
X19327Y63300D01*
X19330Y63295D01*
X19350Y63257D01*
X19375Y63227D01*
X19402Y63197D01*
X19427Y63175D01*
X19450Y63157D01*
X19470Y63142D01*
X19482Y63135D01*
X19485Y63132D01*
X19487D01*
X19527Y63112D01*
X19570Y63100D01*
X19610Y63090D01*
X19647Y63082D01*
X19680Y63077D01*
X19705Y63075D01*
X19727D01*
X19775Y63077D01*
X19817Y63085D01*
X19855Y63095D01*
X19885Y63107D01*
X19907Y63117D01*
X19925Y63127D01*
X19935Y63135D01*
X19937Y63137D01*
X19960Y63162D01*
X19977Y63187D01*
X19990Y63215D01*
X19997Y63237D01*
X20002Y63260D01*
X20007Y63277D01*
Y63287D01*
Y63292D01*
X20005Y63315D01*
X20002Y63337D01*
X19997Y63355D01*
X19990Y63372D01*
X19985Y63385D01*
X19980Y63397D01*
X19977Y63402D01*
X19975Y63405D01*
X19962Y63422D01*
X19947Y63437D01*
X19917Y63462D01*
X19902Y63470D01*
X19892Y63475D01*
X19885Y63480D01*
X19882D01*
X19857Y63490D01*
X19825Y63500D01*
X19790Y63507D01*
X19757Y63515D01*
X19727Y63520D01*
X19700Y63525D01*
X19690D01*
X19685Y63527D01*
X19677D01*
X19630Y63535D01*
X19587Y63542D01*
X19547Y63550D01*
X19510Y63557D01*
X19475Y63565D01*
X19442Y63572D01*
X19415Y63580D01*
X19390Y63587D01*
X19367Y63592D01*
X19347Y63600D01*
X19330Y63605D01*
X19317Y63610D01*
X19305Y63612D01*
X19297Y63615D01*
X19295Y63617D01*
D02*
G37*
G36*
X9152Y63617D02*
X9150D01*
Y63530D01*
X9152Y63475D01*
X9155Y63427D01*
X9162Y63387D01*
X9167Y63355D01*
X9175Y63327D01*
X9182Y63310D01*
X9185Y63300D01*
X9187Y63295D01*
X9207Y63257D01*
X9232Y63227D01*
X9260Y63197D01*
X9285Y63175D01*
X9307Y63157D01*
X9327Y63142D01*
X9340Y63135D01*
X9342Y63132D01*
X9345D01*
X9385Y63112D01*
X9427Y63100D01*
X9467Y63090D01*
X9505Y63082D01*
X9537Y63077D01*
X9562Y63075D01*
X9585D01*
X9632Y63077D01*
X9675Y63085D01*
X9712Y63095D01*
X9742Y63107D01*
X9765Y63117D01*
X9782Y63127D01*
X9792Y63135D01*
X9795Y63137D01*
X9817Y63162D01*
X9835Y63187D01*
X9847Y63215D01*
X9855Y63237D01*
X9860Y63260D01*
X9865Y63277D01*
Y63287D01*
Y63292D01*
X9862Y63315D01*
X9860Y63337D01*
X9855Y63355D01*
X9847Y63372D01*
X9842Y63385D01*
X9837Y63397D01*
X9835Y63402D01*
X9832Y63405D01*
X9820Y63422D01*
X9805Y63437D01*
X9775Y63462D01*
X9760Y63470D01*
X9750Y63475D01*
X9742Y63480D01*
X9740D01*
X9715Y63490D01*
X9682Y63500D01*
X9647Y63507D01*
X9615Y63515D01*
X9585Y63520D01*
X9557Y63525D01*
X9547D01*
X9542Y63527D01*
X9535D01*
X9487Y63535D01*
X9445Y63542D01*
X9405Y63550D01*
X9367Y63557D01*
X9332Y63565D01*
X9300Y63572D01*
X9272Y63580D01*
X9247Y63587D01*
X9225Y63592D01*
X9205Y63600D01*
X9187Y63605D01*
X9175Y63610D01*
X9162Y63612D01*
X9155Y63615D01*
X9152Y63617D01*
D02*
G37*
G36*
X15746Y64147D02*
X15731D01*
X15698Y64145D01*
X15666Y64142D01*
X15608Y64125D01*
X15558Y64105D01*
X15516Y64080D01*
X15483Y64052D01*
X15458Y64032D01*
X15451Y64022D01*
X15443Y64015D01*
X15438Y64012D01*
Y64010D01*
X15413Y63975D01*
X15393Y63932D01*
X15378Y63890D01*
X15366Y63847D01*
X15358Y63810D01*
X15353Y63792D01*
Y63777D01*
X15351Y63767D01*
X15348Y63757D01*
Y63752D01*
Y63750D01*
X16126D01*
X16118Y63815D01*
X16103Y63870D01*
X16083Y63920D01*
X16061Y63962D01*
X16041Y63995D01*
X16023Y64017D01*
X16011Y64032D01*
X16006Y64037D01*
X15983Y64057D01*
X15961Y64075D01*
X15916Y64100D01*
X15868Y64120D01*
X15826Y64135D01*
X15788Y64142D01*
X15771Y64145D01*
X15758D01*
X15746Y64147D01*
D02*
G37*
G36*
X13044Y64615D02*
X12589D01*
X12557Y64612D01*
X12529Y64610D01*
X12502Y64607D01*
X12477D01*
X12457Y64605D01*
X12437Y64602D01*
X12407Y64597D01*
X12387Y64592D01*
X12374Y64590D01*
X12369Y64587D01*
X12339Y64575D01*
X12312Y64560D01*
X12292Y64545D01*
X12272Y64527D01*
X12257Y64512D01*
X12247Y64500D01*
X12242Y64490D01*
X12239Y64487D01*
X12224Y64460D01*
X12212Y64430D01*
X12204Y64402D01*
X12197Y64377D01*
X12194Y64355D01*
X12192Y64335D01*
Y64325D01*
Y64320D01*
X12194Y64282D01*
X12199Y64250D01*
X12207Y64220D01*
X12217Y64197D01*
X12227Y64177D01*
X12234Y64162D01*
X12239Y64152D01*
X12242Y64150D01*
X12262Y64127D01*
X12287Y64107D01*
X12309Y64092D01*
X12334Y64077D01*
X12357Y64067D01*
X12374Y64060D01*
X12384Y64057D01*
X12389Y64055D01*
X12419Y64047D01*
X12457Y64042D01*
X12497Y64040D01*
X12537Y64037D01*
X12572Y64035D01*
X13044D01*
Y64615D01*
D02*
G37*
G36*
Y63807D02*
X12602D01*
X12537Y63805D01*
X12482Y63802D01*
X12432Y63797D01*
X12394Y63792D01*
X12362Y63785D01*
X12339Y63780D01*
X12327Y63777D01*
X12322Y63775D01*
X12287Y63760D01*
X12257Y63745D01*
X12232Y63725D01*
X12209Y63707D01*
X12192Y63690D01*
X12179Y63675D01*
X12172Y63665D01*
X12169Y63662D01*
X12149Y63632D01*
X12137Y63600D01*
X12127Y63570D01*
X12119Y63540D01*
X12114Y63515D01*
X12112Y63495D01*
Y63482D01*
Y63477D01*
X12114Y63445D01*
X12117Y63412D01*
X12124Y63385D01*
X12132Y63362D01*
X12139Y63342D01*
X12144Y63327D01*
X12149Y63317D01*
X12152Y63315D01*
X12167Y63290D01*
X12182Y63270D01*
X12199Y63250D01*
X12214Y63235D01*
X12229Y63222D01*
X12239Y63215D01*
X12247Y63210D01*
X12249Y63207D01*
X12272Y63195D01*
X12297Y63182D01*
X12319Y63175D01*
X12344Y63167D01*
X12364Y63162D01*
X12379Y63157D01*
X12389Y63155D01*
X12394D01*
X12417Y63152D01*
X12442Y63150D01*
X12499Y63147D01*
X13044D01*
Y63807D01*
D02*
G37*
G36*
X10984Y64147D02*
X10967D01*
X10934Y64145D01*
X10904Y64142D01*
X10847Y64127D01*
X10797Y64105D01*
X10755Y64080D01*
X10722Y64055D01*
X10695Y64032D01*
X10687Y64025D01*
X10680Y64017D01*
X10677Y64015D01*
X10675Y64012D01*
X10655Y63987D01*
X10635Y63957D01*
X10607Y63895D01*
X10585Y63830D01*
X10572Y63767D01*
X10567Y63737D01*
X10562Y63710D01*
X10560Y63687D01*
Y63665D01*
X10557Y63647D01*
Y63635D01*
Y63625D01*
Y63622D01*
Y63572D01*
X10562Y63527D01*
X10567Y63485D01*
X10575Y63445D01*
X10585Y63407D01*
X10595Y63375D01*
X10605Y63345D01*
X10615Y63317D01*
X10627Y63295D01*
X10637Y63275D01*
X10647Y63257D01*
X10657Y63242D01*
X10665Y63232D01*
X10670Y63225D01*
X10672Y63220D01*
X10675Y63217D01*
X10697Y63195D01*
X10720Y63175D01*
X10745Y63155D01*
X10769Y63140D01*
X10819Y63117D01*
X10864Y63102D01*
X10904Y63092D01*
X10922Y63090D01*
X10937Y63087D01*
X10949Y63085D01*
X10967D01*
X10999Y63087D01*
X11029Y63090D01*
X11087Y63105D01*
X11137Y63127D01*
X11179Y63152D01*
X11212Y63175D01*
X11239Y63197D01*
X11247Y63205D01*
X11254Y63212D01*
X11257Y63215D01*
X11259Y63217D01*
X11279Y63245D01*
X11297Y63272D01*
X11327Y63335D01*
X11347Y63402D01*
X11359Y63465D01*
X11364Y63495D01*
X11369Y63525D01*
X11372Y63550D01*
Y63572D01*
X11374Y63590D01*
Y63602D01*
Y63612D01*
Y63615D01*
X11372Y63662D01*
X11369Y63710D01*
X11364Y63752D01*
X11357Y63790D01*
X11347Y63827D01*
X11337Y63860D01*
X11327Y63890D01*
X11317Y63915D01*
X11307Y63940D01*
X11297Y63960D01*
X11287Y63975D01*
X11277Y63990D01*
X11269Y64000D01*
X11264Y64010D01*
X11259Y64012D01*
Y64015D01*
X11237Y64037D01*
X11212Y64060D01*
X11189Y64077D01*
X11164Y64092D01*
X11114Y64115D01*
X11069Y64130D01*
X11029Y64140D01*
X11012Y64142D01*
X10997Y64145D01*
X10984Y64147D01*
D02*
G37*
G36*
X7143D02*
X7128D01*
X7098Y64145D01*
X7070Y64142D01*
X7018Y64127D01*
X6970Y64105D01*
X6930Y64080D01*
X6898Y64055D01*
X6876Y64032D01*
X6860Y64017D01*
X6856Y64015D01*
Y64012D01*
X6836Y63985D01*
X6818Y63957D01*
X6791Y63892D01*
X6771Y63822D01*
X6758Y63755D01*
X6753Y63722D01*
X6748Y63692D01*
X6746Y63665D01*
Y63642D01*
X6743Y63622D01*
Y63607D01*
Y63597D01*
Y63595D01*
Y63547D01*
X6748Y63505D01*
X6753Y63462D01*
X6761Y63425D01*
X6768Y63390D01*
X6778Y63360D01*
X6788Y63330D01*
X6798Y63305D01*
X6808Y63282D01*
X6818Y63262D01*
X6828Y63247D01*
X6836Y63232D01*
X6843Y63222D01*
X6848Y63215D01*
X6851Y63212D01*
X6853Y63210D01*
X6873Y63187D01*
X6896Y63170D01*
X6918Y63152D01*
X6940Y63137D01*
X6983Y63115D01*
X7025Y63100D01*
X7060Y63092D01*
X7090Y63087D01*
X7100Y63085D01*
X7115D01*
X7143Y63087D01*
X7170Y63090D01*
X7223Y63105D01*
X7268Y63125D01*
X7308Y63150D01*
X7338Y63175D01*
X7363Y63195D01*
X7378Y63210D01*
X7380Y63212D01*
X7383Y63215D01*
X7403Y63242D01*
X7420Y63270D01*
X7448Y63332D01*
X7468Y63400D01*
X7480Y63465D01*
X7485Y63495D01*
X7490Y63522D01*
X7493Y63550D01*
Y63570D01*
X7495Y63590D01*
Y63602D01*
Y63612D01*
Y63615D01*
X7493Y63665D01*
X7490Y63712D01*
X7485Y63755D01*
X7478Y63795D01*
X7470Y63830D01*
X7463Y63862D01*
X7453Y63892D01*
X7443Y63920D01*
X7433Y63942D01*
X7423Y63962D01*
X7415Y63980D01*
X7408Y63992D01*
X7400Y64005D01*
X7395Y64012D01*
X7390Y64015D01*
Y64017D01*
X7370Y64040D01*
X7348Y64060D01*
X7328Y64077D01*
X7305Y64092D01*
X7260Y64115D01*
X7220Y64132D01*
X7183Y64140D01*
X7153Y64145D01*
X7143Y64147D01*
D02*
G37*
G36*
X24427Y57495D02*
Y57422D01*
X24429Y57372D01*
X24434Y57328D01*
X24438Y57291D01*
X24444Y57262D01*
X24452Y57237D01*
X24456Y57220D01*
X24461Y57210D01*
X24463Y57205D01*
X24477Y57180D01*
X24494Y57157D01*
X24511Y57137D01*
X24527Y57120D01*
X24542Y57107D01*
X24554Y57097D01*
X24563Y57091D01*
X24567Y57089D01*
X24594Y57074D01*
X24619Y57064D01*
X24646Y57055D01*
X24669Y57051D01*
X24690Y57047D01*
X24706Y57045D01*
X24721D01*
X24752Y57047D01*
X24781Y57053D01*
X24804Y57060D01*
X24825Y57070D01*
X24840Y57078D01*
X24852Y57085D01*
X24858Y57091D01*
X24860Y57093D01*
X24877Y57114D01*
X24890Y57135D01*
X24898Y57157D01*
X24904Y57178D01*
X24908Y57195D01*
X24910Y57212D01*
Y57220D01*
Y57224D01*
X24906Y57262D01*
X24904Y57278D01*
X24900Y57291D01*
X24896Y57303D01*
X24894Y57312D01*
X24890Y57316D01*
Y57318D01*
X24871Y57345D01*
X24850Y57366D01*
X24842Y57372D01*
X24833Y57376D01*
X24829Y57380D01*
X24827D01*
X24810Y57389D01*
X24788Y57397D01*
X24742Y57409D01*
X24721Y57416D01*
X24704Y57418D01*
X24692Y57422D01*
X24688D01*
X24627Y57434D01*
X24573Y57445D01*
X24529Y57457D01*
X24492Y57470D01*
X24465Y57480D01*
X24444Y57489D01*
X24431Y57493D01*
X24427Y57495D01*
D02*
G37*
G36*
X27052Y58313D02*
X26743D01*
X26702Y58309D01*
X26668Y58307D01*
X26641Y58303D01*
X26623Y58299D01*
X26608Y58295D01*
X26600Y58293D01*
X26598Y58290D01*
X26577Y58282D01*
X26560Y58270D01*
X26543Y58257D01*
X26531Y58245D01*
X26520Y58232D01*
X26514Y58222D01*
X26510Y58215D01*
X26508Y58213D01*
X26498Y58191D01*
X26489Y58168D01*
X26483Y58145D01*
X26479Y58122D01*
X26477Y58101D01*
X26475Y58086D01*
Y58076D01*
Y58072D01*
X26477Y58038D01*
X26481Y58011D01*
X26487Y57986D01*
X26493Y57966D01*
X26500Y57949D01*
X26506Y57938D01*
X26510Y57930D01*
X26512Y57928D01*
X26527Y57909D01*
X26543Y57895D01*
X26560Y57882D01*
X26577Y57872D01*
X26591Y57864D01*
X26604Y57857D01*
X26612Y57855D01*
X26614Y57853D01*
X26635Y57849D01*
X26660Y57845D01*
X26685Y57843D01*
X26712Y57841D01*
X26735Y57839D01*
X27052D01*
Y58313D01*
D02*
G37*
G36*
Y57651D02*
X26752D01*
X26706Y57649D01*
X26664Y57647D01*
X26631Y57643D01*
X26604Y57636D01*
X26585Y57630D01*
X26568Y57626D01*
X26560Y57624D01*
X26558Y57622D01*
X26535Y57609D01*
X26516Y57595D01*
X26500Y57580D01*
X26485Y57566D01*
X26473Y57551D01*
X26464Y57541D01*
X26460Y57532D01*
X26458Y57530D01*
X26445Y57507D01*
X26437Y57482D01*
X26429Y57457D01*
X26425Y57432D01*
X26423Y57412D01*
X26420Y57395D01*
Y57384D01*
Y57382D01*
Y57380D01*
X26423Y57345D01*
X26427Y57314D01*
X26433Y57287D01*
X26439Y57262D01*
X26448Y57243D01*
X26454Y57230D01*
X26458Y57220D01*
X26460Y57218D01*
X26475Y57195D01*
X26493Y57176D01*
X26512Y57160D01*
X26531Y57147D01*
X26548Y57139D01*
X26560Y57132D01*
X26568Y57128D01*
X26573Y57126D01*
X26593Y57120D01*
X26618Y57116D01*
X26643Y57112D01*
X26668Y57110D01*
X26693D01*
X26712Y57107D01*
X27052D01*
Y57651D01*
D02*
G37*
G36*
X33719Y58347D02*
X33708D01*
X33687Y58345D01*
X33667Y58340D01*
X33646Y58334D01*
X33629Y58326D01*
X33596Y58305D01*
X33569Y58282D01*
X33546Y58257D01*
X33529Y58236D01*
X33525Y58228D01*
X33521Y58222D01*
X33517Y58218D01*
Y58215D01*
X33504Y58188D01*
X33492Y58155D01*
X33481Y58120D01*
X33473Y58080D01*
X33467Y58038D01*
X33460Y57995D01*
X33450Y57907D01*
X33448Y57868D01*
X33446Y57828D01*
X33444Y57793D01*
Y57761D01*
X33442Y57736D01*
Y57716D01*
Y57703D01*
Y57701D01*
Y57699D01*
Y57630D01*
X33446Y57568D01*
X33448Y57509D01*
X33454Y57457D01*
X33458Y57412D01*
X33465Y57368D01*
X33473Y57332D01*
X33479Y57299D01*
X33485Y57270D01*
X33494Y57247D01*
X33500Y57226D01*
X33504Y57212D01*
X33510Y57199D01*
X33512Y57191D01*
X33517Y57187D01*
Y57185D01*
X33531Y57162D01*
X33546Y57141D01*
X33560Y57124D01*
X33575Y57110D01*
X33592Y57097D01*
X33606Y57085D01*
X33635Y57070D01*
X33660Y57060D01*
X33679Y57055D01*
X33687Y57053D01*
X33698D01*
X33719Y57055D01*
X33739Y57060D01*
X33758Y57066D01*
X33777Y57074D01*
X33808Y57095D01*
X33835Y57118D01*
X33858Y57141D01*
X33875Y57162D01*
X33879Y57170D01*
X33883Y57176D01*
X33887Y57180D01*
Y57182D01*
X33900Y57210D01*
X33912Y57243D01*
X33921Y57278D01*
X33929Y57318D01*
X33937Y57359D01*
X33941Y57403D01*
X33952Y57491D01*
X33954Y57532D01*
X33956Y57570D01*
X33958Y57605D01*
Y57636D01*
X33960Y57664D01*
Y57682D01*
Y57695D01*
Y57697D01*
Y57699D01*
Y57768D01*
X33958Y57830D01*
X33954Y57889D01*
X33950Y57941D01*
X33944Y57986D01*
X33937Y58030D01*
X33931Y58066D01*
X33925Y58099D01*
X33919Y58128D01*
X33912Y58151D01*
X33906Y58172D01*
X33900Y58186D01*
X33896Y58199D01*
X33891Y58207D01*
X33889Y58211D01*
Y58213D01*
X33875Y58236D01*
X33860Y58257D01*
X33846Y58276D01*
X33831Y58290D01*
X33814Y58303D01*
X33800Y58313D01*
X33771Y58330D01*
X33746Y58340D01*
X33727Y58345D01*
X33719Y58347D01*
D02*
G37*
G36*
X32708D02*
X32694D01*
X32663Y58345D01*
X32633Y58336D01*
X32608Y58324D01*
X32586Y58311D01*
X32569Y58299D01*
X32554Y58286D01*
X32546Y58278D01*
X32544Y58276D01*
X32523Y58249D01*
X32506Y58218D01*
X32496Y58188D01*
X32488Y58159D01*
X32484Y58134D01*
X32479Y58113D01*
Y58105D01*
Y58099D01*
Y58097D01*
Y58095D01*
X32481Y58055D01*
X32490Y58022D01*
X32498Y57993D01*
X32511Y57968D01*
X32521Y57947D01*
X32531Y57932D01*
X32540Y57924D01*
X32542Y57920D01*
X32567Y57897D01*
X32592Y57882D01*
X32617Y57870D01*
X32640Y57861D01*
X32658Y57857D01*
X32675Y57855D01*
X32686Y57853D01*
X32690D01*
X32721Y57855D01*
X32752Y57864D01*
X32777Y57874D01*
X32800Y57886D01*
X32817Y57899D01*
X32831Y57909D01*
X32840Y57918D01*
X32842Y57920D01*
X32863Y57947D01*
X32877Y57978D01*
X32888Y58009D01*
X32894Y58038D01*
X32898Y58066D01*
X32902Y58086D01*
Y58095D01*
Y58101D01*
Y58103D01*
Y58105D01*
X32900Y58143D01*
X32892Y58176D01*
X32883Y58205D01*
X32871Y58230D01*
X32861Y58251D01*
X32850Y58265D01*
X32844Y58276D01*
X32842Y58278D01*
X32817Y58301D01*
X32792Y58318D01*
X32767Y58330D01*
X32744Y58338D01*
X32725Y58343D01*
X32708Y58347D01*
D02*
G37*
G36*
X32706Y57693D02*
X32675D01*
X32656Y57689D01*
X32619Y57678D01*
X32588Y57664D01*
X32561Y57649D01*
X32538Y57632D01*
X32521Y57618D01*
X32511Y57607D01*
X32506Y57605D01*
Y57603D01*
X32479Y57568D01*
X32461Y57528D01*
X32446Y57489D01*
X32438Y57451D01*
X32431Y57418D01*
X32429Y57405D01*
Y57393D01*
X32427Y57382D01*
Y57374D01*
Y57370D01*
Y57368D01*
X32431Y57316D01*
X32440Y57272D01*
X32452Y57232D01*
X32465Y57199D01*
X32479Y57174D01*
X32492Y57155D01*
X32500Y57143D01*
X32504Y57139D01*
X32534Y57110D01*
X32565Y57089D01*
X32596Y57074D01*
X32625Y57064D01*
X32652Y57057D01*
X32671Y57055D01*
X32679Y57053D01*
X32690D01*
X32729Y57057D01*
X32765Y57068D01*
X32798Y57080D01*
X32825Y57097D01*
X32846Y57114D01*
X32863Y57126D01*
X32873Y57137D01*
X32877Y57141D01*
X32902Y57176D01*
X32921Y57216D01*
X32935Y57255D01*
X32944Y57293D01*
X32950Y57326D01*
X32952Y57339D01*
Y57351D01*
X32954Y57362D01*
Y57370D01*
Y57374D01*
Y57376D01*
X32950Y57426D01*
X32942Y57470D01*
X32931Y57509D01*
X32917Y57543D01*
X32902Y57568D01*
X32892Y57586D01*
X32883Y57599D01*
X32879Y57603D01*
X32865Y57620D01*
X32850Y57632D01*
X32819Y57655D01*
X32788Y57672D01*
X32758Y57682D01*
X32733Y57689D01*
X32715Y57691D01*
X32706Y57693D01*
D02*
G37*
G36*
X28574Y58349D02*
X28555D01*
X28512Y58345D01*
X28470Y58336D01*
X28432Y58326D01*
X28399Y58311D01*
X28372Y58297D01*
X28351Y58286D01*
X28343Y58280D01*
X28337Y58278D01*
X28335Y58274D01*
X28333D01*
X28297Y58245D01*
X28266Y58213D01*
X28239Y58180D01*
X28218Y58149D01*
X28201Y58122D01*
X28189Y58099D01*
X28187Y58091D01*
X28183Y58084D01*
X28180Y58080D01*
Y58078D01*
X28158Y58016D01*
X28141Y57953D01*
X28130Y57891D01*
X28122Y57834D01*
X28120Y57809D01*
X28118Y57786D01*
X28116Y57766D01*
X28114Y57747D01*
Y57732D01*
Y57722D01*
Y57716D01*
Y57714D01*
X28116Y57655D01*
X28120Y57603D01*
X28126Y57551D01*
X28135Y57505D01*
X28143Y57462D01*
X28155Y57422D01*
X28166Y57387D01*
X28178Y57355D01*
X28191Y57326D01*
X28201Y57303D01*
X28214Y57282D01*
X28222Y57266D01*
X28230Y57251D01*
X28237Y57243D01*
X28241Y57237D01*
X28243Y57235D01*
X28268Y57205D01*
X28293Y57180D01*
X28320Y57160D01*
X28345Y57141D01*
X28372Y57124D01*
X28399Y57112D01*
X28424Y57101D01*
X28449Y57093D01*
X28472Y57087D01*
X28493Y57080D01*
X28512Y57076D01*
X28528Y57074D01*
X28541D01*
X28551Y57072D01*
X28560D01*
X28593Y57074D01*
X28626Y57078D01*
X28655Y57087D01*
X28687Y57097D01*
X28739Y57122D01*
X28764Y57137D01*
X28784Y57153D01*
X28803Y57168D01*
X28822Y57182D01*
X28837Y57195D01*
X28849Y57207D01*
X28859Y57218D01*
X28866Y57226D01*
X28870Y57230D01*
X28872Y57232D01*
X28895Y57264D01*
X28914Y57299D01*
X28930Y57334D01*
X28945Y57372D01*
X28957Y57409D01*
X28968Y57447D01*
X28982Y57520D01*
X28989Y57553D01*
X28993Y57584D01*
X28995Y57614D01*
X28997Y57639D01*
X28999Y57659D01*
Y57674D01*
Y57682D01*
Y57686D01*
X28997Y57747D01*
X28993Y57805D01*
X28987Y57857D01*
X28980Y57907D01*
X28970Y57951D01*
X28959Y57993D01*
X28949Y58030D01*
X28937Y58063D01*
X28924Y58093D01*
X28914Y58118D01*
X28903Y58138D01*
X28893Y58155D01*
X28887Y58170D01*
X28880Y58178D01*
X28876Y58184D01*
X28874Y58186D01*
X28849Y58215D01*
X28824Y58240D01*
X28799Y58261D01*
X28772Y58280D01*
X28745Y58297D01*
X28718Y58309D01*
X28693Y58320D01*
X28668Y58328D01*
X28645Y58334D01*
X28624Y58340D01*
X28603Y58345D01*
X28587Y58347D01*
X28574Y58349D01*
D02*
G37*
G36*
X25669Y57930D02*
X25658D01*
X25635Y57928D01*
X25614Y57926D01*
X25575Y57913D01*
X25542Y57895D01*
X25512Y57876D01*
X25487Y57855D01*
X25471Y57836D01*
X25460Y57824D01*
X25456Y57822D01*
Y57820D01*
X25442Y57799D01*
X25429Y57774D01*
X25408Y57722D01*
X25394Y57668D01*
X25385Y57616D01*
X25381Y57591D01*
X25379Y57566D01*
X25377Y57545D01*
Y57526D01*
X25375Y57512D01*
Y57501D01*
Y57493D01*
Y57491D01*
Y57451D01*
X25379Y57414D01*
X25383Y57378D01*
X25387Y57347D01*
X25394Y57318D01*
X25400Y57291D01*
X25408Y57266D01*
X25414Y57245D01*
X25423Y57224D01*
X25431Y57207D01*
X25437Y57195D01*
X25444Y57182D01*
X25448Y57174D01*
X25452Y57168D01*
X25456Y57164D01*
Y57162D01*
X25471Y57143D01*
X25487Y57126D01*
X25504Y57112D01*
X25521Y57099D01*
X25552Y57080D01*
X25583Y57068D01*
X25608Y57060D01*
X25629Y57055D01*
X25637Y57053D01*
X25648D01*
X25671Y57055D01*
X25692Y57057D01*
X25731Y57070D01*
X25764Y57087D01*
X25794Y57107D01*
X25819Y57128D01*
X25835Y57145D01*
X25846Y57157D01*
X25850Y57160D01*
Y57162D01*
X25864Y57182D01*
X25877Y57207D01*
X25896Y57259D01*
X25910Y57314D01*
X25919Y57368D01*
X25923Y57393D01*
X25925Y57416D01*
X25927Y57437D01*
Y57455D01*
X25929Y57470D01*
Y57480D01*
Y57489D01*
Y57491D01*
Y57530D01*
X25925Y57568D01*
X25921Y57603D01*
X25916Y57634D01*
X25910Y57666D01*
X25904Y57693D01*
X25898Y57716D01*
X25889Y57739D01*
X25881Y57757D01*
X25875Y57774D01*
X25869Y57789D01*
X25862Y57799D01*
X25856Y57809D01*
X25854Y57816D01*
X25850Y57818D01*
Y57820D01*
X25835Y57839D01*
X25819Y57857D01*
X25802Y57872D01*
X25787Y57884D01*
X25754Y57903D01*
X25725Y57916D01*
X25698Y57924D01*
X25677Y57928D01*
X25669Y57930D01*
D02*
G37*
G36*
X23073D02*
X23069D01*
X23048Y57928D01*
X23028Y57926D01*
X22992Y57913D01*
X22959Y57895D01*
X22932Y57874D01*
X22911Y57853D01*
X22894Y57834D01*
X22886Y57822D01*
X22882Y57820D01*
Y57818D01*
X22869Y57795D01*
X22857Y57772D01*
X22838Y57716D01*
X22826Y57659D01*
X22815Y57601D01*
X22813Y57574D01*
X22811Y57549D01*
X22809Y57526D01*
Y57507D01*
X22807Y57491D01*
Y57478D01*
Y57470D01*
Y57468D01*
Y57430D01*
X22811Y57395D01*
X22813Y57362D01*
X22819Y57330D01*
X22823Y57303D01*
X22830Y57278D01*
X22838Y57253D01*
X22844Y57235D01*
X22851Y57216D01*
X22859Y57199D01*
X22865Y57187D01*
X22869Y57174D01*
X22876Y57166D01*
X22878Y57160D01*
X22882Y57157D01*
Y57155D01*
X22896Y57137D01*
X22911Y57122D01*
X22926Y57107D01*
X22940Y57097D01*
X22969Y57078D01*
X22996Y57066D01*
X23021Y57060D01*
X23040Y57055D01*
X23053Y57053D01*
X23057D01*
X23076Y57055D01*
X23094Y57057D01*
X23128Y57070D01*
X23159Y57087D01*
X23184Y57107D01*
X23207Y57126D01*
X23221Y57143D01*
X23232Y57155D01*
X23236Y57157D01*
Y57160D01*
X23248Y57180D01*
X23261Y57205D01*
X23280Y57257D01*
X23294Y57312D01*
X23303Y57366D01*
X23307Y57391D01*
X23309Y57414D01*
X23311Y57434D01*
Y57453D01*
X23313Y57468D01*
Y57478D01*
Y57487D01*
Y57489D01*
Y57530D01*
X23311Y57570D01*
X23307Y57605D01*
X23303Y57639D01*
X23296Y57668D01*
X23290Y57695D01*
X23284Y57720D01*
X23278Y57743D01*
X23271Y57761D01*
X23265Y57778D01*
X23259Y57793D01*
X23253Y57803D01*
X23248Y57814D01*
X23244Y57820D01*
X23242Y57822D01*
Y57824D01*
X23228Y57843D01*
X23213Y57859D01*
X23198Y57874D01*
X23184Y57886D01*
X23155Y57905D01*
X23128Y57918D01*
X23105Y57924D01*
X23086Y57928D01*
X23073Y57930D01*
D02*
G37*
G36*
X25827Y60930D02*
X25816D01*
X25796Y60928D01*
X25775Y60926D01*
X25735Y60914D01*
X25702Y60897D01*
X25675Y60878D01*
X25652Y60857D01*
X25635Y60841D01*
X25625Y60828D01*
X25621Y60826D01*
Y60824D01*
X25602Y60793D01*
X25589Y60759D01*
X25577Y60722D01*
X25569Y60686D01*
X25562Y60653D01*
X25560Y60641D01*
X25558Y60628D01*
Y60618D01*
X25556Y60609D01*
Y60605D01*
Y60603D01*
X26081D01*
X26075Y60657D01*
X26064Y60703D01*
X26052Y60745D01*
X26035Y60778D01*
X26023Y60805D01*
X26010Y60824D01*
X26002Y60836D01*
X25998Y60841D01*
X25983Y60857D01*
X25969Y60870D01*
X25937Y60893D01*
X25908Y60909D01*
X25879Y60920D01*
X25854Y60926D01*
X25833Y60928D01*
X25827Y60930D01*
D02*
G37*
G36*
X24219D02*
X24209D01*
X24188Y60928D01*
X24167Y60926D01*
X24127Y60914D01*
X24094Y60897D01*
X24067Y60878D01*
X24044Y60857D01*
X24027Y60841D01*
X24017Y60828D01*
X24013Y60826D01*
Y60824D01*
X23994Y60793D01*
X23982Y60759D01*
X23969Y60722D01*
X23961Y60686D01*
X23954Y60653D01*
X23952Y60641D01*
X23950Y60628D01*
Y60618D01*
X23948Y60609D01*
Y60605D01*
Y60603D01*
X24473D01*
X24467Y60657D01*
X24456Y60703D01*
X24444Y60745D01*
X24427Y60778D01*
X24415Y60805D01*
X24402Y60824D01*
X24394Y60836D01*
X24390Y60841D01*
X24375Y60857D01*
X24361Y60870D01*
X24329Y60893D01*
X24300Y60909D01*
X24271Y60920D01*
X24246Y60926D01*
X24225Y60928D01*
X24219Y60930D01*
D02*
G37*
G36*
X36697Y60930D02*
X36687D01*
X36664Y60928D01*
X36643Y60926D01*
X36603Y60914D01*
X36570Y60895D01*
X36541Y60876D01*
X36516Y60855D01*
X36499Y60836D01*
X36489Y60824D01*
X36485Y60822D01*
Y60820D01*
X36470Y60799D01*
X36458Y60774D01*
X36437Y60722D01*
X36422Y60668D01*
X36414Y60616D01*
X36410Y60591D01*
X36408Y60566D01*
X36405Y60545D01*
Y60526D01*
X36403Y60512D01*
Y60501D01*
Y60493D01*
Y60491D01*
Y60451D01*
X36408Y60414D01*
X36412Y60378D01*
X36416Y60347D01*
X36422Y60318D01*
X36428Y60291D01*
X36437Y60266D01*
X36443Y60245D01*
X36451Y60224D01*
X36460Y60207D01*
X36466Y60195D01*
X36472Y60182D01*
X36476Y60174D01*
X36480Y60168D01*
X36485Y60164D01*
Y60162D01*
X36499Y60143D01*
X36516Y60126D01*
X36532Y60112D01*
X36549Y60099D01*
X36580Y60080D01*
X36612Y60068D01*
X36637Y60060D01*
X36657Y60055D01*
X36666Y60053D01*
X36676D01*
X36699Y60055D01*
X36720Y60057D01*
X36760Y60070D01*
X36793Y60087D01*
X36822Y60107D01*
X36847Y60128D01*
X36864Y60145D01*
X36874Y60157D01*
X36878Y60160D01*
Y60162D01*
X36893Y60182D01*
X36905Y60207D01*
X36924Y60259D01*
X36939Y60314D01*
X36947Y60368D01*
X36951Y60393D01*
X36953Y60416D01*
X36955Y60437D01*
Y60455D01*
X36957Y60470D01*
Y60480D01*
Y60489D01*
Y60491D01*
Y60530D01*
X36953Y60568D01*
X36949Y60603D01*
X36945Y60634D01*
X36939Y60666D01*
X36932Y60693D01*
X36926Y60716D01*
X36918Y60739D01*
X36909Y60757D01*
X36903Y60774D01*
X36897Y60789D01*
X36891Y60799D01*
X36884Y60809D01*
X36882Y60816D01*
X36878Y60818D01*
Y60820D01*
X36864Y60839D01*
X36847Y60857D01*
X36830Y60872D01*
X36816Y60884D01*
X36782Y60903D01*
X36753Y60916D01*
X36726Y60924D01*
X36705Y60928D01*
X36697Y60930D01*
D02*
G37*
G36*
X31842Y60938D02*
X31838D01*
X31819Y60936D01*
X31800Y60934D01*
X31765Y60922D01*
X31734Y60905D01*
X31707Y60884D01*
X31686Y60864D01*
X31669Y60847D01*
X31661Y60834D01*
X31657Y60832D01*
Y60830D01*
X31644Y60809D01*
X31632Y60784D01*
X31613Y60732D01*
X31600Y60678D01*
X31590Y60624D01*
X31588Y60597D01*
X31586Y60574D01*
X31584Y60553D01*
Y60534D01*
X31582Y60518D01*
Y60507D01*
Y60499D01*
Y60497D01*
Y60455D01*
X31586Y60418D01*
X31588Y60382D01*
X31594Y60349D01*
X31600Y60318D01*
X31607Y60291D01*
X31613Y60266D01*
X31619Y60245D01*
X31628Y60224D01*
X31634Y60207D01*
X31640Y60193D01*
X31646Y60182D01*
X31652Y60174D01*
X31655Y60166D01*
X31659Y60164D01*
Y60162D01*
X31673Y60143D01*
X31688Y60126D01*
X31705Y60112D01*
X31719Y60099D01*
X31748Y60080D01*
X31775Y60068D01*
X31800Y60060D01*
X31819Y60055D01*
X31832Y60053D01*
X31836D01*
X31855Y60055D01*
X31873Y60057D01*
X31909Y60070D01*
X31940Y60087D01*
X31967Y60105D01*
X31988Y60124D01*
X32004Y60141D01*
X32013Y60153D01*
X32017Y60155D01*
Y60157D01*
X32029Y60178D01*
X32042Y60201D01*
X32059Y60253D01*
X32071Y60307D01*
X32082Y60359D01*
X32084Y60384D01*
X32086Y60409D01*
X32088Y60430D01*
Y60449D01*
X32090Y60464D01*
Y60474D01*
Y60482D01*
Y60484D01*
Y60524D01*
X32086Y60562D01*
X32084Y60597D01*
X32077Y60630D01*
X32071Y60661D01*
X32065Y60689D01*
X32059Y60714D01*
X32050Y60736D01*
X32044Y60755D01*
X32038Y60774D01*
X32032Y60789D01*
X32025Y60801D01*
X32019Y60809D01*
X32017Y60816D01*
X32013Y60820D01*
Y60822D01*
X31998Y60843D01*
X31982Y60861D01*
X31967Y60876D01*
X31952Y60889D01*
X31923Y60909D01*
X31896Y60924D01*
X31873Y60932D01*
X31855Y60936D01*
X31842Y60938D01*
D02*
G37*
G36*
X26814Y60938D02*
X26810D01*
X26791Y60936D01*
X26772Y60934D01*
X26737Y60922D01*
X26706Y60905D01*
X26679Y60884D01*
X26658Y60864D01*
X26641Y60847D01*
X26633Y60834D01*
X26629Y60832D01*
Y60830D01*
X26616Y60809D01*
X26604Y60784D01*
X26585Y60732D01*
X26573Y60678D01*
X26562Y60624D01*
X26560Y60597D01*
X26558Y60574D01*
X26556Y60553D01*
Y60534D01*
X26554Y60518D01*
Y60507D01*
Y60499D01*
Y60497D01*
Y60455D01*
X26558Y60418D01*
X26560Y60382D01*
X26566Y60349D01*
X26573Y60318D01*
X26579Y60291D01*
X26585Y60266D01*
X26591Y60245D01*
X26600Y60224D01*
X26606Y60207D01*
X26612Y60193D01*
X26618Y60182D01*
X26625Y60174D01*
X26627Y60166D01*
X26631Y60164D01*
Y60162D01*
X26645Y60143D01*
X26660Y60126D01*
X26677Y60112D01*
X26691Y60099D01*
X26720Y60080D01*
X26747Y60068D01*
X26772Y60060D01*
X26791Y60055D01*
X26804Y60053D01*
X26808D01*
X26827Y60055D01*
X26845Y60057D01*
X26881Y60070D01*
X26912Y60087D01*
X26939Y60105D01*
X26960Y60124D01*
X26977Y60141D01*
X26985Y60153D01*
X26989Y60155D01*
Y60157D01*
X27002Y60178D01*
X27014Y60201D01*
X27031Y60253D01*
X27043Y60307D01*
X27054Y60359D01*
X27056Y60384D01*
X27058Y60409D01*
X27060Y60430D01*
Y60449D01*
X27062Y60464D01*
Y60474D01*
Y60482D01*
Y60484D01*
Y60524D01*
X27058Y60562D01*
X27056Y60597D01*
X27049Y60630D01*
X27043Y60661D01*
X27037Y60689D01*
X27031Y60714D01*
X27022Y60736D01*
X27016Y60755D01*
X27010Y60774D01*
X27004Y60789D01*
X26997Y60801D01*
X26991Y60809D01*
X26989Y60816D01*
X26985Y60820D01*
Y60822D01*
X26970Y60843D01*
X26954Y60861D01*
X26939Y60876D01*
X26925Y60889D01*
X26895Y60909D01*
X26868Y60924D01*
X26845Y60932D01*
X26827Y60936D01*
X26814Y60938D01*
D02*
G37*
%LPD*%
D11*
X31500Y41060D02*
X32425D01*
X30075D02*
X31000D01*
X31500Y40060D02*
X32425D01*
X30075D02*
X31000D01*
X30075D02*
Y41060D01*
X32425Y40060D02*
Y41060D01*
X25450Y48225D02*
Y49150D01*
Y46800D02*
Y47725D01*
X26450Y48225D02*
Y49150D01*
Y46800D02*
Y47725D01*
X25450Y46800D02*
X26450D01*
X25450Y49150D02*
X26450D01*
X20700Y48150D02*
Y49075D01*
Y46725D02*
Y47650D01*
X21700Y48150D02*
Y49075D01*
Y46725D02*
Y47650D01*
X20700Y46725D02*
X21700D01*
X20700Y49075D02*
X21700D01*
X23650Y32600D02*
Y33525D01*
Y34025D02*
Y34950D01*
X22650Y32600D02*
Y33525D01*
Y34025D02*
Y34950D01*
X23650D01*
X22650Y32600D02*
X23650D01*
X15825Y40000D02*
X16750D01*
X17250D02*
X18175D01*
X15825Y41000D02*
X16750D01*
X17250D02*
X18175D01*
Y40000D02*
Y41000D01*
X15825Y40000D02*
Y41000D01*
D12*
X31150Y40860D02*
X31350D01*
X31150Y40260D02*
X31350D01*
X25650Y47875D02*
Y48075D01*
X26250Y47875D02*
Y48075D01*
X20900Y47800D02*
Y48000D01*
X21500Y47800D02*
Y48000D01*
X23450Y33675D02*
Y33875D01*
X22850Y33675D02*
Y33875D01*
X16900Y40200D02*
X17100D01*
X16900Y40800D02*
X17100D01*
X28839Y23500D02*
X28982Y23452D01*
X29077Y23309D01*
X29125Y23071D01*
Y22928D01*
X29077Y22690D01*
X28982Y22548D01*
X28839Y22500D01*
X28744D01*
X28601Y22548D01*
X28506Y22690D01*
X28458Y22928D01*
Y23071D01*
X28506Y23309D01*
X28601Y23452D01*
X28744Y23500D01*
X28839D01*
X27949D02*
X28092Y23452D01*
X28187Y23309D01*
X28235Y23071D01*
Y22928D01*
X28187Y22690D01*
X28092Y22548D01*
X27949Y22500D01*
X27854D01*
X27711Y22548D01*
X27616Y22690D01*
X27568Y22928D01*
Y23071D01*
X27616Y23309D01*
X27711Y23452D01*
X27854Y23500D01*
X27949D01*
X27344Y23309D02*
X27249Y23357D01*
X27106Y23500D01*
Y22500D01*
X26611Y23309D02*
X26516Y23357D01*
X26373Y23500D01*
Y22500D01*
X25592Y23500D02*
X25688Y23452D01*
X25783Y23357D01*
X25830Y23262D01*
X25878Y23119D01*
Y22881D01*
X25830Y22738D01*
X25783Y22643D01*
X25688Y22548D01*
X25592Y22500D01*
X25402D01*
X25307Y22548D01*
X25212Y22643D01*
X25164Y22738D01*
X25116Y22881D01*
Y23119D01*
X25164Y23262D01*
X25212Y23357D01*
X25307Y23452D01*
X25402Y23500D01*
X25592D01*
X24883D02*
X24502Y23024D01*
Y22500D01*
X24121Y23500D02*
X24502Y23024D01*
X23326Y23357D02*
X23421Y23452D01*
X23564Y23500D01*
X23755D01*
X23898Y23452D01*
X23993Y23357D01*
Y23262D01*
X23945Y23167D01*
X23898Y23119D01*
X23802Y23071D01*
X23517Y22976D01*
X23421Y22928D01*
X23374Y22881D01*
X23326Y22786D01*
Y22643D01*
X23421Y22548D01*
X23564Y22500D01*
X23755D01*
X23898Y22548D01*
X23993Y22643D01*
X23102Y23500D02*
Y22500D01*
Y23500D02*
X22722Y22500D01*
X22341Y23500D02*
X22722Y22500D01*
X22341Y23500D02*
Y22500D01*
D14*
X21549Y50297D02*
X21649Y50397D01*
X21849D01*
X21949Y50297D01*
Y49897D01*
X21849Y49797D01*
X21649D01*
X21549Y49897D01*
X21349Y49797D02*
X21150D01*
X21250D01*
Y50397D01*
X21349Y50297D01*
X20850D02*
X20750Y50397D01*
X20550D01*
X20450Y50297D01*
Y50197D01*
X20550Y50097D01*
X20450Y49997D01*
Y49897D01*
X20550Y49797D01*
X20750D01*
X20850Y49897D01*
Y49997D01*
X20750Y50097D01*
X20850Y50197D01*
Y50297D01*
X20750Y50097D02*
X20550D01*
X26301Y50396D02*
X26401Y50496D01*
X26601D01*
X26701Y50396D01*
Y49996D01*
X26601Y49896D01*
X26401D01*
X26301Y49996D01*
X26101Y49896D02*
X25901D01*
X26001D01*
Y50496D01*
X26101Y50396D01*
X25601Y50496D02*
X25202D01*
Y50396D01*
X25601Y49996D01*
Y49896D01*
X31601Y42293D02*
X31701Y42393D01*
X31901D01*
X32001Y42293D01*
Y41893D01*
X31901Y41793D01*
X31701D01*
X31601Y41893D01*
X31401Y41793D02*
X31201D01*
X31301D01*
Y42393D01*
X31401Y42293D01*
X30502Y42393D02*
X30701Y42293D01*
X30901Y42093D01*
Y41893D01*
X30801Y41793D01*
X30602D01*
X30502Y41893D01*
Y41993D01*
X30602Y42093D01*
X30901D01*
X23497Y36192D02*
X23597Y36292D01*
X23797D01*
X23897Y36192D01*
Y35792D01*
X23797Y35692D01*
X23597D01*
X23497Y35792D01*
X23297Y35692D02*
X23097D01*
X23197D01*
Y36292D01*
X23297Y36192D01*
X22397Y36292D02*
X22797D01*
Y35992D01*
X22597Y36092D01*
X22497D01*
X22397Y35992D01*
Y35792D01*
X22497Y35692D01*
X22697D01*
X22797Y35792D01*
X17338Y42242D02*
X17438Y42342D01*
X17638D01*
X17738Y42242D01*
Y41842D01*
X17638Y41742D01*
X17438D01*
X17338Y41842D01*
X17138Y41742D02*
X16938D01*
X17038D01*
Y42342D01*
X17138Y42242D01*
X16339Y41742D02*
Y42342D01*
X16638Y42042D01*
X16239D01*
M02*
