G04*
G04 #@! TF.GenerationSoftware,Altium Limited,Altium Designer,18.1.9 (240)*
G04*
G04 Layer_Physical_Order=2*
G04 Layer_Color=36540*
%FSLAX43Y43*%
%MOMM*%
G71*
G01*
G75*
%ADD12C,0.200*%
%ADD35C,0.200*%
%ADD40R,2.794X1.524*%
%ADD41O,2.794X1.524*%
%ADD42R,1.524X2.794*%
%ADD43O,1.524X2.794*%
%ADD44C,0.600*%
%ADD45C,0.250*%
G36*
X49949Y54467D02*
X49911Y54356D01*
X49822Y54356D01*
X48387D01*
Y53340D01*
Y52324D01*
X49822D01*
X49911Y52324D01*
X49949Y52213D01*
Y51245D01*
X49822Y51217D01*
X49792Y51280D01*
X49741Y51365D01*
X49681Y51445D01*
X49614Y51519D01*
X49540Y51586D01*
X49460Y51646D01*
X49375Y51697D01*
X49284Y51740D01*
X49190Y51773D01*
X49093Y51798D01*
X48995Y51812D01*
X48895Y51817D01*
X47625D01*
X47525Y51812D01*
X47427Y51798D01*
X47330Y51773D01*
X47236Y51740D01*
X47145Y51697D01*
X47060Y51646D01*
X46980Y51586D01*
X46906Y51519D01*
X46839Y51445D01*
X46779Y51365D01*
X46728Y51280D01*
X46685Y51189D01*
X46652Y51095D01*
X46627Y50998D01*
X46613Y50900D01*
X46608Y50800D01*
X46613Y50700D01*
X46627Y50602D01*
X46652Y50505D01*
X46685Y50411D01*
X46728Y50320D01*
X46779Y50235D01*
X46839Y50155D01*
X46906Y50081D01*
X46980Y50014D01*
X47060Y49954D01*
X47145Y49903D01*
X47236Y49860D01*
X47330Y49827D01*
X47427Y49802D01*
X47525Y49788D01*
X47625Y49783D01*
X48895D01*
X48995Y49788D01*
X49093Y49802D01*
X49190Y49827D01*
X49284Y49860D01*
X49375Y49903D01*
X49460Y49954D01*
X49540Y50014D01*
X49614Y50081D01*
X49681Y50155D01*
X49741Y50235D01*
X49792Y50320D01*
X49822Y50383D01*
X49949Y50355D01*
Y48705D01*
X49822Y48677D01*
X49792Y48740D01*
X49741Y48825D01*
X49681Y48905D01*
X49614Y48979D01*
X49540Y49046D01*
X49460Y49106D01*
X49375Y49157D01*
X49284Y49200D01*
X49190Y49233D01*
X49093Y49258D01*
X48995Y49272D01*
X48895Y49277D01*
X47625D01*
X47525Y49272D01*
X47427Y49258D01*
X47330Y49233D01*
X47236Y49200D01*
X47145Y49157D01*
X47060Y49106D01*
X46980Y49046D01*
X46906Y48979D01*
X46839Y48905D01*
X46779Y48825D01*
X46728Y48740D01*
X46685Y48649D01*
X46652Y48555D01*
X46627Y48458D01*
X46613Y48360D01*
X46608Y48260D01*
X46613Y48160D01*
X46627Y48062D01*
X46652Y47965D01*
X46685Y47871D01*
X46728Y47780D01*
X46779Y47695D01*
X46839Y47615D01*
X46906Y47541D01*
X46980Y47474D01*
X47060Y47414D01*
X47145Y47363D01*
X47236Y47320D01*
X47330Y47287D01*
X47427Y47262D01*
X47525Y47248D01*
X47625Y47243D01*
X48895D01*
X48995Y47248D01*
X49093Y47262D01*
X49190Y47287D01*
X49284Y47320D01*
X49375Y47363D01*
X49460Y47414D01*
X49540Y47474D01*
X49614Y47541D01*
X49681Y47615D01*
X49741Y47695D01*
X49792Y47780D01*
X49822Y47843D01*
X49949Y47815D01*
Y46165D01*
X49822Y46137D01*
X49792Y46200D01*
X49741Y46285D01*
X49681Y46365D01*
X49614Y46439D01*
X49540Y46506D01*
X49460Y46566D01*
X49375Y46617D01*
X49284Y46660D01*
X49190Y46693D01*
X49093Y46718D01*
X48995Y46732D01*
X48895Y46737D01*
X48387D01*
Y45720D01*
Y44703D01*
X48895D01*
X48995Y44708D01*
X49093Y44722D01*
X49190Y44747D01*
X49284Y44780D01*
X49375Y44823D01*
X49460Y44874D01*
X49540Y44934D01*
X49614Y45001D01*
X49681Y45075D01*
X49741Y45155D01*
X49792Y45240D01*
X49822Y45303D01*
X49949Y45275D01*
Y43625D01*
X49822Y43597D01*
X49792Y43660D01*
X49741Y43745D01*
X49681Y43825D01*
X49614Y43899D01*
X49540Y43966D01*
X49460Y44026D01*
X49375Y44077D01*
X49284Y44120D01*
X49190Y44153D01*
X49093Y44178D01*
X48995Y44192D01*
X48895Y44197D01*
X47625D01*
X47525Y44192D01*
X47427Y44178D01*
X47330Y44153D01*
X47236Y44120D01*
X47145Y44077D01*
X47060Y44026D01*
X46980Y43966D01*
X46906Y43899D01*
X46839Y43825D01*
X46779Y43745D01*
X46728Y43660D01*
X46685Y43569D01*
X46652Y43475D01*
X46627Y43378D01*
X46613Y43280D01*
X46608Y43180D01*
X46613Y43080D01*
X46627Y42982D01*
X46652Y42885D01*
X46685Y42791D01*
X46728Y42700D01*
X46779Y42615D01*
X46839Y42535D01*
X46906Y42461D01*
X46980Y42394D01*
X47060Y42334D01*
X47145Y42283D01*
X47236Y42240D01*
X47330Y42207D01*
X47427Y42182D01*
X47525Y42168D01*
X47625Y42163D01*
X48895D01*
X48995Y42168D01*
X49093Y42182D01*
X49190Y42207D01*
X49284Y42240D01*
X49375Y42283D01*
X49460Y42334D01*
X49540Y42394D01*
X49614Y42461D01*
X49681Y42535D01*
X49741Y42615D01*
X49792Y42700D01*
X49822Y42763D01*
X49949Y42735D01*
Y41085D01*
X49822Y41057D01*
X49792Y41120D01*
X49741Y41205D01*
X49681Y41285D01*
X49614Y41359D01*
X49540Y41426D01*
X49460Y41486D01*
X49375Y41537D01*
X49284Y41580D01*
X49190Y41613D01*
X49093Y41638D01*
X48995Y41652D01*
X48895Y41657D01*
X47625D01*
X47525Y41652D01*
X47427Y41638D01*
X47330Y41613D01*
X47236Y41580D01*
X47145Y41537D01*
X47060Y41486D01*
X46980Y41426D01*
X46906Y41359D01*
X46839Y41285D01*
X46779Y41205D01*
X46728Y41120D01*
X46685Y41029D01*
X46652Y40935D01*
X46627Y40838D01*
X46613Y40740D01*
X46608Y40640D01*
X46613Y40540D01*
X46627Y40442D01*
X46652Y40345D01*
X46685Y40251D01*
X46728Y40160D01*
X46779Y40075D01*
X46839Y39995D01*
X46906Y39921D01*
X46980Y39854D01*
X47060Y39794D01*
X47145Y39743D01*
X47236Y39700D01*
X47330Y39667D01*
X47427Y39642D01*
X47525Y39628D01*
X47625Y39623D01*
X48895D01*
X48995Y39628D01*
X49093Y39642D01*
X49190Y39667D01*
X49284Y39700D01*
X49375Y39743D01*
X49460Y39794D01*
X49540Y39854D01*
X49614Y39921D01*
X49681Y39995D01*
X49741Y40075D01*
X49792Y40160D01*
X49822Y40223D01*
X49949Y40195D01*
Y38545D01*
X49822Y38517D01*
X49792Y38580D01*
X49741Y38665D01*
X49681Y38745D01*
X49614Y38819D01*
X49540Y38886D01*
X49460Y38946D01*
X49375Y38997D01*
X49284Y39040D01*
X49190Y39073D01*
X49093Y39098D01*
X48995Y39112D01*
X48895Y39117D01*
X48387D01*
Y38100D01*
Y37083D01*
X48895D01*
X48995Y37088D01*
X49093Y37102D01*
X49190Y37127D01*
X49284Y37160D01*
X49375Y37203D01*
X49460Y37254D01*
X49540Y37314D01*
X49614Y37381D01*
X49681Y37455D01*
X49741Y37535D01*
X49792Y37620D01*
X49822Y37683D01*
X49949Y37655D01*
Y36005D01*
X49822Y35977D01*
X49792Y36040D01*
X49741Y36125D01*
X49681Y36205D01*
X49614Y36279D01*
X49540Y36346D01*
X49460Y36406D01*
X49375Y36457D01*
X49284Y36500D01*
X49190Y36533D01*
X49093Y36558D01*
X48995Y36572D01*
X48895Y36577D01*
X47625D01*
X47525Y36572D01*
X47427Y36558D01*
X47330Y36533D01*
X47236Y36500D01*
X47145Y36457D01*
X47060Y36406D01*
X46980Y36346D01*
X46906Y36279D01*
X46839Y36205D01*
X46779Y36125D01*
X46728Y36040D01*
X46685Y35949D01*
X46652Y35855D01*
X46627Y35758D01*
X46613Y35660D01*
X46608Y35560D01*
X46613Y35460D01*
X46627Y35362D01*
X46652Y35265D01*
X46685Y35171D01*
X46728Y35080D01*
X46779Y34995D01*
X46839Y34915D01*
X46906Y34841D01*
X46980Y34774D01*
X47060Y34714D01*
X47145Y34663D01*
X47236Y34620D01*
X47330Y34587D01*
X47427Y34562D01*
X47525Y34548D01*
X47625Y34543D01*
X48895D01*
X48995Y34548D01*
X49093Y34562D01*
X49190Y34587D01*
X49284Y34620D01*
X49375Y34663D01*
X49460Y34714D01*
X49540Y34774D01*
X49614Y34841D01*
X49681Y34915D01*
X49741Y34995D01*
X49792Y35080D01*
X49822Y35143D01*
X49949Y35115D01*
Y33465D01*
X49822Y33437D01*
X49792Y33500D01*
X49741Y33585D01*
X49681Y33665D01*
X49614Y33739D01*
X49540Y33806D01*
X49460Y33866D01*
X49375Y33917D01*
X49284Y33960D01*
X49190Y33993D01*
X49093Y34018D01*
X48995Y34032D01*
X48895Y34037D01*
X48387D01*
Y33020D01*
Y32003D01*
X48895D01*
X48995Y32008D01*
X49093Y32022D01*
X49190Y32047D01*
X49284Y32080D01*
X49375Y32123D01*
X49460Y32174D01*
X49540Y32234D01*
X49614Y32301D01*
X49681Y32375D01*
X49741Y32455D01*
X49792Y32540D01*
X49822Y32603D01*
X49949Y32575D01*
Y30925D01*
X49822Y30897D01*
X49792Y30960D01*
X49741Y31045D01*
X49681Y31125D01*
X49614Y31199D01*
X49540Y31266D01*
X49460Y31326D01*
X49375Y31377D01*
X49284Y31420D01*
X49190Y31453D01*
X49093Y31478D01*
X48995Y31492D01*
X48895Y31497D01*
X48387D01*
Y30480D01*
Y29463D01*
X48895D01*
X48995Y29468D01*
X49093Y29482D01*
X49190Y29507D01*
X49284Y29540D01*
X49375Y29583D01*
X49460Y29634D01*
X49540Y29694D01*
X49614Y29761D01*
X49681Y29835D01*
X49741Y29915D01*
X49792Y30000D01*
X49822Y30063D01*
X49949Y30035D01*
Y28385D01*
X49822Y28357D01*
X49792Y28420D01*
X49741Y28505D01*
X49681Y28585D01*
X49614Y28659D01*
X49540Y28726D01*
X49460Y28786D01*
X49375Y28837D01*
X49284Y28880D01*
X49190Y28913D01*
X49093Y28938D01*
X48995Y28952D01*
X48895Y28957D01*
X47625D01*
X47525Y28952D01*
X47427Y28938D01*
X47330Y28913D01*
X47236Y28880D01*
X47145Y28837D01*
X47060Y28786D01*
X46980Y28726D01*
X46906Y28659D01*
X46839Y28585D01*
X46779Y28505D01*
X46728Y28420D01*
X46685Y28329D01*
X46652Y28235D01*
X46627Y28138D01*
X46613Y28040D01*
X46608Y27940D01*
X46613Y27840D01*
X46627Y27742D01*
X46652Y27645D01*
X46685Y27551D01*
X46728Y27460D01*
X46779Y27375D01*
X46839Y27295D01*
X46906Y27221D01*
X46980Y27154D01*
X47060Y27094D01*
X47145Y27043D01*
X47236Y27000D01*
X47330Y26967D01*
X47427Y26942D01*
X47525Y26928D01*
X47625Y26923D01*
X48895D01*
X48995Y26928D01*
X49093Y26942D01*
X49190Y26967D01*
X49284Y27000D01*
X49375Y27043D01*
X49460Y27094D01*
X49540Y27154D01*
X49614Y27221D01*
X49681Y27295D01*
X49741Y27375D01*
X49792Y27460D01*
X49822Y27523D01*
X49949Y27495D01*
Y25845D01*
X49822Y25817D01*
X49792Y25880D01*
X49741Y25965D01*
X49681Y26045D01*
X49614Y26119D01*
X49540Y26186D01*
X49460Y26246D01*
X49375Y26297D01*
X49284Y26340D01*
X49190Y26373D01*
X49093Y26398D01*
X48995Y26412D01*
X48895Y26417D01*
X47625D01*
X47525Y26412D01*
X47427Y26398D01*
X47330Y26373D01*
X47236Y26340D01*
X47145Y26297D01*
X47060Y26246D01*
X46980Y26186D01*
X46906Y26119D01*
X46839Y26045D01*
X46779Y25965D01*
X46728Y25880D01*
X46685Y25789D01*
X46652Y25695D01*
X46627Y25598D01*
X46613Y25500D01*
X46608Y25400D01*
X46613Y25300D01*
X46627Y25202D01*
X46652Y25105D01*
X46685Y25011D01*
X46728Y24920D01*
X46779Y24835D01*
X46839Y24755D01*
X46906Y24681D01*
X46980Y24614D01*
X47060Y24554D01*
X47145Y24503D01*
X47236Y24460D01*
X47330Y24427D01*
X47427Y24402D01*
X47525Y24388D01*
X47625Y24383D01*
X48895D01*
X48995Y24388D01*
X49093Y24402D01*
X49190Y24427D01*
X49284Y24460D01*
X49375Y24503D01*
X49460Y24554D01*
X49540Y24614D01*
X49614Y24681D01*
X49681Y24755D01*
X49741Y24835D01*
X49792Y24920D01*
X49822Y24983D01*
X49949Y24955D01*
Y23305D01*
X49822Y23277D01*
X49792Y23340D01*
X49741Y23425D01*
X49681Y23505D01*
X49614Y23579D01*
X49540Y23646D01*
X49460Y23706D01*
X49375Y23757D01*
X49284Y23800D01*
X49190Y23833D01*
X49093Y23858D01*
X48995Y23872D01*
X48895Y23877D01*
X47625D01*
X47525Y23872D01*
X47427Y23858D01*
X47330Y23833D01*
X47236Y23800D01*
X47145Y23757D01*
X47060Y23706D01*
X46980Y23646D01*
X46906Y23579D01*
X46839Y23505D01*
X46779Y23425D01*
X46728Y23340D01*
X46685Y23249D01*
X46652Y23155D01*
X46627Y23058D01*
X46613Y22960D01*
X46608Y22860D01*
X46613Y22760D01*
X46627Y22662D01*
X46652Y22565D01*
X46685Y22471D01*
X46728Y22380D01*
X46779Y22295D01*
X46839Y22215D01*
X46906Y22141D01*
X46980Y22074D01*
X47060Y22014D01*
X47145Y21963D01*
X47236Y21920D01*
X47330Y21887D01*
X47427Y21862D01*
X47525Y21848D01*
X47625Y21843D01*
X48895D01*
X48995Y21848D01*
X49093Y21862D01*
X49190Y21887D01*
X49284Y21920D01*
X49375Y21963D01*
X49460Y22014D01*
X49540Y22074D01*
X49614Y22141D01*
X49681Y22215D01*
X49741Y22295D01*
X49792Y22380D01*
X49822Y22443D01*
X49949Y22415D01*
Y20765D01*
X49822Y20737D01*
X49792Y20800D01*
X49741Y20885D01*
X49681Y20965D01*
X49614Y21039D01*
X49540Y21106D01*
X49460Y21166D01*
X49375Y21217D01*
X49284Y21260D01*
X49190Y21293D01*
X49093Y21318D01*
X48995Y21332D01*
X48895Y21337D01*
X47625D01*
X47525Y21332D01*
X47427Y21318D01*
X47330Y21293D01*
X47236Y21260D01*
X47145Y21217D01*
X47060Y21166D01*
X46980Y21106D01*
X46906Y21039D01*
X46839Y20965D01*
X46779Y20885D01*
X46728Y20800D01*
X46685Y20709D01*
X46652Y20615D01*
X46627Y20518D01*
X46613Y20420D01*
X46608Y20320D01*
X46613Y20220D01*
X46627Y20122D01*
X46652Y20025D01*
X46685Y19931D01*
X46728Y19840D01*
X46779Y19755D01*
X46839Y19675D01*
X46906Y19601D01*
X46980Y19534D01*
X47060Y19474D01*
X47145Y19423D01*
X47236Y19380D01*
X47330Y19347D01*
X47427Y19322D01*
X47525Y19308D01*
X47625Y19303D01*
X48895D01*
X48995Y19308D01*
X49093Y19322D01*
X49190Y19347D01*
X49284Y19380D01*
X49375Y19423D01*
X49460Y19474D01*
X49540Y19534D01*
X49614Y19601D01*
X49681Y19675D01*
X49741Y19755D01*
X49792Y19840D01*
X49822Y19903D01*
X49949Y19875D01*
Y18225D01*
X49822Y18197D01*
X49792Y18260D01*
X49741Y18345D01*
X49681Y18425D01*
X49614Y18499D01*
X49540Y18566D01*
X49460Y18626D01*
X49375Y18677D01*
X49284Y18720D01*
X49190Y18753D01*
X49093Y18778D01*
X48995Y18792D01*
X48895Y18797D01*
X47625D01*
X47525Y18792D01*
X47427Y18778D01*
X47330Y18753D01*
X47236Y18720D01*
X47145Y18677D01*
X47060Y18626D01*
X46980Y18566D01*
X46906Y18499D01*
X46839Y18425D01*
X46779Y18345D01*
X46728Y18260D01*
X46685Y18169D01*
X46652Y18075D01*
X46627Y17978D01*
X46613Y17880D01*
X46608Y17780D01*
X46613Y17680D01*
X46627Y17582D01*
X46652Y17485D01*
X46685Y17391D01*
X46728Y17300D01*
X46779Y17215D01*
X46839Y17135D01*
X46906Y17061D01*
X46980Y16994D01*
X47060Y16934D01*
X47145Y16883D01*
X47236Y16840D01*
X47330Y16807D01*
X47427Y16782D01*
X47525Y16768D01*
X47625Y16763D01*
X48895D01*
X48995Y16768D01*
X49093Y16782D01*
X49190Y16807D01*
X49284Y16840D01*
X49375Y16883D01*
X49460Y16934D01*
X49540Y16994D01*
X49614Y17061D01*
X49681Y17135D01*
X49741Y17215D01*
X49792Y17300D01*
X49822Y17363D01*
X49949Y17335D01*
Y15685D01*
X49822Y15657D01*
X49792Y15720D01*
X49741Y15805D01*
X49681Y15885D01*
X49614Y15959D01*
X49540Y16026D01*
X49460Y16086D01*
X49375Y16137D01*
X49284Y16180D01*
X49190Y16213D01*
X49093Y16238D01*
X48995Y16252D01*
X48895Y16257D01*
X48387D01*
Y15240D01*
Y14223D01*
X48895D01*
X48995Y14228D01*
X49093Y14242D01*
X49190Y14267D01*
X49284Y14300D01*
X49375Y14343D01*
X49460Y14394D01*
X49540Y14454D01*
X49614Y14521D01*
X49681Y14595D01*
X49741Y14675D01*
X49792Y14760D01*
X49822Y14823D01*
X49949Y14795D01*
Y13145D01*
X49822Y13117D01*
X49792Y13180D01*
X49741Y13265D01*
X49681Y13345D01*
X49614Y13419D01*
X49540Y13486D01*
X49460Y13546D01*
X49375Y13597D01*
X49284Y13640D01*
X49190Y13673D01*
X49093Y13698D01*
X48995Y13712D01*
X48895Y13717D01*
X48387D01*
Y12700D01*
Y11683D01*
X48895D01*
X48995Y11688D01*
X49093Y11702D01*
X49190Y11727D01*
X49284Y11760D01*
X49375Y11803D01*
X49460Y11854D01*
X49540Y11914D01*
X49614Y11981D01*
X49681Y12055D01*
X49741Y12135D01*
X49792Y12220D01*
X49822Y12283D01*
X49949Y12255D01*
Y10605D01*
X49822Y10577D01*
X49792Y10640D01*
X49741Y10725D01*
X49681Y10805D01*
X49614Y10879D01*
X49540Y10946D01*
X49460Y11006D01*
X49375Y11057D01*
X49284Y11100D01*
X49190Y11133D01*
X49093Y11158D01*
X48995Y11172D01*
X48895Y11177D01*
X47625D01*
X47525Y11172D01*
X47427Y11158D01*
X47330Y11133D01*
X47236Y11100D01*
X47145Y11057D01*
X47060Y11006D01*
X46980Y10946D01*
X46906Y10879D01*
X46839Y10805D01*
X46779Y10725D01*
X46728Y10640D01*
X46685Y10549D01*
X46652Y10455D01*
X46627Y10358D01*
X46613Y10260D01*
X46608Y10160D01*
X46613Y10060D01*
X46627Y9962D01*
X46652Y9865D01*
X46685Y9771D01*
X46728Y9680D01*
X46779Y9595D01*
X46839Y9515D01*
X46906Y9441D01*
X46980Y9374D01*
X47060Y9314D01*
X47145Y9263D01*
X47236Y9220D01*
X47330Y9187D01*
X47427Y9162D01*
X47525Y9148D01*
X47625Y9143D01*
X48895D01*
X48995Y9148D01*
X49093Y9162D01*
X49190Y9187D01*
X49284Y9220D01*
X49375Y9263D01*
X49460Y9314D01*
X49540Y9374D01*
X49614Y9441D01*
X49681Y9515D01*
X49741Y9595D01*
X49792Y9680D01*
X49822Y9743D01*
X49949Y9715D01*
Y8065D01*
X49822Y8037D01*
X49792Y8100D01*
X49741Y8185D01*
X49681Y8265D01*
X49614Y8339D01*
X49540Y8406D01*
X49460Y8466D01*
X49375Y8517D01*
X49284Y8560D01*
X49190Y8593D01*
X49093Y8618D01*
X48995Y8632D01*
X48895Y8637D01*
X47625D01*
X47525Y8632D01*
X47427Y8618D01*
X47330Y8593D01*
X47236Y8560D01*
X47145Y8517D01*
X47060Y8466D01*
X46980Y8406D01*
X46906Y8339D01*
X46839Y8265D01*
X46779Y8185D01*
X46728Y8100D01*
X46685Y8009D01*
X46652Y7915D01*
X46627Y7818D01*
X46613Y7720D01*
X46608Y7620D01*
X46613Y7520D01*
X46627Y7422D01*
X46652Y7325D01*
X46685Y7231D01*
X46728Y7140D01*
X46779Y7055D01*
X46839Y6975D01*
X46906Y6901D01*
X46980Y6834D01*
X47060Y6774D01*
X47145Y6723D01*
X47236Y6680D01*
X47330Y6647D01*
X47427Y6622D01*
X47525Y6608D01*
X47625Y6603D01*
X48895D01*
X48995Y6608D01*
X49093Y6622D01*
X49190Y6647D01*
X49284Y6680D01*
X49375Y6723D01*
X49460Y6774D01*
X49540Y6834D01*
X49614Y6901D01*
X49681Y6975D01*
X49741Y7055D01*
X49792Y7140D01*
X49822Y7203D01*
X49949Y7175D01*
Y5525D01*
X49822Y5497D01*
X49792Y5560D01*
X49741Y5645D01*
X49681Y5725D01*
X49614Y5799D01*
X49540Y5866D01*
X49460Y5926D01*
X49375Y5977D01*
X49284Y6020D01*
X49190Y6053D01*
X49093Y6078D01*
X48995Y6092D01*
X48895Y6097D01*
X47625D01*
X47525Y6092D01*
X47427Y6078D01*
X47330Y6053D01*
X47236Y6020D01*
X47145Y5977D01*
X47060Y5926D01*
X46980Y5866D01*
X46906Y5799D01*
X46839Y5725D01*
X46779Y5645D01*
X46728Y5560D01*
X46685Y5469D01*
X46652Y5375D01*
X46627Y5278D01*
X46613Y5180D01*
X46608Y5080D01*
X46613Y4980D01*
X46627Y4882D01*
X46652Y4785D01*
X46685Y4691D01*
X46728Y4600D01*
X46779Y4515D01*
X46839Y4435D01*
X46906Y4361D01*
X46980Y4294D01*
X47060Y4234D01*
X47145Y4183D01*
X47236Y4140D01*
X47330Y4107D01*
X47427Y4082D01*
X47525Y4068D01*
X47625Y4063D01*
X48895D01*
X48995Y4068D01*
X49093Y4082D01*
X49190Y4107D01*
X49284Y4140D01*
X49375Y4183D01*
X49460Y4234D01*
X49540Y4294D01*
X49614Y4361D01*
X49681Y4435D01*
X49741Y4515D01*
X49792Y4600D01*
X49822Y4663D01*
X49949Y4635D01*
Y-1749D01*
X48518D01*
X48502Y-1622D01*
X48555Y-1608D01*
X48649Y-1575D01*
X48740Y-1532D01*
X48825Y-1481D01*
X48905Y-1421D01*
X48979Y-1354D01*
X49046Y-1280D01*
X49106Y-1200D01*
X49157Y-1115D01*
X49200Y-1024D01*
X49233Y-930D01*
X49258Y-833D01*
X49272Y-735D01*
X49277Y-635D01*
Y635D01*
X49272Y735D01*
X49258Y833D01*
X49233Y930D01*
X49200Y1024D01*
X49157Y1115D01*
X49106Y1200D01*
X49046Y1280D01*
X48979Y1354D01*
X48905Y1421D01*
X48825Y1481D01*
X48740Y1532D01*
X48649Y1575D01*
X48555Y1608D01*
X48458Y1633D01*
X48360Y1647D01*
X48260Y1652D01*
X48160Y1647D01*
X48062Y1633D01*
X47965Y1608D01*
X47871Y1575D01*
X47780Y1532D01*
X47695Y1481D01*
X47615Y1421D01*
X47541Y1354D01*
X47474Y1280D01*
X47414Y1200D01*
X47363Y1115D01*
X47320Y1024D01*
X47287Y930D01*
X47262Y833D01*
X47248Y735D01*
X47243Y635D01*
Y-635D01*
X47248Y-735D01*
X47262Y-833D01*
X47287Y-930D01*
X47320Y-1024D01*
X47363Y-1115D01*
X47414Y-1200D01*
X47474Y-1280D01*
X47541Y-1354D01*
X47615Y-1421D01*
X47695Y-1481D01*
X47780Y-1532D01*
X47871Y-1575D01*
X47965Y-1608D01*
X48018Y-1622D01*
X48002Y-1749D01*
X45978D01*
X45962Y-1622D01*
X46015Y-1608D01*
X46109Y-1575D01*
X46200Y-1532D01*
X46285Y-1481D01*
X46365Y-1421D01*
X46439Y-1354D01*
X46506Y-1280D01*
X46566Y-1200D01*
X46617Y-1115D01*
X46660Y-1024D01*
X46693Y-930D01*
X46718Y-833D01*
X46732Y-735D01*
X46737Y-635D01*
Y635D01*
X46732Y735D01*
X46718Y833D01*
X46693Y930D01*
X46660Y1024D01*
X46617Y1115D01*
X46566Y1200D01*
X46506Y1280D01*
X46439Y1354D01*
X46365Y1421D01*
X46285Y1481D01*
X46200Y1532D01*
X46109Y1575D01*
X46015Y1608D01*
X45918Y1633D01*
X45820Y1647D01*
X45720Y1652D01*
X45620Y1647D01*
X45522Y1633D01*
X45425Y1608D01*
X45331Y1575D01*
X45240Y1532D01*
X45155Y1481D01*
X45075Y1421D01*
X45001Y1354D01*
X44934Y1280D01*
X44874Y1200D01*
X44823Y1115D01*
X44780Y1024D01*
X44747Y930D01*
X44722Y833D01*
X44708Y735D01*
X44703Y635D01*
Y-635D01*
X44708Y-735D01*
X44722Y-833D01*
X44747Y-930D01*
X44780Y-1024D01*
X44823Y-1115D01*
X44874Y-1200D01*
X44934Y-1280D01*
X45001Y-1354D01*
X45075Y-1421D01*
X45155Y-1481D01*
X45240Y-1532D01*
X45331Y-1575D01*
X45425Y-1608D01*
X45478Y-1622D01*
X45462Y-1749D01*
X43438D01*
X43422Y-1622D01*
X43475Y-1608D01*
X43569Y-1575D01*
X43660Y-1532D01*
X43745Y-1481D01*
X43825Y-1421D01*
X43899Y-1354D01*
X43966Y-1280D01*
X44026Y-1200D01*
X44077Y-1115D01*
X44120Y-1024D01*
X44153Y-930D01*
X44178Y-833D01*
X44192Y-735D01*
X44197Y-635D01*
Y635D01*
X44192Y735D01*
X44178Y833D01*
X44153Y930D01*
X44120Y1024D01*
X44077Y1115D01*
X44026Y1200D01*
X43966Y1280D01*
X43899Y1354D01*
X43825Y1421D01*
X43745Y1481D01*
X43660Y1532D01*
X43569Y1575D01*
X43475Y1608D01*
X43378Y1633D01*
X43280Y1647D01*
X43180Y1652D01*
X43080Y1647D01*
X42982Y1633D01*
X42885Y1608D01*
X42791Y1575D01*
X42700Y1532D01*
X42615Y1481D01*
X42535Y1421D01*
X42461Y1354D01*
X42394Y1280D01*
X42334Y1200D01*
X42283Y1115D01*
X42240Y1024D01*
X42207Y930D01*
X42182Y833D01*
X42168Y735D01*
X42163Y635D01*
Y-635D01*
X42168Y-735D01*
X42182Y-833D01*
X42207Y-930D01*
X42240Y-1024D01*
X42283Y-1115D01*
X42334Y-1200D01*
X42394Y-1280D01*
X42461Y-1354D01*
X42535Y-1421D01*
X42615Y-1481D01*
X42700Y-1532D01*
X42791Y-1575D01*
X42885Y-1608D01*
X42938Y-1622D01*
X42922Y-1749D01*
X40898D01*
X40882Y-1622D01*
X40935Y-1608D01*
X41029Y-1575D01*
X41120Y-1532D01*
X41205Y-1481D01*
X41285Y-1421D01*
X41359Y-1354D01*
X41426Y-1280D01*
X41486Y-1200D01*
X41537Y-1115D01*
X41580Y-1024D01*
X41613Y-930D01*
X41638Y-833D01*
X41652Y-735D01*
X41657Y-635D01*
Y635D01*
X41652Y735D01*
X41638Y833D01*
X41613Y930D01*
X41580Y1024D01*
X41537Y1115D01*
X41486Y1200D01*
X41426Y1280D01*
X41359Y1354D01*
X41285Y1421D01*
X41205Y1481D01*
X41120Y1532D01*
X41029Y1575D01*
X40935Y1608D01*
X40838Y1633D01*
X40740Y1647D01*
X40640Y1652D01*
X40540Y1647D01*
X40442Y1633D01*
X40345Y1608D01*
X40251Y1575D01*
X40160Y1532D01*
X40075Y1481D01*
X39995Y1421D01*
X39921Y1354D01*
X39854Y1280D01*
X39794Y1200D01*
X39743Y1115D01*
X39700Y1024D01*
X39667Y930D01*
X39642Y833D01*
X39628Y735D01*
X39623Y635D01*
Y-635D01*
X39628Y-735D01*
X39642Y-833D01*
X39667Y-930D01*
X39700Y-1024D01*
X39743Y-1115D01*
X39794Y-1200D01*
X39854Y-1280D01*
X39921Y-1354D01*
X39995Y-1421D01*
X40075Y-1481D01*
X40160Y-1532D01*
X40251Y-1575D01*
X40345Y-1608D01*
X40398Y-1622D01*
X40382Y-1749D01*
X38358D01*
X38342Y-1622D01*
X38395Y-1608D01*
X38489Y-1575D01*
X38580Y-1532D01*
X38665Y-1481D01*
X38745Y-1421D01*
X38819Y-1354D01*
X38886Y-1280D01*
X38946Y-1200D01*
X38997Y-1115D01*
X39040Y-1024D01*
X39073Y-930D01*
X39098Y-833D01*
X39112Y-735D01*
X39117Y-635D01*
Y635D01*
X39112Y735D01*
X39098Y833D01*
X39073Y930D01*
X39040Y1024D01*
X38997Y1115D01*
X38946Y1200D01*
X38886Y1280D01*
X38819Y1354D01*
X38745Y1421D01*
X38665Y1481D01*
X38580Y1532D01*
X38489Y1575D01*
X38395Y1608D01*
X38298Y1633D01*
X38200Y1647D01*
X38100Y1652D01*
X38000Y1647D01*
X37902Y1633D01*
X37805Y1608D01*
X37711Y1575D01*
X37620Y1532D01*
X37535Y1481D01*
X37455Y1421D01*
X37381Y1354D01*
X37314Y1280D01*
X37254Y1200D01*
X37203Y1115D01*
X37160Y1024D01*
X37127Y930D01*
X37102Y833D01*
X37088Y735D01*
X37083Y635D01*
Y-635D01*
X37088Y-735D01*
X37102Y-833D01*
X37127Y-930D01*
X37160Y-1024D01*
X37203Y-1115D01*
X37254Y-1200D01*
X37314Y-1280D01*
X37381Y-1354D01*
X37455Y-1421D01*
X37535Y-1481D01*
X37620Y-1532D01*
X37711Y-1575D01*
X37805Y-1608D01*
X37858Y-1622D01*
X37842Y-1749D01*
X35818D01*
X35802Y-1622D01*
X35855Y-1608D01*
X35949Y-1575D01*
X36040Y-1532D01*
X36125Y-1481D01*
X36205Y-1421D01*
X36279Y-1354D01*
X36346Y-1280D01*
X36406Y-1200D01*
X36457Y-1115D01*
X36500Y-1024D01*
X36533Y-930D01*
X36558Y-833D01*
X36572Y-735D01*
X36577Y-635D01*
Y635D01*
X36572Y735D01*
X36558Y833D01*
X36533Y930D01*
X36500Y1024D01*
X36457Y1115D01*
X36406Y1200D01*
X36346Y1280D01*
X36279Y1354D01*
X36205Y1421D01*
X36125Y1481D01*
X36040Y1532D01*
X35949Y1575D01*
X35855Y1608D01*
X35758Y1633D01*
X35660Y1647D01*
X35560Y1652D01*
X35460Y1647D01*
X35362Y1633D01*
X35265Y1608D01*
X35171Y1575D01*
X35080Y1532D01*
X34995Y1481D01*
X34915Y1421D01*
X34841Y1354D01*
X34774Y1280D01*
X34714Y1200D01*
X34663Y1115D01*
X34620Y1024D01*
X34587Y930D01*
X34562Y833D01*
X34548Y735D01*
X34543Y635D01*
Y-635D01*
X34548Y-735D01*
X34562Y-833D01*
X34587Y-930D01*
X34620Y-1024D01*
X34663Y-1115D01*
X34714Y-1200D01*
X34774Y-1280D01*
X34841Y-1354D01*
X34915Y-1421D01*
X34995Y-1481D01*
X35080Y-1532D01*
X35171Y-1575D01*
X35265Y-1608D01*
X35318Y-1622D01*
X35302Y-1749D01*
X33278D01*
X33262Y-1622D01*
X33315Y-1608D01*
X33409Y-1575D01*
X33500Y-1532D01*
X33585Y-1481D01*
X33665Y-1421D01*
X33739Y-1354D01*
X33806Y-1280D01*
X33866Y-1200D01*
X33917Y-1115D01*
X33960Y-1024D01*
X33993Y-930D01*
X34018Y-833D01*
X34032Y-735D01*
X34037Y-635D01*
Y635D01*
X34032Y735D01*
X34018Y833D01*
X33993Y930D01*
X33960Y1024D01*
X33917Y1115D01*
X33866Y1200D01*
X33806Y1280D01*
X33739Y1354D01*
X33665Y1421D01*
X33585Y1481D01*
X33500Y1532D01*
X33409Y1575D01*
X33315Y1608D01*
X33218Y1633D01*
X33120Y1647D01*
X33020Y1652D01*
X32920Y1647D01*
X32822Y1633D01*
X32725Y1608D01*
X32631Y1575D01*
X32540Y1532D01*
X32455Y1481D01*
X32375Y1421D01*
X32301Y1354D01*
X32234Y1280D01*
X32174Y1200D01*
X32123Y1115D01*
X32080Y1024D01*
X32047Y930D01*
X32022Y833D01*
X32008Y735D01*
X32003Y635D01*
Y-635D01*
X32008Y-735D01*
X32022Y-833D01*
X32047Y-930D01*
X32080Y-1024D01*
X32123Y-1115D01*
X32174Y-1200D01*
X32234Y-1280D01*
X32301Y-1354D01*
X32375Y-1421D01*
X32455Y-1481D01*
X32540Y-1532D01*
X32631Y-1575D01*
X32725Y-1608D01*
X32778Y-1622D01*
X32762Y-1749D01*
X30738D01*
X30722Y-1622D01*
X30775Y-1608D01*
X30869Y-1575D01*
X30960Y-1532D01*
X31045Y-1481D01*
X31125Y-1421D01*
X31199Y-1354D01*
X31266Y-1280D01*
X31326Y-1200D01*
X31377Y-1115D01*
X31420Y-1024D01*
X31453Y-930D01*
X31478Y-833D01*
X31492Y-735D01*
X31497Y-635D01*
Y635D01*
X31492Y735D01*
X31478Y833D01*
X31453Y930D01*
X31420Y1024D01*
X31377Y1115D01*
X31326Y1200D01*
X31266Y1280D01*
X31199Y1354D01*
X31125Y1421D01*
X31045Y1481D01*
X30960Y1532D01*
X30869Y1575D01*
X30775Y1608D01*
X30678Y1633D01*
X30580Y1647D01*
X30480Y1652D01*
X30380Y1647D01*
X30282Y1633D01*
X30185Y1608D01*
X30091Y1575D01*
X30000Y1532D01*
X29915Y1481D01*
X29835Y1421D01*
X29761Y1354D01*
X29694Y1280D01*
X29634Y1200D01*
X29583Y1115D01*
X29540Y1024D01*
X29507Y930D01*
X29482Y833D01*
X29468Y735D01*
X29463Y635D01*
Y-635D01*
X29468Y-735D01*
X29482Y-833D01*
X29507Y-930D01*
X29540Y-1024D01*
X29583Y-1115D01*
X29634Y-1200D01*
X29694Y-1280D01*
X29761Y-1354D01*
X29835Y-1421D01*
X29915Y-1481D01*
X30000Y-1532D01*
X30091Y-1575D01*
X30185Y-1608D01*
X30238Y-1622D01*
X30222Y-1749D01*
X28198D01*
X28182Y-1622D01*
X28235Y-1608D01*
X28329Y-1575D01*
X28420Y-1532D01*
X28505Y-1481D01*
X28585Y-1421D01*
X28659Y-1354D01*
X28726Y-1280D01*
X28786Y-1200D01*
X28837Y-1115D01*
X28880Y-1024D01*
X28913Y-930D01*
X28938Y-833D01*
X28952Y-735D01*
X28957Y-635D01*
Y635D01*
X28952Y735D01*
X28938Y833D01*
X28913Y930D01*
X28880Y1024D01*
X28837Y1115D01*
X28786Y1200D01*
X28726Y1280D01*
X28659Y1354D01*
X28585Y1421D01*
X28505Y1481D01*
X28420Y1532D01*
X28329Y1575D01*
X28235Y1608D01*
X28138Y1633D01*
X28040Y1647D01*
X27940Y1652D01*
X27840Y1647D01*
X27742Y1633D01*
X27645Y1608D01*
X27551Y1575D01*
X27460Y1532D01*
X27375Y1481D01*
X27295Y1421D01*
X27221Y1354D01*
X27154Y1280D01*
X27094Y1200D01*
X27043Y1115D01*
X27000Y1024D01*
X26967Y930D01*
X26942Y833D01*
X26928Y735D01*
X26923Y635D01*
Y-635D01*
X26928Y-735D01*
X26942Y-833D01*
X26967Y-930D01*
X27000Y-1024D01*
X27043Y-1115D01*
X27094Y-1200D01*
X27154Y-1280D01*
X27221Y-1354D01*
X27295Y-1421D01*
X27375Y-1481D01*
X27460Y-1532D01*
X27551Y-1575D01*
X27645Y-1608D01*
X27698Y-1622D01*
X27682Y-1749D01*
X25658D01*
X25642Y-1622D01*
X25695Y-1608D01*
X25789Y-1575D01*
X25880Y-1532D01*
X25965Y-1481D01*
X26045Y-1421D01*
X26119Y-1354D01*
X26186Y-1280D01*
X26246Y-1200D01*
X26297Y-1115D01*
X26340Y-1024D01*
X26373Y-930D01*
X26398Y-833D01*
X26412Y-735D01*
X26417Y-635D01*
Y635D01*
X26412Y735D01*
X26398Y833D01*
X26373Y930D01*
X26340Y1024D01*
X26297Y1115D01*
X26246Y1200D01*
X26186Y1280D01*
X26119Y1354D01*
X26045Y1421D01*
X25965Y1481D01*
X25880Y1532D01*
X25789Y1575D01*
X25695Y1608D01*
X25598Y1633D01*
X25500Y1647D01*
X25400Y1652D01*
X25300Y1647D01*
X25202Y1633D01*
X25105Y1608D01*
X25011Y1575D01*
X24920Y1532D01*
X24835Y1481D01*
X24755Y1421D01*
X24681Y1354D01*
X24614Y1280D01*
X24554Y1200D01*
X24503Y1115D01*
X24460Y1024D01*
X24427Y930D01*
X24402Y833D01*
X24388Y735D01*
X24383Y635D01*
Y-635D01*
X24388Y-735D01*
X24402Y-833D01*
X24427Y-930D01*
X24460Y-1024D01*
X24503Y-1115D01*
X24554Y-1200D01*
X24614Y-1280D01*
X24681Y-1354D01*
X24755Y-1421D01*
X24835Y-1481D01*
X24920Y-1532D01*
X25011Y-1575D01*
X25105Y-1608D01*
X25158Y-1622D01*
X25142Y-1749D01*
X23118D01*
X23102Y-1622D01*
X23155Y-1608D01*
X23249Y-1575D01*
X23340Y-1532D01*
X23425Y-1481D01*
X23505Y-1421D01*
X23579Y-1354D01*
X23646Y-1280D01*
X23706Y-1200D01*
X23757Y-1115D01*
X23800Y-1024D01*
X23833Y-930D01*
X23858Y-833D01*
X23872Y-735D01*
X23877Y-635D01*
Y-127D01*
X22860D01*
X21843D01*
Y-635D01*
X21848Y-735D01*
X21862Y-833D01*
X21887Y-930D01*
X21920Y-1024D01*
X21963Y-1115D01*
X22014Y-1200D01*
X22074Y-1280D01*
X22141Y-1354D01*
X22215Y-1421D01*
X22295Y-1481D01*
X22380Y-1532D01*
X22471Y-1575D01*
X22565Y-1608D01*
X22618Y-1622D01*
X22602Y-1749D01*
X20578D01*
X20562Y-1622D01*
X20615Y-1608D01*
X20709Y-1575D01*
X20800Y-1532D01*
X20885Y-1481D01*
X20965Y-1421D01*
X21039Y-1354D01*
X21106Y-1280D01*
X21166Y-1200D01*
X21217Y-1115D01*
X21260Y-1024D01*
X21293Y-930D01*
X21318Y-833D01*
X21332Y-735D01*
X21337Y-635D01*
Y-127D01*
X20320D01*
X19303D01*
Y-635D01*
X19308Y-735D01*
X19322Y-833D01*
X19347Y-930D01*
X19380Y-1024D01*
X19423Y-1115D01*
X19474Y-1200D01*
X19534Y-1280D01*
X19601Y-1354D01*
X19675Y-1421D01*
X19755Y-1481D01*
X19840Y-1532D01*
X19931Y-1575D01*
X20025Y-1608D01*
X20078Y-1622D01*
X20062Y-1749D01*
X18038D01*
X18022Y-1622D01*
X18075Y-1608D01*
X18169Y-1575D01*
X18260Y-1532D01*
X18345Y-1481D01*
X18425Y-1421D01*
X18499Y-1354D01*
X18566Y-1280D01*
X18626Y-1200D01*
X18677Y-1115D01*
X18720Y-1024D01*
X18753Y-930D01*
X18778Y-833D01*
X18792Y-735D01*
X18797Y-635D01*
Y635D01*
X18792Y735D01*
X18778Y833D01*
X18753Y930D01*
X18720Y1024D01*
X18677Y1115D01*
X18626Y1200D01*
X18566Y1280D01*
X18499Y1354D01*
X18425Y1421D01*
X18345Y1481D01*
X18260Y1532D01*
X18169Y1575D01*
X18075Y1608D01*
X17978Y1633D01*
X17880Y1647D01*
X17780Y1652D01*
X17680Y1647D01*
X17582Y1633D01*
X17485Y1608D01*
X17391Y1575D01*
X17300Y1532D01*
X17215Y1481D01*
X17135Y1421D01*
X17061Y1354D01*
X16994Y1280D01*
X16934Y1200D01*
X16883Y1115D01*
X16840Y1024D01*
X16807Y930D01*
X16782Y833D01*
X16768Y735D01*
X16763Y635D01*
Y-635D01*
X16768Y-735D01*
X16782Y-833D01*
X16807Y-930D01*
X16840Y-1024D01*
X16883Y-1115D01*
X16934Y-1200D01*
X16994Y-1280D01*
X17061Y-1354D01*
X17135Y-1421D01*
X17215Y-1481D01*
X17300Y-1532D01*
X17391Y-1575D01*
X17485Y-1608D01*
X17538Y-1622D01*
X17522Y-1749D01*
X15498D01*
X15482Y-1622D01*
X15535Y-1608D01*
X15629Y-1575D01*
X15720Y-1532D01*
X15805Y-1481D01*
X15885Y-1421D01*
X15959Y-1354D01*
X16026Y-1280D01*
X16086Y-1200D01*
X16137Y-1115D01*
X16180Y-1024D01*
X16213Y-930D01*
X16238Y-833D01*
X16252Y-735D01*
X16257Y-635D01*
Y635D01*
X16252Y735D01*
X16238Y833D01*
X16213Y930D01*
X16180Y1024D01*
X16137Y1115D01*
X16086Y1200D01*
X16026Y1280D01*
X15959Y1354D01*
X15885Y1421D01*
X15805Y1481D01*
X15720Y1532D01*
X15629Y1575D01*
X15535Y1608D01*
X15438Y1633D01*
X15340Y1647D01*
X15240Y1652D01*
X15140Y1647D01*
X15042Y1633D01*
X14945Y1608D01*
X14851Y1575D01*
X14760Y1532D01*
X14675Y1481D01*
X14595Y1421D01*
X14521Y1354D01*
X14454Y1280D01*
X14394Y1200D01*
X14343Y1115D01*
X14300Y1024D01*
X14267Y930D01*
X14242Y833D01*
X14228Y735D01*
X14223Y635D01*
Y-635D01*
X14228Y-735D01*
X14242Y-833D01*
X14267Y-930D01*
X14300Y-1024D01*
X14343Y-1115D01*
X14394Y-1200D01*
X14454Y-1280D01*
X14521Y-1354D01*
X14595Y-1421D01*
X14675Y-1481D01*
X14760Y-1532D01*
X14851Y-1575D01*
X14945Y-1608D01*
X14998Y-1622D01*
X14982Y-1749D01*
X12958D01*
X12942Y-1622D01*
X12995Y-1608D01*
X13089Y-1575D01*
X13180Y-1532D01*
X13265Y-1481D01*
X13345Y-1421D01*
X13419Y-1354D01*
X13486Y-1280D01*
X13546Y-1200D01*
X13597Y-1115D01*
X13640Y-1024D01*
X13673Y-930D01*
X13698Y-833D01*
X13712Y-735D01*
X13717Y-635D01*
Y635D01*
X13712Y735D01*
X13698Y833D01*
X13673Y930D01*
X13640Y1024D01*
X13597Y1115D01*
X13546Y1200D01*
X13486Y1280D01*
X13419Y1354D01*
X13345Y1421D01*
X13265Y1481D01*
X13180Y1532D01*
X13089Y1575D01*
X12995Y1608D01*
X12898Y1633D01*
X12800Y1647D01*
X12700Y1652D01*
X12600Y1647D01*
X12502Y1633D01*
X12405Y1608D01*
X12311Y1575D01*
X12220Y1532D01*
X12135Y1481D01*
X12055Y1421D01*
X11981Y1354D01*
X11914Y1280D01*
X11854Y1200D01*
X11803Y1115D01*
X11760Y1024D01*
X11727Y930D01*
X11702Y833D01*
X11688Y735D01*
X11683Y635D01*
Y-635D01*
X11688Y-735D01*
X11702Y-833D01*
X11727Y-930D01*
X11760Y-1024D01*
X11803Y-1115D01*
X11854Y-1200D01*
X11914Y-1280D01*
X11981Y-1354D01*
X12055Y-1421D01*
X12135Y-1481D01*
X12220Y-1532D01*
X12311Y-1575D01*
X12405Y-1608D01*
X12458Y-1622D01*
X12442Y-1749D01*
X10418D01*
X10402Y-1622D01*
X10455Y-1608D01*
X10549Y-1575D01*
X10640Y-1532D01*
X10725Y-1481D01*
X10805Y-1421D01*
X10879Y-1354D01*
X10946Y-1280D01*
X11006Y-1200D01*
X11057Y-1115D01*
X11100Y-1024D01*
X11133Y-930D01*
X11158Y-833D01*
X11172Y-735D01*
X11177Y-635D01*
Y635D01*
X11172Y735D01*
X11158Y833D01*
X11133Y930D01*
X11100Y1024D01*
X11057Y1115D01*
X11006Y1200D01*
X10946Y1280D01*
X10879Y1354D01*
X10805Y1421D01*
X10725Y1481D01*
X10640Y1532D01*
X10549Y1575D01*
X10455Y1608D01*
X10358Y1633D01*
X10260Y1647D01*
X10160Y1652D01*
X10060Y1647D01*
X9962Y1633D01*
X9865Y1608D01*
X9771Y1575D01*
X9680Y1532D01*
X9595Y1481D01*
X9515Y1421D01*
X9441Y1354D01*
X9374Y1280D01*
X9314Y1200D01*
X9263Y1115D01*
X9220Y1024D01*
X9187Y930D01*
X9162Y833D01*
X9148Y735D01*
X9143Y635D01*
Y-635D01*
X9148Y-735D01*
X9162Y-833D01*
X9187Y-930D01*
X9220Y-1024D01*
X9263Y-1115D01*
X9314Y-1200D01*
X9374Y-1280D01*
X9441Y-1354D01*
X9515Y-1421D01*
X9595Y-1481D01*
X9680Y-1532D01*
X9771Y-1575D01*
X9865Y-1608D01*
X9918Y-1622D01*
X9902Y-1749D01*
X7878D01*
X7862Y-1622D01*
X7915Y-1608D01*
X8009Y-1575D01*
X8100Y-1532D01*
X8185Y-1481D01*
X8265Y-1421D01*
X8339Y-1354D01*
X8406Y-1280D01*
X8466Y-1200D01*
X8517Y-1115D01*
X8560Y-1024D01*
X8593Y-930D01*
X8618Y-833D01*
X8632Y-735D01*
X8637Y-635D01*
Y635D01*
X8632Y735D01*
X8618Y833D01*
X8593Y930D01*
X8560Y1024D01*
X8517Y1115D01*
X8466Y1200D01*
X8406Y1280D01*
X8339Y1354D01*
X8265Y1421D01*
X8185Y1481D01*
X8100Y1532D01*
X8009Y1575D01*
X7915Y1608D01*
X7818Y1633D01*
X7720Y1647D01*
X7620Y1652D01*
X7520Y1647D01*
X7422Y1633D01*
X7325Y1608D01*
X7231Y1575D01*
X7140Y1532D01*
X7055Y1481D01*
X6975Y1421D01*
X6901Y1354D01*
X6834Y1280D01*
X6774Y1200D01*
X6723Y1115D01*
X6680Y1024D01*
X6647Y930D01*
X6622Y833D01*
X6608Y735D01*
X6603Y635D01*
Y-635D01*
X6608Y-735D01*
X6622Y-833D01*
X6647Y-930D01*
X6680Y-1024D01*
X6723Y-1115D01*
X6774Y-1200D01*
X6834Y-1280D01*
X6901Y-1354D01*
X6975Y-1421D01*
X7055Y-1481D01*
X7140Y-1532D01*
X7231Y-1575D01*
X7325Y-1608D01*
X7378Y-1622D01*
X7362Y-1749D01*
X5338D01*
X5322Y-1622D01*
X5375Y-1608D01*
X5469Y-1575D01*
X5560Y-1532D01*
X5645Y-1481D01*
X5725Y-1421D01*
X5799Y-1354D01*
X5866Y-1280D01*
X5926Y-1200D01*
X5977Y-1115D01*
X6020Y-1024D01*
X6053Y-930D01*
X6078Y-833D01*
X6092Y-735D01*
X6097Y-635D01*
Y635D01*
X6092Y735D01*
X6078Y833D01*
X6053Y930D01*
X6020Y1024D01*
X5977Y1115D01*
X5926Y1200D01*
X5866Y1280D01*
X5799Y1354D01*
X5725Y1421D01*
X5645Y1481D01*
X5560Y1532D01*
X5469Y1575D01*
X5375Y1608D01*
X5278Y1633D01*
X5180Y1647D01*
X5080Y1652D01*
X4980Y1647D01*
X4882Y1633D01*
X4785Y1608D01*
X4691Y1575D01*
X4600Y1532D01*
X4515Y1481D01*
X4435Y1421D01*
X4361Y1354D01*
X4294Y1280D01*
X4234Y1200D01*
X4183Y1115D01*
X4140Y1024D01*
X4107Y930D01*
X4082Y833D01*
X4068Y735D01*
X4063Y635D01*
Y-635D01*
X4068Y-735D01*
X4082Y-833D01*
X4107Y-930D01*
X4140Y-1024D01*
X4183Y-1115D01*
X4234Y-1200D01*
X4294Y-1280D01*
X4361Y-1354D01*
X4435Y-1421D01*
X4515Y-1481D01*
X4600Y-1532D01*
X4691Y-1575D01*
X4785Y-1608D01*
X4838Y-1622D01*
X4822Y-1749D01*
X2798D01*
X2782Y-1622D01*
X2835Y-1608D01*
X2929Y-1575D01*
X3020Y-1532D01*
X3105Y-1481D01*
X3185Y-1421D01*
X3259Y-1354D01*
X3326Y-1280D01*
X3386Y-1200D01*
X3437Y-1115D01*
X3480Y-1024D01*
X3513Y-930D01*
X3538Y-833D01*
X3552Y-735D01*
X3557Y-635D01*
Y635D01*
X3552Y735D01*
X3538Y833D01*
X3513Y930D01*
X3480Y1024D01*
X3437Y1115D01*
X3386Y1200D01*
X3326Y1280D01*
X3259Y1354D01*
X3185Y1421D01*
X3105Y1481D01*
X3020Y1532D01*
X2929Y1575D01*
X2835Y1608D01*
X2738Y1633D01*
X2640Y1647D01*
X2540Y1652D01*
X2440Y1647D01*
X2342Y1633D01*
X2245Y1608D01*
X2151Y1575D01*
X2060Y1532D01*
X1975Y1481D01*
X1895Y1421D01*
X1821Y1354D01*
X1754Y1280D01*
X1694Y1200D01*
X1643Y1115D01*
X1600Y1024D01*
X1567Y930D01*
X1542Y833D01*
X1528Y735D01*
X1523Y635D01*
Y-635D01*
X1528Y-735D01*
X1542Y-833D01*
X1567Y-930D01*
X1600Y-1024D01*
X1643Y-1115D01*
X1694Y-1200D01*
X1754Y-1280D01*
X1821Y-1354D01*
X1895Y-1421D01*
X1975Y-1481D01*
X2060Y-1532D01*
X2151Y-1575D01*
X2245Y-1608D01*
X2298Y-1622D01*
X2282Y-1749D01*
X1087D01*
X1016Y-1651D01*
X1016Y-1622D01*
Y-127D01*
X0D01*
X-1016D01*
Y-1622D01*
X-1016Y-1651D01*
X-1087Y-1749D01*
X-1689D01*
Y4635D01*
X-1562Y4663D01*
X-1532Y4600D01*
X-1481Y4515D01*
X-1421Y4435D01*
X-1354Y4361D01*
X-1280Y4294D01*
X-1200Y4234D01*
X-1115Y4183D01*
X-1024Y4140D01*
X-930Y4107D01*
X-833Y4082D01*
X-735Y4068D01*
X-635Y4063D01*
X635D01*
X735Y4068D01*
X833Y4082D01*
X930Y4107D01*
X1024Y4140D01*
X1115Y4183D01*
X1200Y4234D01*
X1280Y4294D01*
X1354Y4361D01*
X1421Y4435D01*
X1481Y4515D01*
X1532Y4600D01*
X1575Y4691D01*
X1608Y4785D01*
X1633Y4882D01*
X1647Y4980D01*
X1652Y5080D01*
X1647Y5180D01*
X1633Y5278D01*
X1608Y5375D01*
X1575Y5469D01*
X1532Y5560D01*
X1481Y5645D01*
X1421Y5725D01*
X1354Y5799D01*
X1280Y5866D01*
X1200Y5926D01*
X1115Y5977D01*
X1024Y6020D01*
X930Y6053D01*
X833Y6078D01*
X735Y6092D01*
X635Y6097D01*
X-635D01*
X-735Y6092D01*
X-833Y6078D01*
X-930Y6053D01*
X-1024Y6020D01*
X-1115Y5977D01*
X-1200Y5926D01*
X-1280Y5866D01*
X-1354Y5799D01*
X-1421Y5725D01*
X-1481Y5645D01*
X-1532Y5560D01*
X-1562Y5497D01*
X-1689Y5525D01*
Y7175D01*
X-1562Y7203D01*
X-1532Y7140D01*
X-1481Y7055D01*
X-1421Y6975D01*
X-1354Y6901D01*
X-1280Y6834D01*
X-1200Y6774D01*
X-1115Y6723D01*
X-1024Y6680D01*
X-930Y6647D01*
X-833Y6622D01*
X-735Y6608D01*
X-635Y6603D01*
X635D01*
X735Y6608D01*
X833Y6622D01*
X930Y6647D01*
X1024Y6680D01*
X1115Y6723D01*
X1200Y6774D01*
X1280Y6834D01*
X1354Y6901D01*
X1421Y6975D01*
X1481Y7055D01*
X1532Y7140D01*
X1575Y7231D01*
X1608Y7325D01*
X1633Y7422D01*
X1647Y7520D01*
X1652Y7620D01*
X1647Y7720D01*
X1633Y7818D01*
X1608Y7915D01*
X1575Y8009D01*
X1532Y8100D01*
X1481Y8185D01*
X1421Y8265D01*
X1354Y8339D01*
X1280Y8406D01*
X1200Y8466D01*
X1115Y8517D01*
X1024Y8560D01*
X930Y8593D01*
X833Y8618D01*
X735Y8632D01*
X635Y8637D01*
X-635D01*
X-735Y8632D01*
X-833Y8618D01*
X-930Y8593D01*
X-1024Y8560D01*
X-1115Y8517D01*
X-1200Y8466D01*
X-1280Y8406D01*
X-1354Y8339D01*
X-1421Y8265D01*
X-1481Y8185D01*
X-1532Y8100D01*
X-1562Y8037D01*
X-1689Y8065D01*
Y9715D01*
X-1562Y9743D01*
X-1532Y9680D01*
X-1481Y9595D01*
X-1421Y9515D01*
X-1354Y9441D01*
X-1280Y9374D01*
X-1200Y9314D01*
X-1115Y9263D01*
X-1024Y9220D01*
X-930Y9187D01*
X-833Y9162D01*
X-735Y9148D01*
X-635Y9143D01*
X635D01*
X735Y9148D01*
X833Y9162D01*
X930Y9187D01*
X1024Y9220D01*
X1115Y9263D01*
X1200Y9314D01*
X1280Y9374D01*
X1354Y9441D01*
X1421Y9515D01*
X1481Y9595D01*
X1532Y9680D01*
X1575Y9771D01*
X1608Y9865D01*
X1633Y9962D01*
X1647Y10060D01*
X1652Y10160D01*
X1647Y10260D01*
X1633Y10358D01*
X1608Y10455D01*
X1575Y10549D01*
X1532Y10640D01*
X1481Y10725D01*
X1421Y10805D01*
X1354Y10879D01*
X1280Y10946D01*
X1200Y11006D01*
X1115Y11057D01*
X1024Y11100D01*
X930Y11133D01*
X833Y11158D01*
X735Y11172D01*
X635Y11177D01*
X-635D01*
X-735Y11172D01*
X-833Y11158D01*
X-930Y11133D01*
X-1024Y11100D01*
X-1115Y11057D01*
X-1200Y11006D01*
X-1280Y10946D01*
X-1354Y10879D01*
X-1421Y10805D01*
X-1481Y10725D01*
X-1532Y10640D01*
X-1562Y10577D01*
X-1689Y10605D01*
Y12255D01*
X-1562Y12283D01*
X-1532Y12220D01*
X-1481Y12135D01*
X-1421Y12055D01*
X-1354Y11981D01*
X-1280Y11914D01*
X-1200Y11854D01*
X-1115Y11803D01*
X-1024Y11760D01*
X-930Y11727D01*
X-833Y11702D01*
X-735Y11688D01*
X-635Y11683D01*
X635D01*
X735Y11688D01*
X833Y11702D01*
X930Y11727D01*
X1024Y11760D01*
X1115Y11803D01*
X1200Y11854D01*
X1280Y11914D01*
X1354Y11981D01*
X1421Y12055D01*
X1481Y12135D01*
X1532Y12220D01*
X1575Y12311D01*
X1608Y12405D01*
X1633Y12502D01*
X1647Y12600D01*
X1652Y12700D01*
X1647Y12800D01*
X1633Y12898D01*
X1608Y12995D01*
X1575Y13089D01*
X1532Y13180D01*
X1481Y13265D01*
X1421Y13345D01*
X1354Y13419D01*
X1280Y13486D01*
X1200Y13546D01*
X1115Y13597D01*
X1024Y13640D01*
X930Y13673D01*
X833Y13698D01*
X735Y13712D01*
X635Y13717D01*
X-635D01*
X-735Y13712D01*
X-833Y13698D01*
X-930Y13673D01*
X-1024Y13640D01*
X-1115Y13597D01*
X-1200Y13546D01*
X-1280Y13486D01*
X-1354Y13419D01*
X-1421Y13345D01*
X-1481Y13265D01*
X-1532Y13180D01*
X-1562Y13117D01*
X-1689Y13145D01*
Y14795D01*
X-1562Y14823D01*
X-1532Y14760D01*
X-1481Y14675D01*
X-1421Y14595D01*
X-1354Y14521D01*
X-1280Y14454D01*
X-1200Y14394D01*
X-1115Y14343D01*
X-1024Y14300D01*
X-930Y14267D01*
X-833Y14242D01*
X-735Y14228D01*
X-635Y14223D01*
X-127D01*
Y15240D01*
Y16257D01*
X-635D01*
X-735Y16252D01*
X-833Y16238D01*
X-930Y16213D01*
X-1024Y16180D01*
X-1115Y16137D01*
X-1200Y16086D01*
X-1280Y16026D01*
X-1354Y15959D01*
X-1421Y15885D01*
X-1481Y15805D01*
X-1532Y15720D01*
X-1562Y15657D01*
X-1689Y15685D01*
Y17335D01*
X-1562Y17363D01*
X-1532Y17300D01*
X-1481Y17215D01*
X-1421Y17135D01*
X-1354Y17061D01*
X-1280Y16994D01*
X-1200Y16934D01*
X-1115Y16883D01*
X-1024Y16840D01*
X-930Y16807D01*
X-833Y16782D01*
X-735Y16768D01*
X-635Y16763D01*
X-127D01*
Y17780D01*
Y18797D01*
X-635D01*
X-735Y18792D01*
X-833Y18778D01*
X-930Y18753D01*
X-1024Y18720D01*
X-1115Y18677D01*
X-1200Y18626D01*
X-1280Y18566D01*
X-1354Y18499D01*
X-1421Y18425D01*
X-1481Y18345D01*
X-1532Y18260D01*
X-1562Y18197D01*
X-1689Y18225D01*
Y19875D01*
X-1562Y19903D01*
X-1532Y19840D01*
X-1481Y19755D01*
X-1421Y19675D01*
X-1354Y19601D01*
X-1280Y19534D01*
X-1200Y19474D01*
X-1115Y19423D01*
X-1024Y19380D01*
X-930Y19347D01*
X-833Y19322D01*
X-735Y19308D01*
X-635Y19303D01*
X635D01*
X735Y19308D01*
X833Y19322D01*
X930Y19347D01*
X1024Y19380D01*
X1115Y19423D01*
X1200Y19474D01*
X1280Y19534D01*
X1354Y19601D01*
X1421Y19675D01*
X1481Y19755D01*
X1532Y19840D01*
X1575Y19931D01*
X1608Y20025D01*
X1633Y20122D01*
X1647Y20220D01*
X1652Y20320D01*
X1647Y20420D01*
X1633Y20518D01*
X1608Y20615D01*
X1575Y20709D01*
X1532Y20800D01*
X1481Y20885D01*
X1421Y20965D01*
X1354Y21039D01*
X1280Y21106D01*
X1200Y21166D01*
X1115Y21217D01*
X1024Y21260D01*
X930Y21293D01*
X833Y21318D01*
X735Y21332D01*
X635Y21337D01*
X-635D01*
X-735Y21332D01*
X-833Y21318D01*
X-930Y21293D01*
X-1024Y21260D01*
X-1115Y21217D01*
X-1200Y21166D01*
X-1280Y21106D01*
X-1354Y21039D01*
X-1421Y20965D01*
X-1481Y20885D01*
X-1532Y20800D01*
X-1562Y20737D01*
X-1689Y20765D01*
Y22415D01*
X-1562Y22443D01*
X-1532Y22380D01*
X-1481Y22295D01*
X-1421Y22215D01*
X-1354Y22141D01*
X-1280Y22074D01*
X-1200Y22014D01*
X-1115Y21963D01*
X-1024Y21920D01*
X-930Y21887D01*
X-833Y21862D01*
X-735Y21848D01*
X-635Y21843D01*
X635D01*
X735Y21848D01*
X833Y21862D01*
X930Y21887D01*
X1024Y21920D01*
X1115Y21963D01*
X1200Y22014D01*
X1280Y22074D01*
X1354Y22141D01*
X1421Y22215D01*
X1481Y22295D01*
X1532Y22380D01*
X1575Y22471D01*
X1608Y22565D01*
X1633Y22662D01*
X1647Y22760D01*
X1652Y22860D01*
X1647Y22960D01*
X1633Y23058D01*
X1608Y23155D01*
X1575Y23249D01*
X1532Y23340D01*
X1481Y23425D01*
X1421Y23505D01*
X1354Y23579D01*
X1280Y23646D01*
X1200Y23706D01*
X1115Y23757D01*
X1024Y23800D01*
X930Y23833D01*
X833Y23858D01*
X735Y23872D01*
X635Y23877D01*
X-635D01*
X-735Y23872D01*
X-833Y23858D01*
X-930Y23833D01*
X-1024Y23800D01*
X-1115Y23757D01*
X-1200Y23706D01*
X-1280Y23646D01*
X-1354Y23579D01*
X-1421Y23505D01*
X-1481Y23425D01*
X-1532Y23340D01*
X-1562Y23277D01*
X-1689Y23305D01*
Y24955D01*
X-1562Y24983D01*
X-1532Y24920D01*
X-1481Y24835D01*
X-1421Y24755D01*
X-1354Y24681D01*
X-1280Y24614D01*
X-1200Y24554D01*
X-1115Y24503D01*
X-1024Y24460D01*
X-930Y24427D01*
X-833Y24402D01*
X-735Y24388D01*
X-635Y24383D01*
X635D01*
X735Y24388D01*
X833Y24402D01*
X930Y24427D01*
X1024Y24460D01*
X1115Y24503D01*
X1200Y24554D01*
X1280Y24614D01*
X1354Y24681D01*
X1421Y24755D01*
X1481Y24835D01*
X1532Y24920D01*
X1575Y25011D01*
X1608Y25105D01*
X1633Y25202D01*
X1647Y25300D01*
X1652Y25400D01*
X1647Y25500D01*
X1633Y25598D01*
X1608Y25695D01*
X1575Y25789D01*
X1532Y25880D01*
X1481Y25965D01*
X1421Y26045D01*
X1354Y26119D01*
X1280Y26186D01*
X1200Y26246D01*
X1115Y26297D01*
X1024Y26340D01*
X930Y26373D01*
X833Y26398D01*
X735Y26412D01*
X635Y26417D01*
X-635D01*
X-735Y26412D01*
X-833Y26398D01*
X-930Y26373D01*
X-1024Y26340D01*
X-1115Y26297D01*
X-1200Y26246D01*
X-1280Y26186D01*
X-1354Y26119D01*
X-1421Y26045D01*
X-1481Y25965D01*
X-1532Y25880D01*
X-1562Y25817D01*
X-1689Y25845D01*
Y27495D01*
X-1562Y27523D01*
X-1532Y27460D01*
X-1481Y27375D01*
X-1421Y27295D01*
X-1354Y27221D01*
X-1280Y27154D01*
X-1200Y27094D01*
X-1115Y27043D01*
X-1024Y27000D01*
X-930Y26967D01*
X-833Y26942D01*
X-735Y26928D01*
X-635Y26923D01*
X635D01*
X735Y26928D01*
X833Y26942D01*
X930Y26967D01*
X1024Y27000D01*
X1115Y27043D01*
X1200Y27094D01*
X1280Y27154D01*
X1354Y27221D01*
X1421Y27295D01*
X1481Y27375D01*
X1532Y27460D01*
X1575Y27551D01*
X1608Y27645D01*
X1633Y27742D01*
X1647Y27840D01*
X1652Y27940D01*
X1647Y28040D01*
X1633Y28138D01*
X1608Y28235D01*
X1575Y28329D01*
X1532Y28420D01*
X1481Y28505D01*
X1421Y28585D01*
X1354Y28659D01*
X1280Y28726D01*
X1200Y28786D01*
X1115Y28837D01*
X1024Y28880D01*
X930Y28913D01*
X833Y28938D01*
X735Y28952D01*
X635Y28957D01*
X-635D01*
X-735Y28952D01*
X-833Y28938D01*
X-930Y28913D01*
X-1024Y28880D01*
X-1115Y28837D01*
X-1200Y28786D01*
X-1280Y28726D01*
X-1354Y28659D01*
X-1421Y28585D01*
X-1481Y28505D01*
X-1532Y28420D01*
X-1562Y28357D01*
X-1689Y28385D01*
Y30035D01*
X-1562Y30063D01*
X-1532Y30000D01*
X-1481Y29915D01*
X-1421Y29835D01*
X-1354Y29761D01*
X-1280Y29694D01*
X-1200Y29634D01*
X-1115Y29583D01*
X-1024Y29540D01*
X-930Y29507D01*
X-833Y29482D01*
X-735Y29468D01*
X-635Y29463D01*
X635D01*
X735Y29468D01*
X833Y29482D01*
X930Y29507D01*
X1024Y29540D01*
X1115Y29583D01*
X1200Y29634D01*
X1280Y29694D01*
X1354Y29761D01*
X1421Y29835D01*
X1481Y29915D01*
X1532Y30000D01*
X1575Y30091D01*
X1608Y30185D01*
X1633Y30282D01*
X1647Y30380D01*
X1652Y30480D01*
X1647Y30580D01*
X1633Y30678D01*
X1608Y30775D01*
X1575Y30869D01*
X1532Y30960D01*
X1481Y31045D01*
X1421Y31125D01*
X1354Y31199D01*
X1280Y31266D01*
X1200Y31326D01*
X1115Y31377D01*
X1024Y31420D01*
X930Y31453D01*
X833Y31478D01*
X735Y31492D01*
X635Y31497D01*
X-635D01*
X-735Y31492D01*
X-833Y31478D01*
X-930Y31453D01*
X-1024Y31420D01*
X-1115Y31377D01*
X-1200Y31326D01*
X-1280Y31266D01*
X-1354Y31199D01*
X-1421Y31125D01*
X-1481Y31045D01*
X-1532Y30960D01*
X-1562Y30897D01*
X-1689Y30925D01*
Y32575D01*
X-1562Y32603D01*
X-1532Y32540D01*
X-1481Y32455D01*
X-1421Y32375D01*
X-1354Y32301D01*
X-1280Y32234D01*
X-1200Y32174D01*
X-1115Y32123D01*
X-1024Y32080D01*
X-930Y32047D01*
X-833Y32022D01*
X-735Y32008D01*
X-635Y32003D01*
X635D01*
X735Y32008D01*
X833Y32022D01*
X930Y32047D01*
X1024Y32080D01*
X1115Y32123D01*
X1200Y32174D01*
X1280Y32234D01*
X1354Y32301D01*
X1421Y32375D01*
X1481Y32455D01*
X1532Y32540D01*
X1575Y32631D01*
X1608Y32725D01*
X1633Y32822D01*
X1647Y32920D01*
X1652Y33020D01*
X1647Y33120D01*
X1633Y33218D01*
X1608Y33315D01*
X1575Y33409D01*
X1532Y33500D01*
X1481Y33585D01*
X1421Y33665D01*
X1354Y33739D01*
X1280Y33806D01*
X1200Y33866D01*
X1115Y33917D01*
X1024Y33960D01*
X930Y33993D01*
X833Y34018D01*
X735Y34032D01*
X635Y34037D01*
X-635D01*
X-735Y34032D01*
X-833Y34018D01*
X-930Y33993D01*
X-1024Y33960D01*
X-1115Y33917D01*
X-1200Y33866D01*
X-1280Y33806D01*
X-1354Y33739D01*
X-1421Y33665D01*
X-1481Y33585D01*
X-1532Y33500D01*
X-1562Y33437D01*
X-1689Y33465D01*
Y35115D01*
X-1562Y35143D01*
X-1532Y35080D01*
X-1481Y34995D01*
X-1421Y34915D01*
X-1354Y34841D01*
X-1280Y34774D01*
X-1200Y34714D01*
X-1115Y34663D01*
X-1024Y34620D01*
X-930Y34587D01*
X-833Y34562D01*
X-735Y34548D01*
X-635Y34543D01*
X635D01*
X735Y34548D01*
X833Y34562D01*
X930Y34587D01*
X1024Y34620D01*
X1115Y34663D01*
X1200Y34714D01*
X1280Y34774D01*
X1354Y34841D01*
X1421Y34915D01*
X1481Y34995D01*
X1532Y35080D01*
X1575Y35171D01*
X1608Y35265D01*
X1633Y35362D01*
X1647Y35460D01*
X1652Y35560D01*
X1647Y35660D01*
X1633Y35758D01*
X1608Y35855D01*
X1575Y35949D01*
X1532Y36040D01*
X1481Y36125D01*
X1421Y36205D01*
X1354Y36279D01*
X1280Y36346D01*
X1200Y36406D01*
X1115Y36457D01*
X1024Y36500D01*
X930Y36533D01*
X833Y36558D01*
X735Y36572D01*
X635Y36577D01*
X-635D01*
X-735Y36572D01*
X-833Y36558D01*
X-930Y36533D01*
X-1024Y36500D01*
X-1115Y36457D01*
X-1200Y36406D01*
X-1280Y36346D01*
X-1354Y36279D01*
X-1421Y36205D01*
X-1481Y36125D01*
X-1532Y36040D01*
X-1562Y35977D01*
X-1689Y36005D01*
Y37655D01*
X-1562Y37683D01*
X-1532Y37620D01*
X-1481Y37535D01*
X-1421Y37455D01*
X-1354Y37381D01*
X-1280Y37314D01*
X-1200Y37254D01*
X-1115Y37203D01*
X-1024Y37160D01*
X-930Y37127D01*
X-833Y37102D01*
X-735Y37088D01*
X-635Y37083D01*
X635D01*
X735Y37088D01*
X833Y37102D01*
X930Y37127D01*
X1024Y37160D01*
X1115Y37203D01*
X1200Y37254D01*
X1280Y37314D01*
X1354Y37381D01*
X1421Y37455D01*
X1481Y37535D01*
X1532Y37620D01*
X1575Y37711D01*
X1608Y37805D01*
X1633Y37902D01*
X1647Y38000D01*
X1652Y38100D01*
X1647Y38200D01*
X1633Y38298D01*
X1608Y38395D01*
X1575Y38489D01*
X1532Y38580D01*
X1481Y38665D01*
X1421Y38745D01*
X1354Y38819D01*
X1280Y38886D01*
X1200Y38946D01*
X1115Y38997D01*
X1024Y39040D01*
X930Y39073D01*
X833Y39098D01*
X735Y39112D01*
X635Y39117D01*
X-635D01*
X-735Y39112D01*
X-833Y39098D01*
X-930Y39073D01*
X-1024Y39040D01*
X-1115Y38997D01*
X-1200Y38946D01*
X-1280Y38886D01*
X-1354Y38819D01*
X-1421Y38745D01*
X-1481Y38665D01*
X-1532Y38580D01*
X-1562Y38517D01*
X-1689Y38545D01*
Y40195D01*
X-1562Y40223D01*
X-1532Y40160D01*
X-1481Y40075D01*
X-1421Y39995D01*
X-1354Y39921D01*
X-1280Y39854D01*
X-1200Y39794D01*
X-1115Y39743D01*
X-1024Y39700D01*
X-930Y39667D01*
X-833Y39642D01*
X-735Y39628D01*
X-635Y39623D01*
X-127D01*
Y40640D01*
Y41657D01*
X-635D01*
X-735Y41652D01*
X-833Y41638D01*
X-930Y41613D01*
X-1024Y41580D01*
X-1115Y41537D01*
X-1200Y41486D01*
X-1280Y41426D01*
X-1354Y41359D01*
X-1421Y41285D01*
X-1481Y41205D01*
X-1532Y41120D01*
X-1562Y41057D01*
X-1689Y41085D01*
Y42735D01*
X-1562Y42763D01*
X-1532Y42700D01*
X-1481Y42615D01*
X-1421Y42535D01*
X-1354Y42461D01*
X-1280Y42394D01*
X-1200Y42334D01*
X-1115Y42283D01*
X-1024Y42240D01*
X-930Y42207D01*
X-833Y42182D01*
X-735Y42168D01*
X-635Y42163D01*
X635D01*
X735Y42168D01*
X833Y42182D01*
X930Y42207D01*
X1024Y42240D01*
X1115Y42283D01*
X1200Y42334D01*
X1280Y42394D01*
X1354Y42461D01*
X1421Y42535D01*
X1481Y42615D01*
X1532Y42700D01*
X1575Y42791D01*
X1608Y42885D01*
X1633Y42982D01*
X1647Y43080D01*
X1652Y43180D01*
X1647Y43280D01*
X1633Y43378D01*
X1608Y43475D01*
X1575Y43569D01*
X1532Y43660D01*
X1481Y43745D01*
X1421Y43825D01*
X1354Y43899D01*
X1280Y43966D01*
X1200Y44026D01*
X1115Y44077D01*
X1024Y44120D01*
X930Y44153D01*
X833Y44178D01*
X735Y44192D01*
X635Y44197D01*
X-635D01*
X-735Y44192D01*
X-833Y44178D01*
X-930Y44153D01*
X-1024Y44120D01*
X-1115Y44077D01*
X-1200Y44026D01*
X-1280Y43966D01*
X-1354Y43899D01*
X-1421Y43825D01*
X-1481Y43745D01*
X-1532Y43660D01*
X-1562Y43597D01*
X-1689Y43625D01*
Y45275D01*
X-1562Y45303D01*
X-1532Y45240D01*
X-1481Y45155D01*
X-1421Y45075D01*
X-1354Y45001D01*
X-1280Y44934D01*
X-1200Y44874D01*
X-1115Y44823D01*
X-1024Y44780D01*
X-930Y44747D01*
X-833Y44722D01*
X-735Y44708D01*
X-635Y44703D01*
X-127D01*
Y45720D01*
Y46737D01*
X-635D01*
X-735Y46732D01*
X-833Y46718D01*
X-930Y46693D01*
X-1024Y46660D01*
X-1115Y46617D01*
X-1200Y46566D01*
X-1280Y46506D01*
X-1354Y46439D01*
X-1421Y46365D01*
X-1481Y46285D01*
X-1532Y46200D01*
X-1562Y46137D01*
X-1689Y46165D01*
Y47815D01*
X-1562Y47843D01*
X-1532Y47780D01*
X-1481Y47695D01*
X-1421Y47615D01*
X-1354Y47541D01*
X-1280Y47474D01*
X-1200Y47414D01*
X-1115Y47363D01*
X-1024Y47320D01*
X-930Y47287D01*
X-833Y47262D01*
X-735Y47248D01*
X-635Y47243D01*
X635D01*
X735Y47248D01*
X833Y47262D01*
X930Y47287D01*
X1024Y47320D01*
X1115Y47363D01*
X1200Y47414D01*
X1280Y47474D01*
X1354Y47541D01*
X1421Y47615D01*
X1481Y47695D01*
X1532Y47780D01*
X1575Y47871D01*
X1608Y47965D01*
X1633Y48062D01*
X1647Y48160D01*
X1652Y48260D01*
X1647Y48360D01*
X1633Y48458D01*
X1608Y48555D01*
X1575Y48649D01*
X1532Y48740D01*
X1481Y48825D01*
X1421Y48905D01*
X1354Y48979D01*
X1280Y49046D01*
X1200Y49106D01*
X1115Y49157D01*
X1024Y49200D01*
X930Y49233D01*
X833Y49258D01*
X735Y49272D01*
X635Y49277D01*
X-635D01*
X-735Y49272D01*
X-833Y49258D01*
X-930Y49233D01*
X-1024Y49200D01*
X-1115Y49157D01*
X-1200Y49106D01*
X-1280Y49046D01*
X-1354Y48979D01*
X-1421Y48905D01*
X-1481Y48825D01*
X-1532Y48740D01*
X-1562Y48677D01*
X-1689Y48705D01*
Y50355D01*
X-1562Y50383D01*
X-1532Y50320D01*
X-1481Y50235D01*
X-1421Y50155D01*
X-1354Y50081D01*
X-1280Y50014D01*
X-1200Y49954D01*
X-1115Y49903D01*
X-1024Y49860D01*
X-930Y49827D01*
X-833Y49802D01*
X-735Y49788D01*
X-635Y49783D01*
X-127D01*
Y50800D01*
Y51817D01*
X-635D01*
X-735Y51812D01*
X-833Y51798D01*
X-930Y51773D01*
X-1024Y51740D01*
X-1115Y51697D01*
X-1200Y51646D01*
X-1280Y51586D01*
X-1354Y51519D01*
X-1421Y51445D01*
X-1481Y51365D01*
X-1532Y51280D01*
X-1562Y51217D01*
X-1689Y51245D01*
Y52213D01*
X-1651Y52324D01*
X-1562Y52324D01*
X1651D01*
Y54356D01*
X-1562D01*
X-1651Y54356D01*
X-1689Y54467D01*
Y65589D01*
X49949D01*
Y54467D01*
D02*
G37*
%LPC*%
G36*
X14900Y59755D02*
X14828Y59750D01*
X14756Y59736D01*
X14688Y59713D01*
X14622Y59681D01*
X14562Y59640D01*
X14507Y59593D01*
X14460Y59538D01*
X14419Y59478D01*
X14387Y59412D01*
X14364Y59344D01*
X14350Y59272D01*
X14348Y59253D01*
X14239Y59188D01*
X14219Y59185D01*
X14162Y59213D01*
X14094Y59236D01*
X14022Y59250D01*
X13950Y59255D01*
X13878Y59250D01*
X13806Y59236D01*
X13738Y59213D01*
X13672Y59181D01*
X13612Y59140D01*
X13557Y59093D01*
X13510Y59038D01*
X13469Y58978D01*
X13437Y58912D01*
X13414Y58844D01*
X13400Y58772D01*
X13396Y58715D01*
X13342Y58674D01*
X13271Y58652D01*
X13228Y58681D01*
X13162Y58713D01*
X13094Y58736D01*
X13022Y58750D01*
X12950Y58755D01*
X12878Y58750D01*
X12806Y58736D01*
X12738Y58713D01*
X12672Y58681D01*
X12612Y58640D01*
X12557Y58593D01*
X12510Y58538D01*
X12469Y58478D01*
X12437Y58412D01*
X12414Y58344D01*
X12400Y58272D01*
X12396Y58215D01*
X12342Y58174D01*
X12271Y58152D01*
X12228Y58181D01*
X12162Y58213D01*
X12094Y58236D01*
X12022Y58250D01*
X11950Y58255D01*
X11878Y58250D01*
X11806Y58236D01*
X11738Y58213D01*
X11672Y58181D01*
X11612Y58140D01*
X11557Y58093D01*
X11510Y58038D01*
X11469Y57978D01*
X11437Y57912D01*
X11414Y57844D01*
X11400Y57772D01*
X11396Y57715D01*
X11342Y57674D01*
X11271Y57652D01*
X11228Y57681D01*
X11162Y57713D01*
X11094Y57736D01*
X11022Y57750D01*
X10950Y57755D01*
X10878Y57750D01*
X10806Y57736D01*
X10738Y57713D01*
X10672Y57681D01*
X10612Y57640D01*
X10557Y57593D01*
X10510Y57538D01*
X10469Y57478D01*
X10437Y57412D01*
X10414Y57344D01*
X10400Y57272D01*
X10395Y57200D01*
X10400Y57128D01*
X10414Y57056D01*
X10437Y56988D01*
X10469Y56922D01*
X10510Y56862D01*
X10557Y56807D01*
X10612Y56760D01*
X10672Y56719D01*
X10738Y56687D01*
X10806Y56664D01*
X10878Y56650D01*
X10950Y56645D01*
X11022Y56650D01*
X11094Y56664D01*
X11162Y56687D01*
X11228Y56719D01*
X11288Y56760D01*
X11343Y56807D01*
X11390Y56862D01*
X11431Y56922D01*
X11463Y56988D01*
X11486Y57056D01*
X11500Y57128D01*
X11504Y57185D01*
X11558Y57226D01*
X11629Y57248D01*
X11672Y57219D01*
X11738Y57187D01*
X11806Y57164D01*
X11878Y57150D01*
X11950Y57145D01*
X12022Y57150D01*
X12094Y57164D01*
X12162Y57187D01*
X12228Y57219D01*
X12288Y57260D01*
X12343Y57307D01*
X12390Y57362D01*
X12431Y57422D01*
X12463Y57488D01*
X12486Y57556D01*
X12500Y57628D01*
X12504Y57685D01*
X12558Y57726D01*
X12629Y57748D01*
X12672Y57719D01*
X12738Y57687D01*
X12806Y57664D01*
X12878Y57650D01*
X12950Y57645D01*
X13022Y57650D01*
X13094Y57664D01*
X13162Y57687D01*
X13228Y57719D01*
X13288Y57760D01*
X13343Y57807D01*
X13390Y57862D01*
X13431Y57922D01*
X13463Y57988D01*
X13486Y58056D01*
X13500Y58128D01*
X13504Y58185D01*
X13558Y58226D01*
X13629Y58248D01*
X13672Y58219D01*
X13738Y58187D01*
X13806Y58164D01*
X13878Y58150D01*
X13950Y58145D01*
X14022Y58150D01*
X14094Y58164D01*
X14162Y58187D01*
X14228Y58219D01*
X14288Y58260D01*
X14343Y58307D01*
X14390Y58362D01*
X14431Y58422D01*
X14463Y58488D01*
X14486Y58556D01*
X14500Y58628D01*
X14502Y58647D01*
X14611Y58712D01*
X14632Y58715D01*
X14688Y58687D01*
X14756Y58664D01*
X14828Y58650D01*
X14900Y58645D01*
X14972Y58650D01*
X15044Y58664D01*
X15112Y58687D01*
X15178Y58719D01*
X15238Y58760D01*
X15293Y58807D01*
X15340Y58862D01*
X15381Y58922D01*
X15413Y58988D01*
X15436Y59056D01*
X15450Y59128D01*
X15455Y59200D01*
X15450Y59272D01*
X15436Y59344D01*
X15413Y59412D01*
X15381Y59478D01*
X15340Y59538D01*
X15293Y59593D01*
X15238Y59640D01*
X15178Y59681D01*
X15112Y59713D01*
X15044Y59736D01*
X14972Y59750D01*
X14900Y59755D01*
D02*
G37*
G36*
X43180Y61850D02*
X43000Y61845D01*
X42821Y61831D01*
X42643Y61808D01*
X42467Y61775D01*
X42292Y61733D01*
X42120Y61682D01*
X41951Y61622D01*
X41785Y61554D01*
X41623Y61476D01*
X41465Y61391D01*
X41312Y61297D01*
X41164Y61195D01*
X41021Y61086D01*
X40885Y60969D01*
X40755Y60846D01*
X40631Y60715D01*
X40514Y60579D01*
X40405Y60436D01*
X40303Y60288D01*
X40209Y60135D01*
X40124Y59977D01*
X40046Y59815D01*
X39978Y59649D01*
X39918Y59480D01*
X39867Y59308D01*
X39825Y59133D01*
X39792Y58957D01*
X39769Y58779D01*
X39755Y58600D01*
X39750Y58420D01*
X39755Y58240D01*
X39769Y58061D01*
X39792Y57883D01*
X39825Y57707D01*
X39867Y57532D01*
X39918Y57360D01*
X39978Y57191D01*
X40046Y57025D01*
X40124Y56863D01*
X40209Y56705D01*
X40303Y56552D01*
X40405Y56404D01*
X40514Y56261D01*
X40631Y56125D01*
X40755Y55994D01*
X40885Y55871D01*
X41021Y55754D01*
X41164Y55645D01*
X41312Y55543D01*
X41465Y55449D01*
X41623Y55364D01*
X41785Y55286D01*
X41951Y55218D01*
X42120Y55158D01*
X42292Y55107D01*
X42467Y55065D01*
X42643Y55032D01*
X42821Y55009D01*
X43000Y54995D01*
X43180Y54990D01*
X43360Y54995D01*
X43539Y55009D01*
X43717Y55032D01*
X43893Y55065D01*
X44068Y55107D01*
X44240Y55158D01*
X44409Y55218D01*
X44575Y55286D01*
X44737Y55364D01*
X44895Y55449D01*
X45048Y55543D01*
X45196Y55645D01*
X45339Y55754D01*
X45475Y55871D01*
X45605Y55994D01*
X45729Y56125D01*
X45846Y56261D01*
X45955Y56404D01*
X46057Y56552D01*
X46151Y56705D01*
X46236Y56863D01*
X46314Y57025D01*
X46382Y57191D01*
X46442Y57360D01*
X46493Y57532D01*
X46535Y57707D01*
X46568Y57883D01*
X46591Y58061D01*
X46605Y58240D01*
X46610Y58420D01*
X46605Y58600D01*
X46591Y58779D01*
X46568Y58957D01*
X46535Y59133D01*
X46493Y59308D01*
X46442Y59480D01*
X46382Y59649D01*
X46314Y59815D01*
X46236Y59977D01*
X46151Y60135D01*
X46057Y60288D01*
X45955Y60436D01*
X45846Y60579D01*
X45729Y60715D01*
X45605Y60846D01*
X45475Y60969D01*
X45339Y61086D01*
X45196Y61195D01*
X45048Y61297D01*
X44895Y61391D01*
X44737Y61476D01*
X44575Y61554D01*
X44409Y61622D01*
X44240Y61682D01*
X44068Y61733D01*
X43893Y61775D01*
X43717Y61808D01*
X43539Y61831D01*
X43360Y61845D01*
X43180Y61850D01*
D02*
G37*
G36*
X5080D02*
X4900Y61845D01*
X4721Y61831D01*
X4543Y61808D01*
X4367Y61775D01*
X4192Y61733D01*
X4020Y61682D01*
X3851Y61622D01*
X3685Y61554D01*
X3523Y61476D01*
X3365Y61391D01*
X3212Y61297D01*
X3064Y61195D01*
X2921Y61086D01*
X2785Y60969D01*
X2655Y60846D01*
X2531Y60715D01*
X2414Y60579D01*
X2305Y60436D01*
X2203Y60288D01*
X2109Y60135D01*
X2024Y59977D01*
X1946Y59815D01*
X1878Y59649D01*
X1818Y59480D01*
X1767Y59308D01*
X1725Y59133D01*
X1692Y58957D01*
X1669Y58779D01*
X1655Y58600D01*
X1650Y58420D01*
X1655Y58240D01*
X1669Y58061D01*
X1692Y57883D01*
X1725Y57707D01*
X1767Y57532D01*
X1818Y57360D01*
X1878Y57191D01*
X1946Y57025D01*
X2024Y56863D01*
X2109Y56705D01*
X2203Y56552D01*
X2305Y56404D01*
X2414Y56261D01*
X2531Y56125D01*
X2655Y55994D01*
X2785Y55871D01*
X2921Y55754D01*
X3064Y55645D01*
X3212Y55543D01*
X3365Y55449D01*
X3523Y55364D01*
X3685Y55286D01*
X3851Y55218D01*
X4020Y55158D01*
X4192Y55107D01*
X4367Y55065D01*
X4543Y55032D01*
X4721Y55009D01*
X4900Y54995D01*
X5080Y54990D01*
X5260Y54995D01*
X5439Y55009D01*
X5617Y55032D01*
X5793Y55065D01*
X5968Y55107D01*
X6140Y55158D01*
X6309Y55218D01*
X6475Y55286D01*
X6637Y55364D01*
X6795Y55449D01*
X6948Y55543D01*
X7096Y55645D01*
X7239Y55754D01*
X7375Y55871D01*
X7505Y55994D01*
X7629Y56125D01*
X7746Y56261D01*
X7855Y56404D01*
X7957Y56552D01*
X8051Y56705D01*
X8136Y56863D01*
X8214Y57025D01*
X8282Y57191D01*
X8342Y57360D01*
X8393Y57532D01*
X8435Y57707D01*
X8468Y57883D01*
X8491Y58061D01*
X8505Y58240D01*
X8510Y58420D01*
X8505Y58600D01*
X8491Y58779D01*
X8468Y58957D01*
X8435Y59133D01*
X8393Y59308D01*
X8342Y59480D01*
X8282Y59649D01*
X8214Y59815D01*
X8136Y59977D01*
X8051Y60135D01*
X7957Y60288D01*
X7855Y60436D01*
X7746Y60579D01*
X7629Y60715D01*
X7505Y60846D01*
X7375Y60969D01*
X7239Y61086D01*
X7096Y61195D01*
X6948Y61297D01*
X6795Y61391D01*
X6637Y61476D01*
X6475Y61554D01*
X6309Y61622D01*
X6140Y61682D01*
X5968Y61733D01*
X5793Y61775D01*
X5617Y61808D01*
X5439Y61831D01*
X5260Y61845D01*
X5080Y61850D01*
D02*
G37*
G36*
X48133Y54356D02*
X46609D01*
Y53467D01*
X48133D01*
Y54356D01*
D02*
G37*
G36*
Y53213D02*
X46609D01*
Y52324D01*
X48133D01*
Y53213D01*
D02*
G37*
G36*
X24200Y53055D02*
X24128Y53050D01*
X24056Y53036D01*
X23988Y53013D01*
X23922Y52981D01*
X23862Y52940D01*
X23807Y52893D01*
X23760Y52838D01*
X23719Y52778D01*
X23687Y52712D01*
X23664Y52644D01*
X23650Y52572D01*
X23645Y52500D01*
X23650Y52428D01*
X23664Y52356D01*
X23687Y52288D01*
X23719Y52222D01*
X23760Y52162D01*
X23807Y52107D01*
X23862Y52060D01*
X23922Y52019D01*
X23988Y51987D01*
X24056Y51964D01*
X24128Y51950D01*
X24200Y51945D01*
X24272Y51950D01*
X24344Y51964D01*
X24412Y51987D01*
X24478Y52019D01*
X24538Y52060D01*
X24593Y52107D01*
X24640Y52162D01*
X24681Y52222D01*
X24713Y52288D01*
X24736Y52356D01*
X24750Y52428D01*
X24755Y52500D01*
X24750Y52572D01*
X24736Y52644D01*
X24713Y52712D01*
X24681Y52778D01*
X24640Y52838D01*
X24593Y52893D01*
X24538Y52940D01*
X24478Y52981D01*
X24412Y53013D01*
X24344Y53036D01*
X24272Y53050D01*
X24200Y53055D01*
D02*
G37*
G36*
X635Y51817D02*
X127D01*
Y50927D01*
X1643D01*
X1633Y50998D01*
X1608Y51095D01*
X1575Y51189D01*
X1532Y51280D01*
X1481Y51365D01*
X1421Y51445D01*
X1354Y51519D01*
X1280Y51586D01*
X1200Y51646D01*
X1115Y51697D01*
X1024Y51740D01*
X930Y51773D01*
X833Y51798D01*
X735Y51812D01*
X635Y51817D01*
D02*
G37*
G36*
X4050Y52505D02*
X3978Y52500D01*
X3906Y52486D01*
X3838Y52463D01*
X3772Y52431D01*
X3712Y52390D01*
X3657Y52343D01*
X3610Y52288D01*
X3569Y52228D01*
X3537Y52162D01*
X3514Y52094D01*
X3500Y52022D01*
X3495Y51950D01*
X3500Y51878D01*
X3514Y51806D01*
X3537Y51738D01*
X3569Y51672D01*
X3610Y51612D01*
X3657Y51557D01*
X3712Y51510D01*
X3772Y51469D01*
X3838Y51437D01*
X3906Y51414D01*
X3978Y51400D01*
X4050Y51395D01*
X4122Y51400D01*
X4194Y51414D01*
X4262Y51437D01*
X4328Y51469D01*
X4371Y51498D01*
X4442Y51476D01*
X4496Y51435D01*
X4500Y51378D01*
X4514Y51306D01*
X4537Y51238D01*
X4569Y51172D01*
X4610Y51112D01*
X4657Y51057D01*
X4712Y51010D01*
X4772Y50969D01*
X4838Y50937D01*
X4906Y50914D01*
X4978Y50900D01*
X5050Y50895D01*
X5122Y50900D01*
X5194Y50914D01*
X5262Y50937D01*
X5328Y50969D01*
X5371Y50998D01*
X5442Y50976D01*
X5496Y50935D01*
X5500Y50878D01*
X5514Y50806D01*
X5537Y50738D01*
X5569Y50672D01*
X5610Y50612D01*
X5657Y50557D01*
X5712Y50510D01*
X5772Y50469D01*
X5838Y50437D01*
X5906Y50414D01*
X5978Y50400D01*
X6050Y50395D01*
X6122Y50400D01*
X6194Y50414D01*
X6262Y50437D01*
X6328Y50469D01*
X6371Y50498D01*
X6442Y50476D01*
X6496Y50435D01*
X6500Y50378D01*
X6514Y50306D01*
X6537Y50238D01*
X6569Y50172D01*
X6610Y50112D01*
X6657Y50057D01*
X6712Y50010D01*
X6772Y49969D01*
X6838Y49937D01*
X6906Y49914D01*
X6978Y49900D01*
X7050Y49895D01*
X7122Y49900D01*
X7194Y49914D01*
X7262Y49937D01*
X7328Y49969D01*
X7388Y50010D01*
X7443Y50057D01*
X7490Y50112D01*
X7531Y50172D01*
X7563Y50238D01*
X7586Y50306D01*
X7600Y50378D01*
X7605Y50450D01*
X7600Y50522D01*
X7586Y50594D01*
X7563Y50662D01*
X7531Y50728D01*
X7490Y50788D01*
X7443Y50843D01*
X7388Y50890D01*
X7328Y50931D01*
X7262Y50963D01*
X7194Y50986D01*
X7122Y51000D01*
X7050Y51005D01*
X6978Y51000D01*
X6906Y50986D01*
X6838Y50963D01*
X6772Y50931D01*
X6729Y50902D01*
X6658Y50924D01*
X6604Y50965D01*
X6600Y51022D01*
X6586Y51094D01*
X6563Y51162D01*
X6531Y51228D01*
X6490Y51288D01*
X6443Y51343D01*
X6388Y51390D01*
X6328Y51431D01*
X6262Y51463D01*
X6194Y51486D01*
X6122Y51500D01*
X6050Y51505D01*
X5978Y51500D01*
X5906Y51486D01*
X5838Y51463D01*
X5772Y51431D01*
X5729Y51402D01*
X5658Y51424D01*
X5604Y51465D01*
X5600Y51522D01*
X5586Y51594D01*
X5563Y51662D01*
X5531Y51728D01*
X5490Y51788D01*
X5443Y51843D01*
X5388Y51890D01*
X5328Y51931D01*
X5262Y51963D01*
X5194Y51986D01*
X5122Y52000D01*
X5050Y52005D01*
X4978Y52000D01*
X4906Y51986D01*
X4838Y51963D01*
X4772Y51931D01*
X4729Y51902D01*
X4658Y51924D01*
X4604Y51965D01*
X4600Y52022D01*
X4586Y52094D01*
X4563Y52162D01*
X4531Y52228D01*
X4490Y52288D01*
X4443Y52343D01*
X4388Y52390D01*
X4328Y52431D01*
X4262Y52463D01*
X4194Y52486D01*
X4122Y52500D01*
X4050Y52505D01*
D02*
G37*
G36*
X44184Y51804D02*
X42176D01*
Y49796D01*
X44184D01*
Y51804D01*
D02*
G37*
G36*
X41644D02*
X39636D01*
Y49796D01*
X41644D01*
Y51804D01*
D02*
G37*
G36*
X1643Y50673D02*
X127D01*
Y49783D01*
X635D01*
X735Y49788D01*
X833Y49802D01*
X930Y49827D01*
X1024Y49860D01*
X1115Y49903D01*
X1200Y49954D01*
X1280Y50014D01*
X1354Y50081D01*
X1421Y50155D01*
X1481Y50235D01*
X1532Y50320D01*
X1575Y50411D01*
X1608Y50505D01*
X1633Y50602D01*
X1643Y50673D01*
D02*
G37*
G36*
X41900Y49705D02*
X41828Y49700D01*
X41756Y49686D01*
X41688Y49663D01*
X41622Y49631D01*
X41562Y49590D01*
X41507Y49543D01*
X41460Y49488D01*
X41419Y49428D01*
X41387Y49362D01*
X41364Y49294D01*
X41350Y49222D01*
X41345Y49150D01*
X41345Y49145D01*
X41222Y49078D01*
X41198Y49096D01*
X41114Y49147D01*
X41025Y49189D01*
X40932Y49222D01*
X40836Y49246D01*
X40739Y49260D01*
X40640Y49265D01*
X40541Y49260D01*
X40444Y49246D01*
X40348Y49222D01*
X40255Y49189D01*
X40166Y49147D01*
X40082Y49096D01*
X40002Y49037D01*
X39929Y48971D01*
X39863Y48898D01*
X39804Y48818D01*
X39753Y48734D01*
X39711Y48645D01*
X39678Y48552D01*
X39654Y48456D01*
X39640Y48359D01*
X39635Y48260D01*
X39640Y48161D01*
X39654Y48064D01*
X39678Y47968D01*
X39711Y47875D01*
X39753Y47786D01*
X39804Y47702D01*
X39863Y47622D01*
X39929Y47549D01*
X40002Y47483D01*
X40082Y47424D01*
X40166Y47373D01*
X40255Y47331D01*
X40348Y47298D01*
X40444Y47274D01*
X40541Y47260D01*
X40640Y47255D01*
X40739Y47260D01*
X40836Y47274D01*
X40932Y47298D01*
X41025Y47331D01*
X41114Y47373D01*
X41198Y47424D01*
X41278Y47483D01*
X41351Y47549D01*
X41417Y47622D01*
X41476Y47702D01*
X41527Y47786D01*
X41569Y47875D01*
X41602Y47968D01*
X41626Y48064D01*
X41640Y48161D01*
X41645Y48260D01*
X41640Y48359D01*
X41626Y48456D01*
X41606Y48536D01*
X41645Y48588D01*
X41709Y48630D01*
X41756Y48614D01*
X41828Y48600D01*
X41900Y48595D01*
X41972Y48600D01*
X42044Y48614D01*
X42112Y48637D01*
X42114Y48638D01*
X42209Y48559D01*
X42217Y48547D01*
X42194Y48456D01*
X42180Y48359D01*
X42175Y48260D01*
X42180Y48161D01*
X42194Y48064D01*
X42218Y47968D01*
X42251Y47875D01*
X42293Y47786D01*
X42344Y47702D01*
X42403Y47622D01*
X42469Y47549D01*
X42542Y47483D01*
X42622Y47424D01*
X42706Y47373D01*
X42795Y47331D01*
X42888Y47298D01*
X42984Y47274D01*
X43081Y47260D01*
X43180Y47255D01*
X43279Y47260D01*
X43376Y47274D01*
X43472Y47298D01*
X43565Y47331D01*
X43572Y47335D01*
X43657Y47243D01*
X43610Y47188D01*
X43569Y47128D01*
X43537Y47062D01*
X43514Y46994D01*
X43500Y46922D01*
X43495Y46850D01*
X43498Y46806D01*
X43445Y46742D01*
X43385Y46704D01*
X43376Y46706D01*
X43279Y46720D01*
X43180Y46725D01*
X43081Y46720D01*
X42984Y46706D01*
X42888Y46682D01*
X42795Y46649D01*
X42706Y46607D01*
X42622Y46556D01*
X42542Y46497D01*
X42469Y46431D01*
X42403Y46358D01*
X42344Y46278D01*
X42293Y46194D01*
X42251Y46105D01*
X42218Y46012D01*
X42194Y45916D01*
X42180Y45819D01*
X42175Y45720D01*
X42180Y45621D01*
X42194Y45524D01*
X42218Y45428D01*
X42251Y45335D01*
X42293Y45246D01*
X42344Y45162D01*
X42403Y45082D01*
X42469Y45009D01*
X42542Y44943D01*
X42622Y44884D01*
X42706Y44833D01*
X42795Y44791D01*
X42888Y44758D01*
X42984Y44734D01*
X43081Y44720D01*
X43180Y44715D01*
X43279Y44720D01*
X43376Y44734D01*
X43472Y44758D01*
X43565Y44791D01*
X43654Y44833D01*
X43738Y44884D01*
X43818Y44943D01*
X43891Y45009D01*
X43957Y45082D01*
X44016Y45162D01*
X44067Y45246D01*
X44109Y45335D01*
X44142Y45428D01*
X44166Y45524D01*
X44180Y45621D01*
X44185Y45720D01*
X44180Y45819D01*
X44166Y45916D01*
X44142Y46012D01*
X44109Y46105D01*
X44078Y46169D01*
X44104Y46244D01*
X44148Y46305D01*
X44194Y46314D01*
X44262Y46337D01*
X44328Y46369D01*
X44388Y46410D01*
X44443Y46457D01*
X44490Y46512D01*
X44531Y46572D01*
X44563Y46638D01*
X44586Y46706D01*
X44600Y46778D01*
X44605Y46850D01*
X44600Y46922D01*
X44586Y46994D01*
X44563Y47062D01*
X44531Y47128D01*
X44490Y47188D01*
X44443Y47243D01*
X44388Y47290D01*
X44328Y47331D01*
X44262Y47363D01*
X44194Y47386D01*
X44122Y47400D01*
X44050Y47405D01*
X43978Y47400D01*
X43906Y47386D01*
X43894Y47382D01*
X43818Y47483D01*
X43891Y47549D01*
X43957Y47622D01*
X44016Y47702D01*
X44067Y47786D01*
X44109Y47875D01*
X44142Y47968D01*
X44166Y48064D01*
X44180Y48161D01*
X44185Y48260D01*
X44180Y48359D01*
X44166Y48456D01*
X44142Y48552D01*
X44109Y48645D01*
X44067Y48734D01*
X44016Y48818D01*
X43957Y48898D01*
X43891Y48971D01*
X43818Y49037D01*
X43738Y49096D01*
X43654Y49147D01*
X43565Y49189D01*
X43472Y49222D01*
X43376Y49246D01*
X43279Y49260D01*
X43180Y49265D01*
X43081Y49260D01*
X42984Y49246D01*
X42888Y49222D01*
X42795Y49189D01*
X42706Y49147D01*
X42622Y49096D01*
X42574Y49060D01*
X42569Y49061D01*
X42476Y49105D01*
X42454Y49128D01*
X42455Y49150D01*
X42450Y49222D01*
X42436Y49294D01*
X42413Y49362D01*
X42381Y49428D01*
X42340Y49488D01*
X42293Y49543D01*
X42238Y49590D01*
X42178Y49631D01*
X42112Y49663D01*
X42044Y49686D01*
X41972Y49700D01*
X41900Y49705D01*
D02*
G37*
G36*
X24850Y49183D02*
X24778Y49178D01*
X24706Y49164D01*
X24638Y49140D01*
X24572Y49108D01*
X24512Y49068D01*
X24457Y49020D01*
X24410Y48966D01*
X24369Y48905D01*
X24337Y48840D01*
X24314Y48771D01*
X24300Y48700D01*
X24295Y48628D01*
X24298Y48578D01*
X23627Y47907D01*
X23627Y47906D01*
X23627Y47906D01*
X23627D01*
X23518Y47791D01*
X23415Y47669D01*
X23319Y47542D01*
X23230Y47409D01*
X23149Y47272D01*
X23076Y47131D01*
X23011Y46985D01*
X22954Y46836D01*
X22906Y46684D01*
X22866Y46530D01*
X22851Y46452D01*
X22719Y46443D01*
X22713Y46462D01*
X22681Y46528D01*
X22640Y46588D01*
X22593Y46643D01*
X22538Y46690D01*
X22478Y46731D01*
X22412Y46763D01*
X22344Y46786D01*
X22272Y46800D01*
X22200Y46805D01*
X22128Y46800D01*
X22056Y46786D01*
X21988Y46763D01*
X21922Y46731D01*
X21862Y46690D01*
X21807Y46643D01*
X21760Y46588D01*
X21719Y46528D01*
X21687Y46462D01*
X21664Y46394D01*
X21650Y46322D01*
X21645Y46250D01*
X21650Y46178D01*
X21664Y46106D01*
X21687Y46038D01*
X21719Y45972D01*
X21760Y45912D01*
X21807Y45857D01*
X21845Y45825D01*
Y45007D01*
X21846Y44999D01*
X21841Y44920D01*
X21827Y44838D01*
X21825Y44830D01*
X21803Y44751D01*
X21769Y44671D01*
X21728Y44596D01*
X21692Y44545D01*
X21647Y44518D01*
X21601Y44479D01*
X21562Y44433D01*
X21531Y44383D01*
X21508Y44327D01*
X21495Y44269D01*
X21490Y44210D01*
X21495Y44151D01*
X21508Y44093D01*
X21531Y44037D01*
X21562Y43987D01*
X21601Y43941D01*
X21647Y43902D01*
X21697Y43871D01*
X21753Y43848D01*
X21811Y43835D01*
X21870Y43830D01*
X21929Y43835D01*
X21987Y43848D01*
X22043Y43871D01*
X22093Y43902D01*
X22139Y43941D01*
X22178Y43987D01*
X22209Y44037D01*
X22224Y44075D01*
X22272Y44136D01*
X22337Y44232D01*
X22394Y44334D01*
X22442Y44440D01*
X22483Y44549D01*
X22514Y44661D01*
X22521Y44697D01*
X22525Y44714D01*
X22526Y44719D01*
X22537Y44775D01*
X22550Y44882D01*
X22551Y44890D01*
X22555Y45007D01*
X22555D01*
Y45825D01*
X22593Y45857D01*
X22640Y45912D01*
X22669Y45955D01*
X22684Y45955D01*
X22795Y45898D01*
X22795Y45772D01*
Y44333D01*
X22788Y44317D01*
X22775Y44259D01*
X22770Y44200D01*
X22775Y44141D01*
X22788Y44083D01*
X22811Y44027D01*
X22842Y43977D01*
X22881Y43931D01*
X22927Y43892D01*
X22977Y43861D01*
X23033Y43838D01*
X23091Y43825D01*
X23150Y43820D01*
X23209Y43825D01*
X23267Y43838D01*
X23323Y43861D01*
X23373Y43892D01*
X23390Y43906D01*
X23426Y43931D01*
X23524D01*
X23560Y43906D01*
X23577Y43892D01*
X23627Y43861D01*
X23683Y43838D01*
X23741Y43825D01*
X23800Y43820D01*
X23859Y43825D01*
X23917Y43838D01*
X23933Y43845D01*
X24367D01*
X24411Y43835D01*
X24470Y43830D01*
X24529Y43835D01*
X24573Y43845D01*
X24967D01*
X24983Y43838D01*
X25041Y43825D01*
X25100Y43820D01*
X25159Y43825D01*
X25217Y43838D01*
X25273Y43861D01*
X25323Y43892D01*
X25369Y43931D01*
X25408Y43977D01*
X25439Y44027D01*
X25462Y44083D01*
X25475Y44141D01*
X25480Y44200D01*
X25475Y44259D01*
X25462Y44317D01*
X25439Y44373D01*
X25408Y44423D01*
X25369Y44469D01*
X25323Y44508D01*
X25273Y44539D01*
X25217Y44562D01*
X25159Y44575D01*
X25100Y44580D01*
X25041Y44575D01*
X24983Y44562D01*
X24967Y44555D01*
X24825D01*
Y46020D01*
X24825Y46025D01*
X24825Y46035D01*
X24844Y46039D01*
X24912Y46062D01*
X24978Y46094D01*
X25038Y46135D01*
X25093Y46182D01*
X25140Y46237D01*
X25181Y46297D01*
X25213Y46363D01*
X25236Y46431D01*
X25250Y46503D01*
X25255Y46575D01*
X25250Y46647D01*
X25236Y46719D01*
X25213Y46787D01*
X25181Y46853D01*
X25140Y46913D01*
X25093Y46968D01*
X25038Y47015D01*
X24978Y47056D01*
X24912Y47088D01*
X24844Y47111D01*
X24772Y47125D01*
X24700Y47130D01*
X24628Y47125D01*
X24556Y47111D01*
X24488Y47088D01*
X24422Y47056D01*
X24362Y47015D01*
X24307Y46968D01*
X24260Y46913D01*
X24219Y46853D01*
X24187Y46787D01*
X24164Y46719D01*
X24150Y46647D01*
X24145Y46575D01*
X24150Y46503D01*
X24164Y46431D01*
X24178Y46390D01*
X24154Y46315D01*
X24132Y46218D01*
X24119Y46119D01*
X24115Y46020D01*
X24115Y46020D01*
Y44555D01*
X23933D01*
X23917Y44562D01*
X23859Y44575D01*
X23800Y44580D01*
X23741Y44575D01*
X23683Y44562D01*
X23627Y44539D01*
X23505Y44609D01*
Y45898D01*
X23504Y45907D01*
X23509Y46037D01*
X23522Y46176D01*
X23545Y46314D01*
X23577Y46450D01*
X23617Y46583D01*
X23666Y46714D01*
X23724Y46841D01*
X23790Y46964D01*
X23863Y47082D01*
X23945Y47196D01*
X24033Y47303D01*
X24122Y47399D01*
X24129Y47404D01*
X24800Y48076D01*
X24850Y48072D01*
X24922Y48077D01*
X24994Y48091D01*
X25062Y48115D01*
X25128Y48147D01*
X25188Y48187D01*
X25243Y48235D01*
X25290Y48290D01*
X25331Y48350D01*
X25363Y48415D01*
X25386Y48484D01*
X25400Y48555D01*
X25405Y48628D01*
X25400Y48700D01*
X25386Y48771D01*
X25363Y48840D01*
X25331Y48905D01*
X25290Y48966D01*
X25243Y49020D01*
X25188Y49068D01*
X25128Y49108D01*
X25062Y49140D01*
X24994Y49164D01*
X24922Y49178D01*
X24850Y49183D01*
D02*
G37*
G36*
X22830D02*
X22758Y49178D01*
X22686Y49164D01*
X22618Y49140D01*
X22552Y49108D01*
X22492Y49068D01*
X22437Y49020D01*
X22390Y48966D01*
X22349Y48905D01*
X22317Y48840D01*
X22294Y48771D01*
X22280Y48700D01*
X22275Y48628D01*
X22280Y48555D01*
X22294Y48484D01*
X22317Y48415D01*
X22349Y48350D01*
X22390Y48290D01*
X22437Y48235D01*
X22492Y48187D01*
X22552Y48147D01*
X22618Y48115D01*
X22686Y48091D01*
X22758Y48077D01*
X22830Y48072D01*
X22902Y48077D01*
X22974Y48091D01*
X23042Y48115D01*
X23108Y48147D01*
X23168Y48187D01*
X23223Y48235D01*
X23270Y48290D01*
X23311Y48350D01*
X23343Y48415D01*
X23366Y48484D01*
X23380Y48555D01*
X23385Y48628D01*
X23380Y48700D01*
X23366Y48771D01*
X23343Y48840D01*
X23311Y48905D01*
X23270Y48966D01*
X23223Y49020D01*
X23168Y49068D01*
X23108Y49108D01*
X23042Y49140D01*
X22974Y49164D01*
X22902Y49178D01*
X22830Y49183D01*
D02*
G37*
G36*
X48133Y46737D02*
X47625D01*
X47525Y46732D01*
X47427Y46718D01*
X47330Y46693D01*
X47236Y46660D01*
X47145Y46617D01*
X47060Y46566D01*
X46980Y46506D01*
X46906Y46439D01*
X46839Y46365D01*
X46779Y46285D01*
X46728Y46200D01*
X46685Y46109D01*
X46652Y46015D01*
X46627Y45918D01*
X46617Y45847D01*
X48133D01*
Y46737D01*
D02*
G37*
G36*
X635D02*
X127D01*
Y45847D01*
X1643D01*
X1633Y45918D01*
X1608Y46015D01*
X1575Y46109D01*
X1532Y46200D01*
X1481Y46285D01*
X1421Y46365D01*
X1354Y46439D01*
X1280Y46506D01*
X1200Y46566D01*
X1115Y46617D01*
X1024Y46660D01*
X930Y46693D01*
X833Y46718D01*
X735Y46732D01*
X635Y46737D01*
D02*
G37*
G36*
X40640Y46725D02*
X40541Y46720D01*
X40444Y46706D01*
X40348Y46682D01*
X40255Y46649D01*
X40166Y46607D01*
X40082Y46556D01*
X40002Y46497D01*
X39929Y46431D01*
X39863Y46358D01*
X39804Y46278D01*
X39753Y46194D01*
X39711Y46105D01*
X39678Y46012D01*
X39654Y45916D01*
X39640Y45819D01*
X39635Y45720D01*
X39640Y45621D01*
X39654Y45524D01*
X39678Y45428D01*
X39696Y45379D01*
X39691Y45348D01*
X39656Y45278D01*
X39617Y45238D01*
X39606Y45236D01*
X39538Y45213D01*
X39472Y45181D01*
X39412Y45140D01*
X39357Y45093D01*
X39310Y45038D01*
X39269Y44978D01*
X39237Y44912D01*
X39214Y44844D01*
X39200Y44772D01*
X39195Y44700D01*
X39200Y44628D01*
X39214Y44556D01*
X39237Y44488D01*
X39269Y44422D01*
X39310Y44362D01*
X39357Y44307D01*
X39412Y44260D01*
X39472Y44219D01*
X39538Y44187D01*
X39606Y44164D01*
X39678Y44150D01*
X39750Y44145D01*
X39822Y44150D01*
X39894Y44164D01*
X39962Y44187D01*
X40028Y44219D01*
X40088Y44260D01*
X40143Y44307D01*
X40190Y44362D01*
X40231Y44422D01*
X40263Y44488D01*
X40286Y44556D01*
X40300Y44628D01*
X40301Y44640D01*
X40305Y44649D01*
X40400Y44728D01*
X40430Y44738D01*
X40444Y44734D01*
X40541Y44720D01*
X40640Y44715D01*
X40739Y44720D01*
X40836Y44734D01*
X40932Y44758D01*
X41025Y44791D01*
X41114Y44833D01*
X41198Y44884D01*
X41278Y44943D01*
X41351Y45009D01*
X41417Y45082D01*
X41476Y45162D01*
X41527Y45246D01*
X41569Y45335D01*
X41602Y45428D01*
X41626Y45524D01*
X41640Y45621D01*
X41645Y45720D01*
X41640Y45819D01*
X41626Y45916D01*
X41602Y46012D01*
X41569Y46105D01*
X41527Y46194D01*
X41476Y46278D01*
X41417Y46358D01*
X41351Y46431D01*
X41278Y46497D01*
X41198Y46556D01*
X41114Y46607D01*
X41025Y46649D01*
X40932Y46682D01*
X40836Y46706D01*
X40739Y46720D01*
X40640Y46725D01*
D02*
G37*
G36*
X48133Y45593D02*
X46617D01*
X46627Y45522D01*
X46652Y45425D01*
X46685Y45331D01*
X46728Y45240D01*
X46779Y45155D01*
X46839Y45075D01*
X46906Y45001D01*
X46980Y44934D01*
X47060Y44874D01*
X47145Y44823D01*
X47236Y44780D01*
X47330Y44747D01*
X47427Y44722D01*
X47525Y44708D01*
X47625Y44703D01*
X48133D01*
Y45593D01*
D02*
G37*
G36*
X1643D02*
X127D01*
Y44703D01*
X635D01*
X735Y44708D01*
X833Y44722D01*
X930Y44747D01*
X1024Y44780D01*
X1115Y44823D01*
X1200Y44874D01*
X1280Y44934D01*
X1354Y45001D01*
X1421Y45075D01*
X1481Y45155D01*
X1532Y45240D01*
X1575Y45331D01*
X1608Y45425D01*
X1633Y45522D01*
X1643Y45593D01*
D02*
G37*
G36*
X37150Y45605D02*
X37078Y45600D01*
X37006Y45586D01*
X36938Y45563D01*
X36872Y45531D01*
X36812Y45490D01*
X36757Y45443D01*
X36710Y45388D01*
X36669Y45328D01*
X36637Y45262D01*
X36614Y45194D01*
X36600Y45122D01*
X36595Y45050D01*
X36600Y44978D01*
X36614Y44906D01*
X36637Y44838D01*
X36669Y44772D01*
X36710Y44712D01*
X36757Y44657D01*
X36812Y44610D01*
X36872Y44569D01*
X36938Y44537D01*
X37006Y44514D01*
X37078Y44500D01*
X37150Y44495D01*
X37222Y44500D01*
X37294Y44514D01*
X37362Y44537D01*
X37428Y44569D01*
X37488Y44610D01*
X37543Y44657D01*
X37590Y44712D01*
X37631Y44772D01*
X37663Y44838D01*
X37686Y44906D01*
X37700Y44978D01*
X37705Y45050D01*
X37700Y45122D01*
X37686Y45194D01*
X37663Y45262D01*
X37631Y45328D01*
X37590Y45388D01*
X37543Y45443D01*
X37488Y45490D01*
X37428Y45531D01*
X37362Y45563D01*
X37294Y45586D01*
X37222Y45600D01*
X37150Y45605D01*
D02*
G37*
G36*
X35251Y45455D02*
X35179Y45450D01*
X35107Y45436D01*
X35039Y45413D01*
X34974Y45381D01*
X34913Y45340D01*
X34859Y45293D01*
X34811Y45238D01*
X34770Y45178D01*
X34738Y45112D01*
X34715Y45044D01*
X34701Y44972D01*
X34696Y44900D01*
X34701Y44828D01*
X34715Y44756D01*
X34738Y44688D01*
X34770Y44622D01*
X34811Y44562D01*
X34859Y44507D01*
X34913Y44460D01*
X34974Y44419D01*
X35039Y44387D01*
X35107Y44364D01*
X35179Y44350D01*
X35251Y44345D01*
X35324Y44350D01*
X35395Y44364D01*
X35464Y44387D01*
X35529Y44419D01*
X35589Y44460D01*
X35644Y44507D01*
X35692Y44562D01*
X35732Y44622D01*
X35764Y44688D01*
X35787Y44756D01*
X35802Y44828D01*
X35806Y44900D01*
X35802Y44972D01*
X35787Y45044D01*
X35764Y45112D01*
X35732Y45178D01*
X35692Y45238D01*
X35644Y45293D01*
X35589Y45340D01*
X35529Y45381D01*
X35464Y45413D01*
X35395Y45436D01*
X35324Y45450D01*
X35251Y45455D01*
D02*
G37*
G36*
X37100Y43855D02*
X37028Y43850D01*
X36956Y43836D01*
X36888Y43813D01*
X36822Y43781D01*
X36762Y43740D01*
X36707Y43693D01*
X36660Y43638D01*
X36619Y43578D01*
X36587Y43512D01*
X36564Y43444D01*
X36550Y43372D01*
X36545Y43300D01*
X36550Y43228D01*
X36564Y43156D01*
X36587Y43088D01*
X36619Y43022D01*
X36660Y42962D01*
X36707Y42907D01*
X36762Y42860D01*
X36822Y42819D01*
X36888Y42787D01*
X36956Y42764D01*
X37028Y42750D01*
X37100Y42745D01*
X37172Y42750D01*
X37244Y42764D01*
X37312Y42787D01*
X37378Y42819D01*
X37438Y42860D01*
X37493Y42907D01*
X37540Y42962D01*
X37581Y43022D01*
X37613Y43088D01*
X37636Y43156D01*
X37650Y43228D01*
X37655Y43300D01*
X37650Y43372D01*
X37636Y43444D01*
X37613Y43512D01*
X37581Y43578D01*
X37540Y43638D01*
X37493Y43693D01*
X37438Y43740D01*
X37378Y43781D01*
X37312Y43813D01*
X37244Y43836D01*
X37172Y43850D01*
X37100Y43855D01*
D02*
G37*
G36*
X17875Y43605D02*
X17803Y43600D01*
X17731Y43586D01*
X17663Y43563D01*
X17597Y43531D01*
X17537Y43490D01*
X17482Y43443D01*
X17435Y43388D01*
X17394Y43328D01*
X17362Y43262D01*
X17339Y43194D01*
X17325Y43122D01*
X17320Y43050D01*
X17325Y42978D01*
X17339Y42906D01*
X17362Y42838D01*
X17394Y42772D01*
X17435Y42712D01*
X17482Y42657D01*
X17537Y42610D01*
X17597Y42569D01*
X17663Y42537D01*
X17731Y42514D01*
X17803Y42500D01*
X17875Y42495D01*
X17947Y42500D01*
X18019Y42514D01*
X18087Y42537D01*
X18153Y42569D01*
X18213Y42610D01*
X18268Y42657D01*
X18300Y42695D01*
X20958D01*
X20993Y42568D01*
X20977Y42558D01*
X20931Y42519D01*
X20892Y42473D01*
X20861Y42423D01*
X20838Y42367D01*
X20825Y42309D01*
X20820Y42250D01*
X20825Y42191D01*
X20838Y42133D01*
X20845Y42117D01*
Y41733D01*
X20838Y41717D01*
X20825Y41659D01*
X20820Y41600D01*
X20825Y41541D01*
X20838Y41483D01*
X20845Y41467D01*
X20283Y40905D01*
X19000D01*
X18968Y40943D01*
X18913Y40990D01*
X18853Y41031D01*
X18787Y41063D01*
X18719Y41086D01*
X18647Y41100D01*
X18575Y41105D01*
X18503Y41100D01*
X18431Y41086D01*
X18363Y41063D01*
X18297Y41031D01*
X18237Y40990D01*
X18182Y40943D01*
X18135Y40888D01*
X18094Y40828D01*
X18062Y40762D01*
X18039Y40694D01*
X18025Y40622D01*
X18020Y40550D01*
X18025Y40478D01*
X18039Y40406D01*
X18062Y40338D01*
X18094Y40272D01*
X18135Y40212D01*
X18182Y40157D01*
X18237Y40110D01*
X18297Y40069D01*
X18363Y40037D01*
X18431Y40014D01*
X18503Y40000D01*
X18575Y39995D01*
X18647Y40000D01*
X18719Y40014D01*
X18787Y40037D01*
X18853Y40069D01*
X18913Y40110D01*
X18968Y40157D01*
X19000Y40195D01*
X20183D01*
X20875Y39503D01*
X20881Y39487D01*
X20912Y39437D01*
X20951Y39391D01*
X20997Y39352D01*
X21047Y39321D01*
X21103Y39298D01*
X21161Y39285D01*
X21220Y39280D01*
X21279Y39285D01*
X21337Y39298D01*
X21393Y39321D01*
X21443Y39352D01*
X21489Y39391D01*
X21528Y39437D01*
X21559Y39487D01*
X21582Y39543D01*
X21595Y39601D01*
X21600Y39660D01*
X21595Y39719D01*
X21582Y39777D01*
X21559Y39833D01*
X21528Y39883D01*
X21489Y39929D01*
X21443Y39968D01*
X21393Y39999D01*
X21377Y40005D01*
X20882Y40500D01*
X21451Y41069D01*
X21487Y41111D01*
X21516Y41159D01*
X21538Y41210D01*
X21551Y41264D01*
X21555Y41320D01*
Y41467D01*
X21562Y41483D01*
X21575Y41541D01*
X21580Y41600D01*
X21575Y41659D01*
X21562Y41717D01*
X21555Y41733D01*
Y42117D01*
X21562Y42133D01*
X21575Y42191D01*
X21576Y42193D01*
X21623Y42224D01*
X21706Y42242D01*
X21880Y42068D01*
X21880Y42068D01*
X21963Y41991D01*
X21972Y41984D01*
X22052Y41921D01*
X22146Y41858D01*
X22245Y41802D01*
X22348Y41755D01*
X22455Y41716D01*
X22564Y41685D01*
X22675Y41663D01*
X22777Y41651D01*
X22788Y41649D01*
X22901Y41645D01*
Y41645D01*
X25353D01*
X25362Y41646D01*
X25464Y41641D01*
X25573Y41627D01*
X25681Y41603D01*
X25787Y41569D01*
X25889Y41527D01*
X25987Y41476D01*
X26080Y41417D01*
X26168Y41349D01*
X26243Y41280D01*
X26249Y41274D01*
X26382Y41141D01*
X26382Y41141D01*
X26383Y41140D01*
X26479Y41050D01*
X26583Y40967D01*
X26692Y40891D01*
X26807Y40823D01*
X26926Y40763D01*
X27049Y40712D01*
X27175Y40670D01*
X27304Y40637D01*
X27320Y40634D01*
X27340Y40608D01*
X27365Y40497D01*
X26883Y40015D01*
X26867Y40009D01*
X26817Y39978D01*
X26771Y39939D01*
X26732Y39893D01*
X26701Y39843D01*
X26678Y39787D01*
X26665Y39729D01*
X26660Y39670D01*
X26665Y39611D01*
X26678Y39553D01*
X26701Y39497D01*
X26732Y39447D01*
X26771Y39401D01*
X26817Y39362D01*
X26867Y39331D01*
X26923Y39308D01*
X26981Y39295D01*
X27040Y39290D01*
X27099Y39295D01*
X27157Y39308D01*
X27213Y39331D01*
X27263Y39362D01*
X27309Y39401D01*
X27348Y39447D01*
X27379Y39497D01*
X27385Y39513D01*
X27808Y39936D01*
X27817Y39938D01*
X27873Y39961D01*
X27923Y39992D01*
X27969Y40031D01*
X28008Y40077D01*
X28039Y40127D01*
X28056Y40170D01*
X29195D01*
X29228Y40132D01*
X29283Y40085D01*
X29343Y40044D01*
X29408Y40012D01*
X29477Y39989D01*
X29548Y39975D01*
X29621Y39970D01*
X29693Y39975D01*
X29764Y39989D01*
X29833Y40012D01*
X29898Y40044D01*
X29959Y40085D01*
X30013Y40132D01*
X30061Y40187D01*
X30102Y40247D01*
X30134Y40313D01*
X30157Y40381D01*
X30171Y40453D01*
X30176Y40525D01*
X30171Y40597D01*
X30157Y40669D01*
X30134Y40737D01*
X30102Y40803D01*
X30061Y40863D01*
X30013Y40918D01*
X29959Y40965D01*
X29898Y41006D01*
X29833Y41038D01*
X29764Y41061D01*
X29693Y41075D01*
X29621Y41080D01*
X29548Y41075D01*
X29477Y41061D01*
X29408Y41038D01*
X29343Y41006D01*
X29283Y40965D01*
X29228Y40918D01*
X29195Y40880D01*
X28505D01*
Y41150D01*
X28501Y41206D01*
X28488Y41260D01*
X28466Y41311D01*
X28437Y41359D01*
X28401Y41401D01*
X28045Y41757D01*
X28039Y41773D01*
X28109Y41895D01*
X29475D01*
X29507Y41857D01*
X29562Y41810D01*
X29622Y41769D01*
X29688Y41737D01*
X29756Y41714D01*
X29828Y41700D01*
X29900Y41695D01*
X29972Y41700D01*
X30044Y41714D01*
X30112Y41737D01*
X30178Y41769D01*
X30238Y41810D01*
X30293Y41857D01*
X30340Y41912D01*
X30381Y41972D01*
X30413Y42038D01*
X30436Y42106D01*
X30450Y42178D01*
X30455Y42250D01*
X30450Y42322D01*
X30436Y42394D01*
X30413Y42462D01*
X30381Y42528D01*
X30340Y42588D01*
X30293Y42643D01*
X30238Y42690D01*
X30178Y42731D01*
X30112Y42763D01*
X30044Y42786D01*
X29972Y42800D01*
X29900Y42805D01*
X29828Y42800D01*
X29756Y42786D01*
X29688Y42763D01*
X29622Y42731D01*
X29562Y42690D01*
X29507Y42643D01*
X29475Y42605D01*
X27833D01*
X27817Y42612D01*
X27759Y42625D01*
X27700Y42630D01*
X27641Y42625D01*
X27583Y42612D01*
X27527Y42589D01*
X27477Y42558D01*
X27431Y42519D01*
X27392Y42473D01*
X27361Y42423D01*
X27338Y42367D01*
X27325Y42309D01*
X27320Y42250D01*
X27325Y42191D01*
X27338Y42133D01*
X27361Y42077D01*
X27392Y42027D01*
X27406Y42010D01*
X27431Y41974D01*
X27431Y41876D01*
X27406Y41840D01*
X27392Y41823D01*
X27361Y41773D01*
X27338Y41717D01*
X27325Y41659D01*
X27320Y41600D01*
X27325Y41541D01*
X27334Y41499D01*
X27304Y41456D01*
X27234Y41403D01*
X27212Y41412D01*
X27123Y41459D01*
X27038Y41513D01*
X26958Y41574D01*
X26889Y41637D01*
X26885Y41642D01*
X26884Y41643D01*
X26884Y41643D01*
X26751Y41776D01*
X26751Y41776D01*
X26751Y41776D01*
X26648Y41872D01*
X26538Y41961D01*
X26422Y42041D01*
X26301Y42113D01*
X26175Y42177D01*
X26044Y42231D01*
X25910Y42275D01*
X25773Y42310D01*
X25635Y42335D01*
X25494Y42350D01*
X25353Y42355D01*
Y42355D01*
X23469D01*
X23423Y42396D01*
X23373Y42482D01*
X23380Y42518D01*
X23385Y42590D01*
X23380Y42662D01*
X23366Y42734D01*
X23343Y42802D01*
X23311Y42868D01*
X23270Y42928D01*
X23223Y42983D01*
X23168Y43030D01*
X23108Y43071D01*
X23042Y43103D01*
X22974Y43126D01*
X22902Y43140D01*
X22830Y43145D01*
X22758Y43140D01*
X22686Y43126D01*
X22618Y43103D01*
X22552Y43071D01*
X22492Y43030D01*
X22437Y42983D01*
X22390Y42928D01*
X22349Y42868D01*
X22321Y42811D01*
X22314Y42802D01*
X22226Y42777D01*
X22175Y42778D01*
X21926Y43026D01*
X21926Y43026D01*
X21926Y43027D01*
X21899Y43051D01*
X21843Y43102D01*
X21834Y43110D01*
X21753Y43171D01*
X21658Y43232D01*
X21558Y43284D01*
X21454Y43327D01*
X21346Y43361D01*
X21236Y43386D01*
X21135Y43399D01*
X21124Y43400D01*
X21011Y43405D01*
Y43405D01*
X18300D01*
X18268Y43443D01*
X18213Y43490D01*
X18153Y43531D01*
X18087Y43563D01*
X18019Y43586D01*
X17947Y43600D01*
X17875Y43605D01*
D02*
G37*
G36*
X635Y41657D02*
X127D01*
Y40767D01*
X1643D01*
X1633Y40838D01*
X1608Y40935D01*
X1575Y41029D01*
X1532Y41120D01*
X1481Y41205D01*
X1421Y41285D01*
X1354Y41359D01*
X1280Y41426D01*
X1200Y41486D01*
X1115Y41537D01*
X1024Y41580D01*
X930Y41613D01*
X833Y41638D01*
X735Y41652D01*
X635Y41657D01*
D02*
G37*
G36*
X44184Y41644D02*
X42176D01*
Y39636D01*
X44184D01*
Y41644D01*
D02*
G37*
G36*
X40640Y41645D02*
X40541Y41640D01*
X40444Y41626D01*
X40348Y41602D01*
X40255Y41569D01*
X40166Y41527D01*
X40082Y41476D01*
X40002Y41417D01*
X39929Y41351D01*
X39863Y41278D01*
X39804Y41198D01*
X39753Y41114D01*
X39711Y41025D01*
X39678Y40932D01*
X39654Y40836D01*
X39640Y40739D01*
X39635Y40640D01*
X39640Y40541D01*
X39654Y40444D01*
X39678Y40348D01*
X39711Y40255D01*
X39753Y40166D01*
X39804Y40082D01*
X39863Y40002D01*
X39929Y39929D01*
X40002Y39863D01*
X40082Y39804D01*
X40166Y39753D01*
X40255Y39711D01*
X40348Y39678D01*
X40444Y39654D01*
X40541Y39640D01*
X40640Y39635D01*
X40739Y39640D01*
X40836Y39654D01*
X40932Y39678D01*
X41025Y39711D01*
X41114Y39753D01*
X41198Y39804D01*
X41278Y39863D01*
X41351Y39929D01*
X41417Y40002D01*
X41476Y40082D01*
X41527Y40166D01*
X41569Y40255D01*
X41602Y40348D01*
X41626Y40444D01*
X41640Y40541D01*
X41645Y40640D01*
X41640Y40739D01*
X41626Y40836D01*
X41602Y40932D01*
X41569Y41025D01*
X41527Y41114D01*
X41476Y41198D01*
X41417Y41278D01*
X41351Y41351D01*
X41278Y41417D01*
X41198Y41476D01*
X41114Y41527D01*
X41025Y41569D01*
X40932Y41602D01*
X40836Y41626D01*
X40739Y41640D01*
X40640Y41645D01*
D02*
G37*
G36*
X1643Y40513D02*
X127D01*
Y39623D01*
X635D01*
X735Y39628D01*
X833Y39642D01*
X930Y39667D01*
X1024Y39700D01*
X1115Y39743D01*
X1200Y39794D01*
X1280Y39854D01*
X1354Y39921D01*
X1421Y39995D01*
X1481Y40075D01*
X1532Y40160D01*
X1575Y40251D01*
X1608Y40345D01*
X1633Y40442D01*
X1643Y40513D01*
D02*
G37*
G36*
X48133Y39117D02*
X47625D01*
X47525Y39112D01*
X47427Y39098D01*
X47330Y39073D01*
X47236Y39040D01*
X47145Y38997D01*
X47060Y38946D01*
X46980Y38886D01*
X46906Y38819D01*
X46839Y38745D01*
X46779Y38665D01*
X46728Y38580D01*
X46685Y38489D01*
X46652Y38395D01*
X46627Y38298D01*
X46617Y38227D01*
X48133D01*
Y39117D01*
D02*
G37*
G36*
X22180Y39245D02*
X22108Y39240D01*
X22036Y39226D01*
X21968Y39203D01*
X21902Y39171D01*
X21842Y39130D01*
X21787Y39083D01*
X21740Y39028D01*
X21699Y38968D01*
X21667Y38902D01*
X21644Y38834D01*
X21630Y38762D01*
X21625Y38690D01*
X21630Y38618D01*
X21644Y38546D01*
X21667Y38478D01*
X21699Y38412D01*
X21740Y38352D01*
X21787Y38297D01*
X21842Y38250D01*
X21902Y38209D01*
X21968Y38177D01*
X22036Y38154D01*
X22108Y38140D01*
X22180Y38135D01*
X22252Y38140D01*
X22324Y38154D01*
X22392Y38177D01*
X22458Y38209D01*
X22518Y38250D01*
X22573Y38297D01*
X22620Y38352D01*
X22661Y38412D01*
X22693Y38478D01*
X22716Y38546D01*
X22730Y38618D01*
X22735Y38690D01*
X22730Y38762D01*
X22716Y38834D01*
X22693Y38902D01*
X22661Y38968D01*
X22620Y39028D01*
X22573Y39083D01*
X22518Y39130D01*
X22458Y39171D01*
X22392Y39203D01*
X22324Y39226D01*
X22252Y39240D01*
X22180Y39245D01*
D02*
G37*
G36*
X25450Y39155D02*
X25378Y39150D01*
X25306Y39136D01*
X25238Y39113D01*
X25172Y39081D01*
X25112Y39040D01*
X25057Y38993D01*
X25010Y38938D01*
X24969Y38878D01*
X24937Y38812D01*
X24914Y38744D01*
X24900Y38672D01*
X24895Y38600D01*
X24900Y38528D01*
X24914Y38456D01*
X24937Y38388D01*
X24969Y38322D01*
X25010Y38262D01*
X25057Y38207D01*
X25112Y38160D01*
X25172Y38119D01*
X25238Y38087D01*
X25306Y38064D01*
X25378Y38050D01*
X25450Y38045D01*
X25522Y38050D01*
X25594Y38064D01*
X25662Y38087D01*
X25728Y38119D01*
X25788Y38160D01*
X25843Y38207D01*
X25890Y38262D01*
X25931Y38322D01*
X25963Y38388D01*
X25986Y38456D01*
X26000Y38528D01*
X26005Y38600D01*
X26000Y38672D01*
X25986Y38744D01*
X25963Y38812D01*
X25931Y38878D01*
X25890Y38938D01*
X25843Y38993D01*
X25788Y39040D01*
X25728Y39081D01*
X25662Y39113D01*
X25594Y39136D01*
X25522Y39150D01*
X25450Y39155D01*
D02*
G37*
G36*
X29800Y38755D02*
X29728Y38750D01*
X29656Y38736D01*
X29588Y38713D01*
X29522Y38681D01*
X29462Y38640D01*
X29407Y38593D01*
X29360Y38538D01*
X29319Y38478D01*
X29287Y38412D01*
X29264Y38344D01*
X29250Y38272D01*
X29245Y38200D01*
X29250Y38128D01*
X29264Y38056D01*
X29287Y37988D01*
X29319Y37922D01*
X29360Y37862D01*
X29407Y37807D01*
X29462Y37760D01*
X29522Y37719D01*
X29588Y37687D01*
X29656Y37664D01*
X29728Y37650D01*
X29800Y37645D01*
X29872Y37650D01*
X29944Y37664D01*
X30012Y37687D01*
X30078Y37719D01*
X30138Y37760D01*
X30193Y37807D01*
X30240Y37862D01*
X30281Y37922D01*
X30313Y37988D01*
X30336Y38056D01*
X30350Y38128D01*
X30355Y38200D01*
X30350Y38272D01*
X30336Y38344D01*
X30313Y38412D01*
X30281Y38478D01*
X30240Y38538D01*
X30193Y38593D01*
X30138Y38640D01*
X30078Y38681D01*
X30012Y38713D01*
X29944Y38736D01*
X29872Y38750D01*
X29800Y38755D01*
D02*
G37*
G36*
X25110Y37460D02*
X25051Y37455D01*
X24993Y37442D01*
X24977Y37435D01*
X24543D01*
X24499Y37445D01*
X24440Y37450D01*
X24381Y37445D01*
X24337Y37435D01*
X23943D01*
X23927Y37442D01*
X23869Y37455D01*
X23810Y37460D01*
X23751Y37455D01*
X23693Y37442D01*
X23637Y37419D01*
X23587Y37388D01*
X23541Y37349D01*
X23502Y37303D01*
X23471Y37253D01*
X23465Y37237D01*
X22899Y36671D01*
X22863Y36629D01*
X22834Y36581D01*
X22812Y36530D01*
X22799Y36476D01*
X22795Y36420D01*
Y35625D01*
X22757Y35593D01*
X22710Y35538D01*
X22669Y35478D01*
X22637Y35412D01*
X22614Y35344D01*
X22600Y35272D01*
X22595Y35200D01*
X22600Y35128D01*
X22614Y35056D01*
X22637Y34988D01*
X22669Y34922D01*
X22710Y34862D01*
X22757Y34807D01*
X22812Y34760D01*
X22872Y34719D01*
X22938Y34687D01*
X23006Y34664D01*
X23078Y34650D01*
X23150Y34645D01*
X23222Y34650D01*
X23294Y34664D01*
X23362Y34687D01*
X23428Y34719D01*
X23488Y34760D01*
X23543Y34807D01*
X23590Y34862D01*
X23631Y34922D01*
X23663Y34988D01*
X23686Y35056D01*
X23700Y35128D01*
X23705Y35200D01*
X23700Y35272D01*
X23686Y35344D01*
X23663Y35412D01*
X23631Y35478D01*
X23590Y35538D01*
X23543Y35593D01*
X23505Y35625D01*
Y36273D01*
X23957Y36725D01*
X24283D01*
X24323Y36708D01*
X24381Y36695D01*
X24440Y36690D01*
X24499Y36695D01*
X24557Y36708D01*
X24597Y36725D01*
X24977D01*
X24993Y36718D01*
X25051Y36705D01*
X25110Y36700D01*
X25169Y36705D01*
X25227Y36718D01*
X25283Y36741D01*
X25333Y36772D01*
X25379Y36811D01*
X25418Y36857D01*
X25449Y36907D01*
X25472Y36963D01*
X25485Y37021D01*
X25490Y37080D01*
X25485Y37139D01*
X25472Y37197D01*
X25449Y37253D01*
X25418Y37303D01*
X25379Y37349D01*
X25333Y37388D01*
X25283Y37419D01*
X25227Y37442D01*
X25169Y37455D01*
X25110Y37460D01*
D02*
G37*
G36*
X15300Y38473D02*
X15228Y38468D01*
X15156Y38454D01*
X15088Y38430D01*
X15022Y38398D01*
X14962Y38358D01*
X14907Y38310D01*
X14860Y38255D01*
X14819Y38195D01*
X14787Y38130D01*
X14764Y38061D01*
X14750Y37990D01*
X14745Y37917D01*
X14750Y37845D01*
X14764Y37774D01*
X14787Y37705D01*
X14819Y37640D01*
X14860Y37579D01*
X14907Y37525D01*
X14962Y37477D01*
X15022Y37437D01*
X15088Y37405D01*
X15156Y37381D01*
X15228Y37367D01*
X15300Y37362D01*
X15372Y37367D01*
X15444Y37381D01*
X15512Y37405D01*
X15578Y37437D01*
X15638Y37477D01*
X15693Y37525D01*
X15740Y37579D01*
X15781Y37640D01*
X15813Y37705D01*
X15836Y37774D01*
X15850Y37845D01*
X15855Y37917D01*
X15850Y37990D01*
X15836Y38061D01*
X15813Y38130D01*
X15781Y38195D01*
X15740Y38255D01*
X15693Y38310D01*
X15638Y38358D01*
X15578Y38398D01*
X15512Y38430D01*
X15444Y38454D01*
X15372Y38468D01*
X15300Y38473D01*
D02*
G37*
G36*
X48133Y37973D02*
X46617D01*
X46627Y37902D01*
X46652Y37805D01*
X46685Y37711D01*
X46728Y37620D01*
X46779Y37535D01*
X46839Y37455D01*
X46906Y37381D01*
X46980Y37314D01*
X47060Y37254D01*
X47145Y37203D01*
X47236Y37160D01*
X47330Y37127D01*
X47427Y37102D01*
X47525Y37088D01*
X47625Y37083D01*
X48133D01*
Y37973D01*
D02*
G37*
G36*
X17000Y38905D02*
X16928Y38900D01*
X16856Y38886D01*
X16788Y38863D01*
X16722Y38831D01*
X16662Y38790D01*
X16607Y38743D01*
X16560Y38688D01*
X16519Y38628D01*
X16487Y38562D01*
X16464Y38494D01*
X16450Y38422D01*
X16445Y38350D01*
X16450Y38278D01*
X16464Y38206D01*
X16487Y38138D01*
X16519Y38072D01*
X16560Y38012D01*
X16607Y37957D01*
X16662Y37910D01*
X16722Y37869D01*
X16788Y37837D01*
X16856Y37814D01*
X16928Y37800D01*
X17000Y37795D01*
X17072Y37800D01*
X17144Y37814D01*
X17212Y37837D01*
X17273Y37867D01*
X17305Y37854D01*
X17377Y37783D01*
X17364Y37744D01*
X17350Y37672D01*
X17345Y37600D01*
X17350Y37528D01*
X17364Y37456D01*
X17387Y37388D01*
X17419Y37322D01*
X17460Y37262D01*
X17507Y37207D01*
X17562Y37160D01*
X17622Y37119D01*
X17688Y37087D01*
X17756Y37064D01*
X17828Y37050D01*
X17900Y37045D01*
X17972Y37050D01*
X18044Y37064D01*
X18112Y37087D01*
X18178Y37119D01*
X18238Y37160D01*
X18293Y37207D01*
X18325Y37245D01*
X18998D01*
X19007Y37246D01*
X19141Y37241D01*
X19283Y37227D01*
X19424Y37204D01*
X19564Y37171D01*
X19701Y37130D01*
X19834Y37080D01*
X19965Y37020D01*
X20091Y36953D01*
X20165Y36907D01*
X20128Y36780D01*
X17704D01*
X17693Y36793D01*
X17638Y36840D01*
X17578Y36881D01*
X17512Y36913D01*
X17444Y36936D01*
X17372Y36950D01*
X17300Y36955D01*
X17228Y36950D01*
X17156Y36936D01*
X17088Y36913D01*
X17022Y36881D01*
X16962Y36840D01*
X16907Y36793D01*
X16860Y36738D01*
X16819Y36678D01*
X16787Y36612D01*
X16764Y36544D01*
X16750Y36472D01*
X16745Y36400D01*
X16750Y36328D01*
X16764Y36256D01*
X16787Y36188D01*
X16819Y36122D01*
X16860Y36062D01*
X16907Y36007D01*
X16962Y35960D01*
X17022Y35919D01*
X17088Y35887D01*
X17156Y35864D01*
X17228Y35850D01*
X17300Y35845D01*
X17372Y35850D01*
X17444Y35864D01*
X17512Y35887D01*
X17578Y35919D01*
X17638Y35960D01*
X17693Y36007D01*
X17740Y36062D01*
X17746Y36070D01*
X18162D01*
X18164Y36069D01*
X18238Y35943D01*
X18237Y35941D01*
X18214Y35873D01*
X18200Y35801D01*
X18195Y35729D01*
X18200Y35656D01*
X18214Y35585D01*
X18237Y35516D01*
X18269Y35451D01*
X18310Y35391D01*
X18357Y35336D01*
X18412Y35288D01*
X18472Y35248D01*
X18491Y35239D01*
X18488Y35102D01*
X18444Y35085D01*
X18296Y35018D01*
X18152Y34944D01*
X18012Y34861D01*
X17877Y34771D01*
X17747Y34674D01*
X17623Y34569D01*
X17505Y34457D01*
X17505Y34457D01*
X17375Y34327D01*
X17325Y34330D01*
X17253Y34325D01*
X17181Y34311D01*
X17113Y34288D01*
X17047Y34256D01*
X16987Y34215D01*
X16932Y34168D01*
X16885Y34113D01*
X16844Y34053D01*
X16812Y33987D01*
X16789Y33919D01*
X16775Y33847D01*
X16770Y33775D01*
X16775Y33703D01*
X16789Y33631D01*
X16812Y33563D01*
X16844Y33497D01*
X16885Y33437D01*
X16932Y33382D01*
X16987Y33335D01*
X17047Y33294D01*
X17113Y33262D01*
X17181Y33239D01*
X17253Y33225D01*
X17325Y33220D01*
X17397Y33225D01*
X17469Y33239D01*
X17537Y33262D01*
X17603Y33294D01*
X17663Y33335D01*
X17718Y33382D01*
X17765Y33437D01*
X17806Y33497D01*
X17838Y33563D01*
X17861Y33631D01*
X17875Y33703D01*
X17880Y33775D01*
X17877Y33825D01*
X18007Y33955D01*
X18013Y33962D01*
X18111Y34053D01*
X18221Y34144D01*
X18338Y34228D01*
X18459Y34303D01*
X18585Y34370D01*
X18716Y34430D01*
X18849Y34480D01*
X18986Y34521D01*
X19126Y34554D01*
X19267Y34577D01*
X19409Y34591D01*
X19543Y34596D01*
X19552Y34595D01*
X20014D01*
Y34595D01*
X20169Y34600D01*
X20323Y34614D01*
X20477Y34637D01*
X20628Y34669D01*
X20778Y34711D01*
X20924Y34762D01*
X21068Y34821D01*
X21207Y34889D01*
X21343Y34965D01*
X21473Y35050D01*
X21598Y35142D01*
X21717Y35241D01*
X21830Y35347D01*
X21830Y35347D01*
X21898Y35422D01*
X21912Y35440D01*
X21958Y35502D01*
X22009Y35589D01*
X22052Y35680D01*
X22086Y35774D01*
X22111Y35872D01*
X22122Y35948D01*
X22125Y35971D01*
X22130Y36072D01*
X22130D01*
Y36650D01*
X22130D01*
X22126Y36766D01*
X22125Y36775D01*
X22112Y36881D01*
X22089Y36995D01*
X22058Y37107D01*
X22018Y37216D01*
X21969Y37321D01*
X21912Y37422D01*
X21848Y37519D01*
X21782Y37603D01*
X21776Y37610D01*
X21697Y37695D01*
X21697Y37695D01*
X21530Y37862D01*
X21524Y37878D01*
X21493Y37928D01*
X21454Y37974D01*
X21408Y38013D01*
X21358Y38044D01*
X21302Y38067D01*
X21244Y38080D01*
X21185Y38085D01*
X21126Y38080D01*
X21068Y38067D01*
X21012Y38044D01*
X20962Y38013D01*
X20916Y37974D01*
X20828Y37969D01*
X20784Y38005D01*
X20703Y38074D01*
X20573Y38171D01*
X20438Y38261D01*
X20298Y38344D01*
X20154Y38418D01*
X20006Y38485D01*
X19854Y38543D01*
X19699Y38592D01*
X19542Y38633D01*
X19383Y38664D01*
X19222Y38687D01*
X19060Y38701D01*
X18898Y38705D01*
Y38705D01*
X17425D01*
X17393Y38743D01*
X17338Y38790D01*
X17278Y38831D01*
X17212Y38863D01*
X17144Y38886D01*
X17072Y38900D01*
X17000Y38905D01*
D02*
G37*
G36*
X10800Y36346D02*
X10728Y36341D01*
X10656Y36327D01*
X10588Y36304D01*
X10522Y36272D01*
X10462Y36231D01*
X10407Y36183D01*
X10360Y36129D01*
X10319Y36068D01*
X10287Y36003D01*
X10264Y35934D01*
X10250Y35863D01*
X10245Y35791D01*
X10250Y35718D01*
X10264Y35647D01*
X10287Y35578D01*
X10319Y35513D01*
X10360Y35453D01*
X10407Y35398D01*
X10462Y35350D01*
X10522Y35310D01*
X10588Y35278D01*
X10656Y35255D01*
X10728Y35240D01*
X10800Y35236D01*
X10872Y35240D01*
X10944Y35255D01*
X11012Y35278D01*
X11078Y35310D01*
X11138Y35350D01*
X11193Y35398D01*
X11240Y35453D01*
X11281Y35513D01*
X11313Y35578D01*
X11336Y35647D01*
X11350Y35718D01*
X11355Y35791D01*
X11350Y35863D01*
X11336Y35934D01*
X11313Y36003D01*
X11281Y36068D01*
X11240Y36129D01*
X11193Y36183D01*
X11138Y36231D01*
X11078Y36272D01*
X11012Y36304D01*
X10944Y36327D01*
X10872Y36341D01*
X10800Y36346D01*
D02*
G37*
G36*
X44184Y36564D02*
X42176D01*
Y34556D01*
X44184D01*
Y36564D01*
D02*
G37*
G36*
X41644D02*
X39636D01*
Y34556D01*
X41644D01*
Y36564D01*
D02*
G37*
G36*
X26950Y35405D02*
X26878Y35400D01*
X26806Y35386D01*
X26738Y35363D01*
X26672Y35331D01*
X26612Y35290D01*
X26557Y35243D01*
X26510Y35188D01*
X26469Y35128D01*
X26437Y35062D01*
X26414Y34994D01*
X26400Y34922D01*
X26395Y34850D01*
X26398Y34800D01*
X26337Y34739D01*
X26331Y34732D01*
X26233Y34640D01*
X26123Y34550D01*
X26006Y34466D01*
X25885Y34391D01*
X25759Y34323D01*
X25628Y34264D01*
X25494Y34214D01*
X25358Y34173D01*
X25218Y34140D01*
X25077Y34117D01*
X24935Y34103D01*
X24801Y34098D01*
X24792Y34099D01*
X21300D01*
X21268Y34137D01*
X21213Y34184D01*
X21153Y34225D01*
X21087Y34257D01*
X21019Y34280D01*
X20947Y34294D01*
X20875Y34299D01*
X20803Y34294D01*
X20731Y34280D01*
X20663Y34257D01*
X20597Y34225D01*
X20537Y34184D01*
X20482Y34137D01*
X20435Y34082D01*
X20394Y34022D01*
X20362Y33956D01*
X20339Y33888D01*
X20325Y33816D01*
X20320Y33744D01*
X20325Y33671D01*
X20339Y33600D01*
X20362Y33531D01*
X20394Y33466D01*
X20435Y33406D01*
X20482Y33351D01*
X20537Y33303D01*
X20597Y33263D01*
X20663Y33231D01*
X20731Y33208D01*
X20803Y33194D01*
X20875Y33189D01*
X20947Y33194D01*
X21019Y33208D01*
X21087Y33231D01*
X21153Y33263D01*
X21213Y33303D01*
X21268Y33351D01*
X21300Y33389D01*
X24792D01*
Y33389D01*
X24954Y33393D01*
X25116Y33407D01*
X25277Y33430D01*
X25436Y33461D01*
X25593Y33502D01*
X25748Y33551D01*
X25900Y33609D01*
X26048Y33676D01*
X26192Y33750D01*
X26332Y33833D01*
X26467Y33923D01*
X26597Y34020D01*
X26721Y34125D01*
X26839Y34237D01*
X26942Y34295D01*
X26950Y34295D01*
X27022Y34300D01*
X27094Y34314D01*
X27162Y34337D01*
X27228Y34369D01*
X27288Y34410D01*
X27343Y34457D01*
X27390Y34512D01*
X27431Y34572D01*
X27463Y34638D01*
X27486Y34706D01*
X27500Y34778D01*
X27505Y34850D01*
X27500Y34922D01*
X27486Y34994D01*
X27463Y35062D01*
X27431Y35128D01*
X27390Y35188D01*
X27343Y35243D01*
X27288Y35290D01*
X27228Y35331D01*
X27162Y35363D01*
X27094Y35386D01*
X27022Y35400D01*
X26950Y35405D01*
D02*
G37*
G36*
X48133Y34037D02*
X47625D01*
X47525Y34032D01*
X47427Y34018D01*
X47330Y33993D01*
X47236Y33960D01*
X47145Y33917D01*
X47060Y33866D01*
X46980Y33806D01*
X46906Y33739D01*
X46839Y33665D01*
X46779Y33585D01*
X46728Y33500D01*
X46685Y33409D01*
X46652Y33315D01*
X46627Y33218D01*
X46617Y33147D01*
X48133D01*
Y34037D01*
D02*
G37*
G36*
X43180Y34025D02*
X43081Y34020D01*
X42984Y34006D01*
X42888Y33982D01*
X42795Y33949D01*
X42706Y33907D01*
X42622Y33856D01*
X42542Y33797D01*
X42469Y33731D01*
X42403Y33658D01*
X42344Y33578D01*
X42293Y33494D01*
X42251Y33405D01*
X42218Y33312D01*
X42194Y33216D01*
X42180Y33119D01*
X42175Y33020D01*
X42180Y32921D01*
X42194Y32824D01*
X42218Y32728D01*
X42251Y32635D01*
X42293Y32546D01*
X42344Y32462D01*
X42403Y32382D01*
X42469Y32309D01*
X42542Y32243D01*
X42622Y32184D01*
X42706Y32133D01*
X42795Y32091D01*
X42888Y32058D01*
X42984Y32034D01*
X43081Y32020D01*
X43180Y32015D01*
X43279Y32020D01*
X43376Y32034D01*
X43472Y32058D01*
X43565Y32091D01*
X43654Y32133D01*
X43738Y32184D01*
X43818Y32243D01*
X43891Y32309D01*
X43957Y32382D01*
X44016Y32462D01*
X44067Y32546D01*
X44109Y32635D01*
X44142Y32728D01*
X44166Y32824D01*
X44180Y32921D01*
X44185Y33020D01*
X44180Y33119D01*
X44166Y33216D01*
X44142Y33312D01*
X44109Y33405D01*
X44067Y33494D01*
X44016Y33578D01*
X43957Y33658D01*
X43891Y33731D01*
X43818Y33797D01*
X43738Y33856D01*
X43654Y33907D01*
X43565Y33949D01*
X43472Y33982D01*
X43376Y34006D01*
X43279Y34020D01*
X43180Y34025D01*
D02*
G37*
G36*
X40640D02*
X40541Y34020D01*
X40444Y34006D01*
X40348Y33982D01*
X40255Y33949D01*
X40166Y33907D01*
X40082Y33856D01*
X40002Y33797D01*
X39929Y33731D01*
X39863Y33658D01*
X39804Y33578D01*
X39753Y33494D01*
X39711Y33405D01*
X39678Y33312D01*
X39654Y33216D01*
X39640Y33119D01*
X39635Y33020D01*
X39640Y32921D01*
X39654Y32824D01*
X39678Y32728D01*
X39711Y32635D01*
X39753Y32546D01*
X39804Y32462D01*
X39863Y32382D01*
X39929Y32309D01*
X40002Y32243D01*
X40082Y32184D01*
X40166Y32133D01*
X40255Y32091D01*
X40348Y32058D01*
X40444Y32034D01*
X40541Y32020D01*
X40640Y32015D01*
X40739Y32020D01*
X40836Y32034D01*
X40932Y32058D01*
X41025Y32091D01*
X41114Y32133D01*
X41198Y32184D01*
X41278Y32243D01*
X41351Y32309D01*
X41417Y32382D01*
X41476Y32462D01*
X41527Y32546D01*
X41569Y32635D01*
X41602Y32728D01*
X41626Y32824D01*
X41640Y32921D01*
X41645Y33020D01*
X41640Y33119D01*
X41626Y33216D01*
X41602Y33312D01*
X41569Y33405D01*
X41527Y33494D01*
X41476Y33578D01*
X41417Y33658D01*
X41351Y33731D01*
X41278Y33797D01*
X41198Y33856D01*
X41114Y33907D01*
X41025Y33949D01*
X40932Y33982D01*
X40836Y34006D01*
X40739Y34020D01*
X40640Y34025D01*
D02*
G37*
G36*
X48133Y32893D02*
X46617D01*
X46627Y32822D01*
X46652Y32725D01*
X46685Y32631D01*
X46728Y32540D01*
X46779Y32455D01*
X46839Y32375D01*
X46906Y32301D01*
X46980Y32234D01*
X47060Y32174D01*
X47145Y32123D01*
X47236Y32080D01*
X47330Y32047D01*
X47427Y32022D01*
X47525Y32008D01*
X47625Y32003D01*
X48133D01*
Y32893D01*
D02*
G37*
G36*
X29800Y32605D02*
X29728Y32600D01*
X29656Y32586D01*
X29588Y32563D01*
X29522Y32531D01*
X29462Y32490D01*
X29407Y32443D01*
X29360Y32388D01*
X29319Y32328D01*
X29287Y32262D01*
X29264Y32194D01*
X29250Y32122D01*
X29245Y32050D01*
X29250Y31978D01*
X29264Y31906D01*
X29287Y31838D01*
X29319Y31772D01*
X29360Y31712D01*
X29407Y31657D01*
X29462Y31610D01*
X29522Y31569D01*
X29588Y31537D01*
X29656Y31514D01*
X29728Y31500D01*
X29800Y31495D01*
X29872Y31500D01*
X29944Y31514D01*
X30012Y31537D01*
X30078Y31569D01*
X30138Y31610D01*
X30193Y31657D01*
X30240Y31712D01*
X30281Y31772D01*
X30313Y31838D01*
X30336Y31906D01*
X30350Y31978D01*
X30355Y32050D01*
X30350Y32122D01*
X30336Y32194D01*
X30313Y32262D01*
X30281Y32328D01*
X30240Y32388D01*
X30193Y32443D01*
X30138Y32490D01*
X30078Y32531D01*
X30012Y32563D01*
X29944Y32586D01*
X29872Y32600D01*
X29800Y32605D01*
D02*
G37*
G36*
X48133Y31497D02*
X47625D01*
X47525Y31492D01*
X47427Y31478D01*
X47330Y31453D01*
X47236Y31420D01*
X47145Y31377D01*
X47060Y31326D01*
X46980Y31266D01*
X46906Y31199D01*
X46839Y31125D01*
X46779Y31045D01*
X46728Y30960D01*
X46685Y30869D01*
X46652Y30775D01*
X46627Y30678D01*
X46617Y30607D01*
X48133D01*
Y31497D01*
D02*
G37*
G36*
X43180Y31485D02*
X43081Y31480D01*
X42984Y31466D01*
X42888Y31442D01*
X42795Y31409D01*
X42706Y31367D01*
X42622Y31316D01*
X42542Y31257D01*
X42469Y31191D01*
X42403Y31118D01*
X42344Y31038D01*
X42293Y30954D01*
X42251Y30865D01*
X42218Y30772D01*
X42194Y30676D01*
X42180Y30579D01*
X42175Y30480D01*
X42180Y30381D01*
X42194Y30284D01*
X42218Y30188D01*
X42251Y30095D01*
X42293Y30006D01*
X42344Y29922D01*
X42403Y29842D01*
X42469Y29769D01*
X42542Y29703D01*
X42622Y29644D01*
X42706Y29593D01*
X42795Y29551D01*
X42888Y29518D01*
X42984Y29494D01*
X43081Y29480D01*
X43180Y29475D01*
X43279Y29480D01*
X43376Y29494D01*
X43472Y29518D01*
X43565Y29551D01*
X43654Y29593D01*
X43738Y29644D01*
X43818Y29703D01*
X43891Y29769D01*
X43957Y29842D01*
X44016Y29922D01*
X44067Y30006D01*
X44109Y30095D01*
X44142Y30188D01*
X44166Y30284D01*
X44180Y30381D01*
X44185Y30480D01*
X44180Y30579D01*
X44166Y30676D01*
X44142Y30772D01*
X44109Y30865D01*
X44067Y30954D01*
X44016Y31038D01*
X43957Y31118D01*
X43891Y31191D01*
X43818Y31257D01*
X43738Y31316D01*
X43654Y31367D01*
X43565Y31409D01*
X43472Y31442D01*
X43376Y31466D01*
X43279Y31480D01*
X43180Y31485D01*
D02*
G37*
G36*
X40640D02*
X40541Y31480D01*
X40444Y31466D01*
X40348Y31442D01*
X40255Y31409D01*
X40166Y31367D01*
X40082Y31316D01*
X40002Y31257D01*
X39929Y31191D01*
X39863Y31118D01*
X39804Y31038D01*
X39753Y30954D01*
X39711Y30865D01*
X39678Y30772D01*
X39654Y30676D01*
X39640Y30579D01*
X39635Y30480D01*
X39640Y30381D01*
X39654Y30284D01*
X39678Y30188D01*
X39711Y30095D01*
X39753Y30006D01*
X39804Y29922D01*
X39863Y29842D01*
X39929Y29769D01*
X40002Y29703D01*
X40082Y29644D01*
X40166Y29593D01*
X40255Y29551D01*
X40348Y29518D01*
X40444Y29494D01*
X40541Y29480D01*
X40640Y29475D01*
X40739Y29480D01*
X40836Y29494D01*
X40932Y29518D01*
X41025Y29551D01*
X41114Y29593D01*
X41198Y29644D01*
X41278Y29703D01*
X41351Y29769D01*
X41417Y29842D01*
X41476Y29922D01*
X41527Y30006D01*
X41569Y30095D01*
X41602Y30188D01*
X41626Y30284D01*
X41640Y30381D01*
X41645Y30480D01*
X41640Y30579D01*
X41626Y30676D01*
X41602Y30772D01*
X41569Y30865D01*
X41527Y30954D01*
X41476Y31038D01*
X41417Y31118D01*
X41351Y31191D01*
X41278Y31257D01*
X41198Y31316D01*
X41114Y31367D01*
X41025Y31409D01*
X40932Y31442D01*
X40836Y31466D01*
X40739Y31480D01*
X40640Y31485D01*
D02*
G37*
G36*
X15240D02*
X15141Y31480D01*
X15044Y31466D01*
X14948Y31442D01*
X14855Y31409D01*
X14766Y31367D01*
X14682Y31316D01*
X14602Y31257D01*
X14529Y31191D01*
X14463Y31118D01*
X14404Y31038D01*
X14353Y30954D01*
X14311Y30865D01*
X14278Y30772D01*
X14254Y30676D01*
X14240Y30579D01*
X14235Y30480D01*
X14240Y30381D01*
X14254Y30284D01*
X14278Y30188D01*
X14311Y30095D01*
X14353Y30006D01*
X14404Y29922D01*
X14463Y29842D01*
X14529Y29769D01*
X14602Y29703D01*
X14682Y29644D01*
X14766Y29593D01*
X14855Y29551D01*
X14948Y29518D01*
X15044Y29494D01*
X15141Y29480D01*
X15240Y29475D01*
X15339Y29480D01*
X15436Y29494D01*
X15532Y29518D01*
X15625Y29551D01*
X15714Y29593D01*
X15798Y29644D01*
X15878Y29703D01*
X15951Y29769D01*
X16017Y29842D01*
X16076Y29922D01*
X16127Y30006D01*
X16169Y30095D01*
X16202Y30188D01*
X16226Y30284D01*
X16240Y30381D01*
X16245Y30480D01*
X16240Y30579D01*
X16226Y30676D01*
X16202Y30772D01*
X16169Y30865D01*
X16127Y30954D01*
X16076Y31038D01*
X16017Y31118D01*
X15951Y31191D01*
X15878Y31257D01*
X15798Y31316D01*
X15714Y31367D01*
X15625Y31409D01*
X15532Y31442D01*
X15436Y31466D01*
X15339Y31480D01*
X15240Y31485D01*
D02*
G37*
G36*
X48133Y30353D02*
X46617D01*
X46627Y30282D01*
X46652Y30185D01*
X46685Y30091D01*
X46728Y30000D01*
X46779Y29915D01*
X46839Y29835D01*
X46906Y29761D01*
X46980Y29694D01*
X47060Y29634D01*
X47145Y29583D01*
X47236Y29540D01*
X47330Y29507D01*
X47427Y29482D01*
X47525Y29468D01*
X47625Y29463D01*
X48133D01*
Y30353D01*
D02*
G37*
G36*
X33050Y29055D02*
X32978Y29050D01*
X32906Y29036D01*
X32838Y29013D01*
X32772Y28981D01*
X32712Y28940D01*
X32657Y28893D01*
X32610Y28838D01*
X32569Y28778D01*
X32537Y28712D01*
X32514Y28644D01*
X32500Y28572D01*
X32495Y28500D01*
X32500Y28428D01*
X32514Y28356D01*
X32537Y28288D01*
X32569Y28222D01*
X32610Y28162D01*
X32657Y28107D01*
X32712Y28060D01*
X32772Y28019D01*
X32838Y27987D01*
X32906Y27964D01*
X32978Y27950D01*
X33050Y27945D01*
X33122Y27950D01*
X33194Y27964D01*
X33262Y27987D01*
X33328Y28019D01*
X33388Y28060D01*
X33443Y28107D01*
X33490Y28162D01*
X33531Y28222D01*
X33563Y28288D01*
X33586Y28356D01*
X33600Y28428D01*
X33605Y28500D01*
X33600Y28572D01*
X33586Y28644D01*
X33563Y28712D01*
X33531Y28778D01*
X33490Y28838D01*
X33443Y28893D01*
X33388Y28940D01*
X33328Y28981D01*
X33262Y29013D01*
X33194Y29036D01*
X33122Y29050D01*
X33050Y29055D01*
D02*
G37*
G36*
X16244Y28944D02*
X14236D01*
Y26936D01*
X16244D01*
Y28944D01*
D02*
G37*
G36*
X29800Y27855D02*
X29728Y27850D01*
X29656Y27836D01*
X29588Y27813D01*
X29522Y27781D01*
X29462Y27740D01*
X29407Y27693D01*
X29360Y27638D01*
X29319Y27578D01*
X29287Y27512D01*
X29264Y27444D01*
X29250Y27372D01*
X29245Y27300D01*
X29250Y27228D01*
X29264Y27156D01*
X29287Y27088D01*
X29319Y27022D01*
X29360Y26962D01*
X29407Y26907D01*
X29462Y26860D01*
X29522Y26819D01*
X29588Y26787D01*
X29656Y26764D01*
X29728Y26750D01*
X29800Y26745D01*
X29872Y26750D01*
X29944Y26764D01*
X30012Y26787D01*
X30078Y26819D01*
X30138Y26860D01*
X30193Y26907D01*
X30240Y26962D01*
X30281Y27022D01*
X30313Y27088D01*
X30336Y27156D01*
X30350Y27228D01*
X30355Y27300D01*
X30350Y27372D01*
X30336Y27444D01*
X30313Y27512D01*
X30281Y27578D01*
X30240Y27638D01*
X30193Y27693D01*
X30138Y27740D01*
X30078Y27781D01*
X30012Y27813D01*
X29944Y27836D01*
X29872Y27850D01*
X29800Y27855D01*
D02*
G37*
G36*
X4400Y27305D02*
X4328Y27300D01*
X4256Y27286D01*
X4188Y27263D01*
X4122Y27231D01*
X4062Y27190D01*
X4007Y27143D01*
X3960Y27088D01*
X3919Y27028D01*
X3887Y26962D01*
X3864Y26894D01*
X3850Y26822D01*
X3845Y26750D01*
X3850Y26678D01*
X3864Y26606D01*
X3887Y26538D01*
X3919Y26472D01*
X3960Y26412D01*
X4007Y26357D01*
X4062Y26310D01*
X4122Y26269D01*
X4188Y26237D01*
X4256Y26214D01*
X4328Y26200D01*
X4400Y26195D01*
X4472Y26200D01*
X4544Y26214D01*
X4612Y26237D01*
X4678Y26269D01*
X4738Y26310D01*
X4793Y26357D01*
X4840Y26412D01*
X4881Y26472D01*
X4913Y26538D01*
X4936Y26606D01*
X4950Y26678D01*
X4955Y26750D01*
X4950Y26822D01*
X4936Y26894D01*
X4913Y26962D01*
X4881Y27028D01*
X4840Y27088D01*
X4793Y27143D01*
X4738Y27190D01*
X4678Y27231D01*
X4612Y27263D01*
X4544Y27286D01*
X4472Y27300D01*
X4400Y27305D01*
D02*
G37*
G36*
X44184Y21324D02*
X42176D01*
Y19316D01*
X44184D01*
Y21324D01*
D02*
G37*
G36*
X41644D02*
X39636D01*
Y19316D01*
X41644D01*
Y21324D01*
D02*
G37*
G36*
X34024D02*
X32016D01*
Y19316D01*
X34024D01*
Y21324D01*
D02*
G37*
G36*
X635Y18797D02*
X127D01*
Y17907D01*
X1643D01*
X1633Y17978D01*
X1608Y18075D01*
X1575Y18169D01*
X1532Y18260D01*
X1481Y18345D01*
X1421Y18425D01*
X1354Y18499D01*
X1280Y18566D01*
X1200Y18626D01*
X1115Y18677D01*
X1024Y18720D01*
X930Y18753D01*
X833Y18778D01*
X735Y18792D01*
X635Y18797D01*
D02*
G37*
G36*
X27300Y18305D02*
X27228Y18300D01*
X27156Y18286D01*
X27088Y18263D01*
X27022Y18231D01*
X26962Y18190D01*
X26907Y18143D01*
X26860Y18088D01*
X26819Y18028D01*
X26787Y17962D01*
X26764Y17894D01*
X26750Y17822D01*
X26745Y17750D01*
X26750Y17678D01*
X26764Y17606D01*
X26787Y17538D01*
X26819Y17472D01*
X26860Y17412D01*
X26907Y17357D01*
X26962Y17310D01*
X27022Y17269D01*
X27088Y17237D01*
X27156Y17214D01*
X27228Y17200D01*
X27300Y17195D01*
X27372Y17200D01*
X27444Y17214D01*
X27512Y17237D01*
X27578Y17269D01*
X27638Y17310D01*
X27693Y17357D01*
X27740Y17412D01*
X27781Y17472D01*
X27813Y17538D01*
X27836Y17606D01*
X27850Y17678D01*
X27855Y17750D01*
X27850Y17822D01*
X27836Y17894D01*
X27813Y17962D01*
X27781Y18028D01*
X27740Y18088D01*
X27693Y18143D01*
X27638Y18190D01*
X27578Y18231D01*
X27512Y18263D01*
X27444Y18286D01*
X27372Y18300D01*
X27300Y18305D01*
D02*
G37*
G36*
X43180Y18785D02*
X43081Y18780D01*
X42984Y18766D01*
X42888Y18742D01*
X42795Y18709D01*
X42706Y18667D01*
X42622Y18616D01*
X42542Y18557D01*
X42469Y18491D01*
X42403Y18418D01*
X42344Y18338D01*
X42293Y18254D01*
X42251Y18165D01*
X42218Y18072D01*
X42194Y17976D01*
X42180Y17879D01*
X42175Y17780D01*
X42180Y17681D01*
X42194Y17584D01*
X42218Y17488D01*
X42251Y17395D01*
X42293Y17306D01*
X42344Y17222D01*
X42403Y17142D01*
X42469Y17069D01*
X42542Y17003D01*
X42622Y16944D01*
X42706Y16893D01*
X42795Y16851D01*
X42888Y16818D01*
X42984Y16794D01*
X43081Y16780D01*
X43180Y16775D01*
X43279Y16780D01*
X43376Y16794D01*
X43472Y16818D01*
X43565Y16851D01*
X43654Y16893D01*
X43738Y16944D01*
X43818Y17003D01*
X43891Y17069D01*
X43957Y17142D01*
X44016Y17222D01*
X44067Y17306D01*
X44109Y17395D01*
X44142Y17488D01*
X44166Y17584D01*
X44180Y17681D01*
X44185Y17780D01*
X44180Y17879D01*
X44166Y17976D01*
X44142Y18072D01*
X44109Y18165D01*
X44067Y18254D01*
X44016Y18338D01*
X43957Y18418D01*
X43891Y18491D01*
X43818Y18557D01*
X43738Y18616D01*
X43654Y18667D01*
X43565Y18709D01*
X43472Y18742D01*
X43376Y18766D01*
X43279Y18780D01*
X43180Y18785D01*
D02*
G37*
G36*
X40640D02*
X40541Y18780D01*
X40444Y18766D01*
X40348Y18742D01*
X40255Y18709D01*
X40166Y18667D01*
X40082Y18616D01*
X40002Y18557D01*
X39929Y18491D01*
X39863Y18418D01*
X39804Y18338D01*
X39753Y18254D01*
X39711Y18165D01*
X39678Y18072D01*
X39654Y17976D01*
X39640Y17879D01*
X39635Y17780D01*
X39640Y17681D01*
X39654Y17584D01*
X39678Y17488D01*
X39711Y17395D01*
X39753Y17306D01*
X39804Y17222D01*
X39863Y17142D01*
X39929Y17069D01*
X40002Y17003D01*
X40082Y16944D01*
X40166Y16893D01*
X40255Y16851D01*
X40348Y16818D01*
X40444Y16794D01*
X40541Y16780D01*
X40640Y16775D01*
X40739Y16780D01*
X40836Y16794D01*
X40932Y16818D01*
X41025Y16851D01*
X41114Y16893D01*
X41198Y16944D01*
X41278Y17003D01*
X41351Y17069D01*
X41417Y17142D01*
X41476Y17222D01*
X41527Y17306D01*
X41569Y17395D01*
X41602Y17488D01*
X41626Y17584D01*
X41640Y17681D01*
X41645Y17780D01*
X41640Y17879D01*
X41626Y17976D01*
X41602Y18072D01*
X41569Y18165D01*
X41527Y18254D01*
X41476Y18338D01*
X41417Y18418D01*
X41351Y18491D01*
X41278Y18557D01*
X41198Y18616D01*
X41114Y18667D01*
X41025Y18709D01*
X40932Y18742D01*
X40836Y18766D01*
X40739Y18780D01*
X40640Y18785D01*
D02*
G37*
G36*
X33020D02*
X32921Y18780D01*
X32824Y18766D01*
X32728Y18742D01*
X32635Y18709D01*
X32546Y18667D01*
X32462Y18616D01*
X32382Y18557D01*
X32309Y18491D01*
X32243Y18418D01*
X32184Y18338D01*
X32133Y18254D01*
X32091Y18165D01*
X32058Y18072D01*
X32034Y17976D01*
X32020Y17879D01*
X32015Y17780D01*
X32020Y17681D01*
X32034Y17584D01*
X32058Y17488D01*
X32091Y17395D01*
X32133Y17306D01*
X32184Y17222D01*
X32243Y17142D01*
X32309Y17069D01*
X32382Y17003D01*
X32462Y16944D01*
X32546Y16893D01*
X32635Y16851D01*
X32728Y16818D01*
X32824Y16794D01*
X32921Y16780D01*
X33020Y16775D01*
X33119Y16780D01*
X33216Y16794D01*
X33312Y16818D01*
X33405Y16851D01*
X33494Y16893D01*
X33578Y16944D01*
X33658Y17003D01*
X33731Y17069D01*
X33797Y17142D01*
X33856Y17222D01*
X33907Y17306D01*
X33949Y17395D01*
X33982Y17488D01*
X34006Y17584D01*
X34020Y17681D01*
X34025Y17780D01*
X34020Y17879D01*
X34006Y17976D01*
X33982Y18072D01*
X33949Y18165D01*
X33907Y18254D01*
X33856Y18338D01*
X33797Y18418D01*
X33731Y18491D01*
X33658Y18557D01*
X33578Y18616D01*
X33494Y18667D01*
X33405Y18709D01*
X33312Y18742D01*
X33216Y18766D01*
X33119Y18780D01*
X33020Y18785D01*
D02*
G37*
G36*
X1643Y17653D02*
X127D01*
Y16763D01*
X635D01*
X735Y16768D01*
X833Y16782D01*
X930Y16807D01*
X1024Y16840D01*
X1115Y16883D01*
X1200Y16934D01*
X1280Y16994D01*
X1354Y17061D01*
X1421Y17135D01*
X1481Y17215D01*
X1532Y17300D01*
X1575Y17391D01*
X1608Y17485D01*
X1633Y17582D01*
X1643Y17653D01*
D02*
G37*
G36*
X48133Y16257D02*
X47625D01*
X47525Y16252D01*
X47427Y16238D01*
X47330Y16213D01*
X47236Y16180D01*
X47145Y16137D01*
X47060Y16086D01*
X46980Y16026D01*
X46906Y15959D01*
X46839Y15885D01*
X46779Y15805D01*
X46728Y15720D01*
X46685Y15629D01*
X46652Y15535D01*
X46627Y15438D01*
X46617Y15367D01*
X48133D01*
Y16257D01*
D02*
G37*
G36*
X635D02*
X127D01*
Y15367D01*
X1643D01*
X1633Y15438D01*
X1608Y15535D01*
X1575Y15629D01*
X1532Y15720D01*
X1481Y15805D01*
X1421Y15885D01*
X1354Y15959D01*
X1280Y16026D01*
X1200Y16086D01*
X1115Y16137D01*
X1024Y16180D01*
X930Y16213D01*
X833Y16238D01*
X735Y16252D01*
X635Y16257D01*
D02*
G37*
G36*
X43180Y16245D02*
X43081Y16240D01*
X42984Y16226D01*
X42888Y16202D01*
X42795Y16169D01*
X42706Y16127D01*
X42622Y16076D01*
X42542Y16017D01*
X42469Y15951D01*
X42403Y15878D01*
X42344Y15798D01*
X42293Y15714D01*
X42251Y15625D01*
X42218Y15532D01*
X42194Y15436D01*
X42180Y15339D01*
X42175Y15240D01*
X42180Y15141D01*
X42194Y15044D01*
X42218Y14948D01*
X42251Y14855D01*
X42293Y14766D01*
X42344Y14682D01*
X42403Y14602D01*
X42469Y14529D01*
X42542Y14463D01*
X42622Y14404D01*
X42706Y14353D01*
X42795Y14311D01*
X42888Y14278D01*
X42984Y14254D01*
X43081Y14240D01*
X43180Y14235D01*
X43279Y14240D01*
X43376Y14254D01*
X43472Y14278D01*
X43565Y14311D01*
X43654Y14353D01*
X43738Y14404D01*
X43818Y14463D01*
X43891Y14529D01*
X43957Y14602D01*
X44016Y14682D01*
X44067Y14766D01*
X44109Y14855D01*
X44142Y14948D01*
X44166Y15044D01*
X44180Y15141D01*
X44185Y15240D01*
X44180Y15339D01*
X44166Y15436D01*
X44142Y15532D01*
X44109Y15625D01*
X44067Y15714D01*
X44016Y15798D01*
X43957Y15878D01*
X43891Y15951D01*
X43818Y16017D01*
X43738Y16076D01*
X43654Y16127D01*
X43565Y16169D01*
X43472Y16202D01*
X43376Y16226D01*
X43279Y16240D01*
X43180Y16245D01*
D02*
G37*
G36*
X40640D02*
X40541Y16240D01*
X40444Y16226D01*
X40348Y16202D01*
X40255Y16169D01*
X40166Y16127D01*
X40082Y16076D01*
X40002Y16017D01*
X39929Y15951D01*
X39863Y15878D01*
X39804Y15798D01*
X39753Y15714D01*
X39711Y15625D01*
X39678Y15532D01*
X39654Y15436D01*
X39640Y15339D01*
X39635Y15240D01*
X39640Y15141D01*
X39654Y15044D01*
X39678Y14948D01*
X39711Y14855D01*
X39753Y14766D01*
X39804Y14682D01*
X39863Y14602D01*
X39929Y14529D01*
X40002Y14463D01*
X40082Y14404D01*
X40166Y14353D01*
X40255Y14311D01*
X40348Y14278D01*
X40444Y14254D01*
X40541Y14240D01*
X40640Y14235D01*
X40739Y14240D01*
X40836Y14254D01*
X40932Y14278D01*
X41025Y14311D01*
X41114Y14353D01*
X41198Y14404D01*
X41278Y14463D01*
X41351Y14529D01*
X41417Y14602D01*
X41476Y14682D01*
X41527Y14766D01*
X41569Y14855D01*
X41602Y14948D01*
X41626Y15044D01*
X41640Y15141D01*
X41645Y15240D01*
X41640Y15339D01*
X41626Y15436D01*
X41602Y15532D01*
X41569Y15625D01*
X41527Y15714D01*
X41476Y15798D01*
X41417Y15878D01*
X41351Y15951D01*
X41278Y16017D01*
X41198Y16076D01*
X41114Y16127D01*
X41025Y16169D01*
X40932Y16202D01*
X40836Y16226D01*
X40739Y16240D01*
X40640Y16245D01*
D02*
G37*
G36*
X33020D02*
X32921Y16240D01*
X32824Y16226D01*
X32728Y16202D01*
X32635Y16169D01*
X32546Y16127D01*
X32462Y16076D01*
X32382Y16017D01*
X32309Y15951D01*
X32243Y15878D01*
X32184Y15798D01*
X32133Y15714D01*
X32091Y15625D01*
X32058Y15532D01*
X32034Y15436D01*
X32020Y15339D01*
X32015Y15240D01*
X32020Y15141D01*
X32034Y15044D01*
X32058Y14948D01*
X32091Y14855D01*
X32133Y14766D01*
X32184Y14682D01*
X32243Y14602D01*
X32309Y14529D01*
X32382Y14463D01*
X32462Y14404D01*
X32546Y14353D01*
X32635Y14311D01*
X32728Y14278D01*
X32824Y14254D01*
X32921Y14240D01*
X33020Y14235D01*
X33119Y14240D01*
X33216Y14254D01*
X33312Y14278D01*
X33405Y14311D01*
X33494Y14353D01*
X33578Y14404D01*
X33658Y14463D01*
X33731Y14529D01*
X33797Y14602D01*
X33856Y14682D01*
X33907Y14766D01*
X33949Y14855D01*
X33982Y14948D01*
X34006Y15044D01*
X34020Y15141D01*
X34025Y15240D01*
X34020Y15339D01*
X34006Y15436D01*
X33982Y15532D01*
X33949Y15625D01*
X33907Y15714D01*
X33856Y15798D01*
X33797Y15878D01*
X33731Y15951D01*
X33658Y16017D01*
X33578Y16076D01*
X33494Y16127D01*
X33405Y16169D01*
X33312Y16202D01*
X33216Y16226D01*
X33119Y16240D01*
X33020Y16245D01*
D02*
G37*
G36*
X48133Y15113D02*
X46617D01*
X46627Y15042D01*
X46652Y14945D01*
X46685Y14851D01*
X46728Y14760D01*
X46779Y14675D01*
X46839Y14595D01*
X46906Y14521D01*
X46980Y14454D01*
X47060Y14394D01*
X47145Y14343D01*
X47236Y14300D01*
X47330Y14267D01*
X47427Y14242D01*
X47525Y14228D01*
X47625Y14223D01*
X48133D01*
Y15113D01*
D02*
G37*
G36*
X1643D02*
X127D01*
Y14223D01*
X635D01*
X735Y14228D01*
X833Y14242D01*
X930Y14267D01*
X1024Y14300D01*
X1115Y14343D01*
X1200Y14394D01*
X1280Y14454D01*
X1354Y14521D01*
X1421Y14595D01*
X1481Y14675D01*
X1532Y14760D01*
X1575Y14851D01*
X1608Y14945D01*
X1633Y15042D01*
X1643Y15113D01*
D02*
G37*
G36*
X48133Y13717D02*
X47625D01*
X47525Y13712D01*
X47427Y13698D01*
X47330Y13673D01*
X47236Y13640D01*
X47145Y13597D01*
X47060Y13546D01*
X46980Y13486D01*
X46906Y13419D01*
X46839Y13345D01*
X46779Y13265D01*
X46728Y13180D01*
X46685Y13089D01*
X46652Y12995D01*
X46627Y12898D01*
X46617Y12827D01*
X48133D01*
Y13717D01*
D02*
G37*
G36*
Y12573D02*
X46617D01*
X46627Y12502D01*
X46652Y12405D01*
X46685Y12311D01*
X46728Y12220D01*
X46779Y12135D01*
X46839Y12055D01*
X46906Y11981D01*
X46980Y11914D01*
X47060Y11854D01*
X47145Y11803D01*
X47236Y11760D01*
X47330Y11727D01*
X47427Y11702D01*
X47525Y11688D01*
X47625Y11683D01*
X48133D01*
Y12573D01*
D02*
G37*
G36*
X6200Y7005D02*
X6128Y7000D01*
X6056Y6986D01*
X5988Y6963D01*
X5922Y6931D01*
X5862Y6890D01*
X5807Y6843D01*
X5760Y6788D01*
X5719Y6728D01*
X5687Y6662D01*
X5664Y6594D01*
X5650Y6522D01*
X5645Y6450D01*
X5650Y6378D01*
X5664Y6306D01*
X5687Y6238D01*
X5719Y6172D01*
X5760Y6112D01*
X5807Y6057D01*
X5862Y6010D01*
X5922Y5969D01*
X5988Y5937D01*
X6056Y5914D01*
X6128Y5900D01*
X6200Y5895D01*
X6272Y5900D01*
X6344Y5914D01*
X6412Y5937D01*
X6478Y5969D01*
X6538Y6010D01*
X6593Y6057D01*
X6640Y6112D01*
X6681Y6172D01*
X6713Y6238D01*
X6736Y6306D01*
X6750Y6378D01*
X6755Y6450D01*
X6750Y6522D01*
X6736Y6594D01*
X6713Y6662D01*
X6681Y6728D01*
X6640Y6788D01*
X6593Y6843D01*
X6538Y6890D01*
X6478Y6931D01*
X6412Y6963D01*
X6344Y6986D01*
X6272Y7000D01*
X6200Y7005D01*
D02*
G37*
G36*
X22860Y11050D02*
X22680Y11045D01*
X22501Y11031D01*
X22323Y11008D01*
X22147Y10975D01*
X21972Y10933D01*
X21800Y10882D01*
X21631Y10822D01*
X21465Y10754D01*
X21303Y10676D01*
X21145Y10591D01*
X20992Y10497D01*
X20844Y10395D01*
X20701Y10286D01*
X20565Y10169D01*
X20434Y10045D01*
X20311Y9915D01*
X20194Y9779D01*
X20085Y9636D01*
X19983Y9488D01*
X19889Y9335D01*
X19804Y9177D01*
X19726Y9015D01*
X19658Y8849D01*
X19598Y8680D01*
X19547Y8508D01*
X19505Y8333D01*
X19472Y8157D01*
X19449Y7979D01*
X19435Y7800D01*
X19430Y7620D01*
X19435Y7440D01*
X19449Y7261D01*
X19472Y7083D01*
X19505Y6907D01*
X19547Y6732D01*
X19598Y6560D01*
X19658Y6391D01*
X19726Y6225D01*
X19804Y6063D01*
X19889Y5905D01*
X19983Y5752D01*
X20085Y5604D01*
X20194Y5461D01*
X20311Y5325D01*
X20434Y5194D01*
X20565Y5071D01*
X20701Y4954D01*
X20844Y4845D01*
X20992Y4743D01*
X21145Y4649D01*
X21303Y4564D01*
X21465Y4486D01*
X21631Y4418D01*
X21800Y4358D01*
X21972Y4307D01*
X22147Y4265D01*
X22323Y4232D01*
X22501Y4209D01*
X22680Y4195D01*
X22860Y4190D01*
X23040Y4195D01*
X23219Y4209D01*
X23397Y4232D01*
X23573Y4265D01*
X23748Y4307D01*
X23920Y4358D01*
X24089Y4418D01*
X24255Y4486D01*
X24417Y4564D01*
X24575Y4649D01*
X24728Y4743D01*
X24876Y4845D01*
X25019Y4954D01*
X25155Y5071D01*
X25285Y5194D01*
X25409Y5325D01*
X25526Y5461D01*
X25635Y5604D01*
X25737Y5752D01*
X25831Y5905D01*
X25916Y6063D01*
X25994Y6225D01*
X26062Y6391D01*
X26122Y6560D01*
X26173Y6732D01*
X26215Y6907D01*
X26248Y7083D01*
X26271Y7261D01*
X26285Y7440D01*
X26290Y7620D01*
X26285Y7800D01*
X26271Y7979D01*
X26248Y8157D01*
X26215Y8333D01*
X26173Y8508D01*
X26122Y8680D01*
X26062Y8849D01*
X25994Y9015D01*
X25916Y9177D01*
X25831Y9335D01*
X25737Y9488D01*
X25635Y9636D01*
X25526Y9779D01*
X25409Y9915D01*
X25285Y10045D01*
X25155Y10169D01*
X25019Y10286D01*
X24876Y10395D01*
X24728Y10497D01*
X24575Y10591D01*
X24417Y10676D01*
X24255Y10754D01*
X24089Y10822D01*
X23920Y10882D01*
X23748Y10933D01*
X23573Y10975D01*
X23397Y11008D01*
X23219Y11031D01*
X23040Y11045D01*
X22860Y11050D01*
D02*
G37*
G36*
X22987Y1643D02*
Y127D01*
X23877D01*
Y635D01*
X23872Y735D01*
X23858Y833D01*
X23833Y930D01*
X23800Y1024D01*
X23757Y1115D01*
X23706Y1200D01*
X23646Y1280D01*
X23579Y1354D01*
X23505Y1421D01*
X23425Y1481D01*
X23340Y1532D01*
X23249Y1575D01*
X23155Y1608D01*
X23058Y1633D01*
X22987Y1643D01*
D02*
G37*
G36*
X20447D02*
Y127D01*
X21337D01*
Y635D01*
X21332Y735D01*
X21318Y833D01*
X21293Y930D01*
X21260Y1024D01*
X21217Y1115D01*
X21166Y1200D01*
X21106Y1280D01*
X21039Y1354D01*
X20965Y1421D01*
X20885Y1481D01*
X20800Y1532D01*
X20709Y1575D01*
X20615Y1608D01*
X20518Y1633D01*
X20447Y1643D01*
D02*
G37*
G36*
X1016Y1651D02*
X127D01*
Y127D01*
X1016D01*
Y1651D01*
D02*
G37*
G36*
X-127D02*
X-1016D01*
Y127D01*
X-127D01*
Y1651D01*
D02*
G37*
G36*
X20193Y1643D02*
X20122Y1633D01*
X20025Y1608D01*
X19931Y1575D01*
X19840Y1532D01*
X19755Y1481D01*
X19675Y1421D01*
X19601Y1354D01*
X19534Y1280D01*
X19474Y1200D01*
X19423Y1115D01*
X19380Y1024D01*
X19347Y930D01*
X19322Y833D01*
X19308Y735D01*
X19303Y635D01*
Y127D01*
X20193D01*
Y1643D01*
D02*
G37*
G36*
X22733D02*
X22662Y1633D01*
X22565Y1608D01*
X22471Y1575D01*
X22380Y1532D01*
X22295Y1481D01*
X22215Y1421D01*
X22141Y1354D01*
X22074Y1280D01*
X22014Y1200D01*
X21963Y1115D01*
X21920Y1024D01*
X21887Y930D01*
X21862Y833D01*
X21848Y735D01*
X21843Y635D01*
Y127D01*
X22733D01*
Y1643D01*
D02*
G37*
%LPD*%
D12*
X21775Y36650D02*
G03*
X21446Y37444I-1123J0D01*
G01*
X20014Y34950D02*
G03*
X21579Y35598I0J2214D01*
G01*
D02*
G03*
X21775Y36072I-474J474D01*
G01*
X19552Y34950D02*
G03*
X17756Y34206I0J-2540D01*
G01*
X24792Y33744D02*
G03*
X26588Y34488I0J2540D01*
G01*
X20694Y37606D02*
G03*
X18898Y38350I-1796J-1796D01*
G01*
X20794Y36856D02*
G03*
X18998Y37600I-1796J-1796D01*
G01*
X24700Y46575D02*
G03*
X24470Y46020I555J-555D01*
G01*
X26500Y41525D02*
G03*
X25353Y42000I-1147J-1147D01*
G01*
X21934Y42516D02*
G03*
X21935Y42515I1366J1366D01*
G01*
X22131Y42319D02*
G03*
X22901Y42000I770J770D01*
G01*
X26634Y41391D02*
G03*
X27700Y40950I1066J1068D01*
G01*
X26633Y41392D02*
G03*
X26634Y41391I1067J1067D01*
G01*
X21675Y42775D02*
G03*
X21011Y43050I-664J-664D01*
G01*
X22175Y44769D02*
G03*
X22200Y45007I-1101J237D01*
G01*
X21870Y44210D02*
G03*
X22175Y44769I-797J797D01*
G01*
X23878Y47655D02*
G03*
X23150Y45898I1758J-1758D01*
G01*
X21775Y36072D02*
Y36650D01*
X19552Y34950D02*
X20014D01*
X17325Y33775D02*
X17756Y34206D01*
X26588Y34488D02*
X26950Y34850D01*
X20875Y33744D02*
X24792D01*
X21185Y37705D02*
X21446Y37444D01*
X27700Y42250D02*
X29900D01*
X17000Y38350D02*
X18898D01*
X20694Y37606D02*
X21225Y37075D01*
X17900Y37600D02*
X18998D01*
X20794Y36856D02*
X21225Y36425D01*
X17377D02*
X20575D01*
X24470Y44210D02*
Y46020D01*
X27040Y39670D02*
X27895Y40525D01*
X23800Y44200D02*
X25100D01*
X23810Y37080D02*
X25110D01*
X18575Y40550D02*
X20430D01*
X21200Y41320D01*
X22901Y42000D02*
X25353D01*
X21934Y42516D02*
X22131Y42319D01*
X26500Y41525D02*
X26633Y41392D01*
X17875Y43050D02*
X21011D01*
X21675Y42775D02*
X21934Y42516D01*
X22200Y45007D02*
Y46250D01*
X23878Y47655D02*
X24850Y48628D01*
X23150Y44200D02*
Y45898D01*
X21200Y41600D02*
Y42250D01*
Y41320D02*
Y41600D01*
X20380Y40500D02*
X21220Y39660D01*
X28150Y40525D02*
X29621D01*
X27895D02*
X28150D01*
X27700Y41600D02*
X28150Y41150D01*
Y40525D02*
Y41150D01*
X23150Y36420D02*
X23810Y37080D01*
X23150Y35200D02*
Y36420D01*
D35*
X21675Y42775D02*
D03*
D40*
X48260Y53340D02*
D03*
D41*
X0Y50800D02*
D03*
Y45720D02*
D03*
Y40640D02*
D03*
Y17780D02*
D03*
Y15240D02*
D03*
X48260Y45720D02*
D03*
Y38100D02*
D03*
Y33020D02*
D03*
Y30480D02*
D03*
Y15240D02*
D03*
Y12700D02*
D03*
D42*
X0Y0D02*
D03*
D43*
X20320D02*
D03*
X22860D02*
D03*
D44*
X20875Y33744D02*
D03*
X17325Y33775D02*
D03*
X18575Y40550D02*
D03*
X22200Y46250D02*
D03*
X24700Y46575D02*
D03*
X26080Y40320D02*
D03*
X29621Y40525D02*
D03*
X23150Y35200D02*
D03*
X33231Y33917D02*
D03*
X37250Y38100D02*
D03*
X35251Y42345D02*
D03*
X43180Y25400D02*
D03*
Y10160D02*
D03*
Y5080D02*
D03*
X38100Y60960D02*
D03*
Y55880D02*
D03*
Y40640D02*
D03*
Y35560D02*
D03*
Y30480D02*
D03*
Y25400D02*
D03*
Y20320D02*
D03*
Y15240D02*
D03*
Y10160D02*
D03*
Y5080D02*
D03*
X33020Y60960D02*
D03*
Y55880D02*
D03*
Y50800D02*
D03*
Y30480D02*
D03*
Y25400D02*
D03*
Y10160D02*
D03*
Y5080D02*
D03*
X27940Y60960D02*
D03*
Y55880D02*
D03*
Y25400D02*
D03*
Y20320D02*
D03*
Y15240D02*
D03*
Y5080D02*
D03*
X22860Y60960D02*
D03*
Y30480D02*
D03*
Y25400D02*
D03*
Y20320D02*
D03*
Y15240D02*
D03*
X17780Y60960D02*
D03*
Y45720D02*
D03*
Y25400D02*
D03*
Y20320D02*
D03*
Y15240D02*
D03*
Y10160D02*
D03*
Y5080D02*
D03*
X12700Y60960D02*
D03*
Y45720D02*
D03*
Y40640D02*
D03*
Y35560D02*
D03*
Y30480D02*
D03*
Y25400D02*
D03*
Y20320D02*
D03*
Y15240D02*
D03*
Y10160D02*
D03*
Y5080D02*
D03*
X2540Y50800D02*
D03*
Y45720D02*
D03*
Y35560D02*
D03*
Y30480D02*
D03*
Y20320D02*
D03*
Y15240D02*
D03*
Y5080D02*
D03*
X5600Y7100D02*
D03*
X3550Y26750D02*
D03*
X17850Y35750D02*
D03*
X18452Y37000D02*
D03*
X17350Y39050D02*
D03*
X22850Y52500D02*
D03*
X29850Y43600D02*
D03*
X29800Y44900D02*
D03*
Y46200D02*
D03*
Y47500D02*
D03*
X33160Y42250D02*
D03*
X29100Y34350D02*
D03*
X29050Y33020D02*
D03*
X31000Y32000D02*
D03*
X30550Y27000D02*
D03*
X29250Y27850D02*
D03*
Y30650D02*
D03*
X29000Y32200D02*
D03*
X29250Y28700D02*
D03*
Y30000D02*
D03*
X17450Y29100D02*
D03*
X15550Y43924D02*
D03*
X22180Y39675D02*
D03*
X24440Y42590D02*
D03*
X32900Y40550D02*
D03*
X17875Y43050D02*
D03*
X24850Y48628D02*
D03*
X26950Y34850D02*
D03*
X29900Y42250D02*
D03*
X17000Y38350D02*
D03*
X17900Y37600D02*
D03*
X17300Y36400D02*
D03*
D45*
X21185Y37705D02*
D03*
X23150Y41625D02*
D03*
X23800D02*
D03*
X24450D02*
D03*
X25100D02*
D03*
Y40975D02*
D03*
X24450Y40975D02*
D03*
X23800Y40975D02*
D03*
X23150Y40975D02*
D03*
Y40325D02*
D03*
X23800D02*
D03*
X24450D02*
D03*
X25100D02*
D03*
Y39675D02*
D03*
X24450Y39675D02*
D03*
X23800Y39675D02*
D03*
X23150Y39675D02*
D03*
X27045Y40310D02*
D03*
X25090Y37720D02*
D03*
X25110Y37080D02*
D03*
X26395Y40985D02*
D03*
X27040Y39670D02*
D03*
X21220Y39660D02*
D03*
X24440Y37720D02*
D03*
X23800Y43550D02*
D03*
X24450D02*
D03*
X25100D02*
D03*
X27040Y41620D02*
D03*
X23810Y37080D02*
D03*
X27700Y41600D02*
D03*
X25100Y44200D02*
D03*
X20550Y42250D02*
D03*
X21200D02*
D03*
X20550Y41600D02*
D03*
X24440Y37070D02*
D03*
X27700Y40950D02*
D03*
X27700Y40300D02*
D03*
X21200Y41600D02*
D03*
X23800Y44200D02*
D03*
X24470Y44210D02*
D03*
X21870D02*
D03*
X23150Y44200D02*
D03*
X27700Y42250D02*
D03*
X20575Y36425D02*
D03*
X21225D02*
D03*
Y37075D02*
D03*
M02*
