G04*
G04 #@! TF.GenerationSoftware,Altium Limited,Altium Designer,18.1.9 (240)*
G04*
G04 Layer_Physical_Order=4*
G04 Layer_Color=16711680*
%FSLAX43Y43*%
%MOMM*%
G71*
G01*
G75*
%ADD12C,0.200*%
%ADD17R,0.750X0.800*%
%ADD34C,0.500*%
%ADD36C,1.500*%
%ADD37R,1.500X1.500*%
%ADD38R,1.500X1.500*%
%ADD39C,6.350*%
%ADD40R,2.794X1.524*%
%ADD41O,2.794X1.524*%
%ADD42R,1.524X2.794*%
%ADD43O,1.524X2.794*%
%ADD44C,0.600*%
%ADD46R,0.800X0.750*%
G36*
X49949Y54467D02*
X49911Y54356D01*
X49822Y54356D01*
X48387D01*
Y53340D01*
Y52324D01*
X49822D01*
X49911Y52324D01*
X49949Y52213D01*
Y51245D01*
X49822Y51217D01*
X49792Y51280D01*
X49741Y51365D01*
X49681Y51445D01*
X49614Y51519D01*
X49540Y51586D01*
X49460Y51646D01*
X49375Y51697D01*
X49284Y51740D01*
X49190Y51773D01*
X49093Y51798D01*
X48995Y51812D01*
X48895Y51817D01*
X47625D01*
X47525Y51812D01*
X47427Y51798D01*
X47330Y51773D01*
X47236Y51740D01*
X47145Y51697D01*
X47060Y51646D01*
X46980Y51586D01*
X46906Y51519D01*
X46839Y51445D01*
X46779Y51365D01*
X46728Y51280D01*
X46685Y51189D01*
X46652Y51095D01*
X46627Y50998D01*
X46613Y50900D01*
X46608Y50800D01*
X46613Y50700D01*
X46627Y50602D01*
X46652Y50505D01*
X46685Y50411D01*
X46728Y50320D01*
X46779Y50235D01*
X46839Y50155D01*
X46906Y50081D01*
X46980Y50014D01*
X47060Y49954D01*
X47145Y49903D01*
X47236Y49860D01*
X47330Y49827D01*
X47427Y49802D01*
X47525Y49788D01*
X47625Y49783D01*
X48895D01*
X48995Y49788D01*
X49093Y49802D01*
X49190Y49827D01*
X49284Y49860D01*
X49375Y49903D01*
X49460Y49954D01*
X49540Y50014D01*
X49614Y50081D01*
X49681Y50155D01*
X49741Y50235D01*
X49792Y50320D01*
X49822Y50383D01*
X49949Y50355D01*
Y48705D01*
X49822Y48677D01*
X49792Y48740D01*
X49741Y48825D01*
X49681Y48905D01*
X49614Y48979D01*
X49540Y49046D01*
X49460Y49106D01*
X49375Y49157D01*
X49284Y49200D01*
X49190Y49233D01*
X49093Y49258D01*
X48995Y49272D01*
X48895Y49277D01*
X47625D01*
X47525Y49272D01*
X47427Y49258D01*
X47330Y49233D01*
X47236Y49200D01*
X47145Y49157D01*
X47060Y49106D01*
X46980Y49046D01*
X46906Y48979D01*
X46839Y48905D01*
X46779Y48825D01*
X46728Y48740D01*
X46685Y48649D01*
X46652Y48555D01*
X46627Y48458D01*
X46613Y48360D01*
X46608Y48260D01*
X46613Y48160D01*
X46627Y48062D01*
X46652Y47965D01*
X46685Y47871D01*
X46728Y47780D01*
X46779Y47695D01*
X46839Y47615D01*
X46906Y47541D01*
X46980Y47474D01*
X47060Y47414D01*
X47145Y47363D01*
X47236Y47320D01*
X47330Y47287D01*
X47427Y47262D01*
X47525Y47248D01*
X47625Y47243D01*
X48895D01*
X48995Y47248D01*
X49093Y47262D01*
X49190Y47287D01*
X49284Y47320D01*
X49375Y47363D01*
X49460Y47414D01*
X49540Y47474D01*
X49614Y47541D01*
X49681Y47615D01*
X49741Y47695D01*
X49792Y47780D01*
X49822Y47843D01*
X49949Y47815D01*
Y46165D01*
X49822Y46137D01*
X49792Y46200D01*
X49741Y46285D01*
X49681Y46365D01*
X49614Y46439D01*
X49540Y46506D01*
X49460Y46566D01*
X49375Y46617D01*
X49284Y46660D01*
X49190Y46693D01*
X49093Y46718D01*
X48995Y46732D01*
X48895Y46737D01*
X48387D01*
Y45720D01*
Y44703D01*
X48895D01*
X48995Y44708D01*
X49093Y44722D01*
X49190Y44747D01*
X49284Y44780D01*
X49375Y44823D01*
X49460Y44874D01*
X49540Y44934D01*
X49614Y45001D01*
X49681Y45075D01*
X49741Y45155D01*
X49792Y45240D01*
X49822Y45303D01*
X49949Y45275D01*
Y43625D01*
X49822Y43597D01*
X49792Y43660D01*
X49741Y43745D01*
X49681Y43825D01*
X49614Y43899D01*
X49540Y43966D01*
X49460Y44026D01*
X49375Y44077D01*
X49284Y44120D01*
X49190Y44153D01*
X49093Y44178D01*
X48995Y44192D01*
X48895Y44197D01*
X47625D01*
X47525Y44192D01*
X47427Y44178D01*
X47330Y44153D01*
X47236Y44120D01*
X47145Y44077D01*
X47060Y44026D01*
X46980Y43966D01*
X46906Y43899D01*
X46839Y43825D01*
X46779Y43745D01*
X46743Y43685D01*
X44232D01*
Y43685D01*
X44061Y43680D01*
X43891Y43666D01*
X43722Y43642D01*
X43554Y43609D01*
X43389Y43566D01*
X43226Y43514D01*
X43067Y43453D01*
X42911Y43384D01*
X42759Y43305D01*
X42612Y43218D01*
X42470Y43124D01*
X42333Y43021D01*
X42203Y42911D01*
X42079Y42793D01*
X42079Y42793D01*
X40896Y41611D01*
X40836Y41626D01*
X40739Y41640D01*
X40640Y41645D01*
X40541Y41640D01*
X40444Y41626D01*
X40348Y41602D01*
X40255Y41569D01*
X40166Y41527D01*
X40082Y41476D01*
X40002Y41417D01*
X39929Y41351D01*
X39863Y41278D01*
X39804Y41198D01*
X39753Y41114D01*
X39711Y41025D01*
X39678Y40932D01*
X39654Y40836D01*
X39640Y40739D01*
X39635Y40640D01*
X39640Y40541D01*
X39654Y40444D01*
X39678Y40348D01*
X39711Y40255D01*
X39753Y40166D01*
X39804Y40082D01*
X39863Y40002D01*
X39929Y39929D01*
X40002Y39863D01*
X40082Y39804D01*
X40166Y39753D01*
X40255Y39711D01*
X40348Y39678D01*
X40444Y39654D01*
X40541Y39640D01*
X40640Y39635D01*
X40739Y39640D01*
X40836Y39654D01*
X40932Y39678D01*
X41025Y39711D01*
X41114Y39753D01*
X41198Y39804D01*
X41278Y39863D01*
X41351Y39929D01*
X41417Y40002D01*
X41476Y40082D01*
X41527Y40166D01*
X41569Y40255D01*
X41602Y40348D01*
X41626Y40444D01*
X41640Y40541D01*
X41645Y40640D01*
X41640Y40739D01*
X41626Y40836D01*
X41611Y40896D01*
X42059Y41344D01*
X42176Y41296D01*
Y39636D01*
X43470D01*
X43599Y39507D01*
X43606Y39501D01*
X43691Y39410D01*
X43775Y39307D01*
X43853Y39199D01*
X43923Y39086D01*
X43986Y38968D01*
X44041Y38847D01*
X44088Y38722D01*
X44126Y38595D01*
X44157Y38465D01*
X44178Y38334D01*
X44191Y38201D01*
X44196Y38077D01*
X44195Y38068D01*
Y36686D01*
X44184Y36564D01*
X42176D01*
Y34556D01*
X43783D01*
X43830Y34429D01*
X43775Y34353D01*
X43691Y34250D01*
X43606Y34159D01*
X43599Y34153D01*
X43436Y33991D01*
X43376Y34006D01*
X43279Y34020D01*
X43180Y34025D01*
X43081Y34020D01*
X42984Y34006D01*
X42888Y33982D01*
X42795Y33949D01*
X42706Y33907D01*
X42622Y33856D01*
X42542Y33797D01*
X42469Y33731D01*
X42403Y33658D01*
X42344Y33578D01*
X42312Y33525D01*
X41508D01*
X41476Y33578D01*
X41417Y33658D01*
X41351Y33731D01*
X41278Y33797D01*
X41198Y33856D01*
X41114Y33907D01*
X41025Y33949D01*
X40932Y33982D01*
X40836Y34006D01*
X40739Y34020D01*
X40640Y34025D01*
X40541Y34020D01*
X40444Y34006D01*
X40348Y33982D01*
X40255Y33949D01*
X40166Y33907D01*
X40082Y33856D01*
X40002Y33797D01*
X39929Y33731D01*
X39863Y33658D01*
X39804Y33578D01*
X39753Y33494D01*
X39711Y33405D01*
X39678Y33312D01*
X39654Y33216D01*
X39640Y33119D01*
X39635Y33020D01*
X39640Y32921D01*
X39654Y32824D01*
X39678Y32728D01*
X39711Y32635D01*
X39753Y32546D01*
X39804Y32462D01*
X39863Y32382D01*
X39929Y32309D01*
X40002Y32243D01*
X40082Y32184D01*
X40166Y32133D01*
X40255Y32091D01*
X40348Y32058D01*
X40444Y32034D01*
X40541Y32020D01*
X40640Y32015D01*
X40739Y32020D01*
X40836Y32034D01*
X40932Y32058D01*
X41025Y32091D01*
X41114Y32133D01*
X41198Y32184D01*
X41278Y32243D01*
X41351Y32309D01*
X41417Y32382D01*
X41476Y32462D01*
X41508Y32515D01*
X42312D01*
X42344Y32462D01*
X42403Y32382D01*
X42469Y32309D01*
X42542Y32243D01*
X42622Y32184D01*
X42706Y32133D01*
X42795Y32091D01*
X42888Y32058D01*
X42984Y32034D01*
X43081Y32020D01*
X43180Y32015D01*
X43279Y32020D01*
X43376Y32034D01*
X43472Y32058D01*
X43565Y32091D01*
X43654Y32133D01*
X43738Y32184D01*
X43818Y32243D01*
X43891Y32309D01*
X43957Y32382D01*
X44016Y32462D01*
X44067Y32546D01*
X44109Y32635D01*
X44142Y32728D01*
X44166Y32824D01*
X44180Y32921D01*
X44185Y33020D01*
X44180Y33119D01*
X44166Y33216D01*
X44151Y33276D01*
X44313Y33439D01*
X44313Y33439D01*
X44431Y33563D01*
X44541Y33693D01*
X44644Y33830D01*
X44738Y33972D01*
X44825Y34119D01*
X44904Y34271D01*
X44973Y34427D01*
X45034Y34586D01*
X45086Y34749D01*
X45129Y34914D01*
X45162Y35082D01*
X45186Y35251D01*
X45200Y35421D01*
X45205Y35592D01*
X45205D01*
Y38068D01*
X45205D01*
X45200Y38239D01*
X45186Y38409D01*
X45162Y38578D01*
X45129Y38746D01*
X45086Y38911D01*
X45034Y39074D01*
X44973Y39233D01*
X44904Y39389D01*
X44825Y39541D01*
X44738Y39688D01*
X44644Y39830D01*
X44541Y39967D01*
X44431Y40097D01*
X44313Y40221D01*
X44313Y40221D01*
X44184Y40350D01*
Y41644D01*
X42524D01*
X42476Y41761D01*
X42793Y42079D01*
X42799Y42086D01*
X42890Y42171D01*
X42993Y42255D01*
X43101Y42333D01*
X43214Y42403D01*
X43332Y42466D01*
X43453Y42521D01*
X43578Y42568D01*
X43705Y42606D01*
X43835Y42637D01*
X43966Y42658D01*
X44099Y42671D01*
X44223Y42676D01*
X44232Y42675D01*
X46743D01*
X46779Y42615D01*
X46839Y42535D01*
X46906Y42461D01*
X46980Y42394D01*
X47060Y42334D01*
X47145Y42283D01*
X47236Y42240D01*
X47330Y42207D01*
X47427Y42182D01*
X47525Y42168D01*
X47625Y42163D01*
X48895D01*
X48995Y42168D01*
X49093Y42182D01*
X49190Y42207D01*
X49284Y42240D01*
X49375Y42283D01*
X49460Y42334D01*
X49540Y42394D01*
X49614Y42461D01*
X49681Y42535D01*
X49741Y42615D01*
X49792Y42700D01*
X49822Y42763D01*
X49949Y42735D01*
Y41085D01*
X49822Y41057D01*
X49792Y41120D01*
X49741Y41205D01*
X49681Y41285D01*
X49614Y41359D01*
X49540Y41426D01*
X49460Y41486D01*
X49375Y41537D01*
X49284Y41580D01*
X49190Y41613D01*
X49093Y41638D01*
X48995Y41652D01*
X48895Y41657D01*
X47625D01*
X47525Y41652D01*
X47427Y41638D01*
X47330Y41613D01*
X47236Y41580D01*
X47145Y41537D01*
X47060Y41486D01*
X46980Y41426D01*
X46906Y41359D01*
X46839Y41285D01*
X46779Y41205D01*
X46728Y41120D01*
X46685Y41029D01*
X46652Y40935D01*
X46627Y40838D01*
X46613Y40740D01*
X46608Y40640D01*
X46613Y40540D01*
X46627Y40442D01*
X46652Y40345D01*
X46685Y40251D01*
X46728Y40160D01*
X46779Y40075D01*
X46839Y39995D01*
X46906Y39921D01*
X46980Y39854D01*
X47060Y39794D01*
X47145Y39743D01*
X47236Y39700D01*
X47330Y39667D01*
X47427Y39642D01*
X47525Y39628D01*
X47625Y39623D01*
X48895D01*
X48995Y39628D01*
X49093Y39642D01*
X49190Y39667D01*
X49284Y39700D01*
X49375Y39743D01*
X49460Y39794D01*
X49540Y39854D01*
X49614Y39921D01*
X49681Y39995D01*
X49741Y40075D01*
X49792Y40160D01*
X49822Y40223D01*
X49949Y40195D01*
Y38545D01*
X49822Y38517D01*
X49792Y38580D01*
X49741Y38665D01*
X49681Y38745D01*
X49614Y38819D01*
X49540Y38886D01*
X49460Y38946D01*
X49375Y38997D01*
X49284Y39040D01*
X49190Y39073D01*
X49093Y39098D01*
X48995Y39112D01*
X48895Y39117D01*
X48387D01*
Y38100D01*
Y37083D01*
X48895D01*
X48995Y37088D01*
X49093Y37102D01*
X49190Y37127D01*
X49284Y37160D01*
X49375Y37203D01*
X49460Y37254D01*
X49540Y37314D01*
X49614Y37381D01*
X49681Y37455D01*
X49741Y37535D01*
X49792Y37620D01*
X49822Y37683D01*
X49949Y37655D01*
Y36005D01*
X49822Y35977D01*
X49792Y36040D01*
X49741Y36125D01*
X49681Y36205D01*
X49614Y36279D01*
X49540Y36346D01*
X49460Y36406D01*
X49375Y36457D01*
X49284Y36500D01*
X49190Y36533D01*
X49093Y36558D01*
X48995Y36572D01*
X48895Y36577D01*
X47625D01*
X47525Y36572D01*
X47427Y36558D01*
X47330Y36533D01*
X47236Y36500D01*
X47145Y36457D01*
X47060Y36406D01*
X46980Y36346D01*
X46906Y36279D01*
X46839Y36205D01*
X46779Y36125D01*
X46728Y36040D01*
X46685Y35949D01*
X46652Y35855D01*
X46627Y35758D01*
X46613Y35660D01*
X46608Y35560D01*
X46613Y35460D01*
X46627Y35362D01*
X46652Y35265D01*
X46685Y35171D01*
X46728Y35080D01*
X46779Y34995D01*
X46839Y34915D01*
X46906Y34841D01*
X46980Y34774D01*
X47060Y34714D01*
X47145Y34663D01*
X47236Y34620D01*
X47330Y34587D01*
X47427Y34562D01*
X47525Y34548D01*
X47625Y34543D01*
X48895D01*
X48995Y34548D01*
X49093Y34562D01*
X49190Y34587D01*
X49284Y34620D01*
X49375Y34663D01*
X49460Y34714D01*
X49540Y34774D01*
X49614Y34841D01*
X49681Y34915D01*
X49741Y34995D01*
X49792Y35080D01*
X49822Y35143D01*
X49949Y35115D01*
Y33465D01*
X49822Y33437D01*
X49792Y33500D01*
X49741Y33585D01*
X49681Y33665D01*
X49614Y33739D01*
X49540Y33806D01*
X49460Y33866D01*
X49375Y33917D01*
X49284Y33960D01*
X49190Y33993D01*
X49093Y34018D01*
X48995Y34032D01*
X48895Y34037D01*
X48387D01*
Y33020D01*
Y32003D01*
X48895D01*
X48995Y32008D01*
X49093Y32022D01*
X49190Y32047D01*
X49284Y32080D01*
X49375Y32123D01*
X49460Y32174D01*
X49540Y32234D01*
X49614Y32301D01*
X49681Y32375D01*
X49741Y32455D01*
X49792Y32540D01*
X49822Y32603D01*
X49949Y32575D01*
Y30925D01*
X49822Y30897D01*
X49792Y30960D01*
X49741Y31045D01*
X49681Y31125D01*
X49614Y31199D01*
X49540Y31266D01*
X49460Y31326D01*
X49375Y31377D01*
X49284Y31420D01*
X49190Y31453D01*
X49093Y31478D01*
X48995Y31492D01*
X48895Y31497D01*
X48387D01*
Y30480D01*
Y29463D01*
X48895D01*
X48995Y29468D01*
X49093Y29482D01*
X49190Y29507D01*
X49284Y29540D01*
X49375Y29583D01*
X49460Y29634D01*
X49540Y29694D01*
X49614Y29761D01*
X49681Y29835D01*
X49741Y29915D01*
X49792Y30000D01*
X49822Y30063D01*
X49949Y30035D01*
Y28385D01*
X49822Y28357D01*
X49792Y28420D01*
X49741Y28505D01*
X49681Y28585D01*
X49614Y28659D01*
X49540Y28726D01*
X49460Y28786D01*
X49375Y28837D01*
X49284Y28880D01*
X49190Y28913D01*
X49093Y28938D01*
X48995Y28952D01*
X48895Y28957D01*
X47625D01*
X47525Y28952D01*
X47427Y28938D01*
X47330Y28913D01*
X47236Y28880D01*
X47145Y28837D01*
X47060Y28786D01*
X46980Y28726D01*
X46906Y28659D01*
X46839Y28585D01*
X46779Y28505D01*
X46743Y28445D01*
X44942D01*
Y28445D01*
X44771Y28440D01*
X44601Y28426D01*
X44432Y28402D01*
X44264Y28369D01*
X44099Y28326D01*
X43936Y28274D01*
X43777Y28213D01*
X43621Y28144D01*
X43469Y28065D01*
X43322Y27978D01*
X43180Y27884D01*
X43043Y27781D01*
X42913Y27671D01*
X42789Y27553D01*
X42789Y27553D01*
X41027Y25791D01*
X41027Y25791D01*
X40909Y25667D01*
X40799Y25537D01*
X40696Y25400D01*
X40602Y25258D01*
X40515Y25111D01*
X40436Y24959D01*
X40367Y24803D01*
X40306Y24644D01*
X40254Y24481D01*
X40211Y24316D01*
X40178Y24148D01*
X40154Y23979D01*
X40140Y23809D01*
X40135Y23638D01*
X40135D01*
Y21324D01*
X39636D01*
Y19316D01*
X41644D01*
Y21324D01*
X41145D01*
Y23638D01*
X41144Y23647D01*
X41149Y23771D01*
X41162Y23904D01*
X41183Y24035D01*
X41214Y24165D01*
X41252Y24292D01*
X41299Y24417D01*
X41354Y24538D01*
X41417Y24656D01*
X41487Y24769D01*
X41565Y24877D01*
X41649Y24980D01*
X41734Y25071D01*
X41741Y25077D01*
X43503Y26839D01*
X43509Y26846D01*
X43600Y26931D01*
X43703Y27015D01*
X43811Y27093D01*
X43924Y27163D01*
X44042Y27226D01*
X44163Y27281D01*
X44288Y27328D01*
X44415Y27366D01*
X44545Y27397D01*
X44676Y27418D01*
X44809Y27431D01*
X44933Y27436D01*
X44942Y27435D01*
X46743D01*
X46779Y27375D01*
X46839Y27295D01*
X46906Y27221D01*
X46980Y27154D01*
X47060Y27094D01*
X47145Y27043D01*
X47236Y27000D01*
X47330Y26967D01*
X47427Y26942D01*
X47525Y26928D01*
X47625Y26923D01*
X48895D01*
X48995Y26928D01*
X49093Y26942D01*
X49190Y26967D01*
X49284Y27000D01*
X49375Y27043D01*
X49460Y27094D01*
X49540Y27154D01*
X49614Y27221D01*
X49681Y27295D01*
X49741Y27375D01*
X49792Y27460D01*
X49822Y27523D01*
X49949Y27495D01*
Y25845D01*
X49822Y25817D01*
X49792Y25880D01*
X49741Y25965D01*
X49681Y26045D01*
X49614Y26119D01*
X49540Y26186D01*
X49460Y26246D01*
X49375Y26297D01*
X49284Y26340D01*
X49190Y26373D01*
X49093Y26398D01*
X48995Y26412D01*
X48895Y26417D01*
X47625D01*
X47525Y26412D01*
X47427Y26398D01*
X47330Y26373D01*
X47236Y26340D01*
X47145Y26297D01*
X47060Y26246D01*
X46980Y26186D01*
X46906Y26119D01*
X46839Y26045D01*
X46779Y25965D01*
X46728Y25880D01*
X46685Y25789D01*
X46652Y25695D01*
X46627Y25598D01*
X46613Y25500D01*
X46608Y25400D01*
X46613Y25300D01*
X46627Y25202D01*
X46652Y25105D01*
X46685Y25011D01*
X46728Y24920D01*
X46779Y24835D01*
X46839Y24755D01*
X46906Y24681D01*
X46980Y24614D01*
X47060Y24554D01*
X47145Y24503D01*
X47236Y24460D01*
X47330Y24427D01*
X47427Y24402D01*
X47525Y24388D01*
X47625Y24383D01*
X48895D01*
X48995Y24388D01*
X49093Y24402D01*
X49190Y24427D01*
X49284Y24460D01*
X49375Y24503D01*
X49460Y24554D01*
X49540Y24614D01*
X49614Y24681D01*
X49681Y24755D01*
X49741Y24835D01*
X49792Y24920D01*
X49822Y24983D01*
X49949Y24955D01*
Y23305D01*
X49822Y23277D01*
X49792Y23340D01*
X49741Y23425D01*
X49681Y23505D01*
X49614Y23579D01*
X49540Y23646D01*
X49460Y23706D01*
X49375Y23757D01*
X49284Y23800D01*
X49190Y23833D01*
X49093Y23858D01*
X48995Y23872D01*
X48895Y23877D01*
X47625D01*
X47525Y23872D01*
X47427Y23858D01*
X47330Y23833D01*
X47236Y23800D01*
X47145Y23757D01*
X47060Y23706D01*
X46980Y23646D01*
X46906Y23579D01*
X46839Y23505D01*
X46779Y23425D01*
X46728Y23340D01*
X46685Y23249D01*
X46652Y23155D01*
X46627Y23058D01*
X46613Y22960D01*
X46608Y22860D01*
X46613Y22760D01*
X46627Y22662D01*
X46652Y22565D01*
X46685Y22471D01*
X46728Y22380D01*
X46779Y22295D01*
X46839Y22215D01*
X46906Y22141D01*
X46980Y22074D01*
X47060Y22014D01*
X47145Y21963D01*
X47236Y21920D01*
X47330Y21887D01*
X47427Y21862D01*
X47525Y21848D01*
X47625Y21843D01*
X48895D01*
X48995Y21848D01*
X49093Y21862D01*
X49190Y21887D01*
X49284Y21920D01*
X49375Y21963D01*
X49460Y22014D01*
X49540Y22074D01*
X49614Y22141D01*
X49681Y22215D01*
X49741Y22295D01*
X49792Y22380D01*
X49822Y22443D01*
X49949Y22415D01*
Y20765D01*
X49822Y20737D01*
X49792Y20800D01*
X49741Y20885D01*
X49681Y20965D01*
X49614Y21039D01*
X49540Y21106D01*
X49460Y21166D01*
X49375Y21217D01*
X49284Y21260D01*
X49190Y21293D01*
X49093Y21318D01*
X48995Y21332D01*
X48895Y21337D01*
X47625D01*
X47525Y21332D01*
X47427Y21318D01*
X47330Y21293D01*
X47236Y21260D01*
X47145Y21217D01*
X47060Y21166D01*
X46980Y21106D01*
X46906Y21039D01*
X46839Y20965D01*
X46779Y20885D01*
X46728Y20800D01*
X46685Y20709D01*
X46652Y20615D01*
X46627Y20518D01*
X46613Y20420D01*
X46608Y20320D01*
X46613Y20220D01*
X46627Y20122D01*
X46652Y20025D01*
X46685Y19931D01*
X46728Y19840D01*
X46779Y19755D01*
X46839Y19675D01*
X46906Y19601D01*
X46980Y19534D01*
X47060Y19474D01*
X47145Y19423D01*
X47236Y19380D01*
X47330Y19347D01*
X47427Y19322D01*
X47525Y19308D01*
X47625Y19303D01*
X48895D01*
X48995Y19308D01*
X49093Y19322D01*
X49190Y19347D01*
X49284Y19380D01*
X49375Y19423D01*
X49460Y19474D01*
X49540Y19534D01*
X49614Y19601D01*
X49681Y19675D01*
X49741Y19755D01*
X49792Y19840D01*
X49822Y19903D01*
X49949Y19875D01*
Y18225D01*
X49822Y18197D01*
X49792Y18260D01*
X49741Y18345D01*
X49681Y18425D01*
X49614Y18499D01*
X49540Y18566D01*
X49460Y18626D01*
X49375Y18677D01*
X49284Y18720D01*
X49190Y18753D01*
X49093Y18778D01*
X48995Y18792D01*
X48895Y18797D01*
X47625D01*
X47525Y18792D01*
X47427Y18778D01*
X47330Y18753D01*
X47236Y18720D01*
X47145Y18677D01*
X47060Y18626D01*
X46980Y18566D01*
X46906Y18499D01*
X46839Y18425D01*
X46779Y18345D01*
X46743Y18285D01*
X46639Y18289D01*
X46506Y18302D01*
X46375Y18323D01*
X46245Y18354D01*
X46118Y18392D01*
X45993Y18439D01*
X45872Y18494D01*
X45754Y18557D01*
X45641Y18627D01*
X45533Y18705D01*
X45430Y18789D01*
X45339Y18874D01*
X45333Y18881D01*
X44184Y20030D01*
Y21324D01*
X42176D01*
Y19316D01*
X43470D01*
X44619Y18167D01*
X44619Y18167D01*
X44743Y18049D01*
X44873Y17939D01*
X45010Y17836D01*
X45152Y17742D01*
X45299Y17655D01*
X45451Y17576D01*
X45607Y17507D01*
X45766Y17446D01*
X45929Y17394D01*
X46094Y17351D01*
X46262Y17318D01*
X46431Y17294D01*
X46601Y17280D01*
X46743Y17276D01*
X46779Y17215D01*
X46839Y17135D01*
X46906Y17061D01*
X46980Y16994D01*
X47060Y16934D01*
X47145Y16883D01*
X47236Y16840D01*
X47330Y16807D01*
X47427Y16782D01*
X47525Y16768D01*
X47625Y16763D01*
X48895D01*
X48995Y16768D01*
X49093Y16782D01*
X49190Y16807D01*
X49284Y16840D01*
X49375Y16883D01*
X49460Y16934D01*
X49540Y16994D01*
X49614Y17061D01*
X49681Y17135D01*
X49741Y17215D01*
X49792Y17300D01*
X49822Y17363D01*
X49949Y17335D01*
Y15685D01*
X49822Y15657D01*
X49792Y15720D01*
X49741Y15805D01*
X49681Y15885D01*
X49614Y15959D01*
X49540Y16026D01*
X49460Y16086D01*
X49375Y16137D01*
X49284Y16180D01*
X49190Y16213D01*
X49093Y16238D01*
X48995Y16252D01*
X48895Y16257D01*
X48387D01*
Y15240D01*
Y14223D01*
X48895D01*
X48995Y14228D01*
X49093Y14242D01*
X49190Y14267D01*
X49284Y14300D01*
X49375Y14343D01*
X49460Y14394D01*
X49540Y14454D01*
X49614Y14521D01*
X49681Y14595D01*
X49741Y14675D01*
X49792Y14760D01*
X49822Y14823D01*
X49949Y14795D01*
Y13145D01*
X49822Y13117D01*
X49792Y13180D01*
X49741Y13265D01*
X49681Y13345D01*
X49614Y13419D01*
X49540Y13486D01*
X49460Y13546D01*
X49375Y13597D01*
X49284Y13640D01*
X49190Y13673D01*
X49093Y13698D01*
X48995Y13712D01*
X48895Y13717D01*
X48387D01*
Y12700D01*
Y11683D01*
X48895D01*
X48995Y11688D01*
X49093Y11702D01*
X49190Y11727D01*
X49284Y11760D01*
X49375Y11803D01*
X49460Y11854D01*
X49540Y11914D01*
X49614Y11981D01*
X49681Y12055D01*
X49741Y12135D01*
X49792Y12220D01*
X49822Y12283D01*
X49949Y12255D01*
Y10605D01*
X49822Y10577D01*
X49792Y10640D01*
X49741Y10725D01*
X49681Y10805D01*
X49614Y10879D01*
X49540Y10946D01*
X49460Y11006D01*
X49375Y11057D01*
X49284Y11100D01*
X49190Y11133D01*
X49093Y11158D01*
X48995Y11172D01*
X48895Y11177D01*
X47625D01*
X47525Y11172D01*
X47427Y11158D01*
X47330Y11133D01*
X47236Y11100D01*
X47145Y11057D01*
X47060Y11006D01*
X46980Y10946D01*
X46906Y10879D01*
X46839Y10805D01*
X46779Y10725D01*
X46728Y10640D01*
X46685Y10549D01*
X46652Y10455D01*
X46627Y10358D01*
X46613Y10260D01*
X46608Y10160D01*
X46613Y10060D01*
X46627Y9962D01*
X46652Y9865D01*
X46685Y9771D01*
X46728Y9680D01*
X46779Y9595D01*
X46839Y9515D01*
X46906Y9441D01*
X46980Y9374D01*
X47060Y9314D01*
X47145Y9263D01*
X47236Y9220D01*
X47330Y9187D01*
X47427Y9162D01*
X47525Y9148D01*
X47625Y9143D01*
X48895D01*
X48995Y9148D01*
X49093Y9162D01*
X49190Y9187D01*
X49284Y9220D01*
X49375Y9263D01*
X49460Y9314D01*
X49540Y9374D01*
X49614Y9441D01*
X49681Y9515D01*
X49741Y9595D01*
X49792Y9680D01*
X49822Y9743D01*
X49949Y9715D01*
Y8065D01*
X49822Y8037D01*
X49792Y8100D01*
X49741Y8185D01*
X49681Y8265D01*
X49614Y8339D01*
X49540Y8406D01*
X49460Y8466D01*
X49375Y8517D01*
X49284Y8560D01*
X49190Y8593D01*
X49093Y8618D01*
X48995Y8632D01*
X48895Y8637D01*
X47625D01*
X47525Y8632D01*
X47427Y8618D01*
X47330Y8593D01*
X47236Y8560D01*
X47145Y8517D01*
X47060Y8466D01*
X46980Y8406D01*
X46906Y8339D01*
X46839Y8265D01*
X46779Y8185D01*
X46728Y8100D01*
X46685Y8009D01*
X46652Y7915D01*
X46627Y7818D01*
X46613Y7720D01*
X46608Y7620D01*
X46613Y7520D01*
X46627Y7422D01*
X46652Y7325D01*
X46685Y7231D01*
X46728Y7140D01*
X46779Y7055D01*
X46839Y6975D01*
X46906Y6901D01*
X46980Y6834D01*
X47060Y6774D01*
X47145Y6723D01*
X47236Y6680D01*
X47330Y6647D01*
X47427Y6622D01*
X47525Y6608D01*
X47625Y6603D01*
X48895D01*
X48995Y6608D01*
X49093Y6622D01*
X49190Y6647D01*
X49284Y6680D01*
X49375Y6723D01*
X49460Y6774D01*
X49540Y6834D01*
X49614Y6901D01*
X49681Y6975D01*
X49741Y7055D01*
X49792Y7140D01*
X49822Y7203D01*
X49949Y7175D01*
Y5525D01*
X49822Y5497D01*
X49792Y5560D01*
X49741Y5645D01*
X49681Y5725D01*
X49614Y5799D01*
X49540Y5866D01*
X49460Y5926D01*
X49375Y5977D01*
X49284Y6020D01*
X49190Y6053D01*
X49093Y6078D01*
X48995Y6092D01*
X48895Y6097D01*
X47625D01*
X47525Y6092D01*
X47427Y6078D01*
X47330Y6053D01*
X47236Y6020D01*
X47145Y5977D01*
X47060Y5926D01*
X46980Y5866D01*
X46906Y5799D01*
X46839Y5725D01*
X46779Y5645D01*
X46728Y5560D01*
X46685Y5469D01*
X46652Y5375D01*
X46627Y5278D01*
X46613Y5180D01*
X46608Y5080D01*
X46613Y4980D01*
X46627Y4882D01*
X46652Y4785D01*
X46685Y4691D01*
X46728Y4600D01*
X46779Y4515D01*
X46839Y4435D01*
X46906Y4361D01*
X46980Y4294D01*
X47060Y4234D01*
X47145Y4183D01*
X47236Y4140D01*
X47330Y4107D01*
X47427Y4082D01*
X47525Y4068D01*
X47625Y4063D01*
X48895D01*
X48995Y4068D01*
X49093Y4082D01*
X49190Y4107D01*
X49284Y4140D01*
X49375Y4183D01*
X49460Y4234D01*
X49540Y4294D01*
X49614Y4361D01*
X49681Y4435D01*
X49741Y4515D01*
X49792Y4600D01*
X49822Y4663D01*
X49949Y4635D01*
Y-1749D01*
X48518D01*
X48502Y-1622D01*
X48555Y-1608D01*
X48649Y-1575D01*
X48740Y-1532D01*
X48825Y-1481D01*
X48905Y-1421D01*
X48979Y-1354D01*
X49046Y-1280D01*
X49106Y-1200D01*
X49157Y-1115D01*
X49200Y-1024D01*
X49233Y-930D01*
X49258Y-833D01*
X49272Y-735D01*
X49277Y-635D01*
Y635D01*
X49272Y735D01*
X49258Y833D01*
X49233Y930D01*
X49200Y1024D01*
X49157Y1115D01*
X49106Y1200D01*
X49046Y1280D01*
X48979Y1354D01*
X48905Y1421D01*
X48825Y1481D01*
X48740Y1532D01*
X48649Y1575D01*
X48555Y1608D01*
X48458Y1633D01*
X48360Y1647D01*
X48260Y1652D01*
X48160Y1647D01*
X48062Y1633D01*
X47965Y1608D01*
X47871Y1575D01*
X47780Y1532D01*
X47695Y1481D01*
X47615Y1421D01*
X47541Y1354D01*
X47474Y1280D01*
X47414Y1200D01*
X47363Y1115D01*
X47320Y1024D01*
X47287Y930D01*
X47262Y833D01*
X47248Y735D01*
X47243Y635D01*
Y-635D01*
X47248Y-735D01*
X47262Y-833D01*
X47287Y-930D01*
X47320Y-1024D01*
X47363Y-1115D01*
X47414Y-1200D01*
X47474Y-1280D01*
X47541Y-1354D01*
X47615Y-1421D01*
X47695Y-1481D01*
X47780Y-1532D01*
X47871Y-1575D01*
X47965Y-1608D01*
X48018Y-1622D01*
X48002Y-1749D01*
X45978D01*
X45962Y-1622D01*
X46015Y-1608D01*
X46109Y-1575D01*
X46200Y-1532D01*
X46285Y-1481D01*
X46365Y-1421D01*
X46439Y-1354D01*
X46506Y-1280D01*
X46566Y-1200D01*
X46617Y-1115D01*
X46660Y-1024D01*
X46693Y-930D01*
X46718Y-833D01*
X46732Y-735D01*
X46737Y-635D01*
Y635D01*
X46732Y735D01*
X46718Y833D01*
X46693Y930D01*
X46660Y1024D01*
X46617Y1115D01*
X46566Y1200D01*
X46506Y1280D01*
X46439Y1354D01*
X46365Y1421D01*
X46285Y1481D01*
X46200Y1532D01*
X46109Y1575D01*
X46015Y1608D01*
X45918Y1633D01*
X45820Y1647D01*
X45720Y1652D01*
X45620Y1647D01*
X45522Y1633D01*
X45425Y1608D01*
X45331Y1575D01*
X45240Y1532D01*
X45155Y1481D01*
X45075Y1421D01*
X45001Y1354D01*
X44934Y1280D01*
X44874Y1200D01*
X44823Y1115D01*
X44780Y1024D01*
X44747Y930D01*
X44722Y833D01*
X44708Y735D01*
X44703Y635D01*
Y-635D01*
X44708Y-735D01*
X44722Y-833D01*
X44747Y-930D01*
X44780Y-1024D01*
X44823Y-1115D01*
X44874Y-1200D01*
X44934Y-1280D01*
X45001Y-1354D01*
X45075Y-1421D01*
X45155Y-1481D01*
X45240Y-1532D01*
X45331Y-1575D01*
X45425Y-1608D01*
X45478Y-1622D01*
X45462Y-1749D01*
X43438D01*
X43422Y-1622D01*
X43475Y-1608D01*
X43569Y-1575D01*
X43660Y-1532D01*
X43745Y-1481D01*
X43825Y-1421D01*
X43899Y-1354D01*
X43966Y-1280D01*
X44026Y-1200D01*
X44077Y-1115D01*
X44120Y-1024D01*
X44153Y-930D01*
X44178Y-833D01*
X44192Y-735D01*
X44197Y-635D01*
Y635D01*
X44192Y735D01*
X44178Y833D01*
X44153Y930D01*
X44120Y1024D01*
X44077Y1115D01*
X44026Y1200D01*
X43966Y1280D01*
X43899Y1354D01*
X43825Y1421D01*
X43745Y1481D01*
X43660Y1532D01*
X43569Y1575D01*
X43475Y1608D01*
X43378Y1633D01*
X43280Y1647D01*
X43180Y1652D01*
X43080Y1647D01*
X42982Y1633D01*
X42885Y1608D01*
X42791Y1575D01*
X42700Y1532D01*
X42615Y1481D01*
X42535Y1421D01*
X42461Y1354D01*
X42394Y1280D01*
X42334Y1200D01*
X42283Y1115D01*
X42240Y1024D01*
X42207Y930D01*
X42182Y833D01*
X42168Y735D01*
X42163Y635D01*
Y-635D01*
X42168Y-735D01*
X42182Y-833D01*
X42207Y-930D01*
X42240Y-1024D01*
X42283Y-1115D01*
X42334Y-1200D01*
X42394Y-1280D01*
X42461Y-1354D01*
X42535Y-1421D01*
X42615Y-1481D01*
X42700Y-1532D01*
X42791Y-1575D01*
X42885Y-1608D01*
X42938Y-1622D01*
X42922Y-1749D01*
X40898D01*
X40882Y-1622D01*
X40935Y-1608D01*
X41029Y-1575D01*
X41120Y-1532D01*
X41205Y-1481D01*
X41285Y-1421D01*
X41359Y-1354D01*
X41426Y-1280D01*
X41486Y-1200D01*
X41537Y-1115D01*
X41580Y-1024D01*
X41613Y-930D01*
X41638Y-833D01*
X41652Y-735D01*
X41657Y-635D01*
Y635D01*
X41652Y735D01*
X41638Y833D01*
X41613Y930D01*
X41580Y1024D01*
X41537Y1115D01*
X41486Y1200D01*
X41426Y1280D01*
X41359Y1354D01*
X41285Y1421D01*
X41205Y1481D01*
X41120Y1532D01*
X41029Y1575D01*
X40935Y1608D01*
X40838Y1633D01*
X40740Y1647D01*
X40640Y1652D01*
X40540Y1647D01*
X40442Y1633D01*
X40345Y1608D01*
X40251Y1575D01*
X40160Y1532D01*
X40075Y1481D01*
X39995Y1421D01*
X39921Y1354D01*
X39854Y1280D01*
X39794Y1200D01*
X39743Y1115D01*
X39700Y1024D01*
X39667Y930D01*
X39642Y833D01*
X39628Y735D01*
X39623Y635D01*
Y-635D01*
X39628Y-735D01*
X39642Y-833D01*
X39667Y-930D01*
X39700Y-1024D01*
X39743Y-1115D01*
X39794Y-1200D01*
X39854Y-1280D01*
X39921Y-1354D01*
X39995Y-1421D01*
X40075Y-1481D01*
X40160Y-1532D01*
X40251Y-1575D01*
X40345Y-1608D01*
X40398Y-1622D01*
X40382Y-1749D01*
X38358D01*
X38342Y-1622D01*
X38395Y-1608D01*
X38489Y-1575D01*
X38580Y-1532D01*
X38665Y-1481D01*
X38745Y-1421D01*
X38819Y-1354D01*
X38886Y-1280D01*
X38946Y-1200D01*
X38997Y-1115D01*
X39040Y-1024D01*
X39073Y-930D01*
X39098Y-833D01*
X39112Y-735D01*
X39117Y-635D01*
Y635D01*
X39112Y735D01*
X39098Y833D01*
X39073Y930D01*
X39040Y1024D01*
X38997Y1115D01*
X38946Y1200D01*
X38886Y1280D01*
X38819Y1354D01*
X38745Y1421D01*
X38665Y1481D01*
X38580Y1532D01*
X38489Y1575D01*
X38395Y1608D01*
X38298Y1633D01*
X38200Y1647D01*
X38100Y1652D01*
X38000Y1647D01*
X37902Y1633D01*
X37805Y1608D01*
X37711Y1575D01*
X37620Y1532D01*
X37535Y1481D01*
X37455Y1421D01*
X37381Y1354D01*
X37314Y1280D01*
X37254Y1200D01*
X37203Y1115D01*
X37160Y1024D01*
X37127Y930D01*
X37102Y833D01*
X37088Y735D01*
X37083Y635D01*
Y-635D01*
X37088Y-735D01*
X37102Y-833D01*
X37127Y-930D01*
X37160Y-1024D01*
X37203Y-1115D01*
X37254Y-1200D01*
X37314Y-1280D01*
X37381Y-1354D01*
X37455Y-1421D01*
X37535Y-1481D01*
X37620Y-1532D01*
X37711Y-1575D01*
X37805Y-1608D01*
X37858Y-1622D01*
X37842Y-1749D01*
X35818D01*
X35802Y-1622D01*
X35855Y-1608D01*
X35949Y-1575D01*
X36040Y-1532D01*
X36125Y-1481D01*
X36205Y-1421D01*
X36279Y-1354D01*
X36346Y-1280D01*
X36406Y-1200D01*
X36457Y-1115D01*
X36500Y-1024D01*
X36533Y-930D01*
X36558Y-833D01*
X36572Y-735D01*
X36577Y-635D01*
Y635D01*
X36572Y735D01*
X36558Y833D01*
X36533Y930D01*
X36500Y1024D01*
X36457Y1115D01*
X36406Y1200D01*
X36346Y1280D01*
X36279Y1354D01*
X36205Y1421D01*
X36125Y1481D01*
X36040Y1532D01*
X35949Y1575D01*
X35855Y1608D01*
X35758Y1633D01*
X35660Y1647D01*
X35560Y1652D01*
X35460Y1647D01*
X35362Y1633D01*
X35265Y1608D01*
X35171Y1575D01*
X35080Y1532D01*
X34995Y1481D01*
X34915Y1421D01*
X34841Y1354D01*
X34774Y1280D01*
X34714Y1200D01*
X34663Y1115D01*
X34620Y1024D01*
X34587Y930D01*
X34562Y833D01*
X34548Y735D01*
X34543Y635D01*
Y-635D01*
X34548Y-735D01*
X34562Y-833D01*
X34587Y-930D01*
X34620Y-1024D01*
X34663Y-1115D01*
X34714Y-1200D01*
X34774Y-1280D01*
X34841Y-1354D01*
X34915Y-1421D01*
X34995Y-1481D01*
X35080Y-1532D01*
X35171Y-1575D01*
X35265Y-1608D01*
X35318Y-1622D01*
X35302Y-1749D01*
X33278D01*
X33262Y-1622D01*
X33315Y-1608D01*
X33409Y-1575D01*
X33500Y-1532D01*
X33585Y-1481D01*
X33665Y-1421D01*
X33739Y-1354D01*
X33806Y-1280D01*
X33866Y-1200D01*
X33917Y-1115D01*
X33960Y-1024D01*
X33993Y-930D01*
X34018Y-833D01*
X34032Y-735D01*
X34037Y-635D01*
Y635D01*
X34032Y735D01*
X34018Y833D01*
X33993Y930D01*
X33960Y1024D01*
X33917Y1115D01*
X33866Y1200D01*
X33806Y1280D01*
X33739Y1354D01*
X33665Y1421D01*
X33585Y1481D01*
X33500Y1532D01*
X33409Y1575D01*
X33315Y1608D01*
X33218Y1633D01*
X33120Y1647D01*
X33020Y1652D01*
X32920Y1647D01*
X32822Y1633D01*
X32725Y1608D01*
X32631Y1575D01*
X32540Y1532D01*
X32455Y1481D01*
X32375Y1421D01*
X32301Y1354D01*
X32234Y1280D01*
X32174Y1200D01*
X32123Y1115D01*
X32080Y1024D01*
X32047Y930D01*
X32022Y833D01*
X32008Y735D01*
X32003Y635D01*
Y-635D01*
X32008Y-735D01*
X32022Y-833D01*
X32047Y-930D01*
X32080Y-1024D01*
X32123Y-1115D01*
X32174Y-1200D01*
X32234Y-1280D01*
X32301Y-1354D01*
X32375Y-1421D01*
X32455Y-1481D01*
X32540Y-1532D01*
X32631Y-1575D01*
X32725Y-1608D01*
X32778Y-1622D01*
X32762Y-1749D01*
X30738D01*
X30722Y-1622D01*
X30775Y-1608D01*
X30869Y-1575D01*
X30960Y-1532D01*
X31045Y-1481D01*
X31125Y-1421D01*
X31199Y-1354D01*
X31266Y-1280D01*
X31326Y-1200D01*
X31377Y-1115D01*
X31420Y-1024D01*
X31453Y-930D01*
X31478Y-833D01*
X31492Y-735D01*
X31497Y-635D01*
Y635D01*
X31492Y735D01*
X31478Y833D01*
X31453Y930D01*
X31420Y1024D01*
X31377Y1115D01*
X31326Y1200D01*
X31266Y1280D01*
X31199Y1354D01*
X31125Y1421D01*
X31045Y1481D01*
X30960Y1532D01*
X30869Y1575D01*
X30775Y1608D01*
X30678Y1633D01*
X30580Y1647D01*
X30480Y1652D01*
X30380Y1647D01*
X30282Y1633D01*
X30185Y1608D01*
X30091Y1575D01*
X30000Y1532D01*
X29915Y1481D01*
X29835Y1421D01*
X29761Y1354D01*
X29694Y1280D01*
X29634Y1200D01*
X29583Y1115D01*
X29540Y1024D01*
X29507Y930D01*
X29482Y833D01*
X29468Y735D01*
X29463Y635D01*
Y-635D01*
X29468Y-735D01*
X29482Y-833D01*
X29507Y-930D01*
X29540Y-1024D01*
X29583Y-1115D01*
X29634Y-1200D01*
X29694Y-1280D01*
X29761Y-1354D01*
X29835Y-1421D01*
X29915Y-1481D01*
X30000Y-1532D01*
X30091Y-1575D01*
X30185Y-1608D01*
X30238Y-1622D01*
X30222Y-1749D01*
X28198D01*
X28182Y-1622D01*
X28235Y-1608D01*
X28329Y-1575D01*
X28420Y-1532D01*
X28505Y-1481D01*
X28585Y-1421D01*
X28659Y-1354D01*
X28726Y-1280D01*
X28786Y-1200D01*
X28837Y-1115D01*
X28880Y-1024D01*
X28913Y-930D01*
X28938Y-833D01*
X28952Y-735D01*
X28957Y-635D01*
Y635D01*
X28952Y735D01*
X28938Y833D01*
X28913Y930D01*
X28880Y1024D01*
X28837Y1115D01*
X28786Y1200D01*
X28726Y1280D01*
X28659Y1354D01*
X28585Y1421D01*
X28505Y1481D01*
X28420Y1532D01*
X28329Y1575D01*
X28235Y1608D01*
X28138Y1633D01*
X28040Y1647D01*
X27940Y1652D01*
X27840Y1647D01*
X27742Y1633D01*
X27645Y1608D01*
X27551Y1575D01*
X27460Y1532D01*
X27375Y1481D01*
X27295Y1421D01*
X27221Y1354D01*
X27154Y1280D01*
X27094Y1200D01*
X27043Y1115D01*
X27000Y1024D01*
X26967Y930D01*
X26942Y833D01*
X26928Y735D01*
X26923Y635D01*
Y-635D01*
X26928Y-735D01*
X26942Y-833D01*
X26967Y-930D01*
X27000Y-1024D01*
X27043Y-1115D01*
X27094Y-1200D01*
X27154Y-1280D01*
X27221Y-1354D01*
X27295Y-1421D01*
X27375Y-1481D01*
X27460Y-1532D01*
X27551Y-1575D01*
X27645Y-1608D01*
X27698Y-1622D01*
X27682Y-1749D01*
X25658D01*
X25642Y-1622D01*
X25695Y-1608D01*
X25789Y-1575D01*
X25880Y-1532D01*
X25965Y-1481D01*
X26045Y-1421D01*
X26119Y-1354D01*
X26186Y-1280D01*
X26246Y-1200D01*
X26297Y-1115D01*
X26340Y-1024D01*
X26373Y-930D01*
X26398Y-833D01*
X26412Y-735D01*
X26417Y-635D01*
Y635D01*
X26412Y735D01*
X26398Y833D01*
X26373Y930D01*
X26340Y1024D01*
X26297Y1115D01*
X26246Y1200D01*
X26186Y1280D01*
X26119Y1354D01*
X26045Y1421D01*
X25965Y1481D01*
X25880Y1532D01*
X25789Y1575D01*
X25695Y1608D01*
X25598Y1633D01*
X25500Y1647D01*
X25400Y1652D01*
X25300Y1647D01*
X25202Y1633D01*
X25105Y1608D01*
X25011Y1575D01*
X24920Y1532D01*
X24835Y1481D01*
X24755Y1421D01*
X24681Y1354D01*
X24614Y1280D01*
X24554Y1200D01*
X24503Y1115D01*
X24460Y1024D01*
X24427Y930D01*
X24402Y833D01*
X24388Y735D01*
X24383Y635D01*
Y-635D01*
X24388Y-735D01*
X24402Y-833D01*
X24427Y-930D01*
X24460Y-1024D01*
X24503Y-1115D01*
X24554Y-1200D01*
X24614Y-1280D01*
X24681Y-1354D01*
X24755Y-1421D01*
X24835Y-1481D01*
X24920Y-1532D01*
X25011Y-1575D01*
X25105Y-1608D01*
X25158Y-1622D01*
X25142Y-1749D01*
X23118D01*
X23102Y-1622D01*
X23155Y-1608D01*
X23249Y-1575D01*
X23340Y-1532D01*
X23425Y-1481D01*
X23505Y-1421D01*
X23579Y-1354D01*
X23646Y-1280D01*
X23706Y-1200D01*
X23757Y-1115D01*
X23800Y-1024D01*
X23833Y-930D01*
X23858Y-833D01*
X23872Y-735D01*
X23877Y-635D01*
Y-127D01*
X22860D01*
X21843D01*
Y-635D01*
X21848Y-735D01*
X21862Y-833D01*
X21887Y-930D01*
X21920Y-1024D01*
X21963Y-1115D01*
X22014Y-1200D01*
X22074Y-1280D01*
X22141Y-1354D01*
X22215Y-1421D01*
X22295Y-1481D01*
X22380Y-1532D01*
X22471Y-1575D01*
X22565Y-1608D01*
X22618Y-1622D01*
X22602Y-1749D01*
X20578D01*
X20562Y-1622D01*
X20615Y-1608D01*
X20709Y-1575D01*
X20800Y-1532D01*
X20885Y-1481D01*
X20965Y-1421D01*
X21039Y-1354D01*
X21106Y-1280D01*
X21166Y-1200D01*
X21217Y-1115D01*
X21260Y-1024D01*
X21293Y-930D01*
X21318Y-833D01*
X21332Y-735D01*
X21337Y-635D01*
Y-127D01*
X20320D01*
Y0D01*
D01*
Y-127D01*
X19303D01*
Y-635D01*
X19308Y-735D01*
X19322Y-833D01*
X19347Y-930D01*
X19380Y-1024D01*
X19423Y-1115D01*
X19474Y-1200D01*
X19534Y-1280D01*
X19601Y-1354D01*
X19675Y-1421D01*
X19755Y-1481D01*
X19840Y-1532D01*
X19931Y-1575D01*
X20025Y-1608D01*
X20078Y-1622D01*
X20062Y-1749D01*
X18038D01*
X18022Y-1622D01*
X18075Y-1608D01*
X18169Y-1575D01*
X18260Y-1532D01*
X18345Y-1481D01*
X18425Y-1421D01*
X18499Y-1354D01*
X18566Y-1280D01*
X18626Y-1200D01*
X18677Y-1115D01*
X18720Y-1024D01*
X18753Y-930D01*
X18778Y-833D01*
X18792Y-735D01*
X18797Y-635D01*
Y635D01*
X18792Y735D01*
X18778Y833D01*
X18753Y930D01*
X18720Y1024D01*
X18677Y1115D01*
X18626Y1200D01*
X18566Y1280D01*
X18499Y1354D01*
X18425Y1421D01*
X18345Y1481D01*
X18260Y1532D01*
X18169Y1575D01*
X18075Y1608D01*
X17978Y1633D01*
X17880Y1647D01*
X17780Y1652D01*
X17680Y1647D01*
X17582Y1633D01*
X17485Y1608D01*
X17391Y1575D01*
X17300Y1532D01*
X17215Y1481D01*
X17135Y1421D01*
X17061Y1354D01*
X16994Y1280D01*
X16934Y1200D01*
X16883Y1115D01*
X16840Y1024D01*
X16807Y930D01*
X16782Y833D01*
X16768Y735D01*
X16763Y635D01*
Y-635D01*
X16768Y-735D01*
X16782Y-833D01*
X16807Y-930D01*
X16840Y-1024D01*
X16883Y-1115D01*
X16934Y-1200D01*
X16994Y-1280D01*
X17061Y-1354D01*
X17135Y-1421D01*
X17215Y-1481D01*
X17300Y-1532D01*
X17391Y-1575D01*
X17485Y-1608D01*
X17538Y-1622D01*
X17522Y-1749D01*
X15498D01*
X15482Y-1622D01*
X15535Y-1608D01*
X15629Y-1575D01*
X15720Y-1532D01*
X15805Y-1481D01*
X15885Y-1421D01*
X15959Y-1354D01*
X16026Y-1280D01*
X16086Y-1200D01*
X16137Y-1115D01*
X16180Y-1024D01*
X16213Y-930D01*
X16238Y-833D01*
X16252Y-735D01*
X16257Y-635D01*
Y635D01*
X16252Y735D01*
X16238Y833D01*
X16213Y930D01*
X16180Y1024D01*
X16137Y1115D01*
X16111Y1159D01*
X16457Y1505D01*
X16463Y1512D01*
X16561Y1603D01*
X16671Y1694D01*
X16788Y1778D01*
X16909Y1853D01*
X17035Y1920D01*
X17166Y1980D01*
X17299Y2030D01*
X17436Y2071D01*
X17576Y2104D01*
X17717Y2127D01*
X17859Y2141D01*
X17993Y2146D01*
X18002Y2145D01*
X23298D01*
Y2145D01*
X23460Y2149D01*
X23622Y2163D01*
X23783Y2186D01*
X23942Y2217D01*
X24099Y2258D01*
X24254Y2307D01*
X24406Y2365D01*
X24554Y2432D01*
X24698Y2506D01*
X24838Y2589D01*
X24973Y2679D01*
X25103Y2776D01*
X25227Y2881D01*
X25345Y2993D01*
X25345Y2993D01*
X30507Y8155D01*
X30507Y8155D01*
X30619Y8273D01*
X30724Y8397D01*
X30821Y8527D01*
X30911Y8662D01*
X30994Y8802D01*
X31068Y8946D01*
X31135Y9094D01*
X31193Y9246D01*
X31242Y9401D01*
X31283Y9558D01*
X31314Y9717D01*
X31337Y9878D01*
X31351Y10040D01*
X31355Y10202D01*
X31355D01*
Y17248D01*
X31354Y17257D01*
X31359Y17391D01*
X31373Y17533D01*
X31396Y17674D01*
X31429Y17814D01*
X31470Y17951D01*
X31520Y18084D01*
X31580Y18215D01*
X31647Y18341D01*
X31722Y18462D01*
X31806Y18579D01*
X31897Y18689D01*
X31988Y18787D01*
X31995Y18793D01*
X32518Y19316D01*
X34024D01*
Y21324D01*
X32730D01*
X30871Y23183D01*
X30864Y23190D01*
X30776Y23283D01*
X30690Y23391D01*
X30611Y23504D01*
X30541Y23623D01*
X30479Y23746D01*
X30426Y23874D01*
X30382Y24005D01*
X30348Y24139D01*
X30324Y24275D01*
X30309Y24412D01*
X30304Y24540D01*
X30305Y24550D01*
Y27072D01*
X30313Y27088D01*
X30336Y27156D01*
X30350Y27228D01*
X30355Y27300D01*
X30350Y27372D01*
X30336Y27444D01*
X30313Y27512D01*
X30281Y27578D01*
X30240Y27638D01*
X30193Y27693D01*
X30138Y27740D01*
X30078Y27781D01*
X30012Y27813D01*
X29944Y27836D01*
X29872Y27850D01*
X29800Y27855D01*
X29728Y27850D01*
X29656Y27836D01*
X29588Y27813D01*
X29522Y27781D01*
X29462Y27740D01*
X29407Y27693D01*
X29360Y27638D01*
X29319Y27578D01*
X29287Y27512D01*
X29264Y27444D01*
X29250Y27372D01*
X29245Y27300D01*
X29250Y27228D01*
X29264Y27156D01*
X29287Y27088D01*
X29295Y27072D01*
Y24550D01*
X29295D01*
X29299Y24385D01*
X29313Y24220D01*
X29336Y24057D01*
X29369Y23895D01*
X29410Y23735D01*
X29460Y23578D01*
X29519Y23424D01*
X29586Y23273D01*
X29662Y23126D01*
X29746Y22984D01*
X29838Y22847D01*
X29937Y22715D01*
X30044Y22589D01*
X30157Y22469D01*
X30157Y22469D01*
X32016Y20610D01*
Y19818D01*
X31493Y19295D01*
X31493Y19295D01*
X31381Y19177D01*
X31276Y19053D01*
X31179Y18923D01*
X31089Y18788D01*
X31006Y18648D01*
X30932Y18504D01*
X30865Y18356D01*
X30807Y18204D01*
X30758Y18049D01*
X30717Y17892D01*
X30686Y17733D01*
X30663Y17572D01*
X30649Y17410D01*
X30645Y17248D01*
X30645D01*
Y10202D01*
X30646Y10193D01*
X30641Y10059D01*
X30627Y9917D01*
X30604Y9776D01*
X30571Y9636D01*
X30530Y9499D01*
X30480Y9366D01*
X30420Y9235D01*
X30353Y9109D01*
X30278Y8988D01*
X30194Y8871D01*
X30103Y8761D01*
X30012Y8663D01*
X30005Y8657D01*
X24843Y3495D01*
X24837Y3488D01*
X24739Y3397D01*
X24629Y3306D01*
X24512Y3222D01*
X24391Y3147D01*
X24265Y3080D01*
X24134Y3020D01*
X24001Y2970D01*
X23864Y2929D01*
X23724Y2896D01*
X23583Y2873D01*
X23441Y2859D01*
X23307Y2854D01*
X23298Y2855D01*
X18002D01*
Y2855D01*
X17840Y2851D01*
X17678Y2837D01*
X17517Y2814D01*
X17358Y2783D01*
X17201Y2742D01*
X17046Y2693D01*
X16894Y2635D01*
X16746Y2568D01*
X16602Y2494D01*
X16462Y2411D01*
X16327Y2321D01*
X16197Y2224D01*
X16073Y2119D01*
X15955Y2007D01*
X15955Y2007D01*
X15551Y1603D01*
X15535Y1608D01*
X15438Y1633D01*
X15340Y1647D01*
X15240Y1652D01*
X15140Y1647D01*
X15042Y1633D01*
X14945Y1608D01*
X14851Y1575D01*
X14760Y1532D01*
X14675Y1481D01*
X14595Y1421D01*
X14521Y1354D01*
X14454Y1280D01*
X14420Y1234D01*
X14301Y1258D01*
X14287Y1267D01*
X14268Y1366D01*
X14239Y1469D01*
X14202Y1569D01*
X14157Y1665D01*
X14105Y1758D01*
X14046Y1846D01*
X13980Y1930D01*
X13908Y2008D01*
X13830Y2080D01*
X13746Y2146D01*
X13658Y2205D01*
X13565Y2257D01*
X13469Y2302D01*
X13369Y2339D01*
X13266Y2368D01*
X13162Y2388D01*
X13056Y2401D01*
X12951Y2405D01*
X12950Y2405D01*
X12942Y2404D01*
X12844Y2409D01*
X12739Y2423D01*
X12635Y2446D01*
X12534Y2477D01*
X12436Y2518D01*
X12342Y2567D01*
X12253Y2624D01*
X12169Y2688D01*
X12097Y2755D01*
X12091Y2761D01*
X10045Y4807D01*
X10038Y4813D01*
X9947Y4911D01*
X9856Y5021D01*
X9772Y5138D01*
X9697Y5259D01*
X9630Y5385D01*
X9570Y5516D01*
X9520Y5649D01*
X9479Y5786D01*
X9446Y5926D01*
X9423Y6067D01*
X9409Y6209D01*
X9404Y6343D01*
X9405Y6352D01*
Y44269D01*
X9404Y44278D01*
X9409Y44412D01*
X9423Y44555D01*
X9446Y44696D01*
X9479Y44835D01*
X9520Y44972D01*
X9570Y45106D01*
X9630Y45236D01*
X9697Y45362D01*
X9772Y45484D01*
X9856Y45600D01*
X9947Y45711D01*
X10038Y45809D01*
X10045Y45814D01*
X13821Y49591D01*
X13821Y49591D01*
X13969Y49745D01*
X14110Y49906D01*
X14244Y50072D01*
X14370Y50244D01*
X14489Y50422D01*
X14599Y50605D01*
X14702Y50792D01*
X14797Y50983D01*
X14883Y51179D01*
X14960Y51378D01*
X15029Y51580D01*
X15088Y51785D01*
X15139Y51993D01*
X15181Y52202D01*
X15213Y52413D01*
X15237Y52625D01*
X15251Y52839D01*
X15255Y53052D01*
X15255D01*
Y58775D01*
X15293Y58807D01*
X15340Y58862D01*
X15381Y58922D01*
X15413Y58988D01*
X15436Y59056D01*
X15450Y59128D01*
X15455Y59200D01*
X15450Y59272D01*
X15436Y59344D01*
X15413Y59412D01*
X15381Y59478D01*
X15340Y59538D01*
X15293Y59593D01*
X15238Y59640D01*
X15178Y59681D01*
X15112Y59713D01*
X15044Y59736D01*
X14972Y59750D01*
X14900Y59755D01*
X14828Y59750D01*
X14756Y59736D01*
X14688Y59713D01*
X14622Y59681D01*
X14562Y59640D01*
X14507Y59593D01*
X14460Y59538D01*
X14419Y59478D01*
X14387Y59412D01*
X14364Y59344D01*
X14350Y59272D01*
X14348Y59253D01*
X14239Y59188D01*
X14219Y59185D01*
X14162Y59213D01*
X14094Y59236D01*
X14022Y59250D01*
X13950Y59255D01*
X13878Y59250D01*
X13806Y59236D01*
X13738Y59213D01*
X13672Y59181D01*
X13612Y59140D01*
X13557Y59093D01*
X13510Y59038D01*
X13469Y58978D01*
X13437Y58912D01*
X13414Y58844D01*
X13400Y58772D01*
X13396Y58715D01*
X13342Y58674D01*
X13271Y58652D01*
X13228Y58681D01*
X13162Y58713D01*
X13094Y58736D01*
X13022Y58750D01*
X12950Y58755D01*
X12878Y58750D01*
X12806Y58736D01*
X12738Y58713D01*
X12672Y58681D01*
X12612Y58640D01*
X12557Y58593D01*
X12510Y58538D01*
X12469Y58478D01*
X12437Y58412D01*
X12414Y58344D01*
X12400Y58272D01*
X12396Y58215D01*
X12342Y58174D01*
X12271Y58152D01*
X12228Y58181D01*
X12162Y58213D01*
X12094Y58236D01*
X12022Y58250D01*
X11950Y58255D01*
X11878Y58250D01*
X11806Y58236D01*
X11738Y58213D01*
X11672Y58181D01*
X11612Y58140D01*
X11557Y58093D01*
X11510Y58038D01*
X11469Y57978D01*
X11437Y57912D01*
X11414Y57844D01*
X11400Y57772D01*
X11396Y57715D01*
X11342Y57674D01*
X11271Y57652D01*
X11228Y57681D01*
X11162Y57713D01*
X11094Y57736D01*
X11022Y57750D01*
X10950Y57755D01*
X10878Y57750D01*
X10806Y57736D01*
X10738Y57713D01*
X10672Y57681D01*
X10612Y57640D01*
X10557Y57593D01*
X10510Y57538D01*
X10469Y57478D01*
X10437Y57412D01*
X10414Y57344D01*
X10400Y57272D01*
X10395Y57200D01*
X10400Y57128D01*
X10414Y57056D01*
X10437Y56988D01*
X10469Y56922D01*
X10510Y56862D01*
X10557Y56807D01*
X10612Y56760D01*
X10672Y56719D01*
X10738Y56687D01*
X10806Y56664D01*
X10878Y56650D01*
X10950Y56645D01*
X11000Y56648D01*
X11905Y55743D01*
X11912Y55737D01*
X12003Y55639D01*
X12094Y55529D01*
X12178Y55412D01*
X12253Y55291D01*
X12320Y55165D01*
X12380Y55034D01*
X12430Y54901D01*
X12471Y54764D01*
X12504Y54624D01*
X12527Y54483D01*
X12541Y54341D01*
X12546Y54207D01*
X12545Y54198D01*
Y53052D01*
X12546Y53043D01*
X12541Y52909D01*
X12527Y52767D01*
X12504Y52626D01*
X12471Y52486D01*
X12430Y52349D01*
X12380Y52216D01*
X12320Y52085D01*
X12253Y51959D01*
X12178Y51838D01*
X12094Y51721D01*
X12003Y51611D01*
X11912Y51513D01*
X11905Y51507D01*
X8218Y47821D01*
X8129Y47731D01*
X8129Y47731D01*
X7981Y47577D01*
X7840Y47416D01*
X7706Y47249D01*
X7580Y47077D01*
X7461Y46900D01*
X7351Y46717D01*
X7248Y46530D01*
X7153Y46338D01*
X7067Y46143D01*
X6990Y45944D01*
X6921Y45741D01*
X6862Y45536D01*
X6811Y45329D01*
X6769Y45120D01*
X6737Y44908D01*
X6713Y44696D01*
X6699Y44483D01*
X6695Y44269D01*
X6695D01*
Y26785D01*
X6568Y26754D01*
X6544Y26800D01*
X6461Y26940D01*
X6371Y27075D01*
X6274Y27205D01*
X6169Y27329D01*
X6057Y27447D01*
X5939Y27559D01*
X5815Y27664D01*
X5685Y27761D01*
X5550Y27851D01*
X5410Y27934D01*
X5266Y28008D01*
X5118Y28075D01*
X4966Y28133D01*
X4811Y28182D01*
X4654Y28223D01*
X4495Y28254D01*
X4334Y28277D01*
X4172Y28291D01*
X4010Y28295D01*
Y28295D01*
X1587D01*
X1575Y28329D01*
X1532Y28420D01*
X1481Y28505D01*
X1421Y28585D01*
X1354Y28659D01*
X1280Y28726D01*
X1200Y28786D01*
X1115Y28837D01*
X1024Y28880D01*
X930Y28913D01*
X833Y28938D01*
X735Y28952D01*
X635Y28957D01*
X-635D01*
X-735Y28952D01*
X-833Y28938D01*
X-930Y28913D01*
X-1024Y28880D01*
X-1115Y28837D01*
X-1200Y28786D01*
X-1280Y28726D01*
X-1354Y28659D01*
X-1421Y28585D01*
X-1481Y28505D01*
X-1532Y28420D01*
X-1562Y28357D01*
X-1689Y28385D01*
Y30035D01*
X-1562Y30063D01*
X-1532Y30000D01*
X-1481Y29915D01*
X-1421Y29835D01*
X-1354Y29761D01*
X-1280Y29694D01*
X-1200Y29634D01*
X-1115Y29583D01*
X-1024Y29540D01*
X-930Y29507D01*
X-833Y29482D01*
X-735Y29468D01*
X-635Y29463D01*
X635D01*
X735Y29468D01*
X833Y29482D01*
X930Y29507D01*
X1024Y29540D01*
X1115Y29583D01*
X1200Y29634D01*
X1280Y29694D01*
X1354Y29761D01*
X1421Y29835D01*
X1481Y29915D01*
X1532Y30000D01*
X1575Y30091D01*
X1608Y30185D01*
X1633Y30282D01*
X1647Y30380D01*
X1652Y30480D01*
X1647Y30580D01*
X1633Y30678D01*
X1608Y30775D01*
X1575Y30869D01*
X1558Y30905D01*
X5057Y34405D01*
X5057Y34405D01*
X5169Y34523D01*
X5274Y34647D01*
X5371Y34777D01*
X5461Y34912D01*
X5544Y35052D01*
X5618Y35196D01*
X5685Y35344D01*
X5743Y35496D01*
X5792Y35651D01*
X5833Y35808D01*
X5864Y35967D01*
X5887Y36128D01*
X5901Y36290D01*
X5905Y36452D01*
X5905D01*
Y47898D01*
X5904Y47907D01*
X5909Y48041D01*
X5923Y48183D01*
X5946Y48324D01*
X5979Y48464D01*
X6020Y48601D01*
X6070Y48734D01*
X6130Y48865D01*
X6197Y48991D01*
X6272Y49112D01*
X6356Y49229D01*
X6447Y49339D01*
X6538Y49437D01*
X6545Y49443D01*
X7000Y49898D01*
X7050Y49895D01*
X7122Y49900D01*
X7194Y49914D01*
X7262Y49937D01*
X7328Y49969D01*
X7388Y50010D01*
X7443Y50057D01*
X7490Y50112D01*
X7531Y50172D01*
X7563Y50238D01*
X7586Y50306D01*
X7600Y50378D01*
X7605Y50450D01*
X7600Y50522D01*
X7586Y50594D01*
X7563Y50662D01*
X7531Y50728D01*
X7490Y50788D01*
X7443Y50843D01*
X7388Y50890D01*
X7328Y50931D01*
X7262Y50963D01*
X7194Y50986D01*
X7122Y51000D01*
X7050Y51005D01*
X6978Y51000D01*
X6906Y50986D01*
X6838Y50963D01*
X6772Y50931D01*
X6729Y50902D01*
X6658Y50924D01*
X6604Y50965D01*
X6600Y51022D01*
X6586Y51094D01*
X6563Y51162D01*
X6531Y51228D01*
X6490Y51288D01*
X6443Y51343D01*
X6388Y51390D01*
X6328Y51431D01*
X6262Y51463D01*
X6194Y51486D01*
X6122Y51500D01*
X6050Y51505D01*
X5978Y51500D01*
X5906Y51486D01*
X5838Y51463D01*
X5772Y51431D01*
X5729Y51402D01*
X5658Y51424D01*
X5604Y51465D01*
X5600Y51522D01*
X5586Y51594D01*
X5563Y51662D01*
X5531Y51728D01*
X5490Y51788D01*
X5443Y51843D01*
X5388Y51890D01*
X5328Y51931D01*
X5262Y51963D01*
X5194Y51986D01*
X5122Y52000D01*
X5050Y52005D01*
X4978Y52000D01*
X4906Y51986D01*
X4838Y51963D01*
X4772Y51931D01*
X4729Y51902D01*
X4658Y51924D01*
X4604Y51965D01*
X4600Y52022D01*
X4586Y52094D01*
X4563Y52162D01*
X4531Y52228D01*
X4490Y52288D01*
X4443Y52343D01*
X4388Y52390D01*
X4328Y52431D01*
X4262Y52463D01*
X4194Y52486D01*
X4122Y52500D01*
X4050Y52505D01*
X3978Y52500D01*
X3906Y52486D01*
X3838Y52463D01*
X3772Y52431D01*
X3712Y52390D01*
X3657Y52343D01*
X3610Y52288D01*
X3569Y52228D01*
X3537Y52162D01*
X3514Y52094D01*
X3500Y52022D01*
X3495Y51950D01*
X3500Y51878D01*
X3514Y51806D01*
X3537Y51738D01*
X3569Y51672D01*
X3610Y51612D01*
X3657Y51557D01*
X3695Y51525D01*
Y42352D01*
X3696Y42343D01*
X3691Y42209D01*
X3677Y42067D01*
X3654Y41926D01*
X3621Y41786D01*
X3580Y41649D01*
X3530Y41516D01*
X3470Y41385D01*
X3403Y41259D01*
X3328Y41138D01*
X3244Y41021D01*
X3153Y40911D01*
X3062Y40813D01*
X3055Y40807D01*
X1200Y38952D01*
X1196Y38948D01*
X1115Y38997D01*
X1024Y39040D01*
X930Y39073D01*
X833Y39098D01*
X735Y39112D01*
X635Y39117D01*
X-635D01*
X-735Y39112D01*
X-833Y39098D01*
X-930Y39073D01*
X-1024Y39040D01*
X-1115Y38997D01*
X-1200Y38946D01*
X-1280Y38886D01*
X-1354Y38819D01*
X-1421Y38745D01*
X-1481Y38665D01*
X-1532Y38580D01*
X-1562Y38517D01*
X-1689Y38545D01*
Y40195D01*
X-1562Y40223D01*
X-1532Y40160D01*
X-1481Y40075D01*
X-1421Y39995D01*
X-1354Y39921D01*
X-1280Y39854D01*
X-1200Y39794D01*
X-1115Y39743D01*
X-1024Y39700D01*
X-930Y39667D01*
X-833Y39642D01*
X-735Y39628D01*
X-635Y39623D01*
X-127D01*
Y40640D01*
Y41657D01*
X-635D01*
X-735Y41652D01*
X-833Y41638D01*
X-930Y41613D01*
X-1024Y41580D01*
X-1115Y41537D01*
X-1200Y41486D01*
X-1280Y41426D01*
X-1354Y41359D01*
X-1421Y41285D01*
X-1481Y41205D01*
X-1532Y41120D01*
X-1562Y41057D01*
X-1689Y41085D01*
Y42735D01*
X-1562Y42763D01*
X-1532Y42700D01*
X-1481Y42615D01*
X-1421Y42535D01*
X-1354Y42461D01*
X-1280Y42394D01*
X-1200Y42334D01*
X-1115Y42283D01*
X-1024Y42240D01*
X-930Y42207D01*
X-833Y42182D01*
X-735Y42168D01*
X-635Y42163D01*
X635D01*
X735Y42168D01*
X833Y42182D01*
X930Y42207D01*
X1024Y42240D01*
X1115Y42283D01*
X1200Y42334D01*
X1280Y42394D01*
X1354Y42461D01*
X1421Y42535D01*
X1481Y42615D01*
X1532Y42700D01*
X1575Y42791D01*
X1608Y42885D01*
X1633Y42982D01*
X1647Y43080D01*
X1652Y43180D01*
X1647Y43280D01*
X1633Y43378D01*
X1608Y43475D01*
X1575Y43569D01*
X1532Y43660D01*
X1481Y43745D01*
X1421Y43825D01*
X1354Y43899D01*
X1280Y43966D01*
X1200Y44026D01*
X1115Y44077D01*
X1024Y44120D01*
X930Y44153D01*
X833Y44178D01*
X735Y44192D01*
X635Y44197D01*
X-635D01*
X-735Y44192D01*
X-833Y44178D01*
X-930Y44153D01*
X-1024Y44120D01*
X-1115Y44077D01*
X-1200Y44026D01*
X-1280Y43966D01*
X-1354Y43899D01*
X-1421Y43825D01*
X-1481Y43745D01*
X-1532Y43660D01*
X-1562Y43597D01*
X-1689Y43625D01*
Y45275D01*
X-1562Y45303D01*
X-1532Y45240D01*
X-1481Y45155D01*
X-1421Y45075D01*
X-1354Y45001D01*
X-1280Y44934D01*
X-1200Y44874D01*
X-1115Y44823D01*
X-1024Y44780D01*
X-930Y44747D01*
X-833Y44722D01*
X-735Y44708D01*
X-635Y44703D01*
X-127D01*
Y45720D01*
Y46737D01*
X-635D01*
X-735Y46732D01*
X-833Y46718D01*
X-930Y46693D01*
X-1024Y46660D01*
X-1115Y46617D01*
X-1200Y46566D01*
X-1280Y46506D01*
X-1354Y46439D01*
X-1421Y46365D01*
X-1481Y46285D01*
X-1532Y46200D01*
X-1562Y46137D01*
X-1689Y46165D01*
Y47815D01*
X-1562Y47843D01*
X-1532Y47780D01*
X-1481Y47695D01*
X-1421Y47615D01*
X-1354Y47541D01*
X-1280Y47474D01*
X-1200Y47414D01*
X-1115Y47363D01*
X-1024Y47320D01*
X-930Y47287D01*
X-833Y47262D01*
X-735Y47248D01*
X-635Y47243D01*
X635D01*
X735Y47248D01*
X833Y47262D01*
X930Y47287D01*
X1024Y47320D01*
X1115Y47363D01*
X1200Y47414D01*
X1280Y47474D01*
X1354Y47541D01*
X1421Y47615D01*
X1481Y47695D01*
X1532Y47780D01*
X1575Y47871D01*
X1608Y47965D01*
X1633Y48062D01*
X1647Y48160D01*
X1652Y48260D01*
X1647Y48360D01*
X1633Y48458D01*
X1608Y48555D01*
X1575Y48649D01*
X1532Y48740D01*
X1481Y48825D01*
X1421Y48905D01*
X1354Y48979D01*
X1280Y49046D01*
X1200Y49106D01*
X1115Y49157D01*
X1024Y49200D01*
X930Y49233D01*
X833Y49258D01*
X735Y49272D01*
X635Y49277D01*
X-635D01*
X-735Y49272D01*
X-833Y49258D01*
X-930Y49233D01*
X-1024Y49200D01*
X-1115Y49157D01*
X-1200Y49106D01*
X-1280Y49046D01*
X-1354Y48979D01*
X-1421Y48905D01*
X-1481Y48825D01*
X-1532Y48740D01*
X-1562Y48677D01*
X-1689Y48705D01*
Y50355D01*
X-1562Y50383D01*
X-1532Y50320D01*
X-1481Y50235D01*
X-1421Y50155D01*
X-1354Y50081D01*
X-1280Y50014D01*
X-1200Y49954D01*
X-1115Y49903D01*
X-1024Y49860D01*
X-930Y49827D01*
X-833Y49802D01*
X-735Y49788D01*
X-635Y49783D01*
X-127D01*
Y50800D01*
Y51817D01*
X-635D01*
X-735Y51812D01*
X-833Y51798D01*
X-930Y51773D01*
X-1024Y51740D01*
X-1115Y51697D01*
X-1200Y51646D01*
X-1280Y51586D01*
X-1354Y51519D01*
X-1421Y51445D01*
X-1481Y51365D01*
X-1532Y51280D01*
X-1562Y51217D01*
X-1689Y51245D01*
Y52213D01*
X-1651Y52324D01*
X-1562Y52324D01*
X1651D01*
Y54356D01*
X-1562D01*
X-1651Y54356D01*
X-1689Y54467D01*
Y65589D01*
X49949D01*
Y54467D01*
D02*
G37*
G36*
X4695Y38967D02*
Y38302D01*
X4696Y38293D01*
X4691Y38159D01*
X4677Y38017D01*
X4654Y37876D01*
X4621Y37736D01*
X4580Y37599D01*
X4530Y37466D01*
X4470Y37335D01*
X4403Y37209D01*
X4328Y37088D01*
X4244Y36971D01*
X4153Y36861D01*
X4062Y36763D01*
X4055Y36757D01*
X1177Y33879D01*
X1115Y33917D01*
X1024Y33960D01*
X930Y33993D01*
X833Y34018D01*
X735Y34032D01*
X635Y34037D01*
X-635D01*
X-735Y34032D01*
X-833Y34018D01*
X-930Y33993D01*
X-1024Y33960D01*
X-1115Y33917D01*
X-1200Y33866D01*
X-1280Y33806D01*
X-1354Y33739D01*
X-1421Y33665D01*
X-1481Y33585D01*
X-1532Y33500D01*
X-1562Y33437D01*
X-1689Y33465D01*
Y35115D01*
X-1562Y35143D01*
X-1532Y35080D01*
X-1481Y34995D01*
X-1421Y34915D01*
X-1354Y34841D01*
X-1280Y34774D01*
X-1200Y34714D01*
X-1115Y34663D01*
X-1024Y34620D01*
X-930Y34587D01*
X-833Y34562D01*
X-735Y34548D01*
X-635Y34543D01*
X635D01*
X735Y34548D01*
X833Y34562D01*
X930Y34587D01*
X1024Y34620D01*
X1115Y34663D01*
X1200Y34714D01*
X1280Y34774D01*
X1354Y34841D01*
X1421Y34915D01*
X1481Y34995D01*
X1532Y35080D01*
X1575Y35171D01*
X1608Y35265D01*
X1633Y35362D01*
X1647Y35460D01*
X1652Y35560D01*
X1647Y35660D01*
X1633Y35758D01*
X1608Y35855D01*
X1608Y35857D01*
X1634Y35882D01*
X1634Y35882D01*
X4057Y38305D01*
X4057Y38305D01*
X4169Y38423D01*
X4274Y38547D01*
X4371Y38677D01*
X4461Y38812D01*
X4544Y38952D01*
X4568Y38998D01*
X4695Y38967D01*
D02*
G37*
G36*
X4153Y27581D02*
X4295Y27567D01*
X4436Y27544D01*
X4576Y27511D01*
X4713Y27470D01*
X4847Y27420D01*
X4977Y27360D01*
X5103Y27293D01*
X5224Y27218D01*
X5341Y27134D01*
X5451Y27043D01*
X5556Y26946D01*
X5653Y26841D01*
X5689Y26798D01*
X5601Y26705D01*
X5514Y26767D01*
X5403Y26836D01*
X5287Y26898D01*
X5167Y26952D01*
X5045Y26999D01*
X4919Y27037D01*
X4867Y27049D01*
X4840Y27088D01*
X4793Y27143D01*
X4738Y27190D01*
X4678Y27231D01*
X4612Y27263D01*
X4544Y27286D01*
X4472Y27300D01*
X4400Y27305D01*
X4328Y27300D01*
X4256Y27286D01*
X4188Y27263D01*
X4122Y27231D01*
X4062Y27190D01*
X4007Y27143D01*
X3960Y27088D01*
X3919Y27028D01*
X3887Y26962D01*
X3864Y26894D01*
X3850Y26822D01*
X3845Y26750D01*
X3850Y26678D01*
X3864Y26606D01*
X3887Y26538D01*
X3919Y26472D01*
X3960Y26412D01*
X4007Y26357D01*
X4062Y26310D01*
X4122Y26269D01*
X4188Y26237D01*
X4256Y26214D01*
X4328Y26200D01*
X4400Y26195D01*
X4472Y26200D01*
X4544Y26214D01*
X4612Y26237D01*
X4678Y26269D01*
X4738Y26310D01*
X4773Y26340D01*
X4843Y26318D01*
X4948Y26275D01*
X5048Y26222D01*
X5143Y26162D01*
X5233Y26093D01*
X5316Y26016D01*
X5393Y25933D01*
X5462Y25843D01*
X5522Y25748D01*
X5575Y25648D01*
X5618Y25543D01*
X5652Y25435D01*
X5676Y25325D01*
X5691Y25213D01*
X5696Y25109D01*
X5695Y25100D01*
Y10160D01*
X5696Y10151D01*
X5691Y10017D01*
X5677Y9875D01*
X5654Y9734D01*
X5621Y9594D01*
X5580Y9457D01*
X5530Y9323D01*
X5470Y9193D01*
X5403Y9067D01*
X5328Y8946D01*
X5244Y8829D01*
X5153Y8719D01*
X5056Y8614D01*
X4951Y8517D01*
X4841Y8426D01*
X4724Y8342D01*
X4603Y8267D01*
X4477Y8200D01*
X4347Y8140D01*
X4213Y8090D01*
X4076Y8049D01*
X3936Y8016D01*
X3795Y7993D01*
X3653Y7979D01*
X3519Y7974D01*
X3510Y7975D01*
X1587D01*
X1575Y8009D01*
X1532Y8100D01*
X1481Y8185D01*
X1421Y8265D01*
X1354Y8339D01*
X1280Y8406D01*
X1200Y8466D01*
X1115Y8517D01*
X1024Y8560D01*
X930Y8593D01*
X833Y8618D01*
X735Y8632D01*
X635Y8637D01*
X-635D01*
X-735Y8632D01*
X-833Y8618D01*
X-930Y8593D01*
X-1024Y8560D01*
X-1115Y8517D01*
X-1200Y8466D01*
X-1280Y8406D01*
X-1354Y8339D01*
X-1421Y8265D01*
X-1481Y8185D01*
X-1532Y8100D01*
X-1562Y8037D01*
X-1689Y8065D01*
Y9715D01*
X-1562Y9743D01*
X-1532Y9680D01*
X-1481Y9595D01*
X-1421Y9515D01*
X-1354Y9441D01*
X-1280Y9374D01*
X-1200Y9314D01*
X-1115Y9263D01*
X-1024Y9220D01*
X-930Y9187D01*
X-833Y9162D01*
X-735Y9148D01*
X-635Y9143D01*
X635D01*
X735Y9148D01*
X833Y9162D01*
X930Y9187D01*
X1024Y9220D01*
X1115Y9263D01*
X1200Y9314D01*
X1280Y9374D01*
X1354Y9441D01*
X1421Y9515D01*
X1481Y9595D01*
X1532Y9680D01*
X1575Y9771D01*
X1608Y9865D01*
X1633Y9962D01*
X1647Y10060D01*
X1652Y10160D01*
X1647Y10260D01*
X1633Y10358D01*
X1608Y10455D01*
X1575Y10549D01*
X1532Y10640D01*
X1481Y10725D01*
X1421Y10805D01*
X1354Y10879D01*
X1280Y10946D01*
X1200Y11006D01*
X1115Y11057D01*
X1024Y11100D01*
X930Y11133D01*
X833Y11158D01*
X735Y11172D01*
X635Y11177D01*
X-635D01*
X-735Y11172D01*
X-833Y11158D01*
X-930Y11133D01*
X-1024Y11100D01*
X-1115Y11057D01*
X-1200Y11006D01*
X-1280Y10946D01*
X-1354Y10879D01*
X-1421Y10805D01*
X-1481Y10725D01*
X-1532Y10640D01*
X-1562Y10577D01*
X-1689Y10605D01*
Y12255D01*
X-1562Y12283D01*
X-1532Y12220D01*
X-1481Y12135D01*
X-1421Y12055D01*
X-1354Y11981D01*
X-1280Y11914D01*
X-1200Y11854D01*
X-1115Y11803D01*
X-1024Y11760D01*
X-930Y11727D01*
X-833Y11702D01*
X-735Y11688D01*
X-635Y11683D01*
X635D01*
X735Y11688D01*
X833Y11702D01*
X930Y11727D01*
X1024Y11760D01*
X1115Y11803D01*
X1200Y11854D01*
X1280Y11914D01*
X1354Y11981D01*
X1421Y12055D01*
X1481Y12135D01*
X1532Y12220D01*
X1575Y12311D01*
X1608Y12405D01*
X1633Y12502D01*
X1647Y12600D01*
X1652Y12700D01*
X1647Y12800D01*
X1633Y12898D01*
X1608Y12995D01*
X1575Y13089D01*
X1532Y13180D01*
X1481Y13265D01*
X1421Y13345D01*
X1354Y13419D01*
X1280Y13486D01*
X1200Y13546D01*
X1115Y13597D01*
X1024Y13640D01*
X930Y13673D01*
X833Y13698D01*
X735Y13712D01*
X635Y13717D01*
X-635D01*
X-735Y13712D01*
X-833Y13698D01*
X-930Y13673D01*
X-1024Y13640D01*
X-1115Y13597D01*
X-1200Y13546D01*
X-1280Y13486D01*
X-1354Y13419D01*
X-1421Y13345D01*
X-1481Y13265D01*
X-1532Y13180D01*
X-1562Y13117D01*
X-1689Y13145D01*
Y14795D01*
X-1562Y14823D01*
X-1532Y14760D01*
X-1481Y14675D01*
X-1421Y14595D01*
X-1354Y14521D01*
X-1280Y14454D01*
X-1200Y14394D01*
X-1115Y14343D01*
X-1024Y14300D01*
X-930Y14267D01*
X-833Y14242D01*
X-735Y14228D01*
X-635Y14223D01*
X-127D01*
Y15240D01*
Y16257D01*
X-635D01*
X-735Y16252D01*
X-833Y16238D01*
X-930Y16213D01*
X-1024Y16180D01*
X-1115Y16137D01*
X-1200Y16086D01*
X-1280Y16026D01*
X-1354Y15959D01*
X-1421Y15885D01*
X-1481Y15805D01*
X-1532Y15720D01*
X-1562Y15657D01*
X-1689Y15685D01*
Y17335D01*
X-1562Y17363D01*
X-1532Y17300D01*
X-1481Y17215D01*
X-1421Y17135D01*
X-1354Y17061D01*
X-1280Y16994D01*
X-1200Y16934D01*
X-1115Y16883D01*
X-1024Y16840D01*
X-930Y16807D01*
X-833Y16782D01*
X-735Y16768D01*
X-635Y16763D01*
X-127D01*
Y17780D01*
Y18797D01*
X-635D01*
X-735Y18792D01*
X-833Y18778D01*
X-930Y18753D01*
X-1024Y18720D01*
X-1115Y18677D01*
X-1200Y18626D01*
X-1280Y18566D01*
X-1354Y18499D01*
X-1421Y18425D01*
X-1481Y18345D01*
X-1532Y18260D01*
X-1562Y18197D01*
X-1689Y18225D01*
Y19875D01*
X-1562Y19903D01*
X-1532Y19840D01*
X-1481Y19755D01*
X-1421Y19675D01*
X-1354Y19601D01*
X-1280Y19534D01*
X-1200Y19474D01*
X-1115Y19423D01*
X-1024Y19380D01*
X-930Y19347D01*
X-833Y19322D01*
X-735Y19308D01*
X-635Y19303D01*
X635D01*
X735Y19308D01*
X833Y19322D01*
X930Y19347D01*
X1024Y19380D01*
X1115Y19423D01*
X1200Y19474D01*
X1280Y19534D01*
X1354Y19601D01*
X1421Y19675D01*
X1481Y19755D01*
X1532Y19840D01*
X1575Y19931D01*
X1608Y20025D01*
X1633Y20122D01*
X1647Y20220D01*
X1652Y20320D01*
X1647Y20420D01*
X1633Y20518D01*
X1608Y20615D01*
X1575Y20709D01*
X1532Y20800D01*
X1481Y20885D01*
X1421Y20965D01*
X1354Y21039D01*
X1280Y21106D01*
X1200Y21166D01*
X1115Y21217D01*
X1024Y21260D01*
X930Y21293D01*
X833Y21318D01*
X735Y21332D01*
X635Y21337D01*
X-635D01*
X-735Y21332D01*
X-833Y21318D01*
X-930Y21293D01*
X-1024Y21260D01*
X-1115Y21217D01*
X-1200Y21166D01*
X-1280Y21106D01*
X-1354Y21039D01*
X-1421Y20965D01*
X-1481Y20885D01*
X-1532Y20800D01*
X-1562Y20737D01*
X-1689Y20765D01*
Y22415D01*
X-1562Y22443D01*
X-1532Y22380D01*
X-1481Y22295D01*
X-1421Y22215D01*
X-1354Y22141D01*
X-1280Y22074D01*
X-1200Y22014D01*
X-1115Y21963D01*
X-1024Y21920D01*
X-930Y21887D01*
X-833Y21862D01*
X-735Y21848D01*
X-635Y21843D01*
X635D01*
X735Y21848D01*
X833Y21862D01*
X930Y21887D01*
X1024Y21920D01*
X1115Y21963D01*
X1200Y22014D01*
X1280Y22074D01*
X1354Y22141D01*
X1421Y22215D01*
X1481Y22295D01*
X1532Y22380D01*
X1575Y22471D01*
X1608Y22565D01*
X1633Y22662D01*
X1647Y22760D01*
X1652Y22860D01*
X1647Y22960D01*
X1633Y23058D01*
X1608Y23155D01*
X1575Y23249D01*
X1532Y23340D01*
X1481Y23425D01*
X1421Y23505D01*
X1354Y23579D01*
X1280Y23646D01*
X1200Y23706D01*
X1115Y23757D01*
X1024Y23800D01*
X930Y23833D01*
X833Y23858D01*
X735Y23872D01*
X635Y23877D01*
X-635D01*
X-735Y23872D01*
X-833Y23858D01*
X-930Y23833D01*
X-1024Y23800D01*
X-1115Y23757D01*
X-1200Y23706D01*
X-1280Y23646D01*
X-1354Y23579D01*
X-1421Y23505D01*
X-1481Y23425D01*
X-1532Y23340D01*
X-1562Y23277D01*
X-1689Y23305D01*
Y24955D01*
X-1562Y24983D01*
X-1532Y24920D01*
X-1481Y24835D01*
X-1421Y24755D01*
X-1354Y24681D01*
X-1280Y24614D01*
X-1200Y24554D01*
X-1115Y24503D01*
X-1024Y24460D01*
X-930Y24427D01*
X-833Y24402D01*
X-735Y24388D01*
X-635Y24383D01*
X635D01*
X735Y24388D01*
X833Y24402D01*
X930Y24427D01*
X1024Y24460D01*
X1115Y24503D01*
X1200Y24554D01*
X1280Y24614D01*
X1354Y24681D01*
X1421Y24755D01*
X1481Y24835D01*
X1532Y24920D01*
X1575Y25011D01*
X1608Y25105D01*
X1633Y25202D01*
X1647Y25300D01*
X1652Y25400D01*
X1647Y25500D01*
X1633Y25598D01*
X1608Y25695D01*
X1575Y25789D01*
X1532Y25880D01*
X1481Y25965D01*
X1421Y26045D01*
X1354Y26119D01*
X1280Y26186D01*
X1200Y26246D01*
X1115Y26297D01*
X1024Y26340D01*
X930Y26373D01*
X833Y26398D01*
X735Y26412D01*
X635Y26417D01*
X-635D01*
X-735Y26412D01*
X-833Y26398D01*
X-930Y26373D01*
X-1024Y26340D01*
X-1115Y26297D01*
X-1200Y26246D01*
X-1280Y26186D01*
X-1354Y26119D01*
X-1421Y26045D01*
X-1481Y25965D01*
X-1532Y25880D01*
X-1562Y25817D01*
X-1689Y25845D01*
Y27495D01*
X-1562Y27523D01*
X-1532Y27460D01*
X-1481Y27375D01*
X-1421Y27295D01*
X-1354Y27221D01*
X-1280Y27154D01*
X-1200Y27094D01*
X-1115Y27043D01*
X-1024Y27000D01*
X-930Y26967D01*
X-833Y26942D01*
X-735Y26928D01*
X-635Y26923D01*
X635D01*
X735Y26928D01*
X833Y26942D01*
X930Y26967D01*
X1024Y27000D01*
X1115Y27043D01*
X1200Y27094D01*
X1280Y27154D01*
X1354Y27221D01*
X1421Y27295D01*
X1481Y27375D01*
X1532Y27460D01*
X1575Y27551D01*
X1587Y27585D01*
X4010D01*
X4019Y27586D01*
X4153Y27581D01*
D02*
G37*
G36*
X6195Y8775D02*
Y7295D01*
X6195Y7288D01*
X6192Y7213D01*
X6180Y7131D01*
X6160Y7051D01*
X6142Y7001D01*
X6128Y7000D01*
X6056Y6986D01*
X5988Y6963D01*
X5922Y6931D01*
X5862Y6890D01*
X5807Y6843D01*
X5760Y6788D01*
X5719Y6728D01*
X5687Y6662D01*
X5664Y6594D01*
X5650Y6522D01*
X5645Y6450D01*
X5650Y6378D01*
X5664Y6306D01*
X5687Y6238D01*
X5719Y6172D01*
X5760Y6112D01*
X5807Y6057D01*
X5862Y6010D01*
X5922Y5969D01*
X5988Y5937D01*
X6056Y5914D01*
X6128Y5900D01*
X6200Y5895D01*
X6272Y5900D01*
X6344Y5914D01*
X6412Y5937D01*
X6478Y5969D01*
X6516Y5995D01*
X6583Y5966D01*
X6629Y5921D01*
X6621Y5886D01*
X6580Y5749D01*
X6530Y5616D01*
X6470Y5485D01*
X6403Y5359D01*
X6328Y5238D01*
X6244Y5121D01*
X6153Y5011D01*
X6062Y4913D01*
X6055Y4907D01*
X2918Y1770D01*
X2918Y1770D01*
X2815Y1660D01*
X2782Y1622D01*
X2738Y1633D01*
X2640Y1647D01*
X2540Y1652D01*
X2440Y1647D01*
X2342Y1633D01*
X2245Y1608D01*
X2151Y1575D01*
X2060Y1532D01*
X1975Y1481D01*
X1895Y1421D01*
X1821Y1354D01*
X1754Y1280D01*
X1694Y1200D01*
X1643Y1115D01*
X1600Y1024D01*
X1567Y930D01*
X1542Y833D01*
X1528Y735D01*
X1523Y635D01*
Y-635D01*
X1528Y-735D01*
X1542Y-833D01*
X1567Y-930D01*
X1600Y-1024D01*
X1643Y-1115D01*
X1694Y-1200D01*
X1754Y-1280D01*
X1821Y-1354D01*
X1895Y-1421D01*
X1975Y-1481D01*
X2060Y-1532D01*
X2151Y-1575D01*
X2245Y-1608D01*
X2298Y-1622D01*
X2282Y-1749D01*
X1087D01*
X1016Y-1651D01*
X1016Y-1622D01*
Y-127D01*
X0D01*
X-1016D01*
Y-1622D01*
X-1016Y-1651D01*
X-1087Y-1749D01*
X-1689D01*
Y4635D01*
X-1562Y4663D01*
X-1532Y4600D01*
X-1481Y4515D01*
X-1421Y4435D01*
X-1354Y4361D01*
X-1280Y4294D01*
X-1200Y4234D01*
X-1115Y4183D01*
X-1024Y4140D01*
X-930Y4107D01*
X-833Y4082D01*
X-735Y4068D01*
X-635Y4063D01*
X635D01*
X735Y4068D01*
X833Y4082D01*
X930Y4107D01*
X1024Y4140D01*
X1115Y4183D01*
X1200Y4234D01*
X1280Y4294D01*
X1354Y4361D01*
X1421Y4435D01*
X1481Y4515D01*
X1532Y4600D01*
X1575Y4691D01*
X1608Y4785D01*
X1633Y4882D01*
X1647Y4980D01*
X1652Y5080D01*
X1647Y5180D01*
X1633Y5278D01*
X1608Y5375D01*
X1575Y5469D01*
X1532Y5560D01*
X1481Y5645D01*
X1421Y5725D01*
X1354Y5799D01*
X1280Y5866D01*
X1200Y5926D01*
X1115Y5977D01*
X1024Y6020D01*
X930Y6053D01*
X833Y6078D01*
X735Y6092D01*
X635Y6097D01*
X-635D01*
X-735Y6092D01*
X-833Y6078D01*
X-930Y6053D01*
X-1024Y6020D01*
X-1115Y5977D01*
X-1200Y5926D01*
X-1280Y5866D01*
X-1354Y5799D01*
X-1421Y5725D01*
X-1481Y5645D01*
X-1532Y5560D01*
X-1562Y5497D01*
X-1689Y5525D01*
Y7175D01*
X-1562Y7203D01*
X-1532Y7140D01*
X-1481Y7055D01*
X-1421Y6975D01*
X-1354Y6901D01*
X-1280Y6834D01*
X-1200Y6774D01*
X-1115Y6723D01*
X-1024Y6680D01*
X-930Y6647D01*
X-833Y6622D01*
X-735Y6608D01*
X-635Y6603D01*
X635D01*
X735Y6608D01*
X833Y6622D01*
X930Y6647D01*
X1024Y6680D01*
X1115Y6723D01*
X1200Y6774D01*
X1280Y6834D01*
X1354Y6901D01*
X1421Y6975D01*
X1481Y7055D01*
X1532Y7140D01*
X1575Y7231D01*
X1587Y7265D01*
X3510D01*
Y7265D01*
X3672Y7269D01*
X3834Y7283D01*
X3995Y7306D01*
X4154Y7337D01*
X4311Y7378D01*
X4466Y7427D01*
X4618Y7485D01*
X4766Y7552D01*
X4910Y7626D01*
X5050Y7709D01*
X5185Y7799D01*
X5315Y7896D01*
X5439Y8001D01*
X5557Y8113D01*
X5669Y8231D01*
X5774Y8355D01*
X5871Y8485D01*
X5961Y8620D01*
X6044Y8760D01*
X6068Y8806D01*
X6195Y8775D01*
D02*
G37*
%LPC*%
G36*
X43180Y61850D02*
X43000Y61845D01*
X42821Y61831D01*
X42643Y61808D01*
X42467Y61775D01*
X42292Y61733D01*
X42120Y61682D01*
X41951Y61622D01*
X41785Y61554D01*
X41623Y61476D01*
X41465Y61391D01*
X41312Y61297D01*
X41164Y61195D01*
X41021Y61086D01*
X40885Y60969D01*
X40755Y60846D01*
X40631Y60715D01*
X40514Y60579D01*
X40405Y60436D01*
X40303Y60288D01*
X40209Y60135D01*
X40124Y59977D01*
X40046Y59815D01*
X39978Y59649D01*
X39918Y59480D01*
X39867Y59308D01*
X39825Y59133D01*
X39792Y58957D01*
X39769Y58779D01*
X39755Y58600D01*
X39750Y58420D01*
X39755Y58240D01*
X39769Y58061D01*
X39792Y57883D01*
X39825Y57707D01*
X39867Y57532D01*
X39918Y57360D01*
X39978Y57191D01*
X40046Y57025D01*
X40124Y56863D01*
X40209Y56705D01*
X40303Y56552D01*
X40405Y56404D01*
X40514Y56261D01*
X40631Y56125D01*
X40755Y55994D01*
X40885Y55871D01*
X41021Y55754D01*
X41164Y55645D01*
X41312Y55543D01*
X41465Y55449D01*
X41623Y55364D01*
X41785Y55286D01*
X41951Y55218D01*
X42120Y55158D01*
X42292Y55107D01*
X42467Y55065D01*
X42643Y55032D01*
X42821Y55009D01*
X43000Y54995D01*
X43180Y54990D01*
X43360Y54995D01*
X43539Y55009D01*
X43717Y55032D01*
X43893Y55065D01*
X44068Y55107D01*
X44240Y55158D01*
X44409Y55218D01*
X44575Y55286D01*
X44737Y55364D01*
X44895Y55449D01*
X45048Y55543D01*
X45196Y55645D01*
X45339Y55754D01*
X45475Y55871D01*
X45605Y55994D01*
X45729Y56125D01*
X45846Y56261D01*
X45955Y56404D01*
X46057Y56552D01*
X46151Y56705D01*
X46236Y56863D01*
X46314Y57025D01*
X46382Y57191D01*
X46442Y57360D01*
X46493Y57532D01*
X46535Y57707D01*
X46568Y57883D01*
X46591Y58061D01*
X46605Y58240D01*
X46610Y58420D01*
X46605Y58600D01*
X46591Y58779D01*
X46568Y58957D01*
X46535Y59133D01*
X46493Y59308D01*
X46442Y59480D01*
X46382Y59649D01*
X46314Y59815D01*
X46236Y59977D01*
X46151Y60135D01*
X46057Y60288D01*
X45955Y60436D01*
X45846Y60579D01*
X45729Y60715D01*
X45605Y60846D01*
X45475Y60969D01*
X45339Y61086D01*
X45196Y61195D01*
X45048Y61297D01*
X44895Y61391D01*
X44737Y61476D01*
X44575Y61554D01*
X44409Y61622D01*
X44240Y61682D01*
X44068Y61733D01*
X43893Y61775D01*
X43717Y61808D01*
X43539Y61831D01*
X43360Y61845D01*
X43180Y61850D01*
D02*
G37*
G36*
X5080D02*
X4900Y61845D01*
X4721Y61831D01*
X4543Y61808D01*
X4367Y61775D01*
X4192Y61733D01*
X4020Y61682D01*
X3851Y61622D01*
X3685Y61554D01*
X3523Y61476D01*
X3365Y61391D01*
X3212Y61297D01*
X3064Y61195D01*
X2921Y61086D01*
X2785Y60969D01*
X2655Y60846D01*
X2531Y60715D01*
X2414Y60579D01*
X2305Y60436D01*
X2203Y60288D01*
X2109Y60135D01*
X2024Y59977D01*
X1946Y59815D01*
X1878Y59649D01*
X1818Y59480D01*
X1767Y59308D01*
X1725Y59133D01*
X1692Y58957D01*
X1669Y58779D01*
X1655Y58600D01*
X1650Y58420D01*
X1655Y58240D01*
X1669Y58061D01*
X1692Y57883D01*
X1725Y57707D01*
X1767Y57532D01*
X1818Y57360D01*
X1878Y57191D01*
X1946Y57025D01*
X2024Y56863D01*
X2109Y56705D01*
X2203Y56552D01*
X2305Y56404D01*
X2414Y56261D01*
X2531Y56125D01*
X2655Y55994D01*
X2785Y55871D01*
X2921Y55754D01*
X3064Y55645D01*
X3212Y55543D01*
X3365Y55449D01*
X3523Y55364D01*
X3685Y55286D01*
X3851Y55218D01*
X4020Y55158D01*
X4192Y55107D01*
X4367Y55065D01*
X4543Y55032D01*
X4721Y55009D01*
X4900Y54995D01*
X5080Y54990D01*
X5260Y54995D01*
X5439Y55009D01*
X5617Y55032D01*
X5793Y55065D01*
X5968Y55107D01*
X6140Y55158D01*
X6309Y55218D01*
X6475Y55286D01*
X6637Y55364D01*
X6795Y55449D01*
X6948Y55543D01*
X7096Y55645D01*
X7239Y55754D01*
X7375Y55871D01*
X7505Y55994D01*
X7629Y56125D01*
X7746Y56261D01*
X7855Y56404D01*
X7957Y56552D01*
X8051Y56705D01*
X8136Y56863D01*
X8214Y57025D01*
X8282Y57191D01*
X8342Y57360D01*
X8393Y57532D01*
X8435Y57707D01*
X8468Y57883D01*
X8491Y58061D01*
X8505Y58240D01*
X8510Y58420D01*
X8505Y58600D01*
X8491Y58779D01*
X8468Y58957D01*
X8435Y59133D01*
X8393Y59308D01*
X8342Y59480D01*
X8282Y59649D01*
X8214Y59815D01*
X8136Y59977D01*
X8051Y60135D01*
X7957Y60288D01*
X7855Y60436D01*
X7746Y60579D01*
X7629Y60715D01*
X7505Y60846D01*
X7375Y60969D01*
X7239Y61086D01*
X7096Y61195D01*
X6948Y61297D01*
X6795Y61391D01*
X6637Y61476D01*
X6475Y61554D01*
X6309Y61622D01*
X6140Y61682D01*
X5968Y61733D01*
X5793Y61775D01*
X5617Y61808D01*
X5439Y61831D01*
X5260Y61845D01*
X5080Y61850D01*
D02*
G37*
G36*
X48133Y54356D02*
X46609D01*
Y53467D01*
X48133D01*
Y54356D01*
D02*
G37*
G36*
Y53213D02*
X46609D01*
Y52324D01*
X48133D01*
Y53213D01*
D02*
G37*
G36*
X635Y51817D02*
X127D01*
Y50927D01*
X1643D01*
X1633Y50998D01*
X1608Y51095D01*
X1575Y51189D01*
X1532Y51280D01*
X1481Y51365D01*
X1421Y51445D01*
X1354Y51519D01*
X1280Y51586D01*
X1200Y51646D01*
X1115Y51697D01*
X1024Y51740D01*
X930Y51773D01*
X833Y51798D01*
X735Y51812D01*
X635Y51817D01*
D02*
G37*
G36*
X1643Y50673D02*
X127D01*
Y49783D01*
X635D01*
X735Y49788D01*
X833Y49802D01*
X930Y49827D01*
X1024Y49860D01*
X1115Y49903D01*
X1200Y49954D01*
X1280Y50014D01*
X1354Y50081D01*
X1421Y50155D01*
X1481Y50235D01*
X1532Y50320D01*
X1575Y50411D01*
X1608Y50505D01*
X1633Y50602D01*
X1643Y50673D01*
D02*
G37*
G36*
X21854Y49204D02*
X21327D01*
Y48702D01*
X21854D01*
Y49204D01*
D02*
G37*
G36*
X21073D02*
X20546D01*
Y48702D01*
X21073D01*
Y49204D01*
D02*
G37*
G36*
X24200Y53055D02*
X24128Y53050D01*
X24056Y53036D01*
X23988Y53013D01*
X23922Y52981D01*
X23862Y52940D01*
X23807Y52893D01*
X23760Y52838D01*
X23719Y52778D01*
X23687Y52712D01*
X23664Y52644D01*
X23650Y52572D01*
X23645Y52500D01*
X23650Y52428D01*
X23664Y52356D01*
X23687Y52288D01*
X23719Y52222D01*
X23760Y52162D01*
X23807Y52107D01*
X23862Y52060D01*
X23922Y52019D01*
X23988Y51987D01*
X24056Y51964D01*
X24128Y51950D01*
X24200Y51945D01*
X24272Y51950D01*
X24344Y51964D01*
X24412Y51987D01*
X24478Y52019D01*
X24538Y52060D01*
X24593Y52107D01*
X24603Y52120D01*
X24699Y52104D01*
X24839Y52071D01*
X24976Y52030D01*
X25109Y51980D01*
X25240Y51920D01*
X25366Y51853D01*
X25487Y51778D01*
X25604Y51694D01*
X25714Y51603D01*
X25812Y51512D01*
X25818Y51505D01*
X25825Y51499D01*
X25915Y51403D01*
X26003Y51293D01*
X26083Y51178D01*
X26155Y51057D01*
X26218Y50931D01*
X26272Y50801D01*
X26316Y50667D01*
X26351Y50531D01*
X26376Y50392D01*
X26391Y50252D01*
X26396Y50121D01*
X26395Y50112D01*
Y49279D01*
X26077D01*
Y48650D01*
X25823D01*
Y49279D01*
X25296D01*
Y49142D01*
X25234Y49100D01*
X25169Y49081D01*
X25128Y49108D01*
X25062Y49140D01*
X24994Y49164D01*
X24922Y49178D01*
X24850Y49183D01*
X24778Y49178D01*
X24706Y49164D01*
X24638Y49140D01*
X24572Y49108D01*
X24512Y49068D01*
X24457Y49020D01*
X24410Y48966D01*
X24369Y48905D01*
X24337Y48840D01*
X24314Y48771D01*
X24300Y48700D01*
X24295Y48628D01*
X24300Y48555D01*
X24314Y48484D01*
X24337Y48415D01*
X24369Y48350D01*
X24410Y48290D01*
X24457Y48235D01*
X24512Y48187D01*
X24572Y48147D01*
X24638Y48115D01*
X24706Y48091D01*
X24778Y48077D01*
X24850Y48072D01*
X24922Y48077D01*
X24994Y48091D01*
X25062Y48115D01*
X25128Y48147D01*
X25149Y48161D01*
X25270Y48114D01*
X25296Y48021D01*
Y47929D01*
X25296D01*
X25296Y47894D01*
Y47152D01*
X25279Y47136D01*
X25207Y47083D01*
X25131Y47037D01*
X25054Y47001D01*
X25038Y47015D01*
X24978Y47056D01*
X24912Y47088D01*
X24844Y47111D01*
X24772Y47125D01*
X24700Y47130D01*
X24628Y47125D01*
X24556Y47111D01*
X24488Y47088D01*
X24422Y47056D01*
X24362Y47015D01*
X24307Y46968D01*
X24260Y46913D01*
X24219Y46853D01*
X24187Y46787D01*
X24164Y46719D01*
X24150Y46647D01*
X24145Y46575D01*
X24150Y46503D01*
X24164Y46431D01*
X24187Y46363D01*
X24195Y46347D01*
Y44352D01*
X24195D01*
X24200Y44181D01*
X24214Y44011D01*
X24238Y43842D01*
X24271Y43674D01*
X24314Y43509D01*
X24366Y43346D01*
X24427Y43187D01*
X24496Y43031D01*
X24575Y42879D01*
X24662Y42732D01*
X24756Y42590D01*
X24859Y42453D01*
X24969Y42323D01*
X25087Y42199D01*
X25087Y42199D01*
X25623Y41662D01*
X24172Y40212D01*
X24152Y40231D01*
X24022Y40341D01*
X23885Y40444D01*
X23743Y40538D01*
X23596Y40625D01*
X23444Y40704D01*
X23288Y40773D01*
X23129Y40834D01*
X22966Y40886D01*
X22801Y40929D01*
X22633Y40962D01*
X22464Y40986D01*
X22300Y41000D01*
X22266Y41017D01*
X22204Y41038D01*
X22139Y41051D01*
X22073Y41055D01*
X18803D01*
X18787Y41063D01*
X18719Y41086D01*
X18647Y41100D01*
X18575Y41105D01*
X18503Y41100D01*
X18431Y41086D01*
X18431Y41086D01*
X18304Y41154D01*
Y41154D01*
X17081D01*
X17046Y41154D01*
X16954D01*
X16919Y41154D01*
X16452D01*
Y40500D01*
Y39846D01*
X16919D01*
X16954Y39846D01*
X17046D01*
X17081Y39846D01*
X18304D01*
Y39932D01*
X18431Y40014D01*
X18431Y40014D01*
X18503Y40000D01*
X18575Y39995D01*
X18647Y40000D01*
X18719Y40014D01*
X18787Y40037D01*
X18803Y40045D01*
X21906D01*
X21930Y40033D01*
X21992Y40012D01*
X22057Y39999D01*
X22123Y39995D01*
X22132Y39996D01*
X22256Y39991D01*
X22389Y39978D01*
X22520Y39957D01*
X22650Y39926D01*
X22777Y39888D01*
X22902Y39841D01*
X23023Y39786D01*
X23141Y39723D01*
X23254Y39653D01*
X23362Y39575D01*
X23378Y39563D01*
X23375Y39400D01*
X23309Y39322D01*
X23206Y39185D01*
X23112Y39043D01*
X23025Y38896D01*
X22946Y38744D01*
X22877Y38588D01*
X22816Y38429D01*
X22764Y38266D01*
X22721Y38101D01*
X22688Y37933D01*
X22664Y37764D01*
X22662Y37742D01*
X22535Y37747D01*
Y38265D01*
X22573Y38297D01*
X22620Y38352D01*
X22661Y38412D01*
X22693Y38478D01*
X22716Y38546D01*
X22730Y38618D01*
X22735Y38690D01*
X22730Y38762D01*
X22716Y38834D01*
X22693Y38902D01*
X22661Y38968D01*
X22620Y39028D01*
X22573Y39083D01*
X22518Y39130D01*
X22458Y39171D01*
X22392Y39203D01*
X22324Y39226D01*
X22252Y39240D01*
X22180Y39245D01*
X22108Y39240D01*
X22036Y39226D01*
X21968Y39203D01*
X21902Y39171D01*
X21842Y39130D01*
X21787Y39083D01*
X21740Y39028D01*
X21699Y38968D01*
X21667Y38902D01*
X21644Y38834D01*
X21630Y38762D01*
X21625Y38690D01*
X21630Y38618D01*
X21644Y38546D01*
X21667Y38478D01*
X21699Y38412D01*
X21740Y38352D01*
X21787Y38297D01*
X21825Y38265D01*
Y35232D01*
X21826Y35223D01*
X21821Y35089D01*
X21807Y34947D01*
X21784Y34806D01*
X21751Y34666D01*
X21710Y34529D01*
X21660Y34396D01*
X21600Y34265D01*
X21533Y34139D01*
X21481Y34055D01*
X21427Y34041D01*
X21386Y34041D01*
X21331Y34059D01*
X21315Y34082D01*
X21268Y34137D01*
X21213Y34184D01*
X21153Y34225D01*
X21087Y34257D01*
X21019Y34280D01*
X20947Y34294D01*
X20875Y34299D01*
X20803Y34294D01*
X20731Y34280D01*
X20663Y34257D01*
X20597Y34225D01*
X20537Y34184D01*
X20482Y34137D01*
X20435Y34082D01*
X20394Y34022D01*
X20362Y33956D01*
X20339Y33888D01*
X20325Y33816D01*
X20320Y33744D01*
X20325Y33671D01*
X20339Y33600D01*
X20362Y33531D01*
X20394Y33466D01*
X20435Y33406D01*
X20482Y33351D01*
X20537Y33303D01*
X20588Y33270D01*
X20598Y33256D01*
X20614Y33117D01*
X18973Y31475D01*
X18967Y31468D01*
X18869Y31377D01*
X18759Y31286D01*
X18642Y31202D01*
X18521Y31127D01*
X18395Y31060D01*
X18264Y31000D01*
X18131Y30950D01*
X17994Y30909D01*
X17854Y30876D01*
X17713Y30853D01*
X17571Y30839D01*
X17437Y30834D01*
X17428Y30835D01*
X16179D01*
X16169Y30865D01*
X16127Y30954D01*
X16076Y31038D01*
X16017Y31118D01*
X15951Y31191D01*
X15878Y31257D01*
X15798Y31316D01*
X15714Y31367D01*
X15625Y31409D01*
X15532Y31442D01*
X15436Y31466D01*
X15339Y31480D01*
X15240Y31485D01*
X15141Y31480D01*
X15044Y31466D01*
X14948Y31442D01*
X14855Y31409D01*
X14766Y31367D01*
X14682Y31316D01*
X14602Y31257D01*
X14529Y31191D01*
X14463Y31118D01*
X14404Y31038D01*
X14353Y30954D01*
X14311Y30865D01*
X14278Y30772D01*
X14254Y30676D01*
X14240Y30579D01*
X14235Y30480D01*
X14240Y30381D01*
X14254Y30284D01*
X14278Y30188D01*
X14311Y30095D01*
X14353Y30006D01*
X14404Y29922D01*
X14463Y29842D01*
X14529Y29769D01*
X14602Y29703D01*
X14682Y29644D01*
X14766Y29593D01*
X14855Y29551D01*
X14948Y29518D01*
X15044Y29494D01*
X15141Y29480D01*
X15240Y29475D01*
X15339Y29480D01*
X15436Y29494D01*
X15532Y29518D01*
X15625Y29551D01*
X15714Y29593D01*
X15798Y29644D01*
X15878Y29703D01*
X15951Y29769D01*
X16017Y29842D01*
X16076Y29922D01*
X16127Y30006D01*
X16169Y30095D01*
X16179Y30125D01*
X17428D01*
Y30125D01*
X17590Y30129D01*
X17752Y30143D01*
X17913Y30166D01*
X18072Y30197D01*
X18229Y30238D01*
X18384Y30287D01*
X18536Y30345D01*
X18684Y30412D01*
X18828Y30486D01*
X18968Y30569D01*
X19103Y30659D01*
X19233Y30756D01*
X19357Y30861D01*
X19475Y30973D01*
X19475Y30973D01*
X21687Y33185D01*
X21687Y33185D01*
X21799Y33303D01*
X21904Y33427D01*
X22001Y33557D01*
X22091Y33692D01*
X22174Y33832D01*
X22248Y33976D01*
X22315Y34124D01*
X22373Y34276D01*
X22496Y34245D01*
Y33856D01*
X22496Y33821D01*
X22496D01*
Y33729D01*
X22496D01*
Y33227D01*
X23150D01*
Y33100D01*
X23277D01*
Y32471D01*
X23495D01*
Y30925D01*
X23496Y30917D01*
X23491Y30787D01*
X23478Y30648D01*
X23455Y30511D01*
X23424Y30376D01*
X23383Y30243D01*
X23334Y30114D01*
X23277Y29987D01*
X23212Y29865D01*
X23138Y29747D01*
X23058Y29634D01*
X22969Y29527D01*
X22880Y29432D01*
X22874Y29426D01*
X22383Y28935D01*
X22377Y28928D01*
X22279Y28837D01*
X22169Y28746D01*
X22052Y28662D01*
X21931Y28587D01*
X21805Y28520D01*
X21674Y28460D01*
X21541Y28410D01*
X21404Y28369D01*
X21264Y28336D01*
X21123Y28313D01*
X20981Y28299D01*
X20847Y28294D01*
X20838Y28295D01*
X16244D01*
Y28944D01*
X14236D01*
Y26936D01*
X16244D01*
Y27585D01*
X20838D01*
Y27585D01*
X21000Y27589D01*
X21162Y27603D01*
X21323Y27626D01*
X21482Y27657D01*
X21639Y27698D01*
X21794Y27747D01*
X21946Y27805D01*
X22094Y27872D01*
X22238Y27946D01*
X22378Y28029D01*
X22513Y28119D01*
X22643Y28216D01*
X22767Y28321D01*
X22885Y28433D01*
X22885Y28433D01*
X23376Y28924D01*
X23376Y28924D01*
X23485Y29039D01*
X23588Y29161D01*
X23683Y29287D01*
X23771Y29419D01*
X23852Y29556D01*
X23925Y29697D01*
X23990Y29842D01*
X24046Y29990D01*
X24094Y30142D01*
X24134Y30295D01*
X24165Y30451D01*
X24187Y30608D01*
X24201Y30767D01*
X24205Y30925D01*
X24205D01*
Y33575D01*
X24205Y33575D01*
X24200Y33662D01*
X24194Y33697D01*
X24194Y33697D01*
X24194Y33698D01*
X24194Y33698D01*
X24194Y33698D01*
X24186Y33748D01*
X24162Y33832D01*
X24128Y33912D01*
X24086Y33989D01*
X24056Y34031D01*
X24056Y34031D01*
X24056Y34031D01*
X24036Y34060D01*
X23977Y34125D01*
X23977Y34125D01*
X23804Y34298D01*
Y35079D01*
X23804D01*
X23705Y35200D01*
X23700Y35272D01*
X23686Y35344D01*
X23663Y35412D01*
X23655Y35428D01*
Y37423D01*
X23654Y37432D01*
X23659Y37556D01*
X23672Y37689D01*
X23693Y37820D01*
X23724Y37950D01*
X23762Y38077D01*
X23809Y38202D01*
X23864Y38323D01*
X23927Y38441D01*
X23997Y38554D01*
X24075Y38662D01*
X24159Y38765D01*
X24244Y38856D01*
X24251Y38862D01*
X24532Y39143D01*
X26337Y40948D01*
X29281Y38004D01*
X29287Y37988D01*
X29295Y37972D01*
Y32278D01*
X29287Y32262D01*
X29264Y32194D01*
X29250Y32122D01*
X29245Y32050D01*
X29250Y31978D01*
X29264Y31906D01*
X29287Y31838D01*
X29306Y31798D01*
X29248Y31729D01*
X29213Y31707D01*
X29188Y31722D01*
X29071Y31806D01*
X28961Y31897D01*
X28863Y31988D01*
X28857Y31995D01*
X27945Y32907D01*
X27938Y32913D01*
X27847Y33011D01*
X27756Y33121D01*
X27672Y33238D01*
X27597Y33359D01*
X27530Y33485D01*
X27470Y33616D01*
X27420Y33749D01*
X27379Y33886D01*
X27346Y34026D01*
X27323Y34167D01*
X27309Y34309D01*
X27305Y34424D01*
X27343Y34457D01*
X27390Y34512D01*
X27431Y34572D01*
X27463Y34638D01*
X27486Y34706D01*
X27500Y34778D01*
X27505Y34850D01*
X27500Y34922D01*
X27486Y34994D01*
X27463Y35062D01*
X27431Y35128D01*
X27390Y35188D01*
X27343Y35243D01*
X27305Y35275D01*
Y36048D01*
X27305D01*
X27301Y36210D01*
X27287Y36372D01*
X27264Y36533D01*
X27233Y36692D01*
X27192Y36849D01*
X27143Y37004D01*
X27085Y37156D01*
X27018Y37304D01*
X26944Y37448D01*
X26861Y37588D01*
X26771Y37723D01*
X26674Y37853D01*
X26569Y37977D01*
X26457Y38095D01*
X26457Y38095D01*
X26002Y38550D01*
X26005Y38600D01*
X26000Y38672D01*
X25986Y38744D01*
X25963Y38812D01*
X25931Y38878D01*
X25890Y38938D01*
X25843Y38993D01*
X25788Y39040D01*
X25728Y39081D01*
X25662Y39113D01*
X25594Y39136D01*
X25522Y39150D01*
X25450Y39155D01*
X25378Y39150D01*
X25306Y39136D01*
X25238Y39113D01*
X25172Y39081D01*
X25112Y39040D01*
X25057Y38993D01*
X25010Y38938D01*
X24969Y38878D01*
X24937Y38812D01*
X24914Y38744D01*
X24900Y38672D01*
X24895Y38600D01*
X24900Y38528D01*
X24914Y38456D01*
X24937Y38388D01*
X24969Y38322D01*
X25010Y38262D01*
X25057Y38207D01*
X25112Y38160D01*
X25172Y38119D01*
X25238Y38087D01*
X25306Y38064D01*
X25378Y38050D01*
X25450Y38045D01*
X25500Y38048D01*
X25955Y37593D01*
X25962Y37587D01*
X26053Y37489D01*
X26144Y37379D01*
X26228Y37262D01*
X26303Y37141D01*
X26370Y37015D01*
X26430Y36884D01*
X26480Y36751D01*
X26521Y36614D01*
X26554Y36474D01*
X26577Y36333D01*
X26591Y36191D01*
X26596Y36057D01*
X26595Y36048D01*
Y35275D01*
X26557Y35243D01*
X26510Y35188D01*
X26469Y35128D01*
X26437Y35062D01*
X26414Y34994D01*
X26400Y34922D01*
X26395Y34850D01*
X26400Y34778D01*
X26414Y34706D01*
X26437Y34638D01*
X26469Y34572D01*
X26510Y34512D01*
X26557Y34457D01*
X26596Y34424D01*
X26599Y34290D01*
X26613Y34128D01*
X26636Y33967D01*
X26667Y33808D01*
X26708Y33651D01*
X26757Y33496D01*
X26815Y33344D01*
X26882Y33196D01*
X26956Y33052D01*
X27039Y32912D01*
X27129Y32777D01*
X27226Y32647D01*
X27331Y32523D01*
X27443Y32405D01*
X27443Y32405D01*
X28355Y31493D01*
X28355Y31493D01*
X28473Y31381D01*
X28597Y31276D01*
X28727Y31179D01*
X28862Y31089D01*
X29002Y31006D01*
X29146Y30932D01*
X29294Y30865D01*
X29446Y30807D01*
X29601Y30758D01*
X29758Y30717D01*
X29917Y30686D01*
X30078Y30663D01*
X30240Y30649D01*
X30402Y30645D01*
Y30645D01*
X31748D01*
Y30645D01*
X31910Y30649D01*
X32072Y30663D01*
X32233Y30686D01*
X32392Y30717D01*
X32549Y30758D01*
X32704Y30807D01*
X32856Y30865D01*
X33004Y30932D01*
X33148Y31006D01*
X33288Y31089D01*
X33423Y31179D01*
X33553Y31276D01*
X33677Y31381D01*
X33795Y31493D01*
X33795Y31493D01*
X35607Y33305D01*
X35607Y33305D01*
X35719Y33423D01*
X35824Y33547D01*
X35921Y33677D01*
X36011Y33812D01*
X36094Y33952D01*
X36168Y34096D01*
X36235Y34244D01*
X36293Y34396D01*
X36342Y34551D01*
X36383Y34708D01*
X36414Y34867D01*
X36437Y35028D01*
X36451Y35190D01*
X36455Y35352D01*
X36455D01*
Y40510D01*
X36454Y40519D01*
X36459Y40653D01*
X36473Y40795D01*
X36496Y40936D01*
X36529Y41076D01*
X36570Y41213D01*
X36620Y41347D01*
X36680Y41477D01*
X36747Y41603D01*
X36822Y41724D01*
X36906Y41841D01*
X36997Y41951D01*
X37094Y42056D01*
X37199Y42153D01*
X37309Y42244D01*
X37426Y42328D01*
X37547Y42403D01*
X37673Y42470D01*
X37803Y42530D01*
X37937Y42580D01*
X37941Y42581D01*
X37951Y42583D01*
X37953Y42584D01*
X37956Y42586D01*
X38074Y42621D01*
X38214Y42654D01*
X38355Y42677D01*
X38497Y42691D01*
X38631Y42696D01*
X38640Y42695D01*
X40760D01*
Y42695D01*
X40926Y42700D01*
X41091Y42715D01*
X41255Y42740D01*
X41417Y42775D01*
X41577Y42819D01*
X41734Y42873D01*
X41887Y42937D01*
X42036Y43009D01*
X42180Y43091D01*
X42319Y43181D01*
X42453Y43279D01*
X42580Y43385D01*
X42701Y43499D01*
X42701Y43499D01*
X42792Y43587D01*
X42819Y43612D01*
X42903Y43676D01*
X42992Y43733D01*
X43086Y43782D01*
X43184Y43823D01*
X43285Y43854D01*
X43389Y43877D01*
X43494Y43891D01*
X43592Y43896D01*
X43600Y43895D01*
X43776D01*
X43777Y43895D01*
X43884Y43899D01*
X43992Y43912D01*
X44098Y43933D01*
X44202Y43962D01*
X44304Y44000D01*
X44402Y44045D01*
X44496Y44098D01*
X44586Y44158D01*
X44672Y44225D01*
X44751Y44298D01*
X44751Y44299D01*
X44751Y44299D01*
X44822Y44377D01*
X44834Y44392D01*
X44887Y44460D01*
X44943Y44549D01*
X44992Y44643D01*
X45032Y44740D01*
X45064Y44841D01*
X45087Y44944D01*
X45098Y45029D01*
X45101Y45048D01*
X45105Y45154D01*
X45105D01*
Y47298D01*
X45105D01*
X45101Y47460D01*
X45087Y47622D01*
X45064Y47783D01*
X45033Y47942D01*
X44992Y48099D01*
X44943Y48254D01*
X44885Y48406D01*
X44818Y48554D01*
X44744Y48698D01*
X44661Y48838D01*
X44571Y48973D01*
X44474Y49103D01*
X44369Y49227D01*
X44257Y49345D01*
X44257Y49345D01*
X44161Y49441D01*
X44161Y49442D01*
X44060Y49535D01*
X43953Y49621D01*
X43885Y49669D01*
X43924Y49796D01*
X44184D01*
Y51804D01*
X42176D01*
Y50232D01*
X42049Y50145D01*
X42002Y50163D01*
X41878Y50219D01*
X41758Y50283D01*
X41644Y50354D01*
Y51804D01*
X39636D01*
Y49796D01*
X41205D01*
X41314Y49723D01*
X41437Y49650D01*
X41450Y49631D01*
X41464Y49493D01*
X41460Y49488D01*
X41419Y49428D01*
X41387Y49362D01*
X41364Y49294D01*
X41350Y49222D01*
X41345Y49150D01*
X41345Y49145D01*
X41222Y49078D01*
X41198Y49096D01*
X41114Y49147D01*
X41025Y49189D01*
X40932Y49222D01*
X40836Y49246D01*
X40739Y49260D01*
X40640Y49265D01*
X40541Y49260D01*
X40444Y49246D01*
X40348Y49222D01*
X40255Y49189D01*
X40166Y49147D01*
X40082Y49096D01*
X40002Y49037D01*
X39929Y48971D01*
X39863Y48898D01*
X39804Y48818D01*
X39753Y48734D01*
X39711Y48645D01*
X39678Y48552D01*
X39654Y48456D01*
X39640Y48359D01*
X39635Y48260D01*
X39640Y48161D01*
X39654Y48064D01*
X39678Y47968D01*
X39711Y47875D01*
X39753Y47786D01*
X39804Y47702D01*
X39863Y47622D01*
X39929Y47549D01*
X40002Y47483D01*
X40082Y47424D01*
X40166Y47373D01*
X40255Y47331D01*
X40348Y47298D01*
X40444Y47274D01*
X40541Y47260D01*
X40640Y47255D01*
X40739Y47260D01*
X40836Y47274D01*
X40932Y47298D01*
X41025Y47331D01*
X41114Y47373D01*
X41198Y47424D01*
X41278Y47483D01*
X41351Y47549D01*
X41417Y47622D01*
X41476Y47702D01*
X41527Y47786D01*
X41569Y47875D01*
X41602Y47968D01*
X41626Y48064D01*
X41640Y48161D01*
X41645Y48260D01*
X41640Y48359D01*
X41626Y48456D01*
X41606Y48536D01*
X41645Y48588D01*
X41709Y48630D01*
X41756Y48614D01*
X41828Y48600D01*
X41900Y48595D01*
X41972Y48600D01*
X42044Y48614D01*
X42112Y48637D01*
X42114Y48638D01*
X42209Y48559D01*
X42217Y48547D01*
X42194Y48456D01*
X42180Y48359D01*
X42175Y48260D01*
X42180Y48161D01*
X42194Y48064D01*
X42218Y47968D01*
X42251Y47875D01*
X42293Y47786D01*
X42344Y47702D01*
X42403Y47622D01*
X42469Y47549D01*
X42542Y47483D01*
X42622Y47424D01*
X42706Y47373D01*
X42795Y47331D01*
X42888Y47298D01*
X42984Y47274D01*
X43081Y47260D01*
X43180Y47255D01*
X43279Y47260D01*
X43376Y47274D01*
X43472Y47298D01*
X43565Y47331D01*
X43572Y47335D01*
X43657Y47243D01*
X43610Y47188D01*
X43569Y47128D01*
X43537Y47062D01*
X43514Y46994D01*
X43500Y46922D01*
X43495Y46850D01*
X43498Y46806D01*
X43445Y46742D01*
X43385Y46704D01*
X43376Y46706D01*
X43279Y46720D01*
X43180Y46725D01*
X43081Y46720D01*
X42984Y46706D01*
X42888Y46682D01*
X42795Y46649D01*
X42706Y46607D01*
X42622Y46556D01*
X42542Y46497D01*
X42469Y46431D01*
X42403Y46358D01*
X42344Y46278D01*
X42293Y46194D01*
X42251Y46105D01*
X42218Y46012D01*
X42194Y45916D01*
X42180Y45819D01*
X42175Y45720D01*
X42180Y45621D01*
X42194Y45524D01*
X42218Y45428D01*
X42251Y45335D01*
X42265Y45307D01*
X41853Y44895D01*
X41847Y44888D01*
X41749Y44797D01*
X41639Y44706D01*
X41522Y44622D01*
X41401Y44547D01*
X41275Y44480D01*
X41144Y44420D01*
X41011Y44370D01*
X40874Y44329D01*
X40734Y44296D01*
X40593Y44273D01*
X40451Y44259D01*
X40317Y44254D01*
X40308Y44255D01*
X40266D01*
X40224Y44314D01*
X40204Y44382D01*
X40231Y44422D01*
X40263Y44488D01*
X40286Y44556D01*
X40300Y44628D01*
X40301Y44640D01*
X40305Y44649D01*
X40400Y44728D01*
X40430Y44738D01*
X40444Y44734D01*
X40541Y44720D01*
X40640Y44715D01*
X40739Y44720D01*
X40836Y44734D01*
X40932Y44758D01*
X41025Y44791D01*
X41114Y44833D01*
X41198Y44884D01*
X41278Y44943D01*
X41351Y45009D01*
X41417Y45082D01*
X41476Y45162D01*
X41527Y45246D01*
X41569Y45335D01*
X41602Y45428D01*
X41626Y45524D01*
X41640Y45621D01*
X41645Y45720D01*
X41640Y45819D01*
X41626Y45916D01*
X41602Y46012D01*
X41569Y46105D01*
X41527Y46194D01*
X41476Y46278D01*
X41417Y46358D01*
X41351Y46431D01*
X41278Y46497D01*
X41198Y46556D01*
X41114Y46607D01*
X41025Y46649D01*
X40932Y46682D01*
X40836Y46706D01*
X40739Y46720D01*
X40640Y46725D01*
X40541Y46720D01*
X40444Y46706D01*
X40348Y46682D01*
X40255Y46649D01*
X40166Y46607D01*
X40082Y46556D01*
X40002Y46497D01*
X39929Y46431D01*
X39863Y46358D01*
X39804Y46278D01*
X39753Y46194D01*
X39711Y46105D01*
X39701Y46075D01*
X34422D01*
Y46075D01*
X34260Y46071D01*
X34098Y46057D01*
X33937Y46034D01*
X33778Y46003D01*
X33621Y45962D01*
X33466Y45913D01*
X33314Y45855D01*
X33166Y45788D01*
X33022Y45714D01*
X32882Y45631D01*
X32747Y45541D01*
X32617Y45444D01*
X32493Y45339D01*
X32375Y45227D01*
X32375Y45227D01*
X31949Y44801D01*
X29950Y42802D01*
X29900Y42805D01*
X29828Y42800D01*
X29756Y42786D01*
X29688Y42763D01*
X29622Y42731D01*
X29562Y42690D01*
X29507Y42643D01*
X29460Y42588D01*
X29419Y42528D01*
X29387Y42462D01*
X29364Y42394D01*
X29350Y42322D01*
X29345Y42250D01*
X29350Y42178D01*
X29364Y42106D01*
X29387Y42038D01*
X29419Y41972D01*
X29460Y41912D01*
X29507Y41857D01*
X29562Y41810D01*
X29622Y41769D01*
X29688Y41737D01*
X29756Y41714D01*
X29828Y41700D01*
X29900Y41695D01*
X29972Y41700D01*
X30044Y41714D01*
X30112Y41737D01*
X30178Y41769D01*
X30238Y41810D01*
X30293Y41857D01*
X30340Y41912D01*
X30381Y41972D01*
X30413Y42038D01*
X30436Y42106D01*
X30450Y42178D01*
X30455Y42250D01*
X30452Y42300D01*
X32451Y44299D01*
X32877Y44725D01*
X32883Y44732D01*
X32981Y44823D01*
X33091Y44914D01*
X33208Y44998D01*
X33329Y45073D01*
X33455Y45140D01*
X33586Y45200D01*
X33719Y45250D01*
X33856Y45291D01*
X33996Y45324D01*
X34137Y45347D01*
X34279Y45361D01*
X34413Y45366D01*
X34422Y45365D01*
X34753D01*
X34811Y45238D01*
X34770Y45178D01*
X34738Y45112D01*
X34715Y45044D01*
X34701Y44972D01*
X34696Y44900D01*
X34701Y44828D01*
X34715Y44756D01*
X34738Y44688D01*
X34770Y44622D01*
X34811Y44562D01*
X34859Y44507D01*
X34913Y44460D01*
X34974Y44419D01*
X35039Y44387D01*
X35107Y44364D01*
X35179Y44350D01*
X35251Y44345D01*
X35324Y44350D01*
X35395Y44364D01*
X35464Y44387D01*
X35529Y44419D01*
X35589Y44460D01*
X35644Y44507D01*
X35692Y44562D01*
X35732Y44622D01*
X35764Y44688D01*
X35787Y44756D01*
X35802Y44828D01*
X35806Y44900D01*
X35802Y44972D01*
X35787Y45044D01*
X35764Y45112D01*
X35732Y45178D01*
X35692Y45238D01*
X35749Y45365D01*
X36546D01*
X36597Y45308D01*
X36629Y45238D01*
X36614Y45194D01*
X36600Y45122D01*
X36595Y45050D01*
X36600Y44978D01*
X36614Y44906D01*
X36637Y44838D01*
X36669Y44772D01*
X36710Y44712D01*
X36757Y44657D01*
X36812Y44610D01*
X36872Y44569D01*
X36938Y44537D01*
X37006Y44514D01*
X37078Y44500D01*
X37150Y44495D01*
X37222Y44500D01*
X37294Y44514D01*
X37362Y44537D01*
X37428Y44569D01*
X37488Y44610D01*
X37543Y44657D01*
X37590Y44712D01*
X37631Y44772D01*
X37663Y44838D01*
X37686Y44906D01*
X37700Y44978D01*
X37705Y45050D01*
X37700Y45122D01*
X37686Y45194D01*
X37671Y45238D01*
X37703Y45308D01*
X37754Y45365D01*
X39602D01*
X39615Y45238D01*
X39606Y45236D01*
X39538Y45213D01*
X39472Y45181D01*
X39412Y45140D01*
X39357Y45093D01*
X39310Y45038D01*
X39269Y44978D01*
X39237Y44912D01*
X39214Y44844D01*
X39200Y44772D01*
X39195Y44700D01*
X39200Y44628D01*
X39214Y44556D01*
X39237Y44488D01*
X39269Y44422D01*
X39296Y44382D01*
X39276Y44314D01*
X39234Y44255D01*
X36302D01*
Y44255D01*
X36140Y44251D01*
X35978Y44237D01*
X35817Y44214D01*
X35658Y44183D01*
X35501Y44142D01*
X35346Y44093D01*
X35194Y44035D01*
X35046Y43968D01*
X34902Y43894D01*
X34762Y43811D01*
X34627Y43721D01*
X34497Y43624D01*
X34373Y43519D01*
X34255Y43407D01*
X34255Y43407D01*
X34255Y43407D01*
X34054Y43207D01*
X33965Y43117D01*
X33965Y43117D01*
X33862Y43008D01*
X33767Y42892D01*
X33680Y42770D01*
X33601Y42643D01*
X33531Y42511D01*
X33469Y42375D01*
X33416Y42235D01*
X33373Y42092D01*
X33339Y41946D01*
X33314Y41798D01*
X33300Y41650D01*
X33295Y41500D01*
X33295D01*
Y41102D01*
X33296Y41093D01*
X33291Y40959D01*
X33277Y40817D01*
X33254Y40676D01*
X33221Y40536D01*
X33180Y40399D01*
X33130Y40266D01*
X33070Y40135D01*
X33003Y40009D01*
X32928Y39888D01*
X32844Y39771D01*
X32753Y39661D01*
X32662Y39563D01*
X32655Y39557D01*
X32293Y39195D01*
X32287Y39188D01*
X32189Y39097D01*
X32079Y39006D01*
X31962Y38922D01*
X31841Y38847D01*
X31715Y38780D01*
X31584Y38720D01*
X31451Y38670D01*
X31314Y38629D01*
X31174Y38596D01*
X31033Y38573D01*
X30891Y38559D01*
X30757Y38554D01*
X30748Y38555D01*
X30305D01*
Y39241D01*
X30932Y39868D01*
X30966Y39906D01*
X31169D01*
X31204Y39906D01*
X31296D01*
X31331Y39906D01*
X31798D01*
Y40560D01*
Y41214D01*
X31331D01*
X31296Y41214D01*
X31204D01*
X31169Y41214D01*
X29946D01*
Y41124D01*
X29864Y41061D01*
X29819Y41043D01*
X29764Y41061D01*
X29693Y41075D01*
X29621Y41080D01*
X29548Y41075D01*
X29477Y41061D01*
X29408Y41038D01*
X29343Y41006D01*
X29283Y40965D01*
X29228Y40918D01*
X29180Y40863D01*
X29140Y40803D01*
X29108Y40737D01*
X29084Y40669D01*
X29070Y40597D01*
X29066Y40525D01*
X29070Y40453D01*
X29084Y40381D01*
X29108Y40313D01*
X29140Y40247D01*
X29180Y40187D01*
X29228Y40132D01*
X29283Y40085D01*
X29343Y40044D01*
X29408Y40012D01*
X29453Y39997D01*
X29484Y39929D01*
X29492Y39856D01*
X29443Y39807D01*
X29399Y39757D01*
X29363Y39703D01*
X29333Y39643D01*
X29312Y39581D01*
X29175Y39539D01*
X26695Y42020D01*
X25801Y42913D01*
X25794Y42919D01*
X25709Y43010D01*
X25625Y43113D01*
X25547Y43221D01*
X25477Y43334D01*
X25414Y43452D01*
X25359Y43573D01*
X25312Y43698D01*
X25274Y43825D01*
X25243Y43955D01*
X25222Y44086D01*
X25209Y44219D01*
X25204Y44343D01*
X25205Y44352D01*
Y46301D01*
X25321Y46343D01*
X25437Y46397D01*
X25548Y46459D01*
X25654Y46530D01*
X25754Y46609D01*
X25821Y46671D01*
X26604D01*
Y47352D01*
X26726Y47474D01*
X26726Y47474D01*
X26802Y47557D01*
X26810Y47566D01*
X26871Y47647D01*
X26932Y47742D01*
X26984Y47842D01*
X27027Y47946D01*
X27061Y48054D01*
X27086Y48164D01*
X27099Y48265D01*
X27100Y48276D01*
X27105Y48389D01*
X27105D01*
Y50112D01*
X27105D01*
X27100Y50274D01*
X27086Y50435D01*
X27061Y50595D01*
X27027Y50753D01*
X26984Y50909D01*
X26931Y51062D01*
X26869Y51212D01*
X26798Y51358D01*
X26719Y51499D01*
X26631Y51635D01*
X26535Y51765D01*
X26431Y51889D01*
X26320Y52007D01*
X26320Y52007D01*
X26202Y52119D01*
X26078Y52224D01*
X25948Y52321D01*
X25813Y52411D01*
X25673Y52494D01*
X25529Y52568D01*
X25381Y52635D01*
X25229Y52693D01*
X25074Y52742D01*
X24917Y52783D01*
X24758Y52814D01*
X24646Y52830D01*
X24640Y52838D01*
X24593Y52893D01*
X24538Y52940D01*
X24478Y52981D01*
X24412Y53013D01*
X24344Y53036D01*
X24272Y53050D01*
X24200Y53055D01*
D02*
G37*
G36*
X22830Y49183D02*
X22758Y49178D01*
X22686Y49164D01*
X22618Y49140D01*
X22552Y49108D01*
X22492Y49068D01*
X22437Y49020D01*
X22390Y48966D01*
X22349Y48905D01*
X22317Y48840D01*
X22294Y48771D01*
X22280Y48700D01*
X22275Y48628D01*
X22280Y48555D01*
X22294Y48484D01*
X22317Y48415D01*
X22349Y48350D01*
X22390Y48290D01*
X22437Y48235D01*
X22475Y48202D01*
Y46864D01*
X22348Y46785D01*
X22344Y46786D01*
X22272Y46800D01*
X22200Y46805D01*
X22128Y46800D01*
X22056Y46786D01*
X22026Y46776D01*
X21854Y46948D01*
Y47819D01*
X21854Y47854D01*
Y47946D01*
X21854Y47981D01*
Y48448D01*
X20546D01*
Y47981D01*
X20546Y47946D01*
Y47854D01*
X20546Y47819D01*
Y46596D01*
X21202D01*
X21657Y46141D01*
X21664Y46106D01*
X21687Y46038D01*
X21719Y45972D01*
X21760Y45912D01*
X21807Y45857D01*
X21862Y45810D01*
X21922Y45769D01*
X21988Y45737D01*
X22056Y45714D01*
X22128Y45700D01*
X22200Y45695D01*
X22272Y45700D01*
X22344Y45714D01*
X22348Y45715D01*
X22475Y45636D01*
Y43015D01*
X22437Y42983D01*
X22390Y42928D01*
X22349Y42868D01*
X22317Y42802D01*
X22294Y42734D01*
X22280Y42662D01*
X22275Y42590D01*
X22280Y42518D01*
X22294Y42446D01*
X22317Y42378D01*
X22349Y42312D01*
X22390Y42252D01*
X22437Y42197D01*
X22492Y42150D01*
X22552Y42109D01*
X22618Y42077D01*
X22686Y42054D01*
X22758Y42040D01*
X22830Y42035D01*
X22902Y42040D01*
X22974Y42054D01*
X23042Y42077D01*
X23108Y42109D01*
X23168Y42150D01*
X23223Y42197D01*
X23270Y42252D01*
X23311Y42312D01*
X23343Y42378D01*
X23366Y42446D01*
X23380Y42518D01*
X23385Y42590D01*
X23380Y42662D01*
X23366Y42734D01*
X23343Y42802D01*
X23311Y42868D01*
X23270Y42928D01*
X23223Y42983D01*
X23185Y43015D01*
Y48202D01*
X23223Y48235D01*
X23270Y48290D01*
X23311Y48350D01*
X23343Y48415D01*
X23366Y48484D01*
X23380Y48555D01*
X23385Y48628D01*
X23380Y48700D01*
X23366Y48771D01*
X23343Y48840D01*
X23311Y48905D01*
X23270Y48966D01*
X23223Y49020D01*
X23168Y49068D01*
X23108Y49108D01*
X23042Y49140D01*
X22974Y49164D01*
X22902Y49178D01*
X22830Y49183D01*
D02*
G37*
G36*
X48133Y46737D02*
X47625D01*
X47525Y46732D01*
X47427Y46718D01*
X47330Y46693D01*
X47236Y46660D01*
X47145Y46617D01*
X47060Y46566D01*
X46980Y46506D01*
X46906Y46439D01*
X46839Y46365D01*
X46779Y46285D01*
X46728Y46200D01*
X46685Y46109D01*
X46652Y46015D01*
X46627Y45918D01*
X46617Y45847D01*
X48133D01*
Y46737D01*
D02*
G37*
G36*
X635D02*
X127D01*
Y45847D01*
X1643D01*
X1633Y45918D01*
X1608Y46015D01*
X1575Y46109D01*
X1532Y46200D01*
X1481Y46285D01*
X1421Y46365D01*
X1354Y46439D01*
X1280Y46506D01*
X1200Y46566D01*
X1115Y46617D01*
X1024Y46660D01*
X930Y46693D01*
X833Y46718D01*
X735Y46732D01*
X635Y46737D01*
D02*
G37*
G36*
X48133Y45593D02*
X46617D01*
X46627Y45522D01*
X46652Y45425D01*
X46685Y45331D01*
X46728Y45240D01*
X46779Y45155D01*
X46839Y45075D01*
X46906Y45001D01*
X46980Y44934D01*
X47060Y44874D01*
X47145Y44823D01*
X47236Y44780D01*
X47330Y44747D01*
X47427Y44722D01*
X47525Y44708D01*
X47625Y44703D01*
X48133D01*
Y45593D01*
D02*
G37*
G36*
X1643D02*
X127D01*
Y44703D01*
X635D01*
X735Y44708D01*
X833Y44722D01*
X930Y44747D01*
X1024Y44780D01*
X1115Y44823D01*
X1200Y44874D01*
X1280Y44934D01*
X1354Y45001D01*
X1421Y45075D01*
X1481Y45155D01*
X1532Y45240D01*
X1575Y45331D01*
X1608Y45425D01*
X1633Y45522D01*
X1643Y45593D01*
D02*
G37*
G36*
X17875Y43605D02*
X17803Y43600D01*
X17731Y43586D01*
X17663Y43563D01*
X17647Y43555D01*
X13707D01*
Y43555D01*
X13536Y43550D01*
X13366Y43536D01*
X13197Y43512D01*
X13029Y43479D01*
X12864Y43436D01*
X12701Y43384D01*
X12542Y43323D01*
X12386Y43254D01*
X12234Y43175D01*
X12087Y43088D01*
X11945Y42994D01*
X11808Y42891D01*
X11678Y42781D01*
X11554Y42663D01*
X11554Y42663D01*
X11162Y42271D01*
X11162Y42271D01*
X11044Y42147D01*
X10934Y42017D01*
X10831Y41880D01*
X10737Y41738D01*
X10650Y41591D01*
X10571Y41439D01*
X10502Y41283D01*
X10441Y41124D01*
X10389Y40961D01*
X10346Y40796D01*
X10313Y40628D01*
X10289Y40459D01*
X10275Y40289D01*
X10270Y40118D01*
X10270D01*
Y35953D01*
X10264Y35934D01*
X10250Y35863D01*
X10245Y35791D01*
X10250Y35718D01*
X10264Y35647D01*
X10270Y35629D01*
Y21427D01*
X10270D01*
X10275Y21256D01*
X10289Y21086D01*
X10313Y20917D01*
X10346Y20749D01*
X10389Y20584D01*
X10441Y20421D01*
X10502Y20262D01*
X10571Y20106D01*
X10650Y19954D01*
X10737Y19807D01*
X10831Y19665D01*
X10934Y19528D01*
X11044Y19398D01*
X11162Y19274D01*
X11162Y19274D01*
X12299Y18137D01*
X12299Y18137D01*
X12423Y18019D01*
X12553Y17909D01*
X12690Y17806D01*
X12832Y17712D01*
X12979Y17625D01*
X13131Y17546D01*
X13287Y17477D01*
X13446Y17416D01*
X13609Y17364D01*
X13774Y17321D01*
X13942Y17288D01*
X14111Y17264D01*
X14281Y17250D01*
X14452Y17245D01*
Y17245D01*
X27072D01*
X27088Y17237D01*
X27156Y17214D01*
X27228Y17200D01*
X27300Y17195D01*
X27372Y17200D01*
X27444Y17214D01*
X27512Y17237D01*
X27578Y17269D01*
X27638Y17310D01*
X27693Y17357D01*
X27740Y17412D01*
X27781Y17472D01*
X27813Y17538D01*
X27836Y17606D01*
X27850Y17678D01*
X27855Y17750D01*
X27850Y17822D01*
X27836Y17894D01*
X27813Y17962D01*
X27781Y18028D01*
X27740Y18088D01*
X27693Y18143D01*
X27638Y18190D01*
X27578Y18231D01*
X27512Y18263D01*
X27444Y18286D01*
X27372Y18300D01*
X27300Y18305D01*
X27228Y18300D01*
X27156Y18286D01*
X27088Y18263D01*
X27072Y18255D01*
X14452D01*
X14443Y18254D01*
X14319Y18259D01*
X14186Y18272D01*
X14055Y18293D01*
X13925Y18324D01*
X13798Y18362D01*
X13673Y18409D01*
X13552Y18464D01*
X13434Y18527D01*
X13321Y18597D01*
X13213Y18675D01*
X13110Y18759D01*
X13019Y18844D01*
X13013Y18851D01*
X11876Y19988D01*
X11869Y19994D01*
X11784Y20085D01*
X11700Y20188D01*
X11622Y20296D01*
X11552Y20409D01*
X11489Y20527D01*
X11434Y20648D01*
X11387Y20773D01*
X11349Y20900D01*
X11318Y21030D01*
X11297Y21161D01*
X11284Y21294D01*
X11279Y21418D01*
X11280Y21427D01*
Y35512D01*
X11281Y35513D01*
X11313Y35578D01*
X11336Y35647D01*
X11350Y35718D01*
X11355Y35791D01*
X11350Y35863D01*
X11336Y35934D01*
X11313Y36003D01*
X11281Y36068D01*
X11280Y36069D01*
Y40118D01*
X11279Y40127D01*
X11284Y40251D01*
X11297Y40384D01*
X11318Y40515D01*
X11349Y40645D01*
X11387Y40773D01*
X11434Y40897D01*
X11489Y41019D01*
X11552Y41136D01*
X11622Y41249D01*
X11700Y41357D01*
X11784Y41460D01*
X11869Y41551D01*
X11876Y41557D01*
X12268Y41949D01*
X12274Y41956D01*
X12365Y42041D01*
X12468Y42125D01*
X12576Y42203D01*
X12689Y42273D01*
X12806Y42336D01*
X12928Y42391D01*
X13052Y42438D01*
X13180Y42476D01*
X13310Y42507D01*
X13441Y42528D01*
X13574Y42541D01*
X13698Y42546D01*
X13707Y42545D01*
X17647D01*
X17663Y42537D01*
X17731Y42514D01*
X17803Y42500D01*
X17875Y42495D01*
X17947Y42500D01*
X18019Y42514D01*
X18087Y42537D01*
X18153Y42569D01*
X18213Y42610D01*
X18268Y42657D01*
X18315Y42712D01*
X18356Y42772D01*
X18388Y42838D01*
X18411Y42906D01*
X18425Y42978D01*
X18430Y43050D01*
X18425Y43122D01*
X18411Y43194D01*
X18388Y43262D01*
X18356Y43328D01*
X18315Y43388D01*
X18268Y43443D01*
X18213Y43490D01*
X18153Y43531D01*
X18087Y43563D01*
X18019Y43586D01*
X17947Y43600D01*
X17875Y43605D01*
D02*
G37*
G36*
X635Y41657D02*
X127D01*
Y40767D01*
X1643D01*
X1633Y40838D01*
X1608Y40935D01*
X1575Y41029D01*
X1532Y41120D01*
X1481Y41205D01*
X1421Y41285D01*
X1354Y41359D01*
X1280Y41426D01*
X1200Y41486D01*
X1115Y41537D01*
X1024Y41580D01*
X930Y41613D01*
X833Y41638D01*
X735Y41652D01*
X635Y41657D01*
D02*
G37*
G36*
X32052Y41214D02*
Y40687D01*
X32554D01*
Y41214D01*
X32052D01*
D02*
G37*
G36*
X16198Y41154D02*
X15696D01*
Y40627D01*
X16198D01*
Y41154D01*
D02*
G37*
G36*
X32554Y40433D02*
X32052D01*
Y39906D01*
X32554D01*
Y40433D01*
D02*
G37*
G36*
X16198Y40373D02*
X15696D01*
Y39846D01*
X16198D01*
Y40373D01*
D02*
G37*
G36*
X1643Y40513D02*
X127D01*
Y39623D01*
X635D01*
X735Y39628D01*
X833Y39642D01*
X930Y39667D01*
X1024Y39700D01*
X1115Y39743D01*
X1200Y39794D01*
X1280Y39854D01*
X1354Y39921D01*
X1421Y39995D01*
X1481Y40075D01*
X1532Y40160D01*
X1575Y40251D01*
X1608Y40345D01*
X1633Y40442D01*
X1643Y40513D01*
D02*
G37*
G36*
X48133Y39117D02*
X47625D01*
X47525Y39112D01*
X47427Y39098D01*
X47330Y39073D01*
X47236Y39040D01*
X47145Y38997D01*
X47060Y38946D01*
X46980Y38886D01*
X46906Y38819D01*
X46839Y38745D01*
X46779Y38665D01*
X46728Y38580D01*
X46685Y38489D01*
X46652Y38395D01*
X46627Y38298D01*
X46617Y38227D01*
X48133D01*
Y39117D01*
D02*
G37*
G36*
Y37973D02*
X46617D01*
X46627Y37902D01*
X46652Y37805D01*
X46685Y37711D01*
X46728Y37620D01*
X46779Y37535D01*
X46839Y37455D01*
X46906Y37381D01*
X46980Y37314D01*
X47060Y37254D01*
X47145Y37203D01*
X47236Y37160D01*
X47330Y37127D01*
X47427Y37102D01*
X47525Y37088D01*
X47625Y37083D01*
X48133D01*
Y37973D01*
D02*
G37*
G36*
X17000Y38905D02*
X16928Y38900D01*
X16856Y38886D01*
X16788Y38863D01*
X16722Y38831D01*
X16662Y38790D01*
X16607Y38743D01*
X16560Y38688D01*
X16519Y38628D01*
X16487Y38562D01*
X16464Y38494D01*
X16450Y38422D01*
X16445Y38350D01*
X16450Y38278D01*
X16464Y38206D01*
X16487Y38138D01*
X16519Y38072D01*
X16560Y38012D01*
X16607Y37957D01*
X16662Y37910D01*
X16722Y37869D01*
X16788Y37837D01*
X16856Y37814D01*
X16928Y37800D01*
X17000Y37795D01*
X17072Y37800D01*
X17144Y37814D01*
X17212Y37837D01*
X17273Y37867D01*
X17305Y37854D01*
X17377Y37783D01*
X17364Y37744D01*
X17350Y37672D01*
X17345Y37600D01*
X17350Y37528D01*
X17364Y37456D01*
X17387Y37388D01*
X17419Y37322D01*
X17460Y37262D01*
X17507Y37207D01*
X17562Y37160D01*
X17622Y37119D01*
X17688Y37087D01*
X17756Y37064D01*
X17828Y37050D01*
X17900Y37045D01*
X17972Y37050D01*
X18044Y37064D01*
X18112Y37087D01*
X18178Y37119D01*
X18238Y37160D01*
X18293Y37207D01*
X18340Y37262D01*
X18381Y37322D01*
X18413Y37388D01*
X18436Y37456D01*
X18450Y37528D01*
X18455Y37600D01*
X18450Y37672D01*
X18436Y37744D01*
X18413Y37812D01*
X18381Y37878D01*
X18340Y37938D01*
X18293Y37993D01*
X18238Y38040D01*
X18178Y38081D01*
X18112Y38113D01*
X18044Y38136D01*
X17972Y38150D01*
X17900Y38155D01*
X17828Y38150D01*
X17756Y38136D01*
X17688Y38113D01*
X17627Y38083D01*
X17595Y38096D01*
X17523Y38167D01*
X17536Y38206D01*
X17550Y38278D01*
X17555Y38350D01*
X17550Y38422D01*
X17536Y38494D01*
X17513Y38562D01*
X17481Y38628D01*
X17440Y38688D01*
X17393Y38743D01*
X17338Y38790D01*
X17278Y38831D01*
X17212Y38863D01*
X17144Y38886D01*
X17072Y38900D01*
X17000Y38905D01*
D02*
G37*
G36*
X17300Y36955D02*
X17228Y36950D01*
X17156Y36936D01*
X17088Y36913D01*
X17022Y36881D01*
X16962Y36840D01*
X16907Y36793D01*
X16860Y36738D01*
X16819Y36678D01*
X16787Y36612D01*
X16764Y36544D01*
X16750Y36472D01*
X16745Y36400D01*
X16750Y36328D01*
X16764Y36256D01*
X16787Y36188D01*
X16819Y36122D01*
X16860Y36062D01*
X16907Y36007D01*
X16962Y35960D01*
X17022Y35919D01*
X17088Y35887D01*
X17156Y35864D01*
X17228Y35850D01*
X17300Y35845D01*
X17372Y35850D01*
X17444Y35864D01*
X17512Y35887D01*
X17578Y35919D01*
X17638Y35960D01*
X17693Y36007D01*
X17740Y36062D01*
X17781Y36122D01*
X17813Y36188D01*
X17836Y36256D01*
X17850Y36328D01*
X17855Y36400D01*
X17850Y36472D01*
X17836Y36544D01*
X17813Y36612D01*
X17781Y36678D01*
X17740Y36738D01*
X17693Y36793D01*
X17638Y36840D01*
X17578Y36881D01*
X17512Y36913D01*
X17444Y36936D01*
X17372Y36950D01*
X17300Y36955D01*
D02*
G37*
G36*
X15300Y38473D02*
X15228Y38468D01*
X15156Y38454D01*
X15088Y38430D01*
X15022Y38398D01*
X14962Y38358D01*
X14907Y38310D01*
X14860Y38255D01*
X14819Y38195D01*
X14787Y38130D01*
X14764Y38061D01*
X14750Y37990D01*
X14745Y37917D01*
X14750Y37845D01*
X14764Y37774D01*
X14787Y37705D01*
X14819Y37640D01*
X14860Y37579D01*
X14907Y37525D01*
X14945Y37492D01*
Y37227D01*
X14945D01*
X14949Y37065D01*
X14963Y36903D01*
X14986Y36742D01*
X15017Y36583D01*
X15058Y36426D01*
X15107Y36271D01*
X15165Y36119D01*
X15232Y35971D01*
X15306Y35827D01*
X15389Y35687D01*
X15479Y35552D01*
X15576Y35422D01*
X15681Y35298D01*
X15791Y35182D01*
X15793Y35180D01*
X15879Y35094D01*
X15879D01*
X15883Y35090D01*
X15977Y35002D01*
X16080Y34917D01*
X16189Y34840D01*
X16302Y34769D01*
X16420Y34706D01*
X16542Y34651D01*
X16668Y34603D01*
X16796Y34565D01*
X16926Y34534D01*
X17058Y34512D01*
X17191Y34499D01*
X17325Y34495D01*
X17326Y34495D01*
X17444Y34499D01*
X17563Y34512D01*
X17681Y34533D01*
X17796Y34563D01*
X17910Y34600D01*
X18020Y34646D01*
X18127Y34700D01*
X18230Y34761D01*
X18328Y34829D01*
X18421Y34904D01*
X18508Y34985D01*
X18508Y34985D01*
X18700Y35177D01*
X18750Y35174D01*
X18822Y35178D01*
X18894Y35193D01*
X18962Y35216D01*
X19028Y35248D01*
X19088Y35288D01*
X19143Y35336D01*
X19190Y35391D01*
X19231Y35451D01*
X19263Y35516D01*
X19286Y35585D01*
X19300Y35656D01*
X19305Y35729D01*
X19300Y35801D01*
X19286Y35873D01*
X19263Y35941D01*
X19231Y36007D01*
X19190Y36067D01*
X19143Y36121D01*
X19088Y36169D01*
X19028Y36210D01*
X18962Y36242D01*
X18894Y36265D01*
X18822Y36279D01*
X18750Y36284D01*
X18678Y36279D01*
X18606Y36265D01*
X18538Y36242D01*
X18472Y36210D01*
X18412Y36169D01*
X18357Y36121D01*
X18310Y36067D01*
X18269Y36007D01*
X18237Y35941D01*
X18214Y35873D01*
X18200Y35801D01*
X18195Y35729D01*
X18198Y35679D01*
X18006Y35487D01*
X18006Y35487D01*
X18006Y35487D01*
X17913Y35405D01*
X17861Y35367D01*
X17780Y35318D01*
X17694Y35278D01*
X17605Y35246D01*
X17513Y35223D01*
X17420Y35209D01*
X17333Y35204D01*
X17325Y35205D01*
X17318Y35205D01*
X17220Y35208D01*
X17116Y35221D01*
X17013Y35241D01*
X16912Y35270D01*
X16814Y35306D01*
X16719Y35350D01*
X16627Y35401D01*
X16540Y35459D01*
X16458Y35524D01*
X16386Y35591D01*
X16381Y35596D01*
X16295Y35682D01*
X16288Y35688D01*
X16197Y35786D01*
X16106Y35896D01*
X16022Y36013D01*
X15947Y36134D01*
X15880Y36260D01*
X15820Y36391D01*
X15770Y36524D01*
X15729Y36661D01*
X15696Y36801D01*
X15673Y36942D01*
X15659Y37084D01*
X15654Y37218D01*
X15655Y37227D01*
Y37492D01*
X15693Y37525D01*
X15740Y37579D01*
X15781Y37640D01*
X15813Y37705D01*
X15836Y37774D01*
X15850Y37845D01*
X15855Y37917D01*
X15850Y37990D01*
X15836Y38061D01*
X15813Y38130D01*
X15781Y38195D01*
X15740Y38255D01*
X15693Y38310D01*
X15638Y38358D01*
X15578Y38398D01*
X15512Y38430D01*
X15444Y38454D01*
X15372Y38468D01*
X15300Y38473D01*
D02*
G37*
G36*
X41644Y36564D02*
X39636D01*
Y34556D01*
X41644D01*
Y36564D01*
D02*
G37*
G36*
X17325Y34330D02*
X17253Y34325D01*
X17181Y34311D01*
X17113Y34288D01*
X17047Y34256D01*
X16987Y34215D01*
X16932Y34168D01*
X16885Y34113D01*
X16844Y34053D01*
X16812Y33987D01*
X16789Y33919D01*
X16775Y33847D01*
X16770Y33775D01*
X16775Y33703D01*
X16789Y33631D01*
X16812Y33563D01*
X16844Y33497D01*
X16885Y33437D01*
X16932Y33382D01*
X16987Y33335D01*
X17047Y33294D01*
X17113Y33262D01*
X17181Y33239D01*
X17253Y33225D01*
X17325Y33220D01*
X17397Y33225D01*
X17469Y33239D01*
X17537Y33262D01*
X17603Y33294D01*
X17663Y33335D01*
X17718Y33382D01*
X17765Y33437D01*
X17806Y33497D01*
X17838Y33563D01*
X17861Y33631D01*
X17875Y33703D01*
X17880Y33775D01*
X17875Y33847D01*
X17861Y33919D01*
X17838Y33987D01*
X17806Y34053D01*
X17765Y34113D01*
X17718Y34168D01*
X17663Y34215D01*
X17603Y34256D01*
X17537Y34288D01*
X17469Y34311D01*
X17397Y34325D01*
X17325Y34330D01*
D02*
G37*
G36*
X48133Y34037D02*
X47625D01*
X47525Y34032D01*
X47427Y34018D01*
X47330Y33993D01*
X47236Y33960D01*
X47145Y33917D01*
X47060Y33866D01*
X46980Y33806D01*
X46906Y33739D01*
X46839Y33665D01*
X46779Y33585D01*
X46728Y33500D01*
X46685Y33409D01*
X46652Y33315D01*
X46627Y33218D01*
X46617Y33147D01*
X48133D01*
Y34037D01*
D02*
G37*
G36*
X23023Y32973D02*
X22496D01*
Y32471D01*
X23023D01*
Y32973D01*
D02*
G37*
G36*
X48133Y32893D02*
X46617D01*
X46627Y32822D01*
X46652Y32725D01*
X46685Y32631D01*
X46728Y32540D01*
X46779Y32455D01*
X46839Y32375D01*
X46906Y32301D01*
X46980Y32234D01*
X47060Y32174D01*
X47145Y32123D01*
X47236Y32080D01*
X47330Y32047D01*
X47427Y32022D01*
X47525Y32008D01*
X47625Y32003D01*
X48133D01*
Y32893D01*
D02*
G37*
G36*
Y31497D02*
X47625D01*
X47525Y31492D01*
X47427Y31478D01*
X47330Y31453D01*
X47236Y31420D01*
X47145Y31377D01*
X47060Y31326D01*
X46980Y31266D01*
X46906Y31199D01*
X46839Y31125D01*
X46779Y31045D01*
X46728Y30960D01*
X46685Y30869D01*
X46652Y30775D01*
X46627Y30678D01*
X46617Y30607D01*
X48133D01*
Y31497D01*
D02*
G37*
G36*
X43180Y31485D02*
X43081Y31480D01*
X42984Y31466D01*
X42888Y31442D01*
X42795Y31409D01*
X42706Y31367D01*
X42622Y31316D01*
X42542Y31257D01*
X42469Y31191D01*
X42403Y31118D01*
X42344Y31038D01*
X42293Y30954D01*
X42251Y30865D01*
X42218Y30772D01*
X42194Y30676D01*
X42180Y30579D01*
X42175Y30480D01*
X42180Y30381D01*
X42194Y30284D01*
X42209Y30224D01*
X41587Y29601D01*
X41581Y29594D01*
X41490Y29509D01*
X41387Y29425D01*
X41279Y29347D01*
X41166Y29277D01*
X41048Y29214D01*
X40927Y29159D01*
X40802Y29112D01*
X40675Y29074D01*
X40545Y29043D01*
X40414Y29022D01*
X40281Y29009D01*
X40157Y29004D01*
X40148Y29005D01*
X33278D01*
X33262Y29013D01*
X33194Y29036D01*
X33122Y29050D01*
X33050Y29055D01*
X32978Y29050D01*
X32906Y29036D01*
X32838Y29013D01*
X32772Y28981D01*
X32712Y28940D01*
X32657Y28893D01*
X32610Y28838D01*
X32569Y28778D01*
X32537Y28712D01*
X32514Y28644D01*
X32500Y28572D01*
X32495Y28500D01*
X32500Y28428D01*
X32514Y28356D01*
X32537Y28288D01*
X32569Y28222D01*
X32610Y28162D01*
X32657Y28107D01*
X32712Y28060D01*
X32772Y28019D01*
X32838Y27987D01*
X32906Y27964D01*
X32978Y27950D01*
X33050Y27945D01*
X33122Y27950D01*
X33194Y27964D01*
X33262Y27987D01*
X33278Y27995D01*
X40148D01*
Y27995D01*
X40319Y28000D01*
X40489Y28014D01*
X40658Y28038D01*
X40826Y28071D01*
X40991Y28114D01*
X41154Y28166D01*
X41313Y28227D01*
X41469Y28296D01*
X41621Y28375D01*
X41768Y28462D01*
X41910Y28556D01*
X42047Y28659D01*
X42177Y28769D01*
X42301Y28887D01*
X42301Y28887D01*
X42924Y29509D01*
X42984Y29494D01*
X43081Y29480D01*
X43180Y29475D01*
X43279Y29480D01*
X43376Y29494D01*
X43472Y29518D01*
X43565Y29551D01*
X43654Y29593D01*
X43738Y29644D01*
X43818Y29703D01*
X43891Y29769D01*
X43957Y29842D01*
X44016Y29922D01*
X44067Y30006D01*
X44109Y30095D01*
X44142Y30188D01*
X44166Y30284D01*
X44180Y30381D01*
X44185Y30480D01*
X44180Y30579D01*
X44166Y30676D01*
X44142Y30772D01*
X44109Y30865D01*
X44067Y30954D01*
X44016Y31038D01*
X43957Y31118D01*
X43891Y31191D01*
X43818Y31257D01*
X43738Y31316D01*
X43654Y31367D01*
X43565Y31409D01*
X43472Y31442D01*
X43376Y31466D01*
X43279Y31480D01*
X43180Y31485D01*
D02*
G37*
G36*
X40640D02*
X40541Y31480D01*
X40444Y31466D01*
X40348Y31442D01*
X40255Y31409D01*
X40166Y31367D01*
X40082Y31316D01*
X40002Y31257D01*
X39929Y31191D01*
X39863Y31118D01*
X39804Y31038D01*
X39753Y30954D01*
X39711Y30865D01*
X39678Y30772D01*
X39654Y30676D01*
X39640Y30579D01*
X39635Y30480D01*
X39640Y30381D01*
X39654Y30284D01*
X39678Y30188D01*
X39711Y30095D01*
X39753Y30006D01*
X39804Y29922D01*
X39863Y29842D01*
X39929Y29769D01*
X40002Y29703D01*
X40082Y29644D01*
X40166Y29593D01*
X40255Y29551D01*
X40348Y29518D01*
X40444Y29494D01*
X40541Y29480D01*
X40640Y29475D01*
X40739Y29480D01*
X40836Y29494D01*
X40932Y29518D01*
X41025Y29551D01*
X41114Y29593D01*
X41198Y29644D01*
X41278Y29703D01*
X41351Y29769D01*
X41417Y29842D01*
X41476Y29922D01*
X41527Y30006D01*
X41569Y30095D01*
X41602Y30188D01*
X41626Y30284D01*
X41640Y30381D01*
X41645Y30480D01*
X41640Y30579D01*
X41626Y30676D01*
X41602Y30772D01*
X41569Y30865D01*
X41527Y30954D01*
X41476Y31038D01*
X41417Y31118D01*
X41351Y31191D01*
X41278Y31257D01*
X41198Y31316D01*
X41114Y31367D01*
X41025Y31409D01*
X40932Y31442D01*
X40836Y31466D01*
X40739Y31480D01*
X40640Y31485D01*
D02*
G37*
G36*
X48133Y30353D02*
X46617D01*
X46627Y30282D01*
X46652Y30185D01*
X46685Y30091D01*
X46728Y30000D01*
X46779Y29915D01*
X46839Y29835D01*
X46906Y29761D01*
X46980Y29694D01*
X47060Y29634D01*
X47145Y29583D01*
X47236Y29540D01*
X47330Y29507D01*
X47427Y29482D01*
X47525Y29468D01*
X47625Y29463D01*
X48133D01*
Y30353D01*
D02*
G37*
G36*
X43180Y18785D02*
X43081Y18780D01*
X42984Y18766D01*
X42888Y18742D01*
X42795Y18709D01*
X42706Y18667D01*
X42622Y18616D01*
X42542Y18557D01*
X42469Y18491D01*
X42403Y18418D01*
X42344Y18338D01*
X42293Y18254D01*
X42251Y18165D01*
X42218Y18072D01*
X42194Y17976D01*
X42180Y17879D01*
X42175Y17780D01*
X42180Y17681D01*
X42194Y17584D01*
X42218Y17488D01*
X42251Y17395D01*
X42293Y17306D01*
X42344Y17222D01*
X42403Y17142D01*
X42469Y17069D01*
X42542Y17003D01*
X42622Y16944D01*
X42706Y16893D01*
X42795Y16851D01*
X42888Y16818D01*
X42984Y16794D01*
X43081Y16780D01*
X43180Y16775D01*
X43279Y16780D01*
X43376Y16794D01*
X43472Y16818D01*
X43565Y16851D01*
X43654Y16893D01*
X43738Y16944D01*
X43818Y17003D01*
X43891Y17069D01*
X43957Y17142D01*
X44016Y17222D01*
X44067Y17306D01*
X44109Y17395D01*
X44142Y17488D01*
X44166Y17584D01*
X44180Y17681D01*
X44185Y17780D01*
X44180Y17879D01*
X44166Y17976D01*
X44142Y18072D01*
X44109Y18165D01*
X44067Y18254D01*
X44016Y18338D01*
X43957Y18418D01*
X43891Y18491D01*
X43818Y18557D01*
X43738Y18616D01*
X43654Y18667D01*
X43565Y18709D01*
X43472Y18742D01*
X43376Y18766D01*
X43279Y18780D01*
X43180Y18785D01*
D02*
G37*
G36*
X40640D02*
X40541Y18780D01*
X40444Y18766D01*
X40348Y18742D01*
X40255Y18709D01*
X40166Y18667D01*
X40082Y18616D01*
X40002Y18557D01*
X39929Y18491D01*
X39863Y18418D01*
X39804Y18338D01*
X39753Y18254D01*
X39711Y18165D01*
X39678Y18072D01*
X39654Y17976D01*
X39640Y17879D01*
X39635Y17780D01*
X39640Y17681D01*
X39654Y17584D01*
X39678Y17488D01*
X39711Y17395D01*
X39753Y17306D01*
X39804Y17222D01*
X39863Y17142D01*
X39929Y17069D01*
X40002Y17003D01*
X40082Y16944D01*
X40166Y16893D01*
X40255Y16851D01*
X40348Y16818D01*
X40444Y16794D01*
X40541Y16780D01*
X40640Y16775D01*
X40739Y16780D01*
X40836Y16794D01*
X40932Y16818D01*
X41025Y16851D01*
X41114Y16893D01*
X41198Y16944D01*
X41278Y17003D01*
X41351Y17069D01*
X41417Y17142D01*
X41476Y17222D01*
X41527Y17306D01*
X41569Y17395D01*
X41602Y17488D01*
X41626Y17584D01*
X41640Y17681D01*
X41645Y17780D01*
X41640Y17879D01*
X41626Y17976D01*
X41602Y18072D01*
X41569Y18165D01*
X41527Y18254D01*
X41476Y18338D01*
X41417Y18418D01*
X41351Y18491D01*
X41278Y18557D01*
X41198Y18616D01*
X41114Y18667D01*
X41025Y18709D01*
X40932Y18742D01*
X40836Y18766D01*
X40739Y18780D01*
X40640Y18785D01*
D02*
G37*
G36*
X33020D02*
X32921Y18780D01*
X32824Y18766D01*
X32728Y18742D01*
X32635Y18709D01*
X32546Y18667D01*
X32462Y18616D01*
X32382Y18557D01*
X32309Y18491D01*
X32243Y18418D01*
X32184Y18338D01*
X32133Y18254D01*
X32091Y18165D01*
X32058Y18072D01*
X32034Y17976D01*
X32020Y17879D01*
X32015Y17780D01*
X32020Y17681D01*
X32034Y17584D01*
X32058Y17488D01*
X32091Y17395D01*
X32133Y17306D01*
X32184Y17222D01*
X32243Y17142D01*
X32309Y17069D01*
X32382Y17003D01*
X32462Y16944D01*
X32546Y16893D01*
X32635Y16851D01*
X32728Y16818D01*
X32824Y16794D01*
X32921Y16780D01*
X33020Y16775D01*
X33119Y16780D01*
X33216Y16794D01*
X33312Y16818D01*
X33405Y16851D01*
X33494Y16893D01*
X33578Y16944D01*
X33658Y17003D01*
X33731Y17069D01*
X33797Y17142D01*
X33856Y17222D01*
X33907Y17306D01*
X33949Y17395D01*
X33982Y17488D01*
X34006Y17584D01*
X34020Y17681D01*
X34025Y17780D01*
X34020Y17879D01*
X34006Y17976D01*
X33982Y18072D01*
X33949Y18165D01*
X33907Y18254D01*
X33856Y18338D01*
X33797Y18418D01*
X33731Y18491D01*
X33658Y18557D01*
X33578Y18616D01*
X33494Y18667D01*
X33405Y18709D01*
X33312Y18742D01*
X33216Y18766D01*
X33119Y18780D01*
X33020Y18785D01*
D02*
G37*
G36*
X48133Y16257D02*
X47625D01*
X47525Y16252D01*
X47427Y16238D01*
X47330Y16213D01*
X47236Y16180D01*
X47145Y16137D01*
X47060Y16086D01*
X46980Y16026D01*
X46906Y15959D01*
X46839Y15885D01*
X46779Y15805D01*
X46728Y15720D01*
X46685Y15629D01*
X46652Y15535D01*
X46627Y15438D01*
X46617Y15367D01*
X48133D01*
Y16257D01*
D02*
G37*
G36*
X43180Y16245D02*
X43081Y16240D01*
X42984Y16226D01*
X42888Y16202D01*
X42795Y16169D01*
X42706Y16127D01*
X42622Y16076D01*
X42542Y16017D01*
X42469Y15951D01*
X42403Y15878D01*
X42344Y15798D01*
X42293Y15714D01*
X42251Y15625D01*
X42218Y15532D01*
X42194Y15436D01*
X42180Y15339D01*
X42175Y15240D01*
X42180Y15141D01*
X42194Y15044D01*
X42218Y14948D01*
X42251Y14855D01*
X42293Y14766D01*
X42344Y14682D01*
X42403Y14602D01*
X42469Y14529D01*
X42542Y14463D01*
X42622Y14404D01*
X42706Y14353D01*
X42795Y14311D01*
X42888Y14278D01*
X42984Y14254D01*
X43081Y14240D01*
X43180Y14235D01*
X43279Y14240D01*
X43376Y14254D01*
X43472Y14278D01*
X43565Y14311D01*
X43654Y14353D01*
X43738Y14404D01*
X43818Y14463D01*
X43891Y14529D01*
X43957Y14602D01*
X44016Y14682D01*
X44067Y14766D01*
X44109Y14855D01*
X44142Y14948D01*
X44166Y15044D01*
X44180Y15141D01*
X44185Y15240D01*
X44180Y15339D01*
X44166Y15436D01*
X44142Y15532D01*
X44109Y15625D01*
X44067Y15714D01*
X44016Y15798D01*
X43957Y15878D01*
X43891Y15951D01*
X43818Y16017D01*
X43738Y16076D01*
X43654Y16127D01*
X43565Y16169D01*
X43472Y16202D01*
X43376Y16226D01*
X43279Y16240D01*
X43180Y16245D01*
D02*
G37*
G36*
X40640D02*
X40541Y16240D01*
X40444Y16226D01*
X40348Y16202D01*
X40255Y16169D01*
X40166Y16127D01*
X40082Y16076D01*
X40002Y16017D01*
X39929Y15951D01*
X39863Y15878D01*
X39804Y15798D01*
X39753Y15714D01*
X39711Y15625D01*
X39678Y15532D01*
X39654Y15436D01*
X39640Y15339D01*
X39635Y15240D01*
X39640Y15141D01*
X39654Y15044D01*
X39678Y14948D01*
X39711Y14855D01*
X39753Y14766D01*
X39804Y14682D01*
X39863Y14602D01*
X39929Y14529D01*
X40002Y14463D01*
X40082Y14404D01*
X40166Y14353D01*
X40255Y14311D01*
X40348Y14278D01*
X40444Y14254D01*
X40541Y14240D01*
X40640Y14235D01*
X40739Y14240D01*
X40836Y14254D01*
X40932Y14278D01*
X41025Y14311D01*
X41114Y14353D01*
X41198Y14404D01*
X41278Y14463D01*
X41351Y14529D01*
X41417Y14602D01*
X41476Y14682D01*
X41527Y14766D01*
X41569Y14855D01*
X41602Y14948D01*
X41626Y15044D01*
X41640Y15141D01*
X41645Y15240D01*
X41640Y15339D01*
X41626Y15436D01*
X41602Y15532D01*
X41569Y15625D01*
X41527Y15714D01*
X41476Y15798D01*
X41417Y15878D01*
X41351Y15951D01*
X41278Y16017D01*
X41198Y16076D01*
X41114Y16127D01*
X41025Y16169D01*
X40932Y16202D01*
X40836Y16226D01*
X40739Y16240D01*
X40640Y16245D01*
D02*
G37*
G36*
X33020D02*
X32921Y16240D01*
X32824Y16226D01*
X32728Y16202D01*
X32635Y16169D01*
X32546Y16127D01*
X32462Y16076D01*
X32382Y16017D01*
X32309Y15951D01*
X32243Y15878D01*
X32184Y15798D01*
X32133Y15714D01*
X32091Y15625D01*
X32058Y15532D01*
X32034Y15436D01*
X32020Y15339D01*
X32015Y15240D01*
X32020Y15141D01*
X32034Y15044D01*
X32058Y14948D01*
X32091Y14855D01*
X32133Y14766D01*
X32184Y14682D01*
X32243Y14602D01*
X32309Y14529D01*
X32382Y14463D01*
X32462Y14404D01*
X32546Y14353D01*
X32635Y14311D01*
X32728Y14278D01*
X32824Y14254D01*
X32921Y14240D01*
X33020Y14235D01*
X33119Y14240D01*
X33216Y14254D01*
X33312Y14278D01*
X33405Y14311D01*
X33494Y14353D01*
X33578Y14404D01*
X33658Y14463D01*
X33731Y14529D01*
X33797Y14602D01*
X33856Y14682D01*
X33907Y14766D01*
X33949Y14855D01*
X33982Y14948D01*
X34006Y15044D01*
X34020Y15141D01*
X34025Y15240D01*
X34020Y15339D01*
X34006Y15436D01*
X33982Y15532D01*
X33949Y15625D01*
X33907Y15714D01*
X33856Y15798D01*
X33797Y15878D01*
X33731Y15951D01*
X33658Y16017D01*
X33578Y16076D01*
X33494Y16127D01*
X33405Y16169D01*
X33312Y16202D01*
X33216Y16226D01*
X33119Y16240D01*
X33020Y16245D01*
D02*
G37*
G36*
X48133Y15113D02*
X46617D01*
X46627Y15042D01*
X46652Y14945D01*
X46685Y14851D01*
X46728Y14760D01*
X46779Y14675D01*
X46839Y14595D01*
X46906Y14521D01*
X46980Y14454D01*
X47060Y14394D01*
X47145Y14343D01*
X47236Y14300D01*
X47330Y14267D01*
X47427Y14242D01*
X47525Y14228D01*
X47625Y14223D01*
X48133D01*
Y15113D01*
D02*
G37*
G36*
Y13717D02*
X47625D01*
X47525Y13712D01*
X47427Y13698D01*
X47330Y13673D01*
X47236Y13640D01*
X47145Y13597D01*
X47060Y13546D01*
X46980Y13486D01*
X46906Y13419D01*
X46839Y13345D01*
X46779Y13265D01*
X46728Y13180D01*
X46685Y13089D01*
X46652Y12995D01*
X46627Y12898D01*
X46617Y12827D01*
X48133D01*
Y13717D01*
D02*
G37*
G36*
Y12573D02*
X46617D01*
X46627Y12502D01*
X46652Y12405D01*
X46685Y12311D01*
X46728Y12220D01*
X46779Y12135D01*
X46839Y12055D01*
X46906Y11981D01*
X46980Y11914D01*
X47060Y11854D01*
X47145Y11803D01*
X47236Y11760D01*
X47330Y11727D01*
X47427Y11702D01*
X47525Y11688D01*
X47625Y11683D01*
X48133D01*
Y12573D01*
D02*
G37*
G36*
X22860Y11050D02*
X22680Y11045D01*
X22501Y11031D01*
X22323Y11008D01*
X22147Y10975D01*
X21972Y10933D01*
X21800Y10882D01*
X21631Y10822D01*
X21465Y10754D01*
X21303Y10676D01*
X21145Y10591D01*
X20992Y10497D01*
X20844Y10395D01*
X20701Y10286D01*
X20565Y10169D01*
X20434Y10045D01*
X20311Y9915D01*
X20194Y9779D01*
X20085Y9636D01*
X19983Y9488D01*
X19889Y9335D01*
X19804Y9177D01*
X19726Y9015D01*
X19658Y8849D01*
X19598Y8680D01*
X19547Y8508D01*
X19505Y8333D01*
X19472Y8157D01*
X19449Y7979D01*
X19435Y7800D01*
X19430Y7620D01*
X19435Y7440D01*
X19449Y7261D01*
X19472Y7083D01*
X19505Y6907D01*
X19547Y6732D01*
X19598Y6560D01*
X19658Y6391D01*
X19726Y6225D01*
X19804Y6063D01*
X19889Y5905D01*
X19983Y5752D01*
X20085Y5604D01*
X20194Y5461D01*
X20311Y5325D01*
X20434Y5194D01*
X20565Y5071D01*
X20701Y4954D01*
X20844Y4845D01*
X20992Y4743D01*
X21145Y4649D01*
X21303Y4564D01*
X21465Y4486D01*
X21631Y4418D01*
X21800Y4358D01*
X21972Y4307D01*
X22147Y4265D01*
X22323Y4232D01*
X22501Y4209D01*
X22680Y4195D01*
X22860Y4190D01*
X23040Y4195D01*
X23219Y4209D01*
X23397Y4232D01*
X23573Y4265D01*
X23748Y4307D01*
X23920Y4358D01*
X24089Y4418D01*
X24255Y4486D01*
X24417Y4564D01*
X24575Y4649D01*
X24728Y4743D01*
X24876Y4845D01*
X25019Y4954D01*
X25155Y5071D01*
X25285Y5194D01*
X25409Y5325D01*
X25526Y5461D01*
X25635Y5604D01*
X25737Y5752D01*
X25831Y5905D01*
X25916Y6063D01*
X25994Y6225D01*
X26062Y6391D01*
X26122Y6560D01*
X26173Y6732D01*
X26215Y6907D01*
X26248Y7083D01*
X26271Y7261D01*
X26285Y7440D01*
X26290Y7620D01*
X26285Y7800D01*
X26271Y7979D01*
X26248Y8157D01*
X26215Y8333D01*
X26173Y8508D01*
X26122Y8680D01*
X26062Y8849D01*
X25994Y9015D01*
X25916Y9177D01*
X25831Y9335D01*
X25737Y9488D01*
X25635Y9636D01*
X25526Y9779D01*
X25409Y9915D01*
X25285Y10045D01*
X25155Y10169D01*
X25019Y10286D01*
X24876Y10395D01*
X24728Y10497D01*
X24575Y10591D01*
X24417Y10676D01*
X24255Y10754D01*
X24089Y10822D01*
X23920Y10882D01*
X23748Y10933D01*
X23573Y10975D01*
X23397Y11008D01*
X23219Y11031D01*
X23040Y11045D01*
X22860Y11050D01*
D02*
G37*
G36*
X22987Y1643D02*
Y127D01*
X23877D01*
Y635D01*
X23872Y735D01*
X23858Y833D01*
X23833Y930D01*
X23800Y1024D01*
X23757Y1115D01*
X23706Y1200D01*
X23646Y1280D01*
X23579Y1354D01*
X23505Y1421D01*
X23425Y1481D01*
X23340Y1532D01*
X23249Y1575D01*
X23155Y1608D01*
X23058Y1633D01*
X22987Y1643D01*
D02*
G37*
G36*
X20447D02*
Y127D01*
X21337D01*
Y635D01*
X21332Y735D01*
X21318Y833D01*
X21293Y930D01*
X21260Y1024D01*
X21217Y1115D01*
X21166Y1200D01*
X21106Y1280D01*
X21039Y1354D01*
X20965Y1421D01*
X20885Y1481D01*
X20800Y1532D01*
X20709Y1575D01*
X20615Y1608D01*
X20518Y1633D01*
X20447Y1643D01*
D02*
G37*
G36*
X22733D02*
X22662Y1633D01*
X22565Y1608D01*
X22471Y1575D01*
X22380Y1532D01*
X22295Y1481D01*
X22215Y1421D01*
X22141Y1354D01*
X22074Y1280D01*
X22014Y1200D01*
X21963Y1115D01*
X21920Y1024D01*
X21887Y930D01*
X21862Y833D01*
X21848Y735D01*
X21843Y635D01*
Y127D01*
X22733D01*
Y1643D01*
D02*
G37*
G36*
X20193D02*
X20122Y1633D01*
X20025Y1608D01*
X19931Y1575D01*
X19840Y1532D01*
X19755Y1481D01*
X19675Y1421D01*
X19601Y1354D01*
X19534Y1280D01*
X19474Y1200D01*
X19423Y1115D01*
X19380Y1024D01*
X19347Y930D01*
X19322Y833D01*
X19308Y735D01*
X19303Y635D01*
Y127D01*
X20193D01*
Y1643D01*
D02*
G37*
%LPD*%
G36*
X36302Y43545D02*
X36464D01*
X36522Y43486D01*
X36559Y43418D01*
X36550Y43372D01*
X36545Y43300D01*
X36550Y43228D01*
X36564Y43156D01*
X36587Y43088D01*
X36619Y43022D01*
X36660Y42962D01*
X36707Y42907D01*
X36751Y42869D01*
X36762Y42847D01*
X36762Y42712D01*
X36761Y42711D01*
X36711Y42669D01*
X36593Y42557D01*
X36481Y42439D01*
X36376Y42315D01*
X36279Y42185D01*
X36189Y42050D01*
X36106Y41910D01*
X36032Y41766D01*
X35965Y41618D01*
X35907Y41466D01*
X35858Y41311D01*
X35817Y41154D01*
X35786Y40995D01*
X35763Y40834D01*
X35749Y40672D01*
X35745Y40510D01*
X35745D01*
Y35352D01*
X35746Y35343D01*
X35741Y35209D01*
X35727Y35067D01*
X35704Y34926D01*
X35671Y34786D01*
X35630Y34649D01*
X35580Y34516D01*
X35520Y34385D01*
X35453Y34259D01*
X35378Y34138D01*
X35294Y34021D01*
X35203Y33911D01*
X35112Y33813D01*
X35105Y33807D01*
X33293Y31995D01*
X33287Y31988D01*
X33189Y31897D01*
X33079Y31806D01*
X32962Y31722D01*
X32841Y31647D01*
X32715Y31580D01*
X32584Y31520D01*
X32451Y31470D01*
X32314Y31429D01*
X32174Y31396D01*
X32033Y31373D01*
X31891Y31359D01*
X31757Y31354D01*
X31748Y31355D01*
X30402D01*
X30393Y31354D01*
X30259Y31359D01*
X30117Y31373D01*
X29976Y31396D01*
X29979Y31526D01*
X30012Y31537D01*
X30078Y31569D01*
X30138Y31610D01*
X30193Y31657D01*
X30240Y31712D01*
X30281Y31772D01*
X30313Y31838D01*
X30336Y31906D01*
X30350Y31978D01*
X30355Y32050D01*
X30350Y32122D01*
X30336Y32194D01*
X30313Y32262D01*
X30305Y32278D01*
Y37845D01*
X30748D01*
Y37845D01*
X30910Y37849D01*
X31072Y37863D01*
X31233Y37886D01*
X31392Y37917D01*
X31549Y37958D01*
X31704Y38007D01*
X31856Y38065D01*
X32004Y38132D01*
X32148Y38206D01*
X32288Y38289D01*
X32423Y38379D01*
X32553Y38476D01*
X32677Y38581D01*
X32795Y38693D01*
X32795Y38693D01*
X33157Y39055D01*
X33157Y39055D01*
X33269Y39173D01*
X33374Y39297D01*
X33471Y39427D01*
X33561Y39562D01*
X33644Y39702D01*
X33718Y39846D01*
X33785Y39994D01*
X33843Y40146D01*
X33892Y40301D01*
X33933Y40458D01*
X33964Y40617D01*
X33987Y40778D01*
X34001Y40940D01*
X34005Y41102D01*
X34005D01*
Y41500D01*
X34004Y41509D01*
X34009Y41624D01*
X34023Y41747D01*
X34048Y41868D01*
X34081Y41987D01*
X34124Y42104D01*
X34176Y42216D01*
X34236Y42324D01*
X34305Y42427D01*
X34382Y42524D01*
X34460Y42609D01*
X34467Y42615D01*
X34757Y42905D01*
X34763Y42912D01*
X34861Y43003D01*
X34971Y43094D01*
X35088Y43178D01*
X35209Y43253D01*
X35335Y43320D01*
X35466Y43380D01*
X35599Y43430D01*
X35736Y43471D01*
X35876Y43504D01*
X36017Y43527D01*
X36159Y43541D01*
X36293Y43546D01*
X36302Y43545D01*
D02*
G37*
%LPC*%
G36*
X635Y18797D02*
X127D01*
Y17907D01*
X1643D01*
X1633Y17978D01*
X1608Y18075D01*
X1575Y18169D01*
X1532Y18260D01*
X1481Y18345D01*
X1421Y18425D01*
X1354Y18499D01*
X1280Y18566D01*
X1200Y18626D01*
X1115Y18677D01*
X1024Y18720D01*
X930Y18753D01*
X833Y18778D01*
X735Y18792D01*
X635Y18797D01*
D02*
G37*
G36*
X1643Y17653D02*
X127D01*
Y16763D01*
X635D01*
X735Y16768D01*
X833Y16782D01*
X930Y16807D01*
X1024Y16840D01*
X1115Y16883D01*
X1200Y16934D01*
X1280Y16994D01*
X1354Y17061D01*
X1421Y17135D01*
X1481Y17215D01*
X1532Y17300D01*
X1575Y17391D01*
X1608Y17485D01*
X1633Y17582D01*
X1643Y17653D01*
D02*
G37*
G36*
X635Y16257D02*
X127D01*
Y15367D01*
X1643D01*
X1633Y15438D01*
X1608Y15535D01*
X1575Y15629D01*
X1532Y15720D01*
X1481Y15805D01*
X1421Y15885D01*
X1354Y15959D01*
X1280Y16026D01*
X1200Y16086D01*
X1115Y16137D01*
X1024Y16180D01*
X930Y16213D01*
X833Y16238D01*
X735Y16252D01*
X635Y16257D01*
D02*
G37*
G36*
X1643Y15113D02*
X127D01*
Y14223D01*
X635D01*
X735Y14228D01*
X833Y14242D01*
X930Y14267D01*
X1024Y14300D01*
X1115Y14343D01*
X1200Y14394D01*
X1280Y14454D01*
X1354Y14521D01*
X1421Y14595D01*
X1481Y14675D01*
X1532Y14760D01*
X1575Y14851D01*
X1608Y14945D01*
X1633Y15042D01*
X1643Y15113D01*
D02*
G37*
G36*
X1016Y1651D02*
X127D01*
Y127D01*
X1016D01*
Y1651D01*
D02*
G37*
G36*
X-127D02*
X-1016D01*
Y127D01*
X-127D01*
Y1651D01*
D02*
G37*
%LPD*%
D12*
X15300Y37227D02*
G03*
X16044Y35431I2540J0D01*
G01*
X16130Y35345D02*
G03*
X17325Y34850I1195J1195D01*
G01*
D02*
G03*
X18257Y35236I0J1318D01*
G01*
X26950Y34452D02*
G03*
X27694Y32656I2540J0D01*
G01*
X40308Y43900D02*
G03*
X42104Y44644I0J2540D01*
G01*
X36302Y43900D02*
G03*
X34506Y43156I0J-2540D01*
G01*
X34216Y42866D02*
G03*
X33650Y41500I1366J-1366D01*
G01*
X26750Y50112D02*
G03*
X26069Y51756I-2325J0D01*
G01*
X25950Y47300D02*
G03*
X26121Y47371I0J241D01*
G01*
X24700Y46575D02*
G03*
X25596Y46946I0J1267D01*
G01*
X32906Y39306D02*
G03*
X33650Y41102I-1796J1796D01*
G01*
X30748Y38200D02*
G03*
X32544Y38944I0J2540D01*
G01*
X31744Y19044D02*
G03*
X31000Y17248I1796J-1796D01*
G01*
X30256Y8406D02*
G03*
X31000Y10202I-1796J1796D01*
G01*
X26069Y51756D02*
G03*
X24273Y52500I-1796J-1796D01*
G01*
X23850Y33575D02*
G03*
X23726Y33874I-422J0D01*
G01*
X23298Y2500D02*
G03*
X25094Y3244I0J2540D01*
G01*
X20838Y27940D02*
G03*
X22634Y28684I0J2540D01*
G01*
X18002Y2500D02*
G03*
X16206Y1756I0J-2540D01*
G01*
X6550Y25400D02*
G03*
X4010Y27940I-2540J0D01*
G01*
X23125Y29175D02*
G03*
X23850Y30925I-1750J1750D01*
G01*
X21200Y47225D02*
G03*
X21288Y47012I302J0D01*
G01*
X26475Y47725D02*
G03*
X26750Y48389I-664J664D01*
G01*
X34422Y45720D02*
G03*
X32626Y44976I0J-2540D01*
G01*
X41076Y50364D02*
G03*
X42800Y49650I1724J1724D01*
G01*
X43910Y49190D02*
G03*
X42800Y49650I-1110J-1110D01*
G01*
X44750Y47298D02*
G03*
X44006Y49094I-2540J0D01*
G01*
X44500Y44550D02*
G03*
X44750Y45154I-604J604D01*
G01*
X43776Y44250D02*
G03*
X44500Y44550I0J1024D01*
G01*
X43600Y44250D02*
G03*
X42490Y43790I0J-1569D01*
G01*
X40760Y43050D02*
G03*
X42450Y43750I0J2390D01*
G01*
X37841Y42921D02*
G03*
X36100Y40510I799J-2411D01*
G01*
X38640Y43050D02*
G03*
X37841Y42921I0J-2540D01*
G01*
X28606Y31744D02*
G03*
X30402Y31000I1796J1796D01*
G01*
X31748D02*
G03*
X33544Y31744I0J2540D01*
G01*
X35356Y33556D02*
G03*
X36100Y35352I-1796J1796D01*
G01*
X17428Y30480D02*
G03*
X19224Y31224I0J2540D01*
G01*
X21436Y33436D02*
G03*
X22180Y35232I-1796J1796D01*
G01*
X15799Y1349D02*
G03*
X15240Y0I1349J-1349D01*
G01*
X26950Y36048D02*
G03*
X26206Y37844I-2540J0D01*
G01*
X3510Y7620D02*
G03*
X6050Y10160I0J2540D01*
G01*
Y25100D02*
G03*
X4400Y26750I-1650J0D01*
G01*
X6200Y6450D02*
G03*
X6550Y7295I-845J845D01*
G01*
X8550Y5902D02*
G03*
X9294Y4106I2540J0D01*
G01*
X12700Y0D02*
G03*
X12205Y1195I-1690J0D01*
G01*
X9050Y6352D02*
G03*
X9794Y4556I2540J0D01*
G01*
X10160Y-117D02*
G03*
X10650Y-1300I1673J0D01*
G01*
D02*
G03*
X11616Y-1700I966J966D01*
G01*
X12700D02*
G03*
X13950Y-450I0J1250D01*
G01*
Y1050D02*
G03*
X12950Y2050I-1000J0D01*
G01*
X11840Y2510D02*
G03*
X12950Y2050I1110J1110D01*
G01*
X5080Y0D02*
G03*
X5632Y-1332I1883J0D01*
G01*
X5650Y-1350D02*
G03*
X6495Y-1700I845J845D01*
G01*
X7650D02*
G03*
X8900Y-450I0J1250D01*
G01*
Y1176D02*
G03*
X8600Y1900I-1024J0D01*
G01*
X8050Y3228D02*
G03*
X8600Y1900I1878J0D01*
G01*
X7550Y169D02*
G03*
X7620Y0I239J0D01*
G01*
X6306Y4656D02*
G03*
X7050Y6452I-1796J1796D01*
G01*
X3169Y1519D02*
G03*
X2540Y0I1519J-1519D01*
G01*
X9794Y46066D02*
G03*
X9050Y44269I1796J-1796D01*
G01*
X14400Y57614D02*
G03*
X13950Y58700I-1536J0D01*
G01*
X9440Y46419D02*
G03*
X8550Y44269I2150J-2150D01*
G01*
X12900Y54198D02*
G03*
X12156Y55994I-2540J0D01*
G01*
X8380Y47480D02*
G03*
X7050Y44269I3210J-3210D01*
G01*
X12156Y51256D02*
G03*
X12900Y53052I-1796J1796D01*
G01*
X13400Y55198D02*
G03*
X12656Y56994I-2540J0D01*
G01*
X8733Y47126D02*
G03*
X7550Y44269I2857J-2857D01*
G01*
X12510Y50903D02*
G03*
X13400Y53052I-2150J2150D01*
G01*
X13900Y56198D02*
G03*
X13156Y57994I-2540J0D01*
G01*
X9087Y46773D02*
G03*
X8050Y44269I2503J-2503D01*
G01*
X13217Y50195D02*
G03*
X14400Y53052I-2857J2857D01*
G01*
X12863Y50549D02*
G03*
X13900Y53052I-2503J2503D01*
G01*
X13570Y49842D02*
G03*
X14900Y53052I-3210J3210D01*
G01*
X4806Y34656D02*
G03*
X5550Y36452I-1796J1796D01*
G01*
X6294Y49694D02*
G03*
X5550Y47898I1796J-1796D01*
G01*
X4306Y36506D02*
G03*
X5050Y38302I-1796J1796D01*
G01*
X5794Y50694D02*
G03*
X5050Y48898I1796J-1796D01*
G01*
X3806Y38556D02*
G03*
X4550Y40352I-1796J1796D01*
G01*
X5050Y51450D02*
G03*
X4550Y50243I1207J-1207D01*
G01*
X3306Y40556D02*
G03*
X4050Y42352I-1796J1796D01*
G01*
X0Y38100D02*
G03*
X1451Y38701I0J2052D01*
G01*
X0Y35560D02*
G03*
X1383Y36133I0J1956D01*
G01*
X0Y33020D02*
G03*
X1400Y33600I0J1980D01*
G01*
X0Y30480D02*
G03*
X1075Y30925I0J1521D01*
G01*
X15300Y37227D02*
Y37917D01*
X16044Y35431D02*
X16130Y35345D01*
X18257Y35236D02*
X18750Y35729D01*
X26950Y34850D02*
Y36048D01*
Y34452D02*
Y34850D01*
X42104Y44644D02*
X43180Y45720D01*
X36302Y43900D02*
X40308D01*
X34216Y42866D02*
X34506Y43156D01*
X33650Y41102D02*
Y41500D01*
X29585Y40560D02*
X30575D01*
X26750Y48389D02*
Y50112D01*
X25596Y46946D02*
X25950Y47300D01*
X32544Y38944D02*
X32906Y39306D01*
X29800Y38200D02*
X30748D01*
X31744Y19044D02*
X33020Y20320D01*
X31000Y10202D02*
Y17248D01*
X25094Y3244D02*
X30256Y8406D01*
X24200Y52500D02*
X24273D01*
X23850Y30925D02*
Y33575D01*
X23150Y34450D02*
X23726Y33874D01*
X18002Y2500D02*
X23298D01*
X22634Y28684D02*
X23125Y29175D01*
X15240Y27940D02*
X20838D01*
X15799Y1349D02*
X16206Y1756D01*
X6550Y7295D02*
Y25400D01*
X0Y27940D02*
X4010D01*
X17725Y40550D02*
X18575D01*
X17675Y40500D02*
X17725Y40550D01*
X22830Y42590D02*
Y48628D01*
X21288Y47012D02*
X21950Y46350D01*
X26121Y47371D02*
X26475Y47725D01*
X29585Y40560D02*
X29621Y40525D01*
X23150Y34450D02*
Y35200D01*
X34422Y45720D02*
X40640D01*
X29900Y42250D02*
X32200Y44550D01*
X32626Y44976D01*
X40640Y50800D02*
X41076Y50364D01*
X43910Y49190D02*
X44006Y49094D01*
X44750Y45154D02*
Y47298D01*
X43600Y44250D02*
X43776D01*
X42450Y43750D02*
X42490Y43790D01*
X38640Y43050D02*
X40760D01*
X36100Y35352D02*
Y40510D01*
X27694Y32656D02*
X28606Y31744D01*
X30402Y31000D02*
X31748D01*
X33544Y31744D02*
X35356Y33556D01*
X31925Y40560D02*
X32890D01*
X15240Y30480D02*
X17428D01*
X19224Y31224D02*
X21436Y33436D01*
X22180Y35232D02*
Y38690D01*
X25450Y38600D02*
X26206Y37844D01*
X0Y7620D02*
X3510D01*
X6050Y10160D02*
Y25100D01*
X8550Y5902D02*
Y44269D01*
X9294Y4106D02*
X12205Y1195D01*
X9794Y4556D02*
X11840Y2510D01*
X9050Y6352D02*
Y44269D01*
X10160Y-117D02*
Y0D01*
X11616Y-1700D02*
X12700D01*
X13950Y-450D02*
Y1050D01*
X5632Y-1332D02*
X5650Y-1350D01*
X6495Y-1700D02*
X7650D01*
X8900Y-450D02*
Y1176D01*
X8050Y3228D02*
Y44269D01*
X7550Y169D02*
Y44269D01*
X3169Y1519D02*
X6306Y4656D01*
X7050Y6452D02*
Y44269D01*
X14400Y53052D02*
Y57614D01*
X12900Y53052D02*
Y54198D01*
X10950Y57200D02*
X12156Y55994D01*
X8380Y47480D02*
X12156Y51256D01*
X11950Y57700D02*
X12656Y56994D01*
X13400Y53052D02*
Y55198D01*
X8733Y47126D02*
X12510Y50903D01*
X12950Y58200D02*
X13156Y57994D01*
X13900Y53052D02*
Y56198D01*
X14900Y53052D02*
Y59200D01*
X9087Y46773D02*
X12863Y50549D01*
X9440Y46419D02*
X13217Y50195D01*
X9794Y46066D02*
X13570Y49842D01*
X1075Y30925D02*
X4806Y34656D01*
X5550Y36452D02*
Y47898D01*
X6294Y49694D02*
X7050Y50450D01*
X1400Y33600D02*
X4306Y36506D01*
X5050Y38302D02*
Y48898D01*
X5794Y50694D02*
X6050Y50950D01*
X1383Y36133D02*
X3806Y38556D01*
X4550Y40352D02*
Y50243D01*
X1451Y38701D02*
X3306Y40556D01*
X4050Y42352D02*
Y51950D01*
D17*
X31925Y40560D02*
D03*
X30575D02*
D03*
X16325Y40500D02*
D03*
X17675D02*
D03*
D34*
X24700Y44352D02*
G03*
X25444Y42556I2540J0D01*
G01*
X29800Y24550D02*
G03*
X30514Y22826I2438J0D01*
G01*
X23919Y39756D02*
G03*
X22123Y40500I-1796J-1796D01*
G01*
X23894Y39219D02*
G03*
X23150Y37423I1796J-1796D01*
G01*
X13707Y43050D02*
G03*
X11911Y42306I0J-2540D01*
G01*
X11519Y41914D02*
G03*
X10775Y40118I1796J-1796D01*
G01*
X12656Y18494D02*
G03*
X14452Y17750I1796J1796D01*
G01*
X10775Y21427D02*
G03*
X11519Y19631I2540J0D01*
G01*
X44976Y18524D02*
G03*
X46772Y17780I1796J1796D01*
G01*
X41384Y25434D02*
G03*
X40640Y23638I1796J-1796D01*
G01*
X44942Y27940D02*
G03*
X43146Y27196I0J-2540D01*
G01*
X40148Y28500D02*
G03*
X41944Y29244I0J2540D01*
G01*
X43956Y33796D02*
G03*
X44700Y35592I-1796J1796D01*
G01*
Y38068D02*
G03*
X43956Y39864I-2540J0D01*
G01*
X44232Y43180D02*
G03*
X42436Y42436I0J-2540D01*
G01*
X10775Y21427D02*
Y40118D01*
X24700Y44352D02*
Y46575D01*
X25444Y42556D02*
X26337Y41662D01*
X29800Y24550D02*
Y27300D01*
X22073Y40550D02*
X22123Y40500D01*
X23919Y39756D02*
X24175Y39500D01*
X23894Y39219D02*
X24175Y39500D01*
X23150Y35200D02*
Y37423D01*
X18575Y40550D02*
X22073D01*
X13707Y43050D02*
X17875D01*
X14452Y17750D02*
X27300D01*
X11519Y41914D02*
X11911Y42306D01*
X11519Y19631D02*
X12656Y18494D01*
X24175Y39500D02*
X26337Y41662D01*
X29800Y38200D01*
Y39450D01*
X30575Y40225D02*
Y40560D01*
X29800Y39450D02*
X30575Y40225D01*
X43180Y20320D02*
X44976Y18524D01*
X46772Y17780D02*
X48260D01*
X40640Y20320D02*
Y23638D01*
X41384Y25434D02*
X43146Y27196D01*
X44942Y27940D02*
X48260D01*
X30514Y22826D02*
X33020Y20320D01*
X41944Y29244D02*
X43180Y30480D01*
X33050Y28500D02*
X40148D01*
X40640Y33020D02*
X43180D01*
X43956Y33796D01*
X44700Y35592D02*
Y38068D01*
X43180Y40640D02*
X43956Y39864D01*
X29800Y32050D02*
Y38200D01*
X40640Y40640D02*
X42436Y42436D01*
X44232Y43180D02*
X48260D01*
D36*
X40640Y40640D02*
D03*
Y33020D02*
D03*
Y30480D02*
D03*
X43180Y33020D02*
D03*
Y30480D02*
D03*
X15240D02*
D03*
X43180Y15240D02*
D03*
Y17780D02*
D03*
X40640Y15240D02*
D03*
Y17780D02*
D03*
X33020Y15240D02*
D03*
Y17780D02*
D03*
X43180Y45720D02*
D03*
Y48260D02*
D03*
X40640Y45720D02*
D03*
Y48260D02*
D03*
D37*
X43180Y40640D02*
D03*
D38*
X40640Y35560D02*
D03*
X43180D02*
D03*
X15240Y27940D02*
D03*
X43180Y20320D02*
D03*
X40640D02*
D03*
X33020D02*
D03*
X43180Y50800D02*
D03*
X40640D02*
D03*
D39*
X22860Y7620D02*
D03*
X5080Y58420D02*
D03*
X43180D02*
D03*
D40*
X0Y53340D02*
D03*
X48260D02*
D03*
D41*
X0Y50800D02*
D03*
Y48260D02*
D03*
Y45720D02*
D03*
Y43180D02*
D03*
Y40640D02*
D03*
Y38100D02*
D03*
Y35560D02*
D03*
Y33020D02*
D03*
Y30480D02*
D03*
Y27940D02*
D03*
Y25400D02*
D03*
Y22860D02*
D03*
Y20320D02*
D03*
Y17780D02*
D03*
Y15240D02*
D03*
Y12700D02*
D03*
Y10160D02*
D03*
Y7620D02*
D03*
Y5080D02*
D03*
X48260Y50800D02*
D03*
Y48260D02*
D03*
Y45720D02*
D03*
Y43180D02*
D03*
Y40640D02*
D03*
Y38100D02*
D03*
Y35560D02*
D03*
Y33020D02*
D03*
Y30480D02*
D03*
Y27940D02*
D03*
Y25400D02*
D03*
Y22860D02*
D03*
Y20320D02*
D03*
Y17780D02*
D03*
Y15240D02*
D03*
Y12700D02*
D03*
Y10160D02*
D03*
Y7620D02*
D03*
Y5080D02*
D03*
D42*
X0Y0D02*
D03*
D43*
X2540D02*
D03*
X5080D02*
D03*
X7620D02*
D03*
X10160D02*
D03*
X12700D02*
D03*
X15240D02*
D03*
X17780D02*
D03*
X20320D02*
D03*
X22860D02*
D03*
X25400D02*
D03*
X27940D02*
D03*
X30480D02*
D03*
X33020D02*
D03*
X35560D02*
D03*
X38100D02*
D03*
X40640D02*
D03*
X43180D02*
D03*
X45720D02*
D03*
X48260D02*
D03*
D44*
X10800Y35791D02*
D03*
X15300Y37917D02*
D03*
X18750Y35729D02*
D03*
X20875Y33744D02*
D03*
X17325Y33775D02*
D03*
X18575Y40550D02*
D03*
X27300Y17750D02*
D03*
X22200Y46250D02*
D03*
X24700Y46575D02*
D03*
X26080Y40320D02*
D03*
X29621Y40525D02*
D03*
X23150Y35200D02*
D03*
X33050Y28500D02*
D03*
X37150Y45050D02*
D03*
X35251Y44900D02*
D03*
X37100Y43300D02*
D03*
X41900Y49150D02*
D03*
X44050Y46850D02*
D03*
X39750Y44700D02*
D03*
X33231Y33917D02*
D03*
X37250Y38100D02*
D03*
X35251Y42345D02*
D03*
X43180Y25400D02*
D03*
Y10160D02*
D03*
Y5080D02*
D03*
X38100Y60960D02*
D03*
Y55880D02*
D03*
Y40640D02*
D03*
Y35560D02*
D03*
Y30480D02*
D03*
Y25400D02*
D03*
Y20320D02*
D03*
Y15240D02*
D03*
Y10160D02*
D03*
Y5080D02*
D03*
X33020Y60960D02*
D03*
Y55880D02*
D03*
Y50800D02*
D03*
Y30480D02*
D03*
Y25400D02*
D03*
Y10160D02*
D03*
Y5080D02*
D03*
X27940Y60960D02*
D03*
Y55880D02*
D03*
Y25400D02*
D03*
Y20320D02*
D03*
Y15240D02*
D03*
Y5080D02*
D03*
X22860Y60960D02*
D03*
Y30480D02*
D03*
Y25400D02*
D03*
Y20320D02*
D03*
Y15240D02*
D03*
X17780Y60960D02*
D03*
Y45720D02*
D03*
Y25400D02*
D03*
Y20320D02*
D03*
Y15240D02*
D03*
Y10160D02*
D03*
Y5080D02*
D03*
X12700Y60960D02*
D03*
Y45720D02*
D03*
Y40640D02*
D03*
Y35560D02*
D03*
Y30480D02*
D03*
Y25400D02*
D03*
Y20320D02*
D03*
Y15240D02*
D03*
Y10160D02*
D03*
Y5080D02*
D03*
X2540Y50800D02*
D03*
Y45720D02*
D03*
Y35560D02*
D03*
Y30480D02*
D03*
Y20320D02*
D03*
Y15240D02*
D03*
Y5080D02*
D03*
X22830Y42590D02*
D03*
X5600Y7100D02*
D03*
X3550Y26750D02*
D03*
X17850Y35750D02*
D03*
X18452Y37000D02*
D03*
X17350Y39050D02*
D03*
X22850Y52500D02*
D03*
X29850Y43600D02*
D03*
X29800Y44900D02*
D03*
Y46200D02*
D03*
Y47500D02*
D03*
X33160Y42250D02*
D03*
X29100Y34350D02*
D03*
X29050Y33020D02*
D03*
X31000Y32000D02*
D03*
X30550Y27000D02*
D03*
X29250Y27850D02*
D03*
Y30650D02*
D03*
X29000Y32200D02*
D03*
X29250Y28700D02*
D03*
Y30000D02*
D03*
X17450Y29100D02*
D03*
X15550Y43924D02*
D03*
X22180Y39675D02*
D03*
X24440Y42590D02*
D03*
X29800Y27300D02*
D03*
Y32050D02*
D03*
X24200Y52500D02*
D03*
X32900Y40550D02*
D03*
X17875Y43050D02*
D03*
X24850Y48628D02*
D03*
X22830D02*
D03*
X22180Y38690D02*
D03*
X29800Y38200D02*
D03*
X26950Y34850D02*
D03*
X25450Y38600D02*
D03*
X29900Y42250D02*
D03*
X4400Y26750D02*
D03*
X17000Y38350D02*
D03*
X6200Y6450D02*
D03*
X14900Y59200D02*
D03*
X13950Y58700D02*
D03*
X10950Y57200D02*
D03*
X11950Y57700D02*
D03*
X12950Y58200D02*
D03*
X4050Y51950D02*
D03*
X5050Y51450D02*
D03*
X6050Y50950D02*
D03*
X7050Y50450D02*
D03*
X17900Y37600D02*
D03*
X17300Y36400D02*
D03*
D46*
X25950Y48650D02*
D03*
Y47300D02*
D03*
X21200Y47225D02*
D03*
Y48575D02*
D03*
X23150Y33100D02*
D03*
Y34450D02*
D03*
M02*
