G04 Layer_Color=32896*
%FSLAX25Y25*%
%MOIN*%
G70*
G01*
G75*
%ADD20C,0.01000*%
%ADD21C,0.01500*%
G36*
X185000Y172710D02*
X181089Y168638D01*
X180974Y167527D01*
X180719Y164866D01*
X180534Y162945D01*
X184722Y158618D01*
X184445Y158340D01*
X180488Y162390D01*
X180256Y159914D01*
X180141D01*
Y158965D01*
X179261D01*
Y159914D01*
X176531D01*
X176438Y159729D01*
X176299Y159544D01*
X176114Y159335D01*
X175860Y159150D01*
X175559Y159058D01*
X175281Y159035D01*
X175004D01*
X174795Y159104D01*
X174541Y159196D01*
X174332Y159335D01*
X174170Y159497D01*
X174009Y159729D01*
X173893Y159983D01*
X173823Y160215D01*
X173800Y160423D01*
X173823Y160654D01*
X173870Y160839D01*
X173939Y161025D01*
X174032Y161210D01*
X174147Y161372D01*
X174309Y161534D01*
X174494Y161649D01*
X174656Y161719D01*
X174633Y161927D01*
X171162Y158340D01*
X170885Y158641D01*
X174587Y162482D01*
X174286Y165838D01*
X174078Y168267D01*
X172967D01*
Y169818D01*
X173268D01*
X170445Y172710D01*
X170746Y172988D01*
X173384Y170257D01*
Y170466D01*
X173337Y170512D01*
X173268Y170558D01*
X173199Y170628D01*
X173129Y170697D01*
X173083Y170813D01*
X173060Y170905D01*
X173037Y171021D01*
X173060Y171160D01*
X173106Y171253D01*
X173199Y171414D01*
X173314Y171507D01*
X173476Y171576D01*
X173638Y171600D01*
X173800Y171576D01*
X173939Y171530D01*
X174055Y171461D01*
X174101Y171391D01*
X174217Y171484D01*
X174379Y171600D01*
X174587Y171692D01*
X174888Y171808D01*
X175212Y171900D01*
X175536Y171970D01*
X175883Y172039D01*
X176161Y172062D01*
Y172409D01*
X178382D01*
Y172109D01*
X178567D01*
X178845Y172085D01*
X179146Y172039D01*
X179446Y171993D01*
Y172178D01*
X180395D01*
Y171738D01*
X180511Y171669D01*
X180673Y171600D01*
X180835Y171507D01*
X180974Y171414D01*
X181113Y171299D01*
X181205Y171206D01*
X181251Y171137D01*
X181298Y171044D01*
X181274Y170882D01*
X181830D01*
Y170165D01*
X181228D01*
X181136Y169262D01*
X184722Y172988D01*
X185000Y172710D01*
D02*
G37*
G36*
X200068Y174562D02*
X200785Y174469D01*
X201456Y174330D01*
X202104Y174145D01*
X202706Y173937D01*
X203261Y173682D01*
X203794Y173428D01*
X204256Y173173D01*
X204696Y172895D01*
X205066Y172641D01*
X205390Y172409D01*
X205668Y172178D01*
X205899Y171993D01*
X206038Y171854D01*
X206154Y171762D01*
X206177Y171738D01*
X206663Y171183D01*
X207102Y170628D01*
X207496Y170049D01*
X207797Y169471D01*
X208074Y168892D01*
X208306Y168314D01*
X208491Y167781D01*
X208653Y167249D01*
X208769Y166763D01*
X208861Y166300D01*
X208907Y165907D01*
X208954Y165560D01*
X208977Y165282D01*
X209000Y165074D01*
Y164935D01*
Y164912D01*
Y164889D01*
X208977Y164148D01*
X208884Y163454D01*
X208746Y162760D01*
X208560Y162135D01*
X208352Y161534D01*
X208098Y160955D01*
X207843Y160446D01*
X207589Y159960D01*
X207334Y159544D01*
X207079Y159150D01*
X206825Y158826D01*
X206617Y158549D01*
X206432Y158340D01*
X206293Y158178D01*
X206200Y158063D01*
X206177Y158039D01*
X205645Y157554D01*
X205066Y157114D01*
X204488Y156721D01*
X203909Y156420D01*
X203331Y156142D01*
X202775Y155911D01*
X202220Y155726D01*
X201688Y155564D01*
X201202Y155448D01*
X200739Y155355D01*
X200346Y155309D01*
X199998Y155263D01*
X199721Y155240D01*
X199513Y155217D01*
X199328D01*
X198587Y155240D01*
X197893Y155332D01*
X197222Y155471D01*
X196574Y155656D01*
X195972Y155864D01*
X195417Y156119D01*
X194885Y156374D01*
X194422Y156628D01*
X193982Y156883D01*
X193612Y157137D01*
X193288Y157392D01*
X193010Y157600D01*
X192779Y157785D01*
X192640Y157924D01*
X192524Y158016D01*
X192501Y158039D01*
X191992Y158595D01*
X191552Y159150D01*
X191182Y159729D01*
X190858Y160307D01*
X190581Y160886D01*
X190349Y161464D01*
X190164Y162020D01*
X190002Y162529D01*
X189886Y163015D01*
X189794Y163477D01*
X189748Y163871D01*
X189701Y164218D01*
X189678Y164496D01*
X189655Y164704D01*
Y164843D01*
Y164889D01*
X189678Y165629D01*
X189771Y166324D01*
X189910Y167018D01*
X190095Y167643D01*
X190303Y168244D01*
X190557Y168823D01*
X190812Y169332D01*
X191067Y169818D01*
X191344Y170257D01*
X191599Y170628D01*
X191830Y170952D01*
X192061Y171229D01*
X192247Y171461D01*
X192385Y171600D01*
X192478Y171715D01*
X192501Y171738D01*
X193033Y172248D01*
X193612Y172687D01*
X194167Y173057D01*
X194769Y173381D01*
X195324Y173659D01*
X195903Y173890D01*
X196458Y174076D01*
X196967Y174238D01*
X197453Y174353D01*
X197916Y174446D01*
X198309Y174492D01*
X198656Y174538D01*
X198934Y174562D01*
X199142Y174585D01*
X199328D01*
X200068Y174562D01*
D02*
G37*
G36*
X184167Y155147D02*
Y155101D01*
Y155008D01*
Y154916D01*
Y154823D01*
Y154730D01*
Y154684D01*
Y154661D01*
Y154291D01*
Y153944D01*
Y153782D01*
Y153666D01*
Y153597D01*
Y153574D01*
Y153157D01*
Y152972D01*
Y152810D01*
Y152671D01*
Y152578D01*
Y152509D01*
Y152486D01*
Y152324D01*
Y152208D01*
Y152116D01*
Y152069D01*
Y152000D01*
X171509D01*
Y152023D01*
Y152069D01*
Y152254D01*
Y152417D01*
Y152463D01*
Y152486D01*
Y152856D01*
Y153203D01*
Y153365D01*
Y153481D01*
Y153550D01*
Y153574D01*
Y153990D01*
Y154175D01*
Y154337D01*
Y154476D01*
Y154569D01*
Y154638D01*
Y154661D01*
Y154823D01*
Y154962D01*
Y155054D01*
Y155101D01*
Y155147D01*
Y155170D01*
X184167D01*
Y155147D01*
D02*
G37*
G36*
X225530Y171866D02*
X226016Y171820D01*
X226455Y171704D01*
X226895Y171588D01*
X227289Y171449D01*
X227682Y171287D01*
X228029Y171125D01*
X228330Y170940D01*
X228631Y170755D01*
X228885Y170593D01*
X229093Y170431D01*
X229279Y170292D01*
X229440Y170177D01*
X229533Y170084D01*
X229603Y170015D01*
X229626Y169992D01*
X229950Y169621D01*
X230250Y169251D01*
X230505Y168881D01*
X230713Y168487D01*
X230898Y168094D01*
X231037Y167724D01*
X231176Y167353D01*
X231269Y167006D01*
X231338Y166683D01*
X231407Y166382D01*
X231431Y166104D01*
X231477Y165873D01*
Y165688D01*
X231500Y165549D01*
Y165456D01*
Y165433D01*
X231477Y164947D01*
X231407Y164484D01*
X231315Y164021D01*
X231199Y163605D01*
X231060Y163188D01*
X230898Y162818D01*
X230736Y162471D01*
X230551Y162147D01*
X230389Y161869D01*
X230227Y161615D01*
X230065Y161407D01*
X229926Y161221D01*
X229788Y161059D01*
X229695Y160967D01*
X229649Y160898D01*
X229626Y160874D01*
X229255Y160550D01*
X228885Y160250D01*
X228492Y159995D01*
X228098Y159787D01*
X227728Y159602D01*
X227335Y159463D01*
X226965Y159324D01*
X226618Y159231D01*
X226293Y159162D01*
X225993Y159093D01*
X225715Y159069D01*
X225484Y159023D01*
X225299D01*
X225160Y159000D01*
X224813D01*
X224604Y159023D01*
X224396D01*
Y160967D01*
X224627Y160944D01*
X224836Y160921D01*
X225044D01*
X225391Y160944D01*
X225715Y160967D01*
X226039Y161036D01*
X226340Y161129D01*
X226872Y161337D01*
X227335Y161592D01*
X227543Y161707D01*
X227728Y161823D01*
X227867Y161939D01*
X228006Y162031D01*
X228098Y162124D01*
X228168Y162193D01*
X228214Y162216D01*
X228237Y162240D01*
X228469Y162494D01*
X228677Y162772D01*
X228839Y163026D01*
X229001Y163304D01*
X229117Y163582D01*
X229232Y163836D01*
X229394Y164345D01*
X229487Y164785D01*
X229510Y164970D01*
X229533Y165132D01*
X229556Y165248D01*
Y165340D01*
Y165410D01*
Y165433D01*
X229533Y165780D01*
X229510Y166104D01*
X229440Y166428D01*
X229348Y166729D01*
X229140Y167261D01*
X228885Y167724D01*
X228769Y167932D01*
X228654Y168117D01*
X228538Y168256D01*
X228446Y168395D01*
X228353Y168487D01*
X228284Y168557D01*
X228260Y168603D01*
X228237Y168626D01*
X227983Y168858D01*
X227728Y169066D01*
X227450Y169251D01*
X227173Y169413D01*
X226918Y169529D01*
X226641Y169644D01*
X226155Y169806D01*
X225715Y169899D01*
X225507Y169922D01*
X225368Y169945D01*
X225229Y169968D01*
X224813D01*
X224604Y169945D01*
X224442Y169922D01*
X224396D01*
Y171866D01*
X224604Y171889D01*
X225044D01*
X225530Y171866D01*
D02*
G37*
G36*
X214562D02*
X215048Y171820D01*
X215487Y171704D01*
X215927Y171588D01*
X216320Y171449D01*
X216714Y171287D01*
X217061Y171125D01*
X217361Y170940D01*
X217662Y170755D01*
X217917Y170593D01*
X218125Y170431D01*
X218310Y170292D01*
X218472Y170177D01*
X218565Y170084D01*
X218634Y170015D01*
X218657Y169992D01*
X218981Y169621D01*
X219282Y169251D01*
X219537Y168881D01*
X219745Y168487D01*
X219930Y168094D01*
X220069Y167724D01*
X220208Y167353D01*
X220300Y167006D01*
X220370Y166683D01*
X220439Y166382D01*
X220462Y166104D01*
X220509Y165873D01*
Y165688D01*
X220532Y165549D01*
Y165456D01*
Y165433D01*
X220509Y164947D01*
X220439Y164484D01*
X220346Y164021D01*
X220231Y163605D01*
X220092Y163188D01*
X219930Y162818D01*
X219768Y162471D01*
X219583Y162147D01*
X219421Y161869D01*
X219259Y161615D01*
X219097Y161407D01*
X218958Y161221D01*
X218819Y161059D01*
X218727Y160967D01*
X218680Y160898D01*
X218657Y160874D01*
X218287Y160550D01*
X217917Y160250D01*
X217523Y159995D01*
X217130Y159787D01*
X216760Y159602D01*
X216366Y159463D01*
X215996Y159324D01*
X215649Y159231D01*
X215325Y159162D01*
X215024Y159093D01*
X214747Y159069D01*
X214515Y159023D01*
X214330D01*
X214191Y159000D01*
X213844D01*
X213636Y159023D01*
X213428D01*
X213451Y160967D01*
X213659Y160944D01*
X213867Y160921D01*
X214076D01*
X214376Y160944D01*
X214654Y160967D01*
X215186Y161083D01*
X215672Y161245D01*
X216089Y161430D01*
X216436Y161592D01*
X216575Y161684D01*
X216690Y161754D01*
X216806Y161823D01*
X216876Y161869D01*
X216899Y161916D01*
X216922D01*
X217338Y162309D01*
X217685Y162749D01*
X217963Y163165D01*
X218171Y163582D01*
X218310Y163929D01*
X218380Y164091D01*
X218426Y164230D01*
X218449Y164322D01*
X218472Y164415D01*
X218495Y164461D01*
Y164484D01*
X214723D01*
Y166405D01*
X218495D01*
X218333Y166960D01*
X218102Y167469D01*
X217847Y167909D01*
X217593Y168279D01*
X217338Y168580D01*
X217130Y168788D01*
X216968Y168927D01*
X216945Y168973D01*
X216922D01*
X216690Y169158D01*
X216436Y169297D01*
X215950Y169552D01*
X215464Y169737D01*
X215024Y169853D01*
X214654Y169922D01*
X214492Y169945D01*
X214353D01*
X214238Y169968D01*
X213844D01*
X213636Y169945D01*
X213474Y169922D01*
X213428D01*
Y171866D01*
X213682Y171889D01*
X214076D01*
X214562Y171866D01*
D02*
G37*
%LPC*%
G36*
X180812Y170165D02*
X174332D01*
X174379Y169818D01*
X174541D01*
Y169077D01*
X175513Y168082D01*
X178428D01*
Y167157D01*
X176415D01*
X177757Y165768D01*
X180696Y168823D01*
X180812Y170165D01*
D02*
G37*
G36*
X174147Y169424D02*
X173384D01*
Y168661D01*
X174147D01*
Y169424D01*
D02*
G37*
G36*
X178035Y167689D02*
X175952D01*
Y167550D01*
X178035D01*
Y167689D01*
D02*
G37*
G36*
X175351Y161140D02*
X175235D01*
X175004Y161117D01*
X174841Y161025D01*
X174703Y160932D01*
X174633Y160793D01*
X174587Y160678D01*
X174541Y160562D01*
Y160469D01*
Y160446D01*
X174564Y160215D01*
X174656Y160053D01*
X174749Y159914D01*
X174888Y159845D01*
X175004Y159798D01*
X175119Y159775D01*
X175212Y159752D01*
X175235D01*
X175466Y159775D01*
X175628Y159868D01*
X175767Y159983D01*
X175837Y160099D01*
X175883Y160238D01*
X175906Y160330D01*
X175929Y160423D01*
Y160446D01*
X175906Y160678D01*
X175813Y160839D01*
X175698Y160978D01*
X175582Y161048D01*
X175443Y161094D01*
X175351Y161140D01*
D02*
G37*
G36*
X179747Y159914D02*
X179655D01*
Y159359D01*
X179747D01*
Y159914D01*
D02*
G37*
G36*
X177757Y165190D02*
X175004Y162344D01*
X175050Y161835D01*
X175235Y161858D01*
X175443Y161835D01*
X175698Y161765D01*
X175952Y161649D01*
X176137Y161511D01*
X176299Y161349D01*
X176461Y161117D01*
X176577Y160839D01*
X176646Y160539D01*
X176623Y160330D01*
X179886D01*
X180117Y162760D01*
X177757Y165190D01*
D02*
G37*
G36*
X180626Y168175D02*
X178035Y165491D01*
X180164Y163292D01*
X180626Y168175D01*
D02*
G37*
G36*
X174541Y168499D02*
Y168267D01*
X174494D01*
X174957Y162876D01*
X177480Y165491D01*
X175860Y167157D01*
X175513D01*
Y167504D01*
X174541Y168499D01*
D02*
G37*
G36*
X173685Y171206D02*
X173661D01*
X173546Y171183D01*
X173476Y171114D01*
X173453Y171021D01*
Y170998D01*
X173476Y170882D01*
X173546Y170836D01*
X173638Y170813D01*
X173661D01*
X173777Y170836D01*
X173823Y170905D01*
X173846Y170975D01*
Y170998D01*
X173823Y171114D01*
X173754Y171183D01*
X173685Y171206D01*
D02*
G37*
G36*
X180002Y171785D02*
X179840D01*
Y171253D01*
X180002D01*
Y171785D01*
D02*
G37*
G36*
X178382Y171692D02*
Y171391D01*
X176161D01*
Y171646D01*
X175698Y171576D01*
X175281Y171484D01*
X174934Y171391D01*
X174656Y171253D01*
X174448Y171137D01*
X174286Y170975D01*
Y170882D01*
X179446D01*
Y171553D01*
X179122Y171623D01*
X178775Y171669D01*
X178382Y171692D01*
D02*
G37*
G36*
X177965Y172016D02*
X176554D01*
Y171785D01*
X177965D01*
Y172016D01*
D02*
G37*
G36*
X180395Y171276D02*
Y170882D01*
X180881D01*
Y170952D01*
X180765Y171067D01*
X180626Y171160D01*
X180395Y171276D01*
D02*
G37*
%LPD*%
G36*
X175397Y160886D02*
X175513Y160839D01*
X175582Y160770D01*
X175628Y160678D01*
X175698Y160515D01*
Y160469D01*
Y160446D01*
X175675Y160284D01*
X175628Y160168D01*
X175559Y160099D01*
X175466Y160053D01*
X175304Y159983D01*
X175235D01*
X175073Y160006D01*
X174957Y160053D01*
X174888Y160122D01*
X174818Y160215D01*
X174772Y160377D01*
Y160423D01*
Y160446D01*
X174795Y160608D01*
X174841Y160724D01*
X174911Y160793D01*
X175004Y160863D01*
X175165Y160909D01*
X175235D01*
X175397Y160886D01*
D02*
G37*
%LPC*%
G36*
X175258Y160515D02*
X175189D01*
X175165Y160492D01*
Y160469D01*
Y160446D01*
Y160400D01*
X175189Y160377D01*
X175235D01*
X175281Y160400D01*
X175304Y160423D01*
Y160446D01*
X175281Y160492D01*
X175258Y160515D01*
D02*
G37*
G36*
X196435Y165375D02*
X196389D01*
X196227Y165352D01*
X196065Y165305D01*
X195787Y165167D01*
X195694Y165074D01*
X195625Y165005D01*
X195579Y164958D01*
X195556Y164935D01*
X195440Y164750D01*
X195347Y164542D01*
X195278Y164334D01*
X195232Y164125D01*
X195209Y163940D01*
X195185Y163801D01*
Y163709D01*
Y163663D01*
X195209Y163339D01*
X195232Y163061D01*
X195301Y162829D01*
X195370Y162644D01*
X195440Y162482D01*
X195486Y162390D01*
X195533Y162320D01*
X195556Y162297D01*
X195625Y162182D01*
X195694Y162112D01*
X195764Y162066D01*
X195787Y162043D01*
X197384Y163639D01*
Y164889D01*
X197176Y165074D01*
X197037Y165190D01*
X196921Y165236D01*
X196898Y165259D01*
X196713Y165329D01*
X196551Y165352D01*
X196435Y165375D01*
D02*
G37*
G36*
X205737Y170790D02*
X205798Y170712D01*
X203099Y168013D01*
X204094D01*
Y167828D01*
X203840D01*
X203608Y167805D01*
X203446Y167735D01*
X203331Y167643D01*
X203308Y167620D01*
X203261Y167550D01*
X203215Y167457D01*
X203192Y167203D01*
X203169Y167087D01*
Y166972D01*
Y166902D01*
Y166879D01*
Y162737D01*
Y162552D01*
X203192Y162390D01*
Y162274D01*
X203215Y162182D01*
X203238Y162112D01*
Y162066D01*
X203261Y162043D01*
X203331Y161950D01*
X203423Y161904D01*
X203608Y161811D01*
X203770Y161788D01*
X204094D01*
Y161603D01*
X201341D01*
Y161788D01*
X201595D01*
X201827Y161811D01*
X201989Y161881D01*
X202081Y161950D01*
X202127Y161973D01*
X202174Y162043D01*
X202197Y162159D01*
X202243Y162413D01*
X202266Y162529D01*
Y162644D01*
Y162714D01*
Y162737D01*
Y164588D01*
X202035Y164542D01*
X201850Y164519D01*
X201734Y164496D01*
X201688D01*
X201480Y164472D01*
X201179D01*
X200901Y164496D01*
X200646Y164519D01*
X200438Y164588D01*
X200253Y164658D01*
X200091Y164704D01*
X199998Y164773D01*
X199929Y164796D01*
X199906Y164820D01*
X198170Y163061D01*
Y162020D01*
X197870Y161835D01*
X197615Y161719D01*
X197499Y161672D01*
X197430Y161626D01*
X197384Y161603D01*
X197361D01*
X197083Y161534D01*
X196852Y161487D01*
X196736Y161464D01*
X196574D01*
X193525Y158415D01*
X193658Y158294D01*
X194167Y157901D01*
X194676Y157554D01*
X195209Y157253D01*
X195718Y157021D01*
X196227Y156813D01*
X196736Y156651D01*
X197199Y156512D01*
X197638Y156397D01*
X198055Y156327D01*
X198402Y156258D01*
X198726Y156235D01*
X198980Y156211D01*
X199165Y156188D01*
X199328D01*
X199998Y156211D01*
X200623Y156304D01*
X201248Y156420D01*
X201803Y156582D01*
X202359Y156790D01*
X202868Y156998D01*
X203331Y157230D01*
X203770Y157461D01*
X204164Y157692D01*
X204511Y157924D01*
X204788Y158155D01*
X205043Y158340D01*
X205251Y158502D01*
X205390Y158618D01*
X205483Y158711D01*
X205506Y158734D01*
X205945Y159220D01*
X206339Y159729D01*
X206686Y160238D01*
X206987Y160770D01*
X207218Y161279D01*
X207427Y161811D01*
X207589Y162297D01*
X207727Y162760D01*
X207843Y163200D01*
X207912Y163616D01*
X207982Y163963D01*
X208005Y164287D01*
X208028Y164542D01*
X208051Y164727D01*
Y164843D01*
Y164889D01*
X208028Y165560D01*
X207936Y166185D01*
X207820Y166810D01*
X207658Y167365D01*
X207450Y167920D01*
X207241Y168429D01*
X207010Y168892D01*
X206779Y169332D01*
X206547Y169702D01*
X206316Y170049D01*
X206084Y170350D01*
X205899Y170581D01*
X205798Y170712D01*
X205807Y170720D01*
X205737Y170790D01*
D02*
G37*
G36*
X202266Y167157D02*
X200484Y165375D01*
X200531Y165282D01*
X200600Y165213D01*
X200623Y165190D01*
X200646Y165167D01*
X200785Y165028D01*
X200924Y164935D01*
X201063Y164866D01*
X201202Y164820D01*
X201318Y164796D01*
X201410Y164773D01*
X201595D01*
X201711Y164796D01*
X201827D01*
X201965Y164820D01*
X202104Y164843D01*
X202220Y164866D01*
X202266D01*
Y167157D01*
D02*
G37*
G36*
X199489Y173613D02*
X199328D01*
X198656Y173590D01*
X198032Y173497D01*
X197407Y173381D01*
X196852Y173219D01*
X196296Y173011D01*
X195787Y172803D01*
X195324Y172572D01*
X194885Y172340D01*
X194514Y172085D01*
X194167Y171854D01*
X193866Y171646D01*
X193635Y171438D01*
X193427Y171276D01*
X193288Y171160D01*
X193195Y171067D01*
X193172Y171044D01*
X192733Y170558D01*
X192339Y170049D01*
X191992Y169540D01*
X191691Y169008D01*
X191460Y168499D01*
X191252Y167990D01*
X191090Y167481D01*
X190951Y167018D01*
X190835Y166578D01*
X190766Y166162D01*
X190696Y165815D01*
X190673Y165491D01*
X190650Y165236D01*
X190627Y165051D01*
Y164935D01*
Y164889D01*
X190650Y164218D01*
X190743Y163593D01*
X190858Y162991D01*
X191020Y162413D01*
X191205Y161858D01*
X191437Y161349D01*
X191668Y160886D01*
X191900Y160469D01*
X192131Y160076D01*
X192362Y159729D01*
X192571Y159428D01*
X192779Y159196D01*
X192840Y159118D01*
X192825Y159104D01*
X192999Y158919D01*
X193056Y158849D01*
X193149Y158757D01*
X193172Y158734D01*
X192999Y158919D01*
X192941Y158988D01*
X192840Y159118D01*
X195509Y161788D01*
X195370Y161881D01*
X195255Y161973D01*
X195162Y162043D01*
X195139Y162066D01*
X194885Y162344D01*
X194700Y162668D01*
X194561Y162968D01*
X194468Y163269D01*
X194422Y163524D01*
X194376Y163732D01*
Y163871D01*
Y163894D01*
Y163917D01*
X194399Y164264D01*
X194445Y164588D01*
X194537Y164843D01*
X194607Y165074D01*
X194700Y165259D01*
X194792Y165375D01*
X194838Y165468D01*
X194861Y165491D01*
X195047Y165676D01*
X195255Y165815D01*
X195440Y165930D01*
X195625Y166000D01*
X195787Y166046D01*
X195903Y166069D01*
X196019D01*
X196296Y166023D01*
X196551Y165930D01*
X196782Y165791D01*
X196967Y165629D01*
X197152Y165468D01*
X197268Y165329D01*
X197361Y165236D01*
X197384Y165190D01*
Y168314D01*
X197592D01*
X198888Y167781D01*
X198818Y167620D01*
X198680Y167666D01*
X198587Y167689D01*
X198494D01*
X198356Y167666D01*
X198333Y167643D01*
X198309D01*
X198263Y167573D01*
X198217Y167504D01*
X198194Y167434D01*
Y167411D01*
Y167319D01*
X198170Y167203D01*
Y166902D01*
Y166740D01*
Y166624D01*
Y166532D01*
Y166509D01*
Y164426D01*
X199304Y165583D01*
X199258Y165815D01*
X199212Y166023D01*
Y166115D01*
Y166162D01*
Y166208D01*
Y166231D01*
X199235Y166439D01*
X199258Y166624D01*
X199328Y166810D01*
X199374Y166948D01*
X199443Y167064D01*
X199513Y167157D01*
X199536Y167203D01*
X199559Y167226D01*
X199698Y167388D01*
X199837Y167504D01*
X199975Y167620D01*
X200114Y167689D01*
X200230Y167758D01*
X200299Y167805D01*
X200369Y167828D01*
X200392D01*
X200600Y167897D01*
X200808Y167944D01*
X201040Y167967D01*
X201248Y167990D01*
X201433Y168013D01*
X201734D01*
X205136Y171391D01*
X205483Y171044D01*
X205737Y170790D01*
X205622Y170929D01*
X205529Y171021D01*
X205506Y171044D01*
X205020Y171507D01*
X204511Y171900D01*
X203979Y172224D01*
X203446Y172525D01*
X202937Y172780D01*
X202428Y172988D01*
X201919Y173150D01*
X201456Y173289D01*
X201017Y173405D01*
X200600Y173474D01*
X200253Y173543D01*
X199929Y173566D01*
X199675Y173590D01*
X199489Y173613D01*
D02*
G37*
G36*
X201318Y167596D02*
X201179Y167550D01*
X201063Y167504D01*
X200970Y167457D01*
X200947Y167434D01*
X200739Y167272D01*
X200600Y167110D01*
X200484Y166972D01*
X200461Y166925D01*
Y166902D01*
X200392Y166787D01*
X200369Y166694D01*
X200346Y166648D01*
Y166624D01*
X201318Y167596D01*
D02*
G37*
G36*
X193172Y158734D02*
X193519Y158410D01*
X193525Y158415D01*
X193172Y158734D01*
D02*
G37*
%LPD*%
D20*
X248500Y311500D02*
Y316498D01*
X245168Y311500D01*
Y316498D01*
X241002Y311500D02*
X242669D01*
X243502Y312333D01*
Y313999D01*
X242669Y314832D01*
X241002D01*
X240169Y313999D01*
Y313166D01*
X243502D01*
X238503Y314832D02*
Y312333D01*
X237670Y311500D01*
X236837Y312333D01*
X236004Y311500D01*
X235171Y312333D01*
Y314832D01*
X233505Y311500D02*
Y314832D01*
X231839Y316498D01*
X230173Y314832D01*
Y311500D01*
Y313999D01*
X233505D01*
X225174Y316498D02*
X228506D01*
Y311500D01*
X225174D01*
X228506Y313999D02*
X226840D01*
X218510Y316498D02*
X215177D01*
X216844D01*
Y311500D01*
X211012D02*
X212678D01*
X213511Y312333D01*
Y313999D01*
X212678Y314832D01*
X211012D01*
X210179Y313999D01*
Y313166D01*
X213511D01*
X205181Y314832D02*
X207680D01*
X208513Y313999D01*
Y312333D01*
X207680Y311500D01*
X205181D01*
X203515Y316498D02*
Y311500D01*
Y313999D01*
X202681Y314832D01*
X201015D01*
X200182Y313999D01*
Y311500D01*
X198516D02*
Y314832D01*
X196017D01*
X195184Y313999D01*
Y311500D01*
X192685D02*
X191019D01*
X190186Y312333D01*
Y313999D01*
X191019Y314832D01*
X192685D01*
X193518Y313999D01*
Y312333D01*
X192685Y311500D01*
X188519D02*
X186853D01*
X187686D01*
Y316498D01*
X188519D01*
X183521Y311500D02*
X181855D01*
X181022Y312333D01*
Y313999D01*
X181855Y314832D01*
X183521D01*
X184354Y313999D01*
Y312333D01*
X183521Y311500D01*
X177690Y309834D02*
X176857D01*
X176023Y310667D01*
Y314832D01*
X178523D01*
X179356Y313999D01*
Y312333D01*
X178523Y311500D01*
X176023D01*
X174357Y314832D02*
Y312333D01*
X173524Y311500D01*
X171025D01*
Y310667D01*
X171858Y309834D01*
X172691D01*
X171025Y311500D02*
Y314832D01*
X164361Y316498D02*
X162695D01*
X163528D01*
Y311500D01*
X164361D01*
X162695D01*
X160195D02*
Y314832D01*
X157696D01*
X156863Y313999D01*
Y311500D01*
X151865Y314832D02*
X154364D01*
X155197Y313999D01*
Y312333D01*
X154364Y311500D01*
X151865D01*
X150198D02*
Y312333D01*
X149365D01*
Y311500D01*
X150198D01*
X248500Y304000D02*
Y308998D01*
X245168Y304000D01*
Y308998D01*
X243502Y304000D02*
Y307332D01*
X241835Y308998D01*
X240169Y307332D01*
Y304000D01*
Y306499D01*
X243502D01*
X235171Y308998D02*
X238503D01*
Y304000D01*
X235171D01*
X238503Y306499D02*
X236837D01*
X233505D02*
X230173D01*
X225174Y308165D02*
X226007Y308998D01*
X227673D01*
X228506Y308165D01*
Y304833D01*
X227673Y304000D01*
X226007D01*
X225174Y304833D01*
X223508Y308998D02*
Y304000D01*
X221842Y305666D01*
X220176Y304000D01*
Y308998D01*
X218510Y308165D02*
X217677Y308998D01*
X216010D01*
X215177Y308165D01*
Y307332D01*
X216010Y306499D01*
X216844D01*
X216010D01*
X215177Y305666D01*
Y304833D01*
X216010Y304000D01*
X217677D01*
X218510Y304833D01*
X213511Y308165D02*
X212678Y308998D01*
X211012D01*
X210179Y308165D01*
Y304833D01*
X211012Y304000D01*
X212678D01*
X213511Y304833D01*
Y308165D01*
X208513D02*
X207680Y308998D01*
X206014D01*
X205181Y308165D01*
Y307332D01*
X206014Y306499D01*
X205181Y305666D01*
Y304833D01*
X206014Y304000D01*
X207680D01*
X208513Y304833D01*
Y305666D01*
X207680Y306499D01*
X208513Y307332D01*
Y308165D01*
X207680Y306499D02*
X206014D01*
X203515Y308998D02*
X200182D01*
X201849D01*
Y304000D01*
X198516Y306499D02*
X195184D01*
X193518Y308998D02*
Y304000D01*
X191019D01*
X190186Y304833D01*
Y308165D01*
X191019Y308998D01*
X193518D01*
X185187Y304000D02*
X188519D01*
X185187Y307332D01*
Y308165D01*
X186020Y308998D01*
X187686D01*
X188519Y308165D01*
X183521D02*
X182688Y308998D01*
X181022D01*
X180189Y308165D01*
Y304833D01*
X181022Y304000D01*
X182688D01*
X183521Y304833D01*
Y308165D01*
X178523D02*
X177690Y308998D01*
X176023D01*
X175190Y308165D01*
Y304833D01*
X176023Y304000D01*
X177690D01*
X178523Y304833D01*
Y308165D01*
X173524D02*
X172691Y308998D01*
X171025D01*
X170192Y308165D01*
Y304833D01*
X171025Y304000D01*
X172691D01*
X173524Y304833D01*
Y308165D01*
X168526Y306499D02*
X165194D01*
X163528Y308165D02*
X162695Y308998D01*
X161028D01*
X160195Y308165D01*
Y304833D01*
X161028Y304000D01*
X162695D01*
X163528Y304833D01*
Y308165D01*
X155197Y304000D02*
X158529D01*
X155197Y307332D01*
Y308165D01*
X156030Y308998D01*
X157696D01*
X158529Y308165D01*
X248500Y296000D02*
Y300998D01*
X246001D01*
X245168Y300165D01*
Y298499D01*
X246001Y297666D01*
X248500D01*
X246834D02*
X245168Y296000D01*
X242669D02*
X241002D01*
X240169Y296833D01*
Y298499D01*
X241002Y299332D01*
X242669D01*
X243502Y298499D01*
Y296833D01*
X242669Y296000D01*
X238503Y300998D02*
Y296000D01*
Y298499D01*
X235171D01*
Y300998D01*
Y296000D01*
X230173Y300165D02*
X231006Y300998D01*
X232672D01*
X233505Y300165D01*
Y299332D01*
X232672Y298499D01*
X231006D01*
X230173Y297666D01*
Y296833D01*
X231006Y296000D01*
X232672D01*
X233505Y296833D01*
X223508Y296000D02*
X220176Y299332D01*
X213511Y296000D02*
Y300998D01*
X211012D01*
X210179Y300165D01*
Y298499D01*
X211012Y297666D01*
X213511D01*
X208513Y300998D02*
Y296000D01*
X206014D01*
X205181Y296833D01*
Y297666D01*
X206014Y298499D01*
X208513D01*
X206014D01*
X205181Y299332D01*
Y300165D01*
X206014Y300998D01*
X208513D01*
X203515Y298499D02*
X200182D01*
X195184Y300998D02*
X198516D01*
Y298499D01*
X196850D01*
X198516D01*
Y296000D01*
X193518Y299332D02*
Y296000D01*
Y297666D01*
X192685Y298499D01*
X191852Y299332D01*
X191019D01*
X186020Y296000D02*
X187686D01*
X188519Y296833D01*
Y298499D01*
X187686Y299332D01*
X186020D01*
X185187Y298499D01*
Y297666D01*
X188519D01*
X181022Y296000D02*
X182688D01*
X183521Y296833D01*
Y298499D01*
X182688Y299332D01*
X181022D01*
X180189Y298499D01*
Y297666D01*
X183521D01*
D21*
X100000Y100000D02*
X306000D01*
Y355500D01*
X161500D02*
X306000D01*
X112500D02*
X161500D01*
X102500D02*
X112500D01*
X100000Y100000D02*
Y355500D01*
X102500D01*
M02*
