G04 Layer_Color=16711935*
%FSLAX25Y25*%
%MOIN*%
G70*
G01*
G75*
%ADD21C,0.01500*%
%ADD42C,0.25800*%
%ADD43R,0.11800X0.06800*%
%ADD44O,0.11800X0.06800*%
%ADD45R,0.06800X0.11800*%
%ADD46O,0.06800X0.11800*%
%ADD47C,0.03200*%
%ADD48C,0.04800*%
%ADD49C,0.02769*%
%ADD50C,0.03400*%
D21*
X100000Y355500D02*
X102500D01*
X100000Y100000D02*
Y355500D01*
X102500D02*
X112500D01*
X161500D01*
X306000D01*
Y100000D02*
Y355500D01*
X100000Y100000D02*
X306000D01*
D42*
X198000Y138000D02*
D03*
X128000Y338000D02*
D03*
X278000D02*
D03*
D43*
X108000Y318000D02*
D03*
X298000D02*
D03*
D44*
X108000Y308000D02*
D03*
Y298000D02*
D03*
Y288000D02*
D03*
Y278000D02*
D03*
Y268000D02*
D03*
Y258000D02*
D03*
Y248000D02*
D03*
Y238000D02*
D03*
Y228000D02*
D03*
Y218000D02*
D03*
Y208000D02*
D03*
Y198000D02*
D03*
Y188000D02*
D03*
Y178000D02*
D03*
Y168000D02*
D03*
Y158000D02*
D03*
Y148000D02*
D03*
Y138000D02*
D03*
Y128000D02*
D03*
X298000Y308000D02*
D03*
Y298000D02*
D03*
Y288000D02*
D03*
Y278000D02*
D03*
Y268000D02*
D03*
Y258000D02*
D03*
Y248000D02*
D03*
Y238000D02*
D03*
Y228000D02*
D03*
Y218000D02*
D03*
Y208000D02*
D03*
Y198000D02*
D03*
Y188000D02*
D03*
Y178000D02*
D03*
Y168000D02*
D03*
Y158000D02*
D03*
Y148000D02*
D03*
Y138000D02*
D03*
Y128000D02*
D03*
D45*
X108000Y108000D02*
D03*
D46*
X118000D02*
D03*
X128000D02*
D03*
X138000D02*
D03*
X148000D02*
D03*
X158000D02*
D03*
X168000D02*
D03*
X178000D02*
D03*
X188000D02*
D03*
X198000D02*
D03*
X208000D02*
D03*
X218000D02*
D03*
X228000D02*
D03*
X238000D02*
D03*
X248000D02*
D03*
X258000D02*
D03*
X268000D02*
D03*
X278000D02*
D03*
X288000D02*
D03*
X298000D02*
D03*
D47*
X213937Y240500D02*
D03*
X149500Y255500D02*
D03*
X146000Y261500D02*
D03*
Y255500D02*
D03*
X149500Y263500D02*
D03*
X217500Y238000D02*
D03*
X148500Y147500D02*
D03*
Y135000D02*
D03*
X217500Y231500D02*
D03*
X157500Y159000D02*
D03*
Y142500D02*
D03*
X153500Y255500D02*
D03*
Y265000D02*
D03*
X224866Y266366D02*
D03*
X231000Y250000D02*
D03*
X199500Y215000D02*
D03*
X171500Y267000D02*
D03*
X216500Y215000D02*
D03*
X278500Y228000D02*
D03*
D48*
X210000Y277500D02*
D03*
X215000D02*
D03*
D49*
X213543Y251012D02*
D03*
X209213D02*
D03*
X204882D02*
D03*
X200551D02*
D03*
X213543Y255343D02*
D03*
X209213D02*
D03*
X204882D02*
D03*
X200551D02*
D03*
X213543Y259673D02*
D03*
X209213D02*
D03*
X204882D02*
D03*
X200551D02*
D03*
X213543Y264004D02*
D03*
X209213D02*
D03*
X204882D02*
D03*
X200551D02*
D03*
D50*
X198000Y294000D02*
D03*
X229000Y281500D02*
D03*
X256500Y278000D02*
D03*
Y270500D02*
D03*
X192228Y226847D02*
D03*
M02*
