G04 Layer_Color=8388736*
%FSLAX25Y25*%
%MOIN*%
G70*
G01*
G75*
%ADD21C,0.01500*%
G04:AMPARAMS|DCode=35|XSize=47.37mil|YSize=43.43mil|CornerRadius=8.43mil|HoleSize=0mil|Usage=FLASHONLY|Rotation=180.000|XOffset=0mil|YOffset=0mil|HoleType=Round|Shape=RoundedRectangle|*
%AMROUNDEDRECTD35*
21,1,0.04737,0.02658,0,0,180.0*
21,1,0.03051,0.04343,0,0,180.0*
1,1,0.01686,-0.01526,0.01329*
1,1,0.01686,0.01526,0.01329*
1,1,0.01686,0.01526,-0.01329*
1,1,0.01686,-0.01526,-0.01329*
%
%ADD35ROUNDEDRECTD35*%
%ADD36R,0.03753X0.04540*%
%ADD37R,0.04540X0.03753*%
G04:AMPARAMS|DCode=38|XSize=47.37mil|YSize=43.43mil|CornerRadius=8.43mil|HoleSize=0mil|Usage=FLASHONLY|Rotation=270.000|XOffset=0mil|YOffset=0mil|HoleType=Round|Shape=RoundedRectangle|*
%AMROUNDEDRECTD38*
21,1,0.04737,0.02658,0,0,270.0*
21,1,0.03051,0.04343,0,0,270.0*
1,1,0.01686,-0.01329,-0.01526*
1,1,0.01686,-0.01329,0.01526*
1,1,0.01686,0.01329,0.01526*
1,1,0.01686,0.01329,-0.01526*
%
%ADD38ROUNDEDRECTD38*%
%ADD39O,0.05131X0.01784*%
%ADD40O,0.01784X0.05131*%
%ADD41R,0.18989X0.18989*%
%ADD42C,0.25800*%
%ADD43O,0.11800X0.06800*%
%ADD44R,0.11800X0.06800*%
%ADD45O,0.06800X0.11800*%
%ADD46R,0.06800X0.11800*%
%ADD47C,0.03200*%
%ADD48C,0.03400*%
%ADD49C,0.02769*%
%ADD50C,0.04800*%
D21*
X100000Y100000D02*
X306000D01*
Y355500D01*
X161500D02*
X306000D01*
X112500D02*
X161500D01*
X102500D02*
X112500D01*
X100000Y100000D02*
Y355500D01*
X102500D01*
D35*
X241000Y254654D02*
D03*
Y261347D02*
D03*
D36*
X266244Y228000D02*
D03*
X271756D02*
D03*
X246244Y278000D02*
D03*
X251756D02*
D03*
X246244Y270500D02*
D03*
X251756D02*
D03*
D37*
X192228Y237102D02*
D03*
Y231591D02*
D03*
X198000Y284244D02*
D03*
Y289756D02*
D03*
X229000Y271744D02*
D03*
Y277256D02*
D03*
D38*
X139847Y298000D02*
D03*
X133153D02*
D03*
X169307Y278000D02*
D03*
X176000D02*
D03*
X171153Y236000D02*
D03*
X177847D02*
D03*
D39*
X195039Y266366D02*
D03*
Y264398D02*
D03*
Y262429D02*
D03*
Y260461D02*
D03*
Y258492D02*
D03*
Y256524D02*
D03*
Y254555D02*
D03*
Y252587D02*
D03*
Y250618D02*
D03*
Y248650D02*
D03*
X219055D02*
D03*
Y250618D02*
D03*
Y252587D02*
D03*
Y254555D02*
D03*
Y256524D02*
D03*
Y258492D02*
D03*
Y260461D02*
D03*
Y262429D02*
D03*
Y264398D02*
D03*
Y266366D02*
D03*
D40*
X198189Y245500D02*
D03*
X200157D02*
D03*
X202126D02*
D03*
X204095D02*
D03*
X206063D02*
D03*
X208032D02*
D03*
X210000D02*
D03*
X211968D02*
D03*
X213937D02*
D03*
X215905D02*
D03*
Y269516D02*
D03*
X213937D02*
D03*
X211968D02*
D03*
X210000D02*
D03*
X208032D02*
D03*
X206063D02*
D03*
X204095D02*
D03*
X202126D02*
D03*
X200157D02*
D03*
X198189D02*
D03*
D41*
X207047Y257508D02*
D03*
D42*
X278000Y338000D02*
D03*
X128000D02*
D03*
X198000Y138000D02*
D03*
D43*
X298000Y128000D02*
D03*
Y138000D02*
D03*
Y148000D02*
D03*
Y158000D02*
D03*
Y168000D02*
D03*
Y178000D02*
D03*
Y188000D02*
D03*
Y198000D02*
D03*
Y208000D02*
D03*
Y218000D02*
D03*
Y228000D02*
D03*
Y238000D02*
D03*
Y248000D02*
D03*
Y258000D02*
D03*
Y268000D02*
D03*
Y278000D02*
D03*
Y288000D02*
D03*
Y298000D02*
D03*
Y308000D02*
D03*
X108000Y128000D02*
D03*
Y138000D02*
D03*
Y148000D02*
D03*
Y158000D02*
D03*
Y168000D02*
D03*
Y178000D02*
D03*
Y188000D02*
D03*
Y198000D02*
D03*
Y208000D02*
D03*
Y218000D02*
D03*
Y228000D02*
D03*
Y238000D02*
D03*
Y248000D02*
D03*
Y258000D02*
D03*
Y268000D02*
D03*
Y278000D02*
D03*
Y288000D02*
D03*
Y298000D02*
D03*
Y308000D02*
D03*
D44*
X298000Y318000D02*
D03*
X108000D02*
D03*
D45*
X298000Y108000D02*
D03*
X288000D02*
D03*
X278000D02*
D03*
X268000D02*
D03*
X258000D02*
D03*
X248000D02*
D03*
X238000D02*
D03*
X228000D02*
D03*
X218000D02*
D03*
X208000D02*
D03*
X198000D02*
D03*
X188000D02*
D03*
X178000D02*
D03*
X168000D02*
D03*
X158000D02*
D03*
X148000D02*
D03*
X138000D02*
D03*
X128000D02*
D03*
X118000D02*
D03*
D46*
X108000D02*
D03*
D47*
X216700Y214200D02*
D03*
X199700Y214300D02*
D03*
X278500Y228000D02*
D03*
X171500Y267000D02*
D03*
X231000Y250000D02*
D03*
X224866Y266366D02*
D03*
X153500Y265000D02*
D03*
Y255500D02*
D03*
X157500Y142500D02*
D03*
Y159000D02*
D03*
X217500Y231500D02*
D03*
X148500Y135000D02*
D03*
Y147500D02*
D03*
X217500Y238000D02*
D03*
X149500Y263500D02*
D03*
X146000Y255500D02*
D03*
Y261500D02*
D03*
X149500Y255500D02*
D03*
X213937Y240500D02*
D03*
D48*
X192228Y226847D02*
D03*
X256500Y270500D02*
D03*
Y278000D02*
D03*
X229000Y281500D02*
D03*
X198000Y294000D02*
D03*
D49*
X200551Y264004D02*
D03*
X204882D02*
D03*
X209213D02*
D03*
X213543D02*
D03*
X200551Y259673D02*
D03*
X204882D02*
D03*
X209213D02*
D03*
X213543D02*
D03*
X200551Y255343D02*
D03*
X204882D02*
D03*
X209213D02*
D03*
X213543D02*
D03*
X200551Y251012D02*
D03*
X204882D02*
D03*
X209213D02*
D03*
X213543D02*
D03*
D50*
X215000Y277500D02*
D03*
X210000D02*
D03*
M02*
