G04 Layer_Color=8421504*
%FSLAX25Y25*%
%MOIN*%
G70*
G01*
G75*
G04:AMPARAMS|DCode=10|XSize=39.37mil|YSize=35.43mil|CornerRadius=4.43mil|HoleSize=0mil|Usage=FLASHONLY|Rotation=180.000|XOffset=0mil|YOffset=0mil|HoleType=Round|Shape=RoundedRectangle|*
%AMROUNDEDRECTD10*
21,1,0.03937,0.02658,0,0,180.0*
21,1,0.03051,0.03543,0,0,180.0*
1,1,0.00886,-0.01526,0.01329*
1,1,0.00886,0.01526,0.01329*
1,1,0.00886,0.01526,-0.01329*
1,1,0.00886,-0.01526,-0.01329*
%
%ADD10ROUNDEDRECTD10*%
%ADD11R,0.02953X0.03740*%
%ADD12R,0.03740X0.02953*%
G04:AMPARAMS|DCode=13|XSize=39.37mil|YSize=35.43mil|CornerRadius=4.43mil|HoleSize=0mil|Usage=FLASHONLY|Rotation=270.000|XOffset=0mil|YOffset=0mil|HoleType=Round|Shape=RoundedRectangle|*
%AMROUNDEDRECTD13*
21,1,0.03937,0.02658,0,0,270.0*
21,1,0.03051,0.03543,0,0,270.0*
1,1,0.00886,-0.01329,-0.01526*
1,1,0.00886,-0.01329,0.01526*
1,1,0.00886,0.01329,0.01526*
1,1,0.00886,0.01329,-0.01526*
%
%ADD13ROUNDEDRECTD13*%
%ADD14O,0.04331X0.00984*%
%ADD15O,0.00984X0.04331*%
%ADD16R,0.18189X0.18189*%
%ADD21C,0.01500*%
D10*
X241000Y254654D02*
D03*
Y261347D02*
D03*
D11*
X266244Y228000D02*
D03*
X271756D02*
D03*
X246244Y278000D02*
D03*
X251756D02*
D03*
X246244Y270500D02*
D03*
X251756D02*
D03*
D12*
X192228Y237102D02*
D03*
Y231591D02*
D03*
X198000Y284244D02*
D03*
Y289756D02*
D03*
X229000Y271744D02*
D03*
Y277256D02*
D03*
D13*
X139847Y298000D02*
D03*
X133153D02*
D03*
X169307Y278000D02*
D03*
X176000D02*
D03*
X171153Y236000D02*
D03*
X177847D02*
D03*
D14*
X195039Y266366D02*
D03*
Y264398D02*
D03*
Y262429D02*
D03*
Y260461D02*
D03*
Y258492D02*
D03*
Y256524D02*
D03*
Y254555D02*
D03*
Y252587D02*
D03*
Y250618D02*
D03*
Y248650D02*
D03*
X219055D02*
D03*
Y250618D02*
D03*
Y252587D02*
D03*
Y254555D02*
D03*
Y256524D02*
D03*
Y258492D02*
D03*
Y260461D02*
D03*
Y262429D02*
D03*
Y264398D02*
D03*
Y266366D02*
D03*
D15*
X198189Y245500D02*
D03*
X200157D02*
D03*
X202126D02*
D03*
X204095D02*
D03*
X206063D02*
D03*
X208032D02*
D03*
X210000D02*
D03*
X211968D02*
D03*
X213937D02*
D03*
X215905D02*
D03*
Y269516D02*
D03*
X213937D02*
D03*
X211968D02*
D03*
X210000D02*
D03*
X208032D02*
D03*
X206063D02*
D03*
X204095D02*
D03*
X202126D02*
D03*
X200157D02*
D03*
X198189D02*
D03*
D16*
X207047Y257508D02*
D03*
D21*
X100000Y100000D02*
X306000D01*
Y355500D01*
X161500D02*
X306000D01*
X112500D02*
X161500D01*
X102500D02*
X112500D01*
X100000Y100000D02*
Y355500D01*
X102500D01*
M02*
