G04*
G04 #@! TF.GenerationSoftware,Altium Limited,Altium Designer,18.0.12 (696)*
G04*
G04 Layer_Physical_Order=2*
G04 Layer_Color=32768*
%FSLAX25Y25*%
%MOIN*%
G70*
G01*
G75*
%ADD16C,0.00500*%
%ADD61C,0.04000*%
%ADD62C,0.07937*%
%ADD63C,0.17400*%
%ADD64C,0.07900*%
G04:AMPARAMS|DCode=65|XSize=99mil|YSize=99mil|CornerRadius=0mil|HoleSize=0mil|Usage=FLASHONLY|Rotation=0.000|XOffset=0mil|YOffset=0mil|HoleType=Round|Shape=Relief|Width=10mil|Gap=10mil|Entries=4|*
%AMTHD65*
7,0,0,0.09900,0.07900,0.01000,45*
%
%ADD65THD65*%
%ADD66C,0.05200*%
D16*
X232Y-7D02*
Y253993D01*
X206232D01*
Y-7D02*
Y253993D01*
X232Y-7D02*
X206232D01*
D61*
X0Y254200D02*
X206400Y254200D01*
X-0Y-7D02*
X206400Y-7D01*
X206400Y254200D01*
X-0Y-7D02*
X0Y254200D01*
D62*
X177000Y155500D02*
D03*
Y145500D02*
D03*
D63*
X98400Y38200D02*
D03*
X28400Y238200D02*
D03*
X178400D02*
D03*
D64*
X8400Y218200D02*
D03*
Y198200D02*
D03*
Y178200D02*
D03*
Y158200D02*
D03*
Y148200D02*
D03*
Y138200D02*
D03*
Y128200D02*
D03*
Y118200D02*
D03*
Y108200D02*
D03*
Y98200D02*
D03*
Y88200D02*
D03*
Y58200D02*
D03*
Y48200D02*
D03*
Y38200D02*
D03*
Y28200D02*
D03*
X18400Y8200D02*
D03*
X28400D02*
D03*
X38400D02*
D03*
X48400D02*
D03*
X58400D02*
D03*
X68400D02*
D03*
X78400D02*
D03*
X108400D02*
D03*
X118400D02*
D03*
X128400D02*
D03*
X138400D02*
D03*
X148400D02*
D03*
X158400D02*
D03*
X168400D02*
D03*
X178400D02*
D03*
X188400D02*
D03*
X198400D02*
D03*
Y208200D02*
D03*
Y198200D02*
D03*
Y178200D02*
D03*
Y168200D02*
D03*
Y148200D02*
D03*
Y138200D02*
D03*
Y128200D02*
D03*
Y118200D02*
D03*
Y108200D02*
D03*
Y98200D02*
D03*
Y88200D02*
D03*
Y78200D02*
D03*
Y48200D02*
D03*
Y38200D02*
D03*
Y28200D02*
D03*
D65*
X8400Y208200D02*
D03*
Y188200D02*
D03*
Y168200D02*
D03*
Y78200D02*
D03*
Y68200D02*
D03*
Y8200D02*
D03*
X88400D02*
D03*
X98400D02*
D03*
X198400Y218200D02*
D03*
Y188200D02*
D03*
Y158200D02*
D03*
Y68200D02*
D03*
Y58200D02*
D03*
D66*
X129500Y116000D02*
D03*
X140500Y118500D02*
D03*
X145000Y117500D02*
D03*
X84000Y27500D02*
D03*
X32500Y83000D02*
D03*
X19800Y58200D02*
D03*
X98256Y134744D02*
D03*
X107244D02*
D03*
X128000Y85500D02*
D03*
X121500Y95000D02*
D03*
Y110000D02*
D03*
X116500Y118000D02*
D03*
X133756Y134500D02*
D03*
X88500Y106679D02*
D03*
X102500Y120179D02*
D03*
X83500Y127180D02*
D03*
Y134179D02*
D03*
X33180Y106179D02*
D03*
X49000Y137000D02*
D03*
X78500Y76000D02*
D03*
X136941Y107441D02*
D03*
X125585Y95085D02*
D03*
X91000Y57000D02*
D03*
X88500Y54500D02*
D03*
X85000D02*
D03*
X80000Y37500D02*
D03*
X127000Y105000D02*
D03*
X129828Y107808D02*
D03*
X151000Y104500D02*
D03*
X88013Y81487D02*
D03*
X89000Y140872D02*
D03*
X74128D02*
D03*
X146044Y108256D02*
D03*
X63756Y135244D02*
D03*
X33244D02*
D03*
X169346Y140602D02*
D03*
X98756Y87756D02*
D03*
X119000Y105000D02*
D03*
X77800Y60000D02*
D03*
X40000Y54500D02*
D03*
X116559Y107441D02*
D03*
X108000Y108000D02*
D03*
X101000D02*
D03*
Y105000D02*
D03*
X114663Y50000D02*
D03*
X153000Y63000D02*
D03*
X72500Y67500D02*
D03*
X98000Y157500D02*
D03*
M02*
