G04*
G04 #@! TF.GenerationSoftware,Altium Limited,Altium Designer,18.0.12 (696)*
G04*
G04 Layer_Color=16711935*
%FSLAX25Y25*%
%MOIN*%
G70*
G01*
G75*
%ADD16C,0.00500*%
%ADD37C,0.06706*%
%ADD38C,0.25800*%
%ADD39R,0.11800X0.06800*%
%ADD40O,0.11800X0.06800*%
%ADD41R,0.06800X0.11800*%
%ADD42O,0.06800X0.11800*%
D16*
X232Y-7D02*
Y253993D01*
X206232D01*
Y-7D02*
Y253993D01*
X232Y-7D02*
X206232D01*
D37*
X177000Y155500D02*
D03*
Y145500D02*
D03*
D38*
X98400Y38200D02*
D03*
X28400Y238200D02*
D03*
X178400D02*
D03*
D39*
X8400Y218200D02*
D03*
X198400D02*
D03*
D40*
X8400Y208200D02*
D03*
Y198200D02*
D03*
Y188200D02*
D03*
Y178200D02*
D03*
Y168200D02*
D03*
Y158200D02*
D03*
Y148200D02*
D03*
Y138200D02*
D03*
Y128200D02*
D03*
Y118200D02*
D03*
Y108200D02*
D03*
Y98200D02*
D03*
Y88200D02*
D03*
Y78200D02*
D03*
Y68200D02*
D03*
Y58200D02*
D03*
Y48200D02*
D03*
Y38200D02*
D03*
Y28200D02*
D03*
X198400Y208200D02*
D03*
Y198200D02*
D03*
Y188200D02*
D03*
Y178200D02*
D03*
Y168200D02*
D03*
Y158200D02*
D03*
Y148200D02*
D03*
Y138200D02*
D03*
Y128200D02*
D03*
Y118200D02*
D03*
Y108200D02*
D03*
Y98200D02*
D03*
Y88200D02*
D03*
Y78200D02*
D03*
Y68200D02*
D03*
Y58200D02*
D03*
Y48200D02*
D03*
Y38200D02*
D03*
Y28200D02*
D03*
D41*
X8400Y8200D02*
D03*
D42*
X18400D02*
D03*
X28400D02*
D03*
X38400D02*
D03*
X48400D02*
D03*
X58400D02*
D03*
X68400D02*
D03*
X78400D02*
D03*
X88400D02*
D03*
X98400D02*
D03*
X108400D02*
D03*
X118400D02*
D03*
X128400D02*
D03*
X138400D02*
D03*
X148400D02*
D03*
X158400D02*
D03*
X168400D02*
D03*
X178400D02*
D03*
X188400D02*
D03*
X198400D02*
D03*
M02*
