G04*
G04 #@! TF.GenerationSoftware,Altium Limited,Altium Designer,18.0.12 (696)*
G04*
G04 Layer_Color=8388736*
%FSLAX25Y25*%
%MOIN*%
G70*
G01*
G75*
%ADD16C,0.00500*%
%ADD27R,0.07087X0.06299*%
G04:AMPARAMS|DCode=28|XSize=47.37mil|YSize=78.87mil|CornerRadius=7.94mil|HoleSize=0mil|Usage=FLASHONLY|Rotation=270.000|XOffset=0mil|YOffset=0mil|HoleType=Round|Shape=RoundedRectangle|*
%AMROUNDEDRECTD28*
21,1,0.04737,0.06299,0,0,270.0*
21,1,0.03150,0.07887,0,0,270.0*
1,1,0.01587,-0.03150,-0.01575*
1,1,0.01587,-0.03150,0.01575*
1,1,0.01587,0.03150,0.01575*
1,1,0.01587,0.03150,-0.01575*
%
%ADD28ROUNDEDRECTD28*%
G04:AMPARAMS|DCode=29|XSize=31.62mil|YSize=65.09mil|CornerRadius=5.18mil|HoleSize=0mil|Usage=FLASHONLY|Rotation=90.000|XOffset=0mil|YOffset=0mil|HoleType=Round|Shape=RoundedRectangle|*
%AMROUNDEDRECTD29*
21,1,0.03162,0.05472,0,0,90.0*
21,1,0.02126,0.06509,0,0,90.0*
1,1,0.01036,0.02736,0.01063*
1,1,0.01036,0.02736,-0.01063*
1,1,0.01036,-0.02736,-0.01063*
1,1,0.01036,-0.02736,0.01063*
%
%ADD29ROUNDEDRECTD29*%
G04:AMPARAMS|DCode=30|XSize=33.59mil|YSize=72.96mil|CornerRadius=5.92mil|HoleSize=0mil|Usage=FLASHONLY|Rotation=0.000|XOffset=0mil|YOffset=0mil|HoleType=Round|Shape=RoundedRectangle|*
%AMROUNDEDRECTD30*
21,1,0.03359,0.06112,0,0,0.0*
21,1,0.02175,0.07296,0,0,0.0*
1,1,0.01184,0.01088,-0.03056*
1,1,0.01184,-0.01088,-0.03056*
1,1,0.01184,-0.01088,0.03056*
1,1,0.01184,0.01088,0.03056*
%
%ADD30ROUNDEDRECTD30*%
%ADD31C,0.01378*%
%ADD32R,0.03300X0.05800*%
G04:AMPARAMS|DCode=33|XSize=47.37mil|YSize=43.43mil|CornerRadius=8.43mil|HoleSize=0mil|Usage=FLASHONLY|Rotation=90.000|XOffset=0mil|YOffset=0mil|HoleType=Round|Shape=RoundedRectangle|*
%AMROUNDEDRECTD33*
21,1,0.04737,0.02657,0,0,90.0*
21,1,0.03051,0.04343,0,0,90.0*
1,1,0.01686,0.01329,0.01526*
1,1,0.01686,0.01329,-0.01526*
1,1,0.01686,-0.01329,-0.01526*
1,1,0.01686,-0.01329,0.01526*
%
%ADD33ROUNDEDRECTD33*%
G04:AMPARAMS|DCode=34|XSize=47.37mil|YSize=43.43mil|CornerRadius=8.43mil|HoleSize=0mil|Usage=FLASHONLY|Rotation=180.000|XOffset=0mil|YOffset=0mil|HoleType=Round|Shape=RoundedRectangle|*
%AMROUNDEDRECTD34*
21,1,0.04737,0.02657,0,0,180.0*
21,1,0.03051,0.04343,0,0,180.0*
1,1,0.01686,-0.01526,0.01329*
1,1,0.01686,0.01526,0.01329*
1,1,0.01686,0.01526,-0.01329*
1,1,0.01686,-0.01526,-0.01329*
%
%ADD34ROUNDEDRECTD34*%
%ADD35R,0.03753X0.04540*%
%ADD36R,0.04540X0.03753*%
%ADD37C,0.06706*%
%ADD38C,0.25800*%
%ADD39R,0.11800X0.06800*%
%ADD40O,0.11800X0.06800*%
%ADD41R,0.06800X0.11800*%
%ADD42O,0.06800X0.11800*%
D16*
X232Y-7D02*
Y253993D01*
X206232D01*
Y-7D02*
Y253993D01*
X232Y-7D02*
X206232D01*
D27*
X37622Y198000D02*
D03*
D28*
X162500Y108000D02*
D03*
Y117842D02*
D03*
D29*
X59228Y96179D02*
D03*
Y101180D02*
D03*
Y106179D02*
D03*
Y111179D02*
D03*
Y116180D02*
D03*
Y121179D02*
D03*
Y126180D02*
D03*
X37772Y96179D02*
D03*
Y101180D02*
D03*
Y106179D02*
D03*
Y111179D02*
D03*
Y116180D02*
D03*
Y121179D02*
D03*
Y126180D02*
D03*
D30*
X78500Y100057D02*
D03*
X83500D02*
D03*
X88500D02*
D03*
X93500D02*
D03*
X78500Y122302D02*
D03*
X83500D02*
D03*
X88500D02*
D03*
X93500D02*
D03*
D31*
X134580Y122795D02*
D03*
Y120236D02*
D03*
Y117677D02*
D03*
Y115118D02*
D03*
Y112559D02*
D03*
Y110000D02*
D03*
Y107441D02*
D03*
Y104882D02*
D03*
Y102323D02*
D03*
Y99764D02*
D03*
X132020Y122795D02*
D03*
Y120236D02*
D03*
Y117677D02*
D03*
Y115118D02*
D03*
Y112559D02*
D03*
Y110000D02*
D03*
Y107441D02*
D03*
Y104882D02*
D03*
Y102323D02*
D03*
Y99764D02*
D03*
X129461Y122795D02*
D03*
Y120236D02*
D03*
Y112559D02*
D03*
Y110000D02*
D03*
Y102323D02*
D03*
Y99764D02*
D03*
X126902Y122795D02*
D03*
Y120236D02*
D03*
Y115118D02*
D03*
Y112559D02*
D03*
Y110000D02*
D03*
Y107441D02*
D03*
Y102323D02*
D03*
Y99764D02*
D03*
X124343Y122795D02*
D03*
Y120236D02*
D03*
Y117677D02*
D03*
Y115118D02*
D03*
Y107441D02*
D03*
Y104882D02*
D03*
Y102323D02*
D03*
Y99764D02*
D03*
X121784Y122795D02*
D03*
Y120236D02*
D03*
Y117677D02*
D03*
Y115118D02*
D03*
Y107441D02*
D03*
Y104882D02*
D03*
Y102323D02*
D03*
Y99764D02*
D03*
X119225Y122795D02*
D03*
Y120236D02*
D03*
Y115118D02*
D03*
Y112559D02*
D03*
Y110000D02*
D03*
Y107441D02*
D03*
Y102323D02*
D03*
Y99764D02*
D03*
X116666Y122795D02*
D03*
Y120236D02*
D03*
Y112559D02*
D03*
Y110000D02*
D03*
Y102323D02*
D03*
Y99764D02*
D03*
X114107Y122795D02*
D03*
Y120236D02*
D03*
Y117677D02*
D03*
Y115118D02*
D03*
Y112559D02*
D03*
Y110000D02*
D03*
Y107441D02*
D03*
Y104882D02*
D03*
Y102323D02*
D03*
Y99764D02*
D03*
X111548Y122795D02*
D03*
Y120236D02*
D03*
Y117677D02*
D03*
Y115118D02*
D03*
Y112559D02*
D03*
Y110000D02*
D03*
Y107441D02*
D03*
Y104882D02*
D03*
Y102323D02*
D03*
Y99764D02*
D03*
D32*
X39243Y198000D02*
D03*
X36000D02*
D03*
D33*
X51500Y54500D02*
D03*
X44807D02*
D03*
D34*
X38000Y83346D02*
D03*
Y76653D02*
D03*
X78500Y81487D02*
D03*
Y88179D02*
D03*
X131500Y81653D02*
D03*
Y88346D02*
D03*
X164500Y134153D02*
D03*
Y140847D02*
D03*
X151000Y116268D02*
D03*
Y109575D02*
D03*
X93500Y88179D02*
D03*
Y81487D02*
D03*
X78500Y134179D02*
D03*
Y140872D02*
D03*
X93500Y134179D02*
D03*
Y140872D02*
D03*
X120000Y134153D02*
D03*
Y140847D02*
D03*
D35*
X149000Y63000D02*
D03*
X143488D02*
D03*
X68256Y67500D02*
D03*
X62744D02*
D03*
X94000Y157500D02*
D03*
X88488D02*
D03*
X142500Y124500D02*
D03*
X148012D02*
D03*
X178512Y107921D02*
D03*
X173000D02*
D03*
X178512Y117900D02*
D03*
X173000D02*
D03*
D36*
X142500Y108256D02*
D03*
Y102744D02*
D03*
X123000Y87756D02*
D03*
Y82244D02*
D03*
X103000Y87756D02*
D03*
Y82244D02*
D03*
X138000Y134744D02*
D03*
Y140256D02*
D03*
X111500Y134744D02*
D03*
Y140256D02*
D03*
X102500Y134744D02*
D03*
Y140256D02*
D03*
X59000Y135244D02*
D03*
Y140756D02*
D03*
X38000Y135244D02*
D03*
Y140756D02*
D03*
X147500Y134744D02*
D03*
Y140256D02*
D03*
X155500Y134744D02*
D03*
Y140256D02*
D03*
X129000Y134744D02*
D03*
Y140256D02*
D03*
D37*
X177000Y155500D02*
D03*
Y145500D02*
D03*
D38*
X98400Y38200D02*
D03*
X28400Y238200D02*
D03*
X178400D02*
D03*
D39*
X8400Y218200D02*
D03*
X198400D02*
D03*
D40*
X8400Y208200D02*
D03*
Y198200D02*
D03*
Y188200D02*
D03*
Y178200D02*
D03*
Y168200D02*
D03*
Y158200D02*
D03*
Y148200D02*
D03*
Y138200D02*
D03*
Y128200D02*
D03*
Y118200D02*
D03*
Y108200D02*
D03*
Y98200D02*
D03*
Y88200D02*
D03*
Y78200D02*
D03*
Y68200D02*
D03*
Y58200D02*
D03*
Y48200D02*
D03*
Y38200D02*
D03*
Y28200D02*
D03*
X198400Y208200D02*
D03*
Y198200D02*
D03*
Y188200D02*
D03*
Y178200D02*
D03*
Y168200D02*
D03*
Y158200D02*
D03*
Y148200D02*
D03*
Y138200D02*
D03*
Y128200D02*
D03*
Y118200D02*
D03*
Y108200D02*
D03*
Y98200D02*
D03*
Y88200D02*
D03*
Y78200D02*
D03*
Y68200D02*
D03*
Y58200D02*
D03*
Y48200D02*
D03*
Y38200D02*
D03*
Y28200D02*
D03*
D41*
X8400Y8200D02*
D03*
D42*
X18400D02*
D03*
X28400D02*
D03*
X38400D02*
D03*
X48400D02*
D03*
X58400D02*
D03*
X68400D02*
D03*
X78400D02*
D03*
X88400D02*
D03*
X98400D02*
D03*
X108400D02*
D03*
X118400D02*
D03*
X128400D02*
D03*
X138400D02*
D03*
X148400D02*
D03*
X158400D02*
D03*
X168400D02*
D03*
X178400D02*
D03*
X188400D02*
D03*
X198400D02*
D03*
M02*
