G04*
G04 #@! TF.GenerationSoftware,Altium Limited,Altium Designer,18.0.12 (696)*
G04*
G04 Layer_Color=65535*
%FSLAX25Y25*%
%MOIN*%
G70*
G01*
G75*
%ADD10C,0.02362*%
%ADD11C,0.00984*%
%ADD12C,0.00787*%
%ADD13C,0.01000*%
%ADD14C,0.00394*%
%ADD15C,0.00800*%
%ADD16C,0.00500*%
G36*
X139790Y220496D02*
X140798D01*
Y220352D01*
X141518D01*
Y220208D01*
X142095D01*
Y220064D01*
X142527D01*
Y219920D01*
X142815D01*
Y219776D01*
X143247D01*
Y219632D01*
X143535D01*
Y219488D01*
X143823D01*
Y219344D01*
X144111D01*
Y219199D01*
X144399D01*
Y219056D01*
X144543D01*
Y218912D01*
X144831D01*
Y218767D01*
X144975D01*
Y218623D01*
X145263D01*
Y218479D01*
X145407D01*
Y218335D01*
X145551D01*
Y218191D01*
X145839D01*
Y218047D01*
X145983D01*
Y217903D01*
X146127D01*
Y217759D01*
X146272D01*
Y217615D01*
X146415D01*
Y217471D01*
X146560D01*
Y217327D01*
X146704D01*
Y217183D01*
X146848D01*
Y217039D01*
X146992D01*
Y216895D01*
X147136D01*
Y216751D01*
X147280D01*
Y216463D01*
X147424D01*
Y216319D01*
X147568D01*
Y216031D01*
X147712D01*
Y215887D01*
X147856D01*
Y215599D01*
X148000D01*
Y215455D01*
X148144D01*
Y215167D01*
X148288D01*
Y214879D01*
X148432D01*
Y214591D01*
X148576D01*
Y214302D01*
X148720D01*
Y213870D01*
X148864D01*
Y213438D01*
X149008D01*
Y213006D01*
X149152D01*
Y212430D01*
X149296D01*
Y211566D01*
X149440D01*
Y209261D01*
X149296D01*
Y208397D01*
X149152D01*
Y207821D01*
X149008D01*
Y207389D01*
X148864D01*
Y206957D01*
X148720D01*
Y206813D01*
X148864D01*
Y206669D01*
X149728D01*
Y206525D01*
X150449D01*
Y206381D01*
X151025D01*
Y206237D01*
X151745D01*
Y206093D01*
X152465D01*
Y205948D01*
X152609D01*
Y207389D01*
X152753D01*
Y208109D01*
X152897D01*
Y208685D01*
X153041D01*
Y209117D01*
X153185D01*
Y209549D01*
X153329D01*
Y209837D01*
X153473D01*
Y210269D01*
X153617D01*
Y210558D01*
X153761D01*
Y210702D01*
X153905D01*
Y210990D01*
X154049D01*
Y211278D01*
X154193D01*
Y211422D01*
X154337D01*
Y211710D01*
X154481D01*
Y211854D01*
X154625D01*
Y211998D01*
X154769D01*
Y212286D01*
X154913D01*
Y212430D01*
X155058D01*
Y212574D01*
X155201D01*
Y212718D01*
X155346D01*
Y212862D01*
X155490D01*
Y213006D01*
X155634D01*
Y213150D01*
X155778D01*
Y213294D01*
X155922D01*
Y213438D01*
X156066D01*
Y213582D01*
X156210D01*
Y213726D01*
X156354D01*
Y213870D01*
X156642D01*
Y214014D01*
X156786D01*
Y214158D01*
X156930D01*
Y214302D01*
X157218D01*
Y214446D01*
X157506D01*
Y214591D01*
X157650D01*
Y214735D01*
X157938D01*
Y214879D01*
X158226D01*
Y215023D01*
X158514D01*
Y215167D01*
X158802D01*
Y215311D01*
X159234D01*
Y215455D01*
X159522D01*
Y215599D01*
X159955D01*
Y215743D01*
X160531D01*
Y215887D01*
X161251D01*
Y216031D01*
X162547D01*
Y216175D01*
X163699D01*
Y216031D01*
X164996D01*
Y215887D01*
X165716D01*
Y215743D01*
X166292D01*
Y215599D01*
X166724D01*
Y215455D01*
X167156D01*
Y215311D01*
X167444D01*
Y215167D01*
X167732D01*
Y215023D01*
X168020D01*
Y214879D01*
X168308D01*
Y214735D01*
X168597D01*
Y214591D01*
X168885D01*
Y214446D01*
X169029D01*
Y214302D01*
X169317D01*
Y214158D01*
X169461D01*
Y214014D01*
X169605D01*
Y213870D01*
X169893D01*
Y213726D01*
X170037D01*
Y213582D01*
X170181D01*
Y213438D01*
X170325D01*
Y213294D01*
X170469D01*
Y213150D01*
X170613D01*
Y213006D01*
X170757D01*
Y212862D01*
X170901D01*
Y212718D01*
X171045D01*
Y212574D01*
X171189D01*
Y212430D01*
X171333D01*
Y212286D01*
X171477D01*
Y212142D01*
X171621D01*
Y211854D01*
X171765D01*
Y211710D01*
X171909D01*
Y211566D01*
X172053D01*
Y211278D01*
X172197D01*
Y210990D01*
X172341D01*
Y210846D01*
X172485D01*
Y210558D01*
X172629D01*
Y210269D01*
X172774D01*
Y209981D01*
X172917D01*
Y209549D01*
X173062D01*
Y209261D01*
X173206D01*
Y208829D01*
X173350D01*
Y208253D01*
X173494D01*
Y207389D01*
X173638D01*
Y204364D01*
X173494D01*
Y203644D01*
X173350D01*
Y203068D01*
X173206D01*
Y202636D01*
X173062D01*
Y202204D01*
X172917D01*
Y201916D01*
X172774D01*
Y201628D01*
X172629D01*
Y201340D01*
X172485D01*
Y201051D01*
X172341D01*
Y200763D01*
X172197D01*
Y200619D01*
X172053D01*
Y200331D01*
X171909D01*
Y200187D01*
X171765D01*
Y199899D01*
X171621D01*
Y199755D01*
X171477D01*
Y199611D01*
X171333D01*
Y199467D01*
X171189D01*
Y199035D01*
X171477D01*
Y198891D01*
X171765D01*
Y198747D01*
X171909D01*
Y198603D01*
X172197D01*
Y198459D01*
X172341D01*
Y198315D01*
X172629D01*
Y198171D01*
X172774D01*
Y198027D01*
X173062D01*
Y197883D01*
X173206D01*
Y197739D01*
X173350D01*
Y197595D01*
X173638D01*
Y197451D01*
X173782D01*
Y197307D01*
X174070D01*
Y197163D01*
X174214D01*
Y197019D01*
X174358D01*
Y196874D01*
X174502D01*
Y196730D01*
X174790D01*
Y196586D01*
X174934D01*
Y196442D01*
X175078D01*
Y196298D01*
X175222D01*
Y196154D01*
X175366D01*
Y196010D01*
X175510D01*
Y195866D01*
X175654D01*
Y195722D01*
X175798D01*
Y195578D01*
X175942D01*
Y195434D01*
X176086D01*
Y195290D01*
X176230D01*
Y195146D01*
X176374D01*
Y195002D01*
X176518D01*
Y194858D01*
X176662D01*
Y194714D01*
X176806D01*
Y194570D01*
X176950D01*
Y194426D01*
X177094D01*
Y194282D01*
X177239D01*
Y193994D01*
X177383D01*
Y193850D01*
X177527D01*
Y193706D01*
X177671D01*
Y193562D01*
X177815D01*
Y193274D01*
X177959D01*
Y193130D01*
X178103D01*
Y192842D01*
X178247D01*
Y192553D01*
X178391D01*
Y192410D01*
X178535D01*
Y192121D01*
X178679D01*
Y191833D01*
X178823D01*
Y191545D01*
X178967D01*
Y191113D01*
X179111D01*
Y190681D01*
X179255D01*
Y190249D01*
X179399D01*
Y189673D01*
X179543D01*
Y188521D01*
X179687D01*
Y187656D01*
X179543D01*
Y186504D01*
X179399D01*
Y185928D01*
X179255D01*
Y185496D01*
X179111D01*
Y185064D01*
X178967D01*
Y184776D01*
X178823D01*
Y184488D01*
X178679D01*
Y184200D01*
X178535D01*
Y183912D01*
X178391D01*
Y183624D01*
X178247D01*
Y183479D01*
X178103D01*
Y183191D01*
X177959D01*
Y182903D01*
X177815D01*
Y182759D01*
X177671D01*
Y182615D01*
X177527D01*
Y182327D01*
X177383D01*
Y182183D01*
X177239D01*
Y182039D01*
X177094D01*
Y181895D01*
X176950D01*
Y181607D01*
X176806D01*
Y181463D01*
X176662D01*
Y181319D01*
X176518D01*
Y181175D01*
X176374D01*
Y181031D01*
X176230D01*
Y180887D01*
X176086D01*
Y180743D01*
X175942D01*
Y180599D01*
X175798D01*
Y180455D01*
X175654D01*
Y180311D01*
X175510D01*
Y180167D01*
X175366D01*
Y180023D01*
X175078D01*
Y179591D01*
X175222D01*
Y179303D01*
X175366D01*
Y179015D01*
X175510D01*
Y178870D01*
X175654D01*
Y178438D01*
X175798D01*
Y178150D01*
X175942D01*
Y177862D01*
X176086D01*
Y177574D01*
X176230D01*
Y177286D01*
X176374D01*
Y176854D01*
X176518D01*
Y176566D01*
X176662D01*
Y176134D01*
X176806D01*
Y175702D01*
X176950D01*
Y175270D01*
X177094D01*
Y174838D01*
X177239D01*
Y174405D01*
X177383D01*
Y173973D01*
X177527D01*
Y173397D01*
X177671D01*
Y172821D01*
X177815D01*
Y172101D01*
X177959D01*
Y171525D01*
X178103D01*
Y170517D01*
X178247D01*
Y169508D01*
X178391D01*
Y167924D01*
X178535D01*
Y163747D01*
X178391D01*
Y162163D01*
X177815D01*
Y163027D01*
X177671D01*
Y164035D01*
X177527D01*
Y164899D01*
X177383D01*
Y165620D01*
X177239D01*
Y166196D01*
X177094D01*
Y166772D01*
X176950D01*
Y167348D01*
X176806D01*
Y167924D01*
X176662D01*
Y168356D01*
X176518D01*
Y168788D01*
X176374D01*
Y169220D01*
X176230D01*
Y169652D01*
X176086D01*
Y170085D01*
X175942D01*
Y170372D01*
X175798D01*
Y170805D01*
X175654D01*
Y171237D01*
X175510D01*
Y171525D01*
X175366D01*
Y171813D01*
X175222D01*
Y172245D01*
X175078D01*
Y172533D01*
X174934D01*
Y172821D01*
X174790D01*
Y173109D01*
X174646D01*
Y173397D01*
X174502D01*
Y173685D01*
X174358D01*
Y173973D01*
X174214D01*
Y174261D01*
X174070D01*
Y174549D01*
X173926D01*
Y174838D01*
X173782D01*
Y175126D01*
X173638D01*
Y175414D01*
X173494D01*
Y175702D01*
X173350D01*
Y175846D01*
X173206D01*
Y176134D01*
X173062D01*
Y176422D01*
X172917D01*
Y176710D01*
X172774D01*
Y176854D01*
X172629D01*
Y177142D01*
X172485D01*
Y177286D01*
X172341D01*
Y177574D01*
X172197D01*
Y177718D01*
X172053D01*
Y177574D01*
X171765D01*
Y177430D01*
X171621D01*
Y177286D01*
X171333D01*
Y177142D01*
X171045D01*
Y176998D01*
X170901D01*
Y176854D01*
X170613D01*
Y176710D01*
X170325D01*
Y176566D01*
X170037D01*
Y176422D01*
X169749D01*
Y176278D01*
X169605D01*
Y176134D01*
X169317D01*
Y175990D01*
X169029D01*
Y175846D01*
X168741D01*
Y175702D01*
X168453D01*
Y175558D01*
X168165D01*
Y175414D01*
X167876D01*
Y175270D01*
X167588D01*
Y175126D01*
X167300D01*
Y174981D01*
X166724D01*
Y174549D01*
X166868D01*
Y174405D01*
X167012D01*
Y174117D01*
X167156D01*
Y173829D01*
X167300D01*
Y173541D01*
X167444D01*
Y173253D01*
X167588D01*
Y172965D01*
X167732D01*
Y172533D01*
X167876D01*
Y172245D01*
X168020D01*
Y171813D01*
X168165D01*
Y171381D01*
X168308D01*
Y170949D01*
X168453D01*
Y170517D01*
X168597D01*
Y169940D01*
X168741D01*
Y169364D01*
X168885D01*
Y168788D01*
X169029D01*
Y168212D01*
X169173D01*
Y167492D01*
X169317D01*
Y166628D01*
X169461D01*
Y165620D01*
X169605D01*
Y164467D01*
X169749D01*
Y162883D01*
X169893D01*
Y162163D01*
X169173D01*
Y162307D01*
X169029D01*
Y162739D01*
X168885D01*
Y163171D01*
X168741D01*
Y163603D01*
X168597D01*
Y164035D01*
X168453D01*
Y164323D01*
X168308D01*
Y164611D01*
X168165D01*
Y165043D01*
X168020D01*
Y165331D01*
X167876D01*
Y165620D01*
X167732D01*
Y165908D01*
X167588D01*
Y166196D01*
X167444D01*
Y166340D01*
X167300D01*
Y166628D01*
X167156D01*
Y166916D01*
X167012D01*
Y167060D01*
X166868D01*
Y167348D01*
X166724D01*
Y167636D01*
X166580D01*
Y167780D01*
X166436D01*
Y168068D01*
X166292D01*
Y168212D01*
X166148D01*
Y168356D01*
X166004D01*
Y168644D01*
X165860D01*
Y168788D01*
X165716D01*
Y168932D01*
X165572D01*
Y169220D01*
X165428D01*
Y169364D01*
X165284D01*
Y169508D01*
X165140D01*
Y169652D01*
X164996D01*
Y169940D01*
X164852D01*
Y170085D01*
X164708D01*
Y170229D01*
X164564D01*
Y170372D01*
X164420D01*
Y170517D01*
X164276D01*
Y170661D01*
X164131D01*
Y170805D01*
X163988D01*
Y170949D01*
X163844D01*
Y171093D01*
X163699D01*
Y171237D01*
X163555D01*
Y171381D01*
X163411D01*
Y171525D01*
X163267D01*
Y171669D01*
X163123D01*
Y171813D01*
X162979D01*
Y171957D01*
X162835D01*
Y172101D01*
X162691D01*
Y172245D01*
X162547D01*
Y172389D01*
X162259D01*
Y172533D01*
X162115D01*
Y172677D01*
X161971D01*
Y172821D01*
X161395D01*
Y172677D01*
X160963D01*
Y172533D01*
X160531D01*
Y172389D01*
X160099D01*
Y172245D01*
X159667D01*
Y172101D01*
X159234D01*
Y171957D01*
X158658D01*
Y171813D01*
X158226D01*
Y171669D01*
X157794D01*
Y171525D01*
X157218D01*
Y171381D01*
X156786D01*
Y171237D01*
X156210D01*
Y171093D01*
X155634D01*
Y170949D01*
X155058D01*
Y170805D01*
X154481D01*
Y170661D01*
X153905D01*
Y170517D01*
X153329D01*
Y170372D01*
X152609D01*
Y170229D01*
X152033D01*
Y170085D01*
X151313D01*
Y169940D01*
X150736D01*
Y169796D01*
X150016D01*
Y169652D01*
X149296D01*
Y169508D01*
X148432D01*
Y169364D01*
X147712D01*
Y169220D01*
X146848D01*
Y169076D01*
X145983D01*
Y168932D01*
X145119D01*
Y168788D01*
X144255D01*
Y168644D01*
X143103D01*
Y168500D01*
X142095D01*
Y168356D01*
X140942D01*
Y168212D01*
X139790D01*
Y168068D01*
X138494D01*
Y167924D01*
X136909D01*
Y167780D01*
X135469D01*
Y167636D01*
X133453D01*
Y167492D01*
X131004D01*
Y167348D01*
X127547D01*
Y167204D01*
X118905D01*
Y167348D01*
X115449D01*
Y167492D01*
X113000D01*
Y167636D01*
X110984D01*
Y167780D01*
X109399D01*
Y167924D01*
X107959D01*
Y168068D01*
X106663D01*
Y168212D01*
X105366D01*
Y168356D01*
X104214D01*
Y168500D01*
X103206D01*
Y168644D01*
X102198D01*
Y168788D01*
X101333D01*
Y168932D01*
X100325D01*
Y169076D01*
X99461D01*
Y169220D01*
X98741D01*
Y169364D01*
X97877D01*
Y169508D01*
X97156D01*
Y169652D01*
X96436D01*
Y169796D01*
X95716D01*
Y169940D01*
X94996D01*
Y170085D01*
X94420D01*
Y170229D01*
X93700D01*
Y170372D01*
X93124D01*
Y170517D01*
X92547D01*
Y170661D01*
X91971D01*
Y170805D01*
X91251D01*
Y170949D01*
X90819D01*
Y171093D01*
X90243D01*
Y171237D01*
X89667D01*
Y171381D01*
X89235D01*
Y171525D01*
X88658D01*
Y171669D01*
X88226D01*
Y171813D01*
X87650D01*
Y171957D01*
X87218D01*
Y172101D01*
X86786D01*
Y172245D01*
X86210D01*
Y172389D01*
X85778D01*
Y172533D01*
X85346D01*
Y172677D01*
X84914D01*
Y172821D01*
X84626D01*
Y172965D01*
X84193D01*
Y173109D01*
X83761D01*
Y173253D01*
X83329D01*
Y173397D01*
X83041D01*
Y173253D01*
X82897D01*
Y173109D01*
X82753D01*
Y172965D01*
X82609D01*
Y172821D01*
X82465D01*
Y172677D01*
X82321D01*
Y172533D01*
X82033D01*
Y172389D01*
X81889D01*
Y172245D01*
X81745D01*
Y172101D01*
X81601D01*
Y171957D01*
X81457D01*
Y171813D01*
X81313D01*
Y171669D01*
X81169D01*
Y171525D01*
X81025D01*
Y171381D01*
X80881D01*
Y171237D01*
X80737D01*
Y171093D01*
X80593D01*
Y170805D01*
X80449D01*
Y170661D01*
X80305D01*
Y170517D01*
X80161D01*
Y170372D01*
X80017D01*
Y170229D01*
X79873D01*
Y170085D01*
X79729D01*
Y169796D01*
X79584D01*
Y169652D01*
X79440D01*
Y169508D01*
X79296D01*
Y169220D01*
X79152D01*
Y169076D01*
X79008D01*
Y168932D01*
X78864D01*
Y168644D01*
X78720D01*
Y168500D01*
X78576D01*
Y168212D01*
X78432D01*
Y168068D01*
X78288D01*
Y167780D01*
X78144D01*
Y167492D01*
X78000D01*
Y167348D01*
X77856D01*
Y167060D01*
X77712D01*
Y166772D01*
X77568D01*
Y166484D01*
X77424D01*
Y166196D01*
X77280D01*
Y165908D01*
X77136D01*
Y165620D01*
X76992D01*
Y165331D01*
X76848D01*
Y165043D01*
X76704D01*
Y164611D01*
X76560D01*
Y164323D01*
X76416D01*
Y163891D01*
X76272D01*
Y163459D01*
X76128D01*
Y163027D01*
X75984D01*
Y162595D01*
X75840D01*
Y162163D01*
X75264D01*
Y163891D01*
X75407D01*
Y165331D01*
X75551D01*
Y166484D01*
X75696D01*
Y167348D01*
X75840D01*
Y168212D01*
X75984D01*
Y168932D01*
X76128D01*
Y169652D01*
X76272D01*
Y170229D01*
X76416D01*
Y170661D01*
X76560D01*
Y171237D01*
X76704D01*
Y171669D01*
X76848D01*
Y172101D01*
X76992D01*
Y172533D01*
X77136D01*
Y172821D01*
X77280D01*
Y173253D01*
X77424D01*
Y173541D01*
X77568D01*
Y173973D01*
X77712D01*
Y174261D01*
X77856D01*
Y174549D01*
X78000D01*
Y174838D01*
X78144D01*
Y175126D01*
X78288D01*
Y175558D01*
X78000D01*
Y175702D01*
X77712D01*
Y175846D01*
X77424D01*
Y175990D01*
X77136D01*
Y176134D01*
X76848D01*
Y176278D01*
X76560D01*
Y176422D01*
X76272D01*
Y176566D01*
X76128D01*
Y176710D01*
X75840D01*
Y176854D01*
X75551D01*
Y176998D01*
X75264D01*
Y177142D01*
X75119D01*
Y177286D01*
X74831D01*
Y177430D01*
X74543D01*
Y177574D01*
X74399D01*
Y177718D01*
X74111D01*
Y177862D01*
X73967D01*
Y178006D01*
X73679D01*
Y178150D01*
X73535D01*
Y178294D01*
X73247D01*
Y178438D01*
X72959D01*
Y178294D01*
X72815D01*
Y178006D01*
X72671D01*
Y177718D01*
X72527D01*
Y177574D01*
X72383D01*
Y177286D01*
X72239D01*
Y176998D01*
X72095D01*
Y176854D01*
X71951D01*
Y176566D01*
X71807D01*
Y176278D01*
X71663D01*
Y176134D01*
X71519D01*
Y175846D01*
X71375D01*
Y175558D01*
X71231D01*
Y175270D01*
X71087D01*
Y174981D01*
X70942D01*
Y174694D01*
X70798D01*
Y174405D01*
X70654D01*
Y174117D01*
X70510D01*
Y173829D01*
X70366D01*
Y173541D01*
X70222D01*
Y173253D01*
X70078D01*
Y172821D01*
X69934D01*
Y172533D01*
X69790D01*
Y172245D01*
X69646D01*
Y171813D01*
X69502D01*
Y171525D01*
X69358D01*
Y171093D01*
X69214D01*
Y170805D01*
X69070D01*
Y170372D01*
X68926D01*
Y169940D01*
X68782D01*
Y169508D01*
X68638D01*
Y169076D01*
X68494D01*
Y168500D01*
X68350D01*
Y168068D01*
X68206D01*
Y167492D01*
X68062D01*
Y166916D01*
X67918D01*
Y166340D01*
X67774D01*
Y165620D01*
X67630D01*
Y164899D01*
X67486D01*
Y163891D01*
X67342D01*
Y162595D01*
X67198D01*
Y162163D01*
X66910D01*
Y162307D01*
X66766D01*
Y163891D01*
X66622D01*
Y168932D01*
X66766D01*
Y170372D01*
X66910D01*
Y171381D01*
X67054D01*
Y172245D01*
X67198D01*
Y172965D01*
X67342D01*
Y173541D01*
X67486D01*
Y174117D01*
X67630D01*
Y174694D01*
X67774D01*
Y175126D01*
X67918D01*
Y175558D01*
X68062D01*
Y175990D01*
X68206D01*
Y176422D01*
X68350D01*
Y176854D01*
X68494D01*
Y177286D01*
X68638D01*
Y177574D01*
X68782D01*
Y177862D01*
X68926D01*
Y178294D01*
X69070D01*
Y178582D01*
X69214D01*
Y178870D01*
X69358D01*
Y179158D01*
X69502D01*
Y179447D01*
X69646D01*
Y179735D01*
X69790D01*
Y180023D01*
X69934D01*
Y180311D01*
X70078D01*
Y180599D01*
X70222D01*
Y181031D01*
X70078D01*
Y181175D01*
X69934D01*
Y181319D01*
X69790D01*
Y181463D01*
X69646D01*
Y181607D01*
X69502D01*
Y181751D01*
X69358D01*
Y181895D01*
X69214D01*
Y182183D01*
X69070D01*
Y182327D01*
X68926D01*
Y182471D01*
X68782D01*
Y182759D01*
X68638D01*
Y182903D01*
X68494D01*
Y183047D01*
X68350D01*
Y183335D01*
X68206D01*
Y183624D01*
X68062D01*
Y183768D01*
X67918D01*
Y184056D01*
X67774D01*
Y184344D01*
X67630D01*
Y184632D01*
X67486D01*
Y184920D01*
X67342D01*
Y185352D01*
X67198D01*
Y185784D01*
X67054D01*
Y186360D01*
X66910D01*
Y187080D01*
X66766D01*
Y189097D01*
X66910D01*
Y189961D01*
X67054D01*
Y190537D01*
X67198D01*
Y190969D01*
X67342D01*
Y191257D01*
X67486D01*
Y191545D01*
X67630D01*
Y191977D01*
X67774D01*
Y192121D01*
X67918D01*
Y192410D01*
X68062D01*
Y192698D01*
X68206D01*
Y192986D01*
X68350D01*
Y193130D01*
X68494D01*
Y193418D01*
X68638D01*
Y193562D01*
X68782D01*
Y193706D01*
X68926D01*
Y193994D01*
X69070D01*
Y194138D01*
X69214D01*
Y194282D01*
X69358D01*
Y194426D01*
X69502D01*
Y194714D01*
X69646D01*
Y194858D01*
X69790D01*
Y195002D01*
X69934D01*
Y195146D01*
X70078D01*
Y195290D01*
X70222D01*
Y195434D01*
X70366D01*
Y195578D01*
X70510D01*
Y195722D01*
X70654D01*
Y195866D01*
X70798D01*
Y196010D01*
X70942D01*
Y196154D01*
X71231D01*
Y196298D01*
X71375D01*
Y196442D01*
X71519D01*
Y196586D01*
X71663D01*
Y196730D01*
X71807D01*
Y196874D01*
X72095D01*
Y197019D01*
X72239D01*
Y197163D01*
X72383D01*
Y197307D01*
X72527D01*
Y197451D01*
X72815D01*
Y197595D01*
X72959D01*
Y197739D01*
X73247D01*
Y197883D01*
X73391D01*
Y198027D01*
X73535D01*
Y198171D01*
X73823D01*
Y198315D01*
X73967D01*
Y198459D01*
X74255D01*
Y198603D01*
X74543D01*
Y198747D01*
X74687D01*
Y198891D01*
X74975D01*
Y199035D01*
X75119D01*
Y199179D01*
X75407D01*
Y199323D01*
X75696D01*
Y199467D01*
X75984D01*
Y199611D01*
X76128D01*
Y199755D01*
X76416D01*
Y199899D01*
X76704D01*
Y200043D01*
X76992D01*
Y200187D01*
X77280D01*
Y200331D01*
X77568D01*
Y200619D01*
X77424D01*
Y200763D01*
X77280D01*
Y201051D01*
X77136D01*
Y201196D01*
X76992D01*
Y201483D01*
X76848D01*
Y201772D01*
X76704D01*
Y201916D01*
X76560D01*
Y202204D01*
X76416D01*
Y202636D01*
X76272D01*
Y202924D01*
X76128D01*
Y203356D01*
X75984D01*
Y203788D01*
X75840D01*
Y204220D01*
X75696D01*
Y204940D01*
X75551D01*
Y206093D01*
X75407D01*
Y207101D01*
X75551D01*
Y208397D01*
X75696D01*
Y209117D01*
X75840D01*
Y209549D01*
X75984D01*
Y209981D01*
X76128D01*
Y210414D01*
X76272D01*
Y210702D01*
X76416D01*
Y210990D01*
X76560D01*
Y211278D01*
X76704D01*
Y211566D01*
X76848D01*
Y211854D01*
X76992D01*
Y211998D01*
X77136D01*
Y212286D01*
X77280D01*
Y212430D01*
X77424D01*
Y212718D01*
X77568D01*
Y212862D01*
X77712D01*
Y213006D01*
X77856D01*
Y213150D01*
X78000D01*
Y213438D01*
X78144D01*
Y213582D01*
X78288D01*
Y213726D01*
X78432D01*
Y213870D01*
X78576D01*
Y214014D01*
X78720D01*
Y214158D01*
X79008D01*
Y214302D01*
X79152D01*
Y214446D01*
X79296D01*
Y214591D01*
X79440D01*
Y214735D01*
X79729D01*
Y214879D01*
X79873D01*
Y215023D01*
X80161D01*
Y215167D01*
X80305D01*
Y215311D01*
X80593D01*
Y215455D01*
X80881D01*
Y215599D01*
X81025D01*
Y215743D01*
X81313D01*
Y215887D01*
X81745D01*
Y216031D01*
X82033D01*
Y216175D01*
X82465D01*
Y216319D01*
X82897D01*
Y216463D01*
X83473D01*
Y216607D01*
X84049D01*
Y216751D01*
X85346D01*
Y216895D01*
X86786D01*
Y216751D01*
X87938D01*
Y216607D01*
X88658D01*
Y216463D01*
X89235D01*
Y216319D01*
X89667D01*
Y216175D01*
X89955D01*
Y216031D01*
X90387D01*
Y215887D01*
X90675D01*
Y215743D01*
X90963D01*
Y215599D01*
X91251D01*
Y215455D01*
X91539D01*
Y215311D01*
X91683D01*
Y215167D01*
X91971D01*
Y215023D01*
X92259D01*
Y214879D01*
X92403D01*
Y214735D01*
X92547D01*
Y214591D01*
X92835D01*
Y214446D01*
X92980D01*
Y214302D01*
X93124D01*
Y214158D01*
X93268D01*
Y214014D01*
X93412D01*
Y213870D01*
X93556D01*
Y213726D01*
X93700D01*
Y213582D01*
X93844D01*
Y213438D01*
X93988D01*
Y213294D01*
X94132D01*
Y213150D01*
X94276D01*
Y213006D01*
X94420D01*
Y212718D01*
X94564D01*
Y212574D01*
X94708D01*
Y212430D01*
X94852D01*
Y212142D01*
X94996D01*
Y211998D01*
X95140D01*
Y211710D01*
X95284D01*
Y211422D01*
X95428D01*
Y211134D01*
X95572D01*
Y210846D01*
X95716D01*
Y210558D01*
X95860D01*
Y210269D01*
X96004D01*
Y209837D01*
X96148D01*
Y209405D01*
X96292D01*
Y208829D01*
X96436D01*
Y207965D01*
X96580D01*
Y206669D01*
X97444D01*
Y206813D01*
X98165D01*
Y206957D01*
X99029D01*
Y207101D01*
X99893D01*
Y207245D01*
X100757D01*
Y207533D01*
X100613D01*
Y208109D01*
X100469D01*
Y208829D01*
X100325D01*
Y211710D01*
X100469D01*
Y212574D01*
X100613D01*
Y213006D01*
X100757D01*
Y213582D01*
X100901D01*
Y213870D01*
X101045D01*
Y214302D01*
X101189D01*
Y214591D01*
X101333D01*
Y214879D01*
X101477D01*
Y215167D01*
X101621D01*
Y215455D01*
X101766D01*
Y215599D01*
X101909D01*
Y215887D01*
X102053D01*
Y216031D01*
X102198D01*
Y216319D01*
X102342D01*
Y216463D01*
X102486D01*
Y216607D01*
X102630D01*
Y216751D01*
X102774D01*
Y217039D01*
X102918D01*
Y217183D01*
X103062D01*
Y217327D01*
X103206D01*
Y217471D01*
X103350D01*
Y217615D01*
X103494D01*
Y217759D01*
X103782D01*
Y217903D01*
X103926D01*
Y218047D01*
X104070D01*
Y218191D01*
X104214D01*
Y218335D01*
X104502D01*
Y218479D01*
X104646D01*
Y218623D01*
X104790D01*
Y218767D01*
X105078D01*
Y218912D01*
X105366D01*
Y219056D01*
X105510D01*
Y219199D01*
X105798D01*
Y219344D01*
X106086D01*
Y219488D01*
X106375D01*
Y219632D01*
X106807D01*
Y219776D01*
X107095D01*
Y219920D01*
X107527D01*
Y220064D01*
X108103D01*
Y220208D01*
X108679D01*
Y220352D01*
X109687D01*
Y220496D01*
X112136D01*
Y220352D01*
X113000D01*
Y220208D01*
X113576D01*
Y220064D01*
X114152D01*
Y219920D01*
X114584D01*
Y219776D01*
X114872D01*
Y219632D01*
X115305D01*
Y219488D01*
X115593D01*
Y219344D01*
X115881D01*
Y219199D01*
X116169D01*
Y219056D01*
X116457D01*
Y218912D01*
X116601D01*
Y218767D01*
X116889D01*
Y218623D01*
X117033D01*
Y218479D01*
X117321D01*
Y218335D01*
X117465D01*
Y218191D01*
X117609D01*
Y218047D01*
X117753D01*
Y217903D01*
X118041D01*
Y217759D01*
X118185D01*
Y217615D01*
X118329D01*
Y217471D01*
X118473D01*
Y217327D01*
X118617D01*
Y217183D01*
X118761D01*
Y217039D01*
X118905D01*
Y216751D01*
X119049D01*
Y216607D01*
X119193D01*
Y216463D01*
X119337D01*
Y216319D01*
X119482D01*
Y216031D01*
X119625D01*
Y215887D01*
X119770D01*
Y215599D01*
X119914D01*
Y215455D01*
X120058D01*
Y215167D01*
X120202D01*
Y214879D01*
X120346D01*
Y214591D01*
X120490D01*
Y214302D01*
X120634D01*
Y214014D01*
X120778D01*
Y213582D01*
X120922D01*
Y213150D01*
X121066D01*
Y212574D01*
X121210D01*
Y211854D01*
X121354D01*
Y208973D01*
X122218D01*
Y209117D01*
X124091D01*
Y208973D01*
X128411D01*
Y209837D01*
X128268D01*
Y210990D01*
X128411D01*
Y212142D01*
X128556D01*
Y212862D01*
X128700D01*
Y213294D01*
X128844D01*
Y213726D01*
X128988D01*
Y214158D01*
X129132D01*
Y214446D01*
X129276D01*
Y214879D01*
X129420D01*
Y215023D01*
X129564D01*
Y215311D01*
X129708D01*
Y215599D01*
X129852D01*
Y215887D01*
X129996D01*
Y216031D01*
X130140D01*
Y216319D01*
X130284D01*
Y216463D01*
X130428D01*
Y216607D01*
X130572D01*
Y216751D01*
X130716D01*
Y217039D01*
X130860D01*
Y217183D01*
X131004D01*
Y217327D01*
X131148D01*
Y217471D01*
X131292D01*
Y217615D01*
X131436D01*
Y217759D01*
X131580D01*
Y217903D01*
X131724D01*
Y218047D01*
X132012D01*
Y218191D01*
X132156D01*
Y218335D01*
X132300D01*
Y218479D01*
X132444D01*
Y218623D01*
X132732D01*
Y218767D01*
X132877D01*
Y218912D01*
X133165D01*
Y219056D01*
X133453D01*
Y219199D01*
X133597D01*
Y219344D01*
X133885D01*
Y219488D01*
X134173D01*
Y219632D01*
X134461D01*
Y219776D01*
X134893D01*
Y219920D01*
X135325D01*
Y220064D01*
X135757D01*
Y220208D01*
X136189D01*
Y220352D01*
X136909D01*
Y220496D01*
X137918D01*
Y220640D01*
X139790D01*
Y220496D01*
D02*
G37*
G36*
X136843Y123315D02*
X135100Y125059D01*
X136843D01*
Y123315D01*
D02*
G37*
%LPC*%
G36*
X112424Y218912D02*
X109687D01*
Y218767D01*
X109111D01*
Y218623D01*
X108535D01*
Y218479D01*
X108247D01*
Y218335D01*
X107959D01*
Y218191D01*
X107671D01*
Y218047D01*
X107383D01*
Y217903D01*
X107095D01*
Y217759D01*
X106951D01*
Y217615D01*
X106663D01*
Y217471D01*
X106518D01*
Y217327D01*
X106230D01*
Y217183D01*
X106086D01*
Y217039D01*
X105942D01*
Y216895D01*
X105798D01*
Y216751D01*
X105654D01*
Y216607D01*
X105510D01*
Y216463D01*
X105366D01*
Y216319D01*
X105222D01*
Y216031D01*
X105078D01*
Y215887D01*
X104934D01*
Y215743D01*
X104790D01*
Y215455D01*
X104646D01*
Y215311D01*
X104502D01*
Y215023D01*
X104358D01*
Y214735D01*
X104214D01*
Y214446D01*
X104070D01*
Y214158D01*
X103926D01*
Y213726D01*
X103782D01*
Y213294D01*
X103638D01*
Y212574D01*
X103494D01*
Y211422D01*
X103350D01*
Y210846D01*
X103494D01*
Y209693D01*
X103638D01*
Y208973D01*
X103782D01*
Y208541D01*
X103926D01*
Y208109D01*
X104070D01*
Y207821D01*
X104214D01*
Y207533D01*
X104358D01*
Y207245D01*
X104502D01*
Y206957D01*
X104646D01*
Y206813D01*
X104790D01*
Y206525D01*
X104934D01*
Y206381D01*
X105078D01*
Y206237D01*
X105222D01*
Y205948D01*
X105366D01*
Y205804D01*
X105510D01*
Y205661D01*
X105654D01*
Y205516D01*
X105798D01*
Y205372D01*
X105942D01*
Y205228D01*
X106086D01*
Y205084D01*
X106230D01*
Y204940D01*
X106518D01*
Y204796D01*
X106663D01*
Y204652D01*
X106807D01*
Y204508D01*
X107095D01*
Y204364D01*
X107383D01*
Y204220D01*
X107671D01*
Y204076D01*
X107959D01*
Y203932D01*
X108247D01*
Y203788D01*
X108535D01*
Y203644D01*
X109111D01*
Y203500D01*
X109687D01*
Y203356D01*
X112424D01*
Y203500D01*
X113000D01*
Y203644D01*
X113432D01*
Y203788D01*
X113864D01*
Y203932D01*
X114152D01*
Y204076D01*
X114440D01*
Y204220D01*
X114728D01*
Y204364D01*
X115016D01*
Y204508D01*
X115161D01*
Y204652D01*
X115449D01*
Y204796D01*
X115593D01*
Y204940D01*
X115737D01*
Y205084D01*
X116025D01*
Y205228D01*
X116169D01*
Y205372D01*
X116313D01*
Y205516D01*
X116457D01*
Y205661D01*
X116601D01*
Y205804D01*
X116745D01*
Y206093D01*
X116889D01*
Y206237D01*
X117033D01*
Y206381D01*
X117177D01*
Y206669D01*
X117321D01*
Y206813D01*
X117465D01*
Y207101D01*
X117609D01*
Y207245D01*
X117753D01*
Y207533D01*
X117897D01*
Y207821D01*
X118041D01*
Y208253D01*
X118185D01*
Y208541D01*
X118329D01*
Y209117D01*
X118473D01*
Y209693D01*
X118617D01*
Y212574D01*
X118473D01*
Y213150D01*
X118329D01*
Y213582D01*
X118185D01*
Y214014D01*
X118041D01*
Y214446D01*
X117897D01*
Y214735D01*
X117753D01*
Y215023D01*
X117609D01*
Y215167D01*
X117465D01*
Y215455D01*
X117321D01*
Y215599D01*
X117177D01*
Y215887D01*
X117033D01*
Y216031D01*
X116889D01*
Y216175D01*
X116745D01*
Y216463D01*
X116601D01*
Y216607D01*
X116457D01*
Y216751D01*
X116313D01*
Y216895D01*
X116169D01*
Y217039D01*
X115881D01*
Y217183D01*
X115737D01*
Y217327D01*
X115593D01*
Y217471D01*
X115449D01*
Y217615D01*
X115161D01*
Y217759D01*
X115016D01*
Y217903D01*
X114728D01*
Y218047D01*
X114440D01*
Y218191D01*
X114152D01*
Y218335D01*
X113864D01*
Y218479D01*
X113432D01*
Y218623D01*
X113000D01*
Y218767D01*
X112424D01*
Y218912D01*
D02*
G37*
G36*
X139502D02*
X138494D01*
Y218767D01*
X137486D01*
Y218623D01*
X136909D01*
Y218479D01*
X136477D01*
Y218335D01*
X136045D01*
Y218191D01*
X135757D01*
Y218047D01*
X135469D01*
Y217903D01*
X135181D01*
Y217759D01*
X135037D01*
Y217615D01*
X134749D01*
Y217471D01*
X134605D01*
Y217327D01*
X134317D01*
Y217183D01*
X134173D01*
Y217039D01*
X134029D01*
Y216895D01*
X133885D01*
Y216751D01*
X133741D01*
Y216607D01*
X133597D01*
Y216463D01*
X133453D01*
Y216319D01*
X133309D01*
Y216175D01*
X133165D01*
Y216031D01*
X133020D01*
Y215887D01*
X132877D01*
Y215599D01*
X132732D01*
Y215455D01*
X132588D01*
Y215167D01*
X132444D01*
Y215023D01*
X132300D01*
Y214735D01*
X132156D01*
Y214446D01*
X132012D01*
Y214014D01*
X131868D01*
Y213726D01*
X131724D01*
Y213294D01*
X131580D01*
Y212718D01*
X131436D01*
Y211710D01*
X131292D01*
Y210414D01*
X131436D01*
Y209405D01*
X131580D01*
Y208829D01*
X131724D01*
Y208397D01*
X131868D01*
Y207965D01*
X132012D01*
Y207677D01*
X132156D01*
Y207389D01*
X132300D01*
Y207101D01*
X132444D01*
Y206813D01*
X132588D01*
Y206669D01*
X132732D01*
Y206381D01*
X132877D01*
Y206237D01*
X133020D01*
Y206093D01*
X133165D01*
Y205804D01*
X133309D01*
Y205661D01*
X133453D01*
Y205516D01*
X133597D01*
Y205372D01*
X133741D01*
Y205228D01*
X133885D01*
Y205084D01*
X134029D01*
Y204940D01*
X134317D01*
Y204796D01*
X134461D01*
Y204652D01*
X134605D01*
Y204508D01*
X134893D01*
Y204364D01*
X135037D01*
Y204220D01*
X135325D01*
Y204076D01*
X135613D01*
Y203932D01*
X135901D01*
Y203788D01*
X136189D01*
Y203644D01*
X136621D01*
Y203500D01*
X137053D01*
Y203356D01*
X137774D01*
Y203212D01*
X140078D01*
Y203356D01*
X140798D01*
Y203500D01*
X141230D01*
Y203644D01*
X141663D01*
Y203788D01*
X142095D01*
Y203932D01*
X142383D01*
Y204076D01*
X142527D01*
Y204220D01*
X142815D01*
Y204364D01*
X143103D01*
Y204508D01*
X143247D01*
Y204652D01*
X143535D01*
Y204796D01*
X143679D01*
Y204940D01*
X143823D01*
Y205084D01*
X143967D01*
Y205228D01*
X144111D01*
Y205372D01*
X144255D01*
Y205516D01*
X144399D01*
Y205661D01*
X144543D01*
Y205804D01*
X144687D01*
Y205948D01*
X144831D01*
Y206093D01*
X144975D01*
Y206381D01*
X145119D01*
Y206525D01*
X145263D01*
Y206813D01*
X145407D01*
Y206957D01*
X145551D01*
Y207245D01*
X145695D01*
Y207533D01*
X145839D01*
Y207821D01*
X145983D01*
Y208109D01*
X146127D01*
Y208541D01*
X146272D01*
Y209117D01*
X146415D01*
Y209837D01*
X146560D01*
Y212142D01*
X146415D01*
Y213006D01*
X146272D01*
Y213438D01*
X146127D01*
Y213870D01*
X145983D01*
Y214158D01*
X145839D01*
Y214591D01*
X145695D01*
Y214879D01*
X145551D01*
Y215023D01*
X145407D01*
Y215311D01*
X145263D01*
Y215455D01*
X145119D01*
Y215743D01*
X144975D01*
Y215887D01*
X144831D01*
Y216031D01*
X144687D01*
Y216319D01*
X144543D01*
Y216463D01*
X144399D01*
Y216607D01*
X144255D01*
Y216751D01*
X144111D01*
Y216895D01*
X143967D01*
Y217039D01*
X143679D01*
Y217183D01*
X143535D01*
Y217327D01*
X143391D01*
Y217471D01*
X143103D01*
Y217615D01*
X142959D01*
Y217759D01*
X142671D01*
Y217903D01*
X142383D01*
Y218047D01*
X142239D01*
Y218191D01*
X141806D01*
Y218335D01*
X141518D01*
Y218479D01*
X141086D01*
Y218623D01*
X140510D01*
Y218767D01*
X139502D01*
Y218912D01*
D02*
G37*
G36*
X86498Y215311D02*
X85202D01*
Y215167D01*
X84193D01*
Y215023D01*
X83761D01*
Y214879D01*
X83329D01*
Y214735D01*
X82897D01*
Y214591D01*
X82609D01*
Y214446D01*
X82321D01*
Y214302D01*
X82033D01*
Y214158D01*
X81889D01*
Y214014D01*
X81601D01*
Y213870D01*
X81457D01*
Y213726D01*
X81169D01*
Y213582D01*
X81025D01*
Y213438D01*
X80881D01*
Y213294D01*
X80737D01*
Y213150D01*
X80593D01*
Y213006D01*
X80449D01*
Y212862D01*
X80305D01*
Y212718D01*
X80161D01*
Y212574D01*
X80017D01*
Y212430D01*
X79873D01*
Y212142D01*
X79729D01*
Y211998D01*
X79584D01*
Y211854D01*
X79440D01*
Y211566D01*
X79296D01*
Y211278D01*
X79152D01*
Y210990D01*
X79008D01*
Y210702D01*
X78864D01*
Y210414D01*
X78720D01*
Y209981D01*
X78576D01*
Y209549D01*
X78432D01*
Y208973D01*
X78288D01*
Y205804D01*
X78432D01*
Y205228D01*
X78576D01*
Y204796D01*
X78720D01*
Y204364D01*
X78864D01*
Y204076D01*
X79008D01*
Y203788D01*
X79152D01*
Y203500D01*
X79296D01*
Y203212D01*
X79440D01*
Y203068D01*
X79584D01*
Y202780D01*
X79729D01*
Y202636D01*
X79873D01*
Y202492D01*
X80017D01*
Y202348D01*
X80161D01*
Y202060D01*
X80305D01*
Y201916D01*
X80449D01*
Y201772D01*
X80593D01*
Y201628D01*
X80737D01*
Y201483D01*
X80881D01*
Y201340D01*
X81169D01*
Y201196D01*
X81313D01*
Y201051D01*
X81457D01*
Y200907D01*
X81745D01*
Y200763D01*
X81889D01*
Y200619D01*
X82177D01*
Y200475D01*
X82465D01*
Y200331D01*
X82753D01*
Y200187D01*
X83041D01*
Y200043D01*
X83473D01*
Y199899D01*
X83905D01*
Y199755D01*
X84626D01*
Y199611D01*
X87074D01*
Y199755D01*
X87794D01*
Y199899D01*
X88226D01*
Y200043D01*
X88658D01*
Y200187D01*
X88947D01*
Y200331D01*
X89235D01*
Y200475D01*
X89523D01*
Y200619D01*
X89811D01*
Y200763D01*
X89955D01*
Y200907D01*
X90243D01*
Y201051D01*
X90387D01*
Y201196D01*
X90531D01*
Y201340D01*
X90675D01*
Y201483D01*
X90819D01*
Y201628D01*
X91107D01*
Y201772D01*
X91251D01*
Y201916D01*
X91395D01*
Y202204D01*
X91539D01*
Y202348D01*
X91683D01*
Y202492D01*
X91827D01*
Y202636D01*
X91971D01*
Y202924D01*
X92115D01*
Y203068D01*
X92259D01*
Y203356D01*
X92403D01*
Y203500D01*
X92547D01*
Y203788D01*
X92691D01*
Y204076D01*
X92835D01*
Y204508D01*
X92980D01*
Y204796D01*
X93124D01*
Y205372D01*
X93268D01*
Y205948D01*
X93412D01*
Y208829D01*
X93268D01*
Y209549D01*
X93124D01*
Y209981D01*
X92980D01*
Y210414D01*
X92835D01*
Y210702D01*
X92691D01*
Y210990D01*
X92547D01*
Y211278D01*
X92403D01*
Y211566D01*
X92259D01*
Y211710D01*
X92115D01*
Y211998D01*
X91971D01*
Y212142D01*
X91827D01*
Y212430D01*
X91683D01*
Y212574D01*
X91539D01*
Y212718D01*
X91395D01*
Y212862D01*
X91251D01*
Y213006D01*
X91107D01*
Y213150D01*
X90963D01*
Y213294D01*
X90819D01*
Y213438D01*
X90675D01*
Y213582D01*
X90531D01*
Y213726D01*
X90243D01*
Y213870D01*
X90099D01*
Y214014D01*
X89811D01*
Y214158D01*
X89667D01*
Y214302D01*
X89379D01*
Y214446D01*
X89091D01*
Y214591D01*
X88802D01*
Y214735D01*
X88371D01*
Y214879D01*
X87938D01*
Y215023D01*
X87362D01*
Y215167D01*
X86498D01*
Y215311D01*
D02*
G37*
G36*
X164131Y214158D02*
X163267D01*
Y214014D01*
X162259D01*
Y213870D01*
X161539D01*
Y213726D01*
X161107D01*
Y213582D01*
X160819D01*
Y213438D01*
X160531D01*
Y213294D01*
X160243D01*
Y213150D01*
X159955D01*
Y213006D01*
X159667D01*
Y212862D01*
X159522D01*
Y212718D01*
X159234D01*
Y212574D01*
X159090D01*
Y212430D01*
X158946D01*
Y212286D01*
X158658D01*
Y212142D01*
X158514D01*
Y211998D01*
X158370D01*
Y211854D01*
X158226D01*
Y211710D01*
X158082D01*
Y211566D01*
X157938D01*
Y211278D01*
X157794D01*
Y211134D01*
X157650D01*
Y210990D01*
X157506D01*
Y210702D01*
X157362D01*
Y210558D01*
X157218D01*
Y210269D01*
X157074D01*
Y210125D01*
X156930D01*
Y209837D01*
X156786D01*
Y209405D01*
X156642D01*
Y209117D01*
X156498D01*
Y208685D01*
X156354D01*
Y208253D01*
X156210D01*
Y207533D01*
X156066D01*
Y205084D01*
X156210D01*
Y204220D01*
X156354D01*
Y203788D01*
X156498D01*
Y203356D01*
X156642D01*
Y203068D01*
X156786D01*
Y202780D01*
X156930D01*
Y202492D01*
X157074D01*
Y202204D01*
X157218D01*
Y201916D01*
X157362D01*
Y201772D01*
X157506D01*
Y201483D01*
X157650D01*
Y201340D01*
X157794D01*
Y201196D01*
X157938D01*
Y201051D01*
X158082D01*
Y200907D01*
X158226D01*
Y200763D01*
X158370D01*
Y200619D01*
X158514D01*
Y200475D01*
X158658D01*
Y200331D01*
X158802D01*
Y200187D01*
X158946D01*
Y200043D01*
X159090D01*
Y199899D01*
X159379D01*
Y199755D01*
X159522D01*
Y199611D01*
X159811D01*
Y199467D01*
X159955D01*
Y199323D01*
X160243D01*
Y199179D01*
X160531D01*
Y199035D01*
X160963D01*
Y198891D01*
X161251D01*
Y198747D01*
X161827D01*
Y198603D01*
X162403D01*
Y198459D01*
X164852D01*
Y198603D01*
X165572D01*
Y198747D01*
X166004D01*
Y198891D01*
X166436D01*
Y199035D01*
X166724D01*
Y199179D01*
X167012D01*
Y199323D01*
X167300D01*
Y199467D01*
X167588D01*
Y199611D01*
X167732D01*
Y199755D01*
X168020D01*
Y199899D01*
X168165D01*
Y200043D01*
X168308D01*
Y200187D01*
X168597D01*
Y200331D01*
X168741D01*
Y200475D01*
X168885D01*
Y200619D01*
X169029D01*
Y200763D01*
X169173D01*
Y200907D01*
X169317D01*
Y201051D01*
X169461D01*
Y201340D01*
X169605D01*
Y201483D01*
X169749D01*
Y201628D01*
X169893D01*
Y201916D01*
X170037D01*
Y202060D01*
X170181D01*
Y202348D01*
X170325D01*
Y202636D01*
X170469D01*
Y202924D01*
X170613D01*
Y203212D01*
X170757D01*
Y203644D01*
X170901D01*
Y204076D01*
X171045D01*
Y204652D01*
X171189D01*
Y205661D01*
X171333D01*
Y206813D01*
X171189D01*
Y207821D01*
X171045D01*
Y208397D01*
X170901D01*
Y208973D01*
X170757D01*
Y209261D01*
X170613D01*
Y209549D01*
X170469D01*
Y209981D01*
X170325D01*
Y210125D01*
X170181D01*
Y210414D01*
X170037D01*
Y210702D01*
X169893D01*
Y210846D01*
X169749D01*
Y210990D01*
X169605D01*
Y211278D01*
X169461D01*
Y211422D01*
X169317D01*
Y211566D01*
X169173D01*
Y211710D01*
X169029D01*
Y211854D01*
X168885D01*
Y211998D01*
X168741D01*
Y212142D01*
X168597D01*
Y212286D01*
X168453D01*
Y212430D01*
X168308D01*
Y212574D01*
X168020D01*
Y212718D01*
X167876D01*
Y212862D01*
X167588D01*
Y213006D01*
X167444D01*
Y213150D01*
X167156D01*
Y213294D01*
X166868D01*
Y213438D01*
X166580D01*
Y213582D01*
X166148D01*
Y213726D01*
X165716D01*
Y213870D01*
X165140D01*
Y214014D01*
X164131D01*
Y214158D01*
D02*
G37*
G36*
X87794Y183191D02*
X85346D01*
Y183047D01*
X84626D01*
Y182903D01*
X84193D01*
Y182759D01*
X83761D01*
Y182615D01*
X83473D01*
Y182471D01*
X83041D01*
Y182327D01*
X82897D01*
Y182183D01*
X82609D01*
Y182039D01*
X82321D01*
Y181895D01*
X82177D01*
Y181751D01*
X82033D01*
Y181607D01*
X81889D01*
Y181463D01*
X81745D01*
Y181319D01*
X81601D01*
Y181175D01*
X81457D01*
Y181031D01*
X81313D01*
Y180887D01*
X81169D01*
Y180743D01*
X81025D01*
Y180455D01*
X80881D01*
Y180167D01*
X80737D01*
Y179591D01*
X80593D01*
Y178870D01*
X80737D01*
Y178438D01*
X80881D01*
Y178150D01*
X81025D01*
Y177862D01*
X81169D01*
Y177718D01*
X81313D01*
Y177574D01*
X81457D01*
Y177430D01*
X81601D01*
Y177286D01*
X81745D01*
Y177142D01*
X81889D01*
Y176998D01*
X82033D01*
Y176854D01*
X82177D01*
Y176710D01*
X82465D01*
Y176566D01*
X82753D01*
Y176422D01*
X83041D01*
Y176278D01*
X83329D01*
Y176134D01*
X83617D01*
Y175990D01*
X84049D01*
Y175846D01*
X84338D01*
Y175702D01*
X84770D01*
Y175558D01*
X85346D01*
Y175414D01*
X85922D01*
Y175270D01*
X86642D01*
Y175126D01*
X87362D01*
Y174981D01*
X88226D01*
Y174838D01*
X89523D01*
Y174694D01*
X91539D01*
Y174549D01*
X100037D01*
Y174405D01*
X102630D01*
Y174261D01*
X104070D01*
Y174117D01*
X105078D01*
Y173973D01*
X105942D01*
Y173829D01*
X106518D01*
Y173685D01*
X107095D01*
Y173541D01*
X107527D01*
Y173397D01*
X107815D01*
Y173253D01*
X108247D01*
Y173109D01*
X108535D01*
Y172965D01*
X108823D01*
Y172821D01*
X108967D01*
Y172677D01*
X109255D01*
Y172533D01*
X109543D01*
Y172389D01*
X109831D01*
Y172245D01*
X110119D01*
Y172101D01*
X110407D01*
Y171957D01*
X110696D01*
Y171813D01*
X111128D01*
Y171669D01*
X111560D01*
Y171525D01*
X112136D01*
Y171381D01*
X112856D01*
Y171237D01*
X113864D01*
Y171093D01*
X115305D01*
Y170949D01*
X118329D01*
Y170805D01*
X123082D01*
Y170949D01*
X132588D01*
Y171093D01*
X135469D01*
Y170949D01*
X137774D01*
Y171093D01*
X140222D01*
Y171237D01*
X141374D01*
Y171381D01*
X142239D01*
Y171525D01*
X142959D01*
Y171669D01*
X143679D01*
Y171813D01*
X144255D01*
Y171957D01*
X144687D01*
Y172101D01*
X145119D01*
Y172245D01*
X145551D01*
Y172389D01*
X145983D01*
Y172533D01*
X146415D01*
Y172677D01*
X146704D01*
Y172821D01*
X146992D01*
Y172965D01*
X147280D01*
Y173109D01*
X147568D01*
Y173253D01*
X147856D01*
Y173397D01*
X148144D01*
Y173541D01*
X148432D01*
Y173685D01*
X148720D01*
Y173829D01*
X148864D01*
Y173973D01*
X149152D01*
Y174117D01*
X149296D01*
Y174261D01*
X149584D01*
Y174405D01*
X149728D01*
Y174549D01*
X150016D01*
Y174694D01*
X150160D01*
Y174838D01*
X150304D01*
Y174981D01*
X150593D01*
Y175126D01*
X150736D01*
Y175270D01*
X150881D01*
Y175414D01*
X151025D01*
Y175558D01*
X151169D01*
Y175702D01*
X151313D01*
Y175846D01*
X151457D01*
Y175990D01*
X151601D01*
Y176134D01*
X151745D01*
Y176278D01*
X151889D01*
Y176422D01*
X152033D01*
Y176566D01*
X152177D01*
Y176710D01*
X152321D01*
Y176998D01*
X152465D01*
Y177286D01*
X152609D01*
Y177574D01*
X152753D01*
Y178582D01*
X152609D01*
Y178870D01*
X152465D01*
Y179015D01*
X152321D01*
Y179158D01*
X152177D01*
Y179303D01*
X152033D01*
Y179447D01*
X151745D01*
Y179591D01*
X151457D01*
Y179735D01*
X151169D01*
Y179879D01*
X150736D01*
Y180023D01*
X150160D01*
Y180167D01*
X149440D01*
Y180311D01*
X148432D01*
Y180455D01*
X143247D01*
Y180311D01*
X141806D01*
Y180167D01*
X140654D01*
Y180023D01*
X139934D01*
Y179879D01*
X139070D01*
Y179735D01*
X138494D01*
Y179591D01*
X137918D01*
Y179447D01*
X137486D01*
Y179303D01*
X136909D01*
Y179158D01*
X136477D01*
Y179015D01*
X136045D01*
Y178870D01*
X135613D01*
Y178726D01*
X135037D01*
Y178582D01*
X134461D01*
Y178438D01*
X133885D01*
Y178294D01*
X133309D01*
Y178150D01*
X132732D01*
Y178006D01*
X132012D01*
Y177862D01*
X131292D01*
Y177718D01*
X130428D01*
Y177574D01*
X129564D01*
Y177430D01*
X128556D01*
Y177286D01*
X127259D01*
Y177142D01*
X125819D01*
Y176998D01*
X123514D01*
Y176854D01*
X116457D01*
Y176998D01*
X114440D01*
Y177142D01*
X113000D01*
Y177286D01*
X111704D01*
Y177430D01*
X110551D01*
Y177574D01*
X109543D01*
Y177718D01*
X108391D01*
Y177862D01*
X107527D01*
Y178006D01*
X106663D01*
Y178150D01*
X105798D01*
Y178294D01*
X104934D01*
Y178438D01*
X104214D01*
Y178582D01*
X103494D01*
Y178726D01*
X102774D01*
Y178870D01*
X101909D01*
Y179015D01*
X101333D01*
Y179158D01*
X100613D01*
Y179303D01*
X100037D01*
Y179447D01*
X99317D01*
Y179591D01*
X98741D01*
Y179735D01*
X98165D01*
Y179879D01*
X97588D01*
Y180023D01*
X97012D01*
Y180167D01*
X96580D01*
Y180311D01*
X96004D01*
Y180455D01*
X95428D01*
Y180599D01*
X94996D01*
Y180743D01*
X94420D01*
Y180887D01*
X93988D01*
Y181031D01*
X93556D01*
Y181175D01*
X93124D01*
Y181319D01*
X92691D01*
Y181463D01*
X92259D01*
Y181607D01*
X91827D01*
Y181751D01*
X91395D01*
Y181895D01*
X91107D01*
Y182039D01*
X90675D01*
Y182183D01*
X90387D01*
Y182327D01*
X89955D01*
Y182471D01*
X89667D01*
Y182615D01*
X89379D01*
Y182759D01*
X88947D01*
Y182903D01*
X88371D01*
Y183047D01*
X87794D01*
Y183191D01*
D02*
G37*
%LPD*%
G36*
X111416Y208829D02*
X111848D01*
Y208685D01*
X111992D01*
Y208541D01*
X112280D01*
Y208397D01*
X112424D01*
Y208109D01*
X112568D01*
Y207965D01*
X112712D01*
Y207677D01*
X112856D01*
Y206381D01*
X112712D01*
Y206093D01*
X112568D01*
Y205948D01*
X112424D01*
Y205661D01*
X112136D01*
Y205516D01*
X111992D01*
Y205372D01*
X111704D01*
Y205228D01*
X111416D01*
Y205084D01*
X110263D01*
Y205228D01*
X109831D01*
Y205372D01*
X109687D01*
Y205516D01*
X109399D01*
Y205661D01*
X109255D01*
Y205804D01*
X109111D01*
Y206093D01*
X108967D01*
Y206381D01*
X108823D01*
Y206957D01*
X108679D01*
Y207101D01*
X108823D01*
Y207677D01*
X108967D01*
Y207965D01*
X109111D01*
Y208253D01*
X109255D01*
Y208397D01*
X109399D01*
Y208541D01*
X109543D01*
Y208685D01*
X109831D01*
Y208829D01*
X110263D01*
Y208973D01*
X111416D01*
Y208829D01*
D02*
G37*
G36*
X139358Y217471D02*
X139646D01*
Y217327D01*
X139934D01*
Y217183D01*
X140078D01*
Y217039D01*
X140222D01*
Y216895D01*
X140366D01*
Y216751D01*
X140510D01*
Y216607D01*
X140654D01*
Y216175D01*
X140798D01*
Y215167D01*
X140654D01*
Y214735D01*
X140510D01*
Y214591D01*
X140366D01*
Y214446D01*
X140222D01*
Y214302D01*
X140078D01*
Y214158D01*
X139934D01*
Y214014D01*
X139646D01*
Y213870D01*
X139358D01*
Y213726D01*
X138206D01*
Y213870D01*
X137774D01*
Y214014D01*
X137486D01*
Y214158D01*
X137341D01*
Y214302D01*
X137197D01*
Y214446D01*
X137053D01*
Y214591D01*
X136909D01*
Y214879D01*
X136765D01*
Y215455D01*
X136621D01*
Y215887D01*
X136765D01*
Y216463D01*
X136909D01*
Y216751D01*
X137053D01*
Y216895D01*
X137197D01*
Y217039D01*
X137341D01*
Y217183D01*
X137486D01*
Y217327D01*
X137774D01*
Y217471D01*
X138206D01*
Y217615D01*
X139358D01*
Y217471D01*
D02*
G37*
G36*
X82465Y210125D02*
X83041D01*
Y209981D01*
X83329D01*
Y209837D01*
X83617D01*
Y209693D01*
X83761D01*
Y209549D01*
X83905D01*
Y209261D01*
X84049D01*
Y209117D01*
X84193D01*
Y208685D01*
X84338D01*
Y207821D01*
X84193D01*
Y207389D01*
X84049D01*
Y207245D01*
X83905D01*
Y206957D01*
X83761D01*
Y206813D01*
X83617D01*
Y206669D01*
X83329D01*
Y206525D01*
X83041D01*
Y206381D01*
X82465D01*
Y206237D01*
X82033D01*
Y206381D01*
X81457D01*
Y206525D01*
X81169D01*
Y206669D01*
X80881D01*
Y206813D01*
X80737D01*
Y206957D01*
X80593D01*
Y207101D01*
X80449D01*
Y207389D01*
X80305D01*
Y207821D01*
X80161D01*
Y208685D01*
X80305D01*
Y209117D01*
X80449D01*
Y209405D01*
X80593D01*
Y209549D01*
X80737D01*
Y209693D01*
X80881D01*
Y209837D01*
X81169D01*
Y209981D01*
X81457D01*
Y210125D01*
X82033D01*
Y210269D01*
X82465D01*
Y210125D01*
D02*
G37*
G36*
X168308Y207245D02*
X168885D01*
Y207101D01*
X169173D01*
Y206957D01*
X169461D01*
Y206813D01*
X169605D01*
Y206669D01*
X169749D01*
Y206381D01*
X169893D01*
Y206237D01*
X170037D01*
Y205804D01*
X170181D01*
Y204940D01*
X170037D01*
Y204508D01*
X169893D01*
Y204364D01*
X169749D01*
Y204076D01*
X169605D01*
Y203932D01*
X169461D01*
Y203788D01*
X169173D01*
Y203644D01*
X168885D01*
Y203500D01*
X168165D01*
Y203356D01*
X167876D01*
Y203500D01*
X167300D01*
Y203644D01*
X167012D01*
Y203788D01*
X166724D01*
Y203932D01*
X166580D01*
Y204076D01*
X166436D01*
Y204364D01*
X166292D01*
Y204508D01*
X166148D01*
Y204940D01*
X166004D01*
Y205804D01*
X166148D01*
Y206237D01*
X166292D01*
Y206381D01*
X166436D01*
Y206669D01*
X166580D01*
Y206813D01*
X166724D01*
Y206957D01*
X167012D01*
Y207101D01*
X167300D01*
Y207245D01*
X167876D01*
Y207389D01*
X168308D01*
Y207245D01*
D02*
G37*
D10*
X47319Y124565D02*
G03*
X47319Y124565I-1181J0D01*
G01*
X93087Y113542D02*
G03*
X93087Y113542I-1181J0D01*
G01*
D11*
X38264Y129526D02*
G03*
X38264Y129526I-492J0D01*
G01*
X97437Y122302D02*
G03*
X97437Y122302I-492J0D01*
G01*
X138910Y126634D02*
G03*
X138910Y126634I-492J0D01*
G01*
D12*
X34472Y201937D02*
G03*
X33291Y200756I0J-1181D01*
G01*
Y194850D02*
G03*
X34078Y194063I787J0D01*
G01*
X41165D02*
G03*
X41952Y194850I0J787D01*
G01*
Y201150D02*
G03*
X41165Y201937I-787J0D01*
G01*
X42201Y93857D02*
X54799D01*
X42201Y128502D02*
X54799D01*
Y93857D02*
Y128502D01*
X42201Y93857D02*
Y128502D01*
X76157Y104880D02*
Y117479D01*
X95842Y104880D02*
Y117479D01*
X76157Y104880D02*
X95842D01*
X76157Y117479D02*
X95842D01*
X135100Y125059D02*
X136843Y123315D01*
X109284Y125059D02*
X136843D01*
X109284Y97500D02*
X136843D01*
Y125059D01*
X109284Y97500D02*
Y125059D01*
X33291Y194850D02*
Y200756D01*
X34078Y194063D02*
X41165D01*
X41952Y194850D02*
Y201150D01*
X34472Y201937D02*
X41165D01*
D13*
X160138Y112921D02*
X164862D01*
X158957Y111346D02*
X166043D01*
X158957Y114496D02*
X166043D01*
X157776Y104654D02*
Y121583D01*
Y104654D02*
X167224D01*
Y121583D01*
X157776D02*
X167224D01*
X205900Y23200D02*
Y223200D01*
X526Y213200D02*
X16274D01*
X526Y223200D02*
X15900D01*
Y23200D02*
Y223200D01*
X526Y23200D02*
X15900D01*
X526D02*
Y223200D01*
X13400Y326D02*
Y16074D01*
X3400Y326D02*
Y15700D01*
X203400D01*
Y326D02*
Y15700D01*
X3400Y326D02*
X203400D01*
X190526Y213200D02*
X206274D01*
X190526Y223200D02*
X205900D01*
X190526Y23200D02*
X205900D01*
X190526D02*
Y223200D01*
X15900D02*
X190526D01*
X155997Y94863D02*
X154665D01*
X153998Y94196D01*
Y91531D01*
X154665Y90864D01*
X155997D01*
X156664Y91531D01*
Y94196D01*
X155997Y94863D01*
X157997Y89531D02*
Y93530D01*
X159996D01*
X160663Y92864D01*
Y91531D01*
X159996Y90864D01*
X157997D01*
X162662Y94196D02*
Y93530D01*
X161995D01*
X163328D01*
X162662D01*
Y91531D01*
X163328Y90864D01*
X165328D02*
X166661D01*
X165994D01*
Y93530D01*
X165328D01*
X169326Y90864D02*
X170659D01*
X171326Y91531D01*
Y92864D01*
X170659Y93530D01*
X169326D01*
X168660Y92864D01*
Y91531D01*
X169326Y90864D01*
X172659D02*
Y93530D01*
X174658D01*
X175324Y92864D01*
Y90864D01*
X177324Y93530D02*
X178657D01*
X179323Y92864D01*
Y90864D01*
X177324D01*
X176657Y91531D01*
X177324Y92197D01*
X179323D01*
X180656Y90864D02*
X181989D01*
X181323D01*
Y94863D01*
X180656D01*
X150666Y86332D02*
X148000D01*
Y82333D01*
X150666D01*
X148000Y84332D02*
X149333D01*
X151999Y84999D02*
X154665Y82333D01*
X153332Y83666D01*
X154665Y84999D01*
X151999Y82333D01*
X156664Y85665D02*
Y84999D01*
X155997D01*
X157330D01*
X156664D01*
Y82999D01*
X157330Y82333D01*
X165994Y85665D02*
X165328Y86332D01*
X163995D01*
X163328Y85665D01*
Y82999D01*
X163995Y82333D01*
X165328D01*
X165994Y82999D01*
X167327Y84999D02*
Y82333D01*
Y83666D01*
X167994Y84332D01*
X168660Y84999D01*
X169326D01*
X171326D02*
Y82999D01*
X171992Y82333D01*
X173992D01*
Y81666D01*
X173325Y81000D01*
X172659D01*
X173992Y82333D02*
Y84999D01*
X175324Y82333D02*
X177324D01*
X177990Y82999D01*
X177324Y83666D01*
X175991D01*
X175324Y84332D01*
X175991Y84999D01*
X177990D01*
X179990Y85665D02*
Y84999D01*
X179323D01*
X180656D01*
X179990D01*
Y82999D01*
X180656Y82333D01*
X183322Y84999D02*
X184655D01*
X185321Y84332D01*
Y82333D01*
X183322D01*
X182656Y82999D01*
X183322Y83666D01*
X185321D01*
X186654Y82333D02*
X187987D01*
X187321D01*
Y86332D01*
X186654D01*
X67664Y243696D02*
X66998Y244363D01*
X65665D01*
X64999Y243696D01*
Y241031D01*
X65665Y240364D01*
X66998D01*
X67664Y241031D01*
X71663Y244363D02*
X68997D01*
Y240364D01*
X71663D01*
X68997Y242364D02*
X70330D01*
X75662Y243696D02*
X74995Y244363D01*
X73663D01*
X72996Y243696D01*
Y241031D01*
X73663Y240364D01*
X74995D01*
X75662Y241031D01*
X76995Y240364D02*
X78328D01*
X77661D01*
Y244363D01*
X76995Y243696D01*
X80327Y244363D02*
X82993D01*
Y243696D01*
X80327Y241031D01*
Y240364D01*
X84326Y243696D02*
X84992Y244363D01*
X86325D01*
X86992Y243696D01*
Y241031D01*
X86325Y240364D01*
X84992D01*
X84326Y241031D01*
Y243696D01*
X90990Y240364D02*
X88324D01*
X90990Y243030D01*
Y243696D01*
X90324Y244363D01*
X88991D01*
X88324Y243696D01*
X96322Y244363D02*
X98988D01*
X97655D01*
Y240364D01*
X100987Y243030D02*
X102320D01*
X102986Y242364D01*
Y240364D01*
X100987D01*
X100321Y241031D01*
X100987Y241697D01*
X102986D01*
X104319Y243030D02*
Y240364D01*
Y241697D01*
X104986Y242364D01*
X105652Y243030D01*
X106319D01*
X109651Y239031D02*
X110317D01*
X110984Y239698D01*
Y243030D01*
X108984D01*
X108318Y242364D01*
Y241031D01*
X108984Y240364D01*
X110984D01*
X114316D02*
X112983D01*
X112317Y241031D01*
Y242364D01*
X112983Y243030D01*
X114316D01*
X114983Y242364D01*
Y241697D01*
X112317D01*
X116982Y243696D02*
Y243030D01*
X116315D01*
X117648D01*
X116982D01*
Y241031D01*
X117648Y240364D01*
X123646Y244363D02*
Y240364D01*
X125646D01*
X126312Y241031D01*
Y241697D01*
X125646Y242364D01*
X123646D01*
X125646D01*
X126312Y243030D01*
Y243696D01*
X125646Y244363D01*
X123646D01*
X128312Y240364D02*
X129645D01*
X130311Y241031D01*
Y242364D01*
X129645Y243030D01*
X128312D01*
X127645Y242364D01*
Y241031D01*
X128312Y240364D01*
X132310Y243030D02*
X133643D01*
X134310Y242364D01*
Y240364D01*
X132310D01*
X131644Y241031D01*
X132310Y241697D01*
X134310D01*
X135643Y243030D02*
Y240364D01*
Y241697D01*
X136309Y242364D01*
X136976Y243030D01*
X137642D01*
X142307Y244363D02*
Y240364D01*
X140308D01*
X139641Y241031D01*
Y242364D01*
X140308Y243030D01*
X142307D01*
X63666Y235832D02*
X61000D01*
Y233832D01*
X62333D01*
X61000D01*
Y231833D01*
X65665D02*
X66998D01*
X67664Y232499D01*
Y233832D01*
X66998Y234499D01*
X65665D01*
X64999Y233832D01*
Y232499D01*
X65665Y231833D01*
X68997Y234499D02*
Y231833D01*
Y233166D01*
X69664Y233832D01*
X70330Y234499D01*
X70997D01*
X79661Y235165D02*
X78994Y235832D01*
X77661D01*
X76995Y235165D01*
Y232499D01*
X77661Y231833D01*
X78994D01*
X79661Y232499D01*
X80994Y235832D02*
Y231833D01*
Y233832D01*
X81660Y234499D01*
X82993D01*
X83659Y233832D01*
Y231833D01*
X84992D02*
X86325D01*
X85659D01*
Y234499D01*
X84992D01*
X88324Y230500D02*
Y234499D01*
X90324D01*
X90990Y233832D01*
Y232499D01*
X90324Y231833D01*
X88324D01*
X92323Y235832D02*
Y231833D01*
X93656Y233166D01*
X94989Y231833D01*
Y235832D01*
X96322D02*
Y231833D01*
Y233832D01*
X96988Y234499D01*
X98321D01*
X98988Y233832D01*
Y231833D01*
X100321D02*
X101654D01*
X100987D01*
Y234499D01*
X100321D01*
X103653Y231833D02*
X105652D01*
X106319Y232499D01*
X105652Y233166D01*
X104319D01*
X103653Y233832D01*
X104319Y234499D01*
X106319D01*
X107652Y230500D02*
Y234499D01*
X109651D01*
X110317Y233832D01*
Y232499D01*
X109651Y231833D01*
X107652D01*
X113650D02*
X112317D01*
X111650Y232499D01*
Y233832D01*
X112317Y234499D01*
X113650D01*
X114316Y233832D01*
Y233166D01*
X111650D01*
X115649Y234499D02*
Y231833D01*
Y233166D01*
X116315Y233832D01*
X116982Y234499D01*
X117648D01*
X121647Y231833D02*
X120314D01*
X119648Y232499D01*
Y233832D01*
X120314Y234499D01*
X121647D01*
X122314Y233832D01*
Y233166D01*
X119648D01*
X123646Y234499D02*
Y231833D01*
Y233166D01*
X124313Y233832D01*
X124979Y234499D01*
X125646D01*
X131644Y235165D02*
X132310Y235832D01*
X133643D01*
X134310Y235165D01*
Y234499D01*
X133643Y233832D01*
X132977D01*
X133643D01*
X134310Y233166D01*
Y232499D01*
X133643Y231833D01*
X132310D01*
X131644Y232499D01*
X135643Y235165D02*
X136309Y235832D01*
X137642D01*
X138308Y235165D01*
Y232499D01*
X137642Y231833D01*
X136309D01*
X135643Y232499D01*
Y235165D01*
X139641D02*
X140308Y235832D01*
X141641D01*
X142307Y235165D01*
Y234499D01*
X141641Y233832D01*
X142307Y233166D01*
Y232499D01*
X141641Y231833D01*
X140308D01*
X139641Y232499D01*
Y233166D01*
X140308Y233832D01*
X139641Y234499D01*
Y235165D01*
X140308Y233832D02*
X141641D01*
X143640Y235832D02*
X146306D01*
X144973D01*
Y231833D01*
X170000Y139499D02*
Y136833D01*
X171333Y135500D01*
X172666Y136833D01*
Y139499D01*
X174665Y135500D02*
Y138832D01*
Y137499D01*
X173999D01*
X175332D01*
X174665D01*
Y138832D01*
X175332Y139499D01*
X177331Y138166D02*
Y136167D01*
X177997Y135500D01*
X179997D01*
Y138166D01*
X181330Y135500D02*
X183329D01*
X183995Y136167D01*
X183329Y136833D01*
X181996D01*
X181330Y137499D01*
X181996Y138166D01*
X183995D01*
X187328Y135500D02*
X185995D01*
X185328Y136167D01*
Y137499D01*
X185995Y138166D01*
X187328D01*
X187994Y137499D01*
Y136833D01*
X185328D01*
X20666Y50332D02*
X19999Y50999D01*
X18666D01*
X18000Y50332D01*
Y47666D01*
X18666Y47000D01*
X19999D01*
X20666Y47666D01*
X24665Y50332D02*
X23998Y50999D01*
X22665D01*
X21999Y50332D01*
Y49666D01*
X22665Y48999D01*
X23998D01*
X24665Y48333D01*
Y47666D01*
X23998Y47000D01*
X22665D01*
X21999Y47666D01*
X20166Y60032D02*
X19499Y60699D01*
X18167D01*
X17500Y60032D01*
Y59366D01*
X18167Y58699D01*
X19499D01*
X20166Y58033D01*
Y57366D01*
X19499Y56700D01*
X18167D01*
X17500Y57366D01*
X21499Y56700D02*
Y60699D01*
X23498D01*
X24164Y60032D01*
Y58699D01*
X23498Y58033D01*
X21499D01*
X25497Y60699D02*
X26830D01*
X26164D01*
Y56700D01*
X25497D01*
X26830D01*
X28830Y56034D02*
X31495D01*
X35494Y60699D02*
X32828D01*
Y56700D01*
X35494D01*
X32828Y58699D02*
X34161D01*
X36827Y56700D02*
Y60699D01*
X39493Y56700D01*
Y60699D01*
X17500Y87000D02*
Y90999D01*
X18833Y89666D01*
X20166Y90999D01*
Y87000D01*
X23498Y90999D02*
X22165D01*
X21499Y90332D01*
Y87666D01*
X22165Y87000D01*
X23498D01*
X24164Y87666D01*
Y90332D01*
X23498Y90999D01*
X28163Y90332D02*
X27497Y90999D01*
X26164D01*
X25497Y90332D01*
Y89666D01*
X26164Y88999D01*
X27497D01*
X28163Y88333D01*
Y87666D01*
X27497Y87000D01*
X26164D01*
X25497Y87666D01*
X29496Y90999D02*
X30829D01*
X30163D01*
Y87000D01*
X29496D01*
X30829D01*
X17500Y96000D02*
Y99999D01*
X18833Y98666D01*
X20166Y99999D01*
Y96000D01*
X21499Y99999D02*
X22832D01*
X22165D01*
Y96000D01*
X21499D01*
X22832D01*
X27497Y99332D02*
X26830Y99999D01*
X25497D01*
X24831Y99332D01*
Y98666D01*
X25497Y97999D01*
X26830D01*
X27497Y97333D01*
Y96666D01*
X26830Y96000D01*
X25497D01*
X24831Y96666D01*
X30829Y99999D02*
X29496D01*
X28830Y99332D01*
Y96666D01*
X29496Y96000D01*
X30829D01*
X31495Y96666D01*
Y99332D01*
X30829Y99999D01*
X20166Y109832D02*
X19499Y110499D01*
X18167D01*
X17500Y109832D01*
Y109166D01*
X18167Y108499D01*
X19499D01*
X20166Y107833D01*
Y107167D01*
X19499Y106500D01*
X18167D01*
X17500Y107167D01*
X24164Y109832D02*
X23498Y110499D01*
X22165D01*
X21499Y109832D01*
Y107167D01*
X22165Y106500D01*
X23498D01*
X24164Y107167D01*
X25497Y110499D02*
Y106500D01*
Y107833D01*
X28163Y110499D01*
X26164Y108499D01*
X28163Y106500D01*
X17500Y115800D02*
Y118466D01*
X19499D01*
X20166Y117799D01*
Y115800D01*
X21499D02*
Y119799D01*
X23498D01*
X24164Y119132D01*
Y117799D01*
X23498Y117133D01*
X21499D01*
X22832D02*
X24164Y115800D01*
X28163Y119132D02*
X27497Y119799D01*
X26164D01*
X25497Y119132D01*
Y118466D01*
X26164Y117799D01*
X27497D01*
X28163Y117133D01*
Y116466D01*
X27497Y115800D01*
X26164D01*
X25497Y116466D01*
X29496Y119799D02*
X32162D01*
X30829D01*
Y115800D01*
X31999Y23998D02*
X29999D01*
X30999D01*
Y19000D01*
X29999Y18000D01*
X29000D01*
X28000Y19000D01*
X33998Y23998D02*
X37997D01*
X35997D01*
Y18000D01*
X39996D02*
Y21999D01*
X41995Y23998D01*
X43995Y21999D01*
Y18000D01*
Y20999D01*
X39996D01*
X49993Y22998D02*
X48993Y23998D01*
X46994D01*
X45994Y22998D01*
Y19000D01*
X46994Y18000D01*
X48993D01*
X49993Y19000D01*
Y20999D01*
X47993D01*
X115000Y18000D02*
X111001D01*
Y19999D01*
X111668Y20666D01*
X113001D01*
X113667Y19999D01*
Y18000D01*
X111668Y21999D02*
X111001Y22665D01*
Y23998D01*
X111668Y24665D01*
X114333D01*
X115000Y23998D01*
Y22665D01*
X114333Y21999D01*
X111668D01*
X115000Y27997D02*
X111001D01*
X113001Y25997D01*
Y28663D01*
X111668Y29996D02*
X111001Y30663D01*
Y31995D01*
X111668Y32662D01*
X114333D01*
X115000Y31995D01*
Y30663D01*
X114333Y29996D01*
X111668D01*
X122000Y18000D02*
X117002D01*
Y20499D01*
X117835Y21332D01*
X119501D01*
X120334Y20499D01*
Y18000D01*
X117835Y22998D02*
X117002Y23831D01*
Y25498D01*
X117835Y26331D01*
X121167D01*
X122000Y25498D01*
Y23831D01*
X121167Y22998D01*
X117835D01*
Y27997D02*
X117002Y28830D01*
Y30496D01*
X117835Y31329D01*
X118668D01*
X119501Y30496D01*
Y29663D01*
Y30496D01*
X120334Y31329D01*
X121167D01*
X122000Y30496D01*
Y28830D01*
X121167Y27997D01*
X122000Y32995D02*
Y34661D01*
Y33828D01*
X117002D01*
X117835Y32995D01*
X131000Y18000D02*
X125002D01*
Y20999D01*
X126002Y21999D01*
X128001D01*
X129001Y20999D01*
Y18000D01*
X126002Y23998D02*
X125002Y24998D01*
Y26997D01*
X126002Y27997D01*
X130000D01*
X131000Y26997D01*
Y24998D01*
X130000Y23998D01*
X126002D01*
X131000Y33995D02*
Y29996D01*
X127001Y33995D01*
X126002D01*
X125002Y32995D01*
Y30996D01*
X126002Y29996D01*
X125002Y39993D02*
X126002Y37993D01*
X128001Y35994D01*
X130000D01*
X131000Y36994D01*
Y38993D01*
X130000Y39993D01*
X129001D01*
X128001Y38993D01*
Y35994D01*
X141000Y18000D02*
X135002D01*
Y20999D01*
X136002Y21999D01*
X138001D01*
X139001Y20999D01*
Y18000D01*
X136002Y23998D02*
X135002Y24998D01*
Y26997D01*
X136002Y27997D01*
X140000D01*
X141000Y26997D01*
Y24998D01*
X140000Y23998D01*
X136002D01*
X135002Y33995D02*
Y29996D01*
X138001D01*
X137001Y31995D01*
Y32995D01*
X138001Y33995D01*
X140000D01*
X141000Y32995D01*
Y30996D01*
X140000Y29996D01*
X136002Y35994D02*
X135002Y36994D01*
Y38993D01*
X136002Y39993D01*
X137001D01*
X138001Y38993D01*
Y37993D01*
Y38993D01*
X139001Y39993D01*
X140000D01*
X141000Y38993D01*
Y36994D01*
X140000Y35994D01*
X151000Y18000D02*
X145002D01*
Y20999D01*
X146002Y21999D01*
X148001D01*
X149001Y20999D01*
Y18000D01*
X146002Y23998D02*
X145002Y24998D01*
Y26997D01*
X146002Y27997D01*
X150000D01*
X151000Y26997D01*
Y24998D01*
X150000Y23998D01*
X146002D01*
X145002Y33995D02*
Y29996D01*
X148001D01*
X147001Y31995D01*
Y32995D01*
X148001Y33995D01*
X150000D01*
X151000Y32995D01*
Y30996D01*
X150000Y29996D01*
X151000Y38993D02*
X145002D01*
X148001Y35994D01*
Y39993D01*
X161000Y18000D02*
X155002D01*
Y20999D01*
X156002Y21999D01*
X158001D01*
X159001Y20999D01*
Y18000D01*
X156002Y23998D02*
X155002Y24998D01*
Y26997D01*
X156002Y27997D01*
X160000D01*
X161000Y26997D01*
Y24998D01*
X160000Y23998D01*
X156002D01*
X161000Y33995D02*
Y29996D01*
X157001Y33995D01*
X156002D01*
X155002Y32995D01*
Y30996D01*
X156002Y29996D01*
X155002Y35994D02*
Y39993D01*
X156002D01*
X160000Y35994D01*
X161000D01*
X171000Y18000D02*
X165002D01*
Y20999D01*
X166002Y21999D01*
X168001D01*
X169001Y20999D01*
Y18000D01*
X171000Y23998D02*
Y25997D01*
Y24998D01*
X165002D01*
X166002Y23998D01*
Y28996D02*
X165002Y29996D01*
Y31995D01*
X166002Y32995D01*
X170000D01*
X171000Y31995D01*
Y29996D01*
X170000Y28996D01*
X166002D01*
X165002Y34995D02*
Y38993D01*
X166002D01*
X170000Y34995D01*
X171000D01*
X181000Y18000D02*
X175002D01*
Y20999D01*
X176002Y21999D01*
X178001D01*
X179001Y20999D01*
Y18000D01*
X181000Y23998D02*
Y25997D01*
Y24998D01*
X175002D01*
X176002Y23998D01*
X181000Y32995D02*
Y28996D01*
X177001Y32995D01*
X176002D01*
X175002Y31995D01*
Y29996D01*
X176002Y28996D01*
Y34995D02*
X175002Y35994D01*
Y37993D01*
X176002Y38993D01*
X180000D01*
X181000Y37993D01*
Y35994D01*
X180000Y34995D01*
X176002D01*
X188000Y18000D02*
X184001D01*
Y19999D01*
X184668Y20666D01*
X186001D01*
X186667Y19999D01*
Y18000D01*
X188000Y21999D02*
Y23332D01*
Y22665D01*
X184001D01*
X184668Y21999D01*
X188000Y25331D02*
Y26664D01*
Y25997D01*
X184001D01*
X184668Y25331D01*
X188000Y31329D02*
Y28663D01*
X185334Y31329D01*
X184668D01*
X184001Y30663D01*
Y29330D01*
X184668Y28663D01*
X189500Y17500D02*
Y21499D01*
X191499D01*
X192166Y20832D01*
Y19499D01*
X191499Y18833D01*
X189500D01*
X193499Y17500D02*
X194832D01*
X194165D01*
Y21499D01*
X193499Y20832D01*
X196831Y17500D02*
X198164D01*
X197497D01*
Y21499D01*
X196831Y20832D01*
X200163D02*
X200830Y21499D01*
X202163D01*
X202829Y20832D01*
Y20166D01*
X202163Y19499D01*
X201496D01*
X202163D01*
X202829Y18833D01*
Y18167D01*
X202163Y17500D01*
X200830D01*
X200163Y18167D01*
X158000Y60500D02*
Y64499D01*
X159999D01*
X160666Y63832D01*
Y62499D01*
X159999Y61833D01*
X158000D01*
X161999Y60500D02*
X163332D01*
X162665D01*
Y64499D01*
X161999Y63832D01*
X167997Y64499D02*
X165331D01*
Y62499D01*
X166664Y63166D01*
X167330D01*
X167997Y62499D01*
Y61166D01*
X167330Y60500D01*
X165997D01*
X165331Y61166D01*
X171995Y64499D02*
X170663Y63832D01*
X169330Y62499D01*
Y61166D01*
X169996Y60500D01*
X171329D01*
X171995Y61166D01*
Y61833D01*
X171329Y62499D01*
X169330D01*
X158000Y53500D02*
Y57499D01*
X159999D01*
X160666Y56832D01*
Y55499D01*
X159999Y54833D01*
X158000D01*
X161999Y53500D02*
X163332D01*
X162665D01*
Y57499D01*
X161999Y56832D01*
X167997Y57499D02*
X165331D01*
Y55499D01*
X166664Y56166D01*
X167330D01*
X167997Y55499D01*
Y54166D01*
X167330Y53500D01*
X165997D01*
X165331Y54166D01*
X169330Y57499D02*
X171995D01*
Y56832D01*
X169330Y54166D01*
Y53500D01*
X158000Y46500D02*
Y50499D01*
X159999D01*
X160666Y49832D01*
Y48499D01*
X159999Y47833D01*
X158000D01*
X161999Y49832D02*
X162665Y50499D01*
X163998D01*
X164664Y49832D01*
Y47166D01*
X163998Y46500D01*
X162665D01*
X161999Y47166D01*
Y49832D01*
X167997Y46500D02*
Y50499D01*
X165997Y48499D01*
X168663D01*
X172662Y50499D02*
X171329Y49832D01*
X169996Y48499D01*
Y47166D01*
X170663Y46500D01*
X171995D01*
X172662Y47166D01*
Y47833D01*
X171995Y48499D01*
X169996D01*
X158500Y71999D02*
Y68000D01*
X161166D01*
X165164Y71999D02*
X162499D01*
Y68000D01*
X165164D01*
X162499Y69999D02*
X163832D01*
X166497Y71999D02*
Y68000D01*
X168497D01*
X169163Y68666D01*
Y71332D01*
X168497Y71999D01*
X166497D01*
X170496Y68000D02*
X172495D01*
X173162Y68666D01*
X172495Y69333D01*
X171163D01*
X170496Y69999D01*
X171163Y70666D01*
X173162D01*
X18000Y126000D02*
Y129999D01*
X19999D01*
X20666Y129332D01*
Y127999D01*
X19999Y127333D01*
X18000D01*
X21999Y129332D02*
X22665Y129999D01*
X23998D01*
X24665Y129332D01*
Y126666D01*
X23998Y126000D01*
X22665D01*
X21999Y126666D01*
Y129332D01*
X25997Y126000D02*
X27330D01*
X26664D01*
Y129999D01*
X25997Y129332D01*
X29330Y129999D02*
X31995D01*
Y129332D01*
X29330Y126666D01*
Y126000D01*
X18000Y136000D02*
Y139999D01*
X19999D01*
X20666Y139332D01*
Y137999D01*
X19999Y137333D01*
X18000D01*
X21999Y139332D02*
X22665Y139999D01*
X23998D01*
X24665Y139332D01*
Y136667D01*
X23998Y136000D01*
X22665D01*
X21999Y136667D01*
Y139332D01*
X25997D02*
X26664Y139999D01*
X27997D01*
X28663Y139332D01*
Y138666D01*
X27997Y137999D01*
X27330D01*
X27997D01*
X28663Y137333D01*
Y136667D01*
X27997Y136000D01*
X26664D01*
X25997Y136667D01*
X29996Y139332D02*
X30663Y139999D01*
X31995D01*
X32662Y139332D01*
Y136667D01*
X31995Y136000D01*
X30663D01*
X29996Y136667D01*
Y139332D01*
X18000Y156500D02*
Y160499D01*
X19999D01*
X20666Y159832D01*
Y158499D01*
X19999Y157833D01*
X18000D01*
X21999Y156500D02*
X23332D01*
X22665D01*
Y160499D01*
X21999Y159832D01*
X25331D02*
X25997Y160499D01*
X27330D01*
X27997Y159832D01*
Y157167D01*
X27330Y156500D01*
X25997D01*
X25331Y157167D01*
Y159832D01*
X31329Y156500D02*
Y160499D01*
X29330Y158499D01*
X31995D01*
X33328Y156500D02*
X35994Y159166D01*
X37327Y160499D02*
X39993D01*
X38660D01*
Y156500D01*
X41326Y160499D02*
X43992Y156500D01*
Y160499D02*
X41326Y156500D01*
X18000Y146500D02*
Y150499D01*
X19999D01*
X20666Y149832D01*
Y148499D01*
X19999Y147833D01*
X18000D01*
X21999Y146500D02*
X23332D01*
X22665D01*
Y150499D01*
X21999Y149832D01*
X25331D02*
X25997Y150499D01*
X27330D01*
X27997Y149832D01*
Y147167D01*
X27330Y146500D01*
X25997D01*
X25331Y147167D01*
Y149832D01*
X31995Y150499D02*
X29330D01*
Y148499D01*
X30663Y149166D01*
X31329D01*
X31995Y148499D01*
Y147167D01*
X31329Y146500D01*
X29996D01*
X29330Y147167D01*
X33328Y146500D02*
X35994Y149166D01*
X37327Y146500D02*
Y150499D01*
X39326D01*
X39993Y149832D01*
Y148499D01*
X39326Y147833D01*
X37327D01*
X38660D02*
X39993Y146500D01*
X41326Y150499D02*
X43992Y146500D01*
Y150499D02*
X41326Y146500D01*
X28999Y208998D02*
X27999Y209998D01*
X26000D01*
X25000Y208998D01*
Y205000D01*
X26000Y204000D01*
X27999D01*
X28999Y205000D01*
X30998Y209998D02*
Y204000D01*
X34997D01*
X36996Y209998D02*
Y204000D01*
Y205999D01*
X40995Y209998D01*
X37996Y206999D01*
X40995Y204000D01*
X42994Y209998D02*
X44993D01*
X43994D01*
Y204000D01*
X42994D01*
X44993D01*
X47993D02*
Y209998D01*
X51991Y204000D01*
Y209998D01*
X21999Y179998D02*
X20999Y180998D01*
X19000D01*
X18000Y179998D01*
Y178999D01*
X19000Y177999D01*
X20999D01*
X21999Y176999D01*
Y176000D01*
X20999Y175000D01*
X19000D01*
X18000Y176000D01*
X23998Y180998D02*
Y179998D01*
X25997Y177999D01*
X27997Y179998D01*
Y180998D01*
X25997Y177999D02*
Y175000D01*
X29996D02*
Y180998D01*
X33995Y175000D01*
Y180998D01*
X39993Y179998D02*
X38993Y180998D01*
X36994D01*
X35994Y179998D01*
Y176000D01*
X36994Y175000D01*
X38993D01*
X39993Y176000D01*
X44991Y180998D02*
X42992D01*
X41992Y179998D01*
Y176000D01*
X42992Y175000D01*
X44991D01*
X45991Y176000D01*
Y179998D01*
X44991Y180998D01*
X47990D02*
Y176000D01*
X48990Y175000D01*
X50989D01*
X51989Y176000D01*
Y180998D01*
X53988D02*
X57987D01*
X55988D01*
Y175000D01*
X183001Y147166D02*
Y145833D01*
Y146499D01*
X186334D01*
X187000Y145833D01*
Y145167D01*
X186334Y144500D01*
X187000Y148499D02*
X183001D01*
Y150498D01*
X183668Y151164D01*
X185001D01*
X185667Y150498D01*
Y148499D01*
X187000Y152497D02*
Y153830D01*
Y153164D01*
X183001D01*
X183668Y152497D01*
X121668Y70166D02*
X121001Y69499D01*
Y68166D01*
X121668Y67500D01*
X124334D01*
X125000Y68166D01*
Y69499D01*
X124334Y70166D01*
X125000Y71499D02*
Y72832D01*
Y72165D01*
X121001D01*
X121668Y71499D01*
X125000Y77497D02*
Y74831D01*
X122334Y77497D01*
X121668D01*
X121001Y76830D01*
Y75497D01*
X121668Y74831D01*
X101168Y148166D02*
X100501Y147499D01*
Y146167D01*
X101168Y145500D01*
X103833D01*
X104500Y146167D01*
Y147499D01*
X103833Y148166D01*
X101168Y149499D02*
X100501Y150165D01*
Y151498D01*
X101168Y152164D01*
X101834D01*
X102501Y151498D01*
X103167Y152164D01*
X103833D01*
X104500Y151498D01*
Y150165D01*
X103833Y149499D01*
X103167D01*
X102501Y150165D01*
X101834Y149499D01*
X101168D01*
X102501Y150165D02*
Y151498D01*
X68000Y116999D02*
Y113666D01*
X68666Y113000D01*
X69999D01*
X70666Y113666D01*
Y116999D01*
X74664Y113000D02*
X71999D01*
X74664Y115666D01*
Y116332D01*
X73998Y116999D01*
X72665D01*
X71999Y116332D01*
X95500Y70500D02*
X91501D01*
Y72499D01*
X92168Y73166D01*
X93501D01*
X94167Y72499D01*
Y70500D01*
Y71833D02*
X95500Y73166D01*
Y76498D02*
X91501D01*
X93501Y74499D01*
Y77165D01*
X80500Y145500D02*
X76501D01*
Y147499D01*
X77168Y148166D01*
X78501D01*
X79167Y147499D01*
Y145500D01*
Y146833D02*
X80500Y148166D01*
X77168Y149499D02*
X76501Y150165D01*
Y151498D01*
X77168Y152164D01*
X77834D01*
X78501Y151498D01*
Y150832D01*
Y151498D01*
X79167Y152164D01*
X79834D01*
X80500Y151498D01*
Y150165D01*
X79834Y149499D01*
X95500Y145500D02*
X91501D01*
Y147499D01*
X92168Y148166D01*
X93501D01*
X94167Y147499D01*
Y145500D01*
Y146833D02*
X95500Y148166D01*
Y152164D02*
Y149499D01*
X92834Y152164D01*
X92168D01*
X91501Y151498D01*
Y150165D01*
X92168Y149499D01*
X6666Y228999D02*
X5333D01*
X5999D01*
Y225666D01*
X5333Y225000D01*
X4666D01*
X4000Y225666D01*
X7999Y225000D02*
X9332D01*
X8665D01*
Y228999D01*
X7999Y228332D01*
X174666Y102832D02*
X173999Y103499D01*
X172667D01*
X172000Y102832D01*
Y100166D01*
X172667Y99500D01*
X173999D01*
X174666Y100166D01*
X175999Y102832D02*
X176665Y103499D01*
X177998D01*
X178665Y102832D01*
Y102166D01*
X177998Y101499D01*
X177332D01*
X177998D01*
X178665Y100833D01*
Y100166D01*
X177998Y99500D01*
X176665D01*
X175999Y100166D01*
X174666Y125832D02*
X173999Y126499D01*
X172667D01*
X172000Y125832D01*
Y123167D01*
X172667Y122500D01*
X173999D01*
X174666Y123167D01*
X178665Y122500D02*
X175999D01*
X178665Y125166D01*
Y125832D01*
X177998Y126499D01*
X176665D01*
X175999Y125832D01*
X148000Y101500D02*
Y105499D01*
X149999D01*
X150666Y104832D01*
Y103499D01*
X149999Y102833D01*
X148000D01*
X149333D02*
X150666Y101500D01*
X154665Y105499D02*
X151999D01*
Y103499D01*
X153332Y104166D01*
X153998D01*
X154665Y103499D01*
Y102166D01*
X153998Y101500D01*
X152665D01*
X151999Y102166D01*
X102000Y124999D02*
Y121667D01*
X102666Y121000D01*
X103999D01*
X104666Y121667D01*
Y124999D01*
X105999Y121000D02*
X107332D01*
X106665D01*
Y124999D01*
X105999Y124332D01*
X160000Y127499D02*
X162666Y123500D01*
Y127499D02*
X160000Y123500D01*
X163999D02*
X165332D01*
X164665D01*
Y127499D01*
X163999Y126832D01*
X127668Y148166D02*
X127001Y147499D01*
Y146167D01*
X127668Y145500D01*
X130333D01*
X131000Y146167D01*
Y147499D01*
X130333Y148166D01*
X131000Y149499D02*
Y150832D01*
Y150165D01*
X127001D01*
X127668Y149499D01*
X154168Y148166D02*
X153501Y147499D01*
Y146167D01*
X154168Y145500D01*
X156834D01*
X157500Y146167D01*
Y147499D01*
X156834Y148166D01*
X157500Y151498D02*
X153501D01*
X155501Y149499D01*
Y152164D01*
X146168Y148166D02*
X145501Y147499D01*
Y146167D01*
X146168Y145500D01*
X148834D01*
X149500Y146167D01*
Y147499D01*
X148834Y148166D01*
X145501Y152164D02*
Y149499D01*
X147501D01*
X146834Y150832D01*
Y151498D01*
X147501Y152164D01*
X148834D01*
X149500Y151498D01*
Y150165D01*
X148834Y149499D01*
X122000Y145500D02*
X118001D01*
Y147499D01*
X118668Y148166D01*
X120001D01*
X120667Y147499D01*
Y145500D01*
Y146833D02*
X122000Y148166D01*
Y149499D02*
Y150832D01*
Y150165D01*
X118001D01*
X118668Y149499D01*
X166500Y145500D02*
X162501D01*
Y147499D01*
X163168Y148166D01*
X164501D01*
X165167Y147499D01*
Y145500D01*
Y146833D02*
X166500Y148166D01*
X162501Y152164D02*
X163168Y150832D01*
X164501Y149499D01*
X165833D01*
X166500Y150165D01*
Y151498D01*
X165833Y152164D01*
X165167D01*
X164501Y151498D01*
Y149499D01*
X133500Y70500D02*
X129501D01*
Y72499D01*
X130168Y73166D01*
X131501D01*
X132167Y72499D01*
Y70500D01*
Y71833D02*
X133500Y73166D01*
X129501Y74499D02*
Y77165D01*
X130168D01*
X132834Y74499D01*
X133500D01*
X80500Y70500D02*
X76501D01*
Y72499D01*
X77168Y73166D01*
X78501D01*
X79167Y72499D01*
Y70500D01*
Y71833D02*
X80500Y73166D01*
X77168Y74499D02*
X76501Y75165D01*
Y76498D01*
X77168Y77165D01*
X77834D01*
X78501Y76498D01*
X79167Y77165D01*
X79834D01*
X80500Y76498D01*
Y75165D01*
X79834Y74499D01*
X79167D01*
X78501Y75165D01*
X77834Y74499D01*
X77168D01*
X78501Y75165D02*
Y76498D01*
X35166Y191332D02*
X34499Y191999D01*
X33166D01*
X32500Y191332D01*
Y190666D01*
X33166Y189999D01*
X34499D01*
X35166Y189333D01*
Y188666D01*
X34499Y188000D01*
X33166D01*
X32500Y188666D01*
X39165Y191999D02*
X37832D01*
X38498D01*
Y188666D01*
X37832Y188000D01*
X37165D01*
X36499Y188666D01*
X40497Y188000D02*
X41830D01*
X41164D01*
Y191999D01*
X40497Y191332D01*
X45000Y133999D02*
Y130666D01*
X45666Y130000D01*
X46999D01*
X47666Y130666D01*
Y133999D01*
X48999Y133332D02*
X49665Y133999D01*
X50998D01*
X51665Y133332D01*
Y132666D01*
X50998Y131999D01*
X50332D01*
X50998D01*
X51665Y131333D01*
Y130666D01*
X50998Y130000D01*
X49665D01*
X48999Y130666D01*
X46500Y75000D02*
X42501D01*
Y76999D01*
X43168Y77666D01*
X44501D01*
X45167Y76999D01*
Y75000D01*
Y76333D02*
X46500Y77666D01*
Y78999D02*
Y80332D01*
Y79665D01*
X42501D01*
X43168Y78999D01*
Y82331D02*
X42501Y82997D01*
Y84330D01*
X43168Y84997D01*
X45834D01*
X46500Y84330D01*
Y82997D01*
X45834Y82331D01*
X43168D01*
X42668Y140166D02*
X42001Y139499D01*
Y138166D01*
X42668Y137500D01*
X45334D01*
X46000Y138166D01*
Y139499D01*
X45334Y140166D01*
X42001Y144165D02*
X42668Y142832D01*
X44001Y141499D01*
X45334D01*
X46000Y142165D01*
Y143498D01*
X45334Y144165D01*
X44667D01*
X44001Y143498D01*
Y141499D01*
X57668Y148166D02*
X57001Y147499D01*
Y146167D01*
X57668Y145500D01*
X60334D01*
X61000Y146167D01*
Y147499D01*
X60334Y148166D01*
X57001Y149499D02*
Y152164D01*
X57668D01*
X60334Y149499D01*
X61000D01*
X110168Y148166D02*
X109501Y147499D01*
Y146167D01*
X110168Y145500D01*
X112833D01*
X113500Y146167D01*
Y147499D01*
X112833Y148166D01*
Y149499D02*
X113500Y150165D01*
Y151498D01*
X112833Y152164D01*
X110168D01*
X109501Y151498D01*
Y150165D01*
X110168Y149499D01*
X110834D01*
X111501Y150165D01*
Y152164D01*
X101668Y72166D02*
X101001Y71499D01*
Y70166D01*
X101668Y69500D01*
X104333D01*
X105000Y70166D01*
Y71499D01*
X104333Y72166D01*
X105000Y73499D02*
Y74832D01*
Y74165D01*
X101001D01*
X101668Y73499D01*
X105000Y76831D02*
Y78164D01*
Y77497D01*
X101001D01*
X101668Y76831D01*
X136668Y148166D02*
X136001Y147499D01*
Y146167D01*
X136668Y145500D01*
X139333D01*
X140000Y146167D01*
Y147499D01*
X139333Y148166D01*
X140000Y149499D02*
Y150832D01*
Y150165D01*
X136001D01*
X136668Y149499D01*
Y152831D02*
X136001Y153497D01*
Y154830D01*
X136668Y155497D01*
X139333D01*
X140000Y154830D01*
Y153497D01*
X139333Y152831D01*
X136668D01*
X141168Y91166D02*
X140501Y90499D01*
Y89166D01*
X141168Y88500D01*
X143833D01*
X144500Y89166D01*
Y90499D01*
X143833Y91166D01*
X144500Y92499D02*
Y93832D01*
Y93165D01*
X140501D01*
X141168Y92499D01*
Y95831D02*
X140501Y96497D01*
Y97830D01*
X141168Y98497D01*
X141834D01*
X142501Y97830D01*
Y97164D01*
Y97830D01*
X143167Y98497D01*
X143833D01*
X144500Y97830D01*
Y96497D01*
X143833Y95831D01*
X152668Y123166D02*
X152001Y122499D01*
Y121167D01*
X152668Y120500D01*
X155333D01*
X156000Y121167D01*
Y122499D01*
X155333Y123166D01*
X156000Y124499D02*
Y125832D01*
Y125165D01*
X152001D01*
X152668Y124499D01*
X156000Y129830D02*
X152001D01*
X154001Y127831D01*
Y130497D01*
X44000Y58500D02*
Y62499D01*
X45999D01*
X46666Y61832D01*
Y60499D01*
X45999Y59833D01*
X44000D01*
X45333D02*
X46666Y58500D01*
X47999D02*
X49332D01*
X48665D01*
Y62499D01*
X47999Y61832D01*
X51331Y58500D02*
X52664D01*
X51997D01*
Y62499D01*
X51331Y61832D01*
X88666Y164832D02*
X87999Y165499D01*
X86666D01*
X86000Y164832D01*
Y162167D01*
X86666Y161500D01*
X87999D01*
X88666Y162167D01*
X89999Y161500D02*
X91332D01*
X90665D01*
Y165499D01*
X89999Y164832D01*
X95997Y165499D02*
X93331D01*
Y163499D01*
X94664Y164166D01*
X95330D01*
X95997Y163499D01*
Y162167D01*
X95330Y161500D01*
X93997D01*
X93331Y162167D01*
X63166Y74832D02*
X62499Y75499D01*
X61166D01*
X60500Y74832D01*
Y72166D01*
X61166Y71500D01*
X62499D01*
X63166Y72166D01*
X64499Y71500D02*
X65832D01*
X65165D01*
Y75499D01*
X64499Y74832D01*
X70497Y75499D02*
X69164Y74832D01*
X67831Y73499D01*
Y72166D01*
X68497Y71500D01*
X69830D01*
X70497Y72166D01*
Y72833D01*
X69830Y73499D01*
X67831D01*
X144666Y70332D02*
X143999Y70999D01*
X142666D01*
X142000Y70332D01*
Y67666D01*
X142666Y67000D01*
X143999D01*
X144666Y67666D01*
X145999Y67000D02*
X147332D01*
X146665D01*
Y70999D01*
X145999Y70332D01*
X149331Y70999D02*
X151997D01*
Y70332D01*
X149331Y67666D01*
Y67000D01*
D14*
X42248Y51744D02*
Y57256D01*
X54059Y51744D02*
Y57256D01*
X42248D02*
X54059D01*
X42248Y51744D02*
X54059D01*
X35244Y74094D02*
X40756D01*
X35244Y85905D02*
X40756D01*
X35244Y74094D02*
Y85905D01*
X40756Y74094D02*
Y85905D01*
X75744Y90739D02*
X81256D01*
X75744Y78928D02*
X81256D01*
Y90739D01*
X75744Y78928D02*
Y90739D01*
X128744Y90905D02*
X134256D01*
X128744Y79094D02*
X134256D01*
Y90905D01*
X128744Y79094D02*
Y90905D01*
X161744Y143405D02*
X167256D01*
X161744Y131595D02*
X167256D01*
Y143405D01*
X161744Y131595D02*
Y143405D01*
X148244Y107016D02*
X153756D01*
X148244Y118827D02*
X153756D01*
X148244Y107016D02*
Y118827D01*
X153756Y107016D02*
Y118827D01*
X90744Y78928D02*
X96256D01*
X90744Y90739D02*
X96256D01*
X90744Y78928D02*
Y90739D01*
X96256Y78928D02*
Y90739D01*
X75744Y143431D02*
X81256D01*
X75744Y131621D02*
X81256D01*
Y143431D01*
X75744Y131621D02*
Y143431D01*
X90744D02*
X96256D01*
X90744Y131621D02*
X96256D01*
Y143431D01*
X90744Y131621D02*
Y143431D01*
X117244Y143405D02*
X122756D01*
X117244Y131595D02*
X122756D01*
Y143405D01*
X117244Y131595D02*
Y143405D01*
X171999Y140499D02*
X181999D01*
Y160499D01*
X171999D02*
X181999D01*
X171999Y140499D02*
Y160499D01*
X141126Y60244D02*
X151362D01*
X141126Y65756D02*
X151362D01*
X141126Y60244D02*
Y65756D01*
X151362Y60244D02*
Y65756D01*
X60382Y64744D02*
X70618D01*
X60382Y70256D02*
X70618D01*
X60382Y64744D02*
Y70256D01*
X70618Y64744D02*
Y70256D01*
X86126Y154744D02*
X96362D01*
X86126Y160256D02*
X96362D01*
X86126Y154744D02*
Y160256D01*
X96362Y154744D02*
Y160256D01*
X140138Y127256D02*
X150374D01*
X140138Y121744D02*
X150374D01*
Y127256D01*
X140138Y121744D02*
Y127256D01*
X145256Y100382D02*
Y110618D01*
X139744Y100382D02*
Y110618D01*
Y100382D02*
X145256D01*
X139744Y110618D02*
X145256D01*
X125756Y79882D02*
Y90118D01*
X120244Y79882D02*
Y90118D01*
Y79882D02*
X125756D01*
X120244Y90118D02*
X125756D01*
X105756Y79882D02*
Y90118D01*
X100244Y79882D02*
Y90118D01*
Y79882D02*
X105756D01*
X100244Y90118D02*
X105756D01*
X135244Y132382D02*
Y142618D01*
X140756Y132382D02*
Y142618D01*
X135244D02*
X140756D01*
X135244Y132382D02*
X140756D01*
X108744D02*
Y142618D01*
X114256Y132382D02*
Y142618D01*
X108744D02*
X114256D01*
X108744Y132382D02*
X114256D01*
X99744D02*
Y142618D01*
X105256Y132382D02*
Y142618D01*
X99744D02*
X105256D01*
X99744Y132382D02*
X105256D01*
X56244Y132882D02*
Y143118D01*
X61756Y132882D02*
Y143118D01*
X56244D02*
X61756D01*
X56244Y132882D02*
X61756D01*
X35244D02*
Y143118D01*
X40756Y132882D02*
Y143118D01*
X35244D02*
X40756D01*
X35244Y132882D02*
X40756D01*
X144744Y132382D02*
Y142618D01*
X150256Y132382D02*
Y142618D01*
X144744D02*
X150256D01*
X144744Y132382D02*
X150256D01*
X152744D02*
Y142618D01*
X158256Y132382D02*
Y142618D01*
X152744D02*
X158256D01*
X152744Y132382D02*
X158256D01*
X170638Y105165D02*
X180874D01*
X170638Y110677D02*
X180874D01*
X170638Y105165D02*
Y110677D01*
X180874Y105165D02*
Y110677D01*
X170638Y115144D02*
X180874D01*
X170638Y120656D02*
X180874D01*
X170638Y115144D02*
Y120656D01*
X180874Y115144D02*
Y120656D01*
X126244Y132382D02*
Y142618D01*
X131756Y132382D02*
Y142618D01*
X126244D02*
X131756D01*
X126244Y132382D02*
X131756D01*
D15*
X180500Y42000D02*
X190500Y32000D01*
X180500Y48500D02*
X190526Y38500D01*
X174500Y61000D02*
X190526Y45000D01*
X174500Y54500D02*
X180500Y48500D01*
X174500Y48000D02*
X180500Y42000D01*
X174500Y44500D02*
Y66500D01*
X156500Y44500D02*
X174500D01*
X156500D02*
Y66500D01*
X174500D01*
X148000Y88500D02*
Y99000D01*
X187500Y88500D02*
Y130000D01*
X165000D02*
X187500D01*
D16*
X232Y-7D02*
Y253993D01*
X206232D01*
Y-7D02*
Y253993D01*
X232Y-7D02*
X206232D01*
M02*
