G04*
G04 #@! TF.GenerationSoftware,Altium Limited,Altium Designer,18.0.12 (696)*
G04*
G04 Layer_Physical_Order=1*
G04 Layer_Color=255*
%FSLAX25Y25*%
%MOIN*%
G70*
G01*
G75*
%ADD13C,0.01000*%
%ADD15C,0.00800*%
%ADD16C,0.00500*%
G04:AMPARAMS|DCode=19|XSize=23.62mil|YSize=57.09mil|CornerRadius=1.18mil|HoleSize=0mil|Usage=FLASHONLY|Rotation=90.000|XOffset=0mil|YOffset=0mil|HoleType=Round|Shape=RoundedRectangle|*
%AMROUNDEDRECTD19*
21,1,0.02362,0.05472,0,0,90.0*
21,1,0.02126,0.05709,0,0,90.0*
1,1,0.00236,0.02736,0.01063*
1,1,0.00236,0.02736,-0.01063*
1,1,0.00236,-0.02736,-0.01063*
1,1,0.00236,-0.02736,0.01063*
%
%ADD19ROUNDEDRECTD19*%
G04:AMPARAMS|DCode=20|XSize=25.59mil|YSize=64.96mil|CornerRadius=1.92mil|HoleSize=0mil|Usage=FLASHONLY|Rotation=0.000|XOffset=0mil|YOffset=0mil|HoleType=Round|Shape=RoundedRectangle|*
%AMROUNDEDRECTD20*
21,1,0.02559,0.06112,0,0,0.0*
21,1,0.02175,0.06496,0,0,0.0*
1,1,0.00384,0.01088,-0.03056*
1,1,0.00384,-0.01088,-0.03056*
1,1,0.00384,-0.01088,0.03056*
1,1,0.00384,0.01088,0.03056*
%
%ADD20ROUNDEDRECTD20*%
%ADD22R,0.02500X0.05000*%
G04:AMPARAMS|DCode=23|XSize=39.37mil|YSize=35.43mil|CornerRadius=4.43mil|HoleSize=0mil|Usage=FLASHONLY|Rotation=90.000|XOffset=0mil|YOffset=0mil|HoleType=Round|Shape=RoundedRectangle|*
%AMROUNDEDRECTD23*
21,1,0.03937,0.02657,0,0,90.0*
21,1,0.03051,0.03543,0,0,90.0*
1,1,0.00886,0.01329,0.01526*
1,1,0.00886,0.01329,-0.01526*
1,1,0.00886,-0.01329,-0.01526*
1,1,0.00886,-0.01329,0.01526*
%
%ADD23ROUNDEDRECTD23*%
G04:AMPARAMS|DCode=24|XSize=39.37mil|YSize=35.43mil|CornerRadius=4.43mil|HoleSize=0mil|Usage=FLASHONLY|Rotation=180.000|XOffset=0mil|YOffset=0mil|HoleType=Round|Shape=RoundedRectangle|*
%AMROUNDEDRECTD24*
21,1,0.03937,0.02657,0,0,180.0*
21,1,0.03051,0.03543,0,0,180.0*
1,1,0.00886,-0.01526,0.01329*
1,1,0.00886,0.01526,0.01329*
1,1,0.00886,0.01526,-0.01329*
1,1,0.00886,-0.01526,-0.01329*
%
%ADD24ROUNDEDRECTD24*%
%ADD25R,0.02953X0.03740*%
%ADD26R,0.03740X0.02953*%
G04:AMPARAMS|DCode=43|XSize=39.37mil|YSize=70.87mil|CornerRadius=3.94mil|HoleSize=0mil|Usage=FLASHONLY|Rotation=270.000|XOffset=0mil|YOffset=0mil|HoleType=Round|Shape=RoundedRectangle|*
%AMROUNDEDRECTD43*
21,1,0.03937,0.06299,0,0,270.0*
21,1,0.03150,0.07087,0,0,270.0*
1,1,0.00787,-0.03150,-0.01575*
1,1,0.00787,-0.03150,0.01575*
1,1,0.00787,0.03150,0.01575*
1,1,0.00787,0.03150,-0.01575*
%
%ADD43ROUNDEDRECTD43*%
%ADD44C,0.00984*%
%ADD45C,0.02500*%
%ADD46C,0.03000*%
%ADD47C,0.01200*%
%ADD48C,0.00600*%
%ADD49C,0.01600*%
%ADD50C,0.02000*%
%ADD51C,0.02100*%
%ADD52C,0.01800*%
%ADD53C,0.01400*%
%ADD54C,0.05906*%
%ADD55C,0.25000*%
%ADD56R,0.11000X0.06000*%
%ADD57O,0.11000X0.06000*%
%ADD58R,0.06000X0.11000*%
%ADD59O,0.06000X0.11000*%
%ADD60C,0.02400*%
D13*
X164500Y140602D02*
X169346D01*
X121784Y126784D02*
Y128784D01*
X54500Y54500D02*
X60000Y60000D01*
X51500Y54500D02*
X54500D01*
X162500Y117842D02*
X172942D01*
X173000Y117900D01*
X162500Y108000D02*
X172921D01*
X59228Y83575D02*
Y96179D01*
X59000Y83346D02*
X59228Y83575D01*
X38000Y83346D02*
X59000D01*
X59000Y83346D01*
X142500Y108256D02*
X146044D01*
X37772Y126180D02*
Y135016D01*
X38000Y135244D01*
X59228Y126180D02*
Y135016D01*
X59000Y135244D02*
X59228Y135016D01*
X59000Y135244D02*
X63756D01*
X33244D02*
X38000D01*
X60000Y60000D02*
X77800D01*
X40000Y54500D02*
X44807D01*
D15*
X177000Y133000D02*
Y145500D01*
X172000Y128000D02*
X177000Y133000D01*
X142500Y128000D02*
X172000D01*
X124343Y113500D02*
Y115118D01*
X128409Y140602D02*
X129000Y140012D01*
X124422Y110078D02*
X124500Y110157D01*
X68500Y27500D02*
X84000D01*
X58400Y17400D02*
X68500Y27500D01*
X58400Y8200D02*
Y17400D01*
X75000Y32500D02*
X80000Y37500D01*
X63500Y32500D02*
X75000D01*
X48400Y17400D02*
X63500Y32500D01*
X75500Y37500D02*
X91000Y53000D01*
X58500Y37500D02*
X75500D01*
X38400Y17400D02*
X58500Y37500D01*
X76500Y42500D02*
X88500Y54500D01*
X53500Y42500D02*
X76500D01*
X28400Y17400D02*
X53500Y42500D01*
X78000Y47500D02*
X85000Y54500D01*
X48500Y47500D02*
X78000D01*
X18400Y17400D02*
X48500Y47500D01*
X32847Y83346D02*
X38000D01*
X32500Y83000D02*
X32847Y83346D01*
X25500Y54000D02*
Y89500D01*
X19700Y48200D02*
X25500Y54000D01*
X8400Y58200D02*
X19800D01*
X25500Y89500D02*
X34500Y98500D01*
X8400Y48200D02*
X19700D01*
X131500Y75800D02*
Y81653D01*
X123000Y76900D02*
X127800Y72100D01*
X123000Y76900D02*
Y82244D01*
X142500Y124500D02*
Y128000D01*
X125744Y87756D02*
X128000Y85500D01*
X123000Y87756D02*
X125744D01*
X123000D02*
Y90500D01*
X121500Y92000D02*
X123000Y90500D01*
X121500Y92000D02*
Y95000D01*
X119225Y110000D02*
X121500D01*
X121941Y107441D02*
X124500Y110000D01*
X121784Y107441D02*
X121941D01*
X124343Y113500D02*
X125284D01*
X124500Y110157D02*
Y113343D01*
Y110000D02*
Y110157D01*
X124500Y110157D02*
X124500Y110157D01*
X124343Y113500D02*
X124500Y113343D01*
X88500Y122302D02*
Y126680D01*
X93500Y122302D02*
Y128241D01*
Y134179D01*
X81000Y92680D02*
X83500Y95179D01*
X59228Y106179D02*
X63619D01*
X65500Y104298D01*
Y98500D02*
Y104298D01*
Y98500D02*
X71320Y92680D01*
X81000D01*
X77320Y95000D02*
X78500Y96179D01*
X32680Y116180D02*
X37772D01*
X14700Y98200D02*
X32680Y116180D01*
X8400Y98200D02*
X14700D01*
X8400Y88200D02*
X15200D01*
X18500Y91500D01*
Y96500D01*
X33180Y111179D01*
X37772D01*
X33180Y106179D02*
X37772D01*
Y121179D02*
X41320D01*
X34500Y98500D02*
X41000D01*
X43500Y101000D01*
Y119000D01*
X41320Y121179D02*
X43500Y119000D01*
X78500Y96179D02*
Y100057D01*
X83500Y95179D02*
Y100057D01*
X89759Y128241D02*
X93500D01*
X87000Y131000D02*
X89759Y128241D01*
X85900Y129279D02*
X88500Y126680D01*
X59228Y121179D02*
X63679D01*
X73500Y131000D01*
X87000D01*
X59228Y116180D02*
X63679D01*
X76780Y129279D01*
X85900D01*
X59228Y111179D02*
X63820D01*
X68000Y107000D01*
Y99500D02*
Y107000D01*
Y99500D02*
X72500Y95000D01*
X77320D01*
X91000Y53000D02*
Y57000D01*
X38400Y8200D02*
Y17400D01*
X48400Y8200D02*
Y17400D01*
X28400Y8200D02*
Y17400D01*
X18400Y8200D02*
Y17400D01*
X93500Y100057D02*
X96943D01*
X103000Y94000D01*
Y87756D02*
Y94000D01*
Y77500D02*
Y82244D01*
X72320Y88179D02*
X78500D01*
X88013Y81487D02*
X93500D01*
X89000Y140872D02*
X93500D01*
X74128D02*
X78500D01*
X59000Y140756D02*
X63756D01*
X33244D02*
X38000D01*
X75302Y122302D02*
X78500D01*
X72000Y119000D02*
X75302Y122302D01*
X178512Y107921D02*
Y112988D01*
Y117900D01*
X148012Y124500D02*
X152800D01*
X142500Y97700D02*
Y102744D01*
X98756Y87756D02*
X103000D01*
X125284Y113500D02*
X126902Y115118D01*
X108902Y128000D02*
X114107Y122795D01*
X105500Y128000D02*
X108902D01*
X139500Y63000D02*
X143488D01*
X58500Y67500D02*
X62744D01*
X84500Y157500D02*
X88488D01*
D16*
X124343Y117677D02*
X125585Y118919D01*
Y121064D01*
X127000Y118500D02*
X129500Y116000D01*
X127000Y118500D02*
Y120139D01*
X126000Y121478D02*
X136978D01*
X125585Y121064D02*
X126000Y121478D01*
X124343Y117677D02*
X124677D01*
X126902Y120236D02*
X127000Y120139D01*
X130778Y118919D02*
X140081D01*
X129461Y120236D02*
X130778Y118919D01*
X140081D02*
X140500Y118500D01*
X136978Y121478D02*
X140000Y124500D01*
X142500D01*
X143935Y116435D02*
X145000Y117500D01*
X133106Y116435D02*
X143935D01*
X132020Y117520D02*
X133106Y116435D01*
X107500Y101914D02*
X110151Y104565D01*
X107500Y62500D02*
Y101914D01*
Y62500D02*
X122500Y47500D01*
X109000Y102000D02*
X110565Y103565D01*
X109000Y63500D02*
Y102000D01*
Y63500D02*
X125000Y47500D01*
X120500Y116402D02*
Y125500D01*
Y116402D02*
X121784Y115118D01*
X123635Y92365D02*
Y96865D01*
X123026Y97474D02*
X123635Y96865D01*
X123026Y97474D02*
Y102837D01*
X123635Y92365D02*
X127654Y88346D01*
X131000D01*
X128145Y96855D02*
X137500Y87500D01*
Y82500D02*
Y87500D01*
Y82500D02*
X191800Y28200D01*
X128145Y96855D02*
Y101006D01*
X117908Y119349D02*
Y123592D01*
Y119349D02*
X118450Y118808D01*
Y117192D02*
Y118808D01*
X117784Y116526D02*
X118450Y117192D01*
X117784Y114000D02*
Y116526D01*
Y114000D02*
X119225Y112559D01*
X88500Y100057D02*
Y106679D01*
X111548Y107441D02*
X112865Y108758D01*
Y120688D01*
X112000Y121553D02*
X112865Y120688D01*
X126902Y102323D02*
X127000Y102420D01*
X126902Y107441D02*
X127317D01*
X131193Y103565D02*
X132535D01*
X133337Y102762D01*
X128145Y101006D02*
X129461Y102323D01*
X130778Y101081D02*
X132020Y102323D01*
X112790Y103565D02*
X114107Y104882D01*
X115424Y101081D02*
X116666Y102323D01*
X117908Y101006D02*
X119225Y102323D01*
X102500Y120179D02*
X102557Y120236D01*
X111548D01*
X105198Y122302D02*
X105947Y121553D01*
X112000D01*
X93500Y122302D02*
X105198D01*
X112865Y101081D02*
X114107Y102323D01*
X110565Y103565D02*
X112790D01*
X110151Y104565D02*
X111231D01*
X111548Y104882D01*
X110306Y101081D02*
X111548Y102323D01*
X198400Y8200D02*
Y14100D01*
X191800Y28200D02*
X198400D01*
X188400Y8200D02*
Y16600D01*
X178400Y8200D02*
Y19100D01*
X148400Y8200D02*
Y26600D01*
X138400Y8200D02*
Y29100D01*
X158400Y8200D02*
Y24100D01*
X114107Y68393D02*
Y99764D01*
Y68393D02*
X158400Y24100D01*
X112865Y67135D02*
Y101081D01*
X111548Y65952D02*
Y99764D01*
X110306Y64694D02*
Y101081D01*
X168400Y8200D02*
Y21600D01*
X115424Y69576D02*
Y101081D01*
X116666Y71334D02*
Y99764D01*
X117908Y72092D02*
Y101006D01*
X119225Y73275D02*
Y99764D01*
X132500Y42500D02*
X148400Y26600D01*
X132500Y42500D02*
Y47500D01*
X112865Y67135D02*
X132500Y47500D01*
X115424Y69576D02*
X135000Y50000D01*
X140000D01*
X168400Y21600D01*
X116666Y71334D02*
X135500Y52500D01*
X145000D01*
X178400Y19100D01*
X117908Y72092D02*
X135000Y55000D01*
X150000D01*
X188400Y16600D01*
X119225Y73275D02*
X135000Y57500D01*
X155000D01*
X198400Y14100D01*
X130000Y37500D02*
X138400Y29100D01*
X130000Y37500D02*
Y47500D01*
X111548Y65952D02*
X130000Y47500D01*
X110306Y64694D02*
X127500Y47500D01*
X108400Y8200D02*
Y17400D01*
X122500Y31500D01*
Y47500D01*
X118400Y8200D02*
Y20900D01*
X125000Y27500D01*
Y47500D01*
X127500Y9100D02*
X128400Y8200D01*
X127500Y9100D02*
Y47500D01*
X130778Y96722D02*
Y101081D01*
Y96722D02*
X189300Y38200D01*
X198400D01*
X186800Y48200D02*
X198400D01*
X138500Y96500D02*
X186800Y48200D01*
X132020Y117520D02*
Y117677D01*
X134580Y107441D02*
X136941D01*
X142500Y108256D02*
Y110000D01*
X124343Y102323D02*
Y103125D01*
X125585Y95085D02*
Y103640D01*
X124343Y104882D02*
X125585Y103640D01*
X127000Y102420D02*
Y105000D01*
X127317Y107441D02*
X131193Y103565D01*
X129828Y107808D02*
X132020Y110000D01*
X141258Y111242D02*
X142500Y110000D01*
X135000Y96500D02*
X138500D01*
X133337Y98163D02*
Y102762D01*
Y98163D02*
X135000Y96500D01*
X88500Y93180D02*
Y100057D01*
Y93180D02*
X93500Y88179D01*
X126902Y112559D02*
X128219Y111242D01*
X141258D01*
X121784Y104079D02*
Y104882D01*
Y104079D02*
X123026Y102837D01*
X122299Y106124D02*
X123026Y105396D01*
X121270Y106124D02*
X122299D01*
X123026Y104442D02*
Y105396D01*
X119000Y105000D02*
X120146D01*
X121270Y106124D01*
X123026Y104442D02*
X124343Y103125D01*
X112865Y106199D02*
X114107Y107441D01*
X116559D02*
X119225D01*
X108500Y105000D02*
X109699Y106199D01*
X112865D01*
X101000Y108000D02*
X108000D01*
X101000Y105000D02*
X108500D01*
X232Y-7D02*
Y253993D01*
X206232D01*
Y-7D02*
Y253993D01*
X232Y-7D02*
X206232D01*
D19*
X59228Y96179D02*
D03*
Y101180D02*
D03*
Y106179D02*
D03*
Y111179D02*
D03*
Y116180D02*
D03*
Y121179D02*
D03*
Y126180D02*
D03*
X37772Y96179D02*
D03*
Y101180D02*
D03*
Y106179D02*
D03*
Y111179D02*
D03*
Y116180D02*
D03*
Y121179D02*
D03*
Y126180D02*
D03*
D20*
X78500Y100057D02*
D03*
X83500D02*
D03*
X88500D02*
D03*
X93500D02*
D03*
X78500Y122302D02*
D03*
X83500D02*
D03*
X88500D02*
D03*
X93500D02*
D03*
D22*
X39243Y198000D02*
D03*
X36000D02*
D03*
D23*
X51500Y54500D02*
D03*
X44807D02*
D03*
D24*
X38000Y83346D02*
D03*
Y76653D02*
D03*
X78500Y81487D02*
D03*
Y88179D02*
D03*
X131500Y81653D02*
D03*
Y88346D02*
D03*
X164500Y134153D02*
D03*
Y140847D02*
D03*
X151000Y116268D02*
D03*
Y109575D02*
D03*
X93500Y88179D02*
D03*
Y81487D02*
D03*
X78500Y134179D02*
D03*
Y140872D02*
D03*
X93500Y134179D02*
D03*
Y140872D02*
D03*
X120000Y134153D02*
D03*
Y140847D02*
D03*
D25*
X149000Y63000D02*
D03*
X143488D02*
D03*
X68256Y67500D02*
D03*
X62744D02*
D03*
X94000Y157500D02*
D03*
X88488D02*
D03*
X142500Y124500D02*
D03*
X148012D02*
D03*
X178512Y107921D02*
D03*
X173000D02*
D03*
X178512Y117900D02*
D03*
X173000D02*
D03*
D26*
X142500Y108256D02*
D03*
Y102744D02*
D03*
X123000Y87756D02*
D03*
Y82244D02*
D03*
X103000Y87756D02*
D03*
Y82244D02*
D03*
X138000Y134744D02*
D03*
Y140256D02*
D03*
X111500Y134744D02*
D03*
Y140256D02*
D03*
X102500Y134744D02*
D03*
Y140256D02*
D03*
X59000Y135244D02*
D03*
Y140756D02*
D03*
X38000Y135244D02*
D03*
Y140756D02*
D03*
X147500Y134744D02*
D03*
Y140256D02*
D03*
X155500Y134744D02*
D03*
Y140256D02*
D03*
X129000Y134744D02*
D03*
Y140256D02*
D03*
D43*
X162500Y108000D02*
D03*
Y117842D02*
D03*
D44*
X134580Y122795D02*
D03*
Y120236D02*
D03*
Y117677D02*
D03*
Y115118D02*
D03*
Y112559D02*
D03*
Y110000D02*
D03*
Y107441D02*
D03*
Y104882D02*
D03*
Y102323D02*
D03*
Y99764D02*
D03*
X132020Y122795D02*
D03*
Y120236D02*
D03*
Y117677D02*
D03*
Y115118D02*
D03*
Y112559D02*
D03*
Y110000D02*
D03*
Y107441D02*
D03*
Y104882D02*
D03*
Y102323D02*
D03*
Y99764D02*
D03*
X129461Y122795D02*
D03*
Y120236D02*
D03*
Y112559D02*
D03*
Y110000D02*
D03*
Y102323D02*
D03*
Y99764D02*
D03*
X126902Y122795D02*
D03*
Y120236D02*
D03*
Y115118D02*
D03*
Y112559D02*
D03*
Y110000D02*
D03*
Y107441D02*
D03*
Y102323D02*
D03*
Y99764D02*
D03*
X124343Y122795D02*
D03*
Y120236D02*
D03*
Y117677D02*
D03*
Y115118D02*
D03*
Y107441D02*
D03*
Y104882D02*
D03*
Y102323D02*
D03*
Y99764D02*
D03*
X121784Y122795D02*
D03*
Y120236D02*
D03*
Y117677D02*
D03*
Y115118D02*
D03*
Y107441D02*
D03*
Y104882D02*
D03*
Y102323D02*
D03*
Y99764D02*
D03*
X119225Y122795D02*
D03*
Y120236D02*
D03*
Y115118D02*
D03*
Y112559D02*
D03*
Y110000D02*
D03*
Y107441D02*
D03*
Y102323D02*
D03*
Y99764D02*
D03*
X116666Y122795D02*
D03*
Y120236D02*
D03*
Y112559D02*
D03*
Y110000D02*
D03*
Y102323D02*
D03*
Y99764D02*
D03*
X114107Y122795D02*
D03*
Y120236D02*
D03*
Y117677D02*
D03*
Y115118D02*
D03*
Y112559D02*
D03*
Y110000D02*
D03*
Y107441D02*
D03*
Y104882D02*
D03*
Y102323D02*
D03*
Y99764D02*
D03*
X111548Y122795D02*
D03*
Y120236D02*
D03*
Y117677D02*
D03*
Y115118D02*
D03*
Y112559D02*
D03*
Y110000D02*
D03*
Y107441D02*
D03*
Y104882D02*
D03*
Y102323D02*
D03*
Y99764D02*
D03*
D45*
X189700Y178200D02*
X198400D01*
X187500Y176000D02*
X189700Y178200D01*
X187500Y170500D02*
Y176000D01*
Y170500D02*
X189800Y168200D01*
X198400D01*
D46*
X186000Y138000D02*
X196000Y148000D01*
X195800Y88200D02*
X198400D01*
X186000Y98000D02*
X195800Y88200D01*
X186000Y98000D02*
Y138000D01*
D47*
X196000Y148000D02*
X198200D01*
X189000D02*
X196000D01*
X198200D02*
X198400Y148200D01*
X181500Y155500D02*
X189000Y148000D01*
X177000Y155500D02*
X181500D01*
X120000Y133909D02*
X120346D01*
D48*
X146768Y120500D02*
X151000Y116268D01*
X139672Y120500D02*
X146768D01*
X139408Y120236D02*
X139672Y120500D01*
X134580Y120236D02*
X139408D01*
X134580Y115118D02*
X145882D01*
X145500Y134500D02*
X159256D01*
X144256Y140012D02*
X155500D01*
X133756Y134500D02*
X138000D01*
X121784Y122795D02*
Y126784D01*
X143000Y138756D02*
X144256Y140012D01*
X98256Y134744D02*
X102500D01*
X107244D02*
X111500D01*
X139000Y128000D02*
X145500Y134500D01*
X134666Y128000D02*
X139000D01*
X132548Y131000D02*
X136500D01*
X124343Y122795D02*
X132548Y131000D01*
X138000Y132500D02*
Y134500D01*
X136500Y131000D02*
X138000Y132500D01*
Y129500D02*
X143000Y134500D01*
X133607Y129500D02*
X138000D01*
X126902Y122795D02*
X133607Y129500D01*
X129461Y122795D02*
X134666Y128000D01*
X143000Y134500D02*
Y138756D01*
X111500Y131500D02*
Y134744D01*
Y131500D02*
X112500Y130500D01*
X115500D01*
X120500Y125500D01*
X102500Y131500D02*
Y134744D01*
Y131500D02*
X103500Y130500D01*
X109000D01*
X113500Y126000D01*
X116500D01*
X117908Y124592D01*
Y123592D02*
Y124592D01*
X115399Y113851D02*
Y116899D01*
X114107Y112559D02*
X115399Y113851D01*
Y116899D02*
X116500Y118000D01*
X85561Y115118D02*
X111548D01*
X83500Y117180D02*
X85561Y115118D01*
X78500Y105680D02*
X85379Y112559D01*
X111548D01*
X78500Y100057D02*
Y105680D01*
X83500Y100057D02*
Y105680D01*
X88500Y118180D02*
X89002Y117677D01*
X111548D01*
X78500Y134179D02*
X83500D01*
X88500Y118180D02*
Y122302D01*
X83500D02*
Y127180D01*
Y117180D02*
Y122302D01*
X154000Y113000D02*
X159000Y108000D01*
X162500D01*
X145882Y115118D02*
X148000Y113000D01*
X154000D01*
X151000Y116268D02*
X154268D01*
X155842Y117842D01*
X162500D01*
X172921Y108000D02*
X173000Y107921D01*
X159256Y134500D02*
X160000Y133756D01*
X164347D01*
X164500Y133909D01*
X83500Y105680D02*
X87821Y110000D01*
X111548D01*
X149000Y63000D02*
X153000D01*
X68256Y67500D02*
X72500D01*
X94000Y157500D02*
X98000D01*
D49*
X120000Y140602D02*
X128409D01*
D50*
X126500Y129500D02*
X129000Y132000D01*
Y134744D01*
X173200Y198200D02*
X198400D01*
X120000Y145000D02*
X173200Y198200D01*
X120000Y140847D02*
Y145000D01*
X8400Y198200D02*
X35800D01*
X36000Y198000D01*
X39243D02*
X42000D01*
X49000Y191000D01*
Y137000D02*
Y191000D01*
X78500Y76000D02*
Y81487D01*
X151000Y104500D02*
Y109575D01*
X37772Y90728D02*
Y96179D01*
X38000Y72000D02*
Y76653D01*
X78500Y76000D02*
X83000D01*
X109000Y50000D01*
X114663D01*
D51*
X169700Y208200D02*
X198400D01*
X115500Y154000D02*
X169700Y208200D01*
X115500Y138654D02*
Y154000D01*
Y138654D02*
X120000Y134153D01*
D52*
Y130569D02*
Y133909D01*
D53*
Y130569D02*
X121784Y128784D01*
D54*
X177000Y155500D02*
D03*
Y145500D02*
D03*
D55*
X98400Y38200D02*
D03*
X28400Y238200D02*
D03*
X178400D02*
D03*
D56*
X8400Y218200D02*
D03*
X198400D02*
D03*
D57*
X8400Y208200D02*
D03*
Y198200D02*
D03*
Y188200D02*
D03*
Y178200D02*
D03*
Y168200D02*
D03*
Y158200D02*
D03*
Y148200D02*
D03*
Y138200D02*
D03*
Y128200D02*
D03*
Y118200D02*
D03*
Y108200D02*
D03*
Y98200D02*
D03*
Y88200D02*
D03*
Y78200D02*
D03*
Y68200D02*
D03*
Y58200D02*
D03*
Y48200D02*
D03*
Y38200D02*
D03*
Y28200D02*
D03*
X198400Y208200D02*
D03*
Y198200D02*
D03*
Y188200D02*
D03*
Y178200D02*
D03*
Y168200D02*
D03*
Y158200D02*
D03*
Y148200D02*
D03*
Y138200D02*
D03*
Y128200D02*
D03*
Y118200D02*
D03*
Y108200D02*
D03*
Y98200D02*
D03*
Y88200D02*
D03*
Y78200D02*
D03*
Y68200D02*
D03*
Y58200D02*
D03*
Y48200D02*
D03*
Y38200D02*
D03*
Y28200D02*
D03*
D58*
X8400Y8200D02*
D03*
D59*
X18400D02*
D03*
X28400D02*
D03*
X38400D02*
D03*
X48400D02*
D03*
X58400D02*
D03*
X68400D02*
D03*
X78400D02*
D03*
X88400D02*
D03*
X98400D02*
D03*
X108400D02*
D03*
X118400D02*
D03*
X128400D02*
D03*
X138400D02*
D03*
X148400D02*
D03*
X158400D02*
D03*
X168400D02*
D03*
X178400D02*
D03*
X188400D02*
D03*
X198400D02*
D03*
D60*
X129500Y116000D02*
D03*
X140500Y118500D02*
D03*
X145000Y117500D02*
D03*
X84000Y27500D02*
D03*
X32500Y83000D02*
D03*
X19800Y58200D02*
D03*
X27500Y153100D02*
D03*
X68600Y153000D02*
D03*
X131500Y75800D02*
D03*
X127800Y72100D02*
D03*
X133400Y140300D02*
D03*
X106900D02*
D03*
X126500Y129500D02*
D03*
X111500Y147000D02*
D03*
Y152500D02*
D03*
X122000Y154000D02*
D03*
X126000Y146000D02*
D03*
X130000Y150000D02*
D03*
X134000Y154000D02*
D03*
X98256Y134744D02*
D03*
X107244D02*
D03*
X128000Y85500D02*
D03*
X121500Y95000D02*
D03*
Y110000D02*
D03*
X124500D02*
D03*
X116500Y118000D02*
D03*
X133756Y134500D02*
D03*
X88500Y106679D02*
D03*
X102500Y120179D02*
D03*
X83500Y127180D02*
D03*
Y134179D02*
D03*
X33180Y106179D02*
D03*
X49000Y137000D02*
D03*
X78500Y76000D02*
D03*
X136941Y107441D02*
D03*
X125585Y95085D02*
D03*
X91000Y57000D02*
D03*
X88500Y54500D02*
D03*
X85000D02*
D03*
X80000Y37500D02*
D03*
X127000Y105000D02*
D03*
X129828Y107808D02*
D03*
X151000Y104500D02*
D03*
X103000Y77500D02*
D03*
X72320Y88179D02*
D03*
X88013Y81487D02*
D03*
X89000Y140872D02*
D03*
X74128D02*
D03*
X63756Y140756D02*
D03*
X33244D02*
D03*
X72000Y119000D02*
D03*
X178512Y112988D02*
D03*
X152800Y124500D02*
D03*
X142500Y97700D02*
D03*
X146044Y108256D02*
D03*
X37772Y90728D02*
D03*
X38000Y72000D02*
D03*
X63756Y135244D02*
D03*
X33244D02*
D03*
X169346Y140602D02*
D03*
X98756Y87756D02*
D03*
X126000Y158000D02*
D03*
X130000Y162000D02*
D03*
X134000Y166000D02*
D03*
X138000Y170000D02*
D03*
X142000Y174000D02*
D03*
X146000Y178000D02*
D03*
X150000Y182000D02*
D03*
X154000Y186000D02*
D03*
X158000Y190000D02*
D03*
X162000Y194000D02*
D03*
X166000Y198000D02*
D03*
X170000Y202000D02*
D03*
X176000Y203000D02*
D03*
X182000D02*
D03*
X188000D02*
D03*
X174000Y194000D02*
D03*
X170000Y190000D02*
D03*
X166000Y186000D02*
D03*
X162000Y182000D02*
D03*
X158000Y178000D02*
D03*
X154000Y174000D02*
D03*
X150000Y170000D02*
D03*
X146000Y166000D02*
D03*
X142000Y162000D02*
D03*
X138000Y158000D02*
D03*
X157000Y202000D02*
D03*
X153000Y198000D02*
D03*
X149000Y194000D02*
D03*
X145000Y190000D02*
D03*
X141000Y186000D02*
D03*
X137000Y182000D02*
D03*
X133000Y178000D02*
D03*
X129000Y174000D02*
D03*
X125000Y170000D02*
D03*
X121000Y166000D02*
D03*
X117000Y162000D02*
D03*
X113000Y158000D02*
D03*
X161000Y206000D02*
D03*
X165000Y210000D02*
D03*
X180000Y194000D02*
D03*
X186000D02*
D03*
X170000Y213000D02*
D03*
X176000D02*
D03*
X182000D02*
D03*
X188000D02*
D03*
X119000Y105000D02*
D03*
X105500Y128000D02*
D03*
X77800Y60000D02*
D03*
X40000Y54500D02*
D03*
X116559Y107441D02*
D03*
X108000Y108000D02*
D03*
X101000D02*
D03*
Y105000D02*
D03*
X114663Y50000D02*
D03*
X53000Y77500D02*
D03*
X23000Y123500D02*
D03*
X139500Y63000D02*
D03*
X153000D02*
D03*
X58500Y67500D02*
D03*
X72500D02*
D03*
X98000Y157500D02*
D03*
X84500D02*
D03*
M02*
