G04*
G04 #@! TF.GenerationSoftware,Altium Limited,Altium Designer,18.0.12 (696)*
G04*
G04 Layer_Physical_Order=4*
G04 Layer_Color=16711680*
%FSLAX25Y25*%
%MOIN*%
G70*
G01*
G75*
%ADD13C,0.01000*%
%ADD15C,0.00800*%
%ADD16C,0.00500*%
%ADD50C,0.02000*%
%ADD54C,0.05906*%
%ADD55C,0.25000*%
%ADD56R,0.11000X0.06000*%
%ADD57O,0.11000X0.06000*%
%ADD58R,0.06000X0.11000*%
%ADD59O,0.06000X0.11000*%
%ADD60C,0.02400*%
D13*
X116500Y118000D02*
Y121000D01*
X8400Y178200D02*
X88480D01*
X102000Y164680D01*
Y135500D02*
Y164680D01*
Y135500D02*
X116500Y121000D01*
X77800Y60000D02*
X77900Y59900D01*
D15*
X120082Y116000D02*
X129500D01*
X118500Y114418D02*
X120082Y116000D01*
X118500Y108470D02*
Y114418D01*
X120100Y118100D02*
X130370D01*
X114000Y112000D02*
X120100Y118100D01*
X127000Y112000D02*
X128900Y113900D01*
X130370D01*
X131600Y115130D01*
Y116870D01*
X130370Y118100D02*
X131600Y116870D01*
X127000Y105000D02*
Y112000D01*
X137828Y115828D02*
X140500Y118500D01*
X137828Y114828D02*
Y115828D01*
X132000Y109000D02*
X137828Y114828D01*
X143000Y117500D02*
X145000D01*
X134000Y108500D02*
X143000Y117500D01*
X134000Y88000D02*
Y108500D01*
X84000Y27500D02*
X88500D01*
X93000Y23000D01*
X105000D02*
X113500Y31500D01*
X93000Y23000D02*
X105000D01*
X113500Y31500D02*
Y44500D01*
X108500Y49500D02*
X113500Y44500D01*
X108500Y49500D02*
Y56500D01*
X136941Y84941D01*
X129808Y94808D02*
Y107808D01*
X99200Y53200D02*
X134000Y88000D01*
X91700Y53200D02*
X99200D01*
X136941Y84941D02*
Y107441D01*
X132000Y93000D02*
Y109000D01*
X93500Y54500D02*
X132000Y93000D01*
X32500Y70900D02*
Y83000D01*
X19800Y58200D02*
X32500Y70900D01*
X91100Y138900D02*
X112000Y118000D01*
X91100Y138900D02*
Y141742D01*
X88500Y54500D02*
X93500D01*
X80000Y41500D02*
X91700Y53200D01*
X80000Y37500D02*
Y41500D01*
X92000Y57000D02*
X129808Y94808D01*
X91000Y57000D02*
X92000D01*
X60100Y59900D02*
X77900D01*
X121100Y103100D02*
Y105870D01*
X77900Y59900D02*
X121100Y103100D01*
X118500Y108470D02*
X121100Y105870D01*
X88500Y106679D02*
X102000Y120179D01*
X83500Y127180D02*
Y134179D01*
X31159Y108200D02*
X33180Y106179D01*
X8400Y108200D02*
X31159D01*
X85000Y54500D02*
X125585Y95085D01*
X42000Y78000D02*
X60100Y59900D01*
X42000Y78000D02*
Y106000D01*
X29800Y118200D02*
X42000Y106000D01*
X8400Y118200D02*
X29800D01*
X112000Y114000D02*
X114000Y112000D01*
X8400Y148200D02*
X77830D01*
X112000Y114000D02*
Y118000D01*
X8400Y158200D02*
X74642D01*
X91100Y141742D01*
X77900Y8700D02*
X78400Y8200D01*
X77900Y8700D02*
Y59900D01*
X116000Y102000D02*
X119000Y105000D01*
X110000Y102000D02*
X116000D01*
X77830Y148200D02*
X105500Y120530D01*
X108559Y107441D02*
X116559D01*
X105500Y106500D02*
X110000Y102000D01*
X105500Y106500D02*
Y120530D01*
X97000Y108000D02*
X101000D01*
X22200Y138200D02*
X29500Y145500D01*
X8400Y138200D02*
X22200D01*
X91500Y95500D02*
X101000Y105000D01*
X70500Y95500D02*
X91500D01*
X8400Y128200D02*
X31700D01*
X44000Y140500D01*
X51500D01*
X55500Y110500D02*
X70500Y95500D01*
X55500Y110500D02*
Y136500D01*
X51500Y140500D02*
X55500Y136500D01*
X88000Y99000D02*
X97000Y108000D01*
X74500Y99000D02*
X88000D01*
X59500Y114000D02*
X74500Y99000D01*
X29500Y145500D02*
X52000D01*
X59500Y138000D01*
Y114000D02*
Y138000D01*
D16*
X102000Y120179D02*
X102500D01*
X129808Y107808D02*
X129828D01*
X108000Y108000D02*
X108559Y107441D01*
X232Y-7D02*
Y253993D01*
X206232D01*
Y-7D02*
Y253993D01*
X232Y-7D02*
X206232D01*
D50*
X49000Y93500D02*
Y137000D01*
Y93500D02*
X66500Y76000D01*
X78500D01*
X114663Y50000D02*
X151000Y86337D01*
Y104500D01*
D54*
X177000Y155500D02*
D03*
Y145500D02*
D03*
D55*
X98400Y38200D02*
D03*
X28400Y238200D02*
D03*
X178400D02*
D03*
D56*
X8400Y218200D02*
D03*
X198400D02*
D03*
D57*
X8400Y208200D02*
D03*
Y198200D02*
D03*
Y188200D02*
D03*
Y178200D02*
D03*
Y168200D02*
D03*
Y158200D02*
D03*
Y148200D02*
D03*
Y138200D02*
D03*
Y128200D02*
D03*
Y118200D02*
D03*
Y108200D02*
D03*
Y98200D02*
D03*
Y88200D02*
D03*
Y78200D02*
D03*
Y68200D02*
D03*
Y58200D02*
D03*
Y48200D02*
D03*
Y38200D02*
D03*
Y28200D02*
D03*
X198400Y208200D02*
D03*
Y198200D02*
D03*
Y188200D02*
D03*
Y178200D02*
D03*
Y168200D02*
D03*
Y158200D02*
D03*
Y148200D02*
D03*
Y138200D02*
D03*
Y128200D02*
D03*
Y118200D02*
D03*
Y108200D02*
D03*
Y98200D02*
D03*
Y88200D02*
D03*
Y78200D02*
D03*
Y68200D02*
D03*
Y58200D02*
D03*
Y48200D02*
D03*
Y38200D02*
D03*
Y28200D02*
D03*
D58*
X8400Y8200D02*
D03*
D59*
X18400D02*
D03*
X28400D02*
D03*
X38400D02*
D03*
X48400D02*
D03*
X58400D02*
D03*
X68400D02*
D03*
X78400D02*
D03*
X88400D02*
D03*
X98400D02*
D03*
X108400D02*
D03*
X118400D02*
D03*
X128400D02*
D03*
X138400D02*
D03*
X148400D02*
D03*
X158400D02*
D03*
X168400D02*
D03*
X178400D02*
D03*
X188400D02*
D03*
X198400D02*
D03*
D60*
X129500Y116000D02*
D03*
X140500Y118500D02*
D03*
X145000Y117500D02*
D03*
X84000Y27500D02*
D03*
X32500Y83000D02*
D03*
X19800Y58200D02*
D03*
X27500Y153100D02*
D03*
X68600Y153000D02*
D03*
X131500Y75800D02*
D03*
X127800Y72100D02*
D03*
X133400Y140300D02*
D03*
X106900D02*
D03*
X126500Y129500D02*
D03*
X111500Y147000D02*
D03*
Y152500D02*
D03*
X122000Y154000D02*
D03*
X126000Y146000D02*
D03*
X130000Y150000D02*
D03*
X134000Y154000D02*
D03*
X98256Y134744D02*
D03*
X107244D02*
D03*
X128000Y85500D02*
D03*
X121500Y95000D02*
D03*
Y110000D02*
D03*
X124500D02*
D03*
X116500Y118000D02*
D03*
X133756Y134500D02*
D03*
X88500Y106679D02*
D03*
X102500Y120179D02*
D03*
X83500Y127180D02*
D03*
Y134179D02*
D03*
X33180Y106179D02*
D03*
X49000Y137000D02*
D03*
X78500Y76000D02*
D03*
X136941Y107441D02*
D03*
X125585Y95085D02*
D03*
X91000Y57000D02*
D03*
X88500Y54500D02*
D03*
X85000D02*
D03*
X80000Y37500D02*
D03*
X127000Y105000D02*
D03*
X129828Y107808D02*
D03*
X151000Y104500D02*
D03*
X103000Y77500D02*
D03*
X72320Y88179D02*
D03*
X88013Y81487D02*
D03*
X89000Y140872D02*
D03*
X74128D02*
D03*
X63756Y140756D02*
D03*
X33244D02*
D03*
X72000Y119000D02*
D03*
X178512Y112988D02*
D03*
X152800Y124500D02*
D03*
X142500Y97700D02*
D03*
X146044Y108256D02*
D03*
X37772Y90728D02*
D03*
X38000Y72000D02*
D03*
X63756Y135244D02*
D03*
X33244D02*
D03*
X169346Y140602D02*
D03*
X98756Y87756D02*
D03*
X126000Y158000D02*
D03*
X130000Y162000D02*
D03*
X134000Y166000D02*
D03*
X138000Y170000D02*
D03*
X142000Y174000D02*
D03*
X146000Y178000D02*
D03*
X150000Y182000D02*
D03*
X154000Y186000D02*
D03*
X158000Y190000D02*
D03*
X162000Y194000D02*
D03*
X166000Y198000D02*
D03*
X170000Y202000D02*
D03*
X176000Y203000D02*
D03*
X182000D02*
D03*
X188000D02*
D03*
X174000Y194000D02*
D03*
X170000Y190000D02*
D03*
X166000Y186000D02*
D03*
X162000Y182000D02*
D03*
X158000Y178000D02*
D03*
X154000Y174000D02*
D03*
X150000Y170000D02*
D03*
X146000Y166000D02*
D03*
X142000Y162000D02*
D03*
X138000Y158000D02*
D03*
X157000Y202000D02*
D03*
X153000Y198000D02*
D03*
X149000Y194000D02*
D03*
X145000Y190000D02*
D03*
X141000Y186000D02*
D03*
X137000Y182000D02*
D03*
X133000Y178000D02*
D03*
X129000Y174000D02*
D03*
X125000Y170000D02*
D03*
X121000Y166000D02*
D03*
X117000Y162000D02*
D03*
X113000Y158000D02*
D03*
X161000Y206000D02*
D03*
X165000Y210000D02*
D03*
X180000Y194000D02*
D03*
X186000D02*
D03*
X170000Y213000D02*
D03*
X176000D02*
D03*
X182000D02*
D03*
X188000D02*
D03*
X119000Y105000D02*
D03*
X105500Y128000D02*
D03*
X77800Y60000D02*
D03*
X40000Y54500D02*
D03*
X116559Y107441D02*
D03*
X108000Y108000D02*
D03*
X101000D02*
D03*
Y105000D02*
D03*
X114663Y50000D02*
D03*
X53000Y77500D02*
D03*
X23000Y123500D02*
D03*
X139500Y63000D02*
D03*
X153000D02*
D03*
X58500Y67500D02*
D03*
X72500D02*
D03*
X98000Y157500D02*
D03*
X84500D02*
D03*
M02*
