G04*
G04 #@! TF.GenerationSoftware,Altium Limited,Altium Designer,18.0.12 (696)*
G04*
G04 Layer_Color=32896*
%FSLAX25Y25*%
%MOIN*%
G70*
G01*
G75*
%ADD13C,0.01000*%
%ADD16C,0.00500*%
%ADD67C,0.01181*%
G36*
X73541Y92377D02*
X74016Y92320D01*
X74467Y92227D01*
X74895Y92100D01*
X75300Y91961D01*
X75670Y91799D01*
X76029Y91625D01*
X76341Y91452D01*
X76631Y91278D01*
X76885Y91105D01*
X77105Y90943D01*
X77290Y90804D01*
X77429Y90677D01*
X77533Y90584D01*
X77602Y90526D01*
X77626Y90503D01*
X77961Y90144D01*
X78250Y89763D01*
X78505Y89381D01*
X78713Y88999D01*
X78898Y88606D01*
X79049Y88235D01*
X79176Y87865D01*
X79280Y87518D01*
X79350Y87194D01*
X79407Y86893D01*
X79454Y86627D01*
X79477Y86396D01*
X79488Y86292D01*
X79500Y86199D01*
Y86130D01*
X79512Y86060D01*
Y86014D01*
Y85979D01*
Y85956D01*
Y85944D01*
X79488Y85459D01*
X79431Y84984D01*
X79338Y84533D01*
X79211Y84105D01*
X79072Y83700D01*
X78910Y83330D01*
X78748Y82983D01*
X78563Y82659D01*
X78389Y82381D01*
X78227Y82126D01*
X78065Y81907D01*
X77915Y81721D01*
X77799Y81583D01*
X77707Y81467D01*
X77649Y81409D01*
X77626Y81386D01*
X77267Y81050D01*
X76885Y80761D01*
X76503Y80507D01*
X76110Y80298D01*
X75728Y80113D01*
X75346Y79963D01*
X74976Y79835D01*
X74629Y79731D01*
X74305Y79662D01*
X74004Y79604D01*
X73738Y79558D01*
X73507Y79535D01*
X73403Y79523D01*
X73310Y79512D01*
X73241D01*
X73171Y79500D01*
X72812D01*
X72708Y79512D01*
X72523D01*
X72465Y79523D01*
X72408D01*
Y81479D01*
X72627Y81455D01*
X72743Y81444D01*
X72836D01*
X72928Y81432D01*
X73055D01*
X73403Y81444D01*
X73727Y81490D01*
X74039Y81559D01*
X74340Y81640D01*
X74617Y81733D01*
X74884Y81849D01*
X75126Y81964D01*
X75346Y82092D01*
X75555Y82219D01*
X75728Y82335D01*
X75879Y82450D01*
X76006Y82543D01*
X76110Y82635D01*
X76191Y82693D01*
X76237Y82740D01*
X76249Y82751D01*
X76480Y83006D01*
X76688Y83272D01*
X76862Y83538D01*
X77012Y83816D01*
X77140Y84082D01*
X77244Y84348D01*
X77336Y84602D01*
X77406Y84845D01*
X77452Y85077D01*
X77498Y85285D01*
X77522Y85470D01*
X77545Y85632D01*
X77556Y85759D01*
X77568Y85864D01*
Y85921D01*
Y85944D01*
X77556Y86292D01*
X77510Y86616D01*
X77441Y86940D01*
X77360Y87240D01*
X77267Y87518D01*
X77151Y87784D01*
X77036Y88027D01*
X76908Y88247D01*
X76781Y88444D01*
X76665Y88617D01*
X76550Y88779D01*
X76457Y88906D01*
X76364Y88999D01*
X76307Y89080D01*
X76260Y89126D01*
X76249Y89138D01*
X75994Y89369D01*
X75728Y89578D01*
X75462Y89751D01*
X75184Y89913D01*
X74918Y90040D01*
X74652Y90144D01*
X74398Y90237D01*
X74155Y90306D01*
X73923Y90353D01*
X73715Y90399D01*
X73530Y90434D01*
X73368Y90445D01*
X73241Y90457D01*
X73137Y90468D01*
X73055D01*
X72812Y90457D01*
X72708D01*
X72604Y90445D01*
X72523Y90434D01*
X72465D01*
X72419Y90422D01*
X72408D01*
Y92366D01*
X72627Y92389D01*
X72732D01*
X72836Y92400D01*
X73055D01*
X73541Y92377D01*
D02*
G37*
G36*
X62573D02*
X63047Y92320D01*
X63499Y92227D01*
X63927Y92100D01*
X64332Y91961D01*
X64702Y91799D01*
X65049Y91625D01*
X65373Y91452D01*
X65651Y91278D01*
X65905Y91105D01*
X66125Y90943D01*
X66310Y90804D01*
X66449Y90677D01*
X66565Y90584D01*
X66623Y90526D01*
X66646Y90503D01*
X66981Y90144D01*
X67270Y89763D01*
X67525Y89381D01*
X67733Y88999D01*
X67918Y88606D01*
X68069Y88235D01*
X68196Y87865D01*
X68300Y87518D01*
X68370Y87194D01*
X68427Y86893D01*
X68474Y86627D01*
X68497Y86396D01*
X68508Y86292D01*
X68520Y86199D01*
Y86130D01*
X68532Y86060D01*
Y86014D01*
Y85979D01*
Y85956D01*
Y85944D01*
X68508Y85459D01*
X68451Y84984D01*
X68358Y84533D01*
X68231Y84105D01*
X68092Y83700D01*
X67930Y83330D01*
X67768Y82983D01*
X67583Y82659D01*
X67409Y82381D01*
X67247Y82126D01*
X67085Y81907D01*
X66935Y81721D01*
X66819Y81583D01*
X66727Y81467D01*
X66669Y81409D01*
X66646Y81386D01*
X66287Y81050D01*
X65905Y80761D01*
X65523Y80507D01*
X65142Y80298D01*
X64748Y80113D01*
X64378Y79963D01*
X64008Y79835D01*
X63661Y79731D01*
X63337Y79662D01*
X63036Y79604D01*
X62770Y79558D01*
X62538Y79535D01*
X62434Y79523D01*
X62342Y79512D01*
X62272D01*
X62203Y79500D01*
X61844D01*
X61740Y79512D01*
X61555D01*
X61497Y79523D01*
X61439D01*
X61451Y81479D01*
X61671Y81455D01*
X61775Y81444D01*
X61879D01*
X61960Y81432D01*
X62087D01*
X62376Y81444D01*
X62666Y81479D01*
X62943Y81525D01*
X63198Y81583D01*
X63452Y81664D01*
X63684Y81745D01*
X63904Y81837D01*
X64100Y81930D01*
X64285Y82022D01*
X64447Y82115D01*
X64586Y82196D01*
X64702Y82277D01*
X64794Y82335D01*
X64864Y82381D01*
X64910Y82416D01*
X64922Y82427D01*
X65142Y82624D01*
X65350Y82821D01*
X65523Y83029D01*
X65685Y83249D01*
X65836Y83457D01*
X65963Y83677D01*
X66079Y83885D01*
X66171Y84082D01*
X66252Y84267D01*
X66322Y84440D01*
X66380Y84591D01*
X66426Y84730D01*
X66461Y84834D01*
X66484Y84915D01*
X66495Y84961D01*
Y84984D01*
X62723D01*
Y86916D01*
X66495D01*
X66426Y87206D01*
X66333Y87472D01*
X66229Y87738D01*
X66114Y87981D01*
X65986Y88201D01*
X65859Y88409D01*
X65720Y88606D01*
X65593Y88779D01*
X65466Y88941D01*
X65338Y89080D01*
X65234Y89196D01*
X65130Y89288D01*
X65049Y89369D01*
X64991Y89427D01*
X64945Y89462D01*
X64933Y89473D01*
X64690Y89647D01*
X64447Y89797D01*
X64205Y89936D01*
X63961Y90052D01*
X63718Y90144D01*
X63487Y90225D01*
X63256Y90295D01*
X63036Y90341D01*
X62839Y90387D01*
X62654Y90411D01*
X62492Y90434D01*
X62353Y90457D01*
X62238D01*
X62157Y90468D01*
X62087D01*
X61844Y90457D01*
X61740D01*
X61636Y90445D01*
X61555Y90434D01*
X61497D01*
X61451Y90422D01*
X61439D01*
Y92366D01*
X61578Y92377D01*
X61694Y92389D01*
X61809D01*
X61902Y92400D01*
X62087D01*
X62573Y92377D01*
D02*
G37*
G36*
X70198Y73573D02*
X70568Y73550D01*
X70927Y73515D01*
X71274Y73457D01*
X71621Y73400D01*
X71945Y73318D01*
X72593Y73145D01*
X73194Y72925D01*
X73761Y72682D01*
X74282Y72428D01*
X74525Y72300D01*
X74756Y72162D01*
X74976Y72034D01*
X75184Y71895D01*
X75381Y71768D01*
X75566Y71641D01*
X75740Y71514D01*
X75902Y71398D01*
X76041Y71282D01*
X76168Y71178D01*
X76284Y71086D01*
X76388Y71004D01*
X76480Y70924D01*
X76550Y70866D01*
X76608Y70808D01*
X76642Y70773D01*
X76665Y70750D01*
X76677Y70738D01*
X76932Y70472D01*
X77174Y70195D01*
X77394Y69917D01*
X77614Y69628D01*
X77799Y69339D01*
X77984Y69061D01*
X78158Y68760D01*
X78308Y68471D01*
X78447Y68181D01*
X78586Y67892D01*
X78806Y67325D01*
X79002Y66782D01*
X79141Y66261D01*
X79269Y65763D01*
X79315Y65532D01*
X79350Y65312D01*
X79384Y65115D01*
X79419Y64919D01*
X79442Y64734D01*
X79454Y64572D01*
X79465Y64421D01*
X79477Y64294D01*
X79488Y64178D01*
Y64074D01*
X79500Y64005D01*
Y63947D01*
Y63912D01*
Y63901D01*
X79488Y63530D01*
X79465Y63160D01*
X79431Y62801D01*
X79373Y62454D01*
X79315Y62107D01*
X79234Y61783D01*
X79060Y61135D01*
X78841Y60534D01*
X78609Y59967D01*
X78355Y59446D01*
X78216Y59203D01*
X78088Y58972D01*
X77961Y58752D01*
X77822Y58544D01*
X77695Y58347D01*
X77568Y58162D01*
X77452Y57988D01*
X77336Y57826D01*
X77221Y57687D01*
X77117Y57560D01*
X77024Y57445D01*
X76932Y57340D01*
X76862Y57248D01*
X76793Y57178D01*
X76746Y57121D01*
X76712Y57086D01*
X76688Y57063D01*
X76677Y57051D01*
X76411Y56797D01*
X76133Y56554D01*
X75855Y56322D01*
X75566Y56114D01*
X75277Y55917D01*
X74988Y55732D01*
X74699Y55570D01*
X74409Y55408D01*
X74120Y55269D01*
X73831Y55142D01*
X73264Y54911D01*
X72708Y54725D01*
X72188Y54575D01*
X71702Y54459D01*
X71470Y54402D01*
X71251Y54367D01*
X71042Y54332D01*
X70846Y54309D01*
X70661Y54274D01*
X70499Y54263D01*
X70348Y54251D01*
X70221Y54240D01*
X70105Y54228D01*
X70001D01*
X69932Y54216D01*
X69828D01*
X69457Y54228D01*
X69087Y54251D01*
X68728Y54286D01*
X68381Y54344D01*
X68046Y54402D01*
X67710Y54483D01*
X67074Y54656D01*
X66472Y54876D01*
X65905Y55119D01*
X65385Y55374D01*
X65142Y55501D01*
X64910Y55640D01*
X64690Y55767D01*
X64482Y55894D01*
X64285Y56033D01*
X64100Y56160D01*
X63927Y56276D01*
X63765Y56392D01*
X63626Y56507D01*
X63499Y56612D01*
X63383Y56704D01*
X63279Y56785D01*
X63186Y56866D01*
X63117Y56935D01*
X63059Y56982D01*
X63024Y57016D01*
X63001Y57039D01*
X62990Y57051D01*
X62735Y57317D01*
X62492Y57595D01*
X62261Y57873D01*
X62052Y58162D01*
X61856Y58451D01*
X61671Y58740D01*
X61497Y59030D01*
X61347Y59319D01*
X61196Y59608D01*
X61069Y59897D01*
X60838Y60464D01*
X60653Y61020D01*
X60502Y61540D01*
X60386Y62026D01*
X60329Y62258D01*
X60294Y62477D01*
X60259Y62686D01*
X60224Y62882D01*
X60201Y63068D01*
X60190Y63230D01*
X60178Y63380D01*
X60167Y63507D01*
X60155Y63623D01*
X60143Y63727D01*
Y63796D01*
Y63854D01*
Y63889D01*
Y63901D01*
X60155Y64271D01*
X60178Y64641D01*
X60213Y65000D01*
X60271Y65347D01*
X60329Y65682D01*
X60409Y66018D01*
X60583Y66654D01*
X60803Y67256D01*
X61046Y67823D01*
X61300Y68343D01*
X61428Y68586D01*
X61567Y68818D01*
X61694Y69038D01*
X61833Y69246D01*
X61960Y69443D01*
X62087Y69628D01*
X62214Y69801D01*
X62330Y69963D01*
X62446Y70102D01*
X62550Y70229D01*
X62643Y70345D01*
X62723Y70449D01*
X62805Y70542D01*
X62862Y70611D01*
X62920Y70669D01*
X62955Y70704D01*
X62978Y70727D01*
X62990Y70738D01*
X63256Y70993D01*
X63533Y71236D01*
X63811Y71467D01*
X64100Y71676D01*
X64390Y71872D01*
X64667Y72057D01*
X64968Y72231D01*
X65257Y72381D01*
X65547Y72532D01*
X65836Y72659D01*
X66403Y72890D01*
X66947Y73076D01*
X67467Y73226D01*
X67965Y73342D01*
X68196Y73400D01*
X68416Y73434D01*
X68613Y73469D01*
X68809Y73504D01*
X68994Y73527D01*
X69156Y73538D01*
X69307Y73550D01*
X69434Y73562D01*
X69550Y73573D01*
X69654Y73585D01*
X69828D01*
X70198Y73573D01*
D02*
G37*
G36*
X77000Y48222D02*
X73078Y44138D01*
X72962Y43038D01*
X72719Y40366D01*
X72522Y38445D01*
X76722Y34130D01*
X76433Y33852D01*
X72488Y37901D01*
X72256Y35414D01*
X72129D01*
Y34465D01*
X71250D01*
Y35414D01*
X68531D01*
X68427Y35229D01*
X68299Y35044D01*
X68103Y34835D01*
X67848Y34662D01*
X67559Y34569D01*
X67281Y34535D01*
X66992Y34546D01*
X66784Y34604D01*
X66541Y34708D01*
X66333Y34835D01*
X66171Y34997D01*
X66009Y35229D01*
X65893Y35483D01*
X65823Y35726D01*
X65800Y35923D01*
X65823Y36166D01*
X65858Y36351D01*
X65927Y36525D01*
X66032Y36721D01*
X66147Y36883D01*
X66309Y37034D01*
X66483Y37149D01*
X66645Y37230D01*
X66622Y37439D01*
X63162Y33852D01*
X62873Y34141D01*
X66587Y37982D01*
X66286Y41338D01*
X66078Y43767D01*
X64967D01*
Y45329D01*
X65256D01*
X62445Y48222D01*
X62734Y48500D01*
X65384Y45769D01*
Y45966D01*
X65326Y46012D01*
X65256Y46058D01*
X65187Y46128D01*
X65118Y46209D01*
X65083Y46313D01*
X65048Y46405D01*
X65037Y46521D01*
X65060Y46672D01*
X65095Y46753D01*
X65199Y46914D01*
X65314Y47019D01*
X65465Y47088D01*
X65627Y47111D01*
X65789Y47088D01*
X65927Y47030D01*
X66043Y46961D01*
X66101Y46891D01*
X66205Y46984D01*
X66379Y47100D01*
X66587Y47204D01*
X66888Y47319D01*
X67212Y47412D01*
X67536Y47481D01*
X67883Y47539D01*
X68160Y47574D01*
Y47921D01*
X70382D01*
Y47620D01*
X70556D01*
X70845Y47585D01*
X71146Y47551D01*
X71435Y47504D01*
Y47690D01*
X72395D01*
Y47238D01*
X72511Y47181D01*
X72661Y47111D01*
X72835Y47007D01*
X72974Y46914D01*
X73101Y46799D01*
X73194Y46718D01*
X73251Y46637D01*
X73298Y46544D01*
X73274Y46382D01*
X73830D01*
Y45676D01*
X73217D01*
X73124Y44762D01*
X76711Y48500D01*
X77000Y48222D01*
D02*
G37*
G36*
X76155Y30647D02*
Y30589D01*
Y30508D01*
Y30427D01*
Y30335D01*
Y30254D01*
Y30196D01*
Y30184D01*
Y30173D01*
Y29791D01*
Y29606D01*
Y29432D01*
Y29293D01*
Y29178D01*
Y29131D01*
Y29097D01*
Y29085D01*
Y29074D01*
Y28854D01*
Y28657D01*
Y28472D01*
Y28310D01*
Y28171D01*
Y28078D01*
Y28009D01*
Y27997D01*
Y27986D01*
Y27824D01*
Y27708D01*
Y27616D01*
Y27558D01*
Y27523D01*
Y27512D01*
Y27500D01*
X63509D01*
Y27523D01*
Y27581D01*
Y27650D01*
Y27743D01*
Y27836D01*
Y27905D01*
Y27963D01*
Y27986D01*
Y28368D01*
Y28553D01*
Y28715D01*
Y28865D01*
Y28969D01*
Y29016D01*
Y29050D01*
Y29062D01*
Y29074D01*
Y29293D01*
Y29502D01*
Y29687D01*
Y29849D01*
Y29987D01*
Y30092D01*
Y30149D01*
Y30173D01*
Y30265D01*
Y30335D01*
Y30462D01*
Y30555D01*
Y30612D01*
Y30647D01*
Y30659D01*
Y30670D01*
X76155D01*
Y30647D01*
D02*
G37*
%LPC*%
G36*
X75624Y70403D02*
X75618Y70397D01*
X75740Y70287D01*
X75983Y70056D01*
X75624Y70403D01*
D02*
G37*
G36*
X75983Y70056D02*
X75995Y70043D01*
X76006Y70021D01*
X76041Y69986D01*
X76087Y69940D01*
X76145Y69871D01*
X76214Y69801D01*
X76295Y69709D01*
X76307Y69720D01*
X75995Y70043D01*
X75994Y70044D01*
X75983Y70056D01*
D02*
G37*
G36*
X69990Y72613D02*
X69828D01*
X69492Y72601D01*
X69168Y72590D01*
X68844Y72555D01*
X68532Y72509D01*
X67918Y72381D01*
X67340Y72219D01*
X66796Y72023D01*
X66299Y71803D01*
X65824Y71571D01*
X65396Y71340D01*
X65014Y71097D01*
X64829Y70981D01*
X64667Y70866D01*
X64517Y70750D01*
X64378Y70646D01*
X64239Y70553D01*
X64123Y70461D01*
X64019Y70368D01*
X63927Y70287D01*
X63857Y70229D01*
X63788Y70171D01*
X63742Y70114D01*
X63707Y70091D01*
X63684Y70067D01*
X63672Y70056D01*
X63441Y69813D01*
X63221Y69570D01*
X63013Y69315D01*
X62828Y69061D01*
X62654Y68806D01*
X62492Y68540D01*
X62330Y68286D01*
X62191Y68019D01*
X61948Y67499D01*
X61740Y66990D01*
X61567Y66492D01*
X61439Y66029D01*
X61323Y65578D01*
X61254Y65173D01*
X61219Y64988D01*
X61196Y64815D01*
X61173Y64653D01*
X61150Y64502D01*
X61138Y64375D01*
X61127Y64248D01*
Y64144D01*
X61115Y64062D01*
Y63993D01*
Y63947D01*
Y63912D01*
Y63901D01*
X61127Y63565D01*
X61138Y63241D01*
X61173Y62917D01*
X61219Y62605D01*
X61347Y61992D01*
X61509Y61413D01*
X61705Y60869D01*
X61925Y60360D01*
X62157Y59897D01*
X62388Y59469D01*
X62631Y59076D01*
X62747Y58902D01*
X62862Y58729D01*
X62978Y58578D01*
X63082Y58439D01*
X63175Y58312D01*
X63267Y58185D01*
X63333Y58112D01*
X66009Y60788D01*
X65870Y60881D01*
X65743Y60973D01*
X65697Y61020D01*
X65662Y61054D01*
X65639Y61066D01*
X65628Y61077D01*
X65489Y61216D01*
X65373Y61355D01*
X65269Y61506D01*
X65188Y61668D01*
X65107Y61818D01*
X65049Y61968D01*
X64956Y62269D01*
X64922Y62408D01*
X64899Y62524D01*
X64887Y62639D01*
X64876Y62744D01*
X64864Y62813D01*
Y62882D01*
Y62917D01*
Y62929D01*
Y63114D01*
X64887Y63287D01*
X64945Y63588D01*
X65026Y63866D01*
X65061Y63981D01*
X65107Y64086D01*
X65153Y64178D01*
X65200Y64259D01*
X65246Y64329D01*
X65280Y64386D01*
X65315Y64433D01*
X65338Y64468D01*
X65350Y64479D01*
X65361Y64491D01*
X65454Y64595D01*
X65558Y64687D01*
X65651Y64757D01*
X65755Y64826D01*
X65952Y64930D01*
X66125Y65000D01*
X66287Y65034D01*
X66403Y65058D01*
X66449Y65069D01*
X66518D01*
X66657Y65058D01*
X66785Y65034D01*
X66912Y64988D01*
X67039Y64930D01*
X67270Y64791D01*
X67479Y64630D01*
X67641Y64468D01*
X67710Y64398D01*
X67768Y64329D01*
X67814Y64271D01*
X67849Y64224D01*
X67872Y64201D01*
X67884Y64190D01*
Y67325D01*
X68092D01*
X69388Y66793D01*
X69318Y66631D01*
X69191Y66677D01*
X69087Y66689D01*
X69018Y66701D01*
X68994D01*
X68914Y66689D01*
X68856Y66677D01*
X68809Y66654D01*
X68798Y66643D01*
X68752Y66573D01*
X68717Y66504D01*
X68705Y66434D01*
X68694Y66423D01*
Y66411D01*
X68682Y66377D01*
Y66319D01*
X68670Y66203D01*
Y66053D01*
X68659Y65891D01*
Y65752D01*
Y65624D01*
Y65578D01*
Y65544D01*
Y65520D01*
Y65509D01*
Y63438D01*
X69804Y64595D01*
X69747Y64815D01*
X69723Y64930D01*
X69712Y65023D01*
X69700Y65115D01*
Y65185D01*
Y65231D01*
Y65243D01*
X69712Y65451D01*
X69758Y65636D01*
X69804Y65810D01*
X69874Y65948D01*
X69932Y66076D01*
X69990Y66157D01*
X70036Y66215D01*
X70047Y66238D01*
X70186Y66388D01*
X70325Y66515D01*
X70464Y66619D01*
X70591Y66701D01*
X70707Y66758D01*
X70799Y66805D01*
X70857Y66828D01*
X70880Y66839D01*
X71089Y66897D01*
X71308Y66944D01*
X71528Y66967D01*
X71748Y66990D01*
X71945Y67001D01*
X72026Y67013D01*
X72234D01*
X75618Y70397D01*
X75497Y70507D01*
X75242Y70715D01*
X74988Y70900D01*
X74722Y71074D01*
X74467Y71236D01*
X74201Y71398D01*
X73946Y71537D01*
X73426Y71780D01*
X72917Y71988D01*
X72419Y72162D01*
X71945Y72289D01*
X71505Y72404D01*
X71100Y72474D01*
X70915Y72509D01*
X70741Y72532D01*
X70579Y72555D01*
X70429Y72578D01*
X70290Y72590D01*
X70175Y72601D01*
X70070D01*
X69990Y72613D01*
D02*
G37*
G36*
X71817Y66596D02*
X71679Y66550D01*
X71551Y66504D01*
X71505Y66481D01*
X71470Y66469D01*
X71447Y66446D01*
X71436D01*
X71332Y66377D01*
X71227Y66295D01*
X71147Y66203D01*
X71077Y66122D01*
X71019Y66041D01*
X70985Y65972D01*
X70961Y65925D01*
X70950Y65914D01*
X70892Y65786D01*
X70857Y65706D01*
X70846Y65648D01*
X70834Y65624D01*
X71817Y66596D01*
D02*
G37*
G36*
X72766Y66168D02*
X70973Y64386D01*
X71031Y64294D01*
X71089Y64224D01*
X71123Y64178D01*
X71135Y64167D01*
X71274Y64039D01*
X71424Y63935D01*
X71563Y63866D01*
X71690Y63820D01*
X71806Y63796D01*
X71899Y63785D01*
X71956Y63773D01*
X71979D01*
X72084Y63785D01*
X72199Y63796D01*
X72246D01*
X72280Y63808D01*
X72315D01*
X72465Y63820D01*
X72616Y63843D01*
X72674Y63854D01*
X72720Y63866D01*
X72755Y63877D01*
X72766D01*
Y66168D01*
D02*
G37*
G36*
X66981Y64386D02*
X66889D01*
X66715Y64363D01*
X66565Y64317D01*
X66426Y64248D01*
X66299Y64167D01*
X66194Y64086D01*
X66125Y64016D01*
X66067Y63970D01*
X66056Y63947D01*
X65928Y63762D01*
X65836Y63553D01*
X65766Y63345D01*
X65720Y63137D01*
X65697Y62952D01*
X65685Y62871D01*
X65674Y62801D01*
Y62744D01*
Y62697D01*
Y62674D01*
Y62663D01*
X65685Y62350D01*
X65732Y62072D01*
X65790Y61830D01*
X65859Y61644D01*
X65940Y61494D01*
X65998Y61390D01*
X66044Y61320D01*
X66056Y61297D01*
X66125Y61193D01*
X66194Y61124D01*
X66252Y61066D01*
X66264Y61054D01*
X66276D01*
X67884Y62651D01*
Y63889D01*
X67768Y63993D01*
X67676Y64074D01*
X67583Y64132D01*
X67514Y64190D01*
X67456Y64224D01*
X67421Y64248D01*
X67398Y64271D01*
X67386D01*
X67201Y64340D01*
X67120Y64363D01*
X67039Y64375D01*
X66981Y64386D01*
D02*
G37*
G36*
X76295Y69709D02*
X73599Y67013D01*
X74583D01*
Y66839D01*
X74340D01*
X74212Y66828D01*
X74108Y66805D01*
X74004Y66770D01*
X73935Y66735D01*
X73877Y66701D01*
X73831Y66666D01*
X73808Y66643D01*
X73796Y66631D01*
X73750Y66562D01*
X73727Y66457D01*
X73703Y66330D01*
X73680Y66203D01*
Y66076D01*
X73669Y65983D01*
Y65902D01*
Y65891D01*
Y65879D01*
Y61748D01*
Y61563D01*
X73680Y61401D01*
X73692Y61286D01*
X73715Y61193D01*
X73727Y61124D01*
X73750Y61077D01*
X73761Y61054D01*
Y61043D01*
X73842Y60962D01*
X73935Y60892D01*
X74027Y60846D01*
X74120Y60823D01*
X74201Y60800D01*
X74270Y60788D01*
X74583D01*
Y60603D01*
X71841D01*
Y60788D01*
X72084D01*
X72211Y60800D01*
X72315Y60823D01*
X72408Y60846D01*
X72489Y60892D01*
X72546Y60927D01*
X72593Y60950D01*
X72616Y60973D01*
X72627Y60985D01*
X72674Y61066D01*
X72708Y61170D01*
X72732Y61297D01*
X72743Y61425D01*
X72755Y61552D01*
X72766Y61656D01*
Y61725D01*
Y61737D01*
Y61748D01*
Y63600D01*
X72639Y63577D01*
X72523Y63553D01*
X72431Y63542D01*
X72350Y63530D01*
X72280Y63519D01*
X72234Y63507D01*
X72188D01*
X71991Y63484D01*
X71899D01*
X71829Y63472D01*
X71679D01*
X71401Y63484D01*
X71147Y63530D01*
X70927Y63588D01*
X70741Y63646D01*
X70603Y63715D01*
X70499Y63762D01*
X70429Y63808D01*
X70406Y63820D01*
X68659Y62072D01*
Y61020D01*
X68508Y60927D01*
X68358Y60846D01*
X68231Y60777D01*
X68103Y60719D01*
X68011Y60672D01*
X67930Y60638D01*
X67872Y60626D01*
X67861Y60615D01*
X67722Y60568D01*
X67594Y60534D01*
X67456Y60510D01*
X67340Y60499D01*
X67247Y60487D01*
X67166Y60476D01*
X67062D01*
X64008Y57421D01*
X63661Y57745D01*
X63634Y57774D01*
X63614Y57803D01*
X63583Y57828D01*
X63634Y57774D01*
X63638Y57768D01*
X63661Y57745D01*
X63672Y57734D01*
X63915Y57502D01*
X64158Y57283D01*
X64413Y57086D01*
X64667Y56889D01*
X64922Y56716D01*
X65188Y56554D01*
X65442Y56403D01*
X65709Y56264D01*
X66229Y56021D01*
X66738Y55813D01*
X67236Y55640D01*
X67699Y55512D01*
X68150Y55397D01*
X68555Y55327D01*
X68740Y55292D01*
X68914Y55269D01*
X69075Y55246D01*
X69226Y55223D01*
X69353Y55212D01*
X69480Y55200D01*
X69585D01*
X69665Y55188D01*
X69828D01*
X70163Y55200D01*
X70487Y55223D01*
X70811Y55246D01*
X71123Y55292D01*
X71737Y55420D01*
X72303Y55582D01*
X72847Y55778D01*
X73356Y55998D01*
X73831Y56230D01*
X74259Y56461D01*
X74641Y56704D01*
X74814Y56820D01*
X74988Y56924D01*
X75138Y57039D01*
X75277Y57144D01*
X75404Y57248D01*
X75532Y57340D01*
X75636Y57421D01*
X75728Y57502D01*
X75798Y57572D01*
X75867Y57630D01*
X75913Y57676D01*
X75948Y57711D01*
X75971Y57722D01*
X75983Y57734D01*
X76214Y57977D01*
X76434Y58220D01*
X76631Y58474D01*
X76827Y58729D01*
X77001Y58995D01*
X77163Y59249D01*
X77325Y59516D01*
X77464Y59782D01*
X77707Y60302D01*
X77915Y60811D01*
X78088Y61309D01*
X78216Y61772D01*
X78320Y62223D01*
X78401Y62628D01*
X78436Y62813D01*
X78459Y62986D01*
X78482Y63148D01*
X78505Y63299D01*
X78517Y63426D01*
X78528Y63553D01*
Y63658D01*
X78540Y63739D01*
Y63808D01*
Y63854D01*
Y63889D01*
Y63901D01*
X78528Y64236D01*
X78505Y64560D01*
X78482Y64884D01*
X78424Y65196D01*
X78308Y65810D01*
X78135Y66388D01*
X77950Y66932D01*
X77730Y67429D01*
X77498Y67904D01*
X77255Y68332D01*
X77024Y68714D01*
X76908Y68899D01*
X76793Y69061D01*
X76677Y69211D01*
X76573Y69350D01*
X76480Y69489D01*
X76376Y69605D01*
X76295Y69709D01*
D02*
G37*
G36*
X63333Y58112D02*
X63325Y58104D01*
X63502Y57915D01*
X63499Y57919D01*
X63441Y57988D01*
X63360Y58081D01*
X63333Y58112D01*
D02*
G37*
G36*
X63502Y57915D02*
X63556Y57849D01*
X63583Y57828D01*
X63502Y57915D01*
D02*
G37*
G36*
X69965Y47528D02*
X68554D01*
Y47296D01*
X69965D01*
Y47528D01*
D02*
G37*
G36*
X70382Y47204D02*
Y46891D01*
X68160D01*
Y47157D01*
X67698Y47088D01*
X67281Y46984D01*
X66934Y46891D01*
X66656Y46764D01*
X66437Y46637D01*
X66275Y46486D01*
Y46382D01*
X71435D01*
Y47065D01*
X71122Y47123D01*
X70775Y47169D01*
X70382Y47204D01*
D02*
G37*
G36*
X72002Y47296D02*
X71840D01*
Y46764D01*
X71990D01*
X72002Y47296D01*
D02*
G37*
G36*
X72395Y46776D02*
Y46382D01*
X72869D01*
X72881Y46452D01*
X72765Y46567D01*
X72615Y46672D01*
X72395Y46776D01*
D02*
G37*
G36*
X65684Y46706D02*
X65650D01*
X65580Y46695D01*
X65534Y46672D01*
X65488Y46648D01*
X65465Y46614D01*
X65442Y46544D01*
Y46521D01*
Y46510D01*
X65453Y46440D01*
X65476Y46394D01*
X65511Y46359D01*
X65546Y46336D01*
X65615Y46313D01*
X65650D01*
X65719Y46324D01*
X65766Y46347D01*
X65800Y46371D01*
X65823Y46417D01*
X65847Y46475D01*
Y46498D01*
Y46510D01*
X65835Y46579D01*
X65812Y46625D01*
X65789Y46660D01*
X65742Y46683D01*
X65684Y46706D01*
D02*
G37*
G36*
X66147Y44936D02*
X65372D01*
Y44172D01*
X66147D01*
Y44936D01*
D02*
G37*
G36*
X70023Y43189D02*
X67941D01*
Y43062D01*
X70023D01*
Y43189D01*
D02*
G37*
G36*
X72812Y45676D02*
X66333D01*
X66367Y45329D01*
X66541D01*
Y44589D01*
X67513Y43594D01*
X70428D01*
Y42668D01*
X68415D01*
X69757Y41280D01*
X72684Y44323D01*
X72812Y45676D01*
D02*
G37*
G36*
X72627Y43675D02*
X70035Y40991D01*
X72164Y38804D01*
X72627Y43675D01*
D02*
G37*
G36*
X66541Y44010D02*
Y43767D01*
X66494D01*
X66957Y38376D01*
X69480Y40991D01*
X67848Y42668D01*
X67513D01*
Y43004D01*
X66541Y44010D01*
D02*
G37*
G36*
X69757Y40701D02*
X67004Y37844D01*
X67050Y37346D01*
X67235Y37358D01*
X67443Y37346D01*
X67698Y37277D01*
X67941Y37149D01*
X68126Y37022D01*
X68299Y36849D01*
X68450Y36629D01*
X68577Y36351D01*
X68635Y36039D01*
X68623Y35830D01*
X71886D01*
X72118Y38272D01*
X69757Y40701D01*
D02*
G37*
G36*
X67293Y36652D02*
X67223D01*
X67096Y36640D01*
X66992Y36617D01*
X66899Y36582D01*
X66818Y36548D01*
X66749Y36490D01*
X66703Y36432D01*
X66610Y36305D01*
X66564Y36166D01*
X66541Y36062D01*
X66529Y36015D01*
Y35981D01*
Y35958D01*
Y35946D01*
X66541Y35819D01*
X66564Y35715D01*
X66599Y35622D01*
X66633Y35541D01*
X66691Y35483D01*
X66749Y35425D01*
X66876Y35344D01*
X67004Y35287D01*
X67119Y35263D01*
X67154Y35252D01*
X67223D01*
X67351Y35263D01*
X67455Y35287D01*
X67547Y35321D01*
X67628Y35356D01*
X67698Y35414D01*
X67756Y35472D01*
X67837Y35599D01*
X67894Y35726D01*
X67918Y35842D01*
X67929Y35877D01*
Y35911D01*
Y35934D01*
Y35946D01*
X67918Y36073D01*
X67894Y36178D01*
X67860Y36270D01*
X67813Y36351D01*
X67767Y36421D01*
X67709Y36478D01*
X67571Y36559D01*
X67443Y36617D01*
X67327Y36640D01*
X67293Y36652D01*
D02*
G37*
G36*
X71736Y35425D02*
X71643D01*
Y34859D01*
X71736D01*
Y35425D01*
D02*
G37*
%LPD*%
G36*
X67385Y36397D02*
X67501Y36351D01*
X67582Y36270D01*
X67640Y36189D01*
X67675Y36097D01*
X67686Y36015D01*
X67698Y35969D01*
Y35946D01*
X67675Y35796D01*
X67628Y35680D01*
X67547Y35599D01*
X67455Y35541D01*
X67374Y35506D01*
X67293Y35495D01*
X67247Y35483D01*
X67223D01*
X67073Y35506D01*
X66957Y35553D01*
X66876Y35634D01*
X66818Y35715D01*
X66784Y35796D01*
X66772Y35877D01*
X66761Y35923D01*
Y35946D01*
X66784Y36108D01*
X66830Y36224D01*
X66911Y36305D01*
X66992Y36363D01*
X67073Y36397D01*
X67154Y36409D01*
X67200Y36421D01*
X67223D01*
X67385Y36397D01*
D02*
G37*
%LPC*%
G36*
X67235Y36015D02*
X67223D01*
X67177Y36004D01*
X67165Y35981D01*
X67154Y35958D01*
Y35946D01*
X67165Y35911D01*
X67189Y35888D01*
X67212Y35877D01*
X67223D01*
X67258Y35888D01*
X67281Y35911D01*
X67293Y35934D01*
Y35946D01*
X67281Y35992D01*
X67258Y36004D01*
X67235Y36015D01*
D02*
G37*
%LPD*%
D13*
X136108Y201001D02*
Y202501D01*
Y201751D01*
X139856D01*
X140606Y202501D01*
Y203250D01*
X139856Y204000D01*
X140606Y199501D02*
X136108D01*
Y197252D01*
X136857Y196502D01*
X138357D01*
X139107Y197252D01*
Y199501D01*
X140606Y195003D02*
Y193503D01*
Y194253D01*
X136108D01*
X136857Y195003D01*
Y183756D02*
X136108Y184506D01*
Y186006D01*
X136857Y186756D01*
X139856D01*
X140606Y186006D01*
Y184506D01*
X139856Y183756D01*
X140606Y181507D02*
Y180008D01*
X139856Y179258D01*
X138357D01*
X137607Y180008D01*
Y181507D01*
X138357Y182257D01*
X139856D01*
X140606Y181507D01*
Y177759D02*
X137607D01*
Y175509D01*
X138357Y174759D01*
X140606D01*
Y173260D02*
X137607D01*
Y171011D01*
X138357Y170261D01*
X140606D01*
Y166512D02*
Y168012D01*
X139856Y168761D01*
X138357D01*
X137607Y168012D01*
Y166512D01*
X138357Y165762D01*
X139107D01*
Y168761D01*
X137607Y161264D02*
Y163513D01*
X138357Y164263D01*
X139856D01*
X140606Y163513D01*
Y161264D01*
X136857Y159014D02*
X137607D01*
Y159764D01*
Y158265D01*
Y159014D01*
X139856D01*
X140606Y158265D01*
Y156016D02*
Y153766D01*
X139856Y153016D01*
X139107Y153766D01*
Y155266D01*
X138357Y156016D01*
X137607Y155266D01*
Y153016D01*
X136108Y147018D02*
X139107D01*
X140606Y145519D01*
X139107Y144019D01*
X136108D01*
Y139521D02*
Y142520D01*
X138357D01*
Y141020D01*
Y142520D01*
X140606D01*
X137607Y138021D02*
X139856D01*
X140606Y137271D01*
Y135022D01*
X137607D01*
X140606Y133523D02*
Y131273D01*
X139856Y130524D01*
X139107Y131273D01*
Y132773D01*
X138357Y133523D01*
X137607Y132773D01*
Y130524D01*
X140606Y126775D02*
Y128274D01*
X139856Y129024D01*
X138357D01*
X137607Y128274D01*
Y126775D01*
X138357Y126025D01*
X139107D01*
Y129024D01*
X140606Y124526D02*
X137607Y121527D01*
X136108Y120027D02*
X139107D01*
X140606Y118527D01*
X139107Y117028D01*
X136108D01*
X140606Y115529D02*
X136108D01*
Y113279D01*
X136857Y112530D01*
X138357D01*
X139107Y113279D01*
Y115529D01*
Y114029D02*
X140606Y112530D01*
X136108Y108031D02*
Y111030D01*
X140606D01*
Y108031D01*
X138357Y111030D02*
Y109530D01*
X136108Y103532D02*
Y106531D01*
X138357D01*
Y105032D01*
Y106531D01*
X140606D01*
X136857Y96785D02*
X137607D01*
Y97534D01*
Y96035D01*
Y96785D01*
X139856D01*
X140606Y96035D01*
Y93036D02*
Y91536D01*
X139856Y90786D01*
X138357D01*
X137607Y91536D01*
Y93036D01*
X138357Y93786D01*
X139856D01*
X140606Y93036D01*
X136857Y84788D02*
X136108Y84039D01*
Y82539D01*
X136857Y81789D01*
X137607D01*
X138357Y82539D01*
Y83289D01*
Y82539D01*
X139107Y81789D01*
X139856D01*
X140606Y82539D01*
Y84039D01*
X139856Y84788D01*
X140606Y80290D02*
X139856D01*
Y79540D01*
X140606D01*
Y80290D01*
X136857Y76541D02*
X136108Y75791D01*
Y74292D01*
X136857Y73542D01*
X137607D01*
X138357Y74292D01*
Y75042D01*
Y74292D01*
X139107Y73542D01*
X139856D01*
X140606Y74292D01*
Y75791D01*
X139856Y76541D01*
X136108Y72043D02*
X139107D01*
X140606Y70543D01*
X139107Y69043D01*
X136108D01*
X140606Y67544D02*
X139856D01*
Y66794D01*
X140606D01*
Y67544D01*
X151704Y201001D02*
Y202501D01*
Y201751D01*
X155453D01*
X156203Y202501D01*
Y203250D01*
X155453Y204000D01*
X153204Y199501D02*
X155453D01*
X156203Y198752D01*
Y196502D01*
X153204D01*
X156203Y195003D02*
X153204D01*
Y194253D01*
X153953Y193503D01*
X156203D01*
X153953D01*
X153204Y192754D01*
X153953Y192004D01*
X156203D01*
X157702Y190504D02*
X153204D01*
Y188255D01*
X153953Y187505D01*
X155453D01*
X156203Y188255D01*
Y190504D01*
Y183756D02*
Y185256D01*
X155453Y186006D01*
X153953D01*
X153204Y185256D01*
Y183756D01*
X153953Y183007D01*
X154703D01*
Y186006D01*
X153204Y181507D02*
X156203D01*
X154703D01*
X153953Y180757D01*
X153204Y180008D01*
Y179258D01*
X151704Y172510D02*
X154703D01*
X156203Y171011D01*
X154703Y169511D01*
X151704D01*
Y165013D02*
Y168012D01*
X153953D01*
Y166512D01*
Y168012D01*
X156203D01*
X153204Y163513D02*
X155453D01*
X156203Y162763D01*
Y160514D01*
X153204D01*
X156203Y159014D02*
Y156765D01*
X155453Y156016D01*
X154703Y156765D01*
Y158265D01*
X153953Y159014D01*
X153204Y158265D01*
Y156016D01*
X156203Y152267D02*
Y153766D01*
X155453Y154516D01*
X153953D01*
X153204Y153766D01*
Y152267D01*
X153953Y151517D01*
X154703D01*
Y154516D01*
X152454Y144769D02*
X153204D01*
Y145519D01*
Y144019D01*
Y144769D01*
X155453D01*
X156203Y144019D01*
Y141020D02*
Y139521D01*
X155453Y138771D01*
X153953D01*
X153204Y139521D01*
Y141020D01*
X153953Y141770D01*
X155453D01*
X156203Y141020D01*
Y132773D02*
Y131273D01*
Y132023D01*
X151704D01*
X152454Y132773D01*
X156203Y129024D02*
X155453D01*
Y128274D01*
X156203D01*
Y129024D01*
X151704Y122276D02*
X152454Y123776D01*
X153953Y125275D01*
X155453D01*
X156203Y124526D01*
Y123026D01*
X155453Y122276D01*
X154703D01*
X153953Y123026D01*
Y125275D01*
X152454Y120777D02*
X151704Y120027D01*
Y118528D01*
X152454Y117778D01*
X155453D01*
X156203Y118528D01*
Y120027D01*
X155453Y120777D01*
X152454D01*
X151704Y116278D02*
X154703D01*
X156203Y114779D01*
X154703Y113279D01*
X151704D01*
X156203Y105782D02*
X154703Y107281D01*
X153204D01*
X151704Y105782D01*
X153204Y103532D02*
X155453D01*
X156203Y102783D01*
Y100533D01*
X153204D01*
X156203Y99034D02*
Y96785D01*
X155453Y96035D01*
X154703Y96785D01*
Y98284D01*
X153953Y99034D01*
X153204Y98284D01*
Y96035D01*
X156203Y92286D02*
Y93786D01*
X155453Y94535D01*
X153953D01*
X153204Y93786D01*
Y92286D01*
X153953Y91536D01*
X154703D01*
Y94535D01*
X151704Y85538D02*
X154703D01*
X156203Y84039D01*
X154703Y82539D01*
X151704D01*
X156203Y81040D02*
X153204D01*
X151704Y79540D01*
X153204Y78041D01*
X156203D01*
X153953D01*
Y81040D01*
X151704Y73542D02*
X156203D01*
Y75791D01*
X155453Y76541D01*
X153953D01*
X153204Y75791D01*
Y73542D01*
X157702Y72043D02*
Y71293D01*
X156953Y70543D01*
X153204D01*
X156203Y62296D02*
Y60796D01*
X155453Y60046D01*
X153953D01*
X153204Y60796D01*
Y62296D01*
X153953Y63045D01*
X155453D01*
X156203Y62296D01*
Y58547D02*
X153204D01*
Y56298D01*
X153953Y55548D01*
X156203D01*
X152454Y46551D02*
X151704Y47300D01*
Y48800D01*
X152454Y49550D01*
X155453D01*
X156203Y48800D01*
Y47300D01*
X155453Y46551D01*
X151704Y45051D02*
X156203D01*
X154703Y43552D01*
X156203Y42052D01*
X151704D01*
X152454Y40553D02*
X151704Y39803D01*
Y38303D01*
X152454Y37554D01*
X153204D01*
X153953Y38303D01*
Y39053D01*
Y38303D01*
X154703Y37554D01*
X155453D01*
X156203Y38303D01*
Y39803D01*
X155453Y40553D01*
X152454Y36054D02*
X151704Y35304D01*
Y33805D01*
X152454Y33055D01*
X155453D01*
X156203Y33805D01*
Y35304D01*
X155453Y36054D01*
X152454D01*
Y31556D02*
X151704Y30806D01*
Y29306D01*
X152454Y28557D01*
X153204D01*
X153953Y29306D01*
X154703Y28557D01*
X155453D01*
X156203Y29306D01*
Y30806D01*
X155453Y31556D01*
X154703D01*
X153953Y30806D01*
X153204Y31556D01*
X152454D01*
X153953Y30806D02*
Y29306D01*
X156203Y27057D02*
X154703Y25558D01*
X153204D01*
X151704Y27057D01*
X165500Y203250D02*
X161752D01*
X163251D01*
Y204000D01*
Y202501D01*
Y203250D01*
X161752D01*
X161002Y202501D01*
X165500Y199501D02*
Y198002D01*
X164751Y197252D01*
X163251D01*
X162501Y198002D01*
Y199501D01*
X163251Y200251D01*
X164751D01*
X165500Y199501D01*
X162501Y195753D02*
X165500D01*
X164001D01*
X163251Y195003D01*
X162501Y194253D01*
Y193503D01*
X161002Y183756D02*
Y186756D01*
X165500D01*
Y183756D01*
X163251Y186756D02*
Y185256D01*
X161002Y179258D02*
Y182257D01*
X163251D01*
Y180757D01*
Y182257D01*
X165500D01*
X161002Y177759D02*
X164751D01*
X165500Y177009D01*
Y175509D01*
X164751Y174759D01*
X161002D01*
X161752Y170261D02*
X161002Y171011D01*
Y172510D01*
X161752Y173260D01*
X162501D01*
X163251Y172510D01*
Y171011D01*
X164001Y170261D01*
X164751D01*
X165500Y171011D01*
Y172510D01*
X164751Y173260D01*
X161002Y165762D02*
Y168761D01*
X165500D01*
Y165762D01*
X163251Y168761D02*
Y167262D01*
X167000Y159764D02*
X162501D01*
Y157515D01*
X163251Y156765D01*
X164751D01*
X165500Y157515D01*
Y159764D01*
X162501Y155266D02*
X165500D01*
X164001D01*
X163251Y154516D01*
X162501Y153766D01*
Y153016D01*
X165500Y150017D02*
Y148518D01*
X164751Y147768D01*
X163251D01*
X162501Y148518D01*
Y150017D01*
X163251Y150767D01*
X164751D01*
X165500Y150017D01*
X167000Y144769D02*
Y144019D01*
X166250Y143270D01*
X162501D01*
Y145519D01*
X163251Y146269D01*
X164751D01*
X165500Y145519D01*
Y143270D01*
X162501Y141770D02*
X165500D01*
X164001D01*
X163251Y141020D01*
X162501Y140270D01*
Y139521D01*
Y136522D02*
Y135022D01*
X163251Y134273D01*
X165500D01*
Y136522D01*
X164751Y137271D01*
X164001Y136522D01*
Y134273D01*
X165500Y132773D02*
X162501D01*
Y132023D01*
X163251Y131273D01*
X165500D01*
X163251D01*
X162501Y130524D01*
X163251Y129774D01*
X165500D01*
Y128274D02*
X162501D01*
Y127525D01*
X163251Y126775D01*
X165500D01*
X163251D01*
X162501Y126025D01*
X163251Y125275D01*
X165500D01*
Y123776D02*
Y122276D01*
Y123026D01*
X162501D01*
Y123776D01*
X165500Y120027D02*
X162501D01*
Y117778D01*
X163251Y117028D01*
X165500D01*
X167000Y114029D02*
Y113279D01*
X166250Y112530D01*
X162501D01*
Y114779D01*
X163251Y115529D01*
X164751D01*
X165500Y114779D01*
Y112530D01*
Y111030D02*
X164751D01*
Y110280D01*
X165500D01*
Y111030D01*
X47695Y43500D02*
X53693D01*
X47695Y47499D01*
X53693D01*
X47695Y52497D02*
Y50498D01*
X48694Y49498D01*
X50694D01*
X51693Y50498D01*
Y52497D01*
X50694Y53497D01*
X49694D01*
Y49498D01*
X51693Y55496D02*
X48694D01*
X47695Y56496D01*
X48694Y57495D01*
X47695Y58495D01*
X48694Y59495D01*
X51693D01*
X47695Y61494D02*
X51693D01*
X53693Y63494D01*
X51693Y65493D01*
X47695D01*
X50694D01*
Y61494D01*
X53693Y71491D02*
Y67492D01*
X47695D01*
Y71491D01*
X50694Y67492D02*
Y69492D01*
X53693Y79488D02*
Y83487D01*
Y81488D01*
X47695D01*
Y88485D02*
Y86486D01*
X48694Y85486D01*
X50694D01*
X51693Y86486D01*
Y88485D01*
X50694Y89485D01*
X49694D01*
Y85486D01*
X51693Y95483D02*
Y92484D01*
X50694Y91484D01*
X48694D01*
X47695Y92484D01*
Y95483D01*
X53693Y97483D02*
X47695D01*
X50694D01*
X51693Y98482D01*
Y100482D01*
X50694Y101481D01*
X47695D01*
Y103481D02*
X51693D01*
Y106480D01*
X50694Y107479D01*
X47695D01*
Y110478D02*
Y112478D01*
X48694Y113477D01*
X50694D01*
X51693Y112478D01*
Y110478D01*
X50694Y109479D01*
X48694D01*
X47695Y110478D01*
Y115477D02*
Y117476D01*
Y116476D01*
X53693D01*
Y115477D01*
X47695Y121475D02*
Y123474D01*
X48694Y124474D01*
X50694D01*
X51693Y123474D01*
Y121475D01*
X50694Y120475D01*
X48694D01*
X47695Y121475D01*
X45695Y128472D02*
Y129472D01*
X46695Y130472D01*
X51693D01*
Y127473D01*
X50694Y126473D01*
X48694D01*
X47695Y127473D01*
Y130472D01*
X51693Y132471D02*
X48694D01*
X47695Y133471D01*
Y136470D01*
X46695D01*
X45695Y135470D01*
Y134471D01*
X47695Y136470D02*
X51693D01*
X53693Y144467D02*
Y146467D01*
Y145467D01*
X47695D01*
Y144467D01*
Y146467D01*
Y149466D02*
X51693D01*
Y152465D01*
X50694Y153464D01*
X47695D01*
X51693Y159462D02*
Y156464D01*
X50694Y155464D01*
X48694D01*
X47695Y156464D01*
Y159462D01*
Y161462D02*
X48694D01*
Y162461D01*
X47695D01*
Y161462D01*
X36098Y45499D02*
X42096D01*
X36098Y49498D01*
X42096D01*
X36098Y51497D02*
X40096D01*
X42096Y53497D01*
X40096Y55496D01*
X36098D01*
X39097D01*
Y51497D01*
X42096Y61494D02*
Y57495D01*
X36098D01*
Y61494D01*
X39097Y57495D02*
Y59495D01*
Y63494D02*
Y67492D01*
X41096Y73490D02*
X42096Y72491D01*
Y70491D01*
X41096Y69492D01*
X37097D01*
X36098Y70491D01*
Y72491D01*
X37097Y73490D01*
X41096Y75490D02*
X42096Y76489D01*
Y78489D01*
X41096Y79488D01*
X40096D01*
X39097Y78489D01*
Y77489D01*
Y78489D01*
X38097Y79488D01*
X37097D01*
X36098Y78489D01*
Y76489D01*
X37097Y75490D01*
X41096Y81488D02*
X42096Y82487D01*
Y84487D01*
X41096Y85486D01*
X37097D01*
X36098Y84487D01*
Y82487D01*
X37097Y81488D01*
X41096D01*
Y87486D02*
X42096Y88485D01*
Y90485D01*
X41096Y91484D01*
X40096D01*
X39097Y90485D01*
X38097Y91484D01*
X37097D01*
X36098Y90485D01*
Y88485D01*
X37097Y87486D01*
X38097D01*
X39097Y88485D01*
X40096Y87486D01*
X41096D01*
X39097Y88485D02*
Y90485D01*
X42096Y93484D02*
Y97483D01*
Y95483D01*
X36098D01*
X39097Y99482D02*
Y103481D01*
X41096Y109479D02*
X42096Y108479D01*
Y106480D01*
X41096Y105480D01*
X37097D01*
X36098Y106480D01*
Y108479D01*
X37097Y109479D01*
X42096Y115477D02*
Y111478D01*
X36098D01*
Y115477D01*
X39097Y111478D02*
Y113477D01*
X41096Y121475D02*
X42096Y120475D01*
Y118476D01*
X41096Y117476D01*
X37097D01*
X36098Y118476D01*
Y120475D01*
X37097Y121475D01*
X36098Y123474D02*
Y125473D01*
Y124474D01*
X42096D01*
X41096Y123474D01*
X42096Y128472D02*
Y132471D01*
X41096D01*
X37097Y128472D01*
X36098D01*
X41096Y134471D02*
X42096Y135470D01*
Y137470D01*
X41096Y138469D01*
X37097D01*
X36098Y137470D01*
Y135470D01*
X37097Y134471D01*
X41096D01*
X36098Y144467D02*
Y140469D01*
X40096Y144467D01*
X41096D01*
X42096Y143468D01*
Y141468D01*
X41096Y140469D01*
X39097Y146467D02*
Y150465D01*
X41096Y152465D02*
X42096Y153464D01*
Y155464D01*
X41096Y156464D01*
X37097D01*
X36098Y155464D01*
Y153464D01*
X37097Y152465D01*
X41096D01*
X36098Y158463D02*
Y160462D01*
Y159462D01*
X42096D01*
X41096Y158463D01*
X26500Y61994D02*
X32498D01*
Y64993D01*
X31498Y65993D01*
X29499D01*
X28499Y64993D01*
Y61994D01*
Y63993D02*
X26500Y65993D01*
X32498Y70991D02*
Y68992D01*
X31498Y67992D01*
X27500D01*
X26500Y68992D01*
Y70991D01*
X27500Y71991D01*
X31498D01*
X32498Y70991D01*
Y73990D02*
X26500D01*
X29499D01*
Y77989D01*
X32498D01*
X26500D01*
X31498Y83987D02*
X32498Y82987D01*
Y80988D01*
X31498Y79988D01*
X30499D01*
X29499Y80988D01*
Y82987D01*
X28499Y83987D01*
X27500D01*
X26500Y82987D01*
Y80988D01*
X27500Y79988D01*
X26500Y91984D02*
X30499Y95983D01*
X26500Y103980D02*
X32498D01*
Y106980D01*
X31498Y107979D01*
X29499D01*
X28499Y106980D01*
Y103980D01*
X32498Y109978D02*
X26500D01*
Y112978D01*
X27500Y113977D01*
X28499D01*
X29499D01*
X30499Y112978D01*
Y109978D01*
X29499Y115977D02*
Y119975D01*
X32498Y125973D02*
Y121975D01*
X29499D01*
Y123974D01*
Y121975D01*
X26500D01*
X30499Y127973D02*
X26500D01*
X28499D01*
X29499Y128972D01*
X30499Y129972D01*
Y130972D01*
X26500Y136970D02*
Y134970D01*
X27500Y133971D01*
X29499D01*
X30499Y134970D01*
Y136970D01*
X29499Y137970D01*
X28499D01*
Y133971D01*
X26500Y142968D02*
Y140969D01*
X27500Y139969D01*
X29499D01*
X30499Y140969D01*
Y142968D01*
X29499Y143967D01*
X28499D01*
Y139969D01*
X176751Y179000D02*
Y176001D01*
X175251Y177500D02*
X178250D01*
X175251Y174501D02*
X174501Y173752D01*
Y172252D01*
X175251Y171502D01*
X176001D01*
X176751Y172252D01*
Y173002D01*
Y172252D01*
X177500Y171502D01*
X178250D01*
X179000Y172252D01*
Y173752D01*
X178250Y174501D01*
X174501Y170003D02*
X177500D01*
X179000Y168503D01*
X177500Y167004D01*
X174501D01*
X175251Y165504D02*
X174501Y164755D01*
Y163255D01*
X175251Y162505D01*
X176001D01*
X176751Y163255D01*
Y164005D01*
Y163255D01*
X177500Y162505D01*
X178250D01*
X179000Y163255D01*
Y164755D01*
X178250Y165504D01*
X175001Y139000D02*
X178000D01*
X179500Y137501D01*
X178000Y136001D01*
X175001D01*
X179500Y134501D02*
X175001D01*
Y132252D01*
X175751Y131502D01*
X177251D01*
X178000Y132252D01*
Y134501D01*
Y133002D02*
X179500Y131502D01*
X175001Y127004D02*
Y130003D01*
X179500D01*
Y127004D01*
X177251Y130003D02*
Y128503D01*
X175001Y122505D02*
Y125504D01*
X177251D01*
Y124005D01*
Y125504D01*
X179500D01*
Y121006D02*
X176501Y118007D01*
X175001Y116507D02*
X178000D01*
X179500Y115008D01*
X178000Y113508D01*
X175001D01*
Y109010D02*
Y112009D01*
X177251D01*
Y110509D01*
Y112009D01*
X179500D01*
X175001Y107510D02*
X178750D01*
X179500Y106760D01*
Y105261D01*
X178750Y104511D01*
X175001D01*
X175751Y100013D02*
X175001Y100762D01*
Y102262D01*
X175751Y103012D01*
X176501D01*
X177251Y102262D01*
Y100762D01*
X178000Y100013D01*
X178750D01*
X179500Y100762D01*
Y102262D01*
X178750Y103012D01*
X175001Y95514D02*
Y98513D01*
X179500D01*
Y95514D01*
X177251Y98513D02*
Y97013D01*
D16*
X232Y-7D02*
Y253993D01*
X206232D01*
Y-7D02*
Y253993D01*
X232Y-7D02*
X206232D01*
D67*
X183500Y150500D02*
Y181500D01*
X170500D02*
X183500D01*
X170500Y150500D02*
Y181500D01*
Y150500D02*
X183500D01*
Y93500D02*
Y150500D01*
X170500Y93500D02*
X183500D01*
X170500D02*
Y150500D01*
X183500D01*
M02*
