G04 Layer_Color=16711935*
%FSLAX25Y25*%
%MOIN*%
G70*
G01*
G75*
%ADD40C,0.17623*%
%ADD41O,0.11800X0.06800*%
%ADD42R,0.11800X0.06800*%
%ADD43O,0.06800X0.11800*%
%ADD44R,0.06800X0.11800*%
%ADD45C,0.05800*%
%ADD46C,0.10236*%
D40*
X384000Y228500D02*
D03*
X314000Y428500D02*
D03*
X464000D02*
D03*
D41*
X484000Y218500D02*
D03*
Y228500D02*
D03*
Y238500D02*
D03*
Y248500D02*
D03*
Y258500D02*
D03*
Y268500D02*
D03*
Y278500D02*
D03*
Y288500D02*
D03*
Y298500D02*
D03*
Y308500D02*
D03*
Y318500D02*
D03*
Y328500D02*
D03*
Y338500D02*
D03*
Y348500D02*
D03*
Y358500D02*
D03*
Y368500D02*
D03*
Y378500D02*
D03*
Y388500D02*
D03*
Y398500D02*
D03*
X294000Y218500D02*
D03*
Y228500D02*
D03*
Y238500D02*
D03*
Y248500D02*
D03*
Y258500D02*
D03*
Y268500D02*
D03*
Y278500D02*
D03*
Y288500D02*
D03*
Y298500D02*
D03*
Y308500D02*
D03*
Y318500D02*
D03*
Y328500D02*
D03*
Y338500D02*
D03*
Y348500D02*
D03*
Y358500D02*
D03*
Y368500D02*
D03*
Y378500D02*
D03*
Y388500D02*
D03*
Y398500D02*
D03*
D42*
X484000Y408500D02*
D03*
X294000D02*
D03*
D43*
X484000Y198500D02*
D03*
X474000D02*
D03*
X464000D02*
D03*
X454000D02*
D03*
X444000D02*
D03*
X434000D02*
D03*
X424000D02*
D03*
X414000D02*
D03*
X404000D02*
D03*
X394000D02*
D03*
X384000D02*
D03*
X374000D02*
D03*
X364000D02*
D03*
X354000D02*
D03*
X344000D02*
D03*
X334000D02*
D03*
X324000D02*
D03*
X314000D02*
D03*
X304000D02*
D03*
D44*
X294000D02*
D03*
D45*
X432500Y359000D02*
D03*
X353500Y360000D02*
D03*
X350000Y351500D02*
D03*
X383000Y345500D02*
D03*
X415000Y330500D02*
D03*
X384000Y300000D02*
D03*
X415500Y338000D02*
D03*
X349000Y389500D02*
D03*
X338000Y367500D02*
D03*
X342000Y382500D02*
D03*
X350000D02*
D03*
X337000Y378500D02*
D03*
X349500Y369500D02*
D03*
X333000Y374000D02*
D03*
X320000Y333500D02*
D03*
Y306500D02*
D03*
X338000Y310500D02*
D03*
X384500Y291500D02*
D03*
X346000Y327000D02*
D03*
X369500Y299000D02*
D03*
X349449Y343449D02*
D03*
X352500Y305500D02*
D03*
X377500Y297000D02*
D03*
X391500Y343500D02*
D03*
X388500Y210500D02*
D03*
X355500Y373500D02*
D03*
X418923Y359000D02*
D03*
D46*
X393055Y228500D02*
G03*
X393055Y228500I-9055J0D01*
G01*
X323055Y428500D02*
G03*
X323055Y428500I-9055J0D01*
G01*
X473055D02*
G03*
X473055Y428500I-9055J0D01*
G01*
M02*
