G04 Layer_Color=32896*
%FSLAX25Y25*%
%MOIN*%
G70*
G01*
G75*
%ADD17C,0.01000*%
G36*
X333068Y236062D02*
X333785Y235969D01*
X334456Y235830D01*
X335104Y235645D01*
X335706Y235437D01*
X336261Y235182D01*
X336793Y234928D01*
X337256Y234673D01*
X337696Y234395D01*
X338066Y234141D01*
X338390Y233910D01*
X338668Y233678D01*
X338899Y233493D01*
X339038Y233354D01*
X339154Y233262D01*
X339177Y233238D01*
X339663Y232683D01*
X340103Y232128D01*
X340496Y231549D01*
X340797Y230971D01*
X341074Y230392D01*
X341306Y229814D01*
X341491Y229281D01*
X341653Y228749D01*
X341769Y228263D01*
X341861Y227800D01*
X341907Y227407D01*
X341954Y227060D01*
X341977Y226782D01*
X342000Y226574D01*
Y226435D01*
Y226412D01*
Y226389D01*
X341977Y225648D01*
X341884Y224954D01*
X341745Y224260D01*
X341560Y223635D01*
X341352Y223034D01*
X341097Y222455D01*
X340843Y221946D01*
X340588Y221460D01*
X340334Y221044D01*
X340079Y220650D01*
X339825Y220326D01*
X339617Y220049D01*
X339432Y219840D01*
X339293Y219678D01*
X339200Y219563D01*
X339177Y219539D01*
X338645Y219054D01*
X338066Y218614D01*
X337488Y218221D01*
X336909Y217920D01*
X336331Y217642D01*
X335775Y217411D01*
X335220Y217226D01*
X334688Y217064D01*
X334202Y216948D01*
X333739Y216855D01*
X333346Y216809D01*
X332998Y216763D01*
X332721Y216740D01*
X332513Y216717D01*
X332328D01*
X331587Y216740D01*
X330893Y216832D01*
X330222Y216971D01*
X329574Y217156D01*
X328972Y217364D01*
X328417Y217619D01*
X327885Y217874D01*
X327422Y218128D01*
X326982Y218383D01*
X326612Y218637D01*
X326288Y218892D01*
X326010Y219100D01*
X325779Y219285D01*
X325640Y219424D01*
X325524Y219516D01*
X325501Y219539D01*
X324992Y220095D01*
X324552Y220650D01*
X324182Y221229D01*
X323858Y221807D01*
X323581Y222386D01*
X323349Y222964D01*
X323164Y223520D01*
X323002Y224029D01*
X322886Y224515D01*
X322794Y224977D01*
X322747Y225371D01*
X322701Y225718D01*
X322678Y225996D01*
X322655Y226204D01*
Y226343D01*
Y226389D01*
X322678Y227130D01*
X322771Y227824D01*
X322909Y228518D01*
X323095Y229143D01*
X323303Y229744D01*
X323557Y230323D01*
X323812Y230832D01*
X324066Y231318D01*
X324344Y231757D01*
X324599Y232128D01*
X324830Y232452D01*
X325061Y232729D01*
X325247Y232961D01*
X325385Y233100D01*
X325478Y233215D01*
X325501Y233238D01*
X326033Y233748D01*
X326612Y234187D01*
X327167Y234557D01*
X327769Y234881D01*
X328324Y235159D01*
X328903Y235390D01*
X329458Y235576D01*
X329967Y235737D01*
X330453Y235853D01*
X330916Y235946D01*
X331309Y235992D01*
X331656Y236038D01*
X331934Y236062D01*
X332142Y236085D01*
X332328D01*
X333068Y236062D01*
D02*
G37*
G36*
X318000Y234210D02*
X314089Y230138D01*
X313974Y229027D01*
X313719Y226366D01*
X313534Y224445D01*
X317722Y220118D01*
X317445Y219840D01*
X313488Y223890D01*
X313256Y221414D01*
X313141D01*
Y220465D01*
X312261D01*
Y221414D01*
X309531D01*
X309438Y221229D01*
X309299Y221044D01*
X309114Y220835D01*
X308860Y220650D01*
X308559Y220558D01*
X308281Y220535D01*
X308003D01*
X307795Y220604D01*
X307541Y220696D01*
X307332Y220835D01*
X307171Y220997D01*
X307009Y221229D01*
X306893Y221483D01*
X306823Y221715D01*
X306800Y221923D01*
X306823Y222154D01*
X306870Y222340D01*
X306939Y222525D01*
X307032Y222710D01*
X307147Y222872D01*
X307309Y223034D01*
X307494Y223149D01*
X307656Y223219D01*
X307633Y223427D01*
X304162Y219840D01*
X303885Y220141D01*
X307587Y223982D01*
X307286Y227338D01*
X307078Y229767D01*
X305967D01*
Y231318D01*
X306268D01*
X303445Y234210D01*
X303746Y234488D01*
X306384Y231757D01*
Y231966D01*
X306337Y232012D01*
X306268Y232058D01*
X306199Y232128D01*
X306129Y232197D01*
X306083Y232313D01*
X306060Y232405D01*
X306037Y232521D01*
X306060Y232660D01*
X306106Y232752D01*
X306199Y232914D01*
X306314Y233007D01*
X306476Y233076D01*
X306638Y233100D01*
X306800Y233076D01*
X306939Y233030D01*
X307055Y232961D01*
X307101Y232891D01*
X307217Y232984D01*
X307379Y233100D01*
X307587Y233192D01*
X307888Y233308D01*
X308212Y233400D01*
X308536Y233470D01*
X308883Y233539D01*
X309160Y233562D01*
Y233910D01*
X311382D01*
Y233609D01*
X311567D01*
X311845Y233586D01*
X312146Y233539D01*
X312446Y233493D01*
Y233678D01*
X313395D01*
Y233238D01*
X313511Y233169D01*
X313673Y233100D01*
X313835Y233007D01*
X313974Y232914D01*
X314112Y232799D01*
X314205Y232706D01*
X314251Y232637D01*
X314298Y232544D01*
X314275Y232382D01*
X314830D01*
Y231665D01*
X314228D01*
X314136Y230762D01*
X317722Y234488D01*
X318000Y234210D01*
D02*
G37*
G36*
X317167Y216647D02*
Y216601D01*
Y216508D01*
Y216416D01*
Y216323D01*
Y216231D01*
Y216184D01*
Y216161D01*
Y215791D01*
Y215444D01*
Y215282D01*
Y215166D01*
Y215097D01*
Y215073D01*
Y214657D01*
Y214472D01*
Y214310D01*
Y214171D01*
Y214078D01*
Y214009D01*
Y213986D01*
Y213824D01*
Y213708D01*
Y213616D01*
Y213569D01*
Y213500D01*
X304509D01*
Y213523D01*
Y213569D01*
Y213755D01*
Y213916D01*
Y213963D01*
Y213986D01*
Y214356D01*
Y214703D01*
Y214865D01*
Y214981D01*
Y215050D01*
Y215073D01*
Y215490D01*
Y215675D01*
Y215837D01*
Y215976D01*
Y216069D01*
Y216138D01*
Y216161D01*
Y216323D01*
Y216462D01*
Y216554D01*
Y216601D01*
Y216647D01*
Y216670D01*
X317167D01*
Y216647D01*
D02*
G37*
G36*
X440415Y444702D02*
X441209Y444842D01*
X441279Y444446D01*
X441676Y444516D01*
X441746Y444119D01*
X442540Y444259D01*
X442610Y443862D01*
X443007Y443932D01*
X443077Y443535D01*
X443473Y443605D01*
X443543Y443208D01*
X443940Y443278D01*
X444010Y442881D01*
X444407Y442951D01*
X444477Y442554D01*
X444874Y442624D01*
X444944Y442227D01*
X445341Y442297D01*
X445411Y441900D01*
X445808Y441970D01*
X445878Y441574D01*
X446275Y441644D01*
X446344Y441247D01*
X446741Y441317D01*
X446811Y440920D01*
X447208Y440990D01*
X447278Y440593D01*
X447348Y440196D01*
X447745Y440266D01*
X447815Y439869D01*
X448212Y439939D01*
X448282Y439542D01*
X448352Y439145D01*
X448422Y438749D01*
X448819Y438819D01*
X448889Y438422D01*
X448492Y438352D01*
X448562Y437955D01*
X447371Y437745D01*
X447301Y438142D01*
X446507Y438002D01*
X446437Y438399D01*
X446041Y438329D01*
X445971Y438726D01*
X445177Y438586D01*
X445107Y438982D01*
X444710Y438912D01*
X444640Y439309D01*
X444243Y439239D01*
X444173Y439636D01*
X443379Y439496D01*
X443449Y439099D01*
X443052Y439029D01*
X443122Y438632D01*
X442726Y438563D01*
X442796Y438166D01*
X442399Y438096D01*
X442469Y437699D01*
X442072Y437629D01*
X442142Y437232D01*
X441745Y437162D01*
X441815Y436765D01*
X441418Y436695D01*
X441488Y436298D01*
X441091Y436228D01*
X441161Y435831D01*
X440764Y435761D01*
X440834Y435365D01*
X440437Y435295D01*
X440507Y434898D01*
X440110Y434828D01*
X440180Y434431D01*
X440250Y434034D01*
X439854Y433964D01*
X439924Y433567D01*
X439527Y433497D01*
X439597Y433100D01*
X439200Y433030D01*
X439270Y432633D01*
X438873Y432563D01*
X438943Y432167D01*
X438546Y432097D01*
X438616Y431700D01*
X438219Y431630D01*
X438289Y431233D01*
X437892Y431163D01*
X437962Y430766D01*
X437565Y430696D01*
X437635Y430299D01*
X437239Y430229D01*
X437308Y429832D01*
X436912Y429762D01*
X436981Y429365D01*
X436585Y429295D01*
X436655Y428899D01*
X436258Y428829D01*
X436328Y428432D01*
X435931Y428362D01*
X436001Y427965D01*
X435604Y427895D01*
X435674Y427498D01*
X435277Y427428D01*
X435347Y427031D01*
X435744Y427101D01*
X435814Y426704D01*
X435884Y426307D01*
X435954Y425911D01*
X436351Y425981D01*
X436421Y425584D01*
X436491Y425187D01*
X436561Y424790D01*
X436958Y424860D01*
X437028Y424463D01*
X437098Y424066D01*
X437168Y423669D01*
X437238Y423273D01*
X437308Y422876D01*
X437378Y422479D01*
X437447Y422082D01*
X437517Y421685D01*
X437587Y421288D01*
X437190Y421218D01*
X437260Y420821D01*
X437330Y420424D01*
X437400Y420028D01*
X437470Y419631D01*
X437074Y419561D01*
X437144Y419164D01*
X437214Y418767D01*
X436817Y418697D01*
X436887Y418300D01*
X436957Y417903D01*
X436560Y417833D01*
X436630Y417436D01*
X436233Y417366D01*
X436303Y416969D01*
X436373Y416573D01*
X435976Y416503D01*
X436046Y416106D01*
X435649Y416036D01*
X435719Y415639D01*
X435322Y415569D01*
X435392Y415172D01*
X434995Y415102D01*
X435065Y414705D01*
X434668Y414635D01*
X434738Y414238D01*
X434341Y414169D01*
X434411Y413772D01*
X434015Y413702D01*
X434085Y413305D01*
X433688Y413235D01*
X433758Y412838D01*
X432964Y412698D01*
X433034Y412301D01*
X432637Y412231D01*
X432707Y411834D01*
X432310Y411764D01*
X432380Y411367D01*
X431586Y411227D01*
X431656Y410830D01*
X431259Y410760D01*
X431329Y410364D01*
X430536Y410224D01*
X430606Y409827D01*
X429812Y409687D01*
X429882Y409290D01*
X429088Y409150D01*
X429158Y408753D01*
X428365Y408613D01*
X428434Y408216D01*
X427641Y408076D01*
X427711Y407680D01*
X426917Y407540D01*
X426987Y407143D01*
X426193Y407003D01*
X426263Y406606D01*
X425072Y406396D01*
X425142Y405999D01*
X423952Y405789D01*
X424022Y405392D01*
X423228Y405252D01*
X423298Y404855D01*
X421711Y404575D01*
X421781Y404179D01*
X420590Y403969D01*
X420660Y403572D01*
X419072Y403292D01*
X419142Y402895D01*
X417555Y402615D01*
X417625Y402218D01*
X416038Y401938D01*
X416108Y401542D01*
X414123Y401192D01*
X414193Y400795D01*
X411812Y400375D01*
X411882Y399978D01*
X409104Y399488D01*
X409174Y399091D01*
X404808Y398322D01*
X404878Y397925D01*
X402497Y397505D01*
X402567Y397108D01*
X402637Y396711D01*
X402707Y396314D01*
X402777Y395917D01*
X402847Y395520D01*
X402450Y395450D01*
X402520Y395054D01*
X402590Y394657D01*
X402660Y394260D01*
X402730Y393863D01*
X402800Y393466D01*
X402870Y393069D01*
X402940Y392672D01*
X403010Y392275D01*
X403080Y391879D01*
X403150Y391482D01*
X403220Y391085D01*
X403290Y390688D01*
X403360Y390291D01*
X403430Y389894D01*
X403500Y389497D01*
X403570Y389101D01*
X403640Y388704D01*
X403710Y388307D01*
X403780Y387910D01*
X403850Y387513D01*
X403920Y387116D01*
X403990Y386719D01*
X404060Y386322D01*
X404129Y385926D01*
X404526Y385996D01*
X404596Y385599D01*
X404666Y385202D01*
X404736Y384805D01*
X404806Y384408D01*
X404876Y384011D01*
X405273Y384081D01*
X405343Y383684D01*
X405413Y383287D01*
X405483Y382891D01*
X405553Y382494D01*
X405623Y382097D01*
X406020Y382167D01*
X406090Y381770D01*
X406160Y381373D01*
X406230Y380976D01*
X406627Y381046D01*
X406697Y380649D01*
X406767Y380252D01*
X406837Y379855D01*
X407233Y379925D01*
X407303Y379529D01*
X407373Y379132D01*
X407443Y378735D01*
X407840Y378805D01*
X407910Y378408D01*
X407980Y378011D01*
X408377Y378081D01*
X408447Y377684D01*
X408844Y377754D01*
X408914Y377357D01*
X408984Y376960D01*
X409381Y377030D01*
X409451Y376634D01*
X409848Y376704D01*
X409918Y376307D01*
X410315Y376377D01*
X410384Y375980D01*
X410454Y375583D01*
X410851Y375653D01*
X410921Y375256D01*
X411318Y375326D01*
X411388Y374929D01*
X411785Y374999D01*
X411855Y374602D01*
X411925Y374205D01*
X412322Y374275D01*
X412392Y373879D01*
X412462Y373482D01*
X412859Y373552D01*
X412929Y373155D01*
X413326Y373225D01*
X413396Y372828D01*
X413465Y372431D01*
X413862Y372501D01*
X413932Y372104D01*
X414002Y371707D01*
X414399Y371777D01*
X414469Y371380D01*
X414539Y370983D01*
X414936Y371053D01*
X415006Y370656D01*
X415076Y370260D01*
X415473Y370330D01*
X415543Y369933D01*
X416336Y370073D01*
X416406Y369676D01*
X416803Y369746D01*
X416873Y369349D01*
X416943Y368952D01*
X417340Y369022D01*
X417410Y368625D01*
X417807Y368695D01*
X417877Y368298D01*
X418274Y368368D01*
X418344Y367971D01*
X418741Y368041D01*
X418811Y367645D01*
X419208Y367715D01*
X419278Y367318D01*
X419674Y367388D01*
X419744Y366991D01*
X419814Y366594D01*
X420211Y366664D01*
X420281Y366267D01*
X420678Y366337D01*
X420748Y365940D01*
X420818Y365543D01*
X421215Y365613D01*
X421285Y365216D01*
X421682Y365286D01*
X421752Y364889D01*
X421822Y364493D01*
X422219Y364563D01*
X422289Y364166D01*
X422685Y364236D01*
X422755Y363839D01*
X422825Y363442D01*
X423222Y363512D01*
X423292Y363115D01*
X423689Y363185D01*
X423759Y362788D01*
X423829Y362391D01*
X424226Y362461D01*
X424296Y362064D01*
X424366Y361667D01*
X424763Y361737D01*
X424833Y361341D01*
X424903Y360944D01*
X425300Y361014D01*
X425370Y360617D01*
X425767Y360687D01*
X425837Y360290D01*
X425907Y359893D01*
X426303Y359963D01*
X426373Y359566D01*
X426443Y359169D01*
X426840Y359239D01*
X426910Y358842D01*
X426980Y358446D01*
X427377Y358516D01*
X427447Y358119D01*
X427517Y357722D01*
X427914Y357792D01*
X427984Y357395D01*
X428054Y356998D01*
X428124Y356601D01*
X428521Y356671D01*
X428591Y356274D01*
X428661Y355877D01*
X429058Y355947D01*
X429127Y355551D01*
X429197Y355154D01*
X429594Y355224D01*
X429664Y354827D01*
X429734Y354430D01*
X429804Y354033D01*
X430201Y354103D01*
X430271Y353706D01*
X430341Y353309D01*
X430738Y353379D01*
X430808Y352982D01*
X430878Y352586D01*
X430948Y352189D01*
X431345Y352259D01*
X431415Y351862D01*
X431485Y351465D01*
X431882Y351535D01*
X431952Y351138D01*
X432022Y350741D01*
X432092Y350344D01*
X432488Y350414D01*
X432558Y350017D01*
X432628Y349620D01*
X432698Y349223D01*
X433095Y349293D01*
X433165Y348897D01*
X433235Y348500D01*
X433305Y348103D01*
X433702Y348173D01*
X433772Y347776D01*
X433842Y347379D01*
X433912Y346982D01*
X434309Y347052D01*
X434379Y346655D01*
X434449Y346258D01*
X434519Y345862D01*
X434916Y345932D01*
X434986Y345535D01*
X435056Y345138D01*
X435125Y344741D01*
X435195Y344344D01*
X435592Y344414D01*
X435662Y344017D01*
X435732Y343620D01*
X435802Y343224D01*
X436199Y343293D01*
X436269Y342897D01*
X436339Y342500D01*
X436409Y342103D01*
X436479Y341706D01*
X436876Y341776D01*
X436946Y341379D01*
X437016Y340982D01*
X437086Y340585D01*
X437156Y340189D01*
X437553Y340259D01*
X437623Y339862D01*
X437693Y339465D01*
X437763Y339068D01*
X437833Y338671D01*
X438230Y338741D01*
X438300Y338344D01*
X438370Y337947D01*
X438440Y337550D01*
X438510Y337154D01*
X438906Y337224D01*
X438976Y336827D01*
X439046Y336430D01*
X439116Y336033D01*
X439186Y335636D01*
X439583Y335706D01*
X439653Y335309D01*
X439723Y334912D01*
X439793Y334515D01*
X439863Y334119D01*
X439933Y333722D01*
X440330Y333792D01*
X440400Y333395D01*
X440470Y332998D01*
X440540Y332601D01*
X440610Y332204D01*
X440680Y331807D01*
X441077Y331877D01*
X441147Y331480D01*
X441217Y331083D01*
X441287Y330687D01*
X441357Y330290D01*
X441427Y329893D01*
X441497Y329496D01*
X441893Y329566D01*
X441963Y329169D01*
X442033Y328772D01*
X442103Y328375D01*
X442173Y327978D01*
X442243Y327582D01*
X442313Y327185D01*
X442710Y327255D01*
X442780Y326858D01*
X442850Y326461D01*
X442920Y326064D01*
X442990Y325667D01*
X443060Y325270D01*
X443130Y324873D01*
X443527Y324943D01*
X443597Y324547D01*
X443667Y324150D01*
X443737Y323753D01*
X443807Y323356D01*
X443877Y322959D01*
X443947Y322562D01*
X444017Y322165D01*
X444087Y321768D01*
X444484Y321838D01*
X444554Y321442D01*
X444624Y321045D01*
X444694Y320648D01*
X444764Y320251D01*
X444834Y319854D01*
X444904Y319457D01*
X444973Y319060D01*
X445043Y318664D01*
X445440Y318734D01*
X445510Y318337D01*
X445580Y317940D01*
X445650Y317543D01*
X445720Y317146D01*
X445790Y316749D01*
X445860Y316352D01*
X445930Y315955D01*
X446000Y315559D01*
X446070Y315162D01*
X446467Y315232D01*
X446537Y314835D01*
X446607Y314438D01*
X446677Y314041D01*
X446747Y313644D01*
X446817Y313247D01*
X446887Y312850D01*
X446957Y312454D01*
X447027Y312057D01*
X447097Y311660D01*
X447167Y311263D01*
X447237Y310866D01*
X447307Y310469D01*
X447704Y310539D01*
X447774Y310142D01*
X447844Y309746D01*
X447914Y309349D01*
X447984Y308952D01*
X448054Y308555D01*
X448124Y308158D01*
X448193Y307761D01*
X448263Y307364D01*
X448333Y306967D01*
X448403Y306571D01*
X448473Y306174D01*
X448543Y305777D01*
X448613Y305380D01*
X448683Y304983D01*
X448753Y304586D01*
X449150Y304656D01*
X449220Y304259D01*
X449290Y303862D01*
X449360Y303466D01*
X449430Y303069D01*
X449500Y302672D01*
X449570Y302275D01*
X449640Y301878D01*
X449710Y301481D01*
X449780Y301084D01*
X449850Y300687D01*
X449920Y300290D01*
X449990Y299894D01*
X450060Y299497D01*
X450130Y299100D01*
X450200Y298703D01*
X450270Y298306D01*
X450340Y297909D01*
X450410Y297512D01*
X450480Y297116D01*
X450550Y296719D01*
X450620Y296322D01*
X450690Y295925D01*
X450760Y295528D01*
X450830Y295131D01*
X450900Y294734D01*
X450970Y294338D01*
X451040Y293941D01*
X451110Y293544D01*
X451180Y293147D01*
X451250Y292750D01*
X451320Y292353D01*
X451390Y291956D01*
X451460Y291559D01*
X451529Y291162D01*
X451599Y290766D01*
X451669Y290369D01*
X451739Y289972D01*
X451809Y289575D01*
X451879Y289178D01*
X451949Y288781D01*
X452019Y288384D01*
X452089Y287988D01*
X452159Y287591D01*
X452229Y287194D01*
X452299Y286797D01*
X452369Y286400D01*
X452439Y286003D01*
X452509Y285606D01*
X452579Y285209D01*
X452649Y284813D01*
X452719Y284416D01*
X452789Y284019D01*
X452859Y283622D01*
X452929Y283225D01*
X452999Y282828D01*
X453069Y282431D01*
X453139Y282034D01*
X453209Y281638D01*
X453279Y281241D01*
X453349Y280844D01*
X453419Y280447D01*
X453489Y280050D01*
X453559Y279653D01*
X453629Y279256D01*
X453699Y278859D01*
X453769Y278463D01*
X453839Y278066D01*
X453909Y277669D01*
X453979Y277272D01*
X454049Y276875D01*
X454119Y276478D01*
X454516Y276548D01*
X454586Y276151D01*
X454656Y275754D01*
X454726Y275358D01*
X454795Y274961D01*
X454865Y274564D01*
X454935Y274167D01*
X454538Y274097D01*
X454608Y273700D01*
X454678Y273303D01*
X454748Y272906D01*
X454818Y272510D01*
X454888Y272113D01*
X455285Y272183D01*
X455355Y271786D01*
X455425Y271389D01*
X455495Y270992D01*
X455892Y271062D01*
X455962Y270665D01*
X456032Y270268D01*
X456102Y269871D01*
X456172Y269475D01*
X456569Y269545D01*
X456639Y269148D01*
X456709Y268751D01*
X456779Y268354D01*
X456849Y267957D01*
X456919Y267560D01*
X456989Y267163D01*
X457386Y267233D01*
X457456Y266837D01*
X457526Y266440D01*
X457596Y266043D01*
X457665Y265646D01*
X457735Y265249D01*
X457805Y264852D01*
X457875Y264455D01*
X457945Y264058D01*
X458015Y263662D01*
X458085Y263265D01*
X458155Y262868D01*
X458225Y262471D01*
X457829Y262401D01*
X457899Y262004D01*
X457969Y261607D01*
X458039Y261210D01*
X458108Y260813D01*
X458178Y260417D01*
X457782Y260347D01*
X457852Y259950D01*
X457922Y259553D01*
X457992Y259156D01*
X457595Y259086D01*
X457665Y258689D01*
X457735Y258292D01*
X457804Y257895D01*
X457408Y257825D01*
X457478Y257429D01*
X457548Y257032D01*
X457618Y256635D01*
X457221Y256565D01*
X457291Y256168D01*
X457361Y255771D01*
X456964Y255701D01*
X457034Y255304D01*
X456637Y255234D01*
X456707Y254837D01*
X456310Y254767D01*
X456380Y254370D01*
X455983Y254300D01*
X455913Y254697D01*
X455516Y254627D01*
X455446Y255024D01*
X455376Y255421D01*
X454980Y255351D01*
X454910Y255748D01*
X455306Y255818D01*
X455236Y256215D01*
X455166Y256612D01*
X455096Y257009D01*
X455493Y257079D01*
X455423Y257475D01*
X455353Y257872D01*
X455750Y257942D01*
X455680Y258339D01*
X456474Y258479D01*
X456404Y258876D01*
X456801Y258946D01*
X456731Y259343D01*
X456661Y259740D01*
X456591Y260137D01*
X456521Y260533D01*
X456918Y260603D01*
X456848Y261000D01*
X456778Y261397D01*
X456708Y261794D01*
X456638Y262191D01*
X456568Y262588D01*
X456498Y262985D01*
X456428Y263382D01*
X456358Y263778D01*
X456288Y264175D01*
X456218Y264572D01*
X456148Y264969D01*
X456078Y265366D01*
X456008Y265763D01*
X455938Y266160D01*
X455868Y266557D01*
X455798Y266953D01*
X455728Y267350D01*
X455331Y267280D01*
X455261Y267677D01*
X455191Y268074D01*
X455121Y268471D01*
X454725Y268401D01*
X454795Y268004D01*
X454865Y267607D01*
X454934Y267210D01*
X455004Y266813D01*
X455074Y266417D01*
X455144Y266020D01*
X455214Y265623D01*
X454817Y265553D01*
X454887Y265156D01*
X454957Y264759D01*
X455027Y264362D01*
X455097Y263965D01*
X455167Y263568D01*
X454771Y263498D01*
X454841Y263102D01*
X454911Y262705D01*
X454981Y262308D01*
X455050Y261911D01*
X454654Y261841D01*
X454724Y261444D01*
X454794Y261047D01*
X454864Y260650D01*
X454467Y260580D01*
X454537Y260184D01*
X454607Y259787D01*
X454677Y259390D01*
X454280Y259320D01*
X454350Y258923D01*
X454420Y258526D01*
X454023Y258456D01*
X454093Y258059D01*
X454163Y257662D01*
X453766Y257592D01*
X453836Y257196D01*
X453906Y256799D01*
X453509Y256729D01*
X453579Y256332D01*
X453649Y255935D01*
X453252Y255865D01*
X453322Y255468D01*
X452925Y255398D01*
X452995Y255001D01*
X453065Y254604D01*
X452668Y254534D01*
X452738Y254138D01*
X452808Y253741D01*
X452878Y253344D01*
X452948Y252947D01*
X452551Y252877D01*
X452621Y252480D01*
X452224Y252410D01*
X452294Y252013D01*
X451897Y251943D01*
X451967Y251546D01*
X451571Y251476D01*
X451641Y251080D01*
X450847Y250940D01*
X450917Y250543D01*
X449726Y250333D01*
X449656Y250730D01*
X449259Y250660D01*
X449189Y251057D01*
X449119Y251453D01*
X449049Y251850D01*
X449446Y251920D01*
X449376Y252317D01*
X449306Y252714D01*
X449703Y252784D01*
X449633Y253181D01*
X450030Y253251D01*
X449960Y253648D01*
X450357Y253718D01*
X450287Y254115D01*
X451081Y254255D01*
X451011Y254651D01*
X451408Y254721D01*
X451338Y255118D01*
X451734Y255188D01*
X451664Y255585D01*
X452061Y255655D01*
X451991Y256052D01*
X451922Y256449D01*
X452318Y256519D01*
X452248Y256916D01*
X452178Y257312D01*
X452575Y257382D01*
X452505Y257779D01*
X452435Y258176D01*
X452832Y258246D01*
X452762Y258643D01*
X452692Y259040D01*
X452622Y259437D01*
X453019Y259507D01*
X452949Y259904D01*
X452879Y260301D01*
X452809Y260697D01*
X453206Y260767D01*
X453136Y261164D01*
X453066Y261561D01*
X452996Y261958D01*
X452926Y262355D01*
X453323Y262425D01*
X453253Y262822D01*
X453183Y263219D01*
X453113Y263615D01*
X453043Y264012D01*
X452973Y264409D01*
X452903Y264806D01*
X453300Y264876D01*
X453230Y265273D01*
X453160Y265670D01*
X453090Y266067D01*
X453020Y266464D01*
X452950Y266860D01*
X452880Y267257D01*
X452483Y267187D01*
X452553Y266791D01*
X452156Y266721D01*
X452226Y266324D01*
X452296Y265927D01*
X452366Y265530D01*
X451969Y265460D01*
X452039Y265063D01*
X452109Y264666D01*
X451713Y264596D01*
X451783Y264199D01*
X451386Y264129D01*
X451456Y263732D01*
X451526Y263336D01*
X451129Y263266D01*
X451199Y262869D01*
X451269Y262472D01*
X450872Y262402D01*
X450942Y262005D01*
X450545Y261935D01*
X450615Y261538D01*
X450685Y261141D01*
X450288Y261071D01*
X450358Y260674D01*
X449961Y260604D01*
X450031Y260208D01*
X449634Y260138D01*
X449704Y259741D01*
X449307Y259671D01*
X449377Y259274D01*
X448980Y259204D01*
X449050Y258807D01*
X448654Y258737D01*
X448724Y258340D01*
X448327Y258270D01*
X448397Y257873D01*
X448000Y257803D01*
X448070Y257406D01*
X447673Y257336D01*
X447743Y256940D01*
X446949Y256800D01*
X447019Y256403D01*
X446622Y256333D01*
X446692Y255936D01*
X446295Y255866D01*
X446365Y255469D01*
X445968Y255399D01*
X446038Y255002D01*
X443657Y254582D01*
X443587Y254979D01*
X443190Y254909D01*
X443120Y255306D01*
X443517Y255376D01*
X443447Y255773D01*
X443844Y255843D01*
X443774Y256240D01*
X444171Y256310D01*
X444101Y256707D01*
X444498Y256777D01*
X444428Y257173D01*
X446412Y257523D01*
X446342Y257920D01*
X446739Y257990D01*
X446669Y258387D01*
X447066Y258457D01*
X446996Y258854D01*
X447393Y258924D01*
X447323Y259321D01*
X447720Y259391D01*
X447650Y259788D01*
X448047Y259858D01*
X447977Y260255D01*
X448374Y260325D01*
X448304Y260721D01*
X448701Y260791D01*
X448631Y261188D01*
X449027Y261258D01*
X448957Y261655D01*
X448887Y262052D01*
X449284Y262122D01*
X449214Y262519D01*
X449611Y262589D01*
X449541Y262986D01*
X449471Y263383D01*
X449868Y263453D01*
X449798Y263849D01*
X449728Y264246D01*
X450125Y264316D01*
X450055Y264713D01*
X449985Y265110D01*
X450382Y265180D01*
X450312Y265577D01*
X450242Y265974D01*
X450172Y266371D01*
X450569Y266441D01*
X450499Y266837D01*
X450429Y267234D01*
X450359Y267631D01*
X450756Y267701D01*
X450686Y268098D01*
X450616Y268495D01*
X450546Y268892D01*
X450943Y268962D01*
X450873Y269359D01*
X450803Y269756D01*
X450733Y270152D01*
X450663Y270549D01*
X450593Y270946D01*
X450990Y271016D01*
X450920Y271413D01*
X450850Y271810D01*
X450780Y272207D01*
X450710Y272604D01*
X450640Y273000D01*
X450570Y273397D01*
X450500Y273794D01*
X450430Y274191D01*
X450360Y274588D01*
X450290Y274985D01*
X450220Y275382D01*
X450150Y275779D01*
X450080Y276175D01*
X450010Y276572D01*
X449940Y276969D01*
X449870Y277366D01*
X450267Y277436D01*
X450197Y277833D01*
X450127Y278230D01*
X450057Y278627D01*
X449987Y279024D01*
X449917Y279420D01*
X449847Y279817D01*
X449777Y280214D01*
X449707Y280611D01*
X449310Y280541D01*
X449240Y280938D01*
X449170Y281335D01*
X449100Y281732D01*
X449030Y282129D01*
X448960Y282525D01*
X448890Y282922D01*
X448820Y283319D01*
X448750Y283716D01*
X448680Y284113D01*
X448610Y284510D01*
X448540Y284907D01*
X448470Y285303D01*
X448074Y285233D01*
X448004Y285630D01*
X447934Y286027D01*
X447864Y286424D01*
X447794Y286821D01*
X447724Y287218D01*
X447654Y287615D01*
X447584Y288012D01*
X447514Y288408D01*
X447444Y288805D01*
X447374Y289202D01*
X446977Y289132D01*
X446907Y289529D01*
X446837Y289926D01*
X446767Y290323D01*
X446697Y290720D01*
X446627Y291116D01*
X446557Y291513D01*
X446487Y291910D01*
X446417Y292307D01*
X446347Y292704D01*
X445950Y292634D01*
X445880Y293031D01*
X445810Y293428D01*
X445740Y293825D01*
X445670Y294221D01*
X445600Y294618D01*
X445530Y295015D01*
X445460Y295412D01*
X445390Y295809D01*
X445320Y296206D01*
X444924Y296136D01*
X444854Y296533D01*
X444784Y296930D01*
X444714Y297326D01*
X444644Y297723D01*
X444574Y298120D01*
X444504Y298517D01*
X444434Y298914D01*
X444037Y298844D01*
X443967Y299241D01*
X443897Y299638D01*
X443827Y300035D01*
X443757Y300431D01*
X443687Y300828D01*
X443617Y301225D01*
X443547Y301622D01*
X443150Y301552D01*
X443080Y301949D01*
X443010Y302346D01*
X442940Y302743D01*
X442870Y303140D01*
X442800Y303537D01*
X442730Y303933D01*
X442660Y304330D01*
X442263Y304260D01*
X442193Y304657D01*
X442123Y305054D01*
X442054Y305451D01*
X441984Y305848D01*
X441914Y306245D01*
X441844Y306641D01*
X441447Y306572D01*
X441377Y306968D01*
X441307Y307365D01*
X441237Y307762D01*
X441167Y308159D01*
X441097Y308556D01*
X441027Y308953D01*
X440630Y308883D01*
X440560Y309280D01*
X440490Y309677D01*
X440420Y310073D01*
X440350Y310470D01*
X440280Y310867D01*
X439883Y310797D01*
X439813Y311194D01*
X439743Y311591D01*
X439673Y311988D01*
X439603Y312385D01*
X439533Y312781D01*
X439136Y312712D01*
X439066Y313108D01*
X438996Y313505D01*
X438926Y313902D01*
X438857Y314299D01*
X438787Y314696D01*
X438390Y314626D01*
X438320Y315023D01*
X438250Y315420D01*
X438180Y315816D01*
X438110Y316213D01*
X438040Y316610D01*
X437643Y316540D01*
X437573Y316937D01*
X437503Y317334D01*
X437433Y317731D01*
X437363Y318128D01*
X436966Y318058D01*
X436896Y318455D01*
X436826Y318851D01*
X436756Y319248D01*
X436686Y319645D01*
X436289Y319575D01*
X436219Y319972D01*
X436149Y320369D01*
X436079Y320766D01*
X436009Y321163D01*
X435939Y321560D01*
X435542Y321490D01*
X435472Y321886D01*
X435402Y322283D01*
X435333Y322680D01*
X435263Y323077D01*
X434866Y323007D01*
X434796Y323404D01*
X434726Y323801D01*
X434656Y324198D01*
X434259Y324128D01*
X434189Y324525D01*
X434119Y324921D01*
X434049Y325318D01*
X433979Y325715D01*
X433582Y325645D01*
X433512Y326042D01*
X433442Y326439D01*
X433372Y326836D01*
X433302Y327233D01*
X432905Y327163D01*
X432975Y326766D01*
X433045Y326369D01*
X433115Y325972D01*
X433185Y325575D01*
X433255Y325178D01*
X433325Y324781D01*
X433395Y324385D01*
X433465Y323988D01*
X433535Y323591D01*
X433605Y323194D01*
X433675Y322797D01*
X433745Y322400D01*
X433815Y322003D01*
X433885Y321606D01*
X433955Y321210D01*
X434025Y320813D01*
X434095Y320416D01*
X434165Y320019D01*
X434235Y319622D01*
X434305Y319225D01*
X434375Y318829D01*
X434445Y318432D01*
X434515Y318035D01*
X434585Y317638D01*
X434655Y317241D01*
X434725Y316844D01*
X434795Y316447D01*
X434865Y316050D01*
X434935Y315653D01*
X435005Y315257D01*
X435075Y314860D01*
X435145Y314463D01*
X435215Y314066D01*
X435285Y313669D01*
X435355Y313272D01*
X435425Y312875D01*
X435495Y312478D01*
X435565Y312082D01*
X435635Y311685D01*
X435705Y311288D01*
X435775Y310891D01*
X435844Y310494D01*
X435914Y310097D01*
X435984Y309700D01*
X436054Y309303D01*
X436124Y308907D01*
X436194Y308510D01*
X436264Y308113D01*
X436334Y307716D01*
X436404Y307319D01*
X436474Y306922D01*
X436544Y306525D01*
X436614Y306129D01*
X436684Y305732D01*
X436754Y305335D01*
X436824Y304938D01*
X436894Y304541D01*
X436964Y304144D01*
X437034Y303747D01*
X437104Y303350D01*
X437174Y302954D01*
X437244Y302557D01*
X437314Y302160D01*
X437384Y301763D01*
X437454Y301366D01*
X437524Y300969D01*
X437594Y300572D01*
X437664Y300175D01*
X437734Y299779D01*
X437804Y299382D01*
X437874Y298985D01*
X437944Y298588D01*
X438014Y298191D01*
X438084Y297794D01*
X438154Y297397D01*
X438224Y297001D01*
X438294Y296604D01*
X438364Y296207D01*
X438434Y295810D01*
X438504Y295413D01*
X438574Y295016D01*
X438644Y294619D01*
X438714Y294222D01*
X438784Y293826D01*
X438854Y293429D01*
X438457Y293359D01*
X438527Y292962D01*
X438597Y292565D01*
X438667Y292168D01*
X438737Y291771D01*
X438807Y291374D01*
X438877Y290978D01*
X438946Y290581D01*
X439016Y290184D01*
X439086Y289787D01*
X439156Y289390D01*
X439226Y288993D01*
X439296Y288596D01*
X439366Y288199D01*
X439436Y287803D01*
X439040Y287733D01*
X439110Y287336D01*
X439180Y286939D01*
X439249Y286542D01*
X439319Y286145D01*
X439389Y285748D01*
X439459Y285351D01*
X439529Y284955D01*
X439599Y284558D01*
X439669Y284161D01*
X439739Y283764D01*
X439342Y283694D01*
X439412Y283297D01*
X439482Y282900D01*
X439552Y282503D01*
X439622Y282106D01*
X439692Y281710D01*
X439762Y281313D01*
X439832Y280916D01*
X439435Y280846D01*
X439505Y280449D01*
X439575Y280052D01*
X439645Y279655D01*
X439715Y279258D01*
X439785Y278861D01*
X439855Y278465D01*
X439458Y278395D01*
X439528Y277998D01*
X439598Y277601D01*
X439668Y277204D01*
X439738Y276807D01*
X439341Y276737D01*
X439411Y276340D01*
X439481Y275943D01*
X439551Y275547D01*
X439621Y275150D01*
X439224Y275080D01*
X439294Y274683D01*
X439364Y274286D01*
X439434Y273889D01*
X439504Y273492D01*
X439108Y273422D01*
X439178Y273025D01*
X439248Y272628D01*
X439318Y272232D01*
X438921Y272162D01*
X438991Y271765D01*
X439061Y271368D01*
X439131Y270971D01*
X438734Y270901D01*
X438804Y270504D01*
X438874Y270107D01*
X438944Y269710D01*
X438547Y269640D01*
X438617Y269244D01*
X438687Y268847D01*
X438757Y268450D01*
X438827Y268053D01*
X438897Y267656D01*
X438967Y267259D01*
X438570Y267189D01*
X438640Y266792D01*
X438710Y266395D01*
X438780Y265999D01*
X438850Y265602D01*
X438920Y265205D01*
X438990Y264808D01*
X438593Y264738D01*
X438663Y264341D01*
X438733Y263944D01*
X438803Y263547D01*
X438873Y263151D01*
X438943Y262754D01*
X439013Y262357D01*
X438616Y262287D01*
X438686Y261890D01*
X438756Y261493D01*
X438826Y261096D01*
X438896Y260699D01*
X438966Y260302D01*
X439036Y259906D01*
X438639Y259836D01*
X438709Y259439D01*
X438779Y259042D01*
X438849Y258645D01*
X438919Y258248D01*
X438989Y257851D01*
X439059Y257454D01*
X439129Y257057D01*
X438732Y256988D01*
X438802Y256591D01*
X438872Y256194D01*
X438942Y255797D01*
X439012Y255400D01*
X439082Y255003D01*
X439152Y254606D01*
X439222Y254209D01*
X438825Y254139D01*
X438895Y253743D01*
X438965Y253346D01*
X439035Y252949D01*
X439105Y252552D01*
X439175Y252155D01*
X439245Y251758D01*
X439315Y251361D01*
X438918Y251291D01*
X438988Y250895D01*
X439058Y250498D01*
X439128Y250101D01*
X439198Y249704D01*
X439268Y249307D01*
X439338Y248910D01*
X439408Y248513D01*
X439477Y248116D01*
X439081Y248046D01*
X439151Y247650D01*
X439221Y247253D01*
X439291Y246856D01*
X439361Y246459D01*
X439431Y246062D01*
X439501Y245665D01*
X439571Y245268D01*
X439641Y244871D01*
X439711Y244475D01*
X439314Y244405D01*
X439384Y244008D01*
X439454Y243611D01*
X439524Y243214D01*
X439594Y242817D01*
X439664Y242420D01*
X439734Y242023D01*
X439804Y241627D01*
X439873Y241230D01*
X439943Y240833D01*
X440013Y240436D01*
X440083Y240039D01*
X440153Y239642D01*
X440223Y239245D01*
X440293Y238848D01*
X440363Y238452D01*
X440433Y238055D01*
X440503Y237658D01*
X440573Y237261D01*
X440643Y236864D01*
X440713Y236467D01*
X440783Y236070D01*
X440853Y235673D01*
X440923Y235277D01*
X441320Y235347D01*
X441390Y234950D01*
X441460Y234553D01*
X441530Y234156D01*
X441600Y233759D01*
X441997Y233829D01*
X442067Y233432D01*
X442137Y233035D01*
X442207Y232639D01*
X442277Y232242D01*
X442674Y232312D01*
X442744Y231915D01*
X442813Y231518D01*
X443210Y231588D01*
X443280Y231191D01*
X443350Y230794D01*
X443420Y230397D01*
X443817Y230467D01*
X443887Y230070D01*
X443957Y229674D01*
X444354Y229744D01*
X444424Y229347D01*
X444821Y229417D01*
X444891Y229020D01*
X445288Y229090D01*
X445358Y228693D01*
X445755Y228763D01*
X445825Y228366D01*
X446221Y228436D01*
X446291Y228039D01*
X446688Y228109D01*
X446758Y227712D01*
X446828Y227315D01*
X447622Y227455D01*
X447692Y227058D01*
X448486Y227198D01*
X448556Y226801D01*
X449349Y226941D01*
X449419Y226544D01*
X450213Y226684D01*
X450283Y226288D01*
X451474Y226498D01*
X451544Y226101D01*
X452338Y226241D01*
X452407Y225844D01*
X453598Y226054D01*
X453668Y225657D01*
X454462Y225797D01*
X454532Y225400D01*
X455326Y225540D01*
X455396Y225143D01*
X456586Y225353D01*
X456656Y224956D01*
X457450Y225096D01*
X457520Y224699D01*
X458314Y224839D01*
X458384Y224442D01*
X458780Y224512D01*
X458850Y224115D01*
X459247Y224185D01*
X459317Y223788D01*
X459714Y223858D01*
X459784Y223462D01*
X459387Y223392D01*
X459457Y222995D01*
X458663Y222855D01*
X458593Y223252D01*
X458197Y223182D01*
X458127Y223579D01*
X457730Y223509D01*
X457660Y223905D01*
X457263Y223835D01*
X457193Y224232D01*
X455605Y223952D01*
X455675Y223555D01*
X456072Y223625D01*
X456142Y223229D01*
X456539Y223299D01*
X456609Y222902D01*
X457006Y222972D01*
X457076Y222575D01*
X457473Y222645D01*
X457543Y222248D01*
X457613Y221851D01*
X453644Y221151D01*
X453574Y221548D01*
X451987Y221268D01*
X451917Y221665D01*
X450329Y221385D01*
X450259Y221782D01*
X448672Y221502D01*
X448602Y221899D01*
X447014Y221619D01*
X446944Y222016D01*
X445754Y221806D01*
X445684Y222203D01*
X444096Y221923D01*
X444026Y222320D01*
X442836Y222110D01*
X442766Y222507D01*
X441575Y222297D01*
X441505Y222694D01*
X440314Y222484D01*
X440244Y222881D01*
X439054Y222671D01*
X438984Y223068D01*
X437793Y222858D01*
X437723Y223254D01*
X436930Y223115D01*
X436860Y223512D01*
X436790Y223908D01*
X436720Y224305D01*
X436650Y224702D01*
X437046Y224772D01*
X436976Y225169D01*
X436906Y225566D01*
X436836Y225963D01*
X436766Y226360D01*
X437163Y226430D01*
X437093Y226826D01*
X437023Y227223D01*
X436953Y227620D01*
X436883Y228017D01*
X437280Y228087D01*
X437210Y228484D01*
X437140Y228881D01*
X437070Y229278D01*
X437000Y229674D01*
X436931Y230071D01*
X436861Y230468D01*
X437257Y230538D01*
X437187Y230935D01*
X437117Y231332D01*
X437047Y231729D01*
X436977Y232126D01*
X436907Y232523D01*
X436837Y232919D01*
X436767Y233316D01*
X437164Y233386D01*
X437094Y233783D01*
X437024Y234180D01*
X436954Y234577D01*
X436884Y234974D01*
X436814Y235371D01*
X436744Y235768D01*
X436674Y236164D01*
X436278Y236094D01*
X436208Y236491D01*
X436138Y236888D01*
X436068Y237285D01*
X435998Y237682D01*
X435928Y238079D01*
X435531Y238009D01*
X435461Y238406D01*
X435391Y238803D01*
X435321Y239199D01*
X435251Y239596D01*
X435181Y239993D01*
X434784Y239923D01*
X434714Y240320D01*
X434644Y240717D01*
X434574Y241114D01*
X434504Y241511D01*
X434434Y241908D01*
X434037Y241838D01*
X433967Y242234D01*
X433897Y242631D01*
X433827Y243028D01*
X433757Y243425D01*
X433687Y243822D01*
X433291Y243752D01*
X433221Y244149D01*
X433151Y244546D01*
X433081Y244942D01*
X433011Y245339D01*
X432614Y245269D01*
X432544Y245666D01*
X432474Y246063D01*
X432404Y246460D01*
X432334Y246857D01*
X432264Y247254D01*
X431867Y247184D01*
X431797Y247581D01*
X431727Y247977D01*
X431657Y248374D01*
X431587Y248771D01*
X431190Y248701D01*
X431120Y249098D01*
X431050Y249495D01*
X430980Y249892D01*
X430910Y250289D01*
X430840Y250686D01*
X430443Y250616D01*
X430373Y251012D01*
X430303Y251409D01*
X430233Y251806D01*
X430164Y252203D01*
X429767Y252133D01*
X429697Y252530D01*
X429627Y252927D01*
X429557Y253324D01*
X429487Y253721D01*
X429090Y253651D01*
X429020Y254047D01*
X428950Y254444D01*
X428880Y254841D01*
X428810Y255238D01*
X428740Y255635D01*
X428343Y255565D01*
X428273Y255962D01*
X428203Y256359D01*
X426219Y256009D01*
X426289Y255612D01*
X421130Y254702D01*
X421060Y255099D01*
X419472Y254819D01*
X419542Y254422D01*
X419612Y254026D01*
X419682Y253629D01*
X419752Y253232D01*
X419355Y253162D01*
X419425Y252765D01*
X419495Y252368D01*
X419565Y251971D01*
X419635Y251574D01*
X419238Y251504D01*
X419308Y251107D01*
X419378Y250711D01*
X419448Y250314D01*
X419518Y249917D01*
X419588Y249520D01*
X419191Y249450D01*
X419261Y249053D01*
X419331Y248656D01*
X419401Y248259D01*
X419471Y247862D01*
X419074Y247793D01*
X419144Y247396D01*
X419214Y246999D01*
X419284Y246602D01*
X419354Y246205D01*
X419424Y245808D01*
X419027Y245738D01*
X419097Y245341D01*
X419167Y244944D01*
X419237Y244548D01*
X419307Y244151D01*
X418910Y244081D01*
X418980Y243684D01*
X419050Y243287D01*
X419120Y242890D01*
X419190Y242493D01*
X419260Y242096D01*
X418863Y242026D01*
X418933Y241630D01*
X419003Y241233D01*
X419073Y240836D01*
X419143Y240439D01*
X418746Y240369D01*
X418816Y239972D01*
X418886Y239575D01*
X418956Y239178D01*
X419026Y238781D01*
X419096Y238385D01*
X418699Y238315D01*
X418769Y237918D01*
X418839Y237521D01*
X418909Y237124D01*
X418979Y236727D01*
X419049Y236330D01*
X418652Y236260D01*
X418722Y235863D01*
X418792Y235467D01*
X418862Y235070D01*
X418932Y234673D01*
X419002Y234276D01*
X418605Y234206D01*
X418675Y233809D01*
X418745Y233412D01*
X418815Y233015D01*
X418885Y232618D01*
X418955Y232222D01*
X419025Y231825D01*
X419095Y231428D01*
X419165Y231031D01*
X419235Y230634D01*
X419305Y230237D01*
X419375Y229840D01*
X419445Y229443D01*
X419515Y229047D01*
X419585Y228650D01*
X419655Y228253D01*
X420052Y228323D01*
X420122Y227926D01*
X420192Y227529D01*
X420262Y227132D01*
X420332Y226735D01*
X420402Y226339D01*
X420472Y225942D01*
X420869Y226012D01*
X420939Y225615D01*
X421009Y225218D01*
X421079Y224821D01*
X421149Y224424D01*
X421219Y224027D01*
X421616Y224097D01*
X421685Y223700D01*
X421755Y223304D01*
X421825Y222907D01*
X421895Y222510D01*
X422292Y222580D01*
X422362Y222183D01*
X422432Y221786D01*
X422502Y221389D01*
X422572Y220992D01*
X422642Y220595D01*
X421848Y220455D01*
X421918Y220058D01*
X420728Y219849D01*
X420798Y219452D01*
X420004Y219312D01*
X420074Y218915D01*
X418883Y218705D01*
X418953Y218308D01*
X417366Y218028D01*
X417436Y217631D01*
X416245Y217421D01*
X416315Y217024D01*
X415125Y216814D01*
X415195Y216418D01*
X413607Y216138D01*
X413677Y215741D01*
X412487Y215531D01*
X412556Y215134D01*
X410969Y214854D01*
X411039Y214457D01*
X409451Y214177D01*
X409521Y213780D01*
X407934Y213501D01*
X408004Y213104D01*
X404035Y212404D01*
X403965Y212801D01*
X403895Y213198D01*
X403825Y213595D01*
X404222Y213665D01*
X404152Y214061D01*
X404549Y214131D01*
X404479Y214528D01*
X404876Y214598D01*
X404806Y214995D01*
X403615Y214785D01*
X403685Y214388D01*
X403289Y214318D01*
X403358Y213921D01*
X402962Y213851D01*
X403032Y213455D01*
X402635Y213385D01*
X402705Y212988D01*
X401911Y212848D01*
X401841Y213245D01*
X401047Y213105D01*
X400977Y213502D01*
X401374Y213572D01*
X401304Y213968D01*
X401701Y214038D01*
X401631Y214435D01*
X402028Y214505D01*
X401958Y214902D01*
X402752Y215042D01*
X402682Y215439D01*
X403872Y215649D01*
X403802Y216046D01*
X404596Y216186D01*
X404526Y216583D01*
X405320Y216722D01*
X405250Y217119D01*
X406440Y217329D01*
X406370Y217726D01*
X407164Y217866D01*
X407094Y218263D01*
X408285Y218473D01*
X408215Y218870D01*
X409009Y219010D01*
X408939Y219407D01*
X409732Y219547D01*
X409662Y219943D01*
X410853Y220153D01*
X410783Y220550D01*
X411577Y220690D01*
X411507Y221087D01*
X411904Y221157D01*
X411834Y221554D01*
X412230Y221624D01*
X412160Y222021D01*
X412557Y222091D01*
X412487Y222488D01*
X412884Y222558D01*
X412814Y222955D01*
X413211Y223025D01*
X413141Y223421D01*
X413071Y223818D01*
X413468Y223888D01*
X413398Y224285D01*
X413795Y224355D01*
X413725Y224752D01*
X414122Y224822D01*
X414052Y225219D01*
X413982Y225616D01*
X413912Y226012D01*
X414309Y226082D01*
X414239Y226479D01*
X414169Y226876D01*
X414566Y226946D01*
X414496Y227343D01*
X414426Y227740D01*
X414356Y228137D01*
X414753Y228207D01*
X414683Y228604D01*
X414613Y229001D01*
X414543Y229397D01*
X414473Y229794D01*
X414870Y229864D01*
X414800Y230261D01*
X414730Y230658D01*
X414660Y231055D01*
X414590Y231452D01*
X414520Y231849D01*
X414917Y231919D01*
X414847Y232315D01*
X414777Y232712D01*
X414707Y233109D01*
X414637Y233506D01*
X414567Y233903D01*
X414497Y234300D01*
X414427Y234697D01*
X414357Y235094D01*
X414287Y235490D01*
X414217Y235887D01*
X414147Y236284D01*
X414077Y236681D01*
X413680Y236611D01*
X413610Y237008D01*
X413540Y237405D01*
X413470Y237802D01*
X413400Y238199D01*
X413330Y238595D01*
X413260Y238992D01*
X413190Y239389D01*
X413120Y239786D01*
X413050Y240183D01*
X412980Y240580D01*
X412910Y240977D01*
X412840Y241373D01*
X412443Y241303D01*
X412373Y241700D01*
X412303Y242097D01*
X412233Y242494D01*
X412163Y242891D01*
X412093Y243288D01*
X412023Y243685D01*
X411953Y244082D01*
X411883Y244479D01*
X411487Y244408D01*
X411417Y244805D01*
X411347Y245202D01*
X411277Y245599D01*
X411207Y245996D01*
X411137Y246393D01*
X411067Y246790D01*
X410997Y247187D01*
X410927Y247584D01*
X410530Y247514D01*
X410460Y247910D01*
X410390Y248307D01*
X410320Y248704D01*
X410250Y249101D01*
X410180Y249498D01*
X410110Y249895D01*
X410040Y250292D01*
X409643Y250222D01*
X409573Y250619D01*
X409503Y251015D01*
X409433Y251412D01*
X409363Y251809D01*
X409293Y252206D01*
X409223Y252603D01*
X409153Y253000D01*
X408756Y252930D01*
X408686Y253327D01*
X408617Y253724D01*
X408547Y254120D01*
X408477Y254517D01*
X408407Y254914D01*
X408337Y255311D01*
X407940Y255241D01*
X407870Y255638D01*
X407800Y256035D01*
X407730Y256432D01*
X407660Y256828D01*
X407590Y257225D01*
X407520Y257622D01*
X407123Y257552D01*
X407053Y257949D01*
X406983Y258346D01*
X406913Y258743D01*
X406843Y259140D01*
X406773Y259537D01*
X406703Y259933D01*
X406633Y260330D01*
X406236Y260260D01*
X406166Y260657D01*
X406096Y261054D01*
X406026Y261451D01*
X405956Y261848D01*
X405886Y262245D01*
X405489Y262175D01*
X405419Y262572D01*
X405350Y262968D01*
X405280Y263365D01*
X404883Y263295D01*
X404813Y263692D01*
X404743Y264089D01*
X404346Y264019D01*
X404276Y264416D01*
X404206Y264813D01*
X404136Y265210D01*
X403739Y265140D01*
X403669Y265537D01*
X403599Y265933D01*
X403529Y266330D01*
X403132Y266260D01*
X403062Y266657D01*
X402992Y267054D01*
X402922Y267451D01*
X402526Y267381D01*
X402456Y267778D01*
X402386Y268175D01*
X402316Y268572D01*
X402246Y268969D01*
X401849Y268899D01*
X401779Y269295D01*
X401709Y269692D01*
X401639Y270089D01*
X401569Y270486D01*
X401172Y270416D01*
X401102Y270813D01*
X401032Y271210D01*
X400962Y271607D01*
X400892Y272004D01*
X400822Y272400D01*
X400425Y272330D01*
X400355Y272727D01*
X400285Y273124D01*
X400215Y273521D01*
X400145Y273918D01*
X400075Y274315D01*
X400005Y274712D01*
X399608Y274642D01*
X399538Y275039D01*
X399468Y275435D01*
X399398Y275832D01*
X399328Y276229D01*
X399258Y276626D01*
X399188Y277023D01*
X399118Y277420D01*
X399048Y277817D01*
X398652Y277747D01*
X398582Y278144D01*
X398512Y278540D01*
X398442Y278937D01*
X398372Y279334D01*
X398302Y279731D01*
X398232Y280128D01*
X398162Y280525D01*
X398092Y280922D01*
X398022Y281318D01*
X397952Y281715D01*
X397882Y282112D01*
X397485Y282042D01*
X397415Y282439D01*
X397345Y282836D01*
X397275Y283233D01*
X397205Y283630D01*
X397135Y284027D01*
X397065Y284423D01*
X396995Y284820D01*
X396925Y285217D01*
X396855Y285614D01*
X396785Y286011D01*
X396715Y286408D01*
X396645Y286805D01*
X396575Y287202D01*
X396505Y287598D01*
X396435Y287995D01*
X396365Y288392D01*
X396295Y288789D01*
X396225Y289186D01*
X396156Y289583D01*
X396086Y289980D01*
X395689Y289910D01*
X395619Y290307D01*
X395549Y290703D01*
X395479Y291100D01*
X395409Y291497D01*
X395339Y291894D01*
X395269Y292291D01*
X395199Y292688D01*
X395129Y293085D01*
X395059Y293481D01*
X394989Y293878D01*
X394919Y294275D01*
X394849Y294672D01*
X394779Y295069D01*
X394709Y295466D01*
X394639Y295863D01*
X394569Y296260D01*
X394499Y296656D01*
X394429Y297053D01*
X394359Y297450D01*
X394289Y297847D01*
X394219Y298244D01*
X394149Y298641D01*
X394079Y299038D01*
X394009Y299435D01*
X393939Y299831D01*
X393869Y300228D01*
X393799Y300625D01*
X393729Y301022D01*
X393659Y301419D01*
X393589Y301816D01*
X393519Y302213D01*
X393449Y302609D01*
X393379Y303006D01*
X393309Y303403D01*
X393239Y303800D01*
X393169Y304197D01*
X393099Y304594D01*
X393029Y304991D01*
X392959Y305388D01*
X392889Y305785D01*
X392819Y306181D01*
X392750Y306578D01*
X392680Y306975D01*
X392610Y307372D01*
X392540Y307769D01*
X392470Y308166D01*
X392400Y308563D01*
X392330Y308960D01*
X392260Y309356D01*
X392190Y309753D01*
X392120Y310150D01*
X392050Y310547D01*
X391980Y310944D01*
X391910Y311341D01*
X391840Y311738D01*
X391770Y312134D01*
X391700Y312531D01*
X391630Y312928D01*
X391560Y313325D01*
X391490Y313722D01*
X391420Y314119D01*
X391350Y314516D01*
X391280Y314913D01*
X391210Y315309D01*
X391140Y315706D01*
X391070Y316103D01*
X391000Y316500D01*
X390603Y316430D01*
X390673Y316033D01*
X390743Y315636D01*
X390813Y315239D01*
X390883Y314843D01*
X390486Y314773D01*
X390556Y314376D01*
X390626Y313979D01*
X390696Y313582D01*
X390766Y313185D01*
X390836Y312788D01*
X390439Y312718D01*
X390509Y312321D01*
X390579Y311925D01*
X390649Y311528D01*
X390719Y311131D01*
X390322Y311061D01*
X390392Y310664D01*
X390462Y310267D01*
X390532Y309870D01*
X390602Y309473D01*
X390205Y309403D01*
X390275Y309006D01*
X390345Y308610D01*
X390415Y308213D01*
X390485Y307816D01*
X390555Y307419D01*
X390158Y307349D01*
X390228Y306952D01*
X390298Y306555D01*
X390368Y306158D01*
X390438Y305762D01*
X390508Y305365D01*
X390111Y305295D01*
X390181Y304898D01*
X390251Y304501D01*
X390321Y304104D01*
X390391Y303707D01*
X390461Y303310D01*
X390064Y303240D01*
X390134Y302843D01*
X390204Y302447D01*
X390274Y302050D01*
X390344Y301653D01*
X390414Y301256D01*
X390484Y300859D01*
X390087Y300789D01*
X390157Y300392D01*
X390227Y299995D01*
X390297Y299599D01*
X390367Y299202D01*
X390437Y298805D01*
X390040Y298735D01*
X390110Y298338D01*
X390180Y297941D01*
X390250Y297544D01*
X390320Y297147D01*
X390390Y296750D01*
X390460Y296354D01*
X390530Y295957D01*
X390133Y295887D01*
X390203Y295490D01*
X390273Y295093D01*
X390343Y294696D01*
X390413Y294299D01*
X390483Y293902D01*
X390553Y293506D01*
X390156Y293436D01*
X390226Y293039D01*
X390296Y292642D01*
X390366Y292245D01*
X390436Y291848D01*
X390506Y291451D01*
X390576Y291054D01*
X390646Y290657D01*
X390249Y290587D01*
X390319Y290191D01*
X390389Y289794D01*
X390459Y289397D01*
X390529Y289000D01*
X390599Y288603D01*
X390669Y288206D01*
X390739Y287809D01*
X390809Y287413D01*
X390412Y287343D01*
X390482Y286946D01*
X390552Y286549D01*
X390622Y286152D01*
X390692Y285755D01*
X390762Y285358D01*
X390832Y284961D01*
X390902Y284564D01*
X390972Y284168D01*
X390575Y284098D01*
X390645Y283701D01*
X390715Y283304D01*
X390785Y282907D01*
X390855Y282510D01*
X390925Y282113D01*
X390995Y281716D01*
X391065Y281319D01*
X391135Y280923D01*
X391205Y280526D01*
X390808Y280456D01*
X390878Y280059D01*
X390948Y279662D01*
X391018Y279265D01*
X391088Y278868D01*
X391158Y278471D01*
X391228Y278075D01*
X391298Y277678D01*
X391368Y277281D01*
X391438Y276884D01*
X391508Y276487D01*
X391578Y276090D01*
X391181Y276020D01*
X391251Y275623D01*
X391321Y275226D01*
X391391Y274830D01*
X391461Y274433D01*
X391531Y274036D01*
X391601Y273639D01*
X391671Y273242D01*
X391741Y272845D01*
X391811Y272448D01*
X391881Y272052D01*
X391951Y271655D01*
X392021Y271258D01*
X391624Y271188D01*
X391694Y270791D01*
X391764Y270394D01*
X391834Y269997D01*
X391904Y269600D01*
X391974Y269203D01*
X392044Y268807D01*
X392441Y268877D01*
X392511Y268480D01*
X392581Y268083D01*
X392651Y267686D01*
X392721Y267289D01*
X392791Y266892D01*
X392861Y266495D01*
X392931Y266098D01*
X393001Y265702D01*
X393071Y265305D01*
X393141Y264908D01*
X393211Y264511D01*
X393281Y264114D01*
X393351Y263717D01*
X393420Y263320D01*
X393490Y262923D01*
X393560Y262527D01*
X393957Y262597D01*
X394027Y262200D01*
X394097Y261803D01*
X394167Y261406D01*
X394237Y261009D01*
X394307Y260612D01*
X394704Y260682D01*
X394774Y260285D01*
X394844Y259888D01*
X394914Y259492D01*
X394984Y259095D01*
X395381Y259165D01*
X395451Y258768D01*
X395521Y258371D01*
X395591Y257974D01*
X395988Y258044D01*
X396058Y257647D01*
X396128Y257250D01*
X396525Y257320D01*
X396595Y256923D01*
X396664Y256526D01*
X397061Y256596D01*
X397131Y256200D01*
X397201Y255803D01*
X397598Y255873D01*
X397668Y255476D01*
X397738Y255079D01*
X398135Y255149D01*
X398205Y254752D01*
X398275Y254355D01*
X398672Y254425D01*
X398742Y254028D01*
X399139Y254098D01*
X399209Y253701D01*
X399605Y253771D01*
X399675Y253375D01*
X399745Y252978D01*
X400142Y253048D01*
X400212Y252651D01*
X400609Y252721D01*
X400679Y252324D01*
X401076Y252394D01*
X401146Y251997D01*
X401543Y252067D01*
X401613Y251670D01*
X402010Y251740D01*
X402080Y251343D01*
X403667Y251623D01*
X403737Y251226D01*
X404531Y251366D01*
X404601Y250969D01*
X405395Y251109D01*
X405465Y250712D01*
X405862Y250782D01*
X405931Y250386D01*
X406001Y249989D01*
X406398Y250059D01*
X406468Y249662D01*
X406071Y249592D01*
X406141Y249195D01*
X404157Y248845D01*
X404087Y249242D01*
X403293Y249102D01*
X403223Y249499D01*
X402826Y249429D01*
X402757Y249826D01*
X402360Y249756D01*
X402290Y250153D01*
X401893Y250083D01*
X401823Y250480D01*
X401426Y250410D01*
X401356Y250806D01*
X400959Y250736D01*
X400889Y251133D01*
X400095Y250993D01*
X400025Y251390D01*
X399628Y251320D01*
X399558Y251717D01*
X399162Y251647D01*
X399092Y252044D01*
X398695Y251974D01*
X398625Y252371D01*
X398555Y252768D01*
X398158Y252698D01*
X398088Y253095D01*
X397691Y253025D01*
X397621Y253421D01*
X397224Y253352D01*
X397154Y253748D01*
X396757Y253678D01*
X396687Y254075D01*
X396618Y254472D01*
X396221Y254402D01*
X396151Y254799D01*
X395754Y254729D01*
X395684Y255126D01*
X395614Y255523D01*
X395217Y255453D01*
X395147Y255850D01*
X395077Y256247D01*
X394680Y256177D01*
X394610Y256574D01*
X394540Y256970D01*
X394143Y256900D01*
X394073Y257297D01*
X394003Y257694D01*
X393606Y257624D01*
X393536Y258021D01*
X393140Y257951D01*
X393210Y257554D01*
X393280Y257157D01*
X393350Y256760D01*
X393420Y256364D01*
X393490Y255967D01*
X393886Y256037D01*
X393956Y255640D01*
X394026Y255243D01*
X394096Y254846D01*
X394166Y254449D01*
X394236Y254052D01*
X394306Y253656D01*
X394376Y253259D01*
X394773Y253329D01*
X394843Y252932D01*
X394913Y252535D01*
X394983Y252138D01*
X395053Y251741D01*
X395450Y251811D01*
X395520Y251414D01*
X395590Y251017D01*
X395660Y250620D01*
X396057Y250690D01*
X396127Y250294D01*
X396197Y249897D01*
X396593Y249967D01*
X396663Y249570D01*
X396733Y249173D01*
X397130Y249243D01*
X397200Y248846D01*
X397270Y248449D01*
X397667Y248519D01*
X397737Y248122D01*
X397807Y247725D01*
X398204Y247795D01*
X398274Y247398D01*
X398344Y247002D01*
X398741Y247072D01*
X398811Y246675D01*
X399605Y246815D01*
X399675Y246418D01*
X400071Y246488D01*
X400141Y246091D01*
X400538Y246161D01*
X400608Y245764D01*
X401005Y245834D01*
X401075Y245437D01*
X401472Y245507D01*
X401542Y245110D01*
X401939Y245180D01*
X402009Y244783D01*
X402079Y244387D01*
X402149Y243990D01*
X402219Y243593D01*
X400234Y243243D01*
X400164Y243640D01*
X399767Y243570D01*
X399697Y243967D01*
X398904Y243827D01*
X398834Y244223D01*
X398764Y244620D01*
X398367Y244550D01*
X398297Y244947D01*
X397900Y244877D01*
X397830Y245274D01*
X397760Y245671D01*
X397690Y246068D01*
X397620Y246465D01*
X397223Y246395D01*
X397153Y246792D01*
X396756Y246722D01*
X396687Y247119D01*
X396617Y247516D01*
X396220Y247446D01*
X396150Y247842D01*
X396080Y248239D01*
X395683Y248169D01*
X395613Y248566D01*
X395216Y248496D01*
X395146Y248893D01*
X395076Y249290D01*
X395006Y249687D01*
X394609Y249617D01*
X394539Y250014D01*
X394469Y250411D01*
X394072Y250341D01*
X394002Y250737D01*
X393932Y251134D01*
X393535Y251064D01*
X393465Y251461D01*
X393395Y251858D01*
X393325Y252255D01*
X392929Y252185D01*
X392859Y252582D01*
X392789Y252979D01*
X392719Y253376D01*
X392649Y253772D01*
X392252Y253702D01*
X392182Y254099D01*
X392112Y254496D01*
X392042Y254893D01*
X391972Y255290D01*
X391902Y255687D01*
X391832Y256084D01*
X391435Y256014D01*
X391365Y256411D01*
X391295Y256807D01*
X391225Y257204D01*
X391155Y257601D01*
X391085Y257998D01*
X391015Y258395D01*
X390618Y258325D01*
X390688Y257928D01*
X390758Y257531D01*
X390828Y257134D01*
X390431Y257064D01*
X390501Y256667D01*
X390571Y256271D01*
X390641Y255874D01*
X390711Y255477D01*
X390781Y255080D01*
X390851Y254683D01*
X390921Y254286D01*
X390991Y253889D01*
X391061Y253492D01*
X391131Y253096D01*
X391201Y252699D01*
X391271Y252302D01*
X391341Y251905D01*
X391411Y251508D01*
X391481Y251111D01*
X391551Y250714D01*
X391948Y250784D01*
X392018Y250388D01*
X392088Y249991D01*
X392158Y249594D01*
X392228Y249197D01*
X392625Y249267D01*
X392695Y248870D01*
X393092Y248940D01*
X393162Y248543D01*
X393559Y248613D01*
X393629Y248216D01*
X394025Y248286D01*
X394095Y247889D01*
X394492Y247959D01*
X394562Y247562D01*
X394632Y247166D01*
X394702Y246769D01*
X395099Y246839D01*
X395169Y246442D01*
X395239Y246045D01*
X394842Y245975D01*
X394912Y245578D01*
X394982Y245181D01*
X393791Y244971D01*
X393721Y245368D01*
X393325Y245298D01*
X393255Y245695D01*
X393185Y246092D01*
X392788Y246022D01*
X392718Y246419D01*
X392648Y246816D01*
X392251Y246746D01*
X392181Y247143D01*
X392111Y247539D01*
X392041Y247936D01*
X391644Y247866D01*
X391574Y248263D01*
X391504Y248660D01*
X391107Y248590D01*
X391037Y248987D01*
X390967Y249384D01*
X390897Y249781D01*
X390827Y250178D01*
X390430Y250108D01*
X390360Y250504D01*
X390290Y250901D01*
X390220Y251298D01*
X390151Y251695D01*
X390081Y252092D01*
X389684Y252022D01*
X389614Y252419D01*
X389544Y252816D01*
X389474Y253213D01*
X389404Y253609D01*
X389334Y254006D01*
X389264Y254403D01*
X389194Y254800D01*
X389124Y255197D01*
X389054Y255594D01*
X388984Y255991D01*
X388914Y256387D01*
X389311Y256457D01*
X389241Y256854D01*
X389171Y257251D01*
X389101Y257648D01*
X389031Y258045D01*
X388961Y258442D01*
X388891Y258839D01*
X389288Y258909D01*
X389218Y259306D01*
X389148Y259702D01*
X389078Y260099D01*
X389008Y260496D01*
X389405Y260566D01*
X389335Y260963D01*
X389265Y261360D01*
X389195Y261757D01*
X389592Y261827D01*
X389522Y262224D01*
X389452Y262620D01*
X389382Y263017D01*
X389312Y263414D01*
X389242Y263811D01*
X389172Y264208D01*
X389102Y264605D01*
X388705Y264535D01*
X388635Y264932D01*
X388565Y265329D01*
X388495Y265725D01*
X388892Y265795D01*
X388822Y266192D01*
X388752Y266589D01*
X388682Y266986D01*
X388612Y267383D01*
X388542Y267780D01*
X388472Y268177D01*
X388402Y268574D01*
X388332Y268970D01*
X388262Y269367D01*
X388192Y269764D01*
X388122Y270161D01*
X388052Y270558D01*
X387982Y270955D01*
X387912Y271352D01*
X387842Y271748D01*
X387772Y272145D01*
X387702Y272542D01*
X387632Y272939D01*
X387562Y273336D01*
X387492Y273733D01*
X387422Y274130D01*
X387352Y274527D01*
X387282Y274923D01*
X387212Y275320D01*
X387142Y275717D01*
X387072Y276114D01*
X387002Y276511D01*
X386932Y276908D01*
X386862Y277305D01*
X386792Y277702D01*
X386723Y278099D01*
X386653Y278495D01*
X386583Y278892D01*
X386513Y279289D01*
X386443Y279686D01*
X386373Y280083D01*
X386303Y280480D01*
X386233Y280877D01*
X386163Y281273D01*
X386093Y281670D01*
X386023Y282067D01*
X385953Y282464D01*
X385883Y282861D01*
X385813Y283258D01*
X385743Y283655D01*
X385673Y284051D01*
X385603Y284448D01*
X385533Y284845D01*
X385463Y285242D01*
X385393Y285639D01*
X385323Y286036D01*
X385253Y286433D01*
X385183Y286830D01*
X385113Y287227D01*
X385043Y287623D01*
X384973Y288020D01*
X384903Y288417D01*
X384833Y288814D01*
X384763Y289211D01*
X384693Y289608D01*
X384623Y290005D01*
X384553Y290402D01*
X384483Y290798D01*
X384413Y291195D01*
X384343Y291592D01*
X384273Y291989D01*
X384203Y292386D01*
X384133Y292783D01*
X384063Y293180D01*
X383993Y293576D01*
X384390Y293646D01*
X384320Y294043D01*
X384250Y294440D01*
X384180Y294837D01*
X384110Y295234D01*
X384040Y295631D01*
X383970Y296028D01*
X383900Y296425D01*
X383830Y296821D01*
X383760Y297218D01*
X383691Y297615D01*
X383621Y298012D01*
X383551Y298409D01*
X383481Y298806D01*
X383411Y299203D01*
X383341Y299600D01*
X383271Y299996D01*
X383667Y300066D01*
X383597Y300463D01*
X383527Y300860D01*
X383457Y301257D01*
X383388Y301654D01*
X383318Y302051D01*
X383248Y302448D01*
X383178Y302844D01*
X383108Y303241D01*
X383038Y303638D01*
X382968Y304035D01*
X382898Y304432D01*
X382828Y304829D01*
X383225Y304899D01*
X383155Y305296D01*
X383085Y305693D01*
X383015Y306089D01*
X382945Y306486D01*
X382875Y306883D01*
X382805Y307280D01*
X382735Y307677D01*
X382665Y308074D01*
X382595Y308471D01*
X382525Y308868D01*
X382922Y308937D01*
X382852Y309334D01*
X382782Y309731D01*
X382712Y310128D01*
X382642Y310525D01*
X382572Y310922D01*
X382502Y311319D01*
X382432Y311716D01*
X382362Y312112D01*
X382759Y312182D01*
X382689Y312579D01*
X382619Y312976D01*
X382549Y313373D01*
X382479Y313770D01*
X382409Y314167D01*
X382339Y314564D01*
X382269Y314961D01*
X382666Y315031D01*
X382596Y315427D01*
X382526Y315824D01*
X382456Y316221D01*
X382386Y316618D01*
X382316Y317015D01*
X382246Y317412D01*
X382176Y317809D01*
X382573Y317879D01*
X382503Y318275D01*
X382433Y318672D01*
X382363Y319069D01*
X382293Y319466D01*
X382223Y319863D01*
X382153Y320260D01*
X382550Y320330D01*
X382480Y320727D01*
X382410Y321124D01*
X382340Y321520D01*
X382270Y321917D01*
X382200Y322314D01*
X382597Y322384D01*
X382527Y322781D01*
X382457Y323178D01*
X382387Y323575D01*
X382317Y323972D01*
X382247Y324368D01*
X382177Y324765D01*
X382574Y324835D01*
X382504Y325232D01*
X382434Y325629D01*
X382364Y326026D01*
X382294Y326423D01*
X382224Y326820D01*
X382621Y326890D01*
X382551Y327287D01*
X382481Y327683D01*
X382411Y328080D01*
X382341Y328477D01*
X382738Y328547D01*
X382668Y328944D01*
X382598Y329341D01*
X382528Y329738D01*
X382458Y330135D01*
X382855Y330205D01*
X382785Y330601D01*
X382715Y330998D01*
X382645Y331395D01*
X382575Y331792D01*
X382972Y331862D01*
X382902Y332259D01*
X382832Y332656D01*
X382762Y333053D01*
X382692Y333450D01*
X383088Y333519D01*
X383018Y333916D01*
X382948Y334313D01*
X382879Y334710D01*
X382809Y335107D01*
X383206Y335177D01*
X383136Y335574D01*
X383066Y335971D01*
X382996Y336368D01*
X382926Y336764D01*
X383322Y336834D01*
X383252Y337231D01*
X383183Y337628D01*
X383113Y338025D01*
X383509Y338095D01*
X383439Y338492D01*
X383369Y338889D01*
X383299Y339286D01*
X383696Y339355D01*
X383626Y339752D01*
X383556Y340149D01*
X383486Y340546D01*
X383883Y340616D01*
X383813Y341013D01*
X383743Y341410D01*
X383673Y341807D01*
X384070Y341877D01*
X384000Y342274D01*
X383930Y342670D01*
X383860Y343067D01*
X384257Y343137D01*
X384187Y343534D01*
X384117Y343931D01*
X384047Y344328D01*
X384444Y344398D01*
X384374Y344795D01*
X384304Y345192D01*
X384234Y345588D01*
X384631Y345658D01*
X384561Y346055D01*
X384491Y346452D01*
X384888Y346522D01*
X384818Y346919D01*
X384748Y347316D01*
X384678Y347713D01*
X385075Y347783D01*
X385005Y348180D01*
X384935Y348576D01*
X385332Y348646D01*
X385262Y349043D01*
X385192Y349440D01*
X385589Y349510D01*
X385519Y349907D01*
X385449Y350304D01*
X385379Y350701D01*
X385776Y350771D01*
X385706Y351168D01*
X385636Y351565D01*
X386033Y351635D01*
X385963Y352031D01*
X385893Y352428D01*
X386289Y352498D01*
X386219Y352895D01*
X386149Y353292D01*
X386546Y353362D01*
X386476Y353759D01*
X386406Y354156D01*
X386803Y354226D01*
X386733Y354623D01*
X386663Y355019D01*
X387060Y355089D01*
X386990Y355486D01*
X386920Y355883D01*
X387317Y355953D01*
X387247Y356350D01*
X387644Y356420D01*
X387574Y356817D01*
X387504Y357214D01*
X387901Y357284D01*
X387831Y357681D01*
X387761Y358078D01*
X388158Y358148D01*
X388088Y358544D01*
X388018Y358941D01*
X388415Y359011D01*
X388345Y359408D01*
X388742Y359478D01*
X388672Y359875D01*
X388602Y360272D01*
X388999Y360342D01*
X388929Y360739D01*
X389325Y360809D01*
X389255Y361206D01*
X389185Y361602D01*
X389582Y361672D01*
X389512Y362069D01*
X389909Y362139D01*
X389839Y362536D01*
X390236Y362606D01*
X390166Y363003D01*
X390096Y363400D01*
X390493Y363470D01*
X390423Y363867D01*
X390820Y363937D01*
X390750Y364334D01*
X391147Y364403D01*
X391077Y364800D01*
X391007Y365197D01*
X391404Y365267D01*
X391334Y365664D01*
X391730Y365734D01*
X391661Y366131D01*
X392057Y366201D01*
X391987Y366598D01*
X392384Y366668D01*
X392314Y367065D01*
X392711Y367135D01*
X392641Y367531D01*
X392571Y367928D01*
X392968Y367998D01*
X392898Y368395D01*
X392828Y368792D01*
X393225Y368862D01*
X393155Y369259D01*
X393085Y369656D01*
X393482Y369726D01*
X393412Y370123D01*
X393809Y370193D01*
X393739Y370589D01*
X393669Y370986D01*
X394066Y371056D01*
X393996Y371453D01*
X393926Y371850D01*
X394323Y371920D01*
X394253Y372317D01*
X394650Y372387D01*
X394580Y372784D01*
X394976Y372854D01*
X394906Y373251D01*
X394836Y373647D01*
X395233Y373717D01*
X395163Y374114D01*
X395560Y374184D01*
X395490Y374581D01*
X395420Y374978D01*
X395817Y375048D01*
X395747Y375445D01*
X395677Y375842D01*
X396074Y375912D01*
X396004Y376309D01*
X395934Y376706D01*
X396331Y376775D01*
X396261Y377172D01*
X396191Y377569D01*
X396121Y377966D01*
X396518Y378036D01*
X396448Y378433D01*
X396378Y378830D01*
X396308Y379227D01*
X396705Y379297D01*
X396635Y379694D01*
X396565Y380090D01*
X396495Y380487D01*
X396892Y380557D01*
X396822Y380954D01*
X396752Y381351D01*
X396682Y381748D01*
X396612Y382145D01*
X397009Y382215D01*
X396939Y382611D01*
X396869Y383008D01*
X396799Y383405D01*
X396729Y383802D01*
X396659Y384199D01*
X396589Y384596D01*
X396986Y384666D01*
X396916Y385063D01*
X396846Y385460D01*
X396776Y385857D01*
X396706Y386253D01*
X396636Y386650D01*
X396566Y387047D01*
X396496Y387444D01*
X396426Y387841D01*
X396356Y388238D01*
X396286Y388635D01*
X396683Y388705D01*
X396613Y389101D01*
X396543Y389498D01*
X396473Y389895D01*
X396403Y390292D01*
X396333Y390689D01*
X396263Y391086D01*
X395866Y391016D01*
X395796Y391413D01*
X395726Y391810D01*
X395656Y392206D01*
X395586Y392603D01*
X395516Y393000D01*
X395446Y393397D01*
X395376Y393794D01*
X395306Y394191D01*
X395236Y394588D01*
X394839Y394518D01*
X394769Y394915D01*
X394699Y395311D01*
X394630Y395708D01*
X394560Y396105D01*
X391385Y395545D01*
X391315Y395942D01*
X387346Y395242D01*
X387276Y395639D01*
X384101Y395079D01*
X384031Y395476D01*
X382047Y395126D01*
X381977Y395523D01*
X379992Y395173D01*
X379922Y395570D01*
X377938Y395220D01*
X377868Y395617D01*
X376280Y395337D01*
X376210Y395734D01*
X374623Y395454D01*
X374553Y395851D01*
X373362Y395641D01*
X373292Y396038D01*
X372102Y395828D01*
X372032Y396225D01*
X370841Y396015D01*
X370771Y396412D01*
X369977Y396272D01*
X369907Y396669D01*
X368717Y396459D01*
X368647Y396856D01*
X367853Y396716D01*
X367783Y397113D01*
X366593Y396903D01*
X366523Y397300D01*
X365729Y397160D01*
X365659Y397557D01*
X364865Y397417D01*
X364795Y397814D01*
X364001Y397674D01*
X363931Y398070D01*
X363535Y398000D01*
X363465Y398397D01*
X362671Y398257D01*
X362601Y398654D01*
X361807Y398514D01*
X361737Y398911D01*
X361340Y398841D01*
X361270Y399238D01*
X360477Y399098D01*
X360407Y399495D01*
X360010Y399425D01*
X359940Y399822D01*
X359543Y399752D01*
X359473Y400149D01*
X359076Y400079D01*
X359006Y400476D01*
X358212Y400336D01*
X358142Y400733D01*
X357745Y400663D01*
X357676Y401059D01*
X357279Y400989D01*
X357209Y401386D01*
X356812Y401316D01*
X356742Y401713D01*
X356672Y402110D01*
X356275Y402040D01*
X356205Y402437D01*
X355808Y402367D01*
X355738Y402764D01*
X355341Y402694D01*
X355271Y403091D01*
X355201Y403488D01*
X354804Y403418D01*
X354734Y403815D01*
X354338Y403745D01*
X354268Y404141D01*
X354198Y404538D01*
X353801Y404468D01*
X353731Y404865D01*
X353661Y405262D01*
X353591Y405659D01*
X353194Y405589D01*
X353124Y405986D01*
X353054Y406383D01*
X352984Y406779D01*
X352914Y407176D01*
X352844Y407573D01*
X352774Y407970D01*
X352377Y407900D01*
X352307Y408297D01*
X352704Y408367D01*
X352634Y408764D01*
X352564Y409161D01*
X352494Y409558D01*
X352424Y409954D01*
X352354Y410351D01*
X352284Y410748D01*
X352681Y410818D01*
X352611Y411215D01*
X352541Y411612D01*
X352938Y411682D01*
X352868Y412079D01*
X352471Y412009D01*
X352401Y412406D01*
X352004Y412336D01*
X351934Y412733D01*
X351537Y412663D01*
X351467Y413059D01*
X351071Y412990D01*
X351001Y413386D01*
X350604Y413316D01*
X350534Y413713D01*
X350464Y414110D01*
X350067Y414040D01*
X349997Y414437D01*
X349600Y414367D01*
X349530Y414764D01*
X349133Y414694D01*
X349063Y415091D01*
X348666Y415021D01*
X348596Y415418D01*
X348200Y415348D01*
X348130Y415744D01*
X347733Y415675D01*
X347663Y416072D01*
X347266Y416002D01*
X347196Y416398D01*
X346799Y416328D01*
X346729Y416725D01*
X346332Y416655D01*
X346262Y417052D01*
X345865Y416982D01*
X345795Y417379D01*
X345398Y417309D01*
X345328Y417706D01*
X344932Y417636D01*
X344862Y418033D01*
X344465Y417963D01*
X344395Y418360D01*
X343998Y418290D01*
X343928Y418687D01*
X343531Y418617D01*
X343461Y419014D01*
X343064Y418944D01*
X342994Y419340D01*
X342597Y419270D01*
X342527Y419667D01*
X342457Y420064D01*
X342060Y419994D01*
X341990Y420391D01*
X341594Y420321D01*
X341524Y420718D01*
X341127Y420648D01*
X341057Y421045D01*
X340660Y420975D01*
X340590Y421372D01*
X339796Y421232D01*
X339866Y420835D01*
X339469Y420765D01*
X339539Y420368D01*
X339142Y420298D01*
X339212Y419901D01*
X338419Y419761D01*
X338489Y419364D01*
X337695Y419224D01*
X337765Y418827D01*
X336971Y418688D01*
X337041Y418291D01*
X335851Y418081D01*
X335781Y418478D01*
X335711Y418875D01*
X335641Y419271D01*
X336037Y419341D01*
X335967Y419738D01*
X335897Y420135D01*
X336294Y420205D01*
X336224Y420602D01*
X336154Y420999D01*
X336551Y421069D01*
X336481Y421466D01*
X336878Y421536D01*
X336808Y421933D01*
X336738Y422329D01*
X337135Y422399D01*
X337065Y422796D01*
X337462Y422866D01*
X337392Y423263D01*
X337789Y423333D01*
X337719Y423730D01*
X338116Y423800D01*
X338046Y424197D01*
X338443Y424267D01*
X338373Y424664D01*
X338770Y424734D01*
X338700Y425131D01*
X339493Y425270D01*
X339423Y425667D01*
X339820Y425737D01*
X339750Y426134D01*
X340147Y426204D01*
X340077Y426601D01*
X340871Y426741D01*
X340801Y427138D01*
X341595Y427278D01*
X341525Y427675D01*
X342715Y427885D01*
X342785Y427488D01*
X343182Y427558D01*
X343252Y427161D01*
X342855Y427091D01*
X342925Y426694D01*
X342995Y426297D01*
X342598Y426227D01*
X342668Y425830D01*
X342738Y425433D01*
X342341Y425363D01*
X342411Y424966D01*
X342481Y424570D01*
X342084Y424500D01*
X342154Y424103D01*
X341757Y424033D01*
X341828Y423636D01*
X341431Y423566D01*
X341501Y423169D01*
X341104Y423099D01*
X341174Y422702D01*
X341571Y422772D01*
X341641Y422375D01*
X342037Y422445D01*
X342107Y422049D01*
X342504Y422119D01*
X342574Y421722D01*
X342971Y421792D01*
X343041Y421395D01*
X343438Y421465D01*
X343508Y421068D01*
X343905Y421138D01*
X343975Y420741D01*
X344372Y420811D01*
X344442Y420414D01*
X344839Y420484D01*
X344908Y420087D01*
X345305Y420157D01*
X345375Y419760D01*
X345772Y419830D01*
X345842Y419433D01*
X346239Y419503D01*
X346309Y419106D01*
X346706Y419176D01*
X346776Y418780D01*
X347173Y418850D01*
X347243Y418453D01*
X347640Y418523D01*
X347710Y418126D01*
X348107Y418196D01*
X348177Y417799D01*
X348573Y417869D01*
X348643Y417472D01*
X349040Y417542D01*
X349110Y417145D01*
X349507Y417215D01*
X349577Y416818D01*
X349974Y416888D01*
X350044Y416491D01*
X350441Y416561D01*
X350511Y416164D01*
X350908Y416234D01*
X350978Y415837D01*
X351374Y415907D01*
X351444Y415511D01*
X351841Y415581D01*
X351911Y415184D01*
X352308Y415254D01*
X352378Y414857D01*
X352775Y414927D01*
X352845Y414530D01*
X353242Y414600D01*
X353312Y414203D01*
X353709Y414273D01*
X353639Y414670D01*
X354036Y414740D01*
X353966Y415137D01*
X354363Y415207D01*
X354292Y415604D01*
X354689Y415674D01*
X354619Y416071D01*
X355016Y416141D01*
X354946Y416537D01*
X355343Y416607D01*
X355273Y417004D01*
X355670Y417074D01*
X355600Y417471D01*
X355997Y417541D01*
X355927Y417938D01*
X356324Y418008D01*
X356254Y418405D01*
X357048Y418545D01*
X356978Y418942D01*
X357375Y419011D01*
X357305Y419408D01*
X357701Y419478D01*
X357631Y419875D01*
X358425Y420015D01*
X358355Y420412D01*
X358752Y420482D01*
X358682Y420879D01*
X359476Y421019D01*
X359406Y421416D01*
X360199Y421556D01*
X360130Y421953D01*
X360923Y422092D01*
X360853Y422489D01*
X361647Y422629D01*
X361577Y423026D01*
X362371Y423166D01*
X362301Y423563D01*
X363095Y423703D01*
X363025Y424100D01*
X364215Y424310D01*
X364145Y424707D01*
X364939Y424847D01*
X364869Y425244D01*
X366060Y425454D01*
X365990Y425850D01*
X367180Y426060D01*
X367110Y426457D01*
X368301Y426667D01*
X368231Y427064D01*
X369422Y427274D01*
X369352Y427671D01*
X370939Y427951D01*
X370869Y428348D01*
X372457Y428627D01*
X372387Y429024D01*
X374371Y429374D01*
X374301Y429771D01*
X376285Y430121D01*
X376215Y430518D01*
X378596Y430938D01*
X378526Y431335D01*
X381701Y431894D01*
X381631Y432291D01*
X386791Y433201D01*
X386721Y433598D01*
X396643Y435347D01*
X396713Y434950D01*
X401475Y435790D01*
X401545Y435393D01*
X404720Y435953D01*
X404790Y435556D01*
X407171Y435976D01*
X407241Y435579D01*
X409622Y435999D01*
X409692Y435602D01*
X411280Y435882D01*
X411350Y435485D01*
X412937Y435765D01*
X413007Y435368D01*
X414595Y435648D01*
X414665Y435252D01*
X416252Y435531D01*
X416322Y435135D01*
X417513Y435345D01*
X417583Y434948D01*
X418773Y435157D01*
X418843Y434761D01*
X419637Y434901D01*
X419707Y434504D01*
X420898Y434714D01*
X420968Y434317D01*
X421762Y434457D01*
X421832Y434060D01*
X423022Y434270D01*
X423092Y433873D01*
X423886Y434013D01*
X423956Y433616D01*
X424750Y433756D01*
X424820Y433359D01*
X425613Y433499D01*
X425683Y433102D01*
X426080Y433172D01*
X426150Y432775D01*
X426944Y432915D01*
X427014Y432518D01*
X427808Y432658D01*
X427878Y432262D01*
X428274Y432332D01*
X428344Y431935D01*
X429138Y432075D01*
X429208Y431678D01*
X429605Y431748D01*
X429675Y431351D01*
X430072Y431421D01*
X430142Y431024D01*
X430935Y431164D01*
X431005Y430767D01*
X431402Y430837D01*
X431472Y430440D01*
X431869Y430510D01*
X431939Y430113D01*
X432336Y430183D01*
X432406Y429786D01*
X432803Y429856D01*
X432873Y429459D01*
X433270Y429529D01*
X433340Y429133D01*
X433737Y429203D01*
X433807Y428806D01*
X434203Y428876D01*
X434133Y429273D01*
X434530Y429343D01*
X434460Y429739D01*
X434857Y429809D01*
X434787Y430206D01*
X435184Y430276D01*
X435114Y430673D01*
X435511Y430743D01*
X435441Y431140D01*
X435838Y431210D01*
X435768Y431607D01*
X436165Y431677D01*
X436095Y432074D01*
X436492Y432144D01*
X436422Y432541D01*
X436819Y432611D01*
X436749Y433007D01*
X437146Y433077D01*
X437076Y433474D01*
X437472Y433544D01*
X437402Y433941D01*
X437799Y434011D01*
X437729Y434408D01*
X438126Y434478D01*
X438056Y434875D01*
X438453Y434945D01*
X438383Y435342D01*
X438780Y435412D01*
X438710Y435808D01*
X439107Y435878D01*
X439037Y436275D01*
X439434Y436345D01*
X439364Y436742D01*
X439761Y436812D01*
X439691Y437209D01*
X440088Y437279D01*
X440018Y437676D01*
X440414Y437746D01*
X440344Y438143D01*
X440741Y438213D01*
X440671Y438610D01*
X441068Y438680D01*
X440998Y439076D01*
X441395Y439146D01*
X441325Y439543D01*
X441722Y439613D01*
X441652Y440010D01*
X442049Y440080D01*
X441979Y440477D01*
X441909Y440874D01*
X441512Y440804D01*
X441442Y441201D01*
X441372Y441598D01*
X440975Y441528D01*
X440905Y441924D01*
X440508Y441854D01*
X440438Y442251D01*
X440041Y442181D01*
X439971Y442578D01*
X439902Y442975D01*
X439505Y442905D01*
X439435Y443302D01*
X439365Y443699D01*
X438968Y443629D01*
X438898Y444026D01*
X438828Y444423D01*
X438758Y444819D01*
X440345Y445099D01*
X440415Y444702D01*
D02*
G37*
G36*
X352062Y233366D02*
X352548Y233320D01*
X352987Y233204D01*
X353427Y233088D01*
X353820Y232949D01*
X354214Y232787D01*
X354561Y232625D01*
X354861Y232440D01*
X355162Y232255D01*
X355417Y232093D01*
X355625Y231931D01*
X355810Y231792D01*
X355972Y231677D01*
X356065Y231584D01*
X356134Y231515D01*
X356157Y231491D01*
X356481Y231121D01*
X356782Y230751D01*
X357037Y230381D01*
X357245Y229987D01*
X357430Y229594D01*
X357569Y229224D01*
X357708Y228854D01*
X357800Y228506D01*
X357870Y228183D01*
X357939Y227882D01*
X357962Y227604D01*
X358009Y227373D01*
Y227187D01*
X358032Y227049D01*
Y226956D01*
Y226933D01*
X358009Y226447D01*
X357939Y225984D01*
X357846Y225521D01*
X357731Y225105D01*
X357592Y224688D01*
X357430Y224318D01*
X357268Y223971D01*
X357083Y223647D01*
X356921Y223369D01*
X356759Y223115D01*
X356597Y222907D01*
X356458Y222721D01*
X356319Y222559D01*
X356227Y222467D01*
X356180Y222397D01*
X356157Y222374D01*
X355787Y222050D01*
X355417Y221750D01*
X355023Y221495D01*
X354630Y221287D01*
X354260Y221102D01*
X353866Y220963D01*
X353496Y220824D01*
X353149Y220731D01*
X352825Y220662D01*
X352524Y220593D01*
X352247Y220569D01*
X352015Y220523D01*
X351830D01*
X351691Y220500D01*
X351344D01*
X351136Y220523D01*
X350928D01*
X350951Y222467D01*
X351159Y222444D01*
X351367Y222421D01*
X351576D01*
X351876Y222444D01*
X352154Y222467D01*
X352686Y222583D01*
X353172Y222745D01*
X353589Y222930D01*
X353936Y223092D01*
X354075Y223184D01*
X354190Y223254D01*
X354306Y223323D01*
X354376Y223369D01*
X354399Y223416D01*
X354422D01*
X354838Y223809D01*
X355185Y224249D01*
X355463Y224665D01*
X355671Y225082D01*
X355810Y225429D01*
X355880Y225591D01*
X355926Y225730D01*
X355949Y225822D01*
X355972Y225915D01*
X355995Y225961D01*
Y225984D01*
X352223D01*
Y227905D01*
X355995D01*
X355833Y228460D01*
X355602Y228969D01*
X355347Y229409D01*
X355093Y229779D01*
X354838Y230080D01*
X354630Y230288D01*
X354468Y230427D01*
X354445Y230473D01*
X354422D01*
X354190Y230659D01*
X353936Y230797D01*
X353450Y231052D01*
X352964Y231237D01*
X352524Y231353D01*
X352154Y231422D01*
X351992Y231445D01*
X351853D01*
X351738Y231468D01*
X351344D01*
X351136Y231445D01*
X350974Y231422D01*
X350928D01*
Y233366D01*
X351182Y233389D01*
X351576D01*
X352062Y233366D01*
D02*
G37*
G36*
X363030D02*
X363516Y233320D01*
X363955Y233204D01*
X364395Y233088D01*
X364789Y232949D01*
X365182Y232787D01*
X365529Y232625D01*
X365830Y232440D01*
X366131Y232255D01*
X366385Y232093D01*
X366593Y231931D01*
X366779Y231792D01*
X366940Y231677D01*
X367033Y231584D01*
X367103Y231515D01*
X367126Y231491D01*
X367450Y231121D01*
X367750Y230751D01*
X368005Y230381D01*
X368213Y229987D01*
X368398Y229594D01*
X368537Y229224D01*
X368676Y228854D01*
X368769Y228506D01*
X368838Y228183D01*
X368907Y227882D01*
X368931Y227604D01*
X368977Y227373D01*
Y227187D01*
X369000Y227049D01*
Y226956D01*
Y226933D01*
X368977Y226447D01*
X368907Y225984D01*
X368815Y225521D01*
X368699Y225105D01*
X368560Y224688D01*
X368398Y224318D01*
X368236Y223971D01*
X368051Y223647D01*
X367889Y223369D01*
X367727Y223115D01*
X367565Y222907D01*
X367426Y222721D01*
X367288Y222559D01*
X367195Y222467D01*
X367149Y222397D01*
X367126Y222374D01*
X366755Y222050D01*
X366385Y221750D01*
X365992Y221495D01*
X365598Y221287D01*
X365228Y221102D01*
X364835Y220963D01*
X364465Y220824D01*
X364118Y220731D01*
X363793Y220662D01*
X363493Y220593D01*
X363215Y220569D01*
X362984Y220523D01*
X362799D01*
X362660Y220500D01*
X362313D01*
X362104Y220523D01*
X361896D01*
Y222467D01*
X362127Y222444D01*
X362336Y222421D01*
X362544D01*
X362891Y222444D01*
X363215Y222467D01*
X363539Y222536D01*
X363840Y222629D01*
X364372Y222837D01*
X364835Y223092D01*
X365043Y223207D01*
X365228Y223323D01*
X365367Y223439D01*
X365506Y223531D01*
X365598Y223624D01*
X365668Y223693D01*
X365714Y223716D01*
X365737Y223740D01*
X365969Y223994D01*
X366177Y224272D01*
X366339Y224526D01*
X366501Y224804D01*
X366617Y225082D01*
X366732Y225336D01*
X366894Y225845D01*
X366987Y226285D01*
X367010Y226470D01*
X367033Y226632D01*
X367056Y226748D01*
Y226840D01*
Y226910D01*
Y226933D01*
X367033Y227280D01*
X367010Y227604D01*
X366940Y227928D01*
X366848Y228229D01*
X366640Y228761D01*
X366385Y229224D01*
X366269Y229432D01*
X366154Y229617D01*
X366038Y229756D01*
X365946Y229895D01*
X365853Y229987D01*
X365784Y230057D01*
X365760Y230103D01*
X365737Y230126D01*
X365483Y230358D01*
X365228Y230566D01*
X364950Y230751D01*
X364673Y230913D01*
X364418Y231029D01*
X364141Y231144D01*
X363655Y231306D01*
X363215Y231399D01*
X363007Y231422D01*
X362868Y231445D01*
X362729Y231468D01*
X362313D01*
X362104Y231445D01*
X361942Y231422D01*
X361896D01*
Y233366D01*
X362104Y233389D01*
X362544D01*
X363030Y233366D01*
D02*
G37*
%LPC*%
G36*
X332489Y235113D02*
X332328D01*
X331656Y235090D01*
X331032Y234997D01*
X330407Y234881D01*
X329852Y234719D01*
X329296Y234511D01*
X328787Y234303D01*
X328324Y234071D01*
X327885Y233840D01*
X327514Y233586D01*
X327167Y233354D01*
X326866Y233146D01*
X326635Y232938D01*
X326427Y232776D01*
X326288Y232660D01*
X326195Y232567D01*
X326172Y232544D01*
X325733Y232058D01*
X325339Y231549D01*
X324992Y231040D01*
X324691Y230508D01*
X324460Y229999D01*
X324252Y229490D01*
X324090Y228981D01*
X323951Y228518D01*
X323835Y228078D01*
X323766Y227662D01*
X323696Y227315D01*
X323673Y226991D01*
X323650Y226736D01*
X323627Y226551D01*
Y226435D01*
Y226389D01*
X323650Y225718D01*
X323743Y225093D01*
X323858Y224492D01*
X324020Y223913D01*
X324205Y223358D01*
X324437Y222849D01*
X324668Y222386D01*
X324900Y221969D01*
X325131Y221576D01*
X325362Y221229D01*
X325571Y220928D01*
X325779Y220696D01*
X325840Y220618D01*
X325825Y220604D01*
X325999Y220419D01*
X326057Y220349D01*
X326149Y220257D01*
X326172Y220234D01*
X325999Y220419D01*
X325941Y220488D01*
X325840Y220618D01*
X328509Y223288D01*
X328370Y223381D01*
X328255Y223473D01*
X328162Y223543D01*
X328139Y223566D01*
X327885Y223844D01*
X327699Y224167D01*
X327561Y224468D01*
X327468Y224769D01*
X327422Y225024D01*
X327376Y225232D01*
Y225371D01*
Y225394D01*
Y225417D01*
X327399Y225764D01*
X327445Y226088D01*
X327537Y226343D01*
X327607Y226574D01*
X327699Y226759D01*
X327792Y226875D01*
X327838Y226968D01*
X327861Y226991D01*
X328047Y227176D01*
X328255Y227315D01*
X328440Y227430D01*
X328625Y227500D01*
X328787Y227546D01*
X328903Y227569D01*
X329018D01*
X329296Y227523D01*
X329551Y227430D01*
X329782Y227291D01*
X329967Y227130D01*
X330152Y226968D01*
X330268Y226829D01*
X330361Y226736D01*
X330384Y226690D01*
Y229814D01*
X330592D01*
X331888Y229281D01*
X331818Y229119D01*
X331680Y229166D01*
X331587Y229189D01*
X331494D01*
X331356Y229166D01*
X331332Y229143D01*
X331309D01*
X331263Y229073D01*
X331217Y229004D01*
X331194Y228934D01*
Y228911D01*
Y228819D01*
X331171Y228703D01*
Y228402D01*
Y228240D01*
Y228124D01*
Y228032D01*
Y228009D01*
Y225926D01*
X332304Y227083D01*
X332258Y227315D01*
X332212Y227523D01*
Y227615D01*
Y227662D01*
Y227708D01*
Y227731D01*
X332235Y227939D01*
X332258Y228124D01*
X332328Y228310D01*
X332374Y228448D01*
X332443Y228564D01*
X332513Y228657D01*
X332536Y228703D01*
X332559Y228726D01*
X332698Y228888D01*
X332837Y229004D01*
X332975Y229119D01*
X333114Y229189D01*
X333230Y229258D01*
X333299Y229305D01*
X333369Y229328D01*
X333392D01*
X333600Y229397D01*
X333808Y229444D01*
X334040Y229467D01*
X334248Y229490D01*
X334433Y229513D01*
X334734D01*
X338136Y232891D01*
X338483Y232544D01*
X338737Y232290D01*
X338622Y232429D01*
X338529Y232521D01*
X338506Y232544D01*
X338020Y233007D01*
X337511Y233400D01*
X336979Y233724D01*
X336446Y234025D01*
X335937Y234280D01*
X335428Y234488D01*
X334919Y234650D01*
X334456Y234789D01*
X334017Y234905D01*
X333600Y234974D01*
X333253Y235043D01*
X332929Y235067D01*
X332675Y235090D01*
X332489Y235113D01*
D02*
G37*
G36*
X338737Y232290D02*
X338798Y232212D01*
X336099Y229513D01*
X337094D01*
Y229328D01*
X336840D01*
X336608Y229305D01*
X336446Y229235D01*
X336331Y229143D01*
X336308Y229119D01*
X336261Y229050D01*
X336215Y228958D01*
X336192Y228703D01*
X336169Y228587D01*
Y228472D01*
Y228402D01*
Y228379D01*
Y224237D01*
Y224052D01*
X336192Y223890D01*
Y223774D01*
X336215Y223682D01*
X336238Y223612D01*
Y223566D01*
X336261Y223543D01*
X336331Y223450D01*
X336423Y223404D01*
X336608Y223311D01*
X336770Y223288D01*
X337094D01*
Y223103D01*
X334341D01*
Y223288D01*
X334595D01*
X334827Y223311D01*
X334989Y223381D01*
X335081Y223450D01*
X335127Y223473D01*
X335174Y223543D01*
X335197Y223658D01*
X335243Y223913D01*
X335266Y224029D01*
Y224144D01*
Y224214D01*
Y224237D01*
Y226088D01*
X335035Y226042D01*
X334850Y226019D01*
X334734Y225996D01*
X334688D01*
X334479Y225973D01*
X334179D01*
X333901Y225996D01*
X333646Y226019D01*
X333438Y226088D01*
X333253Y226158D01*
X333091Y226204D01*
X332998Y226273D01*
X332929Y226296D01*
X332906Y226320D01*
X331171Y224561D01*
Y223520D01*
X330870Y223335D01*
X330615Y223219D01*
X330499Y223172D01*
X330430Y223126D01*
X330384Y223103D01*
X330361D01*
X330083Y223034D01*
X329852Y222987D01*
X329736Y222964D01*
X329574D01*
X326524Y219915D01*
X326658Y219794D01*
X327167Y219401D01*
X327676Y219054D01*
X328209Y218753D01*
X328718Y218521D01*
X329227Y218313D01*
X329736Y218151D01*
X330199Y218012D01*
X330638Y217897D01*
X331055Y217827D01*
X331402Y217758D01*
X331726Y217735D01*
X331980Y217711D01*
X332166Y217688D01*
X332328D01*
X332998Y217711D01*
X333623Y217804D01*
X334248Y217920D01*
X334804Y218082D01*
X335359Y218290D01*
X335868Y218498D01*
X336331Y218730D01*
X336770Y218961D01*
X337164Y219192D01*
X337511Y219424D01*
X337789Y219655D01*
X338043Y219840D01*
X338251Y220002D01*
X338390Y220118D01*
X338483Y220211D01*
X338506Y220234D01*
X338946Y220720D01*
X339339Y221229D01*
X339686Y221738D01*
X339987Y222270D01*
X340218Y222779D01*
X340426Y223311D01*
X340588Y223797D01*
X340727Y224260D01*
X340843Y224700D01*
X340912Y225116D01*
X340982Y225463D01*
X341005Y225787D01*
X341028Y226042D01*
X341051Y226227D01*
Y226343D01*
Y226389D01*
X341028Y227060D01*
X340936Y227685D01*
X340820Y228310D01*
X340658Y228865D01*
X340450Y229420D01*
X340241Y229929D01*
X340010Y230392D01*
X339779Y230832D01*
X339547Y231202D01*
X339316Y231549D01*
X339084Y231850D01*
X338899Y232081D01*
X338798Y232212D01*
X338807Y232220D01*
X338737Y232290D01*
D02*
G37*
G36*
X326172Y220234D02*
X326519Y219910D01*
X326524Y219915D01*
X326172Y220234D01*
D02*
G37*
G36*
X329435Y226875D02*
X329389D01*
X329227Y226852D01*
X329065Y226805D01*
X328787Y226667D01*
X328695Y226574D01*
X328625Y226505D01*
X328579Y226458D01*
X328556Y226435D01*
X328440Y226250D01*
X328347Y226042D01*
X328278Y225834D01*
X328232Y225625D01*
X328209Y225440D01*
X328185Y225301D01*
Y225209D01*
Y225163D01*
X328209Y224839D01*
X328232Y224561D01*
X328301Y224329D01*
X328370Y224144D01*
X328440Y223982D01*
X328486Y223890D01*
X328533Y223820D01*
X328556Y223797D01*
X328625Y223682D01*
X328695Y223612D01*
X328764Y223566D01*
X328787Y223543D01*
X330384Y225139D01*
Y226389D01*
X330175Y226574D01*
X330037Y226690D01*
X329921Y226736D01*
X329898Y226759D01*
X329713Y226829D01*
X329551Y226852D01*
X329435Y226875D01*
D02*
G37*
G36*
X334317Y229096D02*
X334179Y229050D01*
X334063Y229004D01*
X333970Y228958D01*
X333947Y228934D01*
X333739Y228772D01*
X333600Y228610D01*
X333485Y228472D01*
X333461Y228425D01*
Y228402D01*
X333392Y228287D01*
X333369Y228194D01*
X333346Y228148D01*
Y228124D01*
X334317Y229096D01*
D02*
G37*
G36*
X335266Y228657D02*
X333485Y226875D01*
X333531Y226782D01*
X333600Y226713D01*
X333623Y226690D01*
X333646Y226667D01*
X333785Y226528D01*
X333924Y226435D01*
X334063Y226366D01*
X334202Y226320D01*
X334317Y226296D01*
X334410Y226273D01*
X334595D01*
X334711Y226296D01*
X334827D01*
X334965Y226320D01*
X335104Y226343D01*
X335220Y226366D01*
X335266D01*
Y228657D01*
D02*
G37*
G36*
X312747Y221414D02*
X312655D01*
Y220859D01*
X312747D01*
Y221414D01*
D02*
G37*
G36*
X310757Y226690D02*
X308003Y223844D01*
X308050Y223335D01*
X308235Y223358D01*
X308443Y223335D01*
X308698Y223265D01*
X308952Y223149D01*
X309137Y223010D01*
X309299Y222849D01*
X309461Y222617D01*
X309577Y222340D01*
X309647Y222039D01*
X309623Y221830D01*
X312886D01*
X313118Y224260D01*
X310757Y226690D01*
D02*
G37*
G36*
X308351Y222640D02*
X308235D01*
X308003Y222617D01*
X307841Y222525D01*
X307703Y222432D01*
X307633Y222293D01*
X307587Y222178D01*
X307541Y222062D01*
Y221969D01*
Y221946D01*
X307564Y221715D01*
X307656Y221553D01*
X307749Y221414D01*
X307888Y221344D01*
X308003Y221298D01*
X308119Y221275D01*
X308212Y221252D01*
X308235D01*
X308466Y221275D01*
X308628Y221368D01*
X308767Y221483D01*
X308837Y221599D01*
X308883Y221738D01*
X308906Y221830D01*
X308929Y221923D01*
Y221946D01*
X308906Y222178D01*
X308813Y222340D01*
X308698Y222478D01*
X308582Y222548D01*
X308443Y222594D01*
X308351Y222640D01*
D02*
G37*
G36*
X307541Y229999D02*
Y229767D01*
X307494D01*
X307957Y224376D01*
X310479Y226991D01*
X308860Y228657D01*
X308513D01*
Y229004D01*
X307541Y229999D01*
D02*
G37*
G36*
X311382Y233192D02*
Y232891D01*
X309160D01*
Y233146D01*
X308698Y233076D01*
X308281Y232984D01*
X307934Y232891D01*
X307656Y232752D01*
X307448Y232637D01*
X307286Y232475D01*
Y232382D01*
X312446D01*
Y233053D01*
X312122Y233123D01*
X311775Y233169D01*
X311382Y233192D01*
D02*
G37*
G36*
X313002Y233285D02*
X312840D01*
Y232752D01*
X313002D01*
Y233285D01*
D02*
G37*
G36*
X313395Y232776D02*
Y232382D01*
X313881D01*
Y232452D01*
X313765Y232567D01*
X313627Y232660D01*
X313395Y232776D01*
D02*
G37*
G36*
X310965Y233516D02*
X309554D01*
Y233285D01*
X310965D01*
Y233516D01*
D02*
G37*
G36*
X306684Y232706D02*
X306661D01*
X306546Y232683D01*
X306476Y232614D01*
X306453Y232521D01*
Y232498D01*
X306476Y232382D01*
X306546Y232336D01*
X306638Y232313D01*
X306661D01*
X306777Y232336D01*
X306823Y232405D01*
X306846Y232475D01*
Y232498D01*
X306823Y232614D01*
X306754Y232683D01*
X306684Y232706D01*
D02*
G37*
G36*
X313812Y231665D02*
X307332D01*
X307379Y231318D01*
X307541D01*
Y230577D01*
X308513Y229582D01*
X311428D01*
Y228657D01*
X309415D01*
X310757Y227268D01*
X313696Y230323D01*
X313812Y231665D01*
D02*
G37*
G36*
X313627Y229675D02*
X311035Y226991D01*
X313164Y224792D01*
X313627Y229675D01*
D02*
G37*
G36*
X307147Y230924D02*
X306384D01*
Y230161D01*
X307147D01*
Y230924D01*
D02*
G37*
G36*
X311035Y229189D02*
X308952D01*
Y229050D01*
X311035D01*
Y229189D01*
D02*
G37*
%LPD*%
G36*
X308397Y222386D02*
X308513Y222340D01*
X308582Y222270D01*
X308628Y222178D01*
X308698Y222016D01*
Y221969D01*
Y221946D01*
X308675Y221784D01*
X308628Y221668D01*
X308559Y221599D01*
X308466Y221553D01*
X308304Y221483D01*
X308235D01*
X308073Y221506D01*
X307957Y221553D01*
X307888Y221622D01*
X307818Y221715D01*
X307772Y221877D01*
Y221923D01*
Y221946D01*
X307795Y222108D01*
X307841Y222224D01*
X307911Y222293D01*
X308003Y222363D01*
X308166Y222409D01*
X308235D01*
X308397Y222386D01*
D02*
G37*
%LPC*%
G36*
X308258Y222016D02*
X308189D01*
X308166Y221992D01*
Y221969D01*
Y221946D01*
Y221900D01*
X308189Y221877D01*
X308235D01*
X308281Y221900D01*
X308304Y221923D01*
Y221946D01*
X308281Y221992D01*
X308258Y222016D01*
D02*
G37*
G36*
X415318Y429228D02*
X410555Y428389D01*
X410625Y427992D01*
X409435Y427782D01*
X409505Y427385D01*
X408314Y427175D01*
X408384Y426778D01*
X407590Y426638D01*
X407660Y426241D01*
X407263Y426171D01*
X407333Y425774D01*
X406539Y425635D01*
X406609Y425238D01*
X406213Y425168D01*
X406283Y424771D01*
X405886Y424701D01*
X405956Y424304D01*
X405559Y424234D01*
X405629Y423837D01*
X405232Y423767D01*
X405302Y423370D01*
X404905Y423300D01*
X404975Y422903D01*
X405045Y422507D01*
X404648Y422437D01*
X404718Y422040D01*
X404321Y421970D01*
X404391Y421573D01*
X404461Y421176D01*
X404064Y421106D01*
X404134Y420709D01*
X404204Y420312D01*
X403807Y420242D01*
X403877Y419845D01*
X403947Y419449D01*
X404017Y419052D01*
X403620Y418982D01*
X403690Y418585D01*
X403760Y418188D01*
X403830Y417791D01*
X403900Y417394D01*
X403970Y416997D01*
X404040Y416601D01*
X404110Y416204D01*
X404180Y415807D01*
X404250Y415410D01*
X404320Y415013D01*
X404390Y414616D01*
X404460Y414219D01*
X404530Y413822D01*
X404600Y413426D01*
X404670Y413029D01*
X405067Y413099D01*
X405137Y412702D01*
X405207Y412305D01*
X405277Y411908D01*
X405674Y411978D01*
X405744Y411581D01*
X405814Y411184D01*
X406211Y411254D01*
X406281Y410857D01*
X406351Y410461D01*
X406747Y410531D01*
X406817Y410134D01*
X407214Y410204D01*
X407284Y409807D01*
X407354Y409410D01*
X407751Y409480D01*
X407821Y409083D01*
X408218Y409153D01*
X408288Y408756D01*
X408685Y408826D01*
X408755Y408429D01*
X409152Y408499D01*
X409222Y408102D01*
X409619Y408172D01*
X409689Y407775D01*
X410482Y407915D01*
X410552Y407518D01*
X410949Y407588D01*
X411019Y407192D01*
X411813Y407332D01*
X411883Y406935D01*
X413073Y407145D01*
X413143Y406748D01*
X414731Y407028D01*
X414801Y406631D01*
X419166Y407401D01*
X419097Y407797D01*
X420684Y408077D01*
X420614Y408474D01*
X421408Y408614D01*
X421338Y409011D01*
X422131Y409151D01*
X422061Y409548D01*
X422855Y409688D01*
X422785Y410085D01*
X423182Y410155D01*
X423112Y410552D01*
X423509Y410622D01*
X423439Y411018D01*
X423836Y411088D01*
X423766Y411485D01*
X424163Y411555D01*
X424093Y411952D01*
X424490Y412022D01*
X424420Y412419D01*
X424817Y412489D01*
X424747Y412886D01*
X425143Y412956D01*
X425073Y413353D01*
X425003Y413750D01*
X425400Y413820D01*
X425330Y414216D01*
X425727Y414286D01*
X425657Y414683D01*
X425587Y415080D01*
X425984Y415150D01*
X425914Y415547D01*
X425844Y415944D01*
X425774Y416341D01*
X426171Y416411D01*
X426101Y416808D01*
X426031Y417204D01*
X425961Y417601D01*
X425891Y417998D01*
X426288Y418068D01*
X426218Y418465D01*
X426148Y418862D01*
X426078Y419259D01*
X426008Y419656D01*
X425938Y420052D01*
X425868Y420449D01*
X425798Y420846D01*
X425728Y421243D01*
X425658Y421640D01*
X425261Y421570D01*
X425191Y421967D01*
X425121Y422364D01*
X425051Y422761D01*
X424981Y423158D01*
X424585Y423088D01*
X424515Y423484D01*
X424445Y423881D01*
X424375Y424278D01*
X423978Y424208D01*
X423908Y424605D01*
X423838Y425002D01*
X423441Y424932D01*
X423371Y425329D01*
X423301Y425726D01*
X422904Y425656D01*
X422834Y426053D01*
X422437Y425983D01*
X422367Y426379D01*
X421970Y426309D01*
X421901Y426706D01*
X421504Y426636D01*
X421434Y427033D01*
X421037Y426963D01*
X420967Y427360D01*
X420570Y427290D01*
X420500Y427687D01*
X420103Y427617D01*
X420033Y428014D01*
X419636Y427944D01*
X419566Y428341D01*
X418773Y428201D01*
X418703Y428598D01*
X417909Y428458D01*
X417839Y428855D01*
X417045Y428715D01*
X416975Y429111D01*
X415388Y428832D01*
X415318Y429228D01*
D02*
G37*
G36*
X378012Y422650D02*
X373249Y421811D01*
X373319Y421414D01*
X371732Y421134D01*
X371802Y420737D01*
X371008Y420597D01*
X371078Y420200D01*
X370284Y420060D01*
X370354Y419663D01*
X369957Y419593D01*
X370027Y419197D01*
X369234Y419057D01*
X369304Y418660D01*
X368907Y418590D01*
X368977Y418193D01*
X368580Y418123D01*
X368650Y417726D01*
X368253Y417656D01*
X368323Y417259D01*
X367926Y417189D01*
X367996Y416792D01*
X367599Y416722D01*
X367669Y416326D01*
X367272Y416256D01*
X367342Y415859D01*
X367412Y415462D01*
X367015Y415392D01*
X367085Y414995D01*
X367155Y414598D01*
X366758Y414528D01*
X366828Y414131D01*
X366898Y413734D01*
X366501Y413664D01*
X366571Y413267D01*
X366641Y412871D01*
X366711Y412474D01*
X366315Y412404D01*
X366385Y412007D01*
X366455Y411610D01*
X366525Y411213D01*
X366595Y410816D01*
X366665Y410419D01*
X366735Y410022D01*
X366338Y409952D01*
X366408Y409556D01*
X366478Y409159D01*
X366547Y408762D01*
X366944Y408832D01*
X367014Y408435D01*
X367084Y408038D01*
X367154Y407641D01*
X367224Y407244D01*
X367294Y406847D01*
X367364Y406451D01*
X367761Y406521D01*
X367831Y406124D01*
X367901Y405727D01*
X367971Y405330D01*
X368368Y405400D01*
X368438Y405003D01*
X368508Y404606D01*
X368905Y404676D01*
X368975Y404279D01*
X369045Y403883D01*
X369442Y403953D01*
X369512Y403556D01*
X369582Y403159D01*
X369978Y403229D01*
X370048Y402832D01*
X370445Y402902D01*
X370515Y402505D01*
X370912Y402575D01*
X370982Y402178D01*
X371379Y402248D01*
X371449Y401851D01*
X371846Y401921D01*
X371916Y401524D01*
X372313Y401594D01*
X372383Y401197D01*
X373176Y401337D01*
X373246Y400941D01*
X373643Y401011D01*
X373713Y400614D01*
X374507Y400753D01*
X374577Y400357D01*
X375768Y400567D01*
X375838Y400170D01*
X377028Y400380D01*
X377098Y399983D01*
X381861Y400823D01*
X381791Y401219D01*
X382981Y401429D01*
X382911Y401826D01*
X384102Y402036D01*
X384032Y402433D01*
X384826Y402573D01*
X384756Y402970D01*
X385153Y403040D01*
X385083Y403437D01*
X385876Y403577D01*
X385806Y403973D01*
X386203Y404043D01*
X386133Y404440D01*
X386530Y404510D01*
X386460Y404907D01*
X386857Y404977D01*
X386787Y405374D01*
X387184Y405444D01*
X387114Y405841D01*
X387511Y405911D01*
X387441Y406308D01*
X387838Y406378D01*
X387768Y406775D01*
X387698Y407171D01*
X388094Y407241D01*
X388025Y407638D01*
X387955Y408035D01*
X388351Y408105D01*
X388281Y408502D01*
X388211Y408899D01*
X388608Y408969D01*
X388538Y409366D01*
X388468Y409763D01*
X388398Y410160D01*
X388795Y410229D01*
X388725Y410626D01*
X388655Y411023D01*
X388585Y411420D01*
X388515Y411817D01*
X388445Y412214D01*
X388842Y412284D01*
X388772Y412681D01*
X388702Y413078D01*
X388632Y413475D01*
X388562Y413871D01*
X388492Y414268D01*
X388095Y414198D01*
X388025Y414595D01*
X387956Y414992D01*
X387886Y415389D01*
X387816Y415786D01*
X387746Y416183D01*
X387676Y416579D01*
X387279Y416509D01*
X387209Y416906D01*
X387139Y417303D01*
X386742Y417233D01*
X386672Y417630D01*
X386602Y418027D01*
X386532Y418424D01*
X386135Y418354D01*
X386065Y418751D01*
X385668Y418681D01*
X385598Y419078D01*
X385528Y419475D01*
X385131Y419405D01*
X385062Y419801D01*
X384665Y419731D01*
X384595Y420128D01*
X384198Y420058D01*
X384128Y420455D01*
X383731Y420385D01*
X383661Y420782D01*
X383264Y420712D01*
X383194Y421109D01*
X382797Y421039D01*
X382727Y421436D01*
X382330Y421366D01*
X382260Y421763D01*
X381467Y421623D01*
X381397Y422020D01*
X380603Y421880D01*
X380533Y422277D01*
X379739Y422137D01*
X379669Y422534D01*
X378082Y422254D01*
X378012Y422650D01*
D02*
G37*
%LPD*%
G36*
X414570Y424186D02*
X416157Y424466D01*
X416227Y424069D01*
X417021Y424209D01*
X417091Y423812D01*
X417488Y423882D01*
X417558Y423485D01*
X418352Y423625D01*
X418422Y423228D01*
X418819Y423298D01*
X418889Y422901D01*
X419285Y422971D01*
X419355Y422575D01*
X419425Y422178D01*
X419822Y422248D01*
X419892Y421851D01*
X420289Y421921D01*
X420359Y421524D01*
X420429Y421127D01*
X420499Y420730D01*
X420896Y420800D01*
X420966Y420403D01*
X421036Y420007D01*
X421106Y419610D01*
X421176Y419213D01*
X421246Y418816D01*
X421316Y418419D01*
X421386Y418022D01*
X421456Y417625D01*
X421526Y417228D01*
X421129Y417158D01*
X421199Y416761D01*
X421269Y416365D01*
X420872Y416295D01*
X420942Y415898D01*
X421012Y415501D01*
X420615Y415431D01*
X420685Y415034D01*
X420288Y414964D01*
X420358Y414567D01*
X420428Y414170D01*
X420031Y414100D01*
X420101Y413703D01*
X419307Y413564D01*
X419377Y413167D01*
X418981Y413097D01*
X419051Y412700D01*
X417860Y412490D01*
X417930Y412093D01*
X416342Y411813D01*
X416412Y411416D01*
X416015Y411346D01*
X415945Y411743D01*
X413961Y411393D01*
X413891Y411790D01*
X413097Y411650D01*
X413027Y412047D01*
X412234Y411907D01*
X412164Y412304D01*
X411767Y412234D01*
X411697Y412631D01*
X411300Y412561D01*
X411230Y412958D01*
X410833Y412888D01*
X410763Y413285D01*
X410366Y413215D01*
X410296Y413612D01*
X410226Y414008D01*
X409829Y413938D01*
X409760Y414335D01*
X409690Y414732D01*
X409293Y414662D01*
X409223Y415059D01*
X409153Y415456D01*
X409083Y415853D01*
X408686Y415783D01*
X408616Y416180D01*
X408546Y416577D01*
X408476Y416973D01*
X408406Y417370D01*
X408336Y417767D01*
X408733Y417837D01*
X408663Y418234D01*
X408593Y418631D01*
X408523Y419028D01*
X408453Y419425D01*
X408850Y419495D01*
X408780Y419892D01*
X408710Y420288D01*
X409107Y420358D01*
X409037Y420755D01*
X409434Y420825D01*
X409364Y421222D01*
X409760Y421292D01*
X409691Y421689D01*
X410087Y421759D01*
X410017Y422156D01*
X410414Y422226D01*
X410344Y422623D01*
X411138Y422763D01*
X411068Y423159D01*
X411862Y423299D01*
X411792Y423696D01*
X413379Y423976D01*
X413309Y424373D01*
X414500Y424583D01*
X414570Y424186D01*
D02*
G37*
G36*
X376867Y417538D02*
X378852Y417888D01*
X378922Y417491D01*
X379715Y417631D01*
X379785Y417234D01*
X380182Y417304D01*
X380252Y416907D01*
X380649Y416977D01*
X380719Y416580D01*
X381116Y416650D01*
X381186Y416254D01*
X381583Y416324D01*
X381653Y415927D01*
X382049Y415997D01*
X382119Y415600D01*
X382516Y415670D01*
X382586Y415273D01*
X382656Y414876D01*
X383053Y414946D01*
X383123Y414549D01*
X383193Y414152D01*
X383263Y413755D01*
X383660Y413825D01*
X383730Y413428D01*
X383800Y413032D01*
X383870Y412635D01*
X383940Y412238D01*
X384010Y411841D01*
X384080Y411444D01*
X384150Y411047D01*
X383753Y410977D01*
X383823Y410580D01*
X383893Y410183D01*
X383963Y409787D01*
X383566Y409717D01*
X383636Y409320D01*
X383706Y408923D01*
X383309Y408853D01*
X383379Y408456D01*
X382982Y408386D01*
X383052Y407989D01*
X382655Y407919D01*
X382725Y407522D01*
X382328Y407452D01*
X382398Y407056D01*
X382001Y406986D01*
X382071Y406589D01*
X381278Y406449D01*
X381348Y406052D01*
X380554Y405912D01*
X380624Y405515D01*
X379036Y405235D01*
X379106Y404838D01*
X378710Y404768D01*
X378640Y405165D01*
X376655Y404815D01*
X376585Y405212D01*
X375792Y405072D01*
X375722Y405469D01*
X374928Y405329D01*
X374858Y405726D01*
X374461Y405656D01*
X374391Y406053D01*
X373994Y405983D01*
X373924Y406380D01*
X373527Y406310D01*
X373457Y406707D01*
X373060Y406637D01*
X372990Y407033D01*
X372594Y406963D01*
X372524Y407360D01*
X372454Y407757D01*
X372057Y407687D01*
X371987Y408084D01*
X371917Y408481D01*
X371847Y408878D01*
X371450Y408808D01*
X371380Y409205D01*
X371310Y409602D01*
X371240Y409999D01*
X371170Y410395D01*
X371100Y410792D01*
X371030Y411189D01*
X370960Y411586D01*
X371357Y411656D01*
X371287Y412053D01*
X371217Y412450D01*
X371147Y412847D01*
X371544Y412917D01*
X371474Y413313D01*
X371404Y413710D01*
X371801Y413780D01*
X371731Y414177D01*
X372128Y414247D01*
X372058Y414644D01*
X372455Y414714D01*
X372385Y415111D01*
X372781Y415181D01*
X372711Y415578D01*
X373108Y415648D01*
X373038Y416045D01*
X373435Y416115D01*
X373365Y416511D01*
X374556Y416721D01*
X374486Y417118D01*
X376073Y417398D01*
X376003Y417795D01*
X376797Y417935D01*
X376867Y417538D01*
D02*
G37*
D17*
X336000Y254000D02*
X340998D01*
X336000Y257332D01*
X340998D01*
X336000Y261498D02*
Y259831D01*
X336833Y258998D01*
X338499D01*
X339332Y259831D01*
Y261498D01*
X338499Y262331D01*
X337666D01*
Y258998D01*
X339332Y263997D02*
X336833D01*
X336000Y264830D01*
X336833Y265663D01*
X336000Y266496D01*
X336833Y267329D01*
X339332D01*
X336000Y268995D02*
X339332D01*
X340998Y270661D01*
X339332Y272327D01*
X336000D01*
X338499D01*
Y268995D01*
X340998Y277326D02*
Y273993D01*
X336000D01*
Y277326D01*
X338499Y273993D02*
Y275660D01*
X340998Y283990D02*
Y287322D01*
Y285656D01*
X336000D01*
Y291488D02*
Y289822D01*
X336833Y288989D01*
X338499D01*
X339332Y289822D01*
Y291488D01*
X338499Y292321D01*
X337666D01*
Y288989D01*
X339332Y297319D02*
Y294820D01*
X338499Y293987D01*
X336833D01*
X336000Y294820D01*
Y297319D01*
X340998Y298985D02*
X336000D01*
X338499D01*
X339332Y299818D01*
Y301485D01*
X338499Y302318D01*
X336000D01*
Y303984D02*
X339332D01*
Y306483D01*
X338499Y307316D01*
X336000D01*
Y309815D02*
Y311481D01*
X336833Y312314D01*
X338499D01*
X339332Y311481D01*
Y309815D01*
X338499Y308982D01*
X336833D01*
X336000Y309815D01*
Y313981D02*
Y315647D01*
Y314814D01*
X340998D01*
Y313981D01*
X336000Y318979D02*
Y320645D01*
X336833Y321478D01*
X338499D01*
X339332Y320645D01*
Y318979D01*
X338499Y318146D01*
X336833D01*
X336000Y318979D01*
X334334Y324810D02*
Y325643D01*
X335167Y326477D01*
X339332D01*
Y323977D01*
X338499Y323144D01*
X336833D01*
X336000Y323977D01*
Y326477D01*
X339332Y328143D02*
X336833D01*
X336000Y328976D01*
Y331475D01*
X335167D01*
X334334Y330642D01*
Y329809D01*
X336000Y331475D02*
X339332D01*
X340998Y338139D02*
Y339806D01*
Y338972D01*
X336000D01*
Y338139D01*
Y339806D01*
Y342305D02*
X339332D01*
Y344804D01*
X338499Y345637D01*
X336000D01*
X339332Y350635D02*
Y348136D01*
X338499Y347303D01*
X336833D01*
X336000Y348136D01*
Y350635D01*
Y352302D02*
X336833D01*
Y353134D01*
X336000D01*
Y352302D01*
X326000Y254000D02*
X330998D01*
X326000Y257332D01*
X330998D01*
X326000Y258998D02*
X329332D01*
X330998Y260665D01*
X329332Y262331D01*
X326000D01*
X328499D01*
Y258998D01*
X330998Y267329D02*
Y263997D01*
X326000D01*
Y267329D01*
X328499Y263997D02*
Y265663D01*
Y268995D02*
Y272327D01*
X330165Y277326D02*
X330998Y276493D01*
Y274827D01*
X330165Y273993D01*
X326833D01*
X326000Y274827D01*
Y276493D01*
X326833Y277326D01*
X330998Y278992D02*
X326000D01*
X327666Y280658D01*
X326000Y282324D01*
X330998D01*
X330165Y283990D02*
X330998Y284823D01*
Y286490D01*
X330165Y287322D01*
X329332D01*
X328499Y286490D01*
Y285656D01*
Y286490D01*
X327666Y287322D01*
X326833D01*
X326000Y286490D01*
Y284823D01*
X326833Y283990D01*
X330165Y288989D02*
X330998Y289822D01*
Y291488D01*
X330165Y292321D01*
X326833D01*
X326000Y291488D01*
Y289822D01*
X326833Y288989D01*
X330165D01*
Y293987D02*
X330998Y294820D01*
Y296486D01*
X330165Y297319D01*
X329332D01*
X328499Y296486D01*
X327666Y297319D01*
X326833D01*
X326000Y296486D01*
Y294820D01*
X326833Y293987D01*
X327666D01*
X328499Y294820D01*
X329332Y293987D01*
X330165D01*
X328499Y294820D02*
Y296486D01*
X330998Y298985D02*
Y302318D01*
Y300652D01*
X326000D01*
X328499Y303984D02*
Y307316D01*
X330998Y308982D02*
X326000Y312314D01*
X330998D02*
X326000Y308982D01*
Y313981D02*
X330998D01*
X329332Y315647D01*
X330998Y317313D01*
X326000D01*
X330998Y322311D02*
Y318979D01*
X326000D01*
Y322311D01*
X328499Y318979D02*
Y320645D01*
X330165Y327310D02*
X330998Y326477D01*
Y324810D01*
X330165Y323977D01*
X326833D01*
X326000Y324810D01*
Y326477D01*
X326833Y327310D01*
X328499D01*
Y325643D01*
X326000Y328976D02*
X329332D01*
X330998Y330642D01*
X329332Y332308D01*
X326000D01*
X328499D01*
Y328976D01*
Y333974D02*
Y337306D01*
X330165Y338972D02*
X330998Y339806D01*
Y341472D01*
X330165Y342305D01*
X326833D01*
X326000Y341472D01*
Y339806D01*
X326833Y338972D01*
X330165D01*
Y343971D02*
X330998Y344804D01*
Y346470D01*
X330165Y347303D01*
X329332D01*
X328499Y346470D01*
Y345637D01*
Y346470D01*
X327666Y347303D01*
X326833D01*
X326000Y346470D01*
Y344804D01*
X326833Y343971D01*
X311500Y252500D02*
X316498D01*
Y254999D01*
X315665Y255832D01*
X313999D01*
X313166Y254999D01*
Y252500D01*
Y254166D02*
X311500Y255832D01*
Y258331D02*
Y259998D01*
X312333Y260831D01*
X313999D01*
X314832Y259998D01*
Y258331D01*
X313999Y257498D01*
X312333D01*
X311500Y258331D01*
X316498Y262497D02*
X311500D01*
X313999D01*
Y265829D01*
X316498D01*
X311500D01*
X315665Y270827D02*
X316498Y269994D01*
Y268328D01*
X315665Y267495D01*
X314832D01*
X313999Y268328D01*
Y269994D01*
X313166Y270827D01*
X312333D01*
X311500Y269994D01*
Y268328D01*
X312333Y267495D01*
X311500Y277492D02*
X314832Y280824D01*
X311500Y287489D02*
X316498D01*
Y289988D01*
X315665Y290821D01*
X313999D01*
X313166Y289988D01*
Y287489D01*
X316498Y292487D02*
X311500D01*
Y294986D01*
X312333Y295819D01*
X313166D01*
X313999Y294986D01*
Y292487D01*
Y294986D01*
X314832Y295819D01*
X315665D01*
X316498Y294986D01*
Y292487D01*
X313999Y297485D02*
Y300818D01*
X316498Y305816D02*
Y302484D01*
X313999D01*
Y304150D01*
Y302484D01*
X311500D01*
X314832Y307482D02*
X311500D01*
X313166D01*
X313999Y308315D01*
X314832Y309148D01*
Y309981D01*
X311500Y314980D02*
Y313314D01*
X312333Y312481D01*
X313999D01*
X314832Y313314D01*
Y314980D01*
X313999Y315813D01*
X313166D01*
Y312481D01*
X311500Y319978D02*
Y318312D01*
X312333Y317479D01*
X313999D01*
X314832Y318312D01*
Y319978D01*
X313999Y320811D01*
X313166D01*
Y317479D01*
M02*
