G04 Layer_Color=8421504*
%FSLAX25Y25*%
%MOIN*%
G70*
G01*
G75*
G04:AMPARAMS|DCode=11|XSize=39.37mil|YSize=35.43mil|CornerRadius=4.43mil|HoleSize=0mil|Usage=FLASHONLY|Rotation=0.000|XOffset=0mil|YOffset=0mil|HoleType=Round|Shape=RoundedRectangle|*
%AMROUNDEDRECTD11*
21,1,0.03937,0.02658,0,0,0.0*
21,1,0.03051,0.03543,0,0,0.0*
1,1,0.00886,0.01526,-0.01329*
1,1,0.00886,-0.01526,-0.01329*
1,1,0.00886,-0.01526,0.01329*
1,1,0.00886,0.01526,0.01329*
%
%ADD11ROUNDEDRECTD11*%
G04:AMPARAMS|DCode=12|XSize=39.37mil|YSize=35.43mil|CornerRadius=4.43mil|HoleSize=0mil|Usage=FLASHONLY|Rotation=270.000|XOffset=0mil|YOffset=0mil|HoleType=Round|Shape=RoundedRectangle|*
%AMROUNDEDRECTD12*
21,1,0.03937,0.02658,0,0,270.0*
21,1,0.03051,0.03543,0,0,270.0*
1,1,0.00886,-0.01329,-0.01526*
1,1,0.00886,-0.01329,0.01526*
1,1,0.00886,0.01329,0.01526*
1,1,0.00886,0.01329,-0.01526*
%
%ADD12ROUNDEDRECTD12*%
%ADD13O,0.08071X0.02362*%
%ADD14O,0.02362X0.08071*%
G04:AMPARAMS|DCode=15|XSize=51.18mil|YSize=31.5mil|CornerRadius=3.94mil|HoleSize=0mil|Usage=FLASHONLY|Rotation=0.000|XOffset=0mil|YOffset=0mil|HoleType=Round|Shape=RoundedRectangle|*
%AMROUNDEDRECTD15*
21,1,0.05118,0.02362,0,0,0.0*
21,1,0.04331,0.03150,0,0,0.0*
1,1,0.00787,0.02165,-0.01181*
1,1,0.00787,-0.02165,-0.01181*
1,1,0.00787,-0.02165,0.01181*
1,1,0.00787,0.02165,0.01181*
%
%ADD15ROUNDEDRECTD15*%
D11*
X432000Y379346D02*
D03*
Y372653D02*
D03*
D12*
X393653Y376500D02*
D03*
X400347D02*
D03*
X330654Y389000D02*
D03*
X337347D02*
D03*
X388846Y367500D02*
D03*
X382154D02*
D03*
D13*
X358559Y349748D02*
D03*
Y346598D02*
D03*
Y343449D02*
D03*
Y340299D02*
D03*
Y337150D02*
D03*
Y334000D02*
D03*
Y330850D02*
D03*
Y327701D02*
D03*
Y324551D02*
D03*
Y321402D02*
D03*
Y318252D02*
D03*
X403441D02*
D03*
Y321402D02*
D03*
Y324551D02*
D03*
Y327701D02*
D03*
Y330850D02*
D03*
Y334000D02*
D03*
Y337150D02*
D03*
Y340299D02*
D03*
Y343449D02*
D03*
Y346598D02*
D03*
Y349748D02*
D03*
D14*
X365252Y311559D02*
D03*
X368402D02*
D03*
X371551D02*
D03*
X374701D02*
D03*
X377850D02*
D03*
X381000D02*
D03*
X384150D02*
D03*
X387299D02*
D03*
X390449D02*
D03*
X393598D02*
D03*
X396748D02*
D03*
Y356441D02*
D03*
X393598D02*
D03*
X390449D02*
D03*
X387299D02*
D03*
X384150D02*
D03*
X381000D02*
D03*
X377850D02*
D03*
X374701D02*
D03*
X371551D02*
D03*
X368402D02*
D03*
X365252D02*
D03*
D15*
X439500Y379563D02*
D03*
Y387437D02*
D03*
M02*
