G04 Layer_Physical_Order=2*
G04 Layer_Color=16711680*
%FSLAX25Y25*%
%MOIN*%
G70*
G01*
G75*
%ADD16C,0.02000*%
%ADD17C,0.01000*%
%ADD18C,0.02500*%
%ADD20C,0.17323*%
%ADD21O,0.11000X0.06000*%
%ADD22R,0.11000X0.06000*%
%ADD23O,0.06000X0.11000*%
%ADD24R,0.06000X0.11000*%
%ADD25C,0.03500*%
%ADD26C,0.05000*%
%ADD27C,0.02362*%
%ADD28C,0.04724*%
G36*
X490980Y454520D02*
Y454481D01*
X490500Y454000D01*
Y412500D01*
X484500D01*
Y408500D01*
Y404500D01*
X490500D01*
Y401501D01*
X489500Y401161D01*
X489353Y401353D01*
X488517Y401994D01*
X487544Y402397D01*
X486500Y402534D01*
X481500D01*
X480456Y402397D01*
X479483Y401994D01*
X478647Y401353D01*
X478006Y400517D01*
X477603Y399544D01*
X477465Y398500D01*
X477603Y397456D01*
X478006Y396483D01*
X478647Y395647D01*
X479483Y395006D01*
X480456Y394603D01*
X481500Y394465D01*
X486500D01*
X487544Y394603D01*
X488517Y395006D01*
X489353Y395647D01*
X489500Y395839D01*
X490500Y395499D01*
Y391500D01*
X489500Y391161D01*
X489353Y391353D01*
X488517Y391994D01*
X487544Y392397D01*
X486500Y392534D01*
X481500D01*
X480456Y392397D01*
X479483Y391994D01*
X478647Y391353D01*
X478006Y390517D01*
X477603Y389544D01*
X477465Y388500D01*
X477603Y387456D01*
X478006Y386483D01*
X478647Y385647D01*
X479483Y385006D01*
X480456Y384603D01*
X481500Y384466D01*
X486500D01*
X487544Y384603D01*
X488517Y385006D01*
X489353Y385647D01*
X489500Y385839D01*
X490500Y385500D01*
Y381501D01*
X489500Y381161D01*
X489353Y381353D01*
X488517Y381994D01*
X487544Y382397D01*
X486500Y382535D01*
X484500D01*
Y378500D01*
Y374465D01*
X486500D01*
X487544Y374603D01*
X488517Y375006D01*
X489353Y375647D01*
X489500Y375839D01*
X490500Y375500D01*
Y371500D01*
X489500Y371161D01*
X489353Y371353D01*
X488517Y371994D01*
X487544Y372397D01*
X486500Y372534D01*
X481500D01*
X480456Y372397D01*
X479483Y371994D01*
X478647Y371353D01*
X478006Y370517D01*
X477603Y369544D01*
X477465Y368500D01*
X477603Y367456D01*
X478006Y366483D01*
X478647Y365647D01*
X479483Y365006D01*
X480456Y364603D01*
X481500Y364465D01*
X486500D01*
X487544Y364603D01*
X488517Y365006D01*
X489353Y365647D01*
X489500Y365839D01*
X490500Y365499D01*
Y361501D01*
X489500Y361161D01*
X489353Y361353D01*
X488517Y361994D01*
X487544Y362397D01*
X486500Y362534D01*
X481500D01*
X480456Y362397D01*
X479483Y361994D01*
X478647Y361353D01*
X478006Y360517D01*
X477603Y359544D01*
X477465Y358500D01*
X477603Y357456D01*
X478006Y356483D01*
X478647Y355647D01*
X479483Y355006D01*
X480456Y354603D01*
X481500Y354466D01*
X486500D01*
X487544Y354603D01*
X488517Y355006D01*
X489353Y355647D01*
X489500Y355839D01*
X490500Y355500D01*
Y351501D01*
X489500Y351161D01*
X489353Y351353D01*
X488517Y351994D01*
X487544Y352397D01*
X486500Y352535D01*
X484500D01*
Y348500D01*
Y344465D01*
X486500D01*
X487544Y344603D01*
X488517Y345006D01*
X489353Y345647D01*
X489500Y345839D01*
X490500Y345499D01*
Y341500D01*
X489500Y341161D01*
X489353Y341353D01*
X488517Y341994D01*
X487544Y342397D01*
X486500Y342534D01*
X481500D01*
X480456Y342397D01*
X479483Y341994D01*
X478647Y341353D01*
X478006Y340517D01*
X477603Y339544D01*
X477465Y338500D01*
X477603Y337456D01*
X478006Y336483D01*
X478647Y335647D01*
X479483Y335006D01*
X480456Y334603D01*
X481500Y334466D01*
X486500D01*
X487544Y334603D01*
X488517Y335006D01*
X489353Y335647D01*
X489500Y335839D01*
X490500Y335500D01*
Y331501D01*
X489500Y331161D01*
X489353Y331353D01*
X488517Y331994D01*
X487544Y332397D01*
X486500Y332535D01*
X484500D01*
Y328500D01*
Y324465D01*
X486500D01*
X487544Y324603D01*
X488517Y325006D01*
X489353Y325647D01*
X489500Y325839D01*
X490500Y325500D01*
Y321500D01*
X489500Y321161D01*
X489353Y321353D01*
X488517Y321994D01*
X487544Y322397D01*
X486500Y322534D01*
X484500D01*
Y318500D01*
Y314465D01*
X486500D01*
X487544Y314603D01*
X488517Y315006D01*
X489353Y315647D01*
X489500Y315839D01*
X490500Y315499D01*
Y311501D01*
X489500Y311161D01*
X489353Y311353D01*
X488517Y311994D01*
X487544Y312397D01*
X486500Y312534D01*
X481500D01*
X480456Y312397D01*
X479483Y311994D01*
X478647Y311353D01*
X478006Y310517D01*
X477603Y309544D01*
X477465Y308500D01*
X477603Y307456D01*
X478006Y306483D01*
X478647Y305647D01*
X479483Y305006D01*
X480456Y304603D01*
X481500Y304466D01*
X486500D01*
X487544Y304603D01*
X488517Y305006D01*
X489353Y305647D01*
X489500Y305839D01*
X490500Y305500D01*
Y301501D01*
X489500Y301161D01*
X489353Y301353D01*
X488517Y301994D01*
X487544Y302397D01*
X486500Y302535D01*
X481500D01*
X480456Y302397D01*
X479483Y301994D01*
X478647Y301353D01*
X478006Y300517D01*
X477603Y299544D01*
X477465Y298500D01*
X477603Y297456D01*
X478006Y296483D01*
X478647Y295647D01*
X479483Y295006D01*
X480456Y294603D01*
X481500Y294465D01*
X486500D01*
X487544Y294603D01*
X488517Y295006D01*
X489353Y295647D01*
X489500Y295839D01*
X490500Y295499D01*
Y291500D01*
X489500Y291161D01*
X489353Y291353D01*
X488517Y291994D01*
X487544Y292397D01*
X486500Y292534D01*
X481500D01*
X480456Y292397D01*
X479483Y291994D01*
X478647Y291353D01*
X478006Y290517D01*
X477603Y289544D01*
X477465Y288500D01*
X477603Y287456D01*
X478006Y286483D01*
X478647Y285647D01*
X479483Y285006D01*
X480456Y284603D01*
X481500Y284466D01*
X486500D01*
X487544Y284603D01*
X488517Y285006D01*
X489353Y285647D01*
X489500Y285839D01*
X490500Y285500D01*
Y281501D01*
X489500Y281161D01*
X489353Y281353D01*
X488517Y281994D01*
X487544Y282397D01*
X486500Y282535D01*
X481500D01*
X480456Y282397D01*
X479483Y281994D01*
X478647Y281353D01*
X478006Y280517D01*
X477603Y279544D01*
X477465Y278500D01*
X477603Y277456D01*
X478006Y276483D01*
X478647Y275647D01*
X479483Y275006D01*
X480456Y274603D01*
X481500Y274465D01*
X486500D01*
X487544Y274603D01*
X488517Y275006D01*
X489353Y275647D01*
X489500Y275839D01*
X490500Y275500D01*
Y271500D01*
X489500Y271161D01*
X489353Y271353D01*
X488517Y271994D01*
X487544Y272397D01*
X486500Y272534D01*
X481500D01*
X480456Y272397D01*
X479483Y271994D01*
X478647Y271353D01*
X478006Y270517D01*
X477603Y269544D01*
X477465Y268500D01*
X477603Y267456D01*
X478006Y266483D01*
X478647Y265647D01*
X479483Y265006D01*
X480456Y264603D01*
X481500Y264465D01*
X486500D01*
X487544Y264603D01*
X488517Y265006D01*
X489353Y265647D01*
X489500Y265839D01*
X490500Y265499D01*
Y261501D01*
X489500Y261161D01*
X489353Y261353D01*
X488517Y261994D01*
X487544Y262397D01*
X486500Y262534D01*
X484500D01*
Y258500D01*
Y254466D01*
X486500D01*
X487544Y254603D01*
X488517Y255006D01*
X489353Y255647D01*
X489500Y255839D01*
X490500Y255500D01*
Y251501D01*
X489500Y251161D01*
X489353Y251353D01*
X488517Y251994D01*
X487544Y252397D01*
X486500Y252535D01*
X484500D01*
Y248500D01*
Y244465D01*
X486500D01*
X487544Y244603D01*
X488517Y245006D01*
X489353Y245647D01*
X489500Y245839D01*
X490500Y245499D01*
Y241500D01*
X489500Y241161D01*
X489353Y241353D01*
X488517Y241994D01*
X487544Y242397D01*
X486500Y242534D01*
X481500D01*
X480456Y242397D01*
X479483Y241994D01*
X478647Y241353D01*
X478006Y240517D01*
X477603Y239544D01*
X477465Y238500D01*
X477603Y237456D01*
X478006Y236483D01*
X478647Y235647D01*
X479483Y235006D01*
X480456Y234603D01*
X481500Y234466D01*
X486500D01*
X487544Y234603D01*
X488517Y235006D01*
X489353Y235647D01*
X489500Y235839D01*
X490500Y235500D01*
Y231501D01*
X489500Y231161D01*
X489353Y231353D01*
X488517Y231994D01*
X487544Y232397D01*
X486500Y232535D01*
X481500D01*
X480456Y232397D01*
X479483Y231994D01*
X478647Y231353D01*
X478006Y230517D01*
X477603Y229544D01*
X477465Y228500D01*
X477603Y227456D01*
X478006Y226483D01*
X478647Y225647D01*
X479483Y225006D01*
X480456Y224603D01*
X481500Y224465D01*
X486500D01*
X487544Y224603D01*
X488517Y225006D01*
X489353Y225647D01*
X489500Y225839D01*
X490500Y225500D01*
Y221500D01*
X489500Y221161D01*
X489353Y221353D01*
X488517Y221994D01*
X487544Y222397D01*
X486500Y222534D01*
X481500D01*
X480456Y222397D01*
X479483Y221994D01*
X478647Y221353D01*
X478006Y220517D01*
X477603Y219544D01*
X477465Y218500D01*
X477603Y217456D01*
X478006Y216483D01*
X478647Y215647D01*
X479483Y215006D01*
X480456Y214603D01*
X481500Y214465D01*
X486500D01*
X487544Y214603D01*
X488517Y215006D01*
X489353Y215647D01*
X489500Y215839D01*
X490500Y215499D01*
Y193000D01*
X488000D01*
X487494Y193983D01*
X487897Y194956D01*
X488034Y196000D01*
Y201000D01*
X487897Y202044D01*
X487494Y203017D01*
X486853Y203853D01*
X486017Y204494D01*
X485044Y204897D01*
X484000Y205034D01*
X482956Y204897D01*
X481983Y204494D01*
X481147Y203853D01*
X480506Y203017D01*
X480103Y202044D01*
X479965Y201000D01*
Y196000D01*
X480103Y194956D01*
X480506Y193983D01*
X480000Y193000D01*
X478000D01*
X477494Y193983D01*
X477897Y194956D01*
X478034Y196000D01*
Y201000D01*
X477897Y202044D01*
X477494Y203017D01*
X476853Y203853D01*
X476017Y204494D01*
X475044Y204897D01*
X474000Y205034D01*
X472956Y204897D01*
X471983Y204494D01*
X471147Y203853D01*
X470506Y203017D01*
X470103Y202044D01*
X469966Y201000D01*
Y196000D01*
X470103Y194956D01*
X470506Y193983D01*
X470000Y193000D01*
X468000D01*
X467494Y193983D01*
X467897Y194956D01*
X468035Y196000D01*
Y201000D01*
X467897Y202044D01*
X467494Y203017D01*
X466853Y203853D01*
X466017Y204494D01*
X465044Y204897D01*
X464000Y205034D01*
X462956Y204897D01*
X461983Y204494D01*
X461147Y203853D01*
X460506Y203017D01*
X460103Y202044D01*
X459966Y201000D01*
Y196000D01*
X460103Y194956D01*
X460506Y193983D01*
X460000Y193000D01*
X458000D01*
X457494Y193983D01*
X457897Y194956D01*
X458035Y196000D01*
Y201000D01*
X457897Y202044D01*
X457494Y203017D01*
X456853Y203853D01*
X456017Y204494D01*
X455044Y204897D01*
X454000Y205034D01*
X452956Y204897D01*
X451983Y204494D01*
X451147Y203853D01*
X450506Y203017D01*
X450103Y202044D01*
X449965Y201000D01*
Y196000D01*
X450103Y194956D01*
X450506Y193983D01*
X450000Y193000D01*
X448000D01*
X447494Y193983D01*
X447897Y194956D01*
X448034Y196000D01*
Y198000D01*
X444000D01*
X439965D01*
Y196000D01*
X440103Y194956D01*
X440506Y193983D01*
X440000Y193000D01*
X438000D01*
X437494Y193983D01*
X437897Y194956D01*
X438034Y196000D01*
Y201000D01*
X437897Y202044D01*
X437494Y203017D01*
X436853Y203853D01*
X436017Y204494D01*
X435044Y204897D01*
X434000Y205034D01*
X432956Y204897D01*
X431983Y204494D01*
X431147Y203853D01*
X430506Y203017D01*
X430103Y202044D01*
X429965Y201000D01*
Y196000D01*
X430103Y194956D01*
X430506Y193983D01*
X430000Y193000D01*
X428000D01*
X427494Y193983D01*
X427897Y194956D01*
X428034Y196000D01*
Y201000D01*
X427897Y202044D01*
X427494Y203017D01*
X426853Y203853D01*
X426017Y204494D01*
X425044Y204897D01*
X424000Y205034D01*
X422956Y204897D01*
X421983Y204494D01*
X421147Y203853D01*
X420506Y203017D01*
X420103Y202044D01*
X419966Y201000D01*
Y196000D01*
X420103Y194956D01*
X420506Y193983D01*
X420000Y193000D01*
X418000D01*
X417494Y193983D01*
X417897Y194956D01*
X418035Y196000D01*
Y201000D01*
X417897Y202044D01*
X417494Y203017D01*
X416853Y203853D01*
X416017Y204494D01*
X415044Y204897D01*
X414000Y205034D01*
X412956Y204897D01*
X411983Y204494D01*
X411147Y203853D01*
X410506Y203017D01*
X410103Y202044D01*
X409966Y201000D01*
Y196000D01*
X410103Y194956D01*
X410506Y193983D01*
X410000Y193000D01*
X408000D01*
X407494Y193983D01*
X407897Y194956D01*
X408035Y196000D01*
Y199495D01*
X408119Y199622D01*
X408294Y200500D01*
Y210500D01*
X408119Y211378D01*
X407622Y212122D01*
X406878Y212619D01*
X406000Y212794D01*
X391151D01*
X390996Y212996D01*
X390265Y213557D01*
X389414Y213910D01*
X388500Y214030D01*
X387586Y213910D01*
X386735Y213557D01*
X386004Y212996D01*
X385443Y212265D01*
X385090Y211414D01*
X384970Y210500D01*
X385090Y209586D01*
X385443Y208735D01*
X386004Y208004D01*
X386735Y207443D01*
X387586Y207090D01*
X388500Y206970D01*
X389414Y207090D01*
X390265Y207443D01*
X390996Y208004D01*
X391151Y208206D01*
X403706D01*
Y204996D01*
X402956Y204897D01*
X401983Y204494D01*
X401147Y203853D01*
X400506Y203017D01*
X400103Y202044D01*
X399966Y201000D01*
Y196000D01*
X400103Y194956D01*
X400506Y193983D01*
X400000Y193000D01*
X398000D01*
X397494Y193983D01*
X397897Y194956D01*
X398035Y196000D01*
Y201000D01*
X397897Y202044D01*
X397494Y203017D01*
X396853Y203853D01*
X396017Y204494D01*
X395044Y204897D01*
X394000Y205034D01*
X392956Y204897D01*
X391983Y204494D01*
X391147Y203853D01*
X390506Y203017D01*
X390103Y202044D01*
X389966Y201000D01*
Y196000D01*
X390103Y194956D01*
X390506Y193983D01*
X390000Y193000D01*
X388000D01*
X387494Y193983D01*
X387897Y194956D01*
X388035Y196000D01*
Y198000D01*
X384000D01*
X379965D01*
Y196000D01*
X380103Y194956D01*
X380506Y193983D01*
X380000Y193000D01*
X378000D01*
X377494Y193983D01*
X377897Y194956D01*
X378034Y196000D01*
Y201000D01*
X377897Y202044D01*
X377494Y203017D01*
X376853Y203853D01*
X376017Y204494D01*
X375044Y204897D01*
X374000Y205034D01*
X372956Y204897D01*
X371983Y204494D01*
X371147Y203853D01*
X370506Y203017D01*
X370103Y202044D01*
X369966Y201000D01*
Y196000D01*
X370103Y194956D01*
X370506Y193983D01*
X370000Y193000D01*
X368000D01*
X367494Y193983D01*
X367897Y194956D01*
X368035Y196000D01*
Y201000D01*
X367897Y202044D01*
X367494Y203017D01*
X366853Y203853D01*
X366017Y204494D01*
X365044Y204897D01*
X364000Y205034D01*
X362956Y204897D01*
X361983Y204494D01*
X361147Y203853D01*
X360506Y203017D01*
X360103Y202044D01*
X359965Y201000D01*
Y196000D01*
X360103Y194956D01*
X360506Y193983D01*
X360000Y193000D01*
X358000D01*
X357494Y193983D01*
X357897Y194956D01*
X358034Y196000D01*
Y201000D01*
X357897Y202044D01*
X357494Y203017D01*
X356853Y203853D01*
X356017Y204494D01*
X355044Y204897D01*
X354000Y205034D01*
X352956Y204897D01*
X351983Y204494D01*
X351147Y203853D01*
X350506Y203017D01*
X350103Y202044D01*
X349966Y201000D01*
Y196000D01*
X350103Y194956D01*
X350506Y193983D01*
X350000Y193000D01*
X348000D01*
X347494Y193983D01*
X347897Y194956D01*
X348035Y196000D01*
Y201000D01*
X347897Y202044D01*
X347494Y203017D01*
X346853Y203853D01*
X346017Y204494D01*
X345044Y204897D01*
X344000Y205034D01*
X342956Y204897D01*
X341983Y204494D01*
X341147Y203853D01*
X340506Y203017D01*
X340103Y202044D01*
X339966Y201000D01*
Y196000D01*
X340103Y194956D01*
X340506Y193983D01*
X340000Y193000D01*
X338000D01*
X337494Y193983D01*
X337897Y194956D01*
X338035Y196000D01*
Y201000D01*
X337897Y202044D01*
X337494Y203017D01*
X336853Y203853D01*
X336017Y204494D01*
X335044Y204897D01*
X334000Y205034D01*
X332956Y204897D01*
X331983Y204494D01*
X331147Y203853D01*
X330506Y203017D01*
X330103Y202044D01*
X329965Y201000D01*
Y196000D01*
X330103Y194956D01*
X330506Y193983D01*
X330000Y193000D01*
X328000D01*
X327494Y193983D01*
X327897Y194956D01*
X328034Y196000D01*
Y201000D01*
X327897Y202044D01*
X327494Y203017D01*
X326853Y203853D01*
X326017Y204494D01*
X325044Y204897D01*
X324000Y205034D01*
X322956Y204897D01*
X321983Y204494D01*
X321147Y203853D01*
X320506Y203017D01*
X320103Y202044D01*
X319966Y201000D01*
Y196000D01*
X320103Y194956D01*
X320506Y193983D01*
X320000Y193000D01*
X318000D01*
X317494Y193983D01*
X317897Y194956D01*
X318035Y196000D01*
Y201000D01*
X317897Y202044D01*
X317494Y203017D01*
X316853Y203853D01*
X316017Y204494D01*
X315044Y204897D01*
X314000Y205034D01*
X312956Y204897D01*
X311983Y204494D01*
X311147Y203853D01*
X310506Y203017D01*
X310103Y202044D01*
X309965Y201000D01*
Y196000D01*
X310103Y194956D01*
X310506Y193983D01*
X310000Y193000D01*
X308000D01*
X307494Y193983D01*
X307897Y194956D01*
X308034Y196000D01*
Y201000D01*
X307897Y202044D01*
X307494Y203017D01*
X306853Y203853D01*
X306017Y204494D01*
X305044Y204897D01*
X304000Y205034D01*
X302956Y204897D01*
X301983Y204494D01*
X301147Y203853D01*
X300506Y203017D01*
X300103Y202044D01*
X299966Y201000D01*
Y196000D01*
X300103Y194956D01*
X300506Y193983D01*
X300000Y193000D01*
X298000D01*
Y198000D01*
X294000D01*
X290000D01*
Y193000D01*
X289000D01*
X287019Y194981D01*
Y195019D01*
X287500Y195500D01*
Y215499D01*
X288500Y215839D01*
X288647Y215647D01*
X289483Y215006D01*
X290456Y214603D01*
X291500Y214465D01*
X296500D01*
X297544Y214603D01*
X298517Y215006D01*
X299353Y215647D01*
X299994Y216483D01*
X300397Y217456D01*
X300535Y218500D01*
X300397Y219544D01*
X299994Y220517D01*
X299353Y221353D01*
X298517Y221994D01*
X297544Y222397D01*
X296500Y222534D01*
X291500D01*
X290456Y222397D01*
X289483Y221994D01*
X288647Y221353D01*
X288500Y221161D01*
X287500Y221500D01*
Y225500D01*
X288500Y225839D01*
X288647Y225647D01*
X289483Y225006D01*
X290456Y224603D01*
X291500Y224465D01*
X296500D01*
X297544Y224603D01*
X298517Y225006D01*
X299353Y225647D01*
X299994Y226483D01*
X300397Y227456D01*
X300535Y228500D01*
X300397Y229544D01*
X299994Y230517D01*
X299353Y231353D01*
X298517Y231994D01*
X297544Y232397D01*
X296500Y232535D01*
X291500D01*
X290456Y232397D01*
X289483Y231994D01*
X288647Y231353D01*
X288500Y231161D01*
X287500Y231501D01*
Y235500D01*
X288500Y235839D01*
X288647Y235647D01*
X289483Y235006D01*
X290456Y234603D01*
X291500Y234466D01*
X296500D01*
X297544Y234603D01*
X298517Y235006D01*
X299353Y235647D01*
X299994Y236483D01*
X300397Y237456D01*
X300535Y238500D01*
X300397Y239544D01*
X299994Y240517D01*
X299353Y241353D01*
X298517Y241994D01*
X297544Y242397D01*
X296500Y242534D01*
X291500D01*
X290456Y242397D01*
X289483Y241994D01*
X288647Y241353D01*
X288500Y241161D01*
X287500Y241500D01*
Y245499D01*
X288500Y245839D01*
X288647Y245647D01*
X289483Y245006D01*
X290456Y244603D01*
X291500Y244465D01*
X296500D01*
X297544Y244603D01*
X298517Y245006D01*
X299353Y245647D01*
X299994Y246483D01*
X300397Y247456D01*
X300535Y248500D01*
X300397Y249544D01*
X299994Y250517D01*
X299353Y251353D01*
X298517Y251994D01*
X297544Y252397D01*
X296500Y252535D01*
X291500D01*
X290456Y252397D01*
X289483Y251994D01*
X288647Y251353D01*
X288500Y251161D01*
X287500Y251501D01*
Y255500D01*
X288500Y255839D01*
X288647Y255647D01*
X289483Y255006D01*
X290456Y254603D01*
X291500Y254466D01*
X293500D01*
Y258500D01*
Y262534D01*
X291500D01*
X290456Y262397D01*
X289483Y261994D01*
X288647Y261353D01*
X288500Y261161D01*
X287500Y261501D01*
Y265499D01*
X288500Y265839D01*
X288647Y265647D01*
X289483Y265006D01*
X290456Y264603D01*
X291500Y264465D01*
X293500D01*
Y268500D01*
Y272534D01*
X291500D01*
X290456Y272397D01*
X289483Y271994D01*
X288647Y271353D01*
X288500Y271161D01*
X287500Y271500D01*
Y275500D01*
X288500Y275839D01*
X288647Y275647D01*
X289483Y275006D01*
X290456Y274603D01*
X291500Y274465D01*
X296500D01*
X297544Y274603D01*
X298517Y275006D01*
X299353Y275647D01*
X299994Y276483D01*
X300397Y277456D01*
X300535Y278500D01*
X300397Y279544D01*
X299994Y280517D01*
X299353Y281353D01*
X298517Y281994D01*
X297544Y282397D01*
X296500Y282535D01*
X291500D01*
X290456Y282397D01*
X289483Y281994D01*
X288647Y281353D01*
X288500Y281161D01*
X287500Y281501D01*
Y285500D01*
X288500Y285839D01*
X288647Y285647D01*
X289483Y285006D01*
X290456Y284603D01*
X291500Y284466D01*
X296500D01*
X297544Y284603D01*
X298517Y285006D01*
X299353Y285647D01*
X299994Y286483D01*
X300397Y287456D01*
X300535Y288500D01*
X300397Y289544D01*
X299994Y290517D01*
X299353Y291353D01*
X298517Y291994D01*
X297544Y292397D01*
X296500Y292534D01*
X291500D01*
X290456Y292397D01*
X289483Y291994D01*
X288647Y291353D01*
X288500Y291161D01*
X287500Y291500D01*
Y295499D01*
X288500Y295839D01*
X288647Y295647D01*
X289483Y295006D01*
X290456Y294603D01*
X291500Y294465D01*
X296500D01*
X297544Y294603D01*
X298517Y295006D01*
X299353Y295647D01*
X299994Y296483D01*
X300397Y297456D01*
X300535Y298500D01*
X300397Y299544D01*
X299994Y300517D01*
X299353Y301353D01*
X298517Y301994D01*
X297544Y302397D01*
X296500Y302535D01*
X291500D01*
X290456Y302397D01*
X289483Y301994D01*
X288647Y301353D01*
X288500Y301161D01*
X287500Y301501D01*
Y305500D01*
X288500Y305839D01*
X288647Y305647D01*
X289483Y305006D01*
X290456Y304603D01*
X291500Y304466D01*
X296500D01*
X297544Y304603D01*
X298517Y305006D01*
X299353Y305647D01*
X299994Y306483D01*
X300397Y307456D01*
X300535Y308500D01*
X300397Y309544D01*
X299994Y310517D01*
X299353Y311353D01*
X298517Y311994D01*
X297544Y312397D01*
X296500Y312534D01*
X291500D01*
X290456Y312397D01*
X289483Y311994D01*
X288647Y311353D01*
X288500Y311161D01*
X287500Y311501D01*
Y315499D01*
X288500Y315839D01*
X288647Y315647D01*
X289483Y315006D01*
X290456Y314603D01*
X291500Y314465D01*
X296500D01*
X297544Y314603D01*
X298517Y315006D01*
X299353Y315647D01*
X299994Y316483D01*
X300397Y317456D01*
X300535Y318500D01*
X300397Y319544D01*
X299994Y320517D01*
X299353Y321353D01*
X298517Y321994D01*
X297544Y322397D01*
X296500Y322534D01*
X291500D01*
X290456Y322397D01*
X289483Y321994D01*
X288647Y321353D01*
X288500Y321161D01*
X287500Y321500D01*
Y325500D01*
X288500Y325839D01*
X288647Y325647D01*
X289483Y325006D01*
X290456Y324603D01*
X291500Y324465D01*
X296500D01*
X297544Y324603D01*
X298517Y325006D01*
X299353Y325647D01*
X299994Y326483D01*
X300397Y327456D01*
X300535Y328500D01*
X300397Y329544D01*
X299994Y330517D01*
X299353Y331353D01*
X298517Y331994D01*
X297544Y332397D01*
X296500Y332535D01*
X291500D01*
X290456Y332397D01*
X289483Y331994D01*
X288647Y331353D01*
X288500Y331161D01*
X287500Y331501D01*
Y335500D01*
X288500Y335839D01*
X288647Y335647D01*
X289483Y335006D01*
X290456Y334603D01*
X291500Y334466D01*
X296500D01*
X297544Y334603D01*
X298517Y335006D01*
X299353Y335647D01*
X299994Y336483D01*
X300196Y336971D01*
X317131D01*
X317467Y336092D01*
X317484Y335971D01*
X316943Y335265D01*
X316590Y334414D01*
X316470Y333500D01*
X316590Y332586D01*
X316943Y331735D01*
X317504Y331004D01*
X318235Y330443D01*
X318471Y330345D01*
Y309655D01*
X318235Y309557D01*
X317504Y308996D01*
X316943Y308265D01*
X316590Y307414D01*
X316470Y306500D01*
X316590Y305586D01*
X316943Y304735D01*
X317504Y304004D01*
X318235Y303443D01*
X319086Y303090D01*
X320000Y302970D01*
X320914Y303090D01*
X321765Y303443D01*
X322496Y304004D01*
X323057Y304735D01*
X323410Y305586D01*
X323530Y306500D01*
X323410Y307414D01*
X323057Y308265D01*
X322496Y308996D01*
X321765Y309557D01*
X321529Y309655D01*
Y330345D01*
X321765Y330443D01*
X322496Y331004D01*
X322897Y331526D01*
X324032Y331805D01*
X332471Y323366D01*
Y308843D01*
X332587Y308258D01*
X332919Y307762D01*
X335262Y305419D01*
X335758Y305087D01*
X336343Y304971D01*
X349040D01*
X349090Y304586D01*
X349443Y303735D01*
X350004Y303004D01*
X350735Y302443D01*
X351586Y302090D01*
X352500Y301970D01*
X353414Y302090D01*
X354265Y302443D01*
X354996Y303004D01*
X355557Y303735D01*
X355910Y304586D01*
X356030Y305500D01*
X355971Y305952D01*
X356918Y306419D01*
X363971Y299366D01*
Y293500D01*
X364087Y292915D01*
X364419Y292419D01*
X366919Y289919D01*
X367415Y289587D01*
X368000Y289471D01*
X381646D01*
X382004Y289004D01*
X382735Y288443D01*
X383586Y288090D01*
X384500Y287970D01*
X385414Y288090D01*
X386265Y288443D01*
X386996Y289004D01*
X387557Y289735D01*
X387910Y290586D01*
X388030Y291500D01*
X387910Y292414D01*
X387557Y293265D01*
X386996Y293996D01*
X386265Y294557D01*
X385414Y294910D01*
X384500Y295030D01*
X383586Y294910D01*
X382735Y294557D01*
X382004Y293996D01*
X381443Y293265D01*
X381138Y292529D01*
X378018D01*
X377953Y293529D01*
X378414Y293590D01*
X379265Y293943D01*
X379996Y294504D01*
X380557Y295235D01*
X380910Y296086D01*
X380983Y296643D01*
X381791Y297085D01*
X382016Y297111D01*
X382235Y296943D01*
X383086Y296590D01*
X383500Y296536D01*
Y300000D01*
Y303464D01*
X383086Y303410D01*
X382235Y303057D01*
X381504Y302496D01*
X380943Y301765D01*
X380590Y300914D01*
X380517Y300357D01*
X379709Y299915D01*
X379484Y299889D01*
X379265Y300057D01*
X378414Y300410D01*
X377500Y300530D01*
X376586Y300410D01*
X376108Y300212D01*
X355738Y320581D01*
X355242Y320913D01*
X354657Y321029D01*
X348477D01*
X346840Y322666D01*
X347208Y323712D01*
X347765Y323943D01*
X348496Y324504D01*
X349057Y325235D01*
X349410Y326086D01*
X349464Y326500D01*
X346000D01*
Y327500D01*
X349464D01*
X349410Y327914D01*
X349057Y328765D01*
X348496Y329496D01*
X347765Y330057D01*
X346914Y330410D01*
X346000Y330530D01*
X345029Y331411D01*
Y334866D01*
X348082Y337919D01*
X351106D01*
X351691Y338036D01*
X352187Y338367D01*
X355081Y341262D01*
X355413Y341758D01*
X355529Y342343D01*
Y357146D01*
X355996Y357504D01*
X356557Y358235D01*
X356910Y359086D01*
X357030Y360000D01*
X356910Y360914D01*
X356557Y361765D01*
X355996Y362496D01*
X355265Y363057D01*
X354414Y363410D01*
X353500Y363530D01*
X352586Y363410D01*
X351735Y363057D01*
X351004Y362496D01*
X350443Y361765D01*
X350090Y360914D01*
X349970Y360000D01*
X350090Y359086D01*
X350443Y358235D01*
X351004Y357504D01*
X351735Y356943D01*
X352471Y356638D01*
Y355158D01*
X351471Y354679D01*
X350914Y354910D01*
X350000Y355030D01*
X349086Y354910D01*
X348235Y354557D01*
X347504Y353996D01*
X346943Y353265D01*
X346590Y352414D01*
X346470Y351500D01*
X346590Y350586D01*
X346688Y350351D01*
X336919Y340581D01*
X336587Y340085D01*
X336471Y339500D01*
Y330999D01*
X335547Y330616D01*
X316581Y349581D01*
X316085Y349913D01*
X315500Y350029D01*
X300196D01*
X299994Y350517D01*
X299353Y351353D01*
X298517Y351994D01*
X297544Y352397D01*
X296500Y352535D01*
X291500D01*
X290456Y352397D01*
X289483Y351994D01*
X288647Y351353D01*
X288500Y351161D01*
X287500Y351501D01*
Y355500D01*
X288500Y355839D01*
X288647Y355647D01*
X289483Y355006D01*
X290456Y354603D01*
X291500Y354466D01*
X293500D01*
Y358500D01*
Y362534D01*
X291500D01*
X290456Y362397D01*
X289483Y361994D01*
X288647Y361353D01*
X288500Y361161D01*
X287500Y361501D01*
Y365499D01*
X288500Y365839D01*
X288647Y365647D01*
X289483Y365006D01*
X290456Y364603D01*
X291500Y364465D01*
X296500D01*
X297544Y364603D01*
X298517Y365006D01*
X299353Y365647D01*
X299994Y366483D01*
X300397Y367456D01*
X300535Y368500D01*
X300397Y369544D01*
X299994Y370517D01*
X299353Y371353D01*
X298517Y371994D01*
X297544Y372397D01*
X296500Y372534D01*
X291500D01*
X290456Y372397D01*
X289483Y371994D01*
X288647Y371353D01*
X288500Y371161D01*
X287500Y371500D01*
Y375500D01*
X288500Y375839D01*
X288647Y375647D01*
X289483Y375006D01*
X290456Y374603D01*
X291500Y374465D01*
X293500D01*
Y378500D01*
Y382535D01*
X291500D01*
X290456Y382397D01*
X289483Y381994D01*
X288647Y381353D01*
X288500Y381161D01*
X287500Y381501D01*
Y385500D01*
X288500Y385839D01*
X288647Y385647D01*
X289483Y385006D01*
X290456Y384603D01*
X291500Y384466D01*
X296500D01*
X297544Y384603D01*
X298517Y385006D01*
X299353Y385647D01*
X299994Y386483D01*
X300397Y387456D01*
X300535Y388500D01*
X300397Y389544D01*
X299994Y390517D01*
X299353Y391353D01*
X298517Y391994D01*
X297544Y392397D01*
X296500Y392534D01*
X291500D01*
X290456Y392397D01*
X289483Y391994D01*
X288647Y391353D01*
X288500Y391161D01*
X287500Y391500D01*
Y395499D01*
X288500Y395839D01*
X288647Y395647D01*
X289483Y395006D01*
X290456Y394603D01*
X291500Y394465D01*
X293500D01*
Y398500D01*
Y402534D01*
X291500D01*
X290456Y402397D01*
X289483Y401994D01*
X288647Y401353D01*
X288500Y401161D01*
X287500Y401501D01*
Y404500D01*
X300500D01*
Y412500D01*
X287500D01*
Y454500D01*
X289000Y456500D01*
X489000D01*
X490980Y454520D01*
D02*
G37*
%LPC*%
G36*
X296500Y272534D02*
X294500D01*
Y269000D01*
X300469D01*
X300397Y269544D01*
X299994Y270517D01*
X299353Y271353D01*
X298517Y271994D01*
X297544Y272397D01*
X296500Y272534D01*
D02*
G37*
G36*
X387464Y299500D02*
X384500D01*
Y296536D01*
X384914Y296590D01*
X385765Y296943D01*
X386496Y297504D01*
X387057Y298235D01*
X387410Y299086D01*
X387464Y299500D01*
D02*
G37*
G36*
X296500Y262534D02*
X294500D01*
Y259000D01*
X300469D01*
X300397Y259544D01*
X299994Y260517D01*
X299353Y261353D01*
X298517Y261994D01*
X297544Y262397D01*
X296500Y262534D01*
D02*
G37*
G36*
X483500D02*
X481500D01*
X480456Y262397D01*
X479483Y261994D01*
X478647Y261353D01*
X478006Y260517D01*
X477603Y259544D01*
X477531Y259000D01*
X483500D01*
Y262534D01*
D02*
G37*
G36*
X300469Y268000D02*
X294500D01*
Y264465D01*
X296500D01*
X297544Y264603D01*
X298517Y265006D01*
X299353Y265647D01*
X299994Y266483D01*
X300397Y267456D01*
X300469Y268000D01*
D02*
G37*
G36*
X384500Y303464D02*
Y300500D01*
X387464D01*
X387410Y300914D01*
X387057Y301765D01*
X386496Y302496D01*
X385765Y303057D01*
X384914Y303410D01*
X384500Y303464D01*
D02*
G37*
G36*
X383000Y349030D02*
X382086Y348910D01*
X381235Y348557D01*
X380504Y347996D01*
X379943Y347265D01*
X379590Y346414D01*
X379470Y345500D01*
X379590Y344586D01*
X379943Y343735D01*
X380504Y343004D01*
X380961Y342653D01*
Y334000D01*
X381116Y333220D01*
X381558Y332558D01*
X385058Y329058D01*
X385720Y328616D01*
X386500Y328461D01*
X412153D01*
X412504Y328004D01*
X413235Y327443D01*
X414086Y327090D01*
X415000Y326970D01*
X415914Y327090D01*
X416765Y327443D01*
X417496Y328004D01*
X418057Y328735D01*
X418410Y329586D01*
X418530Y330500D01*
X418410Y331414D01*
X418057Y332265D01*
X417496Y332996D01*
X416765Y333557D01*
X416595Y333628D01*
X416539Y333924D01*
X416649Y334688D01*
X417265Y334943D01*
X417996Y335504D01*
X418557Y336235D01*
X418910Y337086D01*
X418964Y337500D01*
X412036D01*
X412090Y337086D01*
X412443Y336235D01*
X413004Y335504D01*
X413735Y334943D01*
X413905Y334872D01*
X413961Y334577D01*
X413851Y333812D01*
X413235Y333557D01*
X412504Y332996D01*
X412153Y332539D01*
X387345D01*
X385039Y334845D01*
Y342653D01*
X385496Y343004D01*
X386057Y343735D01*
X386410Y344586D01*
X386530Y345500D01*
X386410Y346414D01*
X386057Y347265D01*
X385496Y347996D01*
X384765Y348557D01*
X383914Y348910D01*
X383000Y349030D01*
D02*
G37*
G36*
X483500Y332535D02*
X481500D01*
X480456Y332397D01*
X479483Y331994D01*
X478647Y331353D01*
X478006Y330517D01*
X477603Y329544D01*
X477531Y329000D01*
X483500D01*
Y332535D01*
D02*
G37*
G36*
Y328000D02*
X477531D01*
X477603Y327456D01*
X478006Y326483D01*
X478647Y325647D01*
X479483Y325006D01*
X480456Y324603D01*
X481500Y324465D01*
X483500D01*
Y328000D01*
D02*
G37*
G36*
Y318000D02*
X477531D01*
X477603Y317456D01*
X478006Y316483D01*
X478647Y315647D01*
X479483Y315006D01*
X480456Y314603D01*
X481500Y314465D01*
X483500D01*
Y318000D01*
D02*
G37*
G36*
Y322534D02*
X481500D01*
X480456Y322397D01*
X479483Y321994D01*
X478647Y321353D01*
X478006Y320517D01*
X477603Y319544D01*
X477531Y319000D01*
X483500D01*
Y322534D01*
D02*
G37*
G36*
Y258000D02*
X477531D01*
X477603Y257456D01*
X478006Y256483D01*
X478647Y255647D01*
X479483Y255006D01*
X480456Y254603D01*
X481500Y254466D01*
X483500D01*
Y258000D01*
D02*
G37*
G36*
X298000Y205000D02*
X294500D01*
Y199000D01*
X298000D01*
Y205000D01*
D02*
G37*
G36*
X384500Y204969D02*
Y199000D01*
X388035D01*
Y201000D01*
X387897Y202044D01*
X387494Y203017D01*
X386853Y203853D01*
X386017Y204494D01*
X385044Y204897D01*
X384500Y204969D01*
D02*
G37*
G36*
X293500Y205000D02*
X290000D01*
Y199000D01*
X293500D01*
Y205000D01*
D02*
G37*
G36*
X383500Y204969D02*
X382956Y204897D01*
X381983Y204494D01*
X381147Y203853D01*
X380506Y203017D01*
X380103Y202044D01*
X379965Y201000D01*
Y199000D01*
X383500D01*
Y204969D01*
D02*
G37*
G36*
X443500D02*
X442956Y204897D01*
X441983Y204494D01*
X441147Y203853D01*
X440506Y203017D01*
X440103Y202044D01*
X439965Y201000D01*
Y199000D01*
X443500D01*
Y204969D01*
D02*
G37*
G36*
X444500D02*
Y199000D01*
X448034D01*
Y201000D01*
X447897Y202044D01*
X447494Y203017D01*
X446853Y203853D01*
X446017Y204494D01*
X445044Y204897D01*
X444500Y204969D01*
D02*
G37*
G36*
X442000Y256530D02*
X441086Y256410D01*
X440235Y256057D01*
X439504Y255496D01*
X439153Y255039D01*
X438500D01*
X437720Y254884D01*
X437058Y254442D01*
X420571Y237955D01*
X420000Y238030D01*
X419086Y237910D01*
X418235Y237557D01*
X417504Y236996D01*
X416943Y236265D01*
X416590Y235414D01*
X416470Y234500D01*
X416590Y233586D01*
X416943Y232735D01*
X417504Y232004D01*
X418235Y231443D01*
X419086Y231090D01*
X420000Y230970D01*
X420914Y231090D01*
X421765Y231443D01*
X422496Y232004D01*
X423057Y232735D01*
X423410Y233586D01*
X423530Y234500D01*
X423455Y235071D01*
X438926Y250542D01*
X439504Y250504D01*
X440235Y249943D01*
X441086Y249590D01*
X442000Y249470D01*
X442914Y249590D01*
X443765Y249943D01*
X444496Y250504D01*
X445057Y251235D01*
X445410Y252086D01*
X445530Y253000D01*
X445410Y253914D01*
X445057Y254765D01*
X444496Y255496D01*
X443765Y256057D01*
X442914Y256410D01*
X442000Y256530D01*
D02*
G37*
G36*
X300469Y258000D02*
X294500D01*
Y254466D01*
X296500D01*
X297544Y254603D01*
X298517Y255006D01*
X299353Y255647D01*
X299994Y256483D01*
X300397Y257456D01*
X300469Y258000D01*
D02*
G37*
G36*
X483500Y252535D02*
X481500D01*
X480456Y252397D01*
X479483Y251994D01*
X478647Y251353D01*
X478006Y250517D01*
X477603Y249544D01*
X477531Y249000D01*
X483500D01*
Y252535D01*
D02*
G37*
G36*
X384000Y242543D02*
X381803Y242370D01*
X379661Y241855D01*
X377625Y241012D01*
X375746Y239861D01*
X374070Y238430D01*
X372639Y236754D01*
X371488Y234875D01*
X370645Y232839D01*
X370130Y230697D01*
X369957Y228500D01*
X370130Y226303D01*
X370645Y224161D01*
X371488Y222125D01*
X372639Y220246D01*
X374070Y218570D01*
X375746Y217139D01*
X377625Y215988D01*
X379661Y215145D01*
X381803Y214630D01*
X384000Y214457D01*
X386197Y214630D01*
X388339Y215145D01*
X390375Y215988D01*
X392254Y217139D01*
X393930Y218570D01*
X395361Y220246D01*
X396512Y222125D01*
X397355Y224161D01*
X397870Y226303D01*
X398043Y228500D01*
X397870Y230697D01*
X397355Y232839D01*
X396512Y234875D01*
X395361Y236754D01*
X393930Y238430D01*
X392254Y239861D01*
X390375Y241012D01*
X388339Y241855D01*
X386197Y242370D01*
X384000Y242543D01*
D02*
G37*
G36*
X483500Y248000D02*
X477531D01*
X477603Y247456D01*
X478006Y246483D01*
X478647Y245647D01*
X479483Y245006D01*
X480456Y244603D01*
X481500Y244465D01*
X483500D01*
Y248000D01*
D02*
G37*
G36*
X415000Y341464D02*
X414586Y341410D01*
X413735Y341057D01*
X413004Y340496D01*
X412443Y339765D01*
X412090Y338914D01*
X412036Y338500D01*
X415000D01*
Y341464D01*
D02*
G37*
G36*
X483500Y382535D02*
X481500D01*
X480456Y382397D01*
X479483Y381994D01*
X478647Y381353D01*
X478006Y380517D01*
X477603Y379544D01*
X477531Y379000D01*
X483500D01*
Y382535D01*
D02*
G37*
G36*
X349000Y393030D02*
X348086Y392910D01*
X347235Y392557D01*
X346504Y391996D01*
X345943Y391265D01*
X345590Y390414D01*
X345470Y389500D01*
X345590Y388586D01*
X345688Y388351D01*
X343149Y385812D01*
X342914Y385910D01*
X342000Y386030D01*
X341086Y385910D01*
X340235Y385557D01*
X339504Y384996D01*
X338943Y384265D01*
X338590Y383414D01*
X338503Y382748D01*
X338232Y382363D01*
X337532Y381960D01*
X337000Y382030D01*
X336086Y381910D01*
X335235Y381557D01*
X334504Y380996D01*
X333943Y380265D01*
X333590Y379414D01*
X333470Y378500D01*
X333473Y378477D01*
X333000Y377530D01*
X332086Y377410D01*
X331235Y377057D01*
X330504Y376496D01*
X329943Y375765D01*
X329590Y374914D01*
X329470Y374000D01*
X329590Y373086D01*
X329943Y372235D01*
X330504Y371504D01*
X331235Y370943D01*
X332086Y370590D01*
X333000Y370470D01*
X333914Y370590D01*
X334765Y370943D01*
X335496Y371504D01*
X336057Y372235D01*
X336155Y372471D01*
X346107D01*
X346601Y371471D01*
X346443Y371265D01*
X346090Y370414D01*
X345970Y369500D01*
X345557Y369029D01*
X341155D01*
X341057Y369265D01*
X340496Y369996D01*
X339765Y370557D01*
X338914Y370910D01*
X338000Y371030D01*
X337086Y370910D01*
X336235Y370557D01*
X335504Y369996D01*
X334943Y369265D01*
X334590Y368414D01*
X334470Y367500D01*
X334590Y366586D01*
X334943Y365735D01*
X335504Y365004D01*
X336235Y364443D01*
X337086Y364090D01*
X338000Y363970D01*
X338914Y364090D01*
X339765Y364443D01*
X340496Y365004D01*
X341057Y365735D01*
X341155Y365971D01*
X347500D01*
X348085Y366087D01*
X348280Y366217D01*
X348586Y366090D01*
X349500Y365970D01*
X350414Y366090D01*
X351265Y366443D01*
X351996Y367004D01*
X352557Y367735D01*
X352910Y368586D01*
X353030Y369500D01*
X352997Y369748D01*
X353344Y370075D01*
X353925Y370364D01*
X354586Y370090D01*
X355500Y369970D01*
X356414Y370090D01*
X357265Y370443D01*
X357996Y371004D01*
X358557Y371735D01*
X358910Y372586D01*
X359030Y373500D01*
X358910Y374414D01*
X358557Y375265D01*
X357996Y375996D01*
X357265Y376557D01*
X356414Y376910D01*
X355500Y377030D01*
X354586Y376910D01*
X353735Y376557D01*
X353004Y375996D01*
X352365Y375954D01*
X352238Y376081D01*
X351742Y376413D01*
X351157Y376529D01*
X350572Y376413D01*
X350075Y376081D01*
X349523Y375529D01*
X341078D01*
X340523Y376529D01*
X340797Y376971D01*
X346000D01*
X346585Y377087D01*
X347081Y377419D01*
X348851Y379188D01*
X349086Y379090D01*
X350000Y378970D01*
X350914Y379090D01*
X351765Y379443D01*
X352496Y380004D01*
X353057Y380735D01*
X353410Y381586D01*
X353530Y382500D01*
X353410Y383414D01*
X353057Y384265D01*
X352496Y384996D01*
X351765Y385557D01*
X351433Y385695D01*
X351275Y386834D01*
X351496Y387004D01*
X352057Y387735D01*
X352410Y388586D01*
X352530Y389500D01*
X352410Y390414D01*
X352057Y391265D01*
X351496Y391996D01*
X350765Y392557D01*
X349914Y392910D01*
X349000Y393030D01*
D02*
G37*
G36*
X296500Y382535D02*
X294500D01*
Y379000D01*
X300469D01*
X300397Y379544D01*
X299994Y380517D01*
X299353Y381353D01*
X298517Y381994D01*
X297544Y382397D01*
X296500Y382535D01*
D02*
G37*
G36*
X300469Y378000D02*
X294500D01*
Y374465D01*
X296500D01*
X297544Y374603D01*
X298517Y375006D01*
X299353Y375647D01*
X299994Y376483D01*
X300397Y377456D01*
X300469Y378000D01*
D02*
G37*
G36*
X483500D02*
X477531D01*
X477603Y377456D01*
X478006Y376483D01*
X478647Y375647D01*
X479483Y375006D01*
X480456Y374603D01*
X481500Y374465D01*
X483500D01*
Y378000D01*
D02*
G37*
G36*
X300469Y398000D02*
X294500D01*
Y394465D01*
X296500D01*
X297544Y394603D01*
X298517Y395006D01*
X299353Y395647D01*
X299994Y396483D01*
X300397Y397456D01*
X300469Y398000D01*
D02*
G37*
G36*
X314000Y442543D02*
X311803Y442370D01*
X309661Y441855D01*
X307625Y441012D01*
X305746Y439861D01*
X304070Y438430D01*
X302639Y436754D01*
X301488Y434875D01*
X300645Y432839D01*
X300130Y430697D01*
X299957Y428500D01*
X300130Y426303D01*
X300645Y424161D01*
X301488Y422125D01*
X302639Y420246D01*
X304070Y418570D01*
X305746Y417139D01*
X307625Y415988D01*
X309661Y415145D01*
X311803Y414630D01*
X314000Y414457D01*
X316197Y414630D01*
X318339Y415145D01*
X320375Y415988D01*
X322254Y417139D01*
X323930Y418570D01*
X325361Y420246D01*
X326512Y422125D01*
X327355Y424161D01*
X327870Y426303D01*
X328043Y428500D01*
X327870Y430697D01*
X327355Y432839D01*
X326512Y434875D01*
X325361Y436754D01*
X323930Y438430D01*
X322254Y439861D01*
X320375Y441012D01*
X318339Y441855D01*
X316197Y442370D01*
X314000Y442543D01*
D02*
G37*
G36*
X464000D02*
X461803Y442370D01*
X459661Y441855D01*
X457625Y441012D01*
X455746Y439861D01*
X454070Y438430D01*
X452639Y436754D01*
X451488Y434875D01*
X450645Y432839D01*
X450130Y430697D01*
X449957Y428500D01*
X450130Y426303D01*
X450645Y424161D01*
X451488Y422125D01*
X452639Y420246D01*
X454070Y418570D01*
X455746Y417139D01*
X457625Y415988D01*
X459661Y415145D01*
X461803Y414630D01*
X464000Y414457D01*
X466197Y414630D01*
X468339Y415145D01*
X470375Y415988D01*
X472254Y417139D01*
X473930Y418570D01*
X475361Y420246D01*
X476512Y422125D01*
X477355Y424161D01*
X477870Y426303D01*
X478043Y428500D01*
X477870Y430697D01*
X477355Y432839D01*
X476512Y434875D01*
X475361Y436754D01*
X473930Y438430D01*
X472254Y439861D01*
X470375Y441012D01*
X468339Y441855D01*
X466197Y442370D01*
X464000Y442543D01*
D02*
G37*
G36*
X483500Y412500D02*
X477500D01*
Y409000D01*
X483500D01*
Y412500D01*
D02*
G37*
G36*
X296500Y402534D02*
X294500D01*
Y399000D01*
X300469D01*
X300397Y399544D01*
X299994Y400517D01*
X299353Y401353D01*
X298517Y401994D01*
X297544Y402397D01*
X296500Y402534D01*
D02*
G37*
G36*
X483500Y408000D02*
X477500D01*
Y404500D01*
X483500D01*
Y408000D01*
D02*
G37*
G36*
X432500Y370464D02*
Y367500D01*
X435464D01*
X435410Y367914D01*
X435057Y368765D01*
X434496Y369496D01*
X433765Y370057D01*
X432914Y370410D01*
X432500Y370464D01*
D02*
G37*
G36*
X391000Y346964D02*
X390586Y346910D01*
X389735Y346557D01*
X389004Y345996D01*
X388443Y345265D01*
X388090Y344414D01*
X388036Y344000D01*
X391000D01*
Y346964D01*
D02*
G37*
G36*
X392000D02*
Y344000D01*
X394964D01*
X394910Y344414D01*
X394557Y345265D01*
X393996Y345996D01*
X393265Y346557D01*
X392414Y346910D01*
X392000Y346964D01*
D02*
G37*
G36*
X394964Y343000D02*
X392000D01*
Y340036D01*
X392414Y340090D01*
X393265Y340443D01*
X393996Y341004D01*
X394557Y341735D01*
X394910Y342586D01*
X394964Y343000D01*
D02*
G37*
G36*
X416000Y341464D02*
Y338500D01*
X418964D01*
X418910Y338914D01*
X418557Y339765D01*
X417996Y340496D01*
X417265Y341057D01*
X416414Y341410D01*
X416000Y341464D01*
D02*
G37*
G36*
X391000Y343000D02*
X388036D01*
X388090Y342586D01*
X388443Y341735D01*
X389004Y341004D01*
X389735Y340443D01*
X390586Y340090D01*
X391000Y340036D01*
Y343000D01*
D02*
G37*
G36*
X483500Y348000D02*
X477531D01*
X477603Y347456D01*
X478006Y346483D01*
X478647Y345647D01*
X479483Y345006D01*
X480456Y344603D01*
X481500Y344465D01*
X483500D01*
Y348000D01*
D02*
G37*
G36*
X435464Y366500D02*
X428536D01*
X428590Y366086D01*
X428943Y365235D01*
X429504Y364504D01*
X430235Y363943D01*
X431086Y363590D01*
X431497Y363536D01*
X431587Y363516D01*
X431755Y362493D01*
X431586Y362410D01*
X431521Y362383D01*
X430735Y362057D01*
X430004Y361496D01*
X429443Y360765D01*
X429345Y360529D01*
X422078D01*
X421980Y360765D01*
X421419Y361496D01*
X420688Y362057D01*
X419837Y362410D01*
X418923Y362530D01*
X418010Y362410D01*
X417158Y362057D01*
X416427Y361496D01*
X415866Y360765D01*
X415513Y359914D01*
X415393Y359000D01*
X415513Y358086D01*
X415866Y357235D01*
X416427Y356504D01*
X417158Y355943D01*
X418010Y355590D01*
X418923Y355470D01*
X419837Y355590D01*
X420688Y355943D01*
X421419Y356504D01*
X421980Y357235D01*
X422078Y357471D01*
X429345D01*
X429443Y357235D01*
X430004Y356504D01*
X430735Y355943D01*
X431586Y355590D01*
X432500Y355470D01*
X433414Y355590D01*
X434265Y355943D01*
X434996Y356504D01*
X435557Y357235D01*
X435910Y358086D01*
X436030Y359000D01*
X435910Y359914D01*
X435557Y360765D01*
X434996Y361496D01*
X434265Y362057D01*
X433414Y362410D01*
X433003Y362464D01*
X432913Y362484D01*
X432745Y363507D01*
X432914Y363590D01*
X432979Y363617D01*
X433765Y363943D01*
X434496Y364504D01*
X435057Y365235D01*
X435410Y366086D01*
X435464Y366500D01*
D02*
G37*
G36*
X431500Y370464D02*
X431086Y370410D01*
X430235Y370057D01*
X429504Y369496D01*
X428943Y368765D01*
X428590Y367914D01*
X428536Y367500D01*
X431500D01*
Y370464D01*
D02*
G37*
G36*
X296500Y362534D02*
X294500D01*
Y359000D01*
X300469D01*
X300397Y359544D01*
X299994Y360517D01*
X299353Y361353D01*
X298517Y361994D01*
X297544Y362397D01*
X296500Y362534D01*
D02*
G37*
G36*
X483500Y352535D02*
X481500D01*
X480456Y352397D01*
X479483Y351994D01*
X478647Y351353D01*
X478006Y350517D01*
X477603Y349544D01*
X477531Y349000D01*
X483500D01*
Y352535D01*
D02*
G37*
G36*
X300469Y358000D02*
X294500D01*
Y354466D01*
X296500D01*
X297544Y354603D01*
X298517Y355006D01*
X299353Y355647D01*
X299994Y356483D01*
X300397Y357456D01*
X300469Y358000D01*
D02*
G37*
%LPD*%
D16*
X383000Y334000D02*
Y345500D01*
Y334000D02*
X386500Y330500D01*
X415000D01*
X438500Y253000D02*
X442000D01*
X420000Y234500D02*
X438500Y253000D01*
D17*
X418923Y359000D02*
X432500D01*
X338000Y367500D02*
X347500D01*
X346000Y378500D02*
X350000Y382500D01*
X342000D02*
X349000Y389500D01*
X337000Y378500D02*
X346000D01*
X350157Y374000D02*
X351157Y375000D01*
X347500Y367500D02*
X349500Y369500D01*
X333000Y374000D02*
X350157D01*
X320000Y306500D02*
Y333500D01*
X320657Y338500D02*
X324000Y335157D01*
X294000Y338500D02*
X320657D01*
X294000Y348500D02*
X315500D01*
X324000Y334000D02*
Y335157D01*
X334000Y308843D02*
X336343Y306500D01*
X324000Y334000D02*
X334000Y324000D01*
Y308843D02*
Y324000D01*
X336343Y306500D02*
X351500D01*
X368000Y291000D02*
X384000D01*
X384500Y291500D01*
X346949Y343449D02*
X349449D01*
X351500Y306500D02*
X352500Y305500D01*
X365500Y293500D02*
X368000Y291000D01*
X365500Y293500D02*
Y300000D01*
X340000Y320500D02*
X351000Y309500D01*
X353500Y360000D02*
X354000Y359500D01*
Y342343D02*
Y359500D01*
X351106Y339449D02*
X354000Y342343D01*
X347449Y339449D02*
X351106D01*
X343500Y335500D02*
X347449Y339449D01*
X343500Y330157D02*
Y335500D01*
X340000Y324515D02*
X342000Y322515D01*
X338000Y323686D02*
X340000Y321686D01*
X315500Y348500D02*
X336000Y328000D01*
Y322858D02*
Y328000D01*
Y322858D02*
X338000Y320858D01*
X340000Y320500D02*
Y321686D01*
X338000Y310500D02*
Y320858D01*
Y323686D02*
Y339500D01*
X340000Y324515D02*
Y336500D01*
X346949Y343449D01*
X338000Y339500D02*
X350000Y351500D01*
X342000Y328657D02*
X343500Y330157D01*
X342000Y325343D02*
Y328657D01*
Y322500D02*
Y322515D01*
Y322500D02*
X353000Y311500D01*
X342000Y325343D02*
X347843Y319500D01*
X354657D01*
X356000Y309500D02*
X365500Y300000D01*
X351000Y309500D02*
X356000D01*
X357000Y311500D02*
X369500Y299000D01*
X353000Y311500D02*
X357000D01*
X354657Y319500D02*
X377157Y297000D01*
X377500D01*
X351157Y375000D02*
X352657Y373500D01*
X355500D01*
D18*
X388500Y210500D02*
X406000D01*
Y200500D02*
Y210500D01*
X404000Y198500D02*
X406000Y200500D01*
D20*
X384000Y228500D02*
D03*
X314000Y428500D02*
D03*
X464000D02*
D03*
D21*
X484000Y218500D02*
D03*
Y228500D02*
D03*
Y238500D02*
D03*
Y248500D02*
D03*
Y258500D02*
D03*
Y268500D02*
D03*
Y278500D02*
D03*
Y288500D02*
D03*
Y298500D02*
D03*
Y308500D02*
D03*
Y318500D02*
D03*
Y328500D02*
D03*
Y338500D02*
D03*
Y348500D02*
D03*
Y358500D02*
D03*
Y368500D02*
D03*
Y378500D02*
D03*
Y388500D02*
D03*
Y398500D02*
D03*
X294000Y218500D02*
D03*
Y228500D02*
D03*
Y238500D02*
D03*
Y248500D02*
D03*
Y258500D02*
D03*
Y268500D02*
D03*
Y278500D02*
D03*
Y288500D02*
D03*
Y298500D02*
D03*
Y308500D02*
D03*
Y318500D02*
D03*
Y328500D02*
D03*
Y338500D02*
D03*
Y348500D02*
D03*
Y358500D02*
D03*
Y368500D02*
D03*
Y378500D02*
D03*
Y388500D02*
D03*
Y398500D02*
D03*
D22*
X484000Y408500D02*
D03*
X294000D02*
D03*
D23*
X484000Y198500D02*
D03*
X474000D02*
D03*
X464000D02*
D03*
X454000D02*
D03*
X444000D02*
D03*
X434000D02*
D03*
X424000D02*
D03*
X414000D02*
D03*
X404000D02*
D03*
X394000D02*
D03*
X384000D02*
D03*
X374000D02*
D03*
X364000D02*
D03*
X354000D02*
D03*
X344000D02*
D03*
X334000D02*
D03*
X324000D02*
D03*
X314000D02*
D03*
X304000D02*
D03*
D24*
X294000D02*
D03*
D25*
X480000Y440000D02*
D03*
X460000Y360000D02*
D03*
X470000Y300000D02*
D03*
X460000Y280000D02*
D03*
X470000Y260000D02*
D03*
X440000Y440000D02*
D03*
X450000Y420000D02*
D03*
X440000Y400000D02*
D03*
X450000Y340000D02*
D03*
X440000Y320000D02*
D03*
X450000Y300000D02*
D03*
X440000Y280000D02*
D03*
X420000Y440000D02*
D03*
X430000Y420000D02*
D03*
X420000Y400000D02*
D03*
X430000Y340000D02*
D03*
X420000Y320000D02*
D03*
X430000Y300000D02*
D03*
X420000Y280000D02*
D03*
X430000Y260000D02*
D03*
Y220000D02*
D03*
X400000Y440000D02*
D03*
X410000Y420000D02*
D03*
X400000Y400000D02*
D03*
X410000Y380000D02*
D03*
Y300000D02*
D03*
X380000Y440000D02*
D03*
X390000Y420000D02*
D03*
X380000Y400000D02*
D03*
Y320000D02*
D03*
X390000Y300000D02*
D03*
X380000Y280000D02*
D03*
X390000Y260000D02*
D03*
X360000Y440000D02*
D03*
X370000Y420000D02*
D03*
X360000Y400000D02*
D03*
Y360000D02*
D03*
X370000Y340000D02*
D03*
X360000Y280000D02*
D03*
X370000Y220000D02*
D03*
X340000Y440000D02*
D03*
X350000Y420000D02*
D03*
X340000Y400000D02*
D03*
Y280000D02*
D03*
X350000Y260000D02*
D03*
X330000Y420000D02*
D03*
X320000Y400000D02*
D03*
Y280000D02*
D03*
X330000Y260000D02*
D03*
X300000Y440000D02*
D03*
X310000Y380000D02*
D03*
D26*
X432000Y367000D02*
D03*
X432500Y359000D02*
D03*
X353500Y360000D02*
D03*
X350000Y351500D02*
D03*
X383000Y345500D02*
D03*
X415000Y330500D02*
D03*
X384000Y300000D02*
D03*
X415500Y338000D02*
D03*
X349000Y389500D02*
D03*
X338000Y367500D02*
D03*
X342000Y382500D02*
D03*
X350000D02*
D03*
X337000Y378500D02*
D03*
X349500Y369500D02*
D03*
X333000Y374000D02*
D03*
X320000Y333500D02*
D03*
Y306500D02*
D03*
X338000Y310500D02*
D03*
X384500Y291500D02*
D03*
X346000Y327000D02*
D03*
X369500Y299000D02*
D03*
X349449Y343449D02*
D03*
X352500Y305500D02*
D03*
X377500Y297000D02*
D03*
X391500Y343500D02*
D03*
X388500Y210500D02*
D03*
X442000Y253000D02*
D03*
X420000Y234500D02*
D03*
X355500Y373500D02*
D03*
X418923Y359000D02*
D03*
D27*
X384000Y237161D02*
D03*
X377875Y234625D02*
D03*
X375339Y228500D02*
D03*
X377875Y222375D02*
D03*
X384000Y219839D02*
D03*
X390125Y222375D02*
D03*
X392661Y228500D02*
D03*
X390125Y234625D02*
D03*
X314000Y437161D02*
D03*
X307875Y434624D02*
D03*
X305339Y428500D02*
D03*
X307875Y422375D02*
D03*
X314000Y419839D02*
D03*
X320125Y422375D02*
D03*
X322661Y428500D02*
D03*
X320125Y434624D02*
D03*
X464000Y437161D02*
D03*
X457875Y434624D02*
D03*
X455339Y428500D02*
D03*
X457875Y422375D02*
D03*
X464000Y419839D02*
D03*
X470124Y422375D02*
D03*
X472661Y428500D02*
D03*
X470124Y434624D02*
D03*
D28*
X394637Y228500D02*
G03*
X394637Y228500I-10637J0D01*
G01*
X324637Y428500D02*
G03*
X324637Y428500I-10637J0D01*
G01*
X474637D02*
G03*
X474637Y428500I-10637J0D01*
G01*
M02*
