G04 Layer_Color=16711935*
%FSLAX25Y25*%
%MOIN*%
G70*
G01*
G75*
%ADD17C,0.01000*%
%ADD41C,0.25800*%
%ADD42R,0.11800X0.06800*%
%ADD43O,0.11800X0.06800*%
%ADD44R,0.06800X0.11800*%
%ADD45O,0.06800X0.11800*%
D17*
X266500Y110000D02*
X472500D01*
Y364000D01*
X266500D02*
X472500D01*
X266500Y110000D02*
Y364000D01*
D41*
X364500Y148000D02*
D03*
X294500Y348000D02*
D03*
X444500D02*
D03*
D42*
X274500Y328000D02*
D03*
X464500D02*
D03*
D43*
X274500Y318000D02*
D03*
Y308000D02*
D03*
Y298000D02*
D03*
Y288000D02*
D03*
Y278000D02*
D03*
Y268000D02*
D03*
Y258000D02*
D03*
Y248000D02*
D03*
Y238000D02*
D03*
Y228000D02*
D03*
Y218000D02*
D03*
Y208000D02*
D03*
Y198000D02*
D03*
Y188000D02*
D03*
Y178000D02*
D03*
Y168000D02*
D03*
Y158000D02*
D03*
Y148000D02*
D03*
Y138000D02*
D03*
X464500Y318000D02*
D03*
Y308000D02*
D03*
Y298000D02*
D03*
Y288000D02*
D03*
Y278000D02*
D03*
Y268000D02*
D03*
Y258000D02*
D03*
Y248000D02*
D03*
Y238000D02*
D03*
Y228000D02*
D03*
Y218000D02*
D03*
Y208000D02*
D03*
Y198000D02*
D03*
Y188000D02*
D03*
Y178000D02*
D03*
Y168000D02*
D03*
Y158000D02*
D03*
Y148000D02*
D03*
Y138000D02*
D03*
D44*
X274500Y118000D02*
D03*
D45*
X284500D02*
D03*
X294500D02*
D03*
X304500D02*
D03*
X314500D02*
D03*
X324500D02*
D03*
X334500D02*
D03*
X344500D02*
D03*
X354500D02*
D03*
X364500D02*
D03*
X374500D02*
D03*
X384500D02*
D03*
X394500D02*
D03*
X404500D02*
D03*
X414500D02*
D03*
X424500D02*
D03*
X434500D02*
D03*
X444500D02*
D03*
X454500D02*
D03*
X464500D02*
D03*
M02*
