G04 Layer_Color=32896*
%FSLAX25Y25*%
%MOIN*%
G70*
G01*
G75*
%ADD17C,0.01000*%
G36*
X349800Y347100D02*
X351400D01*
Y346300D01*
X353000D01*
Y345500D01*
Y344700D01*
X354600D01*
Y343900D01*
Y343100D01*
X355400D01*
Y342300D01*
Y341500D01*
Y340700D01*
X356200D01*
Y339900D01*
Y339100D01*
Y338300D01*
Y337500D01*
Y336700D01*
Y335900D01*
Y335100D01*
Y334300D01*
Y333500D01*
Y332700D01*
Y331900D01*
Y331100D01*
Y330300D01*
Y329500D01*
Y328700D01*
Y327900D01*
Y327100D01*
Y326300D01*
Y325500D01*
Y324700D01*
Y323900D01*
Y323100D01*
Y322300D01*
Y321500D01*
Y320700D01*
Y319900D01*
Y319100D01*
Y318300D01*
Y317500D01*
Y316700D01*
Y315900D01*
Y315100D01*
Y314300D01*
Y313500D01*
Y312700D01*
Y311900D01*
Y311100D01*
Y310300D01*
Y309500D01*
Y308700D01*
Y307900D01*
Y307100D01*
Y306300D01*
Y305500D01*
Y304700D01*
Y303900D01*
Y303100D01*
Y302300D01*
Y301500D01*
Y300700D01*
Y299900D01*
Y299100D01*
Y298300D01*
Y297500D01*
Y296700D01*
Y295900D01*
Y295100D01*
Y294300D01*
Y293500D01*
Y292700D01*
Y291900D01*
Y291100D01*
Y290300D01*
Y289500D01*
Y288700D01*
Y287900D01*
Y287100D01*
Y286300D01*
Y285500D01*
Y284700D01*
Y283900D01*
Y283100D01*
Y282300D01*
Y281500D01*
Y280700D01*
Y279900D01*
Y279100D01*
Y278300D01*
Y277500D01*
Y276700D01*
Y275900D01*
Y275100D01*
Y274300D01*
Y273500D01*
Y272700D01*
Y271900D01*
Y271100D01*
Y270300D01*
Y269500D01*
Y268700D01*
Y267900D01*
Y267100D01*
Y266300D01*
Y265500D01*
Y264700D01*
Y263900D01*
Y263100D01*
Y262300D01*
Y261500D01*
Y260700D01*
Y259900D01*
Y259100D01*
Y258300D01*
Y257500D01*
Y256700D01*
Y255900D01*
Y255100D01*
Y254300D01*
Y253500D01*
Y252700D01*
Y251900D01*
Y251100D01*
Y250300D01*
Y249500D01*
Y248700D01*
Y247900D01*
Y247100D01*
Y246300D01*
Y245500D01*
Y244700D01*
Y243900D01*
Y243100D01*
Y242300D01*
Y241500D01*
Y240700D01*
Y239900D01*
Y239100D01*
Y238300D01*
Y237500D01*
Y236700D01*
Y235900D01*
Y235100D01*
Y234300D01*
Y233500D01*
Y232700D01*
Y231900D01*
Y231100D01*
Y230300D01*
X357800D01*
Y229500D01*
X358600D01*
Y230300D01*
X359400D01*
Y231100D01*
Y231900D01*
Y232700D01*
Y233500D01*
Y234300D01*
Y235100D01*
Y235900D01*
Y236700D01*
Y237500D01*
Y238300D01*
Y239100D01*
Y239900D01*
Y240700D01*
Y241500D01*
Y242300D01*
Y243100D01*
Y243900D01*
Y244700D01*
Y245500D01*
Y246300D01*
Y247100D01*
Y247900D01*
Y248700D01*
Y249500D01*
Y250300D01*
Y251100D01*
Y251900D01*
Y252700D01*
Y253500D01*
Y254300D01*
Y255100D01*
Y255900D01*
Y256700D01*
Y257500D01*
Y258300D01*
Y259100D01*
Y259900D01*
Y260700D01*
Y261500D01*
Y262300D01*
Y263100D01*
Y263900D01*
Y264700D01*
Y265500D01*
Y266300D01*
Y267100D01*
Y267900D01*
Y268700D01*
Y269500D01*
Y270300D01*
Y271100D01*
Y271900D01*
Y272700D01*
Y273500D01*
Y274300D01*
Y275100D01*
Y275900D01*
Y276700D01*
Y277500D01*
Y278300D01*
Y279100D01*
Y279900D01*
Y280700D01*
Y281500D01*
Y282300D01*
Y283100D01*
Y283900D01*
Y284700D01*
Y285500D01*
Y286300D01*
Y287100D01*
Y287900D01*
Y288700D01*
Y289500D01*
Y290300D01*
Y291100D01*
Y291900D01*
Y292700D01*
Y293500D01*
Y294300D01*
Y295100D01*
Y295900D01*
Y296700D01*
Y297500D01*
Y298300D01*
Y299100D01*
Y299900D01*
Y300700D01*
Y301500D01*
Y302300D01*
Y303100D01*
Y303900D01*
Y304700D01*
Y305500D01*
Y306300D01*
Y307100D01*
Y307900D01*
Y308700D01*
Y309500D01*
Y310300D01*
Y311100D01*
Y311900D01*
Y312700D01*
Y313500D01*
Y314300D01*
Y315100D01*
X360200D01*
Y315900D01*
Y316700D01*
Y317500D01*
Y318300D01*
X361000D01*
Y319100D01*
Y319900D01*
X361800D01*
Y320700D01*
X362600D01*
Y321500D01*
X363400D01*
Y322300D01*
X364200D01*
Y323100D01*
X365800D01*
Y323900D01*
X372200D01*
Y323100D01*
X373800D01*
Y322300D01*
X375400D01*
Y321500D01*
X376200D01*
Y320700D01*
X377000D01*
Y319900D01*
Y319100D01*
X377800D01*
Y318300D01*
Y317500D01*
X378600D01*
Y316700D01*
Y315900D01*
Y315100D01*
Y314300D01*
Y313500D01*
Y312700D01*
Y311900D01*
Y311100D01*
Y310300D01*
Y309500D01*
Y308700D01*
Y307900D01*
Y307100D01*
Y306300D01*
Y305500D01*
Y304700D01*
Y303900D01*
Y303100D01*
Y302300D01*
Y301500D01*
Y300700D01*
Y299900D01*
Y299100D01*
Y298300D01*
Y297500D01*
Y296700D01*
Y295900D01*
Y295100D01*
Y294300D01*
Y293500D01*
Y292700D01*
Y291900D01*
Y291100D01*
Y290300D01*
Y289500D01*
Y288700D01*
Y287900D01*
Y287100D01*
Y286300D01*
Y285500D01*
Y284700D01*
Y283900D01*
Y283100D01*
Y282300D01*
Y281500D01*
Y280700D01*
Y279900D01*
Y279100D01*
Y278300D01*
Y277500D01*
Y276700D01*
Y275900D01*
Y275100D01*
Y274300D01*
Y273500D01*
Y272700D01*
Y271900D01*
Y271100D01*
Y270300D01*
Y269500D01*
Y268700D01*
Y267900D01*
Y267100D01*
Y266300D01*
Y265500D01*
Y264700D01*
Y263900D01*
Y263100D01*
Y262300D01*
Y261500D01*
Y260700D01*
Y259900D01*
Y259100D01*
Y258300D01*
Y257500D01*
Y256700D01*
Y255900D01*
Y255100D01*
Y254300D01*
Y253500D01*
Y252700D01*
Y251900D01*
Y251100D01*
Y250300D01*
Y249500D01*
Y248700D01*
Y247900D01*
Y247100D01*
Y246300D01*
Y245500D01*
Y244700D01*
Y243900D01*
Y243100D01*
Y242300D01*
Y241500D01*
Y240700D01*
Y239900D01*
Y239100D01*
Y238300D01*
Y237500D01*
Y236700D01*
Y235900D01*
Y235100D01*
Y234300D01*
Y233500D01*
Y232700D01*
Y231900D01*
Y231100D01*
Y230300D01*
X380200D01*
Y229500D01*
X381800D01*
Y230300D01*
X382600D01*
Y231100D01*
Y231900D01*
Y232700D01*
Y233500D01*
Y234300D01*
Y235100D01*
Y235900D01*
Y236700D01*
Y237500D01*
Y238300D01*
Y239100D01*
Y239900D01*
Y240700D01*
Y241500D01*
Y242300D01*
Y243100D01*
Y243900D01*
Y244700D01*
Y245500D01*
Y246300D01*
Y247100D01*
Y247900D01*
Y248700D01*
Y249500D01*
Y250300D01*
Y251100D01*
Y251900D01*
Y252700D01*
Y253500D01*
Y254300D01*
Y255100D01*
Y255900D01*
Y256700D01*
Y257500D01*
Y258300D01*
Y259100D01*
Y259900D01*
Y260700D01*
Y261500D01*
Y262300D01*
Y263100D01*
Y263900D01*
Y264700D01*
Y265500D01*
Y266300D01*
Y267100D01*
Y267900D01*
Y268700D01*
Y269500D01*
Y270300D01*
Y271100D01*
Y271900D01*
Y272700D01*
Y273500D01*
Y274300D01*
Y275100D01*
Y275900D01*
Y276700D01*
Y277500D01*
Y278300D01*
Y279100D01*
Y279900D01*
Y280700D01*
Y281500D01*
Y282300D01*
Y283100D01*
Y283900D01*
Y284700D01*
Y285500D01*
Y286300D01*
Y287100D01*
Y287900D01*
Y288700D01*
Y289500D01*
Y290300D01*
Y291100D01*
Y291900D01*
Y292700D01*
X383400D01*
Y293500D01*
Y294300D01*
Y295100D01*
X384200D01*
Y295900D01*
X385000D01*
Y296700D01*
X385800D01*
Y297500D01*
X387400D01*
Y298300D01*
X388200D01*
Y299100D01*
X396200D01*
Y298300D01*
X397000D01*
Y297500D01*
X398600D01*
Y296700D01*
X399400D01*
Y295900D01*
X400200D01*
Y295100D01*
Y294300D01*
X401000D01*
Y293500D01*
Y292700D01*
X401800D01*
Y291900D01*
Y291100D01*
Y290300D01*
Y289500D01*
Y288700D01*
Y287900D01*
Y287100D01*
Y286300D01*
Y285500D01*
Y284700D01*
Y283900D01*
Y283100D01*
Y282300D01*
Y281500D01*
Y280700D01*
Y279900D01*
Y279100D01*
Y278300D01*
Y277500D01*
Y276700D01*
Y275900D01*
Y275100D01*
Y274300D01*
Y273500D01*
Y272700D01*
Y271900D01*
Y271100D01*
Y270300D01*
Y269500D01*
Y268700D01*
Y267900D01*
Y267100D01*
Y266300D01*
Y265500D01*
Y264700D01*
Y263900D01*
Y263100D01*
Y262300D01*
Y261500D01*
Y260700D01*
Y259900D01*
Y259100D01*
Y258300D01*
Y257500D01*
Y256700D01*
Y255900D01*
Y255100D01*
Y254300D01*
Y253500D01*
Y252700D01*
Y251900D01*
Y251100D01*
Y250300D01*
Y249500D01*
Y248700D01*
Y247900D01*
Y247100D01*
Y246300D01*
Y245500D01*
Y244700D01*
Y243900D01*
Y243100D01*
Y242300D01*
Y241500D01*
Y240700D01*
Y239900D01*
Y239100D01*
Y238300D01*
Y237500D01*
Y236700D01*
Y235900D01*
Y235100D01*
Y234300D01*
Y233500D01*
Y232700D01*
Y231900D01*
Y231100D01*
Y230300D01*
X402600D01*
Y229500D01*
X405000D01*
Y230300D01*
X405800D01*
Y231100D01*
Y231900D01*
Y232700D01*
Y233500D01*
Y234300D01*
Y235100D01*
Y235900D01*
Y236700D01*
Y237500D01*
Y238300D01*
Y239100D01*
Y239900D01*
Y240700D01*
Y241500D01*
Y242300D01*
Y243100D01*
Y243900D01*
Y244700D01*
Y245500D01*
Y246300D01*
Y247100D01*
Y247900D01*
Y248700D01*
Y249500D01*
Y250300D01*
Y251100D01*
Y251900D01*
Y252700D01*
Y253500D01*
Y254300D01*
Y255100D01*
Y255900D01*
Y256700D01*
Y257500D01*
Y258300D01*
Y259100D01*
Y259900D01*
Y260700D01*
Y261500D01*
Y262300D01*
Y263100D01*
Y263900D01*
Y264700D01*
Y265500D01*
Y266300D01*
Y267100D01*
Y267900D01*
Y268700D01*
X406600D01*
Y269500D01*
Y270300D01*
X407400D01*
Y271100D01*
Y271900D01*
X408200D01*
Y272700D01*
X409000D01*
Y273500D01*
X410600D01*
Y274300D01*
X411400D01*
Y275100D01*
X419400D01*
Y274300D01*
X420200D01*
Y273500D01*
X421800D01*
Y272700D01*
Y271900D01*
X422600D01*
Y271100D01*
X423400D01*
Y270300D01*
Y269500D01*
X424200D01*
Y268700D01*
Y267900D01*
X425000D01*
Y267100D01*
Y266300D01*
Y265500D01*
Y264700D01*
Y263900D01*
Y263100D01*
Y262300D01*
Y261500D01*
Y260700D01*
Y259900D01*
Y259100D01*
Y258300D01*
Y257500D01*
Y256700D01*
Y255900D01*
Y255100D01*
Y254300D01*
Y253500D01*
Y252700D01*
Y251900D01*
Y251100D01*
Y250300D01*
Y249500D01*
Y248700D01*
Y247900D01*
Y247100D01*
Y246300D01*
Y245500D01*
Y244700D01*
Y243900D01*
Y243100D01*
Y242300D01*
Y241500D01*
Y240700D01*
Y239900D01*
Y239100D01*
Y238300D01*
Y237500D01*
Y236700D01*
Y235900D01*
Y235100D01*
Y234300D01*
Y233500D01*
Y232700D01*
Y231900D01*
Y231100D01*
X425800D01*
Y230300D01*
X426600D01*
Y229500D01*
Y228700D01*
X427400D01*
Y227900D01*
X428200D01*
Y227100D01*
X429000D01*
Y226300D01*
Y225500D01*
X429800D01*
Y224700D01*
X430600D01*
Y223900D01*
Y223100D01*
X431400D01*
Y222300D01*
X432200D01*
Y221500D01*
Y220700D01*
X433000D01*
Y219900D01*
X433800D01*
Y219100D01*
Y218300D01*
Y217500D01*
X434600D01*
Y216700D01*
X435400D01*
Y215900D01*
Y215100D01*
Y214300D01*
X436200D01*
Y213500D01*
Y212700D01*
X437000D01*
Y211900D01*
Y211100D01*
Y210300D01*
X437800D01*
Y209500D01*
Y208700D01*
Y207900D01*
Y207100D01*
X438600D01*
Y206300D01*
Y205500D01*
Y204700D01*
X439400D01*
Y203900D01*
Y203100D01*
Y202300D01*
Y201500D01*
Y200700D01*
Y199900D01*
Y199100D01*
Y198300D01*
Y197500D01*
X440200D01*
Y196700D01*
Y195900D01*
Y195100D01*
Y194300D01*
Y193500D01*
Y192700D01*
X439400D01*
Y191900D01*
Y191100D01*
X440200D01*
Y190300D01*
X441000D01*
Y189500D01*
Y188700D01*
Y187900D01*
X440200D01*
Y187100D01*
X439400D01*
Y186300D01*
X437000D01*
Y185500D01*
Y184700D01*
Y183900D01*
Y183100D01*
X433000D01*
Y183900D01*
X432200D01*
Y183100D01*
Y182300D01*
X431400D01*
Y181500D01*
X428200D01*
Y182300D01*
X427400D01*
Y183100D01*
Y183900D01*
X426600D01*
Y183100D01*
X422600D01*
Y183900D01*
X421800D01*
Y184700D01*
Y185500D01*
Y186300D01*
X419400D01*
Y187100D01*
X418600D01*
Y187900D01*
Y188700D01*
Y189500D01*
Y190300D01*
X419400D01*
Y191100D01*
Y191900D01*
Y192700D01*
Y193500D01*
Y194300D01*
Y195100D01*
Y195900D01*
Y196700D01*
Y197500D01*
Y198300D01*
Y199100D01*
Y199900D01*
Y200700D01*
Y201500D01*
X418600D01*
Y202300D01*
Y203100D01*
Y203900D01*
Y204700D01*
Y205500D01*
X417800D01*
Y206300D01*
Y207100D01*
Y207900D01*
Y208700D01*
Y209500D01*
X417000D01*
Y210300D01*
Y211100D01*
X416200D01*
Y210300D01*
Y209500D01*
Y208700D01*
Y207900D01*
Y207100D01*
X415400D01*
Y206300D01*
Y205500D01*
Y204700D01*
X414600D01*
Y203900D01*
Y203100D01*
Y202300D01*
Y201500D01*
Y200700D01*
X413800D01*
Y199900D01*
Y199100D01*
Y198300D01*
Y197500D01*
Y196700D01*
X413000D01*
Y195900D01*
Y195100D01*
Y194300D01*
X412200D01*
Y193500D01*
Y192700D01*
Y191900D01*
Y191100D01*
Y190300D01*
Y189500D01*
Y188700D01*
X411400D01*
Y187900D01*
Y187100D01*
Y186300D01*
Y185500D01*
Y184700D01*
Y183900D01*
Y183100D01*
Y182300D01*
Y181500D01*
X382600D01*
Y182300D01*
Y183100D01*
Y183900D01*
Y184700D01*
X381800D01*
Y185500D01*
Y186300D01*
Y187100D01*
Y187900D01*
Y188700D01*
Y189500D01*
Y190300D01*
Y191100D01*
Y191900D01*
Y192700D01*
Y193500D01*
Y194300D01*
Y195100D01*
Y195900D01*
Y196700D01*
Y197500D01*
X381000D01*
Y198300D01*
Y199100D01*
Y199900D01*
X380200D01*
Y199100D01*
Y198300D01*
Y197500D01*
Y196700D01*
Y195900D01*
Y195100D01*
Y194300D01*
Y193500D01*
Y192700D01*
Y191900D01*
Y191100D01*
Y190300D01*
Y189500D01*
Y188700D01*
Y187900D01*
Y187100D01*
X379400D01*
Y186300D01*
Y185500D01*
Y184700D01*
Y183900D01*
Y183100D01*
Y182300D01*
Y181500D01*
X350600D01*
Y182300D01*
Y183100D01*
Y183900D01*
Y184700D01*
Y185500D01*
Y186300D01*
Y187100D01*
X349800D01*
Y187900D01*
Y188700D01*
Y189500D01*
Y190300D01*
Y191100D01*
Y191900D01*
Y192700D01*
Y193500D01*
X349000D01*
Y194300D01*
Y195100D01*
Y195900D01*
X348200D01*
Y196700D01*
Y197500D01*
Y198300D01*
Y199100D01*
Y199900D01*
X347400D01*
Y200700D01*
Y201500D01*
Y202300D01*
X346600D01*
Y203100D01*
Y203900D01*
Y204700D01*
Y205500D01*
Y206300D01*
X345800D01*
Y207100D01*
Y207900D01*
Y208700D01*
Y209500D01*
Y210300D01*
Y211100D01*
Y211900D01*
X345000D01*
Y211100D01*
Y210300D01*
X344200D01*
Y209500D01*
Y208700D01*
Y207900D01*
Y207100D01*
Y206300D01*
X343400D01*
Y205500D01*
Y204700D01*
Y203900D01*
Y203100D01*
X342600D01*
Y202300D01*
Y201500D01*
Y200700D01*
Y199900D01*
Y199100D01*
Y198300D01*
Y197500D01*
Y196700D01*
Y195900D01*
Y195100D01*
Y194300D01*
Y193500D01*
Y192700D01*
Y191900D01*
X341800D01*
Y191100D01*
X342600D01*
Y190300D01*
X343400D01*
Y189500D01*
Y188700D01*
Y187900D01*
Y187100D01*
X342600D01*
Y186300D01*
X339400D01*
Y185500D01*
Y184700D01*
Y183900D01*
Y183100D01*
X335400D01*
Y183900D01*
X334600D01*
Y183100D01*
X333800D01*
Y182300D01*
Y181500D01*
X330600D01*
Y182300D01*
X329800D01*
Y183100D01*
Y183900D01*
X329000D01*
Y183100D01*
X325000D01*
Y183900D01*
Y184700D01*
X324200D01*
Y185500D01*
Y186300D01*
X322600D01*
Y187100D01*
X321000D01*
Y187900D01*
Y188700D01*
Y189500D01*
Y190300D01*
X321800D01*
Y191100D01*
X322600D01*
Y191900D01*
X321800D01*
Y192700D01*
Y193500D01*
Y194300D01*
Y195100D01*
Y195900D01*
Y196700D01*
Y197500D01*
Y198300D01*
Y199100D01*
Y199900D01*
X322600D01*
Y200700D01*
Y201500D01*
Y202300D01*
Y203100D01*
Y203900D01*
Y204700D01*
Y205500D01*
X323400D01*
Y206300D01*
Y207100D01*
Y207900D01*
X324200D01*
Y208700D01*
Y209500D01*
Y210300D01*
Y211100D01*
X325000D01*
Y211900D01*
Y212700D01*
Y213500D01*
X325800D01*
Y214300D01*
Y215100D01*
X326600D01*
Y215900D01*
Y216700D01*
X327400D01*
Y217500D01*
Y218300D01*
X328200D01*
Y219100D01*
Y219900D01*
X329000D01*
Y220700D01*
Y221500D01*
X329800D01*
Y222300D01*
Y223100D01*
X330600D01*
Y223900D01*
X331400D01*
Y224700D01*
X332200D01*
Y225500D01*
Y226300D01*
X333000D01*
Y227100D01*
X333800D01*
Y227900D01*
Y228700D01*
X335400D01*
Y229500D01*
Y230300D01*
X336200D01*
Y231100D01*
X337000D01*
Y231900D01*
Y232700D01*
Y233500D01*
Y234300D01*
Y235100D01*
Y235900D01*
Y236700D01*
Y237500D01*
Y238300D01*
Y239100D01*
Y239900D01*
Y240700D01*
Y241500D01*
Y242300D01*
Y243100D01*
Y243900D01*
Y244700D01*
Y245500D01*
Y246300D01*
Y247100D01*
Y247900D01*
Y248700D01*
Y249500D01*
Y250300D01*
Y251100D01*
Y251900D01*
Y252700D01*
Y253500D01*
Y254300D01*
Y255100D01*
Y255900D01*
Y256700D01*
Y257500D01*
Y258300D01*
Y259100D01*
Y259900D01*
Y260700D01*
Y261500D01*
Y262300D01*
Y263100D01*
Y263900D01*
Y264700D01*
Y265500D01*
Y266300D01*
Y267100D01*
Y267900D01*
Y268700D01*
Y269500D01*
Y270300D01*
Y271100D01*
Y271900D01*
Y272700D01*
Y273500D01*
Y274300D01*
Y275100D01*
Y275900D01*
Y276700D01*
Y277500D01*
Y278300D01*
Y279100D01*
Y279900D01*
Y280700D01*
Y281500D01*
Y282300D01*
Y283100D01*
Y283900D01*
Y284700D01*
Y285500D01*
Y286300D01*
Y287100D01*
Y287900D01*
Y288700D01*
Y289500D01*
Y290300D01*
Y291100D01*
Y291900D01*
Y292700D01*
Y293500D01*
Y294300D01*
Y295100D01*
Y295900D01*
Y296700D01*
Y297500D01*
Y298300D01*
Y299100D01*
Y299900D01*
Y300700D01*
Y301500D01*
Y302300D01*
Y303100D01*
Y303900D01*
Y304700D01*
Y305500D01*
Y306300D01*
Y307100D01*
Y307900D01*
Y308700D01*
Y309500D01*
Y310300D01*
Y311100D01*
Y311900D01*
Y312700D01*
Y313500D01*
Y314300D01*
Y315100D01*
Y315900D01*
Y316700D01*
Y317500D01*
Y318300D01*
Y319100D01*
Y319900D01*
Y320700D01*
Y321500D01*
Y322300D01*
Y323100D01*
Y323900D01*
Y324700D01*
Y325500D01*
Y326300D01*
Y327100D01*
Y327900D01*
Y328700D01*
Y329500D01*
Y330300D01*
Y331100D01*
Y331900D01*
Y332700D01*
Y333500D01*
Y334300D01*
Y335100D01*
Y335900D01*
Y336700D01*
Y337500D01*
Y338300D01*
Y339100D01*
Y339900D01*
Y340700D01*
Y341500D01*
X337800D01*
Y342300D01*
Y343100D01*
X338600D01*
Y343900D01*
Y344700D01*
X339400D01*
Y345500D01*
X340200D01*
Y346300D01*
X341800D01*
Y347100D01*
X343400D01*
Y347900D01*
X349800D01*
Y347100D01*
D02*
G37*
G36*
X297155Y162147D02*
Y162089D01*
Y162008D01*
Y161927D01*
Y161835D01*
Y161754D01*
Y161696D01*
Y161684D01*
Y161673D01*
Y161291D01*
Y161106D01*
Y160932D01*
Y160793D01*
Y160678D01*
Y160631D01*
Y160597D01*
Y160585D01*
Y160573D01*
Y160354D01*
Y160157D01*
Y159972D01*
Y159810D01*
Y159671D01*
Y159579D01*
Y159509D01*
Y159497D01*
Y159486D01*
Y159324D01*
Y159208D01*
Y159116D01*
Y159058D01*
Y159023D01*
Y159012D01*
Y159000D01*
X284509D01*
Y159023D01*
Y159081D01*
Y159150D01*
Y159243D01*
Y159335D01*
Y159405D01*
Y159463D01*
Y159486D01*
Y159868D01*
Y160053D01*
Y160215D01*
Y160365D01*
Y160469D01*
Y160516D01*
Y160550D01*
Y160562D01*
Y160573D01*
Y160793D01*
Y161002D01*
Y161187D01*
Y161349D01*
Y161488D01*
Y161592D01*
Y161650D01*
Y161673D01*
Y161765D01*
Y161835D01*
Y161962D01*
Y162055D01*
Y162112D01*
Y162147D01*
Y162159D01*
Y162170D01*
X297155D01*
Y162147D01*
D02*
G37*
G36*
X298000Y179722D02*
X294078Y175638D01*
X293962Y174539D01*
X293719Y171866D01*
X293522Y169945D01*
X297722Y165630D01*
X297433Y165352D01*
X293488Y169401D01*
X293256Y166914D01*
X293129D01*
Y165965D01*
X292250D01*
Y166914D01*
X289531D01*
X289427Y166729D01*
X289299Y166544D01*
X289103Y166335D01*
X288848Y166162D01*
X288559Y166069D01*
X288281Y166035D01*
X287992Y166046D01*
X287784Y166104D01*
X287541Y166208D01*
X287333Y166335D01*
X287171Y166497D01*
X287009Y166729D01*
X286893Y166983D01*
X286823Y167226D01*
X286800Y167423D01*
X286823Y167666D01*
X286858Y167851D01*
X286928Y168025D01*
X287032Y168221D01*
X287147Y168383D01*
X287309Y168534D01*
X287483Y168649D01*
X287645Y168730D01*
X287622Y168939D01*
X284162Y165352D01*
X283873Y165641D01*
X287587Y169482D01*
X287286Y172838D01*
X287078Y175267D01*
X285967D01*
Y176829D01*
X286256D01*
X283445Y179722D01*
X283734Y179999D01*
X286384Y177269D01*
Y177466D01*
X286326Y177512D01*
X286256Y177558D01*
X286187Y177628D01*
X286118Y177709D01*
X286083Y177813D01*
X286048Y177905D01*
X286037Y178021D01*
X286060Y178172D01*
X286094Y178252D01*
X286199Y178414D01*
X286314Y178519D01*
X286465Y178588D01*
X286627Y178611D01*
X286789Y178588D01*
X286928Y178530D01*
X287043Y178461D01*
X287101Y178391D01*
X287205Y178484D01*
X287379Y178600D01*
X287587Y178704D01*
X287888Y178819D01*
X288212Y178912D01*
X288536Y178981D01*
X288883Y179039D01*
X289160Y179074D01*
Y179421D01*
X291382D01*
Y179120D01*
X291556D01*
X291845Y179086D01*
X292146Y179051D01*
X292435Y179005D01*
Y179190D01*
X293395D01*
Y178738D01*
X293511Y178681D01*
X293661Y178611D01*
X293835Y178507D01*
X293974Y178414D01*
X294101Y178299D01*
X294194Y178218D01*
X294251Y178137D01*
X294298Y178044D01*
X294274Y177882D01*
X294830D01*
Y177176D01*
X294217D01*
X294124Y176262D01*
X297711Y179999D01*
X298000Y179722D01*
D02*
G37*
G36*
X312698Y181573D02*
X313068Y181550D01*
X313427Y181515D01*
X313774Y181457D01*
X314121Y181400D01*
X314445Y181318D01*
X315093Y181145D01*
X315694Y180925D01*
X316261Y180682D01*
X316782Y180428D01*
X317025Y180300D01*
X317256Y180161D01*
X317476Y180034D01*
X317684Y179895D01*
X317881Y179768D01*
X318066Y179641D01*
X318240Y179514D01*
X318402Y179398D01*
X318541Y179282D01*
X318668Y179178D01*
X318783Y179086D01*
X318888Y179005D01*
X318980Y178923D01*
X319050Y178866D01*
X319108Y178808D01*
X319142Y178773D01*
X319165Y178750D01*
X319177Y178738D01*
X319431Y178472D01*
X319674Y178195D01*
X319894Y177917D01*
X320114Y177628D01*
X320299Y177338D01*
X320484Y177061D01*
X320658Y176760D01*
X320808Y176471D01*
X320947Y176181D01*
X321086Y175892D01*
X321306Y175325D01*
X321502Y174782D01*
X321641Y174261D01*
X321769Y173763D01*
X321815Y173532D01*
X321850Y173312D01*
X321884Y173115D01*
X321919Y172919D01*
X321942Y172734D01*
X321954Y172572D01*
X321965Y172421D01*
X321977Y172294D01*
X321988Y172178D01*
Y172074D01*
X322000Y172005D01*
Y171947D01*
Y171912D01*
Y171900D01*
X321988Y171530D01*
X321965Y171160D01*
X321931Y170801D01*
X321873Y170454D01*
X321815Y170107D01*
X321734Y169783D01*
X321560Y169135D01*
X321340Y168534D01*
X321109Y167967D01*
X320855Y167446D01*
X320716Y167203D01*
X320588Y166972D01*
X320461Y166752D01*
X320322Y166544D01*
X320195Y166347D01*
X320068Y166162D01*
X319952Y165988D01*
X319836Y165826D01*
X319721Y165688D01*
X319617Y165560D01*
X319524Y165445D01*
X319431Y165340D01*
X319362Y165248D01*
X319293Y165178D01*
X319246Y165120D01*
X319212Y165086D01*
X319188Y165063D01*
X319177Y165051D01*
X318911Y164797D01*
X318633Y164554D01*
X318355Y164322D01*
X318066Y164114D01*
X317777Y163917D01*
X317488Y163732D01*
X317198Y163570D01*
X316909Y163408D01*
X316620Y163269D01*
X316331Y163142D01*
X315764Y162911D01*
X315208Y162725D01*
X314688Y162575D01*
X314202Y162459D01*
X313970Y162402D01*
X313751Y162367D01*
X313542Y162332D01*
X313346Y162309D01*
X313160Y162274D01*
X312999Y162263D01*
X312848Y162251D01*
X312721Y162240D01*
X312605Y162228D01*
X312501D01*
X312432Y162216D01*
X312328D01*
X311957Y162228D01*
X311587Y162251D01*
X311228Y162286D01*
X310881Y162344D01*
X310546Y162402D01*
X310210Y162483D01*
X309574Y162656D01*
X308972Y162876D01*
X308405Y163119D01*
X307885Y163373D01*
X307642Y163501D01*
X307410Y163640D01*
X307190Y163767D01*
X306982Y163894D01*
X306785Y164033D01*
X306600Y164160D01*
X306427Y164276D01*
X306265Y164392D01*
X306126Y164507D01*
X305999Y164611D01*
X305883Y164704D01*
X305779Y164785D01*
X305686Y164866D01*
X305617Y164935D01*
X305559Y164982D01*
X305524Y165016D01*
X305501Y165040D01*
X305490Y165051D01*
X305235Y165317D01*
X304992Y165595D01*
X304761Y165873D01*
X304552Y166162D01*
X304356Y166451D01*
X304171Y166740D01*
X303997Y167030D01*
X303847Y167319D01*
X303696Y167608D01*
X303569Y167897D01*
X303338Y168464D01*
X303152Y169020D01*
X303002Y169540D01*
X302886Y170026D01*
X302829Y170258D01*
X302794Y170477D01*
X302759Y170686D01*
X302724Y170882D01*
X302701Y171068D01*
X302690Y171230D01*
X302678Y171380D01*
X302666Y171507D01*
X302655Y171623D01*
X302643Y171727D01*
Y171796D01*
Y171854D01*
Y171889D01*
Y171900D01*
X302655Y172271D01*
X302678Y172641D01*
X302713Y173000D01*
X302771Y173347D01*
X302829Y173682D01*
X302909Y174018D01*
X303083Y174654D01*
X303303Y175256D01*
X303546Y175823D01*
X303800Y176343D01*
X303928Y176586D01*
X304066Y176818D01*
X304194Y177038D01*
X304333Y177246D01*
X304460Y177443D01*
X304587Y177628D01*
X304714Y177801D01*
X304830Y177963D01*
X304946Y178102D01*
X305050Y178229D01*
X305142Y178345D01*
X305223Y178449D01*
X305305Y178542D01*
X305362Y178611D01*
X305420Y178669D01*
X305455Y178704D01*
X305478Y178727D01*
X305490Y178738D01*
X305756Y178993D01*
X306033Y179236D01*
X306311Y179467D01*
X306600Y179676D01*
X306890Y179872D01*
X307167Y180057D01*
X307468Y180231D01*
X307757Y180381D01*
X308047Y180532D01*
X308336Y180659D01*
X308903Y180890D01*
X309447Y181076D01*
X309967Y181226D01*
X310465Y181342D01*
X310696Y181400D01*
X310916Y181434D01*
X311113Y181469D01*
X311309Y181504D01*
X311494Y181527D01*
X311656Y181538D01*
X311807Y181550D01*
X311934Y181562D01*
X312050Y181573D01*
X312154Y181585D01*
X312328D01*
X312698Y181573D01*
D02*
G37*
G36*
X317041Y160377D02*
X317516Y160320D01*
X317967Y160227D01*
X318395Y160100D01*
X318800Y159961D01*
X319170Y159799D01*
X319529Y159625D01*
X319841Y159452D01*
X320131Y159278D01*
X320385Y159105D01*
X320605Y158943D01*
X320790Y158804D01*
X320929Y158677D01*
X321033Y158584D01*
X321102Y158526D01*
X321126Y158503D01*
X321461Y158144D01*
X321750Y157763D01*
X322005Y157381D01*
X322213Y156999D01*
X322398Y156606D01*
X322549Y156235D01*
X322676Y155865D01*
X322780Y155518D01*
X322850Y155194D01*
X322907Y154893D01*
X322954Y154627D01*
X322977Y154396D01*
X322988Y154292D01*
X323000Y154199D01*
Y154130D01*
X323012Y154060D01*
Y154014D01*
Y153979D01*
Y153956D01*
Y153945D01*
X322988Y153458D01*
X322931Y152984D01*
X322838Y152533D01*
X322711Y152105D01*
X322572Y151700D01*
X322410Y151330D01*
X322248Y150983D01*
X322063Y150659D01*
X321889Y150381D01*
X321727Y150126D01*
X321565Y149907D01*
X321415Y149721D01*
X321299Y149583D01*
X321207Y149467D01*
X321149Y149409D01*
X321126Y149386D01*
X320767Y149050D01*
X320385Y148761D01*
X320003Y148507D01*
X319610Y148298D01*
X319228Y148113D01*
X318846Y147963D01*
X318476Y147836D01*
X318129Y147731D01*
X317805Y147662D01*
X317504Y147604D01*
X317238Y147558D01*
X317007Y147535D01*
X316903Y147523D01*
X316810Y147512D01*
X316741D01*
X316671Y147500D01*
X316313D01*
X316208Y147512D01*
X316023D01*
X315965Y147523D01*
X315908D01*
Y149478D01*
X316127Y149455D01*
X316243Y149444D01*
X316336D01*
X316428Y149432D01*
X316556D01*
X316903Y149444D01*
X317227Y149490D01*
X317539Y149559D01*
X317840Y149641D01*
X318117Y149733D01*
X318384Y149849D01*
X318626Y149964D01*
X318846Y150092D01*
X319055Y150219D01*
X319228Y150335D01*
X319379Y150450D01*
X319506Y150543D01*
X319610Y150636D01*
X319691Y150693D01*
X319737Y150740D01*
X319749Y150751D01*
X319980Y151006D01*
X320188Y151272D01*
X320362Y151538D01*
X320512Y151816D01*
X320640Y152082D01*
X320744Y152348D01*
X320836Y152602D01*
X320906Y152845D01*
X320952Y153077D01*
X320998Y153285D01*
X321022Y153470D01*
X321045Y153632D01*
X321056Y153759D01*
X321068Y153864D01*
Y153921D01*
Y153945D01*
X321056Y154292D01*
X321010Y154616D01*
X320940Y154939D01*
X320860Y155240D01*
X320767Y155518D01*
X320651Y155784D01*
X320536Y156027D01*
X320408Y156247D01*
X320281Y156444D01*
X320165Y156617D01*
X320050Y156779D01*
X319957Y156906D01*
X319865Y156999D01*
X319807Y157080D01*
X319760Y157126D01*
X319749Y157138D01*
X319494Y157369D01*
X319228Y157578D01*
X318962Y157751D01*
X318684Y157913D01*
X318418Y158040D01*
X318152Y158144D01*
X317898Y158237D01*
X317655Y158306D01*
X317423Y158353D01*
X317215Y158399D01*
X317030Y158434D01*
X316868Y158445D01*
X316741Y158457D01*
X316636Y158468D01*
X316556D01*
X316313Y158457D01*
X316208D01*
X316104Y158445D01*
X316023Y158434D01*
X315965D01*
X315919Y158422D01*
X315908D01*
Y160366D01*
X316127Y160389D01*
X316232D01*
X316336Y160400D01*
X316556D01*
X317041Y160377D01*
D02*
G37*
G36*
X306073D02*
X306547Y160320D01*
X306999Y160227D01*
X307427Y160100D01*
X307832Y159961D01*
X308202Y159799D01*
X308549Y159625D01*
X308873Y159452D01*
X309151Y159278D01*
X309405Y159105D01*
X309625Y158943D01*
X309810Y158804D01*
X309949Y158677D01*
X310065Y158584D01*
X310123Y158526D01*
X310146Y158503D01*
X310481Y158144D01*
X310771Y157763D01*
X311025Y157381D01*
X311233Y156999D01*
X311418Y156606D01*
X311569Y156235D01*
X311696Y155865D01*
X311800Y155518D01*
X311870Y155194D01*
X311928Y154893D01*
X311974Y154627D01*
X311997Y154396D01*
X312009Y154292D01*
X312020Y154199D01*
Y154130D01*
X312032Y154060D01*
Y154014D01*
Y153979D01*
Y153956D01*
Y153945D01*
X312009Y153458D01*
X311951Y152984D01*
X311858Y152533D01*
X311731Y152105D01*
X311592Y151700D01*
X311430Y151330D01*
X311268Y150983D01*
X311083Y150659D01*
X310909Y150381D01*
X310747Y150126D01*
X310585Y149907D01*
X310435Y149721D01*
X310319Y149583D01*
X310227Y149467D01*
X310169Y149409D01*
X310146Y149386D01*
X309787Y149050D01*
X309405Y148761D01*
X309023Y148507D01*
X308642Y148298D01*
X308248Y148113D01*
X307878Y147963D01*
X307508Y147836D01*
X307161Y147731D01*
X306837Y147662D01*
X306536Y147604D01*
X306270Y147558D01*
X306038Y147535D01*
X305934Y147523D01*
X305842Y147512D01*
X305772D01*
X305703Y147500D01*
X305344D01*
X305240Y147512D01*
X305055D01*
X304997Y147523D01*
X304939D01*
X304951Y149478D01*
X305171Y149455D01*
X305275Y149444D01*
X305379D01*
X305460Y149432D01*
X305587D01*
X305876Y149444D01*
X306166Y149478D01*
X306443Y149525D01*
X306698Y149583D01*
X306952Y149664D01*
X307184Y149745D01*
X307404Y149837D01*
X307600Y149930D01*
X307785Y150022D01*
X307947Y150115D01*
X308086Y150196D01*
X308202Y150277D01*
X308295Y150335D01*
X308364Y150381D01*
X308410Y150416D01*
X308422Y150427D01*
X308642Y150624D01*
X308850Y150821D01*
X309023Y151029D01*
X309185Y151249D01*
X309336Y151457D01*
X309463Y151677D01*
X309579Y151885D01*
X309671Y152082D01*
X309752Y152267D01*
X309822Y152440D01*
X309880Y152591D01*
X309926Y152730D01*
X309961Y152834D01*
X309984Y152915D01*
X309995Y152961D01*
Y152984D01*
X306224D01*
Y154916D01*
X309995D01*
X309926Y155206D01*
X309833Y155472D01*
X309729Y155738D01*
X309613Y155981D01*
X309486Y156201D01*
X309359Y156409D01*
X309220Y156606D01*
X309093Y156779D01*
X308966Y156941D01*
X308838Y157080D01*
X308734Y157196D01*
X308630Y157288D01*
X308549Y157369D01*
X308491Y157427D01*
X308445Y157462D01*
X308433Y157473D01*
X308190Y157647D01*
X307947Y157797D01*
X307704Y157936D01*
X307462Y158052D01*
X307219Y158144D01*
X306987Y158225D01*
X306756Y158295D01*
X306536Y158341D01*
X306339Y158387D01*
X306154Y158411D01*
X305992Y158434D01*
X305853Y158457D01*
X305738D01*
X305657Y158468D01*
X305587D01*
X305344Y158457D01*
X305240D01*
X305136Y158445D01*
X305055Y158434D01*
X304997D01*
X304951Y158422D01*
X304939D01*
Y160366D01*
X305078Y160377D01*
X305194Y160389D01*
X305310D01*
X305402Y160400D01*
X305587D01*
X306073Y160377D01*
D02*
G37*
%LPC*%
G36*
X418600Y271900D02*
X412200D01*
Y271100D01*
X410600D01*
Y270300D01*
X409800D01*
Y269500D01*
Y268700D01*
X409000D01*
Y267900D01*
Y267100D01*
Y266300D01*
Y265500D01*
X409800D01*
Y266300D01*
X412200D01*
Y265500D01*
X413000D01*
Y264700D01*
Y263900D01*
X412200D01*
Y263100D01*
X409800D01*
Y263900D01*
X409000D01*
Y263100D01*
Y262300D01*
X409800D01*
Y261500D01*
X410600D01*
Y260700D01*
X411400D01*
Y259900D01*
X413000D01*
Y259100D01*
X417800D01*
Y259900D01*
X418600D01*
Y260700D01*
X420200D01*
Y261500D01*
X421000D01*
Y262300D01*
Y263100D01*
X421800D01*
Y263900D01*
Y264700D01*
Y265500D01*
Y266300D01*
Y267100D01*
Y267900D01*
X421000D01*
Y268700D01*
Y269500D01*
Y270300D01*
X419400D01*
Y271100D01*
X418600D01*
Y271900D01*
D02*
G37*
G36*
X325000Y187100D02*
X324200D01*
Y186300D01*
X325000D01*
Y187100D01*
D02*
G37*
G36*
X394600Y296700D02*
X389800D01*
Y295900D01*
X387400D01*
Y295100D01*
X386600D01*
Y294300D01*
Y293500D01*
X385800D01*
Y292700D01*
Y291900D01*
X385000D01*
Y291100D01*
Y290300D01*
Y289500D01*
Y288700D01*
Y287900D01*
X385800D01*
Y287100D01*
Y286300D01*
X386600D01*
Y285500D01*
Y284700D01*
X388200D01*
Y283900D01*
X389000D01*
Y283100D01*
X395400D01*
Y283900D01*
X396200D01*
Y284700D01*
X397800D01*
Y285500D01*
Y286300D01*
X398600D01*
Y287100D01*
Y287900D01*
X399400D01*
Y288700D01*
Y289500D01*
Y290300D01*
Y291100D01*
Y291900D01*
X398600D01*
Y292700D01*
Y293500D01*
X397800D01*
Y294300D01*
Y295100D01*
X396200D01*
Y295900D01*
X394600D01*
Y296700D01*
D02*
G37*
G36*
X348200Y345500D02*
X345000D01*
Y344700D01*
X342600D01*
Y343900D01*
X341000D01*
Y343100D01*
Y342300D01*
X340200D01*
Y341500D01*
Y340700D01*
X339400D01*
Y339900D01*
Y339100D01*
Y338300D01*
Y337500D01*
Y336700D01*
X340200D01*
Y335900D01*
Y335100D01*
X341000D01*
Y334300D01*
Y333500D01*
X341800D01*
Y332700D01*
X342600D01*
Y331900D01*
X349800D01*
Y332700D01*
X351400D01*
Y333500D01*
X352200D01*
Y334300D01*
Y335100D01*
X353000D01*
Y335900D01*
Y336700D01*
X352200D01*
Y335900D01*
X351400D01*
Y335100D01*
X350600D01*
Y335900D01*
X349800D01*
Y336700D01*
X349000D01*
Y337500D01*
Y338300D01*
X349800D01*
Y339100D01*
X351400D01*
Y338300D01*
X352200D01*
Y337500D01*
X353000D01*
Y336700D01*
X353800D01*
Y337500D01*
Y338300D01*
Y339100D01*
Y339900D01*
X353000D01*
Y340700D01*
Y341500D01*
Y342300D01*
X352200D01*
Y343100D01*
X351400D01*
Y343900D01*
X350600D01*
Y344700D01*
X348200D01*
Y345500D01*
D02*
G37*
G36*
X370600Y321500D02*
X367400D01*
Y320700D01*
X365800D01*
Y319900D01*
X364200D01*
Y319100D01*
X363400D01*
Y318300D01*
Y317500D01*
X362600D01*
Y316700D01*
Y315900D01*
Y315100D01*
Y314300D01*
Y313500D01*
Y312700D01*
Y311900D01*
Y311100D01*
Y310300D01*
X363400D01*
Y309500D01*
X364200D01*
Y308700D01*
X365800D01*
Y307900D01*
X369000D01*
Y307100D01*
X369800D01*
Y307900D01*
X373000D01*
Y308700D01*
X371400D01*
Y309500D01*
X370600D01*
Y310300D01*
Y311100D01*
Y311900D01*
X373800D01*
Y311100D01*
Y310300D01*
Y309500D01*
X374600D01*
Y310300D01*
X375400D01*
Y311100D01*
Y311900D01*
X376200D01*
Y312700D01*
Y313500D01*
Y314300D01*
Y315100D01*
Y315900D01*
Y316700D01*
Y317500D01*
X375400D01*
Y318300D01*
X374600D01*
Y319100D01*
X373800D01*
Y319900D01*
X373000D01*
Y320700D01*
X370600D01*
Y321500D01*
D02*
G37*
G36*
X373800Y309500D02*
X373000D01*
Y308700D01*
X373800D01*
Y309500D01*
D02*
G37*
%LPD*%
G36*
X393000Y295100D02*
X393800D01*
Y294300D01*
X394600D01*
Y293500D01*
X393800D01*
Y292700D01*
Y291900D01*
X391400D01*
Y292700D01*
X390600D01*
Y293500D01*
Y294300D01*
Y295100D01*
X392200D01*
Y295900D01*
X393000D01*
Y295100D01*
D02*
G37*
%LPC*%
G36*
X290757Y172201D02*
X288003Y169344D01*
X288050Y168846D01*
X288235Y168858D01*
X288443Y168846D01*
X288698Y168777D01*
X288941Y168649D01*
X289126Y168522D01*
X289299Y168349D01*
X289450Y168129D01*
X289577Y167851D01*
X289635Y167539D01*
X289623Y167330D01*
X292886D01*
X293117Y169772D01*
X290757Y172201D01*
D02*
G37*
G36*
X288293Y168152D02*
X288223D01*
X288096Y168140D01*
X287992Y168117D01*
X287899Y168082D01*
X287818Y168048D01*
X287749Y167990D01*
X287703Y167932D01*
X287610Y167805D01*
X287564Y167666D01*
X287541Y167562D01*
X287529Y167516D01*
Y167481D01*
Y167458D01*
Y167446D01*
X287541Y167319D01*
X287564Y167215D01*
X287599Y167122D01*
X287633Y167041D01*
X287691Y166983D01*
X287749Y166926D01*
X287876Y166844D01*
X288003Y166787D01*
X288119Y166763D01*
X288154Y166752D01*
X288223D01*
X288351Y166763D01*
X288455Y166787D01*
X288547Y166821D01*
X288628Y166856D01*
X288698Y166914D01*
X288756Y166972D01*
X288837Y167099D01*
X288894Y167226D01*
X288917Y167342D01*
X288929Y167377D01*
Y167411D01*
Y167435D01*
Y167446D01*
X288917Y167573D01*
X288894Y167677D01*
X288860Y167770D01*
X288813Y167851D01*
X288767Y167920D01*
X288709Y167978D01*
X288570Y168059D01*
X288443Y168117D01*
X288328Y168140D01*
X288293Y168152D01*
D02*
G37*
G36*
X293626Y175175D02*
X291035Y172491D01*
X293164Y170304D01*
X293626Y175175D01*
D02*
G37*
G36*
X287541Y175510D02*
Y175267D01*
X287494D01*
X287957Y169876D01*
X290479Y172491D01*
X288848Y174168D01*
X288513D01*
Y174504D01*
X287541Y175510D01*
D02*
G37*
G36*
X292736Y166926D02*
X292643D01*
Y166358D01*
X292736D01*
Y166926D01*
D02*
G37*
G36*
X293812Y177176D02*
X287333D01*
X287367Y176829D01*
X287541D01*
Y176089D01*
X288513Y175094D01*
X291428D01*
Y174168D01*
X289415D01*
X290757Y172780D01*
X293684Y175823D01*
X293812Y177176D01*
D02*
G37*
G36*
X290965Y179028D02*
X289554D01*
Y178796D01*
X290965D01*
Y179028D01*
D02*
G37*
G36*
X291382Y178704D02*
Y178391D01*
X289160D01*
Y178657D01*
X288698Y178588D01*
X288281Y178484D01*
X287934Y178391D01*
X287656Y178264D01*
X287437Y178137D01*
X287275Y177986D01*
Y177882D01*
X292435D01*
Y178565D01*
X292122Y178623D01*
X291775Y178669D01*
X291382Y178704D01*
D02*
G37*
G36*
X286684Y178206D02*
X286650D01*
X286580Y178195D01*
X286534Y178172D01*
X286488Y178148D01*
X286465Y178114D01*
X286442Y178044D01*
Y178021D01*
Y178009D01*
X286453Y177940D01*
X286476Y177894D01*
X286511Y177859D01*
X286546Y177836D01*
X286615Y177813D01*
X286650D01*
X286719Y177824D01*
X286766Y177848D01*
X286800Y177871D01*
X286823Y177917D01*
X286846Y177975D01*
Y177998D01*
Y178009D01*
X286835Y178079D01*
X286812Y178125D01*
X286789Y178160D01*
X286742Y178183D01*
X286684Y178206D01*
D02*
G37*
G36*
X287147Y176436D02*
X286372D01*
Y175672D01*
X287147D01*
Y176436D01*
D02*
G37*
G36*
X291023Y174689D02*
X288941D01*
Y174562D01*
X291023D01*
Y174689D01*
D02*
G37*
G36*
X293002Y178796D02*
X292840D01*
Y178264D01*
X292990D01*
X293002Y178796D01*
D02*
G37*
G36*
X293395Y178276D02*
Y177882D01*
X293869D01*
X293881Y177952D01*
X293765Y178067D01*
X293615Y178172D01*
X293395Y178276D01*
D02*
G37*
%LPD*%
G36*
X288385Y167897D02*
X288501Y167851D01*
X288582Y167770D01*
X288640Y167689D01*
X288675Y167596D01*
X288686Y167516D01*
X288698Y167469D01*
Y167446D01*
X288675Y167296D01*
X288628Y167180D01*
X288547Y167099D01*
X288455Y167041D01*
X288374Y167006D01*
X288293Y166995D01*
X288246Y166983D01*
X288223D01*
X288073Y167006D01*
X287957Y167053D01*
X287876Y167134D01*
X287818Y167215D01*
X287784Y167296D01*
X287772Y167377D01*
X287761Y167423D01*
Y167446D01*
X287784Y167608D01*
X287830Y167724D01*
X287911Y167805D01*
X287992Y167863D01*
X288073Y167897D01*
X288154Y167909D01*
X288200Y167920D01*
X288223D01*
X288385Y167897D01*
D02*
G37*
%LPC*%
G36*
X288235Y167516D02*
X288223D01*
X288177Y167504D01*
X288165Y167481D01*
X288154Y167458D01*
Y167446D01*
X288165Y167411D01*
X288189Y167388D01*
X288212Y167377D01*
X288223D01*
X288258Y167388D01*
X288281Y167411D01*
X288293Y167435D01*
Y167446D01*
X288281Y167492D01*
X288258Y167504D01*
X288235Y167516D01*
D02*
G37*
G36*
X312490Y180613D02*
X312328D01*
X311992Y180601D01*
X311668Y180590D01*
X311344Y180555D01*
X311032Y180509D01*
X310418Y180381D01*
X309840Y180219D01*
X309296Y180023D01*
X308799Y179803D01*
X308324Y179571D01*
X307896Y179340D01*
X307514Y179097D01*
X307329Y178981D01*
X307167Y178866D01*
X307017Y178750D01*
X306878Y178646D01*
X306739Y178553D01*
X306624Y178461D01*
X306519Y178368D01*
X306427Y178287D01*
X306357Y178229D01*
X306288Y178172D01*
X306242Y178114D01*
X306207Y178091D01*
X306184Y178067D01*
X306172Y178056D01*
X305941Y177813D01*
X305721Y177570D01*
X305513Y177315D01*
X305328Y177061D01*
X305154Y176806D01*
X304992Y176540D01*
X304830Y176286D01*
X304691Y176020D01*
X304448Y175499D01*
X304240Y174990D01*
X304066Y174492D01*
X303939Y174029D01*
X303823Y173578D01*
X303754Y173173D01*
X303719Y172988D01*
X303696Y172815D01*
X303673Y172653D01*
X303650Y172502D01*
X303638Y172375D01*
X303627Y172248D01*
Y172143D01*
X303615Y172063D01*
Y171993D01*
Y171947D01*
Y171912D01*
Y171900D01*
X303627Y171565D01*
X303638Y171241D01*
X303673Y170917D01*
X303719Y170605D01*
X303847Y169992D01*
X304009Y169413D01*
X304205Y168869D01*
X304425Y168360D01*
X304657Y167897D01*
X304888Y167469D01*
X305131Y167076D01*
X305247Y166902D01*
X305362Y166729D01*
X305478Y166578D01*
X305582Y166439D01*
X305675Y166312D01*
X305767Y166185D01*
X305833Y166112D01*
X305825Y166104D01*
X306002Y165915D01*
X306056Y165849D01*
X306083Y165828D01*
X306134Y165774D01*
X306137Y165769D01*
X306161Y165745D01*
X306172Y165734D01*
X306415Y165502D01*
X306658Y165282D01*
X306913Y165086D01*
X307167Y164889D01*
X307422Y164716D01*
X307688Y164554D01*
X307943Y164403D01*
X308209Y164264D01*
X308729Y164021D01*
X309238Y163813D01*
X309736Y163640D01*
X310199Y163512D01*
X310650Y163397D01*
X311055Y163327D01*
X311240Y163293D01*
X311414Y163269D01*
X311575Y163246D01*
X311726Y163223D01*
X311853Y163212D01*
X311980Y163200D01*
X312085D01*
X312165Y163188D01*
X312328D01*
X312663Y163200D01*
X312987Y163223D01*
X313311Y163246D01*
X313623Y163293D01*
X314236Y163420D01*
X314804Y163582D01*
X315347Y163778D01*
X315856Y163998D01*
X316331Y164230D01*
X316759Y164461D01*
X317141Y164704D01*
X317314Y164820D01*
X317488Y164924D01*
X317638Y165040D01*
X317777Y165144D01*
X317904Y165248D01*
X318032Y165340D01*
X318136Y165421D01*
X318228Y165502D01*
X318298Y165572D01*
X318367Y165630D01*
X318413Y165676D01*
X318448Y165711D01*
X318471Y165722D01*
X318483Y165734D01*
X318714Y165977D01*
X318934Y166220D01*
X319131Y166474D01*
X319327Y166729D01*
X319501Y166995D01*
X319663Y167249D01*
X319825Y167516D01*
X319964Y167782D01*
X320207Y168302D01*
X320415Y168811D01*
X320588Y169309D01*
X320716Y169772D01*
X320820Y170223D01*
X320901Y170628D01*
X320936Y170813D01*
X320959Y170986D01*
X320982Y171149D01*
X321005Y171299D01*
X321017Y171426D01*
X321028Y171553D01*
Y171658D01*
X321040Y171739D01*
Y171808D01*
Y171854D01*
Y171889D01*
Y171900D01*
X321028Y172236D01*
X321005Y172560D01*
X320982Y172884D01*
X320924Y173196D01*
X320808Y173810D01*
X320635Y174388D01*
X320450Y174932D01*
X320230Y175429D01*
X319998Y175904D01*
X319755Y176332D01*
X319524Y176714D01*
X319408Y176899D01*
X319293Y177061D01*
X319177Y177211D01*
X319073Y177350D01*
X318980Y177489D01*
X318876Y177605D01*
X318795Y177709D01*
X318807Y177720D01*
X318495Y178043D01*
X318494Y178044D01*
X318483Y178056D01*
X318495Y178043D01*
X318506Y178021D01*
X318541Y177986D01*
X318587Y177940D01*
X318645Y177871D01*
X318714Y177801D01*
X318795Y177709D01*
X316099Y175013D01*
X317083D01*
Y174839D01*
X316840D01*
X316712Y174828D01*
X316608Y174805D01*
X316504Y174770D01*
X316435Y174735D01*
X316377Y174700D01*
X316331Y174666D01*
X316308Y174643D01*
X316296Y174631D01*
X316250Y174562D01*
X316227Y174458D01*
X316203Y174330D01*
X316180Y174203D01*
Y174076D01*
X316169Y173983D01*
Y173902D01*
Y173891D01*
Y173879D01*
Y169748D01*
Y169563D01*
X316180Y169401D01*
X316192Y169286D01*
X316215Y169193D01*
X316227Y169124D01*
X316250Y169078D01*
X316261Y169054D01*
Y169043D01*
X316342Y168962D01*
X316435Y168892D01*
X316527Y168846D01*
X316620Y168823D01*
X316701Y168800D01*
X316770Y168788D01*
X317083D01*
Y168603D01*
X314341D01*
Y168788D01*
X314584D01*
X314711Y168800D01*
X314815Y168823D01*
X314908Y168846D01*
X314989Y168892D01*
X315046Y168927D01*
X315093Y168950D01*
X315116Y168973D01*
X315127Y168985D01*
X315174Y169066D01*
X315208Y169170D01*
X315232Y169297D01*
X315243Y169425D01*
X315255Y169552D01*
X315266Y169656D01*
Y169725D01*
Y169737D01*
Y169748D01*
Y171600D01*
X315139Y171577D01*
X315023Y171553D01*
X314931Y171542D01*
X314850Y171530D01*
X314780Y171519D01*
X314734Y171507D01*
X314688D01*
X314491Y171484D01*
X314399D01*
X314329Y171473D01*
X314179D01*
X313901Y171484D01*
X313647Y171530D01*
X313427Y171588D01*
X313242Y171646D01*
X313103Y171715D01*
X312999Y171762D01*
X312929Y171808D01*
X312906Y171820D01*
X311159Y170072D01*
Y169020D01*
X311009Y168927D01*
X310858Y168846D01*
X310731Y168777D01*
X310603Y168719D01*
X310511Y168673D01*
X310430Y168638D01*
X310372Y168626D01*
X310361Y168615D01*
X310222Y168568D01*
X310094Y168534D01*
X309956Y168510D01*
X309840Y168499D01*
X309747Y168487D01*
X309666Y168476D01*
X309562D01*
X306508Y165421D01*
X306161Y165745D01*
X306134Y165774D01*
X306114Y165803D01*
X306083Y165828D01*
X306002Y165915D01*
X305999Y165919D01*
X305941Y165988D01*
X305860Y166081D01*
X305833Y166112D01*
X308509Y168788D01*
X308370Y168881D01*
X308243Y168973D01*
X308197Y169020D01*
X308162Y169054D01*
X308139Y169066D01*
X308128Y169078D01*
X307989Y169216D01*
X307873Y169355D01*
X307769Y169506D01*
X307688Y169667D01*
X307607Y169818D01*
X307549Y169968D01*
X307456Y170269D01*
X307422Y170408D01*
X307399Y170524D01*
X307387Y170639D01*
X307376Y170744D01*
X307364Y170813D01*
Y170882D01*
Y170917D01*
Y170929D01*
Y171114D01*
X307387Y171287D01*
X307445Y171588D01*
X307526Y171866D01*
X307561Y171982D01*
X307607Y172086D01*
X307653Y172178D01*
X307699Y172259D01*
X307746Y172329D01*
X307781Y172387D01*
X307815Y172433D01*
X307838Y172468D01*
X307850Y172479D01*
X307861Y172491D01*
X307954Y172595D01*
X308058Y172687D01*
X308151Y172757D01*
X308255Y172826D01*
X308452Y172930D01*
X308625Y173000D01*
X308787Y173034D01*
X308903Y173057D01*
X308949Y173069D01*
X309018D01*
X309157Y173057D01*
X309285Y173034D01*
X309412Y172988D01*
X309539Y172930D01*
X309770Y172791D01*
X309979Y172629D01*
X310141Y172468D01*
X310210Y172398D01*
X310268Y172329D01*
X310314Y172271D01*
X310349Y172224D01*
X310372Y172201D01*
X310384Y172190D01*
Y175325D01*
X310592D01*
X311888Y174793D01*
X311818Y174631D01*
X311691Y174677D01*
X311587Y174689D01*
X311518Y174700D01*
X311494D01*
X311414Y174689D01*
X311356Y174677D01*
X311309Y174654D01*
X311298Y174643D01*
X311251Y174573D01*
X311217Y174504D01*
X311205Y174434D01*
X311194Y174423D01*
Y174411D01*
X311182Y174376D01*
Y174319D01*
X311171Y174203D01*
Y174053D01*
X311159Y173891D01*
Y173752D01*
Y173625D01*
Y173578D01*
Y173544D01*
Y173520D01*
Y173509D01*
Y171438D01*
X312304Y172595D01*
X312246Y172815D01*
X312223Y172930D01*
X312212Y173023D01*
X312200Y173115D01*
Y173185D01*
Y173231D01*
Y173243D01*
X312212Y173451D01*
X312258Y173636D01*
X312304Y173810D01*
X312374Y173948D01*
X312432Y174076D01*
X312490Y174157D01*
X312536Y174215D01*
X312547Y174238D01*
X312686Y174388D01*
X312825Y174515D01*
X312964Y174619D01*
X313091Y174700D01*
X313207Y174758D01*
X313299Y174805D01*
X313357Y174828D01*
X313380Y174839D01*
X313589Y174897D01*
X313808Y174943D01*
X314028Y174967D01*
X314248Y174990D01*
X314445Y175001D01*
X314526Y175013D01*
X314734D01*
X318118Y178397D01*
X317997Y178507D01*
X317742Y178715D01*
X317488Y178900D01*
X317222Y179074D01*
X316967Y179236D01*
X316701Y179398D01*
X316446Y179537D01*
X315926Y179780D01*
X315417Y179988D01*
X314919Y180161D01*
X314445Y180289D01*
X314005Y180404D01*
X313600Y180474D01*
X313415Y180509D01*
X313242Y180532D01*
X313080Y180555D01*
X312929Y180578D01*
X312790Y180590D01*
X312675Y180601D01*
X312570D01*
X312490Y180613D01*
D02*
G37*
G36*
X315266Y174168D02*
X313473Y172387D01*
X313531Y172294D01*
X313589Y172224D01*
X313623Y172178D01*
X313635Y172167D01*
X313774Y172039D01*
X313924Y171935D01*
X314063Y171866D01*
X314190Y171820D01*
X314306Y171796D01*
X314399Y171785D01*
X314456Y171773D01*
X314479D01*
X314584Y171785D01*
X314699Y171796D01*
X314746D01*
X314780Y171808D01*
X314815D01*
X314965Y171820D01*
X315116Y171843D01*
X315174Y171854D01*
X315220Y171866D01*
X315255Y171877D01*
X315266D01*
Y174168D01*
D02*
G37*
G36*
X314317Y174596D02*
X314179Y174550D01*
X314051Y174504D01*
X314005Y174481D01*
X313970Y174469D01*
X313947Y174446D01*
X313936D01*
X313832Y174376D01*
X313727Y174295D01*
X313647Y174203D01*
X313577Y174122D01*
X313519Y174041D01*
X313485Y173972D01*
X313461Y173925D01*
X313450Y173914D01*
X313392Y173786D01*
X313357Y173705D01*
X313346Y173648D01*
X313334Y173625D01*
X314317Y174596D01*
D02*
G37*
G36*
X318124Y178403D02*
X318118Y178397D01*
X318240Y178287D01*
X318483Y178056D01*
X318124Y178403D01*
D02*
G37*
G36*
X309481Y172387D02*
X309389D01*
X309215Y172363D01*
X309065Y172317D01*
X308926Y172248D01*
X308799Y172167D01*
X308695Y172086D01*
X308625Y172016D01*
X308567Y171970D01*
X308556Y171947D01*
X308428Y171762D01*
X308336Y171553D01*
X308266Y171345D01*
X308220Y171137D01*
X308197Y170952D01*
X308185Y170871D01*
X308174Y170801D01*
Y170744D01*
Y170697D01*
Y170674D01*
Y170663D01*
X308185Y170350D01*
X308232Y170072D01*
X308290Y169829D01*
X308359Y169644D01*
X308440Y169494D01*
X308498Y169390D01*
X308544Y169320D01*
X308556Y169297D01*
X308625Y169193D01*
X308695Y169124D01*
X308752Y169066D01*
X308764Y169054D01*
X308775D01*
X310384Y170651D01*
Y171889D01*
X310268Y171993D01*
X310175Y172074D01*
X310083Y172132D01*
X310014Y172190D01*
X309956Y172224D01*
X309921Y172248D01*
X309898Y172271D01*
X309886D01*
X309701Y172340D01*
X309620Y172363D01*
X309539Y172375D01*
X309481Y172387D01*
D02*
G37*
%LPD*%
D17*
X313000Y198000D02*
X317998D01*
X313000Y201332D01*
X317998D01*
X313000Y205498D02*
Y203831D01*
X313833Y202998D01*
X315499D01*
X316332Y203831D01*
Y205498D01*
X315499Y206331D01*
X314666D01*
Y202998D01*
X316332Y207997D02*
X313833D01*
X313000Y208830D01*
X313833Y209663D01*
X313000Y210496D01*
X313833Y211329D01*
X316332D01*
X313000Y212995D02*
X316332D01*
X317998Y214661D01*
X316332Y216327D01*
X313000D01*
X315499D01*
Y212995D01*
X317998Y221326D02*
Y217993D01*
X313000D01*
Y221326D01*
X315499Y217993D02*
Y219660D01*
X317998Y227990D02*
Y231323D01*
Y229656D01*
X313000D01*
Y235488D02*
Y233822D01*
X313833Y232989D01*
X315499D01*
X316332Y233822D01*
Y235488D01*
X315499Y236321D01*
X314666D01*
Y232989D01*
X316332Y241319D02*
Y238820D01*
X315499Y237987D01*
X313833D01*
X313000Y238820D01*
Y241319D01*
X317998Y242985D02*
X313000D01*
X315499D01*
X316332Y243818D01*
Y245485D01*
X315499Y246318D01*
X313000D01*
Y247984D02*
X316332D01*
Y250483D01*
X315499Y251316D01*
X313000D01*
Y253815D02*
Y255481D01*
X313833Y256314D01*
X315499D01*
X316332Y255481D01*
Y253815D01*
X315499Y252982D01*
X313833D01*
X313000Y253815D01*
Y257981D02*
Y259647D01*
Y258814D01*
X317998D01*
Y257981D01*
X313000Y262979D02*
Y264645D01*
X313833Y265478D01*
X315499D01*
X316332Y264645D01*
Y262979D01*
X315499Y262146D01*
X313833D01*
X313000Y262979D01*
X311334Y268810D02*
Y269643D01*
X312167Y270477D01*
X316332D01*
Y267977D01*
X315499Y267144D01*
X313833D01*
X313000Y267977D01*
Y270477D01*
X316332Y272143D02*
X313833D01*
X313000Y272976D01*
Y275475D01*
X312167D01*
X311334Y274642D01*
Y273809D01*
X313000Y275475D02*
X316332D01*
X317998Y282139D02*
Y283805D01*
Y282973D01*
X313000D01*
Y282139D01*
Y283805D01*
Y286305D02*
X316332D01*
Y288804D01*
X315499Y289637D01*
X313000D01*
X316332Y294635D02*
Y292136D01*
X315499Y291303D01*
X313833D01*
X313000Y292136D01*
Y294635D01*
Y296302D02*
X313833D01*
Y297134D01*
X313000D01*
Y296302D01*
X302500Y198000D02*
X307498D01*
X302500Y201332D01*
X307498D01*
X302500Y202998D02*
X305832D01*
X307498Y204664D01*
X305832Y206331D01*
X302500D01*
X304999D01*
Y202998D01*
X307498Y211329D02*
Y207997D01*
X302500D01*
Y211329D01*
X304999Y207997D02*
Y209663D01*
Y212995D02*
Y216327D01*
X306665Y221326D02*
X307498Y220493D01*
Y218827D01*
X306665Y217993D01*
X303333D01*
X302500Y218827D01*
Y220493D01*
X303333Y221326D01*
X307498Y222992D02*
X302500D01*
X304166Y224658D01*
X302500Y226324D01*
X307498D01*
X306665Y227990D02*
X307498Y228823D01*
Y230489D01*
X306665Y231323D01*
X305832D01*
X304999Y230489D01*
Y229656D01*
Y230489D01*
X304166Y231323D01*
X303333D01*
X302500Y230489D01*
Y228823D01*
X303333Y227990D01*
X306665Y232989D02*
X307498Y233822D01*
Y235488D01*
X306665Y236321D01*
X303333D01*
X302500Y235488D01*
Y233822D01*
X303333Y232989D01*
X306665D01*
Y237987D02*
X307498Y238820D01*
Y240486D01*
X306665Y241319D01*
X305832D01*
X304999Y240486D01*
X304166Y241319D01*
X303333D01*
X302500Y240486D01*
Y238820D01*
X303333Y237987D01*
X304166D01*
X304999Y238820D01*
X305832Y237987D01*
X306665D01*
X304999Y238820D02*
Y240486D01*
X307498Y242985D02*
Y246318D01*
Y244652D01*
X302500D01*
X304999Y247984D02*
Y251316D01*
X306665Y256314D02*
X307498Y255481D01*
Y253815D01*
X306665Y252982D01*
X305832D01*
X304999Y253815D01*
Y255481D01*
X304166Y256314D01*
X303333D01*
X302500Y255481D01*
Y253815D01*
X303333Y252982D01*
X307498Y257981D02*
Y261313D01*
Y259647D01*
X302500D01*
Y262979D02*
X307498D01*
X305832Y264645D01*
X307498Y266311D01*
X302500D01*
X306665Y267977D02*
X307498Y268810D01*
Y270477D01*
X306665Y271310D01*
X305832D01*
X304999Y270477D01*
Y269643D01*
Y270477D01*
X304166Y271310D01*
X303333D01*
X302500Y270477D01*
Y268810D01*
X303333Y267977D01*
X302500Y276308D02*
Y272976D01*
X305832Y276308D01*
X306665D01*
X307498Y275475D01*
Y273809D01*
X306665Y272976D01*
X307498Y281306D02*
Y277974D01*
X304999D01*
Y279640D01*
Y277974D01*
X302500D01*
X304999Y282973D02*
Y286305D01*
X306665Y287971D02*
X307498Y288804D01*
Y290470D01*
X306665Y291303D01*
X303333D01*
X302500Y290470D01*
Y288804D01*
X303333Y287971D01*
X306665D01*
X302500Y296302D02*
Y292969D01*
X305832Y296302D01*
X306665D01*
X307498Y295468D01*
Y293802D01*
X306665Y292969D01*
X291500Y198000D02*
X296498D01*
Y200499D01*
X295665Y201332D01*
X293999D01*
X293166Y200499D01*
Y198000D01*
Y199666D02*
X291500Y201332D01*
Y203831D02*
Y205498D01*
X292333Y206331D01*
X293999D01*
X294832Y205498D01*
Y203831D01*
X293999Y202998D01*
X292333D01*
X291500Y203831D01*
X296498Y207997D02*
X291500D01*
X293999D01*
Y211329D01*
X296498D01*
X291500D01*
X295665Y216327D02*
X296498Y215494D01*
Y213828D01*
X295665Y212995D01*
X294832D01*
X293999Y213828D01*
Y215494D01*
X293166Y216327D01*
X292333D01*
X291500Y215494D01*
Y213828D01*
X292333Y212995D01*
X291500Y222992D02*
X294832Y226324D01*
X291500Y232989D02*
X296498D01*
Y235488D01*
X295665Y236321D01*
X293999D01*
X293166Y235488D01*
Y232989D01*
X296498Y237987D02*
X291500D01*
Y240486D01*
X292333Y241319D01*
X293166D01*
X293999Y240486D01*
Y237987D01*
Y240486D01*
X294832Y241319D01*
X295665D01*
X296498Y240486D01*
Y237987D01*
X293999Y242985D02*
Y246318D01*
X296498Y251316D02*
Y247984D01*
X293999D01*
Y249650D01*
Y247984D01*
X291500D01*
X294832Y252982D02*
X291500D01*
X293166D01*
X293999Y253815D01*
X294832Y254648D01*
Y255481D01*
X291500Y260480D02*
Y258814D01*
X292333Y257981D01*
X293999D01*
X294832Y258814D01*
Y260480D01*
X293999Y261313D01*
X293166D01*
Y257981D01*
X291500Y265478D02*
Y263812D01*
X292333Y262979D01*
X293999D01*
X294832Y263812D01*
Y265478D01*
X293999Y266311D01*
X293166D01*
Y262979D01*
X266500Y110000D02*
X472500D01*
Y364000D01*
X266500D02*
X472500D01*
X266500Y110000D02*
Y364000D01*
M02*
