G04 Layer_Physical_Order=2*
G04 Layer_Color=16711680*
%FSLAX25Y25*%
%MOIN*%
G70*
G01*
G75*
%ADD17C,0.01000*%
%ADD18C,0.00800*%
%ADD20C,0.02500*%
%ADD21C,0.25000*%
%ADD22R,0.11000X0.06000*%
%ADD23O,0.11000X0.06000*%
%ADD24R,0.06000X0.11000*%
%ADD25O,0.06000X0.11000*%
%ADD26C,0.02500*%
G36*
X470971Y332155D02*
X470471Y331888D01*
X470390Y331942D01*
X470000Y332020D01*
X465000D01*
Y328000D01*
Y323980D01*
X470000D01*
X470390Y324058D01*
X470471Y324112D01*
X470971Y323845D01*
Y319061D01*
X470507Y318940D01*
X470145Y319815D01*
X469568Y320567D01*
X468816Y321145D01*
X467940Y321507D01*
X467000Y321631D01*
X462000D01*
X461060Y321507D01*
X460184Y321145D01*
X459432Y320567D01*
X458855Y319815D01*
X458493Y318940D01*
X458369Y318000D01*
X458493Y317060D01*
X458855Y316184D01*
X459432Y315433D01*
X460184Y314855D01*
X461060Y314493D01*
X462000Y314369D01*
X467000D01*
X467940Y314493D01*
X468816Y314855D01*
X469568Y315433D01*
X470145Y316184D01*
X470507Y317060D01*
X470971Y316939D01*
Y309061D01*
X470507Y308940D01*
X470145Y309816D01*
X469568Y310567D01*
X468816Y311145D01*
X467940Y311507D01*
X467000Y311631D01*
X462000D01*
X461060Y311507D01*
X460184Y311145D01*
X459432Y310567D01*
X458855Y309816D01*
X458493Y308940D01*
X458369Y308000D01*
X458493Y307060D01*
X458855Y306185D01*
X459432Y305433D01*
X460184Y304855D01*
X461060Y304493D01*
X462000Y304369D01*
X467000D01*
X467940Y304493D01*
X468816Y304855D01*
X469568Y305433D01*
X470145Y306185D01*
X470507Y307060D01*
X470971Y306939D01*
Y300299D01*
X470524Y300045D01*
X470471Y300048D01*
X469853Y300853D01*
X469017Y301494D01*
X468044Y301897D01*
X467000Y302034D01*
X465000D01*
Y298000D01*
Y293966D01*
X467000D01*
X468044Y294103D01*
X469017Y294506D01*
X469853Y295147D01*
X470471Y295952D01*
X470524Y295955D01*
X470971Y295701D01*
Y289061D01*
X470507Y288940D01*
X470145Y289815D01*
X469568Y290567D01*
X468816Y291145D01*
X467940Y291507D01*
X467000Y291631D01*
X462000D01*
X461060Y291507D01*
X460184Y291145D01*
X459432Y290567D01*
X458855Y289815D01*
X458493Y288940D01*
X458369Y288000D01*
X458493Y287060D01*
X458855Y286185D01*
X459432Y285433D01*
X460184Y284855D01*
X461060Y284493D01*
X462000Y284369D01*
X467000D01*
X467940Y284493D01*
X468816Y284855D01*
X469568Y285433D01*
X470145Y286185D01*
X470507Y287060D01*
X470971Y286939D01*
Y279061D01*
X470507Y278940D01*
X470145Y279816D01*
X469568Y280568D01*
X468816Y281145D01*
X467940Y281507D01*
X467000Y281631D01*
X462000D01*
X461060Y281507D01*
X460184Y281145D01*
X459432Y280568D01*
X458855Y279816D01*
X458493Y278940D01*
X458369Y278000D01*
X458493Y277060D01*
X458855Y276185D01*
X459432Y275432D01*
X460184Y274855D01*
X461060Y274493D01*
X462000Y274369D01*
X467000D01*
X467940Y274493D01*
X468816Y274855D01*
X469568Y275432D01*
X470145Y276185D01*
X470507Y277060D01*
X470971Y276939D01*
Y270299D01*
X470524Y270045D01*
X470471Y270048D01*
X469853Y270853D01*
X469017Y271494D01*
X468044Y271897D01*
X467000Y272035D01*
X465000D01*
Y268000D01*
Y263966D01*
X467000D01*
X468044Y264103D01*
X469017Y264506D01*
X469853Y265147D01*
X470471Y265952D01*
X470524Y265955D01*
X470971Y265701D01*
Y259061D01*
X470507Y258940D01*
X470145Y259816D01*
X469568Y260567D01*
X468816Y261145D01*
X467940Y261507D01*
X467000Y261631D01*
X462000D01*
X461060Y261507D01*
X460184Y261145D01*
X459432Y260567D01*
X458855Y259816D01*
X458493Y258940D01*
X458369Y258000D01*
X458493Y257060D01*
X458855Y256185D01*
X459432Y255433D01*
X460184Y254855D01*
X461060Y254493D01*
X462000Y254369D01*
X467000D01*
X467940Y254493D01*
X468816Y254855D01*
X469568Y255433D01*
X470145Y256185D01*
X470507Y257060D01*
X470971Y256939D01*
Y250299D01*
X470524Y250045D01*
X470471Y250048D01*
X469853Y250853D01*
X469017Y251494D01*
X468044Y251897D01*
X467000Y252034D01*
X465000D01*
Y248000D01*
Y243966D01*
X467000D01*
X468044Y244103D01*
X469017Y244506D01*
X469853Y245147D01*
X470471Y245952D01*
X470524Y245955D01*
X470971Y245701D01*
Y240299D01*
X470524Y240045D01*
X470471Y240048D01*
X469853Y240853D01*
X469017Y241494D01*
X468044Y241897D01*
X467000Y242035D01*
X465000D01*
Y238000D01*
Y233965D01*
X467000D01*
X468044Y234103D01*
X469017Y234506D01*
X469853Y235147D01*
X470471Y235952D01*
X470524Y235955D01*
X470971Y235701D01*
Y229061D01*
X470507Y228940D01*
X470145Y229816D01*
X469568Y230568D01*
X468816Y231145D01*
X467940Y231507D01*
X467000Y231631D01*
X462000D01*
X461060Y231507D01*
X460184Y231145D01*
X459432Y230568D01*
X458855Y229816D01*
X458493Y228940D01*
X458369Y228000D01*
X458493Y227060D01*
X458855Y226185D01*
X459432Y225432D01*
X460184Y224855D01*
X461060Y224493D01*
X462000Y224369D01*
X467000D01*
X467940Y224493D01*
X468816Y224855D01*
X469568Y225432D01*
X470145Y226185D01*
X470507Y227060D01*
X470971Y226939D01*
Y219061D01*
X470507Y218940D01*
X470145Y219815D01*
X469568Y220567D01*
X468816Y221145D01*
X467940Y221507D01*
X467000Y221631D01*
X462000D01*
X461060Y221507D01*
X460184Y221145D01*
X459432Y220567D01*
X458855Y219815D01*
X458493Y218940D01*
X458369Y218000D01*
X458493Y217060D01*
X458855Y216184D01*
X459432Y215433D01*
X460184Y214855D01*
X461060Y214493D01*
X462000Y214369D01*
X467000D01*
X467940Y214493D01*
X468816Y214855D01*
X469568Y215433D01*
X470145Y216184D01*
X470507Y217060D01*
X470971Y216939D01*
Y209061D01*
X470507Y208940D01*
X470145Y209816D01*
X469568Y210567D01*
X468816Y211145D01*
X467940Y211507D01*
X467000Y211631D01*
X462000D01*
X461060Y211507D01*
X460184Y211145D01*
X459432Y210567D01*
X458855Y209816D01*
X458493Y208940D01*
X458369Y208000D01*
X458493Y207060D01*
X458855Y206185D01*
X459432Y205433D01*
X460184Y204855D01*
X461060Y204493D01*
X462000Y204369D01*
X467000D01*
X467940Y204493D01*
X468816Y204855D01*
X469568Y205433D01*
X470145Y206185D01*
X470507Y207060D01*
X470971Y206939D01*
Y199061D01*
X470507Y198940D01*
X470145Y199815D01*
X469568Y200568D01*
X468816Y201145D01*
X467940Y201507D01*
X467000Y201631D01*
X462000D01*
X461060Y201507D01*
X460184Y201145D01*
X459432Y200568D01*
X458855Y199815D01*
X458493Y198940D01*
X458369Y198000D01*
X458493Y197060D01*
X458855Y196185D01*
X459432Y195432D01*
X460184Y194855D01*
X461060Y194493D01*
X462000Y194369D01*
X467000D01*
X467940Y194493D01*
X468816Y194855D01*
X469568Y195432D01*
X470145Y196185D01*
X470507Y197060D01*
X470971Y196939D01*
Y189061D01*
X470507Y188940D01*
X470145Y189815D01*
X469568Y190568D01*
X468816Y191145D01*
X467940Y191507D01*
X467000Y191631D01*
X462000D01*
X461060Y191507D01*
X460184Y191145D01*
X459432Y190568D01*
X458855Y189815D01*
X458493Y188940D01*
X458369Y188000D01*
X458493Y187060D01*
X458855Y186185D01*
X459432Y185432D01*
X460184Y184855D01*
X461060Y184493D01*
X462000Y184369D01*
X467000D01*
X467940Y184493D01*
X468816Y184855D01*
X469568Y185432D01*
X470145Y186185D01*
X470507Y187060D01*
X470971Y186939D01*
Y180299D01*
X470524Y180045D01*
X470471Y180048D01*
X469853Y180853D01*
X469017Y181494D01*
X468044Y181897D01*
X467000Y182035D01*
X465000D01*
Y178000D01*
Y173966D01*
X467000D01*
X468044Y174103D01*
X469017Y174506D01*
X469853Y175147D01*
X470471Y175952D01*
X470524Y175955D01*
X470971Y175701D01*
Y170299D01*
X470524Y170045D01*
X470471Y170048D01*
X469853Y170853D01*
X469017Y171494D01*
X468044Y171897D01*
X467000Y172035D01*
X465000D01*
Y168000D01*
Y163965D01*
X467000D01*
X468044Y164103D01*
X469017Y164506D01*
X469853Y165147D01*
X470471Y165952D01*
X470524Y165955D01*
X470971Y165701D01*
Y159061D01*
X470507Y158940D01*
X470145Y159816D01*
X469568Y160568D01*
X468816Y161145D01*
X467940Y161507D01*
X467000Y161631D01*
X462000D01*
X461060Y161507D01*
X460184Y161145D01*
X459432Y160568D01*
X458855Y159816D01*
X458493Y158940D01*
X458369Y158000D01*
X458493Y157060D01*
X458855Y156184D01*
X459432Y155432D01*
X460184Y154855D01*
X461060Y154493D01*
X462000Y154369D01*
X467000D01*
X467940Y154493D01*
X468816Y154855D01*
X469568Y155432D01*
X470145Y156184D01*
X470507Y157060D01*
X470971Y156939D01*
Y149061D01*
X470507Y148940D01*
X470145Y149815D01*
X469568Y150568D01*
X468816Y151145D01*
X467940Y151507D01*
X467000Y151631D01*
X462000D01*
X461060Y151507D01*
X460184Y151145D01*
X459432Y150568D01*
X458855Y149815D01*
X458493Y148940D01*
X458369Y148000D01*
X458493Y147060D01*
X458855Y146185D01*
X459432Y145432D01*
X460184Y144855D01*
X461060Y144493D01*
X462000Y144369D01*
X467000D01*
X467940Y144493D01*
X468816Y144855D01*
X469568Y145432D01*
X470145Y146185D01*
X470507Y147060D01*
X470971Y146939D01*
Y139061D01*
X470507Y138940D01*
X470145Y139815D01*
X469568Y140568D01*
X468816Y141145D01*
X467940Y141507D01*
X467000Y141631D01*
X462000D01*
X461060Y141507D01*
X460184Y141145D01*
X459432Y140568D01*
X458855Y139815D01*
X458493Y138940D01*
X458369Y138000D01*
X458493Y137060D01*
X458855Y136185D01*
X459432Y135432D01*
X460184Y134855D01*
X461060Y134493D01*
X462000Y134369D01*
X467000D01*
X467940Y134493D01*
X468816Y134855D01*
X469568Y135432D01*
X470145Y136185D01*
X470507Y137060D01*
X470971Y136939D01*
Y111529D01*
X465561D01*
X465440Y111993D01*
X466316Y112355D01*
X467068Y112932D01*
X467645Y113684D01*
X468007Y114560D01*
X468131Y115500D01*
Y120500D01*
X468007Y121440D01*
X467645Y122316D01*
X467068Y123068D01*
X466316Y123645D01*
X465440Y124007D01*
X464500Y124131D01*
X463560Y124007D01*
X462684Y123645D01*
X461932Y123068D01*
X461355Y122316D01*
X460993Y121440D01*
X460869Y120500D01*
Y115500D01*
X460993Y114560D01*
X461355Y113684D01*
X461932Y112932D01*
X462684Y112355D01*
X463560Y111993D01*
X463439Y111529D01*
X455561D01*
X455440Y111993D01*
X456316Y112355D01*
X457068Y112932D01*
X457645Y113684D01*
X458007Y114560D01*
X458131Y115500D01*
Y120500D01*
X458007Y121440D01*
X457645Y122316D01*
X457068Y123068D01*
X456316Y123645D01*
X455440Y124007D01*
X454500Y124131D01*
X453560Y124007D01*
X452684Y123645D01*
X451932Y123068D01*
X451355Y122316D01*
X450993Y121440D01*
X450869Y120500D01*
Y115500D01*
X450993Y114560D01*
X451355Y113684D01*
X451932Y112932D01*
X452684Y112355D01*
X453560Y111993D01*
X453439Y111529D01*
X445561D01*
X445440Y111993D01*
X446315Y112355D01*
X447068Y112932D01*
X447645Y113684D01*
X448007Y114560D01*
X448131Y115500D01*
Y120500D01*
X448007Y121440D01*
X447645Y122316D01*
X447068Y123068D01*
X446315Y123645D01*
X445440Y124007D01*
X444500Y124131D01*
X443560Y124007D01*
X442685Y123645D01*
X441932Y123068D01*
X441355Y122316D01*
X440993Y121440D01*
X440869Y120500D01*
Y115500D01*
X440993Y114560D01*
X441355Y113684D01*
X441932Y112932D01*
X442685Y112355D01*
X443560Y111993D01*
X443439Y111529D01*
X435561D01*
X435440Y111993D01*
X436315Y112355D01*
X437068Y112932D01*
X437645Y113684D01*
X438007Y114560D01*
X438131Y115500D01*
Y120500D01*
X438007Y121440D01*
X437645Y122316D01*
X437068Y123068D01*
X436315Y123645D01*
X435440Y124007D01*
X434500Y124131D01*
X433560Y124007D01*
X432685Y123645D01*
X431932Y123068D01*
X431355Y122316D01*
X430993Y121440D01*
X430869Y120500D01*
Y115500D01*
X430993Y114560D01*
X431355Y113684D01*
X431932Y112932D01*
X432685Y112355D01*
X433560Y111993D01*
X433439Y111529D01*
X425561D01*
X425440Y111993D01*
X426315Y112355D01*
X427068Y112932D01*
X427645Y113684D01*
X428007Y114560D01*
X428131Y115500D01*
Y120500D01*
X428007Y121440D01*
X427645Y122316D01*
X427068Y123068D01*
X426315Y123645D01*
X425440Y124007D01*
X424500Y124131D01*
X423560Y124007D01*
X422684Y123645D01*
X421932Y123068D01*
X421355Y122316D01*
X420993Y121440D01*
X420869Y120500D01*
Y115500D01*
X420993Y114560D01*
X421355Y113684D01*
X421932Y112932D01*
X422684Y112355D01*
X423560Y111993D01*
X423439Y111529D01*
X415561D01*
X415440Y111993D01*
X416316Y112355D01*
X417068Y112932D01*
X417645Y113684D01*
X418007Y114560D01*
X418131Y115500D01*
Y120500D01*
X418007Y121440D01*
X417645Y122316D01*
X417068Y123068D01*
X416316Y123645D01*
X415440Y124007D01*
X414500Y124131D01*
X413560Y124007D01*
X412684Y123645D01*
X411932Y123068D01*
X411355Y122316D01*
X410993Y121440D01*
X410869Y120500D01*
Y115500D01*
X410993Y114560D01*
X411355Y113684D01*
X411932Y112932D01*
X412684Y112355D01*
X413560Y111993D01*
X413439Y111529D01*
X405561D01*
X405440Y111993D01*
X406316Y112355D01*
X407067Y112932D01*
X407645Y113684D01*
X408007Y114560D01*
X408131Y115500D01*
Y120500D01*
X408007Y121440D01*
X407645Y122316D01*
X407067Y123068D01*
X406316Y123645D01*
X405440Y124007D01*
X404500Y124131D01*
X403560Y124007D01*
X402684Y123645D01*
X401932Y123068D01*
X401355Y122316D01*
X400993Y121440D01*
X400869Y120500D01*
Y115500D01*
X400993Y114560D01*
X401355Y113684D01*
X401932Y112932D01*
X402684Y112355D01*
X403560Y111993D01*
X403439Y111529D01*
X395561D01*
X395440Y111993D01*
X396316Y112355D01*
X397067Y112932D01*
X397645Y113684D01*
X398007Y114560D01*
X398131Y115500D01*
Y120500D01*
X398007Y121440D01*
X397645Y122316D01*
X397067Y123068D01*
X396316Y123645D01*
X395440Y124007D01*
X394500Y124131D01*
X393560Y124007D01*
X392685Y123645D01*
X391933Y123068D01*
X391355Y122316D01*
X390993Y121440D01*
X390869Y120500D01*
Y115500D01*
X390993Y114560D01*
X391355Y113684D01*
X391933Y112932D01*
X392685Y112355D01*
X393560Y111993D01*
X393439Y111529D01*
X385561D01*
X385440Y111993D01*
X386315Y112355D01*
X387068Y112932D01*
X387645Y113684D01*
X388007Y114560D01*
X388131Y115500D01*
Y120500D01*
X388007Y121440D01*
X387645Y122316D01*
X387068Y123068D01*
X386315Y123645D01*
X385440Y124007D01*
X384500Y124131D01*
X383560Y124007D01*
X382684Y123645D01*
X381932Y123068D01*
X381355Y122316D01*
X380993Y121440D01*
X380869Y120500D01*
Y115500D01*
X380993Y114560D01*
X381355Y113684D01*
X381932Y112932D01*
X382684Y112355D01*
X383560Y111993D01*
X383439Y111529D01*
X375561D01*
X375440Y111993D01*
X376315Y112355D01*
X377067Y112932D01*
X377645Y113684D01*
X378007Y114560D01*
X378131Y115500D01*
Y120500D01*
X378007Y121440D01*
X377645Y122316D01*
X377067Y123068D01*
X376315Y123645D01*
X375622Y123932D01*
Y127035D01*
X384793Y136207D01*
X384793Y136207D01*
X385036Y136571D01*
X385122Y137000D01*
X385121Y137000D01*
Y168524D01*
X385334Y168666D01*
X385743Y169278D01*
X385886Y170000D01*
X385743Y170722D01*
X385334Y171334D01*
X384722Y171743D01*
X384000Y171886D01*
X383278Y171743D01*
X382666Y171334D01*
X382257Y170722D01*
X382114Y170000D01*
X382257Y169278D01*
X382666Y168666D01*
X382878Y168524D01*
Y137465D01*
X373707Y128293D01*
X373464Y127929D01*
X373378Y127500D01*
X373378Y127500D01*
Y123932D01*
X372685Y123645D01*
X371933Y123068D01*
X371355Y122316D01*
X370993Y121440D01*
X370869Y120500D01*
Y115500D01*
X370993Y114560D01*
X371355Y113684D01*
X371933Y112932D01*
X372685Y112355D01*
X373560Y111993D01*
X373439Y111529D01*
X366799D01*
X366545Y111976D01*
X366548Y112029D01*
X367353Y112647D01*
X367994Y113483D01*
X368397Y114456D01*
X368534Y115500D01*
Y117500D01*
X364500D01*
X360466D01*
Y115500D01*
X360603Y114456D01*
X361006Y113483D01*
X361647Y112647D01*
X362452Y112029D01*
X362455Y111976D01*
X362201Y111529D01*
X356799D01*
X356545Y111976D01*
X356548Y112029D01*
X357353Y112647D01*
X357994Y113483D01*
X358397Y114456D01*
X358535Y115500D01*
Y117500D01*
X354500D01*
X350465D01*
Y115500D01*
X350603Y114456D01*
X351006Y113483D01*
X351647Y112647D01*
X352452Y112029D01*
X352455Y111976D01*
X352201Y111529D01*
X345561D01*
X345440Y111993D01*
X346316Y112355D01*
X347067Y112932D01*
X347645Y113684D01*
X348007Y114560D01*
X348131Y115500D01*
Y120500D01*
X348007Y121440D01*
X347645Y122316D01*
X347067Y123068D01*
X346316Y123645D01*
X345440Y124007D01*
X344500Y124131D01*
X343560Y124007D01*
X342685Y123645D01*
X341933Y123068D01*
X341355Y122316D01*
X340993Y121440D01*
X340869Y120500D01*
Y115500D01*
X340993Y114560D01*
X341355Y113684D01*
X341933Y112932D01*
X342685Y112355D01*
X343560Y111993D01*
X343439Y111529D01*
X335561D01*
X335440Y111993D01*
X336315Y112355D01*
X337068Y112932D01*
X337645Y113684D01*
X338007Y114560D01*
X338131Y115500D01*
Y120500D01*
X338007Y121440D01*
X337645Y122316D01*
X337068Y123068D01*
X336315Y123645D01*
X335440Y124007D01*
X334500Y124131D01*
X333560Y124007D01*
X332684Y123645D01*
X331932Y123068D01*
X331355Y122316D01*
X330993Y121440D01*
X330869Y120500D01*
Y115500D01*
X330993Y114560D01*
X331355Y113684D01*
X331932Y112932D01*
X332684Y112355D01*
X333560Y111993D01*
X333439Y111529D01*
X325561D01*
X325440Y111993D01*
X326315Y112355D01*
X327067Y112932D01*
X327645Y113684D01*
X328007Y114560D01*
X328131Y115500D01*
Y120500D01*
X328007Y121440D01*
X327645Y122316D01*
X327067Y123068D01*
X326315Y123645D01*
X325440Y124007D01*
X324500Y124131D01*
X323560Y124007D01*
X322685Y123645D01*
X321933Y123068D01*
X321355Y122316D01*
X320993Y121440D01*
X320869Y120500D01*
Y115500D01*
X320993Y114560D01*
X321355Y113684D01*
X321933Y112932D01*
X322685Y112355D01*
X323560Y111993D01*
X323439Y111529D01*
X315561D01*
X315440Y111993D01*
X316316Y112355D01*
X317068Y112932D01*
X317645Y113684D01*
X318007Y114560D01*
X318131Y115500D01*
Y120500D01*
X318007Y121440D01*
X317645Y122316D01*
X317068Y123068D01*
X316316Y123645D01*
X315621Y123932D01*
Y141524D01*
X315834Y141666D01*
X316243Y142278D01*
X316386Y143000D01*
X316243Y143722D01*
X315834Y144334D01*
X315222Y144743D01*
X314500Y144886D01*
X313778Y144743D01*
X313166Y144334D01*
X312757Y143722D01*
X312614Y143000D01*
X312757Y142278D01*
X313166Y141666D01*
X313379Y141524D01*
Y123932D01*
X312684Y123645D01*
X311932Y123068D01*
X311355Y122316D01*
X310993Y121440D01*
X310869Y120500D01*
Y115500D01*
X310993Y114560D01*
X311355Y113684D01*
X311932Y112932D01*
X312684Y112355D01*
X313560Y111993D01*
X313439Y111529D01*
X305561D01*
X305440Y111993D01*
X306315Y112355D01*
X307067Y112932D01*
X307645Y113684D01*
X308007Y114560D01*
X308131Y115500D01*
Y120500D01*
X308007Y121440D01*
X307645Y122316D01*
X307067Y123068D01*
X306315Y123645D01*
X305520Y123974D01*
Y132578D01*
X306129Y133187D01*
X306500Y133114D01*
X307222Y133257D01*
X307834Y133666D01*
X308243Y134278D01*
X308386Y135000D01*
X308243Y135722D01*
X307834Y136334D01*
X307222Y136743D01*
X306500Y136886D01*
X305778Y136743D01*
X305166Y136334D01*
X304757Y135722D01*
X304614Y135000D01*
X304688Y134629D01*
X303779Y133721D01*
X303558Y133390D01*
X303480Y133000D01*
Y123974D01*
X302684Y123645D01*
X301933Y123068D01*
X301355Y122316D01*
X300993Y121440D01*
X300869Y120500D01*
Y115500D01*
X300993Y114560D01*
X301355Y113684D01*
X301933Y112932D01*
X302684Y112355D01*
X303560Y111993D01*
X303439Y111529D01*
X295561D01*
X295440Y111993D01*
X296316Y112355D01*
X297067Y112932D01*
X297645Y113684D01*
X298007Y114560D01*
X298131Y115500D01*
Y120500D01*
X298007Y121440D01*
X297645Y122316D01*
X297067Y123068D01*
X296316Y123645D01*
X295440Y124007D01*
X294500Y124131D01*
X293560Y124007D01*
X292685Y123645D01*
X291933Y123068D01*
X291355Y122316D01*
X290993Y121440D01*
X290869Y120500D01*
Y115500D01*
X290993Y114560D01*
X291355Y113684D01*
X291933Y112932D01*
X292685Y112355D01*
X293560Y111993D01*
X293439Y111529D01*
X285561D01*
X285440Y111993D01*
X286315Y112355D01*
X287068Y112932D01*
X287645Y113684D01*
X288007Y114560D01*
X288131Y115500D01*
Y120500D01*
X288007Y121440D01*
X287645Y122316D01*
X287068Y123068D01*
X286315Y123645D01*
X285440Y124007D01*
X284500Y124131D01*
X283560Y124007D01*
X282684Y123645D01*
X281932Y123068D01*
X281355Y122316D01*
X280993Y121440D01*
X280869Y120500D01*
Y115500D01*
X280993Y114560D01*
X281355Y113684D01*
X281932Y112932D01*
X282684Y112355D01*
X283560Y111993D01*
X283439Y111529D01*
X278656D01*
X278388Y112029D01*
X278442Y112110D01*
X278520Y112500D01*
Y117500D01*
X274500D01*
X270480D01*
Y112500D01*
X270558Y112110D01*
X270612Y112029D01*
X270344Y111529D01*
X268029D01*
Y136939D01*
X268493Y137060D01*
X268855Y136185D01*
X269432Y135432D01*
X270184Y134855D01*
X271060Y134493D01*
X272000Y134369D01*
X277000D01*
X277940Y134493D01*
X278816Y134855D01*
X279568Y135432D01*
X280145Y136185D01*
X280507Y137060D01*
X280631Y138000D01*
X280507Y138940D01*
X280145Y139815D01*
X279568Y140568D01*
X278816Y141145D01*
X277940Y141507D01*
X277000Y141631D01*
X272000D01*
X271060Y141507D01*
X270184Y141145D01*
X269432Y140568D01*
X268855Y139815D01*
X268493Y138940D01*
X268029Y139061D01*
Y146939D01*
X268493Y147060D01*
X268855Y146185D01*
X269432Y145432D01*
X270184Y144855D01*
X271060Y144493D01*
X272000Y144369D01*
X277000D01*
X277940Y144493D01*
X278816Y144855D01*
X279568Y145432D01*
X280145Y146185D01*
X280507Y147060D01*
X280631Y148000D01*
X280507Y148940D01*
X280145Y149815D01*
X279568Y150568D01*
X278816Y151145D01*
X277940Y151507D01*
X277000Y151631D01*
X272000D01*
X271060Y151507D01*
X270184Y151145D01*
X269432Y150568D01*
X268855Y149815D01*
X268493Y148940D01*
X268029Y149061D01*
Y156939D01*
X268493Y157060D01*
X268855Y156184D01*
X269432Y155432D01*
X270184Y154855D01*
X271060Y154493D01*
X272000Y154369D01*
X277000D01*
X277940Y154493D01*
X278816Y154855D01*
X279568Y155432D01*
X280145Y156184D01*
X280507Y157060D01*
X280631Y158000D01*
X280507Y158940D01*
X280145Y159816D01*
X279568Y160568D01*
X278816Y161145D01*
X277940Y161507D01*
X277000Y161631D01*
X272000D01*
X271060Y161507D01*
X270184Y161145D01*
X269432Y160568D01*
X268855Y159816D01*
X268493Y158940D01*
X268029Y159061D01*
Y166939D01*
X268493Y167060D01*
X268855Y166184D01*
X269432Y165432D01*
X270184Y164855D01*
X271060Y164493D01*
X272000Y164369D01*
X277000D01*
X277940Y164493D01*
X278816Y164855D01*
X279568Y165432D01*
X280145Y166184D01*
X280507Y167060D01*
X280631Y168000D01*
X280507Y168940D01*
X280145Y169816D01*
X279568Y170568D01*
X278816Y171145D01*
X277940Y171507D01*
X277000Y171631D01*
X272000D01*
X271060Y171507D01*
X270184Y171145D01*
X269432Y170568D01*
X268855Y169816D01*
X268493Y168940D01*
X268029Y169061D01*
Y175701D01*
X268476Y175955D01*
X268529Y175952D01*
X269147Y175147D01*
X269983Y174506D01*
X270956Y174103D01*
X272000Y173966D01*
X274000D01*
Y178000D01*
Y182035D01*
X272000D01*
X270956Y181897D01*
X269983Y181494D01*
X269147Y180853D01*
X268529Y180048D01*
X268476Y180045D01*
X268029Y180299D01*
Y185701D01*
X268476Y185955D01*
X268529Y185952D01*
X269147Y185147D01*
X269983Y184506D01*
X270956Y184103D01*
X272000Y183966D01*
X274000D01*
Y188000D01*
Y192034D01*
X272000D01*
X270956Y191897D01*
X269983Y191494D01*
X269147Y190853D01*
X268529Y190048D01*
X268476Y190045D01*
X268029Y190299D01*
Y196939D01*
X268493Y197060D01*
X268855Y196185D01*
X269432Y195432D01*
X270184Y194855D01*
X271060Y194493D01*
X272000Y194369D01*
X277000D01*
X277940Y194493D01*
X278816Y194855D01*
X279568Y195432D01*
X280145Y196185D01*
X280507Y197060D01*
X280631Y198000D01*
X280507Y198940D01*
X280145Y199815D01*
X279568Y200568D01*
X278816Y201145D01*
X277940Y201507D01*
X277000Y201631D01*
X272000D01*
X271060Y201507D01*
X270184Y201145D01*
X269432Y200568D01*
X268855Y199815D01*
X268493Y198940D01*
X268029Y199061D01*
Y206939D01*
X268493Y207060D01*
X268855Y206185D01*
X269432Y205433D01*
X270184Y204855D01*
X271060Y204493D01*
X272000Y204369D01*
X277000D01*
X277940Y204493D01*
X278816Y204855D01*
X279568Y205433D01*
X280145Y206185D01*
X280507Y207060D01*
X280631Y208000D01*
X280507Y208940D01*
X280145Y209816D01*
X279568Y210567D01*
X278816Y211145D01*
X277940Y211507D01*
X277000Y211631D01*
X272000D01*
X271060Y211507D01*
X270184Y211145D01*
X269432Y210567D01*
X268855Y209816D01*
X268493Y208940D01*
X268029Y209061D01*
Y216939D01*
X268493Y217060D01*
X268855Y216184D01*
X269432Y215433D01*
X270184Y214855D01*
X271060Y214493D01*
X272000Y214369D01*
X277000D01*
X277940Y214493D01*
X278816Y214855D01*
X279568Y215433D01*
X280145Y216184D01*
X280507Y217060D01*
X280631Y218000D01*
X280507Y218940D01*
X280145Y219815D01*
X279568Y220567D01*
X278816Y221145D01*
X277940Y221507D01*
X277000Y221631D01*
X272000D01*
X271060Y221507D01*
X270184Y221145D01*
X269432Y220567D01*
X268855Y219815D01*
X268493Y218940D01*
X268029Y219061D01*
Y226939D01*
X268493Y227060D01*
X268855Y226185D01*
X269432Y225432D01*
X270184Y224855D01*
X271060Y224493D01*
X272000Y224369D01*
X277000D01*
X277940Y224493D01*
X278816Y224855D01*
X279568Y225432D01*
X280145Y226185D01*
X280507Y227060D01*
X280631Y228000D01*
X280507Y228940D01*
X280145Y229816D01*
X279568Y230568D01*
X278816Y231145D01*
X277940Y231507D01*
X277000Y231631D01*
X272000D01*
X271060Y231507D01*
X270184Y231145D01*
X269432Y230568D01*
X268855Y229816D01*
X268493Y228940D01*
X268029Y229061D01*
Y236939D01*
X268493Y237060D01*
X268855Y236185D01*
X269432Y235433D01*
X270184Y234855D01*
X271060Y234493D01*
X272000Y234369D01*
X277000D01*
X277940Y234493D01*
X278816Y234855D01*
X279568Y235433D01*
X280145Y236185D01*
X280507Y237060D01*
X280631Y238000D01*
X280507Y238940D01*
X280145Y239815D01*
X279568Y240567D01*
X278816Y241145D01*
X277940Y241507D01*
X277000Y241631D01*
X272000D01*
X271060Y241507D01*
X270184Y241145D01*
X269432Y240567D01*
X268855Y239815D01*
X268493Y238940D01*
X268029Y239061D01*
Y246939D01*
X268493Y247060D01*
X268855Y246184D01*
X269432Y245432D01*
X270184Y244855D01*
X271060Y244493D01*
X272000Y244369D01*
X277000D01*
X277940Y244493D01*
X278816Y244855D01*
X279568Y245432D01*
X280145Y246184D01*
X280507Y247060D01*
X280631Y248000D01*
X280507Y248940D01*
X280145Y249816D01*
X279568Y250568D01*
X278816Y251145D01*
X277940Y251507D01*
X277000Y251631D01*
X272000D01*
X271060Y251507D01*
X270184Y251145D01*
X269432Y250568D01*
X268855Y249816D01*
X268493Y248940D01*
X268029Y249061D01*
Y256939D01*
X268493Y257060D01*
X268855Y256185D01*
X269432Y255433D01*
X270184Y254855D01*
X271060Y254493D01*
X272000Y254369D01*
X277000D01*
X277940Y254493D01*
X278816Y254855D01*
X279568Y255433D01*
X280145Y256185D01*
X280507Y257060D01*
X280631Y258000D01*
X280507Y258940D01*
X280145Y259816D01*
X279568Y260567D01*
X278816Y261145D01*
X277940Y261507D01*
X277000Y261631D01*
X272000D01*
X271060Y261507D01*
X270184Y261145D01*
X269432Y260567D01*
X268855Y259816D01*
X268493Y258940D01*
X268029Y259061D01*
Y266939D01*
X268493Y267060D01*
X268855Y266184D01*
X269432Y265433D01*
X270184Y264855D01*
X271060Y264493D01*
X272000Y264369D01*
X277000D01*
X277940Y264493D01*
X278816Y264855D01*
X279568Y265433D01*
X280145Y266184D01*
X280507Y267060D01*
X280631Y268000D01*
X280507Y268940D01*
X280145Y269815D01*
X279568Y270567D01*
X278816Y271145D01*
X277940Y271507D01*
X277000Y271631D01*
X272000D01*
X271060Y271507D01*
X270184Y271145D01*
X269432Y270567D01*
X268855Y269815D01*
X268493Y268940D01*
X268029Y269061D01*
Y275701D01*
X268476Y275955D01*
X268529Y275952D01*
X269147Y275147D01*
X269983Y274506D01*
X270956Y274103D01*
X272000Y273966D01*
X274000D01*
Y278000D01*
Y282034D01*
X272000D01*
X270956Y281897D01*
X269983Y281494D01*
X269147Y280853D01*
X268529Y280048D01*
X268476Y280045D01*
X268029Y280299D01*
Y286939D01*
X268493Y287060D01*
X268855Y286185D01*
X269432Y285433D01*
X270184Y284855D01*
X271060Y284493D01*
X272000Y284369D01*
X277000D01*
X277940Y284493D01*
X278816Y284855D01*
X279568Y285433D01*
X280145Y286185D01*
X280507Y287060D01*
X280631Y288000D01*
X280507Y288940D01*
X280145Y289815D01*
X279568Y290567D01*
X278816Y291145D01*
X277940Y291507D01*
X277000Y291631D01*
X272000D01*
X271060Y291507D01*
X270184Y291145D01*
X269432Y290567D01*
X268855Y289815D01*
X268493Y288940D01*
X268029Y289061D01*
Y295701D01*
X268476Y295955D01*
X268529Y295952D01*
X269147Y295147D01*
X269983Y294506D01*
X270956Y294103D01*
X272000Y293966D01*
X274000D01*
Y298000D01*
Y302034D01*
X272000D01*
X270956Y301897D01*
X269983Y301494D01*
X269147Y300853D01*
X268529Y300048D01*
X268476Y300045D01*
X268029Y300299D01*
Y306939D01*
X268493Y307060D01*
X268855Y306185D01*
X269432Y305433D01*
X270184Y304855D01*
X271060Y304493D01*
X272000Y304369D01*
X277000D01*
X277940Y304493D01*
X278816Y304855D01*
X279568Y305433D01*
X280145Y306185D01*
X280507Y307060D01*
X280631Y308000D01*
X280507Y308940D01*
X280145Y309816D01*
X279568Y310567D01*
X278816Y311145D01*
X277940Y311507D01*
X277000Y311631D01*
X272000D01*
X271060Y311507D01*
X270184Y311145D01*
X269432Y310567D01*
X268855Y309816D01*
X268493Y308940D01*
X268029Y309061D01*
Y315701D01*
X268476Y315955D01*
X268529Y315952D01*
X269147Y315147D01*
X269983Y314506D01*
X270956Y314103D01*
X272000Y313966D01*
X274000D01*
Y318000D01*
Y322035D01*
X272000D01*
X270956Y321897D01*
X269983Y321494D01*
X269147Y320853D01*
X268529Y320048D01*
X268476Y320045D01*
X268029Y320299D01*
Y324469D01*
X268529Y324568D01*
X268541Y324541D01*
X269000Y324351D01*
X280000D01*
X280459Y324541D01*
X280649Y325000D01*
Y331000D01*
X280459Y331459D01*
X280000Y331649D01*
X269000D01*
X268541Y331459D01*
X268529Y331432D01*
X268029Y331531D01*
Y362971D01*
X470971D01*
Y332155D01*
D02*
G37*
%LPC*%
G36*
X280969Y177500D02*
X275000D01*
Y173966D01*
X277000D01*
X278044Y174103D01*
X279017Y174506D01*
X279853Y175147D01*
X280494Y175983D01*
X280897Y176956D01*
X280969Y177500D01*
D02*
G37*
G36*
X464000D02*
X458031D01*
X458103Y176956D01*
X458506Y175983D01*
X459147Y175147D01*
X459983Y174506D01*
X460956Y174103D01*
X462000Y173966D01*
X464000D01*
Y177500D01*
D02*
G37*
G36*
X359000Y182386D02*
X358278Y182243D01*
X357666Y181834D01*
X357257Y181222D01*
X357114Y180500D01*
X357257Y179778D01*
X357666Y179166D01*
X357980Y178956D01*
Y177000D01*
X358058Y176610D01*
X358279Y176279D01*
X360687Y173871D01*
X360614Y173500D01*
X360757Y172778D01*
X361166Y172166D01*
X361778Y171757D01*
X362500Y171614D01*
X363222Y171757D01*
X363834Y172166D01*
X364243Y172778D01*
X364386Y173500D01*
X364243Y174222D01*
X363834Y174834D01*
X363222Y175243D01*
X362500Y175386D01*
X362129Y175312D01*
X360020Y177422D01*
Y178956D01*
X360334Y179166D01*
X360743Y179778D01*
X360886Y180500D01*
X360743Y181222D01*
X360334Y181834D01*
X359722Y182243D01*
X359000Y182386D01*
D02*
G37*
G36*
X464000Y172035D02*
X462000D01*
X460956Y171897D01*
X459983Y171494D01*
X459147Y170853D01*
X458506Y170017D01*
X458103Y169044D01*
X458031Y168500D01*
X464000D01*
Y172035D01*
D02*
G37*
G36*
Y167500D02*
X458031D01*
X458103Y166956D01*
X458506Y165983D01*
X459147Y165147D01*
X459983Y164506D01*
X460956Y164103D01*
X462000Y163965D01*
X464000D01*
Y167500D01*
D02*
G37*
G36*
X358000Y189386D02*
X357278Y189243D01*
X356666Y188834D01*
X356257Y188222D01*
X356114Y187500D01*
X356257Y186778D01*
X356666Y186166D01*
X357278Y185757D01*
X357306Y185752D01*
X365188Y177871D01*
X365114Y177500D01*
X365257Y176778D01*
X365666Y176166D01*
X366278Y175757D01*
X367000Y175614D01*
X367722Y175757D01*
X368334Y176166D01*
X368743Y176778D01*
X368886Y177500D01*
X368743Y178222D01*
X368334Y178834D01*
X367722Y179243D01*
X367000Y179386D01*
X366629Y179313D01*
X359511Y186431D01*
X359743Y186778D01*
X359886Y187500D01*
X359743Y188222D01*
X359334Y188834D01*
X358722Y189243D01*
X358000Y189386D01*
D02*
G37*
G36*
X277000Y192034D02*
X275000D01*
Y188500D01*
X280969D01*
X280897Y189044D01*
X280494Y190017D01*
X279853Y190853D01*
X279017Y191494D01*
X278044Y191897D01*
X277000Y192034D01*
D02*
G37*
G36*
X352500Y229886D02*
X351778Y229743D01*
X351166Y229334D01*
X350757Y228722D01*
X350614Y228000D01*
X350757Y227278D01*
X351166Y226666D01*
X351778Y226257D01*
X352500Y226114D01*
X353222Y226257D01*
X353834Y226666D01*
X353976Y226878D01*
X374694D01*
X375114Y226500D01*
X375257Y225778D01*
X375666Y225166D01*
X376278Y224757D01*
X377000Y224614D01*
X377722Y224757D01*
X378334Y225166D01*
X378743Y225778D01*
X378886Y226500D01*
X378743Y227222D01*
X378334Y227834D01*
X377722Y228243D01*
X377000Y228386D01*
X376750Y228337D01*
X376293Y228793D01*
X375929Y229036D01*
X375500Y229122D01*
X375500Y229121D01*
X353976D01*
X353834Y229334D01*
X353222Y229743D01*
X352500Y229886D01*
D02*
G37*
G36*
X280969Y187500D02*
X275000D01*
Y183966D01*
X277000D01*
X278044Y184103D01*
X279017Y184506D01*
X279853Y185147D01*
X280494Y185983D01*
X280897Y186956D01*
X280969Y187500D01*
D02*
G37*
G36*
X277000Y182035D02*
X275000D01*
Y178500D01*
X280969D01*
X280897Y179044D01*
X280494Y180017D01*
X279853Y180853D01*
X279017Y181494D01*
X278044Y181897D01*
X277000Y182035D01*
D02*
G37*
G36*
X464000D02*
X462000D01*
X460956Y181897D01*
X459983Y181494D01*
X459147Y180853D01*
X458506Y180017D01*
X458103Y179044D01*
X458031Y178500D01*
X464000D01*
Y182035D01*
D02*
G37*
G36*
X439500Y170386D02*
X438778Y170243D01*
X438166Y169834D01*
X437757Y169222D01*
X437614Y168500D01*
Y167781D01*
X432166Y162334D01*
X431757Y161722D01*
X431614Y161000D01*
X431757Y160278D01*
X432166Y159666D01*
X432778Y159257D01*
X433500Y159114D01*
X434222Y159257D01*
X434834Y159666D01*
X440834Y165666D01*
X441243Y166278D01*
X441386Y167000D01*
Y168500D01*
X441243Y169222D01*
X440834Y169834D01*
X440222Y170243D01*
X439500Y170386D01*
D02*
G37*
G36*
X277500Y124520D02*
X275000D01*
Y118500D01*
X278520D01*
Y123500D01*
X278442Y123890D01*
X278221Y124221D01*
X277890Y124442D01*
X277500Y124520D01*
D02*
G37*
G36*
X355000Y124469D02*
Y118500D01*
X358535D01*
Y120500D01*
X358397Y121544D01*
X357994Y122517D01*
X357353Y123353D01*
X356517Y123994D01*
X355544Y124397D01*
X355000Y124469D01*
D02*
G37*
G36*
X274000Y124520D02*
X271500D01*
X271110Y124442D01*
X270779Y124221D01*
X270558Y123890D01*
X270480Y123500D01*
Y118500D01*
X274000D01*
Y124520D01*
D02*
G37*
G36*
X354000Y124469D02*
X353456Y124397D01*
X352483Y123994D01*
X351647Y123353D01*
X351006Y122517D01*
X350603Y121544D01*
X350465Y120500D01*
Y118500D01*
X354000D01*
Y124469D01*
D02*
G37*
G36*
X364000D02*
X363456Y124397D01*
X362483Y123994D01*
X361647Y123353D01*
X361006Y122517D01*
X360603Y121544D01*
X360466Y120500D01*
Y118500D01*
X364000D01*
Y124469D01*
D02*
G37*
G36*
X365000D02*
Y118500D01*
X368534D01*
Y120500D01*
X368397Y121544D01*
X367994Y122517D01*
X367353Y123353D01*
X366517Y123994D01*
X365544Y124397D01*
X365000Y124469D01*
D02*
G37*
G36*
X364500Y161141D02*
X362444Y160979D01*
X360439Y160497D01*
X358534Y159708D01*
X356776Y158631D01*
X355208Y157292D01*
X353869Y155724D01*
X352792Y153966D01*
X352003Y152061D01*
X351521Y150056D01*
X351360Y148000D01*
X351521Y145944D01*
X352003Y143939D01*
X352792Y142034D01*
X353869Y140276D01*
X355208Y138708D01*
X356776Y137369D01*
X358534Y136292D01*
X360439Y135503D01*
X362444Y135021D01*
X364500Y134860D01*
X366556Y135021D01*
X368561Y135503D01*
X370466Y136292D01*
X372224Y137369D01*
X373792Y138708D01*
X375131Y140276D01*
X376208Y142034D01*
X376997Y143939D01*
X377479Y145944D01*
X377641Y148000D01*
X377479Y150056D01*
X376997Y152061D01*
X376208Y153966D01*
X375131Y155724D01*
X373792Y157292D01*
X372224Y158631D01*
X370466Y159708D01*
X368561Y160497D01*
X366556Y160979D01*
X364500Y161141D01*
D02*
G37*
G36*
X344500Y166386D02*
X343778Y166243D01*
X343166Y165834D01*
X342757Y165222D01*
X342614Y164500D01*
X342757Y163778D01*
X343166Y163166D01*
X343378Y163024D01*
Y151976D01*
X343166Y151834D01*
X342757Y151222D01*
X342614Y150500D01*
X342757Y149778D01*
X343166Y149166D01*
X343778Y148757D01*
X344500Y148614D01*
X345222Y148757D01*
X345834Y149166D01*
X346243Y149778D01*
X346386Y150500D01*
X346243Y151222D01*
X345834Y151834D01*
X345621Y151976D01*
Y163024D01*
X345834Y163166D01*
X346243Y163778D01*
X346386Y164500D01*
X346243Y165222D01*
X345834Y165834D01*
X345222Y166243D01*
X344500Y166386D01*
D02*
G37*
G36*
X325000Y144386D02*
X321500D01*
X320778Y144243D01*
X320166Y143834D01*
X319757Y143222D01*
X319614Y142500D01*
X319757Y141778D01*
X320166Y141166D01*
X320778Y140757D01*
X321500Y140614D01*
X324219D01*
X329666Y135166D01*
X330278Y134757D01*
X331000Y134614D01*
X331722Y134757D01*
X332334Y135166D01*
X332743Y135778D01*
X332886Y136500D01*
X332743Y137222D01*
X332334Y137834D01*
X326334Y143834D01*
X325722Y144243D01*
X325000Y144386D01*
D02*
G37*
G36*
X404500Y134886D02*
X385000D01*
X384278Y134743D01*
X383666Y134334D01*
X383257Y133722D01*
X383114Y133000D01*
X383257Y132278D01*
X383666Y131666D01*
X384278Y131257D01*
X385000Y131114D01*
X403745D01*
X404278Y130757D01*
X405000Y130614D01*
X405722Y130757D01*
X406334Y131166D01*
X406743Y131778D01*
X406886Y132500D01*
X406743Y133222D01*
X406334Y133834D01*
X405834Y134334D01*
X405222Y134743D01*
X404500Y134886D01*
D02*
G37*
G36*
X347000D02*
X341500D01*
X340778Y134743D01*
X340166Y134334D01*
X339757Y133722D01*
X339614Y133000D01*
X339757Y132278D01*
X340166Y131666D01*
X340778Y131257D01*
X341500Y131114D01*
X347000D01*
X347722Y131257D01*
X348334Y131666D01*
X348743Y132278D01*
X348886Y133000D01*
X348743Y133722D01*
X348334Y134334D01*
X347722Y134743D01*
X347000Y134886D01*
D02*
G37*
G36*
X308500Y229886D02*
X307778Y229743D01*
X307166Y229334D01*
X307024Y229121D01*
X295476D01*
X295334Y229334D01*
X294722Y229743D01*
X294000Y229886D01*
X293278Y229743D01*
X292666Y229334D01*
X292257Y228722D01*
X292114Y228000D01*
X292257Y227278D01*
X292666Y226666D01*
X293278Y226257D01*
X294000Y226114D01*
X294722Y226257D01*
X295334Y226666D01*
X295476Y226878D01*
X307024D01*
X307166Y226666D01*
X307778Y226257D01*
X308500Y226114D01*
X309222Y226257D01*
X309834Y226666D01*
X310243Y227278D01*
X310386Y228000D01*
X310243Y228722D01*
X309834Y229334D01*
X309222Y229743D01*
X308500Y229886D01*
D02*
G37*
G36*
X277000Y302034D02*
X275000D01*
Y298500D01*
X280969D01*
X280897Y299044D01*
X280494Y300017D01*
X279853Y300853D01*
X279017Y301494D01*
X278044Y301897D01*
X277000Y302034D01*
D02*
G37*
G36*
X464000D02*
X462000D01*
X460956Y301897D01*
X459983Y301494D01*
X459147Y300853D01*
X458506Y300017D01*
X458103Y299044D01*
X458031Y298500D01*
X464000D01*
Y302034D01*
D02*
G37*
G36*
X359500Y296386D02*
X358778Y296243D01*
X358166Y295834D01*
X358024Y295621D01*
X351476D01*
X351334Y295834D01*
X350722Y296243D01*
X350000Y296386D01*
X349278Y296243D01*
X348666Y295834D01*
X348257Y295222D01*
X348114Y294500D01*
X348257Y293778D01*
X348666Y293166D01*
X349278Y292757D01*
X350000Y292614D01*
X350722Y292757D01*
X351334Y293166D01*
X351476Y293378D01*
X358024D01*
X358166Y293166D01*
X358778Y292757D01*
X359500Y292614D01*
X360222Y292757D01*
X360834Y293166D01*
X361243Y293778D01*
X361386Y294500D01*
X361243Y295222D01*
X360834Y295834D01*
X360222Y296243D01*
X359500Y296386D01*
D02*
G37*
G36*
X280969Y297500D02*
X275000D01*
Y293966D01*
X277000D01*
X278044Y294103D01*
X279017Y294506D01*
X279853Y295147D01*
X280494Y295983D01*
X280897Y296956D01*
X280969Y297500D01*
D02*
G37*
G36*
X464000D02*
X458031D01*
X458103Y296956D01*
X458506Y295983D01*
X459147Y295147D01*
X459983Y294506D01*
X460956Y294103D01*
X462000Y293966D01*
X464000D01*
Y297500D01*
D02*
G37*
G36*
X280969Y317500D02*
X275000D01*
Y313966D01*
X277000D01*
X278044Y314103D01*
X279017Y314506D01*
X279853Y315147D01*
X280494Y315983D01*
X280897Y316956D01*
X280969Y317500D01*
D02*
G37*
G36*
X294500Y361140D02*
X292444Y360979D01*
X290439Y360497D01*
X288534Y359708D01*
X286776Y358631D01*
X285208Y357292D01*
X283869Y355724D01*
X282792Y353966D01*
X282003Y352061D01*
X281521Y350056D01*
X281360Y348000D01*
X281521Y345944D01*
X282003Y343939D01*
X282792Y342034D01*
X283869Y340276D01*
X285208Y338708D01*
X286776Y337369D01*
X288534Y336292D01*
X290439Y335503D01*
X292444Y335021D01*
X294500Y334859D01*
X296556Y335021D01*
X298561Y335503D01*
X300466Y336292D01*
X302224Y337369D01*
X303792Y338708D01*
X305131Y340276D01*
X306208Y342034D01*
X306997Y343939D01*
X307479Y345944D01*
X307641Y348000D01*
X307479Y350056D01*
X306997Y352061D01*
X306208Y353966D01*
X305131Y355724D01*
X303792Y357292D01*
X302224Y358631D01*
X300466Y359708D01*
X298561Y360497D01*
X296556Y360979D01*
X294500Y361140D01*
D02*
G37*
G36*
X444500D02*
X442444Y360979D01*
X440439Y360497D01*
X438534Y359708D01*
X436776Y358631D01*
X435208Y357292D01*
X433869Y355724D01*
X432792Y353966D01*
X432003Y352061D01*
X431521Y350056D01*
X431359Y348000D01*
X431521Y345944D01*
X432003Y343939D01*
X432792Y342034D01*
X433869Y340276D01*
X435208Y338708D01*
X436776Y337369D01*
X438534Y336292D01*
X440439Y335503D01*
X442444Y335021D01*
X444500Y334859D01*
X446556Y335021D01*
X448561Y335503D01*
X450466Y336292D01*
X452224Y337369D01*
X453792Y338708D01*
X455131Y340276D01*
X456208Y342034D01*
X456997Y343939D01*
X457479Y345944D01*
X457641Y348000D01*
X457479Y350056D01*
X456997Y352061D01*
X456208Y353966D01*
X455131Y355724D01*
X453792Y357292D01*
X452224Y358631D01*
X450466Y359708D01*
X448561Y360497D01*
X446556Y360979D01*
X444500Y361140D01*
D02*
G37*
G36*
X464000Y332020D02*
X459000D01*
X458610Y331942D01*
X458279Y331721D01*
X458058Y331390D01*
X457980Y331000D01*
Y328500D01*
X464000D01*
Y332020D01*
D02*
G37*
G36*
X277000Y322035D02*
X275000D01*
Y318500D01*
X280969D01*
X280897Y319044D01*
X280494Y320017D01*
X279853Y320853D01*
X279017Y321494D01*
X278044Y321897D01*
X277000Y322035D01*
D02*
G37*
G36*
X464000Y327500D02*
X457980D01*
Y325000D01*
X458058Y324610D01*
X458279Y324279D01*
X458610Y324058D01*
X459000Y323980D01*
X464000D01*
Y327500D01*
D02*
G37*
G36*
X307500Y282886D02*
X306778Y282743D01*
X306166Y282334D01*
X305757Y281722D01*
X305614Y281000D01*
X305687Y280629D01*
X303029Y277971D01*
X302808Y277640D01*
X302730Y277250D01*
Y274933D01*
X302289Y274697D01*
X302222Y274743D01*
X301500Y274886D01*
X300778Y274743D01*
X300166Y274334D01*
X300051Y274161D01*
X299449D01*
X299334Y274334D01*
X298722Y274743D01*
X298000Y274886D01*
X297278Y274743D01*
X296666Y274334D01*
X296269Y273739D01*
X296190Y273727D01*
X295755Y273760D01*
X295743Y273822D01*
X295334Y274434D01*
X294722Y274843D01*
X294000Y274986D01*
X293278Y274843D01*
X292666Y274434D01*
X292257Y273822D01*
X292114Y273100D01*
X292257Y272378D01*
X292666Y271766D01*
X293278Y271357D01*
X293980Y271218D01*
Y262544D01*
X293666Y262334D01*
X293257Y261722D01*
X293114Y261000D01*
X293257Y260278D01*
X293666Y259666D01*
X294278Y259257D01*
X295000Y259114D01*
X295722Y259257D01*
X296334Y259666D01*
X296743Y260278D01*
X296781Y260473D01*
X297158Y260629D01*
X297323Y260632D01*
X298000Y260498D01*
X298722Y260641D01*
X298789Y260686D01*
X299230Y260451D01*
Y259711D01*
X298666Y259334D01*
X298257Y258722D01*
X298114Y258000D01*
X298257Y257278D01*
X298666Y256666D01*
X299278Y256257D01*
X300000Y256114D01*
X300722Y256257D01*
X301334Y256666D01*
X301743Y257278D01*
X301886Y258000D01*
X301743Y258722D01*
X301717Y258760D01*
X302018Y259210D01*
X302500Y259114D01*
X303222Y259257D01*
X303834Y259666D01*
X304243Y260278D01*
X304386Y261000D01*
X304312Y261371D01*
X304471Y261529D01*
X304692Y261860D01*
X304770Y262250D01*
Y276828D01*
X307129Y279187D01*
X307500Y279114D01*
X308222Y279257D01*
X308834Y279666D01*
X309243Y280278D01*
X309386Y281000D01*
X309243Y281722D01*
X308834Y282334D01*
X308222Y282743D01*
X307500Y282886D01*
D02*
G37*
G36*
X464000Y247500D02*
X458031D01*
X458103Y246956D01*
X458506Y245983D01*
X459147Y245147D01*
X459983Y244506D01*
X460956Y244103D01*
X462000Y243966D01*
X464000D01*
Y247500D01*
D02*
G37*
G36*
X414500Y247386D02*
X413778Y247243D01*
X413166Y246834D01*
X413024Y246621D01*
X405976D01*
X405834Y246834D01*
X405222Y247243D01*
X404500Y247386D01*
X403778Y247243D01*
X403166Y246834D01*
X402757Y246222D01*
X402614Y245500D01*
X402757Y244778D01*
X403166Y244166D01*
X403778Y243757D01*
X404500Y243614D01*
X405222Y243757D01*
X405834Y244166D01*
X405976Y244378D01*
X413024D01*
X413166Y244166D01*
X413778Y243757D01*
X414500Y243614D01*
X415222Y243757D01*
X415834Y244166D01*
X416243Y244778D01*
X416386Y245500D01*
X416243Y246222D01*
X415834Y246834D01*
X415222Y247243D01*
X414500Y247386D01*
D02*
G37*
G36*
X464000Y242035D02*
X462000D01*
X460956Y241897D01*
X459983Y241494D01*
X459147Y240853D01*
X458506Y240017D01*
X458103Y239044D01*
X458031Y238500D01*
X464000D01*
Y242035D01*
D02*
G37*
G36*
X367500Y257386D02*
X366778Y257243D01*
X366166Y256834D01*
X365757Y256222D01*
X365614Y255500D01*
X365757Y254778D01*
X366166Y254166D01*
X366378Y254024D01*
Y235976D01*
X366166Y235834D01*
X365757Y235222D01*
X365614Y234500D01*
X365757Y233778D01*
X366166Y233166D01*
X366778Y232757D01*
X367500Y232614D01*
X368222Y232757D01*
X368834Y233166D01*
X369243Y233778D01*
X369386Y234500D01*
X369243Y235222D01*
X368834Y235834D01*
X368621Y235976D01*
Y254024D01*
X368834Y254166D01*
X369243Y254778D01*
X369386Y255500D01*
X369243Y256222D01*
X368834Y256834D01*
X368222Y257243D01*
X367500Y257386D01*
D02*
G37*
G36*
X464000Y237500D02*
X458031D01*
X458103Y236956D01*
X458506Y235983D01*
X459147Y235147D01*
X459983Y234506D01*
X460956Y234103D01*
X462000Y233965D01*
X464000D01*
Y237500D01*
D02*
G37*
G36*
Y252034D02*
X462000D01*
X460956Y251897D01*
X459983Y251494D01*
X459147Y250853D01*
X458506Y250017D01*
X458103Y249044D01*
X458031Y248500D01*
X464000D01*
Y252034D01*
D02*
G37*
G36*
X280969Y277500D02*
X275000D01*
Y273966D01*
X277000D01*
X278044Y274103D01*
X279017Y274506D01*
X279853Y275147D01*
X280494Y275983D01*
X280897Y276956D01*
X280969Y277500D01*
D02*
G37*
G36*
X277000Y282034D02*
X275000D01*
Y278500D01*
X280969D01*
X280897Y279044D01*
X280494Y280017D01*
X279853Y280853D01*
X279017Y281494D01*
X278044Y281897D01*
X277000Y282034D01*
D02*
G37*
G36*
X464000Y272035D02*
X462000D01*
X460956Y271897D01*
X459983Y271494D01*
X459147Y270853D01*
X458506Y270017D01*
X458103Y269044D01*
X458031Y268500D01*
X464000D01*
Y272035D01*
D02*
G37*
G36*
Y267500D02*
X458031D01*
X458103Y266956D01*
X458506Y265983D01*
X459147Y265147D01*
X459983Y264506D01*
X460956Y264103D01*
X462000Y263966D01*
X464000D01*
Y267500D01*
D02*
G37*
G36*
X357000Y268886D02*
X356278Y268743D01*
X355666Y268334D01*
X355257Y267722D01*
X355114Y267000D01*
X355257Y266278D01*
X355666Y265666D01*
X356278Y265257D01*
X357000Y265114D01*
X357722Y265257D01*
X357903Y265378D01*
X375524D01*
X375666Y265166D01*
X376278Y264757D01*
X377000Y264614D01*
X377722Y264757D01*
X378334Y265166D01*
X378743Y265778D01*
X378886Y266500D01*
X378743Y267222D01*
X378334Y267834D01*
X377722Y268243D01*
X377000Y268386D01*
X376278Y268243D01*
X375666Y267834D01*
X375524Y267621D01*
X358763D01*
X358743Y267722D01*
X358334Y268334D01*
X357722Y268743D01*
X357000Y268886D01*
D02*
G37*
%LPD*%
D17*
X384000Y137000D02*
Y170000D01*
X367500Y234500D02*
Y255500D01*
X350000Y294500D02*
X359500D01*
X357500Y266500D02*
X377000D01*
X357000Y267000D02*
X357500Y266500D01*
X294000Y228000D02*
X308500D01*
X404500Y245500D02*
X414500D01*
X375500Y228000D02*
X377000Y226500D01*
X352500Y228000D02*
X375500D01*
X344500Y150500D02*
Y164500D01*
X374500Y118000D02*
Y127500D01*
X384000Y137000D01*
X314500Y118000D02*
Y143000D01*
X266500Y110000D02*
X472500D01*
Y364000D01*
X266500D02*
X472500D01*
X266500Y110000D02*
Y364000D01*
D18*
X294000Y273000D02*
Y273100D01*
Y273000D02*
X295000Y272000D01*
Y261000D02*
Y272000D01*
X359000Y177000D02*
Y180500D01*
X358000Y186500D02*
X367000Y177500D01*
X358000Y186500D02*
Y187500D01*
X304500Y118000D02*
Y133000D01*
X306500Y135000D01*
X359000Y177000D02*
X362500Y173500D01*
X298000Y273000D02*
X298500Y272500D01*
X298000Y272000D02*
X298500Y272500D01*
X298000Y262384D02*
Y272000D01*
X301500Y263182D02*
Y273000D01*
X300250Y261932D02*
X301500Y263182D01*
X300250Y258250D02*
Y261932D01*
X300000Y258000D02*
X300250Y258250D01*
X302500Y261000D02*
X303750Y262250D01*
Y277250D01*
X307500Y281000D01*
D20*
X385000Y133000D02*
X404500D01*
X405000Y132500D01*
X321500Y142500D02*
X325000D01*
X331000Y136500D01*
X341500Y133000D02*
X347000D01*
X433500Y161000D02*
X439500Y167000D01*
Y168500D01*
D21*
X364500Y148000D02*
D03*
X294500Y348000D02*
D03*
X444500D02*
D03*
D22*
X274500Y328000D02*
D03*
X464500D02*
D03*
D23*
X274500Y318000D02*
D03*
Y308000D02*
D03*
Y298000D02*
D03*
Y288000D02*
D03*
Y278000D02*
D03*
Y268000D02*
D03*
Y258000D02*
D03*
Y248000D02*
D03*
Y238000D02*
D03*
Y228000D02*
D03*
Y218000D02*
D03*
Y208000D02*
D03*
Y198000D02*
D03*
Y188000D02*
D03*
Y178000D02*
D03*
Y168000D02*
D03*
Y158000D02*
D03*
Y148000D02*
D03*
Y138000D02*
D03*
X464500Y318000D02*
D03*
Y308000D02*
D03*
Y298000D02*
D03*
Y288000D02*
D03*
Y278000D02*
D03*
Y268000D02*
D03*
Y258000D02*
D03*
Y248000D02*
D03*
Y238000D02*
D03*
Y228000D02*
D03*
Y218000D02*
D03*
Y208000D02*
D03*
Y198000D02*
D03*
Y188000D02*
D03*
Y178000D02*
D03*
Y168000D02*
D03*
Y158000D02*
D03*
Y148000D02*
D03*
Y138000D02*
D03*
D24*
X274500Y118000D02*
D03*
D25*
X284500D02*
D03*
X294500D02*
D03*
X304500D02*
D03*
X314500D02*
D03*
X324500D02*
D03*
X334500D02*
D03*
X344500D02*
D03*
X354500D02*
D03*
X364500D02*
D03*
X374500D02*
D03*
X384500D02*
D03*
X394500D02*
D03*
X404500D02*
D03*
X414500D02*
D03*
X424500D02*
D03*
X434500D02*
D03*
X444500D02*
D03*
X454500D02*
D03*
X464500D02*
D03*
D26*
X294000Y273100D02*
D03*
X295000Y261000D02*
D03*
X384000Y170000D02*
D03*
X367500Y234500D02*
D03*
Y255500D02*
D03*
X377500Y233000D02*
D03*
X401500Y271000D02*
D03*
X382000Y294500D02*
D03*
X359500D02*
D03*
X350000D02*
D03*
X390000Y301000D02*
D03*
X419500Y275000D02*
D03*
X322000Y294500D02*
D03*
Y253000D02*
D03*
X339000Y232000D02*
D03*
X374000Y194000D02*
D03*
X383000Y217500D02*
D03*
X377000Y266500D02*
D03*
X357000Y267000D02*
D03*
X308500Y228000D02*
D03*
X377000Y226500D02*
D03*
X404500Y245500D02*
D03*
X414500D02*
D03*
X352500Y228000D02*
D03*
X359000Y180500D02*
D03*
X367000Y177500D02*
D03*
X358000Y187500D02*
D03*
X306500Y135000D02*
D03*
X344500Y150500D02*
D03*
Y164500D02*
D03*
X362500Y173500D02*
D03*
X433500Y161000D02*
D03*
X385000Y133000D02*
D03*
X405000Y132500D02*
D03*
X314500Y143000D02*
D03*
X321500Y142500D02*
D03*
X331000Y136500D02*
D03*
X341500Y133000D02*
D03*
X347000D02*
D03*
X410500Y159000D02*
D03*
X443000Y181500D02*
D03*
X432000Y296500D02*
D03*
X440000D02*
D03*
X446500Y302000D02*
D03*
X426000D02*
D03*
X303500Y159000D02*
D03*
X439500Y168500D02*
D03*
X307500Y281000D02*
D03*
X298000Y273000D02*
D03*
X301500D02*
D03*
X300000Y258000D02*
D03*
X302500Y261000D02*
D03*
X298000Y262384D02*
D03*
X294000Y228000D02*
D03*
M02*
