G04 Layer_Color=16711935*
%FSLAX25Y25*%
%MOIN*%
G70*
G01*
G75*
%ADD22C,0.01000*%
%ADD53R,0.10308X0.20800*%
%ADD56C,0.25800*%
%ADD57O,0.11800X0.06800*%
%ADD58R,0.11800X0.06800*%
%ADD59O,0.06800X0.11800*%
%ADD60R,0.06800X0.11800*%
%ADD61C,0.03200*%
%ADD62C,0.04800*%
D22*
X99500Y406000D02*
X100500D01*
X136500Y370000D02*
X306500D01*
Y362500D02*
Y370000D01*
X99500Y100500D02*
Y362500D01*
X306500Y100500D02*
Y362500D01*
X99500Y100500D02*
X306500D01*
X99500Y370000D02*
X136500D01*
X99500Y362500D02*
Y370000D01*
D53*
X180246Y359500D02*
D03*
X214754D02*
D03*
D56*
X278500Y339000D02*
D03*
X128500D02*
D03*
X198500Y139000D02*
D03*
D57*
X298500Y129000D02*
D03*
Y139000D02*
D03*
Y149000D02*
D03*
Y159000D02*
D03*
Y169000D02*
D03*
Y179000D02*
D03*
Y189000D02*
D03*
Y199000D02*
D03*
Y209000D02*
D03*
Y219000D02*
D03*
Y229000D02*
D03*
Y239000D02*
D03*
Y249000D02*
D03*
Y259000D02*
D03*
Y269000D02*
D03*
Y279000D02*
D03*
Y289000D02*
D03*
Y299000D02*
D03*
Y309000D02*
D03*
X108500Y129000D02*
D03*
Y139000D02*
D03*
Y149000D02*
D03*
Y159000D02*
D03*
Y169000D02*
D03*
Y179000D02*
D03*
Y189000D02*
D03*
Y199000D02*
D03*
Y209000D02*
D03*
Y219000D02*
D03*
Y229000D02*
D03*
Y239000D02*
D03*
Y249000D02*
D03*
Y259000D02*
D03*
Y269000D02*
D03*
Y279000D02*
D03*
Y289000D02*
D03*
Y299000D02*
D03*
Y309000D02*
D03*
D58*
X298500Y319000D02*
D03*
X108500D02*
D03*
D59*
X298500Y109000D02*
D03*
X288500D02*
D03*
X278500D02*
D03*
X268500D02*
D03*
X258500D02*
D03*
X248500D02*
D03*
X238500D02*
D03*
X228500D02*
D03*
X218500D02*
D03*
X208500D02*
D03*
X198500D02*
D03*
X188500D02*
D03*
X178500D02*
D03*
X168500D02*
D03*
X158500D02*
D03*
X148500D02*
D03*
X138500D02*
D03*
X128500D02*
D03*
X118500D02*
D03*
D60*
X108500D02*
D03*
D61*
X215500Y210000D02*
D03*
X180500Y195000D02*
D03*
X211500Y281000D02*
D03*
X207000Y281500D02*
D03*
X204500Y285500D02*
D03*
X202000Y281500D02*
D03*
X154000Y206500D02*
D03*
X161500D02*
D03*
X139500Y299000D02*
D03*
X217000Y255500D02*
D03*
X204000Y237000D02*
D03*
X207500D02*
D03*
X177500Y278500D02*
D03*
X192000Y279500D02*
D03*
X123000Y242500D02*
D03*
X181500Y284000D02*
D03*
X158500Y270500D02*
D03*
X141000Y182500D02*
D03*
X125000Y175000D02*
D03*
X178000Y218000D02*
D03*
X256500Y303500D02*
D03*
X176000D02*
D03*
X129000Y161000D02*
D03*
D62*
X157500Y240000D02*
D03*
Y247500D02*
D03*
Y255000D02*
D03*
X150000D02*
D03*
Y247500D02*
D03*
Y240000D02*
D03*
X182000Y234500D02*
D03*
X184500Y228000D02*
D03*
X185500Y281500D02*
D03*
X182000Y276500D02*
D03*
X191500Y286000D02*
D03*
M02*
