G04 Layer_Color=8421504*
%FSLAX25Y25*%
%MOIN*%
G70*
G01*
G75*
G04:AMPARAMS|DCode=10|XSize=39.37mil|YSize=35.43mil|CornerRadius=4.43mil|HoleSize=0mil|Usage=FLASHONLY|Rotation=270.000|XOffset=0mil|YOffset=0mil|HoleType=Round|Shape=RoundedRectangle|*
%AMROUNDEDRECTD10*
21,1,0.03937,0.02658,0,0,270.0*
21,1,0.03051,0.03543,0,0,270.0*
1,1,0.00886,-0.01329,-0.01526*
1,1,0.00886,-0.01329,0.01526*
1,1,0.00886,0.01329,0.01526*
1,1,0.00886,0.01329,-0.01526*
%
%ADD10ROUNDEDRECTD10*%
G04:AMPARAMS|DCode=11|XSize=39.37mil|YSize=35.43mil|CornerRadius=4.43mil|HoleSize=0mil|Usage=FLASHONLY|Rotation=0.000|XOffset=0mil|YOffset=0mil|HoleType=Round|Shape=RoundedRectangle|*
%AMROUNDEDRECTD11*
21,1,0.03937,0.02658,0,0,0.0*
21,1,0.03051,0.03543,0,0,0.0*
1,1,0.00886,0.01526,-0.01329*
1,1,0.00886,-0.01526,-0.01329*
1,1,0.00886,-0.01526,0.01329*
1,1,0.00886,0.01526,0.01329*
%
%ADD11ROUNDEDRECTD11*%
%ADD12R,0.16142X0.16142*%
%ADD13O,0.04724X0.00984*%
%ADD14O,0.00984X0.04724*%
%ADD15O,0.08661X0.02362*%
%ADD16R,0.09508X0.20000*%
%ADD17R,0.09016X0.20000*%
%ADD18R,0.02165X0.00984*%
%ADD22C,0.01000*%
D10*
X161346Y201000D02*
D03*
X154654D02*
D03*
X200847Y227500D02*
D03*
X194153D02*
D03*
X161346Y154000D02*
D03*
X154654D02*
D03*
X222654Y260000D02*
D03*
X229346D02*
D03*
X171846Y263000D02*
D03*
X165154D02*
D03*
X222654Y266500D02*
D03*
X229346D02*
D03*
X134346Y313500D02*
D03*
X127654D02*
D03*
X163654Y308500D02*
D03*
X170346D02*
D03*
X163654Y301000D02*
D03*
X170346D02*
D03*
X163654Y293000D02*
D03*
X170347D02*
D03*
X133346Y299000D02*
D03*
X126654D02*
D03*
X154654Y192000D02*
D03*
X161346D02*
D03*
X143347Y199000D02*
D03*
X136653D02*
D03*
X143347Y209000D02*
D03*
X136653D02*
D03*
D11*
X131500Y242693D02*
D03*
Y236000D02*
D03*
X253000Y237154D02*
D03*
Y243847D02*
D03*
X197500Y337346D02*
D03*
Y330654D02*
D03*
X200000Y307846D02*
D03*
Y301154D02*
D03*
X194000Y307846D02*
D03*
Y301154D02*
D03*
X241000Y149154D02*
D03*
Y155846D02*
D03*
X170000Y279154D02*
D03*
Y285846D02*
D03*
X129000Y155847D02*
D03*
Y149153D02*
D03*
X131000Y176154D02*
D03*
Y182846D02*
D03*
X154500Y220153D02*
D03*
Y226847D02*
D03*
X145000Y226847D02*
D03*
Y220153D02*
D03*
D12*
X197110Y257925D02*
D03*
D13*
X211185Y268752D02*
D03*
Y266783D02*
D03*
Y264815D02*
D03*
Y262846D02*
D03*
Y260878D02*
D03*
Y258910D02*
D03*
Y256941D02*
D03*
Y254972D02*
D03*
Y253004D02*
D03*
Y251035D02*
D03*
Y249067D02*
D03*
Y247098D02*
D03*
X183035D02*
D03*
Y249067D02*
D03*
Y251035D02*
D03*
Y253004D02*
D03*
Y254972D02*
D03*
Y256941D02*
D03*
Y258910D02*
D03*
Y260878D02*
D03*
Y262846D02*
D03*
Y264815D02*
D03*
Y266783D02*
D03*
Y268752D02*
D03*
D14*
X207937Y243850D02*
D03*
X205968D02*
D03*
X204000D02*
D03*
X202031D02*
D03*
X200063D02*
D03*
X198094D02*
D03*
X196126D02*
D03*
X194158D02*
D03*
X192189D02*
D03*
X190220D02*
D03*
X188252D02*
D03*
X186284D02*
D03*
Y272000D02*
D03*
X188252D02*
D03*
X190220D02*
D03*
X192189D02*
D03*
X194158D02*
D03*
X196126D02*
D03*
X198094D02*
D03*
X200063D02*
D03*
X202031D02*
D03*
X204000D02*
D03*
X205968D02*
D03*
X207937D02*
D03*
D15*
X188551Y215000D02*
D03*
Y210000D02*
D03*
Y205000D02*
D03*
Y200000D02*
D03*
Y195000D02*
D03*
Y190000D02*
D03*
Y185000D02*
D03*
X207449Y215000D02*
D03*
Y210000D02*
D03*
Y205000D02*
D03*
Y200000D02*
D03*
Y195000D02*
D03*
Y190000D02*
D03*
Y185000D02*
D03*
X167449Y166500D02*
D03*
Y171500D02*
D03*
Y176500D02*
D03*
Y181500D02*
D03*
X148551Y166500D02*
D03*
Y171500D02*
D03*
Y176500D02*
D03*
Y181500D02*
D03*
D16*
X180246Y359500D02*
D03*
X214754D02*
D03*
D17*
X197500D02*
D03*
D18*
X199000Y321437D02*
D03*
Y319469D02*
D03*
Y317500D02*
D03*
X195654Y321437D02*
D03*
Y319469D02*
D03*
Y317500D02*
D03*
D22*
X99500Y406000D02*
X100500D01*
X136500Y370000D02*
X306500D01*
Y362500D02*
Y370000D01*
X99500Y100500D02*
Y362500D01*
X306500Y100500D02*
Y362500D01*
X99500Y100500D02*
X306500D01*
X99500Y370000D02*
X136500D01*
X99500Y362500D02*
Y370000D01*
M02*
