G04 Layer_Physical_Order=3*
G04 Layer_Color=128*
%FSLAX25Y25*%
%MOIN*%
G70*
G01*
G75*
%ADD22C,0.01000*%
%ADD34C,0.04000*%
%ADD35C,0.17400*%
%ADD36C,0.07500*%
G04:AMPARAMS|DCode=37|XSize=95mil|YSize=95mil|CornerRadius=0mil|HoleSize=0mil|Usage=FLASHONLY|Rotation=0.000|XOffset=0mil|YOffset=0mil|HoleType=Round|Shape=Relief|Width=10mil|Gap=10mil|Entries=4|*
%AMTHD37*
7,0,0,0.09500,0.07500,0.01000,45*
%
%ADD37THD37*%
%ADD38C,0.05200*%
%ADD39C,0.06000*%
%ADD40C,0.05181*%
D22*
X99500Y406000D02*
X100500D01*
X136500Y370000D02*
X306500D01*
Y362500D02*
Y370000D01*
X99500Y100500D02*
Y362500D01*
X306500Y100500D02*
Y362500D01*
X99500Y100500D02*
X306500D01*
X99500Y370000D02*
X136500D01*
X99500Y362500D02*
Y370000D01*
D34*
Y100500D02*
X306500D01*
Y370000D01*
X99500D02*
X306500D01*
X99500Y100500D02*
Y370000D01*
D35*
X278500Y339000D02*
D03*
X128500D02*
D03*
X198500Y139000D02*
D03*
D36*
X298500Y129000D02*
D03*
Y139000D02*
D03*
Y149000D02*
D03*
Y159000D02*
D03*
Y169000D02*
D03*
Y179000D02*
D03*
Y199000D02*
D03*
Y209000D02*
D03*
Y219000D02*
D03*
Y229000D02*
D03*
Y239000D02*
D03*
Y249000D02*
D03*
Y259000D02*
D03*
Y269000D02*
D03*
Y279000D02*
D03*
Y289000D02*
D03*
Y299000D02*
D03*
Y309000D02*
D03*
Y319000D02*
D03*
Y109000D02*
D03*
X288500D02*
D03*
X278500D02*
D03*
X268500D02*
D03*
X258500D02*
D03*
X248500D02*
D03*
X238500D02*
D03*
X228500D02*
D03*
X218500D02*
D03*
X208500D02*
D03*
X198500D02*
D03*
X188500D02*
D03*
X178500D02*
D03*
X158500D02*
D03*
X148500D02*
D03*
X138500D02*
D03*
X128500D02*
D03*
X118500D02*
D03*
X108500D02*
D03*
Y139000D02*
D03*
Y149000D02*
D03*
Y159000D02*
D03*
Y169000D02*
D03*
Y179000D02*
D03*
Y189000D02*
D03*
Y199000D02*
D03*
Y209000D02*
D03*
Y219000D02*
D03*
Y229000D02*
D03*
Y239000D02*
D03*
Y249000D02*
D03*
Y259000D02*
D03*
Y269000D02*
D03*
Y279000D02*
D03*
Y289000D02*
D03*
Y299000D02*
D03*
Y309000D02*
D03*
Y319000D02*
D03*
D37*
X298500Y189000D02*
D03*
X168500Y109000D02*
D03*
X108500Y129000D02*
D03*
D38*
X202795Y319469D02*
D03*
X160000Y263000D02*
D03*
X149500Y192000D02*
D03*
X188551Y179551D02*
D03*
X215500Y210000D02*
D03*
X180500Y195000D02*
D03*
X194153Y232154D02*
D03*
X234000Y260000D02*
D03*
X253000Y248000D02*
D03*
X159000Y308500D02*
D03*
X159000Y301000D02*
D03*
X159500Y293000D02*
D03*
X163654Y313346D02*
D03*
Y288154D02*
D03*
X191469Y319469D02*
D03*
X211500Y281000D02*
D03*
X207000Y281500D02*
D03*
X204500Y285500D02*
D03*
X202000Y281500D02*
D03*
X154000Y206500D02*
D03*
X161500D02*
D03*
X139500Y299000D02*
D03*
X217000Y255500D02*
D03*
X204000Y237000D02*
D03*
X207500D02*
D03*
X177500Y278500D02*
D03*
X192000Y279500D02*
D03*
X123000Y242500D02*
D03*
X181500Y284000D02*
D03*
X158500Y270500D02*
D03*
X141000Y182500D02*
D03*
X125000Y175000D02*
D03*
X178000Y218000D02*
D03*
X140000Y313500D02*
D03*
X241000Y144000D02*
D03*
X256500Y303500D02*
D03*
X176000D02*
D03*
X169500Y359500D02*
D03*
X225500D02*
D03*
X148000Y161000D02*
D03*
X129000D02*
D03*
X153000Y233000D02*
D03*
D39*
X157500Y240000D02*
D03*
Y247500D02*
D03*
Y255000D02*
D03*
X150000D02*
D03*
Y247500D02*
D03*
Y240000D02*
D03*
X182000Y234500D02*
D03*
X184500Y228000D02*
D03*
X185500Y281500D02*
D03*
X182000Y276500D02*
D03*
X191500Y286000D02*
D03*
D40*
X190614Y251429D02*
D03*
Y255760D02*
D03*
X194945Y251429D02*
D03*
Y255760D02*
D03*
Y264421D02*
D03*
X199276Y251429D02*
D03*
Y255760D02*
D03*
Y260090D02*
D03*
Y264421D02*
D03*
X203606Y251429D02*
D03*
Y255760D02*
D03*
Y260090D02*
D03*
Y264421D02*
D03*
X190614Y260090D02*
D03*
X194945D02*
D03*
X190614Y264421D02*
D03*
M02*
