G04 Layer_Physical_Order=1*
G04 Layer_Color=255*
%FSLAX25Y25*%
%MOIN*%
G70*
G01*
G75*
G04:AMPARAMS|DCode=10|XSize=39.37mil|YSize=35.43mil|CornerRadius=4.43mil|HoleSize=0mil|Usage=FLASHONLY|Rotation=270.000|XOffset=0mil|YOffset=0mil|HoleType=Round|Shape=RoundedRectangle|*
%AMROUNDEDRECTD10*
21,1,0.03937,0.02658,0,0,270.0*
21,1,0.03051,0.03543,0,0,270.0*
1,1,0.00886,-0.01329,-0.01526*
1,1,0.00886,-0.01329,0.01526*
1,1,0.00886,0.01329,0.01526*
1,1,0.00886,0.01329,-0.01526*
%
%ADD10ROUNDEDRECTD10*%
G04:AMPARAMS|DCode=11|XSize=39.37mil|YSize=35.43mil|CornerRadius=4.43mil|HoleSize=0mil|Usage=FLASHONLY|Rotation=0.000|XOffset=0mil|YOffset=0mil|HoleType=Round|Shape=RoundedRectangle|*
%AMROUNDEDRECTD11*
21,1,0.03937,0.02658,0,0,0.0*
21,1,0.03051,0.03543,0,0,0.0*
1,1,0.00886,0.01526,-0.01329*
1,1,0.00886,-0.01526,-0.01329*
1,1,0.00886,-0.01526,0.01329*
1,1,0.00886,0.01526,0.01329*
%
%ADD11ROUNDEDRECTD11*%
%ADD12R,0.16142X0.16142*%
%ADD13O,0.04724X0.00984*%
%ADD14O,0.00984X0.04724*%
%ADD15O,0.08661X0.02362*%
%ADD16R,0.09508X0.20000*%
%ADD17R,0.09016X0.20000*%
%ADD18R,0.02165X0.00984*%
%ADD19C,0.00800*%
%ADD20C,0.00600*%
%ADD21C,0.01200*%
%ADD22C,0.01000*%
%ADD23C,0.02500*%
%ADD24C,0.02000*%
%ADD25C,0.00700*%
%ADD26C,0.25000*%
%ADD27O,0.11000X0.06000*%
%ADD28R,0.11000X0.06000*%
%ADD29O,0.06000X0.11000*%
%ADD30R,0.06000X0.11000*%
%ADD31C,0.02400*%
%ADD32C,0.04000*%
%ADD33C,0.02362*%
G36*
X143980Y232578D02*
Y229239D01*
X143474D01*
X143068Y229158D01*
X142722Y228927D01*
X142492Y228582D01*
X142411Y228175D01*
Y225518D01*
X142457Y225288D01*
X142244Y225075D01*
Y221925D01*
X142457Y221712D01*
X142411Y221482D01*
Y218825D01*
X142492Y218418D01*
X142722Y218073D01*
X143068Y217842D01*
X143474Y217761D01*
X146526D01*
X146932Y217842D01*
X147277Y218073D01*
X147508Y218418D01*
X147589Y218825D01*
Y219134D01*
X151911D01*
Y218825D01*
X151992Y218418D01*
X152223Y218073D01*
X152568Y217842D01*
X152974Y217761D01*
X156026D01*
X156432Y217842D01*
X156778Y218073D01*
X157008Y218418D01*
X157089Y218825D01*
Y219134D01*
X175424D01*
X176230Y218328D01*
X176165Y218000D01*
X176304Y217298D01*
X176490Y217020D01*
X176072Y216045D01*
X176047Y216020D01*
X166000D01*
X165610Y215942D01*
X165279Y215721D01*
X157279Y207721D01*
X157058Y207390D01*
X156980Y207000D01*
Y204769D01*
X155800Y203589D01*
X153325D01*
X152918Y203508D01*
X152573Y203277D01*
X152342Y202933D01*
X152261Y202526D01*
Y199474D01*
X152342Y199067D01*
X152573Y198723D01*
X152918Y198492D01*
X153325Y198411D01*
X155147D01*
X156930Y196628D01*
X156867Y195625D01*
X155982Y194997D01*
X155154D01*
Y192000D01*
Y189003D01*
X155982D01*
X156953Y188314D01*
X156980Y188260D01*
Y183922D01*
X155578Y182520D01*
X153162D01*
X152985Y182784D01*
X152396Y183178D01*
X151701Y183316D01*
X145402D01*
X144707Y183178D01*
X144117Y182784D01*
X143941Y182520D01*
X142922D01*
X142809Y182633D01*
X142696Y183202D01*
X142298Y183798D01*
X141702Y184196D01*
X141000Y184335D01*
X140298Y184196D01*
X139702Y183798D01*
X139520Y183524D01*
X138520Y183828D01*
Y189578D01*
X140422Y191480D01*
X142000D01*
X142390Y191558D01*
X142721Y191779D01*
X144067Y193125D01*
X144288Y193456D01*
X144366Y193846D01*
Y196411D01*
X144675D01*
X145082Y196492D01*
X145427Y196722D01*
X145658Y197067D01*
X145738Y197474D01*
Y200526D01*
X145658Y200933D01*
X145427Y201277D01*
X145082Y201508D01*
X144675Y201589D01*
X142018D01*
X141788Y201543D01*
X141575Y201756D01*
X138425D01*
X138212Y201543D01*
X137982Y201589D01*
X135325D01*
X134918Y201508D01*
X134573Y201277D01*
X134342Y200933D01*
X134262Y200526D01*
Y200020D01*
X114474D01*
X114145Y200816D01*
X113568Y201568D01*
X112815Y202145D01*
X111940Y202507D01*
X111000Y202631D01*
X106000D01*
X105060Y202507D01*
X104184Y202145D01*
X103432Y201568D01*
X102855Y200816D01*
X102493Y199940D01*
X101539Y200136D01*
Y207864D01*
X102493Y208060D01*
X102855Y207185D01*
X103432Y206433D01*
X104184Y205855D01*
X105060Y205493D01*
X106000Y205369D01*
X111000D01*
X111940Y205493D01*
X112815Y205855D01*
X113568Y206433D01*
X114145Y207185D01*
X114474Y207980D01*
X134262D01*
Y207474D01*
X134342Y207067D01*
X134573Y206722D01*
X134918Y206492D01*
X135325Y206411D01*
X137982D01*
X138212Y206457D01*
X138425Y206244D01*
X141575D01*
X141788Y206457D01*
X142018Y206411D01*
X144675D01*
X145082Y206492D01*
X145427Y206722D01*
X145658Y207067D01*
X145738Y207474D01*
Y207980D01*
X151078D01*
X152230Y206828D01*
X152165Y206500D01*
X152304Y205798D01*
X152702Y205202D01*
X153298Y204804D01*
X154000Y204665D01*
X154702Y204804D01*
X155298Y205202D01*
X155696Y205798D01*
X155835Y206500D01*
X155696Y207202D01*
X155298Y207798D01*
X154702Y208196D01*
X154000Y208335D01*
X153672Y208270D01*
X152221Y209721D01*
X151890Y209942D01*
X151500Y210020D01*
X145738D01*
Y210526D01*
X145658Y210932D01*
X145427Y211278D01*
X145082Y211508D01*
X144675Y211589D01*
X142018D01*
X141788Y211543D01*
X141575Y211756D01*
X138425D01*
X138212Y211543D01*
X137982Y211589D01*
X135325D01*
X134918Y211508D01*
X134573Y211278D01*
X134342Y210932D01*
X134262Y210526D01*
Y210020D01*
X114474D01*
X114145Y210816D01*
X113568Y211567D01*
X112815Y212145D01*
X111940Y212507D01*
X111000Y212631D01*
X106000D01*
X105060Y212507D01*
X104184Y212145D01*
X103432Y211567D01*
X102855Y210816D01*
X102493Y209940D01*
X101539Y210136D01*
Y217864D01*
X102493Y218060D01*
X102855Y217184D01*
X103432Y216432D01*
X104184Y215855D01*
X105060Y215493D01*
X106000Y215369D01*
X111000D01*
X111940Y215493D01*
X112815Y215855D01*
X113568Y216432D01*
X114145Y217184D01*
X114507Y218060D01*
X114631Y219000D01*
X114507Y219940D01*
X114145Y220815D01*
X113568Y221568D01*
X112815Y222145D01*
X111940Y222507D01*
X111000Y222631D01*
X106000D01*
X105060Y222507D01*
X104184Y222145D01*
X103432Y221568D01*
X102855Y220815D01*
X102493Y219940D01*
X101539Y220136D01*
Y227864D01*
X102493Y228060D01*
X102855Y227185D01*
X103432Y226432D01*
X104184Y225855D01*
X105060Y225493D01*
X106000Y225369D01*
X111000D01*
X111940Y225493D01*
X112815Y225855D01*
X113568Y226432D01*
X114145Y227185D01*
X114474Y227980D01*
X130000D01*
X130390Y228058D01*
X130721Y228279D01*
X132221Y229779D01*
X132442Y230110D01*
X132520Y230500D01*
Y233608D01*
X133026D01*
X133432Y233689D01*
X133777Y233919D01*
X134008Y234264D01*
X134089Y234671D01*
Y237329D01*
X134043Y237559D01*
X134256Y237772D01*
Y238480D01*
X138078D01*
X143980Y232578D01*
D02*
G37*
G36*
X149321Y257533D02*
X148689Y257271D01*
X148146Y256854D01*
X147729Y256311D01*
X147467Y255679D01*
X147378Y255000D01*
X147467Y254321D01*
X147729Y253689D01*
X148146Y253146D01*
X148689Y252729D01*
X149321Y252467D01*
X150000Y252378D01*
X150679Y252467D01*
X151311Y252729D01*
X151854Y253146D01*
X152271Y253689D01*
X152533Y254321D01*
X152622Y255000D01*
X152533Y255679D01*
X152412Y255970D01*
X153422Y256980D01*
X154482D01*
X154681Y256802D01*
X155092Y255980D01*
X154967Y255679D01*
X154878Y255000D01*
X154967Y254321D01*
X155229Y253689D01*
X155359Y253520D01*
X154882Y252520D01*
X154000D01*
X153610Y252442D01*
X153279Y252221D01*
X150970Y249912D01*
X150679Y250033D01*
X150000Y250122D01*
X149321Y250033D01*
X148689Y249771D01*
X148146Y249354D01*
X147729Y248811D01*
X147467Y248179D01*
X147378Y247500D01*
X147467Y246821D01*
X147729Y246189D01*
X148146Y245646D01*
X148689Y245229D01*
X149321Y244967D01*
X150000Y244878D01*
X150679Y244967D01*
X151311Y245229D01*
X151854Y245646D01*
X152271Y246189D01*
X152533Y246821D01*
X152622Y247500D01*
X152533Y248179D01*
X152412Y248470D01*
X154422Y250480D01*
X155471D01*
X155810Y249480D01*
X155646Y249354D01*
X155229Y248811D01*
X154967Y248179D01*
X154878Y247500D01*
X154967Y246821D01*
X155229Y246189D01*
X155646Y245646D01*
X155810Y245520D01*
X155471Y244520D01*
X153500D01*
X153110Y244442D01*
X152779Y244221D01*
X150970Y242412D01*
X150679Y242533D01*
X150000Y242622D01*
X149321Y242533D01*
X148689Y242271D01*
X148146Y241854D01*
X147729Y241311D01*
X147467Y240679D01*
X147378Y240000D01*
X147467Y239321D01*
X147729Y238689D01*
X148146Y238146D01*
X148689Y237729D01*
X149321Y237467D01*
X150000Y237378D01*
X150679Y237467D01*
X151311Y237729D01*
X151854Y238146D01*
X152271Y238689D01*
X152533Y239321D01*
X152622Y240000D01*
X152533Y240679D01*
X152412Y240970D01*
X153922Y242480D01*
X154882D01*
X155359Y241480D01*
X155229Y241311D01*
X154967Y240679D01*
X154878Y240000D01*
X154967Y239321D01*
X155229Y238689D01*
X155646Y238146D01*
X156189Y237729D01*
X156821Y237467D01*
X157500Y237378D01*
X158179Y237467D01*
X158811Y237729D01*
X159354Y238146D01*
X159771Y238689D01*
X159892Y238980D01*
X170500D01*
X170890Y239058D01*
X171221Y239279D01*
X175480Y243538D01*
X176480Y243124D01*
Y229000D01*
X176558Y228610D01*
X176779Y228279D01*
X185279Y219779D01*
X185610Y219558D01*
X186000Y219480D01*
X192578D01*
X193980Y218078D01*
Y216594D01*
X192985Y216284D01*
X192396Y216678D01*
X191701Y216816D01*
X185402D01*
X184707Y216678D01*
X184117Y216284D01*
X183941Y216020D01*
X179953D01*
X179928Y216045D01*
X179510Y217020D01*
X179696Y217298D01*
X179835Y218000D01*
X179696Y218702D01*
X179298Y219298D01*
X178702Y219696D01*
X178000Y219835D01*
X177672Y219770D01*
X176567Y220875D01*
X176237Y221095D01*
X175847Y221173D01*
X157918D01*
X157256Y221925D01*
Y224762D01*
X157385Y224955D01*
X157497Y225518D01*
Y226346D01*
X151503D01*
Y225518D01*
X151615Y224955D01*
X151744Y224762D01*
Y221925D01*
X151082Y221173D01*
X148418D01*
X147756Y221925D01*
Y225075D01*
X147543Y225288D01*
X147589Y225518D01*
Y228175D01*
X147508Y228582D01*
X147277Y228927D01*
X146932Y229158D01*
X146526Y229239D01*
X146020D01*
Y233000D01*
X145942Y233390D01*
X145721Y233721D01*
X139221Y240221D01*
X138890Y240442D01*
X138500Y240520D01*
X134744D01*
X134089Y241364D01*
Y244022D01*
X134008Y244429D01*
X133777Y244774D01*
X133432Y245004D01*
X133026Y245085D01*
X132520D01*
Y253578D01*
X137422Y258480D01*
X149114D01*
X149321Y257533D01*
D02*
G37*
G36*
X270082Y145000D02*
X270152Y144649D01*
X270351Y144351D01*
X286351Y128351D01*
X286649Y128152D01*
X287000Y128082D01*
X292490D01*
X292493Y128060D01*
X292855Y127184D01*
X293432Y126432D01*
X294184Y125855D01*
X295060Y125493D01*
X296000Y125369D01*
X301000D01*
X301940Y125493D01*
X302816Y125855D01*
X303461Y126351D01*
X303899Y126255D01*
X304461Y125954D01*
Y102539D01*
X300839D01*
X300555Y103539D01*
X301067Y103932D01*
X301645Y104684D01*
X302007Y105560D01*
X302131Y106500D01*
Y111500D01*
X302007Y112440D01*
X301645Y113315D01*
X301067Y114068D01*
X300315Y114645D01*
X299440Y115007D01*
X298500Y115131D01*
X297560Y115007D01*
X296685Y114645D01*
X295933Y114068D01*
X295355Y113315D01*
X294993Y112440D01*
X294869Y111500D01*
Y106500D01*
X294993Y105560D01*
X295355Y104684D01*
X295933Y103932D01*
X296445Y103539D01*
X296161Y102539D01*
X290839D01*
X290555Y103539D01*
X291068Y103932D01*
X291645Y104684D01*
X292007Y105560D01*
X292131Y106500D01*
Y111500D01*
X292007Y112440D01*
X291645Y113315D01*
X291068Y114068D01*
X290316Y114645D01*
X289440Y115007D01*
X289418Y115010D01*
Y115500D01*
X289348Y115851D01*
X289149Y116149D01*
X264418Y140880D01*
Y209500D01*
X264348Y209851D01*
X264149Y210149D01*
X221914Y252384D01*
X221940Y252634D01*
X222654Y253511D01*
X223356Y253651D01*
X223951Y254049D01*
X224349Y254644D01*
X224489Y255346D01*
X224349Y256049D01*
X224139Y256362D01*
X224716Y257244D01*
X227262D01*
X227455Y257115D01*
X228018Y257003D01*
X228847D01*
Y260000D01*
X229346D01*
Y260500D01*
X232146D01*
Y261526D01*
X232034Y262089D01*
X231715Y262566D01*
X231523Y262694D01*
X231482Y262827D01*
Y263673D01*
X231523Y263806D01*
X231715Y263934D01*
X232034Y264411D01*
X232146Y264974D01*
Y266000D01*
X229346D01*
Y266500D01*
X228847D01*
Y269497D01*
X228018D01*
X227455Y269385D01*
X227262Y269256D01*
X224425D01*
X224212Y269043D01*
X223982Y269089D01*
X222693D01*
X222310Y270013D01*
X223880Y271582D01*
X270082D01*
Y145000D01*
D02*
G37*
G36*
X247582Y202907D02*
Y115010D01*
X247560Y115007D01*
X246685Y114645D01*
X245933Y114068D01*
X245355Y113315D01*
X244993Y112440D01*
X244869Y111500D01*
Y106500D01*
X244993Y105560D01*
X245355Y104684D01*
X245933Y103932D01*
X246445Y103539D01*
X246161Y102539D01*
X240839D01*
X240555Y103539D01*
X241068Y103932D01*
X241645Y104684D01*
X242007Y105560D01*
X242131Y106500D01*
Y111500D01*
X242007Y112440D01*
X241645Y113315D01*
X241068Y114068D01*
X240316Y114645D01*
X239440Y115007D01*
X239418Y115010D01*
Y122000D01*
X239348Y122351D01*
X239149Y122649D01*
X234418Y127380D01*
Y212500D01*
X234348Y212851D01*
X234149Y213149D01*
X211749Y235549D01*
X211451Y235748D01*
X211100Y235818D01*
X209986D01*
X209299Y236818D01*
X209335Y237000D01*
X209196Y237702D01*
X208798Y238298D01*
X208202Y238696D01*
X207778Y238780D01*
X207161Y239710D01*
X207341Y240539D01*
X207886Y240877D01*
X207937Y240867D01*
X208363Y240951D01*
X208724Y241193D01*
X209245Y241244D01*
X247582Y202907D01*
D02*
G37*
G36*
X102855Y197185D02*
X103432Y196432D01*
X104184Y195855D01*
X105060Y195493D01*
X106000Y195369D01*
X111000D01*
X111940Y195493D01*
X112815Y195855D01*
X113568Y196432D01*
X114145Y197185D01*
X114474Y197980D01*
X134262D01*
Y197474D01*
X134342Y197067D01*
X134573Y196722D01*
X134918Y196492D01*
X135325Y196411D01*
X137982D01*
X138212Y196457D01*
X138425Y196244D01*
X141575D01*
X142327Y195582D01*
Y194269D01*
X141578Y193520D01*
X140000D01*
X139610Y193442D01*
X139279Y193221D01*
X136779Y190721D01*
X136558Y190390D01*
X136480Y190000D01*
Y180500D01*
X136558Y180110D01*
X136779Y179779D01*
X140779Y175779D01*
X141110Y175558D01*
X141500Y175480D01*
X143941D01*
X144117Y175216D01*
X144707Y174822D01*
X145402Y174684D01*
X151701D01*
X152396Y174822D01*
X152985Y175216D01*
X154016Y175042D01*
X160779Y168279D01*
X161110Y168058D01*
X161500Y167980D01*
X161944D01*
X162191Y167694D01*
X162579Y166980D01*
X162483Y166500D01*
X162621Y165805D01*
X163015Y165216D01*
X163604Y164822D01*
X164299Y164684D01*
X166429D01*
Y148821D01*
X166279Y148721D01*
X161578Y144020D01*
X148422D01*
X139520Y152922D01*
Y156204D01*
X140520Y156303D01*
X140558Y156110D01*
X140779Y155779D01*
X143279Y153279D01*
X143610Y153058D01*
X144000Y152980D01*
X152261D01*
Y152474D01*
X152342Y152067D01*
X152573Y151723D01*
X152918Y151492D01*
X153325Y151411D01*
X155982D01*
X156212Y151457D01*
X156425Y151244D01*
X159575D01*
X159710Y151054D01*
X160049Y150144D01*
X159651Y149549D01*
X159511Y148846D01*
X159651Y148144D01*
X160049Y147549D01*
X160644Y147151D01*
X161346Y147011D01*
X162049Y147151D01*
X162644Y147549D01*
X163042Y148144D01*
X163182Y148846D01*
X163042Y149549D01*
X162644Y150144D01*
X162570Y150194D01*
Y151411D01*
X162675D01*
X163082Y151492D01*
X163427Y151723D01*
X163658Y152067D01*
X163739Y152474D01*
Y155526D01*
X163658Y155932D01*
X163427Y156278D01*
X163082Y156508D01*
X162675Y156589D01*
X160018D01*
X159788Y156543D01*
X159575Y156756D01*
X156425D01*
X156212Y156543D01*
X155982Y156589D01*
X153325D01*
X152918Y156508D01*
X152573Y156278D01*
X152342Y155932D01*
X152261Y155526D01*
Y155020D01*
X144422D01*
X142520Y156922D01*
Y165087D01*
X143520Y165391D01*
X143829Y164927D01*
X144551Y164445D01*
X145402Y164276D01*
X148051D01*
Y166500D01*
X148551D01*
Y167000D01*
X153825D01*
X153755Y167351D01*
X153273Y168072D01*
X152552Y168554D01*
X151701Y168724D01*
Y169684D01*
X152396Y169822D01*
X152985Y170216D01*
X153378Y170805D01*
X153517Y171500D01*
X153378Y172195D01*
X152985Y172784D01*
X152396Y173178D01*
X151701Y173316D01*
X145402D01*
X144707Y173178D01*
X144117Y172784D01*
X143941Y172520D01*
X143026D01*
X142635Y172442D01*
X142305Y172221D01*
X140779Y170695D01*
X140558Y170365D01*
X140520Y170171D01*
X139520Y170270D01*
Y172000D01*
X139442Y172390D01*
X139221Y172721D01*
X135067Y176874D01*
X134737Y177095D01*
X134406Y177161D01*
X133756Y177925D01*
Y181075D01*
X133543Y181288D01*
X133589Y181518D01*
Y184175D01*
X133508Y184582D01*
X133277Y184927D01*
X132932Y185158D01*
X132526Y185239D01*
X132020D01*
Y187000D01*
X131942Y187390D01*
X131721Y187721D01*
X129721Y189721D01*
X129390Y189942D01*
X129000Y190020D01*
X114474D01*
X114145Y190815D01*
X113568Y191568D01*
X112815Y192145D01*
X111940Y192507D01*
X111000Y192631D01*
X106000D01*
X105060Y192507D01*
X104184Y192145D01*
X103432Y191568D01*
X102855Y190815D01*
X102493Y189940D01*
X101539Y190136D01*
Y197864D01*
X102493Y198060D01*
X102855Y197185D01*
D02*
G37*
G36*
X252582Y204403D02*
Y127000D01*
X252652Y126649D01*
X252851Y126351D01*
X257582Y121620D01*
Y115010D01*
X257560Y115007D01*
X256684Y114645D01*
X255932Y114068D01*
X255355Y113315D01*
X254993Y112440D01*
X254869Y111500D01*
Y106500D01*
X254993Y105560D01*
X255355Y104684D01*
X255932Y103932D01*
X256445Y103539D01*
X256161Y102539D01*
X250839D01*
X250555Y103539D01*
X251067Y103932D01*
X251645Y104684D01*
X252007Y105560D01*
X252131Y106500D01*
Y111500D01*
X252007Y112440D01*
X251645Y113315D01*
X251067Y114068D01*
X250315Y114645D01*
X249440Y115007D01*
X249418Y115010D01*
Y203287D01*
X249348Y203639D01*
X249149Y203936D01*
X209050Y244035D01*
Y245018D01*
X209258Y245777D01*
X210017Y245985D01*
X211001D01*
X252582Y204403D01*
D02*
G37*
G36*
X221082Y217620D02*
Y134077D01*
X207851Y120846D01*
X207652Y120548D01*
X207582Y120197D01*
Y115010D01*
X207560Y115007D01*
X206684Y114645D01*
X205932Y114068D01*
X205355Y113315D01*
X204993Y112440D01*
X204869Y111500D01*
Y106500D01*
X204993Y105560D01*
X205355Y104684D01*
X205932Y103932D01*
X206445Y103539D01*
X206161Y102539D01*
X201552D01*
X201212Y103539D01*
X201353Y103647D01*
X201994Y104483D01*
X202397Y105456D01*
X202535Y106500D01*
Y108500D01*
X198500D01*
X194465D01*
Y106500D01*
X194603Y105456D01*
X195006Y104483D01*
X195647Y103647D01*
X195788Y103539D01*
X195449Y102539D01*
X191551D01*
X191212Y103539D01*
X191353Y103647D01*
X191994Y104483D01*
X192397Y105456D01*
X192534Y106500D01*
Y108500D01*
X188500D01*
X184466D01*
Y106500D01*
X184603Y105456D01*
X185006Y104483D01*
X185647Y103647D01*
X185788Y103539D01*
X185449Y102539D01*
X180839D01*
X180555Y103539D01*
X181068Y103932D01*
X181645Y104684D01*
X182007Y105560D01*
X182131Y106500D01*
Y111500D01*
X182007Y112440D01*
X181645Y113315D01*
X181068Y114068D01*
X180315Y114645D01*
X179469Y114995D01*
Y124000D01*
X179395Y124371D01*
X179185Y124685D01*
X166685Y137185D01*
X166371Y137395D01*
X166000Y137469D01*
X141401D01*
X136469Y142401D01*
Y163000D01*
X136395Y163371D01*
X136185Y163685D01*
X126286Y173584D01*
X126298Y173702D01*
X126696Y174298D01*
X126835Y175000D01*
X126696Y175702D01*
X126298Y176298D01*
X125702Y176696D01*
X125000Y176835D01*
X124298Y176696D01*
X123702Y176298D01*
X123304Y175702D01*
X123165Y175000D01*
X123304Y174298D01*
X123702Y173702D01*
X124035Y173480D01*
X124105Y173129D01*
X124315Y172815D01*
X134531Y162599D01*
Y142000D01*
X134605Y141629D01*
X134815Y141315D01*
X140315Y135815D01*
X140629Y135605D01*
X141000Y135531D01*
X165599D01*
X177531Y123599D01*
Y114995D01*
X176684Y114645D01*
X175932Y114068D01*
X175355Y113315D01*
X174993Y112440D01*
X174869Y111500D01*
Y106500D01*
X174993Y105560D01*
X175355Y104684D01*
X175932Y103932D01*
X176445Y103539D01*
X176161Y102539D01*
X170839D01*
X170555Y103539D01*
X171068Y103932D01*
X171645Y104684D01*
X172007Y105560D01*
X172131Y106500D01*
Y111500D01*
X172007Y112440D01*
X171645Y113315D01*
X171068Y114068D01*
X170316Y114645D01*
X169440Y115007D01*
X168500Y115131D01*
X167560Y115007D01*
X166684Y114645D01*
X165932Y114068D01*
X165355Y113315D01*
X164993Y112440D01*
X164869Y111500D01*
Y106500D01*
X164993Y105560D01*
X165355Y104684D01*
X165932Y103932D01*
X166445Y103539D01*
X166161Y102539D01*
X160839D01*
X160555Y103539D01*
X161068Y103932D01*
X161645Y104684D01*
X162007Y105560D01*
X162131Y106500D01*
Y111500D01*
X162007Y112440D01*
X161645Y113315D01*
X161068Y114068D01*
X160316Y114645D01*
X159440Y115007D01*
X158500Y115131D01*
X157560Y115007D01*
X156685Y114645D01*
X155932Y114068D01*
X155355Y113315D01*
X154993Y112440D01*
X154869Y111500D01*
Y106500D01*
X154993Y105560D01*
X155355Y104684D01*
X155932Y103932D01*
X156445Y103539D01*
X156161Y102539D01*
X150839D01*
X150555Y103539D01*
X151068Y103932D01*
X151645Y104684D01*
X152007Y105560D01*
X152131Y106500D01*
Y111500D01*
X152007Y112440D01*
X151645Y113315D01*
X151068Y114068D01*
X150315Y114645D01*
X149440Y115007D01*
X148500Y115131D01*
X147560Y115007D01*
X146685Y114645D01*
X145932Y114068D01*
X145355Y113315D01*
X144993Y112440D01*
X144869Y111500D01*
Y106500D01*
X144993Y105560D01*
X145355Y104684D01*
X145932Y103932D01*
X146445Y103539D01*
X146161Y102539D01*
X140839D01*
X140555Y103539D01*
X141068Y103932D01*
X141645Y104684D01*
X142007Y105560D01*
X142131Y106500D01*
Y111500D01*
X142007Y112440D01*
X141645Y113315D01*
X141068Y114068D01*
X140315Y114645D01*
X139440Y115007D01*
X138500Y115131D01*
X137560Y115007D01*
X136685Y114645D01*
X135932Y114068D01*
X135355Y113315D01*
X134993Y112440D01*
X134869Y111500D01*
Y106500D01*
X134993Y105560D01*
X135355Y104684D01*
X135932Y103932D01*
X136445Y103539D01*
X136161Y102539D01*
X130839D01*
X130555Y103539D01*
X131068Y103932D01*
X131645Y104684D01*
X132007Y105560D01*
X132131Y106500D01*
Y111500D01*
X132007Y112440D01*
X131645Y113315D01*
X131068Y114068D01*
X130315Y114645D01*
X129440Y115007D01*
X128500Y115131D01*
X127560Y115007D01*
X126684Y114645D01*
X125932Y114068D01*
X125355Y113315D01*
X124993Y112440D01*
X124869Y111500D01*
Y106500D01*
X124993Y105560D01*
X125355Y104684D01*
X125932Y103932D01*
X126445Y103539D01*
X126161Y102539D01*
X120839D01*
X120555Y103539D01*
X121068Y103932D01*
X121645Y104684D01*
X122007Y105560D01*
X122131Y106500D01*
Y111500D01*
X122007Y112440D01*
X121645Y113315D01*
X121068Y114068D01*
X120316Y114645D01*
X119440Y115007D01*
X118500Y115131D01*
X117560Y115007D01*
X116684Y114645D01*
X115932Y114068D01*
X115355Y113315D01*
X114993Y112440D01*
X114869Y111500D01*
Y106500D01*
X114993Y105560D01*
X115355Y104684D01*
X115932Y103932D01*
X116445Y103539D01*
X116161Y102539D01*
X112500D01*
Y108500D01*
X108500D01*
X104500D01*
Y102539D01*
X101539D01*
Y127864D01*
X102493Y128060D01*
X102855Y127184D01*
X103432Y126432D01*
X104184Y125855D01*
X105060Y125493D01*
X106000Y125369D01*
X111000D01*
X111940Y125493D01*
X112815Y125855D01*
X113568Y126432D01*
X114145Y127184D01*
X114507Y128060D01*
X114631Y129000D01*
X114507Y129940D01*
X114145Y130815D01*
X113568Y131568D01*
X112815Y132145D01*
X111940Y132507D01*
X111000Y132631D01*
X106000D01*
X105060Y132507D01*
X104184Y132145D01*
X103432Y131568D01*
X102855Y130815D01*
X102493Y129940D01*
X101539Y130136D01*
Y137864D01*
X102493Y138060D01*
X102855Y137185D01*
X103432Y136432D01*
X104184Y135855D01*
X105060Y135493D01*
X106000Y135369D01*
X111000D01*
X111940Y135493D01*
X112815Y135855D01*
X113568Y136432D01*
X114145Y137185D01*
X114507Y138060D01*
X114631Y139000D01*
X114507Y139940D01*
X114145Y140815D01*
X113568Y141568D01*
X112815Y142145D01*
X111940Y142507D01*
X111000Y142631D01*
X106000D01*
X105060Y142507D01*
X104184Y142145D01*
X103432Y141568D01*
X102855Y140815D01*
X102493Y139940D01*
X101539Y140136D01*
Y147864D01*
X102493Y148060D01*
X102855Y147185D01*
X103432Y146432D01*
X104184Y145855D01*
X105060Y145493D01*
X106000Y145369D01*
X111000D01*
X111940Y145493D01*
X112815Y145855D01*
X113568Y146432D01*
X114145Y147185D01*
X114474Y147980D01*
X126411D01*
Y147825D01*
X126492Y147418D01*
X126723Y147073D01*
X127067Y146842D01*
X127474Y146762D01*
X130526D01*
X130932Y146842D01*
X131278Y147073D01*
X131508Y147418D01*
X131589Y147825D01*
Y150482D01*
X131543Y150712D01*
X131756Y150925D01*
Y154075D01*
X131543Y154288D01*
X131589Y154518D01*
Y157175D01*
X131508Y157582D01*
X131278Y157927D01*
X130932Y158158D01*
X130526Y158238D01*
X130020D01*
Y159516D01*
X130298Y159702D01*
X130696Y160298D01*
X130835Y161000D01*
X130696Y161702D01*
X130298Y162298D01*
X129702Y162696D01*
X129000Y162835D01*
X128298Y162696D01*
X127702Y162298D01*
X127304Y161702D01*
X127165Y161000D01*
X127304Y160298D01*
X127702Y159702D01*
X127980Y159516D01*
Y158238D01*
X127474D01*
X127067Y158158D01*
X126723Y157927D01*
X126492Y157582D01*
X126411Y157175D01*
Y154518D01*
X126457Y154288D01*
X126244Y154075D01*
Y150925D01*
X125735Y150020D01*
X114474D01*
X114145Y150815D01*
X113568Y151568D01*
X112815Y152145D01*
X111940Y152507D01*
X111000Y152631D01*
X106000D01*
X105060Y152507D01*
X104184Y152145D01*
X103432Y151568D01*
X102855Y150815D01*
X102493Y149940D01*
X101539Y150136D01*
Y157864D01*
X102493Y158060D01*
X102855Y157185D01*
X103432Y156432D01*
X104184Y155855D01*
X105060Y155493D01*
X106000Y155369D01*
X111000D01*
X111940Y155493D01*
X112815Y155855D01*
X113568Y156432D01*
X114145Y157185D01*
X114507Y158060D01*
X114631Y159000D01*
X114507Y159940D01*
X114145Y160816D01*
X113568Y161568D01*
X112815Y162145D01*
X111940Y162507D01*
X111000Y162631D01*
X106000D01*
X105060Y162507D01*
X104184Y162145D01*
X103432Y161568D01*
X102855Y160816D01*
X102493Y159940D01*
X101539Y160136D01*
Y166600D01*
X102438Y166948D01*
X102539Y166940D01*
X103147Y166147D01*
X103983Y165506D01*
X104956Y165103D01*
X106000Y164965D01*
X108000D01*
Y169000D01*
Y173035D01*
X106000D01*
X104956Y172897D01*
X103983Y172494D01*
X103147Y171853D01*
X102539Y171060D01*
X102438Y171052D01*
X101539Y171400D01*
Y176600D01*
X102438Y176948D01*
X102539Y176940D01*
X103147Y176147D01*
X103983Y175506D01*
X104956Y175103D01*
X106000Y174966D01*
X108000D01*
Y179000D01*
Y183035D01*
X106000D01*
X104956Y182897D01*
X103983Y182494D01*
X103147Y181853D01*
X102539Y181060D01*
X102438Y181052D01*
X101539Y181400D01*
Y187864D01*
X102493Y188060D01*
X102855Y187185D01*
X103432Y186432D01*
X104184Y185855D01*
X105060Y185493D01*
X106000Y185369D01*
X111000D01*
X111940Y185493D01*
X112815Y185855D01*
X113568Y186432D01*
X114145Y187185D01*
X114474Y187980D01*
X128578D01*
X129980Y186578D01*
Y185239D01*
X129474D01*
X129068Y185158D01*
X128723Y184927D01*
X128492Y184582D01*
X128411Y184175D01*
Y181518D01*
X128457Y181288D01*
X128244Y181075D01*
Y177925D01*
X128457Y177712D01*
X128411Y177482D01*
Y174825D01*
X128492Y174418D01*
X128723Y174073D01*
X129068Y173842D01*
X129474Y173761D01*
X132526D01*
X132932Y173842D01*
X133277Y174073D01*
X133395Y174249D01*
X134147Y174476D01*
X134546Y174512D01*
X137480Y171578D01*
Y152500D01*
X137558Y152110D01*
X137779Y151779D01*
X147279Y142279D01*
X147610Y142058D01*
X148000Y141980D01*
X162000D01*
X162390Y142058D01*
X162721Y142279D01*
X167422Y146980D01*
X167449D01*
X167839Y147058D01*
X168170Y147279D01*
X168391Y147610D01*
X168468Y148000D01*
Y164684D01*
X170598D01*
X171293Y164822D01*
X171882Y165216D01*
X172059Y165480D01*
X215000D01*
X215390Y165558D01*
X215721Y165779D01*
X218721Y168779D01*
X218942Y169110D01*
X219020Y169500D01*
Y198000D01*
X218942Y198390D01*
X218721Y198721D01*
X216721Y200721D01*
X216390Y200942D01*
X216000Y201020D01*
X212059D01*
X211882Y201284D01*
X211293Y201678D01*
X210598Y201816D01*
X204299D01*
X203604Y201678D01*
X203015Y201284D01*
X202918Y201138D01*
X201918Y201442D01*
Y203558D01*
X202918Y203862D01*
X203015Y203716D01*
X203604Y203322D01*
X204299Y203184D01*
X210598D01*
X211293Y203322D01*
X211882Y203716D01*
X212059Y203980D01*
X213500D01*
X213890Y204058D01*
X214221Y204279D01*
X216221Y206279D01*
X216442Y206610D01*
X216520Y207000D01*
Y208516D01*
X216798Y208702D01*
X217196Y209298D01*
X217335Y210000D01*
X217196Y210702D01*
X216798Y211298D01*
X216202Y211696D01*
X215500Y211835D01*
X214798Y211696D01*
X214202Y211298D01*
X214016Y211020D01*
X212059D01*
X211882Y211284D01*
X211293Y211678D01*
X210598Y211816D01*
X204299D01*
X203604Y211678D01*
X203015Y211284D01*
X202918Y211138D01*
X201918Y211442D01*
Y213558D01*
X202918Y213862D01*
X203015Y213716D01*
X203604Y213322D01*
X204299Y213184D01*
X207096D01*
X207449Y213114D01*
X207802Y213184D01*
X210598D01*
X211293Y213322D01*
X211882Y213716D01*
X212276Y214305D01*
X212414Y215000D01*
X212276Y215695D01*
X211882Y216284D01*
X211293Y216678D01*
X210598Y216816D01*
X209335D01*
Y220898D01*
X209191Y221620D01*
X208783Y222231D01*
X206303Y224711D01*
X206762Y225666D01*
X207222Y225757D01*
X207834Y226166D01*
X208243Y226778D01*
X208386Y227500D01*
X208243Y228222D01*
X208006Y228576D01*
X208301Y229443D01*
X208428Y229608D01*
X209012Y229691D01*
X221082Y217620D01*
D02*
G37*
G36*
X184117Y213716D02*
X184707Y213322D01*
X185402Y213184D01*
X191701D01*
X192396Y213322D01*
X192985Y213716D01*
X193980Y213406D01*
Y212422D01*
X192899Y211341D01*
X192396Y211678D01*
X191701Y211816D01*
X185402D01*
X184707Y211678D01*
X184117Y211284D01*
X183724Y210695D01*
X183586Y210000D01*
X183724Y209305D01*
X184117Y208716D01*
X184707Y208322D01*
X185402Y208184D01*
X191701D01*
X192396Y208322D01*
X192985Y208716D01*
X193186Y209017D01*
X193390Y209058D01*
X193721Y209279D01*
X194659Y210217D01*
X195582Y209834D01*
Y206880D01*
X194620Y205918D01*
X193230D01*
X192985Y206284D01*
X192396Y206678D01*
X191701Y206816D01*
X185402D01*
X184707Y206678D01*
X184117Y206284D01*
X183724Y205695D01*
X183586Y205000D01*
X183724Y204305D01*
X184117Y203716D01*
X184707Y203322D01*
X185402Y203184D01*
X191701D01*
X192396Y203322D01*
X192985Y203716D01*
X193230Y204082D01*
X195000D01*
X195351Y204152D01*
X195649Y204351D01*
X197082Y205785D01*
X197364Y205758D01*
X198082Y205448D01*
Y196000D01*
X198152Y195649D01*
X198351Y195351D01*
X199351Y194351D01*
X199649Y194152D01*
X200000Y194082D01*
X202770D01*
X203015Y193716D01*
X203604Y193322D01*
X204299Y193184D01*
X210598D01*
X211293Y193322D01*
X211882Y193716D01*
X212276Y194305D01*
X212414Y195000D01*
X212884Y195747D01*
X213582Y195257D01*
Y191380D01*
X213120Y190918D01*
X212127D01*
X211882Y191284D01*
X211293Y191678D01*
X210598Y191816D01*
X204299D01*
X203604Y191678D01*
X203015Y191284D01*
X202622Y190695D01*
X202483Y190000D01*
X202622Y189305D01*
X203015Y188716D01*
X203604Y188322D01*
X204299Y188184D01*
X210598D01*
X211293Y188322D01*
X211882Y188716D01*
X212127Y189082D01*
X213500D01*
X213851Y189152D01*
X214149Y189351D01*
X215149Y190351D01*
X215348Y190649D01*
X215418Y191000D01*
Y196500D01*
X215348Y196851D01*
X215149Y197149D01*
X214317Y197980D01*
X214473Y198634D01*
X214626Y198863D01*
X215635Y198923D01*
X216980Y197578D01*
Y169922D01*
X214578Y167520D01*
X192773D01*
X192733Y167570D01*
X192410Y168520D01*
X207075Y183184D01*
X210598D01*
X211293Y183322D01*
X211882Y183716D01*
X212276Y184305D01*
X212414Y185000D01*
X212276Y185695D01*
X211882Y186284D01*
X211293Y186678D01*
X210598Y186816D01*
X204299D01*
X203604Y186678D01*
X203015Y186284D01*
X202622Y185695D01*
X202483Y185000D01*
X202622Y184305D01*
X203015Y183716D01*
X203191Y183598D01*
X203423Y182416D01*
X191026Y170020D01*
X177825D01*
X177785Y170070D01*
X177462Y171020D01*
X180721Y174279D01*
X180942Y174610D01*
X181020Y175000D01*
Y183000D01*
X180942Y183390D01*
X180721Y183721D01*
X178520Y185922D01*
Y192704D01*
X179520Y192803D01*
X179558Y192610D01*
X179779Y192279D01*
X182779Y189279D01*
X183110Y189058D01*
X183500Y188980D01*
X183941D01*
X184117Y188716D01*
X184707Y188322D01*
X185402Y188184D01*
Y187224D01*
X184550Y187055D01*
X183829Y186573D01*
X183347Y185851D01*
X183277Y185500D01*
X188551D01*
X193825D01*
X193755Y185851D01*
X193273Y186573D01*
X192552Y187055D01*
X191701Y187224D01*
Y188184D01*
X192396Y188322D01*
X192985Y188716D01*
X193378Y189305D01*
X193517Y190000D01*
X193378Y190695D01*
X192985Y191284D01*
X192396Y191678D01*
X191701Y191816D01*
X185402D01*
X184707Y191678D01*
X184117Y191284D01*
X183212Y191729D01*
X182184Y192758D01*
X182035Y193121D01*
X182509Y193980D01*
X183941D01*
X184117Y193716D01*
X184707Y193322D01*
X185402Y193184D01*
X191701D01*
X192396Y193322D01*
X192985Y193716D01*
X193378Y194305D01*
X193517Y195000D01*
X193378Y195695D01*
X192985Y196284D01*
X192396Y196678D01*
X191701Y196816D01*
X185402D01*
X184707Y196678D01*
X184117Y196284D01*
X183941Y196020D01*
X181984D01*
X181798Y196298D01*
X181202Y196696D01*
X180500Y196835D01*
X179798Y196696D01*
X179520Y196510D01*
X178545Y196928D01*
X178520Y196953D01*
Y198078D01*
X179422Y198980D01*
X183941D01*
X184117Y198716D01*
X184707Y198322D01*
X185402Y198184D01*
X191701D01*
X192396Y198322D01*
X192985Y198716D01*
X193378Y199305D01*
X193517Y200000D01*
X193378Y200695D01*
X192985Y201284D01*
X192396Y201678D01*
X191701Y201816D01*
X185402D01*
X184707Y201678D01*
X184117Y201284D01*
X183941Y201020D01*
X179000D01*
X178610Y200942D01*
X178279Y200721D01*
X178250Y200692D01*
X171721Y207221D01*
X171390Y207442D01*
X171000Y207520D01*
X162984D01*
X162798Y207798D01*
X162202Y208196D01*
X162077Y208221D01*
X161748Y209306D01*
X166422Y213980D01*
X183941D01*
X184117Y213716D01*
D02*
G37*
G36*
X192392Y348900D02*
X195614D01*
Y339667D01*
X195568Y339657D01*
X195222Y339427D01*
X194992Y339082D01*
X194911Y338675D01*
Y336018D01*
X194957Y335788D01*
X194744Y335575D01*
Y332425D01*
X194957Y332212D01*
X194911Y331982D01*
Y329325D01*
X194992Y328918D01*
X195222Y328573D01*
X195306Y328518D01*
X195542Y327607D01*
X195532Y327330D01*
X195005Y326802D01*
X194806Y326505D01*
X194736Y326154D01*
Y322529D01*
X193971D01*
Y320961D01*
X193571D01*
Y319969D01*
X195654D01*
Y318969D01*
X193571D01*
Y317976D01*
X193971D01*
Y316408D01*
X194736D01*
Y313534D01*
X193351Y312149D01*
X193152Y311851D01*
X193082Y311500D01*
Y310239D01*
X192474D01*
X192068Y310157D01*
X191723Y309927D01*
X191492Y309582D01*
X191411Y309175D01*
Y306518D01*
X191457Y306288D01*
X191244Y306075D01*
Y302925D01*
X191457Y302712D01*
X191411Y302482D01*
Y299825D01*
X191492Y299418D01*
X191723Y299073D01*
X192068Y298843D01*
X192474Y298762D01*
X192980D01*
Y296500D01*
X193058Y296110D01*
X193279Y295779D01*
X195106Y293952D01*
Y286188D01*
X194106Y286122D01*
X194033Y286679D01*
X193771Y287311D01*
X193354Y287854D01*
X192811Y288271D01*
X192179Y288533D01*
X191500Y288622D01*
X190821Y288533D01*
X190189Y288271D01*
X189646Y287854D01*
X189229Y287311D01*
X188967Y286679D01*
X188878Y286000D01*
X188967Y285321D01*
X189229Y284689D01*
X189454Y284396D01*
X188527Y283469D01*
X187560Y283374D01*
X187230Y283450D01*
X186811Y283771D01*
X186179Y284033D01*
X185500Y284122D01*
X184821Y284033D01*
X184313Y283822D01*
X184045Y283871D01*
X183974Y283901D01*
X183270Y284327D01*
X183196Y284702D01*
X182798Y285298D01*
X182202Y285696D01*
X181500Y285835D01*
X180798Y285696D01*
X180202Y285298D01*
X180016Y285020D01*
X177922D01*
X176375Y286567D01*
X176044Y286788D01*
X175654Y286866D01*
X172589D01*
Y287175D01*
X172508Y287582D01*
X172277Y287927D01*
X171978Y288127D01*
Y290471D01*
X172082Y290492D01*
X172427Y290722D01*
X172658Y291068D01*
X172739Y291474D01*
Y294526D01*
X172658Y294933D01*
X172427Y295278D01*
X172082Y295508D01*
X171978Y295529D01*
Y298471D01*
X172082Y298492D01*
X172427Y298723D01*
X172658Y299068D01*
X172739Y299475D01*
Y302526D01*
X173034Y302863D01*
X174203Y302909D01*
X174292Y302859D01*
X174304Y302798D01*
X174702Y302202D01*
X175298Y301804D01*
X176000Y301665D01*
X176702Y301804D01*
X177298Y302202D01*
X177696Y302798D01*
X177835Y303500D01*
X177696Y304202D01*
X177298Y304798D01*
X176702Y305196D01*
X176589Y305218D01*
X175654Y306153D01*
X175124Y306507D01*
X174500Y306631D01*
X173020D01*
X172739Y306974D01*
Y310026D01*
X172658Y310433D01*
X172427Y310777D01*
X172082Y311008D01*
X171675Y311089D01*
X169018D01*
X168788Y311043D01*
X168575Y311256D01*
X165738D01*
X165545Y311385D01*
X164982Y311497D01*
X164154D01*
Y308500D01*
Y305503D01*
X164982D01*
X165545Y305615D01*
X165738Y305744D01*
X168575D01*
X168715Y304802D01*
Y303814D01*
X168575Y303756D01*
X165738D01*
X165545Y303885D01*
X164982Y303997D01*
X164154D01*
Y301000D01*
Y298003D01*
X164982D01*
X165545Y298115D01*
X165738Y298244D01*
X168575D01*
X168715Y298186D01*
Y295814D01*
X168575Y295756D01*
X165738D01*
X165545Y295885D01*
X164982Y295997D01*
X164154D01*
Y293000D01*
Y290003D01*
X164982D01*
X165545Y290115D01*
X165738Y290244D01*
X168575D01*
X168715Y290186D01*
Y288239D01*
X168474D01*
X168068Y288158D01*
X167722Y287927D01*
X167492Y287582D01*
X167411Y287175D01*
Y284518D01*
X167457Y284288D01*
X167244Y284075D01*
Y280925D01*
X167457Y280712D01*
X167411Y280482D01*
Y277825D01*
X167492Y277418D01*
X167722Y277073D01*
X168068Y276842D01*
X168474Y276762D01*
X168980D01*
Y276000D01*
X169058Y275610D01*
X169279Y275279D01*
X172980Y271578D01*
Y269301D01*
X172743Y269076D01*
X171980Y268647D01*
X171846Y268673D01*
X171637D01*
X171451Y268951D01*
X170856Y269349D01*
X170153Y269489D01*
X169451Y269349D01*
X168856Y268951D01*
X168458Y268356D01*
X168318Y267653D01*
X168458Y266951D01*
X168525Y266851D01*
X168113Y265963D01*
X167168Y265803D01*
X167045Y265885D01*
X166482Y265997D01*
X165654D01*
Y263000D01*
X165154D01*
Y262500D01*
X162354D01*
Y261474D01*
X161616Y260520D01*
X137000D01*
X136610Y260442D01*
X136279Y260221D01*
X130779Y254721D01*
X130558Y254390D01*
X130480Y254000D01*
Y245085D01*
X129974D01*
X129568Y245004D01*
X129223Y244774D01*
X128992Y244429D01*
X128911Y244022D01*
Y241364D01*
X128507Y240442D01*
X128177Y240221D01*
X127975Y240020D01*
X124328D01*
X124024Y241020D01*
X124298Y241202D01*
X124696Y241798D01*
X124835Y242500D01*
X124696Y243202D01*
X124298Y243798D01*
X123969Y244018D01*
Y265099D01*
X128401Y269531D01*
X156982D01*
X157202Y269202D01*
X157798Y268804D01*
X158500Y268665D01*
X159202Y268804D01*
X159798Y269202D01*
X160196Y269798D01*
X160335Y270500D01*
X160196Y271202D01*
X159798Y271798D01*
X159202Y272196D01*
X158500Y272335D01*
X157798Y272196D01*
X157202Y271798D01*
X156982Y271469D01*
X128000D01*
X127629Y271395D01*
X127315Y271185D01*
X122315Y266185D01*
X122105Y265871D01*
X122031Y265500D01*
Y244018D01*
X121702Y243798D01*
X121304Y243202D01*
X121165Y242500D01*
X121304Y241798D01*
X121702Y241202D01*
X121976Y241020D01*
X121672Y240020D01*
X114474D01*
X114145Y240815D01*
X113568Y241567D01*
X112815Y242145D01*
X111940Y242507D01*
X111000Y242631D01*
X106000D01*
X105060Y242507D01*
X104184Y242145D01*
X103432Y241567D01*
X102855Y240815D01*
X102493Y239940D01*
X101539Y240136D01*
Y247864D01*
X102493Y248060D01*
X102855Y247184D01*
X103432Y246432D01*
X104184Y245855D01*
X105060Y245493D01*
X106000Y245369D01*
X111000D01*
X111940Y245493D01*
X112815Y245855D01*
X113568Y246432D01*
X114145Y247184D01*
X114507Y248060D01*
X114631Y249000D01*
X114507Y249940D01*
X114145Y250816D01*
X113568Y251568D01*
X112815Y252145D01*
X111940Y252507D01*
X111000Y252631D01*
X106000D01*
X105060Y252507D01*
X104184Y252145D01*
X103432Y251568D01*
X102855Y250816D01*
X102493Y249940D01*
X101539Y250136D01*
Y257864D01*
X102493Y258060D01*
X102855Y257185D01*
X103432Y256433D01*
X104184Y255855D01*
X105060Y255493D01*
X106000Y255369D01*
X111000D01*
X111940Y255493D01*
X112815Y255855D01*
X113568Y256433D01*
X114145Y257185D01*
X114507Y258060D01*
X114631Y259000D01*
X114507Y259940D01*
X114145Y260816D01*
X113568Y261567D01*
X112815Y262145D01*
X111940Y262507D01*
X111000Y262631D01*
X106000D01*
X105060Y262507D01*
X104184Y262145D01*
X103432Y261567D01*
X102855Y260816D01*
X102493Y259940D01*
X101539Y260136D01*
Y266600D01*
X102438Y266948D01*
X102539Y266940D01*
X103147Y266147D01*
X103983Y265506D01*
X104956Y265103D01*
X106000Y264966D01*
X108000D01*
Y269000D01*
Y273035D01*
X106000D01*
X104956Y272897D01*
X103983Y272494D01*
X103147Y271853D01*
X102539Y271060D01*
X102438Y271052D01*
X101539Y271400D01*
Y277864D01*
X102493Y278060D01*
X102855Y277185D01*
X103432Y276432D01*
X104184Y275855D01*
X105060Y275493D01*
X106000Y275369D01*
X111000D01*
X111940Y275493D01*
X112815Y275855D01*
X113568Y276432D01*
X114145Y277185D01*
X114507Y278060D01*
X114631Y279000D01*
X114507Y279940D01*
X114145Y280816D01*
X113568Y281568D01*
X112815Y282145D01*
X111940Y282507D01*
X111000Y282631D01*
X106000D01*
X105060Y282507D01*
X104184Y282145D01*
X103432Y281568D01*
X102855Y280816D01*
X102493Y279940D01*
X101539Y280136D01*
Y286600D01*
X102438Y286948D01*
X102539Y286940D01*
X103147Y286147D01*
X103983Y285506D01*
X104956Y285103D01*
X106000Y284965D01*
X108000D01*
Y289000D01*
Y293035D01*
X106000D01*
X104956Y292897D01*
X103983Y292494D01*
X103147Y291853D01*
X102539Y291060D01*
X102438Y291052D01*
X101539Y291400D01*
Y297864D01*
X102493Y298060D01*
X102855Y297184D01*
X103432Y296432D01*
X104184Y295855D01*
X105060Y295493D01*
X106000Y295369D01*
X111000D01*
X111940Y295493D01*
X112815Y295855D01*
X113568Y296432D01*
X114145Y297184D01*
X114474Y297980D01*
X124261D01*
Y297474D01*
X124343Y297067D01*
X124573Y296723D01*
X124918Y296492D01*
X125325Y296411D01*
X127982D01*
X128212Y296457D01*
X128425Y296244D01*
X131575D01*
X131788Y296457D01*
X132018Y296411D01*
X134675D01*
X135082Y296492D01*
X135427Y296723D01*
X135658Y297067D01*
X135739Y297474D01*
Y297980D01*
X138016D01*
X138202Y297702D01*
X138798Y297304D01*
X139500Y297165D01*
X140202Y297304D01*
X140798Y297702D01*
X141196Y298298D01*
X141335Y299000D01*
X141196Y299702D01*
X140798Y300298D01*
X140202Y300696D01*
X139500Y300835D01*
X138798Y300696D01*
X138202Y300298D01*
X138016Y300020D01*
X135739D01*
Y300526D01*
X135658Y300933D01*
X135427Y301277D01*
X135082Y301508D01*
X134675Y301589D01*
X132018D01*
X131788Y301543D01*
X131575Y301756D01*
X128425D01*
X128212Y301543D01*
X127982Y301589D01*
X125325D01*
X124918Y301508D01*
X124573Y301277D01*
X124343Y300933D01*
X124261Y300526D01*
Y300020D01*
X114474D01*
X114145Y300816D01*
X113568Y301568D01*
X112815Y302145D01*
X111940Y302507D01*
X111000Y302631D01*
X106000D01*
X105060Y302507D01*
X104184Y302145D01*
X103432Y301568D01*
X102855Y300816D01*
X102493Y299940D01*
X101539Y300136D01*
Y306600D01*
X102438Y306948D01*
X102539Y306940D01*
X103147Y306147D01*
X103983Y305506D01*
X104956Y305103D01*
X106000Y304965D01*
X108000D01*
Y309000D01*
Y313035D01*
X106000D01*
X104956Y312897D01*
X103983Y312494D01*
X103147Y311853D01*
X102539Y311060D01*
X102438Y311052D01*
X101539Y311400D01*
Y315064D01*
X102400Y315400D01*
X102539Y315400D01*
X114600D01*
Y322600D01*
X102539D01*
X102400Y322600D01*
X101539Y322936D01*
Y367961D01*
X174492D01*
Y360000D01*
X180246D01*
X186000D01*
Y367961D01*
X192392D01*
Y348900D01*
D02*
G37*
G36*
X304461Y323000D02*
X299000D01*
Y319000D01*
Y315000D01*
X304461D01*
Y312046D01*
X303899Y311745D01*
X303461Y311649D01*
X302816Y312145D01*
X301940Y312507D01*
X301000Y312631D01*
X296000D01*
X295060Y312507D01*
X294184Y312145D01*
X293432Y311567D01*
X292855Y310816D01*
X292493Y309940D01*
X292369Y309000D01*
X292493Y308060D01*
X292855Y307185D01*
X293432Y306433D01*
X294184Y305855D01*
X295060Y305493D01*
X296000Y305369D01*
X301000D01*
X301940Y305493D01*
X302816Y305855D01*
X303461Y306351D01*
X303899Y306255D01*
X304461Y305954D01*
Y302046D01*
X303899Y301745D01*
X303461Y301649D01*
X302816Y302145D01*
X301940Y302507D01*
X301000Y302631D01*
X296000D01*
X295060Y302507D01*
X294184Y302145D01*
X293432Y301568D01*
X292855Y300816D01*
X292493Y299940D01*
X292369Y299000D01*
X292493Y298060D01*
X292855Y297184D01*
X293432Y296432D01*
X294184Y295855D01*
X295060Y295493D01*
X296000Y295369D01*
X301000D01*
X301940Y295493D01*
X302816Y295855D01*
X303461Y296351D01*
X303899Y296255D01*
X304461Y295954D01*
Y292647D01*
X303461Y292154D01*
X303017Y292494D01*
X302044Y292897D01*
X301000Y293035D01*
X299000D01*
Y289000D01*
Y284965D01*
X301000D01*
X302044Y285103D01*
X303017Y285506D01*
X303461Y285846D01*
X304461Y285353D01*
Y282046D01*
X303899Y281745D01*
X303461Y281649D01*
X302816Y282145D01*
X301940Y282507D01*
X301000Y282631D01*
X296000D01*
X295060Y282507D01*
X294184Y282145D01*
X293432Y281568D01*
X292855Y280816D01*
X292779Y280631D01*
X289176D01*
X265154Y304654D01*
X264624Y305007D01*
X264000Y305131D01*
X257298D01*
X257202Y305196D01*
X256500Y305335D01*
X255798Y305196D01*
X255202Y304798D01*
X254804Y304202D01*
X254665Y303500D01*
X254804Y302798D01*
X255202Y302202D01*
X255798Y301804D01*
X256500Y301665D01*
X257202Y301804D01*
X257298Y301869D01*
X263324D01*
X286193Y279000D01*
X285846Y278654D01*
X285493Y278124D01*
X285369Y277500D01*
Y271000D01*
X285493Y270376D01*
X285846Y269847D01*
X287846Y267846D01*
X288376Y267493D01*
X289000Y267369D01*
X292779D01*
X292855Y267184D01*
X293432Y266432D01*
X294184Y265855D01*
X295060Y265493D01*
X296000Y265369D01*
X301000D01*
X301940Y265493D01*
X302816Y265855D01*
X303461Y266351D01*
X303899Y266255D01*
X304461Y265954D01*
Y262647D01*
X303461Y262154D01*
X303017Y262494D01*
X302044Y262897D01*
X301000Y263035D01*
X299000D01*
Y259000D01*
Y254965D01*
X301000D01*
X302044Y255103D01*
X303017Y255506D01*
X303461Y255846D01*
X304461Y255353D01*
Y252046D01*
X303899Y251745D01*
X303461Y251649D01*
X302816Y252145D01*
X301940Y252507D01*
X301000Y252631D01*
X296000D01*
X295060Y252507D01*
X294184Y252145D01*
X293432Y251568D01*
X292855Y250816D01*
X292493Y249940D01*
X292369Y249000D01*
X292493Y248060D01*
X292855Y247184D01*
X293432Y246432D01*
X294184Y245855D01*
X295060Y245493D01*
X296000Y245369D01*
X301000D01*
X301940Y245493D01*
X302816Y245855D01*
X303461Y246351D01*
X303899Y246255D01*
X304461Y245954D01*
Y242647D01*
X303461Y242154D01*
X303017Y242494D01*
X302044Y242897D01*
X301000Y243035D01*
X299000D01*
Y239000D01*
Y234965D01*
X301000D01*
X302044Y235103D01*
X303017Y235506D01*
X303461Y235846D01*
X304461Y235353D01*
Y232647D01*
X303461Y232154D01*
X303017Y232494D01*
X302044Y232897D01*
X301000Y233034D01*
X299000D01*
Y229000D01*
Y224966D01*
X301000D01*
X302044Y225103D01*
X303017Y225506D01*
X303461Y225846D01*
X304461Y225353D01*
Y222046D01*
X303899Y221745D01*
X303461Y221649D01*
X302816Y222145D01*
X301940Y222507D01*
X301000Y222631D01*
X296000D01*
X295060Y222507D01*
X294184Y222145D01*
X293432Y221568D01*
X292855Y220815D01*
X292493Y219940D01*
X292369Y219000D01*
X292493Y218060D01*
X292855Y217184D01*
X293432Y216432D01*
X294184Y215855D01*
X295060Y215493D01*
X296000Y215369D01*
X301000D01*
X301940Y215493D01*
X302816Y215855D01*
X303461Y216351D01*
X303899Y216255D01*
X304461Y215954D01*
Y212046D01*
X303899Y211745D01*
X303461Y211649D01*
X302816Y212145D01*
X301940Y212507D01*
X301000Y212631D01*
X296000D01*
X295060Y212507D01*
X294184Y212145D01*
X293432Y211567D01*
X292855Y210816D01*
X292493Y209940D01*
X292369Y209000D01*
X292493Y208060D01*
X292855Y207185D01*
X293432Y206433D01*
X294184Y205855D01*
X295060Y205493D01*
X296000Y205369D01*
X301000D01*
X301940Y205493D01*
X302816Y205855D01*
X303461Y206351D01*
X303899Y206255D01*
X304461Y205954D01*
Y202046D01*
X303899Y201745D01*
X303461Y201649D01*
X302816Y202145D01*
X301940Y202507D01*
X301000Y202631D01*
X296000D01*
X295060Y202507D01*
X294184Y202145D01*
X293432Y201568D01*
X292855Y200816D01*
X292493Y199940D01*
X292369Y199000D01*
X292493Y198060D01*
X292855Y197185D01*
X293432Y196432D01*
X294184Y195855D01*
X295060Y195493D01*
X296000Y195369D01*
X301000D01*
X301940Y195493D01*
X302816Y195855D01*
X303461Y196351D01*
X303899Y196255D01*
X304461Y195954D01*
Y192046D01*
X303899Y191745D01*
X303461Y191649D01*
X302816Y192145D01*
X301940Y192507D01*
X301000Y192631D01*
X296000D01*
X295060Y192507D01*
X294184Y192145D01*
X293432Y191568D01*
X292855Y190815D01*
X292493Y189940D01*
X292369Y189000D01*
X292493Y188060D01*
X292855Y187185D01*
X293432Y186432D01*
X294184Y185855D01*
X295060Y185493D01*
X296000Y185369D01*
X301000D01*
X301940Y185493D01*
X302816Y185855D01*
X303461Y186351D01*
X303899Y186255D01*
X304461Y185954D01*
Y182046D01*
X303899Y181745D01*
X303461Y181649D01*
X302816Y182145D01*
X301940Y182507D01*
X301000Y182631D01*
X296000D01*
X295060Y182507D01*
X294184Y182145D01*
X293432Y181568D01*
X292855Y180815D01*
X292493Y179940D01*
X292369Y179000D01*
X292493Y178060D01*
X292855Y177184D01*
X293432Y176432D01*
X294184Y175855D01*
X295060Y175493D01*
X296000Y175369D01*
X301000D01*
X301940Y175493D01*
X302816Y175855D01*
X303461Y176351D01*
X303899Y176255D01*
X304461Y175954D01*
Y172647D01*
X303461Y172154D01*
X303017Y172494D01*
X302044Y172897D01*
X301000Y173035D01*
X299000D01*
Y169000D01*
Y164965D01*
X301000D01*
X302044Y165103D01*
X303017Y165506D01*
X303461Y165846D01*
X304461Y165353D01*
Y162647D01*
X303461Y162154D01*
X303017Y162494D01*
X302044Y162897D01*
X301000Y163034D01*
X299000D01*
Y159000D01*
Y154965D01*
X301000D01*
X302044Y155103D01*
X303017Y155506D01*
X303461Y155846D01*
X304461Y155353D01*
Y152046D01*
X303899Y151745D01*
X303461Y151649D01*
X302816Y152145D01*
X301940Y152507D01*
X301000Y152631D01*
X296000D01*
X295060Y152507D01*
X294184Y152145D01*
X293432Y151568D01*
X292855Y150815D01*
X292493Y149940D01*
X292490Y149918D01*
X284380D01*
X277918Y156380D01*
Y272000D01*
X277848Y272351D01*
X277649Y272649D01*
X273582Y276716D01*
X273284Y276915D01*
X272933Y276985D01*
X218500D01*
X218149Y276915D01*
X217851Y276716D01*
X211001Y269865D01*
X210017D01*
X209258Y270073D01*
X209050Y270832D01*
Y273870D01*
X208966Y274296D01*
X208855Y274463D01*
Y277057D01*
X211052Y279254D01*
X211500Y279165D01*
X212202Y279304D01*
X212798Y279702D01*
X213196Y280298D01*
X213335Y281000D01*
X213196Y281702D01*
X212798Y282298D01*
X212202Y282696D01*
X211500Y282835D01*
X210798Y282696D01*
X210202Y282298D01*
X209812Y281714D01*
X209755Y281704D01*
X208790Y281728D01*
X208696Y282202D01*
X208298Y282798D01*
X207702Y283196D01*
X207000Y283335D01*
X206751Y283286D01*
X205775Y283824D01*
X205655Y283969D01*
X205638Y284096D01*
X205798Y284202D01*
X206196Y284798D01*
X206335Y285500D01*
X206196Y286202D01*
X205798Y286798D01*
X205202Y287196D01*
X204500Y287335D01*
X203798Y287196D01*
X203202Y286798D01*
X202804Y286202D01*
X202665Y285500D01*
X202804Y284798D01*
X203082Y284382D01*
Y284053D01*
X202082Y283319D01*
X202000Y283335D01*
X201298Y283196D01*
X200702Y282798D01*
X200304Y282202D01*
X200165Y281500D01*
X200304Y280798D01*
X200702Y280202D01*
X201114Y279927D01*
Y276074D01*
X200563Y275692D01*
Y272000D01*
X199563D01*
Y275787D01*
X199114Y276142D01*
Y294172D01*
X200721Y295779D01*
X200942Y296110D01*
X201020Y296500D01*
Y298762D01*
X201526D01*
X201933Y298843D01*
X202277Y299073D01*
X202508Y299418D01*
X202589Y299825D01*
Y302482D01*
X202543Y302712D01*
X202756Y302925D01*
Y306075D01*
X202543Y306288D01*
X202589Y306518D01*
Y309175D01*
X202508Y309582D01*
X202277Y309927D01*
X201933Y310157D01*
X201526Y310239D01*
X200918D01*
Y312000D01*
X200848Y312351D01*
X200649Y312649D01*
X199918Y313380D01*
Y316408D01*
X200683D01*
Y317604D01*
X201011Y317833D01*
X201683Y318047D01*
X202093Y317773D01*
X202795Y317633D01*
X203498Y317773D01*
X204093Y318171D01*
X204491Y318766D01*
X204631Y319469D01*
X204491Y320171D01*
X204093Y320766D01*
X203498Y321164D01*
X202795Y321304D01*
X202093Y321164D01*
X201683Y320890D01*
X201011Y321105D01*
X200683Y321333D01*
Y322529D01*
X196571D01*
Y325774D01*
X198149Y327351D01*
X198348Y327649D01*
X198418Y328000D01*
Y328261D01*
X199026D01*
X199433Y328343D01*
X199777Y328573D01*
X200008Y328918D01*
X200089Y329325D01*
Y331982D01*
X200043Y332212D01*
X200256Y332425D01*
Y335575D01*
X200043Y335788D01*
X200089Y336018D01*
Y338675D01*
X200008Y339082D01*
X199777Y339427D01*
X199433Y339657D01*
X199386Y339667D01*
Y348900D01*
X202608D01*
Y367961D01*
X209000D01*
Y360000D01*
X214754D01*
X220508D01*
Y367961D01*
X304461D01*
Y323000D01*
D02*
G37*
%LPC*%
G36*
X154154Y191500D02*
X151854D01*
Y190474D01*
X151966Y189911D01*
X152285Y189434D01*
X152762Y189115D01*
X153325Y189003D01*
X154154D01*
Y191500D01*
D02*
G37*
G36*
Y194997D02*
X153325D01*
X152762Y194885D01*
X152285Y194566D01*
X151966Y194089D01*
X151854Y193526D01*
Y192500D01*
X154154D01*
Y194997D01*
D02*
G37*
G36*
X156026Y229646D02*
X155000D01*
Y227346D01*
X157497D01*
Y228175D01*
X157385Y228738D01*
X157066Y229216D01*
X156589Y229534D01*
X156026Y229646D01*
D02*
G37*
G36*
X154000D02*
X152974D01*
X152411Y229534D01*
X151934Y229216D01*
X151615Y228738D01*
X151503Y228175D01*
Y227346D01*
X154000D01*
Y229646D01*
D02*
G37*
G36*
X252500Y246646D02*
X251474D01*
X250911Y246534D01*
X250434Y246216D01*
X250115Y245738D01*
X250003Y245175D01*
Y244346D01*
X252500D01*
Y246646D01*
D02*
G37*
G36*
X254526D02*
X253500D01*
Y244346D01*
X255997D01*
Y245175D01*
X255885Y245738D01*
X255566Y246216D01*
X255089Y246534D01*
X254526Y246646D01*
D02*
G37*
G36*
X255997Y243347D02*
X253000D01*
X250003D01*
Y242518D01*
X250115Y241955D01*
X250244Y241762D01*
Y238925D01*
X250457Y238712D01*
X250411Y238482D01*
Y235825D01*
X250492Y235418D01*
X250723Y235073D01*
X251067Y234842D01*
X251114Y234833D01*
Y232500D01*
X251257Y231778D01*
X251666Y231166D01*
X252278Y230757D01*
X253000Y230614D01*
X253722Y230757D01*
X254334Y231166D01*
X254743Y231778D01*
X254886Y232500D01*
Y234833D01*
X254932Y234842D01*
X255277Y235073D01*
X255508Y235418D01*
X255589Y235825D01*
Y238482D01*
X255543Y238712D01*
X255756Y238925D01*
Y241762D01*
X255885Y241955D01*
X255997Y242518D01*
Y243347D01*
D02*
G37*
G36*
X230675Y269497D02*
X229847D01*
Y267000D01*
X232146D01*
Y268026D01*
X232034Y268589D01*
X231715Y269066D01*
X231238Y269385D01*
X230675Y269497D01*
D02*
G37*
G36*
X232146Y259500D02*
X229847D01*
Y257003D01*
X230675D01*
X231238Y257115D01*
X231715Y257434D01*
X232034Y257911D01*
X232146Y258474D01*
Y259500D01*
D02*
G37*
G36*
X240500Y148654D02*
X238003D01*
Y147825D01*
X238115Y147262D01*
X238434Y146785D01*
X238911Y146466D01*
X239474Y146354D01*
X240500D01*
Y148654D01*
D02*
G37*
G36*
X243997D02*
X241500D01*
Y146354D01*
X242526D01*
X243089Y146466D01*
X243566Y146785D01*
X243885Y147262D01*
X243997Y147825D01*
Y148654D01*
D02*
G37*
G36*
X241000Y162835D02*
X240298Y162696D01*
X239702Y162298D01*
X239304Y161702D01*
X239165Y161000D01*
X239304Y160298D01*
X239369Y160202D01*
Y158217D01*
X239068Y158158D01*
X238722Y157927D01*
X238492Y157582D01*
X238411Y157175D01*
Y154518D01*
X238457Y154288D01*
X238244Y154075D01*
Y151238D01*
X238115Y151045D01*
X238003Y150482D01*
Y149654D01*
X243997D01*
Y150482D01*
X243885Y151045D01*
X243756Y151238D01*
Y154075D01*
X243543Y154288D01*
X243589Y154518D01*
Y157175D01*
X243508Y157582D01*
X243278Y157927D01*
X242933Y158158D01*
X242631Y158217D01*
Y160202D01*
X242696Y160298D01*
X242835Y161000D01*
X242696Y161702D01*
X242298Y162298D01*
X241702Y162696D01*
X241000Y162835D01*
D02*
G37*
G36*
X153825Y166000D02*
X149051D01*
Y164276D01*
X151701D01*
X152552Y164445D01*
X153273Y164927D01*
X153755Y165649D01*
X153825Y166000D01*
D02*
G37*
G36*
X111000Y183035D02*
X109000D01*
Y179500D01*
X114969D01*
X114897Y180044D01*
X114494Y181017D01*
X113853Y181853D01*
X113017Y182494D01*
X112044Y182897D01*
X111000Y183035D01*
D02*
G37*
G36*
X114969Y178500D02*
X109000D01*
Y174966D01*
X111000D01*
X112044Y175103D01*
X113017Y175506D01*
X113853Y176147D01*
X114494Y176983D01*
X114897Y177956D01*
X114969Y178500D01*
D02*
G37*
G36*
X111000Y173035D02*
X109000D01*
Y169500D01*
X114969D01*
X114897Y170044D01*
X114494Y171017D01*
X113853Y171853D01*
X113017Y172494D01*
X112044Y172897D01*
X111000Y173035D01*
D02*
G37*
G36*
X199000Y115469D02*
Y109500D01*
X202535D01*
Y111500D01*
X202397Y112544D01*
X201994Y113517D01*
X201353Y114353D01*
X200517Y114994D01*
X199544Y115397D01*
X199000Y115469D01*
D02*
G37*
G36*
X112500Y115500D02*
X109000D01*
Y109500D01*
X112500D01*
Y115500D01*
D02*
G37*
G36*
X198500Y152140D02*
X196444Y151979D01*
X194439Y151497D01*
X192534Y150708D01*
X190776Y149631D01*
X189208Y148292D01*
X187869Y146724D01*
X186792Y144966D01*
X186003Y143061D01*
X185521Y141056D01*
X185360Y139000D01*
X185521Y136944D01*
X186003Y134939D01*
X186792Y133034D01*
X187869Y131276D01*
X189208Y129708D01*
X190776Y128369D01*
X192534Y127292D01*
X194439Y126503D01*
X196444Y126021D01*
X198500Y125859D01*
X200556Y126021D01*
X202561Y126503D01*
X204466Y127292D01*
X206224Y128369D01*
X207792Y129708D01*
X209131Y131276D01*
X210208Y133034D01*
X210997Y134939D01*
X211479Y136944D01*
X211641Y139000D01*
X211479Y141056D01*
X210997Y143061D01*
X210208Y144966D01*
X209131Y146724D01*
X207792Y148292D01*
X206224Y149631D01*
X204466Y150708D01*
X202561Y151497D01*
X200556Y151979D01*
X198500Y152140D01*
D02*
G37*
G36*
X189000Y115469D02*
Y109500D01*
X192534D01*
Y111500D01*
X192397Y112544D01*
X191994Y113517D01*
X191353Y114353D01*
X190517Y114994D01*
X189544Y115397D01*
X189000Y115469D01*
D02*
G37*
G36*
X188000D02*
X187456Y115397D01*
X186483Y114994D01*
X185647Y114353D01*
X185006Y113517D01*
X184603Y112544D01*
X184466Y111500D01*
Y109500D01*
X188000D01*
Y115469D01*
D02*
G37*
G36*
X198000D02*
X197456Y115397D01*
X196483Y114994D01*
X195647Y114353D01*
X195006Y113517D01*
X194603Y112544D01*
X194465Y111500D01*
Y109500D01*
X198000D01*
Y115469D01*
D02*
G37*
G36*
X108000Y115500D02*
X104500D01*
Y109500D01*
X108000D01*
Y115500D01*
D02*
G37*
G36*
X114969Y168500D02*
X109000D01*
Y164965D01*
X111000D01*
X112044Y165103D01*
X113017Y165506D01*
X113853Y166147D01*
X114494Y166983D01*
X114897Y167956D01*
X114969Y168500D01*
D02*
G37*
G36*
X188051Y184500D02*
X183277D01*
X183347Y184149D01*
X183829Y183428D01*
X184550Y182946D01*
X185402Y182776D01*
X188051D01*
Y184500D01*
D02*
G37*
G36*
X193825D02*
X189051D01*
Y182776D01*
X191701D01*
X192552Y182946D01*
X193273Y183428D01*
X193755Y184149D01*
X193825Y184500D01*
D02*
G37*
G36*
X179746Y359000D02*
X174492D01*
Y348500D01*
X179746D01*
Y359000D01*
D02*
G37*
G36*
X186000D02*
X180746D01*
Y348500D01*
X186000D01*
Y359000D01*
D02*
G37*
G36*
X163154Y300500D02*
X160854D01*
Y299475D01*
X160966Y298911D01*
X161284Y298434D01*
X161762Y298115D01*
X162325Y298003D01*
X163154D01*
Y300500D01*
D02*
G37*
G36*
X163154Y295997D02*
X162325D01*
X161762Y295885D01*
X161285Y295566D01*
X160966Y295089D01*
X160854Y294526D01*
Y293500D01*
X163154D01*
Y295997D01*
D02*
G37*
G36*
X114969Y308500D02*
X109000D01*
Y304965D01*
X111000D01*
X112044Y305103D01*
X113017Y305506D01*
X113853Y306147D01*
X114494Y306983D01*
X114897Y307956D01*
X114969Y308500D01*
D02*
G37*
G36*
X163154Y303997D02*
X162325D01*
X161762Y303885D01*
X161284Y303566D01*
X160966Y303089D01*
X160854Y302526D01*
Y301500D01*
X163154D01*
Y303997D01*
D02*
G37*
G36*
X111000Y293035D02*
X109000D01*
Y289500D01*
X114969D01*
X114897Y290044D01*
X114494Y291017D01*
X113853Y291853D01*
X113017Y292494D01*
X112044Y292897D01*
X111000Y293035D01*
D02*
G37*
G36*
X163154Y292500D02*
X160854D01*
Y291474D01*
X160966Y290911D01*
X161285Y290434D01*
X161762Y290115D01*
X162325Y290003D01*
X163154D01*
Y292500D01*
D02*
G37*
G36*
X135675Y316497D02*
X134846D01*
Y314000D01*
X137146D01*
Y315026D01*
X137034Y315589D01*
X136715Y316066D01*
X136238Y316385D01*
X135675Y316497D01*
D02*
G37*
G36*
X133846D02*
X133018D01*
X132455Y316385D01*
X132262Y316256D01*
X129425D01*
X129212Y316043D01*
X128982Y316089D01*
X126325D01*
X125918Y316008D01*
X125573Y315777D01*
X125342Y315433D01*
X125282Y315131D01*
X123798D01*
X123702Y315196D01*
X123000Y315335D01*
X122298Y315196D01*
X121702Y314798D01*
X121304Y314202D01*
X121165Y313500D01*
X121304Y312798D01*
X121702Y312202D01*
X122298Y311804D01*
X123000Y311665D01*
X123702Y311804D01*
X123798Y311869D01*
X125282D01*
X125342Y311567D01*
X125573Y311223D01*
X125918Y310992D01*
X126325Y310911D01*
X128982D01*
X129212Y310957D01*
X129425Y310744D01*
X132262D01*
X132455Y310615D01*
X133018Y310503D01*
X133846D01*
Y313500D01*
Y316497D01*
D02*
G37*
G36*
X163154Y311497D02*
X162325D01*
X161762Y311385D01*
X161285Y311066D01*
X160966Y310589D01*
X160854Y310026D01*
Y309000D01*
X163154D01*
Y311497D01*
D02*
G37*
G36*
Y308000D02*
X160854D01*
Y306974D01*
X160966Y306411D01*
X161285Y305934D01*
X161762Y305615D01*
X162325Y305503D01*
X163154D01*
Y308000D01*
D02*
G37*
G36*
X137146Y313000D02*
X134846D01*
Y310503D01*
X135675D01*
X136238Y310615D01*
X136715Y310934D01*
X137034Y311411D01*
X137146Y311974D01*
Y313000D01*
D02*
G37*
G36*
X111000Y313035D02*
X109000D01*
Y309500D01*
X114969D01*
X114897Y310044D01*
X114494Y311017D01*
X113853Y311853D01*
X113017Y312494D01*
X112044Y312897D01*
X111000Y313035D01*
D02*
G37*
G36*
X114969Y268500D02*
X109000D01*
Y264966D01*
X111000D01*
X112044Y265103D01*
X113017Y265506D01*
X113853Y266147D01*
X114494Y266983D01*
X114897Y267956D01*
X114969Y268500D01*
D02*
G37*
G36*
Y288500D02*
X109000D01*
Y284965D01*
X111000D01*
X112044Y285103D01*
X113017Y285506D01*
X113853Y286147D01*
X114494Y286983D01*
X114897Y287956D01*
X114969Y288500D01*
D02*
G37*
G36*
X111000Y273035D02*
X109000D01*
Y269500D01*
X114969D01*
X114897Y270044D01*
X114494Y271017D01*
X113853Y271853D01*
X113017Y272494D01*
X112044Y272897D01*
X111000Y273035D01*
D02*
G37*
G36*
X128500Y352140D02*
X126444Y351979D01*
X124439Y351497D01*
X122534Y350708D01*
X120776Y349631D01*
X119208Y348292D01*
X117869Y346724D01*
X116792Y344966D01*
X116003Y343061D01*
X115521Y341056D01*
X115359Y339000D01*
X115521Y336944D01*
X116003Y334939D01*
X116792Y333034D01*
X117869Y331276D01*
X119208Y329708D01*
X120776Y328369D01*
X122534Y327292D01*
X124439Y326503D01*
X126444Y326021D01*
X128500Y325859D01*
X130556Y326021D01*
X132561Y326503D01*
X134466Y327292D01*
X136224Y328369D01*
X137792Y329708D01*
X139131Y331276D01*
X140208Y333034D01*
X140997Y334939D01*
X141479Y336944D01*
X141640Y339000D01*
X141479Y341056D01*
X140997Y343061D01*
X140208Y344966D01*
X139131Y346724D01*
X137792Y348292D01*
X136224Y349631D01*
X134466Y350708D01*
X132561Y351497D01*
X130556Y351979D01*
X128500Y352140D01*
D02*
G37*
G36*
X164654Y265997D02*
X163825D01*
X163262Y265885D01*
X162785Y265566D01*
X162466Y265089D01*
X162354Y264526D01*
Y263500D01*
X164654D01*
Y265997D01*
D02*
G37*
G36*
X298000Y173035D02*
X296000D01*
X294956Y172897D01*
X293983Y172494D01*
X293147Y171853D01*
X292506Y171017D01*
X292103Y170044D01*
X292031Y169500D01*
X298000D01*
Y173035D01*
D02*
G37*
G36*
Y228500D02*
X292031D01*
X292103Y227956D01*
X292506Y226983D01*
X293147Y226147D01*
X293983Y225506D01*
X294956Y225103D01*
X296000Y224966D01*
X298000D01*
Y228500D01*
D02*
G37*
G36*
X220508Y359000D02*
X215254D01*
Y348500D01*
X220508D01*
Y359000D01*
D02*
G37*
G36*
X214254D02*
X209000D01*
Y348500D01*
X214254D01*
Y359000D01*
D02*
G37*
G36*
X298000Y168500D02*
X292031D01*
X292103Y167956D01*
X292506Y166983D01*
X293147Y166147D01*
X293983Y165506D01*
X294956Y165103D01*
X296000Y164965D01*
X298000D01*
Y168500D01*
D02*
G37*
G36*
Y163034D02*
X296000D01*
X294956Y162897D01*
X293983Y162494D01*
X293147Y161853D01*
X292506Y161017D01*
X292103Y160044D01*
X292031Y159500D01*
X298000D01*
Y163034D01*
D02*
G37*
G36*
Y158500D02*
X292031D01*
X292103Y157956D01*
X292506Y156983D01*
X293147Y156147D01*
X293983Y155506D01*
X294956Y155103D01*
X296000Y154965D01*
X298000D01*
Y158500D01*
D02*
G37*
G36*
Y288500D02*
X292031D01*
X292103Y287956D01*
X292506Y286983D01*
X293147Y286147D01*
X293983Y285506D01*
X294956Y285103D01*
X296000Y284965D01*
X298000D01*
Y288500D01*
D02*
G37*
G36*
Y293035D02*
X296000D01*
X294956Y292897D01*
X293983Y292494D01*
X293147Y291853D01*
X292506Y291017D01*
X292103Y290044D01*
X292031Y289500D01*
X298000D01*
Y293035D01*
D02*
G37*
G36*
Y318500D02*
X292000D01*
Y315000D01*
X298000D01*
Y318500D01*
D02*
G37*
G36*
Y323000D02*
X292000D01*
Y319500D01*
X298000D01*
Y323000D01*
D02*
G37*
G36*
X278500Y352140D02*
X276444Y351979D01*
X274439Y351497D01*
X272534Y350708D01*
X270776Y349631D01*
X269208Y348292D01*
X267869Y346724D01*
X266792Y344966D01*
X266003Y343061D01*
X265521Y341056D01*
X265359Y339000D01*
X265521Y336944D01*
X266003Y334939D01*
X266792Y333034D01*
X267869Y331276D01*
X269208Y329708D01*
X270776Y328369D01*
X272534Y327292D01*
X274439Y326503D01*
X276444Y326021D01*
X278500Y325859D01*
X280556Y326021D01*
X282561Y326503D01*
X284466Y327292D01*
X286224Y328369D01*
X287792Y329708D01*
X289131Y331276D01*
X290208Y333034D01*
X290997Y334939D01*
X291479Y336944D01*
X291640Y339000D01*
X291479Y341056D01*
X290997Y343061D01*
X290208Y344966D01*
X289131Y346724D01*
X287792Y348292D01*
X286224Y349631D01*
X284466Y350708D01*
X282561Y351497D01*
X280556Y351979D01*
X278500Y352140D01*
D02*
G37*
G36*
X298000Y258500D02*
X292031D01*
X292103Y257956D01*
X292506Y256983D01*
X293147Y256147D01*
X293983Y255506D01*
X294956Y255103D01*
X296000Y254965D01*
X298000D01*
Y258500D01*
D02*
G37*
G36*
Y233034D02*
X296000D01*
X294956Y232897D01*
X293983Y232494D01*
X293147Y231853D01*
X292506Y231017D01*
X292103Y230044D01*
X292031Y229500D01*
X298000D01*
Y233034D01*
D02*
G37*
G36*
Y243035D02*
X296000D01*
X294956Y242897D01*
X293983Y242494D01*
X293147Y241853D01*
X292506Y241017D01*
X292103Y240044D01*
X292031Y239500D01*
X298000D01*
Y243035D01*
D02*
G37*
G36*
Y238500D02*
X292031D01*
X292103Y237956D01*
X292506Y236983D01*
X293147Y236147D01*
X293983Y235506D01*
X294956Y235103D01*
X296000Y234965D01*
X298000D01*
Y238500D01*
D02*
G37*
G36*
Y263035D02*
X296000D01*
X294956Y262897D01*
X293983Y262494D01*
X293147Y261853D01*
X292506Y261017D01*
X292103Y260044D01*
X292031Y259500D01*
X298000D01*
Y263035D01*
D02*
G37*
%LPD*%
D10*
X161346Y201000D02*
D03*
X154654D02*
D03*
X200847Y227500D02*
D03*
X194153D02*
D03*
X161346Y154000D02*
D03*
X154654D02*
D03*
X222654Y260000D02*
D03*
X229346D02*
D03*
X171846Y263000D02*
D03*
X165154D02*
D03*
X222654Y266500D02*
D03*
X229346D02*
D03*
X134346Y313500D02*
D03*
X127654D02*
D03*
X163654Y308500D02*
D03*
X170346D02*
D03*
X163654Y301000D02*
D03*
X170346D02*
D03*
X163654Y293000D02*
D03*
X170347D02*
D03*
X133346Y299000D02*
D03*
X126654D02*
D03*
X154654Y192000D02*
D03*
X161346D02*
D03*
X143347Y199000D02*
D03*
X136653D02*
D03*
X143347Y209000D02*
D03*
X136653D02*
D03*
D11*
X131500Y242693D02*
D03*
Y236000D02*
D03*
X253000Y237154D02*
D03*
Y243847D02*
D03*
X197500Y337346D02*
D03*
Y330654D02*
D03*
X200000Y307846D02*
D03*
Y301154D02*
D03*
X194000Y307846D02*
D03*
Y301154D02*
D03*
X241000Y149154D02*
D03*
Y155846D02*
D03*
X170000Y279154D02*
D03*
Y285846D02*
D03*
X129000Y155847D02*
D03*
Y149153D02*
D03*
X131000Y176154D02*
D03*
Y182846D02*
D03*
X154500Y220153D02*
D03*
Y226847D02*
D03*
X145000Y226847D02*
D03*
Y220153D02*
D03*
D12*
X197110Y257925D02*
D03*
D13*
X211185Y268752D02*
D03*
Y266783D02*
D03*
Y264815D02*
D03*
Y262846D02*
D03*
Y260878D02*
D03*
Y258910D02*
D03*
Y256941D02*
D03*
Y254972D02*
D03*
Y253004D02*
D03*
Y251035D02*
D03*
Y249067D02*
D03*
Y247098D02*
D03*
X183035D02*
D03*
Y249067D02*
D03*
Y251035D02*
D03*
Y253004D02*
D03*
Y254972D02*
D03*
Y256941D02*
D03*
Y258910D02*
D03*
Y260878D02*
D03*
Y262846D02*
D03*
Y264815D02*
D03*
Y266783D02*
D03*
Y268752D02*
D03*
D14*
X207937Y243850D02*
D03*
X205968D02*
D03*
X204000D02*
D03*
X202031D02*
D03*
X200063D02*
D03*
X198094D02*
D03*
X196126D02*
D03*
X194158D02*
D03*
X192189D02*
D03*
X190220D02*
D03*
X188252D02*
D03*
X186284D02*
D03*
Y272000D02*
D03*
X188252D02*
D03*
X190220D02*
D03*
X192189D02*
D03*
X194158D02*
D03*
X196126D02*
D03*
X198094D02*
D03*
X200063D02*
D03*
X202031D02*
D03*
X204000D02*
D03*
X205968D02*
D03*
X207937D02*
D03*
D15*
X188551Y215000D02*
D03*
Y210000D02*
D03*
Y205000D02*
D03*
Y200000D02*
D03*
Y195000D02*
D03*
Y190000D02*
D03*
Y185000D02*
D03*
X207449Y215000D02*
D03*
Y210000D02*
D03*
Y205000D02*
D03*
Y200000D02*
D03*
Y195000D02*
D03*
Y190000D02*
D03*
Y185000D02*
D03*
X167449Y166500D02*
D03*
Y171500D02*
D03*
Y176500D02*
D03*
Y181500D02*
D03*
X148551Y166500D02*
D03*
Y171500D02*
D03*
Y176500D02*
D03*
Y181500D02*
D03*
D16*
X180246Y359500D02*
D03*
X214754D02*
D03*
D17*
X197500D02*
D03*
D18*
X199000Y321437D02*
D03*
Y319469D02*
D03*
Y317500D02*
D03*
X195654Y321437D02*
D03*
Y319469D02*
D03*
Y317500D02*
D03*
D19*
X158000Y183500D02*
Y197000D01*
X154654Y200346D02*
X158000Y197000D01*
X154654Y200346D02*
Y201000D01*
X158000Y204346D01*
Y207000D01*
X161346Y196846D02*
X161346Y196846D01*
Y201000D01*
X195000Y212000D02*
Y218500D01*
X193000Y210000D02*
X195000Y212000D01*
X188551Y210000D02*
X193000D01*
X142500Y181500D02*
X148551D01*
X141500Y182500D02*
X142500Y181500D01*
X141000Y182500D02*
X141500D01*
X144000Y154000D02*
X154654D01*
X148000Y143000D02*
X162000D01*
X167449Y148000D02*
Y166500D01*
X167000Y148000D02*
X167449D01*
X162000Y143000D02*
X167000Y148000D01*
X167449Y166500D02*
X215000D01*
X207449Y200000D02*
X216000D01*
X215000Y166500D02*
X218000Y169500D01*
Y198000D01*
X216000Y200000D02*
X218000Y198000D01*
X199276Y260090D02*
X203606D01*
X197110Y257925D02*
X199276Y260090D01*
X200063Y260878D01*
X171846Y263000D02*
X172000Y262846D01*
X180500Y195000D02*
X188551D01*
X183500Y190000D02*
X188551D01*
X180500Y193000D02*
X183500Y190000D01*
X180500Y193000D02*
Y195000D01*
X176500Y171500D02*
X180000Y175000D01*
X167449Y171500D02*
X176500D01*
X161500Y169000D02*
X191449D01*
X180000Y175000D02*
Y183000D01*
X177500Y185500D02*
X180000Y183000D01*
X148551Y176500D02*
X154000D01*
X161500Y169000D01*
X137500Y180500D02*
X141500Y176500D01*
X148551D01*
X177500Y185500D02*
Y198500D01*
X179000Y200000D02*
X188551D01*
X148551Y181500D02*
X156000D01*
X177185Y264815D02*
X183035D01*
X172000Y262846D02*
X183035D01*
X215500Y207000D02*
Y210000D01*
X203606Y260090D02*
X204787Y258910D01*
X211185D01*
X198094Y294595D02*
X200000Y296500D01*
Y301154D01*
X194000Y296500D02*
X196126Y294374D01*
X194000Y296500D02*
Y301154D01*
X175593Y266407D02*
X175908D01*
X177500Y268000D01*
X174000D02*
X175593Y266407D01*
X177185Y264815D01*
X175654Y285846D02*
X177500Y284000D01*
X156000Y181500D02*
X158000Y183500D01*
Y207000D02*
X166000Y215000D01*
X161500Y206500D02*
X171000D01*
X178250Y199250D01*
X177500Y198500D02*
X178250Y199250D01*
X179000Y200000D01*
X166000Y215000D02*
X188551D01*
X170000Y285846D02*
X175654D01*
X183035Y266783D02*
X188252D01*
X133346Y299000D02*
X139500D01*
X211185Y256941D02*
X215559D01*
X217000Y255500D01*
X207449Y210000D02*
X215500D01*
X191449Y169000D02*
X207449Y185000D01*
Y205000D02*
X213500D01*
X215500Y207000D01*
X211185Y260878D02*
X216622D01*
X177500Y268000D02*
Y278500D01*
X200063Y260878D02*
Y272000D01*
X216622Y260878D02*
X217500Y260000D01*
X222654D01*
X177972Y254972D02*
X183035D01*
X179504Y253004D02*
X183035D01*
X177500Y229000D02*
Y244520D01*
X180078Y247098D01*
X183035D01*
X164000Y258000D02*
X164500Y257500D01*
X153000Y258000D02*
X164000D01*
X150000Y255000D02*
X151131Y256131D01*
X150000Y255000D02*
X153000Y258000D01*
X176500Y253500D02*
X177972Y254972D01*
X150500Y248000D02*
X154000Y251500D01*
X179500Y253000D02*
X179504Y253004D01*
X157500Y247500D02*
X159000Y249000D01*
X137000Y259500D02*
X174500D01*
X175878Y260878D01*
X183035D01*
X164500Y257500D02*
X175500D01*
X176909Y258910D01*
X183035D01*
X157500Y255000D02*
X175500D01*
X177441Y256941D01*
X183035D01*
X154000Y251500D02*
X174500D01*
X176500Y253500D01*
X159000Y249000D02*
X174500D01*
X178500Y253000D01*
X179500D01*
X179035Y251035D02*
X183035D01*
X171500Y243500D02*
X179035Y251035D01*
X153500Y243500D02*
X171500D01*
X179567Y249067D02*
X183035D01*
X170500Y240000D02*
X179567Y249067D01*
X160500Y240000D02*
X170500D01*
X158500D02*
X160500D01*
X150000D02*
X153500Y243500D01*
X186284Y238784D02*
Y243850D01*
X182000Y234500D02*
X186284Y238784D01*
X177500Y229000D02*
X186000Y220500D01*
X193000D01*
X195000Y218500D01*
X188252Y231752D02*
Y243850D01*
X184500Y228000D02*
X188252Y231752D01*
Y272000D02*
Y279752D01*
X189000Y280500D01*
X186284Y272000D02*
Y279716D01*
X185000Y281000D02*
X186284Y279716D01*
X185000Y281000D02*
X185500Y281500D01*
X183035Y268752D02*
Y275465D01*
X182000Y276500D02*
X183035Y275465D01*
X171846Y263000D02*
Y267653D01*
X170153D02*
X171846D01*
X222654Y255346D02*
Y260000D01*
X108500Y229000D02*
X130000D01*
X189000Y282500D02*
X192000Y285500D01*
X189000Y280500D02*
Y282500D01*
X108500Y299000D02*
X126654D01*
X174000Y268000D02*
Y272000D01*
X170000Y276000D02*
Y279154D01*
Y276000D02*
X174000Y272000D01*
X177500Y284000D02*
X181500D01*
X198094Y272000D02*
Y294595D01*
X196126Y272000D02*
Y294374D01*
X130000Y229000D02*
X131500Y230500D01*
Y234500D01*
X133000Y236000D01*
X131500Y244193D02*
X133000Y242693D01*
X131500Y244193D02*
Y254000D01*
X137000Y259500D01*
X188252Y266783D02*
X192189Y262846D01*
X194158Y260878D02*
Y272000D01*
X108500Y209000D02*
X136653D01*
X108500Y199000D02*
X136653D01*
X108500Y189000D02*
X129000D01*
X131000Y187000D01*
Y182846D02*
Y187000D01*
X108500Y149000D02*
X128847D01*
X129000Y149153D01*
X137500Y180500D02*
Y190000D01*
X140000Y192500D01*
X142000D01*
X143347Y193846D01*
Y199000D01*
Y209000D02*
X151500D01*
X154000Y206500D01*
X141500Y156500D02*
X144000Y154000D01*
X141500Y156500D02*
Y169974D01*
X143026Y171500D01*
X148551D01*
X131000Y176154D02*
X134346D01*
X138500Y172000D01*
Y152500D02*
Y172000D01*
Y152500D02*
X148000Y143000D01*
X129000Y155847D02*
Y161000D01*
X108500Y239000D02*
X128398D01*
X128898Y239500D01*
X138500D01*
X145000Y233000D01*
Y226847D02*
Y233000D01*
X175847Y220153D02*
X178000Y218000D01*
X145000Y220153D02*
X175847D01*
X154500Y226847D02*
Y231500D01*
X153000Y233000D02*
X154500Y231500D01*
D20*
X196500Y206500D02*
Y219500D01*
X195000Y205000D02*
X196500Y206500D01*
X188551Y205000D02*
X195000D01*
X260500Y135000D02*
Y208500D01*
X217965Y251035D02*
X260500Y208500D01*
X211185Y251035D02*
X217965D01*
X263500Y140500D02*
Y209500D01*
X219996Y253004D02*
X263500Y209500D01*
X211185Y253004D02*
X219996D01*
X223500Y272500D02*
X270500D01*
X215815Y264815D02*
X223500Y272500D01*
X211185Y264815D02*
X215815D01*
X271000Y145000D02*
Y272000D01*
X270500Y272500D02*
X271000Y272000D01*
X274000Y149500D02*
Y272000D01*
X271500Y274500D02*
X274000Y272000D01*
X222500Y274500D02*
X271500D01*
X277000Y156000D02*
Y272000D01*
X272933Y276067D02*
X277000Y272000D01*
X218500Y276067D02*
X272933D01*
X277000Y156000D02*
X284000Y149000D01*
X271000Y145000D02*
X287000Y129000D01*
X209200Y230800D02*
X222000Y218000D01*
X208500Y120197D02*
X222000Y133697D01*
Y218000D01*
X199000Y319469D02*
X202795D01*
X191469D02*
X195654D01*
Y313154D02*
Y317500D01*
X194000Y311500D02*
X195654Y313154D01*
X194000Y307846D02*
Y311500D01*
X199000Y313000D02*
Y317500D01*
Y313000D02*
X200000Y312000D01*
Y307846D02*
Y312000D01*
X195654Y321437D02*
Y326154D01*
X197500Y328000D01*
Y332154D01*
X207937Y272000D02*
Y277437D01*
X211500Y281000D01*
X205968Y272000D02*
Y280469D01*
X207000Y281500D01*
X204000Y285000D02*
X204500Y285500D01*
X202031Y272000D02*
Y281469D01*
X202000Y281500D02*
X202031Y281469D01*
X204000Y282470D02*
X204100Y282370D01*
X204000Y282470D02*
Y285000D01*
Y272000D02*
X204100Y272100D01*
Y282370D01*
X205968Y238531D02*
Y243850D01*
X204000Y237000D02*
Y243850D01*
X205968Y238531D02*
X207500Y237000D01*
X198094Y236542D02*
Y243850D01*
X196126Y236813D02*
Y243850D01*
X200063Y236270D02*
Y243850D01*
X201900Y243719D02*
X202031Y243850D01*
X201900Y236130D02*
Y243719D01*
X248500Y109000D02*
Y203287D01*
X253500Y127000D02*
Y204784D01*
Y127000D02*
X258500Y122000D01*
Y109000D02*
Y122000D01*
X211185Y247098D02*
X253500Y204784D01*
X278500Y109000D02*
Y117000D01*
X211185Y249067D02*
X216236D01*
X257000Y208303D01*
X288500Y109000D02*
Y115500D01*
X284000Y149000D02*
X298500D01*
X274000Y149500D02*
X284500Y139000D01*
X298500D01*
X211185Y266783D02*
X214784D01*
X211185Y268752D02*
X218500Y276067D01*
X214784Y266783D02*
X222500Y274500D01*
X257000Y129000D02*
Y208303D01*
Y129000D02*
X268500Y117500D01*
Y109000D02*
Y117500D01*
X260500Y135000D02*
X278500Y117000D01*
X263500Y140500D02*
X288500Y115500D01*
X287000Y129000D02*
X298500D01*
X211185Y262846D02*
X216846D01*
X220500Y266500D01*
X222654D01*
X207937Y243850D02*
X248500Y203287D01*
X201900Y236130D02*
X203130Y234900D01*
X211100D01*
X200063Y236270D02*
X202633Y233700D01*
X210300D01*
X198094Y236542D02*
X202636Y232000D01*
X209697D01*
X202139Y230800D02*
X209200D01*
X196126Y236813D02*
X202139Y230800D01*
X208500Y109000D02*
Y120197D01*
X218500Y109000D02*
Y120000D01*
X228500Y109000D02*
Y215500D01*
X210300Y233700D02*
X228500Y215500D01*
X211100Y234900D02*
X233500Y212500D01*
Y127000D02*
Y212500D01*
Y127000D02*
X238500Y122000D01*
Y109000D02*
Y122000D01*
X218500Y120000D02*
X226000Y127500D01*
Y215697D01*
X209697Y232000D02*
X226000Y215697D01*
X194158Y235842D02*
Y243850D01*
X198000Y224000D02*
X201000Y221000D01*
X190220Y225780D02*
Y243850D01*
Y225780D02*
X196500Y219500D01*
X194546Y235454D02*
X195520D01*
X194158Y235842D02*
X194546Y235454D01*
X192189Y236114D02*
Y243850D01*
Y236114D02*
X194049Y234254D01*
X195023D01*
X198000Y224000D02*
Y224896D01*
X198025Y224921D01*
Y232949D01*
X195520Y235454D02*
X198025Y232949D01*
X195023Y234254D02*
X196825Y232452D01*
Y225418D02*
Y232452D01*
X196800Y225393D02*
X196825Y225418D01*
X199000Y196000D02*
X200000Y195000D01*
X207449D01*
X213500Y197500D02*
X214500Y196500D01*
Y191000D02*
Y196500D01*
X213500Y190000D02*
X214500Y191000D01*
X207449Y190000D02*
X213500D01*
X201000Y198000D02*
Y221000D01*
Y198000D02*
X201500Y197500D01*
X213500D01*
X196800Y222200D02*
Y225393D01*
Y222200D02*
X199000Y220000D01*
Y196000D02*
Y220000D01*
X192189Y262846D02*
Y272000D01*
Y262846D02*
X194158Y260878D01*
X197110Y257925D01*
D21*
X160000Y263000D02*
X165154D01*
X167449Y181500D02*
X167500Y181551D01*
X188551Y179551D02*
Y185000D01*
X149500Y192000D02*
X154654D01*
X167500Y181551D02*
Y189500D01*
X165000Y192000D02*
X167500Y189500D01*
X161346Y192000D02*
X165000D01*
X194153Y227500D02*
Y232154D01*
X229346Y260000D02*
X234000D01*
X253000Y243847D02*
Y248000D01*
X161346Y192000D02*
Y196846D01*
X161346Y148846D02*
Y154000D01*
X159000Y308500D02*
X163654D01*
X159000Y301000D02*
X163654D01*
X159500Y293000D02*
X163654D01*
Y308500D02*
Y313346D01*
Y288154D02*
Y293000D01*
Y308500D01*
X148000Y165949D02*
X148551Y166500D01*
X148000Y161000D02*
Y165949D01*
D22*
X167449Y176500D02*
X174000D01*
X175500Y178000D01*
Y180500D01*
X174500Y181500D02*
X175500Y180500D01*
X167449Y181500D02*
X174500D01*
X99500Y406000D02*
X100500D01*
X136500Y370000D02*
X306500D01*
Y362500D02*
Y370000D01*
X99500Y100500D02*
Y362500D01*
X306500Y100500D02*
Y362500D01*
X99500Y100500D02*
X306500D01*
X99500Y370000D02*
X136500D01*
X99500Y362500D02*
Y370000D01*
D23*
X253000Y232500D02*
Y237154D01*
X197500Y338846D02*
Y359500D01*
X200847Y227500D02*
X206500D01*
X207449Y215000D02*
Y220898D01*
X200847Y227500D02*
X207449Y220898D01*
D24*
X170000Y285846D02*
X170346Y286193D01*
X123000Y313500D02*
X127654D01*
X134346D02*
X140000D01*
X241000Y144000D02*
Y149154D01*
Y155846D02*
Y161000D01*
X289000Y269000D02*
X298500D01*
X287000Y271000D02*
X289000Y269000D01*
X287000Y271000D02*
Y277500D01*
X288500Y279000D01*
X298500D01*
X264000Y303500D02*
X288500Y279000D01*
X256500Y303500D02*
X264000D01*
X170346Y305000D02*
X174500D01*
X176000Y303500D01*
X170346Y286193D02*
Y305000D01*
Y308500D01*
X169500Y359500D02*
X180246D01*
X214754D02*
X225500D01*
D25*
X190220Y272000D02*
Y277720D01*
X192000Y279500D01*
X123000Y265500D02*
X128000Y270500D01*
X158500D01*
X123000Y242500D02*
Y265500D01*
X178500Y109000D02*
Y124000D01*
X166000Y136500D02*
X178500Y124000D01*
X125000Y173500D02*
Y175000D01*
Y173500D02*
X135500Y163000D01*
Y142000D02*
Y163000D01*
Y142000D02*
X141000Y136500D01*
X166000D01*
D26*
X278500Y339000D02*
D03*
X128500D02*
D03*
X198500Y139000D02*
D03*
D27*
X298500Y129000D02*
D03*
Y139000D02*
D03*
Y149000D02*
D03*
Y159000D02*
D03*
Y169000D02*
D03*
Y179000D02*
D03*
Y189000D02*
D03*
Y199000D02*
D03*
Y209000D02*
D03*
Y219000D02*
D03*
Y229000D02*
D03*
Y239000D02*
D03*
Y249000D02*
D03*
Y259000D02*
D03*
Y269000D02*
D03*
Y279000D02*
D03*
Y289000D02*
D03*
Y299000D02*
D03*
Y309000D02*
D03*
X108500Y129000D02*
D03*
Y139000D02*
D03*
Y149000D02*
D03*
Y159000D02*
D03*
Y169000D02*
D03*
Y179000D02*
D03*
Y189000D02*
D03*
Y199000D02*
D03*
Y209000D02*
D03*
Y219000D02*
D03*
Y229000D02*
D03*
Y239000D02*
D03*
Y249000D02*
D03*
Y259000D02*
D03*
Y269000D02*
D03*
Y279000D02*
D03*
Y289000D02*
D03*
Y299000D02*
D03*
Y309000D02*
D03*
D28*
X298500Y319000D02*
D03*
X108500D02*
D03*
D29*
X298500Y109000D02*
D03*
X288500D02*
D03*
X278500D02*
D03*
X268500D02*
D03*
X258500D02*
D03*
X248500D02*
D03*
X238500D02*
D03*
X228500D02*
D03*
X218500D02*
D03*
X208500D02*
D03*
X198500D02*
D03*
X188500D02*
D03*
X178500D02*
D03*
X168500D02*
D03*
X158500D02*
D03*
X148500D02*
D03*
X138500D02*
D03*
X128500D02*
D03*
X118500D02*
D03*
D30*
X108500D02*
D03*
D31*
X202795Y319469D02*
D03*
X160000Y263000D02*
D03*
X149500Y192000D02*
D03*
X188551Y179551D02*
D03*
X215500Y210000D02*
D03*
X180500Y195000D02*
D03*
X194153Y232154D02*
D03*
X234000Y260000D02*
D03*
X253000Y248000D02*
D03*
Y232500D02*
D03*
X161346Y196846D02*
D03*
X161346Y148846D02*
D03*
X159000Y308500D02*
D03*
X159000Y301000D02*
D03*
X159500Y293000D02*
D03*
X163654Y313346D02*
D03*
Y288154D02*
D03*
X191469Y319469D02*
D03*
X211500Y281000D02*
D03*
X207000Y281500D02*
D03*
X204500Y285500D02*
D03*
X202000Y281500D02*
D03*
X154000Y206500D02*
D03*
X161500D02*
D03*
X139500Y299000D02*
D03*
X217000Y255500D02*
D03*
X206500Y227500D02*
D03*
X204000Y237000D02*
D03*
X207500D02*
D03*
X177500Y278500D02*
D03*
X170153Y267653D02*
D03*
X222654Y255346D02*
D03*
X192000Y279500D02*
D03*
X123000Y242500D02*
D03*
X181500Y284000D02*
D03*
X158500Y270500D02*
D03*
X141000Y182500D02*
D03*
X125000Y175000D02*
D03*
X178000Y218000D02*
D03*
X123000Y313500D02*
D03*
X140000D02*
D03*
X241000Y144000D02*
D03*
Y161000D02*
D03*
X256500Y303500D02*
D03*
X176000D02*
D03*
X169500Y359500D02*
D03*
X225500D02*
D03*
X148000Y161000D02*
D03*
X129000D02*
D03*
X153000Y233000D02*
D03*
D32*
X157500Y240000D02*
D03*
Y247500D02*
D03*
Y255000D02*
D03*
X150000D02*
D03*
Y247500D02*
D03*
Y240000D02*
D03*
X182000Y234500D02*
D03*
X184500Y228000D02*
D03*
X185500Y281500D02*
D03*
X182000Y276500D02*
D03*
X191500Y286000D02*
D03*
D33*
X190614Y251429D02*
D03*
Y255760D02*
D03*
X194945Y251429D02*
D03*
Y255760D02*
D03*
Y264421D02*
D03*
X199276Y251429D02*
D03*
Y255760D02*
D03*
Y260090D02*
D03*
Y264421D02*
D03*
X203606Y251429D02*
D03*
Y255760D02*
D03*
Y260090D02*
D03*
Y264421D02*
D03*
X190614Y260090D02*
D03*
X194945D02*
D03*
X190614Y264421D02*
D03*
M02*
