G04*
G04 #@! TF.GenerationSoftware,Altium Limited,Altium Designer,18.1.9 (240)*
G04*
G04 Layer_Physical_Order=2*
G04 Layer_Color=36540*
%FSLAX43Y43*%
%MOMM*%
G71*
G01*
G75*
%ADD12C,0.200*%
%ADD15C,0.150*%
%ADD20C,0.250*%
%ADD39O,2.794X1.524*%
%ADD40R,2.794X1.524*%
%ADD41O,1.524X2.794*%
%ADD42R,1.524X2.794*%
%ADD43C,0.600*%
G36*
X50053Y-1853D02*
X-1793D01*
Y65693D01*
X50053D01*
Y-1853D01*
D02*
G37*
%LPC*%
G36*
X43180Y61746D02*
X43006Y61742D01*
X42832Y61728D01*
X42660Y61705D01*
X42488Y61673D01*
X42319Y61633D01*
X42152Y61583D01*
X41988Y61525D01*
X41827Y61459D01*
X41670Y61384D01*
X41517Y61301D01*
X41368Y61210D01*
X41225Y61111D01*
X41087Y61005D01*
X40954Y60892D01*
X40828Y60772D01*
X40708Y60646D01*
X40595Y60513D01*
X40489Y60375D01*
X40390Y60232D01*
X40299Y60083D01*
X40216Y59930D01*
X40141Y59773D01*
X40075Y59612D01*
X40017Y59448D01*
X39967Y59281D01*
X39927Y59112D01*
X39895Y58940D01*
X39872Y58768D01*
X39858Y58594D01*
X39854Y58420D01*
X39858Y58246D01*
X39872Y58072D01*
X39895Y57900D01*
X39927Y57728D01*
X39967Y57559D01*
X40017Y57392D01*
X40075Y57228D01*
X40141Y57067D01*
X40216Y56910D01*
X40299Y56757D01*
X40390Y56608D01*
X40489Y56465D01*
X40595Y56327D01*
X40708Y56194D01*
X40828Y56068D01*
X40954Y55948D01*
X41087Y55835D01*
X41225Y55729D01*
X41368Y55630D01*
X41517Y55539D01*
X41670Y55456D01*
X41827Y55381D01*
X41988Y55315D01*
X42152Y55257D01*
X42319Y55207D01*
X42488Y55167D01*
X42660Y55135D01*
X42832Y55112D01*
X43006Y55098D01*
X43180Y55094D01*
X43354Y55098D01*
X43528Y55112D01*
X43700Y55135D01*
X43872Y55167D01*
X44041Y55207D01*
X44208Y55257D01*
X44372Y55315D01*
X44533Y55381D01*
X44690Y55456D01*
X44843Y55539D01*
X44992Y55630D01*
X45135Y55729D01*
X45273Y55835D01*
X45406Y55948D01*
X45532Y56068D01*
X45652Y56194D01*
X45765Y56327D01*
X45871Y56465D01*
X45970Y56608D01*
X46061Y56757D01*
X46144Y56910D01*
X46219Y57067D01*
X46285Y57228D01*
X46343Y57392D01*
X46393Y57559D01*
X46433Y57728D01*
X46465Y57900D01*
X46488Y58072D01*
X46502Y58246D01*
X46506Y58420D01*
X46502Y58594D01*
X46488Y58768D01*
X46465Y58940D01*
X46433Y59112D01*
X46393Y59281D01*
X46343Y59448D01*
X46285Y59612D01*
X46219Y59773D01*
X46144Y59930D01*
X46061Y60083D01*
X45970Y60232D01*
X45871Y60375D01*
X45765Y60513D01*
X45652Y60646D01*
X45532Y60772D01*
X45406Y60892D01*
X45273Y61005D01*
X45135Y61111D01*
X44992Y61210D01*
X44843Y61301D01*
X44690Y61384D01*
X44533Y61459D01*
X44372Y61525D01*
X44208Y61583D01*
X44041Y61633D01*
X43872Y61673D01*
X43700Y61705D01*
X43528Y61728D01*
X43354Y61742D01*
X43180Y61746D01*
D02*
G37*
G36*
X5080D02*
X4906Y61742D01*
X4732Y61728D01*
X4560Y61705D01*
X4388Y61673D01*
X4219Y61633D01*
X4052Y61583D01*
X3888Y61525D01*
X3727Y61459D01*
X3570Y61384D01*
X3417Y61301D01*
X3268Y61210D01*
X3125Y61111D01*
X2987Y61005D01*
X2854Y60892D01*
X2728Y60772D01*
X2608Y60646D01*
X2495Y60513D01*
X2389Y60375D01*
X2290Y60232D01*
X2199Y60083D01*
X2116Y59930D01*
X2041Y59773D01*
X1975Y59612D01*
X1917Y59448D01*
X1867Y59281D01*
X1827Y59112D01*
X1795Y58940D01*
X1772Y58768D01*
X1758Y58594D01*
X1754Y58420D01*
X1758Y58246D01*
X1772Y58072D01*
X1795Y57900D01*
X1827Y57728D01*
X1867Y57559D01*
X1917Y57392D01*
X1975Y57228D01*
X2041Y57067D01*
X2116Y56910D01*
X2199Y56757D01*
X2290Y56608D01*
X2389Y56465D01*
X2495Y56327D01*
X2608Y56194D01*
X2728Y56068D01*
X2854Y55948D01*
X2987Y55835D01*
X3125Y55729D01*
X3268Y55630D01*
X3417Y55539D01*
X3570Y55456D01*
X3727Y55381D01*
X3888Y55315D01*
X4052Y55257D01*
X4219Y55207D01*
X4388Y55167D01*
X4560Y55135D01*
X4732Y55112D01*
X4906Y55098D01*
X5080Y55094D01*
X5254Y55098D01*
X5428Y55112D01*
X5600Y55135D01*
X5772Y55167D01*
X5941Y55207D01*
X6108Y55257D01*
X6272Y55315D01*
X6433Y55381D01*
X6590Y55456D01*
X6743Y55539D01*
X6892Y55630D01*
X7035Y55729D01*
X7173Y55835D01*
X7306Y55948D01*
X7432Y56068D01*
X7552Y56194D01*
X7665Y56327D01*
X7771Y56465D01*
X7870Y56608D01*
X7961Y56757D01*
X8044Y56910D01*
X8119Y57067D01*
X8185Y57228D01*
X8243Y57392D01*
X8293Y57559D01*
X8333Y57728D01*
X8365Y57900D01*
X8388Y58072D01*
X8402Y58246D01*
X8406Y58420D01*
X8402Y58594D01*
X8388Y58768D01*
X8365Y58940D01*
X8333Y59112D01*
X8293Y59281D01*
X8243Y59448D01*
X8185Y59612D01*
X8119Y59773D01*
X8044Y59930D01*
X7961Y60083D01*
X7870Y60232D01*
X7771Y60375D01*
X7665Y60513D01*
X7552Y60646D01*
X7432Y60772D01*
X7306Y60892D01*
X7173Y61005D01*
X7035Y61111D01*
X6892Y61210D01*
X6743Y61301D01*
X6590Y61384D01*
X6433Y61459D01*
X6272Y61525D01*
X6108Y61583D01*
X5941Y61633D01*
X5772Y61673D01*
X5600Y61705D01*
X5428Y61728D01*
X5254Y61742D01*
X5080Y61746D01*
D02*
G37*
G36*
X19400Y54951D02*
X19341Y54947D01*
X19283Y54936D01*
X19227Y54917D01*
X19175Y54891D01*
X19125Y54858D01*
X19081Y54819D01*
X19042Y54775D01*
X19009Y54725D01*
X18983Y54673D01*
X18964Y54617D01*
X18953Y54559D01*
X18949Y54500D01*
X18953Y54441D01*
X18964Y54383D01*
X18983Y54327D01*
X19009Y54275D01*
X19042Y54225D01*
X19081Y54181D01*
X19125Y54142D01*
X19175Y54109D01*
X19227Y54083D01*
X19283Y54064D01*
X19341Y54053D01*
X19400Y54049D01*
X19459Y54053D01*
X19517Y54064D01*
X19573Y54083D01*
X19625Y54109D01*
X19675Y54142D01*
X19719Y54181D01*
X19758Y54225D01*
X19791Y54275D01*
X19817Y54327D01*
X19836Y54383D01*
X19847Y54441D01*
X19851Y54500D01*
X19847Y54559D01*
X19836Y54617D01*
X19817Y54673D01*
X19791Y54725D01*
X19758Y54775D01*
X19719Y54819D01*
X19675Y54858D01*
X19625Y54891D01*
X19573Y54917D01*
X19517Y54936D01*
X19459Y54947D01*
X19400Y54951D01*
D02*
G37*
G36*
X49857Y54302D02*
X48335D01*
Y53415D01*
X49857D01*
Y54302D01*
D02*
G37*
G36*
X48185D02*
X46663D01*
Y53415D01*
X48185D01*
Y54302D01*
D02*
G37*
G36*
X1547Y54252D02*
X-1547D01*
Y52428D01*
X1547D01*
Y54252D01*
D02*
G37*
G36*
X49857Y53265D02*
X48335D01*
Y52378D01*
X49857D01*
Y53265D01*
D02*
G37*
G36*
X48185D02*
X46663D01*
Y52378D01*
X48185D01*
Y53265D01*
D02*
G37*
G36*
X635Y51763D02*
X75D01*
Y50875D01*
X1594D01*
X1594Y50894D01*
X1580Y50988D01*
X1557Y51080D01*
X1525Y51169D01*
X1484Y51254D01*
X1436Y51335D01*
X1380Y51411D01*
X1316Y51481D01*
X1246Y51545D01*
X1170Y51601D01*
X1089Y51649D01*
X1004Y51690D01*
X915Y51722D01*
X823Y51745D01*
X729Y51759D01*
X635Y51763D01*
D02*
G37*
G36*
X-75D02*
X-635D01*
X-729Y51759D01*
X-823Y51745D01*
X-915Y51722D01*
X-1004Y51690D01*
X-1089Y51649D01*
X-1170Y51601D01*
X-1246Y51545D01*
X-1316Y51481D01*
X-1380Y51411D01*
X-1436Y51335D01*
X-1484Y51254D01*
X-1525Y51169D01*
X-1557Y51080D01*
X-1580Y50988D01*
X-1594Y50894D01*
X-1594Y50875D01*
X-75D01*
Y51763D01*
D02*
G37*
G36*
X44080Y51700D02*
X42280D01*
Y49900D01*
X44080D01*
Y51700D01*
D02*
G37*
G36*
X48895Y51713D02*
X47625D01*
X47535Y51709D01*
X47447Y51696D01*
X47360Y51674D01*
X47276Y51644D01*
X47195Y51605D01*
X47118Y51559D01*
X47046Y51506D01*
X46979Y51446D01*
X46919Y51379D01*
X46866Y51307D01*
X46820Y51230D01*
X46781Y51149D01*
X46751Y51065D01*
X46729Y50978D01*
X46716Y50889D01*
X46712Y50800D01*
X46716Y50710D01*
X46729Y50622D01*
X46751Y50535D01*
X46781Y50451D01*
X46820Y50370D01*
X46866Y50293D01*
X46919Y50221D01*
X46979Y50154D01*
X47046Y50094D01*
X47118Y50041D01*
X47195Y49995D01*
X47276Y49956D01*
X47360Y49926D01*
X47447Y49904D01*
X47535Y49891D01*
X47625Y49887D01*
X48895D01*
X48985Y49891D01*
X49073Y49904D01*
X49160Y49926D01*
X49244Y49956D01*
X49325Y49995D01*
X49402Y50041D01*
X49474Y50094D01*
X49541Y50154D01*
X49601Y50221D01*
X49654Y50293D01*
X49700Y50370D01*
X49739Y50451D01*
X49769Y50535D01*
X49791Y50622D01*
X49804Y50710D01*
X49808Y50800D01*
X49804Y50889D01*
X49791Y50978D01*
X49769Y51065D01*
X49739Y51149D01*
X49700Y51230D01*
X49654Y51307D01*
X49601Y51379D01*
X49541Y51446D01*
X49474Y51506D01*
X49402Y51559D01*
X49325Y51605D01*
X49244Y51644D01*
X49160Y51674D01*
X49073Y51696D01*
X48985Y51709D01*
X48895Y51713D01*
D02*
G37*
G36*
X1594Y50725D02*
X75D01*
Y49837D01*
X635D01*
X729Y49841D01*
X823Y49855D01*
X915Y49878D01*
X1004Y49910D01*
X1089Y49951D01*
X1170Y49999D01*
X1246Y50055D01*
X1316Y50119D01*
X1380Y50189D01*
X1436Y50265D01*
X1484Y50346D01*
X1525Y50431D01*
X1557Y50520D01*
X1580Y50612D01*
X1594Y50706D01*
X1594Y50725D01*
D02*
G37*
G36*
X-75D02*
X-1594D01*
X-1594Y50706D01*
X-1580Y50612D01*
X-1557Y50520D01*
X-1525Y50431D01*
X-1484Y50346D01*
X-1436Y50265D01*
X-1380Y50189D01*
X-1316Y50119D01*
X-1246Y50055D01*
X-1170Y49999D01*
X-1089Y49951D01*
X-1004Y49910D01*
X-915Y49878D01*
X-823Y49855D01*
X-729Y49841D01*
X-635Y49837D01*
X-75D01*
Y50725D01*
D02*
G37*
G36*
X43180Y49161D02*
X43092Y49157D01*
X43004Y49144D01*
X42918Y49122D01*
X42835Y49092D01*
X42755Y49055D01*
X42679Y49009D01*
X42608Y48957D01*
X42543Y48897D01*
X42483Y48832D01*
X42431Y48761D01*
X42385Y48685D01*
X42347Y48605D01*
X42318Y48522D01*
X42296Y48436D01*
X42283Y48348D01*
X42279Y48260D01*
X42283Y48172D01*
X42296Y48084D01*
X42318Y47998D01*
X42347Y47915D01*
X42385Y47835D01*
X42431Y47759D01*
X42483Y47688D01*
X42543Y47623D01*
X42608Y47563D01*
X42679Y47511D01*
X42755Y47465D01*
X42835Y47428D01*
X42918Y47398D01*
X43004Y47376D01*
X43092Y47363D01*
X43180Y47359D01*
X43268Y47363D01*
X43356Y47376D01*
X43442Y47398D01*
X43525Y47428D01*
X43605Y47465D01*
X43681Y47511D01*
X43752Y47563D01*
X43817Y47623D01*
X43877Y47688D01*
X43929Y47759D01*
X43975Y47835D01*
X44012Y47915D01*
X44042Y47998D01*
X44064Y48084D01*
X44077Y48172D01*
X44081Y48260D01*
X44077Y48348D01*
X44064Y48436D01*
X44042Y48522D01*
X44012Y48605D01*
X43975Y48685D01*
X43929Y48761D01*
X43877Y48832D01*
X43817Y48897D01*
X43752Y48957D01*
X43681Y49009D01*
X43605Y49055D01*
X43525Y49092D01*
X43442Y49122D01*
X43356Y49144D01*
X43268Y49157D01*
X43180Y49161D01*
D02*
G37*
G36*
X48895Y49173D02*
X47625D01*
X47535Y49169D01*
X47447Y49156D01*
X47360Y49134D01*
X47276Y49104D01*
X47195Y49065D01*
X47118Y49019D01*
X47046Y48966D01*
X46979Y48906D01*
X46919Y48839D01*
X46866Y48767D01*
X46820Y48690D01*
X46781Y48609D01*
X46751Y48525D01*
X46729Y48438D01*
X46716Y48349D01*
X46712Y48260D01*
X46716Y48170D01*
X46729Y48082D01*
X46751Y47995D01*
X46781Y47911D01*
X46820Y47830D01*
X46866Y47753D01*
X46919Y47681D01*
X46979Y47614D01*
X47046Y47554D01*
X47118Y47501D01*
X47195Y47455D01*
X47276Y47416D01*
X47360Y47386D01*
X47447Y47364D01*
X47535Y47351D01*
X47625Y47347D01*
X48895D01*
X48985Y47351D01*
X49073Y47364D01*
X49160Y47386D01*
X49244Y47416D01*
X49325Y47455D01*
X49402Y47501D01*
X49474Y47554D01*
X49541Y47614D01*
X49601Y47681D01*
X49654Y47753D01*
X49700Y47830D01*
X49739Y47911D01*
X49769Y47995D01*
X49791Y48082D01*
X49804Y48170D01*
X49808Y48260D01*
X49804Y48349D01*
X49791Y48438D01*
X49769Y48525D01*
X49739Y48609D01*
X49700Y48690D01*
X49654Y48767D01*
X49601Y48839D01*
X49541Y48906D01*
X49474Y48966D01*
X49402Y49019D01*
X49325Y49065D01*
X49244Y49104D01*
X49160Y49134D01*
X49073Y49156D01*
X48985Y49169D01*
X48895Y49173D01*
D02*
G37*
G36*
X635D02*
X-635D01*
X-725Y49169D01*
X-813Y49156D01*
X-900Y49134D01*
X-984Y49104D01*
X-1065Y49065D01*
X-1142Y49019D01*
X-1214Y48966D01*
X-1281Y48906D01*
X-1341Y48839D01*
X-1394Y48767D01*
X-1440Y48690D01*
X-1479Y48609D01*
X-1509Y48525D01*
X-1531Y48438D01*
X-1544Y48349D01*
X-1548Y48260D01*
X-1544Y48170D01*
X-1531Y48082D01*
X-1509Y47995D01*
X-1479Y47911D01*
X-1440Y47830D01*
X-1394Y47753D01*
X-1341Y47681D01*
X-1281Y47614D01*
X-1214Y47554D01*
X-1142Y47501D01*
X-1065Y47455D01*
X-984Y47416D01*
X-900Y47386D01*
X-813Y47364D01*
X-725Y47351D01*
X-635Y47347D01*
X635D01*
X725Y47351D01*
X813Y47364D01*
X900Y47386D01*
X984Y47416D01*
X1065Y47455D01*
X1142Y47501D01*
X1214Y47554D01*
X1281Y47614D01*
X1341Y47681D01*
X1394Y47753D01*
X1440Y47830D01*
X1479Y47911D01*
X1509Y47995D01*
X1531Y48082D01*
X1544Y48170D01*
X1548Y48260D01*
X1544Y48349D01*
X1531Y48438D01*
X1509Y48525D01*
X1479Y48609D01*
X1440Y48690D01*
X1394Y48767D01*
X1341Y48839D01*
X1281Y48906D01*
X1214Y48966D01*
X1142Y49019D01*
X1065Y49065D01*
X984Y49104D01*
X900Y49134D01*
X813Y49156D01*
X725Y49169D01*
X635Y49173D01*
D02*
G37*
G36*
X48895Y46683D02*
X48335D01*
Y45795D01*
X49854D01*
X49854Y45814D01*
X49840Y45908D01*
X49817Y46000D01*
X49785Y46089D01*
X49744Y46174D01*
X49696Y46255D01*
X49640Y46331D01*
X49576Y46401D01*
X49506Y46465D01*
X49430Y46521D01*
X49349Y46569D01*
X49264Y46610D01*
X49175Y46642D01*
X49083Y46665D01*
X48989Y46679D01*
X48895Y46683D01*
D02*
G37*
G36*
X48185D02*
X47625D01*
X47531Y46679D01*
X47437Y46665D01*
X47345Y46642D01*
X47256Y46610D01*
X47171Y46569D01*
X47090Y46521D01*
X47014Y46465D01*
X46944Y46401D01*
X46880Y46331D01*
X46824Y46255D01*
X46776Y46174D01*
X46735Y46089D01*
X46703Y46000D01*
X46680Y45908D01*
X46666Y45814D01*
X46666Y45795D01*
X48185D01*
Y46683D01*
D02*
G37*
G36*
X635D02*
X75D01*
Y45795D01*
X1594D01*
X1594Y45814D01*
X1580Y45908D01*
X1557Y46000D01*
X1525Y46089D01*
X1484Y46174D01*
X1436Y46255D01*
X1380Y46331D01*
X1316Y46401D01*
X1246Y46465D01*
X1170Y46521D01*
X1089Y46569D01*
X1004Y46610D01*
X915Y46642D01*
X823Y46665D01*
X729Y46679D01*
X635Y46683D01*
D02*
G37*
G36*
X-75D02*
X-635D01*
X-729Y46679D01*
X-823Y46665D01*
X-915Y46642D01*
X-1004Y46610D01*
X-1089Y46569D01*
X-1170Y46521D01*
X-1246Y46465D01*
X-1316Y46401D01*
X-1380Y46331D01*
X-1436Y46255D01*
X-1484Y46174D01*
X-1525Y46089D01*
X-1557Y46000D01*
X-1580Y45908D01*
X-1594Y45814D01*
X-1594Y45795D01*
X-75D01*
Y46683D01*
D02*
G37*
G36*
X43180Y46621D02*
X43092Y46617D01*
X43004Y46604D01*
X42918Y46582D01*
X42835Y46552D01*
X42755Y46515D01*
X42679Y46469D01*
X42608Y46417D01*
X42543Y46357D01*
X42483Y46292D01*
X42431Y46221D01*
X42385Y46145D01*
X42347Y46065D01*
X42318Y45982D01*
X42296Y45896D01*
X42283Y45808D01*
X42279Y45720D01*
X42283Y45632D01*
X42296Y45544D01*
X42318Y45458D01*
X42347Y45375D01*
X42385Y45295D01*
X42431Y45219D01*
X42483Y45148D01*
X42543Y45083D01*
X42608Y45023D01*
X42679Y44971D01*
X42755Y44925D01*
X42835Y44888D01*
X42918Y44858D01*
X43004Y44836D01*
X43092Y44823D01*
X43180Y44819D01*
X43268Y44823D01*
X43356Y44836D01*
X43442Y44858D01*
X43525Y44888D01*
X43605Y44925D01*
X43681Y44971D01*
X43752Y45023D01*
X43817Y45083D01*
X43877Y45148D01*
X43929Y45219D01*
X43975Y45295D01*
X44012Y45375D01*
X44042Y45458D01*
X44064Y45544D01*
X44077Y45632D01*
X44081Y45720D01*
X44077Y45808D01*
X44064Y45896D01*
X44042Y45982D01*
X44012Y46065D01*
X43975Y46145D01*
X43929Y46221D01*
X43877Y46292D01*
X43817Y46357D01*
X43752Y46417D01*
X43681Y46469D01*
X43605Y46515D01*
X43525Y46552D01*
X43442Y46582D01*
X43356Y46604D01*
X43268Y46617D01*
X43180Y46621D01*
D02*
G37*
G36*
X49854Y45645D02*
X48335D01*
Y44757D01*
X48895D01*
X48989Y44761D01*
X49083Y44775D01*
X49175Y44798D01*
X49264Y44830D01*
X49349Y44871D01*
X49430Y44919D01*
X49506Y44975D01*
X49576Y45039D01*
X49640Y45109D01*
X49696Y45185D01*
X49744Y45266D01*
X49785Y45351D01*
X49817Y45440D01*
X49840Y45532D01*
X49854Y45626D01*
X49854Y45645D01*
D02*
G37*
G36*
X48185D02*
X46666D01*
X46666Y45626D01*
X46680Y45532D01*
X46703Y45440D01*
X46735Y45351D01*
X46776Y45266D01*
X46824Y45185D01*
X46880Y45109D01*
X46944Y45039D01*
X47014Y44975D01*
X47090Y44919D01*
X47171Y44871D01*
X47256Y44830D01*
X47345Y44798D01*
X47437Y44775D01*
X47531Y44761D01*
X47625Y44757D01*
X48185D01*
Y45645D01*
D02*
G37*
G36*
X1594D02*
X75D01*
Y44757D01*
X635D01*
X729Y44761D01*
X823Y44775D01*
X915Y44798D01*
X1004Y44830D01*
X1089Y44871D01*
X1170Y44919D01*
X1246Y44975D01*
X1316Y45039D01*
X1380Y45109D01*
X1436Y45185D01*
X1484Y45266D01*
X1525Y45351D01*
X1557Y45440D01*
X1580Y45532D01*
X1594Y45626D01*
X1594Y45645D01*
D02*
G37*
G36*
X-75D02*
X-1594D01*
X-1594Y45626D01*
X-1580Y45532D01*
X-1557Y45440D01*
X-1525Y45351D01*
X-1484Y45266D01*
X-1436Y45185D01*
X-1380Y45109D01*
X-1316Y45039D01*
X-1246Y44975D01*
X-1170Y44919D01*
X-1089Y44871D01*
X-1004Y44830D01*
X-915Y44798D01*
X-823Y44775D01*
X-729Y44761D01*
X-635Y44757D01*
X-75D01*
Y45645D01*
D02*
G37*
G36*
X7300Y48751D02*
X7241Y48747D01*
X7183Y48736D01*
X7127Y48717D01*
X7075Y48691D01*
X7025Y48658D01*
X6981Y48619D01*
X6942Y48575D01*
X6909Y48525D01*
X6883Y48473D01*
X6864Y48417D01*
X6853Y48359D01*
X6849Y48300D01*
X6853Y48241D01*
X6864Y48183D01*
X6883Y48127D01*
X6909Y48075D01*
X6942Y48025D01*
X6981Y47981D01*
X7025Y47942D01*
X7075Y47909D01*
X7127Y47883D01*
X7183Y47864D01*
X7241Y47853D01*
X7300Y47849D01*
X7359Y47853D01*
X7417Y47864D01*
X7473Y47883D01*
X7525Y47909D01*
X7575Y47942D01*
X7619Y47981D01*
X7643Y48009D01*
X11736D01*
X15172Y44572D01*
X15210Y44541D01*
X15254Y44518D01*
X15301Y44504D01*
X15350Y44499D01*
X15350Y44499D01*
X20900D01*
X20949Y44504D01*
X20996Y44518D01*
X21007Y44524D01*
X21206D01*
X21722Y44009D01*
X21724Y44003D01*
X21728Y43963D01*
X21705Y43845D01*
X21705Y43845D01*
X21677Y43812D01*
X21654Y43775D01*
X21638Y43735D01*
X21628Y43693D01*
X21624Y43650D01*
X21628Y43607D01*
X21638Y43565D01*
X21654Y43525D01*
X21677Y43488D01*
X21705Y43455D01*
X21738Y43427D01*
X21775Y43404D01*
X21815Y43388D01*
X21857Y43378D01*
X21858Y43377D01*
X22004Y43231D01*
X22005Y43228D01*
X22007Y43222D01*
X22010Y43215D01*
X22013Y43208D01*
X22016Y43201D01*
X22017Y43200D01*
X22026Y43153D01*
X21971Y43055D01*
X21959Y43042D01*
X21933Y43026D01*
X21294D01*
X20335Y43985D01*
X20301Y44013D01*
X20262Y44034D01*
X20219Y44047D01*
X20175Y44051D01*
X17983D01*
X17938Y44047D01*
X17896Y44034D01*
X17857Y44013D01*
X17823Y43985D01*
X17664Y43826D01*
X17190D01*
X17158Y43875D01*
X17119Y43919D01*
X17075Y43958D01*
X17025Y43991D01*
X16973Y44017D01*
X16917Y44036D01*
X16859Y44047D01*
X16800Y44051D01*
X16741Y44047D01*
X16683Y44036D01*
X16627Y44017D01*
X16575Y43991D01*
X16525Y43958D01*
X16481Y43919D01*
X16442Y43875D01*
X16409Y43825D01*
X16383Y43773D01*
X16364Y43717D01*
X16353Y43659D01*
X16349Y43600D01*
X16353Y43541D01*
X16364Y43483D01*
X16383Y43427D01*
X16409Y43375D01*
X16442Y43325D01*
X16481Y43281D01*
X16525Y43242D01*
X16575Y43209D01*
X16627Y43183D01*
X16683Y43164D01*
X16741Y43153D01*
X16800Y43149D01*
X16859Y43153D01*
X16917Y43164D01*
X16973Y43183D01*
X17025Y43209D01*
X17075Y43242D01*
X17119Y43281D01*
X17158Y43325D01*
X17190Y43374D01*
X17758D01*
X17802Y43378D01*
X17844Y43391D01*
X17883Y43412D01*
X17917Y43440D01*
X18076Y43599D01*
X20081D01*
X21040Y42640D01*
X21074Y42612D01*
X21113Y42591D01*
X21156Y42578D01*
X21200Y42574D01*
X22550D01*
X22594Y42578D01*
X22637Y42591D01*
X22676Y42612D01*
X22710Y42640D01*
X22942Y42873D01*
X22965Y42882D01*
X22981Y42887D01*
X22985Y42888D01*
X22986Y42888D01*
X23063Y42909D01*
X23066Y42906D01*
X23070Y42903D01*
X23074Y42900D01*
X23082Y42894D01*
X23090Y42889D01*
X23094Y42887D01*
X23099Y42884D01*
X25322Y41788D01*
X25343Y41663D01*
X25240Y41560D01*
X25212Y41526D01*
X25191Y41487D01*
X25178Y41444D01*
X25174Y41400D01*
Y40945D01*
X25101Y40898D01*
X25047Y40882D01*
X25025Y40896D01*
X24985Y40912D01*
X24943Y40922D01*
X24900Y40926D01*
X24857Y40922D01*
X24815Y40912D01*
X24775Y40896D01*
X24738Y40873D01*
X24736Y40871D01*
X24686Y40845D01*
X24614D01*
X24564Y40871D01*
X24562Y40873D01*
X24525Y40896D01*
X24485Y40912D01*
X24449Y40921D01*
X24410Y40960D01*
X24376Y40988D01*
X24337Y41009D01*
X24294Y41022D01*
X24250Y41026D01*
X23279D01*
X23244Y41052D01*
X23176Y41150D01*
X23172Y41193D01*
X23162Y41235D01*
X23146Y41275D01*
X23126Y41307D01*
Y41900D01*
X23122Y41944D01*
X23109Y41987D01*
X23088Y42026D01*
X23060Y42060D01*
X22860Y42260D01*
X22826Y42288D01*
X22787Y42309D01*
X22744Y42322D01*
X22700Y42326D01*
X22000D01*
X21956Y42322D01*
X21913Y42309D01*
X21874Y42288D01*
X21840Y42260D01*
X21151Y41571D01*
X21115Y41562D01*
X21075Y41546D01*
X21038Y41523D01*
X21005Y41495D01*
X20977Y41462D01*
X20954Y41425D01*
X20938Y41385D01*
X20928Y41343D01*
X20924Y41300D01*
X20928Y41257D01*
X20938Y41215D01*
X20954Y41175D01*
X20977Y41138D01*
X21005Y41105D01*
X21038Y41077D01*
X21075Y41054D01*
X21115Y41038D01*
X21157Y41028D01*
X21177Y41026D01*
X21213Y40968D01*
X21229Y40899D01*
X21051Y40721D01*
X21015Y40712D01*
X20975Y40696D01*
X20938Y40673D01*
X20905Y40645D01*
X20877Y40612D01*
X20854Y40575D01*
X20838Y40535D01*
X20828Y40493D01*
X20824Y40450D01*
X20756Y40352D01*
X20721Y40326D01*
X20300D01*
X20256Y40322D01*
X20213Y40309D01*
X20174Y40288D01*
X20140Y40260D01*
X19916Y40036D01*
X19904Y40032D01*
X19860Y40009D01*
X19822Y39978D01*
X5496Y25651D01*
X1512D01*
X1509Y25665D01*
X1479Y25749D01*
X1440Y25830D01*
X1394Y25907D01*
X1341Y25979D01*
X1281Y26046D01*
X1214Y26106D01*
X1142Y26159D01*
X1065Y26205D01*
X984Y26244D01*
X900Y26274D01*
X813Y26296D01*
X725Y26309D01*
X635Y26313D01*
X-635D01*
X-725Y26309D01*
X-813Y26296D01*
X-900Y26274D01*
X-984Y26244D01*
X-1065Y26205D01*
X-1142Y26159D01*
X-1214Y26106D01*
X-1281Y26046D01*
X-1341Y25979D01*
X-1394Y25907D01*
X-1440Y25830D01*
X-1479Y25749D01*
X-1509Y25665D01*
X-1531Y25578D01*
X-1544Y25489D01*
X-1548Y25400D01*
X-1544Y25310D01*
X-1531Y25222D01*
X-1509Y25135D01*
X-1479Y25051D01*
X-1440Y24970D01*
X-1394Y24893D01*
X-1341Y24821D01*
X-1281Y24754D01*
X-1214Y24694D01*
X-1142Y24641D01*
X-1065Y24595D01*
X-984Y24556D01*
X-900Y24526D01*
X-813Y24504D01*
X-725Y24491D01*
X-635Y24487D01*
X635D01*
X725Y24491D01*
X813Y24504D01*
X900Y24526D01*
X984Y24556D01*
X1065Y24595D01*
X1142Y24641D01*
X1214Y24694D01*
X1281Y24754D01*
X1341Y24821D01*
X1394Y24893D01*
X1440Y24970D01*
X1479Y25051D01*
X1509Y25135D01*
X1512Y25149D01*
X5600D01*
X5600Y25149D01*
X5649Y25154D01*
X5696Y25168D01*
X5740Y25191D01*
X5778Y25222D01*
X20178Y39622D01*
X20209Y39660D01*
X20232Y39704D01*
X20236Y39716D01*
X20394Y39874D01*
X21135D01*
X21174Y39831D01*
Y38800D01*
X21178Y38756D01*
X21191Y38713D01*
X21212Y38674D01*
X21240Y38640D01*
X22462Y37418D01*
X6596Y21551D01*
X2304D01*
X1435Y22420D01*
X1440Y22430D01*
X1479Y22511D01*
X1509Y22595D01*
X1531Y22682D01*
X1544Y22770D01*
X1548Y22860D01*
X1544Y22949D01*
X1531Y23038D01*
X1509Y23125D01*
X1479Y23209D01*
X1440Y23290D01*
X1394Y23367D01*
X1341Y23439D01*
X1281Y23506D01*
X1214Y23566D01*
X1142Y23619D01*
X1065Y23665D01*
X984Y23704D01*
X900Y23734D01*
X813Y23756D01*
X725Y23769D01*
X635Y23773D01*
X-635D01*
X-725Y23769D01*
X-813Y23756D01*
X-900Y23734D01*
X-984Y23704D01*
X-1065Y23665D01*
X-1142Y23619D01*
X-1214Y23566D01*
X-1281Y23506D01*
X-1341Y23439D01*
X-1394Y23367D01*
X-1440Y23290D01*
X-1479Y23209D01*
X-1509Y23125D01*
X-1531Y23038D01*
X-1544Y22949D01*
X-1548Y22860D01*
X-1544Y22770D01*
X-1531Y22682D01*
X-1509Y22595D01*
X-1479Y22511D01*
X-1440Y22430D01*
X-1394Y22353D01*
X-1341Y22281D01*
X-1281Y22214D01*
X-1214Y22154D01*
X-1142Y22101D01*
X-1065Y22055D01*
X-984Y22016D01*
X-900Y21986D01*
X-813Y21964D01*
X-725Y21951D01*
X-635Y21947D01*
X635D01*
X725Y21951D01*
X813Y21964D01*
X900Y21986D01*
X984Y22016D01*
X1065Y22055D01*
X1081Y22064D01*
X2022Y21122D01*
X2022Y21122D01*
X2060Y21091D01*
X2104Y21068D01*
X2151Y21054D01*
X2200Y21049D01*
X2200Y21049D01*
X6528D01*
X6576Y20931D01*
X6216Y20571D01*
X1512D01*
X1509Y20585D01*
X1479Y20669D01*
X1440Y20750D01*
X1394Y20827D01*
X1341Y20899D01*
X1281Y20966D01*
X1214Y21026D01*
X1142Y21079D01*
X1065Y21125D01*
X984Y21164D01*
X900Y21194D01*
X813Y21216D01*
X725Y21229D01*
X635Y21233D01*
X-635D01*
X-725Y21229D01*
X-813Y21216D01*
X-900Y21194D01*
X-984Y21164D01*
X-1065Y21125D01*
X-1142Y21079D01*
X-1214Y21026D01*
X-1281Y20966D01*
X-1341Y20899D01*
X-1394Y20827D01*
X-1440Y20750D01*
X-1479Y20669D01*
X-1509Y20585D01*
X-1531Y20498D01*
X-1544Y20409D01*
X-1548Y20320D01*
X-1544Y20230D01*
X-1531Y20142D01*
X-1509Y20055D01*
X-1479Y19971D01*
X-1440Y19890D01*
X-1394Y19813D01*
X-1341Y19741D01*
X-1281Y19674D01*
X-1214Y19614D01*
X-1142Y19561D01*
X-1065Y19515D01*
X-984Y19476D01*
X-900Y19446D01*
X-813Y19424D01*
X-725Y19411D01*
X-635Y19407D01*
X635D01*
X725Y19411D01*
X813Y19424D01*
X900Y19446D01*
X984Y19476D01*
X1065Y19515D01*
X1142Y19561D01*
X1214Y19614D01*
X1281Y19674D01*
X1341Y19741D01*
X1394Y19813D01*
X1440Y19890D01*
X1479Y19971D01*
X1509Y20055D01*
X1512Y20069D01*
X6320D01*
X6320Y20069D01*
X6369Y20074D01*
X6416Y20088D01*
X6460Y20111D01*
X6498Y20142D01*
X22978Y36622D01*
X23009Y36660D01*
X23032Y36704D01*
X23036Y36716D01*
X24357Y38037D01*
X24474Y37988D01*
Y37218D01*
X24240Y36984D01*
X24212Y36950D01*
X24191Y36911D01*
X24178Y36868D01*
X24174Y36824D01*
Y35908D01*
X24178Y35863D01*
X24191Y35821D01*
X24212Y35782D01*
X24240Y35748D01*
X25448Y34540D01*
X25482Y34512D01*
X25521Y34491D01*
X25563Y34478D01*
X25608Y34474D01*
X26000D01*
X26044Y34478D01*
X26087Y34491D01*
X26126Y34512D01*
X26160Y34540D01*
X26460Y34840D01*
X26488Y34874D01*
X26509Y34913D01*
X26522Y34956D01*
X26526Y35000D01*
Y35660D01*
X26575Y35692D01*
X26619Y35731D01*
X26658Y35775D01*
X26691Y35825D01*
X26717Y35877D01*
X26736Y35933D01*
X26747Y35991D01*
X26751Y36050D01*
X26747Y36109D01*
X26736Y36167D01*
X26717Y36223D01*
X26691Y36275D01*
X26658Y36325D01*
X26619Y36369D01*
X26575Y36408D01*
X26525Y36441D01*
X26473Y36467D01*
X26417Y36486D01*
X26359Y36497D01*
X26300Y36501D01*
X26241Y36497D01*
X26183Y36486D01*
X26127Y36467D01*
X26075Y36441D01*
X26025Y36408D01*
X25981Y36369D01*
X25942Y36325D01*
X25909Y36275D01*
X25883Y36223D01*
X25864Y36167D01*
X25853Y36109D01*
X25849Y36050D01*
X25853Y35991D01*
X25864Y35933D01*
X25883Y35877D01*
X25892Y35860D01*
X25838Y35770D01*
X25809Y35747D01*
X25750Y35751D01*
X25691Y35747D01*
X25633Y35736D01*
X25577Y35717D01*
X25533Y35695D01*
X24926Y36301D01*
Y36606D01*
X25210Y36890D01*
X25238Y36924D01*
X25259Y36963D01*
X25272Y37006D01*
X25276Y37050D01*
Y39271D01*
X25302Y39306D01*
X25400Y39374D01*
X25443Y39378D01*
X25485Y39388D01*
X25525Y39404D01*
X25536Y39411D01*
X25632Y39382D01*
X25661Y39286D01*
X25654Y39275D01*
X25638Y39235D01*
X25628Y39193D01*
X25624Y39150D01*
X25628Y39107D01*
X25638Y39065D01*
X25654Y39025D01*
X25677Y38988D01*
X25705Y38955D01*
X25738Y38927D01*
X25775Y38904D01*
X25815Y38888D01*
X25857Y38878D01*
X25900Y38874D01*
X25943Y38878D01*
X25985Y38888D01*
X26025Y38904D01*
X26062Y38927D01*
X26095Y38955D01*
X26095Y38955D01*
X26213Y38978D01*
X26253Y38974D01*
X26259Y38972D01*
X26390Y38840D01*
X26424Y38812D01*
X26463Y38791D01*
X26506Y38778D01*
X26550Y38774D01*
X27410D01*
X27442Y38725D01*
X27481Y38681D01*
X27525Y38642D01*
X27555Y38623D01*
X27566Y38550D01*
X27555Y38477D01*
X27525Y38458D01*
X27481Y38419D01*
X27442Y38375D01*
X27409Y38325D01*
X27383Y38273D01*
X27364Y38217D01*
X27353Y38159D01*
X27349Y38100D01*
X27353Y38041D01*
X27364Y37983D01*
X27383Y37927D01*
X27409Y37875D01*
X27442Y37825D01*
X27481Y37781D01*
X27525Y37742D01*
X27575Y37709D01*
X27627Y37683D01*
X27683Y37664D01*
X27741Y37653D01*
X27800Y37649D01*
X27859Y37653D01*
X27917Y37664D01*
X27973Y37683D01*
X28025Y37709D01*
X28075Y37742D01*
X28119Y37781D01*
X28158Y37825D01*
X28191Y37875D01*
X28217Y37927D01*
X28236Y37983D01*
X28247Y38041D01*
X28251Y38100D01*
X28247Y38159D01*
X28236Y38217D01*
X28217Y38273D01*
X28191Y38325D01*
X28189Y38327D01*
X29185Y39323D01*
X29213Y39357D01*
X29234Y39396D01*
X29247Y39438D01*
X29251Y39483D01*
Y40717D01*
X29247Y40762D01*
X29234Y40804D01*
X29213Y40843D01*
X29185Y40877D01*
X28602Y41460D01*
X28568Y41488D01*
X28529Y41509D01*
X28487Y41522D01*
X28442Y41526D01*
X27585D01*
X27571Y41538D01*
X27531Y41559D01*
X27489Y41572D01*
X27445Y41576D01*
X27155D01*
X27111Y41572D01*
X27108Y41571D01*
X27048Y41685D01*
X27127Y41749D01*
X27133Y41754D01*
X27139Y41760D01*
X27143Y41765D01*
X27148Y41769D01*
X27153Y41776D01*
X27158Y41782D01*
X27161Y41788D01*
X27165Y41794D01*
X27168Y41801D01*
X27172Y41809D01*
X27174Y41815D01*
X27176Y41821D01*
X27178Y41829D01*
X27181Y41837D01*
X27183Y41848D01*
X27210Y41890D01*
X27252Y41917D01*
X27329Y41932D01*
X27330Y41933D01*
X27336Y41934D01*
X27342Y41936D01*
X27350Y41939D01*
X27358Y41941D01*
X27364Y41944D01*
X27370Y41946D01*
X27377Y41951D01*
X27384Y41955D01*
X27389Y41959D01*
X27395Y41963D01*
X27694Y42202D01*
X27700Y42208D01*
X27707Y42213D01*
X27711Y42218D01*
X27715Y42223D01*
X27720Y42230D01*
X27725Y42236D01*
X27728Y42242D01*
X27732Y42247D01*
X27735Y42255D01*
X27739Y42262D01*
X27741Y42269D01*
X27744Y42274D01*
X27745Y42283D01*
X27748Y42291D01*
X27748Y42297D01*
X27750Y42303D01*
X27750Y42312D01*
X27751Y42320D01*
X27751Y43213D01*
X27750Y43221D01*
Y43228D01*
X27749Y43235D01*
X27748Y43243D01*
X27746Y43250D01*
X27744Y43257D01*
X27741Y43264D01*
X27739Y43271D01*
X27736Y43277D01*
X27733Y43284D01*
X27729Y43290D01*
X27725Y43297D01*
X27721Y43303D01*
X27717Y43309D01*
X27711Y43314D01*
X27707Y43320D01*
X27701Y43324D01*
X27696Y43330D01*
X27689Y43334D01*
X27684Y43339D01*
X27677Y43342D01*
X27671Y43346D01*
X27659Y43352D01*
X27591Y43475D01*
X27617Y43527D01*
X27636Y43583D01*
X27647Y43641D01*
X27651Y43700D01*
X27647Y43759D01*
X27636Y43817D01*
X27617Y43873D01*
X27591Y43925D01*
X27659Y44048D01*
X27671Y44054D01*
X27677Y44058D01*
X27684Y44061D01*
X27689Y44066D01*
X27696Y44070D01*
X27701Y44076D01*
X27707Y44080D01*
X27711Y44086D01*
X27717Y44091D01*
X27721Y44097D01*
X27725Y44103D01*
X27729Y44110D01*
X27733Y44116D01*
X27736Y44123D01*
X27739Y44129D01*
X27741Y44136D01*
X27744Y44143D01*
X27746Y44150D01*
X27748Y44157D01*
X27749Y44165D01*
X27750Y44172D01*
Y44179D01*
X27751Y44187D01*
X27751Y44585D01*
X27751Y44586D01*
X27751Y44588D01*
X27749Y44601D01*
X27748Y44614D01*
X27747Y44616D01*
X27747Y44617D01*
X27743Y44630D01*
X27739Y44642D01*
X27738Y44644D01*
X27738Y44645D01*
X27732Y44657D01*
X27725Y44668D01*
X27724Y44670D01*
X27723Y44671D01*
X27715Y44681D01*
X27707Y44691D01*
X27704Y44739D01*
X27704Y44791D01*
X27704Y44794D01*
X27717Y44839D01*
X27741Y44875D01*
X27767Y44927D01*
X27786Y44983D01*
X27797Y45041D01*
X27801Y45100D01*
X27797Y45159D01*
X27786Y45217D01*
X27767Y45273D01*
X27741Y45325D01*
X27708Y45375D01*
X27669Y45419D01*
X27625Y45458D01*
X27575Y45491D01*
X27523Y45517D01*
X27467Y45536D01*
X27409Y45547D01*
X27350Y45551D01*
X27291Y45547D01*
X27233Y45536D01*
X27177Y45517D01*
X27125Y45491D01*
X27075Y45458D01*
X27031Y45419D01*
X26992Y45375D01*
X26959Y45325D01*
X26933Y45273D01*
X26914Y45217D01*
X26903Y45159D01*
X26899Y45100D01*
X26853Y45051D01*
X26277Y45051D01*
X26271Y45050D01*
X26266Y45050D01*
X26257Y45049D01*
X26247Y45048D01*
X26242Y45046D01*
X26237Y45045D01*
X26228Y45042D01*
X26219Y45039D01*
X26214Y45037D01*
X26209Y45035D01*
X26201Y45030D01*
X26193Y45025D01*
X26189Y45022D01*
X26184Y45019D01*
X26177Y45013D01*
X26170Y45007D01*
X26167Y45003D01*
X26163Y44999D01*
X26157Y44991D01*
X26151Y44984D01*
X26149Y44979D01*
X26146Y44975D01*
X26139Y44963D01*
X26025Y44896D01*
X25985Y44912D01*
X25943Y44922D01*
X25900Y44926D01*
X25857Y44922D01*
X25815Y44912D01*
X25775Y44896D01*
X25738Y44873D01*
X25705Y44845D01*
X25677Y44812D01*
X25654Y44775D01*
X25638Y44735D01*
X25628Y44693D01*
X25624Y44650D01*
X25628Y44607D01*
X25638Y44565D01*
X25654Y44525D01*
X25677Y44488D01*
X25705Y44455D01*
X25738Y44427D01*
X25775Y44404D01*
X25815Y44388D01*
X25857Y44378D01*
X25900Y44374D01*
X25943Y44378D01*
X25999Y44260D01*
X25999Y44257D01*
X26000Y44250D01*
X26001Y44243D01*
X26003Y44236D01*
X26005Y44228D01*
X26007Y44222D01*
X26010Y44215D01*
X26013Y44208D01*
X26016Y44201D01*
X26017Y44200D01*
X26027Y44150D01*
X26017Y44102D01*
X25990Y44060D01*
X25948Y44033D01*
X25900Y44023D01*
X25852Y44033D01*
X25808Y44062D01*
X25796Y44076D01*
X25796Y44077D01*
X25261Y44611D01*
X25261Y44611D01*
X25238Y44630D01*
X25212Y44644D01*
X25184Y44652D01*
X25155Y44655D01*
X25125Y44652D01*
X25097Y44644D01*
X25071Y44630D01*
X25048Y44611D01*
X24988Y44551D01*
X23277Y44551D01*
X23271Y44550D01*
X23266Y44550D01*
X23257Y44549D01*
X23247Y44548D01*
X23242Y44546D01*
X23237Y44545D01*
X23228Y44542D01*
X23219Y44539D01*
X23214Y44537D01*
X23209Y44535D01*
X23201Y44530D01*
X23193Y44525D01*
X23189Y44522D01*
X23184Y44519D01*
X23177Y44513D01*
X23170Y44507D01*
X23167Y44503D01*
X23163Y44499D01*
X23157Y44491D01*
X23151Y44484D01*
X23149Y44479D01*
X23146Y44475D01*
X23139Y44463D01*
X23025Y44396D01*
X22985Y44412D01*
X22943Y44422D01*
X22900Y44426D01*
X22857Y44422D01*
X22815Y44412D01*
X22775Y44396D01*
X22738Y44373D01*
X22705Y44345D01*
X22677Y44312D01*
X22654Y44275D01*
X22638Y44235D01*
X22628Y44193D01*
X22624Y44150D01*
X22628Y44107D01*
X22638Y44065D01*
X22654Y44025D01*
X22661Y44014D01*
X22655Y43992D01*
X22641Y43982D01*
X22632Y43974D01*
X22632Y43974D01*
X22543Y43885D01*
X22525Y43896D01*
X22485Y43912D01*
X22449Y43921D01*
X21521Y44849D01*
X21522Y44912D01*
X21552Y44998D01*
X21575Y45009D01*
X21625Y45042D01*
X21669Y45081D01*
X21708Y45125D01*
X21741Y45175D01*
X21767Y45227D01*
X21786Y45283D01*
X21797Y45341D01*
X21801Y45400D01*
X21797Y45459D01*
X21786Y45517D01*
X21767Y45573D01*
X21741Y45625D01*
X21708Y45675D01*
X21669Y45719D01*
X21625Y45758D01*
X21575Y45791D01*
X21523Y45817D01*
X21467Y45836D01*
X21409Y45847D01*
X21350Y45851D01*
X21291Y45847D01*
X21233Y45836D01*
X21177Y45817D01*
X21125Y45791D01*
X21075Y45758D01*
X21031Y45719D01*
X20992Y45675D01*
X20959Y45625D01*
X20933Y45573D01*
X20914Y45517D01*
X20903Y45459D01*
X20899Y45400D01*
X20903Y45341D01*
X20914Y45283D01*
X20933Y45227D01*
X20959Y45175D01*
X20992Y45125D01*
X21004Y45113D01*
X20963Y45027D01*
X20935Y44998D01*
X20900Y45001D01*
X19794D01*
X19779Y45012D01*
X19717Y45127D01*
X19736Y45183D01*
X19747Y45241D01*
X19751Y45300D01*
X19747Y45359D01*
X19736Y45417D01*
X19717Y45473D01*
X19691Y45525D01*
X19658Y45575D01*
X19619Y45619D01*
X19575Y45658D01*
X19525Y45691D01*
X19473Y45717D01*
X19417Y45736D01*
X19359Y45747D01*
X19300Y45751D01*
X19241Y45747D01*
X19183Y45736D01*
X19127Y45717D01*
X19075Y45691D01*
X19025Y45658D01*
X18981Y45619D01*
X18942Y45575D01*
X18909Y45525D01*
X18883Y45473D01*
X18864Y45417D01*
X18853Y45359D01*
X18849Y45300D01*
X18853Y45241D01*
X18864Y45183D01*
X18883Y45127D01*
X18821Y45012D01*
X18806Y45001D01*
X15454D01*
X12018Y48438D01*
X11980Y48469D01*
X11936Y48492D01*
X11889Y48506D01*
X11840Y48511D01*
X11840Y48511D01*
X7698D01*
X7691Y48525D01*
X7658Y48575D01*
X7619Y48619D01*
X7575Y48658D01*
X7525Y48691D01*
X7473Y48717D01*
X7417Y48736D01*
X7359Y48747D01*
X7300Y48751D01*
D02*
G37*
G36*
X48895Y44093D02*
X47625D01*
X47535Y44089D01*
X47447Y44076D01*
X47360Y44054D01*
X47276Y44024D01*
X47195Y43985D01*
X47118Y43939D01*
X47046Y43886D01*
X46979Y43826D01*
X46919Y43759D01*
X46866Y43687D01*
X46820Y43610D01*
X46781Y43529D01*
X46751Y43445D01*
X46729Y43358D01*
X46716Y43269D01*
X46712Y43180D01*
X46716Y43090D01*
X46729Y43002D01*
X46751Y42915D01*
X46781Y42831D01*
X46820Y42750D01*
X46866Y42673D01*
X46919Y42601D01*
X46979Y42534D01*
X47046Y42474D01*
X47118Y42421D01*
X47195Y42375D01*
X47276Y42336D01*
X47360Y42306D01*
X47447Y42284D01*
X47535Y42271D01*
X47625Y42267D01*
X48895D01*
X48985Y42271D01*
X49073Y42284D01*
X49160Y42306D01*
X49244Y42336D01*
X49325Y42375D01*
X49402Y42421D01*
X49474Y42474D01*
X49541Y42534D01*
X49601Y42601D01*
X49654Y42673D01*
X49700Y42750D01*
X49739Y42831D01*
X49769Y42915D01*
X49791Y43002D01*
X49804Y43090D01*
X49808Y43180D01*
X49804Y43269D01*
X49791Y43358D01*
X49769Y43445D01*
X49739Y43529D01*
X49700Y43610D01*
X49654Y43687D01*
X49601Y43759D01*
X49541Y43826D01*
X49474Y43886D01*
X49402Y43939D01*
X49325Y43985D01*
X49244Y44024D01*
X49160Y44054D01*
X49073Y44076D01*
X48985Y44089D01*
X48895Y44093D01*
D02*
G37*
G36*
X635D02*
X-635D01*
X-725Y44089D01*
X-813Y44076D01*
X-900Y44054D01*
X-984Y44024D01*
X-1065Y43985D01*
X-1142Y43939D01*
X-1214Y43886D01*
X-1281Y43826D01*
X-1341Y43759D01*
X-1394Y43687D01*
X-1440Y43610D01*
X-1479Y43529D01*
X-1509Y43445D01*
X-1531Y43358D01*
X-1544Y43269D01*
X-1548Y43180D01*
X-1544Y43090D01*
X-1531Y43002D01*
X-1509Y42915D01*
X-1479Y42831D01*
X-1440Y42750D01*
X-1394Y42673D01*
X-1341Y42601D01*
X-1281Y42534D01*
X-1214Y42474D01*
X-1142Y42421D01*
X-1065Y42375D01*
X-984Y42336D01*
X-900Y42306D01*
X-813Y42284D01*
X-725Y42271D01*
X-635Y42267D01*
X635D01*
X725Y42271D01*
X813Y42284D01*
X900Y42306D01*
X984Y42336D01*
X1065Y42375D01*
X1142Y42421D01*
X1214Y42474D01*
X1281Y42534D01*
X1341Y42601D01*
X1394Y42673D01*
X1440Y42750D01*
X1479Y42831D01*
X1509Y42915D01*
X1531Y43002D01*
X1544Y43090D01*
X1548Y43180D01*
X1544Y43269D01*
X1531Y43358D01*
X1509Y43445D01*
X1479Y43529D01*
X1440Y43610D01*
X1394Y43687D01*
X1341Y43759D01*
X1281Y43826D01*
X1214Y43886D01*
X1142Y43939D01*
X1065Y43985D01*
X984Y44024D01*
X900Y44054D01*
X813Y44076D01*
X725Y44089D01*
X635Y44093D01*
D02*
G37*
G36*
X18000Y41951D02*
X17941Y41947D01*
X17883Y41936D01*
X17827Y41917D01*
X17775Y41891D01*
X17725Y41858D01*
X17681Y41819D01*
X17642Y41775D01*
X17609Y41725D01*
X17583Y41673D01*
X17564Y41617D01*
X17553Y41559D01*
X17549Y41500D01*
X17553Y41441D01*
X17564Y41383D01*
X17583Y41327D01*
X17609Y41275D01*
X17642Y41225D01*
X17681Y41181D01*
X17725Y41142D01*
X17775Y41109D01*
X17827Y41083D01*
X17883Y41064D01*
X17941Y41053D01*
X18000Y41049D01*
X18059Y41053D01*
X18117Y41064D01*
X18173Y41083D01*
X18225Y41109D01*
X18275Y41142D01*
X18319Y41181D01*
X18358Y41225D01*
X18391Y41275D01*
X18417Y41327D01*
X18436Y41383D01*
X18447Y41441D01*
X18451Y41500D01*
X18447Y41559D01*
X18436Y41617D01*
X18417Y41673D01*
X18391Y41725D01*
X18358Y41775D01*
X18319Y41819D01*
X18275Y41858D01*
X18225Y41891D01*
X18173Y41917D01*
X18117Y41936D01*
X18059Y41947D01*
X18000Y41951D01*
D02*
G37*
G36*
X635Y41603D02*
X75D01*
Y40715D01*
X1594D01*
X1594Y40734D01*
X1580Y40828D01*
X1557Y40920D01*
X1525Y41009D01*
X1484Y41094D01*
X1436Y41175D01*
X1380Y41251D01*
X1316Y41321D01*
X1246Y41385D01*
X1170Y41441D01*
X1089Y41489D01*
X1004Y41530D01*
X915Y41562D01*
X823Y41585D01*
X729Y41599D01*
X635Y41603D01*
D02*
G37*
G36*
X-75D02*
X-635D01*
X-729Y41599D01*
X-823Y41585D01*
X-915Y41562D01*
X-1004Y41530D01*
X-1089Y41489D01*
X-1170Y41441D01*
X-1246Y41385D01*
X-1316Y41321D01*
X-1380Y41251D01*
X-1436Y41175D01*
X-1484Y41094D01*
X-1525Y41009D01*
X-1557Y40920D01*
X-1580Y40828D01*
X-1594Y40734D01*
X-1594Y40715D01*
X-75D01*
Y41603D01*
D02*
G37*
G36*
X44080Y41540D02*
X42280D01*
Y39740D01*
X44080D01*
Y41540D01*
D02*
G37*
G36*
X40640Y41541D02*
X40552Y41537D01*
X40464Y41524D01*
X40378Y41502D01*
X40295Y41472D01*
X40215Y41435D01*
X40139Y41389D01*
X40068Y41337D01*
X40003Y41277D01*
X39943Y41212D01*
X39891Y41141D01*
X39845Y41065D01*
X39807Y40985D01*
X39778Y40902D01*
X39756Y40816D01*
X39743Y40728D01*
X39739Y40640D01*
X39743Y40552D01*
X39756Y40464D01*
X39778Y40378D01*
X39807Y40295D01*
X39845Y40215D01*
X39891Y40139D01*
X39943Y40068D01*
X40003Y40003D01*
X40068Y39943D01*
X40139Y39891D01*
X40215Y39845D01*
X40295Y39807D01*
X40378Y39778D01*
X40464Y39756D01*
X40552Y39743D01*
X40640Y39739D01*
X40728Y39743D01*
X40816Y39756D01*
X40902Y39778D01*
X40985Y39807D01*
X41065Y39845D01*
X41141Y39891D01*
X41212Y39943D01*
X41277Y40003D01*
X41337Y40068D01*
X41389Y40139D01*
X41435Y40215D01*
X41472Y40295D01*
X41502Y40378D01*
X41524Y40464D01*
X41537Y40552D01*
X41541Y40640D01*
X41537Y40728D01*
X41524Y40816D01*
X41502Y40902D01*
X41472Y40985D01*
X41435Y41065D01*
X41389Y41141D01*
X41337Y41212D01*
X41277Y41277D01*
X41212Y41337D01*
X41141Y41389D01*
X41065Y41435D01*
X40985Y41472D01*
X40902Y41502D01*
X40816Y41524D01*
X40728Y41537D01*
X40640Y41541D01*
D02*
G37*
G36*
X48895Y41553D02*
X47625D01*
X47535Y41549D01*
X47447Y41536D01*
X47360Y41514D01*
X47276Y41484D01*
X47195Y41445D01*
X47118Y41399D01*
X47046Y41346D01*
X46979Y41286D01*
X46919Y41219D01*
X46866Y41147D01*
X46820Y41070D01*
X46781Y40989D01*
X46751Y40905D01*
X46729Y40818D01*
X46716Y40729D01*
X46712Y40640D01*
X46716Y40550D01*
X46729Y40462D01*
X46751Y40375D01*
X46781Y40291D01*
X46820Y40210D01*
X46866Y40133D01*
X46919Y40061D01*
X46979Y39994D01*
X47046Y39934D01*
X47118Y39881D01*
X47195Y39835D01*
X47276Y39796D01*
X47360Y39766D01*
X47447Y39744D01*
X47535Y39731D01*
X47625Y39727D01*
X48895D01*
X48985Y39731D01*
X49073Y39744D01*
X49160Y39766D01*
X49244Y39796D01*
X49325Y39835D01*
X49402Y39881D01*
X49474Y39934D01*
X49541Y39994D01*
X49601Y40061D01*
X49654Y40133D01*
X49700Y40210D01*
X49739Y40291D01*
X49769Y40375D01*
X49791Y40462D01*
X49804Y40550D01*
X49808Y40640D01*
X49804Y40729D01*
X49791Y40818D01*
X49769Y40905D01*
X49739Y40989D01*
X49700Y41070D01*
X49654Y41147D01*
X49601Y41219D01*
X49541Y41286D01*
X49474Y41346D01*
X49402Y41399D01*
X49325Y41445D01*
X49244Y41484D01*
X49160Y41514D01*
X49073Y41536D01*
X48985Y41549D01*
X48895Y41553D01*
D02*
G37*
G36*
X1594Y40565D02*
X75D01*
Y39677D01*
X635D01*
X729Y39681D01*
X823Y39695D01*
X915Y39718D01*
X1004Y39750D01*
X1089Y39791D01*
X1170Y39839D01*
X1246Y39895D01*
X1316Y39959D01*
X1380Y40029D01*
X1436Y40105D01*
X1484Y40186D01*
X1525Y40271D01*
X1557Y40360D01*
X1580Y40452D01*
X1594Y40546D01*
X1594Y40565D01*
D02*
G37*
G36*
X-75D02*
X-1594D01*
X-1594Y40546D01*
X-1580Y40452D01*
X-1557Y40360D01*
X-1525Y40271D01*
X-1484Y40186D01*
X-1436Y40105D01*
X-1380Y40029D01*
X-1316Y39959D01*
X-1246Y39895D01*
X-1170Y39839D01*
X-1089Y39791D01*
X-1004Y39750D01*
X-915Y39718D01*
X-823Y39695D01*
X-729Y39681D01*
X-635Y39677D01*
X-75D01*
Y40565D01*
D02*
G37*
G36*
X20475Y39426D02*
X20416Y39422D01*
X20358Y39411D01*
X20302Y39392D01*
X20250Y39366D01*
X20200Y39333D01*
X20156Y39294D01*
X20117Y39250D01*
X20084Y39200D01*
X20058Y39148D01*
X20039Y39092D01*
X20028Y39034D01*
X20024Y38975D01*
X20028Y38916D01*
X20039Y38858D01*
X20058Y38802D01*
X20084Y38750D01*
X20117Y38700D01*
X20156Y38656D01*
X20200Y38617D01*
X20250Y38584D01*
X20302Y38558D01*
X20358Y38539D01*
X20416Y38528D01*
X20475Y38524D01*
X20534Y38528D01*
X20592Y38539D01*
X20648Y38558D01*
X20700Y38584D01*
X20750Y38617D01*
X20794Y38656D01*
X20833Y38700D01*
X20866Y38750D01*
X20892Y38802D01*
X20911Y38858D01*
X20922Y38916D01*
X20926Y38975D01*
X20922Y39034D01*
X20911Y39092D01*
X20892Y39148D01*
X20866Y39200D01*
X20833Y39250D01*
X20794Y39294D01*
X20750Y39333D01*
X20700Y39366D01*
X20648Y39392D01*
X20592Y39411D01*
X20534Y39422D01*
X20475Y39426D01*
D02*
G37*
G36*
X48895Y39063D02*
X48335D01*
Y38175D01*
X49854D01*
X49854Y38194D01*
X49840Y38288D01*
X49817Y38380D01*
X49785Y38469D01*
X49744Y38554D01*
X49696Y38635D01*
X49640Y38711D01*
X49576Y38781D01*
X49506Y38845D01*
X49430Y38901D01*
X49349Y38949D01*
X49264Y38990D01*
X49175Y39022D01*
X49083Y39045D01*
X48989Y39059D01*
X48895Y39063D01*
D02*
G37*
G36*
X48185D02*
X47625D01*
X47531Y39059D01*
X47437Y39045D01*
X47345Y39022D01*
X47256Y38990D01*
X47171Y38949D01*
X47090Y38901D01*
X47014Y38845D01*
X46944Y38781D01*
X46880Y38711D01*
X46824Y38635D01*
X46776Y38554D01*
X46735Y38469D01*
X46703Y38380D01*
X46680Y38288D01*
X46666Y38194D01*
X46666Y38175D01*
X48185D01*
Y39063D01*
D02*
G37*
G36*
X9300Y38701D02*
X9241Y38697D01*
X9183Y38686D01*
X9127Y38667D01*
X9075Y38641D01*
X9025Y38608D01*
X8981Y38569D01*
X8942Y38525D01*
X8909Y38475D01*
X8883Y38423D01*
X8864Y38367D01*
X8853Y38309D01*
X8849Y38250D01*
X8853Y38191D01*
X8864Y38133D01*
X8883Y38077D01*
X8909Y38025D01*
X8942Y37975D01*
X8981Y37931D01*
X9025Y37892D01*
X9075Y37859D01*
X9127Y37833D01*
X9183Y37814D01*
X9241Y37803D01*
X9300Y37799D01*
X9359Y37803D01*
X9417Y37814D01*
X9473Y37833D01*
X9525Y37859D01*
X9575Y37892D01*
X9619Y37931D01*
X9658Y37975D01*
X9691Y38025D01*
X9717Y38077D01*
X9736Y38133D01*
X9747Y38191D01*
X9751Y38250D01*
X9747Y38309D01*
X9736Y38367D01*
X9717Y38423D01*
X9691Y38475D01*
X9658Y38525D01*
X9619Y38569D01*
X9575Y38608D01*
X9525Y38641D01*
X9473Y38667D01*
X9417Y38686D01*
X9359Y38697D01*
X9300Y38701D01*
D02*
G37*
G36*
X15500Y38151D02*
X15441Y38147D01*
X15383Y38136D01*
X15327Y38117D01*
X15275Y38091D01*
X15225Y38058D01*
X15181Y38019D01*
X15142Y37975D01*
X15109Y37925D01*
X15083Y37873D01*
X15064Y37817D01*
X15053Y37759D01*
X15049Y37700D01*
X15053Y37641D01*
X15064Y37583D01*
X15083Y37527D01*
X15109Y37475D01*
X15142Y37425D01*
X15181Y37381D01*
X15225Y37342D01*
X15275Y37309D01*
X15327Y37283D01*
X15383Y37264D01*
X15441Y37253D01*
X15500Y37249D01*
X15559Y37253D01*
X15617Y37264D01*
X15673Y37283D01*
X15725Y37309D01*
X15775Y37342D01*
X15819Y37381D01*
X15858Y37425D01*
X15891Y37475D01*
X15917Y37527D01*
X15936Y37583D01*
X15947Y37641D01*
X15951Y37700D01*
X15947Y37759D01*
X15936Y37817D01*
X15917Y37873D01*
X15891Y37925D01*
X15858Y37975D01*
X15819Y38019D01*
X15775Y38058D01*
X15725Y38091D01*
X15673Y38117D01*
X15617Y38136D01*
X15559Y38147D01*
X15500Y38151D01*
D02*
G37*
G36*
X635Y39013D02*
X-635D01*
X-725Y39009D01*
X-813Y38996D01*
X-900Y38974D01*
X-984Y38944D01*
X-1065Y38905D01*
X-1142Y38859D01*
X-1214Y38806D01*
X-1281Y38746D01*
X-1341Y38679D01*
X-1394Y38607D01*
X-1440Y38530D01*
X-1479Y38449D01*
X-1509Y38365D01*
X-1531Y38278D01*
X-1544Y38189D01*
X-1548Y38100D01*
X-1544Y38010D01*
X-1531Y37922D01*
X-1509Y37835D01*
X-1479Y37751D01*
X-1440Y37670D01*
X-1394Y37593D01*
X-1341Y37521D01*
X-1281Y37454D01*
X-1214Y37394D01*
X-1142Y37341D01*
X-1065Y37295D01*
X-984Y37256D01*
X-900Y37226D01*
X-813Y37204D01*
X-725Y37191D01*
X-635Y37187D01*
X635D01*
X725Y37191D01*
X813Y37204D01*
X900Y37226D01*
X984Y37256D01*
X1065Y37295D01*
X1142Y37341D01*
X1214Y37394D01*
X1281Y37454D01*
X1341Y37521D01*
X1394Y37593D01*
X1440Y37670D01*
X1479Y37751D01*
X1509Y37835D01*
X1531Y37922D01*
X1544Y38010D01*
X1548Y38100D01*
X1544Y38189D01*
X1531Y38278D01*
X1509Y38365D01*
X1479Y38449D01*
X1440Y38530D01*
X1394Y38607D01*
X1341Y38679D01*
X1281Y38746D01*
X1214Y38806D01*
X1142Y38859D01*
X1065Y38905D01*
X984Y38944D01*
X900Y38974D01*
X813Y38996D01*
X725Y39009D01*
X635Y39013D01*
D02*
G37*
G36*
X49854Y38025D02*
X48335D01*
Y37137D01*
X48895D01*
X48989Y37141D01*
X49083Y37155D01*
X49175Y37178D01*
X49264Y37210D01*
X49349Y37251D01*
X49430Y37299D01*
X49506Y37355D01*
X49576Y37419D01*
X49640Y37489D01*
X49696Y37565D01*
X49744Y37646D01*
X49785Y37731D01*
X49817Y37820D01*
X49840Y37912D01*
X49854Y38006D01*
X49854Y38025D01*
D02*
G37*
G36*
X48185D02*
X46666D01*
X46666Y38006D01*
X46680Y37912D01*
X46703Y37820D01*
X46735Y37731D01*
X46776Y37646D01*
X46824Y37565D01*
X46880Y37489D01*
X46944Y37419D01*
X47014Y37355D01*
X47090Y37299D01*
X47171Y37251D01*
X47256Y37210D01*
X47345Y37178D01*
X47437Y37155D01*
X47531Y37141D01*
X47625Y37137D01*
X48185D01*
Y38025D01*
D02*
G37*
G36*
X5700Y37251D02*
X5641Y37247D01*
X5583Y37236D01*
X5527Y37217D01*
X5475Y37191D01*
X5425Y37158D01*
X5381Y37119D01*
X5342Y37075D01*
X5309Y37025D01*
X5283Y36973D01*
X5264Y36917D01*
X5253Y36859D01*
X5249Y36800D01*
X5253Y36741D01*
X5264Y36683D01*
X5283Y36627D01*
X5309Y36575D01*
X5342Y36525D01*
X5381Y36481D01*
X5425Y36442D01*
X5475Y36409D01*
X5527Y36383D01*
X5583Y36364D01*
X5641Y36353D01*
X5700Y36349D01*
X5759Y36353D01*
X5817Y36364D01*
X5873Y36383D01*
X5925Y36409D01*
X5975Y36442D01*
X6019Y36481D01*
X6058Y36525D01*
X6091Y36575D01*
X6117Y36627D01*
X6136Y36683D01*
X6147Y36741D01*
X6151Y36800D01*
X6147Y36859D01*
X6136Y36917D01*
X6117Y36973D01*
X6091Y37025D01*
X6058Y37075D01*
X6019Y37119D01*
X5975Y37158D01*
X5925Y37191D01*
X5873Y37217D01*
X5817Y37236D01*
X5759Y37247D01*
X5700Y37251D01*
D02*
G37*
G36*
X4800Y36400D02*
X4741Y36396D01*
X4683Y36385D01*
X4627Y36366D01*
X4575Y36340D01*
X4525Y36307D01*
X4481Y36268D01*
X4442Y36224D01*
X4409Y36175D01*
X4383Y36122D01*
X4364Y36066D01*
X4353Y36008D01*
X4349Y35949D01*
X4353Y35890D01*
X4364Y35833D01*
X4383Y35777D01*
X4409Y35724D01*
X4442Y35675D01*
X4481Y35630D01*
X4525Y35591D01*
X4575Y35559D01*
X4627Y35533D01*
X4683Y35514D01*
X4741Y35502D01*
X4800Y35498D01*
X4859Y35502D01*
X4917Y35514D01*
X4973Y35533D01*
X5025Y35559D01*
X5075Y35591D01*
X5119Y35630D01*
X5158Y35675D01*
X5191Y35724D01*
X5217Y35777D01*
X5236Y35833D01*
X5247Y35890D01*
X5251Y35949D01*
X5247Y36008D01*
X5236Y36066D01*
X5217Y36122D01*
X5191Y36175D01*
X5158Y36224D01*
X5119Y36268D01*
X5075Y36307D01*
X5025Y36340D01*
X4973Y36366D01*
X4917Y36385D01*
X4859Y36396D01*
X4800Y36400D01*
D02*
G37*
G36*
X44080Y36460D02*
X42280D01*
Y34660D01*
X44080D01*
Y36460D01*
D02*
G37*
G36*
X48895Y36473D02*
X47625D01*
X47535Y36469D01*
X47447Y36456D01*
X47360Y36434D01*
X47276Y36404D01*
X47195Y36365D01*
X47118Y36319D01*
X47046Y36266D01*
X46979Y36206D01*
X46919Y36139D01*
X46866Y36067D01*
X46820Y35990D01*
X46781Y35909D01*
X46751Y35825D01*
X46729Y35738D01*
X46716Y35649D01*
X46712Y35560D01*
X46716Y35470D01*
X46729Y35382D01*
X46751Y35295D01*
X46781Y35211D01*
X46820Y35130D01*
X46866Y35053D01*
X46919Y34981D01*
X46979Y34914D01*
X47046Y34854D01*
X47118Y34801D01*
X47195Y34755D01*
X47276Y34716D01*
X47360Y34686D01*
X47447Y34664D01*
X47535Y34651D01*
X47625Y34647D01*
X48895D01*
X48985Y34651D01*
X49073Y34664D01*
X49160Y34686D01*
X49244Y34716D01*
X49325Y34755D01*
X49402Y34801D01*
X49474Y34854D01*
X49541Y34914D01*
X49601Y34981D01*
X49654Y35053D01*
X49700Y35130D01*
X49739Y35211D01*
X49769Y35295D01*
X49791Y35382D01*
X49804Y35470D01*
X49808Y35560D01*
X49804Y35649D01*
X49791Y35738D01*
X49769Y35825D01*
X49739Y35909D01*
X49700Y35990D01*
X49654Y36067D01*
X49601Y36139D01*
X49541Y36206D01*
X49474Y36266D01*
X49402Y36319D01*
X49325Y36365D01*
X49244Y36404D01*
X49160Y36434D01*
X49073Y36456D01*
X48985Y36469D01*
X48895Y36473D01*
D02*
G37*
G36*
X635D02*
X-635D01*
X-725Y36469D01*
X-813Y36456D01*
X-900Y36434D01*
X-984Y36404D01*
X-1065Y36365D01*
X-1142Y36319D01*
X-1214Y36266D01*
X-1281Y36206D01*
X-1341Y36139D01*
X-1394Y36067D01*
X-1440Y35990D01*
X-1479Y35909D01*
X-1509Y35825D01*
X-1531Y35738D01*
X-1544Y35649D01*
X-1548Y35560D01*
X-1544Y35470D01*
X-1531Y35382D01*
X-1509Y35295D01*
X-1479Y35211D01*
X-1440Y35130D01*
X-1394Y35053D01*
X-1341Y34981D01*
X-1281Y34914D01*
X-1214Y34854D01*
X-1142Y34801D01*
X-1065Y34755D01*
X-984Y34716D01*
X-900Y34686D01*
X-813Y34664D01*
X-725Y34651D01*
X-635Y34647D01*
X635D01*
X725Y34651D01*
X813Y34664D01*
X900Y34686D01*
X984Y34716D01*
X1065Y34755D01*
X1142Y34801D01*
X1214Y34854D01*
X1281Y34914D01*
X1341Y34981D01*
X1394Y35053D01*
X1440Y35130D01*
X1479Y35211D01*
X1509Y35295D01*
X1531Y35382D01*
X1544Y35470D01*
X1548Y35560D01*
X1544Y35649D01*
X1531Y35738D01*
X1509Y35825D01*
X1479Y35909D01*
X1440Y35990D01*
X1394Y36067D01*
X1341Y36139D01*
X1281Y36206D01*
X1214Y36266D01*
X1142Y36319D01*
X1065Y36365D01*
X984Y36404D01*
X900Y36434D01*
X813Y36456D01*
X725Y36469D01*
X635Y36473D01*
D02*
G37*
G36*
X48895Y33983D02*
X48335D01*
Y33095D01*
X49854D01*
X49854Y33114D01*
X49840Y33208D01*
X49817Y33300D01*
X49785Y33389D01*
X49744Y33474D01*
X49696Y33555D01*
X49640Y33631D01*
X49576Y33701D01*
X49506Y33765D01*
X49430Y33821D01*
X49349Y33869D01*
X49264Y33910D01*
X49175Y33942D01*
X49083Y33965D01*
X48989Y33979D01*
X48895Y33983D01*
D02*
G37*
G36*
X48185D02*
X47625D01*
X47531Y33979D01*
X47437Y33965D01*
X47345Y33942D01*
X47256Y33910D01*
X47171Y33869D01*
X47090Y33821D01*
X47014Y33765D01*
X46944Y33701D01*
X46880Y33631D01*
X46824Y33555D01*
X46776Y33474D01*
X46735Y33389D01*
X46703Y33300D01*
X46680Y33208D01*
X46666Y33114D01*
X46666Y33095D01*
X48185D01*
Y33983D01*
D02*
G37*
G36*
X43180Y33921D02*
X43092Y33917D01*
X43004Y33904D01*
X42918Y33882D01*
X42835Y33852D01*
X42755Y33815D01*
X42679Y33769D01*
X42608Y33717D01*
X42543Y33657D01*
X42483Y33592D01*
X42431Y33521D01*
X42385Y33445D01*
X42347Y33365D01*
X42318Y33282D01*
X42296Y33196D01*
X42283Y33108D01*
X42279Y33020D01*
X42283Y32932D01*
X42296Y32844D01*
X42318Y32758D01*
X42347Y32675D01*
X42385Y32595D01*
X42431Y32519D01*
X42483Y32448D01*
X42543Y32383D01*
X42608Y32323D01*
X42679Y32271D01*
X42755Y32225D01*
X42835Y32188D01*
X42918Y32158D01*
X43004Y32136D01*
X43092Y32123D01*
X43180Y32119D01*
X43268Y32123D01*
X43356Y32136D01*
X43442Y32158D01*
X43525Y32188D01*
X43605Y32225D01*
X43681Y32271D01*
X43752Y32323D01*
X43817Y32383D01*
X43877Y32448D01*
X43929Y32519D01*
X43975Y32595D01*
X44012Y32675D01*
X44042Y32758D01*
X44064Y32844D01*
X44077Y32932D01*
X44081Y33020D01*
X44077Y33108D01*
X44064Y33196D01*
X44042Y33282D01*
X44012Y33365D01*
X43975Y33445D01*
X43929Y33521D01*
X43877Y33592D01*
X43817Y33657D01*
X43752Y33717D01*
X43681Y33769D01*
X43605Y33815D01*
X43525Y33852D01*
X43442Y33882D01*
X43356Y33904D01*
X43268Y33917D01*
X43180Y33921D01*
D02*
G37*
G36*
X635Y33933D02*
X-635D01*
X-725Y33929D01*
X-813Y33916D01*
X-900Y33894D01*
X-984Y33864D01*
X-1065Y33825D01*
X-1142Y33779D01*
X-1214Y33726D01*
X-1281Y33666D01*
X-1341Y33599D01*
X-1394Y33527D01*
X-1440Y33450D01*
X-1479Y33369D01*
X-1509Y33285D01*
X-1531Y33198D01*
X-1544Y33109D01*
X-1548Y33020D01*
X-1544Y32930D01*
X-1531Y32842D01*
X-1509Y32755D01*
X-1479Y32671D01*
X-1440Y32590D01*
X-1394Y32513D01*
X-1341Y32441D01*
X-1281Y32374D01*
X-1214Y32314D01*
X-1142Y32261D01*
X-1065Y32215D01*
X-984Y32176D01*
X-900Y32146D01*
X-813Y32124D01*
X-725Y32111D01*
X-635Y32107D01*
X635D01*
X725Y32111D01*
X813Y32124D01*
X900Y32146D01*
X984Y32176D01*
X1065Y32215D01*
X1142Y32261D01*
X1214Y32314D01*
X1281Y32374D01*
X1341Y32441D01*
X1394Y32513D01*
X1440Y32590D01*
X1479Y32671D01*
X1509Y32755D01*
X1531Y32842D01*
X1544Y32930D01*
X1548Y33020D01*
X1544Y33109D01*
X1531Y33198D01*
X1509Y33285D01*
X1479Y33369D01*
X1440Y33450D01*
X1394Y33527D01*
X1341Y33599D01*
X1281Y33666D01*
X1214Y33726D01*
X1142Y33779D01*
X1065Y33825D01*
X984Y33864D01*
X900Y33894D01*
X813Y33916D01*
X725Y33929D01*
X635Y33933D01*
D02*
G37*
G36*
X49854Y32945D02*
X48335D01*
Y32057D01*
X48895D01*
X48989Y32061D01*
X49083Y32075D01*
X49175Y32098D01*
X49264Y32130D01*
X49349Y32171D01*
X49430Y32219D01*
X49506Y32275D01*
X49576Y32339D01*
X49640Y32409D01*
X49696Y32485D01*
X49744Y32566D01*
X49785Y32651D01*
X49817Y32740D01*
X49840Y32832D01*
X49854Y32926D01*
X49854Y32945D01*
D02*
G37*
G36*
X48185D02*
X46666D01*
X46666Y32926D01*
X46680Y32832D01*
X46703Y32740D01*
X46735Y32651D01*
X46776Y32566D01*
X46824Y32485D01*
X46880Y32409D01*
X46944Y32339D01*
X47014Y32275D01*
X47090Y32219D01*
X47171Y32171D01*
X47256Y32130D01*
X47345Y32098D01*
X47437Y32075D01*
X47531Y32061D01*
X47625Y32057D01*
X48185D01*
Y32945D01*
D02*
G37*
G36*
X48895Y31443D02*
X48335D01*
Y30555D01*
X49854D01*
X49854Y30574D01*
X49840Y30668D01*
X49817Y30760D01*
X49785Y30849D01*
X49744Y30934D01*
X49696Y31015D01*
X49640Y31091D01*
X49576Y31161D01*
X49506Y31225D01*
X49430Y31281D01*
X49349Y31329D01*
X49264Y31370D01*
X49175Y31402D01*
X49083Y31425D01*
X48989Y31439D01*
X48895Y31443D01*
D02*
G37*
G36*
X48185D02*
X47625D01*
X47531Y31439D01*
X47437Y31425D01*
X47345Y31402D01*
X47256Y31370D01*
X47171Y31329D01*
X47090Y31281D01*
X47014Y31225D01*
X46944Y31161D01*
X46880Y31091D01*
X46824Y31015D01*
X46776Y30934D01*
X46735Y30849D01*
X46703Y30760D01*
X46680Y30668D01*
X46666Y30574D01*
X46666Y30555D01*
X48185D01*
Y31443D01*
D02*
G37*
G36*
X43180Y31381D02*
X43092Y31377D01*
X43004Y31364D01*
X42918Y31342D01*
X42835Y31312D01*
X42755Y31275D01*
X42679Y31229D01*
X42608Y31177D01*
X42543Y31117D01*
X42483Y31052D01*
X42431Y30981D01*
X42385Y30905D01*
X42347Y30825D01*
X42318Y30742D01*
X42296Y30656D01*
X42283Y30568D01*
X42279Y30480D01*
X42283Y30392D01*
X42296Y30304D01*
X42318Y30218D01*
X42347Y30135D01*
X42385Y30055D01*
X42431Y29979D01*
X42483Y29908D01*
X42543Y29843D01*
X42608Y29783D01*
X42679Y29731D01*
X42755Y29685D01*
X42835Y29647D01*
X42918Y29618D01*
X43004Y29596D01*
X43092Y29583D01*
X43180Y29579D01*
X43268Y29583D01*
X43356Y29596D01*
X43442Y29618D01*
X43525Y29647D01*
X43605Y29685D01*
X43681Y29731D01*
X43752Y29783D01*
X43817Y29843D01*
X43877Y29908D01*
X43929Y29979D01*
X43975Y30055D01*
X44012Y30135D01*
X44042Y30218D01*
X44064Y30304D01*
X44077Y30392D01*
X44081Y30480D01*
X44077Y30568D01*
X44064Y30656D01*
X44042Y30742D01*
X44012Y30825D01*
X43975Y30905D01*
X43929Y30981D01*
X43877Y31052D01*
X43817Y31117D01*
X43752Y31177D01*
X43681Y31229D01*
X43605Y31275D01*
X43525Y31312D01*
X43442Y31342D01*
X43356Y31364D01*
X43268Y31377D01*
X43180Y31381D01*
D02*
G37*
G36*
X635Y31393D02*
X-635D01*
X-725Y31389D01*
X-813Y31376D01*
X-900Y31354D01*
X-984Y31324D01*
X-1065Y31285D01*
X-1142Y31239D01*
X-1214Y31186D01*
X-1281Y31126D01*
X-1341Y31059D01*
X-1394Y30987D01*
X-1440Y30910D01*
X-1479Y30829D01*
X-1509Y30745D01*
X-1531Y30658D01*
X-1544Y30569D01*
X-1548Y30480D01*
X-1544Y30390D01*
X-1531Y30302D01*
X-1509Y30215D01*
X-1479Y30131D01*
X-1440Y30050D01*
X-1394Y29973D01*
X-1341Y29901D01*
X-1281Y29834D01*
X-1214Y29774D01*
X-1142Y29721D01*
X-1065Y29675D01*
X-984Y29636D01*
X-900Y29606D01*
X-813Y29584D01*
X-725Y29571D01*
X-635Y29567D01*
X635D01*
X725Y29571D01*
X813Y29584D01*
X900Y29606D01*
X984Y29636D01*
X1065Y29675D01*
X1142Y29721D01*
X1214Y29774D01*
X1281Y29834D01*
X1341Y29901D01*
X1394Y29973D01*
X1440Y30050D01*
X1479Y30131D01*
X1509Y30215D01*
X1531Y30302D01*
X1544Y30390D01*
X1548Y30480D01*
X1544Y30569D01*
X1531Y30658D01*
X1509Y30745D01*
X1479Y30829D01*
X1440Y30910D01*
X1394Y30987D01*
X1341Y31059D01*
X1281Y31126D01*
X1214Y31186D01*
X1142Y31239D01*
X1065Y31285D01*
X984Y31324D01*
X900Y31354D01*
X813Y31376D01*
X725Y31389D01*
X635Y31393D01*
D02*
G37*
G36*
X49854Y30405D02*
X48335D01*
Y29517D01*
X48895D01*
X48989Y29521D01*
X49083Y29535D01*
X49175Y29558D01*
X49264Y29590D01*
X49349Y29631D01*
X49430Y29679D01*
X49506Y29735D01*
X49576Y29799D01*
X49640Y29869D01*
X49696Y29945D01*
X49744Y30026D01*
X49785Y30111D01*
X49817Y30200D01*
X49840Y30292D01*
X49854Y30386D01*
X49854Y30405D01*
D02*
G37*
G36*
X48185D02*
X46666D01*
X46666Y30386D01*
X46680Y30292D01*
X46703Y30200D01*
X46735Y30111D01*
X46776Y30026D01*
X46824Y29945D01*
X46880Y29869D01*
X46944Y29799D01*
X47014Y29735D01*
X47090Y29679D01*
X47171Y29631D01*
X47256Y29590D01*
X47345Y29558D01*
X47437Y29535D01*
X47531Y29521D01*
X47625Y29517D01*
X48185D01*
Y30405D01*
D02*
G37*
G36*
X4522Y29651D02*
X4464Y29647D01*
X4406Y29636D01*
X4350Y29617D01*
X4297Y29591D01*
X4248Y29558D01*
X4204Y29519D01*
X4165Y29475D01*
X4132Y29425D01*
X4131Y29424D01*
X3992D01*
X3991Y29425D01*
X3958Y29475D01*
X3919Y29519D01*
X3875Y29558D01*
X3825Y29591D01*
X3773Y29617D01*
X3717Y29636D01*
X3659Y29647D01*
X3600Y29651D01*
X3541Y29647D01*
X3483Y29636D01*
X3427Y29617D01*
X3375Y29591D01*
X3325Y29558D01*
X3281Y29519D01*
X3242Y29475D01*
X3209Y29425D01*
X3183Y29373D01*
X3164Y29317D01*
X3153Y29259D01*
X3149Y29200D01*
X3153Y29141D01*
X3164Y29083D01*
X3183Y29027D01*
X3209Y28975D01*
X3242Y28925D01*
X3281Y28881D01*
X3325Y28842D01*
X3375Y28809D01*
X3427Y28783D01*
X3483Y28764D01*
X3541Y28753D01*
X3600Y28749D01*
X3659Y28753D01*
X3717Y28764D01*
X3773Y28783D01*
X3825Y28809D01*
X3875Y28842D01*
X3919Y28881D01*
X3958Y28925D01*
X3991Y28975D01*
X3992Y28976D01*
X4131D01*
X4132Y28975D01*
X4165Y28925D01*
X4204Y28881D01*
X4248Y28842D01*
X4297Y28809D01*
X4350Y28783D01*
X4406Y28764D01*
X4464Y28753D01*
X4522Y28749D01*
X4581Y28753D01*
X4639Y28764D01*
X4695Y28783D01*
X4748Y28809D01*
X4797Y28842D01*
X4841Y28881D01*
X4880Y28925D01*
X4913Y28975D01*
X4939Y29027D01*
X4958Y29083D01*
X4970Y29141D01*
X4973Y29200D01*
X4970Y29259D01*
X4958Y29317D01*
X4939Y29373D01*
X4913Y29425D01*
X4880Y29475D01*
X4841Y29519D01*
X4797Y29558D01*
X4748Y29591D01*
X4695Y29617D01*
X4639Y29636D01*
X4581Y29647D01*
X4522Y29651D01*
D02*
G37*
G36*
X48895Y28853D02*
X47625D01*
X47535Y28849D01*
X47447Y28836D01*
X47360Y28814D01*
X47276Y28784D01*
X47195Y28745D01*
X47118Y28699D01*
X47046Y28646D01*
X46979Y28586D01*
X46919Y28519D01*
X46866Y28447D01*
X46820Y28370D01*
X46781Y28289D01*
X46751Y28205D01*
X46729Y28118D01*
X46716Y28029D01*
X46712Y27940D01*
X46716Y27850D01*
X46729Y27762D01*
X46751Y27675D01*
X46781Y27591D01*
X46820Y27510D01*
X46866Y27433D01*
X46919Y27361D01*
X46979Y27294D01*
X47046Y27234D01*
X47118Y27181D01*
X47195Y27135D01*
X47276Y27096D01*
X47360Y27066D01*
X47447Y27044D01*
X47535Y27031D01*
X47625Y27027D01*
X48895D01*
X48985Y27031D01*
X49073Y27044D01*
X49160Y27066D01*
X49244Y27096D01*
X49325Y27135D01*
X49402Y27181D01*
X49474Y27234D01*
X49541Y27294D01*
X49601Y27361D01*
X49654Y27433D01*
X49700Y27510D01*
X49739Y27591D01*
X49769Y27675D01*
X49791Y27762D01*
X49804Y27850D01*
X49808Y27940D01*
X49804Y28029D01*
X49791Y28118D01*
X49769Y28205D01*
X49739Y28289D01*
X49700Y28370D01*
X49654Y28447D01*
X49601Y28519D01*
X49541Y28586D01*
X49474Y28646D01*
X49402Y28699D01*
X49325Y28745D01*
X49244Y28784D01*
X49160Y28814D01*
X49073Y28836D01*
X48985Y28849D01*
X48895Y28853D01*
D02*
G37*
G36*
X635D02*
X-635D01*
X-725Y28849D01*
X-813Y28836D01*
X-900Y28814D01*
X-984Y28784D01*
X-1065Y28745D01*
X-1142Y28699D01*
X-1214Y28646D01*
X-1281Y28586D01*
X-1341Y28519D01*
X-1394Y28447D01*
X-1440Y28370D01*
X-1479Y28289D01*
X-1509Y28205D01*
X-1531Y28118D01*
X-1544Y28029D01*
X-1548Y27940D01*
X-1544Y27850D01*
X-1531Y27762D01*
X-1509Y27675D01*
X-1479Y27591D01*
X-1440Y27510D01*
X-1394Y27433D01*
X-1341Y27361D01*
X-1281Y27294D01*
X-1214Y27234D01*
X-1142Y27181D01*
X-1065Y27135D01*
X-984Y27096D01*
X-900Y27066D01*
X-813Y27044D01*
X-725Y27031D01*
X-635Y27027D01*
X635D01*
X725Y27031D01*
X813Y27044D01*
X900Y27066D01*
X984Y27096D01*
X1065Y27135D01*
X1142Y27181D01*
X1214Y27234D01*
X1281Y27294D01*
X1341Y27361D01*
X1394Y27433D01*
X1440Y27510D01*
X1479Y27591D01*
X1509Y27675D01*
X1531Y27762D01*
X1544Y27850D01*
X1548Y27940D01*
X1544Y28029D01*
X1531Y28118D01*
X1509Y28205D01*
X1479Y28289D01*
X1440Y28370D01*
X1394Y28447D01*
X1341Y28519D01*
X1281Y28586D01*
X1214Y28646D01*
X1142Y28699D01*
X1065Y28745D01*
X984Y28784D01*
X900Y28814D01*
X813Y28836D01*
X725Y28849D01*
X635Y28853D01*
D02*
G37*
G36*
X48895Y26313D02*
X47625D01*
X47535Y26309D01*
X47447Y26296D01*
X47360Y26274D01*
X47276Y26244D01*
X47195Y26205D01*
X47118Y26159D01*
X47046Y26106D01*
X46979Y26046D01*
X46919Y25979D01*
X46866Y25907D01*
X46820Y25830D01*
X46781Y25749D01*
X46751Y25665D01*
X46729Y25578D01*
X46716Y25489D01*
X46712Y25400D01*
X46716Y25310D01*
X46729Y25222D01*
X46751Y25135D01*
X46781Y25051D01*
X46820Y24970D01*
X46866Y24893D01*
X46919Y24821D01*
X46979Y24754D01*
X47046Y24694D01*
X47118Y24641D01*
X47195Y24595D01*
X47276Y24556D01*
X47360Y24526D01*
X47447Y24504D01*
X47535Y24491D01*
X47625Y24487D01*
X48895D01*
X48985Y24491D01*
X49073Y24504D01*
X49160Y24526D01*
X49244Y24556D01*
X49325Y24595D01*
X49402Y24641D01*
X49474Y24694D01*
X49541Y24754D01*
X49601Y24821D01*
X49654Y24893D01*
X49700Y24970D01*
X49739Y25051D01*
X49769Y25135D01*
X49791Y25222D01*
X49804Y25310D01*
X49808Y25400D01*
X49804Y25489D01*
X49791Y25578D01*
X49769Y25665D01*
X49739Y25749D01*
X49700Y25830D01*
X49654Y25907D01*
X49601Y25979D01*
X49541Y26046D01*
X49474Y26106D01*
X49402Y26159D01*
X49325Y26205D01*
X49244Y26244D01*
X49160Y26274D01*
X49073Y26296D01*
X48985Y26309D01*
X48895Y26313D01*
D02*
G37*
G36*
Y23773D02*
X47625D01*
X47535Y23769D01*
X47447Y23756D01*
X47360Y23734D01*
X47276Y23704D01*
X47195Y23665D01*
X47118Y23619D01*
X47046Y23566D01*
X46979Y23506D01*
X46919Y23439D01*
X46866Y23367D01*
X46820Y23290D01*
X46781Y23209D01*
X46751Y23125D01*
X46729Y23038D01*
X46716Y22949D01*
X46712Y22860D01*
X46716Y22770D01*
X46729Y22682D01*
X46751Y22595D01*
X46781Y22511D01*
X46820Y22430D01*
X46866Y22353D01*
X46919Y22281D01*
X46979Y22214D01*
X47046Y22154D01*
X47118Y22101D01*
X47195Y22055D01*
X47276Y22016D01*
X47360Y21986D01*
X47447Y21964D01*
X47535Y21951D01*
X47625Y21947D01*
X48895D01*
X48985Y21951D01*
X49073Y21964D01*
X49160Y21986D01*
X49244Y22016D01*
X49325Y22055D01*
X49402Y22101D01*
X49474Y22154D01*
X49541Y22214D01*
X49601Y22281D01*
X49654Y22353D01*
X49700Y22430D01*
X49739Y22511D01*
X49769Y22595D01*
X49791Y22682D01*
X49804Y22770D01*
X49808Y22860D01*
X49804Y22949D01*
X49791Y23038D01*
X49769Y23125D01*
X49739Y23209D01*
X49700Y23290D01*
X49654Y23367D01*
X49601Y23439D01*
X49541Y23506D01*
X49474Y23566D01*
X49402Y23619D01*
X49325Y23665D01*
X49244Y23704D01*
X49160Y23734D01*
X49073Y23756D01*
X48985Y23769D01*
X48895Y23773D01*
D02*
G37*
G36*
X44080Y21220D02*
X42280D01*
Y19420D01*
X44080D01*
Y21220D01*
D02*
G37*
G36*
X33920D02*
X32120D01*
Y19420D01*
X33920D01*
Y21220D01*
D02*
G37*
G36*
X48895Y21233D02*
X47625D01*
X47535Y21229D01*
X47447Y21216D01*
X47360Y21194D01*
X47276Y21164D01*
X47195Y21125D01*
X47118Y21079D01*
X47046Y21026D01*
X46979Y20966D01*
X46919Y20899D01*
X46866Y20827D01*
X46820Y20750D01*
X46781Y20669D01*
X46751Y20585D01*
X46729Y20498D01*
X46716Y20409D01*
X46712Y20320D01*
X46716Y20230D01*
X46729Y20142D01*
X46751Y20055D01*
X46781Y19971D01*
X46820Y19890D01*
X46866Y19813D01*
X46919Y19741D01*
X46979Y19674D01*
X47046Y19614D01*
X47118Y19561D01*
X47195Y19515D01*
X47276Y19476D01*
X47360Y19446D01*
X47447Y19424D01*
X47535Y19411D01*
X47625Y19407D01*
X48895D01*
X48985Y19411D01*
X49073Y19424D01*
X49160Y19446D01*
X49244Y19476D01*
X49325Y19515D01*
X49402Y19561D01*
X49474Y19614D01*
X49541Y19674D01*
X49601Y19741D01*
X49654Y19813D01*
X49700Y19890D01*
X49739Y19971D01*
X49769Y20055D01*
X49791Y20142D01*
X49804Y20230D01*
X49808Y20320D01*
X49804Y20409D01*
X49791Y20498D01*
X49769Y20585D01*
X49739Y20669D01*
X49700Y20750D01*
X49654Y20827D01*
X49601Y20899D01*
X49541Y20966D01*
X49474Y21026D01*
X49402Y21079D01*
X49325Y21125D01*
X49244Y21164D01*
X49160Y21194D01*
X49073Y21216D01*
X48985Y21229D01*
X48895Y21233D01*
D02*
G37*
G36*
X635Y18743D02*
X75D01*
Y17855D01*
X1594D01*
X1594Y17874D01*
X1580Y17968D01*
X1557Y18060D01*
X1525Y18149D01*
X1484Y18234D01*
X1436Y18315D01*
X1380Y18391D01*
X1316Y18461D01*
X1246Y18525D01*
X1170Y18581D01*
X1089Y18629D01*
X1004Y18670D01*
X915Y18702D01*
X823Y18725D01*
X729Y18739D01*
X635Y18743D01*
D02*
G37*
G36*
X-75D02*
X-635D01*
X-729Y18739D01*
X-823Y18725D01*
X-915Y18702D01*
X-1004Y18670D01*
X-1089Y18629D01*
X-1170Y18581D01*
X-1246Y18525D01*
X-1316Y18461D01*
X-1380Y18391D01*
X-1436Y18315D01*
X-1484Y18234D01*
X-1525Y18149D01*
X-1557Y18060D01*
X-1580Y17968D01*
X-1594Y17874D01*
X-1594Y17855D01*
X-75D01*
Y18743D01*
D02*
G37*
G36*
X43180Y18681D02*
X43092Y18677D01*
X43004Y18664D01*
X42918Y18642D01*
X42835Y18612D01*
X42755Y18575D01*
X42679Y18529D01*
X42608Y18477D01*
X42543Y18417D01*
X42483Y18352D01*
X42431Y18281D01*
X42385Y18205D01*
X42347Y18125D01*
X42318Y18042D01*
X42296Y17956D01*
X42283Y17868D01*
X42279Y17780D01*
X42283Y17692D01*
X42296Y17604D01*
X42318Y17518D01*
X42347Y17435D01*
X42385Y17355D01*
X42431Y17279D01*
X42483Y17208D01*
X42543Y17143D01*
X42608Y17083D01*
X42679Y17031D01*
X42755Y16985D01*
X42835Y16948D01*
X42918Y16918D01*
X43004Y16896D01*
X43092Y16883D01*
X43180Y16879D01*
X43268Y16883D01*
X43356Y16896D01*
X43442Y16918D01*
X43525Y16948D01*
X43605Y16985D01*
X43681Y17031D01*
X43752Y17083D01*
X43817Y17143D01*
X43877Y17208D01*
X43929Y17279D01*
X43975Y17355D01*
X44012Y17435D01*
X44042Y17518D01*
X44064Y17604D01*
X44077Y17692D01*
X44081Y17780D01*
X44077Y17868D01*
X44064Y17956D01*
X44042Y18042D01*
X44012Y18125D01*
X43975Y18205D01*
X43929Y18281D01*
X43877Y18352D01*
X43817Y18417D01*
X43752Y18477D01*
X43681Y18529D01*
X43605Y18575D01*
X43525Y18612D01*
X43442Y18642D01*
X43356Y18664D01*
X43268Y18677D01*
X43180Y18681D01*
D02*
G37*
G36*
X33020D02*
X32932Y18677D01*
X32844Y18664D01*
X32758Y18642D01*
X32675Y18612D01*
X32595Y18575D01*
X32519Y18529D01*
X32448Y18477D01*
X32383Y18417D01*
X32323Y18352D01*
X32271Y18281D01*
X32225Y18205D01*
X32188Y18125D01*
X32158Y18042D01*
X32136Y17956D01*
X32123Y17868D01*
X32119Y17780D01*
X32123Y17692D01*
X32136Y17604D01*
X32158Y17518D01*
X32188Y17435D01*
X32225Y17355D01*
X32271Y17279D01*
X32323Y17208D01*
X32383Y17143D01*
X32448Y17083D01*
X32519Y17031D01*
X32595Y16985D01*
X32675Y16948D01*
X32758Y16918D01*
X32844Y16896D01*
X32932Y16883D01*
X33020Y16879D01*
X33108Y16883D01*
X33196Y16896D01*
X33282Y16918D01*
X33365Y16948D01*
X33445Y16985D01*
X33521Y17031D01*
X33592Y17083D01*
X33657Y17143D01*
X33717Y17208D01*
X33769Y17279D01*
X33815Y17355D01*
X33852Y17435D01*
X33882Y17518D01*
X33904Y17604D01*
X33917Y17692D01*
X33921Y17780D01*
X33917Y17868D01*
X33904Y17956D01*
X33882Y18042D01*
X33852Y18125D01*
X33815Y18205D01*
X33769Y18281D01*
X33717Y18352D01*
X33657Y18417D01*
X33592Y18477D01*
X33521Y18529D01*
X33445Y18575D01*
X33365Y18612D01*
X33282Y18642D01*
X33196Y18664D01*
X33108Y18677D01*
X33020Y18681D01*
D02*
G37*
G36*
X48895Y18693D02*
X47625D01*
X47535Y18689D01*
X47447Y18676D01*
X47360Y18654D01*
X47276Y18624D01*
X47195Y18585D01*
X47118Y18539D01*
X47046Y18486D01*
X46979Y18426D01*
X46919Y18359D01*
X46866Y18287D01*
X46820Y18210D01*
X46781Y18129D01*
X46751Y18045D01*
X46729Y17958D01*
X46716Y17869D01*
X46712Y17780D01*
X46716Y17690D01*
X46729Y17602D01*
X46751Y17515D01*
X46781Y17431D01*
X46820Y17350D01*
X46866Y17273D01*
X46919Y17201D01*
X46979Y17134D01*
X47046Y17074D01*
X47118Y17021D01*
X47195Y16975D01*
X47276Y16936D01*
X47360Y16906D01*
X47447Y16884D01*
X47535Y16871D01*
X47625Y16867D01*
X48895D01*
X48985Y16871D01*
X49073Y16884D01*
X49160Y16906D01*
X49244Y16936D01*
X49325Y16975D01*
X49402Y17021D01*
X49474Y17074D01*
X49541Y17134D01*
X49601Y17201D01*
X49654Y17273D01*
X49700Y17350D01*
X49739Y17431D01*
X49769Y17515D01*
X49791Y17602D01*
X49804Y17690D01*
X49808Y17780D01*
X49804Y17869D01*
X49791Y17958D01*
X49769Y18045D01*
X49739Y18129D01*
X49700Y18210D01*
X49654Y18287D01*
X49601Y18359D01*
X49541Y18426D01*
X49474Y18486D01*
X49402Y18539D01*
X49325Y18585D01*
X49244Y18624D01*
X49160Y18654D01*
X49073Y18676D01*
X48985Y18689D01*
X48895Y18693D01*
D02*
G37*
G36*
X1594Y17705D02*
X75D01*
Y16817D01*
X635D01*
X729Y16821D01*
X823Y16835D01*
X915Y16858D01*
X1004Y16890D01*
X1089Y16931D01*
X1170Y16979D01*
X1246Y17035D01*
X1316Y17099D01*
X1380Y17169D01*
X1436Y17245D01*
X1484Y17326D01*
X1525Y17411D01*
X1557Y17500D01*
X1580Y17592D01*
X1594Y17686D01*
X1594Y17705D01*
D02*
G37*
G36*
X-75D02*
X-1594D01*
X-1594Y17686D01*
X-1580Y17592D01*
X-1557Y17500D01*
X-1525Y17411D01*
X-1484Y17326D01*
X-1436Y17245D01*
X-1380Y17169D01*
X-1316Y17099D01*
X-1246Y17035D01*
X-1170Y16979D01*
X-1089Y16931D01*
X-1004Y16890D01*
X-915Y16858D01*
X-823Y16835D01*
X-729Y16821D01*
X-635Y16817D01*
X-75D01*
Y17705D01*
D02*
G37*
G36*
X48895Y16203D02*
X48335D01*
Y15315D01*
X49854D01*
X49854Y15334D01*
X49840Y15428D01*
X49817Y15520D01*
X49785Y15609D01*
X49744Y15694D01*
X49696Y15775D01*
X49640Y15851D01*
X49576Y15921D01*
X49506Y15985D01*
X49430Y16041D01*
X49349Y16089D01*
X49264Y16130D01*
X49175Y16162D01*
X49083Y16185D01*
X48989Y16199D01*
X48895Y16203D01*
D02*
G37*
G36*
X48185D02*
X47625D01*
X47531Y16199D01*
X47437Y16185D01*
X47345Y16162D01*
X47256Y16130D01*
X47171Y16089D01*
X47090Y16041D01*
X47014Y15985D01*
X46944Y15921D01*
X46880Y15851D01*
X46824Y15775D01*
X46776Y15694D01*
X46735Y15609D01*
X46703Y15520D01*
X46680Y15428D01*
X46666Y15334D01*
X46666Y15315D01*
X48185D01*
Y16203D01*
D02*
G37*
G36*
X635D02*
X75D01*
Y15315D01*
X1594D01*
X1594Y15334D01*
X1580Y15428D01*
X1557Y15520D01*
X1525Y15609D01*
X1484Y15694D01*
X1436Y15775D01*
X1380Y15851D01*
X1316Y15921D01*
X1246Y15985D01*
X1170Y16041D01*
X1089Y16089D01*
X1004Y16130D01*
X915Y16162D01*
X823Y16185D01*
X729Y16199D01*
X635Y16203D01*
D02*
G37*
G36*
X-75D02*
X-635D01*
X-729Y16199D01*
X-823Y16185D01*
X-915Y16162D01*
X-1004Y16130D01*
X-1089Y16089D01*
X-1170Y16041D01*
X-1246Y15985D01*
X-1316Y15921D01*
X-1380Y15851D01*
X-1436Y15775D01*
X-1484Y15694D01*
X-1525Y15609D01*
X-1557Y15520D01*
X-1580Y15428D01*
X-1594Y15334D01*
X-1594Y15315D01*
X-75D01*
Y16203D01*
D02*
G37*
G36*
X43180Y16141D02*
X43092Y16137D01*
X43004Y16124D01*
X42918Y16102D01*
X42835Y16072D01*
X42755Y16035D01*
X42679Y15989D01*
X42608Y15937D01*
X42543Y15877D01*
X42483Y15812D01*
X42431Y15741D01*
X42385Y15665D01*
X42347Y15585D01*
X42318Y15502D01*
X42296Y15416D01*
X42283Y15328D01*
X42279Y15240D01*
X42283Y15152D01*
X42296Y15064D01*
X42318Y14978D01*
X42347Y14895D01*
X42385Y14815D01*
X42431Y14739D01*
X42483Y14668D01*
X42543Y14603D01*
X42608Y14543D01*
X42679Y14491D01*
X42755Y14445D01*
X42835Y14408D01*
X42918Y14378D01*
X43004Y14356D01*
X43092Y14343D01*
X43180Y14339D01*
X43268Y14343D01*
X43356Y14356D01*
X43442Y14378D01*
X43525Y14408D01*
X43605Y14445D01*
X43681Y14491D01*
X43752Y14543D01*
X43817Y14603D01*
X43877Y14668D01*
X43929Y14739D01*
X43975Y14815D01*
X44012Y14895D01*
X44042Y14978D01*
X44064Y15064D01*
X44077Y15152D01*
X44081Y15240D01*
X44077Y15328D01*
X44064Y15416D01*
X44042Y15502D01*
X44012Y15585D01*
X43975Y15665D01*
X43929Y15741D01*
X43877Y15812D01*
X43817Y15877D01*
X43752Y15937D01*
X43681Y15989D01*
X43605Y16035D01*
X43525Y16072D01*
X43442Y16102D01*
X43356Y16124D01*
X43268Y16137D01*
X43180Y16141D01*
D02*
G37*
G36*
X33020D02*
X32932Y16137D01*
X32844Y16124D01*
X32758Y16102D01*
X32675Y16072D01*
X32595Y16035D01*
X32519Y15989D01*
X32448Y15937D01*
X32383Y15877D01*
X32323Y15812D01*
X32271Y15741D01*
X32225Y15665D01*
X32188Y15585D01*
X32158Y15502D01*
X32136Y15416D01*
X32123Y15328D01*
X32119Y15240D01*
X32123Y15152D01*
X32136Y15064D01*
X32158Y14978D01*
X32188Y14895D01*
X32225Y14815D01*
X32271Y14739D01*
X32323Y14668D01*
X32383Y14603D01*
X32448Y14543D01*
X32519Y14491D01*
X32595Y14445D01*
X32675Y14408D01*
X32758Y14378D01*
X32844Y14356D01*
X32932Y14343D01*
X33020Y14339D01*
X33108Y14343D01*
X33196Y14356D01*
X33282Y14378D01*
X33365Y14408D01*
X33445Y14445D01*
X33521Y14491D01*
X33592Y14543D01*
X33657Y14603D01*
X33717Y14668D01*
X33769Y14739D01*
X33815Y14815D01*
X33852Y14895D01*
X33882Y14978D01*
X33904Y15064D01*
X33917Y15152D01*
X33921Y15240D01*
X33917Y15328D01*
X33904Y15416D01*
X33882Y15502D01*
X33852Y15585D01*
X33815Y15665D01*
X33769Y15741D01*
X33717Y15812D01*
X33657Y15877D01*
X33592Y15937D01*
X33521Y15989D01*
X33445Y16035D01*
X33365Y16072D01*
X33282Y16102D01*
X33196Y16124D01*
X33108Y16137D01*
X33020Y16141D01*
D02*
G37*
G36*
X49854Y15165D02*
X48335D01*
Y14277D01*
X48895D01*
X48989Y14281D01*
X49083Y14295D01*
X49175Y14318D01*
X49264Y14350D01*
X49349Y14391D01*
X49430Y14439D01*
X49506Y14495D01*
X49576Y14559D01*
X49640Y14629D01*
X49696Y14705D01*
X49744Y14786D01*
X49785Y14871D01*
X49817Y14960D01*
X49840Y15052D01*
X49854Y15146D01*
X49854Y15165D01*
D02*
G37*
G36*
X48185D02*
X46666D01*
X46666Y15146D01*
X46680Y15052D01*
X46703Y14960D01*
X46735Y14871D01*
X46776Y14786D01*
X46824Y14705D01*
X46880Y14629D01*
X46944Y14559D01*
X47014Y14495D01*
X47090Y14439D01*
X47171Y14391D01*
X47256Y14350D01*
X47345Y14318D01*
X47437Y14295D01*
X47531Y14281D01*
X47625Y14277D01*
X48185D01*
Y15165D01*
D02*
G37*
G36*
X1594D02*
X75D01*
Y14277D01*
X635D01*
X729Y14281D01*
X823Y14295D01*
X915Y14318D01*
X1004Y14350D01*
X1089Y14391D01*
X1170Y14439D01*
X1246Y14495D01*
X1316Y14559D01*
X1380Y14629D01*
X1436Y14705D01*
X1484Y14786D01*
X1525Y14871D01*
X1557Y14960D01*
X1580Y15052D01*
X1594Y15146D01*
X1594Y15165D01*
D02*
G37*
G36*
X-75D02*
X-1594D01*
X-1594Y15146D01*
X-1580Y15052D01*
X-1557Y14960D01*
X-1525Y14871D01*
X-1484Y14786D01*
X-1436Y14705D01*
X-1380Y14629D01*
X-1316Y14559D01*
X-1246Y14495D01*
X-1170Y14439D01*
X-1089Y14391D01*
X-1004Y14350D01*
X-915Y14318D01*
X-823Y14295D01*
X-729Y14281D01*
X-635Y14277D01*
X-75D01*
Y15165D01*
D02*
G37*
G36*
X48895Y13663D02*
X48335D01*
Y12775D01*
X49854D01*
X49854Y12794D01*
X49840Y12888D01*
X49817Y12980D01*
X49785Y13069D01*
X49744Y13154D01*
X49696Y13235D01*
X49640Y13311D01*
X49576Y13381D01*
X49506Y13445D01*
X49430Y13501D01*
X49349Y13549D01*
X49264Y13590D01*
X49175Y13622D01*
X49083Y13645D01*
X48989Y13659D01*
X48895Y13663D01*
D02*
G37*
G36*
X48185D02*
X47625D01*
X47531Y13659D01*
X47437Y13645D01*
X47345Y13622D01*
X47256Y13590D01*
X47171Y13549D01*
X47090Y13501D01*
X47014Y13445D01*
X46944Y13381D01*
X46880Y13311D01*
X46824Y13235D01*
X46776Y13154D01*
X46735Y13069D01*
X46703Y12980D01*
X46680Y12888D01*
X46666Y12794D01*
X46666Y12775D01*
X48185D01*
Y13663D01*
D02*
G37*
G36*
X635Y13613D02*
X-635D01*
X-725Y13609D01*
X-813Y13596D01*
X-900Y13574D01*
X-984Y13544D01*
X-1065Y13505D01*
X-1142Y13459D01*
X-1214Y13406D01*
X-1281Y13346D01*
X-1341Y13279D01*
X-1394Y13207D01*
X-1440Y13130D01*
X-1479Y13049D01*
X-1509Y12965D01*
X-1531Y12878D01*
X-1544Y12789D01*
X-1548Y12700D01*
X-1544Y12610D01*
X-1531Y12522D01*
X-1509Y12435D01*
X-1479Y12351D01*
X-1440Y12270D01*
X-1394Y12193D01*
X-1341Y12121D01*
X-1281Y12054D01*
X-1214Y11994D01*
X-1142Y11941D01*
X-1065Y11895D01*
X-984Y11856D01*
X-900Y11826D01*
X-813Y11804D01*
X-725Y11791D01*
X-635Y11787D01*
X635D01*
X725Y11791D01*
X813Y11804D01*
X900Y11826D01*
X984Y11856D01*
X1065Y11895D01*
X1142Y11941D01*
X1214Y11994D01*
X1281Y12054D01*
X1341Y12121D01*
X1394Y12193D01*
X1440Y12270D01*
X1479Y12351D01*
X1509Y12435D01*
X1531Y12522D01*
X1544Y12610D01*
X1548Y12700D01*
X1544Y12789D01*
X1531Y12878D01*
X1509Y12965D01*
X1479Y13049D01*
X1440Y13130D01*
X1394Y13207D01*
X1341Y13279D01*
X1281Y13346D01*
X1214Y13406D01*
X1142Y13459D01*
X1065Y13505D01*
X984Y13544D01*
X900Y13574D01*
X813Y13596D01*
X725Y13609D01*
X635Y13613D01*
D02*
G37*
G36*
X49854Y12625D02*
X48335D01*
Y11737D01*
X48895D01*
X48989Y11741D01*
X49083Y11755D01*
X49175Y11778D01*
X49264Y11810D01*
X49349Y11851D01*
X49430Y11899D01*
X49506Y11955D01*
X49576Y12019D01*
X49640Y12089D01*
X49696Y12165D01*
X49744Y12246D01*
X49785Y12331D01*
X49817Y12420D01*
X49840Y12512D01*
X49854Y12606D01*
X49854Y12625D01*
D02*
G37*
G36*
X48185D02*
X46666D01*
X46666Y12606D01*
X46680Y12512D01*
X46703Y12420D01*
X46735Y12331D01*
X46776Y12246D01*
X46824Y12165D01*
X46880Y12089D01*
X46944Y12019D01*
X47014Y11955D01*
X47090Y11899D01*
X47171Y11851D01*
X47256Y11810D01*
X47345Y11778D01*
X47437Y11755D01*
X47531Y11741D01*
X47625Y11737D01*
X48185D01*
Y12625D01*
D02*
G37*
G36*
X48895Y11073D02*
X47625D01*
X47535Y11069D01*
X47447Y11056D01*
X47360Y11034D01*
X47276Y11004D01*
X47195Y10965D01*
X47118Y10919D01*
X47046Y10866D01*
X46979Y10806D01*
X46919Y10739D01*
X46866Y10667D01*
X46820Y10590D01*
X46781Y10509D01*
X46751Y10425D01*
X46729Y10338D01*
X46716Y10249D01*
X46712Y10160D01*
X46716Y10070D01*
X46729Y9982D01*
X46751Y9895D01*
X46781Y9811D01*
X46820Y9730D01*
X46866Y9653D01*
X46919Y9581D01*
X46979Y9514D01*
X47046Y9454D01*
X47118Y9401D01*
X47195Y9355D01*
X47276Y9316D01*
X47360Y9286D01*
X47447Y9264D01*
X47535Y9251D01*
X47625Y9247D01*
X48895D01*
X48985Y9251D01*
X49073Y9264D01*
X49160Y9286D01*
X49244Y9316D01*
X49325Y9355D01*
X49402Y9401D01*
X49474Y9454D01*
X49541Y9514D01*
X49601Y9581D01*
X49654Y9653D01*
X49700Y9730D01*
X49739Y9811D01*
X49769Y9895D01*
X49791Y9982D01*
X49804Y10070D01*
X49808Y10160D01*
X49804Y10249D01*
X49791Y10338D01*
X49769Y10425D01*
X49739Y10509D01*
X49700Y10590D01*
X49654Y10667D01*
X49601Y10739D01*
X49541Y10806D01*
X49474Y10866D01*
X49402Y10919D01*
X49325Y10965D01*
X49244Y11004D01*
X49160Y11034D01*
X49073Y11056D01*
X48985Y11069D01*
X48895Y11073D01*
D02*
G37*
G36*
X635D02*
X-635D01*
X-725Y11069D01*
X-813Y11056D01*
X-900Y11034D01*
X-984Y11004D01*
X-1065Y10965D01*
X-1142Y10919D01*
X-1214Y10866D01*
X-1281Y10806D01*
X-1341Y10739D01*
X-1394Y10667D01*
X-1440Y10590D01*
X-1479Y10509D01*
X-1509Y10425D01*
X-1531Y10338D01*
X-1544Y10249D01*
X-1548Y10160D01*
X-1544Y10070D01*
X-1531Y9982D01*
X-1509Y9895D01*
X-1479Y9811D01*
X-1440Y9730D01*
X-1394Y9653D01*
X-1341Y9581D01*
X-1281Y9514D01*
X-1214Y9454D01*
X-1142Y9401D01*
X-1065Y9355D01*
X-984Y9316D01*
X-900Y9286D01*
X-813Y9264D01*
X-725Y9251D01*
X-635Y9247D01*
X635D01*
X725Y9251D01*
X813Y9264D01*
X900Y9286D01*
X984Y9316D01*
X1065Y9355D01*
X1142Y9401D01*
X1214Y9454D01*
X1281Y9514D01*
X1341Y9581D01*
X1394Y9653D01*
X1440Y9730D01*
X1479Y9811D01*
X1509Y9895D01*
X1531Y9982D01*
X1544Y10070D01*
X1548Y10160D01*
X1544Y10249D01*
X1531Y10338D01*
X1509Y10425D01*
X1479Y10509D01*
X1440Y10590D01*
X1394Y10667D01*
X1341Y10739D01*
X1281Y10806D01*
X1214Y10866D01*
X1142Y10919D01*
X1065Y10965D01*
X984Y11004D01*
X900Y11034D01*
X813Y11056D01*
X725Y11069D01*
X635Y11073D01*
D02*
G37*
G36*
X48895Y8533D02*
X47625D01*
X47535Y8529D01*
X47447Y8516D01*
X47360Y8494D01*
X47276Y8464D01*
X47195Y8425D01*
X47118Y8379D01*
X47046Y8326D01*
X46979Y8266D01*
X46919Y8199D01*
X46866Y8127D01*
X46820Y8050D01*
X46781Y7969D01*
X46751Y7885D01*
X46729Y7798D01*
X46716Y7709D01*
X46712Y7620D01*
X46716Y7530D01*
X46729Y7442D01*
X46751Y7355D01*
X46781Y7271D01*
X46820Y7190D01*
X46866Y7113D01*
X46919Y7041D01*
X46979Y6974D01*
X47046Y6914D01*
X47118Y6861D01*
X47195Y6815D01*
X47276Y6776D01*
X47360Y6746D01*
X47447Y6724D01*
X47535Y6711D01*
X47625Y6707D01*
X48895D01*
X48985Y6711D01*
X49073Y6724D01*
X49160Y6746D01*
X49244Y6776D01*
X49325Y6815D01*
X49402Y6861D01*
X49474Y6914D01*
X49541Y6974D01*
X49601Y7041D01*
X49654Y7113D01*
X49700Y7190D01*
X49739Y7271D01*
X49769Y7355D01*
X49791Y7442D01*
X49804Y7530D01*
X49808Y7620D01*
X49804Y7709D01*
X49791Y7798D01*
X49769Y7885D01*
X49739Y7969D01*
X49700Y8050D01*
X49654Y8127D01*
X49601Y8199D01*
X49541Y8266D01*
X49474Y8326D01*
X49402Y8379D01*
X49325Y8425D01*
X49244Y8464D01*
X49160Y8494D01*
X49073Y8516D01*
X48985Y8529D01*
X48895Y8533D01*
D02*
G37*
G36*
X635D02*
X-635D01*
X-725Y8529D01*
X-813Y8516D01*
X-900Y8494D01*
X-984Y8464D01*
X-1065Y8425D01*
X-1142Y8379D01*
X-1214Y8326D01*
X-1281Y8266D01*
X-1341Y8199D01*
X-1394Y8127D01*
X-1440Y8050D01*
X-1479Y7969D01*
X-1509Y7885D01*
X-1531Y7798D01*
X-1544Y7709D01*
X-1548Y7620D01*
X-1544Y7530D01*
X-1531Y7442D01*
X-1509Y7355D01*
X-1479Y7271D01*
X-1440Y7190D01*
X-1394Y7113D01*
X-1341Y7041D01*
X-1281Y6974D01*
X-1214Y6914D01*
X-1142Y6861D01*
X-1065Y6815D01*
X-984Y6776D01*
X-900Y6746D01*
X-813Y6724D01*
X-725Y6711D01*
X-635Y6707D01*
X635D01*
X725Y6711D01*
X813Y6724D01*
X900Y6746D01*
X984Y6776D01*
X1065Y6815D01*
X1142Y6861D01*
X1214Y6914D01*
X1281Y6974D01*
X1341Y7041D01*
X1394Y7113D01*
X1440Y7190D01*
X1479Y7271D01*
X1509Y7355D01*
X1531Y7442D01*
X1544Y7530D01*
X1548Y7620D01*
X1544Y7709D01*
X1531Y7798D01*
X1509Y7885D01*
X1479Y7969D01*
X1440Y8050D01*
X1394Y8127D01*
X1341Y8199D01*
X1281Y8266D01*
X1214Y8326D01*
X1142Y8379D01*
X1065Y8425D01*
X984Y8464D01*
X900Y8494D01*
X813Y8516D01*
X725Y8529D01*
X635Y8533D01*
D02*
G37*
G36*
X22860Y10946D02*
X22686Y10942D01*
X22512Y10928D01*
X22340Y10905D01*
X22168Y10873D01*
X21999Y10833D01*
X21832Y10783D01*
X21668Y10725D01*
X21507Y10659D01*
X21350Y10584D01*
X21197Y10501D01*
X21048Y10410D01*
X20905Y10311D01*
X20767Y10205D01*
X20634Y10092D01*
X20508Y9972D01*
X20388Y9846D01*
X20275Y9713D01*
X20169Y9575D01*
X20070Y9432D01*
X19979Y9283D01*
X19896Y9130D01*
X19821Y8973D01*
X19755Y8812D01*
X19697Y8648D01*
X19647Y8481D01*
X19607Y8312D01*
X19575Y8140D01*
X19552Y7968D01*
X19538Y7794D01*
X19534Y7620D01*
X19538Y7446D01*
X19552Y7272D01*
X19575Y7100D01*
X19607Y6928D01*
X19647Y6759D01*
X19697Y6592D01*
X19755Y6428D01*
X19821Y6267D01*
X19896Y6110D01*
X19979Y5957D01*
X20070Y5808D01*
X20169Y5665D01*
X20275Y5527D01*
X20388Y5394D01*
X20508Y5268D01*
X20634Y5148D01*
X20767Y5035D01*
X20905Y4929D01*
X21048Y4830D01*
X21197Y4739D01*
X21350Y4656D01*
X21507Y4581D01*
X21668Y4515D01*
X21832Y4457D01*
X21999Y4407D01*
X22168Y4367D01*
X22340Y4335D01*
X22512Y4312D01*
X22686Y4298D01*
X22860Y4294D01*
X23034Y4298D01*
X23208Y4312D01*
X23380Y4335D01*
X23552Y4367D01*
X23721Y4407D01*
X23888Y4457D01*
X24052Y4515D01*
X24213Y4581D01*
X24370Y4656D01*
X24523Y4739D01*
X24672Y4830D01*
X24815Y4929D01*
X24953Y5035D01*
X25086Y5148D01*
X25212Y5268D01*
X25332Y5394D01*
X25445Y5527D01*
X25551Y5665D01*
X25650Y5808D01*
X25741Y5957D01*
X25824Y6110D01*
X25899Y6267D01*
X25965Y6428D01*
X26023Y6592D01*
X26073Y6759D01*
X26113Y6928D01*
X26145Y7100D01*
X26168Y7272D01*
X26182Y7446D01*
X26186Y7620D01*
X26182Y7794D01*
X26168Y7968D01*
X26145Y8140D01*
X26113Y8312D01*
X26073Y8481D01*
X26023Y8648D01*
X25965Y8812D01*
X25899Y8973D01*
X25824Y9130D01*
X25741Y9283D01*
X25650Y9432D01*
X25551Y9575D01*
X25445Y9713D01*
X25332Y9846D01*
X25212Y9972D01*
X25086Y10092D01*
X24953Y10205D01*
X24815Y10311D01*
X24672Y10410D01*
X24523Y10501D01*
X24370Y10584D01*
X24213Y10659D01*
X24052Y10725D01*
X23888Y10783D01*
X23721Y10833D01*
X23552Y10873D01*
X23380Y10905D01*
X23208Y10928D01*
X23034Y10942D01*
X22860Y10946D01*
D02*
G37*
G36*
X48895Y5993D02*
X47625D01*
X47535Y5989D01*
X47447Y5976D01*
X47360Y5954D01*
X47276Y5924D01*
X47195Y5885D01*
X47118Y5839D01*
X47046Y5786D01*
X46979Y5726D01*
X46919Y5659D01*
X46866Y5587D01*
X46820Y5510D01*
X46781Y5429D01*
X46751Y5345D01*
X46729Y5258D01*
X46716Y5169D01*
X46712Y5080D01*
X46716Y4990D01*
X46729Y4902D01*
X46751Y4815D01*
X46781Y4731D01*
X46820Y4650D01*
X46866Y4573D01*
X46919Y4501D01*
X46979Y4434D01*
X47046Y4374D01*
X47118Y4321D01*
X47195Y4275D01*
X47276Y4236D01*
X47360Y4206D01*
X47447Y4184D01*
X47535Y4171D01*
X47625Y4167D01*
X48895D01*
X48985Y4171D01*
X49073Y4184D01*
X49160Y4206D01*
X49244Y4236D01*
X49325Y4275D01*
X49402Y4321D01*
X49474Y4374D01*
X49541Y4434D01*
X49601Y4501D01*
X49654Y4573D01*
X49700Y4650D01*
X49739Y4731D01*
X49769Y4815D01*
X49791Y4902D01*
X49804Y4990D01*
X49808Y5080D01*
X49804Y5169D01*
X49791Y5258D01*
X49769Y5345D01*
X49739Y5429D01*
X49700Y5510D01*
X49654Y5587D01*
X49601Y5659D01*
X49541Y5726D01*
X49474Y5786D01*
X49402Y5839D01*
X49325Y5885D01*
X49244Y5924D01*
X49160Y5954D01*
X49073Y5976D01*
X48985Y5989D01*
X48895Y5993D01*
D02*
G37*
G36*
X635D02*
X-635D01*
X-725Y5989D01*
X-813Y5976D01*
X-900Y5954D01*
X-984Y5924D01*
X-1065Y5885D01*
X-1142Y5839D01*
X-1214Y5786D01*
X-1281Y5726D01*
X-1341Y5659D01*
X-1394Y5587D01*
X-1440Y5510D01*
X-1479Y5429D01*
X-1509Y5345D01*
X-1531Y5258D01*
X-1544Y5169D01*
X-1548Y5080D01*
X-1544Y4990D01*
X-1531Y4902D01*
X-1509Y4815D01*
X-1479Y4731D01*
X-1440Y4650D01*
X-1394Y4573D01*
X-1341Y4501D01*
X-1281Y4434D01*
X-1214Y4374D01*
X-1142Y4321D01*
X-1065Y4275D01*
X-984Y4236D01*
X-900Y4206D01*
X-813Y4184D01*
X-725Y4171D01*
X-635Y4167D01*
X635D01*
X725Y4171D01*
X813Y4184D01*
X900Y4206D01*
X984Y4236D01*
X1065Y4275D01*
X1142Y4321D01*
X1214Y4374D01*
X1281Y4434D01*
X1341Y4501D01*
X1394Y4573D01*
X1440Y4650D01*
X1479Y4731D01*
X1509Y4815D01*
X1531Y4902D01*
X1544Y4990D01*
X1548Y5080D01*
X1544Y5169D01*
X1531Y5258D01*
X1509Y5345D01*
X1479Y5429D01*
X1440Y5510D01*
X1394Y5587D01*
X1341Y5659D01*
X1281Y5726D01*
X1214Y5786D01*
X1142Y5839D01*
X1065Y5885D01*
X984Y5924D01*
X900Y5954D01*
X813Y5976D01*
X725Y5989D01*
X635Y5993D01*
D02*
G37*
G36*
X22935Y1594D02*
Y75D01*
X23823D01*
Y635D01*
X23819Y729D01*
X23805Y823D01*
X23782Y915D01*
X23750Y1004D01*
X23709Y1089D01*
X23661Y1170D01*
X23605Y1246D01*
X23541Y1316D01*
X23471Y1380D01*
X23395Y1436D01*
X23314Y1484D01*
X23229Y1525D01*
X23140Y1557D01*
X23048Y1580D01*
X22954Y1594D01*
X22935Y1594D01*
D02*
G37*
G36*
X20395D02*
Y75D01*
X21283D01*
Y635D01*
X21279Y729D01*
X21265Y823D01*
X21242Y915D01*
X21210Y1004D01*
X21169Y1089D01*
X21121Y1170D01*
X21065Y1246D01*
X21001Y1316D01*
X20931Y1380D01*
X20855Y1436D01*
X20774Y1484D01*
X20689Y1525D01*
X20600Y1557D01*
X20508Y1580D01*
X20414Y1594D01*
X20395Y1594D01*
D02*
G37*
G36*
X962Y1597D02*
X75D01*
Y75D01*
X962D01*
Y1597D01*
D02*
G37*
G36*
X-75D02*
X-962D01*
Y75D01*
X-75D01*
Y1597D01*
D02*
G37*
G36*
X22785Y1594D02*
X22766Y1594D01*
X22672Y1580D01*
X22580Y1557D01*
X22491Y1525D01*
X22406Y1484D01*
X22325Y1436D01*
X22249Y1380D01*
X22179Y1316D01*
X22115Y1246D01*
X22059Y1170D01*
X22011Y1089D01*
X21970Y1004D01*
X21938Y915D01*
X21915Y823D01*
X21901Y729D01*
X21897Y635D01*
Y75D01*
X22785D01*
Y1594D01*
D02*
G37*
G36*
X20245D02*
X20226Y1594D01*
X20132Y1580D01*
X20040Y1557D01*
X19951Y1525D01*
X19866Y1484D01*
X19785Y1436D01*
X19709Y1380D01*
X19639Y1316D01*
X19575Y1246D01*
X19519Y1170D01*
X19471Y1089D01*
X19430Y1004D01*
X19398Y915D01*
X19375Y823D01*
X19361Y729D01*
X19357Y635D01*
Y75D01*
X20245D01*
Y1594D01*
D02*
G37*
G36*
X48260Y1548D02*
X48171Y1544D01*
X48082Y1531D01*
X47995Y1509D01*
X47911Y1479D01*
X47830Y1440D01*
X47753Y1394D01*
X47681Y1341D01*
X47614Y1281D01*
X47554Y1214D01*
X47501Y1142D01*
X47455Y1065D01*
X47416Y984D01*
X47386Y900D01*
X47364Y813D01*
X47351Y724D01*
X47347Y635D01*
Y-635D01*
X47351Y-725D01*
X47364Y-813D01*
X47386Y-900D01*
X47416Y-984D01*
X47455Y-1065D01*
X47501Y-1142D01*
X47554Y-1214D01*
X47614Y-1281D01*
X47681Y-1341D01*
X47753Y-1394D01*
X47830Y-1440D01*
X47911Y-1479D01*
X47995Y-1509D01*
X48082Y-1531D01*
X48171Y-1544D01*
X48260Y-1548D01*
X48349Y-1544D01*
X48438Y-1531D01*
X48525Y-1509D01*
X48609Y-1479D01*
X48690Y-1440D01*
X48767Y-1394D01*
X48839Y-1341D01*
X48906Y-1281D01*
X48966Y-1214D01*
X49019Y-1142D01*
X49065Y-1065D01*
X49104Y-984D01*
X49134Y-900D01*
X49156Y-813D01*
X49169Y-725D01*
X49173Y-635D01*
Y635D01*
X49169Y724D01*
X49156Y813D01*
X49134Y900D01*
X49104Y984D01*
X49065Y1065D01*
X49019Y1142D01*
X48966Y1214D01*
X48906Y1281D01*
X48839Y1341D01*
X48767Y1394D01*
X48690Y1440D01*
X48609Y1479D01*
X48525Y1509D01*
X48438Y1531D01*
X48349Y1544D01*
X48260Y1548D01*
D02*
G37*
G36*
X45720D02*
X45631Y1544D01*
X45542Y1531D01*
X45455Y1509D01*
X45371Y1479D01*
X45290Y1440D01*
X45213Y1394D01*
X45141Y1341D01*
X45074Y1281D01*
X45014Y1214D01*
X44961Y1142D01*
X44915Y1065D01*
X44876Y984D01*
X44846Y900D01*
X44824Y813D01*
X44811Y724D01*
X44807Y635D01*
Y-635D01*
X44811Y-725D01*
X44824Y-813D01*
X44846Y-900D01*
X44876Y-984D01*
X44915Y-1065D01*
X44961Y-1142D01*
X45014Y-1214D01*
X45074Y-1281D01*
X45141Y-1341D01*
X45213Y-1394D01*
X45290Y-1440D01*
X45371Y-1479D01*
X45455Y-1509D01*
X45542Y-1531D01*
X45631Y-1544D01*
X45720Y-1548D01*
X45810Y-1544D01*
X45898Y-1531D01*
X45985Y-1509D01*
X46069Y-1479D01*
X46150Y-1440D01*
X46227Y-1394D01*
X46299Y-1341D01*
X46366Y-1281D01*
X46426Y-1214D01*
X46479Y-1142D01*
X46525Y-1065D01*
X46564Y-984D01*
X46594Y-900D01*
X46616Y-813D01*
X46629Y-725D01*
X46633Y-635D01*
Y635D01*
X46629Y724D01*
X46616Y813D01*
X46594Y900D01*
X46564Y984D01*
X46525Y1065D01*
X46479Y1142D01*
X46426Y1214D01*
X46366Y1281D01*
X46299Y1341D01*
X46227Y1394D01*
X46150Y1440D01*
X46069Y1479D01*
X45985Y1509D01*
X45898Y1531D01*
X45810Y1544D01*
X45720Y1548D01*
D02*
G37*
G36*
X43180D02*
X43090Y1544D01*
X43002Y1531D01*
X42915Y1509D01*
X42831Y1479D01*
X42750Y1440D01*
X42673Y1394D01*
X42601Y1341D01*
X42534Y1281D01*
X42474Y1214D01*
X42421Y1142D01*
X42375Y1065D01*
X42336Y984D01*
X42306Y900D01*
X42284Y813D01*
X42271Y724D01*
X42267Y635D01*
Y-635D01*
X42271Y-725D01*
X42284Y-813D01*
X42306Y-900D01*
X42336Y-984D01*
X42375Y-1065D01*
X42421Y-1142D01*
X42474Y-1214D01*
X42534Y-1281D01*
X42601Y-1341D01*
X42673Y-1394D01*
X42750Y-1440D01*
X42831Y-1479D01*
X42915Y-1509D01*
X43002Y-1531D01*
X43090Y-1544D01*
X43180Y-1548D01*
X43270Y-1544D01*
X43358Y-1531D01*
X43445Y-1509D01*
X43529Y-1479D01*
X43610Y-1440D01*
X43687Y-1394D01*
X43759Y-1341D01*
X43826Y-1281D01*
X43886Y-1214D01*
X43939Y-1142D01*
X43985Y-1065D01*
X44024Y-984D01*
X44054Y-900D01*
X44076Y-813D01*
X44089Y-725D01*
X44093Y-635D01*
Y635D01*
X44089Y724D01*
X44076Y813D01*
X44054Y900D01*
X44024Y984D01*
X43985Y1065D01*
X43939Y1142D01*
X43886Y1214D01*
X43826Y1281D01*
X43759Y1341D01*
X43687Y1394D01*
X43610Y1440D01*
X43529Y1479D01*
X43445Y1509D01*
X43358Y1531D01*
X43270Y1544D01*
X43180Y1548D01*
D02*
G37*
G36*
X40640D02*
X40550Y1544D01*
X40462Y1531D01*
X40375Y1509D01*
X40291Y1479D01*
X40210Y1440D01*
X40133Y1394D01*
X40061Y1341D01*
X39994Y1281D01*
X39934Y1214D01*
X39881Y1142D01*
X39835Y1065D01*
X39796Y984D01*
X39766Y900D01*
X39744Y813D01*
X39731Y724D01*
X39727Y635D01*
Y-635D01*
X39731Y-725D01*
X39744Y-813D01*
X39766Y-900D01*
X39796Y-984D01*
X39835Y-1065D01*
X39881Y-1142D01*
X39934Y-1214D01*
X39994Y-1281D01*
X40061Y-1341D01*
X40133Y-1394D01*
X40210Y-1440D01*
X40291Y-1479D01*
X40375Y-1509D01*
X40462Y-1531D01*
X40550Y-1544D01*
X40640Y-1548D01*
X40729Y-1544D01*
X40818Y-1531D01*
X40905Y-1509D01*
X40989Y-1479D01*
X41070Y-1440D01*
X41147Y-1394D01*
X41219Y-1341D01*
X41286Y-1281D01*
X41346Y-1214D01*
X41399Y-1142D01*
X41445Y-1065D01*
X41484Y-984D01*
X41514Y-900D01*
X41536Y-813D01*
X41549Y-725D01*
X41553Y-635D01*
Y635D01*
X41549Y724D01*
X41536Y813D01*
X41514Y900D01*
X41484Y984D01*
X41445Y1065D01*
X41399Y1142D01*
X41346Y1214D01*
X41286Y1281D01*
X41219Y1341D01*
X41147Y1394D01*
X41070Y1440D01*
X40989Y1479D01*
X40905Y1509D01*
X40818Y1531D01*
X40729Y1544D01*
X40640Y1548D01*
D02*
G37*
G36*
X38100D02*
X38011Y1544D01*
X37922Y1531D01*
X37835Y1509D01*
X37751Y1479D01*
X37670Y1440D01*
X37593Y1394D01*
X37521Y1341D01*
X37454Y1281D01*
X37394Y1214D01*
X37341Y1142D01*
X37295Y1065D01*
X37256Y984D01*
X37226Y900D01*
X37204Y813D01*
X37191Y724D01*
X37187Y635D01*
Y-635D01*
X37191Y-725D01*
X37204Y-813D01*
X37226Y-900D01*
X37256Y-984D01*
X37295Y-1065D01*
X37341Y-1142D01*
X37394Y-1214D01*
X37454Y-1281D01*
X37521Y-1341D01*
X37593Y-1394D01*
X37670Y-1440D01*
X37751Y-1479D01*
X37835Y-1509D01*
X37922Y-1531D01*
X38011Y-1544D01*
X38100Y-1548D01*
X38189Y-1544D01*
X38278Y-1531D01*
X38365Y-1509D01*
X38449Y-1479D01*
X38530Y-1440D01*
X38607Y-1394D01*
X38679Y-1341D01*
X38746Y-1281D01*
X38806Y-1214D01*
X38859Y-1142D01*
X38905Y-1065D01*
X38944Y-984D01*
X38974Y-900D01*
X38996Y-813D01*
X39009Y-725D01*
X39013Y-635D01*
Y635D01*
X39009Y724D01*
X38996Y813D01*
X38974Y900D01*
X38944Y984D01*
X38905Y1065D01*
X38859Y1142D01*
X38806Y1214D01*
X38746Y1281D01*
X38679Y1341D01*
X38607Y1394D01*
X38530Y1440D01*
X38449Y1479D01*
X38365Y1509D01*
X38278Y1531D01*
X38189Y1544D01*
X38100Y1548D01*
D02*
G37*
G36*
X35560D02*
X35471Y1544D01*
X35382Y1531D01*
X35295Y1509D01*
X35211Y1479D01*
X35130Y1440D01*
X35053Y1394D01*
X34981Y1341D01*
X34914Y1281D01*
X34854Y1214D01*
X34801Y1142D01*
X34755Y1065D01*
X34716Y984D01*
X34686Y900D01*
X34664Y813D01*
X34651Y724D01*
X34647Y635D01*
Y-635D01*
X34651Y-725D01*
X34664Y-813D01*
X34686Y-900D01*
X34716Y-984D01*
X34755Y-1065D01*
X34801Y-1142D01*
X34854Y-1214D01*
X34914Y-1281D01*
X34981Y-1341D01*
X35053Y-1394D01*
X35130Y-1440D01*
X35211Y-1479D01*
X35295Y-1509D01*
X35382Y-1531D01*
X35471Y-1544D01*
X35560Y-1548D01*
X35650Y-1544D01*
X35738Y-1531D01*
X35825Y-1509D01*
X35909Y-1479D01*
X35990Y-1440D01*
X36067Y-1394D01*
X36139Y-1341D01*
X36206Y-1281D01*
X36266Y-1214D01*
X36319Y-1142D01*
X36365Y-1065D01*
X36404Y-984D01*
X36434Y-900D01*
X36456Y-813D01*
X36469Y-725D01*
X36473Y-635D01*
Y635D01*
X36469Y724D01*
X36456Y813D01*
X36434Y900D01*
X36404Y984D01*
X36365Y1065D01*
X36319Y1142D01*
X36266Y1214D01*
X36206Y1281D01*
X36139Y1341D01*
X36067Y1394D01*
X35990Y1440D01*
X35909Y1479D01*
X35825Y1509D01*
X35738Y1531D01*
X35650Y1544D01*
X35560Y1548D01*
D02*
G37*
G36*
X33020D02*
X32931Y1544D01*
X32842Y1531D01*
X32755Y1509D01*
X32671Y1479D01*
X32590Y1440D01*
X32513Y1394D01*
X32441Y1341D01*
X32374Y1281D01*
X32314Y1214D01*
X32261Y1142D01*
X32215Y1065D01*
X32176Y984D01*
X32146Y900D01*
X32124Y813D01*
X32111Y724D01*
X32107Y635D01*
Y-635D01*
X32111Y-725D01*
X32124Y-813D01*
X32146Y-900D01*
X32176Y-984D01*
X32215Y-1065D01*
X32261Y-1142D01*
X32314Y-1214D01*
X32374Y-1281D01*
X32441Y-1341D01*
X32513Y-1394D01*
X32590Y-1440D01*
X32671Y-1479D01*
X32755Y-1509D01*
X32842Y-1531D01*
X32931Y-1544D01*
X33020Y-1548D01*
X33110Y-1544D01*
X33198Y-1531D01*
X33285Y-1509D01*
X33369Y-1479D01*
X33450Y-1440D01*
X33527Y-1394D01*
X33599Y-1341D01*
X33666Y-1281D01*
X33726Y-1214D01*
X33779Y-1142D01*
X33825Y-1065D01*
X33864Y-984D01*
X33894Y-900D01*
X33916Y-813D01*
X33929Y-725D01*
X33933Y-635D01*
Y635D01*
X33929Y724D01*
X33916Y813D01*
X33894Y900D01*
X33864Y984D01*
X33825Y1065D01*
X33779Y1142D01*
X33726Y1214D01*
X33666Y1281D01*
X33599Y1341D01*
X33527Y1394D01*
X33450Y1440D01*
X33369Y1479D01*
X33285Y1509D01*
X33198Y1531D01*
X33110Y1544D01*
X33020Y1548D01*
D02*
G37*
G36*
X30480D02*
X30390Y1544D01*
X30302Y1531D01*
X30215Y1509D01*
X30131Y1479D01*
X30050Y1440D01*
X29973Y1394D01*
X29901Y1341D01*
X29834Y1281D01*
X29774Y1214D01*
X29721Y1142D01*
X29675Y1065D01*
X29636Y984D01*
X29606Y900D01*
X29584Y813D01*
X29571Y724D01*
X29567Y635D01*
Y-635D01*
X29571Y-725D01*
X29584Y-813D01*
X29606Y-900D01*
X29636Y-984D01*
X29675Y-1065D01*
X29721Y-1142D01*
X29774Y-1214D01*
X29834Y-1281D01*
X29901Y-1341D01*
X29973Y-1394D01*
X30050Y-1440D01*
X30131Y-1479D01*
X30215Y-1509D01*
X30302Y-1531D01*
X30390Y-1544D01*
X30480Y-1548D01*
X30569Y-1544D01*
X30658Y-1531D01*
X30745Y-1509D01*
X30829Y-1479D01*
X30910Y-1440D01*
X30987Y-1394D01*
X31059Y-1341D01*
X31126Y-1281D01*
X31186Y-1214D01*
X31239Y-1142D01*
X31285Y-1065D01*
X31324Y-984D01*
X31354Y-900D01*
X31376Y-813D01*
X31389Y-725D01*
X31393Y-635D01*
Y635D01*
X31389Y724D01*
X31376Y813D01*
X31354Y900D01*
X31324Y984D01*
X31285Y1065D01*
X31239Y1142D01*
X31186Y1214D01*
X31126Y1281D01*
X31059Y1341D01*
X30987Y1394D01*
X30910Y1440D01*
X30829Y1479D01*
X30745Y1509D01*
X30658Y1531D01*
X30569Y1544D01*
X30480Y1548D01*
D02*
G37*
G36*
X27940D02*
X27851Y1544D01*
X27762Y1531D01*
X27675Y1509D01*
X27591Y1479D01*
X27510Y1440D01*
X27433Y1394D01*
X27361Y1341D01*
X27294Y1281D01*
X27234Y1214D01*
X27181Y1142D01*
X27135Y1065D01*
X27096Y984D01*
X27066Y900D01*
X27044Y813D01*
X27031Y724D01*
X27027Y635D01*
Y-635D01*
X27031Y-725D01*
X27044Y-813D01*
X27066Y-900D01*
X27096Y-984D01*
X27135Y-1065D01*
X27181Y-1142D01*
X27234Y-1214D01*
X27294Y-1281D01*
X27361Y-1341D01*
X27433Y-1394D01*
X27510Y-1440D01*
X27591Y-1479D01*
X27675Y-1509D01*
X27762Y-1531D01*
X27851Y-1544D01*
X27940Y-1548D01*
X28029Y-1544D01*
X28118Y-1531D01*
X28205Y-1509D01*
X28289Y-1479D01*
X28370Y-1440D01*
X28447Y-1394D01*
X28519Y-1341D01*
X28586Y-1281D01*
X28646Y-1214D01*
X28699Y-1142D01*
X28745Y-1065D01*
X28784Y-984D01*
X28814Y-900D01*
X28836Y-813D01*
X28849Y-725D01*
X28853Y-635D01*
Y635D01*
X28849Y724D01*
X28836Y813D01*
X28814Y900D01*
X28784Y984D01*
X28745Y1065D01*
X28699Y1142D01*
X28646Y1214D01*
X28586Y1281D01*
X28519Y1341D01*
X28447Y1394D01*
X28370Y1440D01*
X28289Y1479D01*
X28205Y1509D01*
X28118Y1531D01*
X28029Y1544D01*
X27940Y1548D01*
D02*
G37*
G36*
X25400D02*
X25310Y1544D01*
X25222Y1531D01*
X25135Y1509D01*
X25051Y1479D01*
X24970Y1440D01*
X24893Y1394D01*
X24821Y1341D01*
X24754Y1281D01*
X24694Y1214D01*
X24641Y1142D01*
X24595Y1065D01*
X24556Y984D01*
X24526Y900D01*
X24504Y813D01*
X24491Y724D01*
X24487Y635D01*
Y-635D01*
X24491Y-725D01*
X24504Y-813D01*
X24526Y-900D01*
X24556Y-984D01*
X24595Y-1065D01*
X24641Y-1142D01*
X24694Y-1214D01*
X24754Y-1281D01*
X24821Y-1341D01*
X24893Y-1394D01*
X24970Y-1440D01*
X25051Y-1479D01*
X25135Y-1509D01*
X25222Y-1531D01*
X25310Y-1544D01*
X25400Y-1548D01*
X25490Y-1544D01*
X25578Y-1531D01*
X25665Y-1509D01*
X25749Y-1479D01*
X25830Y-1440D01*
X25907Y-1394D01*
X25979Y-1341D01*
X26046Y-1281D01*
X26106Y-1214D01*
X26159Y-1142D01*
X26205Y-1065D01*
X26244Y-984D01*
X26274Y-900D01*
X26296Y-813D01*
X26309Y-725D01*
X26313Y-635D01*
Y635D01*
X26309Y724D01*
X26296Y813D01*
X26274Y900D01*
X26244Y984D01*
X26205Y1065D01*
X26159Y1142D01*
X26106Y1214D01*
X26046Y1281D01*
X25979Y1341D01*
X25907Y1394D01*
X25830Y1440D01*
X25749Y1479D01*
X25665Y1509D01*
X25578Y1531D01*
X25490Y1544D01*
X25400Y1548D01*
D02*
G37*
G36*
X17780D02*
X17691Y1544D01*
X17602Y1531D01*
X17515Y1509D01*
X17431Y1479D01*
X17350Y1440D01*
X17273Y1394D01*
X17201Y1341D01*
X17134Y1281D01*
X17074Y1214D01*
X17021Y1142D01*
X16975Y1065D01*
X16936Y984D01*
X16906Y900D01*
X16884Y813D01*
X16871Y724D01*
X16867Y635D01*
Y-635D01*
X16871Y-725D01*
X16884Y-813D01*
X16906Y-900D01*
X16936Y-984D01*
X16975Y-1065D01*
X17021Y-1142D01*
X17074Y-1214D01*
X17134Y-1281D01*
X17201Y-1341D01*
X17273Y-1394D01*
X17350Y-1440D01*
X17431Y-1479D01*
X17515Y-1509D01*
X17602Y-1531D01*
X17691Y-1544D01*
X17780Y-1548D01*
X17869Y-1544D01*
X17958Y-1531D01*
X18045Y-1509D01*
X18129Y-1479D01*
X18210Y-1440D01*
X18287Y-1394D01*
X18359Y-1341D01*
X18426Y-1281D01*
X18486Y-1214D01*
X18539Y-1142D01*
X18585Y-1065D01*
X18624Y-984D01*
X18654Y-900D01*
X18676Y-813D01*
X18689Y-725D01*
X18693Y-635D01*
Y635D01*
X18689Y724D01*
X18676Y813D01*
X18654Y900D01*
X18624Y984D01*
X18585Y1065D01*
X18539Y1142D01*
X18486Y1214D01*
X18426Y1281D01*
X18359Y1341D01*
X18287Y1394D01*
X18210Y1440D01*
X18129Y1479D01*
X18045Y1509D01*
X17958Y1531D01*
X17869Y1544D01*
X17780Y1548D01*
D02*
G37*
G36*
X15240D02*
X15151Y1544D01*
X15062Y1531D01*
X14975Y1509D01*
X14891Y1479D01*
X14810Y1440D01*
X14733Y1394D01*
X14661Y1341D01*
X14594Y1281D01*
X14534Y1214D01*
X14481Y1142D01*
X14435Y1065D01*
X14396Y984D01*
X14366Y900D01*
X14344Y813D01*
X14331Y724D01*
X14327Y635D01*
Y-635D01*
X14331Y-725D01*
X14344Y-813D01*
X14366Y-900D01*
X14396Y-984D01*
X14435Y-1065D01*
X14481Y-1142D01*
X14534Y-1214D01*
X14594Y-1281D01*
X14661Y-1341D01*
X14733Y-1394D01*
X14810Y-1440D01*
X14891Y-1479D01*
X14975Y-1509D01*
X15062Y-1531D01*
X15151Y-1544D01*
X15240Y-1548D01*
X15330Y-1544D01*
X15418Y-1531D01*
X15505Y-1509D01*
X15589Y-1479D01*
X15670Y-1440D01*
X15747Y-1394D01*
X15819Y-1341D01*
X15886Y-1281D01*
X15946Y-1214D01*
X15999Y-1142D01*
X16045Y-1065D01*
X16084Y-984D01*
X16114Y-900D01*
X16136Y-813D01*
X16149Y-725D01*
X16153Y-635D01*
Y635D01*
X16149Y724D01*
X16136Y813D01*
X16114Y900D01*
X16084Y984D01*
X16045Y1065D01*
X15999Y1142D01*
X15946Y1214D01*
X15886Y1281D01*
X15819Y1341D01*
X15747Y1394D01*
X15670Y1440D01*
X15589Y1479D01*
X15505Y1509D01*
X15418Y1531D01*
X15330Y1544D01*
X15240Y1548D01*
D02*
G37*
G36*
X12700D02*
X12611Y1544D01*
X12522Y1531D01*
X12435Y1509D01*
X12351Y1479D01*
X12270Y1440D01*
X12193Y1394D01*
X12121Y1341D01*
X12054Y1281D01*
X11994Y1214D01*
X11941Y1142D01*
X11895Y1065D01*
X11856Y984D01*
X11826Y900D01*
X11804Y813D01*
X11791Y724D01*
X11787Y635D01*
Y-635D01*
X11791Y-725D01*
X11804Y-813D01*
X11826Y-900D01*
X11856Y-984D01*
X11895Y-1065D01*
X11941Y-1142D01*
X11994Y-1214D01*
X12054Y-1281D01*
X12121Y-1341D01*
X12193Y-1394D01*
X12270Y-1440D01*
X12351Y-1479D01*
X12435Y-1509D01*
X12522Y-1531D01*
X12611Y-1544D01*
X12700Y-1548D01*
X12790Y-1544D01*
X12878Y-1531D01*
X12965Y-1509D01*
X13049Y-1479D01*
X13130Y-1440D01*
X13207Y-1394D01*
X13279Y-1341D01*
X13346Y-1281D01*
X13406Y-1214D01*
X13459Y-1142D01*
X13505Y-1065D01*
X13544Y-984D01*
X13574Y-900D01*
X13596Y-813D01*
X13609Y-725D01*
X13613Y-635D01*
Y635D01*
X13609Y724D01*
X13596Y813D01*
X13574Y900D01*
X13544Y984D01*
X13505Y1065D01*
X13459Y1142D01*
X13406Y1214D01*
X13346Y1281D01*
X13279Y1341D01*
X13207Y1394D01*
X13130Y1440D01*
X13049Y1479D01*
X12965Y1509D01*
X12878Y1531D01*
X12790Y1544D01*
X12700Y1548D01*
D02*
G37*
G36*
X10160D02*
X10071Y1544D01*
X9982Y1531D01*
X9895Y1509D01*
X9811Y1479D01*
X9730Y1440D01*
X9653Y1394D01*
X9581Y1341D01*
X9514Y1281D01*
X9454Y1214D01*
X9401Y1142D01*
X9355Y1065D01*
X9316Y984D01*
X9286Y900D01*
X9264Y813D01*
X9251Y724D01*
X9247Y635D01*
Y-635D01*
X9251Y-725D01*
X9264Y-813D01*
X9286Y-900D01*
X9316Y-984D01*
X9355Y-1065D01*
X9401Y-1142D01*
X9454Y-1214D01*
X9514Y-1281D01*
X9581Y-1341D01*
X9653Y-1394D01*
X9730Y-1440D01*
X9811Y-1479D01*
X9895Y-1509D01*
X9982Y-1531D01*
X10071Y-1544D01*
X10160Y-1548D01*
X10250Y-1544D01*
X10338Y-1531D01*
X10425Y-1509D01*
X10509Y-1479D01*
X10590Y-1440D01*
X10667Y-1394D01*
X10739Y-1341D01*
X10806Y-1281D01*
X10866Y-1214D01*
X10919Y-1142D01*
X10965Y-1065D01*
X11004Y-984D01*
X11034Y-900D01*
X11056Y-813D01*
X11069Y-725D01*
X11073Y-635D01*
Y635D01*
X11069Y724D01*
X11056Y813D01*
X11034Y900D01*
X11004Y984D01*
X10965Y1065D01*
X10919Y1142D01*
X10866Y1214D01*
X10806Y1281D01*
X10739Y1341D01*
X10667Y1394D01*
X10590Y1440D01*
X10509Y1479D01*
X10425Y1509D01*
X10338Y1531D01*
X10250Y1544D01*
X10160Y1548D01*
D02*
G37*
G36*
X7620D02*
X7530Y1544D01*
X7442Y1531D01*
X7355Y1509D01*
X7271Y1479D01*
X7190Y1440D01*
X7113Y1394D01*
X7041Y1341D01*
X6974Y1281D01*
X6914Y1214D01*
X6861Y1142D01*
X6815Y1065D01*
X6776Y984D01*
X6746Y900D01*
X6724Y813D01*
X6711Y724D01*
X6707Y635D01*
Y-635D01*
X6711Y-725D01*
X6724Y-813D01*
X6746Y-900D01*
X6776Y-984D01*
X6815Y-1065D01*
X6861Y-1142D01*
X6914Y-1214D01*
X6974Y-1281D01*
X7041Y-1341D01*
X7113Y-1394D01*
X7190Y-1440D01*
X7271Y-1479D01*
X7355Y-1509D01*
X7442Y-1531D01*
X7530Y-1544D01*
X7620Y-1548D01*
X7709Y-1544D01*
X7798Y-1531D01*
X7885Y-1509D01*
X7969Y-1479D01*
X8050Y-1440D01*
X8127Y-1394D01*
X8199Y-1341D01*
X8266Y-1281D01*
X8326Y-1214D01*
X8379Y-1142D01*
X8425Y-1065D01*
X8464Y-984D01*
X8494Y-900D01*
X8516Y-813D01*
X8529Y-725D01*
X8533Y-635D01*
Y635D01*
X8529Y724D01*
X8516Y813D01*
X8494Y900D01*
X8464Y984D01*
X8425Y1065D01*
X8379Y1142D01*
X8326Y1214D01*
X8266Y1281D01*
X8199Y1341D01*
X8127Y1394D01*
X8050Y1440D01*
X7969Y1479D01*
X7885Y1509D01*
X7798Y1531D01*
X7709Y1544D01*
X7620Y1548D01*
D02*
G37*
G36*
X5080D02*
X4990Y1544D01*
X4902Y1531D01*
X4815Y1509D01*
X4731Y1479D01*
X4650Y1440D01*
X4573Y1394D01*
X4501Y1341D01*
X4434Y1281D01*
X4374Y1214D01*
X4321Y1142D01*
X4275Y1065D01*
X4236Y984D01*
X4206Y900D01*
X4184Y813D01*
X4171Y724D01*
X4167Y635D01*
Y-635D01*
X4171Y-725D01*
X4184Y-813D01*
X4206Y-900D01*
X4236Y-984D01*
X4275Y-1065D01*
X4321Y-1142D01*
X4374Y-1214D01*
X4434Y-1281D01*
X4501Y-1341D01*
X4573Y-1394D01*
X4650Y-1440D01*
X4731Y-1479D01*
X4815Y-1509D01*
X4902Y-1531D01*
X4990Y-1544D01*
X5080Y-1548D01*
X5169Y-1544D01*
X5258Y-1531D01*
X5345Y-1509D01*
X5429Y-1479D01*
X5510Y-1440D01*
X5587Y-1394D01*
X5659Y-1341D01*
X5726Y-1281D01*
X5786Y-1214D01*
X5839Y-1142D01*
X5885Y-1065D01*
X5924Y-984D01*
X5954Y-900D01*
X5976Y-813D01*
X5989Y-725D01*
X5993Y-635D01*
Y635D01*
X5989Y724D01*
X5976Y813D01*
X5954Y900D01*
X5924Y984D01*
X5885Y1065D01*
X5839Y1142D01*
X5786Y1214D01*
X5726Y1281D01*
X5659Y1341D01*
X5587Y1394D01*
X5510Y1440D01*
X5429Y1479D01*
X5345Y1509D01*
X5258Y1531D01*
X5169Y1544D01*
X5080Y1548D01*
D02*
G37*
G36*
X2540D02*
X2451Y1544D01*
X2362Y1531D01*
X2275Y1509D01*
X2191Y1479D01*
X2110Y1440D01*
X2033Y1394D01*
X1961Y1341D01*
X1894Y1281D01*
X1834Y1214D01*
X1781Y1142D01*
X1735Y1065D01*
X1696Y984D01*
X1666Y900D01*
X1644Y813D01*
X1631Y724D01*
X1627Y635D01*
Y-635D01*
X1631Y-725D01*
X1644Y-813D01*
X1666Y-900D01*
X1696Y-984D01*
X1735Y-1065D01*
X1781Y-1142D01*
X1834Y-1214D01*
X1894Y-1281D01*
X1961Y-1341D01*
X2033Y-1394D01*
X2110Y-1440D01*
X2191Y-1479D01*
X2275Y-1509D01*
X2362Y-1531D01*
X2451Y-1544D01*
X2540Y-1548D01*
X2629Y-1544D01*
X2718Y-1531D01*
X2805Y-1509D01*
X2889Y-1479D01*
X2970Y-1440D01*
X3047Y-1394D01*
X3119Y-1341D01*
X3186Y-1281D01*
X3246Y-1214D01*
X3299Y-1142D01*
X3345Y-1065D01*
X3384Y-984D01*
X3414Y-900D01*
X3436Y-813D01*
X3449Y-725D01*
X3453Y-635D01*
Y635D01*
X3449Y724D01*
X3436Y813D01*
X3414Y900D01*
X3384Y984D01*
X3345Y1065D01*
X3299Y1142D01*
X3246Y1214D01*
X3186Y1281D01*
X3119Y1341D01*
X3047Y1394D01*
X2970Y1440D01*
X2889Y1479D01*
X2805Y1509D01*
X2718Y1531D01*
X2629Y1544D01*
X2540Y1548D01*
D02*
G37*
G36*
X23823Y-75D02*
X22935D01*
Y-1594D01*
X22954Y-1594D01*
X23048Y-1580D01*
X23140Y-1557D01*
X23229Y-1525D01*
X23314Y-1484D01*
X23395Y-1436D01*
X23471Y-1380D01*
X23541Y-1316D01*
X23605Y-1246D01*
X23661Y-1170D01*
X23709Y-1089D01*
X23750Y-1004D01*
X23782Y-915D01*
X23805Y-823D01*
X23819Y-729D01*
X23823Y-635D01*
Y-75D01*
D02*
G37*
G36*
X21283D02*
X20395D01*
Y-1594D01*
X20414Y-1594D01*
X20508Y-1580D01*
X20600Y-1557D01*
X20689Y-1525D01*
X20774Y-1484D01*
X20855Y-1436D01*
X20931Y-1380D01*
X21001Y-1316D01*
X21065Y-1246D01*
X21121Y-1170D01*
X21169Y-1089D01*
X21210Y-1004D01*
X21242Y-915D01*
X21265Y-823D01*
X21279Y-729D01*
X21283Y-635D01*
Y-75D01*
D02*
G37*
G36*
X22785D02*
X21897D01*
Y-635D01*
X21901Y-729D01*
X21915Y-823D01*
X21938Y-915D01*
X21970Y-1004D01*
X22011Y-1089D01*
X22059Y-1170D01*
X22115Y-1246D01*
X22179Y-1316D01*
X22249Y-1380D01*
X22325Y-1436D01*
X22406Y-1484D01*
X22491Y-1525D01*
X22580Y-1557D01*
X22672Y-1580D01*
X22766Y-1594D01*
X22785Y-1594D01*
Y-75D01*
D02*
G37*
G36*
X20245D02*
X19357D01*
Y-635D01*
X19361Y-729D01*
X19375Y-823D01*
X19398Y-915D01*
X19430Y-1004D01*
X19471Y-1089D01*
X19519Y-1170D01*
X19575Y-1246D01*
X19639Y-1316D01*
X19709Y-1380D01*
X19785Y-1436D01*
X19866Y-1484D01*
X19951Y-1525D01*
X20040Y-1557D01*
X20132Y-1580D01*
X20226Y-1594D01*
X20245Y-1594D01*
Y-75D01*
D02*
G37*
G36*
X962D02*
X75D01*
Y-1597D01*
X962D01*
Y-75D01*
D02*
G37*
G36*
X-75D02*
X-962D01*
Y-1597D01*
X-75D01*
Y-75D01*
D02*
G37*
%LPD*%
G36*
X27026Y44776D02*
X27174Y44676D01*
X27350Y44641D01*
X27473Y44666D01*
X27600Y44585D01*
X27600Y44187D01*
X27473Y44119D01*
X27395Y44171D01*
X27275Y44195D01*
Y43700D01*
Y43205D01*
X27395Y43229D01*
X27473Y43281D01*
X27600Y43213D01*
X27600Y42320D01*
X27300Y42080D01*
X27300Y42080D01*
X27193Y42059D01*
X27102Y41998D01*
X27041Y41907D01*
X27033Y41866D01*
X26847Y41718D01*
X26708Y41769D01*
X26706Y41777D01*
X26634Y41884D01*
X26527Y41956D01*
X26475Y41966D01*
Y41650D01*
X26325D01*
Y41966D01*
X26273Y41956D01*
X26166Y41884D01*
X26094Y41777D01*
X26089Y41775D01*
X26033Y41812D01*
X25945Y41829D01*
X25600D01*
X25600Y41829D01*
X25585Y41826D01*
X23165Y43019D01*
X23159Y43043D01*
X23180Y43150D01*
X23159Y43257D01*
X23098Y43348D01*
X23007Y43409D01*
X22900Y43430D01*
X22793Y43409D01*
X22702Y43348D01*
X22641Y43257D01*
X22631Y43205D01*
X22576Y43150D01*
X22180D01*
X22180Y43150D01*
X22159Y43257D01*
X22149Y43273D01*
X22144Y43316D01*
X22234Y43406D01*
X22277Y43401D01*
X22293Y43391D01*
X22400Y43370D01*
X22507Y43391D01*
X22598Y43452D01*
X22659Y43543D01*
X22680Y43650D01*
X22659Y43757D01*
X22647Y43776D01*
X22738Y43867D01*
X22773Y43844D01*
X22825Y43834D01*
Y44150D01*
X22900D01*
Y44225D01*
X23216D01*
X23207Y44273D01*
X23206Y44277D01*
X23277Y44400D01*
X25050Y44400D01*
X25155Y44505D01*
X25689Y43970D01*
X25690Y43969D01*
X25702Y43952D01*
X25793Y43891D01*
X25900Y43870D01*
X26007Y43891D01*
X26098Y43952D01*
X26159Y44043D01*
X26180Y44150D01*
X26159Y44257D01*
X26149Y44273D01*
X26134Y44416D01*
X26206Y44523D01*
X26216Y44575D01*
X25900D01*
Y44725D01*
X26216D01*
X26207Y44773D01*
X26206Y44777D01*
X26277Y44900D01*
X26942Y44900D01*
X27026Y44776D01*
D02*
G37*
G36*
X26085Y41140D02*
X26119Y41112D01*
X26158Y41091D01*
X26201Y41078D01*
X26245Y41074D01*
X27105D01*
X27149Y41078D01*
X27192Y41091D01*
X27231Y41112D01*
X27245Y41124D01*
X27355D01*
X27369Y41112D01*
X27408Y41091D01*
X27451Y41078D01*
X27495Y41074D01*
X28242D01*
X28274Y41031D01*
X28274Y40961D01*
X28263Y40916D01*
X28231Y40876D01*
X26057D01*
X26025Y40896D01*
X25985Y40912D01*
X25943Y40922D01*
X25900Y40926D01*
X25857Y40922D01*
X25815Y40912D01*
X25775Y40896D01*
X25753Y40882D01*
X25699Y40898D01*
X25626Y40945D01*
Y41306D01*
X25694Y41374D01*
X25851D01*
X26085Y41140D01*
D02*
G37*
G36*
X24129Y40101D02*
X24138Y40065D01*
X24154Y40025D01*
X24177Y39988D01*
X24179Y39986D01*
X24205Y39936D01*
Y39864D01*
X24179Y39814D01*
X24177Y39812D01*
X24154Y39775D01*
X24138Y39735D01*
X24128Y39693D01*
X24124Y39650D01*
X24128Y39607D01*
X24138Y39565D01*
X24154Y39525D01*
X24174Y39493D01*
Y38494D01*
X23067Y37387D01*
X22977Y37393D01*
X22964Y37397D01*
X22926Y37425D01*
Y37500D01*
X22922Y37544D01*
X22909Y37587D01*
X22888Y37626D01*
X22860Y37660D01*
X21626Y38894D01*
Y39737D01*
X22163Y40274D01*
X23956D01*
X24129Y40101D01*
D02*
G37*
%LPC*%
G36*
X23216Y44075D02*
X22975D01*
Y43834D01*
X23027Y43844D01*
X23134Y43916D01*
X23206Y44023D01*
X23216Y44075D01*
D02*
G37*
G36*
X27125Y44195D02*
X27005Y44171D01*
X26840Y44060D01*
X26729Y43895D01*
X26705Y43775D01*
X27125D01*
Y44195D01*
D02*
G37*
G36*
Y43625D02*
X26705D01*
X26729Y43505D01*
X26840Y43340D01*
X27005Y43229D01*
X27125Y43205D01*
Y43625D01*
D02*
G37*
%LPD*%
D12*
X7200Y48260D02*
X11840D01*
X15350Y44750D02*
X20900D01*
X11840Y48260D02*
X15350Y44750D01*
X25300Y44720D02*
X25870Y44150D01*
X25300Y44720D02*
Y45200D01*
X25870Y44150D02*
X25900D01*
X21905Y43650D02*
X21930D01*
X22335Y41650D02*
X22400D01*
X21135Y40450D02*
X22335Y41650D01*
X21100Y40450D02*
X21135D01*
X-0Y22860D02*
X640D01*
X2200Y21300D01*
X6700D01*
X22700Y37300D01*
X6320Y20320D02*
X22800Y36800D01*
X-0Y20320D02*
X6320D01*
X-640Y22860D02*
X-0D01*
X5600Y25400D02*
X20000Y39800D01*
X-0Y25400D02*
X5600D01*
D15*
X17983Y43825D02*
X20175D01*
X17758Y43600D02*
X17983Y43825D01*
X16800Y43600D02*
X17758D01*
X20175Y43825D02*
X21200Y42800D01*
X21300Y44750D02*
X22400Y43650D01*
X20900Y44750D02*
X21300D01*
X27445Y41350D02*
X27495Y41300D01*
X27155Y41350D02*
X27445D01*
X27105Y41300D02*
X27155Y41350D01*
X27495Y41300D02*
X28442D01*
X26245D02*
X27105D01*
X28442D02*
X29025Y40717D01*
X25945Y41600D02*
X26245Y41300D01*
X27800Y38258D02*
X29025Y39483D01*
X27800Y38100D02*
Y38258D01*
X26550Y39000D02*
X27800D01*
X25900Y39650D02*
X26550Y39000D01*
X29025Y39483D02*
Y40717D01*
X26250Y39800D02*
X28100D01*
X25900Y40150D02*
X26250Y39800D01*
X25900Y40650D02*
X28350D01*
X28500Y40500D01*
X21905Y43650D02*
X22228Y43327D01*
X21900Y43650D02*
X21905D01*
X21200Y42800D02*
X22550D01*
X22900Y43150D01*
X21200Y41300D02*
X22000Y42100D01*
X22900Y41150D02*
Y41900D01*
X22700Y42100D02*
X22900Y41900D01*
X22000Y42100D02*
X22700D01*
Y37300D02*
Y37500D01*
X21400Y38800D02*
X22700Y37500D01*
X21400Y38800D02*
Y39831D01*
X22069Y40500D01*
X24050D01*
X24250Y40800D02*
X24400Y40650D01*
X21945Y40800D02*
X24250D01*
X20300Y40100D02*
X21245D01*
X20000Y39800D02*
X20300Y40100D01*
X21245D02*
X21945Y40800D01*
X24050Y40500D02*
X24400Y40150D01*
Y38400D02*
Y39650D01*
X25400Y40650D02*
Y41400D01*
X25050Y37050D02*
Y39805D01*
X24750Y39505D02*
Y40000D01*
X24700Y39455D02*
X24750Y39505D01*
X24700Y37124D02*
Y39455D01*
Y36700D02*
X25050Y37050D01*
X24400Y36824D02*
X24700Y37124D01*
X24750Y40000D02*
X24900Y40150D01*
X22800Y36800D02*
X24400Y38400D01*
X25400Y41400D02*
X25600Y41600D01*
X25945D01*
X25050Y39805D02*
X25300Y40055D01*
X24900Y40650D02*
X25300Y40250D01*
X24400Y35908D02*
X25608Y34700D01*
X24400Y35908D02*
Y36824D01*
X26300Y35000D02*
Y36050D01*
X26000Y34700D02*
X26300Y35000D01*
X25608Y34700D02*
X26000D01*
X25608Y35300D02*
X25750D01*
X24700Y36208D02*
X25608Y35300D01*
X24700Y36208D02*
Y36700D01*
X25300Y40055D02*
Y40250D01*
X22895Y43150D02*
X22900D01*
D20*
X25900Y39150D02*
D03*
X27300Y41800D02*
D03*
Y41000D02*
D03*
X22400Y43650D02*
D03*
X21900Y43150D02*
D03*
X21200Y41300D02*
D03*
X23900Y40150D02*
D03*
X24400Y39650D02*
D03*
X25400Y40650D02*
D03*
X24400D02*
D03*
X25400Y39650D02*
D03*
X25900Y40150D02*
D03*
Y40650D02*
D03*
Y41150D02*
D03*
X22400Y40150D02*
D03*
X22900D02*
D03*
X23400Y39650D02*
D03*
X22900D02*
D03*
X24900Y40650D02*
D03*
X23400Y40150D02*
D03*
X23900Y39650D02*
D03*
X24900Y40150D02*
D03*
X22400Y44150D02*
D03*
X26400Y41650D02*
D03*
X22400D02*
D03*
X22900Y41150D02*
D03*
X21900Y39650D02*
D03*
X24400Y40150D02*
D03*
X25900Y39650D02*
D03*
X21100Y40450D02*
D03*
X25900Y44150D02*
D03*
X22900D02*
D03*
Y43150D02*
D03*
X25900Y44650D02*
D03*
X21900Y43650D02*
D03*
D39*
X48260Y12700D02*
D03*
Y15240D02*
D03*
Y30480D02*
D03*
Y33020D02*
D03*
Y38100D02*
D03*
Y45720D02*
D03*
X-0Y15240D02*
D03*
Y17780D02*
D03*
Y20320D02*
D03*
Y22860D02*
D03*
Y25400D02*
D03*
Y40640D02*
D03*
Y45720D02*
D03*
Y50800D02*
D03*
D40*
X48260Y53340D02*
D03*
D41*
X22860Y-0D02*
D03*
X20320D02*
D03*
D42*
X-0D02*
D03*
D43*
X3100Y31800D02*
D03*
X27200Y43700D02*
D03*
X2200Y2200D02*
D03*
X1700Y6200D02*
D03*
X20700Y51100D02*
D03*
X7400Y49300D02*
D03*
Y47400D02*
D03*
X6600Y42200D02*
D03*
X5500Y4000D02*
D03*
X9000Y4800D02*
D03*
X13500Y3700D02*
D03*
X39400Y14100D02*
D03*
X39200Y16500D02*
D03*
X28100Y50500D02*
D03*
X37400Y38100D02*
D03*
X40800Y34400D02*
D03*
X17300Y44200D02*
D03*
X16800Y43600D02*
D03*
X29700Y40500D02*
D03*
X16900Y52900D02*
D03*
Y51600D02*
D03*
Y50300D02*
D03*
Y48900D02*
D03*
X30600Y43700D02*
D03*
Y42500D02*
D03*
X27800Y37100D02*
D03*
X27500Y34900D02*
D03*
X22400Y34500D02*
D03*
X27800Y38100D02*
D03*
Y39000D02*
D03*
X28100Y39800D02*
D03*
X28500Y40500D02*
D03*
X15368Y48004D02*
D03*
X20416Y37908D02*
D03*
X7300Y48300D02*
D03*
X45656Y63148D02*
D03*
Y53052D02*
D03*
Y37908D02*
D03*
Y22764D02*
D03*
Y12668D02*
D03*
Y2572D02*
D03*
X40608Y63148D02*
D03*
Y48004D02*
D03*
Y37908D02*
D03*
Y27812D02*
D03*
Y7620D02*
D03*
Y2572D02*
D03*
X35560Y63148D02*
D03*
Y58100D02*
D03*
Y53052D02*
D03*
Y48004D02*
D03*
Y32860D02*
D03*
Y27812D02*
D03*
Y22764D02*
D03*
Y12668D02*
D03*
Y7620D02*
D03*
X30512Y63148D02*
D03*
Y58100D02*
D03*
Y53052D02*
D03*
Y12668D02*
D03*
Y7620D02*
D03*
X25464Y63148D02*
D03*
Y58100D02*
D03*
Y53052D02*
D03*
Y32860D02*
D03*
Y22764D02*
D03*
Y12668D02*
D03*
X20416Y63148D02*
D03*
Y58100D02*
D03*
Y53052D02*
D03*
Y27812D02*
D03*
Y22764D02*
D03*
Y17716D02*
D03*
Y12668D02*
D03*
X15368Y63148D02*
D03*
Y58100D02*
D03*
Y42956D02*
D03*
Y22764D02*
D03*
Y17716D02*
D03*
Y12668D02*
D03*
Y7620D02*
D03*
X10320Y63148D02*
D03*
Y58100D02*
D03*
Y53052D02*
D03*
Y42956D02*
D03*
X5272Y63148D02*
D03*
Y53052D02*
D03*
Y42956D02*
D03*
Y37908D02*
D03*
Y27812D02*
D03*
Y22764D02*
D03*
Y17716D02*
D03*
Y12668D02*
D03*
X21800Y33000D02*
D03*
X23100Y38400D02*
D03*
X9300Y37300D02*
D03*
X13300Y24900D02*
D03*
X9000Y24900D02*
D03*
X9400Y21700D02*
D03*
X10600Y45500D02*
D03*
X13100Y44000D02*
D03*
X11300Y42100D02*
D03*
X9000D02*
D03*
X10800Y27000D02*
D03*
X15600Y33200D02*
D03*
X17400Y33700D02*
D03*
X15500Y41300D02*
D03*
X16500Y41600D02*
D03*
X18100Y39500D02*
D03*
X18200Y43300D02*
D03*
X22700Y51500D02*
D03*
Y50200D02*
D03*
Y49400D02*
D03*
X20600Y48500D02*
D03*
X21600D02*
D03*
X26300Y36050D02*
D03*
X25750Y35300D02*
D03*
M02*
