G04*
G04 #@! TF.GenerationSoftware,Altium Limited,Altium Designer,18.1.9 (240)*
G04*
G04 Layer_Color=32896*
%FSLAX43Y43*%
%MOMM*%
G71*
G01*
G75*
%ADD12C,0.200*%
G36*
X31630Y26420D02*
X16630D01*
Y33960D01*
X31630D01*
Y26420D01*
D02*
G37*
G36*
X32636Y61278D02*
X32477D01*
Y61501D01*
X32636D01*
Y61278D01*
D02*
G37*
G36*
X28514Y61278D02*
X28355D01*
Y61501D01*
X28514D01*
Y61278D01*
D02*
G37*
G36*
X33642Y59920D02*
X33483D01*
Y60545D01*
Y60582D01*
X33481Y60618D01*
X33477Y60651D01*
X33473Y60680D01*
X33467Y60707D01*
X33460Y60732D01*
X33454Y60753D01*
X33448Y60772D01*
X33442Y60789D01*
X33435Y60803D01*
X33429Y60816D01*
X33423Y60824D01*
X33419Y60832D01*
X33415Y60836D01*
X33412Y60841D01*
X33383Y60868D01*
X33354Y60889D01*
X33325Y60903D01*
X33296Y60913D01*
X33273Y60920D01*
X33252Y60922D01*
X33240Y60924D01*
X33235D01*
X33202Y60922D01*
X33173Y60913D01*
X33148Y60903D01*
X33127Y60891D01*
X33110Y60878D01*
X33100Y60868D01*
X33092Y60859D01*
X33090Y60857D01*
X33071Y60830D01*
X33058Y60797D01*
X33048Y60761D01*
X33042Y60726D01*
X33038Y60695D01*
Y60680D01*
X33035Y60670D01*
Y60659D01*
Y60651D01*
Y60647D01*
Y60645D01*
Y59920D01*
X32877D01*
Y60645D01*
Y60691D01*
X32881Y60732D01*
X32886Y60772D01*
X32892Y60807D01*
X32898Y60839D01*
X32904Y60868D01*
X32913Y60893D01*
X32921Y60916D01*
X32929Y60934D01*
X32938Y60951D01*
X32944Y60966D01*
X32950Y60976D01*
X32956Y60984D01*
X32960Y60991D01*
X32963Y60993D01*
X32965Y60995D01*
X32981Y61011D01*
X33000Y61026D01*
X33038Y61051D01*
X33077Y61068D01*
X33117Y61078D01*
X33150Y61086D01*
X33165Y61088D01*
X33177D01*
X33188Y61091D01*
X33202D01*
X33233Y61088D01*
X33262Y61084D01*
X33290Y61078D01*
X33312Y61072D01*
X33331Y61063D01*
X33346Y61057D01*
X33354Y61053D01*
X33358Y61051D01*
X33383Y61034D01*
X33408Y61016D01*
X33429Y60997D01*
X33448Y60976D01*
X33462Y60959D01*
X33473Y60945D01*
X33481Y60936D01*
X33483Y60932D01*
Y61501D01*
X33642D01*
Y59920D01*
D02*
G37*
G36*
X29520Y59920D02*
X29361D01*
Y60545D01*
Y60582D01*
X29359Y60618D01*
X29355Y60651D01*
X29351Y60680D01*
X29345Y60707D01*
X29338Y60732D01*
X29332Y60753D01*
X29326Y60772D01*
X29320Y60789D01*
X29313Y60803D01*
X29307Y60816D01*
X29301Y60824D01*
X29297Y60832D01*
X29293Y60836D01*
X29291Y60841D01*
X29261Y60868D01*
X29232Y60888D01*
X29203Y60903D01*
X29174Y60913D01*
X29151Y60920D01*
X29130Y60922D01*
X29118Y60924D01*
X29114D01*
X29080Y60922D01*
X29051Y60913D01*
X29026Y60903D01*
X29005Y60891D01*
X28989Y60878D01*
X28978Y60868D01*
X28970Y60859D01*
X28968Y60857D01*
X28949Y60830D01*
X28937Y60797D01*
X28926Y60761D01*
X28920Y60726D01*
X28916Y60695D01*
Y60680D01*
X28914Y60670D01*
Y60659D01*
Y60651D01*
Y60647D01*
Y60645D01*
Y59920D01*
X28755D01*
Y60645D01*
Y60691D01*
X28759Y60732D01*
X28764Y60772D01*
X28770Y60807D01*
X28776Y60839D01*
X28782Y60868D01*
X28791Y60893D01*
X28799Y60916D01*
X28807Y60934D01*
X28816Y60951D01*
X28822Y60966D01*
X28828Y60976D01*
X28834Y60984D01*
X28839Y60991D01*
X28841Y60993D01*
X28843Y60995D01*
X28859Y61011D01*
X28878Y61026D01*
X28916Y61051D01*
X28955Y61068D01*
X28995Y61078D01*
X29028Y61086D01*
X29043Y61088D01*
X29055D01*
X29066Y61091D01*
X29080D01*
X29111Y61088D01*
X29141Y61084D01*
X29168Y61078D01*
X29191Y61072D01*
X29209Y61063D01*
X29224Y61057D01*
X29232Y61053D01*
X29236Y61051D01*
X29261Y61034D01*
X29286Y61016D01*
X29307Y60997D01*
X29326Y60976D01*
X29341Y60959D01*
X29351Y60945D01*
X29359Y60936D01*
X29361Y60932D01*
Y61501D01*
X29520D01*
Y59920D01*
D02*
G37*
G36*
X30976Y59920D02*
X30803Y59920D01*
X30526Y61124D01*
X30519Y61155D01*
X30511Y61186D01*
X30505Y61218D01*
X30501Y61247D01*
X30494Y61272D01*
X30492Y61293D01*
X30488Y61305D01*
Y61307D01*
Y61309D01*
X30447Y61124D01*
X30174Y59920D01*
X30007D01*
X29651Y61501D01*
X29824D01*
X30028Y60484D01*
X30042Y60416D01*
X30055Y60351D01*
X30065Y60293D01*
X30070Y60266D01*
X30076Y60241D01*
X30078Y60220D01*
X30082Y60199D01*
X30086Y60182D01*
X30088Y60168D01*
X30090Y60155D01*
Y60147D01*
X30092Y60143D01*
Y60141D01*
X30107Y60241D01*
X30122Y60341D01*
X30130Y60389D01*
X30140Y60434D01*
X30149Y60478D01*
X30155Y60520D01*
X30163Y60557D01*
X30172Y60593D01*
X30178Y60624D01*
X30184Y60649D01*
X30188Y60670D01*
X30192Y60686D01*
X30195Y60695D01*
Y60699D01*
X30380Y61501D01*
X30586D01*
X30834Y60432D01*
X30892Y60141D01*
X30901Y60201D01*
X30911Y60259D01*
X30919Y60314D01*
X30928Y60364D01*
X30932Y60384D01*
X30936Y60405D01*
X30938Y60422D01*
X30940Y60437D01*
X30944Y60447D01*
Y60457D01*
X30946Y60462D01*
Y60464D01*
X31144Y61501D01*
X31317D01*
X30976Y59920D01*
D02*
G37*
G36*
X34429Y61524D02*
X34487Y61513D01*
X34541Y61499D01*
X34587Y61482D01*
X34608Y61472D01*
X34625Y61463D01*
X34641Y61455D01*
X34654Y61449D01*
X34664Y61443D01*
X34673Y61438D01*
X34677Y61436D01*
X34679Y61434D01*
X34704Y61415D01*
X34727Y61397D01*
X34770Y61353D01*
X34808Y61307D01*
X34839Y61263D01*
X34864Y61224D01*
X34875Y61207D01*
X34883Y61190D01*
X34889Y61178D01*
X34893Y61170D01*
X34897Y61163D01*
Y61161D01*
X34925Y61091D01*
X34945Y61016D01*
X34958Y60943D01*
X34964Y60907D01*
X34968Y60872D01*
X34972Y60841D01*
X34975Y60811D01*
X34977Y60786D01*
Y60764D01*
X34979Y60745D01*
Y60732D01*
Y60722D01*
Y60720D01*
X34975Y60624D01*
X34970Y60580D01*
X34966Y60536D01*
X34960Y60497D01*
X34954Y60459D01*
X34945Y60424D01*
X34937Y60391D01*
X34931Y60362D01*
X34922Y60337D01*
X34916Y60314D01*
X34910Y60297D01*
X34906Y60280D01*
X34902Y60270D01*
X34897Y60264D01*
Y60262D01*
X34881Y60226D01*
X34864Y60195D01*
X34847Y60164D01*
X34831Y60137D01*
X34812Y60112D01*
X34795Y60087D01*
X34779Y60068D01*
X34762Y60049D01*
X34748Y60032D01*
X34733Y60018D01*
X34720Y60007D01*
X34710Y59997D01*
X34702Y59991D01*
X34695Y59985D01*
X34691Y59982D01*
X34689Y59980D01*
X34639Y59951D01*
X34587Y59930D01*
X34535Y59914D01*
X34487Y59903D01*
X34464Y59901D01*
X34446Y59897D01*
X34427Y59895D01*
X34412D01*
X34398Y59893D01*
X34381D01*
X34343Y59895D01*
X34308Y59899D01*
X34273Y59905D01*
X34241Y59914D01*
X34210Y59922D01*
X34181Y59935D01*
X34156Y59945D01*
X34131Y59957D01*
X34110Y59970D01*
X34091Y59980D01*
X34075Y59993D01*
X34060Y60001D01*
X34050Y60010D01*
X34041Y60016D01*
X34037Y60020D01*
X34035Y60022D01*
X34010Y60049D01*
X33985Y60076D01*
X33944Y60141D01*
X33908Y60205D01*
X33881Y60272D01*
X33869Y60301D01*
X33858Y60330D01*
X33852Y60355D01*
X33844Y60378D01*
X33839Y60397D01*
X33835Y60409D01*
X33833Y60420D01*
Y60422D01*
X34006Y60474D01*
X34014Y60437D01*
X34023Y60403D01*
X34031Y60370D01*
X34041Y60341D01*
X34054Y60314D01*
X34064Y60289D01*
X34077Y60266D01*
X34087Y60245D01*
X34100Y60228D01*
X34110Y60212D01*
X34119Y60199D01*
X34127Y60189D01*
X34133Y60180D01*
X34139Y60174D01*
X34141Y60172D01*
X34144Y60170D01*
X34162Y60153D01*
X34183Y60139D01*
X34225Y60114D01*
X34264Y60097D01*
X34302Y60085D01*
X34335Y60078D01*
X34350Y60074D01*
X34362D01*
X34371Y60072D01*
X34385D01*
X34421Y60074D01*
X34452Y60078D01*
X34483Y60087D01*
X34512Y60097D01*
X34539Y60110D01*
X34564Y60122D01*
X34587Y60137D01*
X34608Y60153D01*
X34627Y60168D01*
X34643Y60182D01*
X34656Y60195D01*
X34668Y60207D01*
X34677Y60218D01*
X34683Y60226D01*
X34687Y60230D01*
X34689Y60232D01*
X34708Y60266D01*
X34727Y60299D01*
X34741Y60339D01*
X34754Y60378D01*
X34775Y60457D01*
X34787Y60536D01*
X34791Y60574D01*
X34795Y60609D01*
X34798Y60639D01*
X34800Y60666D01*
X34802Y60689D01*
Y60705D01*
Y60716D01*
Y60720D01*
X34800Y60797D01*
X34795Y60832D01*
X34793Y60866D01*
X34789Y60897D01*
X34783Y60926D01*
X34779Y60953D01*
X34773Y60978D01*
X34768Y60999D01*
X34764Y61018D01*
X34758Y61034D01*
X34754Y61049D01*
X34750Y61059D01*
X34748Y61068D01*
X34745Y61072D01*
Y61074D01*
X34723Y61124D01*
X34698Y61166D01*
X34673Y61203D01*
X34650Y61232D01*
X34629Y61253D01*
X34610Y61270D01*
X34600Y61280D01*
X34595Y61282D01*
X34558Y61305D01*
X34521Y61322D01*
X34483Y61332D01*
X34448Y61340D01*
X34416Y61345D01*
X34391Y61349D01*
X34371D01*
X34323Y61345D01*
X34281Y61334D01*
X34241Y61318D01*
X34206Y61297D01*
X34175Y61272D01*
X34146Y61245D01*
X34121Y61215D01*
X34100Y61184D01*
X34081Y61153D01*
X34064Y61124D01*
X34052Y61097D01*
X34039Y61072D01*
X34033Y61051D01*
X34027Y61034D01*
X34023Y61024D01*
Y61020D01*
X33854Y61068D01*
X33864Y61109D01*
X33877Y61147D01*
X33891Y61182D01*
X33906Y61215D01*
X33923Y61247D01*
X33937Y61274D01*
X33954Y61301D01*
X33969Y61324D01*
X33983Y61343D01*
X33998Y61361D01*
X34010Y61376D01*
X34021Y61388D01*
X34031Y61397D01*
X34037Y61403D01*
X34041Y61407D01*
X34044Y61409D01*
X34069Y61430D01*
X34096Y61449D01*
X34123Y61463D01*
X34152Y61478D01*
X34179Y61490D01*
X34206Y61499D01*
X34256Y61513D01*
X34279Y61518D01*
X34300Y61522D01*
X34318Y61524D01*
X34335Y61526D01*
X34348Y61528D01*
X34398D01*
X34429Y61524D01*
D02*
G37*
G36*
X25850Y61088D02*
X25883Y61084D01*
X25914Y61076D01*
X25946Y61066D01*
X25998Y61041D01*
X26023Y61028D01*
X26044Y61013D01*
X26064Y60999D01*
X26081Y60984D01*
X26096Y60970D01*
X26108Y60959D01*
X26118Y60949D01*
X26125Y60941D01*
X26129Y60936D01*
X26131Y60934D01*
X26152Y60903D01*
X26171Y60870D01*
X26187Y60834D01*
X26202Y60797D01*
X26214Y60759D01*
X26225Y60722D01*
X26239Y60649D01*
X26243Y60614D01*
X26248Y60582D01*
X26250Y60553D01*
X26252Y60530D01*
X26254Y60509D01*
Y60493D01*
Y60484D01*
Y60480D01*
X26252Y60428D01*
X26248Y60380D01*
X26243Y60334D01*
X26235Y60291D01*
X26225Y60253D01*
X26214Y60216D01*
X26204Y60185D01*
X26191Y60155D01*
X26181Y60128D01*
X26171Y60105D01*
X26160Y60087D01*
X26150Y60072D01*
X26141Y60060D01*
X26137Y60049D01*
X26133Y60045D01*
X26131Y60043D01*
X26108Y60016D01*
X26081Y59993D01*
X26056Y59974D01*
X26029Y59955D01*
X26002Y59941D01*
X25975Y59930D01*
X25948Y59920D01*
X25923Y59912D01*
X25900Y59905D01*
X25877Y59901D01*
X25858Y59897D01*
X25841Y59895D01*
X25827D01*
X25816Y59893D01*
X25808D01*
X25779Y59895D01*
X25752Y59897D01*
X25700Y59908D01*
X25654Y59922D01*
X25617Y59939D01*
X25585Y59955D01*
X25573Y59964D01*
X25562Y59970D01*
X25554Y59976D01*
X25548Y59980D01*
X25546Y59985D01*
X25544D01*
X25525Y60003D01*
X25506Y60024D01*
X25475Y60068D01*
X25448Y60114D01*
X25427Y60160D01*
X25412Y60199D01*
X25406Y60218D01*
X25402Y60232D01*
X25398Y60247D01*
X25396Y60255D01*
X25394Y60262D01*
Y60264D01*
X25558Y60289D01*
X25573Y60247D01*
X25589Y60212D01*
X25608Y60180D01*
X25627Y60153D01*
X25648Y60130D01*
X25669Y60112D01*
X25689Y60095D01*
X25710Y60082D01*
X25729Y60072D01*
X25748Y60066D01*
X25764Y60060D01*
X25779Y60057D01*
X25791Y60055D01*
X25800Y60053D01*
X25808D01*
X25829Y60055D01*
X25848Y60057D01*
X25885Y60068D01*
X25919Y60085D01*
X25948Y60103D01*
X25971Y60120D01*
X25987Y60137D01*
X25998Y60147D01*
X26002Y60151D01*
X26016Y60170D01*
X26029Y60193D01*
X26050Y60239D01*
X26064Y60287D01*
X26075Y60334D01*
X26083Y60376D01*
X26085Y60395D01*
X26087Y60412D01*
Y60424D01*
X26089Y60434D01*
Y60441D01*
Y60443D01*
X25390D01*
Y60493D01*
X25392Y60545D01*
X25396Y60595D01*
X25400Y60643D01*
X25408Y60684D01*
X25419Y60724D01*
X25429Y60761D01*
X25439Y60795D01*
X25450Y60824D01*
X25462Y60851D01*
X25473Y60874D01*
X25483Y60893D01*
X25494Y60907D01*
X25502Y60920D01*
X25506Y60930D01*
X25510Y60934D01*
X25512Y60936D01*
X25535Y60963D01*
X25560Y60986D01*
X25585Y61007D01*
X25610Y61026D01*
X25635Y61041D01*
X25660Y61053D01*
X25685Y61063D01*
X25708Y61072D01*
X25731Y61078D01*
X25750Y61082D01*
X25769Y61086D01*
X25783Y61088D01*
X25798Y61091D01*
X25814D01*
X25850Y61088D01*
D02*
G37*
G36*
X24242D02*
X24275Y61084D01*
X24306Y61076D01*
X24338Y61066D01*
X24390Y61041D01*
X24415Y61028D01*
X24436Y61013D01*
X24456Y60999D01*
X24473Y60984D01*
X24488Y60970D01*
X24500Y60959D01*
X24511Y60949D01*
X24517Y60941D01*
X24521Y60936D01*
X24523Y60934D01*
X24544Y60903D01*
X24563Y60870D01*
X24579Y60834D01*
X24594Y60797D01*
X24606Y60759D01*
X24617Y60722D01*
X24631Y60649D01*
X24636Y60614D01*
X24640Y60582D01*
X24642Y60553D01*
X24644Y60530D01*
X24646Y60509D01*
Y60493D01*
Y60484D01*
Y60480D01*
X24644Y60428D01*
X24640Y60380D01*
X24636Y60334D01*
X24627Y60291D01*
X24617Y60253D01*
X24606Y60216D01*
X24596Y60185D01*
X24583Y60155D01*
X24573Y60128D01*
X24563Y60105D01*
X24552Y60087D01*
X24542Y60072D01*
X24533Y60060D01*
X24529Y60049D01*
X24525Y60045D01*
X24523Y60043D01*
X24500Y60016D01*
X24473Y59993D01*
X24448Y59974D01*
X24421Y59955D01*
X24394Y59941D01*
X24367Y59930D01*
X24340Y59920D01*
X24315Y59912D01*
X24292Y59905D01*
X24269Y59901D01*
X24250Y59897D01*
X24234Y59895D01*
X24219D01*
X24209Y59893D01*
X24200D01*
X24171Y59895D01*
X24144Y59897D01*
X24092Y59908D01*
X24046Y59922D01*
X24009Y59939D01*
X23977Y59955D01*
X23965Y59964D01*
X23954Y59970D01*
X23946Y59976D01*
X23940Y59980D01*
X23938Y59985D01*
X23936D01*
X23917Y60003D01*
X23898Y60024D01*
X23867Y60068D01*
X23840Y60114D01*
X23819Y60160D01*
X23805Y60199D01*
X23798Y60218D01*
X23794Y60232D01*
X23790Y60247D01*
X23788Y60255D01*
X23786Y60262D01*
Y60264D01*
X23950Y60289D01*
X23965Y60247D01*
X23982Y60212D01*
X24000Y60180D01*
X24019Y60153D01*
X24040Y60130D01*
X24061Y60112D01*
X24082Y60095D01*
X24102Y60082D01*
X24121Y60072D01*
X24140Y60066D01*
X24156Y60060D01*
X24171Y60057D01*
X24184Y60055D01*
X24192Y60053D01*
X24200D01*
X24221Y60055D01*
X24240Y60057D01*
X24277Y60068D01*
X24311Y60085D01*
X24340Y60103D01*
X24363Y60120D01*
X24379Y60137D01*
X24390Y60147D01*
X24394Y60151D01*
X24409Y60170D01*
X24421Y60193D01*
X24442Y60239D01*
X24456Y60287D01*
X24467Y60334D01*
X24475Y60376D01*
X24477Y60395D01*
X24479Y60412D01*
Y60424D01*
X24481Y60434D01*
Y60441D01*
Y60443D01*
X23782D01*
Y60493D01*
X23784Y60545D01*
X23788Y60595D01*
X23792Y60643D01*
X23800Y60684D01*
X23811Y60724D01*
X23821Y60761D01*
X23832Y60795D01*
X23842Y60824D01*
X23854Y60851D01*
X23865Y60874D01*
X23875Y60893D01*
X23886Y60907D01*
X23894Y60920D01*
X23898Y60930D01*
X23902Y60934D01*
X23904Y60936D01*
X23927Y60963D01*
X23952Y60986D01*
X23977Y61007D01*
X24002Y61026D01*
X24027Y61041D01*
X24052Y61053D01*
X24077Y61063D01*
X24100Y61072D01*
X24123Y61078D01*
X24142Y61082D01*
X24161Y61086D01*
X24175Y61088D01*
X24190Y61091D01*
X24206D01*
X24242Y61088D01*
D02*
G37*
G36*
X38130Y59920D02*
X37959D01*
Y60639D01*
X37351D01*
Y60826D01*
X37959D01*
Y61313D01*
X37255D01*
Y61501D01*
X38130D01*
Y59920D01*
D02*
G37*
G36*
X35729Y61088D02*
X35747Y61084D01*
X35764Y61078D01*
X35781Y61072D01*
X35793Y61063D01*
X35801Y61057D01*
X35808Y61053D01*
X35810Y61051D01*
X35826Y61032D01*
X35845Y61009D01*
X35862Y60982D01*
X35876Y60955D01*
X35891Y60930D01*
X35901Y60909D01*
X35903Y60903D01*
X35908Y60897D01*
X35910Y60893D01*
Y61066D01*
X36053D01*
Y59920D01*
X35895D01*
Y60518D01*
X35893Y60564D01*
X35891Y60607D01*
X35887Y60647D01*
X35881Y60684D01*
X35874Y60714D01*
X35870Y60736D01*
X35868Y60745D01*
Y60751D01*
X35866Y60753D01*
Y60755D01*
X35858Y60778D01*
X35849Y60797D01*
X35841Y60814D01*
X35831Y60828D01*
X35822Y60839D01*
X35814Y60847D01*
X35810Y60851D01*
X35808Y60853D01*
X35791Y60866D01*
X35774Y60874D01*
X35760Y60882D01*
X35745Y60886D01*
X35733Y60889D01*
X35722Y60891D01*
X35714D01*
X35693Y60889D01*
X35672Y60884D01*
X35651Y60878D01*
X35635Y60870D01*
X35620Y60861D01*
X35608Y60855D01*
X35599Y60851D01*
X35597Y60849D01*
X35543Y61028D01*
X35574Y61049D01*
X35604Y61063D01*
X35633Y61076D01*
X35656Y61082D01*
X35679Y61086D01*
X35693Y61091D01*
X35708D01*
X35729Y61088D01*
D02*
G37*
G36*
X32636Y59920D02*
X32477D01*
Y61066D01*
X32636D01*
Y59920D01*
D02*
G37*
G36*
X28514Y59920D02*
X28355D01*
Y61066D01*
X28514D01*
Y59920D01*
D02*
G37*
G36*
X24869Y61088D02*
X24888Y61084D01*
X24904Y61078D01*
X24921Y61072D01*
X24933Y61063D01*
X24942Y61057D01*
X24948Y61053D01*
X24950Y61051D01*
X24967Y61032D01*
X24985Y61009D01*
X25002Y60982D01*
X25017Y60955D01*
X25031Y60930D01*
X25042Y60909D01*
X25044Y60903D01*
X25048Y60897D01*
X25050Y60893D01*
Y61066D01*
X25194D01*
Y59920D01*
X25035D01*
Y60518D01*
X25033Y60564D01*
X25031Y60607D01*
X25027Y60647D01*
X25021Y60684D01*
X25015Y60714D01*
X25010Y60736D01*
X25008Y60745D01*
Y60751D01*
X25006Y60753D01*
Y60755D01*
X24998Y60778D01*
X24990Y60797D01*
X24981Y60814D01*
X24971Y60828D01*
X24963Y60839D01*
X24954Y60847D01*
X24950Y60851D01*
X24948Y60853D01*
X24931Y60866D01*
X24915Y60874D01*
X24900Y60882D01*
X24885Y60886D01*
X24873Y60888D01*
X24863Y60891D01*
X24854D01*
X24833Y60888D01*
X24813Y60884D01*
X24792Y60878D01*
X24775Y60870D01*
X24760Y60861D01*
X24748Y60855D01*
X24740Y60851D01*
X24738Y60849D01*
X24683Y61028D01*
X24715Y61049D01*
X24744Y61063D01*
X24773Y61076D01*
X24796Y61082D01*
X24819Y61086D01*
X24833Y61091D01*
X24848D01*
X24869Y61088D01*
D02*
G37*
G36*
X23261D02*
X23280Y61084D01*
X23296Y61078D01*
X23313Y61072D01*
X23325Y61063D01*
X23334Y61057D01*
X23340Y61053D01*
X23342Y61051D01*
X23359Y61032D01*
X23378Y61009D01*
X23394Y60982D01*
X23409Y60955D01*
X23423Y60930D01*
X23434Y60909D01*
X23436Y60903D01*
X23440Y60897D01*
X23442Y60893D01*
Y61066D01*
X23586D01*
Y59920D01*
X23428D01*
Y60518D01*
X23425Y60564D01*
X23423Y60607D01*
X23419Y60647D01*
X23413Y60684D01*
X23407Y60714D01*
X23403Y60736D01*
X23400Y60745D01*
Y60751D01*
X23398Y60753D01*
Y60755D01*
X23390Y60778D01*
X23382Y60797D01*
X23373Y60814D01*
X23363Y60828D01*
X23355Y60839D01*
X23346Y60847D01*
X23342Y60851D01*
X23340Y60853D01*
X23323Y60866D01*
X23307Y60874D01*
X23292Y60882D01*
X23278Y60886D01*
X23265Y60888D01*
X23255Y60891D01*
X23246D01*
X23225Y60888D01*
X23205Y60884D01*
X23184Y60878D01*
X23167Y60870D01*
X23153Y60861D01*
X23140Y60855D01*
X23132Y60851D01*
X23130Y60849D01*
X23076Y61028D01*
X23107Y61049D01*
X23136Y61063D01*
X23165Y61076D01*
X23188Y61082D01*
X23211Y61086D01*
X23225Y61091D01*
X23240D01*
X23261Y61088D01*
D02*
G37*
G36*
X36716Y61088D02*
X36749Y61084D01*
X36780Y61076D01*
X36812Y61068D01*
X36864Y61043D01*
X36889Y61028D01*
X36909Y61016D01*
X36930Y61001D01*
X36947Y60986D01*
X36962Y60974D01*
X36974Y60961D01*
X36984Y60953D01*
X36991Y60945D01*
X36995Y60941D01*
X36997Y60938D01*
X37018Y60909D01*
X37037Y60876D01*
X37053Y60841D01*
X37068Y60805D01*
X37080Y60768D01*
X37091Y60730D01*
X37105Y60657D01*
X37109Y60624D01*
X37114Y60593D01*
X37116Y60564D01*
X37118Y60539D01*
X37120Y60520D01*
Y60503D01*
Y60495D01*
Y60491D01*
X37118Y60437D01*
X37114Y60387D01*
X37107Y60339D01*
X37101Y60297D01*
X37091Y60255D01*
X37080Y60220D01*
X37070Y60187D01*
X37057Y60155D01*
X37045Y60130D01*
X37034Y60107D01*
X37024Y60087D01*
X37014Y60072D01*
X37007Y60060D01*
X37001Y60049D01*
X36997Y60045D01*
X36995Y60043D01*
X36970Y60016D01*
X36945Y59993D01*
X36920Y59974D01*
X36893Y59955D01*
X36866Y59941D01*
X36841Y59930D01*
X36816Y59920D01*
X36791Y59912D01*
X36768Y59905D01*
X36747Y59901D01*
X36728Y59897D01*
X36712Y59895D01*
X36699D01*
X36689Y59893D01*
X36680D01*
X36645Y59895D01*
X36612Y59899D01*
X36580Y59908D01*
X36551Y59916D01*
X36522Y59928D01*
X36497Y59941D01*
X36472Y59953D01*
X36451Y59968D01*
X36433Y59982D01*
X36414Y59995D01*
X36399Y60007D01*
X36389Y60020D01*
X36378Y60028D01*
X36372Y60037D01*
X36368Y60041D01*
X36366Y60043D01*
X36343Y60074D01*
X36324Y60105D01*
X36308Y60143D01*
X36293Y60178D01*
X36280Y60218D01*
X36272Y60255D01*
X36255Y60330D01*
X36251Y60366D01*
X36247Y60397D01*
X36245Y60426D01*
X36243Y60453D01*
X36241Y60474D01*
Y60491D01*
Y60499D01*
Y60503D01*
X36243Y60555D01*
X36247Y60603D01*
X36253Y60649D01*
X36260Y60691D01*
X36270Y60730D01*
X36280Y60766D01*
X36293Y60799D01*
X36303Y60828D01*
X36316Y60853D01*
X36328Y60876D01*
X36339Y60895D01*
X36347Y60911D01*
X36355Y60922D01*
X36362Y60932D01*
X36366Y60936D01*
X36368Y60938D01*
X36393Y60966D01*
X36418Y60988D01*
X36443Y61009D01*
X36470Y61026D01*
X36497Y61041D01*
X36522Y61053D01*
X36547Y61063D01*
X36572Y61072D01*
X36595Y61078D01*
X36616Y61082D01*
X36632Y61086D01*
X36649Y61088D01*
X36662Y61091D01*
X36680D01*
X36716Y61088D01*
D02*
G37*
G36*
X27851Y61086D02*
X27903Y61076D01*
X27947Y61061D01*
X27985Y61045D01*
X28014Y61026D01*
X28035Y61011D01*
X28041Y61005D01*
X28047Y61001D01*
X28049Y60999D01*
X28051Y60997D01*
X28068Y60980D01*
X28083Y60961D01*
X28105Y60922D01*
X28122Y60882D01*
X28133Y60845D01*
X28141Y60811D01*
X28143Y60797D01*
Y60784D01*
X28145Y60774D01*
Y60766D01*
Y60761D01*
Y60759D01*
X28143Y60728D01*
X28139Y60699D01*
X28135Y60674D01*
X28128Y60651D01*
X28122Y60632D01*
X28116Y60620D01*
X28114Y60609D01*
X28112Y60607D01*
X28097Y60584D01*
X28080Y60564D01*
X28066Y60545D01*
X28049Y60530D01*
X28035Y60518D01*
X28024Y60509D01*
X28016Y60503D01*
X28014Y60501D01*
X28001Y60493D01*
X27985Y60487D01*
X27949Y60470D01*
X27908Y60453D01*
X27866Y60437D01*
X27828Y60424D01*
X27812Y60418D01*
X27795Y60414D01*
X27783Y60409D01*
X27774Y60405D01*
X27768Y60403D01*
X27766D01*
X27743Y60397D01*
X27722Y60391D01*
X27687Y60378D01*
X27660Y60366D01*
X27639Y60357D01*
X27622Y60349D01*
X27612Y60343D01*
X27608Y60341D01*
X27606Y60339D01*
X27589Y60324D01*
X27576Y60305D01*
X27568Y60289D01*
X27562Y60272D01*
X27558Y60255D01*
X27556Y60243D01*
Y60234D01*
Y60232D01*
X27558Y60205D01*
X27564Y60180D01*
X27574Y60157D01*
X27585Y60139D01*
X27595Y60124D01*
X27606Y60114D01*
X27612Y60105D01*
X27614Y60103D01*
X27637Y60087D01*
X27662Y60074D01*
X27689Y60066D01*
X27714Y60060D01*
X27737Y60055D01*
X27756Y60053D01*
X27772D01*
X27810Y60055D01*
X27843Y60062D01*
X27870Y60072D01*
X27895Y60082D01*
X27914Y60091D01*
X27926Y60101D01*
X27937Y60107D01*
X27939Y60110D01*
X27960Y60135D01*
X27976Y60162D01*
X27991Y60193D01*
X27999Y60222D01*
X28006Y60247D01*
X28012Y60270D01*
Y60276D01*
X28014Y60282D01*
Y60287D01*
Y60289D01*
X28172Y60262D01*
X28166Y60228D01*
X28160Y60197D01*
X28141Y60141D01*
X28116Y60091D01*
X28089Y60049D01*
X28060Y60014D01*
X28026Y59982D01*
X27993Y59960D01*
X27958Y59939D01*
X27924Y59924D01*
X27893Y59912D01*
X27862Y59903D01*
X27837Y59899D01*
X27814Y59895D01*
X27797Y59893D01*
X27783D01*
X27749Y59895D01*
X27718Y59897D01*
X27662Y59910D01*
X27612Y59924D01*
X27591Y59935D01*
X27572Y59943D01*
X27556Y59953D01*
X27539Y59962D01*
X27526Y59970D01*
X27516Y59978D01*
X27508Y59985D01*
X27501Y59989D01*
X27499Y59991D01*
X27497Y59993D01*
X27479Y60014D01*
X27462Y60035D01*
X27449Y60055D01*
X27437Y60078D01*
X27418Y60122D01*
X27406Y60164D01*
X27399Y60201D01*
X27395Y60218D01*
Y60232D01*
X27393Y60243D01*
Y60253D01*
Y60257D01*
Y60259D01*
X27395Y60293D01*
X27397Y60322D01*
X27404Y60347D01*
X27410Y60370D01*
X27416Y60387D01*
X27420Y60401D01*
X27424Y60409D01*
X27426Y60412D01*
X27439Y60434D01*
X27454Y60455D01*
X27468Y60472D01*
X27483Y60487D01*
X27495Y60499D01*
X27506Y60507D01*
X27514Y60512D01*
X27516Y60514D01*
X27529Y60522D01*
X27543Y60528D01*
X27562Y60536D01*
X27581Y60545D01*
X27622Y60561D01*
X27666Y60578D01*
X27706Y60593D01*
X27724Y60599D01*
X27741Y60603D01*
X27753Y60607D01*
X27764Y60611D01*
X27770Y60614D01*
X27772D01*
X27797Y60622D01*
X27820Y60630D01*
X27841Y60639D01*
X27860Y60645D01*
X27876Y60651D01*
X27891Y60657D01*
X27912Y60666D01*
X27928Y60674D01*
X27939Y60678D01*
X27943Y60682D01*
X27945D01*
X27962Y60697D01*
X27972Y60714D01*
X27981Y60730D01*
X27987Y60747D01*
X27991Y60761D01*
X27993Y60772D01*
Y60780D01*
Y60782D01*
X27991Y60805D01*
X27985Y60826D01*
X27976Y60845D01*
X27968Y60859D01*
X27960Y60872D01*
X27951Y60880D01*
X27945Y60886D01*
X27943Y60888D01*
X27922Y60903D01*
X27897Y60913D01*
X27872Y60920D01*
X27847Y60926D01*
X27824Y60928D01*
X27806Y60930D01*
X27789D01*
X27758Y60928D01*
X27728Y60922D01*
X27704Y60913D01*
X27681Y60901D01*
X27662Y60886D01*
X27645Y60872D01*
X27631Y60853D01*
X27618Y60836D01*
X27610Y60820D01*
X27601Y60803D01*
X27595Y60786D01*
X27591Y60772D01*
X27589Y60759D01*
X27587Y60751D01*
X27585Y60745D01*
Y60743D01*
X27429Y60770D01*
X27437Y60811D01*
X27445Y60847D01*
X27456Y60878D01*
X27464Y60903D01*
X27474Y60924D01*
X27483Y60936D01*
X27487Y60947D01*
X27489Y60949D01*
X27506Y60972D01*
X27524Y60993D01*
X27545Y61009D01*
X27564Y61024D01*
X27583Y61036D01*
X27597Y61045D01*
X27606Y61049D01*
X27610Y61051D01*
X27641Y61063D01*
X27672Y61074D01*
X27704Y61080D01*
X27731Y61086D01*
X27756Y61088D01*
X27776Y61091D01*
X27822D01*
X27851Y61086D01*
D02*
G37*
G36*
X31850Y61088D02*
X31880Y61084D01*
X31905Y61078D01*
X31927Y61070D01*
X31946Y61061D01*
X31959Y61055D01*
X31969Y61051D01*
X31971Y61049D01*
X31994Y61032D01*
X32017Y61011D01*
X32036Y60988D01*
X32054Y60968D01*
X32067Y60947D01*
X32079Y60930D01*
X32086Y60920D01*
X32088Y60918D01*
Y61066D01*
X32234D01*
Y59481D01*
X32075D01*
Y60037D01*
X32057Y60012D01*
X32040Y59991D01*
X32021Y59972D01*
X32004Y59957D01*
X31990Y59945D01*
X31977Y59937D01*
X31969Y59932D01*
X31967Y59930D01*
X31942Y59918D01*
X31919Y59910D01*
X31894Y59901D01*
X31873Y59897D01*
X31857Y59895D01*
X31842Y59893D01*
X31830D01*
X31798Y59895D01*
X31769Y59899D01*
X31742Y59908D01*
X31715Y59918D01*
X31667Y59943D01*
X31623Y59972D01*
X31607Y59987D01*
X31590Y59999D01*
X31575Y60014D01*
X31563Y60024D01*
X31555Y60035D01*
X31548Y60043D01*
X31544Y60047D01*
X31542Y60049D01*
X31521Y60080D01*
X31500Y60114D01*
X31486Y60149D01*
X31471Y60187D01*
X31459Y60224D01*
X31448Y60262D01*
X31434Y60334D01*
X31430Y60368D01*
X31425Y60399D01*
X31423Y60428D01*
X31421Y60453D01*
X31419Y60474D01*
Y60489D01*
Y60497D01*
Y60501D01*
X31421Y60568D01*
X31428Y60630D01*
X31438Y60684D01*
X31442Y60709D01*
X31446Y60732D01*
X31453Y60751D01*
X31457Y60770D01*
X31463Y60784D01*
X31467Y60799D01*
X31469Y60809D01*
X31473Y60816D01*
X31475Y60820D01*
Y60822D01*
X31496Y60870D01*
X31521Y60911D01*
X31544Y60945D01*
X31567Y60974D01*
X31588Y60995D01*
X31605Y61011D01*
X31615Y61022D01*
X31617Y61024D01*
X31619D01*
X31652Y61047D01*
X31688Y61063D01*
X31721Y61074D01*
X31752Y61082D01*
X31780Y61086D01*
X31800Y61091D01*
X31819D01*
X31850Y61088D01*
D02*
G37*
G36*
X26822Y61088D02*
X26852Y61084D01*
X26877Y61078D01*
X26900Y61070D01*
X26918Y61061D01*
X26931Y61055D01*
X26941Y61051D01*
X26943Y61049D01*
X26966Y61032D01*
X26989Y61011D01*
X27008Y60988D01*
X27027Y60968D01*
X27039Y60947D01*
X27052Y60930D01*
X27058Y60920D01*
X27060Y60918D01*
Y61066D01*
X27206D01*
Y59481D01*
X27047D01*
Y60037D01*
X27029Y60012D01*
X27012Y59991D01*
X26993Y59972D01*
X26977Y59957D01*
X26962Y59945D01*
X26950Y59937D01*
X26941Y59932D01*
X26939Y59930D01*
X26914Y59918D01*
X26891Y59910D01*
X26866Y59901D01*
X26845Y59897D01*
X26829Y59895D01*
X26814Y59893D01*
X26802D01*
X26770Y59895D01*
X26741Y59899D01*
X26714Y59908D01*
X26687Y59918D01*
X26639Y59943D01*
X26595Y59972D01*
X26579Y59987D01*
X26562Y59999D01*
X26548Y60014D01*
X26535Y60024D01*
X26527Y60035D01*
X26520Y60043D01*
X26516Y60047D01*
X26514Y60049D01*
X26493Y60080D01*
X26473Y60114D01*
X26458Y60149D01*
X26443Y60187D01*
X26431Y60224D01*
X26420Y60262D01*
X26406Y60334D01*
X26402Y60368D01*
X26398Y60399D01*
X26396Y60428D01*
X26393Y60453D01*
X26391Y60474D01*
Y60489D01*
Y60497D01*
Y60501D01*
X26393Y60568D01*
X26400Y60630D01*
X26410Y60684D01*
X26414Y60709D01*
X26418Y60732D01*
X26425Y60751D01*
X26429Y60770D01*
X26435Y60784D01*
X26439Y60799D01*
X26441Y60809D01*
X26445Y60816D01*
X26448Y60820D01*
Y60822D01*
X26468Y60870D01*
X26493Y60911D01*
X26516Y60945D01*
X26539Y60974D01*
X26560Y60995D01*
X26577Y61011D01*
X26587Y61022D01*
X26589Y61024D01*
X26591D01*
X26625Y61047D01*
X26660Y61063D01*
X26693Y61074D01*
X26725Y61082D01*
X26752Y61086D01*
X26772Y61091D01*
X26791D01*
X26822Y61088D01*
D02*
G37*
G36*
X34750Y58505D02*
X34777Y58503D01*
X34827Y58490D01*
X34870Y58474D01*
X34906Y58455D01*
X34937Y58436D01*
X34950Y58428D01*
X34960Y58420D01*
X34968Y58413D01*
X34975Y58407D01*
X34977Y58405D01*
X34979Y58403D01*
X34997Y58382D01*
X35014Y58359D01*
X35043Y58311D01*
X35066Y58261D01*
X35085Y58211D01*
X35091Y58188D01*
X35097Y58166D01*
X35102Y58147D01*
X35106Y58130D01*
X35108Y58116D01*
X35110Y58105D01*
X35112Y58099D01*
Y58097D01*
X34954Y58061D01*
X34945Y58111D01*
X34935Y58155D01*
X34920Y58193D01*
X34908Y58222D01*
X34895Y58247D01*
X34885Y58263D01*
X34877Y58272D01*
X34875Y58276D01*
X34850Y58299D01*
X34823Y58318D01*
X34798Y58330D01*
X34773Y58338D01*
X34752Y58343D01*
X34733Y58347D01*
X34718D01*
X34687Y58345D01*
X34658Y58336D01*
X34633Y58326D01*
X34610Y58313D01*
X34593Y58299D01*
X34579Y58288D01*
X34570Y58280D01*
X34568Y58278D01*
X34548Y58251D01*
X34533Y58222D01*
X34521Y58193D01*
X34514Y58166D01*
X34510Y58138D01*
X34506Y58120D01*
Y58111D01*
Y58105D01*
Y58103D01*
Y58101D01*
X34510Y58057D01*
X34518Y58020D01*
X34529Y57986D01*
X34543Y57959D01*
X34558Y57936D01*
X34568Y57920D01*
X34577Y57911D01*
X34581Y57907D01*
X34610Y57882D01*
X34643Y57866D01*
X34675Y57853D01*
X34704Y57843D01*
X34731Y57839D01*
X34754Y57836D01*
X34762Y57834D01*
X34773D01*
X34798Y57839D01*
X34816Y57668D01*
X34791Y57676D01*
X34770Y57680D01*
X34752Y57684D01*
X34735Y57689D01*
X34723D01*
X34712Y57691D01*
X34704D01*
X34666Y57686D01*
X34631Y57678D01*
X34600Y57664D01*
X34575Y57649D01*
X34554Y57632D01*
X34537Y57618D01*
X34529Y57609D01*
X34525Y57605D01*
X34500Y57572D01*
X34481Y57534D01*
X34468Y57499D01*
X34458Y57464D01*
X34454Y57430D01*
X34452Y57418D01*
Y57405D01*
X34450Y57395D01*
Y57389D01*
Y57384D01*
Y57382D01*
X34454Y57330D01*
X34462Y57284D01*
X34475Y57243D01*
X34489Y57209D01*
X34506Y57182D01*
X34518Y57162D01*
X34527Y57149D01*
X34531Y57147D01*
Y57145D01*
X34546Y57128D01*
X34562Y57116D01*
X34593Y57093D01*
X34625Y57076D01*
X34656Y57066D01*
X34681Y57057D01*
X34702Y57055D01*
X34710Y57053D01*
X34720D01*
X34756Y57057D01*
X34789Y57066D01*
X34818Y57082D01*
X34845Y57101D01*
X34868Y57126D01*
X34889Y57151D01*
X34906Y57180D01*
X34920Y57209D01*
X34933Y57237D01*
X34945Y57266D01*
X34954Y57291D01*
X34960Y57316D01*
X34964Y57334D01*
X34968Y57351D01*
X34970Y57359D01*
Y57364D01*
X35129Y57339D01*
X35125Y57301D01*
X35118Y57266D01*
X35112Y57232D01*
X35102Y57201D01*
X35091Y57172D01*
X35081Y57147D01*
X35070Y57122D01*
X35058Y57099D01*
X35047Y57080D01*
X35037Y57064D01*
X35027Y57047D01*
X35018Y57037D01*
X35010Y57026D01*
X35004Y57020D01*
X35002Y57016D01*
X35000Y57014D01*
X34977Y56993D01*
X34954Y56974D01*
X34931Y56957D01*
X34906Y56945D01*
X34883Y56932D01*
X34858Y56922D01*
X34814Y56908D01*
X34775Y56899D01*
X34758Y56897D01*
X34743Y56895D01*
X34733Y56893D01*
X34716D01*
X34683Y56895D01*
X34652Y56899D01*
X34623Y56905D01*
X34593Y56914D01*
X34541Y56937D01*
X34498Y56962D01*
X34477Y56974D01*
X34460Y56987D01*
X34446Y56999D01*
X34433Y57010D01*
X34423Y57018D01*
X34416Y57024D01*
X34412Y57028D01*
X34410Y57030D01*
X34387Y57057D01*
X34368Y57085D01*
X34350Y57114D01*
X34335Y57145D01*
X34323Y57174D01*
X34312Y57203D01*
X34298Y57259D01*
X34291Y57287D01*
X34287Y57309D01*
X34285Y57332D01*
X34283Y57351D01*
X34281Y57366D01*
Y57376D01*
Y57384D01*
Y57387D01*
X34283Y57424D01*
X34285Y57459D01*
X34291Y57491D01*
X34296Y57518D01*
X34302Y57541D01*
X34308Y57557D01*
X34310Y57568D01*
X34312Y57572D01*
X34325Y57601D01*
X34337Y57628D01*
X34352Y57651D01*
X34364Y57670D01*
X34377Y57684D01*
X34385Y57695D01*
X34391Y57701D01*
X34393Y57703D01*
X34412Y57720D01*
X34435Y57736D01*
X34456Y57749D01*
X34475Y57759D01*
X34493Y57766D01*
X34508Y57772D01*
X34516Y57776D01*
X34521D01*
X34491Y57795D01*
X34464Y57816D01*
X34443Y57839D01*
X34425Y57859D01*
X34410Y57876D01*
X34400Y57893D01*
X34393Y57901D01*
X34391Y57905D01*
X34375Y57936D01*
X34364Y57970D01*
X34356Y58003D01*
X34350Y58032D01*
X34346Y58057D01*
X34343Y58078D01*
Y58086D01*
Y58093D01*
Y58095D01*
Y58097D01*
X34346Y58130D01*
X34348Y58159D01*
X34360Y58218D01*
X34379Y58268D01*
X34398Y58309D01*
X34408Y58328D01*
X34418Y58345D01*
X34429Y58357D01*
X34437Y58370D01*
X34443Y58378D01*
X34450Y58384D01*
X34452Y58388D01*
X34454Y58390D01*
X34475Y58411D01*
X34498Y58430D01*
X34521Y58445D01*
X34541Y58457D01*
X34587Y58478D01*
X34629Y58493D01*
X34666Y58501D01*
X34683Y58503D01*
X34695Y58505D01*
X34708Y58507D01*
X34723D01*
X34750Y58505D01*
D02*
G37*
G36*
X24692Y58086D02*
X24723Y58082D01*
X24752Y58078D01*
X24777Y58072D01*
X24802Y58063D01*
X24825Y58055D01*
X24844Y58049D01*
X24860Y58041D01*
X24877Y58032D01*
X24890Y58026D01*
X24900Y58018D01*
X24908Y58013D01*
X24915Y58009D01*
X24917Y58005D01*
X24919D01*
X24938Y57988D01*
X24952Y57970D01*
X24981Y57928D01*
X25004Y57884D01*
X25023Y57841D01*
X25035Y57801D01*
X25042Y57784D01*
X25046Y57768D01*
X25048Y57755D01*
X25050Y57747D01*
X25052Y57741D01*
Y57739D01*
X24894Y57711D01*
X24883Y57755D01*
X24871Y57791D01*
X24858Y57820D01*
X24844Y57845D01*
X24833Y57861D01*
X24823Y57874D01*
X24817Y57880D01*
X24815Y57882D01*
X24792Y57899D01*
X24767Y57909D01*
X24740Y57918D01*
X24713Y57924D01*
X24688Y57928D01*
X24669Y57930D01*
X24650D01*
X24606Y57928D01*
X24569Y57920D01*
X24540Y57909D01*
X24513Y57897D01*
X24494Y57882D01*
X24479Y57872D01*
X24471Y57863D01*
X24469Y57861D01*
X24454Y57841D01*
X24444Y57816D01*
X24436Y57789D01*
X24431Y57761D01*
X24427Y57736D01*
X24425Y57716D01*
Y57707D01*
Y57701D01*
Y57699D01*
Y57697D01*
X24427Y57649D01*
X24446Y57641D01*
X24465Y57634D01*
X24511Y57620D01*
X24556Y57609D01*
X24604Y57599D01*
X24646Y57591D01*
X24665Y57589D01*
X24681Y57584D01*
X24694Y57582D01*
X24704D01*
X24711Y57580D01*
X24713D01*
X24763Y57572D01*
X24806Y57561D01*
X24844Y57551D01*
X24873Y57541D01*
X24898Y57530D01*
X24915Y57522D01*
X24923Y57518D01*
X24927Y57516D01*
X24952Y57499D01*
X24975Y57478D01*
X24994Y57457D01*
X25010Y57439D01*
X25023Y57422D01*
X25031Y57407D01*
X25038Y57399D01*
X25040Y57395D01*
X25052Y57366D01*
X25063Y57334D01*
X25069Y57305D01*
X25075Y57278D01*
X25077Y57255D01*
X25079Y57237D01*
Y57224D01*
Y57222D01*
Y57220D01*
X25075Y57166D01*
X25067Y57120D01*
X25052Y57078D01*
X25035Y57045D01*
X25021Y57016D01*
X25006Y56997D01*
X24998Y56985D01*
X24994Y56982D01*
Y56980D01*
X24958Y56951D01*
X24921Y56930D01*
X24881Y56914D01*
X24844Y56903D01*
X24810Y56897D01*
X24796Y56895D01*
X24783D01*
X24773Y56893D01*
X24758D01*
X24725Y56895D01*
X24692Y56899D01*
X24663Y56905D01*
X24636Y56914D01*
X24613Y56922D01*
X24596Y56928D01*
X24586Y56932D01*
X24581Y56935D01*
X24548Y56951D01*
X24519Y56972D01*
X24490Y56993D01*
X24465Y57014D01*
X24444Y57030D01*
X24427Y57045D01*
X24417Y57055D01*
X24413Y57060D01*
X24409Y57030D01*
X24404Y57003D01*
X24400Y56980D01*
X24394Y56960D01*
X24390Y56943D01*
X24386Y56930D01*
X24381Y56922D01*
Y56920D01*
X24215D01*
X24234Y56970D01*
X24242Y56993D01*
X24248Y57014D01*
X24252Y57030D01*
X24254Y57043D01*
X24256Y57053D01*
Y57055D01*
X24259Y57070D01*
Y57091D01*
X24261Y57114D01*
Y57139D01*
X24263Y57195D01*
Y57253D01*
X24265Y57282D01*
Y57309D01*
Y57334D01*
Y57355D01*
Y57374D01*
Y57387D01*
Y57397D01*
Y57399D01*
Y57657D01*
Y57714D01*
X24269Y57761D01*
X24271Y57803D01*
X24275Y57836D01*
X24279Y57863D01*
X24284Y57882D01*
X24286Y57893D01*
X24288Y57897D01*
X24298Y57926D01*
X24315Y57953D01*
X24331Y57976D01*
X24350Y57997D01*
X24367Y58011D01*
X24381Y58024D01*
X24392Y58032D01*
X24396Y58034D01*
X24429Y58053D01*
X24467Y58068D01*
X24504Y58076D01*
X24542Y58084D01*
X24575Y58088D01*
X24590D01*
X24600Y58091D01*
X24661D01*
X24692Y58086D01*
D02*
G37*
G36*
X36541Y56920D02*
X36368D01*
X36091Y58124D01*
X36085Y58155D01*
X36076Y58186D01*
X36070Y58218D01*
X36066Y58247D01*
X36060Y58272D01*
X36058Y58293D01*
X36053Y58305D01*
Y58307D01*
Y58309D01*
X36012Y58124D01*
X35739Y56920D01*
X35572D01*
X35216Y58501D01*
X35389D01*
X35593Y57484D01*
X35608Y57416D01*
X35620Y57351D01*
X35631Y57293D01*
X35635Y57266D01*
X35641Y57241D01*
X35643Y57220D01*
X35647Y57199D01*
X35651Y57182D01*
X35654Y57168D01*
X35656Y57155D01*
Y57147D01*
X35658Y57143D01*
Y57141D01*
X35672Y57241D01*
X35687Y57341D01*
X35695Y57389D01*
X35706Y57434D01*
X35714Y57478D01*
X35720Y57520D01*
X35729Y57557D01*
X35737Y57593D01*
X35743Y57624D01*
X35749Y57649D01*
X35754Y57670D01*
X35758Y57686D01*
X35760Y57695D01*
Y57699D01*
X35945Y58501D01*
X36151D01*
X36399Y57432D01*
X36458Y57141D01*
X36466Y57201D01*
X36476Y57259D01*
X36485Y57314D01*
X36493Y57364D01*
X36497Y57384D01*
X36501Y57405D01*
X36503Y57422D01*
X36505Y57437D01*
X36510Y57447D01*
Y57457D01*
X36512Y57462D01*
Y57464D01*
X36710Y58501D01*
X36882D01*
X36541Y56920D01*
D02*
G37*
G36*
X31540Y57586D02*
X31538Y57516D01*
X31534Y57451D01*
X31528Y57393D01*
X31519Y57339D01*
X31511Y57289D01*
X31500Y57245D01*
X31488Y57205D01*
X31475Y57170D01*
X31465Y57141D01*
X31453Y57114D01*
X31442Y57093D01*
X31432Y57076D01*
X31425Y57062D01*
X31419Y57053D01*
X31415Y57047D01*
X31413Y57045D01*
X31388Y57018D01*
X31361Y56995D01*
X31330Y56974D01*
X31298Y56957D01*
X31267Y56943D01*
X31236Y56930D01*
X31205Y56920D01*
X31173Y56912D01*
X31144Y56905D01*
X31117Y56901D01*
X31092Y56897D01*
X31071Y56895D01*
X31055D01*
X31040Y56893D01*
X31030D01*
X30965Y56897D01*
X30907Y56905D01*
X30855Y56920D01*
X30834Y56926D01*
X30813Y56935D01*
X30794Y56943D01*
X30778Y56949D01*
X30765Y56957D01*
X30753Y56964D01*
X30744Y56968D01*
X30738Y56972D01*
X30734Y56976D01*
X30732D01*
X30690Y57012D01*
X30657Y57049D01*
X30628Y57087D01*
X30607Y57124D01*
X30590Y57157D01*
X30584Y57172D01*
X30578Y57185D01*
X30574Y57195D01*
X30572Y57203D01*
X30569Y57207D01*
Y57209D01*
X30555Y57268D01*
X30542Y57330D01*
X30534Y57395D01*
X30530Y57453D01*
X30528Y57480D01*
X30526Y57505D01*
Y57528D01*
X30524Y57549D01*
Y57564D01*
Y57576D01*
Y57584D01*
Y57586D01*
Y58501D01*
X30694D01*
Y57589D01*
Y57534D01*
X30699Y57484D01*
X30703Y57441D01*
X30707Y57399D01*
X30713Y57362D01*
X30721Y57328D01*
X30728Y57299D01*
X30736Y57274D01*
X30744Y57251D01*
X30751Y57232D01*
X30759Y57218D01*
X30765Y57205D01*
X30769Y57197D01*
X30774Y57189D01*
X30778Y57187D01*
Y57185D01*
X30794Y57166D01*
X30813Y57151D01*
X30834Y57137D01*
X30855Y57126D01*
X30899Y57107D01*
X30940Y57095D01*
X30980Y57089D01*
X30998Y57087D01*
X31013Y57085D01*
X31026Y57082D01*
X31042D01*
X31082Y57085D01*
X31117Y57091D01*
X31148Y57099D01*
X31176Y57107D01*
X31198Y57116D01*
X31215Y57124D01*
X31223Y57130D01*
X31228Y57132D01*
X31255Y57153D01*
X31275Y57176D01*
X31294Y57201D01*
X31309Y57224D01*
X31321Y57245D01*
X31330Y57262D01*
X31334Y57274D01*
X31336Y57278D01*
X31342Y57297D01*
X31346Y57320D01*
X31355Y57368D01*
X31361Y57418D01*
X31365Y57470D01*
X31367Y57493D01*
Y57516D01*
Y57536D01*
X31369Y57553D01*
Y57568D01*
Y57580D01*
Y57586D01*
Y57589D01*
Y58501D01*
X31540D01*
Y57586D01*
D02*
G37*
G36*
X37580Y58524D02*
X37638Y58513D01*
X37693Y58499D01*
X37738Y58482D01*
X37759Y58472D01*
X37776Y58463D01*
X37793Y58455D01*
X37805Y58449D01*
X37815Y58443D01*
X37824Y58438D01*
X37828Y58436D01*
X37830Y58434D01*
X37855Y58415D01*
X37878Y58397D01*
X37922Y58353D01*
X37959Y58307D01*
X37990Y58263D01*
X38015Y58224D01*
X38026Y58207D01*
X38034Y58190D01*
X38040Y58178D01*
X38045Y58170D01*
X38049Y58163D01*
Y58161D01*
X38076Y58091D01*
X38097Y58016D01*
X38109Y57943D01*
X38115Y57907D01*
X38120Y57872D01*
X38124Y57841D01*
X38126Y57811D01*
X38128Y57786D01*
Y57764D01*
X38130Y57745D01*
Y57732D01*
Y57722D01*
Y57720D01*
X38126Y57624D01*
X38122Y57580D01*
X38118Y57536D01*
X38111Y57497D01*
X38105Y57459D01*
X38097Y57424D01*
X38088Y57391D01*
X38082Y57362D01*
X38074Y57337D01*
X38068Y57314D01*
X38061Y57297D01*
X38057Y57280D01*
X38053Y57270D01*
X38049Y57264D01*
Y57262D01*
X38032Y57226D01*
X38015Y57195D01*
X37999Y57164D01*
X37982Y57137D01*
X37963Y57112D01*
X37947Y57087D01*
X37930Y57068D01*
X37913Y57049D01*
X37899Y57032D01*
X37884Y57018D01*
X37872Y57007D01*
X37861Y56997D01*
X37853Y56991D01*
X37847Y56985D01*
X37843Y56982D01*
X37840Y56980D01*
X37791Y56951D01*
X37738Y56930D01*
X37686Y56914D01*
X37638Y56903D01*
X37616Y56901D01*
X37597Y56897D01*
X37578Y56895D01*
X37563D01*
X37549Y56893D01*
X37532D01*
X37495Y56895D01*
X37459Y56899D01*
X37424Y56905D01*
X37393Y56914D01*
X37361Y56922D01*
X37332Y56935D01*
X37307Y56945D01*
X37282Y56957D01*
X37261Y56970D01*
X37243Y56980D01*
X37226Y56993D01*
X37211Y57001D01*
X37201Y57010D01*
X37193Y57016D01*
X37189Y57020D01*
X37186Y57022D01*
X37161Y57049D01*
X37137Y57076D01*
X37095Y57141D01*
X37059Y57205D01*
X37032Y57272D01*
X37020Y57301D01*
X37009Y57330D01*
X37003Y57355D01*
X36995Y57378D01*
X36991Y57397D01*
X36987Y57409D01*
X36984Y57420D01*
Y57422D01*
X37157Y57474D01*
X37166Y57437D01*
X37174Y57403D01*
X37182Y57370D01*
X37193Y57341D01*
X37205Y57314D01*
X37216Y57289D01*
X37228Y57266D01*
X37239Y57245D01*
X37251Y57228D01*
X37261Y57212D01*
X37270Y57199D01*
X37278Y57189D01*
X37284Y57180D01*
X37291Y57174D01*
X37293Y57172D01*
X37295Y57170D01*
X37314Y57153D01*
X37334Y57139D01*
X37376Y57114D01*
X37416Y57097D01*
X37453Y57085D01*
X37486Y57078D01*
X37501Y57074D01*
X37513D01*
X37522Y57072D01*
X37536D01*
X37572Y57074D01*
X37603Y57078D01*
X37634Y57087D01*
X37663Y57097D01*
X37691Y57110D01*
X37716Y57122D01*
X37738Y57137D01*
X37759Y57153D01*
X37778Y57168D01*
X37795Y57182D01*
X37807Y57195D01*
X37820Y57207D01*
X37828Y57218D01*
X37834Y57226D01*
X37838Y57230D01*
X37840Y57232D01*
X37859Y57266D01*
X37878Y57299D01*
X37893Y57339D01*
X37905Y57378D01*
X37926Y57457D01*
X37938Y57536D01*
X37943Y57574D01*
X37947Y57609D01*
X37949Y57639D01*
X37951Y57666D01*
X37953Y57689D01*
Y57705D01*
Y57716D01*
Y57720D01*
X37951Y57797D01*
X37947Y57832D01*
X37945Y57866D01*
X37940Y57897D01*
X37934Y57926D01*
X37930Y57953D01*
X37924Y57978D01*
X37920Y57999D01*
X37915Y58018D01*
X37909Y58034D01*
X37905Y58049D01*
X37901Y58059D01*
X37899Y58068D01*
X37897Y58072D01*
Y58074D01*
X37874Y58124D01*
X37849Y58166D01*
X37824Y58203D01*
X37801Y58232D01*
X37780Y58253D01*
X37761Y58270D01*
X37751Y58280D01*
X37747Y58282D01*
X37709Y58305D01*
X37672Y58322D01*
X37634Y58332D01*
X37599Y58340D01*
X37568Y58345D01*
X37543Y58349D01*
X37522D01*
X37474Y58345D01*
X37432Y58334D01*
X37393Y58318D01*
X37357Y58297D01*
X37326Y58272D01*
X37297Y58245D01*
X37272Y58215D01*
X37251Y58184D01*
X37232Y58153D01*
X37216Y58124D01*
X37203Y58097D01*
X37191Y58072D01*
X37184Y58051D01*
X37178Y58034D01*
X37174Y58024D01*
Y58020D01*
X37005Y58068D01*
X37016Y58109D01*
X37028Y58147D01*
X37043Y58182D01*
X37057Y58215D01*
X37074Y58247D01*
X37089Y58274D01*
X37105Y58301D01*
X37120Y58324D01*
X37134Y58343D01*
X37149Y58361D01*
X37161Y58376D01*
X37172Y58388D01*
X37182Y58397D01*
X37189Y58403D01*
X37193Y58407D01*
X37195Y58409D01*
X37220Y58430D01*
X37247Y58449D01*
X37274Y58463D01*
X37303Y58478D01*
X37330Y58490D01*
X37357Y58499D01*
X37407Y58513D01*
X37430Y58518D01*
X37451Y58522D01*
X37470Y58524D01*
X37486Y58526D01*
X37499Y58528D01*
X37549D01*
X37580Y58524D01*
D02*
G37*
G36*
X30222Y56920D02*
X30051D01*
Y57639D01*
X29443D01*
Y57826D01*
X30051D01*
Y58313D01*
X29347D01*
Y58501D01*
X30222D01*
Y56920D01*
D02*
G37*
G36*
X27222D02*
X26729D01*
X26668Y56922D01*
X26614Y56928D01*
X26568Y56935D01*
X26531Y56945D01*
X26500Y56953D01*
X26487Y56957D01*
X26479Y56960D01*
X26470Y56964D01*
X26464Y56966D01*
X26462Y56968D01*
X26460D01*
X26425Y56989D01*
X26393Y57014D01*
X26368Y57041D01*
X26346Y57066D01*
X26327Y57089D01*
X26314Y57110D01*
X26306Y57122D01*
X26304Y57124D01*
Y57126D01*
X26283Y57168D01*
X26268Y57212D01*
X26258Y57253D01*
X26252Y57293D01*
X26246Y57326D01*
Y57341D01*
X26243Y57353D01*
Y57364D01*
Y57372D01*
Y57376D01*
Y57378D01*
X26246Y57430D01*
X26254Y57476D01*
X26264Y57518D01*
X26277Y57553D01*
X26289Y57582D01*
X26300Y57603D01*
X26304Y57609D01*
X26308Y57616D01*
X26310Y57618D01*
Y57620D01*
X26337Y57655D01*
X26364Y57684D01*
X26393Y57709D01*
X26423Y57728D01*
X26448Y57743D01*
X26468Y57753D01*
X26477Y57757D01*
X26483Y57759D01*
X26485Y57761D01*
X26487D01*
X26456Y57782D01*
X26431Y57805D01*
X26408Y57828D01*
X26389Y57851D01*
X26373Y57870D01*
X26362Y57886D01*
X26356Y57897D01*
X26354Y57901D01*
X26337Y57934D01*
X26327Y57968D01*
X26318Y58001D01*
X26312Y58032D01*
X26308Y58057D01*
X26306Y58078D01*
Y58086D01*
Y58093D01*
Y58095D01*
Y58097D01*
X26308Y58141D01*
X26314Y58180D01*
X26325Y58218D01*
X26333Y58249D01*
X26343Y58274D01*
X26354Y58295D01*
X26360Y58307D01*
X26362Y58311D01*
X26383Y58345D01*
X26408Y58376D01*
X26431Y58401D01*
X26454Y58420D01*
X26473Y58436D01*
X26489Y58447D01*
X26500Y58453D01*
X26504Y58455D01*
X26539Y58470D01*
X26577Y58482D01*
X26614Y58490D01*
X26652Y58495D01*
X26685Y58499D01*
X26700D01*
X26712Y58501D01*
X27222D01*
Y56920D01*
D02*
G37*
G36*
X23694Y58088D02*
X23713Y58084D01*
X23730Y58078D01*
X23746Y58072D01*
X23759Y58063D01*
X23767Y58057D01*
X23773Y58053D01*
X23775Y58051D01*
X23792Y58032D01*
X23811Y58009D01*
X23827Y57982D01*
X23842Y57955D01*
X23857Y57930D01*
X23867Y57909D01*
X23869Y57903D01*
X23873Y57897D01*
X23875Y57893D01*
Y58066D01*
X24019D01*
Y56920D01*
X23861D01*
Y57518D01*
X23859Y57564D01*
X23857Y57607D01*
X23852Y57647D01*
X23846Y57684D01*
X23840Y57714D01*
X23836Y57736D01*
X23834Y57745D01*
Y57751D01*
X23832Y57753D01*
Y57755D01*
X23823Y57778D01*
X23815Y57797D01*
X23807Y57814D01*
X23796Y57828D01*
X23788Y57839D01*
X23779Y57847D01*
X23775Y57851D01*
X23773Y57853D01*
X23757Y57866D01*
X23740Y57874D01*
X23725Y57882D01*
X23711Y57886D01*
X23698Y57888D01*
X23688Y57891D01*
X23680D01*
X23659Y57888D01*
X23638Y57884D01*
X23617Y57878D01*
X23600Y57870D01*
X23586Y57861D01*
X23573Y57855D01*
X23565Y57851D01*
X23563Y57849D01*
X23509Y58028D01*
X23540Y58049D01*
X23569Y58063D01*
X23598Y58076D01*
X23621Y58082D01*
X23644Y58086D01*
X23659Y58091D01*
X23673D01*
X23694Y58088D01*
D02*
G37*
G36*
X33737Y58505D02*
X33773Y58499D01*
X33808Y58488D01*
X33837Y58476D01*
X33867Y58459D01*
X33891Y58443D01*
X33916Y58424D01*
X33937Y58405D01*
X33956Y58384D01*
X33973Y58365D01*
X33985Y58349D01*
X33996Y58334D01*
X34006Y58320D01*
X34012Y58309D01*
X34014Y58303D01*
X34016Y58301D01*
X34035Y58261D01*
X34052Y58215D01*
X34066Y58170D01*
X34077Y58122D01*
X34098Y58022D01*
X34104Y57972D01*
X34110Y57924D01*
X34114Y57878D01*
X34116Y57836D01*
X34119Y57797D01*
X34121Y57764D01*
X34123Y57736D01*
Y57716D01*
Y57709D01*
Y57703D01*
Y57701D01*
Y57699D01*
X34121Y57618D01*
X34119Y57545D01*
X34112Y57476D01*
X34104Y57414D01*
X34096Y57355D01*
X34085Y57305D01*
X34075Y57259D01*
X34064Y57218D01*
X34054Y57182D01*
X34044Y57153D01*
X34033Y57128D01*
X34025Y57107D01*
X34016Y57091D01*
X34010Y57080D01*
X34008Y57074D01*
X34006Y57072D01*
X33983Y57041D01*
X33958Y57014D01*
X33933Y56989D01*
X33908Y56968D01*
X33883Y56951D01*
X33858Y56937D01*
X33833Y56924D01*
X33810Y56916D01*
X33789Y56908D01*
X33769Y56903D01*
X33750Y56899D01*
X33735Y56895D01*
X33721D01*
X33712Y56893D01*
X33704D01*
X33667Y56895D01*
X33629Y56901D01*
X33596Y56912D01*
X33567Y56924D01*
X33537Y56941D01*
X33510Y56957D01*
X33487Y56976D01*
X33467Y56995D01*
X33448Y57014D01*
X33431Y57032D01*
X33419Y57049D01*
X33408Y57066D01*
X33398Y57078D01*
X33392Y57089D01*
X33390Y57095D01*
X33387Y57097D01*
X33369Y57139D01*
X33352Y57182D01*
X33337Y57228D01*
X33325Y57278D01*
X33306Y57378D01*
X33298Y57428D01*
X33292Y57476D01*
X33287Y57520D01*
X33285Y57564D01*
X33283Y57601D01*
X33281Y57634D01*
X33279Y57661D01*
Y57682D01*
Y57689D01*
Y57695D01*
Y57697D01*
Y57699D01*
X33281Y57778D01*
X33285Y57853D01*
X33292Y57922D01*
X33300Y57984D01*
X33308Y58043D01*
X33321Y58095D01*
X33331Y58143D01*
X33344Y58184D01*
X33356Y58222D01*
X33367Y58253D01*
X33379Y58280D01*
X33387Y58303D01*
X33396Y58320D01*
X33402Y58330D01*
X33406Y58338D01*
X33408Y58340D01*
X33429Y58370D01*
X33452Y58395D01*
X33475Y58418D01*
X33500Y58436D01*
X33523Y58453D01*
X33548Y58468D01*
X33573Y58478D01*
X33594Y58486D01*
X33635Y58499D01*
X33654Y58503D01*
X33669Y58505D01*
X33683Y58507D01*
X33700D01*
X33737Y58505D01*
D02*
G37*
G36*
X32723D02*
X32752Y58503D01*
X32802Y58488D01*
X32848Y58472D01*
X32888Y58451D01*
X32919Y58428D01*
X32931Y58420D01*
X32942Y58411D01*
X32950Y58403D01*
X32956Y58397D01*
X32958Y58395D01*
X32960Y58393D01*
X32979Y58372D01*
X32994Y58349D01*
X33008Y58324D01*
X33021Y58299D01*
X33040Y58251D01*
X33052Y58205D01*
X33058Y58163D01*
X33060Y58147D01*
X33063Y58130D01*
X33065Y58118D01*
Y58109D01*
Y58103D01*
Y58101D01*
X33063Y58057D01*
X33056Y58018D01*
X33050Y57984D01*
X33040Y57955D01*
X33031Y57930D01*
X33025Y57913D01*
X33019Y57903D01*
X33017Y57899D01*
X32996Y57872D01*
X32973Y57847D01*
X32950Y57826D01*
X32927Y57807D01*
X32906Y57795D01*
X32890Y57784D01*
X32877Y57778D01*
X32873Y57776D01*
X32913Y57759D01*
X32950Y57739D01*
X32979Y57716D01*
X33006Y57693D01*
X33025Y57672D01*
X33040Y57653D01*
X33050Y57641D01*
X33052Y57639D01*
Y57636D01*
X33073Y57597D01*
X33090Y57553D01*
X33100Y57509D01*
X33108Y57468D01*
X33113Y57432D01*
X33115Y57416D01*
Y57403D01*
X33117Y57391D01*
Y57382D01*
Y57378D01*
Y57376D01*
X33115Y57337D01*
X33110Y57299D01*
X33106Y57262D01*
X33098Y57228D01*
X33090Y57197D01*
X33079Y57168D01*
X33067Y57143D01*
X33056Y57118D01*
X33046Y57097D01*
X33033Y57078D01*
X33023Y57062D01*
X33015Y57049D01*
X33006Y57039D01*
X33000Y57030D01*
X32998Y57026D01*
X32996Y57024D01*
X32973Y57001D01*
X32948Y56980D01*
X32921Y56964D01*
X32896Y56949D01*
X32871Y56937D01*
X32846Y56924D01*
X32796Y56910D01*
X32775Y56903D01*
X32754Y56899D01*
X32736Y56897D01*
X32721Y56895D01*
X32706Y56893D01*
X32690D01*
X32656Y56895D01*
X32625Y56899D01*
X32596Y56905D01*
X32567Y56914D01*
X32515Y56935D01*
X32492Y56947D01*
X32471Y56960D01*
X32452Y56970D01*
X32436Y56982D01*
X32421Y56993D01*
X32411Y57003D01*
X32400Y57012D01*
X32394Y57018D01*
X32390Y57022D01*
X32388Y57024D01*
X32367Y57049D01*
X32346Y57078D01*
X32331Y57105D01*
X32317Y57135D01*
X32304Y57164D01*
X32294Y57193D01*
X32279Y57247D01*
X32275Y57272D01*
X32271Y57295D01*
X32269Y57316D01*
X32267Y57334D01*
X32265Y57349D01*
Y57362D01*
Y57368D01*
Y57370D01*
X32267Y57426D01*
X32275Y57474D01*
X32286Y57518D01*
X32296Y57555D01*
X32309Y57586D01*
X32315Y57597D01*
X32319Y57607D01*
X32323Y57616D01*
X32327Y57622D01*
X32329Y57624D01*
Y57626D01*
X32354Y57661D01*
X32384Y57693D01*
X32413Y57720D01*
X32442Y57741D01*
X32469Y57755D01*
X32490Y57768D01*
X32498Y57772D01*
X32504Y57774D01*
X32506Y57776D01*
X32509D01*
X32475Y57795D01*
X32446Y57816D01*
X32421Y57836D01*
X32400Y57855D01*
X32386Y57874D01*
X32373Y57888D01*
X32367Y57897D01*
X32365Y57901D01*
X32348Y57932D01*
X32338Y57963D01*
X32329Y57997D01*
X32323Y58026D01*
X32319Y58053D01*
X32317Y58074D01*
Y58082D01*
Y58088D01*
Y58091D01*
Y58093D01*
X32319Y58126D01*
X32321Y58157D01*
X32334Y58218D01*
X32350Y58268D01*
X32361Y58290D01*
X32371Y58311D01*
X32381Y58328D01*
X32392Y58345D01*
X32400Y58359D01*
X32409Y58370D01*
X32415Y58378D01*
X32421Y58384D01*
X32423Y58388D01*
X32425Y58390D01*
X32446Y58411D01*
X32467Y58430D01*
X32490Y58445D01*
X32513Y58457D01*
X32556Y58478D01*
X32600Y58493D01*
X32638Y58501D01*
X32652Y58503D01*
X32667Y58505D01*
X32677Y58507D01*
X32694D01*
X32723Y58505D01*
D02*
G37*
G36*
X28603Y58526D02*
X28651Y58520D01*
X28695Y58507D01*
X28737Y58495D01*
X28776Y58478D01*
X28814Y58459D01*
X28847Y58438D01*
X28876Y58420D01*
X28905Y58399D01*
X28928Y58378D01*
X28949Y58359D01*
X28968Y58343D01*
X28980Y58330D01*
X28991Y58320D01*
X28997Y58311D01*
X28999Y58309D01*
X29030Y58268D01*
X29057Y58220D01*
X29080Y58172D01*
X29101Y58122D01*
X29118Y58070D01*
X29132Y58018D01*
X29145Y57968D01*
X29153Y57918D01*
X29161Y57872D01*
X29166Y57828D01*
X29170Y57789D01*
X29174Y57755D01*
Y57728D01*
X29176Y57707D01*
Y57699D01*
Y57693D01*
Y57691D01*
Y57689D01*
X29174Y57630D01*
X29170Y57574D01*
X29161Y57520D01*
X29151Y57468D01*
X29139Y57420D01*
X29126Y57374D01*
X29111Y57334D01*
X29097Y57295D01*
X29082Y57262D01*
X29068Y57230D01*
X29055Y57205D01*
X29043Y57182D01*
X29032Y57166D01*
X29024Y57153D01*
X29020Y57145D01*
X29018Y57143D01*
X28984Y57099D01*
X28949Y57060D01*
X28912Y57026D01*
X28872Y56999D01*
X28834Y56974D01*
X28797Y56953D01*
X28759Y56937D01*
X28722Y56924D01*
X28689Y56914D01*
X28657Y56905D01*
X28630Y56901D01*
X28605Y56897D01*
X28585Y56895D01*
X28570Y56893D01*
X28557D01*
X28505Y56895D01*
X28455Y56903D01*
X28410Y56916D01*
X28366Y56930D01*
X28324Y56949D01*
X28287Y56970D01*
X28251Y56991D01*
X28220Y57014D01*
X28193Y57037D01*
X28168Y57057D01*
X28147Y57078D01*
X28128Y57097D01*
X28116Y57112D01*
X28105Y57124D01*
X28099Y57132D01*
X28097Y57135D01*
X28068Y57178D01*
X28045Y57224D01*
X28022Y57270D01*
X28003Y57318D01*
X27989Y57366D01*
X27976Y57414D01*
X27966Y57459D01*
X27958Y57505D01*
X27949Y57547D01*
X27945Y57584D01*
X27941Y57620D01*
X27939Y57649D01*
X27937Y57674D01*
Y57693D01*
Y57703D01*
Y57707D01*
X27941Y57799D01*
X27945Y57843D01*
X27949Y57884D01*
X27956Y57922D01*
X27964Y57959D01*
X27970Y57993D01*
X27978Y58024D01*
X27987Y58051D01*
X27993Y58076D01*
X28001Y58097D01*
X28008Y58113D01*
X28012Y58128D01*
X28016Y58138D01*
X28020Y58145D01*
Y58147D01*
X28053Y58211D01*
X28072Y58243D01*
X28091Y58270D01*
X28110Y58295D01*
X28128Y58318D01*
X28147Y58338D01*
X28164Y58357D01*
X28180Y58374D01*
X28195Y58388D01*
X28210Y58401D01*
X28222Y58411D01*
X28230Y58420D01*
X28239Y58426D01*
X28243Y58428D01*
X28245Y58430D01*
X28272Y58447D01*
X28299Y58463D01*
X28353Y58486D01*
X28405Y58505D01*
X28453Y58515D01*
X28474Y58520D01*
X28493Y58524D01*
X28512Y58526D01*
X28526D01*
X28539Y58528D01*
X28555D01*
X28603Y58526D01*
D02*
G37*
G36*
X25687Y58088D02*
X25721Y58084D01*
X25752Y58076D01*
X25783Y58068D01*
X25835Y58043D01*
X25860Y58028D01*
X25881Y58016D01*
X25902Y58001D01*
X25919Y57986D01*
X25933Y57974D01*
X25946Y57961D01*
X25956Y57953D01*
X25962Y57945D01*
X25966Y57941D01*
X25969Y57938D01*
X25989Y57909D01*
X26008Y57876D01*
X26025Y57841D01*
X26039Y57805D01*
X26052Y57768D01*
X26062Y57730D01*
X26077Y57657D01*
X26081Y57624D01*
X26085Y57593D01*
X26087Y57564D01*
X26089Y57539D01*
X26091Y57520D01*
Y57503D01*
Y57495D01*
Y57491D01*
X26089Y57437D01*
X26085Y57387D01*
X26079Y57339D01*
X26073Y57297D01*
X26062Y57255D01*
X26052Y57220D01*
X26041Y57187D01*
X26029Y57155D01*
X26016Y57130D01*
X26006Y57107D01*
X25996Y57087D01*
X25985Y57072D01*
X25979Y57060D01*
X25973Y57049D01*
X25969Y57045D01*
X25966Y57043D01*
X25941Y57016D01*
X25916Y56993D01*
X25891Y56974D01*
X25864Y56955D01*
X25837Y56941D01*
X25812Y56930D01*
X25787Y56920D01*
X25762Y56912D01*
X25739Y56905D01*
X25719Y56901D01*
X25700Y56897D01*
X25683Y56895D01*
X25671D01*
X25660Y56893D01*
X25652D01*
X25617Y56895D01*
X25583Y56899D01*
X25552Y56907D01*
X25523Y56916D01*
X25494Y56928D01*
X25469Y56941D01*
X25444Y56953D01*
X25423Y56968D01*
X25404Y56982D01*
X25385Y56995D01*
X25371Y57007D01*
X25360Y57020D01*
X25350Y57028D01*
X25344Y57037D01*
X25340Y57041D01*
X25337Y57043D01*
X25315Y57074D01*
X25296Y57105D01*
X25279Y57143D01*
X25265Y57178D01*
X25252Y57218D01*
X25244Y57255D01*
X25227Y57330D01*
X25223Y57366D01*
X25219Y57397D01*
X25217Y57426D01*
X25215Y57453D01*
X25212Y57474D01*
Y57491D01*
Y57499D01*
Y57503D01*
X25215Y57555D01*
X25219Y57603D01*
X25225Y57649D01*
X25231Y57691D01*
X25242Y57730D01*
X25252Y57766D01*
X25265Y57799D01*
X25275Y57828D01*
X25287Y57853D01*
X25300Y57876D01*
X25310Y57895D01*
X25319Y57911D01*
X25327Y57922D01*
X25333Y57932D01*
X25337Y57936D01*
X25340Y57938D01*
X25365Y57966D01*
X25390Y57988D01*
X25414Y58009D01*
X25442Y58026D01*
X25469Y58041D01*
X25494Y58053D01*
X25519Y58063D01*
X25544Y58072D01*
X25567Y58078D01*
X25587Y58082D01*
X25604Y58086D01*
X25621Y58088D01*
X25633Y58091D01*
X25652D01*
X25687Y58088D01*
D02*
G37*
G36*
X22821Y57932D02*
X22840Y57957D01*
X22859Y57980D01*
X22878Y58001D01*
X22894Y58018D01*
X22911Y58030D01*
X22923Y58038D01*
X22932Y58045D01*
X22934Y58047D01*
X22959Y58061D01*
X22984Y58072D01*
X23009Y58080D01*
X23032Y58084D01*
X23051Y58088D01*
X23067Y58091D01*
X23080D01*
X23119Y58088D01*
X23157Y58080D01*
X23192Y58070D01*
X23221Y58057D01*
X23246Y58045D01*
X23263Y58034D01*
X23275Y58026D01*
X23278Y58024D01*
X23280D01*
X23311Y57997D01*
X23340Y57963D01*
X23365Y57930D01*
X23386Y57899D01*
X23400Y57868D01*
X23413Y57845D01*
X23417Y57834D01*
X23421Y57828D01*
X23423Y57824D01*
Y57822D01*
X23440Y57770D01*
X23452Y57714D01*
X23463Y57657D01*
X23469Y57605D01*
X23471Y57582D01*
X23473Y57559D01*
Y57541D01*
X23475Y57524D01*
Y57509D01*
Y57499D01*
Y57493D01*
Y57491D01*
X23473Y57439D01*
X23469Y57391D01*
X23465Y57345D01*
X23457Y57301D01*
X23448Y57262D01*
X23438Y57226D01*
X23425Y57193D01*
X23415Y57164D01*
X23405Y57137D01*
X23392Y57114D01*
X23382Y57095D01*
X23373Y57078D01*
X23365Y57066D01*
X23359Y57057D01*
X23357Y57051D01*
X23355Y57049D01*
X23332Y57022D01*
X23307Y56997D01*
X23284Y56976D01*
X23259Y56960D01*
X23234Y56943D01*
X23211Y56930D01*
X23188Y56920D01*
X23165Y56912D01*
X23125Y56901D01*
X23109Y56897D01*
X23094Y56895D01*
X23084D01*
X23076Y56893D01*
X23067D01*
X23038Y56895D01*
X23011Y56899D01*
X22986Y56907D01*
X22965Y56916D01*
X22946Y56922D01*
X22934Y56930D01*
X22923Y56935D01*
X22921Y56937D01*
X22896Y56955D01*
X22876Y56974D01*
X22855Y56997D01*
X22840Y57016D01*
X22826Y57035D01*
X22817Y57049D01*
X22811Y57060D01*
X22809Y57064D01*
Y56920D01*
X22661D01*
Y58501D01*
X22821D01*
Y57932D01*
D02*
G37*
G36*
X24444Y64337D02*
X24503Y64327D01*
X24558Y64312D01*
X24606Y64297D01*
X24646Y64280D01*
X24661Y64272D01*
X24673Y64265D01*
X24683Y64257D01*
X24691Y64255D01*
X24696Y64250D01*
X24698D01*
X24746Y64212D01*
X24788Y64170D01*
X24823Y64127D01*
X24853Y64085D01*
X24876Y64047D01*
X24886Y64032D01*
X24893Y64017D01*
X24898Y64005D01*
X24903Y63997D01*
X24906Y63992D01*
Y63990D01*
X24931Y63925D01*
X24948Y63862D01*
X24961Y63800D01*
X24968Y63742D01*
X24973Y63717D01*
Y63695D01*
X24976Y63675D01*
X24978Y63657D01*
Y63642D01*
Y63632D01*
Y63625D01*
Y63622D01*
X24976Y63570D01*
X24971Y63517D01*
X24963Y63470D01*
X24953Y63422D01*
X24941Y63377D01*
X24928Y63337D01*
X24913Y63300D01*
X24898Y63265D01*
X24886Y63235D01*
X24871Y63205D01*
X24858Y63182D01*
X24846Y63162D01*
X24836Y63145D01*
X24828Y63135D01*
X24823Y63127D01*
X24821Y63125D01*
X24791Y63090D01*
X24756Y63057D01*
X24721Y63030D01*
X24686Y63007D01*
X24648Y62987D01*
X24611Y62970D01*
X24573Y62957D01*
X24538Y62945D01*
X24506Y62937D01*
X24476Y62930D01*
X24448Y62927D01*
X24424Y62922D01*
X24404D01*
X24389Y62920D01*
X24376D01*
X24334Y62922D01*
X24294Y62927D01*
X24256Y62937D01*
X24219Y62947D01*
X24154Y62977D01*
X24124Y62995D01*
X24096Y63012D01*
X24074Y63027D01*
X24051Y63045D01*
X24034Y63060D01*
X24019Y63075D01*
X24006Y63085D01*
X23999Y63095D01*
X23994Y63100D01*
X23991Y63102D01*
Y63062D01*
Y63025D01*
Y62990D01*
X23994Y62960D01*
Y62932D01*
X23996Y62907D01*
Y62885D01*
X23999Y62868D01*
X24001Y62850D01*
Y62838D01*
X24006Y62818D01*
X24009Y62805D01*
Y62803D01*
X24021Y62760D01*
X24041Y62725D01*
X24059Y62693D01*
X24079Y62668D01*
X24099Y62648D01*
X24114Y62633D01*
X24124Y62623D01*
X24129Y62620D01*
X24166Y62598D01*
X24206Y62580D01*
X24249Y62570D01*
X24289Y62560D01*
X24326Y62555D01*
X24354Y62553D01*
X24381D01*
X24436Y62555D01*
X24483Y62563D01*
X24523Y62575D01*
X24558Y62588D01*
X24586Y62598D01*
X24606Y62610D01*
X24616Y62618D01*
X24621Y62620D01*
X24643Y62640D01*
X24661Y62665D01*
X24676Y62690D01*
X24686Y62718D01*
X24693Y62740D01*
X24698Y62758D01*
X24701Y62770D01*
Y62775D01*
X24931Y62808D01*
Y62768D01*
X24926Y62728D01*
X24918Y62693D01*
X24911Y62660D01*
X24898Y62630D01*
X24886Y62603D01*
X24873Y62578D01*
X24858Y62555D01*
X24846Y62535D01*
X24831Y62518D01*
X24818Y62503D01*
X24806Y62490D01*
X24798Y62483D01*
X24791Y62475D01*
X24786Y62473D01*
X24783Y62470D01*
X24753Y62450D01*
X24721Y62433D01*
X24656Y62405D01*
X24588Y62385D01*
X24523Y62373D01*
X24493Y62368D01*
X24468Y62363D01*
X24444Y62360D01*
X24421D01*
X24406Y62358D01*
X24381D01*
X24306Y62360D01*
X24236Y62370D01*
X24176Y62383D01*
X24126Y62398D01*
X24104Y62405D01*
X24084Y62413D01*
X24069Y62420D01*
X24054Y62425D01*
X24044Y62430D01*
X24036Y62435D01*
X24031Y62438D01*
X24029D01*
X23979Y62470D01*
X23934Y62505D01*
X23899Y62540D01*
X23869Y62575D01*
X23846Y62605D01*
X23831Y62630D01*
X23826Y62640D01*
X23821Y62648D01*
X23819Y62650D01*
Y62653D01*
X23806Y62680D01*
X23796Y62710D01*
X23786Y62745D01*
X23779Y62780D01*
X23769Y62858D01*
X23759Y62932D01*
X23756Y62967D01*
X23754Y63000D01*
Y63030D01*
X23751Y63057D01*
Y63080D01*
Y63095D01*
Y63107D01*
Y63110D01*
Y64312D01*
X23969D01*
Y64140D01*
X23999Y64175D01*
X24031Y64207D01*
X24066Y64235D01*
X24099Y64257D01*
X24134Y64277D01*
X24169Y64292D01*
X24201Y64307D01*
X24231Y64317D01*
X24261Y64325D01*
X24289Y64332D01*
X24314Y64337D01*
X24334Y64340D01*
X24351D01*
X24366Y64342D01*
X24376D01*
X24444Y64337D01*
D02*
G37*
G36*
X30592Y64847D02*
X30644Y64840D01*
X30694Y64829D01*
X30742Y64815D01*
X30784Y64797D01*
X30824Y64780D01*
X30862Y64760D01*
X30894Y64740D01*
X30922Y64717D01*
X30949Y64697D01*
X30972Y64680D01*
X30989Y64662D01*
X31004Y64647D01*
X31014Y64637D01*
X31019Y64630D01*
X31022Y64627D01*
X31057Y64577D01*
X31089Y64520D01*
X31117Y64460D01*
X31139Y64395D01*
X31159Y64327D01*
X31177Y64260D01*
X31189Y64192D01*
X31202Y64127D01*
X31209Y64065D01*
X31217Y64007D01*
X31219Y63955D01*
X31224Y63907D01*
Y63870D01*
X31227Y63855D01*
Y63842D01*
Y63832D01*
Y63825D01*
Y63820D01*
Y63817D01*
X31224Y63727D01*
X31219Y63645D01*
X31209Y63567D01*
X31197Y63495D01*
X31184Y63432D01*
X31169Y63372D01*
X31152Y63320D01*
X31134Y63272D01*
X31117Y63232D01*
X31099Y63197D01*
X31084Y63167D01*
X31072Y63145D01*
X31059Y63125D01*
X31049Y63112D01*
X31044Y63105D01*
X31042Y63102D01*
X31004Y63065D01*
X30967Y63032D01*
X30927Y63002D01*
X30887Y62977D01*
X30847Y62957D01*
X30807Y62940D01*
X30767Y62925D01*
X30729Y62915D01*
X30694Y62905D01*
X30662Y62900D01*
X30634Y62895D01*
X30609Y62890D01*
X30587D01*
X30572Y62888D01*
X30559D01*
X30497Y62890D01*
X30439Y62900D01*
X30387Y62912D01*
X30342Y62930D01*
X30305Y62945D01*
X30289Y62950D01*
X30275Y62957D01*
X30265Y62962D01*
X30257Y62967D01*
X30255Y62970D01*
X30252D01*
X30202Y63005D01*
X30160Y63042D01*
X30125Y63082D01*
X30092Y63120D01*
X30070Y63155D01*
X30052Y63182D01*
X30045Y63192D01*
X30040Y63200D01*
X30037Y63205D01*
Y63207D01*
X30010Y63267D01*
X29990Y63325D01*
X29977Y63382D01*
X29967Y63432D01*
X29962Y63477D01*
X29960Y63495D01*
X29957Y63512D01*
Y63525D01*
Y63535D01*
Y63540D01*
Y63542D01*
X29960Y63592D01*
X29965Y63640D01*
X29972Y63685D01*
X29982Y63730D01*
X29997Y63770D01*
X30010Y63805D01*
X30025Y63840D01*
X30040Y63870D01*
X30057Y63897D01*
X30072Y63922D01*
X30085Y63942D01*
X30097Y63960D01*
X30110Y63975D01*
X30117Y63985D01*
X30122Y63990D01*
X30125Y63992D01*
X30157Y64022D01*
X30190Y64050D01*
X30222Y64072D01*
X30257Y64095D01*
X30292Y64110D01*
X30324Y64125D01*
X30357Y64137D01*
X30387Y64145D01*
X30417Y64152D01*
X30442Y64157D01*
X30467Y64162D01*
X30487Y64165D01*
X30504Y64167D01*
X30527D01*
X30577Y64165D01*
X30624Y64157D01*
X30667Y64147D01*
X30707Y64135D01*
X30739Y64122D01*
X30762Y64112D01*
X30772Y64107D01*
X30779Y64105D01*
X30782Y64102D01*
X30784D01*
X30829Y64077D01*
X30869Y64045D01*
X30904Y64015D01*
X30934Y63982D01*
X30959Y63955D01*
X30977Y63932D01*
X30987Y63915D01*
X30992Y63912D01*
Y63962D01*
X30989Y64012D01*
X30984Y64060D01*
X30979Y64102D01*
X30974Y64142D01*
X30969Y64177D01*
X30964Y64212D01*
X30959Y64242D01*
X30952Y64267D01*
X30947Y64290D01*
X30942Y64310D01*
X30937Y64327D01*
X30932Y64340D01*
X30929Y64347D01*
X30927Y64352D01*
Y64355D01*
X30899Y64410D01*
X30872Y64457D01*
X30842Y64497D01*
X30814Y64530D01*
X30789Y64557D01*
X30769Y64575D01*
X30757Y64587D01*
X30752Y64590D01*
X30717Y64612D01*
X30684Y64627D01*
X30649Y64640D01*
X30619Y64647D01*
X30592Y64652D01*
X30572Y64655D01*
X30552D01*
X30502Y64650D01*
X30454Y64640D01*
X30414Y64622D01*
X30379Y64605D01*
X30352Y64587D01*
X30332Y64570D01*
X30319Y64560D01*
X30315Y64555D01*
X30295Y64527D01*
X30277Y64497D01*
X30260Y64465D01*
X30247Y64432D01*
X30237Y64402D01*
X30230Y64377D01*
X30227Y64367D01*
Y64360D01*
X30225Y64357D01*
Y64355D01*
X29990Y64372D01*
X29997Y64412D01*
X30005Y64452D01*
X30030Y64520D01*
X30045Y64552D01*
X30057Y64580D01*
X30072Y64607D01*
X30087Y64630D01*
X30102Y64652D01*
X30117Y64670D01*
X30130Y64685D01*
X30142Y64700D01*
X30152Y64710D01*
X30157Y64717D01*
X30162Y64720D01*
X30165Y64722D01*
X30192Y64745D01*
X30222Y64765D01*
X30252Y64782D01*
X30285Y64797D01*
X30347Y64820D01*
X30404Y64835D01*
X30432Y64840D01*
X30457Y64842D01*
X30479Y64844D01*
X30499Y64847D01*
X30514Y64850D01*
X30537D01*
X30592Y64847D01*
D02*
G37*
G36*
X26750Y64340D02*
X26810Y64335D01*
X26865Y64327D01*
X26910Y64317D01*
X26950Y64307D01*
X26965Y64305D01*
X26978Y64300D01*
X26988Y64297D01*
X26995Y64295D01*
X27000Y64292D01*
X27003D01*
X27050Y64272D01*
X27093Y64250D01*
X27128Y64227D01*
X27158Y64205D01*
X27180Y64182D01*
X27198Y64167D01*
X27208Y64157D01*
X27210Y64152D01*
X27235Y64117D01*
X27258Y64077D01*
X27275Y64037D01*
X27288Y64000D01*
X27300Y63967D01*
X27308Y63940D01*
X27310Y63930D01*
Y63922D01*
X27313Y63917D01*
Y63915D01*
X27083Y63882D01*
X27068Y63932D01*
X27048Y63977D01*
X27030Y64012D01*
X27010Y64040D01*
X26995Y64062D01*
X26980Y64077D01*
X26970Y64085D01*
X26968Y64087D01*
X26935Y64107D01*
X26895Y64122D01*
X26855Y64132D01*
X26813Y64140D01*
X26778Y64145D01*
X26748Y64147D01*
X26720D01*
X26658Y64145D01*
X26603Y64135D01*
X26558Y64122D01*
X26518Y64107D01*
X26488Y64092D01*
X26468Y64080D01*
X26455Y64070D01*
X26450Y64067D01*
X26428Y64042D01*
X26410Y64010D01*
X26400Y63977D01*
X26390Y63942D01*
X26385Y63912D01*
X26383Y63885D01*
Y63877D01*
Y63870D01*
Y63865D01*
Y63862D01*
Y63857D01*
Y63847D01*
Y63827D01*
X26385Y63817D01*
Y63810D01*
Y63805D01*
Y63802D01*
X26413Y63795D01*
X26443Y63785D01*
X26508Y63770D01*
X26578Y63755D01*
X26645Y63742D01*
X26678Y63737D01*
X26708Y63732D01*
X26735Y63730D01*
X26758Y63727D01*
X26778Y63722D01*
X26793D01*
X26803Y63720D01*
X26805D01*
X26855Y63712D01*
X26898Y63707D01*
X26933Y63702D01*
X26963Y63695D01*
X26985Y63692D01*
X27003Y63687D01*
X27013Y63685D01*
X27015D01*
X27050Y63675D01*
X27083Y63662D01*
X27110Y63650D01*
X27135Y63637D01*
X27155Y63625D01*
X27173Y63615D01*
X27183Y63610D01*
X27185Y63607D01*
X27213Y63587D01*
X27235Y63565D01*
X27258Y63542D01*
X27275Y63522D01*
X27288Y63502D01*
X27300Y63487D01*
X27305Y63477D01*
X27308Y63472D01*
X27323Y63440D01*
X27333Y63407D01*
X27343Y63375D01*
X27348Y63347D01*
X27350Y63322D01*
X27353Y63302D01*
Y63290D01*
Y63285D01*
X27350Y63252D01*
X27348Y63222D01*
X27333Y63167D01*
X27313Y63120D01*
X27290Y63077D01*
X27268Y63045D01*
X27250Y63020D01*
X27235Y63005D01*
X27233Y63002D01*
X27230Y63000D01*
X27205Y62980D01*
X27180Y62965D01*
X27123Y62937D01*
X27065Y62917D01*
X27008Y62905D01*
X26958Y62895D01*
X26935Y62893D01*
X26915D01*
X26900Y62890D01*
X26878D01*
X26828Y62893D01*
X26780Y62897D01*
X26735Y62905D01*
X26698Y62912D01*
X26665Y62920D01*
X26640Y62927D01*
X26633Y62930D01*
X26625Y62932D01*
X26623Y62935D01*
X26620D01*
X26575Y62955D01*
X26528Y62980D01*
X26485Y63007D01*
X26448Y63032D01*
X26413Y63057D01*
X26388Y63077D01*
X26378Y63085D01*
X26371Y63090D01*
X26368Y63095D01*
X26366D01*
X26361Y63057D01*
X26353Y63025D01*
X26348Y62995D01*
X26338Y62970D01*
X26333Y62947D01*
X26326Y62932D01*
X26323Y62922D01*
X26321Y62920D01*
X26073D01*
X26088Y62950D01*
X26101Y62980D01*
X26111Y63007D01*
X26121Y63035D01*
X26126Y63055D01*
X26131Y63072D01*
X26133Y63082D01*
Y63087D01*
X26136Y63107D01*
X26138Y63130D01*
Y63157D01*
X26141Y63190D01*
X26143Y63257D01*
Y63327D01*
X26146Y63362D01*
Y63395D01*
Y63425D01*
Y63450D01*
Y63472D01*
Y63487D01*
Y63500D01*
Y63502D01*
Y63817D01*
Y63872D01*
X26148Y63917D01*
X26151Y63955D01*
Y63985D01*
X26153Y64007D01*
X26156Y64022D01*
X26158Y64032D01*
Y64035D01*
X26168Y64070D01*
X26178Y64100D01*
X26191Y64127D01*
X26203Y64150D01*
X26216Y64167D01*
X26226Y64182D01*
X26231Y64190D01*
X26233Y64192D01*
X26256Y64215D01*
X26281Y64237D01*
X26308Y64255D01*
X26336Y64270D01*
X26361Y64282D01*
X26381Y64292D01*
X26393Y64297D01*
X26396Y64300D01*
X26398D01*
X26443Y64315D01*
X26488Y64325D01*
X26538Y64332D01*
X26583Y64337D01*
X26623Y64340D01*
X26640Y64342D01*
X26685D01*
X26750Y64340D01*
D02*
G37*
G36*
X16608D02*
X16668Y64335D01*
X16723Y64327D01*
X16768Y64317D01*
X16808Y64307D01*
X16823Y64305D01*
X16835Y64300D01*
X16845Y64297D01*
X16853Y64295D01*
X16858Y64292D01*
X16860D01*
X16908Y64272D01*
X16950Y64250D01*
X16985Y64227D01*
X17015Y64205D01*
X17038Y64182D01*
X17055Y64167D01*
X17065Y64157D01*
X17068Y64152D01*
X17093Y64117D01*
X17115Y64077D01*
X17133Y64037D01*
X17145Y64000D01*
X17158Y63967D01*
X17165Y63940D01*
X17168Y63930D01*
Y63922D01*
X17170Y63917D01*
Y63915D01*
X16940Y63882D01*
X16925Y63932D01*
X16905Y63977D01*
X16888Y64012D01*
X16868Y64040D01*
X16853Y64062D01*
X16838Y64077D01*
X16828Y64085D01*
X16825Y64087D01*
X16793Y64107D01*
X16753Y64122D01*
X16713Y64132D01*
X16670Y64140D01*
X16635Y64145D01*
X16606Y64147D01*
X16578D01*
X16516Y64145D01*
X16461Y64135D01*
X16416Y64122D01*
X16376Y64107D01*
X16346Y64092D01*
X16326Y64080D01*
X16313Y64070D01*
X16308Y64067D01*
X16286Y64042D01*
X16268Y64010D01*
X16258Y63977D01*
X16248Y63942D01*
X16243Y63912D01*
X16241Y63885D01*
Y63877D01*
Y63870D01*
Y63865D01*
Y63862D01*
Y63857D01*
Y63847D01*
Y63827D01*
X16243Y63817D01*
Y63810D01*
Y63805D01*
Y63802D01*
X16271Y63795D01*
X16301Y63785D01*
X16366Y63770D01*
X16436Y63755D01*
X16503Y63742D01*
X16536Y63737D01*
X16566Y63732D01*
X16593Y63730D01*
X16615Y63727D01*
X16635Y63722D01*
X16650D01*
X16660Y63720D01*
X16663D01*
X16713Y63712D01*
X16755Y63707D01*
X16790Y63702D01*
X16820Y63695D01*
X16843Y63692D01*
X16860Y63687D01*
X16870Y63685D01*
X16873D01*
X16908Y63675D01*
X16940Y63662D01*
X16968Y63650D01*
X16993Y63637D01*
X17013Y63625D01*
X17030Y63615D01*
X17040Y63610D01*
X17043Y63607D01*
X17070Y63587D01*
X17093Y63565D01*
X17115Y63542D01*
X17133Y63522D01*
X17145Y63502D01*
X17158Y63487D01*
X17163Y63477D01*
X17165Y63472D01*
X17180Y63440D01*
X17190Y63407D01*
X17200Y63375D01*
X17205Y63347D01*
X17208Y63322D01*
X17210Y63302D01*
Y63290D01*
Y63285D01*
X17208Y63252D01*
X17205Y63222D01*
X17190Y63167D01*
X17170Y63120D01*
X17148Y63077D01*
X17125Y63045D01*
X17108Y63020D01*
X17093Y63005D01*
X17090Y63002D01*
X17088Y63000D01*
X17063Y62980D01*
X17038Y62965D01*
X16980Y62937D01*
X16923Y62917D01*
X16865Y62905D01*
X16815Y62895D01*
X16793Y62893D01*
X16773D01*
X16758Y62890D01*
X16735D01*
X16685Y62893D01*
X16638Y62897D01*
X16593Y62905D01*
X16556Y62912D01*
X16523Y62920D01*
X16498Y62927D01*
X16491Y62930D01*
X16483Y62932D01*
X16481Y62935D01*
X16478D01*
X16433Y62955D01*
X16386Y62980D01*
X16343Y63007D01*
X16306Y63032D01*
X16271Y63057D01*
X16246Y63077D01*
X16236Y63085D01*
X16228Y63090D01*
X16226Y63095D01*
X16223D01*
X16218Y63057D01*
X16211Y63025D01*
X16206Y62995D01*
X16196Y62970D01*
X16191Y62947D01*
X16183Y62932D01*
X16181Y62922D01*
X16178Y62920D01*
X15931D01*
X15946Y62950D01*
X15958Y62980D01*
X15968Y63007D01*
X15978Y63035D01*
X15983Y63055D01*
X15988Y63072D01*
X15991Y63082D01*
Y63087D01*
X15993Y63107D01*
X15996Y63130D01*
Y63157D01*
X15998Y63190D01*
X16001Y63257D01*
Y63327D01*
X16003Y63362D01*
Y63395D01*
Y63425D01*
Y63450D01*
Y63472D01*
Y63487D01*
Y63500D01*
Y63502D01*
Y63817D01*
Y63872D01*
X16006Y63917D01*
X16008Y63955D01*
Y63985D01*
X16011Y64007D01*
X16013Y64022D01*
X16016Y64032D01*
Y64035D01*
X16026Y64070D01*
X16036Y64100D01*
X16048Y64127D01*
X16061Y64150D01*
X16073Y64167D01*
X16083Y64182D01*
X16088Y64190D01*
X16091Y64192D01*
X16113Y64215D01*
X16138Y64237D01*
X16166Y64255D01*
X16193Y64270D01*
X16218Y64282D01*
X16238Y64292D01*
X16251Y64297D01*
X16253Y64300D01*
X16256D01*
X16301Y64315D01*
X16346Y64325D01*
X16396Y64332D01*
X16441Y64337D01*
X16481Y64340D01*
X16498Y64342D01*
X16543D01*
X16608Y64340D01*
D02*
G37*
G36*
X21862Y64655D02*
Y64312D01*
X22037D01*
Y64130D01*
X21862D01*
Y63327D01*
Y63290D01*
X21859Y63255D01*
Y63222D01*
X21857Y63195D01*
X21854Y63167D01*
X21852Y63145D01*
X21849Y63125D01*
X21847Y63107D01*
X21842Y63080D01*
X21839Y63062D01*
X21834Y63050D01*
Y63047D01*
X21822Y63025D01*
X21807Y63005D01*
X21789Y62985D01*
X21772Y62970D01*
X21757Y62957D01*
X21747Y62950D01*
X21737Y62945D01*
X21734Y62942D01*
X21707Y62930D01*
X21674Y62920D01*
X21642Y62912D01*
X21609Y62907D01*
X21582Y62905D01*
X21557Y62903D01*
X21537D01*
X21474Y62905D01*
X21444Y62910D01*
X21417Y62912D01*
X21392Y62917D01*
X21374Y62920D01*
X21362Y62922D01*
X21357D01*
X21389Y63130D01*
X21412Y63127D01*
X21432Y63125D01*
X21452D01*
X21467Y63122D01*
X21494D01*
X21529Y63125D01*
X21554Y63130D01*
X21564Y63132D01*
X21572Y63135D01*
X21574Y63137D01*
X21577D01*
X21594Y63152D01*
X21607Y63167D01*
X21614Y63177D01*
X21617Y63182D01*
X21619Y63197D01*
X21622Y63215D01*
X21624Y63237D01*
Y63260D01*
X21627Y63280D01*
Y63297D01*
Y63310D01*
Y63315D01*
Y64130D01*
X21389D01*
Y64312D01*
X21627D01*
Y64797D01*
X21862Y64655D01*
D02*
G37*
G36*
X32319Y64869D02*
X32406Y64857D01*
X32486Y64837D01*
X32521Y64827D01*
X32556Y64817D01*
X32586Y64805D01*
X32614Y64795D01*
X32636Y64785D01*
X32656Y64775D01*
X32671Y64767D01*
X32684Y64762D01*
X32691Y64760D01*
X32694Y64757D01*
X32731Y64735D01*
X32769Y64710D01*
X32834Y64655D01*
X32891Y64600D01*
X32936Y64545D01*
X32956Y64517D01*
X32974Y64495D01*
X32989Y64472D01*
X32999Y64455D01*
X33009Y64440D01*
X33016Y64427D01*
X33019Y64420D01*
X33021Y64417D01*
X33041Y64375D01*
X33059Y64330D01*
X33086Y64242D01*
X33106Y64155D01*
X33114Y64112D01*
X33119Y64072D01*
X33124Y64035D01*
X33129Y64002D01*
X33131Y63972D01*
Y63945D01*
X33134Y63925D01*
Y63907D01*
Y63897D01*
Y63895D01*
X33129Y63795D01*
X33119Y63697D01*
X33111Y63655D01*
X33101Y63612D01*
X33094Y63572D01*
X33084Y63535D01*
X33074Y63500D01*
X33066Y63470D01*
X33056Y63445D01*
X33049Y63422D01*
X33044Y63405D01*
X33039Y63390D01*
X33034Y63382D01*
Y63380D01*
X33014Y63337D01*
X32991Y63295D01*
X32969Y63257D01*
X32944Y63222D01*
X32919Y63187D01*
X32894Y63157D01*
X32871Y63130D01*
X32846Y63107D01*
X32824Y63085D01*
X32804Y63065D01*
X32784Y63050D01*
X32769Y63037D01*
X32754Y63025D01*
X32744Y63017D01*
X32739Y63015D01*
X32736Y63012D01*
X32699Y62990D01*
X32659Y62972D01*
X32616Y62955D01*
X32574Y62940D01*
X32489Y62917D01*
X32409Y62903D01*
X32371Y62897D01*
X32339Y62895D01*
X32306Y62893D01*
X32281Y62890D01*
X32259Y62888D01*
X32229D01*
X32174Y62890D01*
X32122Y62895D01*
X32072Y62903D01*
X32024Y62912D01*
X31979Y62925D01*
X31937Y62940D01*
X31899Y62952D01*
X31862Y62970D01*
X31832Y62985D01*
X31804Y62997D01*
X31779Y63012D01*
X31759Y63025D01*
X31742Y63035D01*
X31732Y63042D01*
X31724Y63047D01*
X31722Y63050D01*
X31684Y63082D01*
X31649Y63117D01*
X31617Y63155D01*
X31589Y63195D01*
X31562Y63235D01*
X31539Y63272D01*
X31517Y63312D01*
X31499Y63350D01*
X31482Y63387D01*
X31469Y63420D01*
X31457Y63450D01*
X31447Y63475D01*
X31442Y63497D01*
X31437Y63515D01*
X31432Y63525D01*
Y63527D01*
X31687Y63592D01*
X31699Y63547D01*
X31712Y63507D01*
X31727Y63470D01*
X31742Y63432D01*
X31759Y63400D01*
X31774Y63370D01*
X31792Y63342D01*
X31809Y63320D01*
X31824Y63297D01*
X31839Y63280D01*
X31854Y63262D01*
X31864Y63250D01*
X31874Y63240D01*
X31882Y63232D01*
X31887Y63230D01*
X31889Y63227D01*
X31917Y63205D01*
X31947Y63187D01*
X31977Y63170D01*
X32009Y63157D01*
X32069Y63135D01*
X32127Y63120D01*
X32152Y63115D01*
X32177Y63112D01*
X32197Y63110D01*
X32217Y63107D01*
X32232Y63105D01*
X32251D01*
X32316Y63110D01*
X32376Y63120D01*
X32431Y63132D01*
X32481Y63150D01*
X32521Y63167D01*
X32539Y63175D01*
X32551Y63180D01*
X32564Y63187D01*
X32571Y63190D01*
X32576Y63195D01*
X32579D01*
X32631Y63232D01*
X32676Y63275D01*
X32714Y63320D01*
X32746Y63365D01*
X32771Y63405D01*
X32779Y63422D01*
X32786Y63437D01*
X32794Y63450D01*
X32799Y63460D01*
X32801Y63465D01*
Y63467D01*
X32824Y63537D01*
X32841Y63612D01*
X32854Y63682D01*
X32861Y63750D01*
X32866Y63780D01*
Y63807D01*
X32869Y63832D01*
X32871Y63855D01*
Y63872D01*
Y63885D01*
Y63892D01*
Y63895D01*
X32869Y63965D01*
X32861Y64032D01*
X32851Y64095D01*
X32841Y64152D01*
X32836Y64175D01*
X32831Y64197D01*
X32826Y64217D01*
X32821Y64235D01*
X32816Y64247D01*
X32814Y64257D01*
X32811Y64262D01*
Y64265D01*
X32786Y64330D01*
X32754Y64385D01*
X32719Y64435D01*
X32684Y64475D01*
X32654Y64507D01*
X32629Y64530D01*
X32619Y64540D01*
X32611Y64545D01*
X32606Y64550D01*
X32604D01*
X32574Y64570D01*
X32544Y64585D01*
X32481Y64612D01*
X32419Y64632D01*
X32361Y64645D01*
X32334Y64647D01*
X32309Y64652D01*
X32286Y64655D01*
X32269D01*
X32254Y64657D01*
X32232D01*
X32162Y64652D01*
X32099Y64642D01*
X32044Y64627D01*
X31997Y64610D01*
X31959Y64590D01*
X31944Y64582D01*
X31932Y64575D01*
X31922Y64570D01*
X31914Y64565D01*
X31912Y64560D01*
X31909D01*
X31887Y64540D01*
X31864Y64520D01*
X31824Y64472D01*
X31792Y64422D01*
X31764Y64372D01*
X31742Y64327D01*
X31734Y64307D01*
X31727Y64290D01*
X31722Y64275D01*
X31717Y64265D01*
X31714Y64257D01*
Y64255D01*
X31464Y64315D01*
X31479Y64362D01*
X31499Y64410D01*
X31519Y64452D01*
X31542Y64492D01*
X31564Y64527D01*
X31587Y64562D01*
X31609Y64592D01*
X31632Y64620D01*
X31654Y64645D01*
X31674Y64667D01*
X31694Y64685D01*
X31709Y64700D01*
X31722Y64712D01*
X31734Y64720D01*
X31739Y64725D01*
X31742Y64727D01*
X31779Y64752D01*
X31819Y64777D01*
X31859Y64795D01*
X31899Y64812D01*
X31942Y64827D01*
X31982Y64840D01*
X32057Y64857D01*
X32092Y64862D01*
X32124Y64867D01*
X32154Y64869D01*
X32179Y64872D01*
X32199Y64874D01*
X32274D01*
X32319Y64869D01*
D02*
G37*
G36*
X22879Y64340D02*
X22929Y64335D01*
X22976Y64325D01*
X23021Y64312D01*
X23061Y64297D01*
X23101Y64280D01*
X23136Y64262D01*
X23169Y64245D01*
X23196Y64227D01*
X23221Y64210D01*
X23244Y64192D01*
X23261Y64177D01*
X23276Y64165D01*
X23286Y64155D01*
X23291Y64150D01*
X23294Y64147D01*
X23326Y64110D01*
X23354Y64070D01*
X23376Y64025D01*
X23399Y63980D01*
X23416Y63935D01*
X23429Y63890D01*
X23441Y63845D01*
X23451Y63802D01*
X23459Y63762D01*
X23464Y63725D01*
X23469Y63690D01*
X23471Y63660D01*
Y63637D01*
X23474Y63617D01*
Y63607D01*
Y63602D01*
X23471Y63540D01*
X23466Y63482D01*
X23456Y63430D01*
X23446Y63377D01*
X23434Y63332D01*
X23419Y63287D01*
X23401Y63250D01*
X23384Y63212D01*
X23369Y63182D01*
X23351Y63155D01*
X23336Y63132D01*
X23324Y63112D01*
X23314Y63097D01*
X23304Y63087D01*
X23299Y63080D01*
X23296Y63077D01*
X23261Y63045D01*
X23224Y63015D01*
X23184Y62990D01*
X23144Y62970D01*
X23104Y62950D01*
X23064Y62935D01*
X23024Y62922D01*
X22986Y62912D01*
X22951Y62905D01*
X22916Y62900D01*
X22886Y62895D01*
X22861Y62893D01*
X22841D01*
X22824Y62890D01*
X22811D01*
X22766Y62893D01*
X22724Y62895D01*
X22646Y62907D01*
X22611Y62917D01*
X22579Y62927D01*
X22549Y62937D01*
X22521Y62950D01*
X22497Y62960D01*
X22476Y62970D01*
X22457Y62980D01*
X22442Y62990D01*
X22429Y62997D01*
X22422Y63002D01*
X22417Y63007D01*
X22414D01*
X22362Y63055D01*
X22317Y63110D01*
X22279Y63165D01*
X22249Y63217D01*
X22229Y63265D01*
X22219Y63287D01*
X22214Y63305D01*
X22207Y63320D01*
X22204Y63330D01*
X22202Y63337D01*
Y63340D01*
X22447Y63372D01*
X22467Y63320D01*
X22492Y63275D01*
X22516Y63235D01*
X22539Y63205D01*
X22559Y63182D01*
X22576Y63165D01*
X22586Y63155D01*
X22591Y63152D01*
X22626Y63130D01*
X22664Y63112D01*
X22701Y63102D01*
X22734Y63092D01*
X22766Y63087D01*
X22789Y63085D01*
X22811D01*
X22844Y63087D01*
X22874Y63090D01*
X22931Y63105D01*
X22981Y63122D01*
X23024Y63145D01*
X23056Y63167D01*
X23084Y63187D01*
X23091Y63195D01*
X23099Y63200D01*
X23101Y63202D01*
X23104Y63205D01*
X23124Y63230D01*
X23141Y63255D01*
X23171Y63310D01*
X23194Y63367D01*
X23211Y63425D01*
X23221Y63475D01*
X23224Y63497D01*
X23226Y63517D01*
X23229Y63532D01*
X23231Y63545D01*
Y63552D01*
Y63555D01*
X22194D01*
X22192Y63582D01*
Y63602D01*
Y63612D01*
Y63617D01*
X22194Y63680D01*
X22199Y63740D01*
X22209Y63795D01*
X22219Y63847D01*
X22232Y63895D01*
X22247Y63937D01*
X22264Y63977D01*
X22279Y64015D01*
X22297Y64047D01*
X22314Y64075D01*
X22329Y64097D01*
X22342Y64117D01*
X22352Y64132D01*
X22362Y64142D01*
X22367Y64150D01*
X22369Y64152D01*
X22404Y64185D01*
X22439Y64215D01*
X22476Y64240D01*
X22516Y64262D01*
X22554Y64280D01*
X22591Y64295D01*
X22629Y64310D01*
X22664Y64320D01*
X22696Y64327D01*
X22729Y64332D01*
X22756Y64337D01*
X22779Y64340D01*
X22799Y64342D01*
X22826D01*
X22879Y64340D01*
D02*
G37*
G36*
X38130Y62920D02*
X37875D01*
Y63700D01*
X37385D01*
X37313Y63702D01*
X37245Y63707D01*
X37183Y63715D01*
X37125Y63727D01*
X37075Y63740D01*
X37028Y63755D01*
X36988Y63770D01*
X36950Y63785D01*
X36920Y63800D01*
X36893Y63817D01*
X36870Y63830D01*
X36853Y63842D01*
X36840Y63855D01*
X36830Y63862D01*
X36825Y63867D01*
X36823Y63870D01*
X36795Y63902D01*
X36770Y63937D01*
X36750Y63972D01*
X36733Y64007D01*
X36715Y64042D01*
X36703Y64075D01*
X36685Y64142D01*
X36678Y64170D01*
X36673Y64197D01*
X36670Y64222D01*
X36668Y64245D01*
X36665Y64262D01*
Y64275D01*
Y64282D01*
Y64285D01*
X36668Y64337D01*
X36675Y64385D01*
X36685Y64430D01*
X36695Y64470D01*
X36705Y64502D01*
X36715Y64527D01*
X36720Y64535D01*
X36723Y64542D01*
X36725Y64545D01*
Y64547D01*
X36748Y64590D01*
X36773Y64627D01*
X36800Y64660D01*
X36825Y64685D01*
X36845Y64705D01*
X36865Y64720D01*
X36875Y64730D01*
X36880Y64732D01*
X36918Y64755D01*
X36958Y64775D01*
X36995Y64790D01*
X37033Y64802D01*
X37065Y64812D01*
X37093Y64817D01*
X37103Y64820D01*
X37108Y64822D01*
X37115D01*
X37155Y64829D01*
X37203Y64835D01*
X37253Y64837D01*
X37298Y64840D01*
X37340Y64842D01*
X38130D01*
Y62920D01*
D02*
G37*
G36*
X29027Y64615D02*
X28395D01*
Y62920D01*
X28140D01*
Y64615D01*
X27508D01*
Y64842D01*
X29027D01*
Y64615D01*
D02*
G37*
G36*
X25301Y64340D02*
X25328Y64335D01*
X25356Y64327D01*
X25378Y64320D01*
X25396Y64310D01*
X25411Y64302D01*
X25421Y64297D01*
X25423Y64295D01*
X25448Y64272D01*
X25476Y64245D01*
X25501Y64212D01*
X25523Y64177D01*
X25541Y64147D01*
X25558Y64122D01*
X25563Y64112D01*
X25568Y64105D01*
X25571Y64100D01*
Y64312D01*
X25783D01*
Y62920D01*
X25548D01*
Y63645D01*
X25546Y63700D01*
X25543Y63752D01*
X25536Y63797D01*
X25528Y63840D01*
X25523Y63872D01*
X25516Y63897D01*
X25513Y63907D01*
Y63915D01*
X25511Y63917D01*
Y63920D01*
X25498Y63950D01*
X25486Y63975D01*
X25471Y63997D01*
X25456Y64015D01*
X25443Y64030D01*
X25433Y64042D01*
X25426Y64047D01*
X25423Y64050D01*
X25398Y64065D01*
X25376Y64077D01*
X25351Y64085D01*
X25331Y64092D01*
X25311Y64095D01*
X25296Y64097D01*
X25283D01*
X25251Y64095D01*
X25218Y64090D01*
X25188Y64082D01*
X25163Y64072D01*
X25141Y64062D01*
X25123Y64055D01*
X25113Y64050D01*
X25108Y64047D01*
X25026Y64265D01*
X25073Y64290D01*
X25116Y64310D01*
X25158Y64322D01*
X25196Y64332D01*
X25226Y64337D01*
X25251Y64342D01*
X25271D01*
X25301Y64340D01*
D02*
G37*
G36*
X20392Y62920D02*
X19662D01*
X19595Y62922D01*
X19535Y62925D01*
X19482Y62930D01*
X19437Y62935D01*
X19402Y62940D01*
X19387Y62942D01*
X19375Y62945D01*
X19365Y62947D01*
X19357Y62950D01*
X19352D01*
X19307Y62962D01*
X19265Y62977D01*
X19230Y62995D01*
X19200Y63010D01*
X19175Y63022D01*
X19157Y63035D01*
X19145Y63042D01*
X19142Y63045D01*
X19112Y63072D01*
X19085Y63100D01*
X19060Y63130D01*
X19040Y63160D01*
X19022Y63185D01*
X19010Y63205D01*
X19002Y63220D01*
X19000Y63225D01*
X18980Y63270D01*
X18967Y63312D01*
X18957Y63355D01*
X18950Y63392D01*
X18945Y63427D01*
X18942Y63452D01*
Y63462D01*
Y63470D01*
Y63472D01*
Y63475D01*
X18947Y63535D01*
X18957Y63590D01*
X18972Y63640D01*
X18990Y63682D01*
X19007Y63717D01*
X19022Y63742D01*
X19027Y63752D01*
X19032Y63760D01*
X19037Y63762D01*
Y63765D01*
X19075Y63807D01*
X19117Y63845D01*
X19162Y63875D01*
X19205Y63900D01*
X19245Y63920D01*
X19262Y63927D01*
X19275Y63932D01*
X19287Y63937D01*
X19297Y63940D01*
X19302Y63942D01*
X19305D01*
X19257Y63967D01*
X19217Y63997D01*
X19182Y64025D01*
X19152Y64052D01*
X19130Y64077D01*
X19115Y64097D01*
X19105Y64110D01*
X19102Y64115D01*
X19080Y64157D01*
X19062Y64197D01*
X19052Y64237D01*
X19042Y64275D01*
X19037Y64305D01*
X19035Y64330D01*
Y64337D01*
Y64345D01*
Y64347D01*
Y64350D01*
X19037Y64400D01*
X19047Y64445D01*
X19060Y64487D01*
X19072Y64525D01*
X19087Y64557D01*
X19100Y64582D01*
X19110Y64597D01*
X19112Y64600D01*
Y64602D01*
X19142Y64645D01*
X19177Y64682D01*
X19210Y64712D01*
X19245Y64737D01*
X19275Y64757D01*
X19297Y64772D01*
X19307Y64777D01*
X19315Y64780D01*
X19317Y64782D01*
X19320D01*
X19372Y64802D01*
X19430Y64817D01*
X19490Y64827D01*
X19545Y64835D01*
X19595Y64840D01*
X19617D01*
X19635Y64842D01*
X20392D01*
Y62920D01*
D02*
G37*
G36*
X15158Y64340D02*
X15186Y64335D01*
X15213Y64327D01*
X15236Y64320D01*
X15253Y64310D01*
X15268Y64302D01*
X15278Y64297D01*
X15281Y64295D01*
X15306Y64272D01*
X15333Y64245D01*
X15358Y64212D01*
X15381Y64177D01*
X15398Y64147D01*
X15416Y64122D01*
X15421Y64112D01*
X15426Y64105D01*
X15428Y64100D01*
Y64312D01*
X15641D01*
Y62920D01*
X15406D01*
Y63645D01*
X15403Y63700D01*
X15401Y63752D01*
X15393Y63797D01*
X15386Y63840D01*
X15381Y63872D01*
X15373Y63897D01*
X15371Y63907D01*
Y63915D01*
X15368Y63917D01*
Y63920D01*
X15356Y63950D01*
X15343Y63975D01*
X15328Y63997D01*
X15313Y64015D01*
X15301Y64030D01*
X15291Y64042D01*
X15283Y64047D01*
X15281Y64050D01*
X15256Y64065D01*
X15233Y64077D01*
X15208Y64085D01*
X15188Y64092D01*
X15168Y64095D01*
X15153Y64097D01*
X15141D01*
X15108Y64095D01*
X15076Y64090D01*
X15046Y64082D01*
X15021Y64072D01*
X14998Y64062D01*
X14981Y64055D01*
X14971Y64050D01*
X14966Y64047D01*
X14883Y64265D01*
X14931Y64290D01*
X14973Y64310D01*
X15016Y64322D01*
X15053Y64332D01*
X15083Y64337D01*
X15108Y64342D01*
X15128D01*
X15158Y64340D01*
D02*
G37*
G36*
X34066Y64340D02*
X34111Y64335D01*
X34154Y64327D01*
X34196Y64317D01*
X34233Y64307D01*
X34271Y64292D01*
X34303Y64280D01*
X34333Y64265D01*
X34361Y64250D01*
X34386Y64237D01*
X34406Y64222D01*
X34423Y64212D01*
X34438Y64202D01*
X34448Y64195D01*
X34453Y64190D01*
X34456Y64187D01*
X34493Y64150D01*
X34526Y64110D01*
X34553Y64065D01*
X34578Y64020D01*
X34598Y63972D01*
X34616Y63925D01*
X34631Y63877D01*
X34641Y63830D01*
X34651Y63787D01*
X34656Y63747D01*
X34661Y63710D01*
X34666Y63677D01*
Y63652D01*
X34668Y63632D01*
Y63620D01*
Y63615D01*
X34666Y63550D01*
X34661Y63490D01*
X34651Y63435D01*
X34641Y63382D01*
X34626Y63332D01*
X34611Y63290D01*
X34596Y63250D01*
X34578Y63212D01*
X34561Y63180D01*
X34546Y63152D01*
X34531Y63130D01*
X34516Y63110D01*
X34506Y63095D01*
X34496Y63085D01*
X34491Y63077D01*
X34488Y63075D01*
X34453Y63042D01*
X34416Y63015D01*
X34378Y62990D01*
X34338Y62967D01*
X34298Y62950D01*
X34261Y62935D01*
X34223Y62922D01*
X34186Y62912D01*
X34151Y62905D01*
X34119Y62900D01*
X34091Y62895D01*
X34066Y62893D01*
X34046D01*
X34031Y62890D01*
X34019D01*
X33951Y62893D01*
X33889Y62903D01*
X33831Y62917D01*
X33784Y62932D01*
X33741Y62947D01*
X33724Y62955D01*
X33711Y62962D01*
X33699Y62967D01*
X33691Y62972D01*
X33686Y62975D01*
X33684D01*
X33629Y63010D01*
X33581Y63047D01*
X33541Y63087D01*
X33509Y63125D01*
X33481Y63160D01*
X33464Y63187D01*
X33456Y63197D01*
X33451Y63205D01*
X33449Y63210D01*
Y63212D01*
X33434Y63242D01*
X33421Y63275D01*
X33401Y63345D01*
X33386Y63415D01*
X33376Y63482D01*
X33374Y63512D01*
X33371Y63542D01*
X33369Y63567D01*
X33366Y63590D01*
Y63610D01*
Y63622D01*
Y63632D01*
Y63635D01*
X33369Y63695D01*
X33374Y63752D01*
X33384Y63805D01*
X33394Y63855D01*
X33409Y63902D01*
X33424Y63945D01*
X33441Y63982D01*
X33456Y64017D01*
X33474Y64047D01*
X33491Y64075D01*
X33506Y64100D01*
X33521Y64117D01*
X33531Y64132D01*
X33541Y64145D01*
X33546Y64150D01*
X33549Y64152D01*
X33584Y64185D01*
X33621Y64215D01*
X33659Y64240D01*
X33699Y64262D01*
X33739Y64280D01*
X33779Y64295D01*
X33816Y64310D01*
X33851Y64320D01*
X33886Y64327D01*
X33919Y64332D01*
X33946Y64337D01*
X33971Y64340D01*
X33991Y64342D01*
X34019D01*
X34066Y64340D01*
D02*
G37*
G36*
X18108Y64340D02*
X18153Y64335D01*
X18195Y64327D01*
X18238Y64317D01*
X18275Y64307D01*
X18313Y64292D01*
X18345Y64280D01*
X18375Y64265D01*
X18403Y64250D01*
X18428Y64237D01*
X18448Y64222D01*
X18465Y64212D01*
X18480Y64202D01*
X18490Y64195D01*
X18495Y64190D01*
X18498Y64187D01*
X18535Y64150D01*
X18567Y64110D01*
X18595Y64065D01*
X18620Y64020D01*
X18640Y63972D01*
X18657Y63925D01*
X18672Y63877D01*
X18682Y63830D01*
X18692Y63787D01*
X18697Y63747D01*
X18702Y63710D01*
X18707Y63677D01*
Y63652D01*
X18710Y63632D01*
Y63620D01*
Y63615D01*
X18707Y63550D01*
X18702Y63490D01*
X18692Y63435D01*
X18682Y63382D01*
X18667Y63332D01*
X18652Y63290D01*
X18637Y63250D01*
X18620Y63212D01*
X18603Y63180D01*
X18587Y63152D01*
X18573Y63130D01*
X18558Y63110D01*
X18548Y63095D01*
X18538Y63085D01*
X18533Y63077D01*
X18530Y63075D01*
X18495Y63042D01*
X18458Y63015D01*
X18420Y62990D01*
X18380Y62967D01*
X18340Y62950D01*
X18303Y62935D01*
X18265Y62922D01*
X18228Y62912D01*
X18193Y62905D01*
X18160Y62900D01*
X18133Y62895D01*
X18108Y62893D01*
X18088D01*
X18073Y62890D01*
X18060D01*
X17993Y62893D01*
X17930Y62903D01*
X17873Y62917D01*
X17825Y62932D01*
X17783Y62947D01*
X17765Y62955D01*
X17753Y62962D01*
X17740Y62967D01*
X17733Y62972D01*
X17728Y62975D01*
X17725D01*
X17670Y63010D01*
X17623Y63047D01*
X17583Y63087D01*
X17550Y63125D01*
X17523Y63160D01*
X17505Y63187D01*
X17498Y63197D01*
X17493Y63205D01*
X17490Y63210D01*
Y63212D01*
X17475Y63242D01*
X17463Y63275D01*
X17443Y63345D01*
X17428Y63415D01*
X17418Y63482D01*
X17415Y63512D01*
X17413Y63542D01*
X17410Y63567D01*
X17408Y63590D01*
Y63610D01*
Y63622D01*
Y63632D01*
Y63635D01*
X17410Y63695D01*
X17415Y63752D01*
X17425Y63805D01*
X17435Y63855D01*
X17450Y63902D01*
X17465Y63945D01*
X17483Y63982D01*
X17498Y64017D01*
X17515Y64047D01*
X17533Y64075D01*
X17548Y64100D01*
X17563Y64117D01*
X17573Y64132D01*
X17583Y64145D01*
X17588Y64150D01*
X17590Y64152D01*
X17625Y64185D01*
X17663Y64215D01*
X17700Y64240D01*
X17740Y64262D01*
X17780Y64280D01*
X17820Y64295D01*
X17858Y64310D01*
X17893Y64320D01*
X17928Y64327D01*
X17960Y64332D01*
X17988Y64337D01*
X18013Y64340D01*
X18033Y64342D01*
X18060D01*
X18108Y64340D01*
D02*
G37*
G36*
X13859Y64150D02*
X13884Y64180D01*
X13911Y64207D01*
X13939Y64230D01*
X13964Y64250D01*
X13986Y64267D01*
X14004Y64277D01*
X14016Y64285D01*
X14021Y64287D01*
X14059Y64305D01*
X14096Y64320D01*
X14134Y64330D01*
X14169Y64335D01*
X14199Y64340D01*
X14224Y64342D01*
X14244D01*
X14306Y64337D01*
X14366Y64327D01*
X14419Y64312D01*
X14464Y64297D01*
X14504Y64280D01*
X14519Y64272D01*
X14531Y64265D01*
X14541Y64257D01*
X14549Y64255D01*
X14554Y64250D01*
X14556D01*
X14604Y64212D01*
X14646Y64172D01*
X14681Y64127D01*
X14711Y64087D01*
X14733Y64047D01*
X14743Y64032D01*
X14751Y64017D01*
X14756Y64007D01*
X14761Y63997D01*
X14763Y63992D01*
Y63990D01*
X14786Y63925D01*
X14803Y63860D01*
X14813Y63797D01*
X14823Y63737D01*
X14826Y63712D01*
X14828Y63687D01*
Y63667D01*
X14831Y63647D01*
Y63632D01*
Y63622D01*
Y63615D01*
Y63612D01*
X14828Y63535D01*
X14818Y63465D01*
X14806Y63400D01*
X14793Y63345D01*
X14786Y63320D01*
X14778Y63297D01*
X14773Y63280D01*
X14768Y63265D01*
X14763Y63252D01*
X14758Y63242D01*
X14756Y63237D01*
Y63235D01*
X14723Y63177D01*
X14689Y63127D01*
X14654Y63082D01*
X14619Y63047D01*
X14589Y63017D01*
X14564Y62997D01*
X14554Y62990D01*
X14546Y62985D01*
X14544Y62980D01*
X14541D01*
X14489Y62950D01*
X14434Y62927D01*
X14381Y62912D01*
X14334Y62902D01*
X14294Y62895D01*
X14276Y62893D01*
X14261D01*
X14251Y62890D01*
X14234D01*
X14186Y62893D01*
X14144Y62900D01*
X14101Y62910D01*
X14064Y62922D01*
X14029Y62937D01*
X13996Y62955D01*
X13969Y62975D01*
X13941Y62995D01*
X13919Y63012D01*
X13899Y63032D01*
X13881Y63050D01*
X13869Y63065D01*
X13859Y63077D01*
X13849Y63087D01*
X13846Y63095D01*
X13844Y63097D01*
Y62920D01*
X13624D01*
Y64842D01*
X13859D01*
Y64150D01*
D02*
G37*
G36*
X35748Y64872D02*
X35816Y64865D01*
X35876Y64852D01*
X35928Y64842D01*
X35951Y64835D01*
X35971Y64829D01*
X35988Y64822D01*
X36003Y64817D01*
X36016Y64815D01*
X36023Y64810D01*
X36028Y64807D01*
X36031D01*
X36086Y64780D01*
X36136Y64750D01*
X36175Y64717D01*
X36210Y64687D01*
X36235Y64660D01*
X36255Y64635D01*
X36265Y64620D01*
X36270Y64617D01*
Y64615D01*
X36298Y64567D01*
X36318Y64520D01*
X36333Y64475D01*
X36343Y64432D01*
X36348Y64395D01*
X36350Y64367D01*
X36353Y64357D01*
Y64350D01*
Y64345D01*
Y64342D01*
X36350Y64295D01*
X36343Y64250D01*
X36333Y64207D01*
X36320Y64172D01*
X36308Y64142D01*
X36298Y64122D01*
X36290Y64107D01*
X36288Y64105D01*
Y64102D01*
X36260Y64065D01*
X36228Y64030D01*
X36193Y64000D01*
X36160Y63975D01*
X36131Y63952D01*
X36106Y63937D01*
X36096Y63932D01*
X36088Y63927D01*
X36086Y63925D01*
X36083D01*
X36061Y63915D01*
X36036Y63902D01*
X35981Y63882D01*
X35918Y63860D01*
X35858Y63842D01*
X35801Y63825D01*
X35778Y63820D01*
X35756Y63812D01*
X35738Y63810D01*
X35726Y63805D01*
X35716Y63802D01*
X35713D01*
X35666Y63790D01*
X35623Y63780D01*
X35583Y63770D01*
X35548Y63762D01*
X35516Y63752D01*
X35488Y63745D01*
X35463Y63740D01*
X35443Y63732D01*
X35423Y63727D01*
X35408Y63722D01*
X35396Y63720D01*
X35386Y63715D01*
X35376Y63712D01*
X35371Y63710D01*
X35328Y63692D01*
X35293Y63672D01*
X35263Y63655D01*
X35238Y63637D01*
X35221Y63622D01*
X35208Y63610D01*
X35201Y63600D01*
X35198Y63597D01*
X35181Y63572D01*
X35166Y63545D01*
X35156Y63517D01*
X35151Y63492D01*
X35146Y63472D01*
X35143Y63455D01*
Y63445D01*
Y63440D01*
X35146Y63407D01*
X35151Y63377D01*
X35161Y63350D01*
X35171Y63325D01*
X35181Y63305D01*
X35191Y63287D01*
X35196Y63277D01*
X35198Y63275D01*
X35221Y63247D01*
X35248Y63225D01*
X35276Y63205D01*
X35303Y63187D01*
X35328Y63175D01*
X35348Y63165D01*
X35361Y63160D01*
X35363Y63157D01*
X35366D01*
X35408Y63142D01*
X35451Y63132D01*
X35496Y63125D01*
X35533Y63120D01*
X35568Y63117D01*
X35596Y63115D01*
X35621D01*
X35681Y63117D01*
X35736Y63122D01*
X35786Y63132D01*
X35828Y63142D01*
X35866Y63152D01*
X35881Y63157D01*
X35893Y63162D01*
X35903Y63165D01*
X35911Y63167D01*
X35913Y63170D01*
X35916D01*
X35961Y63192D01*
X36001Y63217D01*
X36033Y63242D01*
X36061Y63267D01*
X36081Y63287D01*
X36096Y63305D01*
X36106Y63315D01*
X36108Y63320D01*
X36128Y63357D01*
X36146Y63397D01*
X36160Y63437D01*
X36171Y63475D01*
X36178Y63510D01*
X36183Y63535D01*
Y63545D01*
X36185Y63552D01*
Y63557D01*
Y63560D01*
X36425Y63540D01*
X36420Y63470D01*
X36408Y63402D01*
X36390Y63345D01*
X36370Y63292D01*
X36360Y63270D01*
X36353Y63250D01*
X36343Y63235D01*
X36335Y63220D01*
X36330Y63207D01*
X36325Y63200D01*
X36320Y63195D01*
Y63192D01*
X36280Y63140D01*
X36235Y63092D01*
X36190Y63052D01*
X36146Y63020D01*
X36106Y62995D01*
X36088Y62985D01*
X36076Y62977D01*
X36063Y62970D01*
X36053Y62965D01*
X36048Y62962D01*
X36046D01*
X35976Y62937D01*
X35903Y62920D01*
X35828Y62905D01*
X35761Y62897D01*
X35728Y62895D01*
X35701Y62893D01*
X35673Y62890D01*
X35651D01*
X35633Y62888D01*
X35608D01*
X35533Y62890D01*
X35463Y62900D01*
X35401Y62912D01*
X35348Y62925D01*
X35323Y62932D01*
X35303Y62940D01*
X35286Y62945D01*
X35268Y62950D01*
X35258Y62955D01*
X35248Y62960D01*
X35243Y62962D01*
X35241D01*
X35183Y62992D01*
X35131Y63027D01*
X35088Y63062D01*
X35053Y63095D01*
X35026Y63125D01*
X35003Y63150D01*
X34998Y63160D01*
X34993Y63167D01*
X34988Y63170D01*
Y63172D01*
X34958Y63222D01*
X34936Y63275D01*
X34921Y63322D01*
X34908Y63367D01*
X34903Y63405D01*
X34901Y63420D01*
Y63435D01*
X34898Y63445D01*
Y63452D01*
Y63457D01*
Y63460D01*
X34901Y63517D01*
X34911Y63567D01*
X34923Y63615D01*
X34938Y63655D01*
X34956Y63687D01*
X34968Y63712D01*
X34973Y63720D01*
X34978Y63727D01*
X34981Y63730D01*
Y63732D01*
X35013Y63775D01*
X35053Y63815D01*
X35093Y63847D01*
X35133Y63877D01*
X35171Y63900D01*
X35201Y63915D01*
X35213Y63922D01*
X35221Y63927D01*
X35226Y63930D01*
X35228D01*
X35251Y63940D01*
X35278Y63950D01*
X35311Y63960D01*
X35343Y63972D01*
X35413Y63992D01*
X35483Y64010D01*
X35518Y64020D01*
X35548Y64027D01*
X35578Y64035D01*
X35603Y64040D01*
X35623Y64045D01*
X35641Y64050D01*
X35651Y64052D01*
X35653D01*
X35708Y64065D01*
X35758Y64077D01*
X35803Y64090D01*
X35843Y64102D01*
X35878Y64115D01*
X35908Y64125D01*
X35936Y64137D01*
X35961Y64147D01*
X35978Y64155D01*
X35996Y64162D01*
X36008Y64170D01*
X36018Y64177D01*
X36026Y64180D01*
X36031Y64185D01*
X36036Y64187D01*
X36061Y64215D01*
X36078Y64242D01*
X36091Y64270D01*
X36098Y64297D01*
X36103Y64322D01*
X36108Y64340D01*
Y64352D01*
Y64357D01*
X36103Y64400D01*
X36091Y64440D01*
X36076Y64475D01*
X36056Y64505D01*
X36036Y64530D01*
X36021Y64547D01*
X36008Y64557D01*
X36003Y64562D01*
X35983Y64577D01*
X35958Y64590D01*
X35906Y64612D01*
X35851Y64627D01*
X35796Y64637D01*
X35746Y64642D01*
X35726Y64645D01*
X35706Y64647D01*
X35628D01*
X35591Y64642D01*
X35556Y64640D01*
X35523Y64632D01*
X35493Y64625D01*
X35466Y64617D01*
X35441Y64610D01*
X35418Y64602D01*
X35401Y64592D01*
X35383Y64585D01*
X35368Y64577D01*
X35356Y64570D01*
X35348Y64562D01*
X35341Y64560D01*
X35336Y64555D01*
X35296Y64517D01*
X35266Y64472D01*
X35243Y64427D01*
X35226Y64385D01*
X35213Y64345D01*
X35208Y64327D01*
X35206Y64312D01*
X35203Y64300D01*
X35201Y64290D01*
Y64285D01*
Y64282D01*
X34956Y64300D01*
X34961Y64360D01*
X34973Y64417D01*
X34988Y64467D01*
X35006Y64512D01*
X35023Y64550D01*
X35031Y64565D01*
X35036Y64577D01*
X35043Y64587D01*
X35046Y64595D01*
X35051Y64597D01*
Y64600D01*
X35086Y64647D01*
X35128Y64690D01*
X35168Y64725D01*
X35211Y64752D01*
X35246Y64775D01*
X35276Y64792D01*
X35288Y64797D01*
X35296Y64802D01*
X35301Y64805D01*
X35303D01*
X35366Y64827D01*
X35431Y64844D01*
X35493Y64857D01*
X35551Y64867D01*
X35578Y64869D01*
X35603Y64872D01*
X35623D01*
X35643Y64874D01*
X35678D01*
X35748Y64872D01*
D02*
G37*
%LPC*%
G36*
X28064Y30477D02*
X27884D01*
Y30297D01*
X28064D01*
Y30116D01*
Y30477D01*
D02*
G37*
G36*
X30630Y30852D02*
X29612D01*
X30108D01*
X30095Y30851D01*
X30082D01*
X30065Y30849D01*
X30047Y30847D01*
X30008Y30841D01*
X29967Y30832D01*
X29924Y30821D01*
X29882Y30806D01*
X29880D01*
X29877Y30804D01*
X29872Y30801D01*
X29864Y30797D01*
X29844Y30786D01*
X29820Y30771D01*
X29792Y30752D01*
X29765Y30729D01*
X29737Y30701D01*
X29714Y30669D01*
Y30667D01*
X29710Y30666D01*
X29709Y30661D01*
X29704Y30654D01*
X29700Y30646D01*
X29695Y30636D01*
X29684Y30611D01*
X29672Y30581D01*
X29662Y30547D01*
X29654Y30509D01*
X29650Y30469D01*
X29814Y30457D01*
Y30459D01*
Y30462D01*
X29815Y30469D01*
X29817Y30477D01*
X29819Y30487D01*
X29822Y30499D01*
X29830Y30526D01*
X29842Y30554D01*
X29857Y30584D01*
X29877Y30614D01*
X29904Y30639D01*
X29907Y30642D01*
X29912Y30644D01*
X29917Y30649D01*
X29925Y30654D01*
X29935Y30659D01*
X29947Y30664D01*
X29958Y30671D01*
X29973Y30676D01*
X29990Y30681D01*
X30008Y30686D01*
X30028Y30691D01*
X30050Y30696D01*
X30073Y30697D01*
X30098Y30701D01*
X30150D01*
X30163Y30699D01*
X30177Y30697D01*
X30210Y30694D01*
X30247Y30687D01*
X30283Y30677D01*
X30318Y30662D01*
X30335Y30654D01*
X30348Y30644D01*
X30352Y30641D01*
X30360Y30634D01*
X30370Y30622D01*
X30383Y30606D01*
X30397Y30586D01*
X30407Y30562D01*
X30415Y30536D01*
X30418Y30507D01*
Y30504D01*
Y30496D01*
X30415Y30484D01*
X30412Y30467D01*
X30407Y30449D01*
X30398Y30431D01*
X30387Y30412D01*
X30370Y30394D01*
X30367Y30392D01*
X30363Y30389D01*
X30358Y30387D01*
X30352Y30382D01*
X30343Y30377D01*
X30332Y30372D01*
X30320Y30367D01*
X30303Y30361D01*
X30285Y30352D01*
X30265Y30346D01*
X30242Y30337D01*
X30215Y30329D01*
X30185Y30321D01*
X30152Y30312D01*
X30115Y30304D01*
X30113D01*
X30107Y30302D01*
X30095Y30299D01*
X30082Y30296D01*
X30065Y30292D01*
X30045Y30287D01*
X30025Y30282D01*
X30002Y30276D01*
X29955Y30264D01*
X29909Y30251D01*
X29887Y30242D01*
X29865Y30236D01*
X29847Y30229D01*
X29832Y30222D01*
X29830D01*
X29827Y30221D01*
X29822Y30217D01*
X29814Y30212D01*
X29794Y30202D01*
X29769Y30187D01*
X29742Y30167D01*
X29715Y30146D01*
X29689Y30119D01*
X29667Y30091D01*
Y30089D01*
X29665Y30088D01*
X29662Y30083D01*
X29659Y30078D01*
X29650Y30061D01*
X29639Y30039D01*
X29629Y30013D01*
X29620Y29981D01*
X29614Y29948D01*
X29612Y29909D01*
Y29931D01*
Y29909D01*
Y29528D01*
Y29899D01*
X29614Y29893D01*
Y29883D01*
X29615Y29873D01*
X29619Y29848D01*
X29627Y29818D01*
X29637Y29786D01*
X29652Y29751D01*
X29672Y29718D01*
Y29716D01*
X29675Y29714D01*
X29679Y29709D01*
X29682Y29703D01*
X29697Y29686D01*
X29715Y29666D01*
X29739Y29644D01*
X29767Y29621D01*
X29802Y29598D01*
X29840Y29578D01*
X29842D01*
X29845Y29576D01*
X29852Y29573D01*
X29859Y29569D01*
X29870Y29566D01*
X29882Y29563D01*
X29895Y29558D01*
X29912Y29553D01*
X29947Y29544D01*
X29988Y29536D01*
X30035Y29529D01*
X30085Y29528D01*
X29612D01*
X30630D01*
X30102D01*
X30113Y29529D01*
X30128D01*
X30147Y29531D01*
X30165Y29533D01*
X30187Y29534D01*
X30232Y29539D01*
X30282Y29549D01*
X30330Y29561D01*
X30377Y29578D01*
X30378D01*
X30382Y29579D01*
X30388Y29583D01*
X30397Y29588D01*
X30405Y29593D01*
X30417Y29599D01*
X30443Y29616D01*
X30473Y29638D01*
X30503Y29664D01*
X30533Y29696D01*
X30560Y29731D01*
Y29733D01*
X30563Y29736D01*
X30567Y29741D01*
X30570Y29749D01*
X30575Y29759D01*
X30582Y29769D01*
X30587Y29783D01*
X30593Y29798D01*
X30607Y29833D01*
X30618Y29871D01*
X30627Y29916D01*
X30630Y29963D01*
X30470Y29976D01*
Y29974D01*
Y29971D01*
X30468Y29966D01*
Y29959D01*
X30465Y29943D01*
X30460Y29919D01*
X30453Y29894D01*
X30443Y29868D01*
X30432Y29841D01*
X30418Y29816D01*
X30417Y29813D01*
X30410Y29806D01*
X30400Y29794D01*
X30387Y29781D01*
X30368Y29764D01*
X30347Y29748D01*
X30320Y29731D01*
X30290Y29716D01*
X30288D01*
X30287Y29714D01*
X30282Y29713D01*
X30275Y29711D01*
X30267Y29708D01*
X30257Y29704D01*
X30232Y29698D01*
X30203Y29691D01*
X30170Y29684D01*
X30133Y29681D01*
X30093Y29679D01*
X30077D01*
X30058Y29681D01*
X30035Y29683D01*
X30010Y29686D01*
X29980Y29691D01*
X29952Y29698D01*
X29924Y29708D01*
X29922D01*
X29920Y29709D01*
X29912Y29713D01*
X29899Y29719D01*
X29882Y29728D01*
X29864Y29739D01*
X29845Y29753D01*
X29827Y29768D01*
X29812Y29786D01*
X29810Y29788D01*
X29807Y29794D01*
X29800Y29806D01*
X29794Y29819D01*
X29787Y29836D01*
X29780Y29854D01*
X29777Y29874D01*
X29775Y29896D01*
Y29899D01*
Y29906D01*
X29777Y29918D01*
X29780Y29931D01*
X29784Y29948D01*
X29790Y29966D01*
X29800Y29984D01*
X29812Y30001D01*
X29814Y30003D01*
X29819Y30009D01*
X29827Y30018D01*
X29839Y30028D01*
X29855Y30039D01*
X29875Y30051D01*
X29899Y30064D01*
X29927Y30076D01*
X29930Y30078D01*
X29937Y30079D01*
X29944Y30083D01*
X29952Y30084D01*
X29962Y30088D01*
X29975Y30091D01*
X29988Y30096D01*
X30005Y30099D01*
X30023Y30104D01*
X30045Y30111D01*
X30068Y30116D01*
X30095Y30122D01*
X30123Y30129D01*
X30155Y30138D01*
X30157D01*
X30163Y30139D01*
X30172Y30142D01*
X30183Y30144D01*
X30198Y30149D01*
X30213Y30152D01*
X30252Y30164D01*
X30292Y30176D01*
X30333Y30191D01*
X30370Y30204D01*
X30387Y30212D01*
X30402Y30219D01*
X30403D01*
X30405Y30221D01*
X30410Y30224D01*
X30417Y30227D01*
X30433Y30237D01*
X30453Y30252D01*
X30475Y30269D01*
X30498Y30289D01*
X30520Y30312D01*
X30538Y30337D01*
Y30339D01*
X30540Y30341D01*
X30545Y30351D01*
X30552Y30364D01*
X30560Y30384D01*
X30568Y30407D01*
X30575Y30436D01*
X30580Y30466D01*
X30582Y30497D01*
Y30499D01*
Y30502D01*
Y30507D01*
X30580Y30514D01*
X30578Y30532D01*
X30575Y30557D01*
X30568Y30586D01*
X30558Y30616D01*
X30545Y30647D01*
X30527Y30679D01*
Y30681D01*
X30523Y30682D01*
X30517Y30692D01*
X30503Y30709D01*
X30487Y30727D01*
X30463Y30747D01*
X30437Y30769D01*
X30403Y30789D01*
X30367Y30807D01*
X30365D01*
X30362Y30809D01*
X30357Y30812D01*
X30348Y30814D01*
X30338Y30817D01*
X30327Y30822D01*
X30313Y30826D01*
X30298Y30831D01*
X30263Y30837D01*
X30223Y30846D01*
X30178Y30851D01*
X30132Y30852D01*
X30630D01*
D02*
G37*
G36*
X29382Y30831D02*
X28372D01*
Y29549D01*
X28547D01*
X29219Y30554D01*
Y29549D01*
X29382D01*
Y30831D01*
D02*
G37*
G36*
X28064Y29729D02*
X27884D01*
Y29549D01*
X28064D01*
Y29729D01*
D02*
G37*
%LPD*%
G36*
X28536Y29824D02*
Y30831D01*
X29209D01*
X28536Y29824D01*
D02*
G37*
%LPC*%
G36*
X25827Y60930D02*
X25816D01*
X25796Y60928D01*
X25775Y60926D01*
X25735Y60913D01*
X25702Y60897D01*
X25675Y60878D01*
X25652Y60857D01*
X25635Y60841D01*
X25625Y60828D01*
X25621Y60826D01*
Y60824D01*
X25602Y60793D01*
X25589Y60759D01*
X25577Y60722D01*
X25569Y60686D01*
X25562Y60653D01*
X25560Y60641D01*
X25558Y60628D01*
Y60618D01*
X25556Y60609D01*
Y60605D01*
Y60603D01*
X26081D01*
X26075Y60657D01*
X26064Y60703D01*
X26052Y60745D01*
X26035Y60778D01*
X26023Y60805D01*
X26010Y60824D01*
X26002Y60836D01*
X25998Y60841D01*
X25983Y60857D01*
X25969Y60870D01*
X25937Y60893D01*
X25908Y60909D01*
X25879Y60920D01*
X25854Y60926D01*
X25833Y60928D01*
X25827Y60930D01*
D02*
G37*
G36*
X24219D02*
X24209D01*
X24188Y60928D01*
X24167Y60926D01*
X24127Y60913D01*
X24094Y60897D01*
X24067Y60878D01*
X24044Y60857D01*
X24027Y60841D01*
X24017Y60828D01*
X24013Y60826D01*
Y60824D01*
X23994Y60793D01*
X23982Y60759D01*
X23969Y60722D01*
X23961Y60686D01*
X23954Y60653D01*
X23952Y60641D01*
X23950Y60628D01*
Y60618D01*
X23948Y60609D01*
Y60605D01*
Y60603D01*
X24473D01*
X24467Y60657D01*
X24456Y60703D01*
X24444Y60745D01*
X24427Y60778D01*
X24415Y60805D01*
X24402Y60824D01*
X24394Y60836D01*
X24390Y60841D01*
X24375Y60857D01*
X24361Y60870D01*
X24329Y60893D01*
X24300Y60909D01*
X24271Y60920D01*
X24246Y60926D01*
X24225Y60928D01*
X24219Y60930D01*
D02*
G37*
G36*
X36697Y60930D02*
X36687D01*
X36664Y60928D01*
X36643Y60926D01*
X36603Y60913D01*
X36570Y60895D01*
X36541Y60876D01*
X36516Y60855D01*
X36499Y60836D01*
X36489Y60824D01*
X36485Y60822D01*
Y60820D01*
X36470Y60799D01*
X36458Y60774D01*
X36437Y60722D01*
X36422Y60668D01*
X36414Y60616D01*
X36410Y60591D01*
X36408Y60566D01*
X36405Y60545D01*
Y60526D01*
X36403Y60512D01*
Y60501D01*
Y60493D01*
Y60491D01*
Y60451D01*
X36408Y60414D01*
X36412Y60378D01*
X36416Y60347D01*
X36422Y60318D01*
X36428Y60291D01*
X36437Y60266D01*
X36443Y60245D01*
X36451Y60224D01*
X36460Y60207D01*
X36466Y60195D01*
X36472Y60182D01*
X36476Y60174D01*
X36480Y60168D01*
X36485Y60164D01*
Y60162D01*
X36499Y60143D01*
X36516Y60126D01*
X36532Y60112D01*
X36549Y60099D01*
X36580Y60080D01*
X36612Y60068D01*
X36637Y60060D01*
X36657Y60055D01*
X36666Y60053D01*
X36676D01*
X36699Y60055D01*
X36720Y60057D01*
X36760Y60070D01*
X36793Y60087D01*
X36822Y60107D01*
X36847Y60128D01*
X36864Y60145D01*
X36874Y60157D01*
X36878Y60160D01*
Y60162D01*
X36893Y60182D01*
X36905Y60207D01*
X36924Y60259D01*
X36939Y60314D01*
X36947Y60368D01*
X36951Y60393D01*
X36953Y60416D01*
X36955Y60437D01*
Y60455D01*
X36957Y60470D01*
Y60480D01*
Y60489D01*
Y60491D01*
Y60530D01*
X36953Y60568D01*
X36949Y60603D01*
X36945Y60634D01*
X36939Y60666D01*
X36932Y60693D01*
X36926Y60716D01*
X36918Y60739D01*
X36909Y60757D01*
X36903Y60774D01*
X36897Y60789D01*
X36891Y60799D01*
X36884Y60809D01*
X36882Y60816D01*
X36878Y60818D01*
Y60820D01*
X36864Y60839D01*
X36847Y60857D01*
X36830Y60872D01*
X36816Y60884D01*
X36782Y60903D01*
X36753Y60916D01*
X36726Y60924D01*
X36705Y60928D01*
X36697Y60930D01*
D02*
G37*
G36*
X31842Y60938D02*
X31838D01*
X31819Y60936D01*
X31800Y60934D01*
X31765Y60922D01*
X31734Y60905D01*
X31707Y60884D01*
X31686Y60863D01*
X31669Y60847D01*
X31661Y60834D01*
X31657Y60832D01*
Y60830D01*
X31644Y60809D01*
X31632Y60784D01*
X31613Y60732D01*
X31600Y60678D01*
X31590Y60624D01*
X31588Y60597D01*
X31586Y60574D01*
X31584Y60553D01*
Y60534D01*
X31582Y60518D01*
Y60507D01*
Y60499D01*
Y60497D01*
Y60455D01*
X31586Y60418D01*
X31588Y60382D01*
X31594Y60349D01*
X31600Y60318D01*
X31607Y60291D01*
X31613Y60266D01*
X31619Y60245D01*
X31627Y60224D01*
X31634Y60207D01*
X31640Y60193D01*
X31646Y60182D01*
X31652Y60174D01*
X31655Y60166D01*
X31659Y60164D01*
Y60162D01*
X31673Y60143D01*
X31688Y60126D01*
X31705Y60112D01*
X31719Y60099D01*
X31748Y60080D01*
X31775Y60068D01*
X31800Y60060D01*
X31819Y60055D01*
X31832Y60053D01*
X31836D01*
X31855Y60055D01*
X31873Y60057D01*
X31909Y60070D01*
X31940Y60087D01*
X31967Y60105D01*
X31988Y60124D01*
X32004Y60141D01*
X32013Y60153D01*
X32017Y60155D01*
Y60157D01*
X32029Y60178D01*
X32042Y60201D01*
X32059Y60253D01*
X32071Y60307D01*
X32082Y60359D01*
X32084Y60384D01*
X32086Y60409D01*
X32088Y60430D01*
Y60449D01*
X32090Y60464D01*
Y60474D01*
Y60482D01*
Y60484D01*
Y60524D01*
X32086Y60562D01*
X32084Y60597D01*
X32077Y60630D01*
X32071Y60661D01*
X32065Y60689D01*
X32059Y60714D01*
X32050Y60736D01*
X32044Y60755D01*
X32038Y60774D01*
X32032Y60789D01*
X32025Y60801D01*
X32019Y60809D01*
X32017Y60816D01*
X32013Y60820D01*
Y60822D01*
X31998Y60843D01*
X31982Y60861D01*
X31967Y60876D01*
X31952Y60889D01*
X31923Y60909D01*
X31896Y60924D01*
X31873Y60932D01*
X31855Y60936D01*
X31842Y60938D01*
D02*
G37*
G36*
X26814Y60938D02*
X26810D01*
X26791Y60936D01*
X26772Y60934D01*
X26737Y60922D01*
X26706Y60905D01*
X26679Y60884D01*
X26658Y60863D01*
X26641Y60847D01*
X26633Y60834D01*
X26629Y60832D01*
Y60830D01*
X26616Y60809D01*
X26604Y60784D01*
X26585Y60732D01*
X26573Y60678D01*
X26562Y60624D01*
X26560Y60597D01*
X26558Y60574D01*
X26556Y60553D01*
Y60534D01*
X26554Y60518D01*
Y60507D01*
Y60499D01*
Y60497D01*
Y60455D01*
X26558Y60418D01*
X26560Y60382D01*
X26566Y60349D01*
X26573Y60318D01*
X26579Y60291D01*
X26585Y60266D01*
X26591Y60245D01*
X26600Y60224D01*
X26606Y60207D01*
X26612Y60193D01*
X26618Y60182D01*
X26625Y60174D01*
X26627Y60166D01*
X26631Y60164D01*
Y60162D01*
X26645Y60143D01*
X26660Y60126D01*
X26677Y60112D01*
X26691Y60099D01*
X26720Y60080D01*
X26747Y60068D01*
X26772Y60060D01*
X26791Y60055D01*
X26804Y60053D01*
X26808D01*
X26827Y60055D01*
X26845Y60057D01*
X26881Y60070D01*
X26912Y60087D01*
X26939Y60105D01*
X26960Y60124D01*
X26977Y60141D01*
X26985Y60153D01*
X26989Y60155D01*
Y60157D01*
X27002Y60178D01*
X27014Y60201D01*
X27031Y60253D01*
X27043Y60307D01*
X27054Y60359D01*
X27056Y60384D01*
X27058Y60409D01*
X27060Y60430D01*
Y60449D01*
X27062Y60464D01*
Y60474D01*
Y60482D01*
Y60484D01*
Y60524D01*
X27058Y60561D01*
X27056Y60597D01*
X27049Y60630D01*
X27043Y60661D01*
X27037Y60689D01*
X27031Y60714D01*
X27022Y60736D01*
X27016Y60755D01*
X27010Y60774D01*
X27004Y60789D01*
X26997Y60801D01*
X26991Y60809D01*
X26989Y60816D01*
X26985Y60820D01*
Y60822D01*
X26970Y60843D01*
X26954Y60861D01*
X26939Y60876D01*
X26925Y60888D01*
X26895Y60909D01*
X26868Y60924D01*
X26845Y60932D01*
X26827Y60936D01*
X26814Y60938D01*
D02*
G37*
G36*
X24427Y57495D02*
Y57422D01*
X24429Y57372D01*
X24434Y57328D01*
X24438Y57291D01*
X24444Y57262D01*
X24452Y57237D01*
X24456Y57220D01*
X24461Y57209D01*
X24463Y57205D01*
X24477Y57180D01*
X24494Y57157D01*
X24511Y57137D01*
X24527Y57120D01*
X24542Y57107D01*
X24554Y57097D01*
X24563Y57091D01*
X24567Y57089D01*
X24594Y57074D01*
X24619Y57064D01*
X24646Y57055D01*
X24669Y57051D01*
X24690Y57047D01*
X24706Y57045D01*
X24721D01*
X24752Y57047D01*
X24781Y57053D01*
X24804Y57060D01*
X24825Y57070D01*
X24840Y57078D01*
X24852Y57085D01*
X24858Y57091D01*
X24860Y57093D01*
X24877Y57114D01*
X24890Y57135D01*
X24898Y57157D01*
X24904Y57178D01*
X24908Y57195D01*
X24910Y57212D01*
Y57220D01*
Y57224D01*
X24906Y57262D01*
X24904Y57278D01*
X24900Y57291D01*
X24896Y57303D01*
X24894Y57312D01*
X24890Y57316D01*
Y57318D01*
X24871Y57345D01*
X24850Y57366D01*
X24842Y57372D01*
X24833Y57376D01*
X24829Y57380D01*
X24827D01*
X24810Y57389D01*
X24788Y57397D01*
X24742Y57409D01*
X24721Y57416D01*
X24704Y57418D01*
X24692Y57422D01*
X24688D01*
X24627Y57434D01*
X24573Y57445D01*
X24529Y57457D01*
X24492Y57470D01*
X24465Y57480D01*
X24444Y57489D01*
X24431Y57493D01*
X24427Y57495D01*
D02*
G37*
G36*
X27052Y58313D02*
X26743D01*
X26702Y58309D01*
X26668Y58307D01*
X26641Y58303D01*
X26623Y58299D01*
X26608Y58295D01*
X26600Y58293D01*
X26598Y58290D01*
X26577Y58282D01*
X26560Y58270D01*
X26543Y58257D01*
X26531Y58245D01*
X26520Y58232D01*
X26514Y58222D01*
X26510Y58215D01*
X26508Y58213D01*
X26498Y58190D01*
X26489Y58168D01*
X26483Y58145D01*
X26479Y58122D01*
X26477Y58101D01*
X26475Y58086D01*
Y58076D01*
Y58072D01*
X26477Y58038D01*
X26481Y58011D01*
X26487Y57986D01*
X26493Y57966D01*
X26500Y57949D01*
X26506Y57938D01*
X26510Y57930D01*
X26512Y57928D01*
X26527Y57909D01*
X26543Y57895D01*
X26560Y57882D01*
X26577Y57872D01*
X26591Y57863D01*
X26604Y57857D01*
X26612Y57855D01*
X26614Y57853D01*
X26635Y57849D01*
X26660Y57845D01*
X26685Y57843D01*
X26712Y57841D01*
X26735Y57839D01*
X27052D01*
Y58313D01*
D02*
G37*
G36*
Y57651D02*
X26752D01*
X26706Y57649D01*
X26664Y57647D01*
X26631Y57643D01*
X26604Y57636D01*
X26585Y57630D01*
X26568Y57626D01*
X26560Y57624D01*
X26558Y57622D01*
X26535Y57609D01*
X26516Y57595D01*
X26500Y57580D01*
X26485Y57566D01*
X26473Y57551D01*
X26464Y57541D01*
X26460Y57532D01*
X26458Y57530D01*
X26445Y57507D01*
X26437Y57482D01*
X26429Y57457D01*
X26425Y57432D01*
X26423Y57412D01*
X26420Y57395D01*
Y57384D01*
Y57382D01*
Y57380D01*
X26423Y57345D01*
X26427Y57314D01*
X26433Y57287D01*
X26439Y57262D01*
X26448Y57243D01*
X26454Y57230D01*
X26458Y57220D01*
X26460Y57218D01*
X26475Y57195D01*
X26493Y57176D01*
X26512Y57160D01*
X26531Y57147D01*
X26548Y57139D01*
X26560Y57132D01*
X26568Y57128D01*
X26573Y57126D01*
X26593Y57120D01*
X26618Y57116D01*
X26643Y57112D01*
X26668Y57110D01*
X26693D01*
X26712Y57107D01*
X27052D01*
Y57651D01*
D02*
G37*
G36*
X33719Y58347D02*
X33708D01*
X33687Y58345D01*
X33667Y58340D01*
X33646Y58334D01*
X33629Y58326D01*
X33596Y58305D01*
X33569Y58282D01*
X33546Y58257D01*
X33529Y58236D01*
X33525Y58228D01*
X33521Y58222D01*
X33517Y58218D01*
Y58215D01*
X33504Y58188D01*
X33492Y58155D01*
X33481Y58120D01*
X33473Y58080D01*
X33467Y58038D01*
X33460Y57995D01*
X33450Y57907D01*
X33448Y57868D01*
X33446Y57828D01*
X33444Y57793D01*
Y57761D01*
X33442Y57736D01*
Y57716D01*
Y57703D01*
Y57701D01*
Y57699D01*
Y57630D01*
X33446Y57568D01*
X33448Y57509D01*
X33454Y57457D01*
X33458Y57412D01*
X33465Y57368D01*
X33473Y57332D01*
X33479Y57299D01*
X33485Y57270D01*
X33494Y57247D01*
X33500Y57226D01*
X33504Y57212D01*
X33510Y57199D01*
X33512Y57191D01*
X33517Y57187D01*
Y57185D01*
X33531Y57162D01*
X33546Y57141D01*
X33560Y57124D01*
X33575Y57110D01*
X33592Y57097D01*
X33606Y57085D01*
X33635Y57070D01*
X33660Y57060D01*
X33679Y57055D01*
X33687Y57053D01*
X33698D01*
X33719Y57055D01*
X33739Y57060D01*
X33758Y57066D01*
X33777Y57074D01*
X33808Y57095D01*
X33835Y57118D01*
X33858Y57141D01*
X33875Y57162D01*
X33879Y57170D01*
X33883Y57176D01*
X33887Y57180D01*
Y57182D01*
X33900Y57209D01*
X33912Y57243D01*
X33921Y57278D01*
X33929Y57318D01*
X33937Y57359D01*
X33941Y57403D01*
X33952Y57491D01*
X33954Y57532D01*
X33956Y57570D01*
X33958Y57605D01*
Y57636D01*
X33960Y57664D01*
Y57682D01*
Y57695D01*
Y57697D01*
Y57699D01*
Y57768D01*
X33958Y57830D01*
X33954Y57888D01*
X33950Y57941D01*
X33944Y57986D01*
X33937Y58030D01*
X33931Y58066D01*
X33925Y58099D01*
X33919Y58128D01*
X33912Y58151D01*
X33906Y58172D01*
X33900Y58186D01*
X33896Y58199D01*
X33891Y58207D01*
X33889Y58211D01*
Y58213D01*
X33875Y58236D01*
X33860Y58257D01*
X33846Y58276D01*
X33831Y58290D01*
X33814Y58303D01*
X33800Y58313D01*
X33771Y58330D01*
X33746Y58340D01*
X33727Y58345D01*
X33719Y58347D01*
D02*
G37*
G36*
X32708D02*
X32694D01*
X32663Y58345D01*
X32633Y58336D01*
X32608Y58324D01*
X32586Y58311D01*
X32569Y58299D01*
X32554Y58286D01*
X32546Y58278D01*
X32544Y58276D01*
X32523Y58249D01*
X32506Y58218D01*
X32496Y58188D01*
X32488Y58159D01*
X32484Y58134D01*
X32479Y58113D01*
Y58105D01*
Y58099D01*
Y58097D01*
Y58095D01*
X32481Y58055D01*
X32490Y58022D01*
X32498Y57993D01*
X32511Y57968D01*
X32521Y57947D01*
X32531Y57932D01*
X32540Y57924D01*
X32542Y57920D01*
X32567Y57897D01*
X32592Y57882D01*
X32617Y57870D01*
X32640Y57861D01*
X32658Y57857D01*
X32675Y57855D01*
X32686Y57853D01*
X32690D01*
X32721Y57855D01*
X32752Y57863D01*
X32777Y57874D01*
X32800Y57886D01*
X32817Y57899D01*
X32831Y57909D01*
X32840Y57918D01*
X32842Y57920D01*
X32863Y57947D01*
X32877Y57978D01*
X32888Y58009D01*
X32894Y58038D01*
X32898Y58066D01*
X32902Y58086D01*
Y58095D01*
Y58101D01*
Y58103D01*
Y58105D01*
X32900Y58143D01*
X32892Y58176D01*
X32883Y58205D01*
X32871Y58230D01*
X32861Y58251D01*
X32850Y58265D01*
X32844Y58276D01*
X32842Y58278D01*
X32817Y58301D01*
X32792Y58318D01*
X32767Y58330D01*
X32744Y58338D01*
X32725Y58343D01*
X32708Y58347D01*
D02*
G37*
G36*
X32706Y57693D02*
X32675D01*
X32656Y57689D01*
X32619Y57678D01*
X32588Y57664D01*
X32561Y57649D01*
X32538Y57632D01*
X32521Y57618D01*
X32511Y57607D01*
X32506Y57605D01*
Y57603D01*
X32479Y57568D01*
X32461Y57528D01*
X32446Y57489D01*
X32438Y57451D01*
X32431Y57418D01*
X32429Y57405D01*
Y57393D01*
X32427Y57382D01*
Y57374D01*
Y57370D01*
Y57368D01*
X32431Y57316D01*
X32440Y57272D01*
X32452Y57232D01*
X32465Y57199D01*
X32479Y57174D01*
X32492Y57155D01*
X32500Y57143D01*
X32504Y57139D01*
X32534Y57110D01*
X32565Y57089D01*
X32596Y57074D01*
X32625Y57064D01*
X32652Y57057D01*
X32671Y57055D01*
X32679Y57053D01*
X32690D01*
X32729Y57057D01*
X32765Y57068D01*
X32798Y57080D01*
X32825Y57097D01*
X32846Y57114D01*
X32863Y57126D01*
X32873Y57137D01*
X32877Y57141D01*
X32902Y57176D01*
X32921Y57216D01*
X32935Y57255D01*
X32944Y57293D01*
X32950Y57326D01*
X32952Y57339D01*
Y57351D01*
X32954Y57362D01*
Y57370D01*
Y57374D01*
Y57376D01*
X32950Y57426D01*
X32942Y57470D01*
X32931Y57509D01*
X32917Y57543D01*
X32902Y57568D01*
X32892Y57586D01*
X32883Y57599D01*
X32879Y57603D01*
X32865Y57620D01*
X32850Y57632D01*
X32819Y57655D01*
X32788Y57672D01*
X32758Y57682D01*
X32733Y57689D01*
X32715Y57691D01*
X32706Y57693D01*
D02*
G37*
G36*
X28574Y58349D02*
X28555D01*
X28512Y58345D01*
X28470Y58336D01*
X28432Y58326D01*
X28399Y58311D01*
X28372Y58297D01*
X28351Y58286D01*
X28343Y58280D01*
X28337Y58278D01*
X28335Y58274D01*
X28333D01*
X28297Y58245D01*
X28266Y58213D01*
X28239Y58180D01*
X28218Y58149D01*
X28201Y58122D01*
X28189Y58099D01*
X28187Y58091D01*
X28183Y58084D01*
X28180Y58080D01*
Y58078D01*
X28158Y58016D01*
X28141Y57953D01*
X28130Y57891D01*
X28122Y57834D01*
X28120Y57809D01*
X28118Y57786D01*
X28116Y57766D01*
X28114Y57747D01*
Y57732D01*
Y57722D01*
Y57716D01*
Y57714D01*
X28116Y57655D01*
X28120Y57603D01*
X28126Y57551D01*
X28135Y57505D01*
X28143Y57462D01*
X28155Y57422D01*
X28166Y57387D01*
X28178Y57355D01*
X28191Y57326D01*
X28201Y57303D01*
X28214Y57282D01*
X28222Y57266D01*
X28230Y57251D01*
X28237Y57243D01*
X28241Y57237D01*
X28243Y57234D01*
X28268Y57205D01*
X28293Y57180D01*
X28320Y57160D01*
X28345Y57141D01*
X28372Y57124D01*
X28399Y57112D01*
X28424Y57101D01*
X28449Y57093D01*
X28472Y57087D01*
X28493Y57080D01*
X28512Y57076D01*
X28528Y57074D01*
X28541D01*
X28551Y57072D01*
X28560D01*
X28593Y57074D01*
X28626Y57078D01*
X28655Y57087D01*
X28687Y57097D01*
X28739Y57122D01*
X28764Y57137D01*
X28784Y57153D01*
X28803Y57168D01*
X28822Y57182D01*
X28837Y57195D01*
X28849Y57207D01*
X28859Y57218D01*
X28866Y57226D01*
X28870Y57230D01*
X28872Y57232D01*
X28895Y57264D01*
X28914Y57299D01*
X28930Y57334D01*
X28945Y57372D01*
X28957Y57409D01*
X28968Y57447D01*
X28982Y57520D01*
X28989Y57553D01*
X28993Y57584D01*
X28995Y57614D01*
X28997Y57639D01*
X28999Y57659D01*
Y57674D01*
Y57682D01*
Y57686D01*
X28997Y57747D01*
X28993Y57805D01*
X28986Y57857D01*
X28980Y57907D01*
X28970Y57951D01*
X28959Y57993D01*
X28949Y58030D01*
X28937Y58063D01*
X28924Y58093D01*
X28914Y58118D01*
X28903Y58138D01*
X28893Y58155D01*
X28887Y58170D01*
X28880Y58178D01*
X28876Y58184D01*
X28874Y58186D01*
X28849Y58215D01*
X28824Y58240D01*
X28799Y58261D01*
X28772Y58280D01*
X28745Y58297D01*
X28718Y58309D01*
X28693Y58320D01*
X28668Y58328D01*
X28645Y58334D01*
X28624Y58340D01*
X28603Y58345D01*
X28587Y58347D01*
X28574Y58349D01*
D02*
G37*
G36*
X25669Y57930D02*
X25658D01*
X25635Y57928D01*
X25614Y57926D01*
X25575Y57913D01*
X25542Y57895D01*
X25512Y57876D01*
X25487Y57855D01*
X25471Y57836D01*
X25460Y57824D01*
X25456Y57822D01*
Y57820D01*
X25442Y57799D01*
X25429Y57774D01*
X25408Y57722D01*
X25394Y57668D01*
X25385Y57616D01*
X25381Y57591D01*
X25379Y57566D01*
X25377Y57545D01*
Y57526D01*
X25375Y57512D01*
Y57501D01*
Y57493D01*
Y57491D01*
Y57451D01*
X25379Y57414D01*
X25383Y57378D01*
X25387Y57347D01*
X25394Y57318D01*
X25400Y57291D01*
X25408Y57266D01*
X25414Y57245D01*
X25423Y57224D01*
X25431Y57207D01*
X25437Y57195D01*
X25444Y57182D01*
X25448Y57174D01*
X25452Y57168D01*
X25456Y57164D01*
Y57162D01*
X25471Y57143D01*
X25487Y57126D01*
X25504Y57112D01*
X25521Y57099D01*
X25552Y57080D01*
X25583Y57068D01*
X25608Y57060D01*
X25629Y57055D01*
X25637Y57053D01*
X25648D01*
X25671Y57055D01*
X25692Y57057D01*
X25731Y57070D01*
X25764Y57087D01*
X25794Y57107D01*
X25819Y57128D01*
X25835Y57145D01*
X25846Y57157D01*
X25850Y57160D01*
Y57162D01*
X25864Y57182D01*
X25877Y57207D01*
X25896Y57259D01*
X25910Y57314D01*
X25919Y57368D01*
X25923Y57393D01*
X25925Y57416D01*
X25927Y57437D01*
Y57455D01*
X25929Y57470D01*
Y57480D01*
Y57489D01*
Y57491D01*
Y57530D01*
X25925Y57568D01*
X25921Y57603D01*
X25916Y57634D01*
X25910Y57666D01*
X25904Y57693D01*
X25898Y57716D01*
X25889Y57739D01*
X25881Y57757D01*
X25875Y57774D01*
X25869Y57789D01*
X25862Y57799D01*
X25856Y57809D01*
X25854Y57816D01*
X25850Y57818D01*
Y57820D01*
X25835Y57839D01*
X25819Y57857D01*
X25802Y57872D01*
X25787Y57884D01*
X25754Y57903D01*
X25725Y57916D01*
X25698Y57924D01*
X25677Y57928D01*
X25669Y57930D01*
D02*
G37*
G36*
X23073D02*
X23069D01*
X23048Y57928D01*
X23028Y57926D01*
X22992Y57913D01*
X22959Y57895D01*
X22932Y57874D01*
X22911Y57853D01*
X22894Y57834D01*
X22886Y57822D01*
X22882Y57820D01*
Y57818D01*
X22869Y57795D01*
X22857Y57772D01*
X22838Y57716D01*
X22826Y57659D01*
X22815Y57601D01*
X22813Y57574D01*
X22811Y57549D01*
X22809Y57526D01*
Y57507D01*
X22807Y57491D01*
Y57478D01*
Y57470D01*
Y57468D01*
Y57430D01*
X22811Y57395D01*
X22813Y57362D01*
X22819Y57330D01*
X22823Y57303D01*
X22830Y57278D01*
X22838Y57253D01*
X22844Y57234D01*
X22851Y57216D01*
X22859Y57199D01*
X22865Y57187D01*
X22869Y57174D01*
X22876Y57166D01*
X22878Y57160D01*
X22882Y57157D01*
Y57155D01*
X22896Y57137D01*
X22911Y57122D01*
X22926Y57107D01*
X22940Y57097D01*
X22969Y57078D01*
X22996Y57066D01*
X23021Y57060D01*
X23040Y57055D01*
X23053Y57053D01*
X23057D01*
X23076Y57055D01*
X23094Y57057D01*
X23128Y57070D01*
X23159Y57087D01*
X23184Y57107D01*
X23207Y57126D01*
X23221Y57143D01*
X23232Y57155D01*
X23236Y57157D01*
Y57160D01*
X23248Y57180D01*
X23261Y57205D01*
X23280Y57257D01*
X23294Y57312D01*
X23303Y57366D01*
X23307Y57391D01*
X23309Y57414D01*
X23311Y57434D01*
Y57453D01*
X23313Y57468D01*
Y57478D01*
Y57487D01*
Y57489D01*
Y57530D01*
X23311Y57570D01*
X23307Y57605D01*
X23303Y57639D01*
X23296Y57668D01*
X23290Y57695D01*
X23284Y57720D01*
X23278Y57743D01*
X23271Y57761D01*
X23265Y57778D01*
X23259Y57793D01*
X23253Y57803D01*
X23248Y57814D01*
X23244Y57820D01*
X23242Y57822D01*
Y57824D01*
X23228Y57843D01*
X23213Y57859D01*
X23198Y57874D01*
X23184Y57886D01*
X23155Y57905D01*
X23128Y57918D01*
X23105Y57924D01*
X23086Y57928D01*
X23073Y57930D01*
D02*
G37*
G36*
X24374Y64147D02*
X24359D01*
X24329Y64145D01*
X24301Y64142D01*
X24249Y64127D01*
X24201Y64107D01*
X24161Y64082D01*
X24131Y64057D01*
X24106Y64037D01*
X24091Y64022D01*
X24086Y64020D01*
Y64017D01*
X24066Y63992D01*
X24049Y63962D01*
X24019Y63902D01*
X23999Y63837D01*
X23986Y63777D01*
X23981Y63747D01*
X23976Y63720D01*
X23974Y63695D01*
Y63675D01*
X23971Y63657D01*
Y63645D01*
Y63635D01*
Y63632D01*
Y63585D01*
X23976Y63540D01*
X23981Y63497D01*
X23989Y63457D01*
X23996Y63422D01*
X24006Y63390D01*
X24016Y63362D01*
X24026Y63335D01*
X24036Y63312D01*
X24046Y63292D01*
X24056Y63277D01*
X24064Y63265D01*
X24071Y63252D01*
X24076Y63245D01*
X24079Y63242D01*
X24081Y63240D01*
X24101Y63217D01*
X24124Y63200D01*
X24146Y63182D01*
X24171Y63167D01*
X24216Y63145D01*
X24259Y63130D01*
X24296Y63122D01*
X24314Y63120D01*
X24326Y63117D01*
X24339Y63115D01*
X24354D01*
X24384Y63117D01*
X24414Y63120D01*
X24466Y63135D01*
X24513Y63155D01*
X24553Y63177D01*
X24586Y63200D01*
X24608Y63220D01*
X24623Y63235D01*
X24626Y63237D01*
X24628Y63240D01*
X24648Y63265D01*
X24663Y63292D01*
X24691Y63355D01*
X24708Y63422D01*
X24723Y63487D01*
X24726Y63517D01*
X24731Y63547D01*
X24733Y63572D01*
Y63595D01*
X24736Y63615D01*
Y63627D01*
Y63637D01*
Y63640D01*
X24733Y63685D01*
X24731Y63727D01*
X24726Y63767D01*
X24718Y63805D01*
X24711Y63837D01*
X24701Y63870D01*
X24691Y63897D01*
X24681Y63922D01*
X24671Y63945D01*
X24661Y63965D01*
X24651Y63980D01*
X24643Y63995D01*
X24636Y64005D01*
X24631Y64012D01*
X24626Y64015D01*
Y64017D01*
X24606Y64040D01*
X24583Y64060D01*
X24561Y64077D01*
X24538Y64092D01*
X24493Y64115D01*
X24451Y64132D01*
X24414Y64140D01*
X24384Y64145D01*
X24374Y64147D01*
D02*
G37*
G36*
X30589Y63960D02*
X30544D01*
X30517Y63955D01*
X30464Y63942D01*
X30419Y63922D01*
X30379Y63902D01*
X30349Y63882D01*
X30327Y63862D01*
X30312Y63850D01*
X30307Y63847D01*
Y63845D01*
X30287Y63822D01*
X30272Y63797D01*
X30245Y63747D01*
X30225Y63695D01*
X30212Y63645D01*
X30205Y63600D01*
X30202Y63580D01*
Y63562D01*
X30200Y63550D01*
Y63540D01*
Y63532D01*
Y63530D01*
Y63492D01*
X30205Y63457D01*
X30217Y63392D01*
X30235Y63335D01*
X30252Y63287D01*
X30262Y63270D01*
X30272Y63252D01*
X30282Y63237D01*
X30289Y63225D01*
X30297Y63215D01*
X30302Y63207D01*
X30305Y63205D01*
X30307Y63202D01*
X30327Y63182D01*
X30349Y63162D01*
X30392Y63132D01*
X30434Y63112D01*
X30477Y63097D01*
X30512Y63090D01*
X30539Y63085D01*
X30549Y63082D01*
X30564D01*
X30602Y63085D01*
X30637Y63092D01*
X30672Y63100D01*
X30699Y63112D01*
X30724Y63122D01*
X30744Y63130D01*
X30754Y63137D01*
X30759Y63140D01*
X30792Y63165D01*
X30822Y63190D01*
X30847Y63217D01*
X30867Y63245D01*
X30882Y63270D01*
X30894Y63290D01*
X30902Y63302D01*
X30904Y63307D01*
X30922Y63350D01*
X30934Y63392D01*
X30942Y63432D01*
X30947Y63467D01*
X30952Y63497D01*
X30954Y63522D01*
Y63537D01*
Y63540D01*
Y63542D01*
X30952Y63577D01*
X30949Y63610D01*
X30937Y63670D01*
X30919Y63720D01*
X30899Y63765D01*
X30879Y63800D01*
X30862Y63825D01*
X30854Y63832D01*
X30849Y63840D01*
X30844Y63842D01*
Y63845D01*
X30824Y63865D01*
X30802Y63882D01*
X30757Y63912D01*
X30709Y63932D01*
X30667Y63945D01*
X30632Y63955D01*
X30614Y63957D01*
X30602D01*
X30589Y63960D01*
D02*
G37*
G36*
X26388Y63617D02*
X26385D01*
Y63530D01*
X26388Y63475D01*
X26390Y63427D01*
X26398Y63387D01*
X26403Y63355D01*
X26410Y63327D01*
X26418Y63310D01*
X26420Y63300D01*
X26423Y63295D01*
X26443Y63257D01*
X26468Y63227D01*
X26495Y63197D01*
X26520Y63175D01*
X26543Y63157D01*
X26563Y63142D01*
X26575Y63135D01*
X26578Y63132D01*
X26580D01*
X26620Y63112D01*
X26663Y63100D01*
X26703Y63090D01*
X26740Y63082D01*
X26773Y63077D01*
X26798Y63075D01*
X26820D01*
X26868Y63077D01*
X26910Y63085D01*
X26948Y63095D01*
X26978Y63107D01*
X27000Y63117D01*
X27018Y63127D01*
X27028Y63135D01*
X27030Y63137D01*
X27053Y63162D01*
X27070Y63187D01*
X27083Y63215D01*
X27090Y63237D01*
X27095Y63260D01*
X27100Y63277D01*
Y63287D01*
Y63292D01*
X27098Y63315D01*
X27095Y63337D01*
X27090Y63355D01*
X27083Y63372D01*
X27078Y63385D01*
X27073Y63397D01*
X27070Y63402D01*
X27068Y63405D01*
X27055Y63422D01*
X27040Y63437D01*
X27010Y63462D01*
X26995Y63470D01*
X26985Y63475D01*
X26978Y63480D01*
X26975D01*
X26950Y63490D01*
X26918Y63500D01*
X26883Y63507D01*
X26850Y63515D01*
X26820Y63520D01*
X26793Y63525D01*
X26783D01*
X26778Y63527D01*
X26770D01*
X26723Y63535D01*
X26680Y63542D01*
X26640Y63550D01*
X26603Y63557D01*
X26568Y63565D01*
X26535Y63572D01*
X26508Y63580D01*
X26483Y63587D01*
X26460Y63592D01*
X26440Y63600D01*
X26423Y63605D01*
X26410Y63610D01*
X26398Y63612D01*
X26390Y63615D01*
X26388Y63617D01*
D02*
G37*
G36*
X16246Y63617D02*
X16243D01*
Y63530D01*
X16246Y63475D01*
X16248Y63427D01*
X16256Y63387D01*
X16261Y63355D01*
X16268Y63327D01*
X16276Y63310D01*
X16278Y63300D01*
X16281Y63295D01*
X16301Y63257D01*
X16326Y63227D01*
X16353Y63197D01*
X16378Y63175D01*
X16401Y63157D01*
X16421Y63142D01*
X16433Y63135D01*
X16436Y63132D01*
X16438D01*
X16478Y63112D01*
X16521Y63100D01*
X16561Y63090D01*
X16598Y63082D01*
X16631Y63077D01*
X16655Y63075D01*
X16678D01*
X16725Y63077D01*
X16768Y63085D01*
X16805Y63095D01*
X16835Y63107D01*
X16858Y63117D01*
X16875Y63127D01*
X16885Y63135D01*
X16888Y63137D01*
X16910Y63162D01*
X16928Y63187D01*
X16940Y63215D01*
X16948Y63237D01*
X16953Y63260D01*
X16958Y63277D01*
Y63287D01*
Y63292D01*
X16955Y63315D01*
X16953Y63337D01*
X16948Y63355D01*
X16940Y63372D01*
X16935Y63385D01*
X16930Y63397D01*
X16928Y63402D01*
X16925Y63405D01*
X16913Y63422D01*
X16898Y63437D01*
X16868Y63462D01*
X16853Y63470D01*
X16843Y63475D01*
X16835Y63480D01*
X16833D01*
X16808Y63490D01*
X16775Y63500D01*
X16740Y63507D01*
X16708Y63515D01*
X16678Y63520D01*
X16650Y63525D01*
X16640D01*
X16635Y63527D01*
X16628D01*
X16581Y63535D01*
X16538Y63542D01*
X16498Y63550D01*
X16461Y63557D01*
X16426Y63565D01*
X16393Y63572D01*
X16366Y63580D01*
X16341Y63587D01*
X16318Y63592D01*
X16298Y63600D01*
X16281Y63605D01*
X16268Y63610D01*
X16256Y63612D01*
X16248Y63615D01*
X16246Y63617D01*
D02*
G37*
G36*
X22839Y64147D02*
X22824D01*
X22791Y64145D01*
X22759Y64142D01*
X22701Y64125D01*
X22651Y64105D01*
X22609Y64080D01*
X22576Y64052D01*
X22551Y64032D01*
X22544Y64022D01*
X22536Y64015D01*
X22531Y64012D01*
Y64010D01*
X22507Y63975D01*
X22486Y63932D01*
X22472Y63890D01*
X22459Y63847D01*
X22452Y63810D01*
X22447Y63792D01*
Y63777D01*
X22444Y63767D01*
X22442Y63757D01*
Y63752D01*
Y63750D01*
X23219D01*
X23211Y63815D01*
X23196Y63870D01*
X23176Y63920D01*
X23154Y63962D01*
X23134Y63995D01*
X23116Y64017D01*
X23104Y64032D01*
X23099Y64037D01*
X23076Y64057D01*
X23054Y64075D01*
X23009Y64100D01*
X22961Y64120D01*
X22919Y64135D01*
X22881Y64142D01*
X22864Y64145D01*
X22851D01*
X22839Y64147D01*
D02*
G37*
G36*
X37875Y64615D02*
X37325D01*
X37275Y64612D01*
X37235Y64610D01*
X37203Y64607D01*
X37180Y64602D01*
X37163Y64600D01*
X37153Y64597D01*
X37150D01*
X37115Y64585D01*
X37083Y64567D01*
X37055Y64550D01*
X37033Y64530D01*
X37015Y64512D01*
X37000Y64497D01*
X36993Y64487D01*
X36990Y64482D01*
X36970Y64450D01*
X36955Y64415D01*
X36943Y64380D01*
X36935Y64347D01*
X36930Y64320D01*
X36928Y64297D01*
Y64282D01*
Y64280D01*
Y64277D01*
X36933Y64217D01*
X36945Y64167D01*
X36960Y64122D01*
X36980Y64085D01*
X37000Y64055D01*
X37015Y64035D01*
X37028Y64022D01*
X37033Y64017D01*
X37053Y64002D01*
X37078Y63987D01*
X37130Y63965D01*
X37188Y63950D01*
X37245Y63940D01*
X37298Y63932D01*
X37320Y63930D01*
X37340D01*
X37358Y63927D01*
X37875D01*
Y64615D01*
D02*
G37*
G36*
X20137Y64615D02*
X19682D01*
X19650Y64612D01*
X19622Y64610D01*
X19595Y64607D01*
X19570D01*
X19550Y64605D01*
X19530Y64602D01*
X19500Y64597D01*
X19480Y64592D01*
X19467Y64590D01*
X19462Y64587D01*
X19432Y64575D01*
X19405Y64560D01*
X19385Y64545D01*
X19365Y64527D01*
X19350Y64512D01*
X19340Y64500D01*
X19335Y64490D01*
X19332Y64487D01*
X19317Y64460D01*
X19305Y64430D01*
X19297Y64402D01*
X19290Y64377D01*
X19287Y64355D01*
X19285Y64335D01*
Y64325D01*
Y64320D01*
X19287Y64282D01*
X19292Y64250D01*
X19300Y64220D01*
X19310Y64197D01*
X19320Y64177D01*
X19327Y64162D01*
X19332Y64152D01*
X19335Y64150D01*
X19355Y64127D01*
X19380Y64107D01*
X19402Y64092D01*
X19427Y64077D01*
X19450Y64067D01*
X19467Y64060D01*
X19477Y64057D01*
X19482Y64055D01*
X19512Y64047D01*
X19550Y64042D01*
X19590Y64040D01*
X19630Y64037D01*
X19665Y64035D01*
X20137D01*
Y64615D01*
D02*
G37*
G36*
Y63807D02*
X19695D01*
X19630Y63805D01*
X19575Y63802D01*
X19525Y63797D01*
X19487Y63792D01*
X19455Y63785D01*
X19432Y63780D01*
X19420Y63777D01*
X19415Y63775D01*
X19380Y63760D01*
X19350Y63745D01*
X19325Y63725D01*
X19302Y63707D01*
X19285Y63690D01*
X19272Y63675D01*
X19265Y63665D01*
X19262Y63662D01*
X19242Y63632D01*
X19230Y63600D01*
X19220Y63570D01*
X19212Y63540D01*
X19207Y63515D01*
X19205Y63495D01*
Y63482D01*
Y63477D01*
X19207Y63445D01*
X19210Y63412D01*
X19217Y63385D01*
X19225Y63362D01*
X19232Y63342D01*
X19237Y63327D01*
X19242Y63317D01*
X19245Y63315D01*
X19260Y63290D01*
X19275Y63270D01*
X19292Y63250D01*
X19307Y63235D01*
X19322Y63222D01*
X19332Y63215D01*
X19340Y63210D01*
X19342Y63207D01*
X19365Y63195D01*
X19390Y63182D01*
X19412Y63175D01*
X19437Y63167D01*
X19457Y63162D01*
X19472Y63157D01*
X19482Y63155D01*
X19487D01*
X19510Y63152D01*
X19535Y63150D01*
X19592Y63147D01*
X20137D01*
Y63807D01*
D02*
G37*
G36*
X34036Y64147D02*
X34019D01*
X33986Y64145D01*
X33956Y64142D01*
X33899Y64127D01*
X33849Y64105D01*
X33806Y64080D01*
X33774Y64055D01*
X33746Y64032D01*
X33739Y64025D01*
X33731Y64017D01*
X33729Y64015D01*
X33726Y64012D01*
X33706Y63987D01*
X33686Y63957D01*
X33659Y63895D01*
X33636Y63830D01*
X33624Y63767D01*
X33619Y63737D01*
X33614Y63710D01*
X33611Y63687D01*
Y63665D01*
X33609Y63647D01*
Y63635D01*
Y63625D01*
Y63622D01*
Y63572D01*
X33614Y63527D01*
X33619Y63485D01*
X33626Y63445D01*
X33636Y63407D01*
X33646Y63375D01*
X33656Y63345D01*
X33666Y63317D01*
X33679Y63295D01*
X33689Y63275D01*
X33699Y63257D01*
X33709Y63242D01*
X33716Y63232D01*
X33721Y63225D01*
X33724Y63220D01*
X33726Y63217D01*
X33749Y63195D01*
X33771Y63175D01*
X33796Y63155D01*
X33821Y63140D01*
X33871Y63117D01*
X33916Y63102D01*
X33956Y63092D01*
X33974Y63090D01*
X33989Y63087D01*
X34001Y63085D01*
X34019D01*
X34051Y63087D01*
X34081Y63090D01*
X34139Y63105D01*
X34188Y63127D01*
X34231Y63152D01*
X34263Y63175D01*
X34291Y63197D01*
X34298Y63205D01*
X34306Y63212D01*
X34308Y63215D01*
X34311Y63217D01*
X34331Y63245D01*
X34348Y63272D01*
X34378Y63335D01*
X34398Y63402D01*
X34411Y63465D01*
X34416Y63495D01*
X34421Y63525D01*
X34423Y63550D01*
Y63572D01*
X34426Y63590D01*
Y63602D01*
Y63612D01*
Y63615D01*
X34423Y63662D01*
X34421Y63710D01*
X34416Y63752D01*
X34408Y63790D01*
X34398Y63827D01*
X34388Y63860D01*
X34378Y63890D01*
X34368Y63915D01*
X34358Y63940D01*
X34348Y63960D01*
X34338Y63975D01*
X34328Y63990D01*
X34321Y64000D01*
X34316Y64010D01*
X34311Y64012D01*
Y64015D01*
X34288Y64037D01*
X34263Y64060D01*
X34241Y64077D01*
X34216Y64092D01*
X34166Y64115D01*
X34121Y64130D01*
X34081Y64140D01*
X34064Y64142D01*
X34049Y64145D01*
X34036Y64147D01*
D02*
G37*
G36*
X18078Y64147D02*
X18060D01*
X18028Y64145D01*
X17998Y64142D01*
X17940Y64127D01*
X17890Y64105D01*
X17848Y64080D01*
X17815Y64055D01*
X17788Y64032D01*
X17780Y64025D01*
X17773Y64017D01*
X17770Y64015D01*
X17768Y64012D01*
X17748Y63987D01*
X17728Y63957D01*
X17700Y63895D01*
X17678Y63830D01*
X17665Y63767D01*
X17660Y63737D01*
X17655Y63710D01*
X17653Y63687D01*
Y63665D01*
X17650Y63647D01*
Y63635D01*
Y63625D01*
Y63622D01*
Y63572D01*
X17655Y63527D01*
X17660Y63485D01*
X17668Y63445D01*
X17678Y63407D01*
X17688Y63375D01*
X17698Y63345D01*
X17708Y63317D01*
X17720Y63295D01*
X17730Y63275D01*
X17740Y63257D01*
X17750Y63242D01*
X17758Y63232D01*
X17763Y63225D01*
X17765Y63220D01*
X17768Y63217D01*
X17790Y63195D01*
X17813Y63175D01*
X17838Y63155D01*
X17863Y63140D01*
X17913Y63117D01*
X17958Y63102D01*
X17998Y63092D01*
X18015Y63090D01*
X18030Y63087D01*
X18043Y63085D01*
X18060D01*
X18093Y63087D01*
X18123Y63090D01*
X18180Y63105D01*
X18230Y63127D01*
X18273Y63152D01*
X18305Y63175D01*
X18333Y63197D01*
X18340Y63205D01*
X18348Y63212D01*
X18350Y63215D01*
X18353Y63217D01*
X18373Y63245D01*
X18390Y63272D01*
X18420Y63335D01*
X18440Y63402D01*
X18453Y63465D01*
X18458Y63495D01*
X18463Y63525D01*
X18465Y63550D01*
Y63572D01*
X18468Y63590D01*
Y63602D01*
Y63612D01*
Y63615D01*
X18465Y63662D01*
X18463Y63710D01*
X18458Y63752D01*
X18450Y63790D01*
X18440Y63827D01*
X18430Y63860D01*
X18420Y63890D01*
X18410Y63915D01*
X18400Y63940D01*
X18390Y63960D01*
X18380Y63975D01*
X18370Y63990D01*
X18363Y64000D01*
X18358Y64010D01*
X18353Y64012D01*
Y64015D01*
X18330Y64037D01*
X18305Y64060D01*
X18283Y64077D01*
X18258Y64092D01*
X18208Y64115D01*
X18163Y64130D01*
X18123Y64140D01*
X18105Y64142D01*
X18090Y64145D01*
X18078Y64147D01*
D02*
G37*
G36*
X14236Y64147D02*
X14221D01*
X14191Y64145D01*
X14164Y64142D01*
X14111Y64127D01*
X14064Y64105D01*
X14024Y64080D01*
X13991Y64055D01*
X13969Y64032D01*
X13954Y64017D01*
X13949Y64015D01*
Y64012D01*
X13929Y63985D01*
X13911Y63957D01*
X13884Y63892D01*
X13864Y63822D01*
X13851Y63755D01*
X13846Y63722D01*
X13841Y63692D01*
X13839Y63665D01*
Y63642D01*
X13836Y63622D01*
Y63607D01*
Y63597D01*
Y63595D01*
Y63547D01*
X13841Y63505D01*
X13846Y63462D01*
X13854Y63425D01*
X13861Y63390D01*
X13871Y63360D01*
X13881Y63330D01*
X13891Y63305D01*
X13901Y63282D01*
X13911Y63262D01*
X13921Y63247D01*
X13929Y63232D01*
X13936Y63222D01*
X13941Y63215D01*
X13944Y63212D01*
X13946Y63210D01*
X13966Y63187D01*
X13989Y63170D01*
X14011Y63152D01*
X14034Y63137D01*
X14076Y63115D01*
X14119Y63100D01*
X14154Y63092D01*
X14184Y63087D01*
X14194Y63085D01*
X14209D01*
X14236Y63087D01*
X14264Y63090D01*
X14316Y63105D01*
X14361Y63125D01*
X14401Y63150D01*
X14431Y63175D01*
X14456Y63195D01*
X14471Y63210D01*
X14474Y63212D01*
X14476Y63215D01*
X14496Y63242D01*
X14514Y63270D01*
X14541Y63332D01*
X14561Y63400D01*
X14574Y63465D01*
X14579Y63495D01*
X14584Y63522D01*
X14586Y63550D01*
Y63570D01*
X14589Y63590D01*
Y63602D01*
Y63612D01*
Y63615D01*
X14586Y63665D01*
X14584Y63712D01*
X14579Y63755D01*
X14571Y63795D01*
X14564Y63830D01*
X14556Y63862D01*
X14546Y63892D01*
X14536Y63920D01*
X14526Y63942D01*
X14516Y63962D01*
X14509Y63980D01*
X14501Y63992D01*
X14494Y64005D01*
X14489Y64012D01*
X14484Y64015D01*
Y64017D01*
X14464Y64040D01*
X14441Y64060D01*
X14421Y64077D01*
X14399Y64092D01*
X14354Y64115D01*
X14314Y64132D01*
X14276Y64140D01*
X14246Y64145D01*
X14236Y64147D01*
D02*
G37*
%LPD*%
D12*
X28814Y25500D02*
X28957Y25452D01*
X29052Y25309D01*
X29100Y25071D01*
Y24928D01*
X29052Y24690D01*
X28957Y24548D01*
X28814Y24500D01*
X28719D01*
X28576Y24548D01*
X28481Y24690D01*
X28433Y24928D01*
Y25071D01*
X28481Y25309D01*
X28576Y25452D01*
X28719Y25500D01*
X28814D01*
X27924D02*
X28067Y25452D01*
X28162Y25309D01*
X28210Y25071D01*
Y24928D01*
X28162Y24690D01*
X28067Y24548D01*
X27924Y24500D01*
X27829D01*
X27686Y24548D01*
X27591Y24690D01*
X27543Y24928D01*
Y25071D01*
X27591Y25309D01*
X27686Y25452D01*
X27829Y25500D01*
X27924D01*
X27319Y25309D02*
X27224Y25357D01*
X27081Y25500D01*
Y24500D01*
X26539Y25262D02*
Y25309D01*
X26491Y25405D01*
X26443Y25452D01*
X26348Y25500D01*
X26158D01*
X26063Y25452D01*
X26015Y25405D01*
X25967Y25309D01*
Y25214D01*
X26015Y25119D01*
X26110Y24976D01*
X26586Y24500D01*
X25920D01*
X25410Y25500D02*
X25506Y25452D01*
X25601Y25357D01*
X25648Y25262D01*
X25696Y25119D01*
Y24881D01*
X25648Y24738D01*
X25601Y24643D01*
X25506Y24548D01*
X25410Y24500D01*
X25220D01*
X25125Y24548D01*
X25029Y24643D01*
X24982Y24738D01*
X24934Y24881D01*
Y25119D01*
X24982Y25262D01*
X25029Y25357D01*
X25125Y25452D01*
X25220Y25500D01*
X25410D01*
X24701D02*
X24320Y25024D01*
Y24500D01*
X23939Y25500D02*
X24320Y25024D01*
X23144Y25357D02*
X23239Y25452D01*
X23382Y25500D01*
X23573D01*
X23715Y25452D01*
X23811Y25357D01*
Y25262D01*
X23763Y25167D01*
X23715Y25119D01*
X23620Y25071D01*
X23335Y24976D01*
X23239Y24928D01*
X23192Y24881D01*
X23144Y24786D01*
Y24643D01*
X23239Y24548D01*
X23382Y24500D01*
X23573D01*
X23715Y24548D01*
X23811Y24643D01*
X22920Y25500D02*
Y24500D01*
Y25500D02*
X22539Y24500D01*
X22159Y25500D02*
X22539Y24500D01*
X22159Y25500D02*
Y24500D01*
M02*
