M48
;Layer_Color=9474304
;FILE_FORMAT=4:3
METRIC,TZ
;TYPE=PLATED
T2F00S00C0.300
T3F00S00C0.900
T4F00S00C0.991
T5F00S00C3.404
%
T02
X2200Y2200
X1700Y6200
X5500Y4000
X9000Y4800
X13500Y3700
X15368Y7620
Y12668
X20416
X25464
X30512
X35560
Y7620
X40608
Y2572
X39400Y14100
X39200Y16500
X35560Y22764
Y27812
X40608
X35560Y32860
X25464
Y22764
X20416
Y27812
X13300Y24900
X15368Y22764
Y17716
X20416
X9400Y21700
X9000Y24900
X10800Y27000
X5272Y27812
X4522Y29200
X3600
X3100Y31800
X5272Y22764
Y17716
Y12668
X30512Y7620
X45656Y12668
Y22764
Y2572
Y37908
Y53052
Y63148
X40608
X35560
Y58100
Y53052
Y48004
X40608
Y37908
X37400Y38100
X40800Y34400
X27500Y34900
X25750Y35300
X26300Y36050
X27800Y37100
Y38100
Y39000
X28100Y39800
X28500Y40500
X29700
X30600Y42500
Y43700
X27200
X27350Y45100
X28100Y50500
X30512Y53052
Y58100
Y63148
X25464
Y58100
Y53052
X22700Y51500
Y50200
Y49400
X21600Y48500
X20600
X20700Y51100
X20416Y53052
X19400Y54500
X16900Y52900
Y51600
Y50300
Y48900
X15368Y48004
Y42956
X15500Y41300
X16500Y41600
X18000Y41500
X18200Y43300
X16800Y43600
X17300Y44200
X19300Y45300
X21350Y45400
X20475Y38975
X20416Y37908
X23100Y38400
X22400Y34500
X21800Y33000
X17400Y33700
X15600Y33200
X15500Y37700
X18100Y39500
X11300Y42100
X10320Y42956
X9000Y42100
X6600Y42200
X5272Y42956
Y37908
X5700Y36800
X4800Y35949
X9300Y37300
Y38250
X10600Y45500
X13100Y44000
X7400Y47400
X7300Y48300
X7400Y49300
X5272Y53052
X10320
Y58100
X15368
X20416
Y63148
X15368
X10320
X5272
T03
X33020Y15240
Y17780
Y20320
X43180
Y17780
Y15240
Y30480
Y33020
Y35560
Y40640
Y45720
Y48260
Y50800
X40640Y40640
T04
X-0Y-0
Y5080
Y7620
Y10160
Y12700
Y15240
Y17780
Y20320
Y22860
Y25400
Y27940
Y30480
X2540Y-0
X5080
X7620
X10160
X12700
X15240
X17780
X20320
X22860
X25400
X27940
X30480
X33020
X35560
X38100
X40640
X43180
X45720
X48260
Y5080
Y7620
Y10160
Y12700
Y15240
Y17780
Y20320
Y22860
Y25400
Y27940
Y30480
Y33020
Y35560
Y38100
Y40640
Y43180
Y45720
Y48260
Y50800
Y53340
X-0
Y50800
Y48260
Y45720
Y43180
Y40640
Y38100
Y35560
Y33020
T05
X22860Y7620
X43180Y58420
X5080
M30
