M48
;Layer_Color=9474304
;FILE_FORMAT=4:3
METRIC,TZ
;TYPE=PLATED
T1F00S00C0.100
%
T01
X21900Y39650
X22400Y40150
X22900
Y39650
X23400
X23900
Y40150
X24400
Y39650
X24900Y40150
Y40650
X24400
X25400
X25900
Y41150
Y40150
Y39650
Y39150
X25400Y39650
X23400Y40150
X22900Y41150
X22400Y41650
X21200Y41300
X21100Y40450
X21900Y43150
Y43650
X22400
Y44150
X22900
Y43150
X25900Y44150
Y44650
X26400Y41650
X27300Y41800
Y41000
M30
