G04 Layer_Physical_Order=2*
G04 Layer_Color=32768*
%FSLAX25Y25*%
%MOIN*%
G70*
G01*
G75*
%ADD26C,0.04000*%
%ADD27C,0.17400*%
%ADD28C,0.07500*%
G04:AMPARAMS|DCode=29|XSize=95mil|YSize=95mil|CornerRadius=0mil|HoleSize=0mil|Usage=FLASHONLY|Rotation=0.000|XOffset=0mil|YOffset=0mil|HoleType=Round|Shape=Relief|Width=10mil|Gap=10mil|Entries=4|*
%AMTHD29*
7,0,0,0.09500,0.07500,0.01000,45*
%
%ADD29THD29*%
%ADD30C,0.05200*%
G04:AMPARAMS|DCode=31|XSize=72mil|YSize=72mil|CornerRadius=0mil|HoleSize=0mil|Usage=FLASHONLY|Rotation=0.000|XOffset=0mil|YOffset=0mil|HoleType=Round|Shape=Relief|Width=10mil|Gap=10mil|Entries=4|*
%AMTHD31*
7,0,0,0.07200,0.05200,0.01000,45*
%
%ADD31THD31*%
G36*
X193083Y120300D02*
X175800D01*
Y124019D01*
X193083D01*
Y120300D01*
D02*
G37*
%LPC*%
G36*
X183026Y123819D02*
X182987D01*
X182871Y123813D01*
X182765Y123802D01*
X182671Y123780D01*
X182582Y123758D01*
X182510Y123736D01*
X182455Y123713D01*
X182438Y123708D01*
X182421Y123702D01*
X182416Y123697D01*
X182410D01*
X182316Y123652D01*
X182222Y123597D01*
X182144Y123547D01*
X182072Y123497D01*
X182016Y123453D01*
X181972Y123414D01*
X181944Y123392D01*
X181933Y123380D01*
X182255Y122970D01*
X182310Y123020D01*
X182366Y123064D01*
X182416Y123103D01*
X182466Y123131D01*
X182505Y123158D01*
X182538Y123175D01*
X182560Y123186D01*
X182566Y123192D01*
X182627Y123220D01*
X182693Y123242D01*
X182749Y123253D01*
X182804Y123264D01*
X182854Y123269D01*
X182888Y123275D01*
X182921D01*
X182999Y123269D01*
X183065Y123258D01*
X183087Y123247D01*
X183104Y123242D01*
X183115Y123236D01*
X183121D01*
X183182Y123208D01*
X183226Y123175D01*
X183254Y123153D01*
X183265Y123147D01*
Y123142D01*
X183304Y123092D01*
X183332Y123047D01*
X183348Y123014D01*
X183354Y123003D01*
Y122997D01*
X183376Y122936D01*
X183381Y122875D01*
X183387Y122853D01*
Y122837D01*
Y122826D01*
Y122820D01*
X183381Y122742D01*
X183376Y122670D01*
X183370Y122642D01*
X183365Y122620D01*
X183359Y122609D01*
Y122603D01*
X183337Y122520D01*
X183304Y122448D01*
X183287Y122415D01*
X183276Y122393D01*
X183271Y122376D01*
X183265Y122370D01*
X183237Y122326D01*
X183204Y122276D01*
X183171Y122232D01*
X183143Y122187D01*
X183109Y122148D01*
X183087Y122121D01*
X183071Y122098D01*
X183065Y122093D01*
X183015Y122032D01*
X182954Y121971D01*
X182899Y121910D01*
X182843Y121849D01*
X182793Y121799D01*
X182754Y121760D01*
X182727Y121732D01*
X182715Y121721D01*
X181950Y120944D01*
Y120500D01*
X184164D01*
Y121061D01*
X182788D01*
X183259Y121510D01*
X183326Y121577D01*
X183393Y121638D01*
X183448Y121693D01*
X183498Y121749D01*
X183537Y121788D01*
X183565Y121821D01*
X183587Y121843D01*
X183592Y121849D01*
X183648Y121910D01*
X183692Y121965D01*
X183737Y122021D01*
X183775Y122065D01*
X183803Y122109D01*
X183826Y122137D01*
X183837Y122159D01*
X183842Y122165D01*
X183909Y122282D01*
X183931Y122337D01*
X183953Y122387D01*
X183970Y122431D01*
X183981Y122465D01*
X183992Y122487D01*
Y122493D01*
X184025Y122620D01*
X184036Y122687D01*
X184042Y122742D01*
X184047Y122787D01*
Y122826D01*
Y122848D01*
Y122859D01*
X184042Y122942D01*
X184036Y123020D01*
X184025Y123092D01*
X184009Y123153D01*
X183992Y123203D01*
X183981Y123236D01*
X183975Y123264D01*
X183970Y123269D01*
X183937Y123336D01*
X183903Y123392D01*
X183870Y123447D01*
X183831Y123486D01*
X183803Y123525D01*
X183775Y123547D01*
X183759Y123564D01*
X183753Y123569D01*
X183698Y123614D01*
X183642Y123647D01*
X183587Y123680D01*
X183537Y123708D01*
X183487Y123724D01*
X183454Y123741D01*
X183431Y123752D01*
X183420D01*
X183348Y123775D01*
X183271Y123791D01*
X183198Y123802D01*
X183132Y123813D01*
X183071D01*
X183026Y123819D01*
D02*
G37*
%LPD*%
D26*
X100500Y100000D02*
Y360000D01*
X306000D01*
Y100000D02*
Y360000D01*
X100500Y100000D02*
X306000D01*
D27*
X278500Y338000D02*
D03*
X128500D02*
D03*
X198500Y138000D02*
D03*
D28*
X298500Y128000D02*
D03*
Y138000D02*
D03*
Y148000D02*
D03*
Y158000D02*
D03*
Y168000D02*
D03*
Y178000D02*
D03*
Y188000D02*
D03*
Y198000D02*
D03*
Y208000D02*
D03*
Y218000D02*
D03*
Y228000D02*
D03*
Y238000D02*
D03*
Y248000D02*
D03*
Y258000D02*
D03*
Y268000D02*
D03*
Y278000D02*
D03*
Y288000D02*
D03*
Y298000D02*
D03*
Y308000D02*
D03*
Y318000D02*
D03*
Y108000D02*
D03*
X288500D02*
D03*
X278500D02*
D03*
X268500D02*
D03*
X258500D02*
D03*
X248500D02*
D03*
X238500D02*
D03*
X228500D02*
D03*
X218500D02*
D03*
X208500D02*
D03*
X178500D02*
D03*
X168500D02*
D03*
X158500D02*
D03*
X148500D02*
D03*
X138500D02*
D03*
X128500D02*
D03*
X118500D02*
D03*
X108500Y128000D02*
D03*
Y138000D02*
D03*
Y148000D02*
D03*
Y158000D02*
D03*
Y188000D02*
D03*
Y198000D02*
D03*
Y208000D02*
D03*
Y218000D02*
D03*
Y228000D02*
D03*
Y238000D02*
D03*
Y248000D02*
D03*
Y258000D02*
D03*
Y278000D02*
D03*
Y298000D02*
D03*
Y318000D02*
D03*
D29*
X198500Y108000D02*
D03*
X188500D02*
D03*
X108500D02*
D03*
Y168000D02*
D03*
Y178000D02*
D03*
Y268000D02*
D03*
Y288000D02*
D03*
Y308000D02*
D03*
D30*
X119000Y164500D02*
D03*
X135000Y136000D02*
D03*
X136000Y148000D02*
D03*
X218000Y206000D02*
D03*
X170500Y210000D02*
D03*
X168500Y216799D02*
D03*
Y220500D02*
D03*
X246000Y154000D02*
D03*
X266500Y157000D02*
D03*
X263000Y294500D02*
D03*
X222000Y244000D02*
D03*
X153500Y264000D02*
D03*
X223000Y240000D02*
D03*
X235000Y229000D02*
D03*
X228000Y266500D02*
D03*
X229500Y263000D02*
D03*
X273500Y154500D02*
D03*
X278000Y153500D02*
D03*
X281500Y149500D02*
D03*
X230000Y289000D02*
D03*
X191000Y314500D02*
D03*
X166000D02*
D03*
X209000Y186000D02*
D03*
X217500Y186500D02*
D03*
X250000Y266500D02*
D03*
X234500Y260000D02*
D03*
X248500Y258000D02*
D03*
X251500Y260500D02*
D03*
X249500Y272500D02*
D03*
X234000Y269000D02*
D03*
X226500Y269500D02*
D03*
X222500Y266500D02*
D03*
X219000Y267500D02*
D03*
X216500Y270000D02*
D03*
X286000Y299500D02*
D03*
X282000D02*
D03*
X278000D02*
D03*
X188500Y289000D02*
D03*
X196500D02*
D03*
Y181000D02*
D03*
X187500D02*
D03*
X257500Y202500D02*
D03*
Y211500D02*
D03*
X167358Y244358D02*
D03*
X258500Y243000D02*
D03*
X205500Y240500D02*
D03*
Y245500D02*
D03*
X145000Y231500D02*
D03*
X145500Y215500D02*
D03*
X164500Y124000D02*
D03*
X269000Y192000D02*
D03*
X260500Y278500D02*
D03*
X159500Y300500D02*
D03*
X145500Y206500D02*
D03*
X179654Y289154D02*
D03*
X160000Y284500D02*
D03*
X241500Y279000D02*
D03*
D31*
X246000Y173500D02*
D03*
X214000Y296000D02*
D03*
X220500Y295500D02*
D03*
X230000D02*
D03*
X166000Y342500D02*
D03*
X191000D02*
D03*
X188500Y296000D02*
D03*
X198000Y174000D02*
D03*
X187500D02*
D03*
X192000Y170000D02*
D03*
X209000Y174000D02*
D03*
X204500Y170000D02*
D03*
X201500Y270000D02*
D03*
X222000Y230500D02*
D03*
X214000Y223500D02*
D03*
X264500Y211500D02*
D03*
Y202500D02*
D03*
X269000Y207000D02*
D03*
X265000Y259000D02*
D03*
Y250000D02*
D03*
Y243000D02*
D03*
X269000Y238500D02*
D03*
Y254500D02*
D03*
X278000Y305500D02*
D03*
X238000D02*
D03*
X266500Y309500D02*
D03*
X273500D02*
D03*
X249500D02*
D03*
X242500D02*
D03*
X225500Y300000D02*
D03*
X201000Y300500D02*
D03*
X209500D02*
D03*
X196500Y296000D02*
D03*
X179500D02*
D03*
X138500Y240000D02*
D03*
X134000Y244500D02*
D03*
Y236000D02*
D03*
Y211000D02*
D03*
X138500Y206500D02*
D03*
X168000Y225000D02*
D03*
X167575Y262075D02*
D03*
X167984Y234516D02*
D03*
X167000Y201500D02*
D03*
X174425Y201075D02*
D03*
X207890Y201110D02*
D03*
X219701Y201201D02*
D03*
X235512Y204988D02*
D03*
X234673Y224673D02*
D03*
X234705Y248295D02*
D03*
X211827Y270327D02*
D03*
X167500Y268000D02*
D03*
X174425Y269925D02*
D03*
M02*
