G04 Layer_Color=32896*
%FSLAX25Y25*%
%MOIN*%
G70*
G01*
G75*
%ADD19C,0.01000*%
%ADD34C,0.00984*%
%ADD35C,0.00787*%
%ADD36C,0.00394*%
G36*
X181167Y159147D02*
Y159101D01*
Y159008D01*
Y158916D01*
Y158823D01*
Y158730D01*
Y158684D01*
Y158661D01*
Y158291D01*
Y157944D01*
Y157782D01*
Y157666D01*
Y157597D01*
Y157573D01*
Y157157D01*
Y156972D01*
Y156810D01*
Y156671D01*
Y156579D01*
Y156509D01*
Y156486D01*
Y156324D01*
Y156208D01*
Y156116D01*
Y156069D01*
Y156000D01*
X168509D01*
Y156023D01*
Y156069D01*
Y156254D01*
Y156416D01*
Y156463D01*
Y156486D01*
Y156856D01*
Y157203D01*
Y157365D01*
Y157481D01*
Y157550D01*
Y157573D01*
Y157990D01*
Y158175D01*
Y158337D01*
Y158476D01*
Y158569D01*
Y158638D01*
Y158661D01*
Y158823D01*
Y158962D01*
Y159055D01*
Y159101D01*
Y159147D01*
Y159170D01*
X181167D01*
Y159147D01*
D02*
G37*
G36*
X182000Y176710D02*
X178089Y172638D01*
X177974Y171527D01*
X177719Y168866D01*
X177534Y166945D01*
X181722Y162618D01*
X181445Y162340D01*
X177488Y166390D01*
X177256Y163914D01*
X177141D01*
Y162965D01*
X176261D01*
Y163914D01*
X173531D01*
X173438Y163729D01*
X173299Y163544D01*
X173114Y163335D01*
X172860Y163150D01*
X172559Y163058D01*
X172281Y163035D01*
X172003D01*
X171795Y163104D01*
X171541Y163197D01*
X171333Y163335D01*
X171170Y163497D01*
X171009Y163729D01*
X170893Y163983D01*
X170823Y164215D01*
X170800Y164423D01*
X170823Y164654D01*
X170870Y164839D01*
X170939Y165025D01*
X171032Y165210D01*
X171147Y165372D01*
X171309Y165534D01*
X171494Y165649D01*
X171656Y165719D01*
X171633Y165927D01*
X168162Y162340D01*
X167885Y162641D01*
X171587Y166482D01*
X171286Y169838D01*
X171078Y172267D01*
X169967D01*
Y173818D01*
X170268D01*
X167445Y176710D01*
X167746Y176988D01*
X170384Y174258D01*
Y174466D01*
X170337Y174512D01*
X170268Y174558D01*
X170199Y174628D01*
X170129Y174697D01*
X170083Y174813D01*
X170060Y174905D01*
X170037Y175021D01*
X170060Y175160D01*
X170106Y175252D01*
X170199Y175415D01*
X170314Y175507D01*
X170476Y175576D01*
X170638Y175600D01*
X170800Y175576D01*
X170939Y175530D01*
X171055Y175461D01*
X171101Y175391D01*
X171217Y175484D01*
X171379Y175600D01*
X171587Y175692D01*
X171888Y175808D01*
X172212Y175900D01*
X172536Y175970D01*
X172883Y176039D01*
X173161Y176062D01*
Y176409D01*
X175382D01*
Y176109D01*
X175567D01*
X175845Y176085D01*
X176146Y176039D01*
X176446Y175993D01*
Y176178D01*
X177395D01*
Y175738D01*
X177511Y175669D01*
X177673Y175600D01*
X177835Y175507D01*
X177974Y175415D01*
X178112Y175299D01*
X178205Y175206D01*
X178251Y175137D01*
X178298Y175044D01*
X178275Y174882D01*
X178830D01*
Y174165D01*
X178228D01*
X178136Y173262D01*
X181722Y176988D01*
X182000Y176710D01*
D02*
G37*
G36*
X197068Y178561D02*
X197785Y178469D01*
X198456Y178330D01*
X199104Y178145D01*
X199706Y177937D01*
X200261Y177682D01*
X200794Y177428D01*
X201256Y177173D01*
X201696Y176895D01*
X202066Y176641D01*
X202390Y176409D01*
X202668Y176178D01*
X202899Y175993D01*
X203038Y175854D01*
X203154Y175762D01*
X203177Y175738D01*
X203663Y175183D01*
X204102Y174628D01*
X204496Y174049D01*
X204797Y173471D01*
X205074Y172892D01*
X205306Y172314D01*
X205491Y171782D01*
X205653Y171249D01*
X205769Y170763D01*
X205861Y170300D01*
X205907Y169907D01*
X205954Y169560D01*
X205977Y169282D01*
X206000Y169074D01*
Y168935D01*
Y168912D01*
Y168889D01*
X205977Y168149D01*
X205884Y167454D01*
X205746Y166760D01*
X205560Y166135D01*
X205352Y165534D01*
X205098Y164955D01*
X204843Y164446D01*
X204589Y163960D01*
X204334Y163544D01*
X204079Y163150D01*
X203825Y162826D01*
X203617Y162549D01*
X203432Y162340D01*
X203293Y162178D01*
X203200Y162063D01*
X203177Y162039D01*
X202645Y161554D01*
X202066Y161114D01*
X201488Y160721D01*
X200909Y160420D01*
X200331Y160142D01*
X199775Y159911D01*
X199220Y159725D01*
X198688Y159564D01*
X198202Y159448D01*
X197739Y159355D01*
X197346Y159309D01*
X196999Y159263D01*
X196721Y159240D01*
X196513Y159216D01*
X196327D01*
X195587Y159240D01*
X194893Y159332D01*
X194222Y159471D01*
X193574Y159656D01*
X192972Y159864D01*
X192417Y160119D01*
X191885Y160373D01*
X191422Y160628D01*
X190982Y160882D01*
X190612Y161137D01*
X190288Y161392D01*
X190010Y161600D01*
X189779Y161785D01*
X189640Y161924D01*
X189524Y162016D01*
X189501Y162039D01*
X188992Y162595D01*
X188552Y163150D01*
X188182Y163729D01*
X187858Y164307D01*
X187581Y164886D01*
X187349Y165464D01*
X187164Y166020D01*
X187002Y166529D01*
X186886Y167015D01*
X186794Y167477D01*
X186748Y167871D01*
X186701Y168218D01*
X186678Y168496D01*
X186655Y168704D01*
Y168843D01*
Y168889D01*
X186678Y169630D01*
X186771Y170324D01*
X186909Y171018D01*
X187095Y171643D01*
X187303Y172244D01*
X187557Y172823D01*
X187812Y173332D01*
X188066Y173818D01*
X188344Y174258D01*
X188599Y174628D01*
X188830Y174952D01*
X189061Y175229D01*
X189247Y175461D01*
X189385Y175600D01*
X189478Y175715D01*
X189501Y175738D01*
X190033Y176248D01*
X190612Y176687D01*
X191167Y177057D01*
X191769Y177381D01*
X192324Y177659D01*
X192903Y177890D01*
X193458Y178076D01*
X193967Y178237D01*
X194453Y178353D01*
X194916Y178446D01*
X195309Y178492D01*
X195656Y178538D01*
X195934Y178561D01*
X196142Y178585D01*
X196327D01*
X197068Y178561D01*
D02*
G37*
G36*
X211561Y175866D02*
X212048Y175820D01*
X212487Y175704D01*
X212927Y175588D01*
X213320Y175449D01*
X213714Y175287D01*
X214061Y175125D01*
X214362Y174940D01*
X214662Y174755D01*
X214917Y174593D01*
X215125Y174431D01*
X215310Y174292D01*
X215472Y174177D01*
X215565Y174084D01*
X215634Y174015D01*
X215657Y173992D01*
X215981Y173621D01*
X216282Y173251D01*
X216537Y172881D01*
X216745Y172487D01*
X216930Y172094D01*
X217069Y171724D01*
X217208Y171353D01*
X217300Y171006D01*
X217370Y170683D01*
X217439Y170382D01*
X217462Y170104D01*
X217509Y169873D01*
Y169687D01*
X217532Y169549D01*
Y169456D01*
Y169433D01*
X217509Y168947D01*
X217439Y168484D01*
X217347Y168021D01*
X217231Y167605D01*
X217092Y167188D01*
X216930Y166818D01*
X216768Y166471D01*
X216583Y166147D01*
X216421Y165869D01*
X216259Y165615D01*
X216097Y165407D01*
X215958Y165221D01*
X215819Y165059D01*
X215727Y164967D01*
X215680Y164898D01*
X215657Y164874D01*
X215287Y164550D01*
X214917Y164250D01*
X214523Y163995D01*
X214130Y163787D01*
X213760Y163602D01*
X213366Y163463D01*
X212996Y163324D01*
X212649Y163231D01*
X212325Y163162D01*
X212024Y163093D01*
X211747Y163069D01*
X211515Y163023D01*
X211330D01*
X211191Y163000D01*
X210844D01*
X210636Y163023D01*
X210428D01*
X210451Y164967D01*
X210659Y164944D01*
X210867Y164921D01*
X211076D01*
X211376Y164944D01*
X211654Y164967D01*
X212186Y165083D01*
X212672Y165245D01*
X213089Y165430D01*
X213436Y165592D01*
X213575Y165684D01*
X213690Y165754D01*
X213806Y165823D01*
X213876Y165869D01*
X213899Y165916D01*
X213922D01*
X214338Y166309D01*
X214685Y166749D01*
X214963Y167165D01*
X215171Y167582D01*
X215310Y167929D01*
X215380Y168091D01*
X215426Y168230D01*
X215449Y168322D01*
X215472Y168415D01*
X215495Y168461D01*
Y168484D01*
X211723D01*
Y170405D01*
X215495D01*
X215333Y170960D01*
X215102Y171469D01*
X214847Y171909D01*
X214593Y172279D01*
X214338Y172580D01*
X214130Y172788D01*
X213968Y172927D01*
X213945Y172973D01*
X213922D01*
X213690Y173159D01*
X213436Y173297D01*
X212950Y173552D01*
X212464Y173737D01*
X212024Y173853D01*
X211654Y173922D01*
X211492Y173945D01*
X211353D01*
X211238Y173968D01*
X210844D01*
X210636Y173945D01*
X210474Y173922D01*
X210428D01*
Y175866D01*
X210682Y175889D01*
X211076D01*
X211561Y175866D01*
D02*
G37*
G36*
X222530D02*
X223016Y175820D01*
X223456Y175704D01*
X223895Y175588D01*
X224289Y175449D01*
X224682Y175287D01*
X225029Y175125D01*
X225330Y174940D01*
X225631Y174755D01*
X225885Y174593D01*
X226093Y174431D01*
X226279Y174292D01*
X226441Y174177D01*
X226533Y174084D01*
X226603Y174015D01*
X226626Y173992D01*
X226950Y173621D01*
X227250Y173251D01*
X227505Y172881D01*
X227713Y172487D01*
X227898Y172094D01*
X228037Y171724D01*
X228176Y171353D01*
X228269Y171006D01*
X228338Y170683D01*
X228407Y170382D01*
X228431Y170104D01*
X228477Y169873D01*
Y169687D01*
X228500Y169549D01*
Y169456D01*
Y169433D01*
X228477Y168947D01*
X228407Y168484D01*
X228315Y168021D01*
X228199Y167605D01*
X228060Y167188D01*
X227898Y166818D01*
X227736Y166471D01*
X227551Y166147D01*
X227389Y165869D01*
X227227Y165615D01*
X227065Y165407D01*
X226926Y165221D01*
X226788Y165059D01*
X226695Y164967D01*
X226649Y164898D01*
X226626Y164874D01*
X226255Y164550D01*
X225885Y164250D01*
X225492Y163995D01*
X225098Y163787D01*
X224728Y163602D01*
X224335Y163463D01*
X223965Y163324D01*
X223618Y163231D01*
X223293Y163162D01*
X222993Y163093D01*
X222715Y163069D01*
X222484Y163023D01*
X222299D01*
X222160Y163000D01*
X221813D01*
X221604Y163023D01*
X221396D01*
Y164967D01*
X221627Y164944D01*
X221836Y164921D01*
X222044D01*
X222391Y164944D01*
X222715Y164967D01*
X223039Y165036D01*
X223340Y165129D01*
X223872Y165337D01*
X224335Y165592D01*
X224543Y165707D01*
X224728Y165823D01*
X224867Y165939D01*
X225006Y166031D01*
X225098Y166124D01*
X225168Y166193D01*
X225214Y166217D01*
X225237Y166240D01*
X225469Y166494D01*
X225677Y166772D01*
X225839Y167026D01*
X226001Y167304D01*
X226117Y167582D01*
X226232Y167836D01*
X226394Y168345D01*
X226487Y168785D01*
X226510Y168970D01*
X226533Y169132D01*
X226556Y169248D01*
Y169340D01*
Y169410D01*
Y169433D01*
X226533Y169780D01*
X226510Y170104D01*
X226441Y170428D01*
X226348Y170729D01*
X226140Y171261D01*
X225885Y171724D01*
X225769Y171932D01*
X225654Y172117D01*
X225538Y172256D01*
X225446Y172395D01*
X225353Y172487D01*
X225284Y172557D01*
X225260Y172603D01*
X225237Y172626D01*
X224983Y172858D01*
X224728Y173066D01*
X224450Y173251D01*
X224173Y173413D01*
X223918Y173529D01*
X223641Y173644D01*
X223155Y173806D01*
X222715Y173899D01*
X222507Y173922D01*
X222368Y173945D01*
X222229Y173968D01*
X221813D01*
X221604Y173945D01*
X221442Y173922D01*
X221396D01*
Y175866D01*
X221604Y175889D01*
X222044D01*
X222530Y175866D01*
D02*
G37*
%LPC*%
G36*
X172351Y165140D02*
X172235D01*
X172003Y165117D01*
X171842Y165025D01*
X171703Y164932D01*
X171633Y164793D01*
X171587Y164678D01*
X171541Y164562D01*
Y164469D01*
Y164446D01*
X171564Y164215D01*
X171656Y164053D01*
X171749Y163914D01*
X171888Y163845D01*
X172003Y163798D01*
X172119Y163775D01*
X172212Y163752D01*
X172235D01*
X172466Y163775D01*
X172628Y163868D01*
X172767Y163983D01*
X172837Y164099D01*
X172883Y164238D01*
X172906Y164330D01*
X172929Y164423D01*
Y164446D01*
X172906Y164678D01*
X172813Y164839D01*
X172698Y164978D01*
X172582Y165048D01*
X172443Y165094D01*
X172351Y165140D01*
D02*
G37*
G36*
X176747Y163914D02*
X176655D01*
Y163358D01*
X176747D01*
Y163914D01*
D02*
G37*
G36*
X177395Y175276D02*
Y174882D01*
X177881D01*
Y174952D01*
X177765Y175067D01*
X177627Y175160D01*
X177395Y175276D01*
D02*
G37*
G36*
X170685Y175206D02*
X170661D01*
X170546Y175183D01*
X170476Y175114D01*
X170453Y175021D01*
Y174998D01*
X170476Y174882D01*
X170546Y174836D01*
X170638Y174813D01*
X170661D01*
X170777Y174836D01*
X170823Y174905D01*
X170846Y174975D01*
Y174998D01*
X170823Y175114D01*
X170754Y175183D01*
X170685Y175206D01*
D02*
G37*
G36*
X171147Y173424D02*
X170384D01*
Y172661D01*
X171147D01*
Y173424D01*
D02*
G37*
G36*
X174965Y176016D02*
X173554D01*
Y175785D01*
X174965D01*
Y176016D01*
D02*
G37*
G36*
X175382Y175692D02*
Y175391D01*
X173161D01*
Y175646D01*
X172698Y175576D01*
X172281Y175484D01*
X171934Y175391D01*
X171656Y175252D01*
X171448Y175137D01*
X171286Y174975D01*
Y174882D01*
X176446D01*
Y175553D01*
X176122Y175623D01*
X175775Y175669D01*
X175382Y175692D01*
D02*
G37*
G36*
X177002Y175785D02*
X176840D01*
Y175252D01*
X177002D01*
Y175785D01*
D02*
G37*
G36*
X175035Y171689D02*
X172952D01*
Y171550D01*
X175035D01*
Y171689D01*
D02*
G37*
G36*
X171541Y172499D02*
Y172267D01*
X171494D01*
X171957Y166876D01*
X174479Y169491D01*
X172860Y171157D01*
X172513D01*
Y171504D01*
X171541Y172499D01*
D02*
G37*
G36*
X174757Y169190D02*
X172003Y166344D01*
X172050Y165834D01*
X172235Y165858D01*
X172443Y165834D01*
X172698Y165765D01*
X172952Y165649D01*
X173137Y165510D01*
X173299Y165349D01*
X173461Y165117D01*
X173577Y164839D01*
X173646Y164539D01*
X173623Y164330D01*
X176886D01*
X177118Y166760D01*
X174757Y169190D01*
D02*
G37*
G36*
X177812Y174165D02*
X171333D01*
X171379Y173818D01*
X171541D01*
Y173077D01*
X172513Y172082D01*
X175428D01*
Y171157D01*
X173415D01*
X174757Y169768D01*
X177696Y172823D01*
X177812Y174165D01*
D02*
G37*
G36*
X177627Y172175D02*
X175035Y169491D01*
X177164Y167292D01*
X177627Y172175D01*
D02*
G37*
%LPD*%
G36*
X172397Y164886D02*
X172513Y164839D01*
X172582Y164770D01*
X172628Y164678D01*
X172698Y164515D01*
Y164469D01*
Y164446D01*
X172675Y164284D01*
X172628Y164168D01*
X172559Y164099D01*
X172466Y164053D01*
X172304Y163983D01*
X172235D01*
X172073Y164006D01*
X171957Y164053D01*
X171888Y164122D01*
X171818Y164215D01*
X171772Y164377D01*
Y164423D01*
Y164446D01*
X171795Y164608D01*
X171842Y164724D01*
X171911Y164793D01*
X172003Y164863D01*
X172166Y164909D01*
X172235D01*
X172397Y164886D01*
D02*
G37*
%LPC*%
G36*
X172258Y164515D02*
X172189D01*
X172166Y164492D01*
Y164469D01*
Y164446D01*
Y164400D01*
X172189Y164377D01*
X172235D01*
X172281Y164400D01*
X172304Y164423D01*
Y164446D01*
X172281Y164492D01*
X172258Y164515D01*
D02*
G37*
G36*
X196490Y177613D02*
X196327D01*
X195656Y177590D01*
X195032Y177497D01*
X194407Y177381D01*
X193851Y177219D01*
X193296Y177011D01*
X192787Y176803D01*
X192324Y176572D01*
X191885Y176340D01*
X191514Y176085D01*
X191167Y175854D01*
X190866Y175646D01*
X190635Y175438D01*
X190427Y175276D01*
X190288Y175160D01*
X190195Y175067D01*
X190172Y175044D01*
X189733Y174558D01*
X189339Y174049D01*
X188992Y173540D01*
X188691Y173008D01*
X188460Y172499D01*
X188252Y171990D01*
X188090Y171481D01*
X187951Y171018D01*
X187835Y170578D01*
X187766Y170162D01*
X187696Y169815D01*
X187673Y169491D01*
X187650Y169236D01*
X187627Y169051D01*
Y168935D01*
Y168889D01*
X187650Y168218D01*
X187742Y167593D01*
X187858Y166991D01*
X188020Y166413D01*
X188205Y165858D01*
X188437Y165349D01*
X188668Y164886D01*
X188900Y164469D01*
X189131Y164076D01*
X189362Y163729D01*
X189571Y163428D01*
X189779Y163197D01*
X189840Y163118D01*
X189825Y163104D01*
X189999Y162919D01*
X190057Y162849D01*
X190149Y162757D01*
X190172Y162734D01*
X189999Y162919D01*
X189941Y162988D01*
X189840Y163118D01*
X192509Y165788D01*
X192370Y165881D01*
X192255Y165973D01*
X192162Y166043D01*
X192139Y166066D01*
X191885Y166344D01*
X191700Y166667D01*
X191561Y166968D01*
X191468Y167269D01*
X191422Y167524D01*
X191376Y167732D01*
Y167871D01*
Y167894D01*
Y167917D01*
X191399Y168264D01*
X191445Y168588D01*
X191537Y168843D01*
X191607Y169074D01*
X191700Y169259D01*
X191792Y169375D01*
X191838Y169467D01*
X191861Y169491D01*
X192047Y169676D01*
X192255Y169815D01*
X192440Y169930D01*
X192625Y170000D01*
X192787Y170046D01*
X192903Y170069D01*
X193018D01*
X193296Y170023D01*
X193551Y169930D01*
X193782Y169791D01*
X193967Y169630D01*
X194152Y169467D01*
X194268Y169329D01*
X194361Y169236D01*
X194384Y169190D01*
Y172314D01*
X194592D01*
X195888Y171782D01*
X195818Y171619D01*
X195680Y171666D01*
X195587Y171689D01*
X195494D01*
X195356Y171666D01*
X195333Y171643D01*
X195309D01*
X195263Y171573D01*
X195217Y171504D01*
X195194Y171434D01*
Y171411D01*
Y171319D01*
X195170Y171203D01*
Y170902D01*
Y170740D01*
Y170624D01*
Y170532D01*
Y170509D01*
Y168426D01*
X196304Y169583D01*
X196258Y169815D01*
X196212Y170023D01*
Y170115D01*
Y170162D01*
Y170208D01*
Y170231D01*
X196235Y170439D01*
X196258Y170624D01*
X196327Y170810D01*
X196374Y170948D01*
X196443Y171064D01*
X196513Y171157D01*
X196536Y171203D01*
X196559Y171226D01*
X196698Y171388D01*
X196837Y171504D01*
X196975Y171619D01*
X197114Y171689D01*
X197230Y171758D01*
X197299Y171805D01*
X197369Y171828D01*
X197392D01*
X197600Y171897D01*
X197808Y171943D01*
X198040Y171967D01*
X198248Y171990D01*
X198433Y172013D01*
X198734D01*
X202136Y175391D01*
X202483Y175044D01*
X202737Y174790D01*
X202622Y174928D01*
X202529Y175021D01*
X202506Y175044D01*
X202020Y175507D01*
X201511Y175900D01*
X200979Y176224D01*
X200446Y176525D01*
X199937Y176780D01*
X199428Y176988D01*
X198919Y177150D01*
X198456Y177289D01*
X198017Y177404D01*
X197600Y177474D01*
X197253Y177543D01*
X196929Y177567D01*
X196675Y177590D01*
X196490Y177613D01*
D02*
G37*
G36*
X198318Y171596D02*
X198179Y171550D01*
X198063Y171504D01*
X197970Y171458D01*
X197947Y171434D01*
X197739Y171272D01*
X197600Y171110D01*
X197485Y170972D01*
X197461Y170925D01*
Y170902D01*
X197392Y170786D01*
X197369Y170694D01*
X197346Y170648D01*
Y170624D01*
X198318Y171596D01*
D02*
G37*
G36*
X202737Y174790D02*
X202798Y174712D01*
X200099Y172013D01*
X201094D01*
Y171828D01*
X200840D01*
X200608Y171805D01*
X200446Y171735D01*
X200331Y171643D01*
X200308Y171619D01*
X200261Y171550D01*
X200215Y171458D01*
X200192Y171203D01*
X200169Y171087D01*
Y170972D01*
Y170902D01*
Y170879D01*
Y166737D01*
Y166552D01*
X200192Y166390D01*
Y166274D01*
X200215Y166182D01*
X200238Y166112D01*
Y166066D01*
X200261Y166043D01*
X200331Y165950D01*
X200423Y165904D01*
X200608Y165811D01*
X200770Y165788D01*
X201094D01*
Y165603D01*
X198341D01*
Y165788D01*
X198595D01*
X198827Y165811D01*
X198989Y165881D01*
X199081Y165950D01*
X199127Y165973D01*
X199174Y166043D01*
X199197Y166158D01*
X199243Y166413D01*
X199266Y166529D01*
Y166644D01*
Y166714D01*
Y166737D01*
Y168588D01*
X199035Y168542D01*
X198850Y168519D01*
X198734Y168496D01*
X198688D01*
X198479Y168473D01*
X198179D01*
X197901Y168496D01*
X197646Y168519D01*
X197438Y168588D01*
X197253Y168658D01*
X197091Y168704D01*
X196999Y168773D01*
X196929Y168796D01*
X196906Y168820D01*
X195170Y167061D01*
Y166020D01*
X194870Y165834D01*
X194615Y165719D01*
X194499Y165673D01*
X194430Y165626D01*
X194384Y165603D01*
X194361D01*
X194083Y165534D01*
X193851Y165487D01*
X193736Y165464D01*
X193574D01*
X190524Y162415D01*
X190658Y162294D01*
X191167Y161901D01*
X191676Y161554D01*
X192209Y161253D01*
X192718Y161021D01*
X193227Y160813D01*
X193736Y160651D01*
X194199Y160512D01*
X194638Y160397D01*
X195055Y160327D01*
X195402Y160258D01*
X195726Y160235D01*
X195980Y160212D01*
X196166Y160188D01*
X196327D01*
X196999Y160212D01*
X197623Y160304D01*
X198248Y160420D01*
X198803Y160582D01*
X199359Y160790D01*
X199868Y160998D01*
X200331Y161230D01*
X200770Y161461D01*
X201164Y161692D01*
X201511Y161924D01*
X201788Y162155D01*
X202043Y162340D01*
X202251Y162502D01*
X202390Y162618D01*
X202483Y162711D01*
X202506Y162734D01*
X202945Y163220D01*
X203339Y163729D01*
X203686Y164238D01*
X203987Y164770D01*
X204218Y165279D01*
X204427Y165811D01*
X204589Y166297D01*
X204727Y166760D01*
X204843Y167200D01*
X204912Y167616D01*
X204982Y167963D01*
X205005Y168287D01*
X205028Y168542D01*
X205051Y168727D01*
Y168843D01*
Y168889D01*
X205028Y169560D01*
X204936Y170185D01*
X204820Y170810D01*
X204658Y171365D01*
X204450Y171920D01*
X204241Y172429D01*
X204010Y172892D01*
X203779Y173332D01*
X203547Y173702D01*
X203316Y174049D01*
X203084Y174350D01*
X202899Y174581D01*
X202798Y174712D01*
X202807Y174720D01*
X202737Y174790D01*
D02*
G37*
G36*
X190172Y162734D02*
X190519Y162410D01*
X190524Y162415D01*
X190172Y162734D01*
D02*
G37*
G36*
X199266Y171157D02*
X197485Y169375D01*
X197531Y169282D01*
X197600Y169213D01*
X197623Y169190D01*
X197646Y169167D01*
X197785Y169028D01*
X197924Y168935D01*
X198063Y168866D01*
X198202Y168820D01*
X198318Y168796D01*
X198410Y168773D01*
X198595D01*
X198711Y168796D01*
X198827D01*
X198965Y168820D01*
X199104Y168843D01*
X199220Y168866D01*
X199266D01*
Y171157D01*
D02*
G37*
G36*
X193435Y169375D02*
X193389D01*
X193227Y169352D01*
X193065Y169306D01*
X192787Y169167D01*
X192694Y169074D01*
X192625Y169005D01*
X192579Y168958D01*
X192556Y168935D01*
X192440Y168750D01*
X192347Y168542D01*
X192278Y168334D01*
X192232Y168125D01*
X192209Y167940D01*
X192185Y167801D01*
Y167709D01*
Y167663D01*
X192209Y167339D01*
X192232Y167061D01*
X192301Y166830D01*
X192370Y166644D01*
X192440Y166482D01*
X192486Y166390D01*
X192533Y166320D01*
X192556Y166297D01*
X192625Y166182D01*
X192694Y166112D01*
X192764Y166066D01*
X192787Y166043D01*
X194384Y167639D01*
Y168889D01*
X194176Y169074D01*
X194037Y169190D01*
X193921Y169236D01*
X193898Y169259D01*
X193713Y169329D01*
X193551Y169352D01*
X193435Y169375D01*
D02*
G37*
%LPD*%
D19*
X262000Y308397D02*
Y312396D01*
X260667Y311063D01*
X259334Y312396D01*
Y308397D01*
X258001D02*
X256668D01*
X257335D01*
Y312396D01*
X258001Y311729D01*
X250670Y308397D02*
Y312396D01*
X249337Y311063D01*
X248005Y312396D01*
Y308397D01*
X246672Y311729D02*
X246005Y312396D01*
X244672D01*
X244006Y311729D01*
Y309063D01*
X244672Y308397D01*
X246005D01*
X246672Y309063D01*
Y311729D01*
X234676Y308397D02*
Y312396D01*
X233343Y311063D01*
X232010Y312396D01*
Y308397D01*
X230010D02*
X228677D01*
X228011Y309063D01*
Y310396D01*
X228677Y311063D01*
X230010D01*
X230677Y310396D01*
Y309063D01*
X230010Y308397D01*
X224012Y312396D02*
Y308397D01*
X226012D01*
X226678Y309063D01*
Y310396D01*
X226012Y311063D01*
X224012D01*
X220680Y308397D02*
X222013D01*
X222679Y309063D01*
Y310396D01*
X222013Y311063D01*
X220680D01*
X220013Y310396D01*
Y309730D01*
X222679D01*
X262000Y304531D02*
X261334Y305197D01*
X260001D01*
X259334Y304531D01*
Y301865D01*
X260001Y301199D01*
X261334D01*
X262000Y301865D01*
Y304531D01*
X250004Y301199D02*
X248671D01*
X249337D01*
Y305197D01*
X250004Y304531D01*
X232010D02*
X232676Y305197D01*
X234009D01*
X234676Y304531D01*
Y303864D01*
X234009Y303198D01*
X232676D01*
X232010Y302531D01*
Y301865D01*
X232676Y301199D01*
X234009D01*
X234676Y301865D01*
X230677Y301199D02*
Y305197D01*
X228677D01*
X228011Y304531D01*
Y303198D01*
X228677Y302531D01*
X230677D01*
X226678Y305197D02*
X225345D01*
X226012D01*
Y301199D01*
X226678D01*
X225345D01*
X216681Y305197D02*
X219347D01*
Y303198D01*
X218014D01*
X219347D01*
Y301199D01*
X215348D02*
X214016D01*
X214682D01*
Y305197D01*
X215348D01*
X211350Y303864D02*
X210017D01*
X209350Y303198D01*
Y301199D01*
X211350D01*
X212016Y301865D01*
X211350Y302531D01*
X209350D01*
X208017Y301199D02*
X206018D01*
X205352Y301865D01*
X206018Y302531D01*
X207351D01*
X208017Y303198D01*
X207351Y303864D01*
X205352D01*
X204019Y305197D02*
Y301199D01*
Y303198D01*
X203352Y303864D01*
X202019D01*
X201353Y303198D01*
Y301199D01*
X262000Y294000D02*
X260667D01*
X261334D01*
Y297999D01*
X262000Y297332D01*
X250670Y294000D02*
X249337D01*
X250004D01*
Y297999D01*
X250670Y297332D01*
X232676D02*
X233343Y297999D01*
X234676D01*
X235342Y297332D01*
Y294666D01*
X234676Y294000D01*
X233343D01*
X232676Y294666D01*
X231343Y297999D02*
Y294000D01*
X230010Y295333D01*
X228677Y294000D01*
Y297999D01*
X227344Y295999D02*
X224679D01*
X220680Y297332D02*
X221346Y297999D01*
X222679D01*
X223346Y297332D01*
Y296666D01*
X222679Y295999D01*
X221346D01*
X220680Y295333D01*
Y294666D01*
X221346Y294000D01*
X222679D01*
X223346Y294666D01*
X219347Y294000D02*
Y297999D01*
X217348D01*
X216681Y297332D01*
Y295999D01*
X217348Y295333D01*
X219347D01*
X215348Y297999D02*
X214016D01*
X214682D01*
Y294000D01*
X215348D01*
X214016D01*
X208501Y218249D02*
X209251Y218999D01*
X210750D01*
X211500Y218249D01*
Y215250D01*
X210750Y214500D01*
X209251D01*
X208501Y215250D01*
X207001Y214500D02*
X205502D01*
X206252D01*
Y218999D01*
X207001Y218249D01*
X203253Y218999D02*
X200254D01*
Y218249D01*
X203253Y215250D01*
Y214500D01*
X195000Y255499D02*
Y251750D01*
X194250Y251000D01*
X192751D01*
X192001Y251750D01*
Y255499D01*
X187502Y251000D02*
X190501D01*
X187502Y253999D01*
Y254749D01*
X188252Y255499D01*
X189752D01*
X190501Y254749D01*
X211000Y257500D02*
Y261999D01*
X208751D01*
X208001Y261249D01*
Y259749D01*
X208751Y258999D01*
X211000D01*
X209501D02*
X208001Y257500D01*
X203502D02*
X206502D01*
X203502Y260499D01*
Y261249D01*
X204252Y261999D01*
X205752D01*
X206502Y261249D01*
X227334Y267332D02*
X228001Y267999D01*
X229334D01*
X230000Y267332D01*
Y266666D01*
X229334Y265999D01*
X228001D01*
X227334Y265333D01*
Y264666D01*
X228001Y264000D01*
X229334D01*
X230000Y264666D01*
X226001Y264000D02*
Y267999D01*
X224002D01*
X223336Y267332D01*
Y265999D01*
X224002Y265333D01*
X226001D01*
X222003Y267999D02*
X220670D01*
X221336D01*
Y264000D01*
X222003D01*
X220670D01*
X212006Y267999D02*
X214672D01*
Y265999D01*
X213339D01*
X214672D01*
Y264000D01*
X210673D02*
X209340D01*
X210006D01*
Y267999D01*
X210673D01*
X206674Y266666D02*
X205341D01*
X204675Y265999D01*
Y264000D01*
X206674D01*
X207341Y264666D01*
X206674Y265333D01*
X204675D01*
X203342Y264000D02*
X201343D01*
X200676Y264666D01*
X201343Y265333D01*
X202676D01*
X203342Y265999D01*
X202676Y266666D01*
X200676D01*
X199343Y267999D02*
Y264000D01*
Y265999D01*
X198677Y266666D01*
X197344D01*
X196677Y265999D01*
Y264000D01*
X191346D02*
Y267999D01*
X189347D01*
X188680Y267332D01*
Y265999D01*
X189347Y265333D01*
X191346D01*
X186681Y266666D02*
X185348D01*
X184681Y265999D01*
Y264000D01*
X186681D01*
X187347Y264666D01*
X186681Y265333D01*
X184681D01*
X183348Y266666D02*
Y264000D01*
Y265333D01*
X182682Y265999D01*
X182016Y266666D01*
X181349D01*
X178683Y267332D02*
Y266666D01*
X179350D01*
X178017D01*
X178683D01*
Y264666D01*
X178017Y264000D01*
X176017D02*
X174018D01*
X173352Y264666D01*
X174018Y265333D01*
X175351D01*
X176017Y265999D01*
X175351Y266666D01*
X173352D01*
X259834Y319999D02*
X262500D01*
Y317999D01*
X261167D01*
X262500D01*
Y316000D01*
X258501D02*
Y319999D01*
X256502D01*
X255836Y319332D01*
Y317999D01*
X256502Y317333D01*
X258501D01*
X251837Y319332D02*
X252503Y319999D01*
X253836D01*
X254503Y319332D01*
Y316666D01*
X253836Y316000D01*
X252503D01*
X251837Y316666D01*
Y317999D01*
X253170D01*
X250504Y316000D02*
Y318666D01*
X249171Y319999D01*
X247838Y318666D01*
Y316000D01*
Y317999D01*
X250504D01*
X239841Y319332D02*
X240507Y319999D01*
X241840D01*
X242506Y319332D01*
Y316666D01*
X241840Y316000D01*
X240507D01*
X239841Y316666D01*
X237841Y316000D02*
X236508D01*
X235842Y316666D01*
Y317999D01*
X236508Y318666D01*
X237841D01*
X238508Y317999D01*
Y316666D01*
X237841Y316000D01*
X234509D02*
Y318666D01*
X232510D01*
X231843Y317999D01*
Y316000D01*
X229844D02*
Y319332D01*
Y317999D01*
X230510D01*
X229177D01*
X229844D01*
Y319332D01*
X229177Y319999D01*
X227178Y316000D02*
X225845D01*
X226512D01*
Y318666D01*
X227178D01*
X222513Y314667D02*
X221847D01*
X221180Y315334D01*
Y318666D01*
X223179D01*
X223846Y317999D01*
Y316666D01*
X223179Y316000D01*
X221180D01*
X219847D02*
Y316666D01*
X219181D01*
Y316000D01*
X219847D01*
X166002Y130000D02*
X169334D01*
X171000Y128334D01*
X169334Y126668D01*
X166002D01*
X166835Y121669D02*
X166002Y122502D01*
Y124169D01*
X166835Y125002D01*
X170167D01*
X171000Y124169D01*
Y122502D01*
X170167Y121669D01*
X166835Y116671D02*
X166002Y117504D01*
Y119170D01*
X166835Y120003D01*
X170167D01*
X171000Y119170D01*
Y117504D01*
X170167Y116671D01*
X156502Y129500D02*
Y126168D01*
Y127834D01*
X161500D01*
X157335Y121169D02*
X156502Y122002D01*
Y123669D01*
X157335Y124502D01*
X160667D01*
X161500Y123669D01*
Y122002D01*
X160667Y121169D01*
X156502Y119503D02*
X161500D01*
X159834D01*
X156502Y116171D01*
X159001Y118670D01*
X161500Y116171D01*
X146502Y129500D02*
Y126168D01*
Y127834D01*
X151500D01*
Y124502D02*
X146502D01*
X148168Y122836D01*
X146502Y121169D01*
X151500D01*
X147335Y116171D02*
X146502Y117004D01*
Y118670D01*
X147335Y119503D01*
X148168D01*
X149001Y118670D01*
Y117004D01*
X149834Y116171D01*
X150667D01*
X151500Y117004D01*
Y118670D01*
X150667Y119503D01*
X136002Y129500D02*
Y126168D01*
Y127834D01*
X141000D01*
X136002Y124502D02*
X141000D01*
Y122002D01*
X140167Y121169D01*
X136835D01*
X136002Y122002D01*
Y124502D01*
Y117004D02*
Y118670D01*
X136835Y119503D01*
X140167D01*
X141000Y118670D01*
Y117004D01*
X140167Y116171D01*
X136835D01*
X136002Y117004D01*
X126502Y129000D02*
Y125668D01*
Y127334D01*
X131500D01*
X126502Y124002D02*
X131500D01*
Y121502D01*
X130667Y120669D01*
X127335D01*
X126502Y121502D01*
Y124002D01*
Y119003D02*
Y117337D01*
Y118170D01*
X131500D01*
Y119003D01*
Y117337D01*
X244000Y344000D02*
Y348998D01*
X240668Y344000D01*
Y348998D01*
X236502Y344000D02*
X238169D01*
X239002Y344833D01*
Y346499D01*
X238169Y347332D01*
X236502D01*
X235669Y346499D01*
Y345666D01*
X239002D01*
X234003Y347332D02*
Y344833D01*
X233170Y344000D01*
X232337Y344833D01*
X231504Y344000D01*
X230671Y344833D01*
Y347332D01*
X229005Y344000D02*
Y347332D01*
X227339Y348998D01*
X225673Y347332D01*
Y344000D01*
Y346499D01*
X229005D01*
X220674Y348998D02*
X224007D01*
Y344000D01*
X220674D01*
X224007Y346499D02*
X222340D01*
X214010Y348998D02*
X210678D01*
X212344D01*
Y344000D01*
X206512D02*
X208178D01*
X209011Y344833D01*
Y346499D01*
X208178Y347332D01*
X206512D01*
X205679Y346499D01*
Y345666D01*
X209011D01*
X200681Y347332D02*
X203180D01*
X204013Y346499D01*
Y344833D01*
X203180Y344000D01*
X200681D01*
X199015Y348998D02*
Y344000D01*
Y346499D01*
X198181Y347332D01*
X196515D01*
X195682Y346499D01*
Y344000D01*
X194016D02*
Y347332D01*
X191517D01*
X190684Y346499D01*
Y344000D01*
X188185D02*
X186519D01*
X185686Y344833D01*
Y346499D01*
X186519Y347332D01*
X188185D01*
X189018Y346499D01*
Y344833D01*
X188185Y344000D01*
X184019D02*
X182353D01*
X183186D01*
Y348998D01*
X184019D01*
X179021Y344000D02*
X177355D01*
X176522Y344833D01*
Y346499D01*
X177355Y347332D01*
X179021D01*
X179854Y346499D01*
Y344833D01*
X179021Y344000D01*
X173190Y342334D02*
X172356D01*
X171523Y343167D01*
Y347332D01*
X174023D01*
X174856Y346499D01*
Y344833D01*
X174023Y344000D01*
X171523D01*
X169857Y347332D02*
Y344833D01*
X169024Y344000D01*
X166525D01*
Y343167D01*
X167358Y342334D01*
X168191D01*
X166525Y344000D02*
Y347332D01*
X159861Y348998D02*
X158194D01*
X159028D01*
Y344000D01*
X159861D01*
X158194D01*
X155695D02*
Y347332D01*
X153196D01*
X152363Y346499D01*
Y344000D01*
X147365Y347332D02*
X149864D01*
X150697Y346499D01*
Y344833D01*
X149864Y344000D01*
X147365D01*
X145698D02*
Y344833D01*
X144866D01*
Y344000D01*
X145698D01*
X244000Y335000D02*
Y339998D01*
X240668Y335000D01*
Y339998D01*
X239002Y335000D02*
Y338332D01*
X237335Y339998D01*
X235669Y338332D01*
Y335000D01*
Y337499D01*
X239002D01*
X230671Y339998D02*
X234003D01*
Y335000D01*
X230671D01*
X234003Y337499D02*
X232337D01*
X229005D02*
X225673D01*
X220674Y339165D02*
X221507Y339998D01*
X223173D01*
X224007Y339165D01*
Y335833D01*
X223173Y335000D01*
X221507D01*
X220674Y335833D01*
X219008Y339998D02*
Y335000D01*
X217342Y336666D01*
X215676Y335000D01*
Y339998D01*
X214010Y339165D02*
X213177Y339998D01*
X211510D01*
X210678Y339165D01*
Y338332D01*
X211510Y337499D01*
X212344D01*
X211510D01*
X210678Y336666D01*
Y335833D01*
X211510Y335000D01*
X213177D01*
X214010Y335833D01*
X209011Y339165D02*
X208178Y339998D01*
X206512D01*
X205679Y339165D01*
Y335833D01*
X206512Y335000D01*
X208178D01*
X209011Y335833D01*
Y339165D01*
X204013D02*
X203180Y339998D01*
X201514D01*
X200681Y339165D01*
Y338332D01*
X201514Y337499D01*
X200681Y336666D01*
Y335833D01*
X201514Y335000D01*
X203180D01*
X204013Y335833D01*
Y336666D01*
X203180Y337499D01*
X204013Y338332D01*
Y339165D01*
X203180Y337499D02*
X201514D01*
X199015Y339998D02*
X195682D01*
X197348D01*
Y335000D01*
X194016Y337499D02*
X190684D01*
X185686Y339165D02*
X186519Y339998D01*
X188185D01*
X189018Y339165D01*
Y338332D01*
X188185Y337499D01*
X186519D01*
X185686Y336666D01*
Y335833D01*
X186519Y335000D01*
X188185D01*
X189018Y335833D01*
X180687Y339998D02*
X182353Y339165D01*
X184019Y337499D01*
Y335833D01*
X183186Y335000D01*
X181520D01*
X180687Y335833D01*
Y336666D01*
X181520Y337499D01*
X184019D01*
X179021Y339998D02*
Y335000D01*
X175689D01*
X174023Y339998D02*
X170690Y335000D01*
Y339998D02*
X174023Y335000D01*
X169024Y335833D02*
X168191Y335000D01*
X166525D01*
X165692Y335833D01*
Y339165D01*
X166525Y339998D01*
X168191D01*
X169024Y339165D01*
Y338332D01*
X168191Y337499D01*
X165692D01*
X164026D02*
X160694D01*
X159028Y339165D02*
X158194Y339998D01*
X156528D01*
X155695Y339165D01*
Y335833D01*
X156528Y335000D01*
X158194D01*
X159028Y335833D01*
Y339165D01*
X154029Y335000D02*
X152363D01*
X153196D01*
Y339998D01*
X154029Y339165D01*
X244000Y326500D02*
Y331498D01*
X241501D01*
X240668Y330665D01*
Y328999D01*
X241501Y328166D01*
X244000D01*
X242334D02*
X240668Y326500D01*
X238169D02*
X236502D01*
X235669Y327333D01*
Y328999D01*
X236502Y329832D01*
X238169D01*
X239002Y328999D01*
Y327333D01*
X238169Y326500D01*
X234003Y331498D02*
Y326500D01*
Y328999D01*
X230671D01*
Y331498D01*
Y326500D01*
X225673Y330665D02*
X226506Y331498D01*
X228172D01*
X229005Y330665D01*
Y329832D01*
X228172Y328999D01*
X226506D01*
X225673Y328166D01*
Y327333D01*
X226506Y326500D01*
X228172D01*
X229005Y327333D01*
X219008Y326500D02*
X215676Y329832D01*
X209011Y326500D02*
Y331498D01*
X206512D01*
X205679Y330665D01*
Y328999D01*
X206512Y328166D01*
X209011D01*
X204013Y331498D02*
Y326500D01*
X201514D01*
X200681Y327333D01*
Y328166D01*
X201514Y328999D01*
X204013D01*
X201514D01*
X200681Y329832D01*
Y330665D01*
X201514Y331498D01*
X204013D01*
X199015Y328999D02*
X195682D01*
X190684Y331498D02*
X194016D01*
Y328999D01*
X192350D01*
X194016D01*
Y326500D01*
X189018Y329832D02*
Y326500D01*
Y328166D01*
X188185Y328999D01*
X187352Y329832D01*
X186519D01*
X181520Y326500D02*
X183186D01*
X184019Y327333D01*
Y328999D01*
X183186Y329832D01*
X181520D01*
X180687Y328999D01*
Y328166D01*
X184019D01*
X176522Y326500D02*
X178188D01*
X179021Y327333D01*
Y328999D01*
X178188Y329832D01*
X176522D01*
X175689Y328999D01*
Y328166D01*
X179021D01*
D34*
X215941Y248847D02*
G03*
X215941Y248847I-492J0D01*
G01*
D35*
X233000Y212500D02*
Y270000D01*
X170500Y212500D02*
X233000D01*
X170500D02*
Y270000D01*
X233000D01*
X254000Y290000D02*
Y313500D01*
Y290000D02*
X254500D01*
X239000D02*
Y313500D01*
X198000Y306750D02*
X265000D01*
Y290000D02*
Y322500D01*
X198000Y290000D02*
X265000D01*
X198000D02*
Y322500D01*
X265000D01*
X202457Y228157D02*
X209543D01*
X202457Y247843D02*
X209543D01*
X202457Y228157D02*
Y247843D01*
X209543Y228157D02*
Y247843D01*
D36*
X201095Y255756D02*
X212906D01*
X201095Y250244D02*
X212906D01*
Y255756D01*
X201095Y250244D02*
Y255756D01*
X200594Y226256D02*
X212405D01*
X200594Y220744D02*
X212405D01*
Y226256D01*
X200594Y220744D02*
Y226256D01*
M02*
