G04 Layer_Color=16711935*
%FSLAX25Y25*%
%MOIN*%
G70*
G01*
G75*
G04:AMPARAMS|DCode=43|XSize=47.37mil|YSize=43.43mil|CornerRadius=8.43mil|HoleSize=0mil|Usage=FLASHONLY|Rotation=90.000|XOffset=0mil|YOffset=0mil|HoleType=Round|Shape=RoundedRectangle|*
%AMROUNDEDRECTD43*
21,1,0.04737,0.02658,0,0,90.0*
21,1,0.03051,0.04343,0,0,90.0*
1,1,0.01686,0.01329,0.01526*
1,1,0.01686,0.01329,-0.01526*
1,1,0.01686,-0.01329,-0.01526*
1,1,0.01686,-0.01329,0.01526*
%
%ADD43ROUNDEDRECTD43*%
%ADD45C,0.25800*%
%ADD46O,0.11800X0.06800*%
%ADD47R,0.11800X0.06800*%
%ADD48O,0.06800X0.11800*%
%ADD49R,0.06800X0.11800*%
%ADD50O,0.09461X0.03162*%
D43*
X203654Y253000D02*
D03*
X210347D02*
D03*
X203153Y223500D02*
D03*
X209846D02*
D03*
D45*
X278500Y338000D02*
D03*
X128500D02*
D03*
X198500Y138000D02*
D03*
D46*
X298500Y128000D02*
D03*
Y138000D02*
D03*
Y148000D02*
D03*
Y158000D02*
D03*
Y168000D02*
D03*
Y178000D02*
D03*
Y188000D02*
D03*
Y198000D02*
D03*
Y208000D02*
D03*
Y218000D02*
D03*
Y228000D02*
D03*
Y238000D02*
D03*
Y248000D02*
D03*
Y258000D02*
D03*
Y268000D02*
D03*
Y278000D02*
D03*
Y288000D02*
D03*
Y298000D02*
D03*
Y308000D02*
D03*
X108500Y128000D02*
D03*
Y138000D02*
D03*
Y148000D02*
D03*
Y158000D02*
D03*
Y168000D02*
D03*
Y178000D02*
D03*
Y188000D02*
D03*
Y198000D02*
D03*
Y208000D02*
D03*
Y218000D02*
D03*
Y228000D02*
D03*
Y238000D02*
D03*
Y248000D02*
D03*
Y258000D02*
D03*
Y268000D02*
D03*
Y278000D02*
D03*
Y288000D02*
D03*
Y298000D02*
D03*
Y308000D02*
D03*
D47*
X298500Y318000D02*
D03*
X108500D02*
D03*
D48*
X298500Y108000D02*
D03*
X288500D02*
D03*
X278500D02*
D03*
X268500D02*
D03*
X258500D02*
D03*
X248500D02*
D03*
X238500D02*
D03*
X228500D02*
D03*
X218500D02*
D03*
X208500D02*
D03*
X198500D02*
D03*
X188500D02*
D03*
X178500D02*
D03*
X168500D02*
D03*
X158500D02*
D03*
X148500D02*
D03*
X138500D02*
D03*
X128500D02*
D03*
X118500D02*
D03*
D49*
X108500D02*
D03*
D50*
X196551Y230500D02*
D03*
Y235500D02*
D03*
Y240500D02*
D03*
Y245500D02*
D03*
X215449Y230500D02*
D03*
Y235500D02*
D03*
Y240500D02*
D03*
Y245500D02*
D03*
M02*
