G04 Layer_Color=65535*
%FSLAX25Y25*%
%MOIN*%
G70*
G01*
G75*
%ADD17C,0.00800*%
%ADD19C,0.01000*%
%ADD33C,0.02362*%
%ADD34C,0.00984*%
%ADD35C,0.00787*%
%ADD36C,0.00394*%
%ADD37C,0.01500*%
G36*
X147500Y202364D02*
X148490D01*
Y202117D01*
X148738D01*
Y201869D01*
X148985D01*
Y201621D01*
X149233D01*
Y201374D01*
X149481D01*
Y201126D01*
X149728D01*
Y200879D01*
Y200631D01*
X149976D01*
Y200384D01*
Y200136D01*
Y199888D01*
X150223D01*
Y199641D01*
Y199393D01*
Y199146D01*
Y198898D01*
Y198651D01*
Y198403D01*
Y198155D01*
Y197908D01*
Y197660D01*
Y197413D01*
Y197165D01*
Y196917D01*
Y196670D01*
Y196422D01*
Y196175D01*
Y195927D01*
Y195680D01*
Y195432D01*
Y195185D01*
Y194937D01*
Y194689D01*
Y194442D01*
Y194194D01*
Y193947D01*
Y193699D01*
Y193451D01*
Y193204D01*
Y192956D01*
Y192709D01*
Y192461D01*
Y192214D01*
Y191966D01*
Y191718D01*
Y191471D01*
Y191223D01*
Y190976D01*
Y190728D01*
Y190481D01*
Y190233D01*
Y189986D01*
Y189738D01*
Y189490D01*
Y189243D01*
Y188995D01*
Y188748D01*
Y188500D01*
Y188252D01*
Y188005D01*
Y187757D01*
Y187510D01*
Y187262D01*
Y187015D01*
Y186767D01*
Y186520D01*
Y186272D01*
Y186024D01*
Y185777D01*
Y185529D01*
Y185282D01*
Y185034D01*
Y184786D01*
Y184539D01*
Y184291D01*
Y184044D01*
Y183796D01*
Y183549D01*
Y183301D01*
Y183053D01*
Y182806D01*
Y182558D01*
Y182311D01*
Y182063D01*
Y181816D01*
Y181568D01*
Y181320D01*
Y181073D01*
Y180825D01*
Y180578D01*
Y180330D01*
Y180082D01*
Y179835D01*
Y179587D01*
Y179340D01*
Y179092D01*
Y178845D01*
Y178597D01*
Y178349D01*
Y178102D01*
Y177854D01*
Y177607D01*
Y177359D01*
Y177112D01*
Y176864D01*
Y176617D01*
Y176369D01*
Y176121D01*
Y175874D01*
Y175626D01*
Y175379D01*
Y175131D01*
Y174883D01*
Y174636D01*
Y174388D01*
Y174141D01*
Y173893D01*
Y173646D01*
Y173398D01*
Y173151D01*
Y172903D01*
Y172655D01*
Y172408D01*
Y172160D01*
Y171913D01*
Y171665D01*
Y171417D01*
Y171170D01*
Y170922D01*
Y170675D01*
Y170427D01*
Y170180D01*
Y169932D01*
Y169685D01*
Y169437D01*
Y169189D01*
Y168942D01*
Y168694D01*
X150471D01*
Y168447D01*
Y168199D01*
X150718D01*
Y167952D01*
X150966D01*
Y167704D01*
X151214D01*
Y167456D01*
X151461D01*
Y167209D01*
Y166961D01*
X151709D01*
Y166714D01*
X151956D01*
Y166466D01*
Y166218D01*
X152204D01*
Y165971D01*
X152452D01*
Y165723D01*
Y165476D01*
X152699D01*
Y165228D01*
Y164981D01*
X152947D01*
Y164733D01*
Y164485D01*
X153194D01*
Y164238D01*
Y163990D01*
X153442D01*
Y163743D01*
Y163495D01*
Y163248D01*
X153689D01*
Y163000D01*
Y162752D01*
X153937D01*
Y162505D01*
Y162257D01*
Y162010D01*
X154184D01*
Y161762D01*
Y161515D01*
Y161267D01*
Y161019D01*
X154432D01*
Y160772D01*
Y160524D01*
Y160277D01*
Y160029D01*
Y159782D01*
Y159534D01*
Y159286D01*
X154680D01*
Y159039D01*
Y158791D01*
Y158544D01*
Y158296D01*
Y158048D01*
Y157801D01*
Y157553D01*
Y157306D01*
Y157058D01*
X154432D01*
Y156811D01*
X154680D01*
Y156563D01*
X154927D01*
Y156316D01*
Y156068D01*
Y155820D01*
X154680D01*
Y155573D01*
X153937D01*
Y155820D01*
X153689D01*
Y155573D01*
Y155325D01*
X153937D01*
Y155078D01*
Y154830D01*
X153689D01*
Y154583D01*
X152699D01*
Y154830D01*
X152452D01*
Y154583D01*
X152204D01*
Y154335D01*
Y154087D01*
X151461D01*
Y154335D01*
X151214D01*
Y154583D01*
X150966D01*
Y154830D01*
X150718D01*
Y154583D01*
X149728D01*
Y154830D01*
X149481D01*
Y155078D01*
Y155325D01*
X149728D01*
Y155573D01*
X148738D01*
Y155820D01*
X148490D01*
Y156068D01*
Y156316D01*
Y156563D01*
X148738D01*
Y156811D01*
X148985D01*
Y157058D01*
X148738D01*
Y157306D01*
Y157553D01*
Y157801D01*
Y158048D01*
Y158296D01*
Y158544D01*
Y158791D01*
Y159039D01*
Y159286D01*
Y159534D01*
Y159782D01*
Y160029D01*
X148490D01*
Y160277D01*
Y160524D01*
Y160772D01*
Y161019D01*
Y161267D01*
Y161515D01*
X148243D01*
Y161762D01*
Y162010D01*
Y162257D01*
Y162505D01*
X147995D01*
Y162752D01*
Y163000D01*
Y163248D01*
X147748D01*
Y163000D01*
X147500D01*
Y162752D01*
Y162505D01*
Y162257D01*
Y162010D01*
Y161762D01*
Y161515D01*
Y161267D01*
X147252D01*
Y161019D01*
Y160772D01*
Y160524D01*
Y160277D01*
X147005D01*
Y160029D01*
Y159782D01*
Y159534D01*
Y159286D01*
X146757D01*
Y159039D01*
Y158791D01*
Y158544D01*
Y158296D01*
X146510D01*
Y158048D01*
Y157801D01*
Y157553D01*
Y157306D01*
Y157058D01*
X146262D01*
Y156811D01*
Y156563D01*
Y156316D01*
Y156068D01*
Y155820D01*
Y155573D01*
Y155325D01*
Y155078D01*
X146015D01*
Y154830D01*
Y154583D01*
Y154335D01*
Y154087D01*
X137845D01*
Y154335D01*
Y154583D01*
Y154830D01*
Y155078D01*
Y155325D01*
Y155573D01*
X137597D01*
Y155820D01*
Y156068D01*
Y156316D01*
Y156563D01*
Y156811D01*
Y157058D01*
Y157306D01*
Y157553D01*
Y157801D01*
Y158048D01*
Y158296D01*
Y158544D01*
Y158791D01*
X137349D01*
Y159039D01*
Y159286D01*
Y159534D01*
Y159782D01*
Y160029D01*
Y160277D01*
Y160524D01*
X137102D01*
Y160277D01*
Y160029D01*
Y159782D01*
Y159534D01*
Y159286D01*
Y159039D01*
Y158791D01*
Y158544D01*
Y158296D01*
X136854D01*
Y158048D01*
Y157801D01*
Y157553D01*
Y157306D01*
Y157058D01*
Y156811D01*
Y156563D01*
Y156316D01*
Y156068D01*
Y155820D01*
Y155573D01*
Y155325D01*
Y155078D01*
X136607D01*
Y154830D01*
Y154583D01*
Y154335D01*
Y154087D01*
X128437D01*
Y154335D01*
Y154583D01*
Y154830D01*
Y155078D01*
Y155325D01*
Y155573D01*
X128189D01*
Y155820D01*
Y156068D01*
Y156316D01*
Y156563D01*
Y156811D01*
Y157058D01*
Y157306D01*
X127942D01*
Y157553D01*
Y157801D01*
Y158048D01*
Y158296D01*
X127694D01*
Y158544D01*
Y158791D01*
Y159039D01*
Y159286D01*
X127447D01*
Y159534D01*
Y159782D01*
Y160029D01*
Y160277D01*
Y160524D01*
X127199D01*
Y160772D01*
Y161019D01*
Y161267D01*
Y161515D01*
X126951D01*
Y161762D01*
Y162010D01*
Y162257D01*
Y162505D01*
Y162752D01*
Y163000D01*
Y163248D01*
X126456D01*
Y163000D01*
Y162752D01*
Y162505D01*
Y162257D01*
X126209D01*
Y162010D01*
Y161762D01*
Y161515D01*
Y161267D01*
X125961D01*
Y161019D01*
Y160772D01*
Y160524D01*
Y160277D01*
Y160029D01*
Y159782D01*
X125714D01*
Y159534D01*
Y159286D01*
Y159039D01*
Y158791D01*
Y158544D01*
Y158296D01*
Y158048D01*
Y157801D01*
Y157553D01*
Y157306D01*
Y157058D01*
Y156811D01*
Y156563D01*
X125961D01*
Y156316D01*
Y156068D01*
Y155820D01*
X125714D01*
Y155573D01*
X124723D01*
Y155325D01*
X124971D01*
Y155078D01*
Y154830D01*
X124723D01*
Y154583D01*
X123733D01*
Y154830D01*
X123485D01*
Y154583D01*
Y154335D01*
X123238D01*
Y154087D01*
X122495D01*
Y154335D01*
X122248D01*
Y154583D01*
Y154830D01*
X121752D01*
Y154583D01*
X120762D01*
Y154830D01*
Y155078D01*
Y155325D01*
Y155573D01*
Y155820D01*
X120515D01*
Y155573D01*
X119772D01*
Y155820D01*
Y156068D01*
X119524D01*
Y156316D01*
Y156563D01*
X119772D01*
Y156811D01*
X120019D01*
Y157058D01*
X119772D01*
Y157306D01*
Y157553D01*
Y157801D01*
Y158048D01*
Y158296D01*
Y158544D01*
Y158791D01*
Y159039D01*
X120019D01*
Y159286D01*
Y159534D01*
Y159782D01*
Y160029D01*
Y160277D01*
Y160524D01*
Y160772D01*
X120267D01*
Y161019D01*
Y161267D01*
Y161515D01*
Y161762D01*
X120515D01*
Y162010D01*
Y162257D01*
Y162505D01*
X120762D01*
Y162752D01*
Y163000D01*
Y163248D01*
X121010D01*
Y163495D01*
Y163743D01*
Y163990D01*
X121257D01*
Y164238D01*
Y164485D01*
X121505D01*
Y164733D01*
Y164981D01*
X121752D01*
Y165228D01*
Y165476D01*
X122000D01*
Y165723D01*
X122248D01*
Y165971D01*
Y166218D01*
X122495D01*
Y166466D01*
Y166714D01*
X122743D01*
Y166961D01*
X122990D01*
Y167209D01*
X123238D01*
Y167456D01*
Y167704D01*
X123485D01*
Y167952D01*
X123733D01*
Y168199D01*
X123980D01*
Y168447D01*
X124228D01*
Y168694D01*
Y168942D01*
X124476D01*
Y169189D01*
Y169437D01*
Y169685D01*
Y169932D01*
Y170180D01*
Y170427D01*
Y170675D01*
Y170922D01*
Y171170D01*
Y171417D01*
Y171665D01*
Y171913D01*
Y172160D01*
Y172408D01*
Y172655D01*
Y172903D01*
Y173151D01*
Y173398D01*
Y173646D01*
Y173893D01*
Y174141D01*
Y174388D01*
Y174636D01*
Y174883D01*
Y175131D01*
Y175379D01*
Y175626D01*
Y175874D01*
Y176121D01*
Y176369D01*
Y176617D01*
Y176864D01*
Y177112D01*
Y177359D01*
Y177607D01*
Y177854D01*
Y178102D01*
Y178349D01*
Y178597D01*
Y178845D01*
Y179092D01*
Y179340D01*
Y179587D01*
Y179835D01*
Y180082D01*
Y180330D01*
Y180578D01*
Y180825D01*
Y181073D01*
Y181320D01*
Y181568D01*
Y181816D01*
Y182063D01*
Y182311D01*
Y182558D01*
Y182806D01*
Y183053D01*
Y183301D01*
Y183549D01*
Y183796D01*
Y184044D01*
Y184291D01*
Y184539D01*
Y184786D01*
Y185034D01*
Y185282D01*
Y185529D01*
Y185777D01*
Y186024D01*
Y186272D01*
Y186520D01*
Y186767D01*
Y187015D01*
Y187262D01*
Y187510D01*
Y187757D01*
Y188005D01*
X124723D01*
Y188252D01*
Y188500D01*
X124971D01*
Y188748D01*
X125218D01*
Y188995D01*
X125466D01*
Y189243D01*
X125714D01*
Y189490D01*
X126209D01*
Y189738D01*
X126951D01*
Y189986D01*
X133388D01*
Y189738D01*
X134379D01*
Y189490D01*
X134874D01*
Y189243D01*
X135121D01*
Y188995D01*
X135617D01*
Y188748D01*
X135864D01*
Y188500D01*
X136112D01*
Y188252D01*
Y188005D01*
X136359D01*
Y187757D01*
X136607D01*
Y187510D01*
Y187262D01*
Y187015D01*
X136854D01*
Y186767D01*
Y186520D01*
Y186272D01*
Y186024D01*
Y185777D01*
Y185529D01*
Y185282D01*
Y185034D01*
Y184786D01*
Y184539D01*
X136607D01*
Y184291D01*
Y184044D01*
Y183796D01*
X136359D01*
Y183549D01*
X136112D01*
Y183301D01*
Y183053D01*
X135864D01*
Y182806D01*
X135617D01*
Y182558D01*
X135369D01*
Y182311D01*
X134874D01*
Y182063D01*
X134379D01*
Y181816D01*
X133884D01*
Y181568D01*
X133141D01*
Y181320D01*
X132893D01*
Y181073D01*
X132646D01*
Y180825D01*
Y180578D01*
Y180330D01*
Y180082D01*
X133884D01*
Y179835D01*
Y179587D01*
Y179340D01*
Y179092D01*
X132646D01*
Y178845D01*
Y178597D01*
Y178349D01*
Y178102D01*
Y177854D01*
X133884D01*
Y177607D01*
Y177359D01*
Y177112D01*
Y176864D01*
X132646D01*
Y176617D01*
Y176369D01*
Y176121D01*
Y175874D01*
Y175626D01*
X133884D01*
Y175379D01*
Y175131D01*
Y174883D01*
Y174636D01*
X132646D01*
Y174388D01*
Y174141D01*
Y173893D01*
Y173646D01*
Y173398D01*
X133884D01*
Y173151D01*
Y172903D01*
Y172655D01*
Y172408D01*
X132646D01*
Y172160D01*
Y171913D01*
Y171665D01*
Y171417D01*
X132893D01*
Y171170D01*
X133388D01*
Y171417D01*
X133636D01*
Y171665D01*
X133884D01*
Y171417D01*
Y171170D01*
X134131D01*
Y170922D01*
X134379D01*
Y170675D01*
X133884D01*
Y170427D01*
X133388D01*
Y170180D01*
Y169932D01*
X133636D01*
Y169685D01*
X133884D01*
Y169437D01*
X134131D01*
Y169189D01*
X134379D01*
Y169437D01*
Y169685D01*
Y169932D01*
X135369D01*
Y169685D01*
Y169437D01*
Y169189D01*
Y168942D01*
Y168694D01*
X136607D01*
Y168942D01*
Y169189D01*
Y169437D01*
Y169685D01*
Y169932D01*
X137597D01*
Y169685D01*
Y169437D01*
Y169189D01*
Y168942D01*
Y168694D01*
X138835D01*
Y168942D01*
Y169189D01*
Y169437D01*
Y169685D01*
Y169932D01*
X139825D01*
Y169685D01*
Y169437D01*
Y169189D01*
X140320D01*
Y169437D01*
X140568D01*
Y169685D01*
X140815D01*
Y169932D01*
X141063D01*
Y170180D01*
Y170427D01*
X140568D01*
Y170675D01*
X140320D01*
Y170922D01*
Y171170D01*
X140568D01*
Y171417D01*
Y171665D01*
X140815D01*
Y171417D01*
X141063D01*
Y171170D01*
X141806D01*
Y171417D01*
Y171665D01*
Y171913D01*
Y172160D01*
Y172408D01*
Y172655D01*
X140568D01*
Y172903D01*
Y173151D01*
Y173398D01*
Y173646D01*
X141806D01*
Y173893D01*
Y174141D01*
Y174388D01*
Y174636D01*
Y174883D01*
X140568D01*
Y175131D01*
Y175379D01*
Y175626D01*
Y175874D01*
X141806D01*
Y176121D01*
Y176369D01*
Y176617D01*
Y176864D01*
Y177112D01*
X140815D01*
Y176864D01*
X140568D01*
Y177112D01*
Y177359D01*
Y177607D01*
Y177854D01*
X141806D01*
Y178102D01*
Y178349D01*
Y178597D01*
Y178845D01*
Y179092D01*
X140568D01*
Y179340D01*
Y179587D01*
Y179835D01*
Y180082D01*
X141806D01*
Y180330D01*
Y180578D01*
Y180825D01*
Y181073D01*
Y181320D01*
X140568D01*
Y181568D01*
Y181816D01*
Y182063D01*
Y182311D01*
X141806D01*
Y182558D01*
Y182806D01*
Y183053D01*
Y183301D01*
Y183549D01*
X140568D01*
Y183796D01*
Y184044D01*
Y184291D01*
Y184539D01*
X141806D01*
Y184786D01*
Y185034D01*
Y185282D01*
Y185529D01*
Y185777D01*
X140568D01*
Y186024D01*
Y186272D01*
Y186520D01*
Y186767D01*
X141806D01*
Y187015D01*
Y187262D01*
Y187510D01*
Y187757D01*
Y188005D01*
X140815D01*
Y187757D01*
X140568D01*
Y188005D01*
Y188252D01*
Y188500D01*
Y188748D01*
X141806D01*
Y188995D01*
Y189243D01*
Y189490D01*
Y189738D01*
Y189986D01*
X140568D01*
Y190233D01*
Y190481D01*
Y190728D01*
Y190976D01*
X141806D01*
Y191223D01*
Y191471D01*
Y191718D01*
X141558D01*
Y191966D01*
Y192214D01*
Y192461D01*
X141311D01*
Y192709D01*
X141063D01*
Y192956D01*
X140568D01*
Y192709D01*
X140320D01*
Y192461D01*
X140073D01*
Y192709D01*
X139825D01*
Y192956D01*
X139578D01*
Y193204D01*
X139825D01*
Y193451D01*
X140073D01*
Y193699D01*
Y193947D01*
X139578D01*
Y194194D01*
X138340D01*
Y193947D01*
Y193699D01*
Y193451D01*
Y193204D01*
X137597D01*
Y192956D01*
X137349D01*
Y193204D01*
Y193451D01*
Y193699D01*
Y193947D01*
Y194194D01*
X136112D01*
Y193947D01*
Y193699D01*
Y193451D01*
Y193204D01*
X135369D01*
Y192956D01*
X135121D01*
Y193204D01*
Y193451D01*
Y193699D01*
Y193947D01*
Y194194D01*
X133884D01*
Y193947D01*
Y193699D01*
Y193451D01*
Y193204D01*
X133141D01*
Y193451D01*
Y193699D01*
Y193947D01*
Y194194D01*
X131903D01*
Y193947D01*
Y193699D01*
Y193451D01*
Y193204D01*
Y192956D01*
X131655D01*
Y193204D01*
X130913D01*
Y193451D01*
Y193699D01*
Y193947D01*
Y194194D01*
X129675D01*
Y193947D01*
Y193699D01*
Y193451D01*
Y193204D01*
Y192956D01*
X129427D01*
Y193204D01*
X128684D01*
Y193451D01*
Y193699D01*
Y193947D01*
Y194194D01*
X127694D01*
Y194442D01*
X126951D01*
Y194689D01*
X126456D01*
Y194937D01*
X125961D01*
Y195185D01*
X125714D01*
Y195432D01*
X125466D01*
Y195680D01*
X125218D01*
Y195927D01*
X124971D01*
Y196175D01*
Y196422D01*
X124723D01*
Y196670D01*
Y196917D01*
X124476D01*
Y197165D01*
Y197413D01*
Y197660D01*
Y197908D01*
Y198155D01*
Y198403D01*
Y198651D01*
Y198898D01*
Y199146D01*
Y199393D01*
Y199641D01*
Y199888D01*
X124723D01*
Y200136D01*
Y200384D01*
X124971D01*
Y200631D01*
Y200879D01*
X125218D01*
Y201126D01*
X125466D01*
Y201374D01*
X125714D01*
Y201621D01*
X125961D01*
Y201869D01*
X126456D01*
Y202117D01*
X126951D01*
Y202364D01*
X127694D01*
Y202612D01*
X147500D01*
Y202364D01*
D02*
G37*
%LPC*%
G36*
X133636Y189243D02*
X131903D01*
Y188995D01*
X131160D01*
Y188748D01*
X130665D01*
Y188500D01*
X130417D01*
Y188252D01*
X130170D01*
Y188005D01*
X129922D01*
Y187757D01*
Y187510D01*
X129675D01*
Y187262D01*
X129427D01*
Y187015D01*
Y186767D01*
Y186520D01*
Y186272D01*
X129180D01*
Y186024D01*
Y185777D01*
Y185529D01*
Y185282D01*
X129427D01*
Y185034D01*
Y184786D01*
Y184539D01*
Y184291D01*
X129675D01*
Y184044D01*
Y183796D01*
X129922D01*
Y183549D01*
X130170D01*
Y183301D01*
X130417D01*
Y183053D01*
X130665D01*
Y182806D01*
X131160D01*
Y182558D01*
X131655D01*
Y182311D01*
X133884D01*
Y182558D01*
X134379D01*
Y182806D01*
X134874D01*
Y183053D01*
X135121D01*
Y183301D01*
X135369D01*
Y183549D01*
X135617D01*
Y183796D01*
X135864D01*
Y184044D01*
Y184291D01*
X136112D01*
Y184539D01*
Y184786D01*
Y185034D01*
Y185282D01*
X136359D01*
Y185529D01*
Y185777D01*
Y186024D01*
Y186272D01*
X136112D01*
Y186520D01*
Y186767D01*
Y187015D01*
Y187262D01*
X135864D01*
Y187510D01*
X135617D01*
Y187757D01*
Y188005D01*
X135369D01*
Y188252D01*
X135121D01*
Y188500D01*
X134874D01*
Y188748D01*
X134379D01*
Y188995D01*
X133636D01*
Y189243D01*
D02*
G37*
G36*
X129427Y201869D02*
X127447D01*
Y201621D01*
X126951D01*
Y201374D01*
X126456D01*
Y201126D01*
X126209D01*
Y200879D01*
X125961D01*
Y200631D01*
X125714D01*
Y200384D01*
X125466D01*
Y200136D01*
Y199888D01*
X125218D01*
Y199641D01*
Y199393D01*
Y199146D01*
X124971D01*
Y198898D01*
Y198651D01*
Y198403D01*
Y198155D01*
Y197908D01*
Y197660D01*
X125218D01*
Y197413D01*
Y197165D01*
Y196917D01*
X125466D01*
Y196670D01*
Y196422D01*
X125714D01*
Y196175D01*
X125961D01*
Y195927D01*
X126209D01*
Y195680D01*
X126456D01*
Y195432D01*
X126951D01*
Y195185D01*
X127447D01*
Y194937D01*
X129675D01*
Y195185D01*
X130170D01*
Y195432D01*
X130665D01*
Y195680D01*
X130913D01*
Y195927D01*
X131160D01*
Y196175D01*
X131408D01*
Y196422D01*
Y196670D01*
X131655D01*
Y196917D01*
Y197165D01*
X131903D01*
Y197413D01*
Y197660D01*
Y197908D01*
Y198155D01*
Y198403D01*
Y198651D01*
Y198898D01*
Y199146D01*
Y199393D01*
Y199641D01*
X131655D01*
Y199888D01*
Y200136D01*
X131408D01*
Y200384D01*
Y200631D01*
X131160D01*
Y200879D01*
X130913D01*
Y201126D01*
X130665D01*
Y201374D01*
X130170D01*
Y201621D01*
X129427D01*
Y201869D01*
D02*
G37*
%LPD*%
G36*
X134874Y185034D02*
X135121D01*
Y184786D01*
Y184539D01*
Y184291D01*
Y184044D01*
Y183796D01*
X134874D01*
Y183549D01*
X134626D01*
Y183301D01*
X133636D01*
Y183549D01*
X133388D01*
Y183796D01*
X133141D01*
Y184044D01*
Y184291D01*
Y184539D01*
Y184786D01*
Y185034D01*
X133388D01*
Y185282D01*
X134874D01*
Y185034D01*
D02*
G37*
G36*
X127199Y198155D02*
X127694D01*
Y197908D01*
X127942D01*
Y197660D01*
Y197413D01*
X128189D01*
Y197165D01*
X127942D01*
Y196917D01*
Y196670D01*
X127694D01*
Y196422D01*
X127447D01*
Y196175D01*
X126456D01*
Y196422D01*
X126209D01*
Y196670D01*
X125961D01*
Y196917D01*
Y197165D01*
Y197413D01*
Y197660D01*
X126209D01*
Y197908D01*
Y198155D01*
X126951D01*
Y198403D01*
X127199D01*
Y198155D01*
D02*
G37*
D17*
X146226Y123870D02*
X148238Y121008D01*
X149669Y122014D01*
X149811Y122826D01*
X149476Y123303D01*
X149140Y123780D01*
X148328Y123922D01*
X146897Y122916D01*
X149759Y124928D02*
X150765Y123497D01*
X151577Y123355D01*
X153009Y124362D01*
X153344Y123885D01*
X153202Y123072D01*
X152725Y122737D01*
X153009Y124362D02*
X151667Y126270D01*
X156825Y127045D02*
X154812Y129907D01*
X158733Y128387D01*
X156720Y131249D01*
X161118Y130064D02*
X160164Y129393D01*
X159352Y129534D01*
X158681Y130489D01*
X158822Y131301D01*
X159776Y131972D01*
X160589Y131830D01*
X160924Y131353D01*
X159016Y130011D01*
X161207Y132978D02*
X162214Y131547D01*
X163026Y131405D01*
X163168Y132218D01*
X163980Y132076D01*
X164122Y132889D01*
X163116Y134320D01*
X165411Y133082D02*
X164070Y134991D01*
X164353Y136615D01*
X165978Y136332D01*
X167320Y134424D01*
X166313Y135855D01*
X164405Y134513D01*
X168169Y139299D02*
X166261Y137957D01*
X168273Y135095D01*
X170182Y136436D01*
X167267Y136526D02*
X168221Y137197D01*
X171985Y141982D02*
X173893Y143324D01*
X172940Y142653D01*
X174952Y139791D01*
X178291Y142139D02*
X177337Y141468D01*
X176525Y141609D01*
X175854Y142563D01*
X175995Y143376D01*
X176950Y144047D01*
X177762Y143905D01*
X178097Y143428D01*
X176189Y142086D01*
X180289Y146395D02*
X178858Y145388D01*
X178716Y144576D01*
X179387Y143622D01*
X180199Y143480D01*
X181630Y144486D01*
X180572Y148019D02*
X182584Y145157D01*
X181578Y146588D01*
X181720Y147401D01*
X182674Y148072D01*
X183486Y147930D01*
X184493Y146499D01*
X185447Y147170D02*
X184105Y149078D01*
X185536Y150084D01*
X186348Y149942D01*
X187355Y148511D01*
X188786Y149518D02*
X189740Y150188D01*
X189882Y151001D01*
X189211Y151955D01*
X188398Y152096D01*
X187444Y151426D01*
X187302Y150613D01*
X187973Y149659D01*
X188786Y149518D01*
X191171Y151195D02*
X192125Y151865D01*
X191648Y151530D01*
X189636Y154392D01*
X189158Y154057D01*
X194033Y153207D02*
X194987Y153878D01*
X195129Y154690D01*
X194458Y155644D01*
X193646Y155786D01*
X192692Y155115D01*
X192550Y154303D01*
X193221Y153349D01*
X194033Y153207D01*
X198043Y154601D02*
X198520Y154936D01*
X198662Y155749D01*
X196985Y158134D01*
X195554Y157128D01*
X195412Y156315D01*
X196083Y155361D01*
X196895Y155219D01*
X198326Y156226D01*
X197939Y158805D02*
X198945Y157374D01*
X199758Y157232D01*
X201189Y158238D01*
X201524Y157761D01*
X201382Y156949D01*
X200905Y156613D01*
X201189Y158238D02*
X199847Y160146D01*
X202992Y163784D02*
X203946Y164454D01*
X203469Y164119D01*
X205482Y161257D01*
X205005Y160922D01*
X205959Y161592D01*
X207390Y162599D02*
X206048Y164507D01*
X207479Y165513D01*
X208292Y165371D01*
X209298Y163940D01*
X210819Y167861D02*
X209387Y166855D01*
X209246Y166042D01*
X209917Y165088D01*
X210729Y164946D01*
X212160Y165953D01*
X213114Y166623D02*
X212779Y167101D01*
X213256Y167436D01*
X213591Y166959D01*
X213114Y166623D01*
D19*
X142500Y342000D02*
X143000Y342500D01*
X142500Y313000D02*
Y342000D01*
X116374Y313000D02*
X142500D01*
X285500D02*
X290626D01*
X285500D02*
Y318000D01*
X205000D02*
X285500D01*
X205000D02*
Y342500D01*
X143000D02*
X205000D01*
X285000Y148000D02*
X292000D01*
X283500Y149500D02*
X285000Y148000D01*
X283000Y149500D02*
X283500D01*
X289000Y138000D02*
X292000D01*
X283500Y143500D02*
X289000Y138000D01*
X282500Y143500D02*
X283500D01*
X283000Y137000D02*
X291500Y128500D01*
X282500Y137000D02*
X283000D01*
X281500Y131500D02*
X285500D01*
X298000Y119000D01*
Y114500D02*
Y119000D01*
X114500Y298000D02*
X121500Y304000D01*
X114500Y278000D02*
X122500Y271500D01*
X290626Y123000D02*
Y323000D01*
Y123000D02*
X306000D01*
X290626Y323000D02*
X306000D01*
X290626Y313000D02*
X306374D01*
X103500Y100126D02*
X303500D01*
Y115500D01*
X103500D02*
X303500D01*
X103500Y100126D02*
Y115500D01*
X113500Y100126D02*
Y115874D01*
X100626Y123000D02*
Y323000D01*
Y123000D02*
X116000D01*
Y323000D01*
X100626D02*
X116000D01*
X100626Y313000D02*
X116374D01*
X306000Y123000D02*
Y323000D01*
X143071Y130435D02*
X141678Y130677D01*
X140042Y129527D01*
X139800Y128135D01*
X142099Y124864D01*
X143492Y124621D01*
X145128Y125771D01*
X145371Y127164D01*
X144131Y132402D02*
X147581Y127496D01*
X145856Y129949D01*
X146099Y131342D01*
X147734Y132492D01*
X149127Y132249D01*
X150852Y129796D01*
X152488Y130946D02*
X154123Y132096D01*
X153305Y131521D01*
X151005Y134792D01*
X150188Y134217D01*
X157727Y132185D02*
X154277Y137092D01*
X156730Y138817D01*
X158123Y138574D01*
X159273Y136939D01*
X159030Y135546D01*
X156577Y133821D01*
X158033Y142177D02*
X161483Y137271D01*
X161969Y140056D01*
X164754Y139571D01*
X161304Y144477D01*
X162940Y145627D02*
X166390Y140721D01*
X164665Y143174D01*
X164908Y144567D01*
X166543Y145717D01*
X167936Y145474D01*
X169661Y143021D01*
X171296Y144171D02*
X172932Y145321D01*
X172114Y144746D01*
X169814Y148017D01*
X168996Y147442D01*
X175385Y147046D02*
X177838Y148770D01*
X178081Y150163D01*
X176688Y150406D01*
X175053Y149256D01*
X173660Y149499D01*
X173903Y150892D01*
X176356Y152617D01*
X181442Y148860D02*
X177992Y153767D01*
X180445Y155491D01*
X181838Y155249D01*
X182988Y153613D01*
X182745Y152220D01*
X180292Y150496D01*
X187652Y155670D02*
X186016Y154520D01*
X184623Y154763D01*
X183473Y156399D01*
X183716Y157791D01*
X185352Y158941D01*
X186744Y158699D01*
X187319Y157881D01*
X184048Y155581D01*
X187805Y160666D02*
X190105Y157395D01*
X188955Y159031D01*
X189198Y160424D01*
X189441Y161816D01*
X190258Y162391D01*
X197465Y162570D02*
X195829Y161420D01*
X194437Y161663D01*
X193287Y163299D01*
X193529Y164691D01*
X195165Y165841D01*
X196558Y165599D01*
X197133Y164781D01*
X193861Y162481D01*
X197618Y167566D02*
X199918Y164295D01*
X198768Y165931D01*
X199011Y167324D01*
X199254Y168716D01*
X200071Y169291D01*
X217832Y338193D02*
X214500D01*
Y335693D01*
X216166D01*
X214500D01*
Y333194D01*
X220331D02*
X221998D01*
X222831Y334027D01*
Y335693D01*
X221998Y336526D01*
X220331D01*
X219498Y335693D01*
Y334027D01*
X220331Y333194D01*
X224497Y336526D02*
Y333194D01*
Y334860D01*
X225330Y335693D01*
X226163Y336526D01*
X226996D01*
X237826Y337359D02*
X236993Y338193D01*
X235327D01*
X234493Y337359D01*
Y334027D01*
X235327Y333194D01*
X236993D01*
X237826Y334027D01*
X239492Y338193D02*
Y333194D01*
X241158Y334860D01*
X242824Y333194D01*
Y338193D01*
X244490Y337359D02*
X245323Y338193D01*
X246989D01*
X247822Y337359D01*
Y336526D01*
X246989Y335693D01*
X246156D01*
X246989D01*
X247822Y334860D01*
Y334027D01*
X246989Y333194D01*
X245323D01*
X244490Y334027D01*
X249489Y337359D02*
X250322Y338193D01*
X251988D01*
X252821Y337359D01*
Y334027D01*
X251988Y333194D01*
X250322D01*
X249489Y334027D01*
Y337359D01*
X254487D02*
X255320Y338193D01*
X256986D01*
X257819Y337359D01*
Y336526D01*
X256986Y335693D01*
X257819Y334860D01*
Y334027D01*
X256986Y333194D01*
X255320D01*
X254487Y334027D01*
Y334860D01*
X255320Y335693D01*
X254487Y336526D01*
Y337359D01*
X255320Y335693D02*
X256986D01*
X214500Y329795D02*
Y325629D01*
X215333Y324796D01*
X216999D01*
X217832Y325629D01*
Y329795D01*
X222831D02*
X219498D01*
Y327295D01*
X221164D01*
X219498D01*
Y324796D01*
X226996Y329795D02*
X225330D01*
X224497Y328961D01*
Y325629D01*
X225330Y324796D01*
X226996D01*
X227829Y325629D01*
Y328961D01*
X226996Y329795D01*
X234493D02*
Y324796D01*
X236993D01*
X237826Y325629D01*
Y326462D01*
X236993Y327295D01*
X234493D01*
X236993D01*
X237826Y328128D01*
Y328961D01*
X236993Y329795D01*
X234493D01*
X240325Y324796D02*
X241991D01*
X242824Y325629D01*
Y327295D01*
X241991Y328128D01*
X240325D01*
X239492Y327295D01*
Y325629D01*
X240325Y324796D01*
X245323Y328128D02*
X246989D01*
X247822Y327295D01*
Y324796D01*
X245323D01*
X244490Y325629D01*
X245323Y326462D01*
X247822D01*
X249489Y328128D02*
Y324796D01*
Y326462D01*
X250322Y327295D01*
X251155Y328128D01*
X251988D01*
X257819Y329795D02*
Y324796D01*
X255320D01*
X254487Y325629D01*
Y327295D01*
X255320Y328128D01*
X257819D01*
X125000Y282000D02*
Y286498D01*
X127249D01*
X127999Y285749D01*
Y284249D01*
X127249Y283500D01*
X125000D01*
X126499D02*
X127999Y282000D01*
X129499D02*
X130998D01*
X130248D01*
Y286498D01*
X129499Y285749D01*
X133247D02*
X133997Y286498D01*
X135497D01*
X136246Y285749D01*
Y284999D01*
X135497Y284249D01*
X134747D01*
X135497D01*
X136246Y283500D01*
Y282750D01*
X135497Y282000D01*
X133997D01*
X133247Y282750D01*
X125000Y295500D02*
Y299998D01*
X127249D01*
X127999Y299249D01*
Y297749D01*
X127249Y297000D01*
X125000D01*
X126499D02*
X127999Y295500D01*
X129499D02*
X130998D01*
X130248D01*
Y299998D01*
X129499Y299249D01*
X136246Y295500D02*
X133247D01*
X136246Y298499D01*
Y299249D01*
X135497Y299998D01*
X133997D01*
X133247Y299249D01*
X195500Y339500D02*
X199999D01*
Y337251D01*
X199249Y336501D01*
X197749D01*
X197000Y337251D01*
Y339500D01*
Y338000D02*
X195500Y336501D01*
Y335001D02*
Y333502D01*
Y334252D01*
X199999D01*
X199249Y335001D01*
X195500Y331253D02*
Y329753D01*
Y330503D01*
X199999D01*
X199249Y331253D01*
X157000Y340500D02*
X161499D01*
Y338251D01*
X160749Y337501D01*
X159249D01*
X158500Y338251D01*
Y340500D01*
Y339001D02*
X157000Y337501D01*
Y336001D02*
Y334502D01*
Y335252D01*
X161499D01*
X160749Y336001D01*
Y332253D02*
X161499Y331503D01*
Y330003D01*
X160749Y329254D01*
X157750D01*
X157000Y330003D01*
Y331503D01*
X157750Y332253D01*
X160749D01*
X195500Y326000D02*
X199999D01*
Y323751D01*
X199249Y323001D01*
X197749D01*
X197000Y323751D01*
Y326000D01*
Y324500D02*
X195500Y323001D01*
X196250Y321501D02*
X195500Y320752D01*
Y319252D01*
X196250Y318502D01*
X199249D01*
X199999Y319252D01*
Y320752D01*
X199249Y321501D01*
X198499D01*
X197749Y320752D01*
Y318502D01*
X156500Y326000D02*
X160999D01*
Y323751D01*
X160249Y323001D01*
X158749D01*
X158000Y323751D01*
Y326000D01*
Y324500D02*
X156500Y323001D01*
X160249Y321501D02*
X160999Y320752D01*
Y319252D01*
X160249Y318502D01*
X159499D01*
X158749Y319252D01*
X158000Y318502D01*
X157250D01*
X156500Y319252D01*
Y320752D01*
X157250Y321501D01*
X158000D01*
X158749Y320752D01*
X159499Y321501D01*
X160249D01*
X158749Y320752D02*
Y319252D01*
X246500Y166500D02*
X242002D01*
Y168749D01*
X242751Y169499D01*
X244251D01*
X245001Y168749D01*
Y166500D01*
Y167999D02*
X246500Y169499D01*
X242002Y170999D02*
Y173998D01*
X242751D01*
X245750Y170999D01*
X246500D01*
X246346Y153654D02*
X241848D01*
Y155903D01*
X242598Y156653D01*
X244097D01*
X244847Y155903D01*
Y153654D01*
Y155153D02*
X246346Y156653D01*
X241848Y161151D02*
X242598Y159652D01*
X244097Y158152D01*
X245597D01*
X246346Y158902D01*
Y160401D01*
X245597Y161151D01*
X244847D01*
X244097Y160401D01*
Y158152D01*
X155500Y289500D02*
X151001D01*
Y291749D01*
X151751Y292499D01*
X153251D01*
X154000Y291749D01*
Y289500D01*
Y291000D02*
X155500Y292499D01*
X151001Y296998D02*
Y293999D01*
X153251D01*
X152501Y295498D01*
Y296248D01*
X153251Y296998D01*
X154750D01*
X155500Y296248D01*
Y294748D01*
X154750Y293999D01*
X261000Y276500D02*
Y280998D01*
X263249D01*
X263999Y280249D01*
Y278749D01*
X263249Y277999D01*
X261000D01*
X262499D02*
X263999Y276500D01*
X267748D02*
Y280998D01*
X265498Y278749D01*
X268498D01*
X270000Y190000D02*
Y194499D01*
X272249D01*
X272999Y193749D01*
Y192249D01*
X272249Y191499D01*
X270000D01*
X271499D02*
X272999Y190000D01*
X274499Y193749D02*
X275248Y194499D01*
X276748D01*
X277498Y193749D01*
Y192999D01*
X276748Y192249D01*
X275998D01*
X276748D01*
X277498Y191499D01*
Y190750D01*
X276748Y190000D01*
X275248D01*
X274499Y190750D01*
X261000Y302000D02*
X256502D01*
Y304249D01*
X257251Y304999D01*
X258751D01*
X259501Y304249D01*
Y302000D01*
Y303500D02*
X261000Y304999D01*
Y306499D02*
Y307998D01*
Y307248D01*
X256502D01*
X257251Y306499D01*
X284751Y301499D02*
X284001Y300749D01*
Y299250D01*
X284751Y298500D01*
X287750D01*
X288500Y299250D01*
Y300749D01*
X287750Y301499D01*
X288500Y302998D02*
Y304498D01*
Y303748D01*
X284001D01*
X284751Y302998D01*
X284001Y309746D02*
X284751Y308247D01*
X286251Y306747D01*
X287750D01*
X288500Y307497D01*
Y308997D01*
X287750Y309746D01*
X287000D01*
X286251Y308997D01*
Y306747D01*
X278751Y301499D02*
X278001Y300749D01*
Y299250D01*
X278751Y298500D01*
X281750D01*
X282500Y299250D01*
Y300749D01*
X281750Y301499D01*
X282500Y302998D02*
Y304498D01*
Y303748D01*
X278001D01*
X278751Y302998D01*
X278001Y309746D02*
Y306747D01*
X280251D01*
X279501Y308247D01*
Y308997D01*
X280251Y309746D01*
X281750D01*
X282500Y308997D01*
Y307497D01*
X281750Y306747D01*
X234751Y302499D02*
X234001Y301749D01*
Y300250D01*
X234751Y299500D01*
X237750D01*
X238500Y300250D01*
Y301749D01*
X237750Y302499D01*
X238500Y303998D02*
Y305498D01*
Y304748D01*
X234001D01*
X234751Y303998D01*
X238500Y309997D02*
X234001D01*
X236251Y307747D01*
Y310746D01*
X228251Y302499D02*
X227502Y301749D01*
Y300250D01*
X228251Y299500D01*
X231250D01*
X232000Y300250D01*
Y301749D01*
X231250Y302499D01*
X232000Y303998D02*
Y305498D01*
Y304748D01*
X227502D01*
X228251Y303998D01*
Y307747D02*
X227502Y308497D01*
Y309997D01*
X228251Y310746D01*
X229001D01*
X229751Y309997D01*
Y309247D01*
Y309997D01*
X230501Y310746D01*
X231250D01*
X232000Y309997D01*
Y308497D01*
X231250Y307747D01*
X214251Y289999D02*
X213502Y289249D01*
Y287750D01*
X214251Y287000D01*
X217250D01*
X218000Y287750D01*
Y289249D01*
X217250Y289999D01*
X218000Y291498D02*
Y292998D01*
Y292248D01*
X213502D01*
X214251Y291498D01*
X218000Y298246D02*
Y295247D01*
X215001Y298246D01*
X214251D01*
X213502Y297497D01*
Y295997D01*
X214251Y295247D01*
X273499Y256249D02*
X272749Y256998D01*
X271250D01*
X270500Y256249D01*
Y253250D01*
X271250Y252500D01*
X272749D01*
X273499Y253250D01*
X274998Y252500D02*
X276498D01*
X275748D01*
Y256998D01*
X274998Y256249D01*
X278747Y252500D02*
X280247D01*
X279497D01*
Y256998D01*
X278747Y256249D01*
X213249Y180001D02*
X213999Y180751D01*
Y182250D01*
X213249Y183000D01*
X210250D01*
X209500Y182250D01*
Y180751D01*
X210250Y180001D01*
X209500Y178501D02*
Y177002D01*
Y177752D01*
X213999D01*
X213249Y178501D01*
Y174753D02*
X213999Y174003D01*
Y172503D01*
X213249Y171754D01*
X210250D01*
X209500Y172503D01*
Y174003D01*
X210250Y174753D01*
X213249D01*
X127499Y246249D02*
X126749Y246999D01*
X125250D01*
X124500Y246249D01*
Y243250D01*
X125250Y242500D01*
X126749D01*
X127499Y243250D01*
X128999D02*
X129748Y242500D01*
X131248D01*
X131998Y243250D01*
Y246249D01*
X131248Y246999D01*
X129748D01*
X128999Y246249D01*
Y245499D01*
X129748Y244749D01*
X131998D01*
X127499Y238249D02*
X126749Y238999D01*
X125250D01*
X124500Y238249D01*
Y235250D01*
X125250Y234500D01*
X126749D01*
X127499Y235250D01*
X128999Y238249D02*
X129748Y238999D01*
X131248D01*
X131998Y238249D01*
Y237499D01*
X131248Y236749D01*
X131998Y235999D01*
Y235250D01*
X131248Y234500D01*
X129748D01*
X128999Y235250D01*
Y235999D01*
X129748Y236749D01*
X128999Y237499D01*
Y238249D01*
X129748Y236749D02*
X131248D01*
X128999Y213249D02*
X128249Y213999D01*
X126750D01*
X126000Y213249D01*
Y210250D01*
X126750Y209500D01*
X128249D01*
X128999Y210250D01*
X130499Y213999D02*
X133498D01*
Y213249D01*
X130499Y210250D01*
Y209500D01*
X184749Y178001D02*
X185499Y178751D01*
Y180250D01*
X184749Y181000D01*
X181750D01*
X181000Y180250D01*
Y178751D01*
X181750Y178001D01*
X185499Y173502D02*
X184749Y175002D01*
X183249Y176501D01*
X181750D01*
X181000Y175752D01*
Y174252D01*
X181750Y173502D01*
X182500D01*
X183249Y174252D01*
Y176501D01*
X272999Y208749D02*
X272249Y209499D01*
X270750D01*
X270000Y208749D01*
Y205750D01*
X270750Y205000D01*
X272249D01*
X272999Y205750D01*
X277498Y209499D02*
X274499D01*
Y207249D01*
X275998Y207999D01*
X276748D01*
X277498Y207249D01*
Y205750D01*
X276748Y205000D01*
X275248D01*
X274499Y205750D01*
X273499Y240249D02*
X272749Y240999D01*
X271250D01*
X270500Y240249D01*
Y237250D01*
X271250Y236500D01*
X272749D01*
X273499Y237250D01*
X277248Y236500D02*
Y240999D01*
X274998Y238749D01*
X277998D01*
X230751Y292499D02*
X230001Y291749D01*
Y290250D01*
X230751Y289500D01*
X233750D01*
X234500Y290250D01*
Y291749D01*
X233750Y292499D01*
X230751Y293999D02*
X230001Y294748D01*
Y296248D01*
X230751Y296998D01*
X231501D01*
X232251Y296248D01*
Y295498D01*
Y296248D01*
X233000Y296998D01*
X233750D01*
X234500Y296248D01*
Y294748D01*
X233750Y293999D01*
X193251Y292499D02*
X192501Y291749D01*
Y290250D01*
X193251Y289500D01*
X196250D01*
X197000Y290250D01*
Y291749D01*
X196250Y292499D01*
X197000Y296998D02*
Y293999D01*
X194001Y296998D01*
X193251D01*
X192501Y296248D01*
Y294748D01*
X193251Y293999D01*
X176251Y293999D02*
X175501Y293249D01*
Y291750D01*
X176251Y291000D01*
X179250D01*
X180000Y291750D01*
Y293249D01*
X179250Y293999D01*
X180000Y295498D02*
Y296998D01*
Y296248D01*
X175501D01*
X176251Y295498D01*
X154000Y281499D02*
Y277750D01*
X154750Y277000D01*
X156249D01*
X156999Y277750D01*
Y281499D01*
X158499Y277000D02*
X159998D01*
X159248D01*
Y281499D01*
X158499Y280749D01*
X108499Y330499D02*
X107000D01*
X107749D01*
Y326750D01*
X107000Y326000D01*
X106250D01*
X105500Y326750D01*
X109999Y326000D02*
X111498D01*
X110748D01*
Y330499D01*
X109999Y329749D01*
X135756Y137499D02*
X135256Y137999D01*
X134256D01*
X133757Y137499D01*
Y136999D01*
X134256Y136500D01*
X135256D01*
X135756Y136000D01*
Y135500D01*
X135256Y135000D01*
X134256D01*
X133757Y135500D01*
X138755Y137999D02*
X137755D01*
X138255D01*
Y135500D01*
X137755Y135000D01*
X137256D01*
X136756Y135500D01*
X139755Y135000D02*
X140754D01*
X140255D01*
Y137999D01*
X139755Y137499D01*
X136121Y148999D02*
X135621Y149499D01*
X134622D01*
X134122Y148999D01*
Y148499D01*
X134622Y148000D01*
X135621D01*
X136121Y147500D01*
Y147000D01*
X135621Y146500D01*
X134622D01*
X134122Y147000D01*
X139120Y149499D02*
X138120D01*
X138620D01*
Y147000D01*
X138120Y146500D01*
X137620D01*
X137121Y147000D01*
X142119Y146500D02*
X140120D01*
X142119Y148499D01*
Y148999D01*
X141619Y149499D01*
X140620D01*
X140120Y148999D01*
X131666Y120999D02*
X129000D01*
Y118999D01*
X130333D01*
X129000D01*
Y117000D01*
X132999D02*
Y120999D01*
X134998D01*
X135664Y120332D01*
Y118999D01*
X134998Y118333D01*
X132999D01*
X139663Y120332D02*
X138997Y120999D01*
X137664D01*
X136997Y120332D01*
Y117666D01*
X137664Y117000D01*
X138997D01*
X139663Y117666D01*
Y118999D01*
X138330D01*
X140996Y117000D02*
Y119666D01*
X142329Y120999D01*
X143662Y119666D01*
Y117000D01*
Y118999D01*
X140996D01*
X151659Y120999D02*
X150326D01*
X150993D01*
Y117666D01*
X150326Y117000D01*
X149660D01*
X148994Y117666D01*
X152992Y120999D02*
X155658D01*
X154325D01*
Y117000D01*
X156991D02*
Y119666D01*
X158324Y120999D01*
X159657Y119666D01*
Y117000D01*
Y118999D01*
X156991D01*
X163655Y120332D02*
X162989Y120999D01*
X161656D01*
X160990Y120332D01*
Y117666D01*
X161656Y117000D01*
X162989D01*
X163655Y117666D01*
Y118999D01*
X162323D01*
X123500Y268500D02*
Y273498D01*
X125999D01*
X126832Y272665D01*
Y270999D01*
X125999Y270166D01*
X123500D01*
X128498Y272665D02*
X129331Y273498D01*
X130998D01*
X131831Y272665D01*
Y271832D01*
X130998Y270999D01*
X131831Y270166D01*
Y269333D01*
X130998Y268500D01*
X129331D01*
X128498Y269333D01*
Y270166D01*
X129331Y270999D01*
X128498Y271832D01*
Y272665D01*
X129331Y270999D02*
X130998D01*
X135996Y268500D02*
Y273498D01*
X133497Y270999D01*
X136829D01*
X123000Y301500D02*
Y306498D01*
X125499D01*
X126332Y305665D01*
Y303999D01*
X125499Y303166D01*
X123000D01*
X127998Y305665D02*
X128831Y306498D01*
X130498D01*
X131331Y305665D01*
Y304832D01*
X130498Y303999D01*
X131331Y303166D01*
Y302333D01*
X130498Y301500D01*
X128831D01*
X127998Y302333D01*
Y303166D01*
X128831Y303999D01*
X127998Y304832D01*
Y305665D01*
X128831Y303999D02*
X130498D01*
X136329Y306498D02*
X132997D01*
Y303999D01*
X134663Y304832D01*
X135496D01*
X136329Y303999D01*
Y302333D01*
X135496Y301500D01*
X133830D01*
X132997Y302333D01*
X272500Y148000D02*
Y151499D01*
X274249D01*
X274833Y150916D01*
Y149749D01*
X274249Y149166D01*
X272500D01*
X277748Y148000D02*
Y151499D01*
X275999Y149749D01*
X278331D01*
X281830Y151499D02*
X279498D01*
Y149749D01*
X280664Y150333D01*
X281247D01*
X281830Y149749D01*
Y148583D01*
X281247Y148000D01*
X280081D01*
X279498Y148583D01*
X272000Y142000D02*
Y145499D01*
X273749D01*
X274333Y144916D01*
Y143749D01*
X273749Y143166D01*
X272000D01*
X277248Y142000D02*
Y145499D01*
X275499Y143749D01*
X277831D01*
X280747Y142000D02*
Y145499D01*
X278998Y143749D01*
X281330D01*
X272000Y135500D02*
Y138999D01*
X273749D01*
X274333Y138416D01*
Y137249D01*
X273749Y136666D01*
X272000D01*
X277248Y135500D02*
Y138999D01*
X275499Y137249D01*
X277831D01*
X278998Y138416D02*
X279581Y138999D01*
X280747D01*
X281330Y138416D01*
Y137833D01*
X280747Y137249D01*
X280164D01*
X280747D01*
X281330Y136666D01*
Y136083D01*
X280747Y135500D01*
X279581D01*
X278998Y136083D01*
X272000Y129500D02*
Y132999D01*
X273749D01*
X274333Y132416D01*
Y131249D01*
X273749Y130666D01*
X272000D01*
X277248Y129500D02*
Y132999D01*
X275499Y131249D01*
X277831D01*
X278998Y129500D02*
X280164D01*
X279581D01*
Y132999D01*
X278998Y132416D01*
X288500Y117000D02*
X285001D01*
Y118749D01*
X285584Y119333D01*
X286751D01*
X287334Y118749D01*
Y117000D01*
X288500Y122248D02*
X285001D01*
X286751Y120499D01*
Y122831D01*
X285584Y123998D02*
X285001Y124581D01*
Y125747D01*
X285584Y126330D01*
X287917D01*
X288500Y125747D01*
Y124581D01*
X287917Y123998D01*
X285584D01*
X280000Y117000D02*
X276501D01*
Y118749D01*
X277084Y119333D01*
X278251D01*
X278834Y118749D01*
Y117000D01*
X277084Y120499D02*
X276501Y121082D01*
Y122248D01*
X277084Y122831D01*
X277667D01*
X278251Y122248D01*
Y121665D01*
Y122248D01*
X278834Y122831D01*
X279417D01*
X280000Y122248D01*
Y121082D01*
X279417Y120499D01*
Y123998D02*
X280000Y124581D01*
Y125747D01*
X279417Y126330D01*
X277084D01*
X276501Y125747D01*
Y124581D01*
X277084Y123998D01*
X277667D01*
X278251Y124581D01*
Y126330D01*
X271000Y117000D02*
X267501D01*
Y118749D01*
X268084Y119333D01*
X269251D01*
X269834Y118749D01*
Y117000D01*
X268084Y120499D02*
X267501Y121082D01*
Y122248D01*
X268084Y122831D01*
X268667D01*
X269251Y122248D01*
Y121665D01*
Y122248D01*
X269834Y122831D01*
X270417D01*
X271000Y122248D01*
Y121082D01*
X270417Y120499D01*
X268084Y123998D02*
X267501Y124581D01*
Y125747D01*
X268084Y126330D01*
X268667D01*
X269251Y125747D01*
X269834Y126330D01*
X270417D01*
X271000Y125747D01*
Y124581D01*
X270417Y123998D01*
X269834D01*
X269251Y124581D01*
X268667Y123998D01*
X268084D01*
X269251Y124581D02*
Y125747D01*
X261000Y117000D02*
X257501D01*
Y118749D01*
X258084Y119333D01*
X259251D01*
X259834Y118749D01*
Y117000D01*
X261000Y120499D02*
Y121665D01*
Y121082D01*
X257501D01*
X258084Y120499D01*
X261000Y125164D02*
X257501D01*
X259251Y123415D01*
Y125747D01*
X258084Y126913D02*
X257501Y127497D01*
Y128663D01*
X258084Y129246D01*
X258667D01*
X259251Y128663D01*
Y128080D01*
Y128663D01*
X259834Y129246D01*
X260417D01*
X261000Y128663D01*
Y127497D01*
X260417Y126913D01*
X251000Y117000D02*
X247501D01*
Y118749D01*
X248084Y119333D01*
X249251D01*
X249834Y118749D01*
Y117000D01*
X251000Y120499D02*
Y121665D01*
Y121082D01*
X247501D01*
X248084Y120499D01*
X251000Y125164D02*
X247501D01*
X249251Y123415D01*
Y125747D01*
X251000Y129246D02*
Y126913D01*
X248667Y129246D01*
X248084D01*
X247501Y128663D01*
Y127497D01*
X248084Y126913D01*
X241000Y117000D02*
X237501D01*
Y118749D01*
X238084Y119333D01*
X239251D01*
X239834Y118749D01*
Y117000D01*
X241000Y120499D02*
Y121665D01*
Y121082D01*
X237501D01*
X238084Y120499D01*
X241000Y125164D02*
X237501D01*
X239251Y123415D01*
Y125747D01*
X241000Y126913D02*
Y128080D01*
Y127497D01*
X237501D01*
X238084Y126913D01*
X231000Y117000D02*
X227501D01*
Y118749D01*
X228084Y119333D01*
X229251D01*
X229834Y118749D01*
Y117000D01*
X231000Y120499D02*
Y121665D01*
Y121082D01*
X227501D01*
X228084Y120499D01*
X231000Y125164D02*
X227501D01*
X229251Y123415D01*
Y125747D01*
X228084Y126913D02*
X227501Y127497D01*
Y128663D01*
X228084Y129246D01*
X230417D01*
X231000Y128663D01*
Y127497D01*
X230417Y126913D01*
X228084D01*
X221000Y117000D02*
X217501D01*
Y118749D01*
X218084Y119333D01*
X219251D01*
X219834Y118749D01*
Y117000D01*
X221000Y120499D02*
Y121665D01*
Y121082D01*
X217501D01*
X218084Y120499D01*
Y123415D02*
X217501Y123998D01*
Y125164D01*
X218084Y125747D01*
X218667D01*
X219251Y125164D01*
Y124581D01*
Y125164D01*
X219834Y125747D01*
X220417D01*
X221000Y125164D01*
Y123998D01*
X220417Y123415D01*
Y126913D02*
X221000Y127497D01*
Y128663D01*
X220417Y129246D01*
X218084D01*
X217501Y128663D01*
Y127497D01*
X218084Y126913D01*
X218667D01*
X219251Y127497D01*
Y129246D01*
X211000Y117000D02*
X207501D01*
Y118749D01*
X208084Y119333D01*
X209251D01*
X209834Y118749D01*
Y117000D01*
X211000Y120499D02*
Y121665D01*
Y121082D01*
X207501D01*
X208084Y120499D01*
Y123415D02*
X207501Y123998D01*
Y125164D01*
X208084Y125747D01*
X208667D01*
X209251Y125164D01*
Y124581D01*
Y125164D01*
X209834Y125747D01*
X210417D01*
X211000Y125164D01*
Y123998D01*
X210417Y123415D01*
X208084Y126913D02*
X207501Y127497D01*
Y128663D01*
X208084Y129246D01*
X208667D01*
X209251Y128663D01*
X209834Y129246D01*
X210417D01*
X211000Y128663D01*
Y127497D01*
X210417Y126913D01*
X209834D01*
X209251Y127497D01*
X208667Y126913D01*
X208084D01*
X209251Y127497D02*
Y128663D01*
X234500Y182499D02*
Y178000D01*
Y180249D01*
X237499D01*
Y182499D01*
Y178000D01*
X241998Y181749D02*
X241248Y182499D01*
X239748D01*
X238999Y181749D01*
Y180999D01*
X239748Y180249D01*
X241248D01*
X241998Y179499D01*
Y178750D01*
X241248Y178000D01*
X239748D01*
X238999Y178750D01*
X243497Y182499D02*
Y178000D01*
X244997Y179499D01*
X246496Y178000D01*
Y182499D01*
X247996Y178000D02*
Y180999D01*
X249495Y182499D01*
X250995Y180999D01*
Y178000D01*
Y180249D01*
X247996D01*
X252494Y178000D02*
Y182499D01*
X254744D01*
X255493Y181749D01*
Y180249D01*
X254744Y179499D01*
X252494D01*
X259992Y182499D02*
X256993D01*
Y178000D01*
X259992D01*
X256993Y180249D02*
X258492D01*
X261491Y178000D02*
Y182499D01*
X264490Y178000D01*
Y182499D01*
X257500Y154000D02*
X259499D01*
X258500D01*
Y159998D01*
X257500Y158998D01*
X256000Y171998D02*
X257000Y172998D01*
X258999D01*
X259999Y171998D01*
Y168000D01*
X258999Y167000D01*
X257000D01*
X256000Y168000D01*
Y171998D01*
X184000Y319000D02*
X185999D01*
X185000D01*
Y324998D01*
X184000Y323998D01*
X171500Y319000D02*
X173499D01*
X172500D01*
Y324998D01*
X171500Y323998D01*
X182500Y336998D02*
X183500Y337998D01*
X185499D01*
X186499Y336998D01*
Y333000D01*
X185499Y332000D01*
X183500D01*
X182500Y333000D01*
Y336998D01*
X170500D02*
X171500Y337998D01*
X173499D01*
X174499Y336998D01*
Y333000D01*
X173499Y332000D01*
X171500D01*
X170500Y333000D01*
Y336998D01*
X188000Y306000D02*
Y311998D01*
X189999Y309999D01*
X191999Y311998D01*
Y306000D01*
X193998D02*
X195997D01*
X194998D01*
Y311998D01*
X193998Y310998D01*
X162000Y306000D02*
Y311998D01*
X163999Y309999D01*
X165999Y311998D01*
Y306000D01*
X167998Y310998D02*
X168998Y311998D01*
X170997D01*
X171997Y310998D01*
Y307000D01*
X170997Y306000D01*
X168998D01*
X167998Y307000D01*
Y310998D01*
D33*
X235055Y202626D02*
G03*
X235055Y202626I-1181J0D01*
G01*
D34*
X242929Y198394D02*
G03*
X242929Y198394I-492J0D01*
G01*
D35*
X131709Y139150D02*
G03*
X130922Y139937I-787J0D01*
G01*
Y132063D02*
G03*
X131709Y132850I0J787D01*
G01*
X123048D02*
G03*
X123835Y132063I787J0D01*
G01*
X124229Y139937D02*
G03*
X123048Y138756I0J-1181D01*
G01*
X131831Y151150D02*
G03*
X131043Y151937I-787J0D01*
G01*
Y144063D02*
G03*
X131831Y144850I0J787D01*
G01*
X123169D02*
G03*
X123957Y144063I787J0D01*
G01*
X124350Y151937D02*
G03*
X123169Y150756I0J-1181D01*
G01*
X164189Y272311D02*
X237811D01*
X164189Y198689D02*
X237811D01*
X164189D02*
Y272311D01*
X237811Y198689D02*
Y272311D01*
X124229Y139937D02*
X130922D01*
X131709Y132850D02*
Y139150D01*
X123835Y132063D02*
X130922D01*
X123048Y132850D02*
Y138756D01*
X124350Y151937D02*
X131043D01*
X131831Y144850D02*
Y151150D01*
X123957Y144063D02*
X131043D01*
X123169Y144850D02*
Y150756D01*
D36*
X186756Y286595D02*
Y298406D01*
X181244Y286595D02*
Y298406D01*
X186756D01*
X181244Y286595D02*
X186756D01*
X203756D02*
Y298406D01*
X198244Y286595D02*
Y298406D01*
X203756D01*
X198244Y286595D02*
X203756D01*
X228256D02*
Y298406D01*
X222744Y286595D02*
Y298406D01*
X228256D01*
X222744Y286595D02*
X228256D01*
X255594Y235744D02*
X267406D01*
X255594Y241256D02*
X267406D01*
Y235744D02*
Y241256D01*
X255594Y235744D02*
Y241256D01*
X255095Y204244D02*
X266905D01*
X255095Y209756D02*
X266905D01*
Y204244D02*
Y209756D01*
X255095Y204244D02*
Y209756D01*
X189244Y171595D02*
Y183405D01*
X194756Y171595D02*
Y183405D01*
X189244Y171595D02*
X194756D01*
X189244Y183405D02*
X194756D01*
X136094Y213756D02*
X147906D01*
X136094Y208244D02*
X147906D01*
X136094D02*
Y213756D01*
X147906Y208244D02*
Y213756D01*
X136094Y238756D02*
X147906D01*
X136094Y233244D02*
X147906D01*
X136094D02*
Y238756D01*
X147906Y233244D02*
Y238756D01*
X136094Y247256D02*
X147906D01*
X136094Y241744D02*
X147906D01*
X136094D02*
Y247256D01*
X147906Y241744D02*
Y247256D01*
X201744Y171595D02*
Y183405D01*
X207256Y171595D02*
Y183405D01*
X201744Y171595D02*
X207256D01*
X201744Y183405D02*
X207256D01*
X255594Y251744D02*
X267406D01*
X255594Y257256D02*
X267406D01*
Y251744D02*
Y257256D01*
X255594Y251744D02*
Y257256D01*
X212256Y286595D02*
Y298406D01*
X206744Y286595D02*
Y298406D01*
X212256D01*
X206744Y286595D02*
X212256D01*
X252256Y296094D02*
Y307906D01*
X246744Y296094D02*
Y307906D01*
X252256D01*
X246744Y296094D02*
X252256D01*
X245256D02*
Y307906D01*
X239744Y296094D02*
Y307906D01*
X245256D01*
X239744Y296094D02*
X245256D01*
X269256D02*
Y307906D01*
X263744Y296094D02*
Y307906D01*
X269256D01*
X263744Y296094D02*
X269256D01*
X276256D02*
Y307906D01*
X270744Y296094D02*
Y307906D01*
X276256D01*
X270744Y296094D02*
X276256D01*
X260756Y288595D02*
Y300406D01*
X255244Y288595D02*
Y300406D01*
X260756D01*
X255244Y288595D02*
X260756D01*
X255095Y194756D02*
X266905D01*
X255095Y189244D02*
X266905D01*
X255095D02*
Y194756D01*
X266905Y189244D02*
Y194756D01*
X246595Y281256D02*
X258405D01*
X246595Y275744D02*
X258405D01*
X246595D02*
Y281256D01*
X258405Y275744D02*
Y281256D01*
X156744Y286595D02*
Y298406D01*
X162256Y286595D02*
Y298406D01*
X156744Y286595D02*
X162256D01*
X156744Y298406D02*
X162256D01*
X253756Y151094D02*
Y162906D01*
X248244Y151094D02*
Y162906D01*
X253756D01*
X248244Y151094D02*
X253756D01*
Y164094D02*
Y175906D01*
X248244Y164094D02*
Y175906D01*
X253756D01*
X248244Y164094D02*
X253756D01*
X163244Y316248D02*
Y328059D01*
X168756Y316248D02*
Y328059D01*
X163244Y316248D02*
X168756D01*
X163244Y328059D02*
X168756D01*
X188244Y316094D02*
Y327906D01*
X193756Y316094D02*
Y327906D01*
X188244Y316094D02*
X193756D01*
X188244Y327906D02*
X193756D01*
X163244Y329095D02*
Y340905D01*
X168756Y329095D02*
Y340905D01*
X163244Y329095D02*
X168756D01*
X163244Y340905D02*
X168756D01*
X188244Y329095D02*
Y340905D01*
X193756Y329095D02*
Y340905D01*
X188244Y329095D02*
X193756D01*
X188244Y340905D02*
X193756D01*
X124594Y280756D02*
X136406D01*
X124594Y275244D02*
X136406D01*
X124594D02*
Y280756D01*
X136406Y275244D02*
Y280756D01*
X124594Y293756D02*
X136406D01*
X124594Y288244D02*
X136406D01*
X124594D02*
Y293756D01*
X136406Y288244D02*
Y293756D01*
D37*
X150499Y351998D02*
X149499Y352998D01*
X147500D01*
X146500Y351998D01*
Y350999D01*
X147500Y349999D01*
X149499D01*
X150499Y348999D01*
Y348000D01*
X149499Y347000D01*
X147500D01*
X146500Y348000D01*
X152498Y345001D02*
Y350999D01*
X155497D01*
X156497Y349999D01*
Y348000D01*
X155497Y347000D01*
X152498D01*
X159496Y350999D02*
X161495D01*
X162495Y349999D01*
Y347000D01*
X159496D01*
X158496Y348000D01*
X159496Y348999D01*
X162495D01*
X164494Y350999D02*
Y347000D01*
Y348999D01*
X165494Y349999D01*
X166493Y350999D01*
X167493D01*
X171492Y351998D02*
Y350999D01*
X170492D01*
X172492D01*
X171492D01*
Y348000D01*
X172492Y347000D01*
X176490Y350999D02*
X178490D01*
X179489Y349999D01*
Y347000D01*
X176490D01*
X175491Y348000D01*
X176490Y348999D01*
X179489D01*
X181489Y347000D02*
Y350999D01*
X184488D01*
X185487Y349999D01*
Y347000D01*
X197484Y352998D02*
X195484Y351998D01*
X193485Y349999D01*
Y348000D01*
X194484Y347000D01*
X196484D01*
X197484Y348000D01*
Y348999D01*
X196484Y349999D01*
X193485D01*
X205481Y352998D02*
Y347000D01*
X209480D01*
X211479Y352998D02*
X215478Y347000D01*
Y352998D02*
X211479Y347000D01*
X217477Y348000D02*
X218477Y347000D01*
X220476D01*
X221476Y348000D01*
Y351998D01*
X220476Y352998D01*
X218477D01*
X217477Y351998D01*
Y350999D01*
X218477Y349999D01*
X221476D01*
X229473Y352998D02*
X233472D01*
X231472D01*
Y347000D01*
X236471Y350999D02*
X238470D01*
X239470Y349999D01*
Y347000D01*
X236471D01*
X235471Y348000D01*
X236471Y348999D01*
X239470D01*
X241469Y350999D02*
Y347000D01*
Y348999D01*
X242469Y349999D01*
X243469Y350999D01*
X244468D01*
X249467Y345001D02*
X250466D01*
X251466Y346000D01*
Y350999D01*
X248467D01*
X247467Y349999D01*
Y348000D01*
X248467Y347000D01*
X251466D01*
X256464D02*
X254465D01*
X253465Y348000D01*
Y349999D01*
X254465Y350999D01*
X256464D01*
X257464Y349999D01*
Y348999D01*
X253465D01*
X260463Y351998D02*
Y350999D01*
X259464D01*
X261463D01*
X260463D01*
Y348000D01*
X261463Y347000D01*
M02*
