G04 Layer_Color=8421504*
%FSLAX25Y25*%
%MOIN*%
G70*
G01*
G75*
%ADD10O,0.00984X0.06102*%
%ADD11O,0.06102X0.00984*%
G04:AMPARAMS|DCode=12|XSize=39.37mil|YSize=35.43mil|CornerRadius=4.43mil|HoleSize=0mil|Usage=FLASHONLY|Rotation=180.000|XOffset=0mil|YOffset=0mil|HoleType=Round|Shape=RoundedRectangle|*
%AMROUNDEDRECTD12*
21,1,0.03937,0.02658,0,0,180.0*
21,1,0.03051,0.03543,0,0,180.0*
1,1,0.00886,-0.01526,0.01329*
1,1,0.00886,0.01526,0.01329*
1,1,0.00886,0.01526,-0.01329*
1,1,0.00886,-0.01526,-0.01329*
%
%ADD12ROUNDEDRECTD12*%
G04:AMPARAMS|DCode=13|XSize=39.37mil|YSize=35.43mil|CornerRadius=4.43mil|HoleSize=0mil|Usage=FLASHONLY|Rotation=90.000|XOffset=0mil|YOffset=0mil|HoleType=Round|Shape=RoundedRectangle|*
%AMROUNDEDRECTD13*
21,1,0.03937,0.02658,0,0,90.0*
21,1,0.03051,0.03543,0,0,90.0*
1,1,0.00886,0.01329,0.01526*
1,1,0.00886,0.01329,-0.01526*
1,1,0.00886,-0.01329,-0.01526*
1,1,0.00886,-0.01329,0.01526*
%
%ADD13ROUNDEDRECTD13*%
%ADD14R,0.02500X0.05000*%
%ADD38R,0.09606X0.08661*%
D10*
X235449Y194063D02*
D03*
X233480D02*
D03*
X231512D02*
D03*
X229543D02*
D03*
X227575D02*
D03*
X225606D02*
D03*
X223638D02*
D03*
X221669D02*
D03*
X219701D02*
D03*
X217732D02*
D03*
X215764D02*
D03*
X213795D02*
D03*
X211827D02*
D03*
X209858D02*
D03*
X207890D02*
D03*
X205921D02*
D03*
X203953D02*
D03*
X201984D02*
D03*
X200016D02*
D03*
X198047D02*
D03*
X196079D02*
D03*
X194110D02*
D03*
X192142D02*
D03*
X190173D02*
D03*
X188205D02*
D03*
X186236D02*
D03*
X184268D02*
D03*
X182299D02*
D03*
X180331D02*
D03*
X178362D02*
D03*
X176394D02*
D03*
X174425D02*
D03*
X172457D02*
D03*
X170488D02*
D03*
X168520D02*
D03*
X166551D02*
D03*
Y276937D02*
D03*
X168520D02*
D03*
X170488D02*
D03*
X172457D02*
D03*
X174425D02*
D03*
X176394D02*
D03*
X178362D02*
D03*
X180331D02*
D03*
X182299D02*
D03*
X184268D02*
D03*
X186236D02*
D03*
X188205D02*
D03*
X190173D02*
D03*
X192142D02*
D03*
X194110D02*
D03*
X196079D02*
D03*
X198047D02*
D03*
X200016D02*
D03*
X201984D02*
D03*
X203953D02*
D03*
X205921D02*
D03*
X207890D02*
D03*
X209858D02*
D03*
X211827D02*
D03*
X213795D02*
D03*
X215764D02*
D03*
X217732D02*
D03*
X219701D02*
D03*
X221669D02*
D03*
X223638D02*
D03*
X225606D02*
D03*
X227575D02*
D03*
X229543D02*
D03*
X231512D02*
D03*
X233480D02*
D03*
X235449D02*
D03*
D11*
X159563Y201051D02*
D03*
Y203020D02*
D03*
Y204988D02*
D03*
Y206957D02*
D03*
Y208925D02*
D03*
Y210894D02*
D03*
Y212862D02*
D03*
Y214831D02*
D03*
Y216799D02*
D03*
Y218768D02*
D03*
Y220736D02*
D03*
Y222705D02*
D03*
Y224673D02*
D03*
Y226642D02*
D03*
Y228610D02*
D03*
Y230579D02*
D03*
Y232547D02*
D03*
Y234516D02*
D03*
Y236484D02*
D03*
Y238453D02*
D03*
Y240421D02*
D03*
Y242390D02*
D03*
Y244358D02*
D03*
Y246327D02*
D03*
Y248295D02*
D03*
Y250264D02*
D03*
Y252232D02*
D03*
Y254201D02*
D03*
Y256169D02*
D03*
Y258138D02*
D03*
Y260106D02*
D03*
Y262075D02*
D03*
Y264043D02*
D03*
Y266012D02*
D03*
Y267980D02*
D03*
Y269949D02*
D03*
X242437D02*
D03*
Y267980D02*
D03*
Y266012D02*
D03*
Y264043D02*
D03*
Y262075D02*
D03*
Y260106D02*
D03*
Y258138D02*
D03*
Y256169D02*
D03*
Y254201D02*
D03*
Y252232D02*
D03*
Y250264D02*
D03*
Y248295D02*
D03*
Y246327D02*
D03*
Y244358D02*
D03*
Y242390D02*
D03*
Y240421D02*
D03*
Y238453D02*
D03*
Y236484D02*
D03*
Y234516D02*
D03*
Y232547D02*
D03*
Y230579D02*
D03*
Y228610D02*
D03*
Y226642D02*
D03*
Y224673D02*
D03*
Y222705D02*
D03*
Y220736D02*
D03*
Y218768D02*
D03*
Y216799D02*
D03*
Y214831D02*
D03*
Y212862D02*
D03*
Y210894D02*
D03*
Y208925D02*
D03*
Y206957D02*
D03*
Y204988D02*
D03*
Y203020D02*
D03*
Y201051D02*
D03*
D12*
X184000Y289154D02*
D03*
Y295847D02*
D03*
X201000Y289154D02*
D03*
Y295847D02*
D03*
X225500Y289154D02*
D03*
Y295847D02*
D03*
X192000Y180847D02*
D03*
Y174153D02*
D03*
X204500Y180847D02*
D03*
Y174153D02*
D03*
X209500Y289154D02*
D03*
Y295847D02*
D03*
X249500Y298654D02*
D03*
Y305346D02*
D03*
X242500Y298654D02*
D03*
Y305346D02*
D03*
X266500Y298654D02*
D03*
Y305346D02*
D03*
X273500Y298654D02*
D03*
Y305346D02*
D03*
X258000Y291154D02*
D03*
Y297847D02*
D03*
X159500Y295847D02*
D03*
Y289154D02*
D03*
X251000Y153654D02*
D03*
Y160346D02*
D03*
Y166654D02*
D03*
Y173346D02*
D03*
X166000Y325500D02*
D03*
Y318807D02*
D03*
X191000Y325346D02*
D03*
Y318653D02*
D03*
X166000Y338347D02*
D03*
Y331653D02*
D03*
X191000Y338347D02*
D03*
Y331653D02*
D03*
D13*
X258154Y238500D02*
D03*
X264846D02*
D03*
X257653Y207000D02*
D03*
X264347D02*
D03*
X145346Y211000D02*
D03*
X138654D02*
D03*
X145346Y236000D02*
D03*
X138654D02*
D03*
X145346Y244500D02*
D03*
X138654D02*
D03*
X258154Y254500D02*
D03*
X264846D02*
D03*
X264347Y192000D02*
D03*
X257653D02*
D03*
X255847Y278500D02*
D03*
X249153D02*
D03*
X133846Y278000D02*
D03*
X127154D02*
D03*
X133846Y291000D02*
D03*
X127154D02*
D03*
D14*
X125757Y136000D02*
D03*
X129000D02*
D03*
X125878Y148000D02*
D03*
X129122D02*
D03*
D38*
X127378Y136000D02*
D03*
X127500Y148000D02*
D03*
M02*
