G75*
%MOIN*%
%OFA0B0*%
%FSLAX25Y25*%
%IPPOS*%
%LPD*%
%AMOC8*
5,1,8,0,0,1.08239X$1,22.5*
%
%ADD10C,0.00000*%
%ADD11C,0.00800*%
%ADD12C,0.00600*%
%ADD13C,0.01200*%
%ADD14C,0.00500*%
%ADD15C,0.01300*%
D10*
X0002370Y0038506D02*
X0002370Y0262207D01*
X0287291Y0262207D01*
X0287291Y0038506D01*
X0002370Y0038506D01*
X0095370Y0038506D02*
X0139370Y0038506D01*
X0145370Y0038506D02*
X0189370Y0038506D01*
D11*
X0238552Y0151466D02*
X0239953Y0151466D01*
X0240654Y0152167D01*
X0237852Y0154969D01*
X0237852Y0152167D01*
X0238552Y0151466D01*
X0240654Y0152167D02*
X0240654Y0154969D01*
X0239953Y0155670D01*
X0238552Y0155670D01*
X0237852Y0154969D01*
X0242455Y0154269D02*
X0242455Y0151466D01*
X0242455Y0153568D02*
X0245258Y0153568D01*
X0245258Y0154269D02*
X0243857Y0155670D01*
X0242455Y0154269D01*
X0245258Y0154269D02*
X0245258Y0151466D01*
X0258172Y0161626D02*
X0260974Y0161626D01*
X0259573Y0161626D02*
X0259573Y0165830D01*
X0260974Y0164429D01*
X0262775Y0164429D02*
X0262775Y0161626D01*
X0262775Y0163728D02*
X0265578Y0163728D01*
X0265578Y0164429D02*
X0265578Y0161626D01*
X0265578Y0164429D02*
X0264177Y0165830D01*
X0262775Y0164429D01*
X0262775Y0171786D02*
X0262775Y0174589D01*
X0264177Y0175990D01*
X0265578Y0174589D01*
X0265578Y0171786D01*
X0265578Y0173888D02*
X0262775Y0173888D01*
X0260974Y0175289D02*
X0260273Y0175990D01*
X0258872Y0175990D01*
X0258172Y0175289D01*
X0258172Y0174589D01*
X0260974Y0171786D01*
X0258172Y0171786D01*
X0258872Y0181946D02*
X0260273Y0181946D01*
X0260974Y0182647D01*
X0262775Y0181946D02*
X0262775Y0184749D01*
X0264177Y0186150D01*
X0265578Y0184749D01*
X0265578Y0181946D01*
X0265578Y0184048D02*
X0262775Y0184048D01*
X0260974Y0185449D02*
X0260273Y0186150D01*
X0258872Y0186150D01*
X0258172Y0185449D01*
X0258172Y0184749D01*
X0258872Y0184048D01*
X0258172Y0183347D01*
X0258172Y0182647D01*
X0258872Y0181946D01*
X0258872Y0184048D02*
X0259573Y0184048D01*
X0261505Y0190836D02*
X0261505Y0193639D01*
X0262907Y0195040D01*
X0264308Y0193639D01*
X0264308Y0190836D01*
X0264308Y0192938D02*
X0261505Y0192938D01*
X0259704Y0192938D02*
X0256902Y0192938D01*
X0257602Y0190836D02*
X0257602Y0195040D01*
X0259704Y0192938D01*
X0259003Y0200996D02*
X0257602Y0200996D01*
X0256902Y0201697D01*
X0256902Y0203098D01*
X0257602Y0203799D01*
X0258303Y0203799D01*
X0259704Y0203098D01*
X0259704Y0205200D01*
X0256902Y0205200D01*
X0259704Y0201697D02*
X0259003Y0200996D01*
X0261505Y0200996D02*
X0261505Y0203799D01*
X0262907Y0205200D01*
X0264308Y0203799D01*
X0264308Y0200996D01*
X0264308Y0203098D02*
X0261505Y0203098D01*
X0260498Y0211156D02*
X0260498Y0215360D01*
X0257695Y0211156D01*
X0257695Y0215360D01*
X0255894Y0215360D02*
X0253792Y0215360D01*
X0253092Y0214659D01*
X0253092Y0211857D01*
X0253792Y0211156D01*
X0255894Y0211156D01*
X0255894Y0215360D01*
X0262299Y0214659D02*
X0263000Y0215360D01*
X0264401Y0215360D01*
X0265102Y0214659D01*
X0265102Y0211857D01*
X0264401Y0211156D01*
X0263000Y0211156D01*
X0262299Y0211857D01*
X0262299Y0213258D01*
X0263701Y0213258D01*
X0173820Y0180990D02*
X0171018Y0180990D01*
X0172419Y0180990D02*
X0172419Y0176786D01*
X0169216Y0176786D02*
X0166414Y0180990D01*
X0164612Y0180990D02*
X0162510Y0180990D01*
X0161810Y0180289D01*
X0161810Y0177487D01*
X0162510Y0176786D01*
X0164612Y0176786D01*
X0164612Y0180990D01*
X0166414Y0176786D02*
X0169216Y0180990D01*
X0148420Y0180990D02*
X0148420Y0176786D01*
X0148420Y0178187D02*
X0146318Y0178187D01*
X0145618Y0178888D01*
X0145618Y0180289D01*
X0146318Y0180990D01*
X0148420Y0180990D01*
X0147019Y0178187D02*
X0145618Y0176786D01*
X0143816Y0176786D02*
X0141014Y0180990D01*
X0139212Y0180990D02*
X0137110Y0180990D01*
X0136410Y0180289D01*
X0136410Y0177487D01*
X0137110Y0176786D01*
X0139212Y0176786D01*
X0139212Y0180990D01*
X0141014Y0176786D02*
X0143816Y0180990D01*
X0080170Y0223534D02*
X0080170Y0237346D01*
X0078574Y0235945D02*
X0078574Y0233142D01*
X0078574Y0234544D02*
X0074370Y0234544D01*
X0075071Y0231341D02*
X0074370Y0230640D01*
X0074370Y0229239D01*
X0075071Y0228538D01*
X0076472Y0229239D02*
X0076472Y0230640D01*
X0075771Y0231341D01*
X0075071Y0231341D01*
X0076472Y0229239D02*
X0077172Y0228538D01*
X0077873Y0228538D01*
X0078574Y0229239D01*
X0078574Y0230640D01*
X0077873Y0231341D01*
X0077873Y0226737D02*
X0076472Y0226737D01*
X0075771Y0226036D01*
X0075771Y0223934D01*
X0074370Y0223934D02*
X0078574Y0223934D01*
X0078574Y0226036D01*
X0077873Y0226737D01*
X0075771Y0225336D02*
X0074370Y0226737D01*
X0049364Y0227306D02*
X0049364Y0225905D01*
X0048663Y0225205D01*
X0047262Y0226606D02*
X0047262Y0227306D01*
X0046561Y0228007D01*
X0045861Y0228007D01*
X0045160Y0227306D01*
X0045160Y0225905D01*
X0045861Y0225205D01*
X0047262Y0227306D02*
X0047962Y0228007D01*
X0048663Y0228007D01*
X0049364Y0227306D01*
X0049364Y0229808D02*
X0046561Y0229808D01*
X0045160Y0231210D01*
X0046561Y0232611D01*
X0049364Y0232611D01*
X0048663Y0234412D02*
X0049364Y0235113D01*
X0049364Y0236514D01*
X0048663Y0237215D01*
X0047962Y0237215D01*
X0047262Y0236514D01*
X0046561Y0237215D01*
X0045861Y0237215D01*
X0045160Y0236514D01*
X0045160Y0235113D01*
X0045861Y0234412D01*
X0047262Y0235814D02*
X0047262Y0236514D01*
X0039204Y0236514D02*
X0039204Y0234412D01*
X0035000Y0234412D01*
X0035000Y0236514D01*
X0035701Y0237215D01*
X0038503Y0237215D01*
X0039204Y0236514D01*
X0039204Y0232611D02*
X0035000Y0232611D01*
X0039204Y0229808D01*
X0035000Y0229808D01*
X0035701Y0228007D02*
X0037102Y0228007D01*
X0037102Y0226606D01*
X0038503Y0228007D02*
X0039204Y0227306D01*
X0039204Y0225905D01*
X0038503Y0225205D01*
X0035701Y0225205D01*
X0035000Y0225905D01*
X0035000Y0227306D01*
X0035701Y0228007D01*
D12*
X0042814Y0204922D02*
X0042814Y0202653D01*
X0042247Y0202086D01*
X0042247Y0204355D02*
X0043381Y0204355D01*
X0044796Y0203788D02*
X0044796Y0203221D01*
X0047064Y0203221D01*
X0047064Y0203788D02*
X0047064Y0202653D01*
X0046497Y0202086D01*
X0045363Y0202086D01*
X0044796Y0203788D02*
X0045363Y0204355D01*
X0046497Y0204355D01*
X0047064Y0203788D01*
X0048479Y0204355D02*
X0048479Y0201519D01*
X0049046Y0200952D01*
X0049613Y0200952D01*
X0050180Y0202086D02*
X0048479Y0202086D01*
X0050180Y0202086D02*
X0050748Y0202653D01*
X0050748Y0203788D01*
X0050180Y0204355D01*
X0048479Y0204355D01*
X0052115Y0204355D02*
X0052683Y0204355D01*
X0053817Y0203221D01*
X0053817Y0204355D02*
X0053817Y0202086D01*
X0055231Y0202086D02*
X0055231Y0203788D01*
X0055799Y0204355D01*
X0056933Y0204355D01*
X0056933Y0203221D02*
X0055231Y0203221D01*
X0055231Y0202086D02*
X0056933Y0202086D01*
X0057500Y0202653D01*
X0056933Y0203221D01*
X0058915Y0205489D02*
X0061183Y0205489D01*
X0060049Y0205489D02*
X0060049Y0202086D01*
X0060024Y0199275D02*
X0058890Y0199275D01*
X0058323Y0198708D01*
X0058323Y0198141D01*
X0060591Y0198141D01*
X0060591Y0198708D02*
X0060591Y0197573D01*
X0060024Y0197006D01*
X0058890Y0197006D01*
X0056908Y0197006D02*
X0056908Y0199275D01*
X0055774Y0199275D02*
X0055207Y0199275D01*
X0055774Y0199275D02*
X0056908Y0198141D01*
X0053839Y0197573D02*
X0053272Y0197573D01*
X0053272Y0197006D01*
X0053839Y0197006D01*
X0053839Y0197573D01*
X0051997Y0197573D02*
X0051430Y0197006D01*
X0049729Y0197006D01*
X0048314Y0197573D02*
X0047747Y0197006D01*
X0046613Y0197006D01*
X0046045Y0197573D01*
X0046045Y0198708D01*
X0046613Y0199275D01*
X0047747Y0199275D01*
X0048314Y0198708D01*
X0048314Y0197573D01*
X0049729Y0199275D02*
X0051430Y0199275D01*
X0051997Y0198708D01*
X0051997Y0197573D01*
X0060024Y0199275D02*
X0060591Y0198708D01*
X0061959Y0199275D02*
X0062526Y0199275D01*
X0063660Y0198141D01*
X0063660Y0199275D02*
X0063660Y0197006D01*
X0065075Y0198141D02*
X0067344Y0198141D01*
X0067344Y0198708D02*
X0067344Y0197573D01*
X0066776Y0197006D01*
X0065642Y0197006D01*
X0065075Y0198141D02*
X0065075Y0198708D01*
X0065642Y0199275D01*
X0066776Y0199275D01*
X0067344Y0198708D01*
X0068758Y0198708D02*
X0068758Y0197573D01*
X0069325Y0197006D01*
X0071027Y0197006D01*
X0071027Y0195872D02*
X0071027Y0199275D01*
X0069325Y0199275D01*
X0068758Y0198708D01*
X0067936Y0202086D02*
X0067936Y0204355D01*
X0067936Y0203221D02*
X0066801Y0204355D01*
X0066234Y0204355D01*
X0069350Y0203788D02*
X0069350Y0203221D01*
X0071619Y0203221D01*
X0071619Y0203788D02*
X0071619Y0202653D01*
X0071052Y0202086D01*
X0069917Y0202086D01*
X0069350Y0203788D02*
X0069917Y0204355D01*
X0071052Y0204355D01*
X0071619Y0203788D01*
X0072987Y0204355D02*
X0073554Y0204355D01*
X0074688Y0203221D01*
X0074688Y0204355D02*
X0074688Y0202086D01*
X0076103Y0203221D02*
X0076103Y0203788D01*
X0076670Y0204355D01*
X0077804Y0204355D01*
X0078371Y0203788D01*
X0078371Y0202653D01*
X0077804Y0202086D01*
X0076670Y0202086D01*
X0076598Y0200976D02*
X0076598Y0200409D01*
X0076598Y0199275D02*
X0076598Y0197006D01*
X0077165Y0197006D02*
X0076031Y0197006D01*
X0074710Y0197006D02*
X0073008Y0197006D01*
X0072441Y0197573D01*
X0073008Y0198141D01*
X0074143Y0198141D01*
X0074710Y0198708D01*
X0074143Y0199275D01*
X0072441Y0199275D01*
X0076598Y0199275D02*
X0077165Y0199275D01*
X0078580Y0198708D02*
X0078580Y0197006D01*
X0078580Y0198708D02*
X0079147Y0199275D01*
X0080281Y0199275D01*
X0080848Y0198708D01*
X0080848Y0200409D02*
X0080848Y0197006D01*
X0082263Y0197006D02*
X0082263Y0200409D01*
X0082054Y0200952D02*
X0082054Y0204355D01*
X0080353Y0204355D01*
X0079786Y0203788D01*
X0079786Y0202653D01*
X0080353Y0202086D01*
X0082054Y0202086D01*
X0083469Y0202653D02*
X0084036Y0203221D01*
X0085170Y0203221D01*
X0085737Y0203788D01*
X0085170Y0204355D01*
X0083469Y0204355D01*
X0083469Y0202653D02*
X0084036Y0202086D01*
X0085737Y0202086D01*
X0087059Y0202086D02*
X0088193Y0202086D01*
X0087626Y0202086D02*
X0087626Y0204355D01*
X0088193Y0204355D01*
X0087626Y0205489D02*
X0087626Y0206056D01*
X0089607Y0203788D02*
X0089607Y0202086D01*
X0090103Y0200976D02*
X0090103Y0200409D01*
X0090103Y0199275D02*
X0090103Y0197006D01*
X0090670Y0197006D02*
X0089536Y0197006D01*
X0088215Y0197006D02*
X0086513Y0197006D01*
X0085946Y0197573D01*
X0085946Y0198708D01*
X0086513Y0199275D01*
X0088215Y0199275D01*
X0088215Y0195872D01*
X0084532Y0197006D02*
X0084532Y0200409D01*
X0083397Y0198141D02*
X0082263Y0197006D01*
X0083397Y0198141D02*
X0084532Y0197006D01*
X0090103Y0199275D02*
X0090670Y0199275D01*
X0092085Y0198708D02*
X0092085Y0197006D01*
X0092085Y0198708D02*
X0092652Y0199275D01*
X0093786Y0199275D01*
X0094353Y0198708D01*
X0094353Y0200409D02*
X0094353Y0197006D01*
X0095768Y0197573D02*
X0096335Y0197006D01*
X0097469Y0197006D01*
X0098036Y0197573D01*
X0098036Y0199842D01*
X0097469Y0200409D01*
X0096335Y0200409D01*
X0095768Y0199842D01*
X0095559Y0202086D02*
X0094425Y0203221D01*
X0093291Y0202086D01*
X0093291Y0205489D01*
X0091876Y0205489D02*
X0091876Y0202086D01*
X0091876Y0203788D02*
X0091309Y0204355D01*
X0090175Y0204355D01*
X0089607Y0203788D01*
X0095559Y0205489D02*
X0095559Y0202086D01*
X0096974Y0202653D02*
X0096974Y0203788D01*
X0097541Y0204355D01*
X0099242Y0204355D01*
X0099242Y0200952D01*
X0099242Y0202086D02*
X0097541Y0202086D01*
X0096974Y0202653D01*
X0100563Y0202086D02*
X0101698Y0202086D01*
X0101131Y0202086D02*
X0101131Y0204355D01*
X0101698Y0204355D01*
X0101131Y0205489D02*
X0101131Y0206056D01*
X0103112Y0203788D02*
X0103112Y0202086D01*
X0103112Y0203788D02*
X0103679Y0204355D01*
X0104814Y0204355D01*
X0105381Y0203788D01*
X0105381Y0205489D02*
X0105381Y0202086D01*
X0106795Y0202653D02*
X0107363Y0202086D01*
X0108497Y0202086D01*
X0109064Y0202653D01*
X0109064Y0204922D01*
X0108497Y0205489D01*
X0107363Y0205489D01*
X0106795Y0204922D01*
X0107244Y0199275D02*
X0107244Y0197573D01*
X0106677Y0197006D01*
X0106110Y0197573D01*
X0105543Y0197006D01*
X0104976Y0197573D01*
X0104976Y0199275D01*
X0103561Y0199275D02*
X0103561Y0197573D01*
X0102994Y0197006D01*
X0102427Y0197573D01*
X0101860Y0197006D01*
X0101293Y0197573D01*
X0101293Y0199275D01*
X0099878Y0197573D02*
X0099311Y0197573D01*
X0099311Y0197006D01*
X0099878Y0197006D01*
X0099878Y0197573D01*
X0108659Y0197573D02*
X0108659Y0199275D01*
X0108659Y0197573D02*
X0109226Y0197006D01*
X0109793Y0197573D01*
X0110360Y0197006D01*
X0110927Y0197573D01*
X0110927Y0199275D01*
X0114162Y0202086D02*
X0115863Y0202086D01*
X0116430Y0202653D01*
X0115863Y0203221D01*
X0114162Y0203221D01*
X0114162Y0203788D02*
X0114162Y0202086D01*
X0114162Y0203788D02*
X0114729Y0204355D01*
X0115863Y0204355D01*
X0116592Y0199275D02*
X0116025Y0198708D01*
X0116025Y0198141D01*
X0118294Y0198141D01*
X0118294Y0198708D02*
X0118294Y0197573D01*
X0117727Y0197006D01*
X0116592Y0197006D01*
X0116592Y0199275D02*
X0117727Y0199275D01*
X0118294Y0198708D01*
X0119708Y0198708D02*
X0119708Y0198141D01*
X0121977Y0198141D01*
X0121977Y0198708D02*
X0121977Y0197573D01*
X0121410Y0197006D01*
X0120275Y0197006D01*
X0119708Y0198708D02*
X0120275Y0199275D01*
X0121410Y0199275D01*
X0121977Y0198708D01*
X0123391Y0199275D02*
X0125093Y0199275D01*
X0125660Y0198708D01*
X0125093Y0198141D01*
X0123959Y0198141D01*
X0123391Y0197573D01*
X0123959Y0197006D01*
X0125660Y0197006D01*
X0125685Y0202086D02*
X0125685Y0204355D01*
X0126252Y0204355D01*
X0125685Y0205489D02*
X0125685Y0206056D01*
X0123797Y0203788D02*
X0123229Y0204355D01*
X0121528Y0204355D01*
X0122095Y0203221D02*
X0123229Y0203221D01*
X0123797Y0203788D01*
X0123797Y0202086D02*
X0122095Y0202086D01*
X0121528Y0202653D01*
X0122095Y0203221D01*
X0125118Y0202086D02*
X0126252Y0202086D01*
X0131350Y0202653D02*
X0131917Y0203221D01*
X0133051Y0203221D01*
X0133618Y0203788D01*
X0133051Y0204355D01*
X0131350Y0204355D01*
X0131350Y0202653D02*
X0131917Y0202086D01*
X0133618Y0202086D01*
X0134939Y0202086D02*
X0136074Y0202086D01*
X0135507Y0202086D02*
X0135507Y0204355D01*
X0136074Y0204355D01*
X0135507Y0205489D02*
X0135507Y0206056D01*
X0137488Y0203788D02*
X0137488Y0202086D01*
X0137488Y0203788D02*
X0138055Y0204355D01*
X0139190Y0204355D01*
X0139757Y0203788D01*
X0139757Y0205489D02*
X0139757Y0202086D01*
X0142306Y0202086D02*
X0142306Y0205489D01*
X0143440Y0205489D02*
X0141171Y0205489D01*
X0078371Y0203221D02*
X0076103Y0203221D01*
X0044631Y0199275D02*
X0044631Y0197006D01*
X0043497Y0197006D02*
X0043497Y0198708D01*
X0042929Y0199275D01*
X0042362Y0198708D01*
X0042362Y0197006D01*
X0043497Y0198708D02*
X0044064Y0199275D01*
X0044631Y0199275D01*
X0174563Y0125479D02*
X0174563Y0122076D01*
X0175697Y0122076D02*
X0173429Y0122076D01*
X0175697Y0124345D02*
X0174563Y0125479D01*
X0177112Y0122076D02*
X0179381Y0122076D01*
X0179381Y0125479D01*
X0180795Y0124345D02*
X0180795Y0122076D01*
X0180795Y0123778D02*
X0183064Y0123778D01*
X0183064Y0124345D02*
X0183064Y0122076D01*
X0183064Y0124345D02*
X0181929Y0125479D01*
X0180795Y0124345D01*
X0184478Y0125479D02*
X0186747Y0125479D01*
X0185613Y0125479D02*
X0185613Y0122076D01*
X0188161Y0122076D02*
X0190430Y0125479D01*
X0188161Y0125479D02*
X0190430Y0122076D01*
X0190430Y0115319D02*
X0188161Y0111916D01*
X0190430Y0111916D02*
X0188161Y0115319D01*
X0186747Y0115319D02*
X0184478Y0115319D01*
X0185613Y0115319D02*
X0185613Y0111916D01*
X0183064Y0111916D02*
X0183064Y0114185D01*
X0181929Y0115319D01*
X0180795Y0114185D01*
X0180795Y0111916D01*
X0179381Y0111916D02*
X0179381Y0115319D01*
X0180795Y0113618D02*
X0183064Y0113618D01*
X0179381Y0111916D02*
X0177112Y0111916D01*
X0175697Y0111916D02*
X0173429Y0114185D01*
X0173429Y0114752D01*
X0173996Y0115319D01*
X0175130Y0115319D01*
X0175697Y0114752D01*
X0175697Y0111916D02*
X0173429Y0111916D01*
X0172463Y0083086D02*
X0172463Y0082519D01*
X0172463Y0081385D02*
X0172463Y0079116D01*
X0171896Y0079116D02*
X0173031Y0079116D01*
X0173031Y0081385D02*
X0172463Y0081385D01*
X0170575Y0080818D02*
X0170575Y0079683D01*
X0170008Y0079116D01*
X0168307Y0079116D01*
X0166892Y0079683D02*
X0166325Y0079116D01*
X0165191Y0079116D01*
X0164623Y0080251D02*
X0166892Y0080251D01*
X0166892Y0080818D02*
X0166325Y0081385D01*
X0165191Y0081385D01*
X0164623Y0080818D01*
X0164623Y0080251D01*
X0166892Y0080818D02*
X0166892Y0079683D01*
X0168307Y0081385D02*
X0170008Y0081385D01*
X0170575Y0080818D01*
X0174445Y0081385D02*
X0175579Y0079116D01*
X0176714Y0081385D01*
X0178128Y0080818D02*
X0178128Y0080251D01*
X0180397Y0080251D01*
X0180397Y0080818D02*
X0179830Y0081385D01*
X0178695Y0081385D01*
X0178128Y0080818D01*
X0178695Y0079116D02*
X0179830Y0079116D01*
X0180397Y0079683D01*
X0180397Y0080818D01*
X0181811Y0081952D02*
X0182379Y0082519D01*
X0184080Y0082519D01*
X0184080Y0079116D01*
X0182379Y0079116D01*
X0181811Y0079683D01*
X0181811Y0081952D01*
X0176147Y0076519D02*
X0176714Y0075952D01*
X0176714Y0075385D01*
X0176147Y0074818D01*
X0175012Y0074818D01*
X0174445Y0074251D01*
X0174445Y0073683D01*
X0175012Y0073116D01*
X0176147Y0073116D01*
X0176714Y0073683D01*
X0176147Y0076519D02*
X0175012Y0076519D01*
X0174445Y0075952D01*
X0173031Y0075385D02*
X0171896Y0076519D01*
X0171896Y0073116D01*
X0170762Y0073116D02*
X0173031Y0073116D01*
X0172463Y0070519D02*
X0171329Y0070519D01*
X0170762Y0069952D01*
X0170762Y0069385D01*
X0173031Y0067116D01*
X0170762Y0067116D01*
X0172557Y0064519D02*
X0173691Y0064519D01*
X0174258Y0063952D01*
X0174258Y0061683D01*
X0173691Y0061116D01*
X0172557Y0061116D01*
X0171990Y0061683D01*
X0171990Y0062818D01*
X0173124Y0062818D01*
X0171990Y0063952D02*
X0172557Y0064519D01*
X0175579Y0064519D02*
X0176714Y0064519D01*
X0176147Y0064519D02*
X0176147Y0061116D01*
X0176714Y0061116D02*
X0175579Y0061116D01*
X0178128Y0061116D02*
X0179263Y0062251D01*
X0178695Y0062251D02*
X0180397Y0062251D01*
X0180397Y0061116D02*
X0180397Y0064519D01*
X0178695Y0064519D01*
X0178128Y0063952D01*
X0178128Y0062818D01*
X0178695Y0062251D01*
X0181811Y0064519D02*
X0184080Y0064519D01*
X0182946Y0064519D02*
X0182946Y0061116D01*
X0184080Y0067116D02*
X0181811Y0067116D01*
X0180397Y0067116D02*
X0180397Y0070519D01*
X0178128Y0070519D01*
X0176714Y0070519D02*
X0176714Y0067116D01*
X0175012Y0067116D01*
X0174445Y0067683D01*
X0174445Y0069952D01*
X0175012Y0070519D01*
X0176714Y0070519D01*
X0179263Y0068818D02*
X0180397Y0068818D01*
X0180397Y0067116D02*
X0178128Y0067116D01*
X0173031Y0069952D02*
X0172463Y0070519D01*
X0184080Y0070519D02*
X0184080Y0067116D01*
X0159526Y0063385D02*
X0158391Y0064519D01*
X0157257Y0063385D01*
X0157257Y0061116D01*
X0155843Y0061683D02*
X0153574Y0063952D01*
X0153574Y0061683D01*
X0154141Y0061116D01*
X0155275Y0061116D01*
X0155843Y0061683D01*
X0155843Y0063952D01*
X0155275Y0064519D01*
X0154141Y0064519D01*
X0153574Y0063952D01*
X0153481Y0067116D02*
X0153481Y0070519D01*
X0154615Y0069385D01*
X0156029Y0069385D02*
X0156029Y0067116D01*
X0154615Y0067116D02*
X0152346Y0067116D01*
X0156029Y0068818D02*
X0158298Y0068818D01*
X0158298Y0069385D02*
X0157164Y0070519D01*
X0156029Y0069385D01*
X0158298Y0069385D02*
X0158298Y0067116D01*
X0159526Y0063385D02*
X0159526Y0061116D01*
X0159526Y0062818D02*
X0157257Y0062818D01*
X0158298Y0073116D02*
X0158298Y0073683D01*
X0156029Y0075952D01*
X0156029Y0076519D01*
X0158298Y0076519D01*
X0159526Y0079116D02*
X0159526Y0082519D01*
X0157824Y0082519D01*
X0157257Y0081952D01*
X0157257Y0080818D01*
X0157824Y0080251D01*
X0159526Y0080251D01*
X0155843Y0081385D02*
X0155275Y0081385D01*
X0155275Y0079116D01*
X0154708Y0079116D02*
X0155843Y0079116D01*
X0153387Y0079116D02*
X0153387Y0081385D01*
X0151686Y0081385D01*
X0151119Y0080818D01*
X0151119Y0079116D01*
X0147249Y0076519D02*
X0147249Y0073116D01*
X0147249Y0074251D02*
X0145547Y0074251D01*
X0144980Y0074818D01*
X0144980Y0075952D01*
X0145547Y0076519D01*
X0147249Y0076519D01*
X0146021Y0079116D02*
X0146021Y0082519D01*
X0143752Y0079116D01*
X0143752Y0082519D01*
X0142338Y0080818D02*
X0142338Y0079683D01*
X0141771Y0079116D01*
X0140636Y0079116D01*
X0140069Y0079683D01*
X0140069Y0080818D01*
X0140636Y0081385D01*
X0141771Y0081385D01*
X0142338Y0080818D01*
X0138655Y0081385D02*
X0137520Y0081385D01*
X0138087Y0081952D02*
X0138087Y0079683D01*
X0137520Y0079116D01*
X0136199Y0079683D02*
X0135632Y0079116D01*
X0134498Y0079116D01*
X0133931Y0080251D02*
X0136199Y0080251D01*
X0136199Y0080818D02*
X0135632Y0081385D01*
X0134498Y0081385D01*
X0133931Y0080818D01*
X0133931Y0080251D01*
X0136199Y0080818D02*
X0136199Y0079683D01*
X0136199Y0076519D02*
X0134498Y0076519D01*
X0133931Y0075952D01*
X0133931Y0074818D01*
X0134498Y0074251D01*
X0136199Y0074251D01*
X0135065Y0074251D02*
X0133931Y0073116D01*
X0132516Y0073683D02*
X0132516Y0074818D01*
X0131949Y0075385D01*
X0130815Y0075385D01*
X0130247Y0074818D01*
X0130247Y0074251D01*
X0132516Y0074251D01*
X0132516Y0073683D02*
X0131949Y0073116D01*
X0130815Y0073116D01*
X0128833Y0073683D02*
X0128833Y0074818D01*
X0128266Y0075385D01*
X0126564Y0075385D01*
X0126564Y0071982D01*
X0126564Y0073116D02*
X0128266Y0073116D01*
X0128833Y0073683D01*
X0125150Y0075385D02*
X0124583Y0075952D01*
X0124583Y0077086D01*
X0122741Y0075385D02*
X0121040Y0075385D01*
X0121040Y0076519D02*
X0121040Y0073116D01*
X0122741Y0073116D01*
X0123308Y0073683D01*
X0123308Y0074818D01*
X0122741Y0075385D01*
X0136199Y0076519D02*
X0136199Y0073116D01*
X0141297Y0073683D02*
X0141297Y0076519D01*
X0143565Y0076519D02*
X0143565Y0073683D01*
X0142998Y0073116D01*
X0141864Y0073116D01*
X0141297Y0073683D01*
X0155275Y0082519D02*
X0155275Y0083086D01*
D13*
X0149470Y0082716D02*
X0149470Y0059546D01*
X0163170Y0059546D02*
X0163170Y0082446D01*
X0186880Y0077786D02*
X0119060Y0077786D01*
X0123420Y0098916D02*
X0101830Y0098916D01*
X0101830Y0109076D01*
X0123420Y0109076D01*
X0123420Y0098916D01*
X0142470Y0144636D02*
X0152630Y0144636D01*
X0152630Y0163686D01*
X0142470Y0163686D01*
X0142470Y0144636D01*
X0174220Y0187816D02*
X0179300Y0185276D01*
X0179300Y0190356D01*
X0174220Y0187816D01*
X0188190Y0187816D01*
X0190730Y0185276D01*
X0190730Y0194166D02*
X0184380Y0191626D01*
X0184380Y0196706D01*
X0190730Y0194166D01*
X0175490Y0194166D01*
X0172950Y0196706D01*
X0151360Y0196706D01*
X0147550Y0192896D01*
X0070080Y0227186D02*
X0065000Y0227186D01*
X0067540Y0223376D01*
X0070080Y0227186D01*
X0067540Y0223376D02*
X0067540Y0237346D01*
X0059920Y0232266D02*
X0057380Y0236076D01*
X0054840Y0232266D01*
X0059920Y0232266D01*
X0057380Y0236076D02*
X0057380Y0223376D01*
D14*
X0010142Y0228266D02*
X0010142Y0229166D01*
X0010142Y0228716D02*
X0007440Y0228716D01*
X0007440Y0228266D02*
X0007440Y0229166D01*
X0007440Y0230230D02*
X0009242Y0230230D01*
X0009242Y0231581D01*
X0008791Y0232031D01*
X0007440Y0232031D01*
X0007890Y0233176D02*
X0007440Y0233627D01*
X0007440Y0234978D01*
X0007440Y0236123D02*
X0007440Y0236573D01*
X0007890Y0236573D01*
X0007890Y0236123D01*
X0007440Y0236123D01*
X0009242Y0234978D02*
X0009242Y0233627D01*
X0008791Y0233176D01*
X0007890Y0233176D01*
X0007440Y0224174D02*
X0007440Y0222823D01*
X0007890Y0222373D01*
X0009242Y0222373D01*
X0009242Y0221228D02*
X0006990Y0221228D01*
X0006539Y0220777D01*
X0006539Y0220327D01*
X0007440Y0219876D02*
X0007440Y0221228D01*
X0007440Y0219876D02*
X0007890Y0219426D01*
X0008791Y0219426D01*
X0009242Y0219876D01*
X0009242Y0221228D01*
X0009242Y0224174D02*
X0006990Y0224174D01*
X0006539Y0223724D01*
X0006539Y0223273D01*
X0007890Y0218281D02*
X0008791Y0218281D01*
X0009242Y0217831D01*
X0009242Y0216930D01*
X0008791Y0216480D01*
X0007890Y0216480D01*
X0007440Y0216930D01*
X0007440Y0217831D01*
X0007890Y0218281D01*
X0007440Y0215416D02*
X0007440Y0214515D01*
X0007440Y0214966D02*
X0010142Y0214966D01*
X0010142Y0214515D01*
X0008791Y0213370D02*
X0009242Y0212920D01*
X0009242Y0212019D01*
X0008791Y0211569D01*
X0007890Y0211569D01*
X0007440Y0212019D01*
X0007440Y0212920D01*
X0007890Y0213370D01*
X0008791Y0213370D01*
X0008791Y0210424D02*
X0007440Y0210424D01*
X0008791Y0210424D02*
X0009242Y0209973D01*
X0009242Y0208622D01*
X0007440Y0208622D01*
X0007440Y0207477D02*
X0008791Y0207477D01*
X0009242Y0207027D01*
X0009242Y0206126D01*
X0008791Y0205676D01*
X0009242Y0204531D02*
X0009242Y0203180D01*
X0008791Y0202729D01*
X0007890Y0202729D01*
X0007440Y0203180D01*
X0007440Y0204531D01*
X0007440Y0205676D02*
X0010142Y0205676D01*
X0008791Y0201584D02*
X0008341Y0201584D01*
X0008341Y0199783D01*
X0008791Y0199783D02*
X0009242Y0200233D01*
X0009242Y0201134D01*
X0008791Y0201584D01*
X0007440Y0201134D02*
X0007440Y0200233D01*
X0007890Y0199783D01*
X0008791Y0199783D01*
X0010142Y0198638D02*
X0010142Y0196836D01*
X0010142Y0197737D02*
X0007440Y0197737D01*
X0007440Y0192745D02*
X0007440Y0190943D01*
X0010142Y0190943D01*
X0010142Y0192745D01*
X0008791Y0191844D02*
X0008791Y0190943D01*
X0008791Y0189798D02*
X0008791Y0187997D01*
X0009242Y0187997D02*
X0007440Y0187997D01*
X0007890Y0186852D02*
X0009242Y0186852D01*
X0009242Y0187997D02*
X0010142Y0188897D01*
X0009242Y0189798D01*
X0007440Y0189798D01*
X0007890Y0186852D02*
X0007440Y0186401D01*
X0007890Y0185951D01*
X0007440Y0185500D01*
X0007890Y0185050D01*
X0009242Y0185050D01*
X0008791Y0183905D02*
X0008341Y0183905D01*
X0008341Y0182103D01*
X0008791Y0182103D02*
X0009242Y0182554D01*
X0009242Y0183455D01*
X0008791Y0183905D01*
X0007440Y0183455D02*
X0007440Y0182554D01*
X0007890Y0182103D01*
X0008791Y0182103D01*
X0007440Y0180959D02*
X0010142Y0180959D01*
X0010142Y0179157D02*
X0007440Y0179157D01*
X0007440Y0180959D02*
X0010142Y0179157D01*
X0010142Y0175147D02*
X0009692Y0174696D01*
X0007440Y0174696D01*
X0008791Y0174246D02*
X0008791Y0175147D01*
X0008791Y0173101D02*
X0009242Y0172651D01*
X0009242Y0171750D01*
X0008791Y0171300D01*
X0007890Y0171300D01*
X0007440Y0171750D01*
X0007440Y0172651D01*
X0007890Y0173101D01*
X0008791Y0173101D01*
X0009242Y0167249D02*
X0008341Y0165898D01*
X0007440Y0167249D01*
X0007440Y0165898D02*
X0010142Y0165898D01*
X0009242Y0164793D02*
X0009242Y0164343D01*
X0008341Y0163442D01*
X0007440Y0163442D02*
X0009242Y0163442D01*
X0008791Y0162297D02*
X0009242Y0161847D01*
X0009242Y0160946D01*
X0008341Y0160946D02*
X0008341Y0162297D01*
X0008791Y0162297D02*
X0007440Y0162297D01*
X0007440Y0160946D01*
X0007890Y0160496D01*
X0008341Y0160946D01*
X0008791Y0159351D02*
X0007440Y0159351D01*
X0007440Y0158450D02*
X0008791Y0158450D01*
X0009242Y0158900D01*
X0008791Y0159351D01*
X0008791Y0158450D02*
X0009242Y0158000D01*
X0009242Y0157549D01*
X0007440Y0157549D01*
X0008341Y0156404D02*
X0008341Y0154603D01*
X0008791Y0154603D02*
X0009242Y0155053D01*
X0009242Y0155954D01*
X0008791Y0156404D01*
X0008341Y0156404D01*
X0007440Y0155954D02*
X0007440Y0155053D01*
X0007890Y0154603D01*
X0008791Y0154603D01*
X0009242Y0153458D02*
X0009242Y0152107D01*
X0008791Y0151656D01*
X0007890Y0151656D01*
X0007440Y0152107D01*
X0007440Y0153458D01*
X0010142Y0153458D01*
X0008791Y0150511D02*
X0007440Y0150511D01*
X0007440Y0149160D01*
X0007890Y0148710D01*
X0008341Y0149160D01*
X0008341Y0150511D01*
X0008791Y0150511D02*
X0009242Y0150061D01*
X0009242Y0149160D01*
X0009242Y0147605D02*
X0009242Y0147155D01*
X0008341Y0146254D01*
X0007440Y0146254D02*
X0009242Y0146254D01*
X0009242Y0145191D02*
X0009242Y0144290D01*
X0009692Y0144740D02*
X0007890Y0144740D01*
X0007440Y0145191D01*
X0007440Y0140198D02*
X0007440Y0138847D01*
X0007890Y0138397D01*
X0008791Y0138397D01*
X0009242Y0138847D01*
X0009242Y0140198D01*
X0010142Y0140198D02*
X0007440Y0140198D01*
X0008341Y0137252D02*
X0008341Y0135450D01*
X0008791Y0135450D02*
X0009242Y0135901D01*
X0009242Y0136801D01*
X0008791Y0137252D01*
X0008341Y0137252D01*
X0007440Y0136801D02*
X0007440Y0135901D01*
X0007890Y0135450D01*
X0008791Y0135450D01*
X0009242Y0134346D02*
X0009242Y0133896D01*
X0008341Y0132995D01*
X0007440Y0132995D02*
X0009242Y0132995D01*
X0008791Y0131850D02*
X0008341Y0131850D01*
X0008341Y0130048D01*
X0008791Y0130048D02*
X0009242Y0130499D01*
X0009242Y0131400D01*
X0008791Y0131850D01*
X0007440Y0131400D02*
X0007440Y0130499D01*
X0007890Y0130048D01*
X0008791Y0130048D01*
X0009242Y0128985D02*
X0009242Y0128084D01*
X0009692Y0128534D02*
X0007890Y0128534D01*
X0007440Y0128985D01*
X0007890Y0126939D02*
X0008341Y0126489D01*
X0008341Y0125588D01*
X0008791Y0125137D01*
X0009242Y0125588D01*
X0009242Y0126939D01*
X0007890Y0126939D02*
X0007440Y0126489D01*
X0007440Y0125137D01*
X0007440Y0124074D02*
X0007440Y0123173D01*
X0007440Y0123624D02*
X0009242Y0123624D01*
X0009242Y0123173D01*
X0010142Y0123624D02*
X0010593Y0123624D01*
X0009242Y0122028D02*
X0009242Y0120677D01*
X0008791Y0120227D01*
X0007890Y0120227D01*
X0007440Y0120677D01*
X0007440Y0122028D01*
X0006990Y0122028D02*
X0009242Y0122028D01*
X0006990Y0122028D02*
X0006539Y0121578D01*
X0006539Y0121127D01*
X0007440Y0118631D02*
X0007440Y0117730D01*
X0007890Y0117280D01*
X0008791Y0117280D01*
X0009242Y0117730D01*
X0009242Y0118631D01*
X0008791Y0119082D01*
X0008341Y0119082D01*
X0008341Y0117280D01*
X0009242Y0116176D02*
X0009242Y0115725D01*
X0008341Y0114825D01*
X0007440Y0114825D02*
X0009242Y0114825D01*
X0008791Y0110733D02*
X0007440Y0110733D01*
X0007440Y0109382D01*
X0007890Y0108932D01*
X0008341Y0109382D01*
X0008341Y0110733D01*
X0008791Y0110733D02*
X0009242Y0110283D01*
X0009242Y0109382D01*
X0009242Y0104840D02*
X0009242Y0103489D01*
X0008791Y0103039D01*
X0008341Y0103489D01*
X0008341Y0104390D01*
X0007890Y0104840D01*
X0007440Y0104390D01*
X0007440Y0103039D01*
X0007440Y0101975D02*
X0007440Y0101074D01*
X0007440Y0101525D02*
X0009242Y0101525D01*
X0009242Y0101074D01*
X0010142Y0101525D02*
X0010593Y0101525D01*
X0009242Y0097023D02*
X0009242Y0096573D01*
X0008341Y0095672D01*
X0007440Y0095672D02*
X0009242Y0095672D01*
X0008791Y0094527D02*
X0008341Y0094527D01*
X0008341Y0092726D01*
X0008791Y0092726D02*
X0009242Y0093176D01*
X0009242Y0094077D01*
X0008791Y0094527D01*
X0007440Y0094077D02*
X0007440Y0093176D01*
X0007890Y0092726D01*
X0008791Y0092726D01*
X0009242Y0091622D02*
X0009242Y0091171D01*
X0008341Y0090270D01*
X0007440Y0090270D02*
X0009242Y0090270D01*
X0008791Y0089125D02*
X0008341Y0089125D01*
X0008341Y0087324D01*
X0008791Y0087324D02*
X0009242Y0087774D01*
X0009242Y0088675D01*
X0008791Y0089125D01*
X0007440Y0088675D02*
X0007440Y0087774D01*
X0007890Y0087324D01*
X0008791Y0087324D01*
X0008791Y0086179D02*
X0007890Y0086179D01*
X0007440Y0085728D01*
X0007440Y0084377D01*
X0006539Y0084377D02*
X0009242Y0084377D01*
X0009242Y0085728D01*
X0008791Y0086179D01*
X0009242Y0083232D02*
X0009242Y0081881D01*
X0008791Y0081431D01*
X0008341Y0081881D01*
X0008341Y0082782D01*
X0007890Y0083232D01*
X0007440Y0082782D01*
X0007440Y0081431D01*
X0007440Y0080367D02*
X0007440Y0079466D01*
X0007440Y0079917D02*
X0009242Y0079917D01*
X0009242Y0079466D01*
X0010142Y0079917D02*
X0010593Y0079917D01*
X0008791Y0078322D02*
X0007440Y0078322D01*
X0008791Y0078322D02*
X0009242Y0077871D01*
X0009242Y0076970D01*
X0008791Y0076520D01*
X0010142Y0076520D02*
X0007440Y0076520D01*
X0007440Y0075375D02*
X0010142Y0075375D01*
X0010142Y0073573D02*
X0007440Y0073573D01*
X0008341Y0074474D01*
X0007440Y0075375D01*
X0007890Y0072428D02*
X0007440Y0071978D01*
X0007440Y0070627D01*
X0006539Y0070627D02*
X0009242Y0070627D01*
X0009242Y0071978D01*
X0008791Y0072428D01*
X0007890Y0072428D01*
X0007440Y0069563D02*
X0007440Y0068663D01*
X0007440Y0069113D02*
X0009242Y0069113D01*
X0009242Y0068663D01*
X0010142Y0069113D02*
X0010593Y0069113D01*
X0008791Y0067518D02*
X0007440Y0067518D01*
X0008791Y0067518D02*
X0009242Y0067067D01*
X0009242Y0066166D01*
X0008791Y0065716D01*
X0010142Y0065716D02*
X0007440Y0065716D01*
X0007890Y0064571D02*
X0007440Y0064121D01*
X0007440Y0063220D01*
X0007890Y0062770D01*
X0009692Y0062770D01*
X0010142Y0063220D01*
X0010142Y0064121D01*
X0009692Y0064571D01*
X0027047Y0065408D02*
X0027047Y0065858D01*
X0027498Y0066309D01*
X0028398Y0066309D01*
X0028849Y0065858D01*
X0029994Y0065858D02*
X0031795Y0064057D01*
X0031345Y0063606D01*
X0030444Y0063606D01*
X0029994Y0064057D01*
X0029994Y0065858D01*
X0030444Y0066309D01*
X0031345Y0066309D01*
X0031795Y0065858D01*
X0031795Y0064057D01*
X0032940Y0064957D02*
X0034742Y0064957D01*
X0035887Y0064057D02*
X0035887Y0065858D01*
X0036337Y0066309D01*
X0037238Y0066309D01*
X0037688Y0065858D01*
X0037688Y0064057D01*
X0037238Y0063606D01*
X0036337Y0063606D01*
X0035887Y0064057D01*
X0036869Y0061598D02*
X0038220Y0061598D01*
X0038671Y0061147D01*
X0038671Y0060247D01*
X0038220Y0059796D01*
X0036869Y0059796D01*
X0035724Y0059796D02*
X0035274Y0059796D01*
X0035274Y0060247D01*
X0035724Y0060247D01*
X0035724Y0059796D01*
X0039815Y0059796D02*
X0039815Y0061147D01*
X0040266Y0061598D01*
X0041617Y0061598D01*
X0041617Y0059796D01*
X0042681Y0059796D02*
X0043581Y0059796D01*
X0043131Y0059796D02*
X0043131Y0062499D01*
X0043581Y0062499D02*
X0042681Y0062499D01*
X0042599Y0063606D02*
X0041698Y0063606D01*
X0042149Y0063606D02*
X0042149Y0066309D01*
X0042599Y0066309D02*
X0041698Y0066309D01*
X0040635Y0066309D02*
X0038833Y0063606D01*
X0038833Y0066309D01*
X0040635Y0066309D02*
X0040635Y0063606D01*
X0043744Y0064057D02*
X0043744Y0066309D01*
X0045546Y0066309D02*
X0045546Y0064057D01*
X0045095Y0063606D01*
X0044195Y0063606D01*
X0043744Y0064057D01*
X0046691Y0064057D02*
X0046691Y0065858D01*
X0047141Y0066309D01*
X0048492Y0066309D01*
X0048492Y0063606D01*
X0047141Y0063606D01*
X0046691Y0064057D01*
X0047673Y0061598D02*
X0047673Y0059346D01*
X0048123Y0058896D01*
X0048574Y0058896D01*
X0049024Y0059796D02*
X0047673Y0059796D01*
X0049024Y0059796D02*
X0049474Y0060247D01*
X0049474Y0061598D01*
X0050619Y0061598D02*
X0051971Y0061598D01*
X0052421Y0061147D01*
X0052421Y0060247D01*
X0051971Y0059796D01*
X0050619Y0059796D01*
X0050619Y0059346D02*
X0050619Y0061598D01*
X0050538Y0063606D02*
X0050538Y0066309D01*
X0051439Y0066309D02*
X0049637Y0066309D01*
X0052584Y0065858D02*
X0053034Y0066309D01*
X0053935Y0066309D01*
X0054385Y0065858D01*
X0054385Y0064057D01*
X0053935Y0063606D01*
X0053034Y0063606D01*
X0052584Y0064057D01*
X0052584Y0065858D01*
X0055530Y0066309D02*
X0055530Y0063606D01*
X0057332Y0066309D01*
X0057332Y0063606D01*
X0057332Y0062499D02*
X0056881Y0062499D01*
X0056881Y0059796D01*
X0056431Y0059796D02*
X0057332Y0059796D01*
X0058477Y0060247D02*
X0058477Y0061147D01*
X0058927Y0061598D01*
X0059828Y0061598D01*
X0060278Y0061147D01*
X0060278Y0060247D01*
X0059828Y0059796D01*
X0058927Y0059796D01*
X0058477Y0060247D01*
X0058886Y0057419D02*
X0058886Y0054716D01*
X0057986Y0054716D02*
X0059787Y0054716D01*
X0060932Y0055167D02*
X0060932Y0056968D01*
X0062734Y0055167D01*
X0062283Y0054716D01*
X0061383Y0054716D01*
X0060932Y0055167D01*
X0059787Y0056518D02*
X0058886Y0057419D01*
X0056841Y0057419D02*
X0056841Y0056067D01*
X0055940Y0056518D01*
X0055490Y0056518D01*
X0055039Y0056067D01*
X0055039Y0055167D01*
X0055490Y0054716D01*
X0056390Y0054716D01*
X0056841Y0055167D01*
X0056841Y0057419D02*
X0055039Y0057419D01*
X0054917Y0059796D02*
X0054016Y0059796D01*
X0053566Y0060247D01*
X0053566Y0061147D01*
X0054016Y0061598D01*
X0054917Y0061598D01*
X0055367Y0061147D01*
X0055367Y0060247D01*
X0054917Y0059796D01*
X0051520Y0058896D02*
X0051070Y0058896D01*
X0050619Y0059346D01*
X0058477Y0064957D02*
X0060278Y0064957D01*
X0061423Y0064957D02*
X0062324Y0064957D01*
X0061423Y0064957D02*
X0061423Y0064057D01*
X0061874Y0063606D01*
X0062774Y0063606D01*
X0063225Y0064057D01*
X0063225Y0065858D01*
X0062774Y0066309D01*
X0061874Y0066309D01*
X0061423Y0065858D01*
X0064370Y0065858D02*
X0064820Y0066309D01*
X0066171Y0066309D01*
X0066171Y0063606D01*
X0066171Y0064507D02*
X0064820Y0064507D01*
X0064370Y0064957D01*
X0064370Y0065858D01*
X0065271Y0064507D02*
X0064370Y0063606D01*
X0064820Y0061598D02*
X0064370Y0061147D01*
X0064370Y0059796D01*
X0063225Y0059796D02*
X0063225Y0061598D01*
X0061874Y0061598D01*
X0061423Y0061147D01*
X0061423Y0059796D01*
X0061383Y0057419D02*
X0060932Y0056968D01*
X0061383Y0057419D02*
X0062283Y0057419D01*
X0062734Y0056968D01*
X0062734Y0055167D01*
X0063879Y0054716D02*
X0065680Y0054716D01*
X0063879Y0056518D01*
X0063879Y0056968D01*
X0064329Y0057419D01*
X0065230Y0057419D01*
X0065680Y0056968D01*
X0066171Y0059796D02*
X0066171Y0062499D01*
X0065721Y0061598D02*
X0064820Y0061598D01*
X0065721Y0061598D02*
X0066171Y0061147D01*
X0067316Y0061598D02*
X0068667Y0061598D01*
X0069118Y0061147D01*
X0069118Y0060247D01*
X0068667Y0059796D01*
X0067316Y0059796D01*
X0070263Y0060697D02*
X0070263Y0061147D01*
X0070713Y0061598D01*
X0071614Y0061598D01*
X0072064Y0061147D01*
X0072064Y0060247D01*
X0071614Y0059796D01*
X0070713Y0059796D01*
X0070263Y0060697D02*
X0072064Y0060697D01*
X0073209Y0062499D02*
X0075011Y0062499D01*
X0074110Y0062499D02*
X0074110Y0059796D01*
X0073538Y0057419D02*
X0073538Y0054716D01*
X0074683Y0054716D02*
X0076034Y0054716D01*
X0076484Y0055167D01*
X0076484Y0056067D01*
X0076034Y0056518D01*
X0074683Y0056518D01*
X0074683Y0054266D01*
X0075133Y0053816D01*
X0075583Y0053816D01*
X0075214Y0052708D02*
X0075214Y0051357D01*
X0074764Y0050906D01*
X0074313Y0051357D01*
X0073863Y0050906D01*
X0073413Y0051357D01*
X0073413Y0052708D01*
X0072268Y0052708D02*
X0071367Y0053609D01*
X0070466Y0052708D01*
X0070466Y0050906D01*
X0069321Y0050906D02*
X0067520Y0050906D01*
X0066375Y0050906D02*
X0065924Y0050906D01*
X0065924Y0051357D01*
X0066375Y0051357D01*
X0066375Y0050906D01*
X0064901Y0051357D02*
X0064451Y0050906D01*
X0063100Y0050906D01*
X0061955Y0051357D02*
X0061504Y0050906D01*
X0060604Y0050906D01*
X0060153Y0051357D01*
X0060153Y0052257D01*
X0060604Y0052708D01*
X0061504Y0052708D01*
X0061955Y0052257D01*
X0061955Y0051357D01*
X0063100Y0052708D02*
X0064451Y0052708D01*
X0064901Y0052257D01*
X0064901Y0051357D01*
X0067520Y0053609D02*
X0069321Y0053609D01*
X0069321Y0050906D01*
X0069321Y0052257D02*
X0068420Y0052257D01*
X0070466Y0052257D02*
X0072268Y0052257D01*
X0072268Y0052708D02*
X0072268Y0050906D01*
X0071736Y0054716D02*
X0071736Y0056067D01*
X0072187Y0056518D01*
X0073087Y0056518D01*
X0073538Y0056067D01*
X0070591Y0056518D02*
X0069690Y0056518D01*
X0070141Y0056968D02*
X0070141Y0055167D01*
X0069690Y0054716D01*
X0076359Y0052257D02*
X0076359Y0051807D01*
X0078161Y0051807D01*
X0078161Y0051357D02*
X0078161Y0052257D01*
X0077710Y0052708D01*
X0076810Y0052708D01*
X0076359Y0052257D01*
X0076810Y0050906D02*
X0077710Y0050906D01*
X0078161Y0051357D01*
X0079306Y0050906D02*
X0079306Y0053609D01*
X0078449Y0054716D02*
X0077548Y0054716D01*
X0077998Y0054716D02*
X0077998Y0056518D01*
X0078449Y0056518D01*
X0077998Y0057419D02*
X0077998Y0057869D01*
X0079553Y0056518D02*
X0080003Y0056518D01*
X0080904Y0055617D01*
X0080904Y0054716D02*
X0080904Y0056518D01*
X0082049Y0056518D02*
X0082049Y0054266D01*
X0082499Y0053816D01*
X0082950Y0053816D01*
X0083400Y0054716D02*
X0082049Y0054716D01*
X0083400Y0054716D02*
X0083850Y0055167D01*
X0083850Y0056518D01*
X0084995Y0056067D02*
X0084995Y0055167D01*
X0085446Y0054716D01*
X0086797Y0054716D01*
X0086797Y0053816D02*
X0086797Y0056518D01*
X0085446Y0056518D01*
X0084995Y0056067D01*
X0087942Y0056067D02*
X0087942Y0055167D01*
X0088392Y0054716D01*
X0089293Y0054716D01*
X0089743Y0055167D01*
X0089743Y0056067D01*
X0089293Y0056518D01*
X0088392Y0056518D01*
X0087942Y0056067D01*
X0090888Y0055167D02*
X0091339Y0054716D01*
X0092240Y0054716D01*
X0092690Y0055167D01*
X0092690Y0056968D01*
X0092240Y0057419D01*
X0091339Y0057419D01*
X0090888Y0056968D01*
X0090888Y0059796D02*
X0090888Y0062499D01*
X0090888Y0063606D02*
X0090888Y0066309D01*
X0089743Y0066309D02*
X0089743Y0063606D01*
X0089743Y0064507D02*
X0088392Y0064507D01*
X0087942Y0064957D01*
X0087942Y0065858D01*
X0088392Y0066309D01*
X0089743Y0066309D01*
X0090888Y0063606D02*
X0092690Y0066309D01*
X0092690Y0063606D01*
X0092690Y0062499D02*
X0090888Y0059796D01*
X0089743Y0060247D02*
X0089743Y0061147D01*
X0089293Y0061598D01*
X0088392Y0061598D01*
X0087942Y0061147D01*
X0087942Y0060697D01*
X0089743Y0060697D01*
X0089743Y0060247D02*
X0089293Y0059796D01*
X0088392Y0059796D01*
X0086797Y0060247D02*
X0086797Y0061598D01*
X0086797Y0060247D02*
X0086347Y0059796D01*
X0085896Y0060247D01*
X0085446Y0059796D01*
X0084995Y0060247D01*
X0084995Y0061598D01*
X0083850Y0061598D02*
X0083850Y0059796D01*
X0083850Y0061147D02*
X0082049Y0061147D01*
X0082049Y0061598D02*
X0082049Y0059796D01*
X0080904Y0059796D02*
X0080904Y0062499D01*
X0079102Y0062499D01*
X0080003Y0061147D02*
X0080904Y0061147D01*
X0082049Y0061598D02*
X0082950Y0062499D01*
X0083850Y0061598D01*
X0083850Y0063606D02*
X0082499Y0063606D01*
X0082049Y0064057D01*
X0082049Y0064507D01*
X0082499Y0064957D01*
X0083850Y0064957D01*
X0082499Y0064957D02*
X0082049Y0065408D01*
X0082049Y0065858D01*
X0082499Y0066309D01*
X0083850Y0066309D01*
X0083850Y0063606D01*
X0084995Y0064057D02*
X0085446Y0063606D01*
X0086347Y0063606D01*
X0086797Y0064057D01*
X0086797Y0065858D01*
X0086347Y0066309D01*
X0085446Y0066309D01*
X0084995Y0065858D01*
X0080904Y0064957D02*
X0079102Y0064957D01*
X0077957Y0064057D02*
X0077507Y0063606D01*
X0076606Y0063606D01*
X0076156Y0064057D01*
X0075011Y0063606D02*
X0075011Y0066309D01*
X0076156Y0065858D02*
X0076606Y0066309D01*
X0077507Y0066309D01*
X0077957Y0065858D01*
X0077957Y0064057D01*
X0075011Y0063606D02*
X0074110Y0064507D01*
X0073209Y0063606D01*
X0073209Y0066309D01*
X0072064Y0066309D02*
X0070263Y0066309D01*
X0071164Y0066309D02*
X0071164Y0063606D01*
X0069118Y0063606D02*
X0069118Y0065408D01*
X0068217Y0066309D01*
X0067316Y0065408D01*
X0067316Y0063606D01*
X0067316Y0064957D02*
X0069118Y0064957D01*
X0079102Y0059796D02*
X0080904Y0059796D01*
X0081107Y0053609D02*
X0079306Y0050906D01*
X0081107Y0050906D02*
X0081107Y0053609D01*
X0082130Y0051357D02*
X0082130Y0050906D01*
X0082580Y0050906D01*
X0082580Y0051357D01*
X0082130Y0051357D01*
X0083725Y0051357D02*
X0083725Y0052708D01*
X0083725Y0051357D02*
X0084176Y0050906D01*
X0084626Y0051357D01*
X0085077Y0050906D01*
X0085527Y0051357D01*
X0085527Y0052708D01*
X0086672Y0052708D02*
X0086672Y0051357D01*
X0087122Y0050906D01*
X0087573Y0051357D01*
X0088023Y0050906D01*
X0088473Y0051357D01*
X0088473Y0052708D01*
X0089618Y0052708D02*
X0089618Y0051357D01*
X0090069Y0050906D01*
X0090519Y0051357D01*
X0090970Y0050906D01*
X0091420Y0051357D01*
X0091420Y0052708D01*
X0092690Y0059796D02*
X0092690Y0062499D01*
X0059008Y0052708D02*
X0058558Y0052708D01*
X0058108Y0052257D01*
X0057657Y0052708D01*
X0057207Y0052257D01*
X0057207Y0050906D01*
X0058108Y0050906D02*
X0058108Y0052257D01*
X0059008Y0052708D02*
X0059008Y0050906D01*
X0028849Y0063606D02*
X0027047Y0065408D01*
X0027047Y0063606D02*
X0028849Y0063606D01*
X0092811Y0113668D02*
X0093261Y0113668D01*
X0094162Y0112767D01*
X0094162Y0111866D02*
X0094162Y0113668D01*
X0095307Y0113217D02*
X0095757Y0113668D01*
X0096658Y0113668D01*
X0097108Y0113217D01*
X0097108Y0112317D01*
X0096658Y0111866D01*
X0095757Y0111866D01*
X0095307Y0112767D02*
X0097108Y0112767D01*
X0098253Y0112317D02*
X0098704Y0111866D01*
X0100055Y0111866D01*
X0100055Y0110966D02*
X0100055Y0113668D01*
X0098704Y0113668D01*
X0098253Y0113217D01*
X0098253Y0112317D01*
X0095307Y0112767D02*
X0095307Y0113217D01*
X0101200Y0113217D02*
X0101200Y0111866D01*
X0102101Y0111866D02*
X0102101Y0113217D01*
X0101650Y0113668D01*
X0101200Y0113217D01*
X0102101Y0113217D02*
X0102551Y0113668D01*
X0103001Y0113668D01*
X0103001Y0111866D01*
X0104146Y0111866D02*
X0104146Y0113668D01*
X0104146Y0111866D02*
X0105497Y0111866D01*
X0105948Y0112317D01*
X0105948Y0113668D01*
X0107093Y0114569D02*
X0107994Y0114569D01*
X0107543Y0114569D02*
X0107543Y0112317D01*
X0107994Y0111866D01*
X0108444Y0111866D01*
X0108894Y0112317D01*
X0112904Y0111866D02*
X0113355Y0112317D01*
X0113355Y0114118D01*
X0113805Y0113668D02*
X0112904Y0113668D01*
X0115319Y0114569D02*
X0115319Y0111866D01*
X0114869Y0111866D02*
X0115770Y0111866D01*
X0116915Y0111866D02*
X0116915Y0113668D01*
X0115770Y0114569D02*
X0115319Y0114569D01*
X0116915Y0111866D02*
X0118266Y0111866D01*
X0118716Y0112317D01*
X0118716Y0113668D01*
X0119861Y0113217D02*
X0120311Y0113668D01*
X0121212Y0113668D01*
X0121212Y0112767D02*
X0119861Y0112767D01*
X0119861Y0113217D02*
X0119861Y0111866D01*
X0121212Y0111866D01*
X0121663Y0112317D01*
X0121212Y0112767D01*
X0122726Y0113217D02*
X0123627Y0113217D01*
X0123177Y0114118D02*
X0122726Y0114569D01*
X0123177Y0114118D02*
X0123177Y0111866D01*
X0124772Y0112767D02*
X0126573Y0112767D01*
X0126573Y0112317D02*
X0126573Y0113217D01*
X0126123Y0113668D01*
X0125222Y0113668D01*
X0124772Y0113217D01*
X0124772Y0112767D01*
X0125222Y0111866D02*
X0126123Y0111866D01*
X0126573Y0112317D01*
X0127718Y0112317D02*
X0127718Y0114118D01*
X0128169Y0114569D01*
X0129520Y0114569D01*
X0129520Y0111866D01*
X0128169Y0111866D01*
X0127718Y0112317D01*
X0128626Y0104409D02*
X0129527Y0104409D01*
X0129977Y0103958D01*
X0129977Y0103508D01*
X0129527Y0103057D01*
X0128626Y0103057D01*
X0128175Y0102607D01*
X0128175Y0102157D01*
X0128626Y0101706D01*
X0129527Y0101706D01*
X0129977Y0102157D01*
X0131122Y0101706D02*
X0131122Y0104409D01*
X0131122Y0103057D02*
X0132923Y0103057D01*
X0132923Y0101706D02*
X0132923Y0104409D01*
X0134068Y0104409D02*
X0135870Y0104409D01*
X0134969Y0104409D02*
X0134969Y0101706D01*
X0134969Y0095519D02*
X0134969Y0092816D01*
X0132923Y0092816D02*
X0132923Y0095519D01*
X0134068Y0095519D02*
X0135870Y0095519D01*
X0132923Y0094167D02*
X0131122Y0094167D01*
X0129977Y0094618D02*
X0129527Y0094167D01*
X0128626Y0094167D01*
X0128175Y0093717D01*
X0128175Y0093267D01*
X0128626Y0092816D01*
X0129527Y0092816D01*
X0129977Y0093267D01*
X0131122Y0092816D02*
X0131122Y0095519D01*
X0129977Y0095068D02*
X0129527Y0095519D01*
X0128626Y0095519D01*
X0128175Y0095068D01*
X0127030Y0094618D02*
X0126130Y0095519D01*
X0126130Y0092816D01*
X0127030Y0092816D02*
X0125229Y0092816D01*
X0129977Y0094618D02*
X0129977Y0095068D01*
X0127030Y0101706D02*
X0125229Y0101706D01*
X0127030Y0101706D02*
X0125229Y0103508D01*
X0125229Y0103958D01*
X0125679Y0104409D01*
X0126580Y0104409D01*
X0127030Y0103958D01*
X0128175Y0103958D02*
X0128626Y0104409D01*
X0131805Y0164306D02*
X0131805Y0167008D01*
X0130454Y0167008D01*
X0130003Y0166557D01*
X0130003Y0165657D01*
X0130454Y0165206D01*
X0131805Y0165206D01*
X0132950Y0165206D02*
X0132950Y0166557D01*
X0133400Y0167008D01*
X0133851Y0166557D01*
X0133851Y0165206D01*
X0134751Y0165206D02*
X0134751Y0167008D01*
X0134301Y0167008D01*
X0133851Y0166557D01*
X0135896Y0167008D02*
X0135896Y0165206D01*
X0137247Y0165206D01*
X0137698Y0165657D01*
X0137698Y0167008D01*
X0138843Y0167909D02*
X0139744Y0167909D01*
X0139293Y0167909D02*
X0139293Y0165657D01*
X0139744Y0165206D01*
X0140194Y0165206D01*
X0140644Y0165657D01*
X0144654Y0165206D02*
X0145105Y0165657D01*
X0145105Y0167458D01*
X0145555Y0167008D02*
X0144654Y0167008D01*
X0147069Y0167909D02*
X0147069Y0165206D01*
X0146619Y0165206D02*
X0147520Y0165206D01*
X0148665Y0165206D02*
X0148665Y0167008D01*
X0147520Y0167909D02*
X0147069Y0167909D01*
X0148665Y0165206D02*
X0150016Y0165206D01*
X0150466Y0165657D01*
X0150466Y0167008D01*
X0151611Y0166557D02*
X0151611Y0165206D01*
X0152962Y0165206D01*
X0153413Y0165657D01*
X0152962Y0166107D01*
X0151611Y0166107D01*
X0151611Y0166557D02*
X0152061Y0167008D01*
X0152962Y0167008D01*
X0154476Y0166557D02*
X0155377Y0166557D01*
X0154927Y0167458D02*
X0154476Y0167909D01*
X0154927Y0167458D02*
X0154927Y0165206D01*
X0156522Y0166107D02*
X0158323Y0166107D01*
X0158323Y0165657D02*
X0158323Y0166557D01*
X0157873Y0167008D01*
X0156972Y0167008D01*
X0156522Y0166557D01*
X0156522Y0166107D01*
X0156972Y0165206D02*
X0157873Y0165206D01*
X0158323Y0165657D01*
X0159468Y0165657D02*
X0159468Y0167458D01*
X0159919Y0167909D01*
X0161270Y0167909D01*
X0161270Y0165206D01*
X0159919Y0165206D01*
X0159468Y0165657D01*
X0128858Y0165657D02*
X0128858Y0166557D01*
X0128408Y0167008D01*
X0127507Y0167008D01*
X0127057Y0166557D01*
X0127057Y0166107D01*
X0128858Y0166107D01*
X0128858Y0165657D02*
X0128408Y0165206D01*
X0127507Y0165206D01*
X0125912Y0165206D02*
X0125912Y0167008D01*
X0125912Y0166107D02*
X0125011Y0167008D01*
X0124561Y0167008D01*
D15*
X0210430Y0168066D02*
X0217136Y0168066D01*
X0217136Y0171419D01*
X0216018Y0172537D01*
X0213783Y0172537D01*
X0212665Y0171419D01*
X0212665Y0168066D01*
X0212665Y0170301D02*
X0210430Y0172537D01*
X0210430Y0175432D02*
X0210430Y0178785D01*
X0211548Y0179903D01*
X0216018Y0179903D01*
X0217136Y0178785D01*
X0217136Y0175432D01*
X0210430Y0175432D01*
X0211548Y0182799D02*
X0210430Y0183916D01*
X0210430Y0186152D01*
X0211548Y0187269D01*
X0217136Y0187269D01*
X0217136Y0190165D02*
X0217136Y0192400D01*
X0217136Y0191283D02*
X0210430Y0191283D01*
X0210430Y0192400D02*
X0210430Y0190165D01*
X0210430Y0195076D02*
X0217136Y0195076D01*
X0210430Y0199546D01*
X0217136Y0199546D01*
X0216018Y0202442D02*
X0211548Y0202442D01*
X0210430Y0203560D01*
X0210430Y0205795D01*
X0211548Y0206913D01*
X0216018Y0206913D01*
X0217136Y0205795D01*
X0217136Y0203560D01*
X0216018Y0202442D01*
X0217136Y0182799D02*
X0211548Y0182799D01*
X0210430Y0165170D02*
X0214900Y0165170D01*
X0217136Y0162935D01*
X0214900Y0160700D01*
X0210430Y0160700D01*
X0213783Y0160700D02*
X0213783Y0165170D01*
X0210430Y0150438D02*
X0217136Y0150438D01*
X0217136Y0145967D02*
X0210430Y0150438D01*
X0210430Y0145967D02*
X0217136Y0145967D01*
X0214900Y0143071D02*
X0210430Y0143071D01*
X0213783Y0143071D02*
X0213783Y0138601D01*
X0214900Y0138601D02*
X0217136Y0140836D01*
X0214900Y0143071D01*
X0214900Y0138601D02*
X0210430Y0138601D01*
X0217136Y0128339D02*
X0217136Y0123868D01*
X0217136Y0126104D02*
X0210430Y0126104D01*
X0211548Y0120973D02*
X0210430Y0119855D01*
X0210430Y0117620D01*
X0211548Y0116502D01*
X0216018Y0116502D01*
X0217136Y0117620D01*
X0217136Y0119855D01*
X0216018Y0120973D01*
X0211548Y0120973D01*
X0210430Y0113606D02*
X0217136Y0113606D01*
X0217136Y0109136D02*
X0210430Y0113606D01*
X0210430Y0109136D02*
X0217136Y0109136D01*
X0216018Y0098874D02*
X0217136Y0097756D01*
X0217136Y0095521D01*
X0216018Y0094403D01*
X0214900Y0094403D01*
X0213783Y0095521D01*
X0213783Y0097756D01*
X0212665Y0098874D01*
X0211548Y0098874D01*
X0210430Y0097756D01*
X0210430Y0095521D01*
X0211548Y0094403D01*
X0210430Y0091728D02*
X0210430Y0089492D01*
X0210430Y0090610D02*
X0217136Y0090610D01*
X0217136Y0089492D02*
X0217136Y0091728D01*
X0216018Y0079230D02*
X0217136Y0078113D01*
X0217136Y0075877D01*
X0216018Y0074760D01*
X0214900Y0074760D01*
X0213783Y0075877D01*
X0213783Y0078113D01*
X0212665Y0079230D01*
X0211548Y0079230D01*
X0210430Y0078113D01*
X0210430Y0075877D01*
X0211548Y0074760D01*
X0210430Y0072084D02*
X0210430Y0069849D01*
X0210430Y0070966D02*
X0217136Y0070966D01*
X0217136Y0069849D02*
X0217136Y0072084D01*
X0217136Y0066953D02*
X0210430Y0066953D01*
X0213783Y0066953D02*
X0213783Y0062483D01*
X0210430Y0062483D02*
X0217136Y0062483D01*
X0217136Y0059587D02*
X0217136Y0055116D01*
X0217136Y0057352D02*
X0210430Y0057352D01*
M02*
