%
M48
M72
T01C0.02362
T02C0.02756
T03C0.03200
T04C0.03543
T05C0.04000
T06C0.05200
T07C0.06700
T08C0.11024
%
T01
X77700Y69706
X68810Y79866
X62460Y93836
X62460Y114156
X57380Y129396
X47220Y138286
X45950Y168766
X57380Y168766
X33250Y178926
X33250Y189086
X47220Y205596
X62460Y205596
X78890Y218296
X91590Y218296
X62380Y233536
X127230Y236076
X158820Y213216
X179300Y218296
X188190Y205596
X195810Y218296
X212320Y204326
X218670Y187816
X217400Y177656
X205370Y168506
X189870Y169006
X183110Y172576
X188190Y178926
X179300Y161146
X170410Y158606
X166600Y170036
X150090Y170036
X141200Y170036
X131040Y164956
X131040Y153526
X131040Y143366
X133580Y129396
X145010Y129396
X156440Y134476
X166600Y129396
X174220Y121776
X183110Y129396
X205970Y128126
X205970Y143366
X186920Y154796
X148820Y115426
X179300Y95106
X185650Y69706
X192000Y54466
X192000Y45576
X202160Y65896
X207240Y73516
X217400Y58276
X236450Y69706
X241530Y63356
X246610Y57006
X219940Y88756
X207240Y88756
X205970Y107806
X244070Y110346
X245340Y144636
X261850Y144636
X252960Y168766
X252960Y189086
X259310Y213216
X245340Y213216
X183980Y238456
X160090Y243696
X109450Y162416
X96750Y162416
X86590Y153526
X82780Y138286
X104370Y119236
X117070Y119236
X109450Y135746
X123420Y84946
X124690Y69706
X109450Y67166
X99290Y77326
X92940Y55736
X92940Y46846
X142470Y49386
X143740Y69706
X148820Y82406
X164060Y69706
X14200Y78596
X14200Y91296
T02
X51100Y103506
X61100Y103506
X78640Y103506
X88640Y103506
X88640Y123506
X78640Y123506
X61100Y123506
X51100Y123506
X102370Y143506
X102370Y153506
X117370Y153506
X117370Y143506
X132370Y108506
X142370Y108506
X142370Y88506
X132370Y88506
X242370Y123506
X242370Y133506
T03
X227370Y133506
X227370Y123506
X227370Y113506
X227370Y103506
X227370Y93506
X227370Y83506
X227370Y73506
X197370Y73506
X197370Y83506
X197370Y93506
X197370Y103506
X197370Y113506
X197370Y123506
X197370Y133506
X197370Y143506
X197370Y153506
X197370Y163506
X197370Y173506
X197370Y183506
X197370Y193506
X197370Y203506
X227370Y203506
X227370Y193506
X227370Y183506
X227370Y173506
X227370Y163506
X227370Y153506
X227370Y143506
X162370Y108006
X162370Y89006
X112370Y213506
X102370Y213506
X102370Y243506
X112370Y243506
T04
X132370Y243506
X142370Y228506
X132370Y213506
X172370Y213506
X182370Y228506
X172370Y243506
X157370Y173506
X117370Y173506
X72370Y178506
X57370Y178506
X57370Y138506
X72370Y138506
X52370Y78506
X92370Y78506
T05
X106670Y93506
X106670Y103506
X118070Y103506
X118070Y93506
X137370Y138506
X147370Y138506
X147370Y148506
X137370Y148506
X137370Y158506
X147370Y158506
X203470Y225706
X221270Y225706
X221270Y251306
X203470Y251306
X271870Y213506
X272870Y203506
X271870Y193506
X272870Y183506
X271870Y173506
X272870Y163506
X271870Y153506
X274050Y135906
X256250Y135906
X256250Y110306
X274050Y110306
X274830Y91766
X274830Y81766
X264830Y81766
X254830Y81766
X254830Y91766
X264830Y91766
X77370Y244006
X67370Y243006
X57370Y244006
X47370Y243006
X37370Y244006
X27370Y203506
X27370Y193506
X27370Y183506
X27370Y173506
X27370Y163506
X27370Y153506
X27370Y143506
X27370Y133506
X27370Y123506
X27370Y113506
X17370Y113506
X17370Y123506
X17370Y133506
X17370Y143506
X17370Y153506
X17370Y163506
X17370Y173506
X17370Y183506
X17370Y193506
X17370Y203506
T06
X142370Y188506
X167370Y188506
X252370Y153506
X228640Y52316
X32370Y78506
T07
X172370Y143506
X244870Y228506
X244870Y248506
T08
X17370Y53506
X17370Y243506
X267370Y243506
X267370Y53506
M30
