G75*
%MOIN*%
%OFA0B0*%
%FSLAX25Y25*%
%IPPOS*%
%LPD*%
%AMOC8*
5,1,8,0,0,1.08239X$1,22.5*
%
%ADD10C,0.00000*%
%ADD11C,0.06500*%
%ADD12R,0.06500X0.06500*%
%ADD13C,0.05200*%
%ADD14R,0.06000X0.06000*%
%ADD15OC8,0.06000*%
%ADD16C,0.07400*%
%ADD17OC8,0.05200*%
%ADD18R,0.07000X0.16500*%
%ADD19R,0.10500X0.16500*%
%ADD20C,0.05200*%
%ADD21OC8,0.08500*%
%ADD22OC8,0.10050*%
%ADD23C,0.21000*%
%ADD24C,0.01000*%
%ADD25C,0.03962*%
%ADD26C,0.02400*%
%ADD27C,0.03200*%
%ADD28C,0.01600*%
D10*
X0002370Y0038506D02*
X0002370Y0262207D01*
X0287291Y0262207D01*
X0287291Y0038506D01*
X0002370Y0038506D01*
X0095370Y0038506D02*
X0139370Y0038506D01*
X0145370Y0038506D02*
X0189370Y0038506D01*
D11*
X0142370Y0088506D03*
X0132370Y0088506D03*
X0132370Y0108506D03*
X0142370Y0108506D03*
X0117370Y0143506D03*
X0117370Y0153506D03*
X0102370Y0153506D03*
X0102370Y0143506D03*
X0088640Y0123506D03*
X0078640Y0123506D03*
X0061100Y0123506D03*
X0051100Y0123506D03*
X0061100Y0103506D03*
X0078640Y0103506D03*
X0242370Y0123506D03*
X0242370Y0133506D03*
D12*
X0088640Y0103506D03*
X0051100Y0103506D03*
D13*
X0194770Y0103506D02*
X0199970Y0103506D01*
X0199970Y0113506D02*
X0194770Y0113506D01*
X0194770Y0123506D02*
X0199970Y0123506D01*
X0199970Y0133506D02*
X0194770Y0133506D01*
X0194770Y0143506D02*
X0199970Y0143506D01*
X0199970Y0153506D02*
X0194770Y0153506D01*
X0194770Y0163506D02*
X0199970Y0163506D01*
X0199970Y0173506D02*
X0194770Y0173506D01*
X0194770Y0183506D02*
X0199970Y0183506D01*
X0199970Y0193506D02*
X0194770Y0193506D01*
X0194770Y0203506D02*
X0199970Y0203506D01*
X0224770Y0203506D02*
X0229970Y0203506D01*
X0229970Y0193506D02*
X0224770Y0193506D01*
X0224770Y0183506D02*
X0229970Y0183506D01*
X0229970Y0173506D02*
X0224770Y0173506D01*
X0224770Y0163506D02*
X0229970Y0163506D01*
X0229970Y0153506D02*
X0224770Y0153506D01*
X0224770Y0143506D02*
X0229970Y0143506D01*
X0229970Y0133506D02*
X0224770Y0133506D01*
X0224770Y0123506D02*
X0229970Y0123506D01*
X0229970Y0113506D02*
X0224770Y0113506D01*
X0224770Y0103506D02*
X0229970Y0103506D01*
X0229970Y0093506D02*
X0224770Y0093506D01*
X0224770Y0083506D02*
X0229970Y0083506D01*
X0229970Y0073506D02*
X0224770Y0073506D01*
X0199970Y0073506D02*
X0194770Y0073506D01*
X0194770Y0083506D02*
X0199970Y0083506D01*
X0199970Y0093506D02*
X0194770Y0093506D01*
D14*
X0274830Y0091766D03*
X0017370Y0203506D03*
D15*
X0017370Y0193506D03*
X0017370Y0183506D03*
X0017370Y0173506D03*
X0017370Y0163506D03*
X0017370Y0153506D03*
X0017370Y0143506D03*
X0017370Y0133506D03*
X0017370Y0123506D03*
X0017370Y0113506D03*
X0027370Y0113506D03*
X0027370Y0123506D03*
X0027370Y0133506D03*
X0027370Y0143506D03*
X0027370Y0153506D03*
X0027370Y0163506D03*
X0027370Y0173506D03*
X0027370Y0183506D03*
X0027370Y0193506D03*
X0027370Y0203506D03*
X0137370Y0158506D03*
X0137370Y0148506D03*
X0147370Y0148506D03*
X0147370Y0158506D03*
X0147370Y0138506D03*
X0137370Y0138506D03*
X0254830Y0091766D03*
X0264830Y0091766D03*
X0264830Y0081766D03*
X0254830Y0081766D03*
X0274830Y0081766D03*
D16*
X0274050Y0110306D03*
X0256250Y0110306D03*
X0256250Y0135906D03*
X0274050Y0135906D03*
X0271870Y0153506D03*
X0272870Y0163506D03*
X0271870Y0173506D03*
X0272870Y0183506D03*
X0271870Y0193506D03*
X0272870Y0203506D03*
X0271870Y0213506D03*
X0221270Y0225706D03*
X0203470Y0225706D03*
X0182370Y0228506D03*
X0172370Y0213506D03*
X0142370Y0228506D03*
X0132370Y0213506D03*
X0132370Y0243506D03*
X0172370Y0243506D03*
X0203470Y0251306D03*
X0221270Y0251306D03*
X0157370Y0173506D03*
X0117370Y0173506D03*
X0072370Y0178506D03*
X0057370Y0178506D03*
X0057370Y0138506D03*
X0072370Y0138506D03*
X0106670Y0103506D03*
X0106670Y0093506D03*
X0118070Y0093506D03*
X0118070Y0103506D03*
X0092370Y0078506D03*
X0052370Y0078506D03*
X0047370Y0243006D03*
X0037370Y0244006D03*
X0057370Y0244006D03*
X0067370Y0243006D03*
X0077370Y0244006D03*
D17*
X0102370Y0243506D03*
X0112370Y0243506D03*
X0112370Y0213506D03*
X0102370Y0213506D03*
D18*
X0117370Y0046835D03*
X0167370Y0046835D03*
D19*
X0153612Y0046835D03*
X0131128Y0046835D03*
X0103612Y0046835D03*
X0181128Y0046835D03*
D20*
X0162370Y0089006D03*
X0162370Y0108006D03*
D21*
X0228640Y0052316D03*
X0252370Y0153506D03*
X0167370Y0188506D03*
X0142370Y0188506D03*
X0032370Y0078506D03*
D22*
X0172370Y0143506D03*
X0244870Y0228506D03*
X0244870Y0248506D03*
D23*
X0267370Y0243506D03*
X0267370Y0053506D03*
X0017370Y0053506D03*
X0017370Y0243506D03*
D24*
X0017870Y0243134D02*
X0032243Y0243134D01*
X0032298Y0242789D02*
X0032184Y0243506D01*
X0036870Y0243506D01*
X0037870Y0243506D01*
X0037870Y0238821D01*
X0038588Y0238934D01*
X0039366Y0239187D01*
X0040095Y0239559D01*
X0040758Y0240040D01*
X0041336Y0240619D01*
X0041817Y0241281D01*
X0042170Y0241973D01*
X0042170Y0241972D01*
X0042962Y0240061D01*
X0044424Y0238598D01*
X0045710Y0238065D01*
X0045710Y0229575D01*
X0038402Y0222266D01*
X0012393Y0222266D01*
X0011401Y0221855D01*
X0007591Y0218045D01*
X0006870Y0217325D01*
X0006870Y0237662D01*
X0007568Y0236551D01*
X0008408Y0235498D01*
X0009361Y0234544D01*
X0010415Y0233704D01*
X0011556Y0232987D01*
X0012771Y0232402D01*
X0014043Y0231957D01*
X0015357Y0231657D01*
X0016696Y0231506D01*
X0016870Y0231506D01*
X0016870Y0243006D01*
X0017870Y0243006D01*
X0017870Y0231506D01*
X0018044Y0231506D01*
X0019383Y0231657D01*
X0020697Y0231957D01*
X0021969Y0232402D01*
X0023184Y0232987D01*
X0024325Y0233704D01*
X0025379Y0234544D01*
X0026332Y0235498D01*
X0027172Y0236551D01*
X0027889Y0237693D01*
X0028474Y0238907D01*
X0028919Y0240179D01*
X0029219Y0241493D01*
X0029370Y0242832D01*
X0029370Y0243006D01*
X0017870Y0243006D01*
X0017870Y0244006D01*
X0029370Y0244006D01*
X0029370Y0244180D01*
X0029219Y0245520D01*
X0028919Y0246834D01*
X0028474Y0248106D01*
X0027889Y0249320D01*
X0027172Y0250461D01*
X0026332Y0251515D01*
X0025379Y0252468D01*
X0024325Y0253308D01*
X0023184Y0254026D01*
X0021969Y0254610D01*
X0020697Y0255055D01*
X0019383Y0255355D01*
X0018044Y0255506D01*
X0017870Y0255506D01*
X0017870Y0244006D01*
X0016870Y0244006D01*
X0016870Y0255506D01*
X0016696Y0255506D01*
X0015357Y0255355D01*
X0014043Y0255055D01*
X0012771Y0254610D01*
X0011556Y0254026D01*
X0010415Y0253308D01*
X0009361Y0252468D01*
X0008408Y0251515D01*
X0007568Y0250461D01*
X0006870Y0249351D01*
X0006870Y0257707D01*
X0282791Y0257707D01*
X0282791Y0043006D01*
X0273214Y0043006D01*
X0274325Y0043704D01*
X0275379Y0044544D01*
X0276332Y0045498D01*
X0277172Y0046551D01*
X0277889Y0047693D01*
X0278474Y0048907D01*
X0278919Y0050179D01*
X0279219Y0051493D01*
X0279370Y0052832D01*
X0279370Y0053006D01*
X0267870Y0053006D01*
X0267870Y0054006D01*
X0279370Y0054006D01*
X0279370Y0054180D01*
X0279219Y0055520D01*
X0278919Y0056834D01*
X0278474Y0058106D01*
X0277889Y0059320D01*
X0277172Y0060461D01*
X0276332Y0061515D01*
X0275379Y0062468D01*
X0274325Y0063308D01*
X0273184Y0064026D01*
X0271969Y0064610D01*
X0270697Y0065055D01*
X0269383Y0065355D01*
X0268044Y0065506D01*
X0267870Y0065506D01*
X0267870Y0054006D01*
X0266870Y0054006D01*
X0266870Y0053006D01*
X0255370Y0053006D01*
X0255370Y0052832D01*
X0255521Y0051493D01*
X0255821Y0050179D01*
X0256266Y0048907D01*
X0256851Y0047693D01*
X0257568Y0046551D01*
X0258408Y0045498D01*
X0259361Y0044544D01*
X0260415Y0043704D01*
X0261526Y0043006D01*
X0187878Y0043006D01*
X0187878Y0046335D01*
X0181628Y0046335D01*
X0181628Y0047335D01*
X0180628Y0047335D01*
X0180628Y0056585D01*
X0175681Y0056585D01*
X0175299Y0056482D01*
X0174957Y0056285D01*
X0174678Y0056006D01*
X0174480Y0055664D01*
X0174378Y0055282D01*
X0174378Y0047335D01*
X0180628Y0047335D01*
X0180628Y0046335D01*
X0174378Y0046335D01*
X0174378Y0043006D01*
X0172370Y0043006D01*
X0172370Y0055706D01*
X0171491Y0056585D01*
X0170970Y0056585D01*
X0170970Y0057199D01*
X0171042Y0057561D01*
X0185043Y0057451D01*
X0185075Y0057438D01*
X0185658Y0057446D01*
X0186242Y0057442D01*
X0186274Y0057454D01*
X0205991Y0057716D01*
X0206587Y0057716D01*
X0206606Y0057724D01*
X0206628Y0057725D01*
X0207176Y0057960D01*
X0207726Y0058188D01*
X0207741Y0058203D01*
X0207761Y0058212D01*
X0208177Y0058639D01*
X0215346Y0065808D01*
X0216218Y0066680D01*
X0216688Y0067816D01*
X0216690Y0067820D01*
X0216690Y0135093D01*
X0216218Y0136232D01*
X0215346Y0137104D01*
X0212806Y0139644D01*
X0211840Y0140044D01*
X0211309Y0140575D01*
X0210317Y0140986D01*
X0203248Y0140986D01*
X0203446Y0141184D01*
X0204070Y0142691D01*
X0204070Y0144322D01*
X0203455Y0145806D01*
X0208752Y0145806D01*
X0220670Y0133888D01*
X0220670Y0132691D01*
X0221294Y0131184D01*
X0222448Y0130030D01*
X0223954Y0129406D01*
X0224670Y0129406D01*
X0224670Y0127606D01*
X0223954Y0127606D01*
X0222448Y0126982D01*
X0221294Y0125829D01*
X0220670Y0124322D01*
X0220670Y0122691D01*
X0221294Y0121184D01*
X0222448Y0120030D01*
X0223954Y0119406D01*
X0230786Y0119406D01*
X0232292Y0120030D01*
X0233068Y0120806D01*
X0238352Y0120806D01*
X0239679Y0119479D01*
X0241425Y0118756D01*
X0243315Y0118756D01*
X0245061Y0119479D01*
X0246397Y0120816D01*
X0247120Y0122561D01*
X0247120Y0124451D01*
X0246397Y0126197D01*
X0245061Y0127533D01*
X0243315Y0128256D01*
X0241425Y0128256D01*
X0239679Y0127533D01*
X0238352Y0126206D01*
X0233068Y0126206D01*
X0232292Y0126982D01*
X0230786Y0127606D01*
X0230070Y0127606D01*
X0230070Y0129406D01*
X0230786Y0129406D01*
X0232292Y0130030D01*
X0233446Y0131184D01*
X0234070Y0132691D01*
X0234070Y0134322D01*
X0233446Y0135829D01*
X0232292Y0136982D01*
X0230786Y0137606D01*
X0227088Y0137606D01*
X0226399Y0138295D01*
X0225407Y0138706D01*
X0223488Y0138706D01*
X0212159Y0150036D01*
X0211399Y0150795D01*
X0210407Y0151206D01*
X0203455Y0151206D01*
X0204070Y0152691D01*
X0204070Y0154322D01*
X0203446Y0155829D01*
X0202768Y0156506D01*
X0221542Y0156506D01*
X0221757Y0156291D01*
X0221294Y0155829D01*
X0220670Y0154322D01*
X0220670Y0152691D01*
X0221294Y0151184D01*
X0222448Y0150030D01*
X0223954Y0149406D01*
X0230786Y0149406D01*
X0232292Y0150030D01*
X0233446Y0151184D01*
X0233455Y0151206D01*
X0246620Y0151206D01*
X0246620Y0151125D01*
X0249988Y0147756D01*
X0254752Y0147756D01*
X0258120Y0151125D01*
X0258120Y0151206D01*
X0267194Y0151206D01*
X0267462Y0150561D01*
X0268924Y0149098D01*
X0270836Y0148306D01*
X0272904Y0148306D01*
X0274816Y0149098D01*
X0276278Y0150561D01*
X0277070Y0152472D01*
X0277070Y0154541D01*
X0276278Y0156452D01*
X0274816Y0157915D01*
X0273870Y0158306D01*
X0273904Y0158306D01*
X0275816Y0159098D01*
X0277278Y0160561D01*
X0278070Y0162472D01*
X0278070Y0164541D01*
X0277278Y0166452D01*
X0275816Y0167915D01*
X0273904Y0168706D01*
X0273870Y0168706D01*
X0274816Y0169098D01*
X0276278Y0170561D01*
X0277070Y0172472D01*
X0277070Y0174541D01*
X0276278Y0176452D01*
X0274816Y0177915D01*
X0273870Y0178306D01*
X0273904Y0178306D01*
X0275816Y0179098D01*
X0277278Y0180561D01*
X0278070Y0182472D01*
X0278070Y0184541D01*
X0277278Y0186452D01*
X0275816Y0187915D01*
X0273904Y0188706D01*
X0273870Y0188706D01*
X0274816Y0189098D01*
X0276278Y0190561D01*
X0277070Y0192472D01*
X0277070Y0194541D01*
X0276278Y0196452D01*
X0274816Y0197915D01*
X0273870Y0198306D01*
X0273904Y0198306D01*
X0275816Y0199098D01*
X0277278Y0200561D01*
X0278070Y0202472D01*
X0278070Y0204541D01*
X0277278Y0206452D01*
X0275816Y0207915D01*
X0273904Y0208706D01*
X0273903Y0208706D01*
X0274595Y0209059D01*
X0275258Y0209540D01*
X0275836Y0210119D01*
X0276317Y0210781D01*
X0276689Y0211510D01*
X0276942Y0212289D01*
X0277056Y0213006D01*
X0272370Y0213006D01*
X0272370Y0214006D01*
X0277056Y0214006D01*
X0276942Y0214724D01*
X0276689Y0215502D01*
X0276317Y0216232D01*
X0275836Y0216894D01*
X0275258Y0217473D01*
X0274595Y0217954D01*
X0273866Y0218325D01*
X0273088Y0218578D01*
X0272370Y0218692D01*
X0272370Y0214006D01*
X0271370Y0214006D01*
X0271370Y0213006D01*
X0266684Y0213006D01*
X0266798Y0212289D01*
X0267051Y0211510D01*
X0267423Y0210781D01*
X0267904Y0210119D01*
X0268482Y0209540D01*
X0269145Y0209059D01*
X0269874Y0208687D01*
X0270652Y0208434D01*
X0271033Y0208374D01*
X0269924Y0207915D01*
X0268462Y0206452D01*
X0268194Y0205806D01*
X0233455Y0205806D01*
X0233446Y0205829D01*
X0232292Y0206982D01*
X0230786Y0207606D01*
X0223954Y0207606D01*
X0222448Y0206982D01*
X0221294Y0205829D01*
X0220670Y0204322D01*
X0220670Y0202691D01*
X0221294Y0201184D01*
X0222448Y0200030D01*
X0223954Y0199406D01*
X0230786Y0199406D01*
X0232292Y0200030D01*
X0233446Y0201184D01*
X0233455Y0201206D01*
X0268194Y0201206D01*
X0268462Y0200561D01*
X0269924Y0199098D01*
X0270870Y0198706D01*
X0270836Y0198706D01*
X0268924Y0197915D01*
X0267462Y0196452D01*
X0267194Y0195806D01*
X0233455Y0195806D01*
X0233446Y0195829D01*
X0232292Y0196982D01*
X0230786Y0197606D01*
X0223954Y0197606D01*
X0222448Y0196982D01*
X0221294Y0195829D01*
X0220670Y0194322D01*
X0220670Y0192691D01*
X0221294Y0191184D01*
X0222448Y0190030D01*
X0223954Y0189406D01*
X0230786Y0189406D01*
X0232292Y0190030D01*
X0233446Y0191184D01*
X0233455Y0191206D01*
X0267194Y0191206D01*
X0267462Y0190561D01*
X0268924Y0189098D01*
X0270836Y0188306D01*
X0270870Y0188306D01*
X0269924Y0187915D01*
X0268462Y0186452D01*
X0268194Y0185806D01*
X0233455Y0185806D01*
X0233446Y0185829D01*
X0232292Y0186982D01*
X0230786Y0187606D01*
X0223954Y0187606D01*
X0222448Y0186982D01*
X0221294Y0185829D01*
X0220670Y0184322D01*
X0220670Y0182691D01*
X0221294Y0181184D01*
X0222448Y0180030D01*
X0223954Y0179406D01*
X0230786Y0179406D01*
X0232292Y0180030D01*
X0233446Y0181184D01*
X0233455Y0181206D01*
X0268194Y0181206D01*
X0268462Y0180561D01*
X0269924Y0179098D01*
X0270870Y0178706D01*
X0270836Y0178706D01*
X0268924Y0177915D01*
X0267462Y0176452D01*
X0267194Y0175806D01*
X0233455Y0175806D01*
X0233446Y0175829D01*
X0232292Y0176982D01*
X0230786Y0177606D01*
X0223954Y0177606D01*
X0222448Y0176982D01*
X0221294Y0175829D01*
X0220670Y0174322D01*
X0220670Y0172691D01*
X0221294Y0171184D01*
X0222448Y0170030D01*
X0223954Y0169406D01*
X0230786Y0169406D01*
X0232292Y0170030D01*
X0233446Y0171184D01*
X0233455Y0171206D01*
X0267194Y0171206D01*
X0267462Y0170561D01*
X0268924Y0169098D01*
X0270836Y0168306D01*
X0270870Y0168306D01*
X0269924Y0167915D01*
X0268462Y0166452D01*
X0268194Y0165806D01*
X0233455Y0165806D01*
X0233446Y0165829D01*
X0232292Y0166982D01*
X0230786Y0167606D01*
X0223954Y0167606D01*
X0222448Y0166982D01*
X0221294Y0165829D01*
X0220670Y0164322D01*
X0220670Y0162691D01*
X0221294Y0161184D01*
X0221972Y0160506D01*
X0202768Y0160506D01*
X0203446Y0161184D01*
X0204070Y0162691D01*
X0204070Y0164322D01*
X0203446Y0165829D01*
X0202292Y0166982D01*
X0200786Y0167606D01*
X0193954Y0167606D01*
X0192448Y0166982D01*
X0191294Y0165829D01*
X0190670Y0164322D01*
X0190670Y0162691D01*
X0191294Y0161184D01*
X0191972Y0160506D01*
X0190698Y0160506D01*
X0181892Y0169313D01*
X0182418Y0169095D01*
X0183802Y0169095D01*
X0185082Y0169625D01*
X0186061Y0170604D01*
X0186591Y0171884D01*
X0186591Y0173269D01*
X0186061Y0174548D01*
X0185082Y0175527D01*
X0183802Y0176057D01*
X0182457Y0176057D01*
X0177490Y0181025D01*
X0177008Y0181506D01*
X0185847Y0181506D01*
X0185239Y0180898D01*
X0184709Y0179619D01*
X0184709Y0178234D01*
X0185239Y0176954D01*
X0186218Y0175975D01*
X0187498Y0175445D01*
X0188882Y0175445D01*
X0190162Y0175975D01*
X0190693Y0176506D01*
X0191972Y0176506D01*
X0191294Y0175829D01*
X0190670Y0174322D01*
X0190670Y0172691D01*
X0191294Y0171184D01*
X0192448Y0170030D01*
X0193954Y0169406D01*
X0200786Y0169406D01*
X0202292Y0170030D01*
X0203446Y0171184D01*
X0204070Y0172691D01*
X0204070Y0174322D01*
X0203446Y0175829D01*
X0202768Y0176506D01*
X0214042Y0176506D01*
X0214156Y0176392D01*
X0214449Y0175684D01*
X0215428Y0174705D01*
X0216708Y0174175D01*
X0218092Y0174175D01*
X0219372Y0174705D01*
X0220351Y0175684D01*
X0220881Y0176964D01*
X0220881Y0178349D01*
X0220351Y0179628D01*
X0219372Y0180607D01*
X0218092Y0181137D01*
X0216708Y0181137D01*
X0215428Y0180607D01*
X0215327Y0180506D01*
X0202768Y0180506D01*
X0203446Y0181184D01*
X0204070Y0182691D01*
X0204070Y0184322D01*
X0203446Y0185829D01*
X0202292Y0186982D01*
X0200786Y0187606D01*
X0193954Y0187606D01*
X0192448Y0186982D01*
X0191294Y0185829D01*
X0191161Y0185506D01*
X0173198Y0185506D01*
X0172850Y0185855D01*
X0173120Y0186125D01*
X0173120Y0190888D01*
X0170572Y0193436D01*
X0170852Y0193436D01*
X0172782Y0191506D01*
X0191161Y0191506D01*
X0191294Y0191184D01*
X0192448Y0190030D01*
X0193954Y0189406D01*
X0200786Y0189406D01*
X0202292Y0190030D01*
X0203446Y0191184D01*
X0204070Y0192691D01*
X0204070Y0194322D01*
X0203446Y0195829D01*
X0202292Y0196982D01*
X0200786Y0197606D01*
X0193954Y0197606D01*
X0192448Y0196982D01*
X0191294Y0195829D01*
X0191161Y0195506D01*
X0174438Y0195506D01*
X0173680Y0196265D01*
X0172508Y0197436D01*
X0148472Y0197436D01*
X0145022Y0193986D01*
X0144752Y0194256D01*
X0139988Y0194256D01*
X0139358Y0193626D01*
X0095922Y0193626D01*
X0095287Y0192991D01*
X0088053Y0192991D01*
X0069460Y0211585D01*
X0069460Y0237109D01*
X0069474Y0237123D01*
X0069460Y0237934D01*
X0069460Y0238244D01*
X0070316Y0238598D01*
X0071778Y0240061D01*
X0072570Y0241972D01*
X0072570Y0242006D01*
X0072962Y0241061D01*
X0074424Y0239598D01*
X0075296Y0239237D01*
X0075163Y0230567D01*
X0075150Y0230555D01*
X0075150Y0229742D01*
X0075137Y0228929D01*
X0075150Y0228916D01*
X0075150Y0228898D01*
X0075725Y0228323D01*
X0076291Y0227739D01*
X0076309Y0227739D01*
X0076322Y0227726D01*
X0077135Y0227726D01*
X0077948Y0227714D01*
X0077960Y0227726D01*
X0130212Y0227726D01*
X0136660Y0221278D01*
X0137832Y0220106D01*
X0168698Y0220106D01*
X0175098Y0226506D01*
X0177570Y0226506D01*
X0177962Y0225561D01*
X0179424Y0224098D01*
X0181336Y0223306D01*
X0183404Y0223306D01*
X0184370Y0223706D01*
X0198670Y0223706D01*
X0199062Y0222761D01*
X0200524Y0221298D01*
X0201470Y0220906D01*
X0201470Y0210435D01*
X0198642Y0207606D01*
X0193954Y0207606D01*
X0192448Y0206982D01*
X0191294Y0205829D01*
X0190670Y0204322D01*
X0190670Y0202691D01*
X0191294Y0201184D01*
X0192448Y0200030D01*
X0193954Y0199406D01*
X0200786Y0199406D01*
X0202292Y0200030D01*
X0203446Y0201184D01*
X0204070Y0202691D01*
X0204070Y0204322D01*
X0203446Y0205829D01*
X0202983Y0206291D01*
X0204298Y0207606D01*
X0205470Y0208778D01*
X0205470Y0220906D01*
X0206416Y0221298D01*
X0207878Y0222761D01*
X0208670Y0224672D01*
X0208670Y0226741D01*
X0207878Y0228652D01*
X0206416Y0230115D01*
X0205470Y0230506D01*
X0205470Y0246506D01*
X0206416Y0246898D01*
X0207878Y0248361D01*
X0208670Y0250272D01*
X0208670Y0252341D01*
X0207878Y0254252D01*
X0206416Y0255715D01*
X0204504Y0256506D01*
X0202436Y0256506D01*
X0200524Y0255715D01*
X0199062Y0254252D01*
X0198270Y0252341D01*
X0198270Y0250272D01*
X0199062Y0248361D01*
X0200524Y0246898D01*
X0201470Y0246506D01*
X0201470Y0230506D01*
X0200524Y0230115D01*
X0199062Y0228652D01*
X0198670Y0227706D01*
X0187570Y0227706D01*
X0187570Y0229541D01*
X0186778Y0231452D01*
X0185316Y0232915D01*
X0183404Y0233706D01*
X0181336Y0233706D01*
X0179424Y0232915D01*
X0177962Y0231452D01*
X0177570Y0230506D01*
X0173442Y0230506D01*
X0172270Y0229335D01*
X0167042Y0224106D01*
X0145324Y0224106D01*
X0146778Y0225561D01*
X0146859Y0225756D01*
X0161897Y0225756D01*
X0162889Y0226167D01*
X0173899Y0237177D01*
X0174659Y0237937D01*
X0175070Y0238929D01*
X0175070Y0238996D01*
X0175316Y0239098D01*
X0176778Y0240561D01*
X0177570Y0242472D01*
X0177570Y0244541D01*
X0176778Y0246452D01*
X0175316Y0247915D01*
X0175070Y0248016D01*
X0175070Y0249733D01*
X0174659Y0250726D01*
X0173899Y0251485D01*
X0173049Y0252335D01*
X0172057Y0252746D01*
X0046603Y0252746D01*
X0045611Y0252335D01*
X0044851Y0251576D01*
X0044440Y0250583D01*
X0044440Y0247421D01*
X0044424Y0247415D01*
X0042962Y0245952D01*
X0042502Y0244843D01*
X0042442Y0245224D01*
X0042189Y0246002D01*
X0041817Y0246732D01*
X0041336Y0247394D01*
X0040758Y0247973D01*
X0040095Y0248454D01*
X0039366Y0248825D01*
X0038588Y0249078D01*
X0037870Y0249192D01*
X0037870Y0244506D01*
X0036870Y0244506D01*
X0036870Y0243506D01*
X0036870Y0238821D01*
X0036152Y0238934D01*
X0035374Y0239187D01*
X0034645Y0239559D01*
X0033982Y0240040D01*
X0033404Y0240619D01*
X0032923Y0241281D01*
X0032551Y0242010D01*
X0032298Y0242789D01*
X0032510Y0242136D02*
X0029291Y0242136D01*
X0029138Y0241137D02*
X0033027Y0241137D01*
X0033884Y0240139D02*
X0028905Y0240139D01*
X0028556Y0239140D02*
X0035519Y0239140D01*
X0036870Y0239140D02*
X0037870Y0239140D01*
X0037870Y0240139D02*
X0036870Y0240139D01*
X0036870Y0241137D02*
X0037870Y0241137D01*
X0037870Y0242136D02*
X0036870Y0242136D01*
X0036870Y0243134D02*
X0037870Y0243134D01*
X0036870Y0244133D02*
X0029370Y0244133D01*
X0029263Y0245131D02*
X0032283Y0245131D01*
X0032298Y0245224D02*
X0032184Y0244506D01*
X0036870Y0244506D01*
X0036870Y0249192D01*
X0036152Y0249078D01*
X0035374Y0248825D01*
X0034645Y0248454D01*
X0033982Y0247973D01*
X0033404Y0247394D01*
X0032923Y0246732D01*
X0032551Y0246002D01*
X0032298Y0245224D01*
X0032616Y0246130D02*
X0029080Y0246130D01*
X0028816Y0247128D02*
X0033211Y0247128D01*
X0034194Y0248127D02*
X0028464Y0248127D01*
X0027983Y0249125D02*
X0036449Y0249125D01*
X0036870Y0249125D02*
X0037870Y0249125D01*
X0038291Y0249125D02*
X0044440Y0249125D01*
X0044440Y0248127D02*
X0040546Y0248127D01*
X0041529Y0247128D02*
X0044138Y0247128D01*
X0043139Y0246130D02*
X0042124Y0246130D01*
X0042457Y0245131D02*
X0042622Y0245131D01*
X0042516Y0241137D02*
X0041713Y0241137D01*
X0040856Y0240139D02*
X0042929Y0240139D01*
X0043882Y0239140D02*
X0039221Y0239140D01*
X0037870Y0245131D02*
X0036870Y0245131D01*
X0036870Y0246130D02*
X0037870Y0246130D01*
X0037870Y0247128D02*
X0036870Y0247128D01*
X0036870Y0248127D02*
X0037870Y0248127D01*
X0044440Y0250124D02*
X0027384Y0250124D01*
X0026645Y0251122D02*
X0044663Y0251122D01*
X0045396Y0252121D02*
X0025726Y0252121D01*
X0024562Y0253119D02*
X0198593Y0253119D01*
X0198270Y0252121D02*
X0173264Y0252121D01*
X0174262Y0251122D02*
X0198270Y0251122D01*
X0198331Y0250124D02*
X0174908Y0250124D01*
X0175070Y0249125D02*
X0198745Y0249125D01*
X0199296Y0248127D02*
X0175070Y0248127D01*
X0176102Y0247128D02*
X0200294Y0247128D01*
X0201470Y0246130D02*
X0176912Y0246130D01*
X0177325Y0245131D02*
X0201470Y0245131D01*
X0201470Y0244133D02*
X0177570Y0244133D01*
X0177570Y0243134D02*
X0201470Y0243134D01*
X0201470Y0242136D02*
X0177431Y0242136D01*
X0177017Y0241137D02*
X0201470Y0241137D01*
X0201470Y0240139D02*
X0176356Y0240139D01*
X0175358Y0239140D02*
X0201470Y0239140D01*
X0201470Y0238142D02*
X0174744Y0238142D01*
X0173865Y0237143D02*
X0201470Y0237143D01*
X0201470Y0236145D02*
X0172867Y0236145D01*
X0171868Y0235146D02*
X0201470Y0235146D01*
X0201470Y0234148D02*
X0170870Y0234148D01*
X0169871Y0233149D02*
X0179990Y0233149D01*
X0178660Y0232151D02*
X0168873Y0232151D01*
X0167874Y0231152D02*
X0177837Y0231152D01*
X0174270Y0228506D02*
X0182370Y0228506D01*
X0182370Y0230466D01*
X0182370Y0228506D02*
X0185170Y0225706D01*
X0203470Y0225706D01*
X0203470Y0251306D01*
X0201490Y0256115D02*
X0006870Y0256115D01*
X0006870Y0257113D02*
X0282791Y0257113D01*
X0282791Y0256115D02*
X0223287Y0256115D01*
X0223266Y0256125D02*
X0222488Y0256378D01*
X0221770Y0256492D01*
X0221770Y0251806D01*
X0226456Y0251806D01*
X0226342Y0252524D01*
X0226089Y0253302D01*
X0225717Y0254032D01*
X0225236Y0254694D01*
X0224658Y0255273D01*
X0223995Y0255754D01*
X0223266Y0256125D01*
X0221770Y0256115D02*
X0220770Y0256115D01*
X0220770Y0256492D02*
X0220770Y0251806D01*
X0220770Y0250806D01*
X0221770Y0250806D01*
X0221770Y0246121D01*
X0222488Y0246234D01*
X0223266Y0246487D01*
X0223995Y0246859D01*
X0224658Y0247340D01*
X0225236Y0247919D01*
X0225717Y0248581D01*
X0226089Y0249310D01*
X0226342Y0250089D01*
X0226456Y0250806D01*
X0221770Y0250806D01*
X0221770Y0251806D01*
X0220770Y0251806D01*
X0216084Y0251806D01*
X0216198Y0252524D01*
X0216451Y0253302D01*
X0216823Y0254032D01*
X0217304Y0254694D01*
X0217882Y0255273D01*
X0218545Y0255754D01*
X0219274Y0256125D01*
X0220052Y0256378D01*
X0220770Y0256492D01*
X0220770Y0255116D02*
X0221770Y0255116D01*
X0221770Y0254118D02*
X0220770Y0254118D01*
X0220770Y0253119D02*
X0221770Y0253119D01*
X0221770Y0252121D02*
X0220770Y0252121D01*
X0220770Y0251122D02*
X0208670Y0251122D01*
X0208670Y0252121D02*
X0216134Y0252121D01*
X0216391Y0253119D02*
X0208347Y0253119D01*
X0207934Y0254118D02*
X0216885Y0254118D01*
X0217726Y0255116D02*
X0207014Y0255116D01*
X0205450Y0256115D02*
X0219253Y0256115D01*
X0221770Y0251122D02*
X0238345Y0251122D01*
X0238345Y0251209D02*
X0238345Y0249006D01*
X0244370Y0249006D01*
X0244370Y0248006D01*
X0245370Y0248006D01*
X0245370Y0241981D01*
X0247573Y0241981D01*
X0251395Y0245804D01*
X0251395Y0248006D01*
X0245370Y0248006D01*
X0245370Y0249006D01*
X0251395Y0249006D01*
X0251395Y0251209D01*
X0247573Y0255031D01*
X0245370Y0255031D01*
X0245370Y0249006D01*
X0244370Y0249006D01*
X0244370Y0255031D01*
X0242167Y0255031D01*
X0238345Y0251209D01*
X0238345Y0250124D02*
X0226348Y0250124D01*
X0225995Y0249125D02*
X0238345Y0249125D01*
X0238345Y0248006D02*
X0238345Y0245804D01*
X0242167Y0241981D01*
X0244370Y0241981D01*
X0244370Y0248006D01*
X0238345Y0248006D01*
X0238345Y0247128D02*
X0224366Y0247128D01*
X0225387Y0248127D02*
X0244370Y0248127D01*
X0244370Y0249125D02*
X0245370Y0249125D01*
X0245370Y0248127D02*
X0256276Y0248127D01*
X0256266Y0248106D02*
X0255821Y0246834D01*
X0255521Y0245520D01*
X0255370Y0244180D01*
X0255370Y0244006D01*
X0266870Y0244006D01*
X0266870Y0243006D01*
X0267870Y0243006D01*
X0267870Y0231506D01*
X0268044Y0231506D01*
X0269383Y0231657D01*
X0270697Y0231957D01*
X0271969Y0232402D01*
X0273184Y0232987D01*
X0274325Y0233704D01*
X0275379Y0234544D01*
X0276332Y0235498D01*
X0277172Y0236551D01*
X0277889Y0237693D01*
X0278474Y0238907D01*
X0278919Y0240179D01*
X0279219Y0241493D01*
X0279370Y0242832D01*
X0279370Y0243006D01*
X0267870Y0243006D01*
X0267870Y0244006D01*
X0279370Y0244006D01*
X0279370Y0244180D01*
X0279219Y0245520D01*
X0278919Y0246834D01*
X0278474Y0248106D01*
X0277889Y0249320D01*
X0277172Y0250461D01*
X0276332Y0251515D01*
X0275379Y0252468D01*
X0274325Y0253308D01*
X0273184Y0254026D01*
X0271969Y0254610D01*
X0270697Y0255055D01*
X0269383Y0255355D01*
X0268044Y0255506D01*
X0267870Y0255506D01*
X0267870Y0244006D01*
X0266870Y0244006D01*
X0266870Y0255506D01*
X0266696Y0255506D01*
X0265357Y0255355D01*
X0264043Y0255055D01*
X0262771Y0254610D01*
X0261556Y0254026D01*
X0260415Y0253308D01*
X0259361Y0252468D01*
X0258408Y0251515D01*
X0257568Y0250461D01*
X0256851Y0249320D01*
X0256266Y0248106D01*
X0255924Y0247128D02*
X0251395Y0247128D01*
X0251395Y0246130D02*
X0255660Y0246130D01*
X0255477Y0245131D02*
X0250723Y0245131D01*
X0249724Y0244133D02*
X0255370Y0244133D01*
X0255370Y0243006D02*
X0255370Y0242832D01*
X0255521Y0241493D01*
X0255821Y0240179D01*
X0256266Y0238907D01*
X0256851Y0237693D01*
X0257568Y0236551D01*
X0258408Y0235498D01*
X0259361Y0234544D01*
X0260415Y0233704D01*
X0261556Y0232987D01*
X0262771Y0232402D01*
X0264043Y0231957D01*
X0265357Y0231657D01*
X0266696Y0231506D01*
X0266870Y0231506D01*
X0266870Y0243006D01*
X0255370Y0243006D01*
X0255449Y0242136D02*
X0247727Y0242136D01*
X0248726Y0243134D02*
X0266870Y0243134D01*
X0266870Y0242136D02*
X0267870Y0242136D01*
X0267870Y0243134D02*
X0282791Y0243134D01*
X0282791Y0242136D02*
X0279291Y0242136D01*
X0279138Y0241137D02*
X0282791Y0241137D01*
X0282791Y0240139D02*
X0278905Y0240139D01*
X0278556Y0239140D02*
X0282791Y0239140D01*
X0282791Y0238142D02*
X0278105Y0238142D01*
X0277544Y0237143D02*
X0282791Y0237143D01*
X0282791Y0236145D02*
X0276848Y0236145D01*
X0275980Y0235146D02*
X0282791Y0235146D01*
X0282791Y0234148D02*
X0274881Y0234148D01*
X0273441Y0233149D02*
X0282791Y0233149D01*
X0282791Y0232151D02*
X0271250Y0232151D01*
X0267870Y0232151D02*
X0266870Y0232151D01*
X0266870Y0233149D02*
X0267870Y0233149D01*
X0267870Y0234148D02*
X0266870Y0234148D01*
X0266870Y0235146D02*
X0267870Y0235146D01*
X0267870Y0236145D02*
X0266870Y0236145D01*
X0266870Y0237143D02*
X0267870Y0237143D01*
X0267870Y0238142D02*
X0266870Y0238142D01*
X0266870Y0239140D02*
X0267870Y0239140D01*
X0267870Y0240139D02*
X0266870Y0240139D01*
X0266870Y0241137D02*
X0267870Y0241137D01*
X0267870Y0244133D02*
X0266870Y0244133D01*
X0266870Y0245131D02*
X0267870Y0245131D01*
X0267870Y0246130D02*
X0266870Y0246130D01*
X0266870Y0247128D02*
X0267870Y0247128D01*
X0267870Y0248127D02*
X0266870Y0248127D01*
X0266870Y0249125D02*
X0267870Y0249125D01*
X0267870Y0250124D02*
X0266870Y0250124D01*
X0266870Y0251122D02*
X0267870Y0251122D01*
X0267870Y0252121D02*
X0266870Y0252121D01*
X0266870Y0253119D02*
X0267870Y0253119D01*
X0267870Y0254118D02*
X0266870Y0254118D01*
X0266870Y0255116D02*
X0267870Y0255116D01*
X0270431Y0255116D02*
X0282791Y0255116D01*
X0282791Y0254118D02*
X0272992Y0254118D01*
X0274562Y0253119D02*
X0282791Y0253119D01*
X0282791Y0252121D02*
X0275726Y0252121D01*
X0276645Y0251122D02*
X0282791Y0251122D01*
X0282791Y0250124D02*
X0277384Y0250124D01*
X0277983Y0249125D02*
X0282791Y0249125D01*
X0282791Y0248127D02*
X0278464Y0248127D01*
X0278816Y0247128D02*
X0282791Y0247128D01*
X0282791Y0246130D02*
X0279080Y0246130D01*
X0279263Y0245131D02*
X0282791Y0245131D01*
X0282791Y0244133D02*
X0279370Y0244133D01*
X0282791Y0231152D02*
X0251395Y0231152D01*
X0251395Y0231209D02*
X0247573Y0235031D01*
X0245370Y0235031D01*
X0245370Y0229006D01*
X0251395Y0229006D01*
X0251395Y0231209D01*
X0251395Y0230153D02*
X0282791Y0230153D01*
X0282791Y0229155D02*
X0251395Y0229155D01*
X0251395Y0228006D02*
X0245370Y0228006D01*
X0245370Y0221981D01*
X0247573Y0221981D01*
X0251395Y0225804D01*
X0251395Y0228006D01*
X0251395Y0227158D02*
X0282791Y0227158D01*
X0282791Y0228156D02*
X0245370Y0228156D01*
X0245370Y0228006D02*
X0245370Y0229006D01*
X0244370Y0229006D01*
X0244370Y0228006D01*
X0245370Y0228006D01*
X0245370Y0227158D02*
X0244370Y0227158D01*
X0244370Y0228006D02*
X0244370Y0221981D01*
X0242167Y0221981D01*
X0238345Y0225804D01*
X0238345Y0228006D01*
X0244370Y0228006D01*
X0244370Y0228156D02*
X0225858Y0228156D01*
X0225717Y0228432D02*
X0226089Y0227702D01*
X0226342Y0226924D01*
X0226456Y0226206D01*
X0221770Y0226206D01*
X0221770Y0225206D01*
X0221770Y0220521D01*
X0222488Y0220634D01*
X0223266Y0220887D01*
X0223995Y0221259D01*
X0224658Y0221740D01*
X0225236Y0222319D01*
X0225717Y0222981D01*
X0226089Y0223710D01*
X0226342Y0224489D01*
X0226456Y0225206D01*
X0221770Y0225206D01*
X0220770Y0225206D01*
X0220770Y0220521D01*
X0220052Y0220634D01*
X0219274Y0220887D01*
X0218545Y0221259D01*
X0217882Y0221740D01*
X0217304Y0222319D01*
X0216823Y0222981D01*
X0216451Y0223710D01*
X0216198Y0224489D01*
X0216084Y0225206D01*
X0220770Y0225206D01*
X0220770Y0226206D01*
X0216084Y0226206D01*
X0216198Y0226924D01*
X0216451Y0227702D01*
X0216823Y0228432D01*
X0217304Y0229094D01*
X0217882Y0229673D01*
X0218545Y0230154D01*
X0219274Y0230525D01*
X0220052Y0230778D01*
X0220770Y0230892D01*
X0220770Y0226206D01*
X0221770Y0226206D01*
X0221770Y0230892D01*
X0222488Y0230778D01*
X0223266Y0230525D01*
X0223995Y0230154D01*
X0224658Y0229673D01*
X0225236Y0229094D01*
X0225717Y0228432D01*
X0225175Y0229155D02*
X0238345Y0229155D01*
X0238345Y0229006D02*
X0244370Y0229006D01*
X0244370Y0235031D01*
X0242167Y0235031D01*
X0238345Y0231209D01*
X0238345Y0229006D01*
X0238345Y0230153D02*
X0223996Y0230153D01*
X0221770Y0230153D02*
X0220770Y0230153D01*
X0220770Y0229155D02*
X0221770Y0229155D01*
X0221770Y0228156D02*
X0220770Y0228156D01*
X0220770Y0227158D02*
X0221770Y0227158D01*
X0221770Y0226159D02*
X0238345Y0226159D01*
X0238345Y0227158D02*
X0226266Y0227158D01*
X0226448Y0225161D02*
X0238988Y0225161D01*
X0239986Y0224162D02*
X0226236Y0224162D01*
X0225811Y0223164D02*
X0240985Y0223164D01*
X0241983Y0222165D02*
X0225083Y0222165D01*
X0223815Y0221167D02*
X0282791Y0221167D01*
X0282791Y0222165D02*
X0247757Y0222165D01*
X0248755Y0223164D02*
X0282791Y0223164D01*
X0282791Y0224162D02*
X0249754Y0224162D01*
X0250752Y0225161D02*
X0282791Y0225161D01*
X0282791Y0226159D02*
X0251395Y0226159D01*
X0245370Y0226159D02*
X0244370Y0226159D01*
X0244370Y0225161D02*
X0245370Y0225161D01*
X0245370Y0224162D02*
X0244370Y0224162D01*
X0244370Y0223164D02*
X0245370Y0223164D01*
X0245370Y0222165D02*
X0244370Y0222165D01*
X0244370Y0229155D02*
X0245370Y0229155D01*
X0245370Y0230153D02*
X0244370Y0230153D01*
X0244370Y0231152D02*
X0245370Y0231152D01*
X0245370Y0232151D02*
X0244370Y0232151D01*
X0244370Y0233149D02*
X0245370Y0233149D01*
X0245370Y0234148D02*
X0244370Y0234148D01*
X0241284Y0234148D02*
X0205470Y0234148D01*
X0205470Y0235146D02*
X0258760Y0235146D01*
X0257892Y0236145D02*
X0205470Y0236145D01*
X0205470Y0237143D02*
X0257196Y0237143D01*
X0256635Y0238142D02*
X0205470Y0238142D01*
X0205470Y0239140D02*
X0256184Y0239140D01*
X0255835Y0240139D02*
X0205470Y0240139D01*
X0205470Y0241137D02*
X0255602Y0241137D01*
X0256757Y0249125D02*
X0251395Y0249125D01*
X0251395Y0250124D02*
X0257356Y0250124D01*
X0258095Y0251122D02*
X0251395Y0251122D01*
X0250483Y0252121D02*
X0259014Y0252121D01*
X0260178Y0253119D02*
X0249485Y0253119D01*
X0248486Y0254118D02*
X0261748Y0254118D01*
X0264309Y0255116D02*
X0224814Y0255116D01*
X0225655Y0254118D02*
X0241254Y0254118D01*
X0240255Y0253119D02*
X0226149Y0253119D01*
X0226406Y0252121D02*
X0239257Y0252121D01*
X0244370Y0252121D02*
X0245370Y0252121D01*
X0245370Y0253119D02*
X0244370Y0253119D01*
X0244370Y0254118D02*
X0245370Y0254118D01*
X0245370Y0251122D02*
X0244370Y0251122D01*
X0244370Y0250124D02*
X0245370Y0250124D01*
X0245370Y0247128D02*
X0244370Y0247128D01*
X0244370Y0246130D02*
X0245370Y0246130D01*
X0245370Y0245131D02*
X0244370Y0245131D01*
X0244370Y0244133D02*
X0245370Y0244133D01*
X0245370Y0243134D02*
X0244370Y0243134D01*
X0244370Y0242136D02*
X0245370Y0242136D01*
X0242013Y0242136D02*
X0205470Y0242136D01*
X0205470Y0243134D02*
X0241014Y0243134D01*
X0240016Y0244133D02*
X0205470Y0244133D01*
X0205470Y0245131D02*
X0239017Y0245131D01*
X0238345Y0246130D02*
X0221827Y0246130D01*
X0221770Y0246130D02*
X0220770Y0246130D01*
X0220770Y0246121D02*
X0220770Y0250806D01*
X0216084Y0250806D01*
X0216198Y0250089D01*
X0216451Y0249310D01*
X0216823Y0248581D01*
X0217304Y0247919D01*
X0217882Y0247340D01*
X0218545Y0246859D01*
X0219274Y0246487D01*
X0220052Y0246234D01*
X0220770Y0246121D01*
X0220713Y0246130D02*
X0205470Y0246130D01*
X0206646Y0247128D02*
X0218174Y0247128D01*
X0217153Y0248127D02*
X0207644Y0248127D01*
X0208195Y0249125D02*
X0216545Y0249125D01*
X0216192Y0250124D02*
X0208609Y0250124D01*
X0199926Y0255116D02*
X0020431Y0255116D01*
X0017870Y0255116D02*
X0016870Y0255116D01*
X0016870Y0254118D02*
X0017870Y0254118D01*
X0017870Y0253119D02*
X0016870Y0253119D01*
X0016870Y0252121D02*
X0017870Y0252121D01*
X0017870Y0251122D02*
X0016870Y0251122D01*
X0016870Y0250124D02*
X0017870Y0250124D01*
X0017870Y0249125D02*
X0016870Y0249125D01*
X0016870Y0248127D02*
X0017870Y0248127D01*
X0017870Y0247128D02*
X0016870Y0247128D01*
X0016870Y0246130D02*
X0017870Y0246130D01*
X0017870Y0245131D02*
X0016870Y0245131D01*
X0016870Y0244133D02*
X0017870Y0244133D01*
X0017870Y0242136D02*
X0016870Y0242136D01*
X0016870Y0241137D02*
X0017870Y0241137D01*
X0017870Y0240139D02*
X0016870Y0240139D01*
X0016870Y0239140D02*
X0017870Y0239140D01*
X0017870Y0238142D02*
X0016870Y0238142D01*
X0016870Y0237143D02*
X0017870Y0237143D01*
X0017870Y0236145D02*
X0016870Y0236145D01*
X0016870Y0235146D02*
X0017870Y0235146D01*
X0017870Y0234148D02*
X0016870Y0234148D01*
X0016870Y0233149D02*
X0017870Y0233149D01*
X0017870Y0232151D02*
X0016870Y0232151D01*
X0013490Y0232151D02*
X0006870Y0232151D01*
X0006870Y0233149D02*
X0011298Y0233149D01*
X0009859Y0234148D02*
X0006870Y0234148D01*
X0006870Y0235146D02*
X0008760Y0235146D01*
X0007892Y0236145D02*
X0006870Y0236145D01*
X0006870Y0237143D02*
X0007196Y0237143D01*
X0006870Y0231152D02*
X0045710Y0231152D01*
X0045710Y0232151D02*
X0021250Y0232151D01*
X0023441Y0233149D02*
X0045710Y0233149D01*
X0045710Y0234148D02*
X0024881Y0234148D01*
X0025980Y0235146D02*
X0045710Y0235146D01*
X0045710Y0236145D02*
X0026848Y0236145D01*
X0027544Y0237143D02*
X0045710Y0237143D01*
X0045526Y0238142D02*
X0028105Y0238142D01*
X0041296Y0225161D02*
X0006870Y0225161D01*
X0006870Y0226159D02*
X0042295Y0226159D01*
X0043293Y0227158D02*
X0006870Y0227158D01*
X0006870Y0228156D02*
X0044292Y0228156D01*
X0045290Y0229155D02*
X0006870Y0229155D01*
X0006870Y0230153D02*
X0045710Y0230153D01*
X0040298Y0224162D02*
X0006870Y0224162D01*
X0006870Y0223164D02*
X0039299Y0223164D01*
X0046385Y0217173D02*
X0065460Y0217173D01*
X0065460Y0218171D02*
X0047383Y0218171D01*
X0048382Y0219170D02*
X0065460Y0219170D01*
X0065460Y0220168D02*
X0049380Y0220168D01*
X0050379Y0221167D02*
X0065460Y0221167D01*
X0065460Y0222165D02*
X0051378Y0222165D01*
X0052376Y0223164D02*
X0065460Y0223164D01*
X0065460Y0224162D02*
X0053375Y0224162D01*
X0054373Y0225161D02*
X0065460Y0225161D01*
X0065460Y0226159D02*
X0055372Y0226159D01*
X0056370Y0227158D02*
X0065460Y0227158D01*
X0065460Y0228156D02*
X0057369Y0228156D01*
X0058367Y0229155D02*
X0065460Y0229155D01*
X0065460Y0230153D02*
X0059300Y0230153D01*
X0059300Y0230088D02*
X0059300Y0239177D01*
X0060316Y0239598D01*
X0061778Y0241061D01*
X0062170Y0242006D01*
X0062170Y0241972D01*
X0062962Y0240061D01*
X0064424Y0238598D01*
X0065455Y0238171D01*
X0065460Y0237899D01*
X0065460Y0209928D01*
X0085225Y0190163D01*
X0086397Y0188991D01*
X0091287Y0188991D01*
X0067802Y0165506D01*
X0031734Y0165506D01*
X0029234Y0168006D01*
X0025506Y0168006D01*
X0024370Y0166870D01*
X0024370Y0170142D01*
X0025506Y0169006D01*
X0029234Y0169006D01*
X0031870Y0171642D01*
X0031870Y0175370D01*
X0029234Y0178006D01*
X0025506Y0178006D01*
X0024370Y0176870D01*
X0024370Y0180142D01*
X0025506Y0179006D01*
X0029234Y0179006D01*
X0031734Y0181506D01*
X0051542Y0181506D01*
X0052562Y0180486D01*
X0052170Y0179541D01*
X0052170Y0177472D01*
X0052962Y0175561D01*
X0054424Y0174098D01*
X0056336Y0173306D01*
X0058404Y0173306D01*
X0060316Y0174098D01*
X0061778Y0175561D01*
X0062570Y0177472D01*
X0062570Y0179541D01*
X0061778Y0181452D01*
X0060316Y0182915D01*
X0058404Y0183706D01*
X0056336Y0183706D01*
X0055390Y0183315D01*
X0053198Y0185506D01*
X0031734Y0185506D01*
X0029234Y0188006D01*
X0025506Y0188006D01*
X0024370Y0186870D01*
X0024370Y0190142D01*
X0025506Y0189006D01*
X0029234Y0189006D01*
X0031734Y0191506D01*
X0056542Y0191506D01*
X0067562Y0180486D01*
X0067170Y0179541D01*
X0067170Y0177472D01*
X0067962Y0175561D01*
X0069424Y0174098D01*
X0071336Y0173306D01*
X0073404Y0173306D01*
X0075316Y0174098D01*
X0076778Y0175561D01*
X0077570Y0177472D01*
X0077570Y0179541D01*
X0076778Y0181452D01*
X0075316Y0182915D01*
X0073404Y0183706D01*
X0071336Y0183706D01*
X0070390Y0183315D01*
X0058198Y0195506D01*
X0031734Y0195506D01*
X0029234Y0198006D01*
X0025506Y0198006D01*
X0024370Y0196870D01*
X0024370Y0200142D01*
X0025506Y0199006D01*
X0026870Y0199006D01*
X0026870Y0203006D01*
X0027870Y0203006D01*
X0027870Y0199006D01*
X0029234Y0199006D01*
X0031870Y0201642D01*
X0031870Y0203006D01*
X0027870Y0203006D01*
X0027870Y0204006D01*
X0031870Y0204006D01*
X0031870Y0205370D01*
X0029234Y0208006D01*
X0027870Y0208006D01*
X0027870Y0204006D01*
X0026870Y0204006D01*
X0026870Y0208006D01*
X0025506Y0208006D01*
X0024370Y0206870D01*
X0024370Y0211506D01*
X0040718Y0211506D01*
X0041890Y0212678D01*
X0059300Y0230088D01*
X0059300Y0231152D02*
X0065460Y0231152D01*
X0065460Y0232151D02*
X0059300Y0232151D01*
X0059300Y0233149D02*
X0065460Y0233149D01*
X0065460Y0234148D02*
X0059300Y0234148D01*
X0059300Y0235146D02*
X0065460Y0235146D01*
X0065460Y0236145D02*
X0059300Y0236145D01*
X0059300Y0237143D02*
X0065460Y0237143D01*
X0065456Y0238142D02*
X0059300Y0238142D01*
X0059300Y0239140D02*
X0063882Y0239140D01*
X0062929Y0240139D02*
X0060856Y0240139D01*
X0061810Y0241137D02*
X0062516Y0241137D01*
X0057370Y0244006D02*
X0057300Y0243936D01*
X0057300Y0230916D01*
X0039890Y0213506D01*
X0022370Y0213506D01*
X0022370Y0158506D01*
X0027370Y0153506D01*
X0066250Y0153506D01*
X0101830Y0189086D01*
X0129770Y0189086D01*
X0138660Y0180196D01*
X0146280Y0180196D01*
X0153900Y0187816D01*
X0166680Y0187816D01*
X0167370Y0188506D01*
X0172370Y0183506D01*
X0197370Y0183506D01*
X0193016Y0187217D02*
X0173120Y0187217D01*
X0173120Y0186219D02*
X0191684Y0186219D01*
X0192265Y0190213D02*
X0173120Y0190213D01*
X0173120Y0189215D02*
X0268808Y0189215D01*
X0267809Y0190213D02*
X0232475Y0190213D01*
X0231724Y0187217D02*
X0269227Y0187217D01*
X0268365Y0186219D02*
X0233056Y0186219D01*
X0232490Y0180228D02*
X0268794Y0180228D01*
X0269793Y0179229D02*
X0220516Y0179229D01*
X0220881Y0178231D02*
X0269688Y0178231D01*
X0268242Y0177232D02*
X0231688Y0177232D01*
X0233041Y0176234D02*
X0267371Y0176234D01*
X0267780Y0170243D02*
X0232505Y0170243D01*
X0231652Y0167247D02*
X0269257Y0167247D01*
X0268378Y0166249D02*
X0233026Y0166249D01*
X0223088Y0167247D02*
X0201652Y0167247D01*
X0203026Y0166249D02*
X0221714Y0166249D01*
X0221055Y0165250D02*
X0203685Y0165250D01*
X0204070Y0164252D02*
X0220670Y0164252D01*
X0220670Y0163253D02*
X0204070Y0163253D01*
X0203889Y0162255D02*
X0220851Y0162255D01*
X0221264Y0161256D02*
X0203476Y0161256D01*
X0203011Y0156264D02*
X0221729Y0156264D01*
X0221061Y0155265D02*
X0203679Y0155265D01*
X0204070Y0154267D02*
X0220670Y0154267D01*
X0220670Y0153268D02*
X0204070Y0153268D01*
X0203896Y0152270D02*
X0220844Y0152270D01*
X0221258Y0151271D02*
X0203482Y0151271D01*
X0203673Y0145280D02*
X0209278Y0145280D01*
X0210276Y0144282D02*
X0204070Y0144282D01*
X0204070Y0143283D02*
X0211275Y0143283D01*
X0212273Y0142284D02*
X0203902Y0142284D01*
X0203488Y0141286D02*
X0213272Y0141286D01*
X0214270Y0140287D02*
X0211597Y0140287D01*
X0213161Y0139289D02*
X0215269Y0139289D01*
X0216267Y0138290D02*
X0214160Y0138290D01*
X0215158Y0137292D02*
X0217266Y0137292D01*
X0218265Y0136293D02*
X0216157Y0136293D01*
X0216606Y0135295D02*
X0219263Y0135295D01*
X0220262Y0134296D02*
X0216690Y0134296D01*
X0216690Y0133298D02*
X0220670Y0133298D01*
X0220832Y0132299D02*
X0216690Y0132299D01*
X0216690Y0131301D02*
X0221246Y0131301D01*
X0222176Y0130302D02*
X0216690Y0130302D01*
X0216690Y0129304D02*
X0224670Y0129304D01*
X0224670Y0128305D02*
X0216690Y0128305D01*
X0216690Y0127307D02*
X0223231Y0127307D01*
X0221774Y0126308D02*
X0216690Y0126308D01*
X0216690Y0125310D02*
X0221079Y0125310D01*
X0220670Y0124311D02*
X0216690Y0124311D01*
X0216690Y0123313D02*
X0220670Y0123313D01*
X0220826Y0122314D02*
X0216690Y0122314D01*
X0216690Y0121316D02*
X0221240Y0121316D01*
X0222161Y0120317D02*
X0216690Y0120317D01*
X0216690Y0119319D02*
X0240067Y0119319D01*
X0238842Y0120317D02*
X0232579Y0120317D01*
X0231473Y0117322D02*
X0282791Y0117322D01*
X0282791Y0118320D02*
X0216690Y0118320D01*
X0216690Y0117322D02*
X0223267Y0117322D01*
X0223954Y0117606D02*
X0222448Y0116982D01*
X0221294Y0115829D01*
X0220670Y0114322D01*
X0220670Y0112691D01*
X0221294Y0111184D01*
X0222448Y0110030D01*
X0223954Y0109406D01*
X0228642Y0109406D01*
X0230442Y0107606D01*
X0223954Y0107606D01*
X0222448Y0106982D01*
X0221294Y0105829D01*
X0220670Y0104322D01*
X0220670Y0102691D01*
X0221294Y0101184D01*
X0222448Y0100030D01*
X0223954Y0099406D01*
X0230786Y0099406D01*
X0232292Y0100030D01*
X0233446Y0101184D01*
X0234070Y0102691D01*
X0234070Y0103978D01*
X0239960Y0098088D01*
X0241132Y0096916D01*
X0259752Y0096916D01*
X0261684Y0094984D01*
X0260330Y0093630D01*
X0260330Y0089902D01*
X0262966Y0087266D01*
X0266694Y0087266D01*
X0269330Y0089902D01*
X0269330Y0093630D01*
X0266694Y0096266D01*
X0266058Y0096266D01*
X0265658Y0096666D01*
X0261408Y0100916D01*
X0242788Y0100916D01*
X0232983Y0110721D01*
X0233446Y0111184D01*
X0234070Y0112691D01*
X0234070Y0114322D01*
X0233446Y0115829D01*
X0232292Y0116982D01*
X0230786Y0117606D01*
X0223954Y0117606D01*
X0221789Y0116323D02*
X0216690Y0116323D01*
X0216690Y0115325D02*
X0221085Y0115325D01*
X0220672Y0114326D02*
X0216690Y0114326D01*
X0216690Y0113328D02*
X0220670Y0113328D01*
X0220820Y0112329D02*
X0216690Y0112329D01*
X0216690Y0111331D02*
X0221233Y0111331D01*
X0222146Y0110332D02*
X0216690Y0110332D01*
X0216690Y0109334D02*
X0228714Y0109334D01*
X0229713Y0108335D02*
X0216690Y0108335D01*
X0216690Y0107337D02*
X0223303Y0107337D01*
X0221804Y0106338D02*
X0216690Y0106338D01*
X0216690Y0105340D02*
X0221092Y0105340D01*
X0220678Y0104341D02*
X0216690Y0104341D01*
X0216690Y0103343D02*
X0220670Y0103343D01*
X0220814Y0102344D02*
X0216690Y0102344D01*
X0216690Y0101346D02*
X0221227Y0101346D01*
X0222131Y0100347D02*
X0216690Y0100347D01*
X0216690Y0099348D02*
X0238699Y0099348D01*
X0239698Y0098350D02*
X0216690Y0098350D01*
X0216690Y0097351D02*
X0223339Y0097351D01*
X0223954Y0097606D02*
X0222448Y0096982D01*
X0221294Y0095829D01*
X0220670Y0094322D01*
X0220670Y0092691D01*
X0221294Y0091184D01*
X0222448Y0090030D01*
X0223954Y0089406D01*
X0230786Y0089406D01*
X0232292Y0090030D01*
X0233446Y0091184D01*
X0234070Y0092691D01*
X0234070Y0094322D01*
X0233446Y0095829D01*
X0232292Y0096982D01*
X0230786Y0097606D01*
X0223954Y0097606D01*
X0221818Y0096353D02*
X0216690Y0096353D01*
X0216690Y0095354D02*
X0221098Y0095354D01*
X0220684Y0094356D02*
X0216690Y0094356D01*
X0216690Y0093357D02*
X0220670Y0093357D01*
X0220807Y0092359D02*
X0216690Y0092359D01*
X0216690Y0091360D02*
X0221221Y0091360D01*
X0222116Y0090362D02*
X0216690Y0090362D01*
X0216690Y0089363D02*
X0250869Y0089363D01*
X0250330Y0089902D02*
X0252966Y0087266D01*
X0256694Y0087266D01*
X0259330Y0089902D01*
X0259330Y0093630D01*
X0256694Y0096266D01*
X0252966Y0096266D01*
X0250330Y0093630D01*
X0250330Y0089902D01*
X0250330Y0090362D02*
X0232624Y0090362D01*
X0233519Y0091360D02*
X0250330Y0091360D01*
X0250330Y0092359D02*
X0233933Y0092359D01*
X0234070Y0093357D02*
X0250330Y0093357D01*
X0251056Y0094356D02*
X0234056Y0094356D01*
X0233642Y0095354D02*
X0252054Y0095354D01*
X0257606Y0095354D02*
X0261313Y0095354D01*
X0261056Y0094356D02*
X0258604Y0094356D01*
X0259330Y0093357D02*
X0260330Y0093357D01*
X0260330Y0092359D02*
X0259330Y0092359D01*
X0259330Y0091360D02*
X0260330Y0091360D01*
X0260330Y0090362D02*
X0259330Y0090362D01*
X0258791Y0089363D02*
X0260869Y0089363D01*
X0261867Y0088365D02*
X0257793Y0088365D01*
X0256794Y0087366D02*
X0262866Y0087366D01*
X0262966Y0086266D02*
X0260330Y0083630D01*
X0260330Y0079902D01*
X0262966Y0077266D01*
X0266512Y0077266D01*
X0264192Y0074946D01*
X0242263Y0074946D01*
X0241271Y0074535D01*
X0240001Y0073265D01*
X0239241Y0072506D01*
X0238830Y0071513D01*
X0238830Y0065579D01*
X0238579Y0065328D01*
X0238049Y0064049D01*
X0238049Y0062664D01*
X0238579Y0061384D01*
X0239558Y0060405D01*
X0240838Y0059875D01*
X0242222Y0059875D01*
X0243502Y0060405D01*
X0244481Y0061384D01*
X0245011Y0062664D01*
X0245011Y0064049D01*
X0244481Y0065328D01*
X0244230Y0065579D01*
X0244230Y0069546D01*
X0265847Y0069546D01*
X0266839Y0069957D01*
X0267599Y0070717D01*
X0274148Y0077266D01*
X0276694Y0077266D01*
X0279330Y0079902D01*
X0279330Y0083630D01*
X0276694Y0086266D01*
X0272966Y0086266D01*
X0270330Y0083630D01*
X0270330Y0081085D01*
X0269330Y0080085D01*
X0269330Y0083630D01*
X0266694Y0086266D01*
X0262966Y0086266D01*
X0262069Y0085369D02*
X0257591Y0085369D01*
X0256694Y0086266D02*
X0255330Y0086266D01*
X0255330Y0082266D01*
X0259330Y0082266D01*
X0259330Y0083630D01*
X0256694Y0086266D01*
X0255330Y0085369D02*
X0254330Y0085369D01*
X0254330Y0086266D02*
X0252966Y0086266D01*
X0250330Y0083630D01*
X0250330Y0082266D01*
X0254330Y0082266D01*
X0254330Y0081266D01*
X0255330Y0081266D01*
X0255330Y0077266D01*
X0256694Y0077266D01*
X0259330Y0079902D01*
X0259330Y0081266D01*
X0255330Y0081266D01*
X0255330Y0082266D01*
X0254330Y0082266D01*
X0254330Y0086266D01*
X0252866Y0087366D02*
X0231365Y0087366D01*
X0230786Y0087606D02*
X0232292Y0086982D01*
X0233446Y0085829D01*
X0234070Y0084322D01*
X0234070Y0082691D01*
X0233446Y0081184D01*
X0232292Y0080030D01*
X0230786Y0079406D01*
X0223954Y0079406D01*
X0222448Y0080030D01*
X0221294Y0081184D01*
X0220670Y0082691D01*
X0220670Y0084322D01*
X0221294Y0085829D01*
X0222448Y0086982D01*
X0223954Y0087606D01*
X0230786Y0087606D01*
X0232907Y0086368D02*
X0282791Y0086368D01*
X0282791Y0087366D02*
X0278551Y0087366D01*
X0278451Y0087266D02*
X0279330Y0088145D01*
X0279330Y0095388D01*
X0278451Y0096266D01*
X0271209Y0096266D01*
X0270330Y0095388D01*
X0270330Y0088145D01*
X0271209Y0087266D01*
X0278451Y0087266D01*
X0279330Y0088365D02*
X0282791Y0088365D01*
X0282791Y0089363D02*
X0279330Y0089363D01*
X0279330Y0090362D02*
X0282791Y0090362D01*
X0282791Y0091360D02*
X0279330Y0091360D01*
X0279330Y0092359D02*
X0282791Y0092359D01*
X0282791Y0093357D02*
X0279330Y0093357D01*
X0279330Y0094356D02*
X0282791Y0094356D01*
X0282791Y0095354D02*
X0279330Y0095354D01*
X0282791Y0096353D02*
X0265972Y0096353D01*
X0264973Y0097351D02*
X0282791Y0097351D01*
X0282791Y0098350D02*
X0263975Y0098350D01*
X0262976Y0099348D02*
X0282791Y0099348D01*
X0282791Y0100347D02*
X0261978Y0100347D01*
X0260580Y0098916D02*
X0264830Y0094666D01*
X0264830Y0091766D01*
X0267793Y0088365D02*
X0270330Y0088365D01*
X0270330Y0089363D02*
X0268791Y0089363D01*
X0269330Y0090362D02*
X0270330Y0090362D01*
X0270330Y0091360D02*
X0269330Y0091360D01*
X0269330Y0092359D02*
X0270330Y0092359D01*
X0270330Y0093357D02*
X0269330Y0093357D01*
X0268604Y0094356D02*
X0270330Y0094356D01*
X0270330Y0095354D02*
X0267606Y0095354D01*
X0260315Y0096353D02*
X0232922Y0096353D01*
X0231401Y0097351D02*
X0240696Y0097351D01*
X0241960Y0098916D02*
X0260580Y0098916D01*
X0257847Y0105340D02*
X0272508Y0105340D01*
X0272832Y0105234D02*
X0272054Y0105487D01*
X0271325Y0105859D01*
X0270662Y0106340D01*
X0270084Y0106919D01*
X0269603Y0107581D01*
X0269231Y0108310D01*
X0268978Y0109089D01*
X0268864Y0109806D01*
X0273550Y0109806D01*
X0274550Y0109806D01*
X0274550Y0105121D01*
X0275268Y0105234D01*
X0276046Y0105487D01*
X0276775Y0105859D01*
X0277438Y0106340D01*
X0278016Y0106919D01*
X0278497Y0107581D01*
X0278869Y0108310D01*
X0279122Y0109089D01*
X0279236Y0109806D01*
X0274550Y0109806D01*
X0274550Y0110806D01*
X0279236Y0110806D01*
X0279122Y0111524D01*
X0278869Y0112302D01*
X0278497Y0113032D01*
X0278016Y0113694D01*
X0277438Y0114273D01*
X0276775Y0114754D01*
X0276046Y0115125D01*
X0275268Y0115378D01*
X0274550Y0115492D01*
X0274550Y0110806D01*
X0273550Y0110806D01*
X0273550Y0109806D01*
X0273550Y0105121D01*
X0272832Y0105234D01*
X0273550Y0105340D02*
X0274550Y0105340D01*
X0274550Y0106338D02*
X0273550Y0106338D01*
X0273550Y0107337D02*
X0274550Y0107337D01*
X0274550Y0108335D02*
X0273550Y0108335D01*
X0273550Y0109334D02*
X0274550Y0109334D01*
X0274550Y0110332D02*
X0282791Y0110332D01*
X0282791Y0109334D02*
X0279161Y0109334D01*
X0278877Y0108335D02*
X0282791Y0108335D01*
X0282791Y0107337D02*
X0278320Y0107337D01*
X0277435Y0106338D02*
X0282791Y0106338D01*
X0282791Y0105340D02*
X0275592Y0105340D01*
X0270665Y0106338D02*
X0259636Y0106338D01*
X0259196Y0105898D02*
X0260658Y0107361D01*
X0261450Y0109272D01*
X0261450Y0111341D01*
X0260658Y0113252D01*
X0259196Y0114715D01*
X0257284Y0115506D01*
X0255216Y0115506D01*
X0253304Y0114715D01*
X0251842Y0113252D01*
X0251050Y0111341D01*
X0251050Y0109272D01*
X0251842Y0107361D01*
X0253304Y0105898D01*
X0255216Y0105106D01*
X0257284Y0105106D01*
X0259196Y0105898D01*
X0260634Y0107337D02*
X0269780Y0107337D01*
X0269223Y0108335D02*
X0261062Y0108335D01*
X0261450Y0109334D02*
X0268939Y0109334D01*
X0268864Y0110806D02*
X0273550Y0110806D01*
X0273550Y0115492D01*
X0272832Y0115378D01*
X0272054Y0115125D01*
X0271325Y0114754D01*
X0270662Y0114273D01*
X0270084Y0113694D01*
X0269603Y0113032D01*
X0269231Y0112302D01*
X0268978Y0111524D01*
X0268864Y0110806D01*
X0268947Y0111331D02*
X0261450Y0111331D01*
X0261450Y0110332D02*
X0273550Y0110332D01*
X0273550Y0111331D02*
X0274550Y0111331D01*
X0274550Y0112329D02*
X0273550Y0112329D01*
X0273550Y0113328D02*
X0274550Y0113328D01*
X0274550Y0114326D02*
X0273550Y0114326D01*
X0273550Y0115325D02*
X0274550Y0115325D01*
X0275433Y0115325D02*
X0282791Y0115325D01*
X0282791Y0116323D02*
X0232951Y0116323D01*
X0233655Y0115325D02*
X0254777Y0115325D01*
X0252916Y0114326D02*
X0234068Y0114326D01*
X0234070Y0113328D02*
X0251917Y0113328D01*
X0251459Y0112329D02*
X0233920Y0112329D01*
X0233507Y0111331D02*
X0251050Y0111331D01*
X0251050Y0110332D02*
X0233373Y0110332D01*
X0234371Y0109334D02*
X0251050Y0109334D01*
X0251438Y0108335D02*
X0235370Y0108335D01*
X0236368Y0107337D02*
X0251866Y0107337D01*
X0252864Y0106338D02*
X0237367Y0106338D01*
X0238365Y0105340D02*
X0254652Y0105340D01*
X0261041Y0112329D02*
X0269245Y0112329D01*
X0269818Y0113328D02*
X0260583Y0113328D01*
X0259584Y0114326D02*
X0270736Y0114326D01*
X0272667Y0115325D02*
X0257723Y0115325D01*
X0247018Y0122314D02*
X0282791Y0122314D01*
X0282791Y0121316D02*
X0246604Y0121316D01*
X0245898Y0120317D02*
X0282791Y0120317D01*
X0282791Y0119319D02*
X0244673Y0119319D01*
X0247120Y0123313D02*
X0282791Y0123313D01*
X0282791Y0124311D02*
X0247120Y0124311D01*
X0246764Y0125310D02*
X0282791Y0125310D01*
X0282791Y0126308D02*
X0246285Y0126308D01*
X0245287Y0127307D02*
X0282791Y0127307D01*
X0282791Y0128305D02*
X0230070Y0128305D01*
X0230070Y0129304D02*
X0240155Y0129304D01*
X0239880Y0129444D02*
X0240547Y0129104D01*
X0241258Y0128873D01*
X0241996Y0128756D01*
X0242181Y0128756D01*
X0242181Y0133317D01*
X0242559Y0133317D01*
X0242559Y0128756D01*
X0242744Y0128756D01*
X0243482Y0128873D01*
X0244193Y0129104D01*
X0244860Y0129444D01*
X0245464Y0129883D01*
X0245993Y0130412D01*
X0246433Y0131017D01*
X0246772Y0131683D01*
X0247003Y0132394D01*
X0247120Y0133132D01*
X0247120Y0133317D01*
X0242559Y0133317D01*
X0242559Y0133695D01*
X0247120Y0133695D01*
X0247120Y0133880D01*
X0247003Y0134619D01*
X0246772Y0135330D01*
X0246433Y0135996D01*
X0245993Y0136601D01*
X0245464Y0137129D01*
X0244860Y0137569D01*
X0244193Y0137908D01*
X0243482Y0138139D01*
X0242744Y0138256D01*
X0242559Y0138256D01*
X0242559Y0133695D01*
X0242181Y0133695D01*
X0242181Y0133317D01*
X0237620Y0133317D01*
X0237620Y0133132D01*
X0237737Y0132394D01*
X0237968Y0131683D01*
X0238307Y0131017D01*
X0238747Y0130412D01*
X0239276Y0129883D01*
X0239880Y0129444D01*
X0238856Y0130302D02*
X0232564Y0130302D01*
X0233494Y0131301D02*
X0238163Y0131301D01*
X0237768Y0132299D02*
X0233908Y0132299D01*
X0234070Y0133298D02*
X0237620Y0133298D01*
X0237620Y0133695D02*
X0242181Y0133695D01*
X0242181Y0138256D01*
X0241996Y0138256D01*
X0241258Y0138139D01*
X0240547Y0137908D01*
X0239880Y0137569D01*
X0239276Y0137129D01*
X0238747Y0136601D01*
X0238307Y0135996D01*
X0237968Y0135330D01*
X0237737Y0134619D01*
X0237620Y0133880D01*
X0237620Y0133695D01*
X0237686Y0134296D02*
X0234070Y0134296D01*
X0233667Y0135295D02*
X0237957Y0135295D01*
X0238524Y0136293D02*
X0232981Y0136293D01*
X0231544Y0137292D02*
X0239499Y0137292D01*
X0242181Y0137292D02*
X0242559Y0137292D01*
X0242559Y0136293D02*
X0242181Y0136293D01*
X0242181Y0135295D02*
X0242559Y0135295D01*
X0242559Y0134296D02*
X0242181Y0134296D01*
X0242181Y0133298D02*
X0242559Y0133298D01*
X0242559Y0132299D02*
X0242181Y0132299D01*
X0242181Y0131301D02*
X0242559Y0131301D01*
X0242559Y0130302D02*
X0242181Y0130302D01*
X0242181Y0129304D02*
X0242559Y0129304D01*
X0244585Y0129304D02*
X0282791Y0129304D01*
X0282791Y0130302D02*
X0245884Y0130302D01*
X0246577Y0131301D02*
X0253780Y0131301D01*
X0253304Y0131498D02*
X0255216Y0130706D01*
X0257284Y0130706D01*
X0259196Y0131498D01*
X0260658Y0132961D01*
X0261450Y0134872D01*
X0261450Y0136941D01*
X0260658Y0138852D01*
X0259196Y0140315D01*
X0257284Y0141106D01*
X0255216Y0141106D01*
X0253304Y0140315D01*
X0251842Y0138852D01*
X0251050Y0136941D01*
X0251050Y0134872D01*
X0251842Y0132961D01*
X0253304Y0131498D01*
X0252503Y0132299D02*
X0246972Y0132299D01*
X0247120Y0133298D02*
X0251702Y0133298D01*
X0251288Y0134296D02*
X0247054Y0134296D01*
X0246783Y0135295D02*
X0251050Y0135295D01*
X0251050Y0136293D02*
X0246216Y0136293D01*
X0245241Y0137292D02*
X0251196Y0137292D01*
X0251609Y0138290D02*
X0226404Y0138290D01*
X0227070Y0139406D02*
X0227070Y0143206D01*
X0227670Y0143206D01*
X0227670Y0139406D01*
X0230293Y0139406D01*
X0230930Y0139507D01*
X0231544Y0139707D01*
X0232119Y0140000D01*
X0232641Y0140379D01*
X0233097Y0140835D01*
X0233477Y0141357D01*
X0233770Y0141932D01*
X0233969Y0142546D01*
X0234070Y0143184D01*
X0234070Y0143206D01*
X0227670Y0143206D01*
X0227670Y0143806D01*
X0234070Y0143806D01*
X0234070Y0143829D01*
X0233969Y0144466D01*
X0233770Y0145080D01*
X0233477Y0145655D01*
X0233097Y0146177D01*
X0232641Y0146634D01*
X0232119Y0147013D01*
X0231544Y0147306D01*
X0230930Y0147505D01*
X0230293Y0147606D01*
X0227670Y0147606D01*
X0227670Y0143806D01*
X0227070Y0143806D01*
X0227070Y0143206D01*
X0220670Y0143206D01*
X0220670Y0143184D01*
X0220771Y0142546D01*
X0220970Y0141932D01*
X0221263Y0141357D01*
X0221643Y0140835D01*
X0222099Y0140379D01*
X0222621Y0140000D01*
X0223196Y0139707D01*
X0223810Y0139507D01*
X0224447Y0139406D01*
X0227070Y0139406D01*
X0227070Y0140287D02*
X0227670Y0140287D01*
X0227670Y0141286D02*
X0227070Y0141286D01*
X0227070Y0142284D02*
X0227670Y0142284D01*
X0227670Y0143283D02*
X0282791Y0143283D01*
X0282791Y0144282D02*
X0233998Y0144282D01*
X0233668Y0145280D02*
X0282791Y0145280D01*
X0282791Y0146279D02*
X0232996Y0146279D01*
X0231601Y0147277D02*
X0282791Y0147277D01*
X0282791Y0148276D02*
X0255271Y0148276D01*
X0256269Y0149274D02*
X0268748Y0149274D01*
X0267750Y0150273D02*
X0257268Y0150273D01*
X0249469Y0148276D02*
X0213919Y0148276D01*
X0212921Y0149274D02*
X0248471Y0149274D01*
X0247472Y0150273D02*
X0232535Y0150273D01*
X0227670Y0147277D02*
X0227070Y0147277D01*
X0227070Y0147606D02*
X0224447Y0147606D01*
X0223810Y0147505D01*
X0223196Y0147306D01*
X0222621Y0147013D01*
X0222099Y0146634D01*
X0221643Y0146177D01*
X0221263Y0145655D01*
X0220970Y0145080D01*
X0220771Y0144466D01*
X0220670Y0143829D01*
X0220670Y0143806D01*
X0227070Y0143806D01*
X0227070Y0147606D01*
X0227070Y0146279D02*
X0227670Y0146279D01*
X0227670Y0145280D02*
X0227070Y0145280D01*
X0227070Y0144282D02*
X0227670Y0144282D01*
X0227070Y0143283D02*
X0218912Y0143283D01*
X0219910Y0142284D02*
X0220856Y0142284D01*
X0220909Y0141286D02*
X0221315Y0141286D01*
X0221907Y0140287D02*
X0222225Y0140287D01*
X0222906Y0139289D02*
X0252279Y0139289D01*
X0253277Y0140287D02*
X0232515Y0140287D01*
X0233425Y0141286D02*
X0282791Y0141286D01*
X0282791Y0142284D02*
X0233884Y0142284D01*
X0223140Y0147277D02*
X0214918Y0147277D01*
X0215916Y0146279D02*
X0221744Y0146279D01*
X0221072Y0145280D02*
X0216915Y0145280D01*
X0217913Y0144282D02*
X0220742Y0144282D01*
X0222205Y0150273D02*
X0211922Y0150273D01*
X0222370Y0158506D02*
X0189870Y0158506D01*
X0170720Y0177656D01*
X0162790Y0177656D01*
X0157710Y0182736D01*
X0156440Y0182736D01*
X0148820Y0175116D01*
X0134850Y0175116D01*
X0125960Y0184006D01*
X0106910Y0184006D01*
X0068810Y0145906D01*
X0048490Y0145906D01*
X0035790Y0133206D01*
X0027670Y0133206D01*
X0027370Y0133506D01*
X0024210Y0130302D02*
X0020530Y0130302D01*
X0019531Y0129304D02*
X0025209Y0129304D01*
X0025506Y0129006D02*
X0029234Y0129006D01*
X0031434Y0131206D01*
X0036618Y0131206D01*
X0049318Y0143906D01*
X0069638Y0143906D01*
X0107738Y0182006D01*
X0125132Y0182006D01*
X0134022Y0173116D01*
X0149648Y0173116D01*
X0150820Y0174288D01*
X0152946Y0176414D01*
X0152170Y0174541D01*
X0152170Y0172472D01*
X0152962Y0170561D01*
X0154270Y0169252D01*
X0154270Y0161606D01*
X0150634Y0161606D01*
X0149234Y0163006D01*
X0145506Y0163006D01*
X0142870Y0160370D01*
X0142870Y0156642D01*
X0145506Y0154006D01*
X0149234Y0154006D01*
X0150634Y0155406D01*
X0156086Y0155406D01*
X0165845Y0145647D01*
X0165845Y0140885D01*
X0155596Y0151134D01*
X0154457Y0151606D01*
X0150634Y0151606D01*
X0149234Y0153006D01*
X0145506Y0153006D01*
X0144106Y0151606D01*
X0140634Y0151606D01*
X0139234Y0153006D01*
X0135506Y0153006D01*
X0132870Y0150370D01*
X0132870Y0146642D01*
X0135506Y0144006D01*
X0139234Y0144006D01*
X0140634Y0145406D01*
X0144106Y0145406D01*
X0145506Y0144006D01*
X0149234Y0144006D01*
X0150634Y0145406D01*
X0152556Y0145406D01*
X0165242Y0132720D01*
X0166114Y0131848D01*
X0167253Y0131376D01*
X0186267Y0131376D01*
X0187406Y0131848D01*
X0191144Y0135586D01*
X0191228Y0135586D01*
X0190970Y0135080D01*
X0190771Y0134466D01*
X0190670Y0133829D01*
X0190670Y0133806D01*
X0197070Y0133806D01*
X0197070Y0133206D01*
X0197670Y0133206D01*
X0197670Y0129406D01*
X0200293Y0129406D01*
X0200930Y0129507D01*
X0201544Y0129707D01*
X0202119Y0130000D01*
X0202641Y0130379D01*
X0203097Y0130835D01*
X0203477Y0131357D01*
X0203770Y0131932D01*
X0203969Y0132546D01*
X0204070Y0133184D01*
X0204070Y0133206D01*
X0197670Y0133206D01*
X0197670Y0133806D01*
X0204070Y0133806D01*
X0204070Y0133829D01*
X0203969Y0134466D01*
X0203770Y0135080D01*
X0203512Y0135586D01*
X0208287Y0135586D01*
X0208422Y0135260D01*
X0209294Y0134388D01*
X0210490Y0133192D01*
X0210490Y0069720D01*
X0204669Y0063899D01*
X0185642Y0063646D01*
X0184355Y0063657D01*
X0184283Y0063686D01*
X0183727Y0063916D01*
X0183712Y0063916D01*
X0183698Y0063922D01*
X0183096Y0063916D01*
X0117723Y0063916D01*
X0116584Y0063444D01*
X0115712Y0062572D01*
X0114742Y0061602D01*
X0114270Y0060463D01*
X0114270Y0056585D01*
X0113249Y0056585D01*
X0112370Y0055706D01*
X0112370Y0043006D01*
X0110362Y0043006D01*
X0110362Y0046335D01*
X0104112Y0046335D01*
X0104112Y0047335D01*
X0103112Y0047335D01*
X0103112Y0056585D01*
X0098164Y0056585D01*
X0097783Y0056482D01*
X0097441Y0056285D01*
X0097161Y0056006D01*
X0096964Y0055664D01*
X0096862Y0055282D01*
X0096862Y0047335D01*
X0103112Y0047335D01*
X0103112Y0046335D01*
X0096862Y0046335D01*
X0096862Y0043006D01*
X0023214Y0043006D01*
X0024325Y0043704D01*
X0025379Y0044544D01*
X0026332Y0045498D01*
X0027172Y0046551D01*
X0027889Y0047693D01*
X0028474Y0048907D01*
X0028919Y0050179D01*
X0029219Y0051493D01*
X0029370Y0052832D01*
X0029370Y0053006D01*
X0017870Y0053006D01*
X0017870Y0054006D01*
X0029370Y0054006D01*
X0029370Y0054180D01*
X0029219Y0055520D01*
X0028919Y0056834D01*
X0028474Y0058106D01*
X0027889Y0059320D01*
X0027172Y0060461D01*
X0026332Y0061515D01*
X0025379Y0062468D01*
X0024325Y0063308D01*
X0023184Y0064026D01*
X0021969Y0064610D01*
X0020697Y0065055D01*
X0019383Y0065355D01*
X0018044Y0065506D01*
X0017870Y0065506D01*
X0017870Y0054006D01*
X0016870Y0054006D01*
X0016870Y0065506D01*
X0016696Y0065506D01*
X0015357Y0065355D01*
X0014043Y0065055D01*
X0012771Y0064610D01*
X0011556Y0064026D01*
X0010415Y0063308D01*
X0009361Y0062468D01*
X0008408Y0061515D01*
X0007568Y0060461D01*
X0006870Y0059351D01*
X0006870Y0106238D01*
X0007591Y0105517D01*
X0010131Y0102977D01*
X0011123Y0102566D01*
X0031247Y0102566D01*
X0032239Y0102977D01*
X0032999Y0103737D01*
X0038079Y0108817D01*
X0038490Y0109809D01*
X0038490Y0119773D01*
X0038079Y0120766D01*
X0037319Y0121525D01*
X0033509Y0125335D01*
X0032517Y0125746D01*
X0031494Y0125746D01*
X0029234Y0128006D01*
X0025506Y0128006D01*
X0022870Y0125370D01*
X0022870Y0121642D01*
X0025506Y0119006D01*
X0029234Y0119006D01*
X0030574Y0120346D01*
X0030862Y0120346D01*
X0033090Y0118118D01*
X0033090Y0111465D01*
X0029592Y0107966D01*
X0012778Y0107966D01*
X0011820Y0108925D01*
X0011820Y0189238D01*
X0013388Y0190806D01*
X0013706Y0190806D01*
X0015506Y0189006D01*
X0019234Y0189006D01*
X0020370Y0190142D01*
X0020370Y0186870D01*
X0019234Y0188006D01*
X0015506Y0188006D01*
X0012870Y0185370D01*
X0012870Y0181642D01*
X0015506Y0179006D01*
X0019234Y0179006D01*
X0020370Y0180142D01*
X0020370Y0176870D01*
X0019234Y0178006D01*
X0015506Y0178006D01*
X0012870Y0175370D01*
X0012870Y0171642D01*
X0015506Y0169006D01*
X0019234Y0169006D01*
X0020370Y0170142D01*
X0020370Y0166870D01*
X0019234Y0168006D01*
X0015506Y0168006D01*
X0012870Y0165370D01*
X0012870Y0161642D01*
X0015506Y0159006D01*
X0019234Y0159006D01*
X0020370Y0160142D01*
X0020370Y0157678D01*
X0022870Y0155178D01*
X0022870Y0151642D01*
X0025506Y0149006D01*
X0029234Y0149006D01*
X0031734Y0151506D01*
X0041102Y0151506D01*
X0035102Y0145506D01*
X0031734Y0145506D01*
X0029234Y0148006D01*
X0025506Y0148006D01*
X0022870Y0145370D01*
X0022870Y0141642D01*
X0025506Y0139006D01*
X0029234Y0139006D01*
X0031734Y0141506D01*
X0036758Y0141506D01*
X0037930Y0142678D01*
X0042968Y0147716D01*
X0047472Y0147716D01*
X0046490Y0146735D01*
X0034962Y0135206D01*
X0031870Y0135206D01*
X0031870Y0135370D01*
X0029234Y0138006D01*
X0025506Y0138006D01*
X0022870Y0135370D01*
X0022870Y0131642D01*
X0025506Y0129006D01*
X0024807Y0127307D02*
X0019933Y0127307D01*
X0019234Y0128006D02*
X0017870Y0128006D01*
X0017870Y0124006D01*
X0021870Y0124006D01*
X0021870Y0125370D01*
X0019234Y0128006D01*
X0019234Y0129006D02*
X0021870Y0131642D01*
X0021870Y0135370D01*
X0019234Y0138006D01*
X0015506Y0138006D01*
X0012870Y0135370D01*
X0012870Y0131642D01*
X0015506Y0129006D01*
X0019234Y0129006D01*
X0017870Y0127307D02*
X0016870Y0127307D01*
X0016870Y0128006D02*
X0015506Y0128006D01*
X0012870Y0125370D01*
X0012870Y0124006D01*
X0016870Y0124006D01*
X0016870Y0123006D01*
X0017870Y0123006D01*
X0017870Y0119006D01*
X0019234Y0119006D01*
X0021870Y0121642D01*
X0021870Y0123006D01*
X0017870Y0123006D01*
X0017870Y0124006D01*
X0016870Y0124006D01*
X0016870Y0128006D01*
X0016870Y0126308D02*
X0017870Y0126308D01*
X0017870Y0125310D02*
X0016870Y0125310D01*
X0016870Y0124311D02*
X0017870Y0124311D01*
X0017870Y0123313D02*
X0022870Y0123313D01*
X0022870Y0124311D02*
X0021870Y0124311D01*
X0021870Y0125310D02*
X0022870Y0125310D01*
X0023808Y0126308D02*
X0020932Y0126308D01*
X0021870Y0122314D02*
X0022870Y0122314D01*
X0023197Y0121316D02*
X0021543Y0121316D01*
X0020545Y0120317D02*
X0024195Y0120317D01*
X0025194Y0119319D02*
X0019546Y0119319D01*
X0019234Y0118006D02*
X0017870Y0118006D01*
X0017870Y0114006D01*
X0021870Y0114006D01*
X0021870Y0115370D01*
X0019234Y0118006D01*
X0019919Y0117322D02*
X0024821Y0117322D01*
X0025506Y0118006D02*
X0022870Y0115370D01*
X0022870Y0111642D01*
X0025506Y0109006D01*
X0029234Y0109006D01*
X0031870Y0111642D01*
X0031870Y0115370D01*
X0029234Y0118006D01*
X0025506Y0118006D01*
X0023823Y0116323D02*
X0020917Y0116323D01*
X0021870Y0115325D02*
X0022870Y0115325D01*
X0022870Y0114326D02*
X0021870Y0114326D01*
X0021870Y0113006D02*
X0017870Y0113006D01*
X0017870Y0109006D01*
X0019234Y0109006D01*
X0021870Y0111642D01*
X0021870Y0113006D01*
X0021870Y0112329D02*
X0022870Y0112329D01*
X0022870Y0113328D02*
X0017870Y0113328D01*
X0017870Y0113006D02*
X0017870Y0114006D01*
X0016870Y0114006D01*
X0016870Y0113006D01*
X0017870Y0113006D01*
X0017870Y0112329D02*
X0016870Y0112329D01*
X0016870Y0113006D02*
X0016870Y0109006D01*
X0015506Y0109006D01*
X0012870Y0111642D01*
X0012870Y0113006D01*
X0016870Y0113006D01*
X0016870Y0113328D02*
X0011820Y0113328D01*
X0011820Y0114326D02*
X0012870Y0114326D01*
X0012870Y0114006D02*
X0016870Y0114006D01*
X0016870Y0118006D01*
X0015506Y0118006D01*
X0012870Y0115370D01*
X0012870Y0114006D01*
X0012870Y0115325D02*
X0011820Y0115325D01*
X0011820Y0116323D02*
X0013823Y0116323D01*
X0014821Y0117322D02*
X0011820Y0117322D01*
X0011820Y0118320D02*
X0032888Y0118320D01*
X0033090Y0117322D02*
X0029919Y0117322D01*
X0030917Y0116323D02*
X0033090Y0116323D01*
X0033090Y0115325D02*
X0031870Y0115325D01*
X0031870Y0114326D02*
X0033090Y0114326D01*
X0033090Y0113328D02*
X0031870Y0113328D01*
X0031870Y0112329D02*
X0033090Y0112329D01*
X0032956Y0111331D02*
X0031558Y0111331D01*
X0031957Y0110332D02*
X0030560Y0110332D01*
X0030959Y0109334D02*
X0029561Y0109334D01*
X0029960Y0108335D02*
X0012410Y0108335D01*
X0011820Y0109334D02*
X0015179Y0109334D01*
X0014180Y0110332D02*
X0011820Y0110332D01*
X0011820Y0111331D02*
X0013182Y0111331D01*
X0012870Y0112329D02*
X0011820Y0112329D01*
X0016870Y0111331D02*
X0017870Y0111331D01*
X0017870Y0110332D02*
X0016870Y0110332D01*
X0016870Y0109334D02*
X0017870Y0109334D01*
X0019561Y0109334D02*
X0025179Y0109334D01*
X0024180Y0110332D02*
X0020560Y0110332D01*
X0021558Y0111331D02*
X0023182Y0111331D01*
X0017870Y0114326D02*
X0016870Y0114326D01*
X0016870Y0115325D02*
X0017870Y0115325D01*
X0017870Y0116323D02*
X0016870Y0116323D01*
X0016870Y0117322D02*
X0017870Y0117322D01*
X0016870Y0119006D02*
X0016870Y0123006D01*
X0012870Y0123006D01*
X0012870Y0121642D01*
X0015506Y0119006D01*
X0016870Y0119006D01*
X0016870Y0119319D02*
X0017870Y0119319D01*
X0017870Y0120317D02*
X0016870Y0120317D01*
X0016870Y0121316D02*
X0017870Y0121316D01*
X0017870Y0122314D02*
X0016870Y0122314D01*
X0016870Y0123313D02*
X0011820Y0123313D01*
X0011820Y0124311D02*
X0012870Y0124311D01*
X0012870Y0125310D02*
X0011820Y0125310D01*
X0011820Y0126308D02*
X0013808Y0126308D01*
X0014807Y0127307D02*
X0011820Y0127307D01*
X0011820Y0128305D02*
X0065540Y0128305D01*
X0065540Y0127307D02*
X0063950Y0127307D01*
X0064194Y0127129D02*
X0063590Y0127569D01*
X0062923Y0127908D01*
X0062212Y0128139D01*
X0061474Y0128256D01*
X0061289Y0128256D01*
X0061289Y0123695D01*
X0060911Y0123695D01*
X0060911Y0123317D01*
X0061289Y0123317D01*
X0061289Y0118756D01*
X0061474Y0118756D01*
X0062212Y0118873D01*
X0062923Y0119104D01*
X0063590Y0119444D01*
X0064194Y0119883D01*
X0064723Y0120412D01*
X0065163Y0121017D01*
X0065502Y0121683D01*
X0065540Y0121800D01*
X0065540Y0105213D01*
X0065502Y0105330D01*
X0065163Y0105996D01*
X0064723Y0106601D01*
X0064194Y0107129D01*
X0063590Y0107569D01*
X0062923Y0107908D01*
X0062212Y0108139D01*
X0061474Y0108256D01*
X0061289Y0108256D01*
X0061289Y0103695D01*
X0060911Y0103695D01*
X0060911Y0103317D01*
X0061289Y0103317D01*
X0061289Y0098756D01*
X0061474Y0098756D01*
X0062212Y0098873D01*
X0062923Y0099104D01*
X0063590Y0099444D01*
X0064194Y0099883D01*
X0064723Y0100412D01*
X0065163Y0101017D01*
X0065502Y0101683D01*
X0065540Y0101800D01*
X0065540Y0086658D01*
X0087130Y0065068D01*
X0088302Y0063896D01*
X0101388Y0063896D01*
X0109008Y0071516D01*
X0110180Y0072688D01*
X0110180Y0082942D01*
X0113416Y0086756D01*
X0123448Y0086756D01*
X0128198Y0091506D01*
X0128678Y0091506D01*
X0128307Y0090996D01*
X0127968Y0090330D01*
X0127737Y0089619D01*
X0127620Y0088880D01*
X0127620Y0088695D01*
X0132181Y0088695D01*
X0132181Y0088317D01*
X0132559Y0088317D01*
X0132559Y0083756D01*
X0132744Y0083756D01*
X0133482Y0083873D01*
X0134193Y0084104D01*
X0134860Y0084444D01*
X0135464Y0084883D01*
X0135993Y0085412D01*
X0136433Y0086017D01*
X0136772Y0086683D01*
X0137003Y0087394D01*
X0137120Y0088132D01*
X0137120Y0088317D01*
X0132559Y0088317D01*
X0132559Y0088695D01*
X0136853Y0088695D01*
X0137620Y0087928D01*
X0137620Y0087561D01*
X0138343Y0085816D01*
X0139679Y0084479D01*
X0141425Y0083756D01*
X0143315Y0083756D01*
X0143918Y0084006D01*
X0165698Y0084006D01*
X0190698Y0109006D01*
X0195698Y0109006D01*
X0196098Y0109406D01*
X0200786Y0109406D01*
X0202292Y0110030D01*
X0203446Y0111184D01*
X0204070Y0112691D01*
X0204070Y0114322D01*
X0203446Y0115829D01*
X0202292Y0116982D01*
X0200786Y0117606D01*
X0199370Y0117606D01*
X0199370Y0119406D01*
X0200786Y0119406D01*
X0202292Y0120030D01*
X0203446Y0121184D01*
X0204070Y0122691D01*
X0204070Y0124322D01*
X0203446Y0125829D01*
X0202292Y0126982D01*
X0200786Y0127606D01*
X0196098Y0127606D01*
X0195698Y0128006D01*
X0184042Y0128006D01*
X0169042Y0113006D01*
X0143918Y0113006D01*
X0143315Y0113256D01*
X0141425Y0113256D01*
X0139679Y0112533D01*
X0138343Y0111197D01*
X0137620Y0109451D01*
X0137620Y0109085D01*
X0136853Y0108317D01*
X0132559Y0108317D01*
X0132559Y0108695D01*
X0137120Y0108695D01*
X0137120Y0108880D01*
X0137003Y0109619D01*
X0136772Y0110330D01*
X0136433Y0110996D01*
X0135993Y0111601D01*
X0135464Y0112129D01*
X0134860Y0112569D01*
X0134193Y0112908D01*
X0133482Y0113139D01*
X0132744Y0113256D01*
X0132559Y0113256D01*
X0132559Y0108695D01*
X0132181Y0108695D01*
X0132181Y0108317D01*
X0127620Y0108317D01*
X0127620Y0108132D01*
X0127737Y0107394D01*
X0127968Y0106683D01*
X0128307Y0106017D01*
X0128678Y0105506D01*
X0128198Y0105506D01*
X0126870Y0106835D01*
X0125698Y0108006D01*
X0123198Y0108006D01*
X0121870Y0109335D01*
X0120698Y0110506D01*
X0114042Y0110506D01*
X0111542Y0108006D01*
X0110533Y0106997D01*
X0109616Y0107915D01*
X0107704Y0108706D01*
X0105636Y0108706D01*
X0103724Y0107915D01*
X0102262Y0106452D01*
X0101470Y0104541D01*
X0101470Y0102472D01*
X0102262Y0100561D01*
X0103724Y0099098D01*
X0105153Y0098506D01*
X0103724Y0097915D01*
X0102262Y0096452D01*
X0101470Y0094541D01*
X0101470Y0092472D01*
X0102262Y0090561D01*
X0102370Y0090452D01*
X0102370Y0075615D01*
X0098462Y0071706D01*
X0091228Y0071706D01*
X0073350Y0089585D01*
X0073350Y0129838D01*
X0074370Y0130858D01*
X0074370Y0133706D01*
X0075316Y0134098D01*
X0076778Y0135561D01*
X0077570Y0137472D01*
X0077570Y0139541D01*
X0076778Y0141452D01*
X0075316Y0142915D01*
X0073404Y0143706D01*
X0071336Y0143706D01*
X0069424Y0142915D01*
X0067962Y0141452D01*
X0067170Y0139541D01*
X0067170Y0137472D01*
X0067962Y0135561D01*
X0069424Y0134098D01*
X0070370Y0133706D01*
X0070370Y0132515D01*
X0069540Y0131685D01*
X0069540Y0132765D01*
X0068368Y0133936D01*
X0062433Y0139872D01*
X0061778Y0141452D01*
X0060316Y0142915D01*
X0058404Y0143706D01*
X0056336Y0143706D01*
X0054424Y0142915D01*
X0052962Y0141452D01*
X0052170Y0139541D01*
X0052170Y0137472D01*
X0052962Y0135561D01*
X0054424Y0134098D01*
X0056336Y0133306D01*
X0058404Y0133306D01*
X0060316Y0134098D01*
X0061433Y0135215D01*
X0065540Y0131108D01*
X0065540Y0125213D01*
X0065502Y0125330D01*
X0065163Y0125996D01*
X0064723Y0126601D01*
X0064194Y0127129D01*
X0064936Y0126308D02*
X0065540Y0126308D01*
X0065508Y0125310D02*
X0065540Y0125310D01*
X0065540Y0129304D02*
X0029531Y0129304D01*
X0030530Y0130302D02*
X0065540Y0130302D01*
X0065347Y0131301D02*
X0036713Y0131301D01*
X0037712Y0132299D02*
X0064348Y0132299D01*
X0063350Y0133298D02*
X0038710Y0133298D01*
X0039709Y0134296D02*
X0054226Y0134296D01*
X0053227Y0135295D02*
X0040707Y0135295D01*
X0041706Y0136293D02*
X0052658Y0136293D01*
X0052245Y0137292D02*
X0042704Y0137292D01*
X0043703Y0138290D02*
X0052170Y0138290D01*
X0052170Y0139289D02*
X0044701Y0139289D01*
X0045700Y0140287D02*
X0052479Y0140287D01*
X0052893Y0141286D02*
X0046698Y0141286D01*
X0047697Y0142284D02*
X0053794Y0142284D01*
X0055314Y0143283D02*
X0048695Y0143283D01*
X0046034Y0146279D02*
X0041531Y0146279D01*
X0042529Y0147277D02*
X0047032Y0147277D01*
X0045035Y0145280D02*
X0040532Y0145280D01*
X0039534Y0144282D02*
X0044037Y0144282D01*
X0043038Y0143283D02*
X0038535Y0143283D01*
X0037537Y0142284D02*
X0042040Y0142284D01*
X0041041Y0141286D02*
X0031514Y0141286D01*
X0030515Y0140287D02*
X0040043Y0140287D01*
X0039044Y0139289D02*
X0029517Y0139289D01*
X0029948Y0137292D02*
X0037047Y0137292D01*
X0036049Y0136293D02*
X0030947Y0136293D01*
X0031870Y0135295D02*
X0035050Y0135295D01*
X0038046Y0138290D02*
X0011820Y0138290D01*
X0011820Y0137292D02*
X0014792Y0137292D01*
X0013793Y0136293D02*
X0011820Y0136293D01*
X0011820Y0135295D02*
X0012870Y0135295D01*
X0012870Y0134296D02*
X0011820Y0134296D01*
X0011820Y0133298D02*
X0012870Y0133298D01*
X0012870Y0132299D02*
X0011820Y0132299D01*
X0011820Y0131301D02*
X0013211Y0131301D01*
X0014210Y0130302D02*
X0011820Y0130302D01*
X0011820Y0129304D02*
X0015209Y0129304D01*
X0021529Y0131301D02*
X0023211Y0131301D01*
X0022870Y0132299D02*
X0021870Y0132299D01*
X0021870Y0133298D02*
X0022870Y0133298D01*
X0022870Y0134296D02*
X0021870Y0134296D01*
X0021870Y0135295D02*
X0022870Y0135295D01*
X0023793Y0136293D02*
X0020947Y0136293D01*
X0019948Y0137292D02*
X0024792Y0137292D01*
X0025223Y0139289D02*
X0019517Y0139289D01*
X0019234Y0139006D02*
X0021870Y0141642D01*
X0021870Y0145370D01*
X0019234Y0148006D01*
X0015506Y0148006D01*
X0012870Y0145370D01*
X0012870Y0141642D01*
X0015506Y0139006D01*
X0019234Y0139006D01*
X0020515Y0140287D02*
X0024225Y0140287D01*
X0023226Y0141286D02*
X0021514Y0141286D01*
X0021870Y0142284D02*
X0022870Y0142284D01*
X0022870Y0143283D02*
X0021870Y0143283D01*
X0021870Y0144282D02*
X0022870Y0144282D01*
X0022870Y0145280D02*
X0021870Y0145280D01*
X0020962Y0146279D02*
X0023778Y0146279D01*
X0024777Y0147277D02*
X0019963Y0147277D01*
X0019234Y0149006D02*
X0015506Y0149006D01*
X0012870Y0151642D01*
X0012870Y0155370D01*
X0015506Y0158006D01*
X0019234Y0158006D01*
X0021870Y0155370D01*
X0021870Y0151642D01*
X0019234Y0149006D01*
X0019502Y0149274D02*
X0025238Y0149274D01*
X0024240Y0150273D02*
X0020500Y0150273D01*
X0021499Y0151271D02*
X0023241Y0151271D01*
X0022870Y0152270D02*
X0021870Y0152270D01*
X0021870Y0153268D02*
X0022870Y0153268D01*
X0022870Y0154267D02*
X0021870Y0154267D01*
X0021870Y0155265D02*
X0022783Y0155265D01*
X0021784Y0156264D02*
X0020977Y0156264D01*
X0020786Y0157262D02*
X0019978Y0157262D01*
X0020370Y0158261D02*
X0011820Y0158261D01*
X0011820Y0159259D02*
X0015253Y0159259D01*
X0014255Y0160258D02*
X0011820Y0160258D01*
X0011820Y0161256D02*
X0013256Y0161256D01*
X0012870Y0162255D02*
X0011820Y0162255D01*
X0011820Y0163253D02*
X0012870Y0163253D01*
X0012870Y0164252D02*
X0011820Y0164252D01*
X0011820Y0165250D02*
X0012870Y0165250D01*
X0013749Y0166249D02*
X0011820Y0166249D01*
X0011820Y0167247D02*
X0014747Y0167247D01*
X0015268Y0169244D02*
X0011820Y0169244D01*
X0011820Y0168246D02*
X0020370Y0168246D01*
X0020370Y0169244D02*
X0019472Y0169244D01*
X0019993Y0167247D02*
X0020370Y0167247D01*
X0024370Y0167247D02*
X0024747Y0167247D01*
X0024370Y0168246D02*
X0070541Y0168246D01*
X0071540Y0169244D02*
X0029472Y0169244D01*
X0030470Y0170243D02*
X0072538Y0170243D01*
X0073537Y0171241D02*
X0031469Y0171241D01*
X0031870Y0172240D02*
X0074535Y0172240D01*
X0075534Y0173238D02*
X0031870Y0173238D01*
X0031870Y0174237D02*
X0054286Y0174237D01*
X0053287Y0175235D02*
X0031870Y0175235D01*
X0031006Y0176234D02*
X0052683Y0176234D01*
X0052269Y0177232D02*
X0030008Y0177232D01*
X0029457Y0179229D02*
X0052170Y0179229D01*
X0052170Y0178231D02*
X0024370Y0178231D01*
X0024370Y0179229D02*
X0025283Y0179229D01*
X0024732Y0177232D02*
X0024370Y0177232D01*
X0020370Y0177232D02*
X0020008Y0177232D01*
X0020370Y0178231D02*
X0011820Y0178231D01*
X0011820Y0179229D02*
X0015283Y0179229D01*
X0014284Y0180228D02*
X0011820Y0180228D01*
X0011820Y0181226D02*
X0013286Y0181226D01*
X0012870Y0182225D02*
X0011820Y0182225D01*
X0011820Y0183223D02*
X0012870Y0183223D01*
X0012870Y0184222D02*
X0011820Y0184222D01*
X0011820Y0185220D02*
X0012870Y0185220D01*
X0013719Y0186219D02*
X0011820Y0186219D01*
X0011820Y0187217D02*
X0014717Y0187217D01*
X0015298Y0189215D02*
X0011820Y0189215D01*
X0011820Y0188216D02*
X0020370Y0188216D01*
X0020370Y0187217D02*
X0020023Y0187217D01*
X0020370Y0189215D02*
X0019442Y0189215D01*
X0024370Y0189215D02*
X0025298Y0189215D01*
X0024370Y0188216D02*
X0059832Y0188216D01*
X0060830Y0187217D02*
X0030023Y0187217D01*
X0031021Y0186219D02*
X0061829Y0186219D01*
X0062827Y0185220D02*
X0053484Y0185220D01*
X0054483Y0184222D02*
X0063826Y0184222D01*
X0064824Y0183223D02*
X0059570Y0183223D01*
X0061005Y0182225D02*
X0065823Y0182225D01*
X0066821Y0181226D02*
X0061872Y0181226D01*
X0062285Y0180228D02*
X0067455Y0180228D01*
X0067170Y0179229D02*
X0062570Y0179229D01*
X0062570Y0178231D02*
X0067170Y0178231D01*
X0067269Y0177232D02*
X0062471Y0177232D01*
X0062057Y0176234D02*
X0067683Y0176234D01*
X0068287Y0175235D02*
X0061453Y0175235D01*
X0060454Y0174237D02*
X0069286Y0174237D01*
X0072370Y0178506D02*
X0057370Y0193506D01*
X0027370Y0193506D01*
X0031036Y0196204D02*
X0079184Y0196204D01*
X0080182Y0195206D02*
X0058499Y0195206D01*
X0059498Y0194207D02*
X0081181Y0194207D01*
X0082179Y0193209D02*
X0060496Y0193209D01*
X0061495Y0192210D02*
X0083178Y0192210D01*
X0084176Y0191212D02*
X0062493Y0191212D01*
X0063492Y0190213D02*
X0085175Y0190213D01*
X0086173Y0189215D02*
X0064490Y0189215D01*
X0065489Y0188216D02*
X0090511Y0188216D01*
X0089513Y0187217D02*
X0066487Y0187217D01*
X0067486Y0186219D02*
X0088514Y0186219D01*
X0087516Y0185220D02*
X0068484Y0185220D01*
X0069483Y0184222D02*
X0086517Y0184222D01*
X0085519Y0183223D02*
X0074570Y0183223D01*
X0076005Y0182225D02*
X0084520Y0182225D01*
X0083522Y0181226D02*
X0076872Y0181226D01*
X0077285Y0180228D02*
X0082523Y0180228D01*
X0081525Y0179229D02*
X0077570Y0179229D01*
X0077570Y0178231D02*
X0080526Y0178231D01*
X0079528Y0177232D02*
X0077471Y0177232D01*
X0077057Y0176234D02*
X0078529Y0176234D01*
X0077531Y0175235D02*
X0076453Y0175235D01*
X0076532Y0174237D02*
X0075454Y0174237D01*
X0069543Y0167247D02*
X0029993Y0167247D01*
X0030991Y0166249D02*
X0068544Y0166249D01*
X0068630Y0163506D02*
X0096115Y0190991D01*
X0087225Y0190991D01*
X0067460Y0210756D01*
X0067460Y0237916D01*
X0067370Y0243006D01*
X0072224Y0241137D02*
X0072930Y0241137D01*
X0073884Y0240139D02*
X0071811Y0240139D01*
X0070858Y0239140D02*
X0075295Y0239140D01*
X0075279Y0238142D02*
X0069460Y0238142D01*
X0069474Y0237143D02*
X0075264Y0237143D01*
X0075249Y0236145D02*
X0069460Y0236145D01*
X0069460Y0235146D02*
X0075233Y0235146D01*
X0075218Y0234148D02*
X0069460Y0234148D01*
X0069460Y0233149D02*
X0075203Y0233149D01*
X0075187Y0232151D02*
X0069460Y0232151D01*
X0069460Y0231152D02*
X0075172Y0231152D01*
X0075150Y0230153D02*
X0069460Y0230153D01*
X0069460Y0229155D02*
X0075141Y0229155D01*
X0075886Y0228156D02*
X0069460Y0228156D01*
X0069460Y0227158D02*
X0130780Y0227158D01*
X0131778Y0226159D02*
X0069460Y0226159D01*
X0069460Y0225161D02*
X0132777Y0225161D01*
X0133775Y0224162D02*
X0069460Y0224162D01*
X0069460Y0223164D02*
X0134774Y0223164D01*
X0135772Y0222165D02*
X0069460Y0222165D01*
X0069460Y0221167D02*
X0136771Y0221167D01*
X0137770Y0220168D02*
X0069460Y0220168D01*
X0069460Y0219170D02*
X0201470Y0219170D01*
X0201470Y0220168D02*
X0168760Y0220168D01*
X0169759Y0221167D02*
X0200841Y0221167D01*
X0199657Y0222165D02*
X0170758Y0222165D01*
X0171756Y0223164D02*
X0198895Y0223164D01*
X0203470Y0225706D02*
X0203470Y0209606D01*
X0197370Y0203506D01*
X0199222Y0208186D02*
X0072858Y0208186D01*
X0071860Y0209185D02*
X0129338Y0209185D01*
X0129424Y0209098D02*
X0131336Y0208306D01*
X0133404Y0208306D01*
X0135316Y0209098D01*
X0136778Y0210561D01*
X0137570Y0212472D01*
X0137570Y0214541D01*
X0136778Y0216452D01*
X0135316Y0217915D01*
X0133404Y0218706D01*
X0131336Y0218706D01*
X0129424Y0217915D01*
X0127962Y0216452D01*
X0127570Y0215506D01*
X0116168Y0215506D01*
X0114068Y0217606D01*
X0110672Y0217606D01*
X0108270Y0215205D01*
X0108270Y0211808D01*
X0110672Y0209406D01*
X0114068Y0209406D01*
X0116168Y0211506D01*
X0127570Y0211506D01*
X0127962Y0210561D01*
X0129424Y0209098D01*
X0128339Y0210183D02*
X0114845Y0210183D01*
X0115844Y0211182D02*
X0127704Y0211182D01*
X0132370Y0213506D02*
X0112370Y0213506D01*
X0115500Y0216174D02*
X0127847Y0216174D01*
X0128683Y0217173D02*
X0114502Y0217173D01*
X0110238Y0217173D02*
X0104502Y0217173D01*
X0104068Y0217606D02*
X0102670Y0217606D01*
X0102670Y0213806D01*
X0106470Y0213806D01*
X0106470Y0215205D01*
X0104068Y0217606D01*
X0102670Y0217173D02*
X0102070Y0217173D01*
X0102070Y0217606D02*
X0100672Y0217606D01*
X0098270Y0215205D01*
X0098270Y0213806D01*
X0102070Y0213806D01*
X0102070Y0213206D01*
X0102670Y0213206D01*
X0102670Y0209406D01*
X0104068Y0209406D01*
X0106470Y0211808D01*
X0106470Y0213206D01*
X0102670Y0213206D01*
X0102670Y0213806D01*
X0102070Y0213806D01*
X0102070Y0217606D01*
X0102070Y0216174D02*
X0102670Y0216174D01*
X0102670Y0215176D02*
X0102070Y0215176D01*
X0102070Y0214177D02*
X0102670Y0214177D01*
X0102670Y0213179D02*
X0102070Y0213179D01*
X0102070Y0213206D02*
X0102070Y0209406D01*
X0100672Y0209406D01*
X0098270Y0211808D01*
X0098270Y0213206D01*
X0102070Y0213206D01*
X0102070Y0212180D02*
X0102670Y0212180D01*
X0102670Y0211182D02*
X0102070Y0211182D01*
X0102070Y0210183D02*
X0102670Y0210183D01*
X0104845Y0210183D02*
X0109895Y0210183D01*
X0108896Y0211182D02*
X0105844Y0211182D01*
X0106470Y0212180D02*
X0108270Y0212180D01*
X0108270Y0213179D02*
X0106470Y0213179D01*
X0106470Y0214177D02*
X0108270Y0214177D01*
X0108270Y0215176D02*
X0106470Y0215176D01*
X0105500Y0216174D02*
X0109240Y0216174D01*
X0100238Y0217173D02*
X0069460Y0217173D01*
X0069460Y0218171D02*
X0130044Y0218171D01*
X0134696Y0218171D02*
X0170044Y0218171D01*
X0169424Y0217915D02*
X0167962Y0216452D01*
X0167170Y0214541D01*
X0167170Y0212472D01*
X0167962Y0210561D01*
X0169424Y0209098D01*
X0171336Y0208306D01*
X0173404Y0208306D01*
X0175316Y0209098D01*
X0176778Y0210561D01*
X0177570Y0212472D01*
X0177570Y0214541D01*
X0176778Y0216452D01*
X0175316Y0217915D01*
X0173404Y0218706D01*
X0171336Y0218706D01*
X0169424Y0217915D01*
X0168683Y0217173D02*
X0136057Y0217173D01*
X0136893Y0216174D02*
X0167847Y0216174D01*
X0167433Y0215176D02*
X0137307Y0215176D01*
X0137570Y0214177D02*
X0167170Y0214177D01*
X0167170Y0213179D02*
X0137570Y0213179D01*
X0137449Y0212180D02*
X0167291Y0212180D01*
X0167704Y0211182D02*
X0137036Y0211182D01*
X0136401Y0210183D02*
X0168339Y0210183D01*
X0169338Y0209185D02*
X0135402Y0209185D01*
X0138660Y0222106D02*
X0167870Y0222106D01*
X0174270Y0228506D01*
X0173089Y0230153D02*
X0166876Y0230153D01*
X0165877Y0229155D02*
X0172090Y0229155D01*
X0171092Y0228156D02*
X0164879Y0228156D01*
X0163880Y0227158D02*
X0170093Y0227158D01*
X0169095Y0226159D02*
X0162870Y0226159D01*
X0167098Y0224162D02*
X0145380Y0224162D01*
X0146379Y0225161D02*
X0168096Y0225161D01*
X0172755Y0224162D02*
X0179360Y0224162D01*
X0178361Y0225161D02*
X0173753Y0225161D01*
X0174752Y0226159D02*
X0177714Y0226159D01*
X0186080Y0232151D02*
X0201470Y0232151D01*
X0201470Y0233149D02*
X0184750Y0233149D01*
X0186903Y0231152D02*
X0201470Y0231152D01*
X0200618Y0230153D02*
X0187316Y0230153D01*
X0187570Y0229155D02*
X0199565Y0229155D01*
X0198856Y0228156D02*
X0187570Y0228156D01*
X0176057Y0217173D02*
X0201470Y0217173D01*
X0201470Y0218171D02*
X0174696Y0218171D01*
X0176893Y0216174D02*
X0201470Y0216174D01*
X0201470Y0215176D02*
X0177307Y0215176D01*
X0177570Y0214177D02*
X0201470Y0214177D01*
X0201470Y0213179D02*
X0177570Y0213179D01*
X0177449Y0212180D02*
X0201470Y0212180D01*
X0201470Y0211182D02*
X0177036Y0211182D01*
X0176401Y0210183D02*
X0201219Y0210183D01*
X0200220Y0209185D02*
X0175402Y0209185D01*
X0172742Y0197203D02*
X0192980Y0197203D01*
X0191670Y0196204D02*
X0173741Y0196204D01*
X0171680Y0195436D02*
X0149300Y0195436D01*
X0142370Y0188506D01*
X0139250Y0191626D01*
X0096750Y0191626D01*
X0096115Y0190991D01*
X0095504Y0193209D02*
X0087836Y0193209D01*
X0086838Y0194207D02*
X0139939Y0194207D01*
X0144801Y0194207D02*
X0145242Y0194207D01*
X0146241Y0195206D02*
X0085839Y0195206D01*
X0084841Y0196204D02*
X0147239Y0196204D01*
X0148238Y0197203D02*
X0083842Y0197203D01*
X0082844Y0198201D02*
X0269616Y0198201D01*
X0269823Y0199200D02*
X0081845Y0199200D01*
X0080847Y0200198D02*
X0192280Y0200198D01*
X0191289Y0201197D02*
X0079848Y0201197D01*
X0078850Y0202195D02*
X0190875Y0202195D01*
X0190670Y0203194D02*
X0077851Y0203194D01*
X0076853Y0204192D02*
X0190670Y0204192D01*
X0191030Y0205191D02*
X0075854Y0205191D01*
X0074855Y0206189D02*
X0191655Y0206189D01*
X0192944Y0207188D02*
X0073857Y0207188D01*
X0071196Y0204192D02*
X0031870Y0204192D01*
X0031870Y0205191D02*
X0070197Y0205191D01*
X0069199Y0206189D02*
X0031051Y0206189D01*
X0030053Y0207188D02*
X0068200Y0207188D01*
X0067202Y0208186D02*
X0024370Y0208186D01*
X0024370Y0207188D02*
X0024687Y0207188D01*
X0024370Y0209185D02*
X0066203Y0209185D01*
X0065460Y0210183D02*
X0024370Y0210183D01*
X0024370Y0211182D02*
X0065460Y0211182D01*
X0065460Y0212180D02*
X0041392Y0212180D01*
X0042391Y0213179D02*
X0065460Y0213179D01*
X0065460Y0214177D02*
X0043389Y0214177D01*
X0044388Y0215176D02*
X0065460Y0215176D01*
X0065460Y0216174D02*
X0045386Y0216174D01*
X0031870Y0202195D02*
X0073193Y0202195D01*
X0074191Y0201197D02*
X0031424Y0201197D01*
X0030426Y0200198D02*
X0075190Y0200198D01*
X0076188Y0199200D02*
X0029427Y0199200D01*
X0027870Y0199200D02*
X0026870Y0199200D01*
X0026870Y0200198D02*
X0027870Y0200198D01*
X0027870Y0201197D02*
X0026870Y0201197D01*
X0026870Y0202195D02*
X0027870Y0202195D01*
X0027870Y0203194D02*
X0072194Y0203194D01*
X0077187Y0198201D02*
X0024370Y0198201D01*
X0024370Y0197203D02*
X0024702Y0197203D01*
X0024370Y0199200D02*
X0025313Y0199200D01*
X0030038Y0197203D02*
X0078185Y0197203D01*
X0070861Y0210183D02*
X0099895Y0210183D01*
X0098896Y0211182D02*
X0069863Y0211182D01*
X0069460Y0212180D02*
X0098270Y0212180D01*
X0098270Y0213179D02*
X0069460Y0213179D01*
X0069460Y0214177D02*
X0098270Y0214177D01*
X0098270Y0215176D02*
X0069460Y0215176D01*
X0069460Y0216174D02*
X0099240Y0216174D01*
X0079181Y0231726D02*
X0079296Y0239176D01*
X0080316Y0239598D01*
X0081778Y0241061D01*
X0082570Y0242972D01*
X0082570Y0245041D01*
X0081778Y0246952D01*
X0081384Y0247346D01*
X0100412Y0247346D01*
X0098270Y0245205D01*
X0098270Y0243806D01*
X0102070Y0243806D01*
X0102070Y0243206D01*
X0102670Y0243206D01*
X0102670Y0239406D01*
X0104068Y0239406D01*
X0106470Y0241808D01*
X0106470Y0243206D01*
X0102670Y0243206D01*
X0102670Y0243806D01*
X0106470Y0243806D01*
X0106470Y0245205D01*
X0104328Y0247346D01*
X0110412Y0247346D01*
X0108270Y0245205D01*
X0108270Y0241808D01*
X0110672Y0239406D01*
X0114068Y0239406D01*
X0116168Y0241506D01*
X0127570Y0241506D01*
X0127962Y0240561D01*
X0129424Y0239098D01*
X0131336Y0238306D01*
X0133404Y0238306D01*
X0135316Y0239098D01*
X0136778Y0240561D01*
X0137570Y0242472D01*
X0137570Y0244541D01*
X0136778Y0246452D01*
X0135884Y0247346D01*
X0168856Y0247346D01*
X0167962Y0246452D01*
X0167170Y0244541D01*
X0167170Y0242472D01*
X0167962Y0240561D01*
X0168804Y0239719D01*
X0160242Y0231156D01*
X0146901Y0231156D01*
X0146778Y0231452D01*
X0145316Y0232915D01*
X0143404Y0233706D01*
X0141336Y0233706D01*
X0139424Y0232915D01*
X0137962Y0231452D01*
X0137170Y0229541D01*
X0137170Y0227472D01*
X0137911Y0225684D01*
X0131868Y0231726D01*
X0079181Y0231726D01*
X0079188Y0232151D02*
X0138660Y0232151D01*
X0137837Y0231152D02*
X0132443Y0231152D01*
X0133441Y0230153D02*
X0137424Y0230153D01*
X0137170Y0229155D02*
X0134440Y0229155D01*
X0135438Y0228156D02*
X0137170Y0228156D01*
X0137300Y0227158D02*
X0136437Y0227158D01*
X0137435Y0226159D02*
X0137714Y0226159D01*
X0138660Y0222106D02*
X0131040Y0229726D01*
X0077150Y0229726D01*
X0077370Y0244006D01*
X0082224Y0242136D02*
X0098270Y0242136D01*
X0098270Y0241808D02*
X0100672Y0239406D01*
X0102070Y0239406D01*
X0102070Y0243206D01*
X0098270Y0243206D01*
X0098270Y0241808D01*
X0098941Y0241137D02*
X0081810Y0241137D01*
X0080856Y0240139D02*
X0099939Y0240139D01*
X0102070Y0240139D02*
X0102670Y0240139D01*
X0102670Y0241137D02*
X0102070Y0241137D01*
X0102070Y0242136D02*
X0102670Y0242136D01*
X0102670Y0243134D02*
X0102070Y0243134D01*
X0098270Y0243134D02*
X0082570Y0243134D01*
X0082570Y0244133D02*
X0098270Y0244133D01*
X0098270Y0245131D02*
X0082533Y0245131D01*
X0082119Y0246130D02*
X0099195Y0246130D01*
X0100194Y0247128D02*
X0081602Y0247128D01*
X0079295Y0239140D02*
X0129382Y0239140D01*
X0128384Y0240139D02*
X0114801Y0240139D01*
X0115799Y0241137D02*
X0127723Y0241137D01*
X0132370Y0243506D02*
X0112370Y0243506D01*
X0109195Y0246130D02*
X0105545Y0246130D01*
X0106470Y0245131D02*
X0108270Y0245131D01*
X0108270Y0244133D02*
X0106470Y0244133D01*
X0106470Y0243134D02*
X0108270Y0243134D01*
X0108270Y0242136D02*
X0106470Y0242136D01*
X0105799Y0241137D02*
X0108941Y0241137D01*
X0109939Y0240139D02*
X0104801Y0240139D01*
X0104546Y0247128D02*
X0110194Y0247128D01*
X0135358Y0239140D02*
X0168225Y0239140D01*
X0168384Y0240139D02*
X0136356Y0240139D01*
X0137017Y0241137D02*
X0167723Y0241137D01*
X0167309Y0242136D02*
X0137431Y0242136D01*
X0137570Y0243134D02*
X0167170Y0243134D01*
X0167170Y0244133D02*
X0137570Y0244133D01*
X0137325Y0245131D02*
X0167415Y0245131D01*
X0167828Y0246130D02*
X0136912Y0246130D01*
X0136102Y0247128D02*
X0168638Y0247128D01*
X0167227Y0238142D02*
X0079280Y0238142D01*
X0079264Y0237143D02*
X0166228Y0237143D01*
X0165230Y0236145D02*
X0079249Y0236145D01*
X0079234Y0235146D02*
X0164231Y0235146D01*
X0163233Y0234148D02*
X0079218Y0234148D01*
X0079203Y0233149D02*
X0139990Y0233149D01*
X0144750Y0233149D02*
X0162234Y0233149D01*
X0161236Y0232151D02*
X0146080Y0232151D01*
X0171680Y0195436D02*
X0173610Y0193506D01*
X0197370Y0193506D01*
X0201760Y0197203D02*
X0222980Y0197203D01*
X0221670Y0196204D02*
X0203070Y0196204D01*
X0203704Y0195206D02*
X0221036Y0195206D01*
X0220670Y0194207D02*
X0204070Y0194207D01*
X0204070Y0193209D02*
X0220670Y0193209D01*
X0220869Y0192210D02*
X0203871Y0192210D01*
X0203457Y0191212D02*
X0221283Y0191212D01*
X0222265Y0190213D02*
X0202475Y0190213D01*
X0201724Y0187217D02*
X0223016Y0187217D01*
X0221684Y0186219D02*
X0203056Y0186219D01*
X0203698Y0185220D02*
X0221042Y0185220D01*
X0220670Y0184222D02*
X0204070Y0184222D01*
X0204070Y0183223D02*
X0220670Y0183223D01*
X0220863Y0182225D02*
X0203877Y0182225D01*
X0203463Y0181226D02*
X0221277Y0181226D01*
X0222250Y0180228D02*
X0219751Y0180228D01*
X0220881Y0177232D02*
X0223052Y0177232D01*
X0221699Y0176234D02*
X0220579Y0176234D01*
X0221048Y0175235D02*
X0219902Y0175235D01*
X0220670Y0174237D02*
X0218241Y0174237D01*
X0216559Y0174237D02*
X0204070Y0174237D01*
X0204070Y0173238D02*
X0220670Y0173238D01*
X0220857Y0172240D02*
X0203883Y0172240D01*
X0203470Y0171241D02*
X0221270Y0171241D01*
X0222235Y0170243D02*
X0202505Y0170243D01*
X0203692Y0175235D02*
X0214898Y0175235D01*
X0214221Y0176234D02*
X0203041Y0176234D01*
X0193088Y0167247D02*
X0183957Y0167247D01*
X0182959Y0168246D02*
X0270724Y0168246D01*
X0268778Y0169244D02*
X0184162Y0169244D01*
X0185700Y0170243D02*
X0192235Y0170243D01*
X0191270Y0171241D02*
X0186325Y0171241D01*
X0186591Y0172240D02*
X0190857Y0172240D01*
X0190670Y0173238D02*
X0186591Y0173238D01*
X0186190Y0174237D02*
X0190670Y0174237D01*
X0191048Y0175235D02*
X0185374Y0175235D01*
X0185959Y0176234D02*
X0182281Y0176234D01*
X0181282Y0177232D02*
X0185124Y0177232D01*
X0184710Y0178231D02*
X0180284Y0178231D01*
X0179285Y0179229D02*
X0184709Y0179229D01*
X0184961Y0180228D02*
X0178287Y0180228D01*
X0177490Y0181025D02*
X0177490Y0181025D01*
X0177288Y0181226D02*
X0185567Y0181226D01*
X0188190Y0178926D02*
X0188610Y0178506D01*
X0214870Y0178506D01*
X0215720Y0177656D01*
X0217400Y0177656D01*
X0231760Y0197203D02*
X0268212Y0197203D01*
X0267359Y0196204D02*
X0233070Y0196204D01*
X0232460Y0200198D02*
X0268824Y0200198D01*
X0268198Y0201197D02*
X0233451Y0201197D01*
X0233085Y0206189D02*
X0268353Y0206189D01*
X0269198Y0207188D02*
X0231796Y0207188D01*
X0222944Y0207188D02*
X0203880Y0207188D01*
X0203085Y0206189D02*
X0221655Y0206189D01*
X0221030Y0205191D02*
X0203710Y0205191D01*
X0204070Y0204192D02*
X0220670Y0204192D01*
X0220670Y0203194D02*
X0204070Y0203194D01*
X0203865Y0202195D02*
X0220875Y0202195D01*
X0221289Y0201197D02*
X0203451Y0201197D01*
X0202460Y0200198D02*
X0222280Y0200198D01*
X0205470Y0209185D02*
X0268971Y0209185D01*
X0267857Y0210183D02*
X0205470Y0210183D01*
X0205470Y0211182D02*
X0267218Y0211182D01*
X0266833Y0212180D02*
X0205470Y0212180D01*
X0205470Y0213179D02*
X0271370Y0213179D01*
X0271370Y0214006D02*
X0266684Y0214006D01*
X0266798Y0214724D01*
X0267051Y0215502D01*
X0267423Y0216232D01*
X0267904Y0216894D01*
X0268482Y0217473D01*
X0269145Y0217954D01*
X0269874Y0218325D01*
X0270652Y0218578D01*
X0271370Y0218692D01*
X0271370Y0214006D01*
X0271370Y0214177D02*
X0272370Y0214177D01*
X0272370Y0213179D02*
X0282791Y0213179D01*
X0282791Y0214177D02*
X0277029Y0214177D01*
X0276795Y0215176D02*
X0282791Y0215176D01*
X0282791Y0216174D02*
X0276347Y0216174D01*
X0275557Y0217173D02*
X0282791Y0217173D01*
X0282791Y0218171D02*
X0274168Y0218171D01*
X0272370Y0218171D02*
X0271370Y0218171D01*
X0271370Y0217173D02*
X0272370Y0217173D01*
X0272370Y0216174D02*
X0271370Y0216174D01*
X0271370Y0215176D02*
X0272370Y0215176D01*
X0269572Y0218171D02*
X0205470Y0218171D01*
X0205470Y0217173D02*
X0268183Y0217173D01*
X0267393Y0216174D02*
X0205470Y0216174D01*
X0205470Y0215176D02*
X0266945Y0215176D01*
X0266711Y0214177D02*
X0205470Y0214177D01*
X0205470Y0219170D02*
X0282791Y0219170D01*
X0282791Y0220168D02*
X0205470Y0220168D01*
X0206099Y0221167D02*
X0218725Y0221167D01*
X0217457Y0222165D02*
X0207283Y0222165D01*
X0208045Y0223164D02*
X0216729Y0223164D01*
X0216304Y0224162D02*
X0208459Y0224162D01*
X0208670Y0225161D02*
X0216092Y0225161D01*
X0216274Y0227158D02*
X0208497Y0227158D01*
X0208670Y0226159D02*
X0220770Y0226159D01*
X0220770Y0225161D02*
X0221770Y0225161D01*
X0221770Y0224162D02*
X0220770Y0224162D01*
X0220770Y0223164D02*
X0221770Y0223164D01*
X0221770Y0222165D02*
X0220770Y0222165D01*
X0220770Y0221167D02*
X0221770Y0221167D01*
X0216682Y0228156D02*
X0208084Y0228156D01*
X0207375Y0229155D02*
X0217365Y0229155D01*
X0218544Y0230153D02*
X0206322Y0230153D01*
X0205470Y0231152D02*
X0238345Y0231152D01*
X0239286Y0232151D02*
X0205470Y0232151D01*
X0205470Y0233149D02*
X0240285Y0233149D01*
X0248456Y0234148D02*
X0259859Y0234148D01*
X0261298Y0233149D02*
X0249455Y0233149D01*
X0250454Y0232151D02*
X0263490Y0232151D01*
X0276907Y0212180D02*
X0282791Y0212180D01*
X0282791Y0211182D02*
X0276522Y0211182D01*
X0275883Y0210183D02*
X0282791Y0210183D01*
X0282791Y0209185D02*
X0274769Y0209185D01*
X0275160Y0208186D02*
X0282791Y0208186D01*
X0282791Y0207188D02*
X0276542Y0207188D01*
X0277387Y0206189D02*
X0282791Y0206189D01*
X0282791Y0205191D02*
X0277801Y0205191D01*
X0278070Y0204192D02*
X0282791Y0204192D01*
X0282791Y0203194D02*
X0278070Y0203194D01*
X0277955Y0202195D02*
X0282791Y0202195D01*
X0282791Y0201197D02*
X0277542Y0201197D01*
X0276916Y0200198D02*
X0282791Y0200198D01*
X0282791Y0199200D02*
X0275917Y0199200D01*
X0275528Y0197203D02*
X0282791Y0197203D01*
X0282791Y0198201D02*
X0274124Y0198201D01*
X0276381Y0196204D02*
X0282791Y0196204D01*
X0282791Y0195206D02*
X0276795Y0195206D01*
X0277070Y0194207D02*
X0282791Y0194207D01*
X0282791Y0193209D02*
X0277070Y0193209D01*
X0276962Y0192210D02*
X0282791Y0192210D01*
X0282791Y0191212D02*
X0276548Y0191212D01*
X0275931Y0190213D02*
X0282791Y0190213D01*
X0282791Y0189215D02*
X0274932Y0189215D01*
X0275088Y0188216D02*
X0282791Y0188216D01*
X0282791Y0187217D02*
X0276513Y0187217D01*
X0277375Y0186219D02*
X0282791Y0186219D01*
X0282791Y0185220D02*
X0277788Y0185220D01*
X0278070Y0184222D02*
X0282791Y0184222D01*
X0282791Y0183223D02*
X0278070Y0183223D01*
X0277968Y0182225D02*
X0282791Y0182225D01*
X0282791Y0181226D02*
X0277554Y0181226D01*
X0276946Y0180228D02*
X0282791Y0180228D01*
X0282791Y0179229D02*
X0275947Y0179229D01*
X0275498Y0177232D02*
X0282791Y0177232D01*
X0282791Y0176234D02*
X0276369Y0176234D01*
X0276782Y0175235D02*
X0282791Y0175235D01*
X0282791Y0174237D02*
X0277070Y0174237D01*
X0277070Y0173238D02*
X0282791Y0173238D01*
X0282791Y0172240D02*
X0276974Y0172240D01*
X0276560Y0171241D02*
X0282791Y0171241D01*
X0282791Y0170243D02*
X0275960Y0170243D01*
X0274962Y0169244D02*
X0282791Y0169244D01*
X0282791Y0168246D02*
X0275016Y0168246D01*
X0276483Y0167247D02*
X0282791Y0167247D01*
X0282791Y0166249D02*
X0277362Y0166249D01*
X0277776Y0165250D02*
X0282791Y0165250D01*
X0282791Y0164252D02*
X0278070Y0164252D01*
X0278070Y0163253D02*
X0282791Y0163253D01*
X0282791Y0162255D02*
X0277980Y0162255D01*
X0277566Y0161256D02*
X0282791Y0161256D01*
X0282791Y0160258D02*
X0276975Y0160258D01*
X0275977Y0159259D02*
X0282791Y0159259D01*
X0282791Y0158261D02*
X0273980Y0158261D01*
X0275468Y0157262D02*
X0282791Y0157262D01*
X0282791Y0156264D02*
X0276356Y0156264D01*
X0276770Y0155265D02*
X0282791Y0155265D01*
X0282791Y0154267D02*
X0277070Y0154267D01*
X0277070Y0153268D02*
X0282791Y0153268D01*
X0282791Y0152270D02*
X0276986Y0152270D01*
X0276573Y0151271D02*
X0282791Y0151271D01*
X0282791Y0150273D02*
X0275990Y0150273D01*
X0274992Y0149274D02*
X0282791Y0149274D01*
X0282791Y0140287D02*
X0276867Y0140287D01*
X0276775Y0140354D02*
X0276046Y0140725D01*
X0275268Y0140978D01*
X0274550Y0141092D01*
X0274550Y0136406D01*
X0279236Y0136406D01*
X0279122Y0137124D01*
X0278869Y0137902D01*
X0278497Y0138632D01*
X0278016Y0139294D01*
X0277438Y0139873D01*
X0276775Y0140354D01*
X0278020Y0139289D02*
X0282791Y0139289D01*
X0282791Y0138290D02*
X0278671Y0138290D01*
X0279067Y0137292D02*
X0282791Y0137292D01*
X0282791Y0136293D02*
X0274550Y0136293D01*
X0274550Y0136406D02*
X0274550Y0135406D01*
X0274550Y0130721D01*
X0275268Y0130834D01*
X0276046Y0131087D01*
X0276775Y0131459D01*
X0277438Y0131940D01*
X0278016Y0132519D01*
X0278497Y0133181D01*
X0278869Y0133910D01*
X0279122Y0134689D01*
X0279236Y0135406D01*
X0274550Y0135406D01*
X0273550Y0135406D01*
X0273550Y0130721D01*
X0272832Y0130834D01*
X0272054Y0131087D01*
X0271325Y0131459D01*
X0270662Y0131940D01*
X0270084Y0132519D01*
X0269603Y0133181D01*
X0269231Y0133910D01*
X0268978Y0134689D01*
X0268864Y0135406D01*
X0273550Y0135406D01*
X0273550Y0136406D01*
X0268864Y0136406D01*
X0268978Y0137124D01*
X0269231Y0137902D01*
X0269603Y0138632D01*
X0270084Y0139294D01*
X0270662Y0139873D01*
X0271325Y0140354D01*
X0272054Y0140725D01*
X0272832Y0140978D01*
X0273550Y0141092D01*
X0273550Y0136406D01*
X0274550Y0136406D01*
X0274550Y0137292D02*
X0273550Y0137292D01*
X0273550Y0138290D02*
X0274550Y0138290D01*
X0274550Y0139289D02*
X0273550Y0139289D01*
X0273550Y0140287D02*
X0274550Y0140287D01*
X0271233Y0140287D02*
X0259223Y0140287D01*
X0260221Y0139289D02*
X0270080Y0139289D01*
X0269429Y0138290D02*
X0260891Y0138290D01*
X0261304Y0137292D02*
X0269033Y0137292D01*
X0268882Y0135295D02*
X0261450Y0135295D01*
X0261450Y0136293D02*
X0273550Y0136293D01*
X0273550Y0135295D02*
X0274550Y0135295D01*
X0274550Y0134296D02*
X0273550Y0134296D01*
X0273550Y0133298D02*
X0274550Y0133298D01*
X0274550Y0132299D02*
X0273550Y0132299D01*
X0273550Y0131301D02*
X0274550Y0131301D01*
X0276465Y0131301D02*
X0282791Y0131301D01*
X0282791Y0132299D02*
X0277797Y0132299D01*
X0278557Y0133298D02*
X0282791Y0133298D01*
X0282791Y0134296D02*
X0278995Y0134296D01*
X0279218Y0135295D02*
X0282791Y0135295D01*
X0271635Y0131301D02*
X0258720Y0131301D01*
X0259997Y0132299D02*
X0270303Y0132299D01*
X0269543Y0133298D02*
X0260798Y0133298D01*
X0261212Y0134296D02*
X0269105Y0134296D01*
X0277364Y0114326D02*
X0282791Y0114326D01*
X0282791Y0113328D02*
X0278282Y0113328D01*
X0278855Y0112329D02*
X0282791Y0112329D01*
X0282791Y0111331D02*
X0279153Y0111331D01*
X0282791Y0104341D02*
X0239364Y0104341D01*
X0240362Y0103343D02*
X0282791Y0103343D01*
X0282791Y0102344D02*
X0241361Y0102344D01*
X0242359Y0101346D02*
X0282791Y0101346D01*
X0271109Y0087366D02*
X0266794Y0087366D01*
X0267591Y0085369D02*
X0272069Y0085369D01*
X0271071Y0084371D02*
X0268589Y0084371D01*
X0269330Y0083372D02*
X0270330Y0083372D01*
X0270330Y0082374D02*
X0269330Y0082374D01*
X0269330Y0081375D02*
X0270330Y0081375D01*
X0269622Y0080377D02*
X0269330Y0080377D01*
X0265628Y0076383D02*
X0232892Y0076383D01*
X0233446Y0075829D02*
X0232292Y0076982D01*
X0230786Y0077606D01*
X0223954Y0077606D01*
X0222448Y0076982D01*
X0221294Y0075829D01*
X0220670Y0074322D01*
X0220670Y0072691D01*
X0221294Y0071184D01*
X0222448Y0070030D01*
X0223954Y0069406D01*
X0230786Y0069406D01*
X0232292Y0070030D01*
X0233446Y0071184D01*
X0234070Y0072691D01*
X0234070Y0074322D01*
X0233446Y0075829D01*
X0233630Y0075384D02*
X0264630Y0075384D01*
X0262851Y0077381D02*
X0256809Y0077381D01*
X0257807Y0078380D02*
X0261853Y0078380D01*
X0260854Y0079378D02*
X0258806Y0079378D01*
X0259330Y0080377D02*
X0260330Y0080377D01*
X0260330Y0081375D02*
X0255330Y0081375D01*
X0255330Y0080377D02*
X0254330Y0080377D01*
X0254330Y0081266D02*
X0254330Y0077266D01*
X0252966Y0077266D01*
X0250330Y0079902D01*
X0250330Y0081266D01*
X0254330Y0081266D01*
X0254330Y0081375D02*
X0233525Y0081375D01*
X0233939Y0082374D02*
X0250330Y0082374D01*
X0250330Y0083372D02*
X0234070Y0083372D01*
X0234050Y0084371D02*
X0251071Y0084371D01*
X0252069Y0085369D02*
X0233636Y0085369D01*
X0232639Y0080377D02*
X0250330Y0080377D01*
X0250854Y0079378D02*
X0216690Y0079378D01*
X0216690Y0078380D02*
X0251853Y0078380D01*
X0252851Y0077381D02*
X0231329Y0077381D01*
X0234044Y0074386D02*
X0241121Y0074386D01*
X0240123Y0073387D02*
X0234070Y0073387D01*
X0233945Y0072389D02*
X0239193Y0072389D01*
X0238830Y0071390D02*
X0233531Y0071390D01*
X0232654Y0070392D02*
X0238830Y0070392D01*
X0238830Y0069393D02*
X0216690Y0069393D01*
X0216690Y0068395D02*
X0238830Y0068395D01*
X0238830Y0067396D02*
X0216515Y0067396D01*
X0215935Y0066398D02*
X0238830Y0066398D01*
X0238650Y0065399D02*
X0214937Y0065399D01*
X0215346Y0065808D02*
X0215346Y0065808D01*
X0213938Y0064401D02*
X0238195Y0064401D01*
X0238049Y0063402D02*
X0212940Y0063402D01*
X0211941Y0062404D02*
X0238157Y0062404D01*
X0238570Y0061405D02*
X0210943Y0061405D01*
X0209944Y0060407D02*
X0239557Y0060407D01*
X0243503Y0060407D02*
X0257533Y0060407D01*
X0257568Y0060461D02*
X0256851Y0059320D01*
X0256266Y0058106D01*
X0255821Y0056834D01*
X0255521Y0055520D01*
X0255370Y0054180D01*
X0255370Y0054006D01*
X0266870Y0054006D01*
X0266870Y0065506D01*
X0266696Y0065506D01*
X0265357Y0065355D01*
X0264043Y0065055D01*
X0262771Y0064610D01*
X0261556Y0064026D01*
X0260415Y0063308D01*
X0259361Y0062468D01*
X0258408Y0061515D01*
X0257568Y0060461D01*
X0258320Y0061405D02*
X0244490Y0061405D01*
X0244903Y0062404D02*
X0259297Y0062404D01*
X0260564Y0063402D02*
X0245011Y0063402D01*
X0244865Y0064401D02*
X0262335Y0064401D01*
X0265745Y0065399D02*
X0244410Y0065399D01*
X0244230Y0066398D02*
X0282791Y0066398D01*
X0282791Y0067396D02*
X0244230Y0067396D01*
X0244230Y0068395D02*
X0282791Y0068395D01*
X0282791Y0069393D02*
X0244230Y0069393D01*
X0254330Y0077381D02*
X0255330Y0077381D01*
X0255330Y0078380D02*
X0254330Y0078380D01*
X0254330Y0079378D02*
X0255330Y0079378D01*
X0255330Y0082374D02*
X0254330Y0082374D01*
X0254330Y0083372D02*
X0255330Y0083372D01*
X0255330Y0084371D02*
X0254330Y0084371D01*
X0258589Y0084371D02*
X0261071Y0084371D01*
X0260330Y0083372D02*
X0259330Y0083372D01*
X0259330Y0082374D02*
X0260330Y0082374D01*
X0251867Y0088365D02*
X0216690Y0088365D01*
X0216690Y0087366D02*
X0223375Y0087366D01*
X0221833Y0086368D02*
X0216690Y0086368D01*
X0216690Y0085369D02*
X0221104Y0085369D01*
X0220690Y0084371D02*
X0216690Y0084371D01*
X0216690Y0083372D02*
X0220670Y0083372D01*
X0220801Y0082374D02*
X0216690Y0082374D01*
X0216690Y0081375D02*
X0221215Y0081375D01*
X0222101Y0080377D02*
X0216690Y0080377D01*
X0216690Y0077381D02*
X0223411Y0077381D01*
X0221848Y0076383D02*
X0216690Y0076383D01*
X0216690Y0075384D02*
X0221110Y0075384D01*
X0220696Y0074386D02*
X0216690Y0074386D01*
X0216690Y0073387D02*
X0220670Y0073387D01*
X0220795Y0072389D02*
X0216690Y0072389D01*
X0216690Y0071390D02*
X0221209Y0071390D01*
X0222086Y0070392D02*
X0216690Y0070392D01*
X0210490Y0070392D02*
X0202654Y0070392D01*
X0202292Y0070030D02*
X0203446Y0071184D01*
X0204070Y0072691D01*
X0204070Y0074322D01*
X0203446Y0075829D01*
X0202292Y0076982D01*
X0200786Y0077606D01*
X0193954Y0077606D01*
X0192448Y0076982D01*
X0191294Y0075829D01*
X0190670Y0074322D01*
X0190670Y0072691D01*
X0191294Y0071184D01*
X0192448Y0070030D01*
X0193954Y0069406D01*
X0200786Y0069406D01*
X0202292Y0070030D01*
X0203531Y0071390D02*
X0210490Y0071390D01*
X0210490Y0072389D02*
X0203945Y0072389D01*
X0204070Y0073387D02*
X0210490Y0073387D01*
X0210490Y0074386D02*
X0204044Y0074386D01*
X0203630Y0075384D02*
X0210490Y0075384D01*
X0210490Y0076383D02*
X0202892Y0076383D01*
X0201329Y0077381D02*
X0210490Y0077381D01*
X0210490Y0078380D02*
X0110180Y0078380D01*
X0110180Y0079378D02*
X0210490Y0079378D01*
X0210490Y0080377D02*
X0202639Y0080377D01*
X0202292Y0080030D02*
X0203446Y0081184D01*
X0204070Y0082691D01*
X0204070Y0084322D01*
X0203446Y0085829D01*
X0202292Y0086982D01*
X0200786Y0087606D01*
X0193954Y0087606D01*
X0192448Y0086982D01*
X0191294Y0085829D01*
X0190670Y0084322D01*
X0190670Y0082691D01*
X0191294Y0081184D01*
X0192448Y0080030D01*
X0193954Y0079406D01*
X0200786Y0079406D01*
X0202292Y0080030D01*
X0203525Y0081375D02*
X0210490Y0081375D01*
X0210490Y0082374D02*
X0203939Y0082374D01*
X0204070Y0083372D02*
X0210490Y0083372D01*
X0210490Y0084371D02*
X0204050Y0084371D01*
X0203636Y0085369D02*
X0210490Y0085369D01*
X0210490Y0086368D02*
X0202907Y0086368D01*
X0201365Y0087366D02*
X0210490Y0087366D01*
X0210490Y0088365D02*
X0170057Y0088365D01*
X0171056Y0089363D02*
X0210490Y0089363D01*
X0210490Y0090362D02*
X0202624Y0090362D01*
X0202292Y0090030D02*
X0203446Y0091184D01*
X0204070Y0092691D01*
X0204070Y0094322D01*
X0203446Y0095829D01*
X0202292Y0096982D01*
X0200786Y0097606D01*
X0193954Y0097606D01*
X0192448Y0096982D01*
X0191294Y0095829D01*
X0190670Y0094322D01*
X0190670Y0092691D01*
X0191294Y0091184D01*
X0192448Y0090030D01*
X0193954Y0089406D01*
X0200786Y0089406D01*
X0202292Y0090030D01*
X0203519Y0091360D02*
X0210490Y0091360D01*
X0210490Y0092359D02*
X0203933Y0092359D01*
X0204070Y0093357D02*
X0210490Y0093357D01*
X0210490Y0094356D02*
X0204056Y0094356D01*
X0203642Y0095354D02*
X0210490Y0095354D01*
X0210490Y0096353D02*
X0202922Y0096353D01*
X0201401Y0097351D02*
X0210490Y0097351D01*
X0210490Y0098350D02*
X0180042Y0098350D01*
X0179044Y0097351D02*
X0193339Y0097351D01*
X0191818Y0096353D02*
X0178045Y0096353D01*
X0177047Y0095354D02*
X0191098Y0095354D01*
X0190684Y0094356D02*
X0176048Y0094356D01*
X0175050Y0093357D02*
X0190670Y0093357D01*
X0190807Y0092359D02*
X0174051Y0092359D01*
X0173053Y0091360D02*
X0191221Y0091360D01*
X0192116Y0090362D02*
X0172054Y0090362D01*
X0169058Y0087366D02*
X0193375Y0087366D01*
X0191833Y0086368D02*
X0168060Y0086368D01*
X0167061Y0085369D02*
X0191104Y0085369D01*
X0190690Y0084371D02*
X0166063Y0084371D01*
X0181041Y0099348D02*
X0210490Y0099348D01*
X0210490Y0100347D02*
X0202609Y0100347D01*
X0202292Y0100030D02*
X0203446Y0101184D01*
X0204070Y0102691D01*
X0204070Y0104322D01*
X0203446Y0105829D01*
X0202292Y0106982D01*
X0200786Y0107606D01*
X0193954Y0107606D01*
X0192448Y0106982D01*
X0191294Y0105829D01*
X0190670Y0104322D01*
X0190670Y0102691D01*
X0191294Y0101184D01*
X0192448Y0100030D01*
X0193954Y0099406D01*
X0200786Y0099406D01*
X0202292Y0100030D01*
X0203513Y0101346D02*
X0210490Y0101346D01*
X0210490Y0102344D02*
X0203926Y0102344D01*
X0204070Y0103343D02*
X0210490Y0103343D01*
X0210490Y0104341D02*
X0204062Y0104341D01*
X0203648Y0105340D02*
X0210490Y0105340D01*
X0210490Y0106338D02*
X0202936Y0106338D01*
X0201437Y0107337D02*
X0210490Y0107337D01*
X0210490Y0108335D02*
X0190027Y0108335D01*
X0189029Y0107337D02*
X0193303Y0107337D01*
X0191804Y0106338D02*
X0188030Y0106338D01*
X0187032Y0105340D02*
X0191092Y0105340D01*
X0190678Y0104341D02*
X0186033Y0104341D01*
X0185035Y0103343D02*
X0190670Y0103343D01*
X0190814Y0102344D02*
X0184036Y0102344D01*
X0183038Y0101346D02*
X0191227Y0101346D01*
X0192131Y0100347D02*
X0182039Y0100347D01*
X0196026Y0109334D02*
X0210490Y0109334D01*
X0210490Y0110332D02*
X0202594Y0110332D01*
X0203507Y0111331D02*
X0210490Y0111331D01*
X0210490Y0112329D02*
X0203920Y0112329D01*
X0204070Y0113328D02*
X0210490Y0113328D01*
X0210490Y0114326D02*
X0204068Y0114326D01*
X0203655Y0115325D02*
X0210490Y0115325D01*
X0210490Y0116323D02*
X0202951Y0116323D01*
X0201473Y0117322D02*
X0210490Y0117322D01*
X0210490Y0118320D02*
X0199370Y0118320D01*
X0199370Y0119319D02*
X0210490Y0119319D01*
X0210490Y0120317D02*
X0202579Y0120317D01*
X0203500Y0121316D02*
X0210490Y0121316D01*
X0210490Y0122314D02*
X0203914Y0122314D01*
X0204070Y0123313D02*
X0210490Y0123313D01*
X0210490Y0124311D02*
X0204070Y0124311D01*
X0203661Y0125310D02*
X0210490Y0125310D01*
X0210490Y0126308D02*
X0202966Y0126308D01*
X0201509Y0127307D02*
X0210490Y0127307D01*
X0210490Y0128305D02*
X0073350Y0128305D01*
X0073350Y0127307D02*
X0075790Y0127307D01*
X0075546Y0127129D02*
X0075017Y0126601D01*
X0074577Y0125996D01*
X0074238Y0125330D01*
X0074007Y0124619D01*
X0073890Y0123880D01*
X0073890Y0123695D01*
X0078451Y0123695D01*
X0078451Y0123317D01*
X0078829Y0123317D01*
X0078829Y0118756D01*
X0079014Y0118756D01*
X0079752Y0118873D01*
X0080463Y0119104D01*
X0081130Y0119444D01*
X0081734Y0119883D01*
X0082263Y0120412D01*
X0082703Y0121017D01*
X0083042Y0121683D01*
X0083273Y0122394D01*
X0083390Y0123132D01*
X0083390Y0123317D01*
X0078829Y0123317D01*
X0078829Y0123695D01*
X0083390Y0123695D01*
X0083390Y0123880D01*
X0083273Y0124619D01*
X0083042Y0125330D01*
X0082703Y0125996D01*
X0082263Y0126601D01*
X0081734Y0127129D01*
X0081130Y0127569D01*
X0080463Y0127908D01*
X0079752Y0128139D01*
X0079014Y0128256D01*
X0078829Y0128256D01*
X0078829Y0123695D01*
X0078451Y0123695D01*
X0078451Y0128256D01*
X0078266Y0128256D01*
X0077528Y0128139D01*
X0076817Y0127908D01*
X0076150Y0127569D01*
X0075546Y0127129D01*
X0074804Y0126308D02*
X0073350Y0126308D01*
X0073350Y0125310D02*
X0074232Y0125310D01*
X0073958Y0124311D02*
X0073350Y0124311D01*
X0073350Y0123313D02*
X0073890Y0123313D01*
X0073890Y0123317D02*
X0073890Y0123132D01*
X0074007Y0122394D01*
X0074238Y0121683D01*
X0074577Y0121017D01*
X0075017Y0120412D01*
X0075546Y0119883D01*
X0076150Y0119444D01*
X0076817Y0119104D01*
X0077528Y0118873D01*
X0078266Y0118756D01*
X0078451Y0118756D01*
X0078451Y0123317D01*
X0073890Y0123317D01*
X0074033Y0122314D02*
X0073350Y0122314D01*
X0073350Y0121316D02*
X0074425Y0121316D01*
X0075112Y0120317D02*
X0073350Y0120317D01*
X0073350Y0119319D02*
X0076396Y0119319D01*
X0078451Y0119319D02*
X0078829Y0119319D01*
X0078829Y0120317D02*
X0078451Y0120317D01*
X0078451Y0121316D02*
X0078829Y0121316D01*
X0078829Y0122314D02*
X0078451Y0122314D01*
X0078451Y0123313D02*
X0078829Y0123313D01*
X0078829Y0124311D02*
X0078451Y0124311D01*
X0078451Y0125310D02*
X0078829Y0125310D01*
X0078829Y0126308D02*
X0078451Y0126308D01*
X0078451Y0127307D02*
X0078829Y0127307D01*
X0081490Y0127307D02*
X0085723Y0127307D01*
X0085949Y0127533D02*
X0084613Y0126197D01*
X0083890Y0124451D01*
X0083890Y0122561D01*
X0084613Y0120816D01*
X0085949Y0119479D01*
X0087695Y0118756D01*
X0089585Y0118756D01*
X0091331Y0119479D01*
X0092667Y0120816D01*
X0093390Y0122561D01*
X0093390Y0124451D01*
X0092667Y0126197D01*
X0091331Y0127533D01*
X0089585Y0128256D01*
X0087695Y0128256D01*
X0085949Y0127533D01*
X0084724Y0126308D02*
X0082476Y0126308D01*
X0083048Y0125310D02*
X0084246Y0125310D01*
X0083890Y0124311D02*
X0083322Y0124311D01*
X0083390Y0123313D02*
X0083890Y0123313D01*
X0083992Y0122314D02*
X0083247Y0122314D01*
X0082855Y0121316D02*
X0084406Y0121316D01*
X0085112Y0120317D02*
X0082168Y0120317D01*
X0080884Y0119319D02*
X0086337Y0119319D01*
X0090943Y0119319D02*
X0175354Y0119319D01*
X0176353Y0120317D02*
X0092168Y0120317D01*
X0092874Y0121316D02*
X0177351Y0121316D01*
X0178350Y0122314D02*
X0093288Y0122314D01*
X0093390Y0123313D02*
X0179348Y0123313D01*
X0180347Y0124311D02*
X0093390Y0124311D01*
X0093034Y0125310D02*
X0181345Y0125310D01*
X0182344Y0126308D02*
X0092555Y0126308D01*
X0091557Y0127307D02*
X0183342Y0127307D01*
X0187857Y0132299D02*
X0190851Y0132299D01*
X0190771Y0132546D02*
X0190970Y0131932D01*
X0191263Y0131357D01*
X0191643Y0130835D01*
X0192099Y0130379D01*
X0192621Y0130000D01*
X0193196Y0129707D01*
X0193810Y0129507D01*
X0194447Y0129406D01*
X0197070Y0129406D01*
X0197070Y0133206D01*
X0190670Y0133206D01*
X0190670Y0133184D01*
X0190771Y0132546D01*
X0191304Y0131301D02*
X0074370Y0131301D01*
X0074370Y0132299D02*
X0165663Y0132299D01*
X0164664Y0133298D02*
X0074370Y0133298D01*
X0075514Y0134296D02*
X0135216Y0134296D01*
X0135506Y0134006D02*
X0132870Y0136642D01*
X0132870Y0138006D01*
X0136870Y0138006D01*
X0137870Y0138006D01*
X0137870Y0134006D01*
X0139234Y0134006D01*
X0141870Y0136642D01*
X0141870Y0138006D01*
X0137870Y0138006D01*
X0137870Y0139006D01*
X0141870Y0139006D01*
X0141870Y0140370D01*
X0139234Y0143006D01*
X0137870Y0143006D01*
X0137870Y0139006D01*
X0136870Y0139006D01*
X0136870Y0138006D01*
X0136870Y0134006D01*
X0135506Y0134006D01*
X0136870Y0134296D02*
X0137870Y0134296D01*
X0137870Y0135295D02*
X0136870Y0135295D01*
X0136870Y0136293D02*
X0137870Y0136293D01*
X0137870Y0137292D02*
X0136870Y0137292D01*
X0136870Y0138290D02*
X0077570Y0138290D01*
X0077570Y0139289D02*
X0100184Y0139289D01*
X0099880Y0139444D02*
X0100547Y0139104D01*
X0101258Y0138873D01*
X0101996Y0138756D01*
X0102181Y0138756D01*
X0102181Y0143317D01*
X0102559Y0143317D01*
X0102559Y0138756D01*
X0102744Y0138756D01*
X0103482Y0138873D01*
X0104193Y0139104D01*
X0104860Y0139444D01*
X0105464Y0139883D01*
X0105993Y0140412D01*
X0106433Y0141017D01*
X0106772Y0141683D01*
X0107003Y0142394D01*
X0107120Y0143132D01*
X0107120Y0143317D01*
X0102559Y0143317D01*
X0102559Y0143695D01*
X0107120Y0143695D01*
X0107120Y0143880D01*
X0107003Y0144619D01*
X0106772Y0145330D01*
X0106433Y0145996D01*
X0105993Y0146601D01*
X0105464Y0147129D01*
X0104860Y0147569D01*
X0104193Y0147908D01*
X0103482Y0148139D01*
X0102744Y0148256D01*
X0102559Y0148256D01*
X0102559Y0143695D01*
X0102181Y0143695D01*
X0102181Y0143317D01*
X0097620Y0143317D01*
X0097620Y0143132D01*
X0097737Y0142394D01*
X0097968Y0141683D01*
X0098307Y0141017D01*
X0098747Y0140412D01*
X0099276Y0139883D01*
X0099880Y0139444D01*
X0098871Y0140287D02*
X0077261Y0140287D01*
X0076847Y0141286D02*
X0098170Y0141286D01*
X0097773Y0142284D02*
X0075946Y0142284D01*
X0074426Y0143283D02*
X0097620Y0143283D01*
X0097620Y0143695D02*
X0102181Y0143695D01*
X0102181Y0148256D01*
X0101996Y0148256D01*
X0101258Y0148139D01*
X0100547Y0147908D01*
X0099880Y0147569D01*
X0099276Y0147129D01*
X0098747Y0146601D01*
X0098307Y0145996D01*
X0097968Y0145330D01*
X0097737Y0144619D01*
X0097620Y0143880D01*
X0097620Y0143695D01*
X0097684Y0144282D02*
X0070014Y0144282D01*
X0070314Y0143283D02*
X0059426Y0143283D01*
X0060946Y0142284D02*
X0068794Y0142284D01*
X0067893Y0141286D02*
X0061847Y0141286D01*
X0062261Y0140287D02*
X0067479Y0140287D01*
X0067170Y0139289D02*
X0063016Y0139289D01*
X0064014Y0138290D02*
X0067170Y0138290D01*
X0067245Y0137292D02*
X0065013Y0137292D01*
X0066011Y0136293D02*
X0067658Y0136293D01*
X0068227Y0135295D02*
X0067010Y0135295D01*
X0068008Y0134296D02*
X0069226Y0134296D01*
X0069007Y0133298D02*
X0070370Y0133298D01*
X0070155Y0132299D02*
X0069540Y0132299D01*
X0067540Y0131936D02*
X0067540Y0087486D01*
X0089130Y0065896D01*
X0100560Y0065896D01*
X0108180Y0073516D01*
X0108180Y0083676D01*
X0112490Y0088756D01*
X0112490Y0096916D01*
X0106670Y0103506D01*
X0104740Y0108335D02*
X0073350Y0108335D01*
X0073350Y0107337D02*
X0075831Y0107337D01*
X0075546Y0107129D02*
X0075017Y0106601D01*
X0074577Y0105996D01*
X0074238Y0105330D01*
X0074007Y0104619D01*
X0073890Y0103880D01*
X0073890Y0103695D01*
X0078451Y0103695D01*
X0078451Y0103317D01*
X0078829Y0103317D01*
X0078829Y0098756D01*
X0079014Y0098756D01*
X0079752Y0098873D01*
X0080463Y0099104D01*
X0081130Y0099444D01*
X0081734Y0099883D01*
X0082263Y0100412D01*
X0082703Y0101017D01*
X0083042Y0101683D01*
X0083273Y0102394D01*
X0083390Y0103132D01*
X0083390Y0103317D01*
X0078829Y0103317D01*
X0078829Y0103695D01*
X0083390Y0103695D01*
X0083390Y0103880D01*
X0083273Y0104619D01*
X0083042Y0105330D01*
X0082703Y0105996D01*
X0082263Y0106601D01*
X0081734Y0107129D01*
X0081130Y0107569D01*
X0080463Y0107908D01*
X0079752Y0108139D01*
X0079014Y0108256D01*
X0078829Y0108256D01*
X0078829Y0103695D01*
X0078451Y0103695D01*
X0078451Y0108256D01*
X0078266Y0108256D01*
X0077528Y0108139D01*
X0076817Y0107908D01*
X0076150Y0107569D01*
X0075546Y0107129D01*
X0074826Y0106338D02*
X0073350Y0106338D01*
X0073350Y0105340D02*
X0074243Y0105340D01*
X0073963Y0104341D02*
X0073350Y0104341D01*
X0073350Y0103343D02*
X0078451Y0103343D01*
X0078451Y0103317D02*
X0073890Y0103317D01*
X0073890Y0103132D01*
X0074007Y0102394D01*
X0074238Y0101683D01*
X0074577Y0101017D01*
X0075017Y0100412D01*
X0075546Y0099883D01*
X0076150Y0099444D01*
X0076817Y0099104D01*
X0077528Y0098873D01*
X0078266Y0098756D01*
X0078451Y0098756D01*
X0078451Y0103317D01*
X0078829Y0103343D02*
X0083890Y0103343D01*
X0083890Y0104341D02*
X0083317Y0104341D01*
X0083037Y0105340D02*
X0083890Y0105340D01*
X0083890Y0106338D02*
X0082454Y0106338D01*
X0081449Y0107337D02*
X0083890Y0107337D01*
X0083890Y0107378D02*
X0083890Y0099635D01*
X0084769Y0098756D01*
X0092511Y0098756D01*
X0093390Y0099635D01*
X0093390Y0107378D01*
X0092511Y0108256D01*
X0084769Y0108256D01*
X0083890Y0107378D01*
X0078829Y0107337D02*
X0078451Y0107337D01*
X0078451Y0106338D02*
X0078829Y0106338D01*
X0078829Y0105340D02*
X0078451Y0105340D01*
X0078451Y0104341D02*
X0078829Y0104341D01*
X0078829Y0102344D02*
X0078451Y0102344D01*
X0078451Y0101346D02*
X0078829Y0101346D01*
X0078829Y0100347D02*
X0078451Y0100347D01*
X0078451Y0099348D02*
X0078829Y0099348D01*
X0080943Y0099348D02*
X0084176Y0099348D01*
X0083890Y0100347D02*
X0082198Y0100347D01*
X0082870Y0101346D02*
X0083890Y0101346D01*
X0083890Y0102344D02*
X0083257Y0102344D01*
X0076337Y0099348D02*
X0073350Y0099348D01*
X0073350Y0098350D02*
X0104775Y0098350D01*
X0103474Y0099348D02*
X0093104Y0099348D01*
X0093390Y0100347D02*
X0102475Y0100347D01*
X0101937Y0101346D02*
X0093390Y0101346D01*
X0093390Y0102344D02*
X0101523Y0102344D01*
X0101470Y0103343D02*
X0093390Y0103343D01*
X0093390Y0104341D02*
X0101470Y0104341D01*
X0101801Y0105340D02*
X0093390Y0105340D01*
X0093390Y0106338D02*
X0102215Y0106338D01*
X0103146Y0107337D02*
X0093390Y0107337D01*
X0103161Y0097351D02*
X0073350Y0097351D01*
X0073350Y0096353D02*
X0102221Y0096353D01*
X0101807Y0095354D02*
X0073350Y0095354D01*
X0073350Y0094356D02*
X0101470Y0094356D01*
X0101470Y0093357D02*
X0073350Y0093357D01*
X0073350Y0092359D02*
X0101517Y0092359D01*
X0101930Y0091360D02*
X0073350Y0091360D01*
X0073350Y0090362D02*
X0102370Y0090362D01*
X0102370Y0089363D02*
X0073571Y0089363D01*
X0074570Y0088365D02*
X0102370Y0088365D01*
X0102370Y0087366D02*
X0075568Y0087366D01*
X0076567Y0086368D02*
X0102370Y0086368D01*
X0102370Y0085369D02*
X0077565Y0085369D01*
X0078564Y0084371D02*
X0102370Y0084371D01*
X0102370Y0083372D02*
X0094211Y0083372D01*
X0093404Y0083706D02*
X0091336Y0083706D01*
X0089424Y0082915D01*
X0087962Y0081452D01*
X0087170Y0079541D01*
X0087170Y0077472D01*
X0087962Y0075561D01*
X0089424Y0074098D01*
X0091336Y0073306D01*
X0093404Y0073306D01*
X0095316Y0074098D01*
X0096778Y0075561D01*
X0097570Y0077472D01*
X0097570Y0079541D01*
X0096778Y0081452D01*
X0095316Y0082915D01*
X0093404Y0083706D01*
X0095856Y0082374D02*
X0102370Y0082374D01*
X0102370Y0081375D02*
X0096810Y0081375D01*
X0097224Y0080377D02*
X0102370Y0080377D01*
X0102370Y0079378D02*
X0097570Y0079378D01*
X0097570Y0078380D02*
X0102370Y0078380D01*
X0102370Y0077381D02*
X0097532Y0077381D01*
X0097119Y0076383D02*
X0102370Y0076383D01*
X0102140Y0075384D02*
X0096602Y0075384D01*
X0095603Y0074386D02*
X0101141Y0074386D01*
X0100143Y0073387D02*
X0093600Y0073387D01*
X0091140Y0073387D02*
X0089548Y0073387D01*
X0089137Y0074386D02*
X0088549Y0074386D01*
X0088138Y0075384D02*
X0087550Y0075384D01*
X0087621Y0076383D02*
X0086552Y0076383D01*
X0087208Y0077381D02*
X0085553Y0077381D01*
X0084555Y0078380D02*
X0087170Y0078380D01*
X0087170Y0079378D02*
X0083556Y0079378D01*
X0082558Y0080377D02*
X0087516Y0080377D01*
X0087930Y0081375D02*
X0081559Y0081375D01*
X0080561Y0082374D02*
X0088884Y0082374D01*
X0090529Y0083372D02*
X0079562Y0083372D01*
X0073818Y0078380D02*
X0057570Y0078380D01*
X0057570Y0077472D02*
X0056778Y0075561D01*
X0055316Y0074098D01*
X0053404Y0073306D01*
X0051336Y0073306D01*
X0049424Y0074098D01*
X0047962Y0075561D01*
X0047170Y0077472D01*
X0047170Y0079541D01*
X0047962Y0081452D01*
X0049424Y0082915D01*
X0051336Y0083706D01*
X0053404Y0083706D01*
X0055316Y0082915D01*
X0056778Y0081452D01*
X0057570Y0079541D01*
X0057570Y0077472D01*
X0057532Y0077381D02*
X0074817Y0077381D01*
X0075815Y0076383D02*
X0057119Y0076383D01*
X0056602Y0075384D02*
X0076814Y0075384D01*
X0077812Y0074386D02*
X0055603Y0074386D01*
X0053600Y0073387D02*
X0078811Y0073387D01*
X0079809Y0072389D02*
X0006870Y0072389D01*
X0006870Y0073387D02*
X0029357Y0073387D01*
X0029988Y0072756D02*
X0034752Y0072756D01*
X0038120Y0076125D01*
X0038120Y0080888D01*
X0034752Y0084256D01*
X0029988Y0084256D01*
X0026620Y0080888D01*
X0026620Y0076125D01*
X0029988Y0072756D01*
X0028359Y0074386D02*
X0006870Y0074386D01*
X0006870Y0075384D02*
X0027360Y0075384D01*
X0026620Y0076383D02*
X0006870Y0076383D01*
X0006870Y0077381D02*
X0026620Y0077381D01*
X0026620Y0078380D02*
X0006870Y0078380D01*
X0006870Y0079378D02*
X0026620Y0079378D01*
X0026620Y0080377D02*
X0006870Y0080377D01*
X0006870Y0081375D02*
X0027107Y0081375D01*
X0028106Y0082374D02*
X0006870Y0082374D01*
X0006870Y0083372D02*
X0029104Y0083372D01*
X0035636Y0083372D02*
X0050529Y0083372D01*
X0048884Y0082374D02*
X0036634Y0082374D01*
X0037633Y0081375D02*
X0047930Y0081375D01*
X0047516Y0080377D02*
X0038120Y0080377D01*
X0038120Y0079378D02*
X0047170Y0079378D01*
X0047170Y0078380D02*
X0038120Y0078380D01*
X0038120Y0077381D02*
X0047208Y0077381D01*
X0047621Y0076383D02*
X0038120Y0076383D01*
X0037380Y0075384D02*
X0048138Y0075384D01*
X0049137Y0074386D02*
X0036381Y0074386D01*
X0035383Y0073387D02*
X0051140Y0073387D01*
X0057570Y0079378D02*
X0072820Y0079378D01*
X0071821Y0080377D02*
X0057224Y0080377D01*
X0056810Y0081375D02*
X0070823Y0081375D01*
X0069824Y0082374D02*
X0055856Y0082374D01*
X0054211Y0083372D02*
X0068826Y0083372D01*
X0067827Y0084371D02*
X0006870Y0084371D01*
X0006870Y0085369D02*
X0066829Y0085369D01*
X0065830Y0086368D02*
X0006870Y0086368D01*
X0006870Y0087366D02*
X0065540Y0087366D01*
X0065540Y0088365D02*
X0006870Y0088365D01*
X0006870Y0089363D02*
X0065540Y0089363D01*
X0065540Y0090362D02*
X0006870Y0090362D01*
X0006870Y0091360D02*
X0065540Y0091360D01*
X0065540Y0092359D02*
X0006870Y0092359D01*
X0006870Y0093357D02*
X0065540Y0093357D01*
X0065540Y0094356D02*
X0006870Y0094356D01*
X0006870Y0095354D02*
X0065540Y0095354D01*
X0065540Y0096353D02*
X0006870Y0096353D01*
X0006870Y0097351D02*
X0065540Y0097351D01*
X0065540Y0098350D02*
X0006870Y0098350D01*
X0006870Y0099348D02*
X0046636Y0099348D01*
X0046350Y0099635D02*
X0047229Y0098756D01*
X0054971Y0098756D01*
X0055850Y0099635D01*
X0055850Y0107378D01*
X0054971Y0108256D01*
X0047229Y0108256D01*
X0046350Y0107378D01*
X0046350Y0099635D01*
X0046350Y0100347D02*
X0006870Y0100347D01*
X0006870Y0101346D02*
X0046350Y0101346D01*
X0046350Y0102344D02*
X0006870Y0102344D01*
X0006870Y0103343D02*
X0009765Y0103343D01*
X0008767Y0104341D02*
X0006870Y0104341D01*
X0006870Y0105340D02*
X0007768Y0105340D01*
X0011820Y0119319D02*
X0015194Y0119319D01*
X0014195Y0120317D02*
X0011820Y0120317D01*
X0011820Y0121316D02*
X0013197Y0121316D01*
X0012870Y0122314D02*
X0011820Y0122314D01*
X0011820Y0139289D02*
X0015223Y0139289D01*
X0014225Y0140287D02*
X0011820Y0140287D01*
X0011820Y0141286D02*
X0013226Y0141286D01*
X0012870Y0142284D02*
X0011820Y0142284D01*
X0011820Y0143283D02*
X0012870Y0143283D01*
X0012870Y0144282D02*
X0011820Y0144282D01*
X0011820Y0145280D02*
X0012870Y0145280D01*
X0013778Y0146279D02*
X0011820Y0146279D01*
X0011820Y0147277D02*
X0014777Y0147277D01*
X0015238Y0149274D02*
X0011820Y0149274D01*
X0011820Y0148276D02*
X0037871Y0148276D01*
X0038869Y0149274D02*
X0029502Y0149274D01*
X0030500Y0150273D02*
X0039868Y0150273D01*
X0040866Y0151271D02*
X0031499Y0151271D01*
X0029963Y0147277D02*
X0036872Y0147277D01*
X0035874Y0146279D02*
X0030962Y0146279D01*
X0027370Y0143506D02*
X0035930Y0143506D01*
X0042140Y0149716D01*
X0067540Y0149716D01*
X0103100Y0185276D01*
X0103100Y0186546D01*
X0128500Y0186546D01*
X0134850Y0180196D01*
X0134850Y0180196D01*
X0137390Y0177656D01*
X0147550Y0177656D01*
X0155170Y0185276D01*
X0158980Y0185276D01*
X0164060Y0180196D01*
X0175490Y0180196D01*
X0183110Y0172576D01*
X0182058Y0169244D02*
X0181960Y0169244D01*
X0178301Y0167247D02*
X0160470Y0167247D01*
X0160470Y0166249D02*
X0179299Y0166249D01*
X0180298Y0165250D02*
X0160470Y0165250D01*
X0160470Y0164252D02*
X0181296Y0164252D01*
X0182295Y0163253D02*
X0160470Y0163253D01*
X0160470Y0162255D02*
X0183293Y0162255D01*
X0184292Y0161256D02*
X0172928Y0161256D01*
X0172807Y0161306D02*
X0172633Y0161306D01*
X0172382Y0161557D01*
X0171102Y0162087D01*
X0169718Y0162087D01*
X0168438Y0161557D01*
X0167459Y0160578D01*
X0166929Y0159299D01*
X0166929Y0157914D01*
X0167459Y0156634D01*
X0168438Y0155655D01*
X0169718Y0155125D01*
X0171102Y0155125D01*
X0171690Y0155368D01*
X0180452Y0146606D01*
X0178498Y0146606D01*
X0175073Y0150031D01*
X0170229Y0150031D01*
X0160470Y0159790D01*
X0160470Y0169252D01*
X0161778Y0170561D01*
X0162570Y0172472D01*
X0162570Y0174541D01*
X0162108Y0175656D01*
X0169892Y0175656D01*
X0189042Y0156506D01*
X0190698Y0156506D01*
X0191972Y0156506D01*
X0191294Y0155829D01*
X0190670Y0154322D01*
X0190670Y0152691D01*
X0191285Y0151206D01*
X0183488Y0151206D01*
X0174559Y0160136D01*
X0173799Y0160895D01*
X0172807Y0161306D01*
X0174437Y0160258D02*
X0185290Y0160258D01*
X0186289Y0159259D02*
X0175435Y0159259D01*
X0176434Y0158261D02*
X0187287Y0158261D01*
X0188286Y0157262D02*
X0177433Y0157262D01*
X0178431Y0156264D02*
X0191729Y0156264D01*
X0191061Y0155265D02*
X0179430Y0155265D01*
X0180428Y0154267D02*
X0190670Y0154267D01*
X0190670Y0153268D02*
X0181427Y0153268D01*
X0182425Y0152270D02*
X0190844Y0152270D01*
X0191258Y0151271D02*
X0183424Y0151271D01*
X0178782Y0148276D02*
X0176828Y0148276D01*
X0177784Y0149274D02*
X0175830Y0149274D01*
X0176785Y0150273D02*
X0169988Y0150273D01*
X0168989Y0151271D02*
X0175787Y0151271D01*
X0174788Y0152270D02*
X0167991Y0152270D01*
X0166992Y0153268D02*
X0173790Y0153268D01*
X0172791Y0154267D02*
X0165994Y0154267D01*
X0164995Y0155265D02*
X0169380Y0155265D01*
X0167830Y0156264D02*
X0163997Y0156264D01*
X0162998Y0157262D02*
X0167199Y0157262D01*
X0166929Y0158261D02*
X0162000Y0158261D01*
X0161001Y0159259D02*
X0166929Y0159259D01*
X0167326Y0160258D02*
X0160470Y0160258D01*
X0160470Y0161256D02*
X0168137Y0161256D01*
X0160470Y0168246D02*
X0177302Y0168246D01*
X0176304Y0169244D02*
X0160470Y0169244D01*
X0161460Y0170243D02*
X0175305Y0170243D01*
X0174307Y0171241D02*
X0162060Y0171241D01*
X0162474Y0172240D02*
X0173308Y0172240D01*
X0172310Y0173238D02*
X0162570Y0173238D01*
X0162570Y0174237D02*
X0171311Y0174237D01*
X0170313Y0175235D02*
X0162282Y0175235D01*
X0154270Y0169244D02*
X0120470Y0169244D01*
X0120470Y0169252D02*
X0121778Y0170561D01*
X0122570Y0172472D01*
X0122570Y0174541D01*
X0121778Y0176452D01*
X0120316Y0177915D01*
X0118404Y0178706D01*
X0116336Y0178706D01*
X0114424Y0177915D01*
X0112962Y0176452D01*
X0112170Y0174541D01*
X0112170Y0172472D01*
X0112962Y0170561D01*
X0114270Y0169252D01*
X0114270Y0157124D01*
X0113752Y0156606D01*
X0105987Y0156606D01*
X0105061Y0157533D01*
X0103315Y0158256D01*
X0101425Y0158256D01*
X0099679Y0157533D01*
X0098343Y0156197D01*
X0097620Y0154451D01*
X0097620Y0152561D01*
X0098343Y0150816D01*
X0099679Y0149479D01*
X0101425Y0148756D01*
X0103315Y0148756D01*
X0105061Y0149479D01*
X0105987Y0150406D01*
X0113752Y0150406D01*
X0114679Y0149479D01*
X0116425Y0148756D01*
X0118315Y0148756D01*
X0120061Y0149479D01*
X0121397Y0150816D01*
X0122120Y0152561D01*
X0122120Y0153872D01*
X0123654Y0155406D01*
X0134106Y0155406D01*
X0135506Y0154006D01*
X0139234Y0154006D01*
X0141870Y0156642D01*
X0141870Y0160370D01*
X0139234Y0163006D01*
X0135506Y0163006D01*
X0134106Y0161606D01*
X0121753Y0161606D01*
X0120614Y0161134D01*
X0120470Y0160990D01*
X0120470Y0169252D01*
X0120470Y0168246D02*
X0154270Y0168246D01*
X0154270Y0167247D02*
X0120470Y0167247D01*
X0120470Y0166249D02*
X0154270Y0166249D01*
X0154270Y0165250D02*
X0120470Y0165250D01*
X0120470Y0164252D02*
X0154270Y0164252D01*
X0154270Y0163253D02*
X0120470Y0163253D01*
X0120470Y0162255D02*
X0134754Y0162255D01*
X0139986Y0162255D02*
X0144754Y0162255D01*
X0143756Y0161256D02*
X0140984Y0161256D01*
X0141870Y0160258D02*
X0142870Y0160258D01*
X0142870Y0159259D02*
X0141870Y0159259D01*
X0141870Y0158261D02*
X0142870Y0158261D01*
X0142870Y0157262D02*
X0141870Y0157262D01*
X0141491Y0156264D02*
X0143249Y0156264D01*
X0144247Y0155265D02*
X0140493Y0155265D01*
X0139494Y0154267D02*
X0145246Y0154267D01*
X0144769Y0152270D02*
X0139971Y0152270D01*
X0135246Y0154267D02*
X0122514Y0154267D01*
X0122120Y0153268D02*
X0158224Y0153268D01*
X0157226Y0154267D02*
X0149494Y0154267D01*
X0150493Y0155265D02*
X0156227Y0155265D01*
X0155266Y0151271D02*
X0160221Y0151271D01*
X0159223Y0152270D02*
X0149971Y0152270D01*
X0156458Y0150273D02*
X0161220Y0150273D01*
X0162218Y0149274D02*
X0157456Y0149274D01*
X0158455Y0148276D02*
X0163217Y0148276D01*
X0164215Y0147277D02*
X0159453Y0147277D01*
X0160452Y0146279D02*
X0165214Y0146279D01*
X0165845Y0145280D02*
X0161450Y0145280D01*
X0162449Y0144282D02*
X0165845Y0144282D01*
X0165845Y0143283D02*
X0163447Y0143283D01*
X0164446Y0142284D02*
X0165845Y0142284D01*
X0165845Y0141286D02*
X0165444Y0141286D01*
X0159672Y0138290D02*
X0147870Y0138290D01*
X0147870Y0138006D02*
X0147870Y0139006D01*
X0151870Y0139006D01*
X0151870Y0140370D01*
X0149234Y0143006D01*
X0147870Y0143006D01*
X0147870Y0139006D01*
X0146870Y0139006D01*
X0146870Y0138006D01*
X0147870Y0138006D01*
X0147870Y0134006D01*
X0149234Y0134006D01*
X0151870Y0136642D01*
X0151870Y0138006D01*
X0147870Y0138006D01*
X0147870Y0137292D02*
X0146870Y0137292D01*
X0146870Y0138006D02*
X0146870Y0134006D01*
X0145506Y0134006D01*
X0142870Y0136642D01*
X0142870Y0138006D01*
X0146870Y0138006D01*
X0146870Y0138290D02*
X0137870Y0138290D01*
X0137870Y0139289D02*
X0136870Y0139289D01*
X0136870Y0139006D02*
X0136870Y0143006D01*
X0135506Y0143006D01*
X0132870Y0140370D01*
X0132870Y0139006D01*
X0136870Y0139006D01*
X0136870Y0140287D02*
X0137870Y0140287D01*
X0137870Y0141286D02*
X0136870Y0141286D01*
X0136870Y0142284D02*
X0137870Y0142284D01*
X0139956Y0142284D02*
X0144784Y0142284D01*
X0145506Y0143006D02*
X0142870Y0140370D01*
X0142870Y0139006D01*
X0146870Y0139006D01*
X0146870Y0143006D01*
X0145506Y0143006D01*
X0145231Y0144282D02*
X0139509Y0144282D01*
X0140508Y0145280D02*
X0144232Y0145280D01*
X0146870Y0142284D02*
X0147870Y0142284D01*
X0147870Y0141286D02*
X0146870Y0141286D01*
X0146870Y0140287D02*
X0147870Y0140287D01*
X0147870Y0139289D02*
X0146870Y0139289D01*
X0146870Y0136293D02*
X0147870Y0136293D01*
X0147870Y0135295D02*
X0146870Y0135295D01*
X0146870Y0134296D02*
X0147870Y0134296D01*
X0149524Y0134296D02*
X0163666Y0134296D01*
X0162667Y0135295D02*
X0150523Y0135295D01*
X0151521Y0136293D02*
X0161669Y0136293D01*
X0160670Y0137292D02*
X0151870Y0137292D01*
X0151870Y0139289D02*
X0158673Y0139289D01*
X0157675Y0140287D02*
X0151870Y0140287D01*
X0150954Y0141286D02*
X0156676Y0141286D01*
X0155678Y0142284D02*
X0149956Y0142284D01*
X0149509Y0144282D02*
X0153681Y0144282D01*
X0152682Y0145280D02*
X0150508Y0145280D01*
X0154679Y0143283D02*
X0122120Y0143283D01*
X0122120Y0143317D02*
X0117559Y0143317D01*
X0117559Y0138756D01*
X0117744Y0138756D01*
X0118482Y0138873D01*
X0119193Y0139104D01*
X0119860Y0139444D01*
X0120464Y0139883D01*
X0120993Y0140412D01*
X0121433Y0141017D01*
X0121772Y0141683D01*
X0122003Y0142394D01*
X0122120Y0143132D01*
X0122120Y0143317D01*
X0122120Y0143695D02*
X0122120Y0143880D01*
X0122003Y0144619D01*
X0121772Y0145330D01*
X0121433Y0145996D01*
X0120993Y0146601D01*
X0120464Y0147129D01*
X0119860Y0147569D01*
X0119193Y0147908D01*
X0118482Y0148139D01*
X0117744Y0148256D01*
X0117559Y0148256D01*
X0117559Y0143695D01*
X0122120Y0143695D01*
X0122056Y0144282D02*
X0135231Y0144282D01*
X0134232Y0145280D02*
X0121788Y0145280D01*
X0121227Y0146279D02*
X0133234Y0146279D01*
X0132870Y0147277D02*
X0120261Y0147277D01*
X0119565Y0149274D02*
X0132870Y0149274D01*
X0132870Y0148276D02*
X0074008Y0148276D01*
X0075006Y0149274D02*
X0100175Y0149274D01*
X0098886Y0150273D02*
X0076005Y0150273D01*
X0077003Y0151271D02*
X0098154Y0151271D01*
X0097741Y0152270D02*
X0078002Y0152270D01*
X0079000Y0153268D02*
X0097620Y0153268D01*
X0097620Y0154267D02*
X0079999Y0154267D01*
X0080997Y0155265D02*
X0097957Y0155265D01*
X0098410Y0156264D02*
X0081996Y0156264D01*
X0082994Y0157262D02*
X0099408Y0157262D01*
X0105332Y0157262D02*
X0114270Y0157262D01*
X0114270Y0158261D02*
X0083993Y0158261D01*
X0084991Y0159259D02*
X0114270Y0159259D01*
X0114270Y0160258D02*
X0085990Y0160258D01*
X0086988Y0161256D02*
X0114270Y0161256D01*
X0114270Y0162255D02*
X0087987Y0162255D01*
X0088985Y0163253D02*
X0114270Y0163253D01*
X0114270Y0164252D02*
X0089984Y0164252D01*
X0090982Y0165250D02*
X0114270Y0165250D01*
X0114270Y0166249D02*
X0091981Y0166249D01*
X0092979Y0167247D02*
X0114270Y0167247D01*
X0114270Y0168246D02*
X0093978Y0168246D01*
X0094976Y0169244D02*
X0114270Y0169244D01*
X0113280Y0170243D02*
X0095975Y0170243D01*
X0096973Y0171241D02*
X0112680Y0171241D01*
X0112266Y0172240D02*
X0097972Y0172240D01*
X0098970Y0173238D02*
X0112170Y0173238D01*
X0112170Y0174237D02*
X0099969Y0174237D01*
X0100967Y0175235D02*
X0112458Y0175235D01*
X0112871Y0176234D02*
X0101966Y0176234D01*
X0102965Y0177232D02*
X0113742Y0177232D01*
X0115188Y0178231D02*
X0103963Y0178231D01*
X0104962Y0179229D02*
X0127908Y0179229D01*
X0126910Y0180228D02*
X0105960Y0180228D01*
X0106959Y0181226D02*
X0125911Y0181226D01*
X0128907Y0178231D02*
X0119552Y0178231D01*
X0120998Y0177232D02*
X0129905Y0177232D01*
X0130904Y0176234D02*
X0121869Y0176234D01*
X0122282Y0175235D02*
X0131903Y0175235D01*
X0132901Y0174237D02*
X0122570Y0174237D01*
X0122570Y0173238D02*
X0133900Y0173238D01*
X0122474Y0172240D02*
X0152266Y0172240D01*
X0152170Y0173238D02*
X0149770Y0173238D01*
X0150769Y0174237D02*
X0152170Y0174237D01*
X0152458Y0175235D02*
X0151767Y0175235D01*
X0152766Y0176234D02*
X0152871Y0176234D01*
X0152680Y0171241D02*
X0122060Y0171241D01*
X0121460Y0170243D02*
X0153280Y0170243D01*
X0154270Y0162255D02*
X0149986Y0162255D01*
X0134247Y0155265D02*
X0123513Y0155265D01*
X0121999Y0152270D02*
X0134769Y0152270D01*
X0133771Y0151271D02*
X0121585Y0151271D01*
X0120854Y0150273D02*
X0132870Y0150273D01*
X0134784Y0142284D02*
X0121967Y0142284D01*
X0121570Y0141286D02*
X0133786Y0141286D01*
X0132870Y0140287D02*
X0120869Y0140287D01*
X0119556Y0139289D02*
X0132870Y0139289D01*
X0132870Y0137292D02*
X0077495Y0137292D01*
X0077082Y0136293D02*
X0133219Y0136293D01*
X0134217Y0135295D02*
X0076513Y0135295D01*
X0072370Y0138506D02*
X0072370Y0131686D01*
X0071350Y0130666D01*
X0071350Y0088756D01*
X0090400Y0069706D01*
X0099290Y0069706D01*
X0104370Y0074786D01*
X0104370Y0091206D01*
X0106670Y0093506D01*
X0113086Y0086368D02*
X0128129Y0086368D01*
X0127968Y0086683D02*
X0128307Y0086017D01*
X0128747Y0085412D01*
X0129276Y0084883D01*
X0129880Y0084444D01*
X0130547Y0084104D01*
X0131258Y0083873D01*
X0131996Y0083756D01*
X0132181Y0083756D01*
X0132181Y0088317D01*
X0127620Y0088317D01*
X0127620Y0088132D01*
X0127737Y0087394D01*
X0127968Y0086683D01*
X0127746Y0087366D02*
X0124058Y0087366D01*
X0125057Y0088365D02*
X0132181Y0088365D01*
X0132559Y0088365D02*
X0137183Y0088365D01*
X0136994Y0087366D02*
X0137701Y0087366D01*
X0138114Y0086368D02*
X0136611Y0086368D01*
X0135951Y0085369D02*
X0138789Y0085369D01*
X0139942Y0084371D02*
X0134716Y0084371D01*
X0132559Y0084371D02*
X0132181Y0084371D01*
X0132181Y0085369D02*
X0132559Y0085369D01*
X0132559Y0086368D02*
X0132181Y0086368D01*
X0132181Y0087366D02*
X0132559Y0087366D01*
X0130024Y0084371D02*
X0111392Y0084371D01*
X0112239Y0085369D02*
X0128789Y0085369D01*
X0127697Y0089363D02*
X0126056Y0089363D01*
X0127054Y0090362D02*
X0127984Y0090362D01*
X0128053Y0091360D02*
X0128572Y0091360D01*
X0128144Y0106338D02*
X0127367Y0106338D01*
X0127756Y0107337D02*
X0126368Y0107337D01*
X0127620Y0108695D02*
X0132181Y0108695D01*
X0132181Y0113256D01*
X0131996Y0113256D01*
X0131258Y0113139D01*
X0130547Y0112908D01*
X0129880Y0112569D01*
X0129276Y0112129D01*
X0128747Y0111601D01*
X0128307Y0110996D01*
X0127968Y0110330D01*
X0127737Y0109619D01*
X0127620Y0108880D01*
X0127620Y0108695D01*
X0127692Y0109334D02*
X0121871Y0109334D01*
X0120873Y0110332D02*
X0127969Y0110332D01*
X0128551Y0111331D02*
X0073350Y0111331D01*
X0073350Y0112329D02*
X0129551Y0112329D01*
X0132181Y0112329D02*
X0132559Y0112329D01*
X0132559Y0111331D02*
X0132181Y0111331D01*
X0132181Y0110332D02*
X0132559Y0110332D01*
X0132559Y0109334D02*
X0132181Y0109334D01*
X0132181Y0108335D02*
X0122870Y0108335D01*
X0113867Y0110332D02*
X0073350Y0110332D01*
X0073350Y0109334D02*
X0112869Y0109334D01*
X0111870Y0108335D02*
X0108600Y0108335D01*
X0110194Y0107337D02*
X0110872Y0107337D01*
X0132559Y0108335D02*
X0136870Y0108335D01*
X0137048Y0109334D02*
X0137620Y0109334D01*
X0137985Y0110332D02*
X0136771Y0110332D01*
X0136189Y0111331D02*
X0138477Y0111331D01*
X0139475Y0112329D02*
X0135189Y0112329D01*
X0139524Y0134296D02*
X0145216Y0134296D01*
X0144217Y0135295D02*
X0140523Y0135295D01*
X0141521Y0136293D02*
X0143219Y0136293D01*
X0142870Y0137292D02*
X0141870Y0137292D01*
X0141870Y0139289D02*
X0142870Y0139289D01*
X0142870Y0140287D02*
X0141870Y0140287D01*
X0140954Y0141286D02*
X0143786Y0141286D01*
X0117559Y0141286D02*
X0117181Y0141286D01*
X0117181Y0142284D02*
X0117559Y0142284D01*
X0117559Y0143283D02*
X0117181Y0143283D01*
X0117181Y0143317D02*
X0117559Y0143317D01*
X0117559Y0143695D01*
X0117181Y0143695D01*
X0117181Y0143317D01*
X0117181Y0138756D01*
X0116996Y0138756D01*
X0116258Y0138873D01*
X0115547Y0139104D01*
X0114880Y0139444D01*
X0114276Y0139883D01*
X0113747Y0140412D01*
X0113307Y0141017D01*
X0112968Y0141683D01*
X0112737Y0142394D01*
X0112620Y0143132D01*
X0112620Y0143317D01*
X0117181Y0143317D01*
X0117181Y0143695D02*
X0112620Y0143695D01*
X0112620Y0143880D01*
X0112737Y0144619D01*
X0112968Y0145330D01*
X0113307Y0145996D01*
X0113747Y0146601D01*
X0114276Y0147129D01*
X0114880Y0147569D01*
X0115547Y0147908D01*
X0116258Y0148139D01*
X0116996Y0148256D01*
X0117181Y0148256D01*
X0117181Y0143695D01*
X0117181Y0144282D02*
X0117559Y0144282D01*
X0117559Y0145280D02*
X0117181Y0145280D01*
X0117181Y0146279D02*
X0117559Y0146279D01*
X0117559Y0147277D02*
X0117181Y0147277D01*
X0114479Y0147277D02*
X0105261Y0147277D01*
X0106227Y0146279D02*
X0113513Y0146279D01*
X0112952Y0145280D02*
X0106788Y0145280D01*
X0107056Y0144282D02*
X0112684Y0144282D01*
X0112620Y0143283D02*
X0107120Y0143283D01*
X0106967Y0142284D02*
X0112773Y0142284D01*
X0113170Y0141286D02*
X0106570Y0141286D01*
X0105869Y0140287D02*
X0113871Y0140287D01*
X0115184Y0139289D02*
X0104556Y0139289D01*
X0102559Y0139289D02*
X0102181Y0139289D01*
X0102181Y0140287D02*
X0102559Y0140287D01*
X0102559Y0141286D02*
X0102181Y0141286D01*
X0102181Y0142284D02*
X0102559Y0142284D01*
X0102559Y0143283D02*
X0102181Y0143283D01*
X0102181Y0144282D02*
X0102559Y0144282D01*
X0102559Y0145280D02*
X0102181Y0145280D01*
X0102181Y0146279D02*
X0102559Y0146279D01*
X0102559Y0147277D02*
X0102181Y0147277D01*
X0099479Y0147277D02*
X0073009Y0147277D01*
X0072011Y0146279D02*
X0098513Y0146279D01*
X0097952Y0145280D02*
X0071012Y0145280D01*
X0060970Y0138506D02*
X0067540Y0131936D01*
X0062351Y0134296D02*
X0060514Y0134296D01*
X0060970Y0138506D02*
X0057370Y0138506D01*
X0059988Y0128139D02*
X0059277Y0127908D01*
X0058610Y0127569D01*
X0058006Y0127129D01*
X0057477Y0126601D01*
X0057037Y0125996D01*
X0056698Y0125330D01*
X0056467Y0124619D01*
X0056350Y0123880D01*
X0056350Y0123695D01*
X0060911Y0123695D01*
X0060911Y0128256D01*
X0060726Y0128256D01*
X0059988Y0128139D01*
X0060911Y0127307D02*
X0061289Y0127307D01*
X0061289Y0126308D02*
X0060911Y0126308D01*
X0060911Y0125310D02*
X0061289Y0125310D01*
X0061289Y0124311D02*
X0060911Y0124311D01*
X0060911Y0123317D02*
X0056350Y0123317D01*
X0056350Y0123132D01*
X0056467Y0122394D01*
X0056698Y0121683D01*
X0057037Y0121017D01*
X0057477Y0120412D01*
X0058006Y0119883D01*
X0058610Y0119444D01*
X0059277Y0119104D01*
X0059988Y0118873D01*
X0060726Y0118756D01*
X0060911Y0118756D01*
X0060911Y0123317D01*
X0060911Y0123313D02*
X0061289Y0123313D01*
X0061289Y0122314D02*
X0060911Y0122314D01*
X0060911Y0121316D02*
X0061289Y0121316D01*
X0061289Y0120317D02*
X0060911Y0120317D01*
X0060911Y0119319D02*
X0061289Y0119319D01*
X0063344Y0119319D02*
X0065540Y0119319D01*
X0065540Y0120317D02*
X0064628Y0120317D01*
X0065315Y0121316D02*
X0065540Y0121316D01*
X0065540Y0118320D02*
X0038490Y0118320D01*
X0038490Y0117322D02*
X0065540Y0117322D01*
X0065540Y0116323D02*
X0038490Y0116323D01*
X0038490Y0115325D02*
X0065540Y0115325D01*
X0065540Y0114326D02*
X0038490Y0114326D01*
X0038490Y0113328D02*
X0065540Y0113328D01*
X0065540Y0112329D02*
X0038490Y0112329D01*
X0038490Y0111331D02*
X0065540Y0111331D01*
X0065540Y0110332D02*
X0038490Y0110332D01*
X0038293Y0109334D02*
X0065540Y0109334D01*
X0065540Y0108335D02*
X0037597Y0108335D01*
X0036599Y0107337D02*
X0046350Y0107337D01*
X0046350Y0106338D02*
X0035600Y0106338D01*
X0034602Y0105340D02*
X0046350Y0105340D01*
X0046350Y0104341D02*
X0033603Y0104341D01*
X0032605Y0103343D02*
X0046350Y0103343D01*
X0055850Y0103343D02*
X0060911Y0103343D01*
X0060911Y0103317D02*
X0056350Y0103317D01*
X0056350Y0103132D01*
X0056467Y0102394D01*
X0056698Y0101683D01*
X0057037Y0101017D01*
X0057477Y0100412D01*
X0058006Y0099883D01*
X0058610Y0099444D01*
X0059277Y0099104D01*
X0059988Y0098873D01*
X0060726Y0098756D01*
X0060911Y0098756D01*
X0060911Y0103317D01*
X0060911Y0103695D02*
X0056350Y0103695D01*
X0056350Y0103880D01*
X0056467Y0104619D01*
X0056698Y0105330D01*
X0057037Y0105996D01*
X0057477Y0106601D01*
X0058006Y0107129D01*
X0058610Y0107569D01*
X0059277Y0107908D01*
X0059988Y0108139D01*
X0060726Y0108256D01*
X0060911Y0108256D01*
X0060911Y0103695D01*
X0060911Y0104341D02*
X0061289Y0104341D01*
X0061289Y0105340D02*
X0060911Y0105340D01*
X0060911Y0106338D02*
X0061289Y0106338D01*
X0061289Y0107337D02*
X0060911Y0107337D01*
X0058291Y0107337D02*
X0055850Y0107337D01*
X0055850Y0106338D02*
X0057286Y0106338D01*
X0056703Y0105340D02*
X0055850Y0105340D01*
X0055850Y0104341D02*
X0056423Y0104341D01*
X0056483Y0102344D02*
X0055850Y0102344D01*
X0055850Y0101346D02*
X0056870Y0101346D01*
X0057542Y0100347D02*
X0055850Y0100347D01*
X0055564Y0099348D02*
X0058797Y0099348D01*
X0060911Y0099348D02*
X0061289Y0099348D01*
X0061289Y0100347D02*
X0060911Y0100347D01*
X0060911Y0101346D02*
X0061289Y0101346D01*
X0061289Y0102344D02*
X0060911Y0102344D01*
X0063403Y0099348D02*
X0065540Y0099348D01*
X0065540Y0100347D02*
X0064658Y0100347D01*
X0065330Y0101346D02*
X0065540Y0101346D01*
X0065497Y0105340D02*
X0065540Y0105340D01*
X0065540Y0106338D02*
X0064914Y0106338D01*
X0065540Y0107337D02*
X0063909Y0107337D01*
X0073350Y0102344D02*
X0074023Y0102344D01*
X0074410Y0101346D02*
X0073350Y0101346D01*
X0073350Y0100347D02*
X0075082Y0100347D01*
X0073350Y0113328D02*
X0169363Y0113328D01*
X0170361Y0114326D02*
X0073350Y0114326D01*
X0073350Y0115325D02*
X0171360Y0115325D01*
X0172358Y0116323D02*
X0073350Y0116323D01*
X0073350Y0117322D02*
X0173357Y0117322D01*
X0174355Y0118320D02*
X0073350Y0118320D01*
X0073350Y0129304D02*
X0210490Y0129304D01*
X0210490Y0130302D02*
X0202535Y0130302D01*
X0203436Y0131301D02*
X0210490Y0131301D01*
X0210490Y0132299D02*
X0203889Y0132299D01*
X0203996Y0134296D02*
X0209386Y0134296D01*
X0209294Y0134388D02*
X0209294Y0134388D01*
X0208408Y0135295D02*
X0203660Y0135295D01*
X0197670Y0133298D02*
X0210384Y0133298D01*
X0197670Y0132299D02*
X0197070Y0132299D01*
X0197070Y0131301D02*
X0197670Y0131301D01*
X0197670Y0130302D02*
X0197070Y0130302D01*
X0197070Y0133298D02*
X0188856Y0133298D01*
X0189854Y0134296D02*
X0190744Y0134296D01*
X0190853Y0135295D02*
X0191080Y0135295D01*
X0192205Y0130302D02*
X0073814Y0130302D01*
X0058250Y0127307D02*
X0054017Y0127307D01*
X0053791Y0127533D02*
X0052045Y0128256D01*
X0050155Y0128256D01*
X0048409Y0127533D01*
X0047073Y0126197D01*
X0046350Y0124451D01*
X0046350Y0122561D01*
X0047073Y0120816D01*
X0048409Y0119479D01*
X0050155Y0118756D01*
X0052045Y0118756D01*
X0053791Y0119479D01*
X0055127Y0120816D01*
X0055850Y0122561D01*
X0055850Y0124451D01*
X0055127Y0126197D01*
X0053791Y0127533D01*
X0055016Y0126308D02*
X0057264Y0126308D01*
X0056692Y0125310D02*
X0055494Y0125310D01*
X0055850Y0124311D02*
X0056418Y0124311D01*
X0056350Y0123313D02*
X0055850Y0123313D01*
X0055748Y0122314D02*
X0056493Y0122314D01*
X0056885Y0121316D02*
X0055334Y0121316D01*
X0054628Y0120317D02*
X0057572Y0120317D01*
X0058856Y0119319D02*
X0053403Y0119319D01*
X0048797Y0119319D02*
X0038490Y0119319D01*
X0038265Y0120317D02*
X0047572Y0120317D01*
X0046866Y0121316D02*
X0037529Y0121316D01*
X0036530Y0122314D02*
X0046452Y0122314D01*
X0046350Y0123313D02*
X0035532Y0123313D01*
X0034533Y0124311D02*
X0046350Y0124311D01*
X0046706Y0125310D02*
X0033535Y0125310D01*
X0030932Y0126308D02*
X0047185Y0126308D01*
X0048183Y0127307D02*
X0029933Y0127307D01*
X0030545Y0120317D02*
X0030891Y0120317D01*
X0031889Y0119319D02*
X0029546Y0119319D01*
X0014240Y0150273D02*
X0011820Y0150273D01*
X0011820Y0151271D02*
X0013241Y0151271D01*
X0012870Y0152270D02*
X0011820Y0152270D01*
X0011820Y0153268D02*
X0012870Y0153268D01*
X0012870Y0154267D02*
X0011820Y0154267D01*
X0011820Y0155265D02*
X0012870Y0155265D01*
X0013763Y0156264D02*
X0011820Y0156264D01*
X0011820Y0157262D02*
X0014762Y0157262D01*
X0019487Y0159259D02*
X0020370Y0159259D01*
X0027370Y0163506D02*
X0068630Y0163506D01*
X0057370Y0178506D02*
X0052370Y0183506D01*
X0027370Y0183506D01*
X0030456Y0180228D02*
X0052455Y0180228D01*
X0051821Y0181226D02*
X0031454Y0181226D01*
X0024717Y0187217D02*
X0024370Y0187217D01*
X0029442Y0189215D02*
X0058833Y0189215D01*
X0057835Y0190213D02*
X0030441Y0190213D01*
X0031439Y0191212D02*
X0056836Y0191212D01*
X0027870Y0204192D02*
X0026870Y0204192D01*
X0026870Y0205191D02*
X0027870Y0205191D01*
X0027870Y0206189D02*
X0026870Y0206189D01*
X0026870Y0207188D02*
X0027870Y0207188D01*
X0012149Y0222165D02*
X0006870Y0222165D01*
X0006870Y0221167D02*
X0010712Y0221167D01*
X0009714Y0220168D02*
X0006870Y0220168D01*
X0006870Y0219170D02*
X0008715Y0219170D01*
X0007717Y0218171D02*
X0006870Y0218171D01*
X0007591Y0218045D02*
X0007591Y0218045D01*
X0012795Y0190213D02*
X0014299Y0190213D01*
X0019457Y0179229D02*
X0020370Y0179229D01*
X0014732Y0177232D02*
X0011820Y0177232D01*
X0011820Y0176234D02*
X0013734Y0176234D01*
X0012870Y0175235D02*
X0011820Y0175235D01*
X0011820Y0174237D02*
X0012870Y0174237D01*
X0012870Y0173238D02*
X0011820Y0173238D01*
X0011820Y0172240D02*
X0012870Y0172240D01*
X0013271Y0171241D02*
X0011820Y0171241D01*
X0011820Y0170243D02*
X0014270Y0170243D01*
X0024370Y0169244D02*
X0025268Y0169244D01*
X0104565Y0149274D02*
X0115175Y0149274D01*
X0113886Y0150273D02*
X0105854Y0150273D01*
X0117181Y0140287D02*
X0117559Y0140287D01*
X0117559Y0139289D02*
X0117181Y0139289D01*
X0120470Y0161256D02*
X0120908Y0161256D01*
X0171440Y0155265D02*
X0171793Y0155265D01*
X0177827Y0147277D02*
X0179781Y0147277D01*
X0189949Y0161256D02*
X0191264Y0161256D01*
X0190851Y0162255D02*
X0188950Y0162255D01*
X0187951Y0163253D02*
X0190670Y0163253D01*
X0190670Y0164252D02*
X0186953Y0164252D01*
X0185954Y0165250D02*
X0191055Y0165250D01*
X0191714Y0166249D02*
X0184956Y0166249D01*
X0190421Y0176234D02*
X0191699Y0176234D01*
X0191283Y0191212D02*
X0172796Y0191212D01*
X0172078Y0192210D02*
X0171798Y0192210D01*
X0171079Y0193209D02*
X0170799Y0193209D01*
X0173120Y0188216D02*
X0270652Y0188216D01*
X0274052Y0178231D02*
X0282791Y0178231D01*
X0270580Y0208186D02*
X0204878Y0208186D01*
X0220770Y0247128D02*
X0221770Y0247128D01*
X0221770Y0248127D02*
X0220770Y0248127D01*
X0220770Y0249125D02*
X0221770Y0249125D01*
X0221770Y0250124D02*
X0220770Y0250124D01*
X0199006Y0254118D02*
X0022992Y0254118D01*
X0014309Y0255116D02*
X0006870Y0255116D01*
X0006870Y0254118D02*
X0011748Y0254118D01*
X0010178Y0253119D02*
X0006870Y0253119D01*
X0006870Y0252121D02*
X0009014Y0252121D01*
X0008095Y0251122D02*
X0006870Y0251122D01*
X0006870Y0250124D02*
X0007356Y0250124D01*
X0110545Y0083372D02*
X0190670Y0083372D01*
X0190801Y0082374D02*
X0110180Y0082374D01*
X0110180Y0081375D02*
X0191215Y0081375D01*
X0192101Y0080377D02*
X0110180Y0080377D01*
X0110180Y0077381D02*
X0193411Y0077381D01*
X0191848Y0076383D02*
X0110180Y0076383D01*
X0110180Y0075384D02*
X0191110Y0075384D01*
X0190696Y0074386D02*
X0110180Y0074386D01*
X0110180Y0073387D02*
X0190670Y0073387D01*
X0190795Y0072389D02*
X0109881Y0072389D01*
X0108882Y0071390D02*
X0191209Y0071390D01*
X0192086Y0070392D02*
X0107884Y0070392D01*
X0106885Y0069393D02*
X0210163Y0069393D01*
X0209164Y0068395D02*
X0105887Y0068395D01*
X0104888Y0067396D02*
X0208166Y0067396D01*
X0207167Y0066398D02*
X0103890Y0066398D01*
X0102891Y0065399D02*
X0206169Y0065399D01*
X0205170Y0064401D02*
X0101893Y0064401D01*
X0103112Y0056413D02*
X0104112Y0056413D01*
X0104112Y0056585D02*
X0104112Y0047335D01*
X0110362Y0047335D01*
X0110362Y0055282D01*
X0110259Y0055664D01*
X0110062Y0056006D01*
X0109783Y0056285D01*
X0109441Y0056482D01*
X0109059Y0056585D01*
X0104112Y0056585D01*
X0104112Y0055414D02*
X0103112Y0055414D01*
X0103112Y0054415D02*
X0104112Y0054415D01*
X0104112Y0053417D02*
X0103112Y0053417D01*
X0103112Y0052418D02*
X0104112Y0052418D01*
X0104112Y0051420D02*
X0103112Y0051420D01*
X0103112Y0050421D02*
X0104112Y0050421D01*
X0104112Y0049423D02*
X0103112Y0049423D01*
X0103112Y0048424D02*
X0104112Y0048424D01*
X0104112Y0047426D02*
X0103112Y0047426D01*
X0103112Y0046427D02*
X0027073Y0046427D01*
X0027722Y0047426D02*
X0096862Y0047426D01*
X0096862Y0048424D02*
X0028242Y0048424D01*
X0028655Y0049423D02*
X0096862Y0049423D01*
X0096862Y0050421D02*
X0028974Y0050421D01*
X0029202Y0051420D02*
X0096862Y0051420D01*
X0096862Y0052418D02*
X0029323Y0052418D01*
X0029343Y0054415D02*
X0096862Y0054415D01*
X0096862Y0053417D02*
X0017870Y0053417D01*
X0017870Y0054415D02*
X0016870Y0054415D01*
X0016870Y0055414D02*
X0017870Y0055414D01*
X0017870Y0056413D02*
X0016870Y0056413D01*
X0016870Y0057411D02*
X0017870Y0057411D01*
X0017870Y0058410D02*
X0016870Y0058410D01*
X0016870Y0059408D02*
X0017870Y0059408D01*
X0017870Y0060407D02*
X0016870Y0060407D01*
X0016870Y0061405D02*
X0017870Y0061405D01*
X0017870Y0062404D02*
X0016870Y0062404D01*
X0016870Y0063402D02*
X0017870Y0063402D01*
X0017870Y0064401D02*
X0016870Y0064401D01*
X0016870Y0065399D02*
X0017870Y0065399D01*
X0018995Y0065399D02*
X0086799Y0065399D01*
X0087797Y0064401D02*
X0022405Y0064401D01*
X0024176Y0063402D02*
X0116542Y0063402D01*
X0115543Y0062404D02*
X0025443Y0062404D01*
X0026420Y0061405D02*
X0114660Y0061405D01*
X0114270Y0060407D02*
X0027207Y0060407D01*
X0027834Y0059408D02*
X0114270Y0059408D01*
X0114270Y0058410D02*
X0028328Y0058410D01*
X0028717Y0057411D02*
X0114270Y0057411D01*
X0113077Y0056413D02*
X0109562Y0056413D01*
X0110326Y0055414D02*
X0112370Y0055414D01*
X0112370Y0054415D02*
X0110362Y0054415D01*
X0110362Y0053417D02*
X0112370Y0053417D01*
X0112370Y0052418D02*
X0110362Y0052418D01*
X0110362Y0051420D02*
X0112370Y0051420D01*
X0112370Y0050421D02*
X0110362Y0050421D01*
X0110362Y0049423D02*
X0112370Y0049423D01*
X0112370Y0048424D02*
X0110362Y0048424D01*
X0110362Y0047426D02*
X0112370Y0047426D01*
X0112370Y0046427D02*
X0104112Y0046427D01*
X0110362Y0045429D02*
X0112370Y0045429D01*
X0112370Y0044430D02*
X0110362Y0044430D01*
X0110362Y0043432D02*
X0112370Y0043432D01*
X0122370Y0043432D02*
X0124378Y0043432D01*
X0124378Y0043006D02*
X0122370Y0043006D01*
X0122370Y0055706D01*
X0121491Y0056585D01*
X0120470Y0056585D01*
X0120470Y0057716D01*
X0164751Y0057716D01*
X0164709Y0057510D01*
X0164770Y0057203D01*
X0164770Y0056585D01*
X0163249Y0056585D01*
X0162370Y0055706D01*
X0162370Y0043006D01*
X0160362Y0043006D01*
X0160362Y0046335D01*
X0154112Y0046335D01*
X0154112Y0047335D01*
X0153112Y0047335D01*
X0153112Y0056585D01*
X0148164Y0056585D01*
X0147783Y0056482D01*
X0147441Y0056285D01*
X0147161Y0056006D01*
X0146964Y0055664D01*
X0146862Y0055282D01*
X0146862Y0047335D01*
X0153112Y0047335D01*
X0153112Y0046335D01*
X0146862Y0046335D01*
X0146862Y0043006D01*
X0137878Y0043006D01*
X0137878Y0046335D01*
X0131628Y0046335D01*
X0131628Y0047335D01*
X0130628Y0047335D01*
X0130628Y0056585D01*
X0125681Y0056585D01*
X0125299Y0056482D01*
X0124957Y0056285D01*
X0124678Y0056006D01*
X0124480Y0055664D01*
X0124378Y0055282D01*
X0124378Y0047335D01*
X0130628Y0047335D01*
X0130628Y0046335D01*
X0124378Y0046335D01*
X0124378Y0043006D01*
X0124378Y0044430D02*
X0122370Y0044430D01*
X0122370Y0045429D02*
X0124378Y0045429D01*
X0124378Y0047426D02*
X0122370Y0047426D01*
X0122370Y0048424D02*
X0124378Y0048424D01*
X0124378Y0049423D02*
X0122370Y0049423D01*
X0122370Y0050421D02*
X0124378Y0050421D01*
X0124378Y0051420D02*
X0122370Y0051420D01*
X0122370Y0052418D02*
X0124378Y0052418D01*
X0124378Y0053417D02*
X0122370Y0053417D01*
X0122370Y0054415D02*
X0124378Y0054415D01*
X0124414Y0055414D02*
X0122370Y0055414D01*
X0121663Y0056413D02*
X0125178Y0056413D01*
X0120470Y0057411D02*
X0164729Y0057411D01*
X0163077Y0056413D02*
X0159562Y0056413D01*
X0159441Y0056482D02*
X0159059Y0056585D01*
X0154112Y0056585D01*
X0154112Y0047335D01*
X0160362Y0047335D01*
X0160362Y0055282D01*
X0160259Y0055664D01*
X0160062Y0056006D01*
X0159783Y0056285D01*
X0159441Y0056482D01*
X0160326Y0055414D02*
X0162370Y0055414D01*
X0162370Y0054415D02*
X0160362Y0054415D01*
X0160362Y0053417D02*
X0162370Y0053417D01*
X0162370Y0052418D02*
X0160362Y0052418D01*
X0160362Y0051420D02*
X0162370Y0051420D01*
X0162370Y0050421D02*
X0160362Y0050421D01*
X0160362Y0049423D02*
X0162370Y0049423D01*
X0162370Y0048424D02*
X0160362Y0048424D01*
X0160362Y0047426D02*
X0162370Y0047426D01*
X0162370Y0046427D02*
X0154112Y0046427D01*
X0154112Y0047426D02*
X0153112Y0047426D01*
X0153112Y0048424D02*
X0154112Y0048424D01*
X0154112Y0049423D02*
X0153112Y0049423D01*
X0153112Y0050421D02*
X0154112Y0050421D01*
X0154112Y0051420D02*
X0153112Y0051420D01*
X0153112Y0052418D02*
X0154112Y0052418D01*
X0154112Y0053417D02*
X0153112Y0053417D01*
X0153112Y0054415D02*
X0154112Y0054415D01*
X0154112Y0055414D02*
X0153112Y0055414D01*
X0153112Y0056413D02*
X0154112Y0056413D01*
X0147662Y0056413D02*
X0137078Y0056413D01*
X0136957Y0056482D02*
X0136576Y0056585D01*
X0131628Y0056585D01*
X0131628Y0047335D01*
X0137878Y0047335D01*
X0137878Y0055282D01*
X0137776Y0055664D01*
X0137579Y0056006D01*
X0137299Y0056285D01*
X0136957Y0056482D01*
X0137843Y0055414D02*
X0146897Y0055414D01*
X0146862Y0054415D02*
X0137878Y0054415D01*
X0137878Y0053417D02*
X0146862Y0053417D01*
X0146862Y0052418D02*
X0137878Y0052418D01*
X0137878Y0051420D02*
X0146862Y0051420D01*
X0146862Y0050421D02*
X0137878Y0050421D01*
X0137878Y0049423D02*
X0146862Y0049423D01*
X0146862Y0048424D02*
X0137878Y0048424D01*
X0137878Y0047426D02*
X0146862Y0047426D01*
X0146862Y0045429D02*
X0137878Y0045429D01*
X0137878Y0044430D02*
X0146862Y0044430D01*
X0146862Y0043432D02*
X0137878Y0043432D01*
X0131628Y0046427D02*
X0153112Y0046427D01*
X0160362Y0045429D02*
X0162370Y0045429D01*
X0162370Y0044430D02*
X0160362Y0044430D01*
X0160362Y0043432D02*
X0162370Y0043432D01*
X0172370Y0043432D02*
X0174378Y0043432D01*
X0174378Y0044430D02*
X0172370Y0044430D01*
X0172370Y0045429D02*
X0174378Y0045429D01*
X0174378Y0047426D02*
X0172370Y0047426D01*
X0172370Y0048424D02*
X0174378Y0048424D01*
X0174378Y0049423D02*
X0172370Y0049423D01*
X0172370Y0050421D02*
X0174378Y0050421D01*
X0174378Y0051420D02*
X0172370Y0051420D01*
X0172370Y0052418D02*
X0174378Y0052418D01*
X0174378Y0053417D02*
X0172370Y0053417D01*
X0172370Y0054415D02*
X0174378Y0054415D01*
X0174414Y0055414D02*
X0172370Y0055414D01*
X0171663Y0056413D02*
X0175178Y0056413D01*
X0180628Y0056413D02*
X0181628Y0056413D01*
X0181628Y0056585D02*
X0181628Y0047335D01*
X0187878Y0047335D01*
X0187878Y0055282D01*
X0187776Y0055664D01*
X0187579Y0056006D01*
X0187299Y0056285D01*
X0186957Y0056482D01*
X0186576Y0056585D01*
X0181628Y0056585D01*
X0181628Y0055414D02*
X0180628Y0055414D01*
X0180628Y0054415D02*
X0181628Y0054415D01*
X0181628Y0053417D02*
X0180628Y0053417D01*
X0180628Y0052418D02*
X0181628Y0052418D01*
X0181628Y0051420D02*
X0180628Y0051420D01*
X0180628Y0050421D02*
X0181628Y0050421D01*
X0181628Y0049423D02*
X0180628Y0049423D01*
X0180628Y0048424D02*
X0181628Y0048424D01*
X0181628Y0047426D02*
X0180628Y0047426D01*
X0180628Y0046427D02*
X0172370Y0046427D01*
X0181628Y0046427D02*
X0257667Y0046427D01*
X0257018Y0047426D02*
X0231881Y0047426D01*
X0231022Y0046566D02*
X0234390Y0049935D01*
X0234390Y0051816D01*
X0229140Y0051816D01*
X0229140Y0046566D01*
X0231022Y0046566D01*
X0229140Y0047426D02*
X0228140Y0047426D01*
X0228140Y0046566D02*
X0228140Y0051816D01*
X0229140Y0051816D01*
X0229140Y0052816D01*
X0234390Y0052816D01*
X0234390Y0054698D01*
X0231022Y0058066D01*
X0229140Y0058066D01*
X0229140Y0052816D01*
X0228140Y0052816D01*
X0228140Y0051816D01*
X0222890Y0051816D01*
X0222890Y0049935D01*
X0226258Y0046566D01*
X0228140Y0046566D01*
X0228140Y0048424D02*
X0229140Y0048424D01*
X0229140Y0049423D02*
X0228140Y0049423D01*
X0228140Y0050421D02*
X0229140Y0050421D01*
X0229140Y0051420D02*
X0228140Y0051420D01*
X0228140Y0052418D02*
X0187878Y0052418D01*
X0187878Y0051420D02*
X0222890Y0051420D01*
X0222890Y0050421D02*
X0187878Y0050421D01*
X0187878Y0049423D02*
X0223402Y0049423D01*
X0224400Y0048424D02*
X0187878Y0048424D01*
X0187878Y0047426D02*
X0225399Y0047426D01*
X0222890Y0052816D02*
X0228140Y0052816D01*
X0228140Y0058066D01*
X0226258Y0058066D01*
X0222890Y0054698D01*
X0222890Y0052816D01*
X0222890Y0053417D02*
X0187878Y0053417D01*
X0187878Y0054415D02*
X0222890Y0054415D01*
X0223606Y0055414D02*
X0187843Y0055414D01*
X0187078Y0056413D02*
X0224605Y0056413D01*
X0225603Y0057411D02*
X0171012Y0057411D01*
X0187878Y0045429D02*
X0258477Y0045429D01*
X0259504Y0044430D02*
X0187878Y0044430D01*
X0187878Y0043432D02*
X0260848Y0043432D01*
X0256498Y0048424D02*
X0232880Y0048424D01*
X0233878Y0049423D02*
X0256085Y0049423D01*
X0255765Y0050421D02*
X0234390Y0050421D01*
X0234390Y0051420D02*
X0255538Y0051420D01*
X0255417Y0052418D02*
X0229140Y0052418D01*
X0229140Y0053417D02*
X0228140Y0053417D01*
X0228140Y0054415D02*
X0229140Y0054415D01*
X0229140Y0055414D02*
X0228140Y0055414D01*
X0228140Y0056413D02*
X0229140Y0056413D01*
X0229140Y0057411D02*
X0228140Y0057411D01*
X0231677Y0057411D02*
X0256023Y0057411D01*
X0255725Y0056413D02*
X0232676Y0056413D01*
X0233674Y0055414D02*
X0255509Y0055414D01*
X0255397Y0054415D02*
X0234390Y0054415D01*
X0234390Y0053417D02*
X0266870Y0053417D01*
X0266870Y0054415D02*
X0267870Y0054415D01*
X0267870Y0053417D02*
X0282791Y0053417D01*
X0282791Y0054415D02*
X0279343Y0054415D01*
X0279231Y0055414D02*
X0282791Y0055414D01*
X0282791Y0056413D02*
X0279015Y0056413D01*
X0278717Y0057411D02*
X0282791Y0057411D01*
X0282791Y0058410D02*
X0278328Y0058410D01*
X0277834Y0059408D02*
X0282791Y0059408D01*
X0282791Y0060407D02*
X0277207Y0060407D01*
X0276420Y0061405D02*
X0282791Y0061405D01*
X0282791Y0062404D02*
X0275443Y0062404D01*
X0274176Y0063402D02*
X0282791Y0063402D01*
X0282791Y0064401D02*
X0272405Y0064401D01*
X0268995Y0065399D02*
X0282791Y0065399D01*
X0282791Y0070392D02*
X0267274Y0070392D01*
X0268272Y0071390D02*
X0282791Y0071390D01*
X0282791Y0072389D02*
X0269271Y0072389D01*
X0270269Y0073387D02*
X0282791Y0073387D01*
X0282791Y0074386D02*
X0271268Y0074386D01*
X0272266Y0075384D02*
X0282791Y0075384D01*
X0282791Y0076383D02*
X0273265Y0076383D01*
X0276809Y0077381D02*
X0282791Y0077381D01*
X0282791Y0078380D02*
X0277807Y0078380D01*
X0278806Y0079378D02*
X0282791Y0079378D01*
X0282791Y0080377D02*
X0279330Y0080377D01*
X0279330Y0081375D02*
X0282791Y0081375D01*
X0282791Y0082374D02*
X0279330Y0082374D01*
X0279330Y0083372D02*
X0282791Y0083372D01*
X0282791Y0084371D02*
X0278589Y0084371D01*
X0277591Y0085369D02*
X0282791Y0085369D01*
X0267870Y0065399D02*
X0266870Y0065399D01*
X0266870Y0064401D02*
X0267870Y0064401D01*
X0267870Y0063402D02*
X0266870Y0063402D01*
X0266870Y0062404D02*
X0267870Y0062404D01*
X0267870Y0061405D02*
X0266870Y0061405D01*
X0266870Y0060407D02*
X0267870Y0060407D01*
X0267870Y0059408D02*
X0266870Y0059408D01*
X0266870Y0058410D02*
X0267870Y0058410D01*
X0267870Y0057411D02*
X0266870Y0057411D01*
X0266870Y0056413D02*
X0267870Y0056413D01*
X0267870Y0055414D02*
X0266870Y0055414D01*
X0256906Y0059408D02*
X0208946Y0059408D01*
X0207953Y0058410D02*
X0256412Y0058410D01*
X0273892Y0043432D02*
X0282791Y0043432D01*
X0282791Y0044430D02*
X0275236Y0044430D01*
X0276263Y0045429D02*
X0282791Y0045429D01*
X0282791Y0046427D02*
X0277073Y0046427D01*
X0277722Y0047426D02*
X0282791Y0047426D01*
X0282791Y0048424D02*
X0278242Y0048424D01*
X0278655Y0049423D02*
X0282791Y0049423D01*
X0282791Y0050421D02*
X0278974Y0050421D01*
X0279202Y0051420D02*
X0282791Y0051420D01*
X0282791Y0052418D02*
X0279323Y0052418D01*
X0241960Y0098916D02*
X0227370Y0113506D01*
X0234070Y0103343D02*
X0234705Y0103343D01*
X0233926Y0102344D02*
X0235704Y0102344D01*
X0236702Y0101346D02*
X0233513Y0101346D01*
X0232609Y0100347D02*
X0237701Y0100347D01*
X0238455Y0126308D02*
X0232966Y0126308D01*
X0231509Y0127307D02*
X0239453Y0127307D01*
X0227370Y0153506D02*
X0222370Y0158506D01*
X0131628Y0056413D02*
X0130628Y0056413D01*
X0130628Y0055414D02*
X0131628Y0055414D01*
X0131628Y0054415D02*
X0130628Y0054415D01*
X0130628Y0053417D02*
X0131628Y0053417D01*
X0131628Y0052418D02*
X0130628Y0052418D01*
X0130628Y0051420D02*
X0131628Y0051420D01*
X0131628Y0050421D02*
X0130628Y0050421D01*
X0130628Y0049423D02*
X0131628Y0049423D01*
X0131628Y0048424D02*
X0130628Y0048424D01*
X0130628Y0047426D02*
X0131628Y0047426D01*
X0130628Y0046427D02*
X0122370Y0046427D01*
X0096862Y0045429D02*
X0026263Y0045429D01*
X0025236Y0044430D02*
X0096862Y0044430D01*
X0096862Y0043432D02*
X0023892Y0043432D01*
X0029231Y0055414D02*
X0096897Y0055414D01*
X0097662Y0056413D02*
X0029015Y0056413D01*
X0015745Y0065399D02*
X0006870Y0065399D01*
X0006870Y0064401D02*
X0012335Y0064401D01*
X0010564Y0063402D02*
X0006870Y0063402D01*
X0006870Y0062404D02*
X0009297Y0062404D01*
X0008320Y0061405D02*
X0006870Y0061405D01*
X0006870Y0060407D02*
X0007533Y0060407D01*
X0006906Y0059408D02*
X0006870Y0059408D01*
X0006870Y0066398D02*
X0085800Y0066398D01*
X0084802Y0067396D02*
X0006870Y0067396D01*
X0006870Y0068395D02*
X0083803Y0068395D01*
X0082805Y0069393D02*
X0006870Y0069393D01*
X0006870Y0070392D02*
X0081806Y0070392D01*
X0080808Y0071390D02*
X0006870Y0071390D01*
X0090546Y0072389D02*
X0099144Y0072389D01*
D25*
X0099290Y0077326D03*
X0109450Y0067166D03*
X0124690Y0069706D03*
X0123420Y0084946D03*
X0143740Y0069706D03*
X0148820Y0082406D03*
X0164060Y0069706D03*
X0185650Y0069706D03*
X0192000Y0054466D03*
X0192000Y0045576D03*
X0202160Y0065896D03*
X0207240Y0073516D03*
X0217400Y0058276D03*
X0236450Y0069706D03*
X0241530Y0063356D03*
X0246610Y0057006D03*
X0219940Y0088756D03*
X0207240Y0088756D03*
X0205970Y0107806D03*
X0205970Y0128126D03*
X0205970Y0143366D03*
X0186920Y0154796D03*
X0179300Y0161146D03*
X0170410Y0158606D03*
X0166600Y0170036D03*
X0183110Y0172576D03*
X0188190Y0178926D03*
X0189870Y0169006D03*
X0205370Y0168506D03*
X0217400Y0177656D03*
X0218670Y0187816D03*
X0212320Y0204326D03*
X0195810Y0218296D03*
X0188190Y0205596D03*
X0179300Y0218296D03*
X0158820Y0213216D03*
X0183980Y0238456D03*
X0160090Y0243696D03*
X0127230Y0236076D03*
X0091590Y0218296D03*
X0078890Y0218296D03*
X0062460Y0205596D03*
X0047220Y0205596D03*
X0033250Y0189086D03*
X0033250Y0178926D03*
X0045950Y0168766D03*
X0057380Y0168766D03*
X0086590Y0153526D03*
X0096750Y0162416D03*
X0109450Y0162416D03*
X0131040Y0164956D03*
X0141200Y0170036D03*
X0150090Y0170036D03*
X0131040Y0153526D03*
X0131040Y0143366D03*
X0133580Y0129396D03*
X0145010Y0129396D03*
X0156440Y0134476D03*
X0166600Y0129396D03*
X0174220Y0121776D03*
X0183110Y0129396D03*
X0148820Y0115426D03*
X0179300Y0095106D03*
X0142470Y0049386D03*
X0092940Y0046846D03*
X0092940Y0055736D03*
X0077700Y0069706D03*
X0068810Y0079866D03*
X0062460Y0093836D03*
X0062460Y0114156D03*
X0057380Y0129396D03*
X0047220Y0138286D03*
X0082780Y0138286D03*
X0104370Y0119236D03*
X0117070Y0119236D03*
X0109450Y0135746D03*
X0014200Y0091296D03*
X0014200Y0078596D03*
X0062380Y0233536D03*
X0245340Y0213216D03*
X0259310Y0213216D03*
X0252960Y0189086D03*
X0252960Y0168766D03*
X0245340Y0144636D03*
X0261850Y0144636D03*
X0244070Y0110346D03*
D26*
X0242370Y0123506D02*
X0227370Y0123506D01*
X0227370Y0133506D01*
X0224870Y0136006D01*
X0222370Y0136006D01*
X0209870Y0148506D01*
X0182370Y0148506D01*
X0172270Y0158606D01*
X0170410Y0158606D01*
X0189460Y0138286D02*
X0209780Y0138286D01*
X0211050Y0137016D01*
X0274830Y0081766D02*
X0265310Y0072246D01*
X0242800Y0072246D01*
X0241530Y0070976D01*
X0241530Y0063356D01*
X0161360Y0228456D02*
X0142420Y0228456D01*
X0142370Y0228506D01*
X0161360Y0228456D02*
X0172370Y0239466D01*
X0172370Y0243506D01*
X0172370Y0249196D01*
X0171520Y0250046D01*
X0047140Y0250046D01*
X0047140Y0243236D01*
X0047370Y0243006D01*
X0048410Y0241966D01*
X0048410Y0228456D01*
X0039520Y0219566D01*
X0012930Y0219566D01*
X0009120Y0215756D01*
X0009120Y0190356D01*
X0012270Y0193506D01*
X0017370Y0193506D01*
X0009120Y0190356D02*
X0009120Y0107806D01*
X0011660Y0105266D01*
X0030710Y0105266D01*
X0035790Y0110346D01*
X0035790Y0119236D01*
X0031980Y0123046D01*
X0027830Y0123046D01*
X0027370Y0123506D01*
D27*
X0102370Y0153506D02*
X0117370Y0153506D01*
X0122370Y0158506D01*
X0137370Y0158506D01*
X0137370Y0148506D02*
X0147370Y0148506D01*
X0153840Y0148506D01*
X0167870Y0134476D01*
X0185650Y0134476D01*
X0189460Y0138286D01*
X0197370Y0143506D02*
X0172370Y0143506D01*
X0157370Y0158506D01*
X0157370Y0173506D01*
X0157370Y0158506D02*
X0147370Y0158506D01*
X0170410Y0144636D02*
X0171240Y0144636D01*
X0172370Y0143506D01*
X0171540Y0143506D01*
X0170410Y0144636D01*
X0211050Y0137016D02*
X0211050Y0137016D01*
X0213590Y0134476D01*
X0213590Y0068436D01*
X0205970Y0060816D01*
X0185650Y0060546D01*
X0168505Y0060681D01*
X0183110Y0060816D01*
X0118340Y0060816D01*
X0117370Y0059846D01*
X0117370Y0046835D01*
X0167370Y0046835D02*
X0167870Y0046095D01*
X0167870Y0045576D01*
X0167870Y0046095D02*
X0167870Y0057506D01*
X0168505Y0060681D01*
X0117370Y0153506D02*
X0117370Y0173506D01*
X0252370Y0153506D02*
X0252960Y0153506D01*
D28*
X0271870Y0153506D01*
X0272370Y0153006D01*
X0272870Y0163506D02*
X0227370Y0163506D01*
X0227370Y0153506D02*
X0252370Y0153506D01*
X0271870Y0173506D02*
X0227370Y0173506D01*
X0227370Y0183506D02*
X0272870Y0183506D01*
X0271870Y0193506D02*
X0227370Y0193506D01*
X0227370Y0203506D02*
X0272870Y0203506D01*
X0197370Y0123506D02*
X0196910Y0123046D01*
X0186920Y0123046D01*
X0171880Y0108006D01*
X0162370Y0108006D01*
X0161870Y0108506D01*
X0142370Y0108506D01*
X0135320Y0101456D01*
X0127230Y0101456D01*
X0125180Y0103506D01*
X0118070Y0103506D01*
X0118070Y0093506D02*
X0123090Y0093506D01*
X0124690Y0095106D01*
X0135770Y0095106D01*
X0142370Y0088506D01*
X0161870Y0088506D01*
X0162370Y0089006D01*
X0163040Y0089006D01*
X0188190Y0114156D01*
X0196720Y0114156D01*
X0197370Y0113506D01*
M02*
