G04 Layer_Color=16711935*
%FSLAX25Y25*%
%MOIN*%
G70*
G01*
G75*
%ADD37C,0.06706*%
%ADD38R,0.06706X0.06706*%
%ADD39C,0.17623*%
%ADD40O,0.11800X0.06800*%
%ADD41R,0.11800X0.06800*%
%ADD42O,0.06800X0.11800*%
%ADD43R,0.06800X0.11800*%
%ADD44C,0.03800*%
%ADD45C,0.10236*%
D37*
X410000Y257000D02*
D03*
Y267000D02*
D03*
Y277000D02*
D03*
Y287000D02*
D03*
Y297000D02*
D03*
Y307000D02*
D03*
Y317000D02*
D03*
Y327000D02*
D03*
Y337000D02*
D03*
Y347000D02*
D03*
Y357000D02*
D03*
Y367000D02*
D03*
Y377000D02*
D03*
Y387000D02*
D03*
X380000Y257000D02*
D03*
Y267000D02*
D03*
Y277000D02*
D03*
Y287000D02*
D03*
Y297000D02*
D03*
Y307000D02*
D03*
Y317000D02*
D03*
Y327000D02*
D03*
Y337000D02*
D03*
Y347000D02*
D03*
Y357000D02*
D03*
Y367000D02*
D03*
Y377000D02*
D03*
D38*
Y387000D02*
D03*
D39*
X384000Y228500D02*
D03*
X314000Y428500D02*
D03*
X464000D02*
D03*
D40*
X484000Y218500D02*
D03*
Y228500D02*
D03*
Y238500D02*
D03*
Y248500D02*
D03*
Y258500D02*
D03*
Y268500D02*
D03*
Y278500D02*
D03*
Y288500D02*
D03*
Y298500D02*
D03*
Y308500D02*
D03*
Y318500D02*
D03*
Y328500D02*
D03*
Y338500D02*
D03*
Y348500D02*
D03*
Y358500D02*
D03*
Y368500D02*
D03*
Y378500D02*
D03*
Y388500D02*
D03*
Y398500D02*
D03*
X294000Y218500D02*
D03*
Y228500D02*
D03*
Y238500D02*
D03*
Y248500D02*
D03*
Y258500D02*
D03*
Y268500D02*
D03*
Y278500D02*
D03*
Y288500D02*
D03*
Y298500D02*
D03*
Y308500D02*
D03*
Y318500D02*
D03*
Y328500D02*
D03*
Y338500D02*
D03*
Y348500D02*
D03*
Y358500D02*
D03*
Y368500D02*
D03*
Y378500D02*
D03*
Y388500D02*
D03*
Y398500D02*
D03*
D41*
X484000Y408500D02*
D03*
X294000D02*
D03*
D42*
X484000Y198500D02*
D03*
X474000D02*
D03*
X464000D02*
D03*
X454000D02*
D03*
X444000D02*
D03*
X434000D02*
D03*
X424000D02*
D03*
X414000D02*
D03*
X404000D02*
D03*
X394000D02*
D03*
X384000D02*
D03*
X374000D02*
D03*
X364000D02*
D03*
X354000D02*
D03*
X344000D02*
D03*
X334000D02*
D03*
X324000D02*
D03*
X314000D02*
D03*
X304000D02*
D03*
D43*
X294000D02*
D03*
D44*
X321000Y313000D02*
D03*
X313500Y286000D02*
D03*
X314000Y275000D02*
D03*
X321000Y322000D02*
D03*
X351000Y354000D02*
D03*
X344000D02*
D03*
X326500D02*
D03*
X333000D02*
D03*
X465000Y218000D02*
D03*
Y228500D02*
D03*
Y238500D02*
D03*
X389500Y317500D02*
D03*
X399000Y316500D02*
D03*
X395000Y301000D02*
D03*
X423500Y302000D02*
D03*
X394500Y317000D02*
D03*
X391000Y341500D02*
D03*
X395000Y344500D02*
D03*
X399000Y341500D02*
D03*
X357500Y338500D02*
D03*
X351500Y331500D02*
D03*
X360000Y334500D02*
D03*
X356000Y329000D02*
D03*
X438500Y318000D02*
D03*
Y311000D02*
D03*
X456500Y332500D02*
D03*
D45*
X393055Y228500D02*
G03*
X393055Y228500I-9055J0D01*
G01*
X323055Y428500D02*
G03*
X323055Y428500I-9055J0D01*
G01*
X473055D02*
G03*
X473055Y428500I-9055J0D01*
G01*
M02*
