G04 Layer_Color=32896*
%FSLAX25Y25*%
%MOIN*%
G70*
G01*
G75*
%ADD17C,0.01000*%
G36*
X317167Y216647D02*
Y216601D01*
Y216508D01*
Y216416D01*
Y216323D01*
Y216231D01*
Y216184D01*
Y216161D01*
Y215791D01*
Y215444D01*
Y215282D01*
Y215166D01*
Y215097D01*
Y215073D01*
Y214657D01*
Y214472D01*
Y214310D01*
Y214171D01*
Y214078D01*
Y214009D01*
Y213986D01*
Y213824D01*
Y213708D01*
Y213616D01*
Y213569D01*
Y213500D01*
X304509D01*
Y213523D01*
Y213569D01*
Y213755D01*
Y213916D01*
Y213963D01*
Y213986D01*
Y214356D01*
Y214703D01*
Y214865D01*
Y214981D01*
Y215050D01*
Y215073D01*
Y215490D01*
Y215675D01*
Y215837D01*
Y215976D01*
Y216069D01*
Y216138D01*
Y216161D01*
Y216323D01*
Y216462D01*
Y216554D01*
Y216601D01*
Y216647D01*
Y216670D01*
X317167D01*
Y216647D01*
D02*
G37*
G36*
X318000Y234210D02*
X314089Y230138D01*
X313974Y229027D01*
X313719Y226366D01*
X313534Y224445D01*
X317722Y220118D01*
X317445Y219840D01*
X313488Y223890D01*
X313256Y221414D01*
X313141D01*
Y220465D01*
X312261D01*
Y221414D01*
X309531D01*
X309438Y221229D01*
X309299Y221044D01*
X309114Y220835D01*
X308860Y220650D01*
X308559Y220558D01*
X308281Y220535D01*
X308003D01*
X307795Y220604D01*
X307541Y220696D01*
X307332Y220835D01*
X307171Y220997D01*
X307009Y221229D01*
X306893Y221483D01*
X306823Y221715D01*
X306800Y221923D01*
X306823Y222154D01*
X306870Y222340D01*
X306939Y222525D01*
X307032Y222710D01*
X307147Y222872D01*
X307309Y223034D01*
X307494Y223149D01*
X307656Y223219D01*
X307633Y223427D01*
X304162Y219840D01*
X303885Y220141D01*
X307587Y223982D01*
X307286Y227338D01*
X307078Y229767D01*
X305967D01*
Y231318D01*
X306268D01*
X303445Y234210D01*
X303746Y234488D01*
X306384Y231757D01*
Y231966D01*
X306337Y232012D01*
X306268Y232058D01*
X306199Y232128D01*
X306129Y232197D01*
X306083Y232313D01*
X306060Y232405D01*
X306037Y232521D01*
X306060Y232660D01*
X306106Y232752D01*
X306199Y232914D01*
X306314Y233007D01*
X306476Y233076D01*
X306638Y233100D01*
X306800Y233076D01*
X306939Y233030D01*
X307055Y232961D01*
X307101Y232891D01*
X307217Y232984D01*
X307379Y233100D01*
X307587Y233192D01*
X307888Y233308D01*
X308212Y233400D01*
X308536Y233470D01*
X308883Y233539D01*
X309160Y233562D01*
Y233910D01*
X311382D01*
Y233609D01*
X311567D01*
X311845Y233586D01*
X312146Y233539D01*
X312446Y233493D01*
Y233678D01*
X313395D01*
Y233238D01*
X313511Y233169D01*
X313673Y233100D01*
X313835Y233007D01*
X313974Y232914D01*
X314112Y232799D01*
X314205Y232706D01*
X314251Y232637D01*
X314298Y232544D01*
X314275Y232382D01*
X314830D01*
Y231665D01*
X314228D01*
X314136Y230762D01*
X317722Y234488D01*
X318000Y234210D01*
D02*
G37*
G36*
X333068Y236062D02*
X333785Y235969D01*
X334456Y235830D01*
X335104Y235645D01*
X335706Y235437D01*
X336261Y235182D01*
X336793Y234928D01*
X337256Y234673D01*
X337696Y234395D01*
X338066Y234141D01*
X338390Y233910D01*
X338668Y233678D01*
X338899Y233493D01*
X339038Y233354D01*
X339154Y233262D01*
X339177Y233238D01*
X339663Y232683D01*
X340103Y232128D01*
X340496Y231549D01*
X340797Y230971D01*
X341074Y230392D01*
X341306Y229814D01*
X341491Y229281D01*
X341653Y228749D01*
X341769Y228263D01*
X341861Y227800D01*
X341907Y227407D01*
X341954Y227060D01*
X341977Y226782D01*
X342000Y226574D01*
Y226435D01*
Y226412D01*
Y226389D01*
X341977Y225648D01*
X341884Y224954D01*
X341745Y224260D01*
X341560Y223635D01*
X341352Y223034D01*
X341097Y222455D01*
X340843Y221946D01*
X340588Y221460D01*
X340334Y221044D01*
X340079Y220650D01*
X339825Y220326D01*
X339617Y220049D01*
X339432Y219840D01*
X339293Y219678D01*
X339200Y219563D01*
X339177Y219539D01*
X338645Y219054D01*
X338066Y218614D01*
X337488Y218221D01*
X336909Y217920D01*
X336331Y217642D01*
X335775Y217411D01*
X335220Y217226D01*
X334688Y217064D01*
X334202Y216948D01*
X333739Y216855D01*
X333346Y216809D01*
X332998Y216763D01*
X332721Y216740D01*
X332513Y216717D01*
X332328D01*
X331587Y216740D01*
X330893Y216832D01*
X330222Y216971D01*
X329574Y217156D01*
X328972Y217364D01*
X328417Y217619D01*
X327885Y217874D01*
X327422Y218128D01*
X326982Y218383D01*
X326612Y218637D01*
X326288Y218892D01*
X326010Y219100D01*
X325779Y219285D01*
X325640Y219424D01*
X325524Y219516D01*
X325501Y219539D01*
X324992Y220095D01*
X324552Y220650D01*
X324182Y221229D01*
X323858Y221807D01*
X323581Y222386D01*
X323349Y222964D01*
X323164Y223520D01*
X323002Y224029D01*
X322886Y224515D01*
X322794Y224977D01*
X322747Y225371D01*
X322701Y225718D01*
X322678Y225996D01*
X322655Y226204D01*
Y226343D01*
Y226389D01*
X322678Y227130D01*
X322771Y227824D01*
X322909Y228518D01*
X323095Y229143D01*
X323303Y229744D01*
X323557Y230323D01*
X323812Y230832D01*
X324066Y231318D01*
X324344Y231757D01*
X324599Y232128D01*
X324830Y232452D01*
X325061Y232729D01*
X325247Y232961D01*
X325385Y233100D01*
X325478Y233215D01*
X325501Y233238D01*
X326033Y233748D01*
X326612Y234187D01*
X327167Y234557D01*
X327769Y234881D01*
X328324Y235159D01*
X328903Y235390D01*
X329458Y235576D01*
X329967Y235737D01*
X330453Y235853D01*
X330916Y235946D01*
X331309Y235992D01*
X331656Y236038D01*
X331934Y236062D01*
X332142Y236085D01*
X332328D01*
X333068Y236062D01*
D02*
G37*
G36*
X347562Y233366D02*
X348047Y233320D01*
X348487Y233204D01*
X348927Y233088D01*
X349320Y232949D01*
X349713Y232787D01*
X350061Y232625D01*
X350361Y232440D01*
X350662Y232255D01*
X350917Y232093D01*
X351125Y231931D01*
X351310Y231792D01*
X351472Y231677D01*
X351565Y231584D01*
X351634Y231515D01*
X351657Y231491D01*
X351981Y231121D01*
X352282Y230751D01*
X352537Y230381D01*
X352745Y229987D01*
X352930Y229594D01*
X353069Y229224D01*
X353208Y228854D01*
X353300Y228506D01*
X353370Y228183D01*
X353439Y227882D01*
X353462Y227604D01*
X353508Y227373D01*
Y227187D01*
X353532Y227049D01*
Y226956D01*
Y226933D01*
X353508Y226447D01*
X353439Y225984D01*
X353346Y225521D01*
X353231Y225105D01*
X353092Y224688D01*
X352930Y224318D01*
X352768Y223971D01*
X352583Y223647D01*
X352421Y223369D01*
X352259Y223115D01*
X352097Y222907D01*
X351958Y222721D01*
X351819Y222559D01*
X351727Y222467D01*
X351680Y222397D01*
X351657Y222374D01*
X351287Y222050D01*
X350917Y221750D01*
X350523Y221495D01*
X350130Y221287D01*
X349760Y221102D01*
X349366Y220963D01*
X348996Y220824D01*
X348649Y220731D01*
X348325Y220662D01*
X348024Y220593D01*
X347747Y220569D01*
X347515Y220523D01*
X347330D01*
X347191Y220500D01*
X346844D01*
X346636Y220523D01*
X346428D01*
X346451Y222467D01*
X346659Y222444D01*
X346867Y222421D01*
X347076D01*
X347376Y222444D01*
X347654Y222467D01*
X348186Y222583D01*
X348672Y222745D01*
X349089Y222930D01*
X349436Y223092D01*
X349575Y223184D01*
X349690Y223254D01*
X349806Y223323D01*
X349875Y223369D01*
X349899Y223416D01*
X349922D01*
X350338Y223809D01*
X350685Y224249D01*
X350963Y224665D01*
X351171Y225082D01*
X351310Y225429D01*
X351380Y225591D01*
X351426Y225730D01*
X351449Y225822D01*
X351472Y225915D01*
X351495Y225961D01*
Y225984D01*
X347724D01*
Y227905D01*
X351495D01*
X351333Y228460D01*
X351102Y228969D01*
X350847Y229409D01*
X350593Y229779D01*
X350338Y230080D01*
X350130Y230288D01*
X349968Y230427D01*
X349945Y230473D01*
X349922D01*
X349690Y230659D01*
X349436Y230797D01*
X348950Y231052D01*
X348464Y231237D01*
X348024Y231353D01*
X347654Y231422D01*
X347492Y231445D01*
X347353D01*
X347238Y231468D01*
X346844D01*
X346636Y231445D01*
X346474Y231422D01*
X346428D01*
Y233366D01*
X346682Y233389D01*
X347076D01*
X347562Y233366D01*
D02*
G37*
G36*
X358530D02*
X359016Y233320D01*
X359455Y233204D01*
X359895Y233088D01*
X360289Y232949D01*
X360682Y232787D01*
X361029Y232625D01*
X361330Y232440D01*
X361631Y232255D01*
X361885Y232093D01*
X362093Y231931D01*
X362279Y231792D01*
X362440Y231677D01*
X362533Y231584D01*
X362602Y231515D01*
X362626Y231491D01*
X362950Y231121D01*
X363250Y230751D01*
X363505Y230381D01*
X363713Y229987D01*
X363898Y229594D01*
X364037Y229224D01*
X364176Y228854D01*
X364269Y228506D01*
X364338Y228183D01*
X364407Y227882D01*
X364431Y227604D01*
X364477Y227373D01*
Y227187D01*
X364500Y227049D01*
Y226956D01*
Y226933D01*
X364477Y226447D01*
X364407Y225984D01*
X364315Y225521D01*
X364199Y225105D01*
X364060Y224688D01*
X363898Y224318D01*
X363736Y223971D01*
X363551Y223647D01*
X363389Y223369D01*
X363227Y223115D01*
X363065Y222907D01*
X362927Y222721D01*
X362788Y222559D01*
X362695Y222467D01*
X362649Y222397D01*
X362626Y222374D01*
X362255Y222050D01*
X361885Y221750D01*
X361492Y221495D01*
X361098Y221287D01*
X360728Y221102D01*
X360335Y220963D01*
X359965Y220824D01*
X359617Y220731D01*
X359294Y220662D01*
X358993Y220593D01*
X358715Y220569D01*
X358484Y220523D01*
X358298D01*
X358160Y220500D01*
X357812D01*
X357604Y220523D01*
X357396D01*
Y222467D01*
X357627Y222444D01*
X357836Y222421D01*
X358044D01*
X358391Y222444D01*
X358715Y222467D01*
X359039Y222536D01*
X359340Y222629D01*
X359872Y222837D01*
X360335Y223092D01*
X360543Y223207D01*
X360728Y223323D01*
X360867Y223439D01*
X361006Y223531D01*
X361098Y223624D01*
X361168Y223693D01*
X361214Y223716D01*
X361237Y223740D01*
X361469Y223994D01*
X361677Y224272D01*
X361839Y224526D01*
X362001Y224804D01*
X362117Y225082D01*
X362232Y225336D01*
X362394Y225845D01*
X362487Y226285D01*
X362510Y226470D01*
X362533Y226632D01*
X362556Y226748D01*
Y226840D01*
Y226910D01*
Y226933D01*
X362533Y227280D01*
X362510Y227604D01*
X362440Y227928D01*
X362348Y228229D01*
X362140Y228761D01*
X361885Y229224D01*
X361770Y229432D01*
X361654Y229617D01*
X361538Y229756D01*
X361445Y229895D01*
X361353Y229987D01*
X361283Y230057D01*
X361260Y230103D01*
X361237Y230126D01*
X360983Y230358D01*
X360728Y230566D01*
X360451Y230751D01*
X360173Y230913D01*
X359918Y231029D01*
X359641Y231144D01*
X359155Y231306D01*
X358715Y231399D01*
X358507Y231422D01*
X358368Y231445D01*
X358229Y231468D01*
X357812D01*
X357604Y231445D01*
X357442Y231422D01*
X357396D01*
Y233366D01*
X357604Y233389D01*
X358044D01*
X358530Y233366D01*
D02*
G37*
%LPC*%
G36*
X308351Y222640D02*
X308235D01*
X308003Y222617D01*
X307841Y222525D01*
X307703Y222432D01*
X307633Y222293D01*
X307587Y222178D01*
X307541Y222062D01*
Y221969D01*
Y221946D01*
X307564Y221715D01*
X307656Y221553D01*
X307749Y221414D01*
X307888Y221344D01*
X308003Y221298D01*
X308119Y221275D01*
X308212Y221252D01*
X308235D01*
X308466Y221275D01*
X308628Y221368D01*
X308767Y221483D01*
X308837Y221599D01*
X308883Y221738D01*
X308906Y221830D01*
X308929Y221923D01*
Y221946D01*
X308906Y222178D01*
X308813Y222340D01*
X308698Y222478D01*
X308582Y222548D01*
X308443Y222594D01*
X308351Y222640D01*
D02*
G37*
G36*
X312747Y221414D02*
X312655D01*
Y220859D01*
X312747D01*
Y221414D01*
D02*
G37*
G36*
X313395Y232776D02*
Y232382D01*
X313881D01*
Y232452D01*
X313765Y232567D01*
X313627Y232660D01*
X313395Y232776D01*
D02*
G37*
G36*
X306684Y232706D02*
X306661D01*
X306546Y232683D01*
X306476Y232614D01*
X306453Y232521D01*
Y232498D01*
X306476Y232382D01*
X306546Y232336D01*
X306638Y232313D01*
X306661D01*
X306777Y232336D01*
X306823Y232405D01*
X306846Y232475D01*
Y232498D01*
X306823Y232614D01*
X306754Y232683D01*
X306684Y232706D01*
D02*
G37*
G36*
X307147Y230924D02*
X306384D01*
Y230161D01*
X307147D01*
Y230924D01*
D02*
G37*
G36*
X310965Y233516D02*
X309554D01*
Y233285D01*
X310965D01*
Y233516D01*
D02*
G37*
G36*
X311382Y233192D02*
Y232891D01*
X309160D01*
Y233146D01*
X308698Y233076D01*
X308281Y232984D01*
X307934Y232891D01*
X307656Y232752D01*
X307448Y232637D01*
X307286Y232475D01*
Y232382D01*
X312446D01*
Y233053D01*
X312122Y233123D01*
X311775Y233169D01*
X311382Y233192D01*
D02*
G37*
G36*
X313002Y233285D02*
X312840D01*
Y232752D01*
X313002D01*
Y233285D01*
D02*
G37*
G36*
X311035Y229189D02*
X308952D01*
Y229050D01*
X311035D01*
Y229189D01*
D02*
G37*
G36*
X307541Y229999D02*
Y229767D01*
X307494D01*
X307957Y224376D01*
X310479Y226991D01*
X308860Y228657D01*
X308513D01*
Y229004D01*
X307541Y229999D01*
D02*
G37*
G36*
X310757Y226690D02*
X308003Y223844D01*
X308050Y223335D01*
X308235Y223358D01*
X308443Y223335D01*
X308698Y223265D01*
X308952Y223149D01*
X309137Y223010D01*
X309299Y222849D01*
X309461Y222617D01*
X309577Y222340D01*
X309647Y222039D01*
X309623Y221830D01*
X312886D01*
X313118Y224260D01*
X310757Y226690D01*
D02*
G37*
G36*
X313812Y231665D02*
X307332D01*
X307379Y231318D01*
X307541D01*
Y230577D01*
X308513Y229582D01*
X311428D01*
Y228657D01*
X309415D01*
X310757Y227268D01*
X313696Y230323D01*
X313812Y231665D01*
D02*
G37*
G36*
X313627Y229675D02*
X311035Y226991D01*
X313164Y224792D01*
X313627Y229675D01*
D02*
G37*
%LPD*%
G36*
X308397Y222386D02*
X308513Y222340D01*
X308582Y222270D01*
X308628Y222178D01*
X308698Y222016D01*
Y221969D01*
Y221946D01*
X308675Y221784D01*
X308628Y221668D01*
X308559Y221599D01*
X308466Y221553D01*
X308304Y221483D01*
X308235D01*
X308073Y221506D01*
X307957Y221553D01*
X307888Y221622D01*
X307818Y221715D01*
X307772Y221877D01*
Y221923D01*
Y221946D01*
X307795Y222108D01*
X307841Y222224D01*
X307911Y222293D01*
X308003Y222363D01*
X308166Y222409D01*
X308235D01*
X308397Y222386D01*
D02*
G37*
%LPC*%
G36*
X308258Y222016D02*
X308189D01*
X308166Y221992D01*
Y221969D01*
Y221946D01*
Y221900D01*
X308189Y221877D01*
X308235D01*
X308281Y221900D01*
X308304Y221923D01*
Y221946D01*
X308281Y221992D01*
X308258Y222016D01*
D02*
G37*
G36*
X332489Y235113D02*
X332328D01*
X331656Y235090D01*
X331032Y234997D01*
X330407Y234881D01*
X329852Y234719D01*
X329296Y234511D01*
X328787Y234303D01*
X328324Y234071D01*
X327885Y233840D01*
X327514Y233586D01*
X327167Y233354D01*
X326866Y233146D01*
X326635Y232938D01*
X326427Y232776D01*
X326288Y232660D01*
X326195Y232567D01*
X326172Y232544D01*
X325733Y232058D01*
X325339Y231549D01*
X324992Y231040D01*
X324691Y230508D01*
X324460Y229999D01*
X324252Y229490D01*
X324090Y228981D01*
X323951Y228518D01*
X323835Y228078D01*
X323766Y227662D01*
X323696Y227315D01*
X323673Y226991D01*
X323650Y226736D01*
X323627Y226551D01*
Y226435D01*
Y226389D01*
X323650Y225718D01*
X323743Y225093D01*
X323858Y224492D01*
X324020Y223913D01*
X324205Y223358D01*
X324437Y222849D01*
X324668Y222386D01*
X324900Y221969D01*
X325131Y221576D01*
X325362Y221229D01*
X325571Y220928D01*
X325779Y220696D01*
X325840Y220618D01*
X325825Y220604D01*
X325999Y220419D01*
X326057Y220349D01*
X326149Y220257D01*
X326172Y220234D01*
X325999Y220419D01*
X325941Y220488D01*
X325840Y220618D01*
X328509Y223288D01*
X328370Y223381D01*
X328255Y223473D01*
X328162Y223543D01*
X328139Y223566D01*
X327885Y223844D01*
X327699Y224167D01*
X327561Y224468D01*
X327468Y224769D01*
X327422Y225024D01*
X327376Y225232D01*
Y225371D01*
Y225394D01*
Y225417D01*
X327399Y225764D01*
X327445Y226088D01*
X327537Y226343D01*
X327607Y226574D01*
X327699Y226759D01*
X327792Y226875D01*
X327838Y226968D01*
X327861Y226991D01*
X328047Y227176D01*
X328255Y227315D01*
X328440Y227430D01*
X328625Y227500D01*
X328787Y227546D01*
X328903Y227569D01*
X329018D01*
X329296Y227523D01*
X329551Y227430D01*
X329782Y227291D01*
X329967Y227130D01*
X330152Y226968D01*
X330268Y226829D01*
X330361Y226736D01*
X330384Y226690D01*
Y229814D01*
X330592D01*
X331888Y229281D01*
X331818Y229119D01*
X331680Y229166D01*
X331587Y229189D01*
X331494D01*
X331356Y229166D01*
X331332Y229143D01*
X331309D01*
X331263Y229073D01*
X331217Y229004D01*
X331194Y228934D01*
Y228911D01*
Y228819D01*
X331171Y228703D01*
Y228402D01*
Y228240D01*
Y228124D01*
Y228032D01*
Y228009D01*
Y225926D01*
X332304Y227083D01*
X332258Y227315D01*
X332212Y227523D01*
Y227615D01*
Y227662D01*
Y227708D01*
Y227731D01*
X332235Y227939D01*
X332258Y228124D01*
X332328Y228310D01*
X332374Y228448D01*
X332443Y228564D01*
X332513Y228657D01*
X332536Y228703D01*
X332559Y228726D01*
X332698Y228888D01*
X332837Y229004D01*
X332975Y229119D01*
X333114Y229189D01*
X333230Y229258D01*
X333299Y229305D01*
X333369Y229328D01*
X333392D01*
X333600Y229397D01*
X333808Y229444D01*
X334040Y229467D01*
X334248Y229490D01*
X334433Y229513D01*
X334734D01*
X338136Y232891D01*
X338483Y232544D01*
X338737Y232290D01*
X338622Y232429D01*
X338529Y232521D01*
X338506Y232544D01*
X338020Y233007D01*
X337511Y233400D01*
X336979Y233724D01*
X336446Y234025D01*
X335937Y234280D01*
X335428Y234488D01*
X334919Y234650D01*
X334456Y234789D01*
X334017Y234905D01*
X333600Y234974D01*
X333253Y235043D01*
X332929Y235067D01*
X332675Y235090D01*
X332489Y235113D01*
D02*
G37*
G36*
X334317Y229096D02*
X334179Y229050D01*
X334063Y229004D01*
X333970Y228958D01*
X333947Y228934D01*
X333739Y228772D01*
X333600Y228610D01*
X333485Y228472D01*
X333461Y228425D01*
Y228402D01*
X333392Y228287D01*
X333369Y228194D01*
X333346Y228148D01*
Y228124D01*
X334317Y229096D01*
D02*
G37*
G36*
X338737Y232290D02*
X338798Y232212D01*
X336099Y229513D01*
X337094D01*
Y229328D01*
X336840D01*
X336608Y229305D01*
X336446Y229235D01*
X336331Y229143D01*
X336308Y229119D01*
X336261Y229050D01*
X336215Y228958D01*
X336192Y228703D01*
X336169Y228587D01*
Y228472D01*
Y228402D01*
Y228379D01*
Y224237D01*
Y224052D01*
X336192Y223890D01*
Y223774D01*
X336215Y223682D01*
X336238Y223612D01*
Y223566D01*
X336261Y223543D01*
X336331Y223450D01*
X336423Y223404D01*
X336608Y223311D01*
X336770Y223288D01*
X337094D01*
Y223103D01*
X334341D01*
Y223288D01*
X334595D01*
X334827Y223311D01*
X334989Y223381D01*
X335081Y223450D01*
X335127Y223473D01*
X335174Y223543D01*
X335197Y223658D01*
X335243Y223913D01*
X335266Y224029D01*
Y224144D01*
Y224214D01*
Y224237D01*
Y226088D01*
X335035Y226042D01*
X334850Y226019D01*
X334734Y225996D01*
X334688D01*
X334479Y225973D01*
X334179D01*
X333901Y225996D01*
X333646Y226019D01*
X333438Y226088D01*
X333253Y226158D01*
X333091Y226204D01*
X332998Y226273D01*
X332929Y226296D01*
X332906Y226320D01*
X331171Y224561D01*
Y223520D01*
X330870Y223335D01*
X330615Y223219D01*
X330499Y223172D01*
X330430Y223126D01*
X330384Y223103D01*
X330361D01*
X330083Y223034D01*
X329852Y222987D01*
X329736Y222964D01*
X329574D01*
X326524Y219915D01*
X326658Y219794D01*
X327167Y219401D01*
X327676Y219054D01*
X328209Y218753D01*
X328718Y218521D01*
X329227Y218313D01*
X329736Y218151D01*
X330199Y218012D01*
X330638Y217897D01*
X331055Y217827D01*
X331402Y217758D01*
X331726Y217735D01*
X331980Y217711D01*
X332166Y217688D01*
X332328D01*
X332998Y217711D01*
X333623Y217804D01*
X334248Y217920D01*
X334804Y218082D01*
X335359Y218290D01*
X335868Y218498D01*
X336331Y218730D01*
X336770Y218961D01*
X337164Y219192D01*
X337511Y219424D01*
X337789Y219655D01*
X338043Y219840D01*
X338251Y220002D01*
X338390Y220118D01*
X338483Y220211D01*
X338506Y220234D01*
X338946Y220720D01*
X339339Y221229D01*
X339686Y221738D01*
X339987Y222270D01*
X340218Y222779D01*
X340426Y223311D01*
X340588Y223797D01*
X340727Y224260D01*
X340843Y224700D01*
X340912Y225116D01*
X340982Y225463D01*
X341005Y225787D01*
X341028Y226042D01*
X341051Y226227D01*
Y226343D01*
Y226389D01*
X341028Y227060D01*
X340936Y227685D01*
X340820Y228310D01*
X340658Y228865D01*
X340450Y229420D01*
X340241Y229929D01*
X340010Y230392D01*
X339779Y230832D01*
X339547Y231202D01*
X339316Y231549D01*
X339084Y231850D01*
X338899Y232081D01*
X338798Y232212D01*
X338807Y232220D01*
X338737Y232290D01*
D02*
G37*
G36*
X326172Y220234D02*
X326519Y219910D01*
X326524Y219915D01*
X326172Y220234D01*
D02*
G37*
G36*
X335266Y228657D02*
X333485Y226875D01*
X333531Y226782D01*
X333600Y226713D01*
X333623Y226690D01*
X333646Y226667D01*
X333785Y226528D01*
X333924Y226435D01*
X334063Y226366D01*
X334202Y226320D01*
X334317Y226296D01*
X334410Y226273D01*
X334595D01*
X334711Y226296D01*
X334827D01*
X334965Y226320D01*
X335104Y226343D01*
X335220Y226366D01*
X335266D01*
Y228657D01*
D02*
G37*
G36*
X329435Y226875D02*
X329389D01*
X329227Y226852D01*
X329065Y226805D01*
X328787Y226667D01*
X328695Y226574D01*
X328625Y226505D01*
X328579Y226458D01*
X328556Y226435D01*
X328440Y226250D01*
X328347Y226042D01*
X328278Y225834D01*
X328232Y225625D01*
X328209Y225440D01*
X328185Y225301D01*
Y225209D01*
Y225163D01*
X328209Y224839D01*
X328232Y224561D01*
X328301Y224329D01*
X328370Y224144D01*
X328440Y223982D01*
X328486Y223890D01*
X328533Y223820D01*
X328556Y223797D01*
X328625Y223682D01*
X328695Y223612D01*
X328764Y223566D01*
X328787Y223543D01*
X330384Y225139D01*
Y226389D01*
X330175Y226574D01*
X330037Y226690D01*
X329921Y226736D01*
X329898Y226759D01*
X329713Y226829D01*
X329551Y226852D01*
X329435Y226875D01*
D02*
G37*
%LPD*%
D17*
X344500Y253000D02*
X349498D01*
X344500Y256332D01*
X349498D01*
X344500Y260498D02*
Y258831D01*
X345333Y257998D01*
X346999D01*
X347832Y258831D01*
Y260498D01*
X346999Y261331D01*
X346166D01*
Y257998D01*
X347832Y262997D02*
X345333D01*
X344500Y263830D01*
X345333Y264663D01*
X344500Y265496D01*
X345333Y266329D01*
X347832D01*
X344500Y267995D02*
X347832D01*
X349498Y269661D01*
X347832Y271327D01*
X344500D01*
X346999D01*
Y267995D01*
X349498Y276326D02*
Y272993D01*
X344500D01*
Y276326D01*
X346999Y272993D02*
Y274660D01*
X349498Y282990D02*
Y286322D01*
Y284656D01*
X344500D01*
Y290488D02*
Y288822D01*
X345333Y287989D01*
X346999D01*
X347832Y288822D01*
Y290488D01*
X346999Y291321D01*
X346166D01*
Y287989D01*
X347832Y296319D02*
Y293820D01*
X346999Y292987D01*
X345333D01*
X344500Y293820D01*
Y296319D01*
X349498Y297985D02*
X344500D01*
X346999D01*
X347832Y298818D01*
Y300485D01*
X346999Y301318D01*
X344500D01*
Y302984D02*
X347832D01*
Y305483D01*
X346999Y306316D01*
X344500D01*
Y308815D02*
Y310481D01*
X345333Y311314D01*
X346999D01*
X347832Y310481D01*
Y308815D01*
X346999Y307982D01*
X345333D01*
X344500Y308815D01*
Y312981D02*
Y314647D01*
Y313814D01*
X349498D01*
Y312981D01*
X344500Y317979D02*
Y319645D01*
X345333Y320478D01*
X346999D01*
X347832Y319645D01*
Y317979D01*
X346999Y317146D01*
X345333D01*
X344500Y317979D01*
X342834Y323810D02*
Y324643D01*
X343667Y325477D01*
X347832D01*
Y322977D01*
X346999Y322144D01*
X345333D01*
X344500Y322977D01*
Y325477D01*
X347832Y327143D02*
X345333D01*
X344500Y327976D01*
Y330475D01*
X343667D01*
X342834Y329642D01*
Y328809D01*
X344500Y330475D02*
X347832D01*
X349498Y337139D02*
Y338806D01*
Y337972D01*
X344500D01*
Y337139D01*
Y338806D01*
Y341305D02*
X347832D01*
Y343804D01*
X346999Y344637D01*
X344500D01*
X347832Y349635D02*
Y347136D01*
X346999Y346303D01*
X345333D01*
X344500Y347136D01*
Y349635D01*
Y351302D02*
X345333D01*
Y352134D01*
X344500D01*
Y351302D01*
X335500Y253000D02*
X340498D01*
X335500Y256332D01*
X340498D01*
X335500Y257998D02*
X338832D01*
X340498Y259665D01*
X338832Y261331D01*
X335500D01*
X337999D01*
Y257998D01*
X340498Y266329D02*
Y262997D01*
X335500D01*
Y266329D01*
X337999Y262997D02*
Y264663D01*
Y267995D02*
Y271327D01*
X339665Y276326D02*
X340498Y275493D01*
Y273827D01*
X339665Y272993D01*
X336333D01*
X335500Y273827D01*
Y275493D01*
X336333Y276326D01*
X340498Y277992D02*
X335500D01*
X337166Y279658D01*
X335500Y281324D01*
X340498D01*
X339665Y282990D02*
X340498Y283823D01*
Y285490D01*
X339665Y286322D01*
X338832D01*
X337999Y285490D01*
Y284656D01*
Y285490D01*
X337166Y286322D01*
X336333D01*
X335500Y285490D01*
Y283823D01*
X336333Y282990D01*
X339665Y287989D02*
X340498Y288822D01*
Y290488D01*
X339665Y291321D01*
X336333D01*
X335500Y290488D01*
Y288822D01*
X336333Y287989D01*
X339665D01*
Y292987D02*
X340498Y293820D01*
Y295486D01*
X339665Y296319D01*
X338832D01*
X337999Y295486D01*
X337166Y296319D01*
X336333D01*
X335500Y295486D01*
Y293820D01*
X336333Y292987D01*
X337166D01*
X337999Y293820D01*
X338832Y292987D01*
X339665D01*
X337999Y293820D02*
Y295486D01*
X340498Y297985D02*
Y301318D01*
Y299652D01*
X335500D01*
X337999Y302984D02*
Y306316D01*
X335500Y307982D02*
X338832D01*
X340498Y309648D01*
X338832Y311314D01*
X335500D01*
X337999D01*
Y307982D01*
X340498Y312981D02*
X337166D01*
X335500Y314647D01*
X337166Y316313D01*
X340498D01*
X335500Y317979D02*
X340498D01*
Y320478D01*
X339665Y321311D01*
X337999D01*
X337166Y320478D01*
Y317979D01*
Y319645D02*
X335500Y321311D01*
X337999Y322977D02*
Y326310D01*
X339665Y327976D02*
X340498Y328809D01*
Y330475D01*
X339665Y331308D01*
X336333D01*
X335500Y330475D01*
Y328809D01*
X336333Y327976D01*
X339665D01*
X335500Y336306D02*
Y332974D01*
X338832Y336306D01*
X339665D01*
X340498Y335473D01*
Y333807D01*
X339665Y332974D01*
X327000Y253000D02*
X331998D01*
Y255499D01*
X331165Y256332D01*
X329499D01*
X328666Y255499D01*
Y253000D01*
Y254666D02*
X327000Y256332D01*
Y258831D02*
Y260498D01*
X327833Y261331D01*
X329499D01*
X330332Y260498D01*
Y258831D01*
X329499Y257998D01*
X327833D01*
X327000Y258831D01*
X331998Y262997D02*
X327000D01*
X329499D01*
Y266329D01*
X331998D01*
X327000D01*
X331165Y271327D02*
X331998Y270494D01*
Y268828D01*
X331165Y267995D01*
X330332D01*
X329499Y268828D01*
Y270494D01*
X328666Y271327D01*
X327833D01*
X327000Y270494D01*
Y268828D01*
X327833Y267995D01*
X327000Y277992D02*
X330332Y281324D01*
X327000Y287989D02*
X331998D01*
Y290488D01*
X331165Y291321D01*
X329499D01*
X328666Y290488D01*
Y287989D01*
X331998Y292987D02*
X327000D01*
Y295486D01*
X327833Y296319D01*
X328666D01*
X329499Y295486D01*
Y292987D01*
Y295486D01*
X330332Y296319D01*
X331165D01*
X331998Y295486D01*
Y292987D01*
X329499Y297985D02*
Y301318D01*
X331998Y306316D02*
Y302984D01*
X329499D01*
Y304650D01*
Y302984D01*
X327000D01*
X330332Y307982D02*
X327000D01*
X328666D01*
X329499Y308815D01*
X330332Y309648D01*
Y310481D01*
X327000Y315480D02*
Y313814D01*
X327833Y312981D01*
X329499D01*
X330332Y313814D01*
Y315480D01*
X329499Y316313D01*
X328666D01*
Y312981D01*
X327000Y320478D02*
Y318812D01*
X327833Y317979D01*
X329499D01*
X330332Y318812D01*
Y320478D01*
X329499Y321311D01*
X328666D01*
Y317979D01*
M02*
