G04 Layer_Color=65535*
%FSLAX25Y25*%
%MOIN*%
G70*
G01*
G75*
%ADD17C,0.01000*%
%ADD29C,0.02362*%
%ADD30C,0.00984*%
%ADD31C,0.00787*%
%ADD32C,0.00394*%
G36*
X349809Y319917D02*
X350794D01*
Y319588D01*
X351123D01*
Y319260D01*
Y318931D01*
X350794D01*
Y318603D01*
X349809D01*
Y318274D01*
Y317946D01*
X349480D01*
Y317617D01*
Y317289D01*
Y316960D01*
X349152D01*
Y316632D01*
Y316303D01*
Y315975D01*
Y315646D01*
X348823D01*
Y315318D01*
Y314989D01*
Y314661D01*
X348495D01*
Y314332D01*
Y314004D01*
Y313675D01*
Y313347D01*
X348166D01*
Y313018D01*
Y312690D01*
Y312361D01*
X347838D01*
Y312033D01*
Y311704D01*
Y311376D01*
Y311047D01*
X347509D01*
Y310719D01*
Y310390D01*
Y310062D01*
X347181D01*
Y309733D01*
Y309405D01*
Y309076D01*
Y308748D01*
X346852D01*
Y308419D01*
Y308091D01*
Y307762D01*
X346524D01*
Y307434D01*
Y307105D01*
Y306777D01*
Y306448D01*
X354736D01*
Y306120D01*
X358021D01*
Y305791D01*
Y305463D01*
Y305134D01*
X358349D01*
Y304806D01*
Y304477D01*
Y304149D01*
Y303820D01*
Y303492D01*
Y303164D01*
Y302835D01*
Y302506D01*
X358021D01*
Y302178D01*
Y301850D01*
Y301521D01*
X357693D01*
Y301192D01*
Y300864D01*
Y300535D01*
X357364D01*
Y300207D01*
Y299879D01*
X357035D01*
Y299550D01*
Y299221D01*
X356707D01*
Y298893D01*
X356379D01*
Y298565D01*
X356050D01*
Y298236D01*
Y297907D01*
X355721D01*
Y297579D01*
X355393D01*
Y297251D01*
X355065D01*
Y296922D01*
X354736D01*
Y296594D01*
X354079D01*
Y296265D01*
X353751D01*
Y295937D01*
X353422D01*
Y295608D01*
X352765D01*
Y295280D01*
X352437D01*
Y294951D01*
X351780D01*
Y294623D01*
X351123D01*
Y294294D01*
X350466D01*
Y293966D01*
X349809D01*
Y293637D01*
X349152D01*
Y293309D01*
X348166D01*
Y292980D01*
X347181D01*
Y292652D01*
X350137D01*
Y292323D01*
X351780D01*
Y291995D01*
X353751D01*
Y291666D01*
X354736D01*
Y291338D01*
X355065D01*
Y291009D01*
X355393D01*
Y290681D01*
X355721D01*
Y290352D01*
X356050D01*
Y290024D01*
X356379D01*
Y289695D01*
Y289367D01*
Y289038D01*
X356707D01*
Y288710D01*
Y288381D01*
Y288053D01*
Y287724D01*
Y287396D01*
Y287067D01*
X356379D01*
Y286739D01*
Y286410D01*
Y286082D01*
Y285753D01*
Y285425D01*
Y285096D01*
X356050D01*
Y284768D01*
Y284439D01*
X356707D01*
Y284111D01*
X357364D01*
Y283782D01*
X357693D01*
Y283454D01*
X358021D01*
Y283125D01*
X358678D01*
Y282797D01*
X359007D01*
Y282468D01*
X359335D01*
Y282140D01*
X359992D01*
Y281811D01*
X360320D01*
Y281483D01*
X360649D01*
Y281154D01*
X360977D01*
Y280826D01*
X361306D01*
Y280497D01*
X361634D01*
Y280169D01*
X361963D01*
Y279840D01*
X362291D01*
Y279512D01*
X362620D01*
Y279183D01*
X362948D01*
Y278855D01*
X363934D01*
Y278526D01*
Y278198D01*
X363605D01*
Y277869D01*
X363934D01*
Y277541D01*
X364262D01*
Y277212D01*
Y276884D01*
X364591D01*
Y276555D01*
X365576D01*
Y276227D01*
Y275898D01*
X365248D01*
Y275570D01*
X365576D01*
Y275241D01*
Y274913D01*
X365905D01*
Y274584D01*
X366233D01*
Y274256D01*
X366890D01*
Y273927D01*
Y273599D01*
Y273270D01*
Y272942D01*
Y272613D01*
X367219D01*
Y272285D01*
Y271956D01*
X367547D01*
Y271628D01*
Y271300D01*
X367876D01*
Y270971D01*
Y270642D01*
Y270314D01*
X368204D01*
Y269986D01*
Y269657D01*
X368533D01*
Y269328D01*
Y269000D01*
Y268671D01*
X368861D01*
Y268343D01*
Y268015D01*
Y267686D01*
X369190D01*
Y267357D01*
Y267029D01*
Y266701D01*
X369518D01*
Y266372D01*
Y266043D01*
Y265715D01*
Y265387D01*
X369847D01*
Y265058D01*
Y264730D01*
Y264401D01*
Y264073D01*
Y263744D01*
X370175D01*
Y263416D01*
Y263087D01*
Y262759D01*
Y262430D01*
Y262102D01*
Y261773D01*
Y261445D01*
Y261116D01*
X370504D01*
Y260788D01*
Y260459D01*
Y260131D01*
Y259802D01*
Y259474D01*
X371161D01*
Y259145D01*
X371489D01*
Y258817D01*
X372146D01*
Y258488D01*
X372803D01*
Y258160D01*
X373460D01*
Y257831D01*
X371818D01*
Y257503D01*
X370175D01*
Y257174D01*
X370504D01*
Y256846D01*
X370832D01*
Y256517D01*
Y256189D01*
X371161D01*
Y255860D01*
Y255532D01*
X371489D01*
Y255203D01*
Y254875D01*
Y254546D01*
Y254218D01*
Y253889D01*
Y253561D01*
Y253232D01*
Y252904D01*
Y252575D01*
X371161D01*
Y252247D01*
Y251918D01*
X370832D01*
Y251590D01*
Y251261D01*
X370504D01*
Y250933D01*
X370175D01*
Y250604D01*
X369847D01*
Y250276D01*
X369518D01*
Y250604D01*
Y250933D01*
Y251261D01*
Y251590D01*
Y251918D01*
Y252247D01*
Y252575D01*
Y252904D01*
Y253232D01*
Y253561D01*
X369190D01*
Y253889D01*
Y254218D01*
X368861D01*
Y254546D01*
X368533D01*
Y254875D01*
X368204D01*
Y255203D01*
X367876D01*
Y255532D01*
Y255860D01*
Y256189D01*
Y256517D01*
X368204D01*
Y256846D01*
Y257174D01*
Y257503D01*
Y257831D01*
X367876D01*
Y257503D01*
X367547D01*
Y257174D01*
Y256846D01*
X367219D01*
Y256517D01*
Y256189D01*
X366890D01*
Y255860D01*
Y255532D01*
X366562D01*
Y255860D01*
X365576D01*
Y255532D01*
X364591D01*
Y255203D01*
X364262D01*
Y254875D01*
X363934D01*
Y254546D01*
X363605D01*
Y254218D01*
Y253889D01*
X363277D01*
Y253561D01*
Y253232D01*
Y252904D01*
Y252575D01*
Y252247D01*
Y251918D01*
Y251590D01*
X362948D01*
Y251918D01*
Y252247D01*
X362620D01*
Y252575D01*
Y252904D01*
Y253232D01*
Y253561D01*
X362291D01*
Y253889D01*
Y254218D01*
Y254546D01*
X362620D01*
Y254875D01*
Y255203D01*
Y255532D01*
Y255860D01*
X362948D01*
Y256189D01*
Y256517D01*
X363277D01*
Y256846D01*
X363605D01*
Y257174D01*
X363934D01*
Y257503D01*
X364262D01*
Y257831D01*
X364919D01*
Y258160D01*
Y258488D01*
X364262D01*
Y258817D01*
X363605D01*
Y259145D01*
X362948D01*
Y259474D01*
X362620D01*
Y259802D01*
X363934D01*
Y260131D01*
X365576D01*
Y260459D01*
Y260788D01*
Y261116D01*
Y261445D01*
Y261773D01*
X365248D01*
Y262102D01*
Y262430D01*
Y262759D01*
Y263087D01*
Y263416D01*
Y263744D01*
X364919D01*
Y264073D01*
Y264401D01*
Y264730D01*
Y265058D01*
X364591D01*
Y265387D01*
Y265715D01*
Y266043D01*
Y266372D01*
X364262D01*
Y266701D01*
Y267029D01*
Y267357D01*
X363934D01*
Y267686D01*
Y268015D01*
Y268343D01*
X363605D01*
Y268671D01*
Y269000D01*
X363277D01*
Y269328D01*
Y269657D01*
Y269986D01*
X362948D01*
Y270314D01*
Y270642D01*
X362620D01*
Y270971D01*
X362291D01*
Y271300D01*
X361963D01*
Y271628D01*
Y271956D01*
Y272285D01*
X361634D01*
Y272613D01*
Y272942D01*
X361306D01*
Y273270D01*
X360649D01*
Y273599D01*
Y273927D01*
Y274256D01*
X360320D01*
Y274584D01*
Y274913D01*
X359992D01*
Y275241D01*
X359007D01*
Y275570D01*
Y275898D01*
Y276227D01*
X358678D01*
Y276555D01*
X358349D01*
Y276884D01*
X358021D01*
Y277212D01*
X357693D01*
Y277541D01*
X357364D01*
Y277869D01*
X357035D01*
Y278198D01*
X356707D01*
Y278526D01*
X356379D01*
Y278855D01*
X356050D01*
Y279183D01*
X355393D01*
Y279512D01*
X355065D01*
Y279183D01*
Y278855D01*
Y278526D01*
Y278198D01*
Y277869D01*
X354736D01*
Y277541D01*
Y277212D01*
Y276884D01*
Y276555D01*
Y276227D01*
Y275898D01*
X354408D01*
Y275570D01*
Y275241D01*
Y274913D01*
Y274584D01*
Y274256D01*
X354079D01*
Y273927D01*
Y273599D01*
Y273270D01*
Y272942D01*
Y272613D01*
Y272285D01*
X353751D01*
Y271956D01*
Y271628D01*
Y271300D01*
Y270971D01*
Y270642D01*
X353422D01*
Y270314D01*
Y269986D01*
Y269657D01*
Y269328D01*
Y269000D01*
Y268671D01*
X353094D01*
Y268343D01*
Y268015D01*
Y267686D01*
Y267357D01*
Y267029D01*
Y266701D01*
X352765D01*
Y266372D01*
Y266043D01*
Y265715D01*
Y265387D01*
Y265058D01*
X352437D01*
Y264730D01*
Y264401D01*
Y264073D01*
Y263744D01*
Y263416D01*
Y263087D01*
X352108D01*
Y262759D01*
Y262430D01*
Y262102D01*
Y261773D01*
Y261445D01*
Y261116D01*
X351780D01*
Y260788D01*
Y260459D01*
Y260131D01*
X351451D01*
Y259802D01*
X351123D01*
Y259474D01*
X350794D01*
Y259145D01*
X350466D01*
Y258817D01*
X350137D01*
Y258488D01*
X349152D01*
Y258160D01*
X348495D01*
Y257831D01*
X349152D01*
Y257503D01*
X349809D01*
Y257174D01*
Y256846D01*
X349152D01*
Y256517D01*
X348823D01*
Y256189D01*
X348166D01*
Y255860D01*
X350794D01*
Y255532D01*
X351780D01*
Y255203D01*
X352437D01*
Y254875D01*
X352765D01*
Y254546D01*
X353094D01*
Y254218D01*
X353422D01*
Y253889D01*
X353751D01*
Y253561D01*
Y253232D01*
X354079D01*
Y252904D01*
Y252575D01*
X354408D01*
Y252247D01*
Y251918D01*
Y251590D01*
Y251261D01*
X351123D01*
Y250933D01*
X352108D01*
Y250604D01*
X352765D01*
Y250276D01*
X353751D01*
Y249947D01*
X353094D01*
Y249619D01*
X352437D01*
Y249290D01*
X351780D01*
Y248962D01*
X351451D01*
Y248633D01*
Y248305D01*
X352108D01*
Y247976D01*
X352437D01*
Y247648D01*
X353094D01*
Y247319D01*
X353422D01*
Y246991D01*
X354079D01*
Y246662D01*
Y246334D01*
X353422D01*
Y246005D01*
X352765D01*
Y245677D01*
X352108D01*
Y245348D01*
X351780D01*
Y245020D01*
X351451D01*
Y244691D01*
X352108D01*
Y244363D01*
X352437D01*
Y244034D01*
X353094D01*
Y243706D01*
X353751D01*
Y243377D01*
X354079D01*
Y243049D01*
X353751D01*
Y242720D01*
X353422D01*
Y242392D01*
X352765D01*
Y242063D01*
X352437D01*
Y241735D01*
X352108D01*
Y241406D01*
X351780D01*
Y241078D01*
X352437D01*
Y240749D01*
X353094D01*
Y240421D01*
X353422D01*
Y240092D01*
X354079D01*
Y239764D01*
X354736D01*
Y239436D01*
X354079D01*
Y239107D01*
X353751D01*
Y238778D01*
X353422D01*
Y238450D01*
X352765D01*
Y238122D01*
X352437D01*
Y237793D01*
X352108D01*
Y237464D01*
X352437D01*
Y237136D01*
X353094D01*
Y236807D01*
X353422D01*
Y236479D01*
X354079D01*
Y236151D01*
X354408D01*
Y235822D01*
X354736D01*
Y235493D01*
X354079D01*
Y235165D01*
X353422D01*
Y234837D01*
X353094D01*
Y234508D01*
X352437D01*
Y234180D01*
X351780D01*
Y233851D01*
X352108D01*
Y233523D01*
X352437D01*
Y233194D01*
X353094D01*
Y232866D01*
X353422D01*
Y232537D01*
X354079D01*
Y232209D01*
X354408D01*
Y231880D01*
X354736D01*
Y231552D01*
X354408D01*
Y231223D01*
X353751D01*
Y230895D01*
X353094D01*
Y230566D01*
X352765D01*
Y230238D01*
X352108D01*
Y229909D01*
X351780D01*
Y229581D01*
X352108D01*
Y229252D01*
X352437D01*
Y228924D01*
X353094D01*
Y228595D01*
X353422D01*
Y228267D01*
X354079D01*
Y227938D01*
X354408D01*
Y227610D01*
X354079D01*
Y227281D01*
X353422D01*
Y226953D01*
X352437D01*
Y226624D01*
X351451D01*
Y226296D01*
X351123D01*
Y225967D01*
X351451D01*
Y225639D01*
X351780D01*
Y225310D01*
X352108D01*
Y224982D01*
X352437D01*
Y224653D01*
X352765D01*
Y224325D01*
X353094D01*
Y223996D01*
X353751D01*
Y223668D01*
Y223339D01*
X353094D01*
Y223011D01*
X352765D01*
Y222682D01*
X353094D01*
Y222354D01*
X353422D01*
Y222025D01*
Y221697D01*
X353751D01*
Y221368D01*
Y221040D01*
Y220711D01*
X354079D01*
Y220383D01*
Y220054D01*
Y219726D01*
Y219397D01*
Y219069D01*
Y218740D01*
Y218412D01*
Y218083D01*
Y217755D01*
Y217426D01*
Y217098D01*
X353751D01*
Y216769D01*
Y216441D01*
X353422D01*
Y216112D01*
X352765D01*
Y215784D01*
X343239D01*
Y216112D01*
X342582D01*
Y216441D01*
X342253D01*
Y216769D01*
Y217098D01*
X341925D01*
Y217426D01*
Y217755D01*
X341596D01*
Y218083D01*
Y218412D01*
Y218740D01*
Y219069D01*
Y219397D01*
Y219726D01*
Y220054D01*
Y220383D01*
Y220711D01*
X341925D01*
Y221040D01*
Y221368D01*
Y221697D01*
Y222025D01*
X342253D01*
Y222354D01*
Y222682D01*
X342582D01*
Y223011D01*
X342910D01*
Y223339D01*
X342582D01*
Y223668D01*
X342253D01*
Y223996D01*
X341596D01*
Y224325D01*
Y224653D01*
X342253D01*
Y224982D01*
X342910D01*
Y225310D01*
X343239D01*
Y225639D01*
X343896D01*
Y225967D01*
X344553D01*
Y226296D01*
X344224D01*
Y226624D01*
X343896D01*
Y226953D01*
X343567D01*
Y227281D01*
X343239D01*
Y227610D01*
X342582D01*
Y227938D01*
X342253D01*
Y228267D01*
Y228595D01*
X342582D01*
Y228924D01*
X343239D01*
Y229252D01*
X343896D01*
Y229581D01*
X344553D01*
Y229909D01*
X344881D01*
Y230238D01*
X344553D01*
Y230566D01*
X344224D01*
Y230895D01*
X343567D01*
Y231223D01*
X343239D01*
Y231552D01*
X342582D01*
Y231880D01*
X342253D01*
Y232209D01*
X342582D01*
Y232537D01*
X343239D01*
Y232866D01*
X343896D01*
Y233194D01*
X344224D01*
Y233523D01*
X344881D01*
Y233851D01*
Y234180D01*
X344553D01*
Y234508D01*
X343896D01*
Y234837D01*
X343239D01*
Y235165D01*
X342910D01*
Y235493D01*
X342253D01*
Y235822D01*
X342582D01*
Y236151D01*
X342910D01*
Y236479D01*
X343567D01*
Y236807D01*
X344224D01*
Y237136D01*
X344553D01*
Y237464D01*
Y237793D01*
X343896D01*
Y238122D01*
X343567D01*
Y238450D01*
X342910D01*
Y238778D01*
X342253D01*
Y239107D01*
Y239436D01*
X342910D01*
Y239764D01*
X343239D01*
Y240092D01*
X343567D01*
Y240421D01*
X344224D01*
Y240749D01*
X344553D01*
Y241078D01*
Y241406D01*
X343896D01*
Y241735D01*
X343239D01*
Y242063D01*
X342910D01*
Y242392D01*
X342253D01*
Y242720D01*
X342582D01*
Y243049D01*
X342910D01*
Y243377D01*
X343239D01*
Y243706D01*
X343896D01*
Y244034D01*
X344224D01*
Y244363D01*
X344881D01*
Y244691D01*
X344553D01*
Y245020D01*
X344224D01*
Y245348D01*
X343567D01*
Y245677D01*
X342910D01*
Y246005D01*
X342582D01*
Y246334D01*
X341925D01*
Y246662D01*
Y246991D01*
X342253D01*
Y247319D01*
X342910D01*
Y247648D01*
X343239D01*
Y247976D01*
X343896D01*
Y248305D01*
X344224D01*
Y248633D01*
X343567D01*
Y248962D01*
X343239D01*
Y249290D01*
X342582D01*
Y249619D01*
X341925D01*
Y249947D01*
X341596D01*
Y249619D01*
X341268D01*
Y249290D01*
Y248962D01*
Y248633D01*
Y248305D01*
Y247976D01*
Y247648D01*
Y247319D01*
Y246991D01*
Y246662D01*
X336669D01*
Y246334D01*
X336340D01*
Y246005D01*
X335683D01*
Y245677D01*
X335355D01*
Y245348D01*
X334698D01*
Y245020D01*
X334369D01*
Y244691D01*
Y244363D01*
X334698D01*
Y244034D01*
X335355D01*
Y243706D01*
X335683D01*
Y243377D01*
X336340D01*
Y243049D01*
X336997D01*
Y242720D01*
X336669D01*
Y242392D01*
X336012D01*
Y242063D01*
X335683D01*
Y241735D01*
X335026D01*
Y241406D01*
X334369D01*
Y241078D01*
X334041D01*
Y240749D01*
Y240421D01*
X334698D01*
Y240092D01*
X335026D01*
Y239764D01*
X335355D01*
Y239436D01*
X336012D01*
Y239107D01*
X336340D01*
Y238778D01*
X336012D01*
Y238450D01*
X335355D01*
Y238122D01*
X334698D01*
Y237793D01*
X334041D01*
Y237464D01*
Y237136D01*
X334698D01*
Y236807D01*
X335026D01*
Y236479D01*
X335683D01*
Y236151D01*
X336012D01*
Y235822D01*
X336340D01*
Y235493D01*
X335683D01*
Y235165D01*
X335355D01*
Y234837D01*
X334698D01*
Y234508D01*
X334369D01*
Y234180D01*
X333712D01*
Y233851D01*
Y233523D01*
X334369D01*
Y233194D01*
X334698D01*
Y232866D01*
X335355D01*
Y232537D01*
X336012D01*
Y232209D01*
X336340D01*
Y231880D01*
X336012D01*
Y231552D01*
X335683D01*
Y231223D01*
X335026D01*
Y230895D01*
X334698D01*
Y230566D01*
X334041D01*
Y230238D01*
X333712D01*
Y229909D01*
X334041D01*
Y229581D01*
X334698D01*
Y229252D01*
X335355D01*
Y228924D01*
X335683D01*
Y228595D01*
X336340D01*
Y228267D01*
X336669D01*
Y227938D01*
X336012D01*
Y227610D01*
X335683D01*
Y227281D01*
X335355D01*
Y226953D01*
X334698D01*
Y226624D01*
X334369D01*
Y226296D01*
Y225967D01*
X334698D01*
Y225639D01*
X335355D01*
Y225310D01*
X336012D01*
Y224982D01*
X336340D01*
Y224653D01*
X336997D01*
Y224325D01*
Y223996D01*
X336669D01*
Y223668D01*
X336012D01*
Y223339D01*
X335683D01*
Y223011D01*
X336012D01*
Y222682D01*
X336340D01*
Y222354D01*
Y222025D01*
X336669D01*
Y221697D01*
Y221368D01*
Y221040D01*
X336997D01*
Y220711D01*
Y220383D01*
Y220054D01*
Y219726D01*
Y219397D01*
Y219069D01*
Y218740D01*
Y218412D01*
Y218083D01*
Y217755D01*
Y217426D01*
X336669D01*
Y217098D01*
Y216769D01*
X336340D01*
Y216441D01*
X336012D01*
Y216112D01*
X335355D01*
Y215784D01*
X325829D01*
Y216112D01*
X325171D01*
Y216441D01*
X324843D01*
Y216769D01*
Y217098D01*
Y217426D01*
X324515D01*
Y217755D01*
Y218083D01*
Y218412D01*
Y218740D01*
Y219069D01*
Y219397D01*
Y219726D01*
X324843D01*
Y220054D01*
Y220383D01*
Y220711D01*
Y221040D01*
Y221368D01*
Y221697D01*
X325171D01*
Y222025D01*
Y222354D01*
X325500D01*
Y222682D01*
X325829D01*
Y223011D01*
X325500D01*
Y223339D01*
X325171D01*
Y223668D01*
X324843D01*
Y223996D01*
X325500D01*
Y224325D01*
X325829D01*
Y224653D01*
X326157D01*
Y224982D01*
X326485D01*
Y225310D01*
X326814D01*
Y225639D01*
X327471D01*
Y225967D01*
Y226296D01*
X327143D01*
Y226624D01*
X326485D01*
Y226953D01*
X325829D01*
Y227281D01*
X324843D01*
Y227610D01*
X324186D01*
Y227938D01*
X324843D01*
Y228267D01*
X325171D01*
Y228595D01*
X325500D01*
Y228924D01*
X326157D01*
Y229252D01*
X326485D01*
Y229581D01*
X326814D01*
Y229909D01*
X326485D01*
Y230238D01*
X326157D01*
Y230566D01*
X325500D01*
Y230895D01*
X324843D01*
Y231223D01*
X324186D01*
Y231552D01*
X323857D01*
Y231880D01*
X324515D01*
Y232209D01*
X324843D01*
Y232537D01*
X325500D01*
Y232866D01*
X325829D01*
Y233194D01*
X326485D01*
Y233523D01*
X326814D01*
Y233851D01*
X326485D01*
Y234180D01*
X326157D01*
Y234508D01*
X325500D01*
Y234837D01*
X325171D01*
Y235165D01*
X324515D01*
Y235493D01*
X324186D01*
Y235822D01*
Y236151D01*
X324843D01*
Y236479D01*
X325171D01*
Y236807D01*
X325829D01*
Y237136D01*
X326157D01*
Y237464D01*
X326485D01*
Y237793D01*
Y238122D01*
X325829D01*
Y238450D01*
X325500D01*
Y238778D01*
X324843D01*
Y239107D01*
X324515D01*
Y239436D01*
X324186D01*
Y239764D01*
X324515D01*
Y240092D01*
X325171D01*
Y240421D01*
X325829D01*
Y240749D01*
X326485D01*
Y241078D01*
X326814D01*
Y241406D01*
Y241735D01*
X326157D01*
Y242063D01*
X325829D01*
Y242392D01*
X325171D01*
Y242720D01*
X324843D01*
Y243049D01*
X324515D01*
Y243377D01*
X325171D01*
Y243706D01*
X325500D01*
Y244034D01*
X326157D01*
Y244363D01*
X326814D01*
Y244691D01*
X327143D01*
Y245020D01*
X326814D01*
Y245348D01*
X326485D01*
Y245677D01*
X325829D01*
Y246005D01*
X325171D01*
Y246334D01*
X324843D01*
Y246662D01*
X324515D01*
Y246991D01*
X325171D01*
Y247319D01*
X325500D01*
Y247648D01*
X326157D01*
Y247976D01*
X326485D01*
Y248305D01*
X327143D01*
Y248633D01*
X327471D01*
Y248962D01*
X327143D01*
Y249290D01*
X326814D01*
Y249619D01*
X326157D01*
Y249947D01*
X325500D01*
Y250276D01*
X325829D01*
Y250604D01*
X326485D01*
Y250933D01*
X327143D01*
Y251261D01*
X323857D01*
Y251590D01*
Y251918D01*
Y252247D01*
X324186D01*
Y252575D01*
Y252904D01*
Y253232D01*
X324515D01*
Y253561D01*
X324843D01*
Y253889D01*
Y254218D01*
X325171D01*
Y254546D01*
X325500D01*
Y254875D01*
X326157D01*
Y255203D01*
X326485D01*
Y255532D01*
X327800D01*
Y255860D01*
X330427D01*
Y256189D01*
X329770D01*
Y256517D01*
X329442D01*
Y256846D01*
X328785D01*
Y257174D01*
Y257503D01*
X329113D01*
Y257831D01*
X329770D01*
Y258160D01*
X330099D01*
Y258488D01*
X329113D01*
Y258817D01*
X328456D01*
Y259145D01*
X327800D01*
Y259474D01*
X327471D01*
Y259802D01*
X327143D01*
Y260131D01*
Y260459D01*
X326814D01*
Y260788D01*
Y261116D01*
Y261445D01*
X326485D01*
Y261773D01*
Y262102D01*
Y262430D01*
Y262759D01*
Y263087D01*
Y263416D01*
X326157D01*
Y263744D01*
Y264073D01*
Y264401D01*
Y264730D01*
Y265058D01*
Y265387D01*
X325829D01*
Y265715D01*
Y266043D01*
Y266372D01*
Y266701D01*
Y267029D01*
Y267357D01*
X325500D01*
Y267686D01*
Y268015D01*
Y268343D01*
Y268671D01*
Y269000D01*
X325171D01*
Y269328D01*
Y269657D01*
Y269986D01*
Y270314D01*
Y270642D01*
Y270971D01*
X324843D01*
Y271300D01*
Y271628D01*
Y271956D01*
Y272285D01*
Y272613D01*
X324515D01*
Y272942D01*
Y273270D01*
Y273599D01*
Y273927D01*
Y274256D01*
Y274584D01*
X324186D01*
Y274913D01*
Y275241D01*
Y275570D01*
Y275898D01*
Y276227D01*
X323857D01*
Y276555D01*
Y276884D01*
Y277212D01*
Y277541D01*
Y277869D01*
Y278198D01*
X323529D01*
Y278526D01*
Y278855D01*
Y279183D01*
Y279512D01*
Y279840D01*
Y280169D01*
X323200D01*
Y280497D01*
Y280826D01*
Y281154D01*
Y281483D01*
X322544D01*
Y281811D01*
X321887D01*
Y282140D01*
X321558D01*
Y282468D01*
X320901D01*
Y282797D01*
X320573D01*
Y283125D01*
X319916D01*
Y283454D01*
X319587D01*
Y283782D01*
X319259D01*
Y284111D01*
X318930D01*
Y284439D01*
X318602D01*
Y284768D01*
X317945D01*
Y285096D01*
X317616D01*
Y285425D01*
X317288D01*
Y285753D01*
X316959D01*
Y286082D01*
X316631D01*
Y286410D01*
X316302D01*
Y286739D01*
Y287067D01*
X315974D01*
Y287396D01*
X315645D01*
Y287724D01*
X315317D01*
Y287396D01*
X314660D01*
Y287724D01*
Y288053D01*
X314988D01*
Y288381D01*
X314660D01*
Y288710D01*
Y289038D01*
X314331D01*
Y289367D01*
X314003D01*
Y289695D01*
X313674D01*
Y290024D01*
X313346D01*
Y289695D01*
X313017D01*
Y290024D01*
Y290352D01*
X313346D01*
Y290681D01*
Y291009D01*
X313017D01*
Y291338D01*
X312689D01*
Y291666D01*
Y291995D01*
X312360D01*
Y292323D01*
X312032D01*
Y291995D01*
X311375D01*
Y292323D01*
Y292652D01*
X311703D01*
Y292980D01*
Y293309D01*
Y293637D01*
X311375D01*
Y293966D01*
Y294294D01*
Y294623D01*
X311046D01*
Y294951D01*
Y295280D01*
X310718D01*
Y295608D01*
Y295937D01*
X310389D01*
Y296265D01*
Y296594D01*
Y296922D01*
X310061D01*
Y297251D01*
Y297579D01*
Y297907D01*
X309732D01*
Y298236D01*
Y298565D01*
Y298893D01*
X309404D01*
Y299221D01*
Y299550D01*
Y299879D01*
X309075D01*
Y300207D01*
Y300535D01*
Y300864D01*
Y301192D01*
Y301521D01*
X308747D01*
Y301850D01*
Y302178D01*
Y302506D01*
Y302835D01*
Y303164D01*
X308418D01*
Y303492D01*
Y303820D01*
Y304149D01*
Y304477D01*
Y304806D01*
Y305134D01*
Y305463D01*
Y305791D01*
Y306120D01*
X308090D01*
Y306448D01*
Y306777D01*
Y307105D01*
X307433D01*
Y307434D01*
X306776D01*
Y307762D01*
X306119D01*
Y308091D01*
Y308419D01*
X307433D01*
Y308748D01*
X308747D01*
Y309076D01*
X308418D01*
Y309405D01*
X308090D01*
Y309733D01*
X307761D01*
Y310062D01*
Y310390D01*
X307433D01*
Y310719D01*
Y311047D01*
Y311376D01*
X307104D01*
Y311704D01*
Y312033D01*
Y312361D01*
Y312690D01*
Y313018D01*
X307433D01*
Y313347D01*
Y313675D01*
Y314004D01*
X307761D01*
Y314332D01*
Y314661D01*
X308090D01*
Y314989D01*
X308418D01*
Y315318D01*
X308747D01*
Y315646D01*
X309075D01*
Y315975D01*
X309404D01*
Y315646D01*
Y315318D01*
X309075D01*
Y314989D01*
Y314661D01*
Y314332D01*
Y314004D01*
Y313675D01*
Y313347D01*
Y313018D01*
X309404D01*
Y312690D01*
Y312361D01*
X309732D01*
Y312033D01*
Y311704D01*
X310061D01*
Y311376D01*
X310389D01*
Y311047D01*
X311046D01*
Y310719D01*
Y310390D01*
Y310062D01*
X310718D01*
Y309733D01*
Y309405D01*
X310389D01*
Y309076D01*
Y308748D01*
X311046D01*
Y309076D01*
Y309405D01*
X311375D01*
Y309733D01*
Y310062D01*
X311703D01*
Y310390D01*
X312032D01*
Y310719D01*
X312360D01*
Y310390D01*
X313017D01*
Y310719D01*
X314003D01*
Y311047D01*
X314660D01*
Y311376D01*
X314988D01*
Y311704D01*
Y312033D01*
X315317D01*
Y312361D01*
Y312690D01*
Y313018D01*
X315645D01*
Y313347D01*
Y313675D01*
Y314004D01*
Y314332D01*
X315974D01*
Y314004D01*
Y313675D01*
Y313347D01*
X316302D01*
Y313018D01*
Y312690D01*
Y312361D01*
Y312033D01*
Y311704D01*
Y311376D01*
Y311047D01*
X315974D01*
Y310719D01*
Y310390D01*
Y310062D01*
X315645D01*
Y309733D01*
X315317D01*
Y309405D01*
Y309076D01*
X314988D01*
Y308748D01*
X314331D01*
Y308419D01*
X314003D01*
Y308091D01*
X313674D01*
Y307762D01*
X314331D01*
Y307434D01*
X314660D01*
Y307105D01*
X315317D01*
Y306777D01*
X314988D01*
Y306448D01*
X313674D01*
Y306120D01*
X313017D01*
Y305791D01*
Y305463D01*
Y305134D01*
Y304806D01*
X313346D01*
Y304477D01*
Y304149D01*
Y303820D01*
Y303492D01*
Y303164D01*
Y302835D01*
X313674D01*
Y302506D01*
Y302178D01*
Y301850D01*
Y301521D01*
Y301192D01*
X314003D01*
Y300864D01*
Y300535D01*
Y300207D01*
X314331D01*
Y299879D01*
Y299550D01*
Y299221D01*
Y298893D01*
X314660D01*
Y298565D01*
Y298236D01*
X314988D01*
Y297907D01*
Y297579D01*
Y297251D01*
X315317D01*
Y296922D01*
Y296594D01*
X315645D01*
Y296265D01*
Y295937D01*
X315974D01*
Y295608D01*
Y295280D01*
X316302D01*
Y294951D01*
X316631D01*
Y294623D01*
Y294294D01*
Y293966D01*
X316959D01*
Y293637D01*
X317288D01*
Y293309D01*
X317616D01*
Y292980D01*
X317945D01*
Y292652D01*
Y292323D01*
Y291995D01*
X318273D01*
Y291666D01*
X318602D01*
Y291338D01*
Y291009D01*
X319259D01*
Y290681D01*
Y290352D01*
X319587D01*
Y290024D01*
X319916D01*
Y289695D01*
X320244D01*
Y289367D01*
X320573D01*
Y289038D01*
X320901D01*
Y288710D01*
X321230D01*
Y288381D01*
X321558D01*
Y288053D01*
X321887D01*
Y288381D01*
Y288710D01*
Y289038D01*
X322215D01*
Y289367D01*
Y289695D01*
Y290024D01*
X322544D01*
Y290352D01*
X322872D01*
Y290681D01*
X323200D01*
Y291009D01*
X323529D01*
Y291338D01*
X323857D01*
Y291666D01*
X324843D01*
Y291995D01*
X327800D01*
Y292323D01*
X328785D01*
Y292652D01*
X331741D01*
Y292980D01*
X330756D01*
Y293309D01*
X329770D01*
Y293637D01*
X328785D01*
Y293966D01*
X328128D01*
Y294294D01*
X327471D01*
Y294623D01*
X326814D01*
Y294951D01*
X326485D01*
Y295280D01*
X325829D01*
Y295608D01*
X325171D01*
Y295937D01*
X324843D01*
Y296265D01*
X324515D01*
Y296594D01*
X324186D01*
Y296922D01*
X323857D01*
Y297251D01*
X323529D01*
Y297579D01*
X323200D01*
Y297907D01*
X322872D01*
Y298236D01*
X322544D01*
Y298565D01*
X322215D01*
Y298893D01*
X321887D01*
Y299221D01*
Y299550D01*
X321558D01*
Y299879D01*
Y300207D01*
X321230D01*
Y300535D01*
Y300864D01*
X320901D01*
Y301192D01*
Y301521D01*
X320573D01*
Y301850D01*
Y302178D01*
Y302506D01*
Y302835D01*
Y303164D01*
Y303492D01*
X320244D01*
Y303820D01*
Y304149D01*
X320573D01*
Y304477D01*
Y304806D01*
Y305134D01*
Y305463D01*
Y305791D01*
Y306120D01*
X324186D01*
Y306448D01*
X332398D01*
Y306777D01*
X332070D01*
Y307105D01*
Y307434D01*
Y307762D01*
Y308091D01*
X331741D01*
Y308419D01*
Y308748D01*
Y309076D01*
X331413D01*
Y309405D01*
Y309733D01*
Y310062D01*
Y310390D01*
X331084D01*
Y310719D01*
Y311047D01*
Y311376D01*
X330756D01*
Y311704D01*
Y312033D01*
Y312361D01*
Y312690D01*
X330427D01*
Y313018D01*
Y313347D01*
Y313675D01*
X330099D01*
Y314004D01*
Y314332D01*
Y314661D01*
Y314989D01*
X329770D01*
Y315318D01*
Y315646D01*
Y315975D01*
X329442D01*
Y316303D01*
Y316632D01*
Y316960D01*
Y317289D01*
X329113D01*
Y317617D01*
Y317946D01*
Y318274D01*
X328785D01*
Y318603D01*
X327800D01*
Y318931D01*
X327471D01*
Y319260D01*
X327800D01*
Y319588D01*
X328128D01*
Y319917D01*
X328785D01*
Y320245D01*
X330099D01*
Y319917D01*
X330427D01*
Y319588D01*
X330099D01*
Y319260D01*
X329770D01*
Y318931D01*
X329442D01*
Y318603D01*
Y318274D01*
Y317946D01*
X329770D01*
Y317617D01*
Y317289D01*
Y316960D01*
Y316632D01*
X330099D01*
Y316303D01*
Y315975D01*
Y315646D01*
X330427D01*
Y315318D01*
Y314989D01*
Y314661D01*
Y314332D01*
X330756D01*
Y314004D01*
Y313675D01*
Y313347D01*
X331084D01*
Y313018D01*
Y312690D01*
Y312361D01*
Y312033D01*
X331413D01*
Y311704D01*
Y311376D01*
Y311047D01*
X331741D01*
Y310719D01*
Y310390D01*
Y310062D01*
Y309733D01*
X332070D01*
Y309405D01*
Y309076D01*
Y308748D01*
X332398D01*
Y308419D01*
Y308091D01*
Y307762D01*
Y307434D01*
X332727D01*
Y307105D01*
Y306777D01*
Y306448D01*
X345867D01*
Y306777D01*
Y307105D01*
X346195D01*
Y307434D01*
Y307762D01*
Y308091D01*
Y308419D01*
X346524D01*
Y308748D01*
Y309076D01*
Y309405D01*
X346852D01*
Y309733D01*
Y310062D01*
Y310390D01*
Y310719D01*
X347181D01*
Y311047D01*
Y311376D01*
Y311704D01*
X347509D01*
Y312033D01*
Y312361D01*
Y312690D01*
Y313018D01*
X347838D01*
Y313347D01*
Y313675D01*
Y314004D01*
X348166D01*
Y314332D01*
Y314661D01*
Y314989D01*
Y315318D01*
X348495D01*
Y315646D01*
Y315975D01*
Y316303D01*
X348823D01*
Y316632D01*
Y316960D01*
Y317289D01*
Y317617D01*
X349152D01*
Y317946D01*
Y318274D01*
Y318603D01*
X349480D01*
Y318931D01*
X349152D01*
Y319260D01*
X348495D01*
Y319588D01*
Y319917D01*
X348823D01*
Y320245D01*
X349809D01*
Y319917D01*
D02*
G37*
G36*
X329786Y399222D02*
X330347Y399483D01*
X330477Y399203D01*
X331038Y399464D01*
X331169Y399184D01*
X331730Y399445D01*
X331861Y399165D01*
X332142Y399296D01*
X332272Y399015D01*
X332553Y399146D01*
X332684Y398866D01*
X332964Y398996D01*
X333095Y398716D01*
X333376Y398847D01*
X333506Y398566D01*
X333787Y398697D01*
X333918Y398416D01*
X334048Y398136D01*
X334329Y398267D01*
X334460Y397986D01*
X334740Y398117D01*
X334871Y397836D01*
X335152Y397967D01*
X335282Y397687D01*
X335563Y397818D01*
X335694Y397537D01*
X335824Y397257D01*
X336105Y397387D01*
X336236Y397107D01*
X336516Y397238D01*
X336647Y396957D01*
X336928Y397088D01*
X337058Y396808D01*
X337189Y396527D01*
X337470Y396658D01*
X337600Y396377D01*
X337881Y396508D01*
X338012Y396228D01*
X338142Y395947D01*
X338423Y396078D01*
X338554Y395797D01*
X338834Y395928D01*
X338965Y395648D01*
X339096Y395367D01*
X339376Y395498D01*
X339507Y395217D01*
X339638Y394937D01*
X339918Y395068D01*
X340049Y394787D01*
X342013Y395703D01*
X342144Y395422D01*
X344107Y396338D01*
X344238Y396058D01*
X345921Y396842D01*
X346052Y396562D01*
X347454Y397216D01*
X347585Y396935D01*
X348988Y397589D01*
X349118Y397309D01*
X350240Y397832D01*
X350371Y397551D01*
X351213Y397944D01*
X351343Y397663D01*
X352185Y398056D01*
X352316Y397775D01*
X353438Y398298D01*
X353569Y398018D01*
X354410Y398410D01*
X354541Y398130D01*
X355663Y398653D01*
X355794Y398373D01*
X356635Y398765D01*
X356766Y398484D01*
X357607Y398877D01*
X357738Y398596D01*
X358580Y398989D01*
X358711Y398708D01*
X359552Y399101D01*
X359683Y398820D01*
X360244Y399082D01*
X360375Y398801D01*
X360936Y399063D01*
X361066Y398782D01*
X361627Y399044D01*
X361758Y398763D01*
X362319Y399025D01*
X362450Y398745D01*
X363011Y399006D01*
X363142Y398726D01*
X363703Y398987D01*
X363834Y398707D01*
X364114Y398837D01*
X364245Y398557D01*
X364806Y398819D01*
X364937Y398538D01*
X365217Y398669D01*
X365348Y398388D01*
X365629Y398519D01*
X365759Y398239D01*
X366040Y398370D01*
X366171Y398089D01*
X366451Y398220D01*
X366582Y397939D01*
X366862Y398070D01*
X366993Y397790D01*
X367124Y397509D01*
X367405Y397640D01*
X367535Y397359D01*
X367255Y397229D01*
X367386Y396948D01*
X367516Y396668D01*
X367236Y396537D01*
X367367Y396256D01*
X367086Y396126D01*
X367217Y395845D01*
X366656Y395583D01*
X366787Y395303D01*
X365945Y394911D01*
X366076Y394630D01*
X359344Y391491D01*
X359475Y391210D01*
X359194Y391079D01*
X359325Y390799D01*
X358764Y390537D01*
X358895Y390257D01*
X358053Y389864D01*
X358184Y389584D01*
X357623Y389322D01*
X357754Y389042D01*
X356913Y388650D01*
X357043Y388369D01*
X356202Y387977D01*
X356333Y387696D01*
X355491Y387304D01*
X355622Y387023D01*
X354500Y386500D01*
X354631Y386220D01*
X353509Y385696D01*
X353640Y385416D01*
X352237Y384762D01*
X352368Y384481D01*
X350685Y383697D01*
X350816Y383416D01*
X348852Y382500D01*
X348983Y382220D01*
X346459Y381043D01*
X346589Y380762D01*
X341540Y378408D01*
X341671Y378127D01*
X338305Y376558D01*
X338174Y376838D01*
X333125Y374484D01*
X332994Y374764D01*
X330189Y373456D01*
X330059Y373737D01*
X328095Y372821D01*
X327964Y373102D01*
X326562Y372448D01*
X326431Y372728D01*
X325028Y372074D01*
X324898Y372355D01*
X323776Y371832D01*
X323645Y372112D01*
X322523Y371589D01*
X322392Y371869D01*
X321551Y371477D01*
X321420Y371758D01*
X320578Y371365D01*
X320447Y371646D01*
X319606Y371253D01*
X319475Y371534D01*
X318634Y371141D01*
X318503Y371422D01*
X317942Y371160D01*
X317811Y371441D01*
X317250Y371179D01*
X317119Y371460D01*
X316558Y371198D01*
X316427Y371479D01*
X309696Y368339D01*
X309565Y368620D01*
X308723Y368227D01*
X308592Y368508D01*
X308031Y368246D01*
X307901Y368527D01*
X307620Y368396D01*
X307489Y368676D01*
X307209Y368546D01*
X307078Y368826D01*
X306798Y368695D01*
X306667Y368976D01*
X306536Y369256D01*
X306816Y369387D01*
X306686Y369668D01*
X306555Y369948D01*
X306835Y370079D01*
X306704Y370359D01*
X306985Y370490D01*
X306854Y370771D01*
X307135Y370902D01*
X307004Y371182D01*
X307284Y371313D01*
X307154Y371593D01*
X307434Y371724D01*
X307303Y372005D01*
X307584Y372135D01*
X307453Y372416D01*
X308014Y372678D01*
X307883Y372958D01*
X308444Y373220D01*
X308313Y373500D01*
X308594Y373631D01*
X308463Y373911D01*
X309024Y374173D01*
X308893Y374454D01*
X309735Y374846D01*
X309604Y375127D01*
X310165Y375388D01*
X310034Y375669D01*
X310595Y375930D01*
X310464Y376211D01*
X311306Y376603D01*
X311175Y376884D01*
X312017Y377276D01*
X311886Y377556D01*
X312727Y377949D01*
X312597Y378229D01*
X313438Y378622D01*
X313307Y378902D01*
X314149Y379295D01*
X314018Y379575D01*
X315140Y380098D01*
X315009Y380379D01*
X316131Y380902D01*
X316000Y381183D01*
X317122Y381706D01*
X316991Y381986D01*
X317833Y382379D01*
X317702Y382659D01*
X318824Y383182D01*
X318693Y383463D01*
X319815Y383986D01*
X319685Y384267D01*
X321087Y384921D01*
X320956Y385201D01*
X322639Y385986D01*
X322509Y386266D01*
X324753Y387313D01*
X324622Y387593D01*
X327427Y388901D01*
X327296Y389182D01*
X336272Y393367D01*
X336141Y393648D01*
X336010Y393928D01*
X335730Y393798D01*
X335599Y394078D01*
X335468Y394359D01*
X335337Y394639D01*
X335057Y394508D01*
X334926Y394789D01*
X334795Y395069D01*
X334665Y395350D01*
X334384Y395219D01*
X334253Y395499D01*
X334122Y395780D01*
X333992Y396060D01*
X333711Y395930D01*
X333580Y396210D01*
X333450Y396491D01*
X333169Y396360D01*
X333038Y396640D01*
X332908Y396921D01*
X332627Y396790D01*
X332496Y397071D01*
X332365Y397351D01*
X332085Y397220D01*
X331954Y397501D01*
X331823Y397781D01*
X331543Y397651D01*
X331412Y397931D01*
X331132Y397800D01*
X331001Y398081D01*
X330440Y397819D01*
X330309Y398100D01*
X329748Y397838D01*
X329617Y398118D01*
X328776Y397726D01*
X328645Y398007D01*
X327523Y397483D01*
X327392Y397764D01*
X325709Y396979D01*
X325840Y396699D01*
X325559Y396568D01*
X325690Y396287D01*
X324849Y395895D01*
X324979Y395614D01*
X323857Y395091D01*
X323988Y394811D01*
X318939Y392456D01*
X318808Y392737D01*
X317686Y392214D01*
X317555Y392494D01*
X316714Y392102D01*
X316583Y392382D01*
X316022Y392121D01*
X315891Y392401D01*
X315611Y392270D01*
X315480Y392551D01*
X315200Y392420D01*
X315069Y392701D01*
X314788Y392570D01*
X314657Y392850D01*
X314527Y393131D01*
X314396Y393411D01*
X314676Y393542D01*
X314546Y393823D01*
X314415Y394103D01*
X314976Y394365D01*
X314845Y394645D01*
X315126Y394776D01*
X314995Y395056D01*
X315836Y395449D01*
X315705Y395729D01*
X316547Y396122D01*
X316416Y396402D01*
X318099Y397187D01*
X317968Y397467D01*
X320773Y398776D01*
X320904Y398495D01*
X322587Y399280D01*
X322718Y398999D01*
X323559Y399392D01*
X323690Y399111D01*
X324251Y399373D01*
X324382Y399092D01*
X324943Y399354D01*
X325074Y399073D01*
X325354Y399204D01*
X325485Y398924D01*
X325766Y399055D01*
X325897Y398774D01*
X326738Y399166D01*
X326869Y398886D01*
X327710Y399278D01*
X327841Y398998D01*
X328683Y399390D01*
X328813Y399110D01*
X329655Y399502D01*
X329786Y399222D01*
D02*
G37*
%LPC*%
G36*
X351123Y287396D02*
X327471D01*
Y287067D01*
X327143D01*
Y286739D01*
X326814D01*
Y286410D01*
X326485D01*
Y286082D01*
Y285753D01*
Y285425D01*
Y285096D01*
Y284768D01*
Y284439D01*
Y284111D01*
Y283782D01*
Y283454D01*
Y283125D01*
Y282797D01*
Y282468D01*
X326814D01*
Y282140D01*
Y281811D01*
Y281483D01*
Y281154D01*
Y280826D01*
Y280497D01*
Y280169D01*
X327143D01*
Y279840D01*
Y279512D01*
X327471D01*
Y279183D01*
X328128D01*
Y278855D01*
X350466D01*
Y279183D01*
X351123D01*
Y279512D01*
X351451D01*
Y279840D01*
X351780D01*
Y280169D01*
Y280497D01*
Y280826D01*
Y281154D01*
Y281483D01*
X352108D01*
Y281811D01*
Y282140D01*
Y282468D01*
Y282797D01*
Y283125D01*
Y283454D01*
Y283782D01*
Y284111D01*
Y284439D01*
X352437D01*
Y284768D01*
Y285096D01*
Y285425D01*
Y285753D01*
Y286082D01*
X352108D01*
Y286410D01*
Y286739D01*
X351780D01*
Y287067D01*
X351123D01*
Y287396D01*
D02*
G37*
G36*
X340282Y305791D02*
X338640D01*
Y305463D01*
X325500D01*
Y305134D01*
X323857D01*
Y304806D01*
X323529D01*
Y304477D01*
Y304149D01*
Y303820D01*
Y303492D01*
Y303164D01*
Y302835D01*
Y302506D01*
Y302178D01*
Y301850D01*
Y301521D01*
X323857D01*
Y301192D01*
Y300864D01*
Y300535D01*
X324186D01*
Y300207D01*
Y299879D01*
X324515D01*
Y299550D01*
Y299221D01*
X324843D01*
Y298893D01*
Y298565D01*
X325171D01*
Y298236D01*
X325500D01*
Y297907D01*
X325829D01*
Y297579D01*
X326157D01*
Y297251D01*
X326485D01*
Y296922D01*
X326814D01*
Y296594D01*
X327143D01*
Y296265D01*
X327800D01*
Y295937D01*
X328128D01*
Y295608D01*
X328785D01*
Y295280D01*
X329442D01*
Y294951D01*
X330099D01*
Y294623D01*
X330756D01*
Y294294D01*
X331741D01*
Y293966D01*
X332727D01*
Y293637D01*
X334041D01*
Y293309D01*
X336012D01*
Y292980D01*
X342910D01*
Y293309D01*
X344553D01*
Y293637D01*
X345867D01*
Y293966D01*
X346852D01*
Y294294D01*
X347838D01*
Y294623D01*
X348495D01*
Y294951D01*
X349152D01*
Y295280D01*
X349809D01*
Y295608D01*
X350466D01*
Y295937D01*
X350794D01*
Y296265D01*
X351451D01*
Y296594D01*
X351780D01*
Y296922D01*
X352108D01*
Y297251D01*
X352437D01*
Y297579D01*
X352765D01*
Y297907D01*
X353094D01*
Y298236D01*
X353422D01*
Y298565D01*
X353751D01*
Y298893D01*
X354079D01*
Y299221D01*
Y299550D01*
X354408D01*
Y299879D01*
Y300207D01*
X354736D01*
Y300535D01*
Y300864D01*
Y301192D01*
X355065D01*
Y301521D01*
Y301850D01*
Y302178D01*
Y302506D01*
Y302835D01*
Y303164D01*
Y303492D01*
Y303820D01*
Y304149D01*
Y304477D01*
Y304806D01*
Y305134D01*
X353422D01*
Y305463D01*
X340282D01*
Y305791D01*
D02*
G37*
G36*
X336669Y249619D02*
X335683D01*
Y249290D01*
X335355D01*
Y248962D01*
X334698D01*
Y248633D01*
X334369D01*
Y248305D01*
X334698D01*
Y247976D01*
X335026D01*
Y247648D01*
X335683D01*
Y247319D01*
X336012D01*
Y246991D01*
X336669D01*
Y247319D01*
Y247648D01*
Y247976D01*
Y248305D01*
Y248633D01*
Y248962D01*
Y249290D01*
Y249619D01*
D02*
G37*
%LPD*%
G36*
X348166Y285425D02*
X348823D01*
Y285096D01*
X349152D01*
Y284768D01*
X349480D01*
Y284439D01*
X349809D01*
Y284111D01*
Y283782D01*
Y283454D01*
Y283125D01*
Y282797D01*
Y282468D01*
Y282140D01*
X349480D01*
Y281811D01*
X349152D01*
Y281483D01*
X348823D01*
Y281154D01*
X348166D01*
Y280826D01*
X346524D01*
Y281154D01*
X346195D01*
Y281483D01*
X345538D01*
Y281811D01*
Y282140D01*
X345210D01*
Y282468D01*
Y282797D01*
Y283125D01*
X344881D01*
Y283454D01*
X345210D01*
Y283782D01*
Y284111D01*
Y284439D01*
X345538D01*
Y284768D01*
X345867D01*
Y285096D01*
X346195D01*
Y285425D01*
X346852D01*
Y285753D01*
X348166D01*
Y285425D01*
D02*
G37*
G36*
X339954D02*
X340611D01*
Y285096D01*
X340939D01*
Y284768D01*
X341268D01*
Y284439D01*
X341596D01*
Y284111D01*
Y283782D01*
Y283454D01*
X341925D01*
Y283125D01*
X341596D01*
Y282797D01*
Y282468D01*
Y282140D01*
X341268D01*
Y281811D01*
Y281483D01*
X340611D01*
Y281154D01*
X340282D01*
Y280826D01*
X338640D01*
Y281154D01*
X337983D01*
Y281483D01*
X337654D01*
Y281811D01*
X337326D01*
Y282140D01*
X336997D01*
Y282468D01*
Y282797D01*
Y283125D01*
Y283454D01*
Y283782D01*
Y284111D01*
Y284439D01*
X337326D01*
Y284768D01*
X337654D01*
Y285096D01*
X337983D01*
Y285425D01*
X338640D01*
Y285753D01*
X339954D01*
Y285425D01*
D02*
G37*
G36*
X332070D02*
X332727D01*
Y285096D01*
X333055D01*
Y284768D01*
X333384D01*
Y284439D01*
Y284111D01*
X333712D01*
Y283782D01*
Y283454D01*
Y283125D01*
Y282797D01*
Y282468D01*
X333384D01*
Y282140D01*
Y281811D01*
X333055D01*
Y281483D01*
X332727D01*
Y281154D01*
X332070D01*
Y280826D01*
X330427D01*
Y281154D01*
X329770D01*
Y281483D01*
X329442D01*
Y281811D01*
X329113D01*
Y282140D01*
Y282468D01*
X328785D01*
Y282797D01*
Y283125D01*
Y283454D01*
Y283782D01*
Y284111D01*
X329113D01*
Y284439D01*
Y284768D01*
X329442D01*
Y285096D01*
X329770D01*
Y285425D01*
X330427D01*
Y285753D01*
X332070D01*
Y285425D01*
D02*
G37*
G36*
X346524Y304477D02*
X353094D01*
Y304149D01*
Y303820D01*
X353422D01*
Y303492D01*
Y303164D01*
Y302835D01*
Y302506D01*
Y302178D01*
Y301850D01*
Y301521D01*
X353094D01*
Y301192D01*
Y300864D01*
Y300535D01*
X352765D01*
Y300207D01*
Y299879D01*
X352437D01*
Y299550D01*
Y299221D01*
X352108D01*
Y298893D01*
X351780D01*
Y298565D01*
X351451D01*
Y298236D01*
X351123D01*
Y297907D01*
X350794D01*
Y297579D01*
X350466D01*
Y297251D01*
X350137D01*
Y296922D01*
X349809D01*
Y296594D01*
X349152D01*
Y296265D01*
X348495D01*
Y295937D01*
X348166D01*
Y295608D01*
X347181D01*
Y295280D01*
X346524D01*
Y294951D01*
X345538D01*
Y294623D01*
X344553D01*
Y294294D01*
X342910D01*
Y293966D01*
X335683D01*
Y294294D01*
X334369D01*
Y294623D01*
X333055D01*
Y294951D01*
X332070D01*
Y295280D01*
X331413D01*
Y295608D01*
X330756D01*
Y295937D01*
X330099D01*
Y296265D01*
X329442D01*
Y296594D01*
X329113D01*
Y296922D01*
X328456D01*
Y297251D01*
X328128D01*
Y297579D01*
X327800D01*
Y297907D01*
X327471D01*
Y298236D01*
X327143D01*
Y298565D01*
X326814D01*
Y298893D01*
X326485D01*
Y299221D01*
Y299550D01*
X326157D01*
Y299879D01*
X325829D01*
Y300207D01*
Y300535D01*
Y300864D01*
X325500D01*
Y301192D01*
Y301521D01*
Y301850D01*
Y302178D01*
X325171D01*
Y302506D01*
Y302835D01*
Y303164D01*
Y303492D01*
X325500D01*
Y303820D01*
Y304149D01*
Y304477D01*
X332398D01*
Y304806D01*
X346524D01*
Y304477D01*
D02*
G37*
%LPC*%
G36*
X340611D02*
X337983D01*
Y304149D01*
X337326D01*
Y303820D01*
X336669D01*
Y303492D01*
X336340D01*
Y303164D01*
X336012D01*
Y302835D01*
X335683D01*
Y302506D01*
X335355D01*
Y302178D01*
Y301850D01*
X335026D01*
Y301521D01*
Y301192D01*
Y300864D01*
X334698D01*
Y300535D01*
Y300207D01*
Y299879D01*
Y299550D01*
Y299221D01*
X335026D01*
Y298893D01*
Y298565D01*
Y298236D01*
Y297907D01*
X335355D01*
Y297579D01*
Y297251D01*
X335683D01*
Y296922D01*
X336012D01*
Y296594D01*
X336340D01*
Y296265D01*
X336669D01*
Y295937D01*
X337326D01*
Y295608D01*
X338311D01*
Y295280D01*
X340282D01*
Y295608D01*
X341268D01*
Y295937D01*
X341925D01*
Y296265D01*
X342253D01*
Y296594D01*
X342582D01*
Y296922D01*
X342910D01*
Y297251D01*
X343239D01*
Y297579D01*
Y297907D01*
X343567D01*
Y298236D01*
Y298565D01*
X343896D01*
Y298893D01*
Y299221D01*
Y299550D01*
Y299879D01*
Y300207D01*
Y300535D01*
Y300864D01*
Y301192D01*
X343567D01*
Y301521D01*
Y301850D01*
Y302178D01*
X343239D01*
Y302506D01*
X342910D01*
Y302835D01*
Y303164D01*
X342582D01*
Y303492D01*
X341925D01*
Y303820D01*
X341596D01*
Y304149D01*
X340611D01*
Y304477D01*
D02*
G37*
%LPD*%
G36*
Y302835D02*
X341268D01*
Y302506D01*
X341596D01*
Y302178D01*
X341925D01*
Y301850D01*
X342253D01*
Y301521D01*
Y301192D01*
X342582D01*
Y300864D01*
Y300535D01*
Y300207D01*
Y299879D01*
Y299550D01*
Y299221D01*
Y298893D01*
Y298565D01*
X342253D01*
Y298236D01*
Y297907D01*
X341925D01*
Y297579D01*
X341596D01*
Y297251D01*
X341268D01*
Y296922D01*
X340611D01*
Y296594D01*
X338311D01*
Y296922D01*
X337654D01*
Y297251D01*
X336997D01*
Y297579D01*
X336669D01*
Y297907D01*
Y298236D01*
X336340D01*
Y298565D01*
Y298893D01*
X336012D01*
Y299221D01*
Y299550D01*
Y299879D01*
Y300207D01*
Y300535D01*
Y300864D01*
Y301192D01*
X336340D01*
Y301521D01*
Y301850D01*
X336669D01*
Y302178D01*
X336997D01*
Y302506D01*
X337326D01*
Y302835D01*
X337983D01*
Y303164D01*
X340611D01*
Y302835D01*
D02*
G37*
%LPC*%
G36*
X340282D02*
X338311D01*
Y302506D01*
X337654D01*
Y302178D01*
X337326D01*
Y301850D01*
X336997D01*
Y301521D01*
X336669D01*
Y301192D01*
Y300864D01*
X336340D01*
Y300535D01*
Y300207D01*
Y299879D01*
Y299550D01*
Y299221D01*
X336669D01*
Y298893D01*
Y298565D01*
Y298236D01*
X336997D01*
Y297907D01*
X337326D01*
Y297579D01*
X337654D01*
Y297251D01*
X338640D01*
Y296922D01*
X340282D01*
Y297251D01*
X340939D01*
Y297579D01*
X341268D01*
Y297907D01*
X341596D01*
Y298236D01*
X341925D01*
Y298565D01*
Y298893D01*
X342253D01*
Y299221D01*
Y299550D01*
Y299879D01*
Y300207D01*
Y300535D01*
Y300864D01*
Y301192D01*
X341925D01*
Y301521D01*
X341596D01*
Y301850D01*
Y302178D01*
X340939D01*
Y302506D01*
X340282D01*
Y302835D01*
D02*
G37*
G36*
X321858Y397915D02*
X321016Y397523D01*
X320885Y397803D01*
X316678Y395841D01*
X316809Y395561D01*
X315967Y395168D01*
X316098Y394888D01*
X315537Y394626D01*
X315668Y394346D01*
X315387Y394215D01*
X315518Y393934D01*
X315237Y393804D01*
X315368Y393523D01*
X315499Y393243D01*
X315630Y392962D01*
X315761Y392682D01*
X316041Y392812D01*
X316172Y392532D01*
X316733Y392793D01*
X316864Y392513D01*
X317425Y392775D01*
X317555Y392494D01*
X318958Y393148D01*
X319089Y392868D01*
X321333Y393914D01*
X321202Y394195D01*
X322605Y394848D01*
X322474Y395129D01*
X323315Y395521D01*
X323184Y395802D01*
X323465Y395933D01*
X323334Y396213D01*
X323615Y396344D01*
X323484Y396624D01*
X323764Y396755D01*
X323634Y397036D01*
X323503Y397316D01*
X323222Y397185D01*
X323092Y397466D01*
X322961Y397746D01*
X322680Y397616D01*
X322549Y397896D01*
X321988Y397635D01*
X321858Y397915D01*
D02*
G37*
G36*
X337991Y390413D02*
X337150Y390020D01*
X337019Y390301D01*
X336458Y390039D01*
X336327Y390320D01*
X335205Y389796D01*
X335074Y390077D01*
X333672Y389423D01*
X333541Y389703D01*
X331017Y388526D01*
X330886Y388807D01*
X326398Y386714D01*
X326529Y386434D01*
X324004Y385256D01*
X324135Y384976D01*
X322732Y384322D01*
X322863Y384041D01*
X321741Y383518D01*
X321872Y383238D01*
X321030Y382845D01*
X321161Y382565D01*
X320600Y382303D01*
X320731Y382023D01*
X320170Y381761D01*
X320301Y381481D01*
X319740Y381219D01*
X319871Y380938D01*
X319590Y380808D01*
X319721Y380527D01*
X319440Y380396D01*
X319571Y380116D01*
X319291Y379985D01*
X319422Y379704D01*
X319552Y379424D01*
X319272Y379293D01*
X319403Y379013D01*
X319533Y378732D01*
X319664Y378452D01*
X319795Y378171D01*
X320075Y378302D01*
X320206Y378022D01*
X320337Y377741D01*
X320618Y377872D01*
X320748Y377591D01*
X321029Y377722D01*
X321160Y377442D01*
X321440Y377572D01*
X321571Y377292D01*
X322132Y377554D01*
X322263Y377273D01*
X322824Y377535D01*
X322955Y377254D01*
X323796Y377646D01*
X323927Y377366D01*
X324768Y377758D01*
X324899Y377478D01*
X326021Y378001D01*
X326152Y377721D01*
X327554Y378375D01*
X327685Y378094D01*
X330490Y379402D01*
X330621Y379121D01*
X333987Y380691D01*
X333856Y380972D01*
X336661Y382280D01*
X336531Y382560D01*
X337933Y383214D01*
X337802Y383495D01*
X338924Y384018D01*
X338793Y384298D01*
X339635Y384691D01*
X339504Y384971D01*
X340346Y385364D01*
X340215Y385644D01*
X340776Y385906D01*
X340645Y386186D01*
X340926Y386317D01*
X340795Y386597D01*
X341356Y386859D01*
X341225Y387140D01*
X341506Y387270D01*
X341375Y387551D01*
X341655Y387682D01*
X341524Y387962D01*
X341394Y388243D01*
X341263Y388523D01*
X341543Y388654D01*
X341412Y388934D01*
X341282Y389215D01*
X341001Y389084D01*
X340870Y389365D01*
X340740Y389645D01*
X340609Y389926D01*
X340328Y389795D01*
X340197Y390075D01*
X339917Y389945D01*
X339786Y390225D01*
X339225Y389964D01*
X339094Y390244D01*
X338814Y390113D01*
X338683Y390394D01*
X338122Y390132D01*
X337991Y390413D01*
D02*
G37*
%LPD*%
D17*
X476126Y213500D02*
Y413500D01*
Y213500D02*
X491500D01*
Y413500D01*
X476126D02*
X491500D01*
X476126Y403500D02*
X491874D01*
X289000Y190626D02*
X489000D01*
Y206000D01*
X289000D02*
X489000D01*
X289000Y190626D02*
Y206000D01*
X299000Y190626D02*
Y206374D01*
X286126Y213500D02*
Y413500D01*
Y213500D02*
X301500D01*
Y413500D01*
X286126D02*
X301500D01*
X286126Y403500D02*
X301874D01*
X476126D01*
X349332Y427829D02*
X346000D01*
Y425330D01*
X347666D01*
X346000D01*
Y422830D01*
X351831D02*
X353498D01*
X354331Y423664D01*
Y425330D01*
X353498Y426163D01*
X351831D01*
X350998Y425330D01*
Y423664D01*
X351831Y422830D01*
X355997Y426163D02*
Y422830D01*
Y424497D01*
X356830Y425330D01*
X357663Y426163D01*
X358496D01*
X369326Y426996D02*
X368493Y427829D01*
X366827D01*
X365993Y426996D01*
Y423664D01*
X366827Y422830D01*
X368493D01*
X369326Y423664D01*
X370992Y427829D02*
Y422830D01*
Y425330D01*
X371825Y426163D01*
X373491D01*
X374324Y425330D01*
Y422830D01*
X375990D02*
X377656D01*
X376823D01*
Y426163D01*
X375990D01*
X380156Y421164D02*
Y426163D01*
X382655D01*
X383488Y425330D01*
Y423664D01*
X382655Y422830D01*
X380156D01*
X385154Y427829D02*
Y422830D01*
X386820Y424497D01*
X388486Y422830D01*
Y427829D01*
X390152D02*
Y422830D01*
Y425330D01*
X390985Y426163D01*
X392652D01*
X393485Y425330D01*
Y422830D01*
X395151D02*
X396817D01*
X395984D01*
Y426163D01*
X395151D01*
X399316Y422830D02*
X401815D01*
X402648Y423664D01*
X401815Y424497D01*
X400149D01*
X399316Y425330D01*
X400149Y426163D01*
X402648D01*
X404314Y421164D02*
Y426163D01*
X406814D01*
X407647Y425330D01*
Y423664D01*
X406814Y422830D01*
X404314D01*
X411812D02*
X410146D01*
X409313Y423664D01*
Y425330D01*
X410146Y426163D01*
X411812D01*
X412645Y425330D01*
Y424497D01*
X409313D01*
X414311Y426163D02*
Y422830D01*
Y424497D01*
X415144Y425330D01*
X415977Y426163D01*
X416810D01*
X421809Y422830D02*
X420143D01*
X419310Y423664D01*
Y425330D01*
X420143Y426163D01*
X421809D01*
X422642Y425330D01*
Y424497D01*
X419310D01*
X424308Y426163D02*
Y422830D01*
Y424497D01*
X425141Y425330D01*
X425974Y426163D01*
X426807D01*
X349332Y416932D02*
X348499Y417765D01*
X346833D01*
X346000Y416932D01*
Y413599D01*
X346833Y412766D01*
X348499D01*
X349332Y413599D01*
X350998Y417765D02*
Y412766D01*
X352664Y414432D01*
X354331Y412766D01*
Y417765D01*
X355997Y416932D02*
X356830Y417765D01*
X358496D01*
X359329Y416932D01*
Y416098D01*
X358496Y415265D01*
X357663D01*
X358496D01*
X359329Y414432D01*
Y413599D01*
X358496Y412766D01*
X356830D01*
X355997Y413599D01*
X360995Y416932D02*
X361828Y417765D01*
X363494D01*
X364327Y416932D01*
Y413599D01*
X363494Y412766D01*
X361828D01*
X360995Y413599D01*
Y416932D01*
X365993D02*
X366827Y417765D01*
X368493D01*
X369326Y416932D01*
Y416098D01*
X368493Y415265D01*
X369326Y414432D01*
Y413599D01*
X368493Y412766D01*
X366827D01*
X365993Y413599D01*
Y414432D01*
X366827Y415265D01*
X365993Y416098D01*
Y416932D01*
X366827Y415265D02*
X368493D01*
X375990Y417765D02*
Y413599D01*
X376823Y412766D01*
X378489D01*
X379323Y413599D01*
Y417765D01*
X384321D02*
X380989D01*
Y415265D01*
X382655D01*
X380989D01*
Y412766D01*
X388486Y417765D02*
X386820D01*
X385987Y416932D01*
Y413599D01*
X386820Y412766D01*
X388486D01*
X389319Y413599D01*
Y416932D01*
X388486Y417765D01*
X395984D02*
Y412766D01*
X398483D01*
X399316Y413599D01*
Y414432D01*
X398483Y415265D01*
X395984D01*
X398483D01*
X399316Y416098D01*
Y416932D01*
X398483Y417765D01*
X395984D01*
X401815Y412766D02*
X403481D01*
X404314Y413599D01*
Y415265D01*
X403481Y416098D01*
X401815D01*
X400982Y415265D01*
Y413599D01*
X401815Y412766D01*
X406814Y416098D02*
X408480D01*
X409313Y415265D01*
Y412766D01*
X406814D01*
X405981Y413599D01*
X406814Y414432D01*
X409313D01*
X410979Y416098D02*
Y412766D01*
Y414432D01*
X411812Y415265D01*
X412645Y416098D01*
X413478D01*
X419310Y417765D02*
Y412766D01*
X416810D01*
X415977Y413599D01*
Y415265D01*
X416810Y416098D01*
X419310D01*
X334000Y367000D02*
X339998D01*
Y364001D01*
X338998Y363001D01*
X336999D01*
X335999Y364001D01*
Y367000D01*
Y365001D02*
X334000Y363001D01*
Y358003D02*
X339998D01*
X336999Y361002D01*
Y357003D01*
X445999Y343498D02*
X444999Y344498D01*
X443000D01*
X442000Y343498D01*
Y339500D01*
X443000Y338500D01*
X444999D01*
X445999Y339500D01*
X447998Y343498D02*
X448998Y344498D01*
X450997D01*
X451997Y343498D01*
Y342499D01*
X450997Y341499D01*
X449997D01*
X450997D01*
X451997Y340499D01*
Y339500D01*
X450997Y338500D01*
X448998D01*
X447998Y339500D01*
X424563Y338500D02*
Y344498D01*
X427562D01*
X428562Y343498D01*
Y341499D01*
X427562Y340499D01*
X424563D01*
X426562D02*
X428562Y338500D01*
X430561Y343498D02*
X431561Y344498D01*
X433560D01*
X434560Y343498D01*
Y342499D01*
X433560Y341499D01*
X432560D01*
X433560D01*
X434560Y340499D01*
Y339500D01*
X433560Y338500D01*
X431561D01*
X430561Y339500D01*
X445999Y312498D02*
X444999Y313498D01*
X443000D01*
X442000Y312498D01*
Y308500D01*
X443000Y307500D01*
X444999D01*
X445999Y308500D01*
X451997Y307500D02*
X447998D01*
X451997Y311499D01*
Y312498D01*
X450997Y313498D01*
X448998D01*
X447998Y312498D01*
X391000Y400998D02*
Y396000D01*
X392000Y395000D01*
X393999D01*
X394999Y396000D01*
Y400998D01*
X396998Y395000D02*
X398997D01*
X397998D01*
Y400998D01*
X396998Y399998D01*
X480649Y422948D02*
X478649D01*
X479649D01*
Y417950D01*
X478649Y416950D01*
X477650D01*
X476650Y417950D01*
X482648Y421948D02*
X483648Y422948D01*
X485647D01*
X486647Y421948D01*
Y420949D01*
X485647Y419949D01*
X484647D01*
X485647D01*
X486647Y418949D01*
Y417950D01*
X485647Y416950D01*
X483648D01*
X482648Y417950D01*
X305499Y213998D02*
X303499D01*
X304499D01*
Y209000D01*
X303499Y208000D01*
X302500D01*
X301500Y209000D01*
X311497Y208000D02*
X307498D01*
X311497Y211999D01*
Y212998D01*
X310497Y213998D01*
X308498D01*
X307498Y212998D01*
X290649Y422948D02*
X288649D01*
X289649D01*
Y417950D01*
X288649Y416950D01*
X287650D01*
X286650Y417950D01*
X292648Y416950D02*
X294647D01*
X293648D01*
Y422948D01*
X292648Y421948D01*
X343500Y321000D02*
Y326998D01*
X346499D01*
X347499Y325998D01*
Y323999D01*
X346499Y322999D01*
X343500D01*
X345499D02*
X347499Y321000D01*
X349498D02*
X351497D01*
X350498D01*
Y326998D01*
X349498Y325998D01*
X352000Y367500D02*
X357998D01*
Y364501D01*
X356998Y363501D01*
X354999D01*
X353999Y364501D01*
Y367500D01*
Y365501D02*
X352000Y363501D01*
Y357503D02*
Y361502D01*
X355999Y357503D01*
X356998D01*
X357998Y358503D01*
Y360502D01*
X356998Y361502D01*
X445999Y320498D02*
X444999Y321498D01*
X443000D01*
X442000Y320498D01*
Y316500D01*
X443000Y315500D01*
X444999D01*
X445999Y316500D01*
X447998Y315500D02*
X449997D01*
X448998D01*
Y321498D01*
X447998Y320498D01*
X401833Y228999D02*
X400666Y228416D01*
X399500Y227249D01*
Y226083D01*
X400083Y225500D01*
X401249D01*
X401833Y226083D01*
Y226666D01*
X401249Y227249D01*
X399500D01*
X402999D02*
X405331D01*
X406498Y225500D02*
Y228999D01*
X408247D01*
X408830Y228416D01*
Y227249D01*
X408247Y226666D01*
X406498D01*
X409997Y228999D02*
X411163D01*
X410580D01*
Y225500D01*
X409997D01*
X411163D01*
X412912D02*
Y228999D01*
X415245Y225500D01*
Y228999D01*
X419910D02*
X421076D01*
X420493D01*
Y225500D01*
X419910D01*
X421076D01*
X425158Y228416D02*
X424575Y228999D01*
X423409D01*
X422826Y228416D01*
Y227833D01*
X423409Y227249D01*
X424575D01*
X425158Y226666D01*
Y226083D01*
X424575Y225500D01*
X423409D01*
X422826Y226083D01*
X426325Y225500D02*
Y228999D01*
X428074D01*
X428657Y228416D01*
Y227249D01*
X428074Y226666D01*
X426325D01*
X433322Y228999D02*
Y225500D01*
Y227249D01*
X435655D01*
Y228999D01*
Y225500D01*
X438571D02*
X437404D01*
X436821Y226083D01*
Y227249D01*
X437404Y227833D01*
X438571D01*
X439154Y227249D01*
Y226666D01*
X436821D01*
X440903Y227833D02*
X442070D01*
X442653Y227249D01*
Y225500D01*
X440903D01*
X440320Y226083D01*
X440903Y226666D01*
X442653D01*
X446152Y228999D02*
Y225500D01*
X444402D01*
X443819Y226083D01*
Y227249D01*
X444402Y227833D01*
X446152D01*
X449067Y225500D02*
X447901D01*
X447318Y226083D01*
Y227249D01*
X447901Y227833D01*
X449067D01*
X449650Y227249D01*
Y226666D01*
X447318D01*
X450817Y227833D02*
Y225500D01*
Y226666D01*
X451400Y227249D01*
X451983Y227833D01*
X452566D01*
X341000Y442500D02*
Y446499D01*
X342999Y448498D01*
X344999Y446499D01*
Y442500D01*
Y445499D01*
X341000D01*
X346998Y448498D02*
Y444499D01*
X348997Y442500D01*
X350997Y444499D01*
Y448498D01*
X352996Y442500D02*
Y448498D01*
X355995D01*
X356995Y447498D01*
Y445499D01*
X355995Y444499D01*
X352996D01*
X354995D02*
X356995Y442500D01*
X364992Y448498D02*
X368991D01*
X366992D01*
Y442500D01*
X371990Y446499D02*
X373989D01*
X374989Y445499D01*
Y442500D01*
X371990D01*
X370990Y443500D01*
X371990Y444499D01*
X374989D01*
X376988Y446499D02*
Y442500D01*
Y444499D01*
X377988Y445499D01*
X378988Y446499D01*
X379987D01*
X384986Y440501D02*
X385985D01*
X386985Y441500D01*
Y446499D01*
X383986D01*
X382986Y445499D01*
Y443500D01*
X383986Y442500D01*
X386985D01*
X391984D02*
X389984D01*
X388984Y443500D01*
Y445499D01*
X389984Y446499D01*
X391984D01*
X392983Y445499D01*
Y444499D01*
X388984D01*
X395982Y447498D02*
Y446499D01*
X394983D01*
X396982D01*
X395982D01*
Y443500D01*
X396982Y442500D01*
X405979Y448498D02*
Y442500D01*
X408978D01*
X409978Y443500D01*
Y444499D01*
X408978Y445499D01*
X405979D01*
X408978D01*
X409978Y446499D01*
Y447498D01*
X408978Y448498D01*
X405979D01*
X412977Y442500D02*
X414976D01*
X415976Y443500D01*
Y445499D01*
X414976Y446499D01*
X412977D01*
X411977Y445499D01*
Y443500D01*
X412977Y442500D01*
X418975Y446499D02*
X420974D01*
X421974Y445499D01*
Y442500D01*
X418975D01*
X417975Y443500D01*
X418975Y444499D01*
X421974D01*
X423973Y446499D02*
Y442500D01*
Y444499D01*
X424973Y445499D01*
X425973Y446499D01*
X426972D01*
X433970Y448498D02*
Y442500D01*
X430971D01*
X429971Y443500D01*
Y445499D01*
X430971Y446499D01*
X433970D01*
X400000Y232000D02*
Y235499D01*
X401749D01*
X402333Y234916D01*
Y233749D01*
X401749Y233166D01*
X400000D01*
X403499Y234333D02*
Y232000D01*
Y233166D01*
X404082Y233749D01*
X404665Y234333D01*
X405248D01*
X407581Y232000D02*
X408747D01*
X409330Y232583D01*
Y233749D01*
X408747Y234333D01*
X407581D01*
X406998Y233749D01*
Y232583D01*
X407581Y232000D01*
X411663Y230834D02*
X412246D01*
X412829Y231417D01*
Y234333D01*
X411080D01*
X410497Y233749D01*
Y232583D01*
X411080Y232000D01*
X412829D01*
X413996Y234333D02*
Y232000D01*
Y233166D01*
X414579Y233749D01*
X415162Y234333D01*
X415745D01*
X418078D02*
X419244D01*
X419827Y233749D01*
Y232000D01*
X418078D01*
X417494Y232583D01*
X418078Y233166D01*
X419827D01*
X420993Y232000D02*
Y234333D01*
X421576D01*
X422159Y233749D01*
Y232000D01*
Y233749D01*
X422743Y234333D01*
X423326Y233749D01*
Y232000D01*
X424492D02*
Y234333D01*
X425075D01*
X425658Y233749D01*
Y232000D01*
Y233749D01*
X426241Y234333D01*
X426825Y233749D01*
Y232000D01*
X427991D02*
X429157D01*
X428574D01*
Y234333D01*
X427991D01*
X430907Y232000D02*
Y234333D01*
X432656D01*
X433239Y233749D01*
Y232000D01*
X435572Y230834D02*
X436155D01*
X436738Y231417D01*
Y234333D01*
X434989D01*
X434406Y233749D01*
Y232583D01*
X434989Y232000D01*
X436738D01*
X441403Y235499D02*
Y232000D01*
Y233749D01*
X443736D01*
Y235499D01*
Y232000D01*
X446652D02*
X445485D01*
X444902Y232583D01*
Y233749D01*
X445485Y234333D01*
X446652D01*
X447235Y233749D01*
Y233166D01*
X444902D01*
X448984Y234333D02*
X450150D01*
X450734Y233749D01*
Y232000D01*
X448984D01*
X448401Y232583D01*
X448984Y233166D01*
X450734D01*
X454233Y235499D02*
Y232000D01*
X452483D01*
X451900Y232583D01*
Y233749D01*
X452483Y234333D01*
X454233D01*
X457148Y232000D02*
X455982D01*
X455399Y232583D01*
Y233749D01*
X455982Y234333D01*
X457148D01*
X457731Y233749D01*
Y233166D01*
X455399D01*
X458898Y234333D02*
Y232000D01*
Y233166D01*
X459481Y233749D01*
X460064Y234333D01*
X460647D01*
X462396D02*
X462980D01*
Y233749D01*
X462396D01*
Y234333D01*
Y232583D02*
X462980D01*
Y232000D01*
X462396D01*
Y232583D01*
D29*
X389685Y387748D02*
G03*
X389685Y387748I-1181J0D01*
G01*
D30*
X380492Y392118D02*
G03*
X380492Y392118I-492J0D01*
G01*
D31*
X392500Y391685D02*
G03*
X397500Y391685I2500J0D01*
G01*
X384567Y252315D02*
X405433D01*
X397500Y391685D02*
X405433D01*
X384567D02*
X392500D01*
X405433Y252315D02*
Y391685D01*
X384567Y252315D02*
Y391685D01*
D32*
X327244Y356595D02*
X332756D01*
X327244Y368406D02*
X332756D01*
X327244Y356595D02*
Y368406D01*
X332756Y356595D02*
Y368406D01*
X441095Y329744D02*
X452906D01*
X441095Y335256D02*
X452906D01*
Y329744D02*
Y335256D01*
X441095Y329744D02*
Y335256D01*
X422764Y329153D02*
Y335846D01*
X435362Y329153D02*
Y335846D01*
X422764D02*
X435362D01*
X422764Y329153D02*
X435362D01*
X423095Y308244D02*
X434906D01*
X423095Y313756D02*
X434906D01*
Y308244D02*
Y313756D01*
X423095Y308244D02*
Y313756D01*
X365905Y320744D02*
Y326256D01*
X354095Y320744D02*
Y326256D01*
Y320744D02*
X365905D01*
X354095Y326256D02*
X365905D01*
X344744Y356594D02*
X350256D01*
X344744Y368406D02*
X350256D01*
X344744Y356594D02*
Y368406D01*
X350256Y356594D02*
Y368406D01*
X423095Y315244D02*
Y320756D01*
X434905Y315244D02*
Y320756D01*
X423095D02*
X434905D01*
X423095Y315244D02*
X434905D01*
M02*
