G04 Layer_Physical_Order=1*
G04 Layer_Color=255*
%FSLAX25Y25*%
%MOIN*%
G70*
G01*
G75*
%ADD10C,0.03937*%
G04:AMPARAMS|DCode=11|XSize=39.37mil|YSize=35.43mil|CornerRadius=4.43mil|HoleSize=0mil|Usage=FLASHONLY|Rotation=180.000|XOffset=0mil|YOffset=0mil|HoleType=Round|Shape=RoundedRectangle|*
%AMROUNDEDRECTD11*
21,1,0.03937,0.02658,0,0,180.0*
21,1,0.03051,0.03543,0,0,180.0*
1,1,0.00886,-0.01526,0.01329*
1,1,0.00886,0.01526,0.01329*
1,1,0.00886,0.01526,-0.01329*
1,1,0.00886,-0.01526,-0.01329*
%
%ADD11ROUNDEDRECTD11*%
G04:AMPARAMS|DCode=12|XSize=39.37mil|YSize=35.43mil|CornerRadius=4.43mil|HoleSize=0mil|Usage=FLASHONLY|Rotation=90.000|XOffset=0mil|YOffset=0mil|HoleType=Round|Shape=RoundedRectangle|*
%AMROUNDEDRECTD12*
21,1,0.03937,0.02658,0,0,90.0*
21,1,0.03051,0.03543,0,0,90.0*
1,1,0.00886,0.01329,0.01526*
1,1,0.00886,0.01329,-0.01526*
1,1,0.00886,-0.01329,-0.01526*
1,1,0.00886,-0.01329,0.01526*
%
%ADD12ROUNDEDRECTD12*%
G04:AMPARAMS|DCode=13|XSize=51.18mil|YSize=31.5mil|CornerRadius=3.94mil|HoleSize=0mil|Usage=FLASHONLY|Rotation=90.000|XOffset=0mil|YOffset=0mil|HoleType=Round|Shape=RoundedRectangle|*
%AMROUNDEDRECTD13*
21,1,0.05118,0.02362,0,0,90.0*
21,1,0.04331,0.03150,0,0,90.0*
1,1,0.00787,0.01181,0.02165*
1,1,0.00787,0.01181,-0.02165*
1,1,0.00787,-0.01181,-0.02165*
1,1,0.00787,-0.01181,0.02165*
%
%ADD13ROUNDEDRECTD13*%
%ADD14C,0.01200*%
%ADD15C,0.02000*%
%ADD16C,0.00800*%
%ADD17C,0.01000*%
%ADD18C,0.05906*%
%ADD19R,0.05906X0.05906*%
%ADD20C,0.17323*%
%ADD21O,0.11000X0.06000*%
%ADD22R,0.11000X0.06000*%
%ADD23O,0.06000X0.11000*%
%ADD24R,0.06000X0.11000*%
%ADD25C,0.03500*%
%ADD26C,0.03000*%
%ADD27C,0.02362*%
G36*
X367252Y209152D02*
X367848Y208754D01*
X368550Y208615D01*
X400290D01*
X402165Y206740D01*
Y204353D01*
X402084Y204319D01*
X401290Y203710D01*
X400681Y202916D01*
X400298Y201992D01*
X400167Y201000D01*
Y196000D01*
X400298Y195008D01*
X400681Y194084D01*
X401098Y193539D01*
X400805Y192715D01*
X400656Y192539D01*
X397344D01*
X397195Y192715D01*
X396901Y193539D01*
X397319Y194084D01*
X397702Y195008D01*
X397833Y196000D01*
Y201000D01*
X397702Y201992D01*
X397319Y202916D01*
X396710Y203710D01*
X395916Y204319D01*
X394992Y204702D01*
X394000Y204833D01*
X393008Y204702D01*
X392084Y204319D01*
X391290Y203710D01*
X390681Y202916D01*
X390298Y201992D01*
X390167Y201000D01*
Y196000D01*
X390298Y195008D01*
X390681Y194084D01*
X391098Y193539D01*
X390805Y192715D01*
X390656Y192539D01*
X387647D01*
X387154Y193539D01*
X387494Y193983D01*
X387897Y194956D01*
X388035Y196000D01*
Y198000D01*
X384000D01*
X379965D01*
Y196000D01*
X380103Y194956D01*
X380506Y193983D01*
X380846Y193539D01*
X380353Y192539D01*
X377344D01*
X377195Y192715D01*
X376902Y193539D01*
X377319Y194084D01*
X377702Y195008D01*
X377833Y196000D01*
Y201000D01*
X377702Y201992D01*
X377319Y202916D01*
X376710Y203710D01*
X375916Y204319D01*
X374992Y204702D01*
X374000Y204833D01*
X373008Y204702D01*
X372084Y204319D01*
X371290Y203710D01*
X370681Y202916D01*
X370298Y201992D01*
X370167Y201000D01*
Y196000D01*
X370298Y195008D01*
X370681Y194084D01*
X371098Y193539D01*
X370805Y192715D01*
X370656Y192539D01*
X367344D01*
X367195Y192715D01*
X366901Y193539D01*
X367319Y194084D01*
X367702Y195008D01*
X367833Y196000D01*
Y201000D01*
X367702Y201992D01*
X367319Y202916D01*
X366710Y203710D01*
X365916Y204319D01*
X364992Y204702D01*
X364000Y204833D01*
X363008Y204702D01*
X362084Y204319D01*
X361290Y203710D01*
X360681Y202916D01*
X360298Y201992D01*
X360167Y201000D01*
Y196000D01*
X360298Y195008D01*
X360681Y194084D01*
X361099Y193539D01*
X360805Y192715D01*
X360656Y192539D01*
X357344D01*
X357195Y192715D01*
X356902Y193539D01*
X357319Y194084D01*
X357702Y195008D01*
X357833Y196000D01*
Y201000D01*
X357702Y201992D01*
X357319Y202916D01*
X356710Y203710D01*
X355916Y204319D01*
X354992Y204702D01*
X354000Y204833D01*
X353008Y204702D01*
X352084Y204319D01*
X351290Y203710D01*
X350681Y202916D01*
X350298Y201992D01*
X350167Y201000D01*
Y196000D01*
X350298Y195008D01*
X350681Y194084D01*
X351098Y193539D01*
X350805Y192715D01*
X350656Y192539D01*
X347344D01*
X347195Y192715D01*
X346901Y193539D01*
X347319Y194084D01*
X347702Y195008D01*
X347833Y196000D01*
Y201000D01*
X347702Y201992D01*
X347319Y202916D01*
X346710Y203710D01*
X345916Y204319D01*
X344992Y204702D01*
X344000Y204833D01*
X343008Y204702D01*
X342084Y204319D01*
X341290Y203710D01*
X340681Y202916D01*
X340298Y201992D01*
X340167Y201000D01*
Y196000D01*
X340298Y195008D01*
X340681Y194084D01*
X341098Y193539D01*
X340805Y192715D01*
X340656Y192539D01*
X337344D01*
X337195Y192715D01*
X336901Y193539D01*
X337319Y194084D01*
X337702Y195008D01*
X337833Y196000D01*
Y201000D01*
X337702Y201992D01*
X337319Y202916D01*
X336710Y203710D01*
X335916Y204319D01*
X334992Y204702D01*
X334000Y204833D01*
X333008Y204702D01*
X332084Y204319D01*
X331290Y203710D01*
X330681Y202916D01*
X330298Y201992D01*
X330167Y201000D01*
Y196000D01*
X330298Y195008D01*
X330681Y194084D01*
X331099Y193539D01*
X330805Y192715D01*
X330656Y192539D01*
X327344D01*
X327195Y192715D01*
X326902Y193539D01*
X327319Y194084D01*
X327702Y195008D01*
X327833Y196000D01*
Y201000D01*
X327702Y201992D01*
X327319Y202916D01*
X326710Y203710D01*
X325916Y204319D01*
X324992Y204702D01*
X324000Y204833D01*
X323008Y204702D01*
X322084Y204319D01*
X321290Y203710D01*
X320681Y202916D01*
X320298Y201992D01*
X320167Y201000D01*
Y196000D01*
X320298Y195008D01*
X320681Y194084D01*
X321098Y193539D01*
X320805Y192715D01*
X320656Y192539D01*
X317344D01*
X317195Y192715D01*
X316901Y193539D01*
X317319Y194084D01*
X317702Y195008D01*
X317833Y196000D01*
Y201000D01*
X317702Y201992D01*
X317319Y202916D01*
X316710Y203710D01*
X315916Y204319D01*
X314992Y204702D01*
X314000Y204833D01*
X313008Y204702D01*
X312084Y204319D01*
X311290Y203710D01*
X310681Y202916D01*
X310298Y201992D01*
X310167Y201000D01*
Y196000D01*
X310298Y195008D01*
X310681Y194084D01*
X311099Y193539D01*
X310805Y192715D01*
X310656Y192539D01*
X307344D01*
X307195Y192715D01*
X306902Y193539D01*
X307319Y194084D01*
X307702Y195008D01*
X307833Y196000D01*
Y201000D01*
X307702Y201992D01*
X307319Y202916D01*
X306710Y203710D01*
X305916Y204319D01*
X304992Y204702D01*
X304000Y204833D01*
X303008Y204702D01*
X302084Y204319D01*
X301290Y203710D01*
X300681Y202916D01*
X300298Y201992D01*
X300167Y201000D01*
Y196000D01*
X300298Y195008D01*
X300681Y194084D01*
X301098Y193539D01*
X300805Y192715D01*
X300656Y192539D01*
X298000D01*
Y198000D01*
X294000D01*
X290000D01*
Y192539D01*
X288039D01*
Y215156D01*
X288215Y215305D01*
X289039Y215599D01*
X289584Y215181D01*
X290508Y214798D01*
X291500Y214667D01*
X296500D01*
X297492Y214798D01*
X298416Y215181D01*
X299210Y215790D01*
X299819Y216584D01*
X299853Y216665D01*
X359740D01*
X367252Y209152D01*
D02*
G37*
G36*
X478181Y366584D02*
X478790Y365790D01*
X479584Y365181D01*
X480508Y364798D01*
X481500Y364667D01*
X486500D01*
X487492Y364798D01*
X488416Y365181D01*
X488961Y365599D01*
X489785Y365305D01*
X489961Y365156D01*
Y361844D01*
X489785Y361695D01*
X488961Y361402D01*
X488416Y361819D01*
X487492Y362202D01*
X486500Y362333D01*
X481500D01*
X480508Y362202D01*
X479584Y361819D01*
X478790Y361210D01*
X478181Y360416D01*
X477798Y359492D01*
X477667Y358500D01*
X477798Y357508D01*
X478181Y356584D01*
X478790Y355790D01*
X479584Y355181D01*
X480508Y354798D01*
X481500Y354667D01*
X486500D01*
X487492Y354798D01*
X488416Y355181D01*
X488961Y355598D01*
X489785Y355305D01*
X489961Y355156D01*
Y352147D01*
X488961Y351654D01*
X488517Y351994D01*
X487544Y352397D01*
X486500Y352535D01*
X484500D01*
Y348500D01*
Y344465D01*
X486500D01*
X487544Y344603D01*
X488517Y345006D01*
X488961Y345346D01*
X489961Y344853D01*
Y341844D01*
X489785Y341695D01*
X488961Y341402D01*
X488416Y341819D01*
X487492Y342202D01*
X486500Y342333D01*
X481500D01*
X480508Y342202D01*
X479584Y341819D01*
X478790Y341210D01*
X478181Y340416D01*
X478147Y340335D01*
X473000D01*
X472298Y340196D01*
X471702Y339798D01*
X464202Y332298D01*
X463804Y331702D01*
X463665Y331000D01*
Y326335D01*
X427000D01*
X426298Y326196D01*
X425702Y325798D01*
X424356Y324451D01*
X423958Y323856D01*
X423818Y323154D01*
Y320682D01*
X423429Y320422D01*
X423154Y320011D01*
X423058Y319526D01*
Y318835D01*
X413302D01*
X413278Y318893D01*
X412676Y319676D01*
X411893Y320278D01*
X410980Y320656D01*
X410000Y320785D01*
X409020Y320656D01*
X408555Y320463D01*
X406009Y323009D01*
X405546Y323319D01*
X405000Y323427D01*
X405000Y323427D01*
X383151D01*
X382849Y323998D01*
X382765Y324387D01*
X383369Y325165D01*
X391000D01*
X391702Y325304D01*
X392298Y325702D01*
X396713Y330118D01*
X406149D01*
X406642Y329117D01*
X406547Y328993D01*
X406149Y328032D01*
X406079Y327500D01*
X413921D01*
X413851Y328032D01*
X413453Y328993D01*
X413357Y329117D01*
X413851Y330118D01*
X421453D01*
X421790Y330185D01*
X422170Y330245D01*
X422991Y329613D01*
X423084Y329474D01*
X423479Y329210D01*
X423945Y329118D01*
X426307D01*
X426773Y329210D01*
X426873Y329277D01*
X426996Y329153D01*
X431130D01*
X431253Y329277D01*
X431353Y329210D01*
X431819Y329118D01*
X434181D01*
X434647Y329210D01*
X435042Y329474D01*
X435306Y329869D01*
X435398Y330335D01*
Y330665D01*
X441119D01*
X441154Y330489D01*
X441429Y330078D01*
X441840Y329804D01*
X442325Y329707D01*
X444982D01*
X445382Y329787D01*
X445425Y329744D01*
X448262D01*
X448455Y329615D01*
X449018Y329503D01*
X449847D01*
Y332500D01*
Y335497D01*
X449018D01*
X448455Y335385D01*
X448262Y335256D01*
X445425D01*
X445335Y336219D01*
Y340740D01*
X471260Y366665D01*
X478147D01*
X478181Y366584D01*
D02*
G37*
G36*
X371991Y270991D02*
X371991Y270991D01*
X372454Y270681D01*
X373000Y270573D01*
X373000Y270573D01*
X376849D01*
X377151Y270002D01*
X377244Y269573D01*
X376722Y268893D01*
X376344Y267980D01*
X376215Y267000D01*
X376344Y266020D01*
X376722Y265107D01*
X377324Y264323D01*
X378107Y263722D01*
X379020Y263344D01*
X380000Y263215D01*
X380980Y263344D01*
X381893Y263722D01*
X382677Y264323D01*
X383278Y265107D01*
X383656Y266020D01*
X383785Y267000D01*
X383656Y267980D01*
X383278Y268893D01*
X382756Y269573D01*
X382849Y270002D01*
X383151Y270573D01*
X399000D01*
X399000Y270573D01*
X399546Y270681D01*
X400009Y270991D01*
X404591Y275573D01*
X406529D01*
X406722Y275107D01*
X407324Y274324D01*
X408107Y273722D01*
X409020Y273344D01*
X410000Y273215D01*
X410980Y273344D01*
X411445Y273536D01*
X413841Y271141D01*
X413841Y271141D01*
X414304Y270831D01*
X414702Y270752D01*
X415045Y270287D01*
X415299Y269723D01*
X415155Y269000D01*
X415333Y268103D01*
X415423Y267969D01*
Y231896D01*
X405325Y221798D01*
X404872Y221891D01*
X404306Y222194D01*
X404167Y222897D01*
X403658Y223658D01*
X403427Y223812D01*
Y233545D01*
X403427Y233545D01*
X403319Y234091D01*
X403009Y234555D01*
X403009Y234555D01*
X393405Y244159D01*
X392941Y244469D01*
X392395Y244577D01*
X392395Y244577D01*
X308150D01*
X308150Y244577D01*
X307427Y245453D01*
Y267250D01*
X308427Y267740D01*
X308613Y267598D01*
X309282Y267321D01*
X309500Y267292D01*
Y270000D01*
X310500D01*
Y267292D01*
X310718Y267321D01*
X311387Y267598D01*
X311573Y267740D01*
X312573Y267250D01*
Y261500D01*
X312573Y261500D01*
X312681Y260954D01*
X312991Y260491D01*
X317491Y255991D01*
X317491Y255991D01*
X317954Y255681D01*
X318500Y255573D01*
X318500Y255573D01*
X376529D01*
X376722Y255107D01*
X377324Y254324D01*
X378107Y253722D01*
X379020Y253344D01*
X380000Y253215D01*
X380980Y253344D01*
X381893Y253722D01*
X382677Y254324D01*
X383278Y255107D01*
X383656Y256020D01*
X383785Y257000D01*
X383656Y257980D01*
X383278Y258893D01*
X382677Y259677D01*
X381893Y260278D01*
X380980Y260656D01*
X380000Y260785D01*
X379020Y260656D01*
X378107Y260278D01*
X377324Y259677D01*
X376722Y258893D01*
X376529Y258427D01*
X319091D01*
X315427Y262091D01*
Y273188D01*
X315658Y273342D01*
X316167Y274103D01*
X316345Y275000D01*
X316167Y275897D01*
X316050Y276073D01*
X316584Y277073D01*
X365909D01*
X371991Y270991D01*
D02*
G37*
G36*
X478181Y386584D02*
X478790Y385790D01*
X479584Y385181D01*
X480508Y384798D01*
X481500Y384667D01*
X486500D01*
X487492Y384798D01*
X488416Y385181D01*
X488961Y385598D01*
X489785Y385305D01*
X489961Y385156D01*
Y382147D01*
X488961Y381654D01*
X488517Y381994D01*
X487544Y382397D01*
X486500Y382535D01*
X484500D01*
Y378500D01*
Y374465D01*
X486500D01*
X487544Y374603D01*
X488517Y375006D01*
X488961Y375346D01*
X489961Y374853D01*
Y371844D01*
X489785Y371695D01*
X488961Y371402D01*
X488416Y371819D01*
X487492Y372202D01*
X486500Y372333D01*
X481500D01*
X480508Y372202D01*
X479584Y371819D01*
X478790Y371210D01*
X478181Y370416D01*
X478147Y370335D01*
X470500D01*
X469798Y370196D01*
X469202Y369798D01*
X442202Y342798D01*
X441804Y342202D01*
X441665Y341500D01*
Y335079D01*
X441429Y334922D01*
X441154Y334511D01*
X441119Y334335D01*
X435398D01*
Y334665D01*
X435306Y335131D01*
X435042Y335526D01*
X434835Y335664D01*
Y356240D01*
X465260Y386665D01*
X478147D01*
X478181Y386584D01*
D02*
G37*
G36*
X489961Y412500D02*
X484500D01*
Y408500D01*
Y404500D01*
X489961D01*
Y401844D01*
X489785Y401695D01*
X488961Y401402D01*
X488416Y401819D01*
X487492Y402202D01*
X486500Y402333D01*
X481500D01*
X480508Y402202D01*
X479584Y401819D01*
X478790Y401210D01*
X478181Y400416D01*
X478147Y400335D01*
X461000D01*
X460298Y400196D01*
X459702Y399798D01*
X423828Y363924D01*
X423430Y363328D01*
X423291Y362626D01*
Y335664D01*
X423084Y335526D01*
X422820Y335131D01*
X422762Y334835D01*
X422500D01*
X421798Y334696D01*
X421202Y334298D01*
X420693Y333788D01*
X413526D01*
X413033Y334788D01*
X413278Y335107D01*
X413656Y336020D01*
X413785Y337000D01*
X413656Y337980D01*
X413278Y338893D01*
X412676Y339676D01*
X411893Y340278D01*
X410980Y340656D01*
X410000Y340785D01*
X409020Y340656D01*
X408107Y340278D01*
X407324Y339676D01*
X406722Y338893D01*
X406487Y338326D01*
X399956D01*
X399857Y339325D01*
X399897Y339333D01*
X400658Y339842D01*
X401167Y340603D01*
X401214Y340839D01*
X405593Y345219D01*
X406621Y345117D01*
X406782Y345029D01*
X407324Y344323D01*
X408107Y343722D01*
X409020Y343344D01*
X410000Y343215D01*
X410980Y343344D01*
X411893Y343722D01*
X412676Y344323D01*
X413278Y345107D01*
X413656Y346020D01*
X413785Y347000D01*
X413656Y347980D01*
X413278Y348893D01*
X412676Y349676D01*
X411893Y350278D01*
X410980Y350656D01*
X410000Y350785D01*
X409020Y350656D01*
X408107Y350278D01*
X407324Y349676D01*
X406722Y348893D01*
X406487Y348325D01*
X405500D01*
X404993Y348225D01*
X404563Y347937D01*
X400134Y343509D01*
X399897Y343667D01*
X399000Y343845D01*
X398526Y343751D01*
X397635Y344418D01*
X397596Y345222D01*
X406737Y354362D01*
X407324Y354324D01*
X408107Y353722D01*
X409020Y353344D01*
X410000Y353215D01*
X410980Y353344D01*
X411893Y353722D01*
X412676Y354324D01*
X413278Y355107D01*
X413656Y356020D01*
X413785Y357000D01*
X413656Y357980D01*
X413278Y358893D01*
X412676Y359677D01*
X411893Y360278D01*
X410980Y360656D01*
X410000Y360785D01*
X409020Y360656D01*
X408107Y360278D01*
X407324Y359677D01*
X406722Y358893D01*
X406344Y357980D01*
X406304Y357679D01*
X395392Y346767D01*
X395000Y346845D01*
X394103Y346667D01*
X393342Y346158D01*
X392927Y345538D01*
X392350Y345561D01*
X391927Y345704D01*
Y346909D01*
X408555Y363537D01*
X409020Y363344D01*
X410000Y363215D01*
X410980Y363344D01*
X411893Y363722D01*
X412676Y364323D01*
X413278Y365107D01*
X413656Y366020D01*
X413785Y367000D01*
X413656Y367980D01*
X413278Y368893D01*
X412676Y369676D01*
X411893Y370278D01*
X410980Y370656D01*
X410000Y370785D01*
X409020Y370656D01*
X408107Y370278D01*
X407324Y369676D01*
X406722Y368893D01*
X406344Y367980D01*
X406215Y367000D01*
X406344Y366020D01*
X406536Y365555D01*
X389491Y348509D01*
X389181Y348046D01*
X389073Y347500D01*
X389073Y347500D01*
Y342755D01*
X388833Y342397D01*
X388655Y341500D01*
X388833Y340603D01*
X389342Y339842D01*
X390103Y339333D01*
X390272Y339300D01*
X390272Y338280D01*
X389993Y338225D01*
X389563Y337937D01*
X384951Y333326D01*
X383018D01*
X382677Y334324D01*
X383278Y335107D01*
X383656Y336020D01*
X383785Y337000D01*
X383656Y337980D01*
X383278Y338893D01*
X382677Y339676D01*
X381893Y340278D01*
X380980Y340656D01*
X380000Y340785D01*
X379020Y340656D01*
X378107Y340278D01*
X377324Y339676D01*
X376722Y338893D01*
X376344Y337980D01*
X376215Y337000D01*
X376344Y336020D01*
X376722Y335107D01*
X377324Y334324D01*
X376981Y333326D01*
X363092D01*
X362310Y334326D01*
X362345Y334500D01*
X362167Y335397D01*
X361658Y336158D01*
X360897Y336667D01*
X360320Y336781D01*
X359833Y337394D01*
X359707Y337806D01*
X359845Y338500D01*
X359667Y339397D01*
X359158Y340158D01*
X358927Y340312D01*
Y348909D01*
X370591Y360573D01*
X376849D01*
X377151Y360002D01*
X377244Y359573D01*
X376722Y358893D01*
X376344Y357980D01*
X376215Y357000D01*
X376344Y356020D01*
X376722Y355107D01*
X377324Y354324D01*
X378107Y353722D01*
X379020Y353344D01*
X380000Y353215D01*
X380980Y353344D01*
X381893Y353722D01*
X382677Y354324D01*
X383278Y355107D01*
X383656Y356020D01*
X383785Y357000D01*
X383656Y357980D01*
X383278Y358893D01*
X382756Y359573D01*
X382849Y360002D01*
X383151Y360573D01*
X386500D01*
X386500Y360573D01*
X387046Y360681D01*
X387509Y360991D01*
X392009Y365491D01*
X392009Y365491D01*
X392319Y365954D01*
X392427Y366500D01*
X392427Y366500D01*
Y383000D01*
X392319Y383546D01*
X392009Y384009D01*
X392009Y384009D01*
X388009Y388009D01*
X387546Y388319D01*
X387000Y388427D01*
X387000Y388427D01*
X383753D01*
Y390753D01*
X376247D01*
Y383247D01*
X383753D01*
Y385573D01*
X386409D01*
X389573Y382409D01*
Y367091D01*
X385909Y363427D01*
X383151D01*
X382849Y363998D01*
X382756Y364427D01*
X383278Y365107D01*
X383656Y366020D01*
X383785Y367000D01*
X383656Y367980D01*
X383278Y368893D01*
X382677Y369676D01*
X381893Y370278D01*
X380980Y370656D01*
X380000Y370785D01*
X379020Y370656D01*
X378107Y370278D01*
X377324Y369676D01*
X376722Y368893D01*
X376487Y368325D01*
X365500D01*
X364993Y368225D01*
X364563Y367937D01*
X352434Y355808D01*
X351897Y356167D01*
X351000Y356345D01*
X350589Y356263D01*
X350092Y357184D01*
X350196Y357340D01*
X350293Y357825D01*
Y360482D01*
X351129Y361175D01*
X353000D01*
X353507Y361275D01*
X353937Y361563D01*
X368049Y375675D01*
X376487D01*
X376722Y375107D01*
X377324Y374324D01*
X378107Y373722D01*
X379020Y373344D01*
X380000Y373215D01*
X380980Y373344D01*
X381893Y373722D01*
X382677Y374324D01*
X383278Y375107D01*
X383656Y376020D01*
X383785Y377000D01*
X383656Y377980D01*
X383278Y378893D01*
X382677Y379677D01*
X381893Y380278D01*
X380980Y380656D01*
X380000Y380785D01*
X379020Y380656D01*
X378107Y380278D01*
X377324Y379677D01*
X376722Y378893D01*
X376487Y378326D01*
X367500D01*
X366993Y378225D01*
X366563Y377937D01*
X352451Y363825D01*
X351129D01*
X350293Y364518D01*
Y367175D01*
X350196Y367660D01*
X349922Y368071D01*
X349511Y368346D01*
X349026Y368443D01*
X348927D01*
Y376000D01*
X348927Y376000D01*
X348819Y376546D01*
X348509Y377009D01*
X336009Y389509D01*
X335546Y389819D01*
X335000Y389927D01*
X335000Y389927D01*
X300022D01*
X299819Y390416D01*
X299210Y391210D01*
X298416Y391819D01*
X297492Y392202D01*
X296500Y392333D01*
X291500D01*
X290508Y392202D01*
X289584Y391819D01*
X289039Y391402D01*
X288215Y391695D01*
X288039Y391844D01*
Y394853D01*
X289039Y395346D01*
X289483Y395006D01*
X290456Y394603D01*
X291500Y394465D01*
X293500D01*
Y398500D01*
Y402534D01*
X291500D01*
X290456Y402397D01*
X289483Y401994D01*
X289039Y401654D01*
X288039Y402147D01*
Y404700D01*
X300300D01*
Y412300D01*
X288039D01*
Y456461D01*
X489961D01*
Y412500D01*
D02*
G37*
G36*
X478181Y396584D02*
X478790Y395790D01*
X479584Y395181D01*
X480508Y394798D01*
X481500Y394667D01*
X486500D01*
X487492Y394798D01*
X488416Y395181D01*
X488961Y395599D01*
X489785Y395305D01*
X489961Y395156D01*
Y391844D01*
X489785Y391695D01*
X488961Y391402D01*
X488416Y391819D01*
X487492Y392202D01*
X486500Y392333D01*
X481500D01*
X480508Y392202D01*
X479584Y391819D01*
X478790Y391210D01*
X478181Y390416D01*
X478147Y390335D01*
X464500D01*
X463798Y390196D01*
X463202Y389798D01*
X431702Y358298D01*
X431304Y357702D01*
X431165Y357000D01*
Y336832D01*
X430171Y335846D01*
X426996D01*
X426961Y335861D01*
Y361866D01*
X461760Y396665D01*
X478147D01*
X478181Y396584D01*
D02*
G37*
G36*
X346073Y375409D02*
Y368443D01*
X345974D01*
X345489Y368346D01*
X345078Y368071D01*
X344804Y367660D01*
X344707Y367175D01*
Y364518D01*
X343871Y363825D01*
X333629D01*
X332793Y364518D01*
Y367175D01*
X332696Y367660D01*
X332422Y368071D01*
X332011Y368346D01*
X331526Y368443D01*
X329423D01*
X328356Y369509D01*
X327893Y369819D01*
X327347Y369927D01*
X327346Y369927D01*
X300022D01*
X299819Y370416D01*
X299210Y371210D01*
X298416Y371819D01*
X297492Y372202D01*
X296500Y372333D01*
X291500D01*
X290508Y372202D01*
X289584Y371819D01*
X289039Y371402D01*
X288215Y371695D01*
X288039Y371844D01*
Y374853D01*
X289039Y375346D01*
X289483Y375006D01*
X290456Y374603D01*
X291500Y374465D01*
X293500D01*
Y378500D01*
Y382535D01*
X291500D01*
X290456Y382397D01*
X289483Y381994D01*
X289039Y381654D01*
X288039Y382147D01*
Y385156D01*
X288215Y385305D01*
X289039Y385598D01*
X289584Y385181D01*
X290508Y384798D01*
X291500Y384667D01*
X296500D01*
X297492Y384798D01*
X298416Y385181D01*
X299210Y385790D01*
X299819Y386584D01*
X300022Y387073D01*
X334409D01*
X346073Y375409D01*
D02*
G37*
G36*
X423723Y286259D02*
Y270557D01*
X422799Y270175D01*
X419814Y273159D01*
X419351Y273469D01*
X418805Y273577D01*
X418805Y273577D01*
X415441D01*
X413463Y275555D01*
X413656Y276020D01*
X413785Y277000D01*
X413656Y277980D01*
X413278Y278893D01*
X412676Y279677D01*
X411893Y280278D01*
X410980Y280656D01*
X410000Y280785D01*
X409020Y280656D01*
X408107Y280278D01*
X407324Y279677D01*
X406722Y278893D01*
X406529Y278427D01*
X404000D01*
X404000Y278427D01*
X403454Y278319D01*
X402991Y278009D01*
X402991Y278009D01*
X398409Y273427D01*
X383151D01*
X382849Y273998D01*
X382756Y274427D01*
X383278Y275107D01*
X383656Y276020D01*
X383785Y277000D01*
X383656Y277980D01*
X383278Y278893D01*
X382756Y279573D01*
X382849Y280002D01*
X383151Y280573D01*
X399000D01*
X399000Y280573D01*
X399546Y280681D01*
X400009Y280991D01*
X404591Y285573D01*
X406529D01*
X406722Y285107D01*
X407324Y284324D01*
X408107Y283722D01*
X409020Y283344D01*
X410000Y283215D01*
X410980Y283344D01*
X411893Y283722D01*
X412676Y284324D01*
X413278Y285107D01*
X413656Y286020D01*
X413785Y287000D01*
X413656Y287980D01*
X413278Y288893D01*
X412676Y289676D01*
X411893Y290278D01*
X410980Y290656D01*
X410000Y290785D01*
X409020Y290656D01*
X408107Y290278D01*
X407324Y289676D01*
X406722Y288893D01*
X406529Y288427D01*
X404000D01*
X404000Y288427D01*
X403454Y288319D01*
X402991Y288009D01*
X402991Y288009D01*
X398409Y283427D01*
X383151D01*
X382849Y283998D01*
X382756Y284427D01*
X383278Y285107D01*
X383656Y286020D01*
X383785Y287000D01*
X383656Y287980D01*
X383278Y288893D01*
X382756Y289573D01*
X382849Y290002D01*
X383151Y290573D01*
X398000D01*
X398000Y290573D01*
X398546Y290681D01*
X399009Y290991D01*
X403591Y295573D01*
X406529D01*
X406722Y295107D01*
X407324Y294323D01*
X408107Y293722D01*
X409020Y293344D01*
X410000Y293215D01*
X410980Y293344D01*
X411893Y293722D01*
X412676Y294323D01*
X413278Y295107D01*
X413471Y295573D01*
X414409D01*
X423723Y286259D01*
D02*
G37*
G36*
X371991Y320991D02*
X372454Y320681D01*
X373000Y320573D01*
X373000Y320573D01*
X376549D01*
X376703Y320389D01*
X376992Y319573D01*
X376547Y318993D01*
X376149Y318032D01*
X376079Y317500D01*
X383921D01*
X383851Y318032D01*
X383453Y318993D01*
X383008Y319573D01*
X383297Y320389D01*
X383451Y320573D01*
X388296D01*
X388439Y320150D01*
X388462Y319573D01*
X387842Y319158D01*
X387333Y318397D01*
X387155Y317500D01*
X387333Y316603D01*
X387842Y315842D01*
X388277Y315551D01*
Y306500D01*
X388370Y306032D01*
X388635Y305635D01*
X392757Y301513D01*
X392655Y301000D01*
X392833Y300103D01*
X393342Y299342D01*
X394103Y298833D01*
X395000Y298655D01*
X395897Y298833D01*
X396658Y299342D01*
X397070Y299958D01*
X398078Y300273D01*
X398154Y300288D01*
X398551Y300022D01*
X399019Y299929D01*
X405640D01*
X406214Y298929D01*
X405921Y298427D01*
X403000D01*
X403000Y298427D01*
X402454Y298319D01*
X401991Y298009D01*
X401991Y298009D01*
X397409Y293427D01*
X383151D01*
X382849Y293998D01*
X382756Y294427D01*
X383278Y295107D01*
X383656Y296020D01*
X383785Y297000D01*
X383656Y297980D01*
X383278Y298893D01*
X382677Y299676D01*
X381893Y300278D01*
X380980Y300656D01*
X380000Y300785D01*
X379020Y300656D01*
X378107Y300278D01*
X377324Y299676D01*
X376722Y298893D01*
X376344Y297980D01*
X376215Y297000D01*
X376344Y296020D01*
X376722Y295107D01*
X377244Y294427D01*
X377151Y293998D01*
X376849Y293427D01*
X376000D01*
X376000Y293427D01*
X375454Y293319D01*
X374991Y293009D01*
X374991Y293009D01*
X365909Y283927D01*
X316084D01*
X315549Y284927D01*
X315667Y285103D01*
X315845Y286000D01*
X315667Y286897D01*
X315158Y287658D01*
X314927Y287812D01*
Y304909D01*
X320728Y310709D01*
X321000Y310655D01*
X321897Y310833D01*
X322658Y311342D01*
X323167Y312103D01*
X323345Y313000D01*
X323167Y313897D01*
X322983Y314173D01*
X323517Y315173D01*
X344100D01*
X344100Y315173D01*
X344646Y315281D01*
X345109Y315591D01*
X351438Y321919D01*
X354069D01*
X354154Y321489D01*
X354429Y321078D01*
X354840Y320804D01*
X355325Y320707D01*
X357982D01*
X358675Y319871D01*
Y314500D01*
X358775Y313993D01*
X359063Y313563D01*
X366563Y306063D01*
X366993Y305775D01*
X367500Y305675D01*
X376487D01*
X376722Y305107D01*
X377324Y304324D01*
X378107Y303722D01*
X379020Y303344D01*
X380000Y303215D01*
X380980Y303344D01*
X381893Y303722D01*
X382677Y304324D01*
X383278Y305107D01*
X383656Y306020D01*
X383785Y307000D01*
X383656Y307980D01*
X383278Y308893D01*
X382677Y309677D01*
X381893Y310278D01*
X380980Y310656D01*
X380000Y310785D01*
X379020Y310656D01*
X378107Y310278D01*
X377324Y309677D01*
X376722Y308893D01*
X376487Y308326D01*
X368049D01*
X361326Y315049D01*
Y319871D01*
X362018Y320707D01*
X364675D01*
X365160Y320804D01*
X365571Y321078D01*
X365846Y321489D01*
X365943Y321974D01*
Y322073D01*
X370909D01*
X371991Y320991D01*
D02*
G37*
G36*
X463665Y286000D02*
X463804Y285298D01*
X464202Y284702D01*
X470405Y278500D01*
X470202Y278298D01*
X469804Y277702D01*
X469665Y277000D01*
Y215760D01*
X466240Y212335D01*
X425005D01*
X424897Y213333D01*
X425658Y213842D01*
X426167Y214603D01*
X426345Y215500D01*
X426167Y216397D01*
X425658Y217158D01*
X424897Y217667D01*
X424000Y217845D01*
X423103Y217667D01*
X422520Y217277D01*
X421818D01*
X421545Y217624D01*
X421201Y218277D01*
X421345Y219000D01*
X421291Y219272D01*
X426159Y224141D01*
X426159Y224141D01*
X426469Y224604D01*
X426577Y225150D01*
Y228417D01*
X427577Y228721D01*
X427635Y228635D01*
X438635Y217635D01*
X439032Y217370D01*
X439500Y217277D01*
X462799D01*
X462833Y217103D01*
X463342Y216342D01*
X464103Y215833D01*
X465000Y215655D01*
X465897Y215833D01*
X466658Y216342D01*
X467167Y217103D01*
X467345Y218000D01*
X467167Y218897D01*
X466658Y219658D01*
X465897Y220167D01*
X465000Y220345D01*
X464103Y220167D01*
X463440Y219724D01*
X440007D01*
X429724Y230007D01*
Y235632D01*
X430723Y236046D01*
X439135Y227635D01*
X439532Y227370D01*
X440000Y227276D01*
X463051D01*
X463342Y226842D01*
X464103Y226333D01*
X465000Y226155D01*
X465897Y226333D01*
X466658Y226842D01*
X467167Y227603D01*
X467345Y228500D01*
X467167Y229397D01*
X466658Y230158D01*
X465897Y230667D01*
X465000Y230845D01*
X464103Y230667D01*
X463342Y230158D01*
X463051Y229724D01*
X440507D01*
X432224Y238007D01*
Y289263D01*
X432130Y289731D01*
X431865Y290128D01*
X423867Y298126D01*
X423866Y298131D01*
X424242Y299165D01*
X424576Y299194D01*
X433277Y290493D01*
Y247500D01*
X433370Y247032D01*
X433635Y246635D01*
X442635Y237635D01*
X443032Y237370D01*
X443500Y237277D01*
X463051D01*
X463342Y236842D01*
X464103Y236333D01*
X465000Y236155D01*
X465897Y236333D01*
X466658Y236842D01*
X467167Y237603D01*
X467345Y238500D01*
X467167Y239397D01*
X466658Y240158D01*
X465897Y240667D01*
X465000Y240845D01*
X464103Y240667D01*
X463342Y240158D01*
X463051Y239723D01*
X444007D01*
X435723Y248007D01*
Y291000D01*
X435630Y291468D01*
X435365Y291865D01*
X425743Y301487D01*
X425845Y302000D01*
X425667Y302897D01*
X425158Y303658D01*
X424397Y304167D01*
X423500Y304345D01*
X422603Y304167D01*
X421842Y303658D01*
X421333Y302897D01*
X421197Y302210D01*
X420591Y301894D01*
X420177Y301817D01*
X418375Y303618D01*
X417978Y303883D01*
X417510Y303976D01*
X414638D01*
X414082Y304976D01*
X414199Y305165D01*
X416000D01*
X416702Y305304D01*
X417298Y305702D01*
X420760Y309165D01*
X423119D01*
X423154Y308989D01*
X423429Y308578D01*
X423840Y308304D01*
X424325Y308207D01*
X426982D01*
X427383Y308287D01*
X427425Y308244D01*
X430262D01*
X430455Y308115D01*
X431018Y308003D01*
X431847D01*
Y311000D01*
Y313997D01*
X431018D01*
X430455Y313885D01*
X430262Y313756D01*
X427489D01*
Y315244D01*
X430262D01*
X430455Y315115D01*
X431018Y315003D01*
X431847D01*
Y318000D01*
Y320997D01*
X431018D01*
X430455Y320885D01*
X430262Y320756D01*
X427489D01*
Y322393D01*
X427760Y322665D01*
X463665D01*
Y286000D01*
D02*
G37*
G36*
X478181Y336584D02*
X478790Y335790D01*
X479584Y335181D01*
X480508Y334798D01*
X481500Y334667D01*
X486500D01*
X487492Y334798D01*
X488416Y335181D01*
X488961Y335598D01*
X489785Y335305D01*
X489961Y335156D01*
Y332147D01*
X488961Y331654D01*
X488517Y331994D01*
X487544Y332397D01*
X486500Y332535D01*
X484500D01*
Y328500D01*
Y324465D01*
X486500D01*
X487544Y324603D01*
X488517Y325006D01*
X488961Y325346D01*
X489961Y324853D01*
Y322147D01*
X488961Y321654D01*
X488517Y321994D01*
X487544Y322397D01*
X486500Y322534D01*
X484500D01*
Y318500D01*
Y314465D01*
X486500D01*
X487544Y314603D01*
X488517Y315006D01*
X488961Y315346D01*
X489961Y314853D01*
Y311844D01*
X489785Y311695D01*
X488961Y311402D01*
X488416Y311819D01*
X487492Y312202D01*
X486500Y312333D01*
X481500D01*
X480508Y312202D01*
X479584Y311819D01*
X478790Y311210D01*
X478181Y310416D01*
X477798Y309492D01*
X477667Y308500D01*
X477798Y307508D01*
X478181Y306584D01*
X478790Y305790D01*
X479584Y305181D01*
X480508Y304798D01*
X481500Y304667D01*
X486500D01*
X487492Y304798D01*
X488416Y305181D01*
X488961Y305598D01*
X489785Y305305D01*
X489961Y305156D01*
Y301844D01*
X489785Y301695D01*
X488961Y301401D01*
X488416Y301819D01*
X487492Y302202D01*
X486500Y302333D01*
X481500D01*
X480508Y302202D01*
X479584Y301819D01*
X478790Y301210D01*
X478181Y300416D01*
X477798Y299492D01*
X477667Y298500D01*
X477798Y297508D01*
X478181Y296584D01*
X478790Y295790D01*
X479584Y295181D01*
X480508Y294798D01*
X481500Y294667D01*
X486500D01*
X487492Y294798D01*
X488416Y295181D01*
X488961Y295599D01*
X489785Y295305D01*
X489961Y295156D01*
Y291844D01*
X489785Y291695D01*
X488961Y291402D01*
X488416Y291819D01*
X487492Y292202D01*
X486500Y292333D01*
X481500D01*
X480508Y292202D01*
X479584Y291819D01*
X478790Y291210D01*
X478181Y290416D01*
X477798Y289492D01*
X477667Y288500D01*
X477798Y287508D01*
X478181Y286584D01*
X478790Y285790D01*
X479584Y285181D01*
X480508Y284798D01*
X481500Y284667D01*
X486500D01*
X487492Y284798D01*
X488416Y285181D01*
X488961Y285598D01*
X489785Y285305D01*
X489961Y285156D01*
Y281844D01*
X489785Y281695D01*
X488961Y281401D01*
X488416Y281819D01*
X487492Y282202D01*
X486500Y282333D01*
X481500D01*
X480508Y282202D01*
X479584Y281819D01*
X478790Y281210D01*
X478181Y280416D01*
X478147Y280335D01*
X473760D01*
X467335Y286760D01*
Y324500D01*
Y330240D01*
X473760Y336665D01*
X478147D01*
X478181Y336584D01*
D02*
G37*
G36*
Y276584D02*
X478790Y275790D01*
X479584Y275181D01*
X480508Y274798D01*
X481500Y274667D01*
X486500D01*
X487492Y274798D01*
X488416Y275181D01*
X488961Y275599D01*
X489785Y275305D01*
X489961Y275156D01*
Y271844D01*
X489785Y271695D01*
X488961Y271402D01*
X488416Y271819D01*
X487492Y272202D01*
X486500Y272333D01*
X481500D01*
X480508Y272202D01*
X479584Y271819D01*
X478790Y271210D01*
X478181Y270416D01*
X477798Y269492D01*
X477667Y268500D01*
X477798Y267508D01*
X478181Y266584D01*
X478790Y265790D01*
X479584Y265181D01*
X480508Y264798D01*
X481500Y264667D01*
X486500D01*
X487492Y264798D01*
X488416Y265181D01*
X488961Y265599D01*
X489785Y265305D01*
X489961Y265156D01*
Y262147D01*
X488961Y261654D01*
X488517Y261994D01*
X487544Y262397D01*
X486500Y262534D01*
X484500D01*
Y258500D01*
Y254466D01*
X486500D01*
X487544Y254603D01*
X488517Y255006D01*
X488961Y255346D01*
X489961Y254853D01*
Y252147D01*
X488961Y251654D01*
X488517Y251994D01*
X487544Y252397D01*
X486500Y252535D01*
X484500D01*
Y248500D01*
Y244465D01*
X486500D01*
X487544Y244603D01*
X488517Y245006D01*
X488961Y245346D01*
X489961Y244853D01*
Y241844D01*
X489785Y241695D01*
X488961Y241402D01*
X488416Y241819D01*
X487492Y242202D01*
X486500Y242333D01*
X481500D01*
X480508Y242202D01*
X479584Y241819D01*
X478790Y241210D01*
X478181Y240416D01*
X477798Y239492D01*
X477667Y238500D01*
X477798Y237508D01*
X478181Y236584D01*
X478790Y235790D01*
X479584Y235181D01*
X480508Y234798D01*
X481500Y234667D01*
X486500D01*
X487492Y234798D01*
X488416Y235181D01*
X488961Y235598D01*
X489785Y235305D01*
X489961Y235156D01*
Y231844D01*
X489785Y231695D01*
X488961Y231401D01*
X488416Y231819D01*
X487492Y232202D01*
X486500Y232333D01*
X481500D01*
X480508Y232202D01*
X479584Y231819D01*
X478790Y231210D01*
X478181Y230416D01*
X477798Y229492D01*
X477667Y228500D01*
X477798Y227508D01*
X478181Y226584D01*
X478790Y225790D01*
X479584Y225181D01*
X480508Y224798D01*
X481500Y224667D01*
X486500D01*
X487492Y224798D01*
X488416Y225181D01*
X488961Y225599D01*
X489785Y225305D01*
X489961Y225156D01*
Y221844D01*
X489785Y221695D01*
X488961Y221402D01*
X488416Y221819D01*
X487492Y222202D01*
X486500Y222333D01*
X481500D01*
X480508Y222202D01*
X479584Y221819D01*
X478790Y221210D01*
X478181Y220416D01*
X477798Y219492D01*
X477667Y218500D01*
X477798Y217508D01*
X478181Y216584D01*
X478790Y215790D01*
X479584Y215181D01*
X480508Y214798D01*
X481500Y214667D01*
X486500D01*
X487492Y214798D01*
X488416Y215181D01*
X488961Y215599D01*
X489785Y215305D01*
X489961Y215156D01*
Y192539D01*
X487344D01*
X487195Y192715D01*
X486902Y193539D01*
X487319Y194084D01*
X487702Y195008D01*
X487833Y196000D01*
Y201000D01*
X487702Y201992D01*
X487319Y202916D01*
X486710Y203710D01*
X485916Y204319D01*
X484992Y204702D01*
X484000Y204833D01*
X483008Y204702D01*
X482084Y204319D01*
X481290Y203710D01*
X480681Y202916D01*
X480298Y201992D01*
X480167Y201000D01*
Y196000D01*
X480298Y195008D01*
X480681Y194084D01*
X481099Y193539D01*
X480805Y192715D01*
X480656Y192539D01*
X477344D01*
X477195Y192715D01*
X476901Y193539D01*
X477319Y194084D01*
X477702Y195008D01*
X477833Y196000D01*
Y201000D01*
X477702Y201992D01*
X477319Y202916D01*
X476710Y203710D01*
X475916Y204319D01*
X474992Y204702D01*
X474000Y204833D01*
X473008Y204702D01*
X472084Y204319D01*
X471290Y203710D01*
X470681Y202916D01*
X470298Y201992D01*
X470167Y201000D01*
Y196000D01*
X470298Y195008D01*
X470681Y194084D01*
X471099Y193539D01*
X470805Y192715D01*
X470656Y192539D01*
X467344D01*
X467195Y192715D01*
X466901Y193539D01*
X467319Y194084D01*
X467702Y195008D01*
X467833Y196000D01*
Y201000D01*
X467702Y201992D01*
X467319Y202916D01*
X466710Y203710D01*
X465916Y204319D01*
X464992Y204702D01*
X464000Y204833D01*
X463008Y204702D01*
X462084Y204319D01*
X461290Y203710D01*
X460681Y202916D01*
X460298Y201992D01*
X460167Y201000D01*
Y196000D01*
X460298Y195008D01*
X460681Y194084D01*
X461098Y193539D01*
X460805Y192715D01*
X460656Y192539D01*
X457344D01*
X457195Y192715D01*
X456902Y193539D01*
X457319Y194084D01*
X457702Y195008D01*
X457833Y196000D01*
Y201000D01*
X457702Y201992D01*
X457319Y202916D01*
X456710Y203710D01*
X455916Y204319D01*
X454992Y204702D01*
X454000Y204833D01*
X453008Y204702D01*
X452084Y204319D01*
X451290Y203710D01*
X450681Y202916D01*
X450298Y201992D01*
X450167Y201000D01*
Y196000D01*
X450298Y195008D01*
X450681Y194084D01*
X451098Y193539D01*
X450805Y192715D01*
X450656Y192539D01*
X447647D01*
X447154Y193539D01*
X447494Y193983D01*
X447897Y194956D01*
X448034Y196000D01*
Y198000D01*
X444000D01*
X439965D01*
Y196000D01*
X440103Y194956D01*
X440506Y193983D01*
X440846Y193539D01*
X440353Y192539D01*
X437344D01*
X437195Y192715D01*
X436902Y193539D01*
X437319Y194084D01*
X437702Y195008D01*
X437833Y196000D01*
Y201000D01*
X437702Y201992D01*
X437319Y202916D01*
X436710Y203710D01*
X435916Y204319D01*
X434992Y204702D01*
X434000Y204833D01*
X433008Y204702D01*
X432084Y204319D01*
X431290Y203710D01*
X430838Y203681D01*
X427905Y206614D01*
X427819Y207046D01*
X427509Y207509D01*
X427277Y207665D01*
X427529Y208665D01*
X467000D01*
X467702Y208804D01*
X468298Y209202D01*
X472798Y213702D01*
X473196Y214298D01*
X473335Y215000D01*
Y276240D01*
X473760Y276665D01*
X478147D01*
X478181Y276584D01*
D02*
G37*
G36*
X325603Y351833D02*
X326500Y351655D01*
X327397Y351833D01*
X327559Y351941D01*
X327581Y351946D01*
X328573Y351416D01*
Y331591D01*
X321272Y324291D01*
X321000Y324345D01*
X320103Y324167D01*
X319342Y323658D01*
X318833Y322897D01*
X318655Y322000D01*
X318833Y321103D01*
X319019Y320826D01*
X318484Y319826D01*
X300064D01*
X299819Y320416D01*
X299210Y321210D01*
X298416Y321819D01*
X297492Y322202D01*
X296500Y322333D01*
X291500D01*
X290508Y322202D01*
X289584Y321819D01*
X289039Y321402D01*
X288215Y321695D01*
X288039Y321844D01*
Y325156D01*
X288215Y325305D01*
X289039Y325599D01*
X289584Y325181D01*
X290508Y324798D01*
X291500Y324667D01*
X296500D01*
X297492Y324798D01*
X298416Y325181D01*
X299210Y325790D01*
X299819Y326584D01*
X300202Y327508D01*
X300333Y328500D01*
X300202Y329492D01*
X299819Y330416D01*
X299210Y331210D01*
X298416Y331819D01*
X297492Y332202D01*
X296500Y332333D01*
X291500D01*
X290508Y332202D01*
X289584Y331819D01*
X289039Y331401D01*
X288215Y331695D01*
X288039Y331844D01*
Y335156D01*
X288215Y335305D01*
X289039Y335598D01*
X289584Y335181D01*
X290508Y334798D01*
X291500Y334667D01*
X296500D01*
X297492Y334798D01*
X298416Y335181D01*
X299210Y335790D01*
X299819Y336584D01*
X300064Y337175D01*
X308500D01*
X309007Y337275D01*
X309437Y337563D01*
X323870Y351996D01*
X324842Y352342D01*
X325603Y351833D01*
D02*
G37*
G36*
X303455Y276876D02*
X303799Y276223D01*
X303655Y275500D01*
X303833Y274603D01*
X304342Y273842D01*
X304573Y273688D01*
Y244000D01*
X304573Y244000D01*
X304681Y243454D01*
X304991Y242991D01*
X306491Y241491D01*
X306954Y241181D01*
X307500Y241073D01*
X308046Y241181D01*
X308509Y241491D01*
X308741Y241723D01*
X383547D01*
X383587Y240723D01*
X383433Y240710D01*
X382083Y240604D01*
X380213Y240155D01*
X378436Y239419D01*
X376797Y238415D01*
X375334Y237166D01*
X374085Y235703D01*
X373081Y234064D01*
X372345Y232287D01*
X371896Y230417D01*
X371745Y228500D01*
X371896Y226583D01*
X372345Y224713D01*
X373081Y222936D01*
X374085Y221297D01*
X375334Y219834D01*
X376797Y218585D01*
X378436Y217581D01*
X380213Y216845D01*
X382083Y216396D01*
X384000Y216245D01*
X385917Y216396D01*
X387787Y216845D01*
X389564Y217581D01*
X391203Y218585D01*
X392666Y219834D01*
X393915Y221297D01*
X394919Y222936D01*
X395655Y224713D01*
X396104Y226583D01*
X396255Y228500D01*
X396104Y230417D01*
X395655Y232287D01*
X394919Y234064D01*
X393915Y235703D01*
X392666Y237166D01*
X391203Y238415D01*
X389564Y239419D01*
X387787Y240155D01*
X385917Y240604D01*
X384567Y240710D01*
X384413Y240723D01*
X384453Y241723D01*
X391804D01*
X400573Y232954D01*
Y223812D01*
X400342Y223658D01*
X399833Y222897D01*
X399655Y222000D01*
X399833Y221103D01*
X400342Y220342D01*
X401103Y219833D01*
X401520Y219750D01*
X401968Y218784D01*
X401603Y218166D01*
X400842Y217658D01*
X400333Y216897D01*
X400155Y216000D01*
X400333Y215103D01*
X400842Y214342D01*
X401603Y213833D01*
X402500Y213655D01*
X403397Y213833D01*
X404158Y214342D01*
X404667Y215103D01*
X404845Y216000D01*
X404667Y216897D01*
X404584Y217020D01*
X417859Y230295D01*
X417859Y230295D01*
X418169Y230759D01*
X418277Y231305D01*
Y256655D01*
X419277Y257323D01*
X419282Y257321D01*
X419500Y257292D01*
Y260000D01*
X420500D01*
Y257292D01*
X420718Y257321D01*
X420723Y257323D01*
X421723Y256655D01*
Y239153D01*
X421681Y239091D01*
X421573Y238545D01*
X421573Y238545D01*
Y228046D01*
X414841Y221314D01*
X414841Y221314D01*
X414531Y220851D01*
X414423Y220305D01*
X414423Y220305D01*
Y217695D01*
X414423Y217695D01*
X414531Y217149D01*
X414841Y216686D01*
X416686Y214841D01*
X416686Y214841D01*
X417149Y214531D01*
X417695Y214423D01*
X417695Y214423D01*
X421954D01*
X422342Y213842D01*
X423103Y213333D01*
X422995Y212335D01*
X410222D01*
X409970Y212385D01*
X401050D01*
X400547Y212285D01*
X369310D01*
X361798Y219798D01*
X361202Y220196D01*
X360500Y220335D01*
X299853D01*
X299819Y220416D01*
X299210Y221210D01*
X298416Y221819D01*
X297492Y222202D01*
X296500Y222333D01*
X291500D01*
X290508Y222202D01*
X289584Y221819D01*
X289039Y221402D01*
X288215Y221695D01*
X288039Y221844D01*
Y225156D01*
X288215Y225305D01*
X289039Y225599D01*
X289584Y225181D01*
X290508Y224798D01*
X291500Y224667D01*
X296500D01*
X297492Y224798D01*
X298416Y225181D01*
X299210Y225790D01*
X299819Y226584D01*
X300202Y227508D01*
X300333Y228500D01*
X300202Y229492D01*
X299819Y230416D01*
X299210Y231210D01*
X298416Y231819D01*
X297492Y232202D01*
X296500Y232333D01*
X291500D01*
X290508Y232202D01*
X289584Y231819D01*
X289039Y231401D01*
X288215Y231695D01*
X288039Y231844D01*
Y235156D01*
X288215Y235305D01*
X289039Y235598D01*
X289584Y235181D01*
X290508Y234798D01*
X291500Y234667D01*
X296500D01*
X297492Y234798D01*
X298416Y235181D01*
X299210Y235790D01*
X299819Y236584D01*
X300202Y237508D01*
X300333Y238500D01*
X300202Y239492D01*
X299819Y240416D01*
X299210Y241210D01*
X298416Y241819D01*
X297492Y242202D01*
X296500Y242333D01*
X291500D01*
X290508Y242202D01*
X289584Y241819D01*
X289039Y241402D01*
X288215Y241695D01*
X288039Y241844D01*
Y245156D01*
X288215Y245305D01*
X289039Y245599D01*
X289584Y245181D01*
X290508Y244798D01*
X291500Y244667D01*
X296500D01*
X297492Y244798D01*
X298416Y245181D01*
X299210Y245790D01*
X299819Y246584D01*
X300202Y247508D01*
X300333Y248500D01*
X300202Y249492D01*
X299819Y250416D01*
X299210Y251210D01*
X298416Y251819D01*
X297492Y252202D01*
X296500Y252333D01*
X291500D01*
X290508Y252202D01*
X289584Y251819D01*
X289039Y251401D01*
X288215Y251695D01*
X288039Y251844D01*
Y254853D01*
X289039Y255346D01*
X289483Y255006D01*
X290456Y254603D01*
X291500Y254466D01*
X293500D01*
Y258500D01*
Y262534D01*
X291500D01*
X290456Y262397D01*
X289483Y261994D01*
X289039Y261654D01*
X288039Y262147D01*
Y264853D01*
X289039Y265346D01*
X289483Y265006D01*
X290456Y264603D01*
X291500Y264465D01*
X293500D01*
Y268500D01*
Y272534D01*
X291500D01*
X290456Y272397D01*
X289483Y271994D01*
X289039Y271654D01*
X288039Y272147D01*
Y275156D01*
X288215Y275305D01*
X289039Y275599D01*
X289584Y275181D01*
X290508Y274798D01*
X291500Y274667D01*
X296500D01*
X297492Y274798D01*
X298416Y275181D01*
X299210Y275790D01*
X299819Y276584D01*
X300084Y277223D01*
X303182D01*
X303455Y276876D01*
D02*
G37*
%LPC*%
G36*
X384500Y204969D02*
Y199000D01*
X388035D01*
Y201000D01*
X387897Y202044D01*
X387494Y203017D01*
X386853Y203853D01*
X386017Y204494D01*
X385044Y204897D01*
X384500Y204969D01*
D02*
G37*
G36*
X309500Y209500D02*
X307292D01*
X307321Y209282D01*
X307598Y208613D01*
X308039Y208039D01*
X308613Y207598D01*
X309282Y207321D01*
X309500Y207292D01*
Y209500D01*
D02*
G37*
G36*
X383500Y204969D02*
X382956Y204897D01*
X381983Y204494D01*
X381147Y203853D01*
X380506Y203017D01*
X380103Y202044D01*
X379965Y201000D01*
Y199000D01*
X383500D01*
Y204969D01*
D02*
G37*
G36*
X293500Y205000D02*
X290000D01*
Y199000D01*
X293500D01*
Y205000D01*
D02*
G37*
G36*
X298000D02*
X294500D01*
Y199000D01*
X298000D01*
Y205000D01*
D02*
G37*
G36*
X359500Y209500D02*
X357292D01*
X357321Y209282D01*
X357598Y208613D01*
X358039Y208039D01*
X358613Y207598D01*
X359282Y207321D01*
X359500Y207292D01*
Y209500D01*
D02*
G37*
G36*
Y212708D02*
X359282Y212679D01*
X358613Y212402D01*
X358039Y211961D01*
X357598Y211387D01*
X357321Y210718D01*
X357292Y210500D01*
X359500D01*
Y212708D01*
D02*
G37*
G36*
X362708Y209500D02*
X360500D01*
Y207292D01*
X360718Y207321D01*
X361387Y207598D01*
X361961Y208039D01*
X362402Y208613D01*
X362679Y209282D01*
X362708Y209500D01*
D02*
G37*
G36*
X360500Y212708D02*
Y210500D01*
X362708D01*
X362679Y210718D01*
X362402Y211387D01*
X361961Y211961D01*
X361387Y212402D01*
X360718Y212679D01*
X360500Y212708D01*
D02*
G37*
G36*
X310500D02*
Y210500D01*
X312708D01*
X312679Y210718D01*
X312402Y211387D01*
X311961Y211961D01*
X311387Y212402D01*
X310718Y212679D01*
X310500Y212708D01*
D02*
G37*
G36*
X309500D02*
X309282Y212679D01*
X308613Y212402D01*
X308039Y211961D01*
X307598Y211387D01*
X307321Y210718D01*
X307292Y210500D01*
X309500D01*
Y212708D01*
D02*
G37*
G36*
X340500D02*
Y210500D01*
X342708D01*
X342679Y210718D01*
X342402Y211387D01*
X341961Y211961D01*
X341387Y212402D01*
X340718Y212679D01*
X340500Y212708D01*
D02*
G37*
G36*
X339500D02*
X339282Y212679D01*
X338613Y212402D01*
X338039Y211961D01*
X337598Y211387D01*
X337321Y210718D01*
X337292Y210500D01*
X339500D01*
Y212708D01*
D02*
G37*
G36*
Y209500D02*
X337292D01*
X337321Y209282D01*
X337598Y208613D01*
X338039Y208039D01*
X338613Y207598D01*
X339282Y207321D01*
X339500Y207292D01*
Y209500D01*
D02*
G37*
G36*
X342708D02*
X340500D01*
Y207292D01*
X340718Y207321D01*
X341387Y207598D01*
X341961Y208039D01*
X342402Y208613D01*
X342679Y209282D01*
X342708Y209500D01*
D02*
G37*
G36*
X312708D02*
X310500D01*
Y207292D01*
X310718Y207321D01*
X311387Y207598D01*
X311961Y208039D01*
X312402Y208613D01*
X312679Y209282D01*
X312708Y209500D01*
D02*
G37*
G36*
X458949Y332000D02*
X457000D01*
Y330051D01*
X457475Y330145D01*
X458302Y330698D01*
X458855Y331525D01*
X458949Y332000D01*
D02*
G37*
G36*
X451675Y335497D02*
X450847D01*
Y332500D01*
Y329503D01*
X451675D01*
X452238Y329615D01*
X452716Y329934D01*
X453034Y330412D01*
X453147Y330975D01*
Y331419D01*
X454145Y331525D01*
X454698Y330698D01*
X455524Y330145D01*
X456000Y330051D01*
Y332500D01*
Y334950D01*
X455524Y334855D01*
X454698Y334302D01*
X454145Y333475D01*
X453147Y333582D01*
Y334026D01*
X453034Y334589D01*
X452716Y335066D01*
X452238Y335385D01*
X451675Y335497D01*
D02*
G37*
G36*
X457000Y334950D02*
Y333000D01*
X458949D01*
X458855Y333475D01*
X458302Y334302D01*
X457475Y334855D01*
X457000Y334950D01*
D02*
G37*
G36*
X413921Y326500D02*
X410500D01*
Y323079D01*
X411032Y323149D01*
X411993Y323547D01*
X412819Y324181D01*
X413453Y325007D01*
X413851Y325968D01*
X413921Y326500D01*
D02*
G37*
G36*
X409500D02*
X406079D01*
X406149Y325968D01*
X406547Y325007D01*
X407181Y324181D01*
X408007Y323547D01*
X408968Y323149D01*
X409500Y323079D01*
Y326500D01*
D02*
G37*
G36*
X472708Y349500D02*
X470500D01*
Y347292D01*
X470718Y347321D01*
X471387Y347598D01*
X471961Y348039D01*
X472402Y348613D01*
X472679Y349282D01*
X472708Y349500D01*
D02*
G37*
G36*
X469500D02*
X467292D01*
X467321Y349282D01*
X467598Y348613D01*
X468039Y348039D01*
X468613Y347598D01*
X469282Y347321D01*
X469500Y347292D01*
Y349500D01*
D02*
G37*
G36*
X483500Y348000D02*
X477531D01*
X477603Y347456D01*
X478006Y346483D01*
X478647Y345647D01*
X479483Y345006D01*
X480456Y344603D01*
X481500Y344465D01*
X483500D01*
Y348000D01*
D02*
G37*
G36*
X470500Y352708D02*
Y350500D01*
X472708D01*
X472679Y350718D01*
X472402Y351387D01*
X471961Y351961D01*
X471387Y352402D01*
X470718Y352679D01*
X470500Y352708D01*
D02*
G37*
G36*
X469500D02*
X469282Y352679D01*
X468613Y352402D01*
X468039Y351961D01*
X467598Y351387D01*
X467321Y350718D01*
X467292Y350500D01*
X469500D01*
Y352708D01*
D02*
G37*
G36*
X483500Y352535D02*
X481500D01*
X480456Y352397D01*
X479483Y351994D01*
X478647Y351353D01*
X478006Y350517D01*
X477603Y349544D01*
X477531Y349000D01*
X483500D01*
Y352535D01*
D02*
G37*
G36*
X462708Y339500D02*
X460500D01*
Y337292D01*
X460718Y337321D01*
X461387Y337598D01*
X461961Y338039D01*
X462402Y338613D01*
X462679Y339282D01*
X462708Y339500D01*
D02*
G37*
G36*
X459500D02*
X457292D01*
X457321Y339282D01*
X457598Y338613D01*
X458039Y338039D01*
X458613Y337598D01*
X459282Y337321D01*
X459500Y337292D01*
Y339500D01*
D02*
G37*
G36*
X460500Y342708D02*
Y340500D01*
X462708D01*
X462679Y340718D01*
X462402Y341387D01*
X461961Y341961D01*
X461387Y342402D01*
X460718Y342679D01*
X460500Y342708D01*
D02*
G37*
G36*
X459500D02*
X459282Y342679D01*
X458613Y342402D01*
X458039Y341961D01*
X457598Y341387D01*
X457321Y340718D01*
X457292Y340500D01*
X459500D01*
Y342708D01*
D02*
G37*
G36*
X360500Y272708D02*
Y270500D01*
X362708D01*
X362679Y270718D01*
X362402Y271387D01*
X361961Y271961D01*
X361387Y272402D01*
X360718Y272679D01*
X360500Y272708D01*
D02*
G37*
G36*
X359500D02*
X359282Y272679D01*
X358613Y272402D01*
X358039Y271961D01*
X357598Y271387D01*
X357321Y270718D01*
X357292Y270500D01*
X359500D01*
Y272708D01*
D02*
G37*
G36*
X320500D02*
Y270500D01*
X322708D01*
X322679Y270718D01*
X322402Y271387D01*
X321961Y271961D01*
X321387Y272402D01*
X320718Y272679D01*
X320500Y272708D01*
D02*
G37*
G36*
X359500Y269500D02*
X357292D01*
X357321Y269282D01*
X357598Y268613D01*
X358039Y268039D01*
X358613Y267598D01*
X359282Y267321D01*
X359500Y267292D01*
Y269500D01*
D02*
G37*
G36*
X322708D02*
X320500D01*
Y267292D01*
X320718Y267321D01*
X321387Y267598D01*
X321961Y268039D01*
X322402Y268613D01*
X322679Y269282D01*
X322708Y269500D01*
D02*
G37*
G36*
X319500D02*
X317292D01*
X317321Y269282D01*
X317598Y268613D01*
X318039Y268039D01*
X318613Y267598D01*
X319282Y267321D01*
X319500Y267292D01*
Y269500D01*
D02*
G37*
G36*
Y272708D02*
X319282Y272679D01*
X318613Y272402D01*
X318039Y271961D01*
X317598Y271387D01*
X317321Y270718D01*
X317292Y270500D01*
X319500D01*
Y272708D01*
D02*
G37*
G36*
X362708Y269500D02*
X360500D01*
Y267292D01*
X360718Y267321D01*
X361387Y267598D01*
X361961Y268039D01*
X362402Y268613D01*
X362679Y269282D01*
X362708Y269500D01*
D02*
G37*
G36*
X410000Y270785D02*
X409020Y270656D01*
X408107Y270278D01*
X407324Y269676D01*
X406722Y268893D01*
X406344Y267980D01*
X406215Y267000D01*
X406344Y266020D01*
X406722Y265107D01*
X407324Y264323D01*
X408107Y263722D01*
X409020Y263344D01*
X410000Y263215D01*
X410980Y263344D01*
X411893Y263722D01*
X412676Y264323D01*
X413278Y265107D01*
X413656Y266020D01*
X413785Y267000D01*
X413656Y267980D01*
X413278Y268893D01*
X412676Y269676D01*
X411893Y270278D01*
X410980Y270656D01*
X410000Y270785D01*
D02*
G37*
G36*
Y260785D02*
X409020Y260656D01*
X408107Y260278D01*
X407324Y259677D01*
X406722Y258893D01*
X406344Y257980D01*
X406215Y257000D01*
X406344Y256020D01*
X406722Y255107D01*
X407324Y254324D01*
X408107Y253722D01*
X409020Y253344D01*
X410000Y253215D01*
X410980Y253344D01*
X411893Y253722D01*
X412676Y254324D01*
X413278Y255107D01*
X413656Y256020D01*
X413785Y257000D01*
X413656Y257980D01*
X413278Y258893D01*
X412676Y259677D01*
X411893Y260278D01*
X410980Y260656D01*
X410000Y260785D01*
D02*
G37*
G36*
X483500Y382535D02*
X481500D01*
X480456Y382397D01*
X479483Y381994D01*
X478647Y381353D01*
X478006Y380517D01*
X477603Y379544D01*
X477531Y379000D01*
X483500D01*
Y382535D01*
D02*
G37*
G36*
X450500Y362708D02*
Y360500D01*
X452708D01*
X452679Y360718D01*
X452402Y361387D01*
X451961Y361961D01*
X451387Y362402D01*
X450718Y362679D01*
X450500Y362708D01*
D02*
G37*
G36*
X449500D02*
X449282Y362679D01*
X448613Y362402D01*
X448039Y361961D01*
X447598Y361387D01*
X447321Y360718D01*
X447292Y360500D01*
X449500D01*
Y362708D01*
D02*
G37*
G36*
X452708Y359500D02*
X450500D01*
Y357292D01*
X450718Y357321D01*
X451387Y357598D01*
X451961Y358039D01*
X452402Y358613D01*
X452679Y359282D01*
X452708Y359500D01*
D02*
G37*
G36*
X483500Y378000D02*
X477531D01*
X477603Y377456D01*
X478006Y376483D01*
X478647Y375647D01*
X479483Y375006D01*
X480456Y374603D01*
X481500Y374465D01*
X483500D01*
Y378000D01*
D02*
G37*
G36*
X449500Y359500D02*
X447292D01*
X447321Y359282D01*
X447598Y358613D01*
X448039Y358039D01*
X448613Y357598D01*
X449282Y357321D01*
X449500Y357292D01*
Y359500D01*
D02*
G37*
G36*
X300469Y398000D02*
X294500D01*
Y394465D01*
X296500D01*
X297544Y394603D01*
X298517Y395006D01*
X299353Y395647D01*
X299994Y396483D01*
X300397Y397456D01*
X300469Y398000D01*
D02*
G37*
G36*
X410000Y390785D02*
X409020Y390656D01*
X408107Y390278D01*
X407324Y389676D01*
X406722Y388893D01*
X406344Y387980D01*
X406215Y387000D01*
X406344Y386020D01*
X406722Y385107D01*
X407324Y384324D01*
X408107Y383722D01*
X409020Y383344D01*
X410000Y383215D01*
X410980Y383344D01*
X411893Y383722D01*
X412676Y384324D01*
X413278Y385107D01*
X413656Y386020D01*
X413785Y387000D01*
X413656Y387980D01*
X413278Y388893D01*
X412676Y389676D01*
X411893Y390278D01*
X410980Y390656D01*
X410000Y390785D01*
D02*
G37*
G36*
X483500Y412500D02*
X477500D01*
Y409000D01*
X483500D01*
Y412500D01*
D02*
G37*
G36*
Y408000D02*
X477500D01*
Y404500D01*
X483500D01*
Y408000D01*
D02*
G37*
G36*
X296500Y402534D02*
X294500D01*
Y399000D01*
X300469D01*
X300397Y399544D01*
X299994Y400517D01*
X299353Y401353D01*
X298517Y401994D01*
X297544Y402397D01*
X296500Y402534D01*
D02*
G37*
G36*
X410000Y380785D02*
X409020Y380656D01*
X408107Y380278D01*
X407324Y379677D01*
X406722Y378893D01*
X406344Y377980D01*
X406215Y377000D01*
X406344Y376020D01*
X406722Y375107D01*
X407324Y374324D01*
X408107Y373722D01*
X409020Y373344D01*
X410000Y373215D01*
X410980Y373344D01*
X411893Y373722D01*
X412676Y374324D01*
X413278Y375107D01*
X413656Y376020D01*
X413785Y377000D01*
X413656Y377980D01*
X413278Y378893D01*
X412676Y379677D01*
X411893Y380278D01*
X410980Y380656D01*
X410000Y380785D01*
D02*
G37*
G36*
X314000Y440755D02*
X312083Y440604D01*
X310213Y440155D01*
X308436Y439419D01*
X306797Y438415D01*
X305334Y437166D01*
X304085Y435703D01*
X303081Y434064D01*
X302345Y432287D01*
X301896Y430417D01*
X301745Y428500D01*
X301896Y426583D01*
X302345Y424713D01*
X303081Y422936D01*
X304085Y421297D01*
X305334Y419834D01*
X306797Y418585D01*
X308436Y417581D01*
X310213Y416845D01*
X312083Y416396D01*
X314000Y416245D01*
X315917Y416396D01*
X317787Y416845D01*
X319564Y417581D01*
X321203Y418585D01*
X322666Y419834D01*
X323915Y421297D01*
X324919Y422936D01*
X325655Y424713D01*
X326104Y426583D01*
X326255Y428500D01*
X326104Y430417D01*
X325655Y432287D01*
X324919Y434064D01*
X323915Y435703D01*
X322666Y437166D01*
X321203Y438415D01*
X319564Y439419D01*
X317787Y440155D01*
X315917Y440604D01*
X314000Y440755D01*
D02*
G37*
G36*
X449500Y442708D02*
X449282Y442679D01*
X448613Y442402D01*
X448039Y441961D01*
X447598Y441387D01*
X447321Y440718D01*
X447292Y440500D01*
X449500D01*
Y442708D01*
D02*
G37*
G36*
X330500D02*
Y440500D01*
X332708D01*
X332679Y440718D01*
X332402Y441387D01*
X331961Y441961D01*
X331387Y442402D01*
X330718Y442679D01*
X330500Y442708D01*
D02*
G37*
G36*
X329500D02*
X329282Y442679D01*
X328613Y442402D01*
X328039Y441961D01*
X327598Y441387D01*
X327321Y440718D01*
X327292Y440500D01*
X329500D01*
Y442708D01*
D02*
G37*
G36*
X480500D02*
Y440500D01*
X482708D01*
X482679Y440718D01*
X482402Y441387D01*
X481961Y441961D01*
X481387Y442402D01*
X480718Y442679D01*
X480500Y442708D01*
D02*
G37*
G36*
X479500D02*
X479282Y442679D01*
X478613Y442402D01*
X478039Y441961D01*
X477598Y441387D01*
X477321Y440718D01*
X477292Y440500D01*
X479500D01*
Y442708D01*
D02*
G37*
G36*
X450500D02*
Y440500D01*
X452708D01*
X452679Y440718D01*
X452402Y441387D01*
X451961Y441961D01*
X451387Y442402D01*
X450718Y442679D01*
X450500Y442708D01*
D02*
G37*
G36*
X482708Y439500D02*
X480500D01*
Y437292D01*
X480718Y437321D01*
X481387Y437598D01*
X481961Y438039D01*
X482402Y438613D01*
X482679Y439282D01*
X482708Y439500D01*
D02*
G37*
G36*
X332708D02*
X330500D01*
Y437292D01*
X330718Y437321D01*
X331387Y437598D01*
X331961Y438039D01*
X332402Y438613D01*
X332679Y439282D01*
X332708Y439500D01*
D02*
G37*
G36*
X329500D02*
X327292D01*
X327321Y439282D01*
X327598Y438613D01*
X328039Y438039D01*
X328613Y437598D01*
X329282Y437321D01*
X329500Y437292D01*
Y439500D01*
D02*
G37*
G36*
X464000Y440755D02*
X462083Y440604D01*
X460213Y440155D01*
X458436Y439419D01*
X456797Y438415D01*
X455334Y437166D01*
X454085Y435703D01*
X453081Y434064D01*
X452345Y432287D01*
X451896Y430417D01*
X451745Y428500D01*
X451896Y426583D01*
X452345Y424713D01*
X453081Y422936D01*
X454085Y421297D01*
X455334Y419834D01*
X456797Y418585D01*
X458436Y417581D01*
X460213Y416845D01*
X462083Y416396D01*
X464000Y416245D01*
X465917Y416396D01*
X467787Y416845D01*
X469564Y417581D01*
X471203Y418585D01*
X472666Y419834D01*
X473915Y421297D01*
X474919Y422936D01*
X475655Y424713D01*
X476104Y426583D01*
X476255Y428500D01*
X476104Y430417D01*
X475655Y432287D01*
X474919Y434064D01*
X473915Y435703D01*
X472666Y437166D01*
X471203Y438415D01*
X469564Y439419D01*
X467787Y440155D01*
X465917Y440604D01*
X464000Y440755D01*
D02*
G37*
G36*
X479500Y439500D02*
X477292D01*
X477321Y439282D01*
X477598Y438613D01*
X478039Y438039D01*
X478613Y437598D01*
X479282Y437321D01*
X479500Y437292D01*
Y439500D01*
D02*
G37*
G36*
X452708D02*
X450500D01*
Y437292D01*
X450718Y437321D01*
X451387Y437598D01*
X451961Y438039D01*
X452402Y438613D01*
X452679Y439282D01*
X452708Y439500D01*
D02*
G37*
G36*
X449500D02*
X447292D01*
X447321Y439282D01*
X447598Y438613D01*
X448039Y438039D01*
X448613Y437598D01*
X449282Y437321D01*
X449500Y437292D01*
Y439500D01*
D02*
G37*
G36*
X380000Y350785D02*
X379020Y350656D01*
X378107Y350278D01*
X377324Y349676D01*
X376722Y348893D01*
X376344Y347980D01*
X376215Y347000D01*
X376344Y346020D01*
X376722Y345107D01*
X377324Y344323D01*
X378107Y343722D01*
X379020Y343344D01*
X380000Y343215D01*
X380980Y343344D01*
X381893Y343722D01*
X382677Y344323D01*
X383278Y345107D01*
X383656Y346020D01*
X383785Y347000D01*
X383656Y347980D01*
X383278Y348893D01*
X382677Y349676D01*
X381893Y350278D01*
X380980Y350656D01*
X380000Y350785D01*
D02*
G37*
G36*
X296500Y382535D02*
X294500D01*
Y379000D01*
X300469D01*
X300397Y379544D01*
X299994Y380517D01*
X299353Y381353D01*
X298517Y381994D01*
X297544Y382397D01*
X296500Y382535D01*
D02*
G37*
G36*
X300469Y378000D02*
X294500D01*
Y374465D01*
X296500D01*
X297544Y374603D01*
X298517Y375006D01*
X299353Y375647D01*
X299994Y376483D01*
X300397Y377456D01*
X300469Y378000D01*
D02*
G37*
G36*
X383921Y316500D02*
X380500D01*
Y313079D01*
X381032Y313149D01*
X381993Y313547D01*
X382819Y314181D01*
X383453Y315007D01*
X383851Y315968D01*
X383921Y316500D01*
D02*
G37*
G36*
X379500D02*
X376079D01*
X376149Y315968D01*
X376547Y315007D01*
X377181Y314181D01*
X378007Y313547D01*
X378968Y313149D01*
X379500Y313079D01*
Y316500D01*
D02*
G37*
G36*
X440949Y317500D02*
X439000D01*
Y315550D01*
X439475Y315645D01*
X440302Y316198D01*
X440855Y317024D01*
X440949Y317500D01*
D02*
G37*
G36*
X433675Y320997D02*
X432846D01*
Y318000D01*
Y315003D01*
X433675D01*
X434238Y315115D01*
X434716Y315434D01*
X435034Y315911D01*
X435146Y316474D01*
Y316919D01*
X436145Y317024D01*
X436698Y316198D01*
X437525Y315645D01*
X438000Y315550D01*
Y318000D01*
Y320449D01*
X437525Y320355D01*
X436698Y319802D01*
X436145Y318975D01*
X435146Y319081D01*
Y319526D01*
X435034Y320089D01*
X434716Y320566D01*
X434238Y320885D01*
X433675Y320997D01*
D02*
G37*
G36*
X439000Y313450D02*
Y311500D01*
X440949D01*
X440855Y311976D01*
X440302Y312802D01*
X439475Y313355D01*
X439000Y313450D01*
D02*
G37*
G36*
X440949Y310500D02*
X439000D01*
Y308551D01*
X439475Y308645D01*
X440302Y309198D01*
X440855Y310024D01*
X440949Y310500D01*
D02*
G37*
G36*
X433675Y313997D02*
X432847D01*
Y311000D01*
Y308003D01*
X433675D01*
X434238Y308115D01*
X434716Y308434D01*
X435035Y308911D01*
X435147Y309474D01*
Y309919D01*
X436145Y310024D01*
X436698Y309198D01*
X437525Y308645D01*
X438000Y308551D01*
Y311000D01*
Y313450D01*
X437525Y313355D01*
X436698Y312802D01*
X436145Y311976D01*
X435147Y312081D01*
Y312526D01*
X435035Y313089D01*
X434716Y313566D01*
X434238Y313885D01*
X433675Y313997D01*
D02*
G37*
G36*
X439000Y320449D02*
Y318500D01*
X440949D01*
X440855Y318975D01*
X440302Y319802D01*
X439475Y320355D01*
X439000Y320449D01*
D02*
G37*
G36*
X483500Y318000D02*
X477531D01*
X477603Y317456D01*
X478006Y316483D01*
X478647Y315647D01*
X479483Y315006D01*
X480456Y314603D01*
X481500Y314465D01*
X483500D01*
Y318000D01*
D02*
G37*
G36*
Y332535D02*
X481500D01*
X480456Y332397D01*
X479483Y331994D01*
X478647Y331353D01*
X478006Y330517D01*
X477603Y329544D01*
X477531Y329000D01*
X483500D01*
Y332535D01*
D02*
G37*
G36*
Y322534D02*
X481500D01*
X480456Y322397D01*
X479483Y321994D01*
X478647Y321353D01*
X478006Y320517D01*
X477603Y319544D01*
X477531Y319000D01*
X483500D01*
Y322534D01*
D02*
G37*
G36*
Y328000D02*
X477531D01*
X477603Y327456D01*
X478006Y326483D01*
X478647Y325647D01*
X479483Y325006D01*
X480456Y324603D01*
X481500Y324465D01*
X483500D01*
Y328000D01*
D02*
G37*
G36*
X444500Y204969D02*
Y199000D01*
X448034D01*
Y201000D01*
X447897Y202044D01*
X447494Y203017D01*
X446853Y203853D01*
X446017Y204494D01*
X445044Y204897D01*
X444500Y204969D01*
D02*
G37*
G36*
X443500D02*
X442956Y204897D01*
X441983Y204494D01*
X441147Y203853D01*
X440506Y203017D01*
X440103Y202044D01*
X439965Y201000D01*
Y199000D01*
X443500D01*
Y204969D01*
D02*
G37*
G36*
X480500Y212708D02*
Y210500D01*
X482708D01*
X482679Y210718D01*
X482402Y211387D01*
X481961Y211961D01*
X481387Y212402D01*
X480718Y212679D01*
X480500Y212708D01*
D02*
G37*
G36*
X479500D02*
X479282Y212679D01*
X478613Y212402D01*
X478039Y211961D01*
X477598Y211387D01*
X477321Y210718D01*
X477292Y210500D01*
X479500D01*
Y212708D01*
D02*
G37*
G36*
X482708Y209500D02*
X480500D01*
Y207292D01*
X480718Y207321D01*
X481387Y207598D01*
X481961Y208039D01*
X482402Y208613D01*
X482679Y209282D01*
X482708Y209500D01*
D02*
G37*
G36*
X479500D02*
X477292D01*
X477321Y209282D01*
X477598Y208613D01*
X478039Y208039D01*
X478613Y207598D01*
X479282Y207321D01*
X479500Y207292D01*
Y209500D01*
D02*
G37*
G36*
X483500Y258000D02*
X477531D01*
X477603Y257456D01*
X478006Y256483D01*
X478647Y255647D01*
X479483Y255006D01*
X480456Y254603D01*
X481500Y254466D01*
X483500D01*
Y258000D01*
D02*
G37*
G36*
Y262534D02*
X481500D01*
X480456Y262397D01*
X479483Y261994D01*
X478647Y261353D01*
X478006Y260517D01*
X477603Y259544D01*
X477531Y259000D01*
X483500D01*
Y262534D01*
D02*
G37*
G36*
Y248000D02*
X477531D01*
X477603Y247456D01*
X478006Y246483D01*
X478647Y245647D01*
X479483Y245006D01*
X480456Y244603D01*
X481500Y244465D01*
X483500D01*
Y248000D01*
D02*
G37*
G36*
Y252535D02*
X481500D01*
X480456Y252397D01*
X479483Y251994D01*
X478647Y251353D01*
X478006Y250517D01*
X477603Y249544D01*
X477531Y249000D01*
X483500D01*
Y252535D01*
D02*
G37*
G36*
X309500Y332708D02*
X309282Y332679D01*
X308613Y332402D01*
X308039Y331961D01*
X307598Y331387D01*
X307321Y330718D01*
X307292Y330500D01*
X309500D01*
Y332708D01*
D02*
G37*
G36*
X319500Y339500D02*
X317292D01*
X317321Y339282D01*
X317598Y338613D01*
X318039Y338039D01*
X318613Y337598D01*
X319282Y337321D01*
X319500Y337292D01*
Y339500D01*
D02*
G37*
G36*
X310500Y332708D02*
Y330500D01*
X312708D01*
X312679Y330718D01*
X312402Y331387D01*
X311961Y331961D01*
X311387Y332402D01*
X310718Y332679D01*
X310500Y332708D01*
D02*
G37*
G36*
X312708Y329500D02*
X310500D01*
Y327292D01*
X310718Y327321D01*
X311387Y327598D01*
X311961Y328039D01*
X312402Y328613D01*
X312679Y329282D01*
X312708Y329500D01*
D02*
G37*
G36*
X309500D02*
X307292D01*
X307321Y329282D01*
X307598Y328613D01*
X308039Y328039D01*
X308613Y327598D01*
X309282Y327321D01*
X309500Y327292D01*
Y329500D01*
D02*
G37*
G36*
X322708Y339500D02*
X320500D01*
Y337292D01*
X320718Y337321D01*
X321387Y337598D01*
X321961Y338039D01*
X322402Y338613D01*
X322679Y339282D01*
X322708Y339500D01*
D02*
G37*
G36*
X319500Y342708D02*
X319282Y342679D01*
X318613Y342402D01*
X318039Y341961D01*
X317598Y341387D01*
X317321Y340718D01*
X317292Y340500D01*
X319500D01*
Y342708D01*
D02*
G37*
G36*
X320500D02*
Y340500D01*
X322708D01*
X322679Y340718D01*
X322402Y341387D01*
X321961Y341961D01*
X321387Y342402D01*
X320718Y342679D01*
X320500Y342708D01*
D02*
G37*
G36*
X296500Y272534D02*
X294500D01*
Y269000D01*
X300469D01*
X300397Y269544D01*
X299994Y270517D01*
X299353Y271353D01*
X298517Y271994D01*
X297544Y272397D01*
X296500Y272534D01*
D02*
G37*
G36*
Y262534D02*
X294500D01*
Y259000D01*
X300469D01*
X300397Y259544D01*
X299994Y260517D01*
X299353Y261353D01*
X298517Y261994D01*
X297544Y262397D01*
X296500Y262534D01*
D02*
G37*
G36*
X300469Y258000D02*
X294500D01*
Y254466D01*
X296500D01*
X297544Y254603D01*
X298517Y255006D01*
X299353Y255647D01*
X299994Y256483D01*
X300397Y257456D01*
X300469Y258000D01*
D02*
G37*
G36*
Y268000D02*
X294500D01*
Y264465D01*
X296500D01*
X297544Y264603D01*
X298517Y265006D01*
X299353Y265647D01*
X299994Y266483D01*
X300397Y267456D01*
X300469Y268000D01*
D02*
G37*
%LPD*%
D10*
X393449Y228500D02*
G03*
X393449Y228500I-9449J0D01*
G01*
X323449Y428500D02*
G03*
X323449Y428500I-9449J0D01*
G01*
X473449D02*
G03*
X473449Y428500I-9449J0D01*
G01*
D11*
X330000Y365847D02*
D03*
Y359154D02*
D03*
X347500Y365846D02*
D03*
Y359154D02*
D03*
D12*
X443654Y332500D02*
D03*
X450347D02*
D03*
X425654Y311000D02*
D03*
X432347D02*
D03*
X356653Y323500D02*
D03*
X363347D02*
D03*
X432346Y318000D02*
D03*
X425654D02*
D03*
D13*
X433000Y332500D02*
D03*
X425126D02*
D03*
D14*
X410000Y206500D02*
X426500D01*
X402000Y222000D02*
Y233545D01*
X392395Y243150D02*
X402000Y233545D01*
X308150Y243150D02*
X392395D01*
X402500Y216000D02*
Y216955D01*
X307500Y242500D02*
X308150Y243150D01*
X306000Y244000D02*
X307500Y242500D01*
X306000Y244000D02*
Y275500D01*
X314000Y261500D02*
Y275000D01*
Y261500D02*
X318500Y257000D01*
X294150Y278650D02*
X307305D01*
X294000Y278500D02*
X294150Y278650D01*
X307455Y278500D02*
X366500D01*
X307305Y278650D02*
X307455Y278500D01*
X304000Y296000D02*
X306000Y294000D01*
X304000Y296000D02*
Y308500D01*
X426250Y206250D02*
X434000Y198500D01*
X426250Y206250D02*
X426500Y206500D01*
X402500Y216955D02*
X416850Y231305D01*
Y268350D01*
X417500Y269000D01*
X423150Y238695D02*
Y267805D01*
X418805Y272150D02*
X423150Y267805D01*
X414850Y272150D02*
X418805D01*
X410000Y277000D02*
X414850Y272150D01*
X425150Y225150D02*
Y286850D01*
X419000Y219000D02*
X425150Y225150D01*
X415000Y297000D02*
X425150Y286850D01*
X423000Y238545D02*
X423150Y238695D01*
X423650Y215850D02*
X424000Y215500D01*
X417695Y215850D02*
X423650D01*
X415850Y217695D02*
X417695Y215850D01*
X415850Y217695D02*
Y220305D01*
X423000Y227455D01*
Y238545D01*
X410000Y297000D02*
X415000D01*
X313500Y305500D02*
X321000Y313000D01*
X313500Y286000D02*
Y305500D01*
X311500Y282500D02*
X366500D01*
X295500Y298500D02*
X311500Y282500D01*
X294000Y298500D02*
X295500D01*
X308500Y280500D02*
X368500D01*
X300500Y288500D02*
X308500Y280500D01*
X294000Y288500D02*
X300500D01*
X373000Y272000D02*
X399000D01*
X366500Y278500D02*
X373000Y272000D01*
X370000Y282000D02*
X399000D01*
X368500Y280500D02*
X370000Y282000D01*
X376000Y292000D02*
X398000D01*
X366500Y282500D02*
X376000Y292000D01*
X321000Y322000D02*
X330000Y331000D01*
Y352545D01*
X344100Y316600D02*
X350847Y323346D01*
X312100Y316600D02*
X344100D01*
X304000Y308500D02*
X312100Y316600D01*
X294000Y308500D02*
X304000D01*
X329850Y352695D02*
Y359004D01*
Y352695D02*
X330000Y352545D01*
X326000Y354000D02*
X326500D01*
X329850Y359004D02*
X330000Y359154D01*
X373000Y322000D02*
X405000D01*
X410000Y317000D01*
X371500Y323500D02*
X373000Y322000D01*
X390500Y342000D02*
X391000Y341500D01*
X390500Y342000D02*
Y347500D01*
X410000Y367000D01*
X357500Y338500D02*
Y349500D01*
X370000Y362000D01*
X351500Y324000D02*
Y331500D01*
X370000Y362000D02*
X386500D01*
X350847Y323346D02*
X351500Y324000D01*
X318500Y257000D02*
X380000D01*
X380500Y387500D02*
X381000Y387000D01*
X387000D01*
X391000Y383000D01*
Y366500D02*
Y383000D01*
X386500Y362000D02*
X391000Y366500D01*
X363347Y323500D02*
X371500D01*
X356500Y323346D02*
X356653Y323500D01*
X350847Y323346D02*
X356500D01*
X289500Y338500D02*
X294000D01*
X327347Y368500D02*
X330000Y365847D01*
X294000Y368500D02*
X327347D01*
X347500Y365846D02*
Y376000D01*
X335000Y388500D02*
X347500Y376000D01*
X294000Y388500D02*
X335000D01*
X399000Y282000D02*
X404000Y287000D01*
X380000Y387000D02*
X380500Y387500D01*
X399000Y272000D02*
X404000Y277000D01*
X410000D01*
X404000Y287000D02*
X410000D01*
X403000Y297000D02*
X410000D01*
X398000Y292000D02*
X403000Y297000D01*
D15*
X360500Y218500D02*
X368550Y210450D01*
X400950D01*
X401000Y210500D01*
X401050Y210550D02*
X409970D01*
X401000Y210500D02*
X401050Y210550D01*
X410020Y210500D02*
X467000D01*
X409970Y210550D02*
X410020Y210500D01*
X471500Y277000D02*
X473000Y278500D01*
X471500Y215000D02*
Y277000D01*
X467000Y210500D02*
X471500Y215000D01*
X404000Y198500D02*
Y207500D01*
X401000Y210500D02*
X404000Y207500D01*
X294000Y218500D02*
X360500D01*
X416000Y307000D02*
X420000Y311000D01*
X410000Y307000D02*
X416000D01*
X420000Y311000D02*
X425654D01*
X465500Y286000D02*
X473000Y278500D01*
X432346Y318000D02*
X438500D01*
X465500Y286000D02*
Y324500D01*
X473000Y278500D02*
X484000D01*
X425654Y311000D02*
Y323154D01*
X473000Y338500D02*
X484000D01*
X465500Y331000D02*
X473000Y338500D01*
X465500Y324500D02*
Y331000D01*
X427000Y324500D02*
X465500D01*
X425654Y323154D02*
X427000Y324500D01*
X424653Y317000D02*
X425654Y318000D01*
X410000Y317000D02*
X424653D01*
X432347Y311000D02*
X438500D01*
X450347Y332500D02*
X456500D01*
X443500Y332654D02*
Y341500D01*
Y332654D02*
X443654Y332500D01*
X443500Y341500D02*
X470500Y368500D01*
X433000Y332500D02*
Y357000D01*
X470500Y368500D02*
X484000D01*
X433000Y357000D02*
X464500Y388500D01*
X425126Y332500D02*
Y362626D01*
X464500Y388500D02*
X484000D01*
X443653Y332500D02*
X443654Y332500D01*
X433000Y332500D02*
X443653D01*
X461000Y398500D02*
X484000D01*
X425126Y362626D02*
X461000Y398500D01*
X424626Y333000D02*
X425126Y332500D01*
X422500Y333000D02*
X424626D01*
X421453Y331953D02*
X422500Y333000D01*
X395953Y331953D02*
X421453D01*
X391000Y327000D02*
X395953Y331953D01*
X380000Y327000D02*
X391000D01*
D16*
X428500Y229500D02*
Y289500D01*
X431000Y237500D02*
Y289263D01*
X416847Y301153D02*
X428500Y289500D01*
X417510Y302753D02*
X431000Y289263D01*
X464500Y218000D02*
X465000D01*
X464500Y218500D02*
X465000Y218000D01*
X439500Y218500D02*
X464500D01*
X440000Y228500D02*
X465000D01*
X443500Y238500D02*
X465000D01*
X399019Y301153D02*
X416847D01*
X401247Y302753D02*
X417510D01*
X389500Y306500D02*
Y317500D01*
Y306500D02*
X395000Y301000D01*
X399000Y305000D02*
X401247Y302753D01*
X394500Y305672D02*
X399019Y301153D01*
X394500Y305672D02*
Y317000D01*
X399000Y305000D02*
Y316500D01*
X423500Y302000D02*
X434500Y291000D01*
Y247500D02*
Y291000D01*
Y247500D02*
X443500Y238500D01*
X431000Y237500D02*
X440000Y228500D01*
X428500Y229500D02*
X439500Y218500D01*
D17*
X294000Y318500D02*
X329000D01*
X346597Y336097D01*
X351000Y354000D02*
X352500D01*
X347500Y342925D02*
Y359154D01*
Y342925D02*
X356750Y333675D01*
X352500Y354000D02*
X365500Y367000D01*
X380000D01*
X333000Y354000D02*
X344000D01*
X324000D02*
X326000D01*
X308500Y338500D02*
X324000Y354000D01*
X294000Y338500D02*
X308500D01*
X323500Y362500D02*
X353000D01*
X309500Y348500D02*
X323500Y362500D01*
X353000D02*
X367500Y377000D01*
X483500Y229000D02*
X484000Y228500D01*
X361500Y332000D02*
X385500D01*
X395000Y344500D02*
X407500Y357000D01*
X410000D01*
X399000Y341500D02*
X399500Y341000D01*
X405500Y347000D01*
X410000D01*
X360000Y314500D02*
Y329596D01*
X357346Y332250D02*
X360000Y329596D01*
X357250Y332250D02*
X357346D01*
X356750Y332750D02*
X357250Y332250D01*
X356750Y332750D02*
Y333675D01*
X354596Y329904D02*
X355500Y329000D01*
X354596Y329904D02*
Y330000D01*
X355500Y329000D02*
X356000D01*
X354750Y330154D02*
Y332846D01*
X351500Y336097D02*
X354750Y332846D01*
X346597Y336097D02*
X351500D01*
X354596Y330000D02*
X354750Y330154D01*
X360000Y333500D02*
Y334500D01*
Y333500D02*
X361500Y332000D01*
X385500D02*
X390500Y337000D01*
X410000D01*
X367500Y377000D02*
X380000D01*
X367500Y307000D02*
X380000D01*
X360000Y314500D02*
X367500Y307000D01*
X294000Y348500D02*
X309500D01*
D18*
X410000Y257000D02*
D03*
Y267000D02*
D03*
Y277000D02*
D03*
Y287000D02*
D03*
Y297000D02*
D03*
Y307000D02*
D03*
Y317000D02*
D03*
Y327000D02*
D03*
Y337000D02*
D03*
Y347000D02*
D03*
Y357000D02*
D03*
Y367000D02*
D03*
Y377000D02*
D03*
Y387000D02*
D03*
X380000Y257000D02*
D03*
Y267000D02*
D03*
Y277000D02*
D03*
Y287000D02*
D03*
Y297000D02*
D03*
Y307000D02*
D03*
Y317000D02*
D03*
Y327000D02*
D03*
Y337000D02*
D03*
Y347000D02*
D03*
Y357000D02*
D03*
Y367000D02*
D03*
Y377000D02*
D03*
D19*
Y387000D02*
D03*
D20*
X384000Y228500D02*
D03*
X314000Y428500D02*
D03*
X464000D02*
D03*
D21*
X484000Y218500D02*
D03*
Y228500D02*
D03*
Y238500D02*
D03*
Y248500D02*
D03*
Y258500D02*
D03*
Y268500D02*
D03*
Y278500D02*
D03*
Y288500D02*
D03*
Y298500D02*
D03*
Y308500D02*
D03*
Y318500D02*
D03*
Y328500D02*
D03*
Y338500D02*
D03*
Y348500D02*
D03*
Y358500D02*
D03*
Y368500D02*
D03*
Y378500D02*
D03*
Y388500D02*
D03*
Y398500D02*
D03*
X294000Y218500D02*
D03*
Y228500D02*
D03*
Y238500D02*
D03*
Y248500D02*
D03*
Y258500D02*
D03*
Y268500D02*
D03*
Y278500D02*
D03*
Y288500D02*
D03*
Y298500D02*
D03*
Y308500D02*
D03*
Y318500D02*
D03*
Y328500D02*
D03*
Y338500D02*
D03*
Y348500D02*
D03*
Y358500D02*
D03*
Y368500D02*
D03*
Y378500D02*
D03*
Y388500D02*
D03*
Y398500D02*
D03*
D22*
X484000Y408500D02*
D03*
X294000D02*
D03*
D23*
X484000Y198500D02*
D03*
X474000D02*
D03*
X464000D02*
D03*
X454000D02*
D03*
X444000D02*
D03*
X434000D02*
D03*
X424000D02*
D03*
X414000D02*
D03*
X404000D02*
D03*
X394000D02*
D03*
X384000D02*
D03*
X374000D02*
D03*
X364000D02*
D03*
X354000D02*
D03*
X344000D02*
D03*
X334000D02*
D03*
X324000D02*
D03*
X314000D02*
D03*
X304000D02*
D03*
D24*
X294000D02*
D03*
D25*
X470000Y380000D02*
D03*
X460000Y320000D02*
D03*
X470000Y300000D02*
D03*
X460000Y280000D02*
D03*
X440000Y440000D02*
D03*
X450000Y420000D02*
D03*
X440000Y400000D02*
D03*
X450000Y380000D02*
D03*
Y340000D02*
D03*
Y300000D02*
D03*
X440000Y280000D02*
D03*
X450000Y260000D02*
D03*
X420000Y440000D02*
D03*
X430000Y420000D02*
D03*
X420000Y400000D02*
D03*
X430000Y380000D02*
D03*
X420000Y360000D02*
D03*
X430000Y300000D02*
D03*
Y220000D02*
D03*
X400000Y440000D02*
D03*
X410000Y420000D02*
D03*
X400000Y400000D02*
D03*
X380000Y440000D02*
D03*
X390000Y420000D02*
D03*
X380000Y400000D02*
D03*
X390000Y300000D02*
D03*
Y260000D02*
D03*
X360000Y440000D02*
D03*
X370000Y420000D02*
D03*
X360000Y400000D02*
D03*
X370000Y340000D02*
D03*
Y300000D02*
D03*
Y220000D02*
D03*
X340000Y440000D02*
D03*
X350000Y420000D02*
D03*
X340000Y400000D02*
D03*
X350000Y380000D02*
D03*
Y300000D02*
D03*
X330000Y420000D02*
D03*
X320000Y400000D02*
D03*
X330000Y380000D02*
D03*
Y300000D02*
D03*
X300000Y440000D02*
D03*
X310000Y380000D02*
D03*
Y260000D02*
D03*
X360000Y270000D02*
D03*
X320000D02*
D03*
X310000D02*
D03*
X420000Y260000D02*
D03*
X460000Y340000D02*
D03*
X470000Y350000D02*
D03*
X450000Y360000D02*
D03*
X330000Y440000D02*
D03*
X450000D02*
D03*
X480000D02*
D03*
X320000Y340000D02*
D03*
X480000Y210000D02*
D03*
X360000D02*
D03*
X340000D02*
D03*
X310000D02*
D03*
Y330000D02*
D03*
D26*
X410000Y206500D02*
D03*
X402000Y222000D02*
D03*
X402500Y216000D02*
D03*
X306000Y275500D02*
D03*
Y294000D02*
D03*
X417500Y269000D02*
D03*
X424000Y215500D02*
D03*
X419000Y219000D02*
D03*
X321000Y313000D02*
D03*
X313500Y286000D02*
D03*
X314000Y275000D02*
D03*
X321000Y322000D02*
D03*
X351000Y354000D02*
D03*
X344000D02*
D03*
X326500D02*
D03*
X333000D02*
D03*
X465000Y218000D02*
D03*
Y228500D02*
D03*
Y238500D02*
D03*
X389500Y317500D02*
D03*
X399000Y316500D02*
D03*
X395000Y301000D02*
D03*
X423500Y302000D02*
D03*
X394500Y317000D02*
D03*
X391000Y341500D02*
D03*
X395000Y344500D02*
D03*
X399000Y341500D02*
D03*
X357500Y338500D02*
D03*
X351500Y331500D02*
D03*
X360000Y334500D02*
D03*
X356000Y329000D02*
D03*
X438500Y318000D02*
D03*
Y311000D02*
D03*
X456500Y332500D02*
D03*
D27*
X384000Y237161D02*
D03*
X377875Y234625D02*
D03*
X375339Y228500D02*
D03*
X377875Y222375D02*
D03*
X384000Y219839D02*
D03*
X390125Y222375D02*
D03*
X392661Y228500D02*
D03*
X390125Y234625D02*
D03*
X314000Y437161D02*
D03*
X307875Y434624D02*
D03*
X305339Y428500D02*
D03*
X307875Y422375D02*
D03*
X314000Y419839D02*
D03*
X320125Y422375D02*
D03*
X322661Y428500D02*
D03*
X320125Y434624D02*
D03*
X464000Y437161D02*
D03*
X457875Y434624D02*
D03*
X455339Y428500D02*
D03*
X457875Y422375D02*
D03*
X464000Y419839D02*
D03*
X470124Y422375D02*
D03*
X472661Y428500D02*
D03*
X470124Y434624D02*
D03*
M02*
