%
M48
M72
T01C0.01200
T02C0.02000
T03C0.02500
T04C0.03200
T05C0.04000
T06C0.04331
T07C0.05000
T08C0.11024
%
T01
X52400Y45133
X86400Y48133
X116400Y48133
X149400Y45133
X164400Y53133
X168900Y52733
X184400Y52133
X189400Y53033
X194900Y53133
X199400Y51133
X204400Y52033
X201500Y56133
X202000Y66033
X201000Y71633
X202400Y76133
X189500Y68133
X174800Y62533
X164400Y72133
X149400Y73133
X153100Y79933
X153400Y86133
X149400Y95133
X137400Y95133
X115400Y88133
X105600Y89933
X94800Y83033
X92900Y95633
X99000Y106533
X101800Y108933
X97800Y111333
X94200Y106733
X78900Y114133
X84400Y116133
X89200Y115933
X76400Y125533
X73000Y126933
X69600Y128833
X65900Y129133
X63200Y131433
X59200Y126833
X38400Y124333
X56300Y138133
X68400Y139733
X73000Y139633
X72100Y144433
X74000Y147733
X68559Y146174
X55100Y148133
X55200Y152433
X55650Y157883
X72100Y155733
X75700Y155133
X85000Y149233
X93000Y150233
X96900Y151033
X100300Y151133
X106200Y145133
X111800Y145233
X110900Y150633
X114900Y150733
X117000Y147633
X127900Y148433
X136275Y153383
X140025Y149008
X147800Y146933
X146525Y141633
X140900Y142883
X153100Y145233
X158050Y139258
X160900Y136508
X173150Y141633
X178100Y141833
X183025Y140758
X191400Y141333
X204775Y140633
X210200Y142133
X224400Y140633
X228200Y139733
X233800Y140133
X238150Y141508
X241300Y151833
X244775Y151358
X257900Y151933
X265700Y151033
X269800Y152333
X266200Y161233
X266300Y171133
X282100Y160133
X288500Y160233
X293200Y156733
X318400Y151133
X321400Y156733
X333400Y151133
X373400Y145133
X385400Y145133
X410400Y132133
X418900Y126633
X425900Y137633
X433400Y137333
X437400Y138533
X441600Y137933
X450600Y136933
X453400Y140533
X453000Y144933
X455400Y148933
X429400Y162133
X417400Y174633
X395000Y173033
X395900Y186633
X429400Y196133
X449400Y201133
X429400Y208133
X449400Y216133
X471800Y192433
X458900Y181233
X463400Y175633
X395400Y227733
X398900Y235633
X396400Y251633
X394400Y260133
X394400Y269133
X373400Y269133
X373400Y260133
X347400Y269133
X322400Y269133
X289400Y272133
X218600Y241033
X213200Y241233
X207700Y241233
X202700Y241333
X194800Y237633
X197600Y231533
X200000Y228033
X194300Y228333
X188300Y228033
X175600Y234233
X149900Y238733
X109700Y239633
X90400Y249533
X87400Y252533
X84800Y249533
X63500Y260133
X69500Y262933
X69500Y272933
X55400Y272133
X37400Y272133
X36400Y223133
X54400Y222133
X66400Y218533
X73300Y213333
X84300Y210533
X71600Y202333
X74800Y200133
X81000Y199933
X90525Y199883
X99200Y200433
X102800Y210533
X113900Y213133
X136050Y202383
X141600Y205733
X148200Y206933
X153700Y202833
X158200Y200533
X155900Y197433
X158600Y193333
X156200Y190533
X158400Y187733
X155900Y185033
X142625Y182633
X145500Y176233
X157700Y178333
X170300Y178933
X171000Y183933
X170800Y188333
X170300Y192333
X171100Y195933
X170200Y199733
X170200Y203333
X171400Y206533
X170200Y210533
X181900Y215333
X184100Y212233
X187000Y215133
X194700Y215633
X199500Y214933
X207500Y210333
X210300Y212833
X212600Y215633
X216650Y215633
X225400Y214133
X230800Y213933
X223400Y209333
X224600Y202933
X239800Y205933
X245025Y202508
X244200Y197933
X244500Y185633
X235400Y185133
X226200Y180133
X219700Y186933
X203800Y196933
X191400Y189133
X191000Y180533
X191000Y175333
X198600Y177333
X206200Y170933
X206600Y166533
X209800Y162933
X201400Y162933
X201400Y166333
X201400Y158533
X196800Y153633
X184400Y155133
X189400Y160133
X189800Y170133
X171800Y164333
X170600Y168133
X171700Y158033
X145650Y155508
X145600Y163233
X116825Y161933
X115000Y158733
X109100Y162533
X112900Y166133
X98700Y164833
X97100Y158933
X100500Y158933
X92200Y157133
X75400Y162933
X72000Y161833
X72700Y167333
X68600Y168033
X72500Y174133
X69400Y176733
X72500Y179433
X68600Y181933
X68550Y185583
X76500Y187733
X80400Y185533
X83800Y181733
X83400Y177733
X87300Y179233
X91000Y178033
X104525Y188383
X109150Y188383
X113650Y187533
X126025Y191258
X117025Y181758
X149775Y198258
X145900Y214533
X139300Y213433
X153400Y215133
X207400Y228508
X213800Y227633
X232100Y232833
X248800Y230033
X259200Y229633
X262400Y232733
X276400Y239133
X292400Y239133
X260900Y219633
X255800Y217333
X266700Y209333
X271300Y202333
X265900Y185533
X273800Y179333
X244400Y168133
X243900Y173758
X235400Y172133
X230300Y167433
X237775Y163133
X241400Y161333
X237650Y158758
X233100Y158433
X248700Y129933
X240200Y124933
X232200Y126133
X227400Y128533
X228000Y120233
X232600Y120533
X237400Y110533
X235200Y106233
X226400Y103133
X213400Y103133
X208775Y104883
X203900Y105008
X197400Y104133
X189400Y114133
X186525Y119258
X197900Y128033
X202600Y128133
X209800Y128133
X217400Y116933
X247800Y103133
X265400Y103033
X271800Y108633
X278800Y99433
X273900Y97533
X267500Y97833
X261200Y93633
X255100Y93533
X248600Y92933
X248400Y88133
X237100Y90433
X232900Y90133
X234700Y85733
X230300Y85833
X234000Y78933
X230900Y76133
X231000Y66333
X237300Y66133
X243800Y66133
X250200Y66533
X271600Y63533
X279350Y57683
X271400Y55733
X268400Y51133
X262400Y51133
X273300Y46833
X276400Y50133
X287400Y46433
X295400Y55133
X309400Y46633
X315400Y45133
X321400Y45133
X321400Y49133
X327400Y49133
X327400Y45133
X332400Y45133
X332400Y49133
X299400Y45133
X259400Y44133
X242400Y44133
X227400Y44133
X214400Y44133
X149400Y59133
X182000Y73033
X186000Y72633
X177900Y76833
X175100Y82433
X175300Y88233
X168300Y95833
X168400Y103733
X158800Y105233
X151300Y105133
X146400Y108633
X137500Y110533
X134100Y110533
X129000Y110533
X125600Y110533
X120600Y109733
X121400Y117133
X116000Y120933
X114600Y116933
X106400Y116633
X120400Y124133
X127000Y128533
X130900Y123333
X129000Y120333
X128600Y116933
X141900Y119633
X154400Y123133
X161800Y122933
X168200Y122933
X163800Y114533
X167600Y110633
X192400Y93133
X199900Y93033
X212600Y93033
X220300Y93033
X246900Y83433
X251500Y81633
X256000Y80333
X259800Y81733
X269400Y85133
X276400Y82133
X280200Y80133
X284100Y82033
X288500Y83333
X293400Y83133
X310400Y80133
X316400Y82133
X310400Y75133
X319400Y94133
X329400Y94133
X319400Y102133
X285900Y99633
X271500Y124433
X385400Y95133
X399400Y95133
X433900Y99633
X438500Y104233
X470200Y104233
X489000Y90933
X489100Y81733
X488400Y72133
X455900Y62433
X447700Y62833
X440200Y62733
X431000Y71733
X434200Y76133
X433400Y80933
X388400Y55133
X424400Y44133
X444400Y44133
X465400Y44133
X488400Y44133
X458600Y124933
X452200Y124933
X485400Y236133
X485400Y252133
X485400Y268133
X166400Y266133
X166400Y271133
X46400Y192133
X45600Y184133
X45400Y177933
X45500Y172833
X40000Y172733
X57700Y174833
X80600Y140133
X86650Y139758
X90800Y140233
X97400Y139733
X100825Y139658
X103775Y139633
X109050Y139733
X112150Y139758
X117700Y139733
X126825Y137683
X139775Y136633
X109400Y128533
X70200Y116933
X61400Y105133
X38400Y105133
X39400Y80133
X39400Y62133
T02
X160100Y88933
X241600Y89133
X260900Y99433
X254900Y136533
X337900Y141133
X346400Y141133
X367100Y140433
X378900Y132933
X425900Y148633
X430400Y151633
X442900Y146133
X452900Y156633
X442400Y167133
X435400Y165133
X469400Y155633
X468900Y136133
X483900Y112133
X484400Y98133
X472900Y89633
X377900Y83133
X367200Y90233
X367300Y98033
X377700Y105233
X346400Y97133
X339400Y97133
X339400Y91133
X346400Y91133
X377900Y55133
X367500Y47333
X344900Y47133
X338900Y47133
X92900Y165733
X77700Y166833
X56900Y192533
X84900Y205033
X51000Y217333
X36600Y209333
X72600Y223733
X72600Y227733
X76600Y223333
X83800Y222933
X88900Y223033
X96200Y223333
X100200Y223333
X100200Y227333
X87300Y233533
X87400Y237633
X87400Y241733
X87400Y246133
X112200Y246933
X125900Y246633
X128900Y250633
X131900Y246633
X135400Y250633
X137900Y246633
X150400Y248633
X154400Y248633
X160900Y258633
X188900Y259133
X190000Y252533
X189900Y244633
X208900Y248133
X242800Y246333
X167800Y228833
X162400Y228833
X155900Y238633
X139600Y225233
X147100Y221533
X126200Y234533
X105400Y258133
X90200Y258933
X85000Y258933
X83800Y271733
X90200Y271733
X96600Y271733
X102400Y272633
X110300Y272833
X117800Y272833
X65400Y248133
X63400Y244533
X59800Y239333
X63000Y232933
X235250Y201883
X467900Y222133
X476900Y216133
X487900Y220633
X480900Y179633
T03
X475483Y158681
X475483Y139586
X356400Y140283
X356400Y135183
X356400Y130083
X356400Y124983
X356400Y119883
X356400Y114783
X356400Y109683
X356400Y104583
X356400Y99483
X356400Y94383
X356400Y89283
X356400Y84183
X356400Y79083
X356400Y73983
X356400Y68883
X356400Y63783
X356400Y58683
X356400Y53583
X356400Y48483
X356400Y145383
X356400Y150483
X356400Y155583
X356400Y160683
X356400Y165783
X356400Y170883
X356400Y175983
X356400Y181083
X356400Y186183
X356400Y191283
X356400Y196383
X356400Y201483
X356400Y206583
X356400Y211683
X356400Y216783
X356400Y221883
X356400Y226983
X356400Y232083
X356400Y237183
X356400Y242283
X356400Y247383
X356400Y252483
X356400Y257583
X356400Y262683
X356400Y267783
X152197Y255716
X133103Y255716
T04
X439400Y201633
X458400Y201633
T05
X403900Y201633
X403900Y191633
X383900Y191633
X373900Y191633
X373900Y201633
X383900Y201633
X383900Y211633
X373900Y211633
X373900Y221633
X383900Y221633
X383900Y231633
X373900Y231633
X373900Y241633
X383900Y241633
X383900Y251633
X373900Y251633
X338900Y251633
X328900Y251633
X328900Y241633
X338900Y241633
X338900Y231633
X328900Y231633
X328900Y221633
X338900Y221633
X338900Y211633
X328900Y211633
X308900Y206633
X308900Y216633
X288900Y212883
X288900Y202883
X278900Y202883
X278900Y212883
X278900Y222883
X288900Y222883
X308900Y226633
X308900Y236633
X282650Y256633
X272650Y256633
X262650Y256633
X252650Y256633
X242650Y256633
X232650Y256633
X232650Y266633
X222650Y266633
X212650Y266633
X202650Y266633
X192650Y266633
X242650Y266633
X252650Y266633
X262650Y266633
X272650Y266633
X282650Y266633
X256900Y236633
X328900Y201633
X338900Y201633
X338900Y191633
X328900Y191633
X308900Y186633
X308900Y196633
X288900Y192883
X278900Y192883
X308900Y176633
X328900Y171633
X338900Y171633
X338900Y181633
X328900Y181633
X308900Y166633
X308900Y156633
X328900Y161633
X338900Y161633
X308900Y146633
X295250Y146433
X285250Y146433
X275250Y146433
X295150Y131633
X295150Y121633
X295150Y111633
X330150Y109133
X330150Y119133
X330150Y129133
X398100Y120033
X408100Y120033
X455150Y94133
X455150Y84133
X408700Y69783
X398700Y69783
X399900Y52333
X409900Y52333
X419900Y52333
X429900Y52333
X439900Y52333
X449900Y52333
X459900Y52333
X469900Y52333
X479900Y52333
X330150Y60383
X330150Y70383
X330150Y80383
X373900Y161633
X383900Y161633
X383900Y171633
X373900Y171633
X373900Y181633
X383900Y181633
X403900Y181633
X403900Y211633
X130150Y96983
X120150Y96983
X110150Y96983
X100150Y96983
X86400Y89133
X76400Y89133
X76400Y105383
X86400Y105383
X81400Y64133
X71400Y64133
X61400Y64133
X61400Y54133
X71400Y54133
X81400Y54133
X91400Y54133
X101400Y54133
X111400Y54133
X121400Y54133
X131400Y54133
X141400Y54133
X141400Y64133
X131400Y64133
X121400Y64133
X111400Y64133
X101400Y64133
X91400Y64133
X51400Y64133
X51400Y54133
X64550Y267983
X74550Y267983
T06
X413900Y264133
X423900Y264133
X433900Y264133
X443900Y264133
X453900Y264133
X463900Y264133
X473900Y264133
X473900Y254133
X463900Y254133
X453900Y254133
X453900Y244133
X463900Y244133
X473900Y244133
X473900Y234133
X463900Y234133
X453900Y234133
X443900Y234133
X433900Y234133
X423900Y234133
X413900Y234133
X413900Y244133
X423900Y244133
X433900Y244133
X443900Y244133
X443900Y254133
X433900Y254133
X423900Y254133
X413900Y254133
X476400Y209133
X476400Y199133
X427500Y120033
X421400Y104133
X421400Y94133
X421400Y84133
T07
X486900Y135354
X486900Y162913
X156430Y267133
X128870Y267133
T08
X51400Y254133
X301400Y254133
X301400Y94133
X51400Y94133
M30
