G75*
%MOIN*%
%OFA0B0*%
%FSLAX25Y25*%
%IPPOS*%
%LPD*%
%AMOC8*
5,1,8,0,0,1.08239X$1,22.5*
%
%ADD10C,0.00000*%
%ADD11R,0.03937X0.04331*%
%ADD12R,0.02756X0.03543*%
%ADD13R,0.03543X0.02756*%
%ADD14R,0.04331X0.03937*%
%ADD15R,0.05118X0.05906*%
%ADD16R,0.05906X0.05118*%
%ADD17R,0.03100X0.03500*%
%ADD18R,0.03500X0.03100*%
%ADD19R,0.02500X0.05000*%
%ADD20R,0.09600X0.09000*%
D10*
X0032581Y0039566D02*
X0032581Y0275733D01*
X0352900Y0275733D01*
X0352963Y0275728D01*
X0353026Y0275719D01*
X0353088Y0275707D01*
X0353150Y0275690D01*
X0353210Y0275670D01*
X0353269Y0275647D01*
X0353326Y0275620D01*
X0353382Y0275589D01*
X0353436Y0275556D01*
X0353488Y0275519D01*
X0353537Y0275479D01*
X0353584Y0275436D01*
X0353628Y0275390D01*
X0353669Y0275342D01*
X0353707Y0275291D01*
X0353742Y0275238D01*
X0353774Y0275183D01*
X0353803Y0275127D01*
X0353828Y0275068D01*
X0353849Y0275009D01*
X0353867Y0274948D01*
X0353881Y0274886D01*
X0353892Y0274823D01*
X0353898Y0274760D01*
X0353901Y0274696D01*
X0353900Y0274633D01*
X0353900Y0272633D01*
X0353902Y0272573D01*
X0353907Y0272512D01*
X0353916Y0272453D01*
X0353929Y0272394D01*
X0353945Y0272335D01*
X0353965Y0272278D01*
X0353988Y0272223D01*
X0354015Y0272168D01*
X0354044Y0272116D01*
X0354077Y0272065D01*
X0354113Y0272016D01*
X0354151Y0271970D01*
X0354193Y0271926D01*
X0354237Y0271884D01*
X0354283Y0271846D01*
X0354332Y0271810D01*
X0354383Y0271777D01*
X0354435Y0271748D01*
X0354490Y0271721D01*
X0354545Y0271698D01*
X0354602Y0271678D01*
X0354661Y0271662D01*
X0354720Y0271649D01*
X0354779Y0271640D01*
X0354840Y0271635D01*
X0354900Y0271633D01*
X0357900Y0271633D01*
X0357960Y0271635D01*
X0358021Y0271640D01*
X0358080Y0271649D01*
X0358139Y0271662D01*
X0358198Y0271678D01*
X0358255Y0271698D01*
X0358310Y0271721D01*
X0358365Y0271748D01*
X0358417Y0271777D01*
X0358468Y0271810D01*
X0358517Y0271846D01*
X0358563Y0271884D01*
X0358607Y0271926D01*
X0358649Y0271970D01*
X0358687Y0272016D01*
X0358723Y0272065D01*
X0358756Y0272116D01*
X0358785Y0272168D01*
X0358812Y0272223D01*
X0358835Y0272278D01*
X0358855Y0272335D01*
X0358871Y0272394D01*
X0358884Y0272453D01*
X0358893Y0272512D01*
X0358898Y0272573D01*
X0358900Y0272633D01*
X0358900Y0274633D01*
X0358900Y0274634D02*
X0358904Y0274699D01*
X0358911Y0274764D01*
X0358922Y0274829D01*
X0358937Y0274893D01*
X0358955Y0274956D01*
X0358977Y0275018D01*
X0359003Y0275078D01*
X0359032Y0275137D01*
X0359065Y0275194D01*
X0359100Y0275248D01*
X0359139Y0275301D01*
X0359181Y0275352D01*
X0359226Y0275400D01*
X0359273Y0275445D01*
X0359323Y0275487D01*
X0359376Y0275527D01*
X0359430Y0275563D01*
X0359487Y0275596D01*
X0359545Y0275626D01*
X0359605Y0275652D01*
X0359667Y0275675D01*
X0359730Y0275694D01*
X0359793Y0275709D01*
X0359858Y0275721D01*
X0359923Y0275729D01*
X0359988Y0275733D01*
X0360054Y0275734D01*
X0360054Y0275733D02*
X0493211Y0275733D01*
X0493211Y0039566D01*
X0359967Y0039566D01*
X0359967Y0039567D02*
X0359899Y0039581D01*
X0359831Y0039600D01*
X0359764Y0039622D01*
X0359699Y0039647D01*
X0359635Y0039676D01*
X0359572Y0039708D01*
X0359512Y0039744D01*
X0359453Y0039782D01*
X0359397Y0039823D01*
X0359342Y0039868D01*
X0359290Y0039915D01*
X0359241Y0039965D01*
X0359194Y0040017D01*
X0359150Y0040072D01*
X0359109Y0040129D01*
X0359071Y0040188D01*
X0359037Y0040249D01*
X0359005Y0040311D01*
X0358977Y0040376D01*
X0358952Y0040441D01*
X0358931Y0040508D01*
X0358913Y0040576D01*
X0358898Y0040645D01*
X0358888Y0040714D01*
X0358881Y0040784D01*
X0358877Y0040854D01*
X0358878Y0040924D01*
X0358882Y0040994D01*
X0358889Y0041064D01*
X0358901Y0041133D01*
X0358900Y0041133D02*
X0358900Y0044633D01*
X0358885Y0044700D01*
X0358866Y0044767D01*
X0358843Y0044832D01*
X0358817Y0044896D01*
X0358788Y0044958D01*
X0358755Y0045019D01*
X0358719Y0045078D01*
X0358680Y0045135D01*
X0358637Y0045190D01*
X0358592Y0045242D01*
X0358544Y0045292D01*
X0358494Y0045339D01*
X0358441Y0045383D01*
X0358386Y0045424D01*
X0358328Y0045463D01*
X0358269Y0045498D01*
X0358208Y0045530D01*
X0358145Y0045558D01*
X0358080Y0045583D01*
X0358015Y0045605D01*
X0357948Y0045623D01*
X0357880Y0045637D01*
X0357812Y0045648D01*
X0357744Y0045655D01*
X0357675Y0045658D01*
X0357606Y0045657D01*
X0357537Y0045653D01*
X0357468Y0045645D01*
X0357400Y0045633D01*
X0355400Y0045633D01*
X0355332Y0045645D01*
X0355263Y0045653D01*
X0355194Y0045657D01*
X0355125Y0045658D01*
X0355056Y0045655D01*
X0354988Y0045648D01*
X0354920Y0045637D01*
X0354852Y0045623D01*
X0354785Y0045605D01*
X0354720Y0045583D01*
X0354655Y0045558D01*
X0354592Y0045530D01*
X0354531Y0045498D01*
X0354472Y0045463D01*
X0354414Y0045424D01*
X0354359Y0045383D01*
X0354306Y0045339D01*
X0354256Y0045292D01*
X0354208Y0045242D01*
X0354163Y0045190D01*
X0354120Y0045135D01*
X0354081Y0045078D01*
X0354045Y0045019D01*
X0354012Y0044958D01*
X0353983Y0044896D01*
X0353957Y0044832D01*
X0353934Y0044767D01*
X0353915Y0044700D01*
X0353900Y0044633D01*
X0353900Y0041133D01*
X0353912Y0041065D01*
X0353920Y0040996D01*
X0353924Y0040927D01*
X0353925Y0040858D01*
X0353922Y0040789D01*
X0353915Y0040721D01*
X0353904Y0040653D01*
X0353890Y0040585D01*
X0353872Y0040518D01*
X0353850Y0040453D01*
X0353825Y0040388D01*
X0353797Y0040325D01*
X0353765Y0040264D01*
X0353730Y0040205D01*
X0353691Y0040147D01*
X0353650Y0040092D01*
X0353606Y0040039D01*
X0353559Y0039989D01*
X0353509Y0039941D01*
X0353457Y0039896D01*
X0353402Y0039853D01*
X0353345Y0039814D01*
X0353286Y0039778D01*
X0353225Y0039745D01*
X0353163Y0039716D01*
X0353099Y0039690D01*
X0353034Y0039667D01*
X0352967Y0039648D01*
X0352900Y0039633D01*
X0032581Y0039566D01*
X0355150Y0048483D02*
X0355152Y0048553D01*
X0355158Y0048623D01*
X0355168Y0048692D01*
X0355181Y0048761D01*
X0355199Y0048829D01*
X0355220Y0048896D01*
X0355245Y0048961D01*
X0355274Y0049025D01*
X0355306Y0049088D01*
X0355342Y0049148D01*
X0355381Y0049206D01*
X0355423Y0049262D01*
X0355468Y0049316D01*
X0355516Y0049367D01*
X0355567Y0049415D01*
X0355621Y0049460D01*
X0355677Y0049502D01*
X0355735Y0049541D01*
X0355795Y0049577D01*
X0355858Y0049609D01*
X0355922Y0049638D01*
X0355987Y0049663D01*
X0356054Y0049684D01*
X0356122Y0049702D01*
X0356191Y0049715D01*
X0356260Y0049725D01*
X0356330Y0049731D01*
X0356400Y0049733D01*
X0356470Y0049731D01*
X0356540Y0049725D01*
X0356609Y0049715D01*
X0356678Y0049702D01*
X0356746Y0049684D01*
X0356813Y0049663D01*
X0356878Y0049638D01*
X0356942Y0049609D01*
X0357005Y0049577D01*
X0357065Y0049541D01*
X0357123Y0049502D01*
X0357179Y0049460D01*
X0357233Y0049415D01*
X0357284Y0049367D01*
X0357332Y0049316D01*
X0357377Y0049262D01*
X0357419Y0049206D01*
X0357458Y0049148D01*
X0357494Y0049088D01*
X0357526Y0049025D01*
X0357555Y0048961D01*
X0357580Y0048896D01*
X0357601Y0048829D01*
X0357619Y0048761D01*
X0357632Y0048692D01*
X0357642Y0048623D01*
X0357648Y0048553D01*
X0357650Y0048483D01*
X0357648Y0048413D01*
X0357642Y0048343D01*
X0357632Y0048274D01*
X0357619Y0048205D01*
X0357601Y0048137D01*
X0357580Y0048070D01*
X0357555Y0048005D01*
X0357526Y0047941D01*
X0357494Y0047878D01*
X0357458Y0047818D01*
X0357419Y0047760D01*
X0357377Y0047704D01*
X0357332Y0047650D01*
X0357284Y0047599D01*
X0357233Y0047551D01*
X0357179Y0047506D01*
X0357123Y0047464D01*
X0357065Y0047425D01*
X0357005Y0047389D01*
X0356942Y0047357D01*
X0356878Y0047328D01*
X0356813Y0047303D01*
X0356746Y0047282D01*
X0356678Y0047264D01*
X0356609Y0047251D01*
X0356540Y0047241D01*
X0356470Y0047235D01*
X0356400Y0047233D01*
X0356330Y0047235D01*
X0356260Y0047241D01*
X0356191Y0047251D01*
X0356122Y0047264D01*
X0356054Y0047282D01*
X0355987Y0047303D01*
X0355922Y0047328D01*
X0355858Y0047357D01*
X0355795Y0047389D01*
X0355735Y0047425D01*
X0355677Y0047464D01*
X0355621Y0047506D01*
X0355567Y0047551D01*
X0355516Y0047599D01*
X0355468Y0047650D01*
X0355423Y0047704D01*
X0355381Y0047760D01*
X0355342Y0047818D01*
X0355306Y0047878D01*
X0355274Y0047941D01*
X0355245Y0048005D01*
X0355220Y0048070D01*
X0355199Y0048137D01*
X0355181Y0048205D01*
X0355168Y0048274D01*
X0355158Y0048343D01*
X0355152Y0048413D01*
X0355150Y0048483D01*
X0355150Y0053583D02*
X0355152Y0053653D01*
X0355158Y0053723D01*
X0355168Y0053792D01*
X0355181Y0053861D01*
X0355199Y0053929D01*
X0355220Y0053996D01*
X0355245Y0054061D01*
X0355274Y0054125D01*
X0355306Y0054188D01*
X0355342Y0054248D01*
X0355381Y0054306D01*
X0355423Y0054362D01*
X0355468Y0054416D01*
X0355516Y0054467D01*
X0355567Y0054515D01*
X0355621Y0054560D01*
X0355677Y0054602D01*
X0355735Y0054641D01*
X0355795Y0054677D01*
X0355858Y0054709D01*
X0355922Y0054738D01*
X0355987Y0054763D01*
X0356054Y0054784D01*
X0356122Y0054802D01*
X0356191Y0054815D01*
X0356260Y0054825D01*
X0356330Y0054831D01*
X0356400Y0054833D01*
X0356470Y0054831D01*
X0356540Y0054825D01*
X0356609Y0054815D01*
X0356678Y0054802D01*
X0356746Y0054784D01*
X0356813Y0054763D01*
X0356878Y0054738D01*
X0356942Y0054709D01*
X0357005Y0054677D01*
X0357065Y0054641D01*
X0357123Y0054602D01*
X0357179Y0054560D01*
X0357233Y0054515D01*
X0357284Y0054467D01*
X0357332Y0054416D01*
X0357377Y0054362D01*
X0357419Y0054306D01*
X0357458Y0054248D01*
X0357494Y0054188D01*
X0357526Y0054125D01*
X0357555Y0054061D01*
X0357580Y0053996D01*
X0357601Y0053929D01*
X0357619Y0053861D01*
X0357632Y0053792D01*
X0357642Y0053723D01*
X0357648Y0053653D01*
X0357650Y0053583D01*
X0357648Y0053513D01*
X0357642Y0053443D01*
X0357632Y0053374D01*
X0357619Y0053305D01*
X0357601Y0053237D01*
X0357580Y0053170D01*
X0357555Y0053105D01*
X0357526Y0053041D01*
X0357494Y0052978D01*
X0357458Y0052918D01*
X0357419Y0052860D01*
X0357377Y0052804D01*
X0357332Y0052750D01*
X0357284Y0052699D01*
X0357233Y0052651D01*
X0357179Y0052606D01*
X0357123Y0052564D01*
X0357065Y0052525D01*
X0357005Y0052489D01*
X0356942Y0052457D01*
X0356878Y0052428D01*
X0356813Y0052403D01*
X0356746Y0052382D01*
X0356678Y0052364D01*
X0356609Y0052351D01*
X0356540Y0052341D01*
X0356470Y0052335D01*
X0356400Y0052333D01*
X0356330Y0052335D01*
X0356260Y0052341D01*
X0356191Y0052351D01*
X0356122Y0052364D01*
X0356054Y0052382D01*
X0355987Y0052403D01*
X0355922Y0052428D01*
X0355858Y0052457D01*
X0355795Y0052489D01*
X0355735Y0052525D01*
X0355677Y0052564D01*
X0355621Y0052606D01*
X0355567Y0052651D01*
X0355516Y0052699D01*
X0355468Y0052750D01*
X0355423Y0052804D01*
X0355381Y0052860D01*
X0355342Y0052918D01*
X0355306Y0052978D01*
X0355274Y0053041D01*
X0355245Y0053105D01*
X0355220Y0053170D01*
X0355199Y0053237D01*
X0355181Y0053305D01*
X0355168Y0053374D01*
X0355158Y0053443D01*
X0355152Y0053513D01*
X0355150Y0053583D01*
X0355150Y0058683D02*
X0355152Y0058753D01*
X0355158Y0058823D01*
X0355168Y0058892D01*
X0355181Y0058961D01*
X0355199Y0059029D01*
X0355220Y0059096D01*
X0355245Y0059161D01*
X0355274Y0059225D01*
X0355306Y0059288D01*
X0355342Y0059348D01*
X0355381Y0059406D01*
X0355423Y0059462D01*
X0355468Y0059516D01*
X0355516Y0059567D01*
X0355567Y0059615D01*
X0355621Y0059660D01*
X0355677Y0059702D01*
X0355735Y0059741D01*
X0355795Y0059777D01*
X0355858Y0059809D01*
X0355922Y0059838D01*
X0355987Y0059863D01*
X0356054Y0059884D01*
X0356122Y0059902D01*
X0356191Y0059915D01*
X0356260Y0059925D01*
X0356330Y0059931D01*
X0356400Y0059933D01*
X0356470Y0059931D01*
X0356540Y0059925D01*
X0356609Y0059915D01*
X0356678Y0059902D01*
X0356746Y0059884D01*
X0356813Y0059863D01*
X0356878Y0059838D01*
X0356942Y0059809D01*
X0357005Y0059777D01*
X0357065Y0059741D01*
X0357123Y0059702D01*
X0357179Y0059660D01*
X0357233Y0059615D01*
X0357284Y0059567D01*
X0357332Y0059516D01*
X0357377Y0059462D01*
X0357419Y0059406D01*
X0357458Y0059348D01*
X0357494Y0059288D01*
X0357526Y0059225D01*
X0357555Y0059161D01*
X0357580Y0059096D01*
X0357601Y0059029D01*
X0357619Y0058961D01*
X0357632Y0058892D01*
X0357642Y0058823D01*
X0357648Y0058753D01*
X0357650Y0058683D01*
X0357648Y0058613D01*
X0357642Y0058543D01*
X0357632Y0058474D01*
X0357619Y0058405D01*
X0357601Y0058337D01*
X0357580Y0058270D01*
X0357555Y0058205D01*
X0357526Y0058141D01*
X0357494Y0058078D01*
X0357458Y0058018D01*
X0357419Y0057960D01*
X0357377Y0057904D01*
X0357332Y0057850D01*
X0357284Y0057799D01*
X0357233Y0057751D01*
X0357179Y0057706D01*
X0357123Y0057664D01*
X0357065Y0057625D01*
X0357005Y0057589D01*
X0356942Y0057557D01*
X0356878Y0057528D01*
X0356813Y0057503D01*
X0356746Y0057482D01*
X0356678Y0057464D01*
X0356609Y0057451D01*
X0356540Y0057441D01*
X0356470Y0057435D01*
X0356400Y0057433D01*
X0356330Y0057435D01*
X0356260Y0057441D01*
X0356191Y0057451D01*
X0356122Y0057464D01*
X0356054Y0057482D01*
X0355987Y0057503D01*
X0355922Y0057528D01*
X0355858Y0057557D01*
X0355795Y0057589D01*
X0355735Y0057625D01*
X0355677Y0057664D01*
X0355621Y0057706D01*
X0355567Y0057751D01*
X0355516Y0057799D01*
X0355468Y0057850D01*
X0355423Y0057904D01*
X0355381Y0057960D01*
X0355342Y0058018D01*
X0355306Y0058078D01*
X0355274Y0058141D01*
X0355245Y0058205D01*
X0355220Y0058270D01*
X0355199Y0058337D01*
X0355181Y0058405D01*
X0355168Y0058474D01*
X0355158Y0058543D01*
X0355152Y0058613D01*
X0355150Y0058683D01*
X0355150Y0063783D02*
X0355152Y0063853D01*
X0355158Y0063923D01*
X0355168Y0063992D01*
X0355181Y0064061D01*
X0355199Y0064129D01*
X0355220Y0064196D01*
X0355245Y0064261D01*
X0355274Y0064325D01*
X0355306Y0064388D01*
X0355342Y0064448D01*
X0355381Y0064506D01*
X0355423Y0064562D01*
X0355468Y0064616D01*
X0355516Y0064667D01*
X0355567Y0064715D01*
X0355621Y0064760D01*
X0355677Y0064802D01*
X0355735Y0064841D01*
X0355795Y0064877D01*
X0355858Y0064909D01*
X0355922Y0064938D01*
X0355987Y0064963D01*
X0356054Y0064984D01*
X0356122Y0065002D01*
X0356191Y0065015D01*
X0356260Y0065025D01*
X0356330Y0065031D01*
X0356400Y0065033D01*
X0356470Y0065031D01*
X0356540Y0065025D01*
X0356609Y0065015D01*
X0356678Y0065002D01*
X0356746Y0064984D01*
X0356813Y0064963D01*
X0356878Y0064938D01*
X0356942Y0064909D01*
X0357005Y0064877D01*
X0357065Y0064841D01*
X0357123Y0064802D01*
X0357179Y0064760D01*
X0357233Y0064715D01*
X0357284Y0064667D01*
X0357332Y0064616D01*
X0357377Y0064562D01*
X0357419Y0064506D01*
X0357458Y0064448D01*
X0357494Y0064388D01*
X0357526Y0064325D01*
X0357555Y0064261D01*
X0357580Y0064196D01*
X0357601Y0064129D01*
X0357619Y0064061D01*
X0357632Y0063992D01*
X0357642Y0063923D01*
X0357648Y0063853D01*
X0357650Y0063783D01*
X0357648Y0063713D01*
X0357642Y0063643D01*
X0357632Y0063574D01*
X0357619Y0063505D01*
X0357601Y0063437D01*
X0357580Y0063370D01*
X0357555Y0063305D01*
X0357526Y0063241D01*
X0357494Y0063178D01*
X0357458Y0063118D01*
X0357419Y0063060D01*
X0357377Y0063004D01*
X0357332Y0062950D01*
X0357284Y0062899D01*
X0357233Y0062851D01*
X0357179Y0062806D01*
X0357123Y0062764D01*
X0357065Y0062725D01*
X0357005Y0062689D01*
X0356942Y0062657D01*
X0356878Y0062628D01*
X0356813Y0062603D01*
X0356746Y0062582D01*
X0356678Y0062564D01*
X0356609Y0062551D01*
X0356540Y0062541D01*
X0356470Y0062535D01*
X0356400Y0062533D01*
X0356330Y0062535D01*
X0356260Y0062541D01*
X0356191Y0062551D01*
X0356122Y0062564D01*
X0356054Y0062582D01*
X0355987Y0062603D01*
X0355922Y0062628D01*
X0355858Y0062657D01*
X0355795Y0062689D01*
X0355735Y0062725D01*
X0355677Y0062764D01*
X0355621Y0062806D01*
X0355567Y0062851D01*
X0355516Y0062899D01*
X0355468Y0062950D01*
X0355423Y0063004D01*
X0355381Y0063060D01*
X0355342Y0063118D01*
X0355306Y0063178D01*
X0355274Y0063241D01*
X0355245Y0063305D01*
X0355220Y0063370D01*
X0355199Y0063437D01*
X0355181Y0063505D01*
X0355168Y0063574D01*
X0355158Y0063643D01*
X0355152Y0063713D01*
X0355150Y0063783D01*
X0355150Y0068883D02*
X0355152Y0068953D01*
X0355158Y0069023D01*
X0355168Y0069092D01*
X0355181Y0069161D01*
X0355199Y0069229D01*
X0355220Y0069296D01*
X0355245Y0069361D01*
X0355274Y0069425D01*
X0355306Y0069488D01*
X0355342Y0069548D01*
X0355381Y0069606D01*
X0355423Y0069662D01*
X0355468Y0069716D01*
X0355516Y0069767D01*
X0355567Y0069815D01*
X0355621Y0069860D01*
X0355677Y0069902D01*
X0355735Y0069941D01*
X0355795Y0069977D01*
X0355858Y0070009D01*
X0355922Y0070038D01*
X0355987Y0070063D01*
X0356054Y0070084D01*
X0356122Y0070102D01*
X0356191Y0070115D01*
X0356260Y0070125D01*
X0356330Y0070131D01*
X0356400Y0070133D01*
X0356470Y0070131D01*
X0356540Y0070125D01*
X0356609Y0070115D01*
X0356678Y0070102D01*
X0356746Y0070084D01*
X0356813Y0070063D01*
X0356878Y0070038D01*
X0356942Y0070009D01*
X0357005Y0069977D01*
X0357065Y0069941D01*
X0357123Y0069902D01*
X0357179Y0069860D01*
X0357233Y0069815D01*
X0357284Y0069767D01*
X0357332Y0069716D01*
X0357377Y0069662D01*
X0357419Y0069606D01*
X0357458Y0069548D01*
X0357494Y0069488D01*
X0357526Y0069425D01*
X0357555Y0069361D01*
X0357580Y0069296D01*
X0357601Y0069229D01*
X0357619Y0069161D01*
X0357632Y0069092D01*
X0357642Y0069023D01*
X0357648Y0068953D01*
X0357650Y0068883D01*
X0357648Y0068813D01*
X0357642Y0068743D01*
X0357632Y0068674D01*
X0357619Y0068605D01*
X0357601Y0068537D01*
X0357580Y0068470D01*
X0357555Y0068405D01*
X0357526Y0068341D01*
X0357494Y0068278D01*
X0357458Y0068218D01*
X0357419Y0068160D01*
X0357377Y0068104D01*
X0357332Y0068050D01*
X0357284Y0067999D01*
X0357233Y0067951D01*
X0357179Y0067906D01*
X0357123Y0067864D01*
X0357065Y0067825D01*
X0357005Y0067789D01*
X0356942Y0067757D01*
X0356878Y0067728D01*
X0356813Y0067703D01*
X0356746Y0067682D01*
X0356678Y0067664D01*
X0356609Y0067651D01*
X0356540Y0067641D01*
X0356470Y0067635D01*
X0356400Y0067633D01*
X0356330Y0067635D01*
X0356260Y0067641D01*
X0356191Y0067651D01*
X0356122Y0067664D01*
X0356054Y0067682D01*
X0355987Y0067703D01*
X0355922Y0067728D01*
X0355858Y0067757D01*
X0355795Y0067789D01*
X0355735Y0067825D01*
X0355677Y0067864D01*
X0355621Y0067906D01*
X0355567Y0067951D01*
X0355516Y0067999D01*
X0355468Y0068050D01*
X0355423Y0068104D01*
X0355381Y0068160D01*
X0355342Y0068218D01*
X0355306Y0068278D01*
X0355274Y0068341D01*
X0355245Y0068405D01*
X0355220Y0068470D01*
X0355199Y0068537D01*
X0355181Y0068605D01*
X0355168Y0068674D01*
X0355158Y0068743D01*
X0355152Y0068813D01*
X0355150Y0068883D01*
X0355150Y0073983D02*
X0355152Y0074053D01*
X0355158Y0074123D01*
X0355168Y0074192D01*
X0355181Y0074261D01*
X0355199Y0074329D01*
X0355220Y0074396D01*
X0355245Y0074461D01*
X0355274Y0074525D01*
X0355306Y0074588D01*
X0355342Y0074648D01*
X0355381Y0074706D01*
X0355423Y0074762D01*
X0355468Y0074816D01*
X0355516Y0074867D01*
X0355567Y0074915D01*
X0355621Y0074960D01*
X0355677Y0075002D01*
X0355735Y0075041D01*
X0355795Y0075077D01*
X0355858Y0075109D01*
X0355922Y0075138D01*
X0355987Y0075163D01*
X0356054Y0075184D01*
X0356122Y0075202D01*
X0356191Y0075215D01*
X0356260Y0075225D01*
X0356330Y0075231D01*
X0356400Y0075233D01*
X0356470Y0075231D01*
X0356540Y0075225D01*
X0356609Y0075215D01*
X0356678Y0075202D01*
X0356746Y0075184D01*
X0356813Y0075163D01*
X0356878Y0075138D01*
X0356942Y0075109D01*
X0357005Y0075077D01*
X0357065Y0075041D01*
X0357123Y0075002D01*
X0357179Y0074960D01*
X0357233Y0074915D01*
X0357284Y0074867D01*
X0357332Y0074816D01*
X0357377Y0074762D01*
X0357419Y0074706D01*
X0357458Y0074648D01*
X0357494Y0074588D01*
X0357526Y0074525D01*
X0357555Y0074461D01*
X0357580Y0074396D01*
X0357601Y0074329D01*
X0357619Y0074261D01*
X0357632Y0074192D01*
X0357642Y0074123D01*
X0357648Y0074053D01*
X0357650Y0073983D01*
X0357648Y0073913D01*
X0357642Y0073843D01*
X0357632Y0073774D01*
X0357619Y0073705D01*
X0357601Y0073637D01*
X0357580Y0073570D01*
X0357555Y0073505D01*
X0357526Y0073441D01*
X0357494Y0073378D01*
X0357458Y0073318D01*
X0357419Y0073260D01*
X0357377Y0073204D01*
X0357332Y0073150D01*
X0357284Y0073099D01*
X0357233Y0073051D01*
X0357179Y0073006D01*
X0357123Y0072964D01*
X0357065Y0072925D01*
X0357005Y0072889D01*
X0356942Y0072857D01*
X0356878Y0072828D01*
X0356813Y0072803D01*
X0356746Y0072782D01*
X0356678Y0072764D01*
X0356609Y0072751D01*
X0356540Y0072741D01*
X0356470Y0072735D01*
X0356400Y0072733D01*
X0356330Y0072735D01*
X0356260Y0072741D01*
X0356191Y0072751D01*
X0356122Y0072764D01*
X0356054Y0072782D01*
X0355987Y0072803D01*
X0355922Y0072828D01*
X0355858Y0072857D01*
X0355795Y0072889D01*
X0355735Y0072925D01*
X0355677Y0072964D01*
X0355621Y0073006D01*
X0355567Y0073051D01*
X0355516Y0073099D01*
X0355468Y0073150D01*
X0355423Y0073204D01*
X0355381Y0073260D01*
X0355342Y0073318D01*
X0355306Y0073378D01*
X0355274Y0073441D01*
X0355245Y0073505D01*
X0355220Y0073570D01*
X0355199Y0073637D01*
X0355181Y0073705D01*
X0355168Y0073774D01*
X0355158Y0073843D01*
X0355152Y0073913D01*
X0355150Y0073983D01*
X0355150Y0079083D02*
X0355152Y0079153D01*
X0355158Y0079223D01*
X0355168Y0079292D01*
X0355181Y0079361D01*
X0355199Y0079429D01*
X0355220Y0079496D01*
X0355245Y0079561D01*
X0355274Y0079625D01*
X0355306Y0079688D01*
X0355342Y0079748D01*
X0355381Y0079806D01*
X0355423Y0079862D01*
X0355468Y0079916D01*
X0355516Y0079967D01*
X0355567Y0080015D01*
X0355621Y0080060D01*
X0355677Y0080102D01*
X0355735Y0080141D01*
X0355795Y0080177D01*
X0355858Y0080209D01*
X0355922Y0080238D01*
X0355987Y0080263D01*
X0356054Y0080284D01*
X0356122Y0080302D01*
X0356191Y0080315D01*
X0356260Y0080325D01*
X0356330Y0080331D01*
X0356400Y0080333D01*
X0356470Y0080331D01*
X0356540Y0080325D01*
X0356609Y0080315D01*
X0356678Y0080302D01*
X0356746Y0080284D01*
X0356813Y0080263D01*
X0356878Y0080238D01*
X0356942Y0080209D01*
X0357005Y0080177D01*
X0357065Y0080141D01*
X0357123Y0080102D01*
X0357179Y0080060D01*
X0357233Y0080015D01*
X0357284Y0079967D01*
X0357332Y0079916D01*
X0357377Y0079862D01*
X0357419Y0079806D01*
X0357458Y0079748D01*
X0357494Y0079688D01*
X0357526Y0079625D01*
X0357555Y0079561D01*
X0357580Y0079496D01*
X0357601Y0079429D01*
X0357619Y0079361D01*
X0357632Y0079292D01*
X0357642Y0079223D01*
X0357648Y0079153D01*
X0357650Y0079083D01*
X0357648Y0079013D01*
X0357642Y0078943D01*
X0357632Y0078874D01*
X0357619Y0078805D01*
X0357601Y0078737D01*
X0357580Y0078670D01*
X0357555Y0078605D01*
X0357526Y0078541D01*
X0357494Y0078478D01*
X0357458Y0078418D01*
X0357419Y0078360D01*
X0357377Y0078304D01*
X0357332Y0078250D01*
X0357284Y0078199D01*
X0357233Y0078151D01*
X0357179Y0078106D01*
X0357123Y0078064D01*
X0357065Y0078025D01*
X0357005Y0077989D01*
X0356942Y0077957D01*
X0356878Y0077928D01*
X0356813Y0077903D01*
X0356746Y0077882D01*
X0356678Y0077864D01*
X0356609Y0077851D01*
X0356540Y0077841D01*
X0356470Y0077835D01*
X0356400Y0077833D01*
X0356330Y0077835D01*
X0356260Y0077841D01*
X0356191Y0077851D01*
X0356122Y0077864D01*
X0356054Y0077882D01*
X0355987Y0077903D01*
X0355922Y0077928D01*
X0355858Y0077957D01*
X0355795Y0077989D01*
X0355735Y0078025D01*
X0355677Y0078064D01*
X0355621Y0078106D01*
X0355567Y0078151D01*
X0355516Y0078199D01*
X0355468Y0078250D01*
X0355423Y0078304D01*
X0355381Y0078360D01*
X0355342Y0078418D01*
X0355306Y0078478D01*
X0355274Y0078541D01*
X0355245Y0078605D01*
X0355220Y0078670D01*
X0355199Y0078737D01*
X0355181Y0078805D01*
X0355168Y0078874D01*
X0355158Y0078943D01*
X0355152Y0079013D01*
X0355150Y0079083D01*
X0355150Y0084183D02*
X0355152Y0084253D01*
X0355158Y0084323D01*
X0355168Y0084392D01*
X0355181Y0084461D01*
X0355199Y0084529D01*
X0355220Y0084596D01*
X0355245Y0084661D01*
X0355274Y0084725D01*
X0355306Y0084788D01*
X0355342Y0084848D01*
X0355381Y0084906D01*
X0355423Y0084962D01*
X0355468Y0085016D01*
X0355516Y0085067D01*
X0355567Y0085115D01*
X0355621Y0085160D01*
X0355677Y0085202D01*
X0355735Y0085241D01*
X0355795Y0085277D01*
X0355858Y0085309D01*
X0355922Y0085338D01*
X0355987Y0085363D01*
X0356054Y0085384D01*
X0356122Y0085402D01*
X0356191Y0085415D01*
X0356260Y0085425D01*
X0356330Y0085431D01*
X0356400Y0085433D01*
X0356470Y0085431D01*
X0356540Y0085425D01*
X0356609Y0085415D01*
X0356678Y0085402D01*
X0356746Y0085384D01*
X0356813Y0085363D01*
X0356878Y0085338D01*
X0356942Y0085309D01*
X0357005Y0085277D01*
X0357065Y0085241D01*
X0357123Y0085202D01*
X0357179Y0085160D01*
X0357233Y0085115D01*
X0357284Y0085067D01*
X0357332Y0085016D01*
X0357377Y0084962D01*
X0357419Y0084906D01*
X0357458Y0084848D01*
X0357494Y0084788D01*
X0357526Y0084725D01*
X0357555Y0084661D01*
X0357580Y0084596D01*
X0357601Y0084529D01*
X0357619Y0084461D01*
X0357632Y0084392D01*
X0357642Y0084323D01*
X0357648Y0084253D01*
X0357650Y0084183D01*
X0357648Y0084113D01*
X0357642Y0084043D01*
X0357632Y0083974D01*
X0357619Y0083905D01*
X0357601Y0083837D01*
X0357580Y0083770D01*
X0357555Y0083705D01*
X0357526Y0083641D01*
X0357494Y0083578D01*
X0357458Y0083518D01*
X0357419Y0083460D01*
X0357377Y0083404D01*
X0357332Y0083350D01*
X0357284Y0083299D01*
X0357233Y0083251D01*
X0357179Y0083206D01*
X0357123Y0083164D01*
X0357065Y0083125D01*
X0357005Y0083089D01*
X0356942Y0083057D01*
X0356878Y0083028D01*
X0356813Y0083003D01*
X0356746Y0082982D01*
X0356678Y0082964D01*
X0356609Y0082951D01*
X0356540Y0082941D01*
X0356470Y0082935D01*
X0356400Y0082933D01*
X0356330Y0082935D01*
X0356260Y0082941D01*
X0356191Y0082951D01*
X0356122Y0082964D01*
X0356054Y0082982D01*
X0355987Y0083003D01*
X0355922Y0083028D01*
X0355858Y0083057D01*
X0355795Y0083089D01*
X0355735Y0083125D01*
X0355677Y0083164D01*
X0355621Y0083206D01*
X0355567Y0083251D01*
X0355516Y0083299D01*
X0355468Y0083350D01*
X0355423Y0083404D01*
X0355381Y0083460D01*
X0355342Y0083518D01*
X0355306Y0083578D01*
X0355274Y0083641D01*
X0355245Y0083705D01*
X0355220Y0083770D01*
X0355199Y0083837D01*
X0355181Y0083905D01*
X0355168Y0083974D01*
X0355158Y0084043D01*
X0355152Y0084113D01*
X0355150Y0084183D01*
X0355150Y0089283D02*
X0355152Y0089353D01*
X0355158Y0089423D01*
X0355168Y0089492D01*
X0355181Y0089561D01*
X0355199Y0089629D01*
X0355220Y0089696D01*
X0355245Y0089761D01*
X0355274Y0089825D01*
X0355306Y0089888D01*
X0355342Y0089948D01*
X0355381Y0090006D01*
X0355423Y0090062D01*
X0355468Y0090116D01*
X0355516Y0090167D01*
X0355567Y0090215D01*
X0355621Y0090260D01*
X0355677Y0090302D01*
X0355735Y0090341D01*
X0355795Y0090377D01*
X0355858Y0090409D01*
X0355922Y0090438D01*
X0355987Y0090463D01*
X0356054Y0090484D01*
X0356122Y0090502D01*
X0356191Y0090515D01*
X0356260Y0090525D01*
X0356330Y0090531D01*
X0356400Y0090533D01*
X0356470Y0090531D01*
X0356540Y0090525D01*
X0356609Y0090515D01*
X0356678Y0090502D01*
X0356746Y0090484D01*
X0356813Y0090463D01*
X0356878Y0090438D01*
X0356942Y0090409D01*
X0357005Y0090377D01*
X0357065Y0090341D01*
X0357123Y0090302D01*
X0357179Y0090260D01*
X0357233Y0090215D01*
X0357284Y0090167D01*
X0357332Y0090116D01*
X0357377Y0090062D01*
X0357419Y0090006D01*
X0357458Y0089948D01*
X0357494Y0089888D01*
X0357526Y0089825D01*
X0357555Y0089761D01*
X0357580Y0089696D01*
X0357601Y0089629D01*
X0357619Y0089561D01*
X0357632Y0089492D01*
X0357642Y0089423D01*
X0357648Y0089353D01*
X0357650Y0089283D01*
X0357648Y0089213D01*
X0357642Y0089143D01*
X0357632Y0089074D01*
X0357619Y0089005D01*
X0357601Y0088937D01*
X0357580Y0088870D01*
X0357555Y0088805D01*
X0357526Y0088741D01*
X0357494Y0088678D01*
X0357458Y0088618D01*
X0357419Y0088560D01*
X0357377Y0088504D01*
X0357332Y0088450D01*
X0357284Y0088399D01*
X0357233Y0088351D01*
X0357179Y0088306D01*
X0357123Y0088264D01*
X0357065Y0088225D01*
X0357005Y0088189D01*
X0356942Y0088157D01*
X0356878Y0088128D01*
X0356813Y0088103D01*
X0356746Y0088082D01*
X0356678Y0088064D01*
X0356609Y0088051D01*
X0356540Y0088041D01*
X0356470Y0088035D01*
X0356400Y0088033D01*
X0356330Y0088035D01*
X0356260Y0088041D01*
X0356191Y0088051D01*
X0356122Y0088064D01*
X0356054Y0088082D01*
X0355987Y0088103D01*
X0355922Y0088128D01*
X0355858Y0088157D01*
X0355795Y0088189D01*
X0355735Y0088225D01*
X0355677Y0088264D01*
X0355621Y0088306D01*
X0355567Y0088351D01*
X0355516Y0088399D01*
X0355468Y0088450D01*
X0355423Y0088504D01*
X0355381Y0088560D01*
X0355342Y0088618D01*
X0355306Y0088678D01*
X0355274Y0088741D01*
X0355245Y0088805D01*
X0355220Y0088870D01*
X0355199Y0088937D01*
X0355181Y0089005D01*
X0355168Y0089074D01*
X0355158Y0089143D01*
X0355152Y0089213D01*
X0355150Y0089283D01*
X0355150Y0094383D02*
X0355152Y0094453D01*
X0355158Y0094523D01*
X0355168Y0094592D01*
X0355181Y0094661D01*
X0355199Y0094729D01*
X0355220Y0094796D01*
X0355245Y0094861D01*
X0355274Y0094925D01*
X0355306Y0094988D01*
X0355342Y0095048D01*
X0355381Y0095106D01*
X0355423Y0095162D01*
X0355468Y0095216D01*
X0355516Y0095267D01*
X0355567Y0095315D01*
X0355621Y0095360D01*
X0355677Y0095402D01*
X0355735Y0095441D01*
X0355795Y0095477D01*
X0355858Y0095509D01*
X0355922Y0095538D01*
X0355987Y0095563D01*
X0356054Y0095584D01*
X0356122Y0095602D01*
X0356191Y0095615D01*
X0356260Y0095625D01*
X0356330Y0095631D01*
X0356400Y0095633D01*
X0356470Y0095631D01*
X0356540Y0095625D01*
X0356609Y0095615D01*
X0356678Y0095602D01*
X0356746Y0095584D01*
X0356813Y0095563D01*
X0356878Y0095538D01*
X0356942Y0095509D01*
X0357005Y0095477D01*
X0357065Y0095441D01*
X0357123Y0095402D01*
X0357179Y0095360D01*
X0357233Y0095315D01*
X0357284Y0095267D01*
X0357332Y0095216D01*
X0357377Y0095162D01*
X0357419Y0095106D01*
X0357458Y0095048D01*
X0357494Y0094988D01*
X0357526Y0094925D01*
X0357555Y0094861D01*
X0357580Y0094796D01*
X0357601Y0094729D01*
X0357619Y0094661D01*
X0357632Y0094592D01*
X0357642Y0094523D01*
X0357648Y0094453D01*
X0357650Y0094383D01*
X0357648Y0094313D01*
X0357642Y0094243D01*
X0357632Y0094174D01*
X0357619Y0094105D01*
X0357601Y0094037D01*
X0357580Y0093970D01*
X0357555Y0093905D01*
X0357526Y0093841D01*
X0357494Y0093778D01*
X0357458Y0093718D01*
X0357419Y0093660D01*
X0357377Y0093604D01*
X0357332Y0093550D01*
X0357284Y0093499D01*
X0357233Y0093451D01*
X0357179Y0093406D01*
X0357123Y0093364D01*
X0357065Y0093325D01*
X0357005Y0093289D01*
X0356942Y0093257D01*
X0356878Y0093228D01*
X0356813Y0093203D01*
X0356746Y0093182D01*
X0356678Y0093164D01*
X0356609Y0093151D01*
X0356540Y0093141D01*
X0356470Y0093135D01*
X0356400Y0093133D01*
X0356330Y0093135D01*
X0356260Y0093141D01*
X0356191Y0093151D01*
X0356122Y0093164D01*
X0356054Y0093182D01*
X0355987Y0093203D01*
X0355922Y0093228D01*
X0355858Y0093257D01*
X0355795Y0093289D01*
X0355735Y0093325D01*
X0355677Y0093364D01*
X0355621Y0093406D01*
X0355567Y0093451D01*
X0355516Y0093499D01*
X0355468Y0093550D01*
X0355423Y0093604D01*
X0355381Y0093660D01*
X0355342Y0093718D01*
X0355306Y0093778D01*
X0355274Y0093841D01*
X0355245Y0093905D01*
X0355220Y0093970D01*
X0355199Y0094037D01*
X0355181Y0094105D01*
X0355168Y0094174D01*
X0355158Y0094243D01*
X0355152Y0094313D01*
X0355150Y0094383D01*
X0355150Y0099483D02*
X0355152Y0099553D01*
X0355158Y0099623D01*
X0355168Y0099692D01*
X0355181Y0099761D01*
X0355199Y0099829D01*
X0355220Y0099896D01*
X0355245Y0099961D01*
X0355274Y0100025D01*
X0355306Y0100088D01*
X0355342Y0100148D01*
X0355381Y0100206D01*
X0355423Y0100262D01*
X0355468Y0100316D01*
X0355516Y0100367D01*
X0355567Y0100415D01*
X0355621Y0100460D01*
X0355677Y0100502D01*
X0355735Y0100541D01*
X0355795Y0100577D01*
X0355858Y0100609D01*
X0355922Y0100638D01*
X0355987Y0100663D01*
X0356054Y0100684D01*
X0356122Y0100702D01*
X0356191Y0100715D01*
X0356260Y0100725D01*
X0356330Y0100731D01*
X0356400Y0100733D01*
X0356470Y0100731D01*
X0356540Y0100725D01*
X0356609Y0100715D01*
X0356678Y0100702D01*
X0356746Y0100684D01*
X0356813Y0100663D01*
X0356878Y0100638D01*
X0356942Y0100609D01*
X0357005Y0100577D01*
X0357065Y0100541D01*
X0357123Y0100502D01*
X0357179Y0100460D01*
X0357233Y0100415D01*
X0357284Y0100367D01*
X0357332Y0100316D01*
X0357377Y0100262D01*
X0357419Y0100206D01*
X0357458Y0100148D01*
X0357494Y0100088D01*
X0357526Y0100025D01*
X0357555Y0099961D01*
X0357580Y0099896D01*
X0357601Y0099829D01*
X0357619Y0099761D01*
X0357632Y0099692D01*
X0357642Y0099623D01*
X0357648Y0099553D01*
X0357650Y0099483D01*
X0357648Y0099413D01*
X0357642Y0099343D01*
X0357632Y0099274D01*
X0357619Y0099205D01*
X0357601Y0099137D01*
X0357580Y0099070D01*
X0357555Y0099005D01*
X0357526Y0098941D01*
X0357494Y0098878D01*
X0357458Y0098818D01*
X0357419Y0098760D01*
X0357377Y0098704D01*
X0357332Y0098650D01*
X0357284Y0098599D01*
X0357233Y0098551D01*
X0357179Y0098506D01*
X0357123Y0098464D01*
X0357065Y0098425D01*
X0357005Y0098389D01*
X0356942Y0098357D01*
X0356878Y0098328D01*
X0356813Y0098303D01*
X0356746Y0098282D01*
X0356678Y0098264D01*
X0356609Y0098251D01*
X0356540Y0098241D01*
X0356470Y0098235D01*
X0356400Y0098233D01*
X0356330Y0098235D01*
X0356260Y0098241D01*
X0356191Y0098251D01*
X0356122Y0098264D01*
X0356054Y0098282D01*
X0355987Y0098303D01*
X0355922Y0098328D01*
X0355858Y0098357D01*
X0355795Y0098389D01*
X0355735Y0098425D01*
X0355677Y0098464D01*
X0355621Y0098506D01*
X0355567Y0098551D01*
X0355516Y0098599D01*
X0355468Y0098650D01*
X0355423Y0098704D01*
X0355381Y0098760D01*
X0355342Y0098818D01*
X0355306Y0098878D01*
X0355274Y0098941D01*
X0355245Y0099005D01*
X0355220Y0099070D01*
X0355199Y0099137D01*
X0355181Y0099205D01*
X0355168Y0099274D01*
X0355158Y0099343D01*
X0355152Y0099413D01*
X0355150Y0099483D01*
X0355150Y0104583D02*
X0355152Y0104653D01*
X0355158Y0104723D01*
X0355168Y0104792D01*
X0355181Y0104861D01*
X0355199Y0104929D01*
X0355220Y0104996D01*
X0355245Y0105061D01*
X0355274Y0105125D01*
X0355306Y0105188D01*
X0355342Y0105248D01*
X0355381Y0105306D01*
X0355423Y0105362D01*
X0355468Y0105416D01*
X0355516Y0105467D01*
X0355567Y0105515D01*
X0355621Y0105560D01*
X0355677Y0105602D01*
X0355735Y0105641D01*
X0355795Y0105677D01*
X0355858Y0105709D01*
X0355922Y0105738D01*
X0355987Y0105763D01*
X0356054Y0105784D01*
X0356122Y0105802D01*
X0356191Y0105815D01*
X0356260Y0105825D01*
X0356330Y0105831D01*
X0356400Y0105833D01*
X0356470Y0105831D01*
X0356540Y0105825D01*
X0356609Y0105815D01*
X0356678Y0105802D01*
X0356746Y0105784D01*
X0356813Y0105763D01*
X0356878Y0105738D01*
X0356942Y0105709D01*
X0357005Y0105677D01*
X0357065Y0105641D01*
X0357123Y0105602D01*
X0357179Y0105560D01*
X0357233Y0105515D01*
X0357284Y0105467D01*
X0357332Y0105416D01*
X0357377Y0105362D01*
X0357419Y0105306D01*
X0357458Y0105248D01*
X0357494Y0105188D01*
X0357526Y0105125D01*
X0357555Y0105061D01*
X0357580Y0104996D01*
X0357601Y0104929D01*
X0357619Y0104861D01*
X0357632Y0104792D01*
X0357642Y0104723D01*
X0357648Y0104653D01*
X0357650Y0104583D01*
X0357648Y0104513D01*
X0357642Y0104443D01*
X0357632Y0104374D01*
X0357619Y0104305D01*
X0357601Y0104237D01*
X0357580Y0104170D01*
X0357555Y0104105D01*
X0357526Y0104041D01*
X0357494Y0103978D01*
X0357458Y0103918D01*
X0357419Y0103860D01*
X0357377Y0103804D01*
X0357332Y0103750D01*
X0357284Y0103699D01*
X0357233Y0103651D01*
X0357179Y0103606D01*
X0357123Y0103564D01*
X0357065Y0103525D01*
X0357005Y0103489D01*
X0356942Y0103457D01*
X0356878Y0103428D01*
X0356813Y0103403D01*
X0356746Y0103382D01*
X0356678Y0103364D01*
X0356609Y0103351D01*
X0356540Y0103341D01*
X0356470Y0103335D01*
X0356400Y0103333D01*
X0356330Y0103335D01*
X0356260Y0103341D01*
X0356191Y0103351D01*
X0356122Y0103364D01*
X0356054Y0103382D01*
X0355987Y0103403D01*
X0355922Y0103428D01*
X0355858Y0103457D01*
X0355795Y0103489D01*
X0355735Y0103525D01*
X0355677Y0103564D01*
X0355621Y0103606D01*
X0355567Y0103651D01*
X0355516Y0103699D01*
X0355468Y0103750D01*
X0355423Y0103804D01*
X0355381Y0103860D01*
X0355342Y0103918D01*
X0355306Y0103978D01*
X0355274Y0104041D01*
X0355245Y0104105D01*
X0355220Y0104170D01*
X0355199Y0104237D01*
X0355181Y0104305D01*
X0355168Y0104374D01*
X0355158Y0104443D01*
X0355152Y0104513D01*
X0355150Y0104583D01*
X0355150Y0109683D02*
X0355152Y0109753D01*
X0355158Y0109823D01*
X0355168Y0109892D01*
X0355181Y0109961D01*
X0355199Y0110029D01*
X0355220Y0110096D01*
X0355245Y0110161D01*
X0355274Y0110225D01*
X0355306Y0110288D01*
X0355342Y0110348D01*
X0355381Y0110406D01*
X0355423Y0110462D01*
X0355468Y0110516D01*
X0355516Y0110567D01*
X0355567Y0110615D01*
X0355621Y0110660D01*
X0355677Y0110702D01*
X0355735Y0110741D01*
X0355795Y0110777D01*
X0355858Y0110809D01*
X0355922Y0110838D01*
X0355987Y0110863D01*
X0356054Y0110884D01*
X0356122Y0110902D01*
X0356191Y0110915D01*
X0356260Y0110925D01*
X0356330Y0110931D01*
X0356400Y0110933D01*
X0356470Y0110931D01*
X0356540Y0110925D01*
X0356609Y0110915D01*
X0356678Y0110902D01*
X0356746Y0110884D01*
X0356813Y0110863D01*
X0356878Y0110838D01*
X0356942Y0110809D01*
X0357005Y0110777D01*
X0357065Y0110741D01*
X0357123Y0110702D01*
X0357179Y0110660D01*
X0357233Y0110615D01*
X0357284Y0110567D01*
X0357332Y0110516D01*
X0357377Y0110462D01*
X0357419Y0110406D01*
X0357458Y0110348D01*
X0357494Y0110288D01*
X0357526Y0110225D01*
X0357555Y0110161D01*
X0357580Y0110096D01*
X0357601Y0110029D01*
X0357619Y0109961D01*
X0357632Y0109892D01*
X0357642Y0109823D01*
X0357648Y0109753D01*
X0357650Y0109683D01*
X0357648Y0109613D01*
X0357642Y0109543D01*
X0357632Y0109474D01*
X0357619Y0109405D01*
X0357601Y0109337D01*
X0357580Y0109270D01*
X0357555Y0109205D01*
X0357526Y0109141D01*
X0357494Y0109078D01*
X0357458Y0109018D01*
X0357419Y0108960D01*
X0357377Y0108904D01*
X0357332Y0108850D01*
X0357284Y0108799D01*
X0357233Y0108751D01*
X0357179Y0108706D01*
X0357123Y0108664D01*
X0357065Y0108625D01*
X0357005Y0108589D01*
X0356942Y0108557D01*
X0356878Y0108528D01*
X0356813Y0108503D01*
X0356746Y0108482D01*
X0356678Y0108464D01*
X0356609Y0108451D01*
X0356540Y0108441D01*
X0356470Y0108435D01*
X0356400Y0108433D01*
X0356330Y0108435D01*
X0356260Y0108441D01*
X0356191Y0108451D01*
X0356122Y0108464D01*
X0356054Y0108482D01*
X0355987Y0108503D01*
X0355922Y0108528D01*
X0355858Y0108557D01*
X0355795Y0108589D01*
X0355735Y0108625D01*
X0355677Y0108664D01*
X0355621Y0108706D01*
X0355567Y0108751D01*
X0355516Y0108799D01*
X0355468Y0108850D01*
X0355423Y0108904D01*
X0355381Y0108960D01*
X0355342Y0109018D01*
X0355306Y0109078D01*
X0355274Y0109141D01*
X0355245Y0109205D01*
X0355220Y0109270D01*
X0355199Y0109337D01*
X0355181Y0109405D01*
X0355168Y0109474D01*
X0355158Y0109543D01*
X0355152Y0109613D01*
X0355150Y0109683D01*
X0355150Y0114783D02*
X0355152Y0114853D01*
X0355158Y0114923D01*
X0355168Y0114992D01*
X0355181Y0115061D01*
X0355199Y0115129D01*
X0355220Y0115196D01*
X0355245Y0115261D01*
X0355274Y0115325D01*
X0355306Y0115388D01*
X0355342Y0115448D01*
X0355381Y0115506D01*
X0355423Y0115562D01*
X0355468Y0115616D01*
X0355516Y0115667D01*
X0355567Y0115715D01*
X0355621Y0115760D01*
X0355677Y0115802D01*
X0355735Y0115841D01*
X0355795Y0115877D01*
X0355858Y0115909D01*
X0355922Y0115938D01*
X0355987Y0115963D01*
X0356054Y0115984D01*
X0356122Y0116002D01*
X0356191Y0116015D01*
X0356260Y0116025D01*
X0356330Y0116031D01*
X0356400Y0116033D01*
X0356470Y0116031D01*
X0356540Y0116025D01*
X0356609Y0116015D01*
X0356678Y0116002D01*
X0356746Y0115984D01*
X0356813Y0115963D01*
X0356878Y0115938D01*
X0356942Y0115909D01*
X0357005Y0115877D01*
X0357065Y0115841D01*
X0357123Y0115802D01*
X0357179Y0115760D01*
X0357233Y0115715D01*
X0357284Y0115667D01*
X0357332Y0115616D01*
X0357377Y0115562D01*
X0357419Y0115506D01*
X0357458Y0115448D01*
X0357494Y0115388D01*
X0357526Y0115325D01*
X0357555Y0115261D01*
X0357580Y0115196D01*
X0357601Y0115129D01*
X0357619Y0115061D01*
X0357632Y0114992D01*
X0357642Y0114923D01*
X0357648Y0114853D01*
X0357650Y0114783D01*
X0357648Y0114713D01*
X0357642Y0114643D01*
X0357632Y0114574D01*
X0357619Y0114505D01*
X0357601Y0114437D01*
X0357580Y0114370D01*
X0357555Y0114305D01*
X0357526Y0114241D01*
X0357494Y0114178D01*
X0357458Y0114118D01*
X0357419Y0114060D01*
X0357377Y0114004D01*
X0357332Y0113950D01*
X0357284Y0113899D01*
X0357233Y0113851D01*
X0357179Y0113806D01*
X0357123Y0113764D01*
X0357065Y0113725D01*
X0357005Y0113689D01*
X0356942Y0113657D01*
X0356878Y0113628D01*
X0356813Y0113603D01*
X0356746Y0113582D01*
X0356678Y0113564D01*
X0356609Y0113551D01*
X0356540Y0113541D01*
X0356470Y0113535D01*
X0356400Y0113533D01*
X0356330Y0113535D01*
X0356260Y0113541D01*
X0356191Y0113551D01*
X0356122Y0113564D01*
X0356054Y0113582D01*
X0355987Y0113603D01*
X0355922Y0113628D01*
X0355858Y0113657D01*
X0355795Y0113689D01*
X0355735Y0113725D01*
X0355677Y0113764D01*
X0355621Y0113806D01*
X0355567Y0113851D01*
X0355516Y0113899D01*
X0355468Y0113950D01*
X0355423Y0114004D01*
X0355381Y0114060D01*
X0355342Y0114118D01*
X0355306Y0114178D01*
X0355274Y0114241D01*
X0355245Y0114305D01*
X0355220Y0114370D01*
X0355199Y0114437D01*
X0355181Y0114505D01*
X0355168Y0114574D01*
X0355158Y0114643D01*
X0355152Y0114713D01*
X0355150Y0114783D01*
X0355150Y0119883D02*
X0355152Y0119953D01*
X0355158Y0120023D01*
X0355168Y0120092D01*
X0355181Y0120161D01*
X0355199Y0120229D01*
X0355220Y0120296D01*
X0355245Y0120361D01*
X0355274Y0120425D01*
X0355306Y0120488D01*
X0355342Y0120548D01*
X0355381Y0120606D01*
X0355423Y0120662D01*
X0355468Y0120716D01*
X0355516Y0120767D01*
X0355567Y0120815D01*
X0355621Y0120860D01*
X0355677Y0120902D01*
X0355735Y0120941D01*
X0355795Y0120977D01*
X0355858Y0121009D01*
X0355922Y0121038D01*
X0355987Y0121063D01*
X0356054Y0121084D01*
X0356122Y0121102D01*
X0356191Y0121115D01*
X0356260Y0121125D01*
X0356330Y0121131D01*
X0356400Y0121133D01*
X0356470Y0121131D01*
X0356540Y0121125D01*
X0356609Y0121115D01*
X0356678Y0121102D01*
X0356746Y0121084D01*
X0356813Y0121063D01*
X0356878Y0121038D01*
X0356942Y0121009D01*
X0357005Y0120977D01*
X0357065Y0120941D01*
X0357123Y0120902D01*
X0357179Y0120860D01*
X0357233Y0120815D01*
X0357284Y0120767D01*
X0357332Y0120716D01*
X0357377Y0120662D01*
X0357419Y0120606D01*
X0357458Y0120548D01*
X0357494Y0120488D01*
X0357526Y0120425D01*
X0357555Y0120361D01*
X0357580Y0120296D01*
X0357601Y0120229D01*
X0357619Y0120161D01*
X0357632Y0120092D01*
X0357642Y0120023D01*
X0357648Y0119953D01*
X0357650Y0119883D01*
X0357648Y0119813D01*
X0357642Y0119743D01*
X0357632Y0119674D01*
X0357619Y0119605D01*
X0357601Y0119537D01*
X0357580Y0119470D01*
X0357555Y0119405D01*
X0357526Y0119341D01*
X0357494Y0119278D01*
X0357458Y0119218D01*
X0357419Y0119160D01*
X0357377Y0119104D01*
X0357332Y0119050D01*
X0357284Y0118999D01*
X0357233Y0118951D01*
X0357179Y0118906D01*
X0357123Y0118864D01*
X0357065Y0118825D01*
X0357005Y0118789D01*
X0356942Y0118757D01*
X0356878Y0118728D01*
X0356813Y0118703D01*
X0356746Y0118682D01*
X0356678Y0118664D01*
X0356609Y0118651D01*
X0356540Y0118641D01*
X0356470Y0118635D01*
X0356400Y0118633D01*
X0356330Y0118635D01*
X0356260Y0118641D01*
X0356191Y0118651D01*
X0356122Y0118664D01*
X0356054Y0118682D01*
X0355987Y0118703D01*
X0355922Y0118728D01*
X0355858Y0118757D01*
X0355795Y0118789D01*
X0355735Y0118825D01*
X0355677Y0118864D01*
X0355621Y0118906D01*
X0355567Y0118951D01*
X0355516Y0118999D01*
X0355468Y0119050D01*
X0355423Y0119104D01*
X0355381Y0119160D01*
X0355342Y0119218D01*
X0355306Y0119278D01*
X0355274Y0119341D01*
X0355245Y0119405D01*
X0355220Y0119470D01*
X0355199Y0119537D01*
X0355181Y0119605D01*
X0355168Y0119674D01*
X0355158Y0119743D01*
X0355152Y0119813D01*
X0355150Y0119883D01*
X0355150Y0124983D02*
X0355152Y0125053D01*
X0355158Y0125123D01*
X0355168Y0125192D01*
X0355181Y0125261D01*
X0355199Y0125329D01*
X0355220Y0125396D01*
X0355245Y0125461D01*
X0355274Y0125525D01*
X0355306Y0125588D01*
X0355342Y0125648D01*
X0355381Y0125706D01*
X0355423Y0125762D01*
X0355468Y0125816D01*
X0355516Y0125867D01*
X0355567Y0125915D01*
X0355621Y0125960D01*
X0355677Y0126002D01*
X0355735Y0126041D01*
X0355795Y0126077D01*
X0355858Y0126109D01*
X0355922Y0126138D01*
X0355987Y0126163D01*
X0356054Y0126184D01*
X0356122Y0126202D01*
X0356191Y0126215D01*
X0356260Y0126225D01*
X0356330Y0126231D01*
X0356400Y0126233D01*
X0356470Y0126231D01*
X0356540Y0126225D01*
X0356609Y0126215D01*
X0356678Y0126202D01*
X0356746Y0126184D01*
X0356813Y0126163D01*
X0356878Y0126138D01*
X0356942Y0126109D01*
X0357005Y0126077D01*
X0357065Y0126041D01*
X0357123Y0126002D01*
X0357179Y0125960D01*
X0357233Y0125915D01*
X0357284Y0125867D01*
X0357332Y0125816D01*
X0357377Y0125762D01*
X0357419Y0125706D01*
X0357458Y0125648D01*
X0357494Y0125588D01*
X0357526Y0125525D01*
X0357555Y0125461D01*
X0357580Y0125396D01*
X0357601Y0125329D01*
X0357619Y0125261D01*
X0357632Y0125192D01*
X0357642Y0125123D01*
X0357648Y0125053D01*
X0357650Y0124983D01*
X0357648Y0124913D01*
X0357642Y0124843D01*
X0357632Y0124774D01*
X0357619Y0124705D01*
X0357601Y0124637D01*
X0357580Y0124570D01*
X0357555Y0124505D01*
X0357526Y0124441D01*
X0357494Y0124378D01*
X0357458Y0124318D01*
X0357419Y0124260D01*
X0357377Y0124204D01*
X0357332Y0124150D01*
X0357284Y0124099D01*
X0357233Y0124051D01*
X0357179Y0124006D01*
X0357123Y0123964D01*
X0357065Y0123925D01*
X0357005Y0123889D01*
X0356942Y0123857D01*
X0356878Y0123828D01*
X0356813Y0123803D01*
X0356746Y0123782D01*
X0356678Y0123764D01*
X0356609Y0123751D01*
X0356540Y0123741D01*
X0356470Y0123735D01*
X0356400Y0123733D01*
X0356330Y0123735D01*
X0356260Y0123741D01*
X0356191Y0123751D01*
X0356122Y0123764D01*
X0356054Y0123782D01*
X0355987Y0123803D01*
X0355922Y0123828D01*
X0355858Y0123857D01*
X0355795Y0123889D01*
X0355735Y0123925D01*
X0355677Y0123964D01*
X0355621Y0124006D01*
X0355567Y0124051D01*
X0355516Y0124099D01*
X0355468Y0124150D01*
X0355423Y0124204D01*
X0355381Y0124260D01*
X0355342Y0124318D01*
X0355306Y0124378D01*
X0355274Y0124441D01*
X0355245Y0124505D01*
X0355220Y0124570D01*
X0355199Y0124637D01*
X0355181Y0124705D01*
X0355168Y0124774D01*
X0355158Y0124843D01*
X0355152Y0124913D01*
X0355150Y0124983D01*
X0355150Y0130083D02*
X0355152Y0130153D01*
X0355158Y0130223D01*
X0355168Y0130292D01*
X0355181Y0130361D01*
X0355199Y0130429D01*
X0355220Y0130496D01*
X0355245Y0130561D01*
X0355274Y0130625D01*
X0355306Y0130688D01*
X0355342Y0130748D01*
X0355381Y0130806D01*
X0355423Y0130862D01*
X0355468Y0130916D01*
X0355516Y0130967D01*
X0355567Y0131015D01*
X0355621Y0131060D01*
X0355677Y0131102D01*
X0355735Y0131141D01*
X0355795Y0131177D01*
X0355858Y0131209D01*
X0355922Y0131238D01*
X0355987Y0131263D01*
X0356054Y0131284D01*
X0356122Y0131302D01*
X0356191Y0131315D01*
X0356260Y0131325D01*
X0356330Y0131331D01*
X0356400Y0131333D01*
X0356470Y0131331D01*
X0356540Y0131325D01*
X0356609Y0131315D01*
X0356678Y0131302D01*
X0356746Y0131284D01*
X0356813Y0131263D01*
X0356878Y0131238D01*
X0356942Y0131209D01*
X0357005Y0131177D01*
X0357065Y0131141D01*
X0357123Y0131102D01*
X0357179Y0131060D01*
X0357233Y0131015D01*
X0357284Y0130967D01*
X0357332Y0130916D01*
X0357377Y0130862D01*
X0357419Y0130806D01*
X0357458Y0130748D01*
X0357494Y0130688D01*
X0357526Y0130625D01*
X0357555Y0130561D01*
X0357580Y0130496D01*
X0357601Y0130429D01*
X0357619Y0130361D01*
X0357632Y0130292D01*
X0357642Y0130223D01*
X0357648Y0130153D01*
X0357650Y0130083D01*
X0357648Y0130013D01*
X0357642Y0129943D01*
X0357632Y0129874D01*
X0357619Y0129805D01*
X0357601Y0129737D01*
X0357580Y0129670D01*
X0357555Y0129605D01*
X0357526Y0129541D01*
X0357494Y0129478D01*
X0357458Y0129418D01*
X0357419Y0129360D01*
X0357377Y0129304D01*
X0357332Y0129250D01*
X0357284Y0129199D01*
X0357233Y0129151D01*
X0357179Y0129106D01*
X0357123Y0129064D01*
X0357065Y0129025D01*
X0357005Y0128989D01*
X0356942Y0128957D01*
X0356878Y0128928D01*
X0356813Y0128903D01*
X0356746Y0128882D01*
X0356678Y0128864D01*
X0356609Y0128851D01*
X0356540Y0128841D01*
X0356470Y0128835D01*
X0356400Y0128833D01*
X0356330Y0128835D01*
X0356260Y0128841D01*
X0356191Y0128851D01*
X0356122Y0128864D01*
X0356054Y0128882D01*
X0355987Y0128903D01*
X0355922Y0128928D01*
X0355858Y0128957D01*
X0355795Y0128989D01*
X0355735Y0129025D01*
X0355677Y0129064D01*
X0355621Y0129106D01*
X0355567Y0129151D01*
X0355516Y0129199D01*
X0355468Y0129250D01*
X0355423Y0129304D01*
X0355381Y0129360D01*
X0355342Y0129418D01*
X0355306Y0129478D01*
X0355274Y0129541D01*
X0355245Y0129605D01*
X0355220Y0129670D01*
X0355199Y0129737D01*
X0355181Y0129805D01*
X0355168Y0129874D01*
X0355158Y0129943D01*
X0355152Y0130013D01*
X0355150Y0130083D01*
X0355150Y0135183D02*
X0355152Y0135253D01*
X0355158Y0135323D01*
X0355168Y0135392D01*
X0355181Y0135461D01*
X0355199Y0135529D01*
X0355220Y0135596D01*
X0355245Y0135661D01*
X0355274Y0135725D01*
X0355306Y0135788D01*
X0355342Y0135848D01*
X0355381Y0135906D01*
X0355423Y0135962D01*
X0355468Y0136016D01*
X0355516Y0136067D01*
X0355567Y0136115D01*
X0355621Y0136160D01*
X0355677Y0136202D01*
X0355735Y0136241D01*
X0355795Y0136277D01*
X0355858Y0136309D01*
X0355922Y0136338D01*
X0355987Y0136363D01*
X0356054Y0136384D01*
X0356122Y0136402D01*
X0356191Y0136415D01*
X0356260Y0136425D01*
X0356330Y0136431D01*
X0356400Y0136433D01*
X0356470Y0136431D01*
X0356540Y0136425D01*
X0356609Y0136415D01*
X0356678Y0136402D01*
X0356746Y0136384D01*
X0356813Y0136363D01*
X0356878Y0136338D01*
X0356942Y0136309D01*
X0357005Y0136277D01*
X0357065Y0136241D01*
X0357123Y0136202D01*
X0357179Y0136160D01*
X0357233Y0136115D01*
X0357284Y0136067D01*
X0357332Y0136016D01*
X0357377Y0135962D01*
X0357419Y0135906D01*
X0357458Y0135848D01*
X0357494Y0135788D01*
X0357526Y0135725D01*
X0357555Y0135661D01*
X0357580Y0135596D01*
X0357601Y0135529D01*
X0357619Y0135461D01*
X0357632Y0135392D01*
X0357642Y0135323D01*
X0357648Y0135253D01*
X0357650Y0135183D01*
X0357648Y0135113D01*
X0357642Y0135043D01*
X0357632Y0134974D01*
X0357619Y0134905D01*
X0357601Y0134837D01*
X0357580Y0134770D01*
X0357555Y0134705D01*
X0357526Y0134641D01*
X0357494Y0134578D01*
X0357458Y0134518D01*
X0357419Y0134460D01*
X0357377Y0134404D01*
X0357332Y0134350D01*
X0357284Y0134299D01*
X0357233Y0134251D01*
X0357179Y0134206D01*
X0357123Y0134164D01*
X0357065Y0134125D01*
X0357005Y0134089D01*
X0356942Y0134057D01*
X0356878Y0134028D01*
X0356813Y0134003D01*
X0356746Y0133982D01*
X0356678Y0133964D01*
X0356609Y0133951D01*
X0356540Y0133941D01*
X0356470Y0133935D01*
X0356400Y0133933D01*
X0356330Y0133935D01*
X0356260Y0133941D01*
X0356191Y0133951D01*
X0356122Y0133964D01*
X0356054Y0133982D01*
X0355987Y0134003D01*
X0355922Y0134028D01*
X0355858Y0134057D01*
X0355795Y0134089D01*
X0355735Y0134125D01*
X0355677Y0134164D01*
X0355621Y0134206D01*
X0355567Y0134251D01*
X0355516Y0134299D01*
X0355468Y0134350D01*
X0355423Y0134404D01*
X0355381Y0134460D01*
X0355342Y0134518D01*
X0355306Y0134578D01*
X0355274Y0134641D01*
X0355245Y0134705D01*
X0355220Y0134770D01*
X0355199Y0134837D01*
X0355181Y0134905D01*
X0355168Y0134974D01*
X0355158Y0135043D01*
X0355152Y0135113D01*
X0355150Y0135183D01*
X0355150Y0140283D02*
X0355152Y0140353D01*
X0355158Y0140423D01*
X0355168Y0140492D01*
X0355181Y0140561D01*
X0355199Y0140629D01*
X0355220Y0140696D01*
X0355245Y0140761D01*
X0355274Y0140825D01*
X0355306Y0140888D01*
X0355342Y0140948D01*
X0355381Y0141006D01*
X0355423Y0141062D01*
X0355468Y0141116D01*
X0355516Y0141167D01*
X0355567Y0141215D01*
X0355621Y0141260D01*
X0355677Y0141302D01*
X0355735Y0141341D01*
X0355795Y0141377D01*
X0355858Y0141409D01*
X0355922Y0141438D01*
X0355987Y0141463D01*
X0356054Y0141484D01*
X0356122Y0141502D01*
X0356191Y0141515D01*
X0356260Y0141525D01*
X0356330Y0141531D01*
X0356400Y0141533D01*
X0356470Y0141531D01*
X0356540Y0141525D01*
X0356609Y0141515D01*
X0356678Y0141502D01*
X0356746Y0141484D01*
X0356813Y0141463D01*
X0356878Y0141438D01*
X0356942Y0141409D01*
X0357005Y0141377D01*
X0357065Y0141341D01*
X0357123Y0141302D01*
X0357179Y0141260D01*
X0357233Y0141215D01*
X0357284Y0141167D01*
X0357332Y0141116D01*
X0357377Y0141062D01*
X0357419Y0141006D01*
X0357458Y0140948D01*
X0357494Y0140888D01*
X0357526Y0140825D01*
X0357555Y0140761D01*
X0357580Y0140696D01*
X0357601Y0140629D01*
X0357619Y0140561D01*
X0357632Y0140492D01*
X0357642Y0140423D01*
X0357648Y0140353D01*
X0357650Y0140283D01*
X0357648Y0140213D01*
X0357642Y0140143D01*
X0357632Y0140074D01*
X0357619Y0140005D01*
X0357601Y0139937D01*
X0357580Y0139870D01*
X0357555Y0139805D01*
X0357526Y0139741D01*
X0357494Y0139678D01*
X0357458Y0139618D01*
X0357419Y0139560D01*
X0357377Y0139504D01*
X0357332Y0139450D01*
X0357284Y0139399D01*
X0357233Y0139351D01*
X0357179Y0139306D01*
X0357123Y0139264D01*
X0357065Y0139225D01*
X0357005Y0139189D01*
X0356942Y0139157D01*
X0356878Y0139128D01*
X0356813Y0139103D01*
X0356746Y0139082D01*
X0356678Y0139064D01*
X0356609Y0139051D01*
X0356540Y0139041D01*
X0356470Y0139035D01*
X0356400Y0139033D01*
X0356330Y0139035D01*
X0356260Y0139041D01*
X0356191Y0139051D01*
X0356122Y0139064D01*
X0356054Y0139082D01*
X0355987Y0139103D01*
X0355922Y0139128D01*
X0355858Y0139157D01*
X0355795Y0139189D01*
X0355735Y0139225D01*
X0355677Y0139264D01*
X0355621Y0139306D01*
X0355567Y0139351D01*
X0355516Y0139399D01*
X0355468Y0139450D01*
X0355423Y0139504D01*
X0355381Y0139560D01*
X0355342Y0139618D01*
X0355306Y0139678D01*
X0355274Y0139741D01*
X0355245Y0139805D01*
X0355220Y0139870D01*
X0355199Y0139937D01*
X0355181Y0140005D01*
X0355168Y0140074D01*
X0355158Y0140143D01*
X0355152Y0140213D01*
X0355150Y0140283D01*
X0355150Y0145383D02*
X0355152Y0145453D01*
X0355158Y0145523D01*
X0355168Y0145592D01*
X0355181Y0145661D01*
X0355199Y0145729D01*
X0355220Y0145796D01*
X0355245Y0145861D01*
X0355274Y0145925D01*
X0355306Y0145988D01*
X0355342Y0146048D01*
X0355381Y0146106D01*
X0355423Y0146162D01*
X0355468Y0146216D01*
X0355516Y0146267D01*
X0355567Y0146315D01*
X0355621Y0146360D01*
X0355677Y0146402D01*
X0355735Y0146441D01*
X0355795Y0146477D01*
X0355858Y0146509D01*
X0355922Y0146538D01*
X0355987Y0146563D01*
X0356054Y0146584D01*
X0356122Y0146602D01*
X0356191Y0146615D01*
X0356260Y0146625D01*
X0356330Y0146631D01*
X0356400Y0146633D01*
X0356470Y0146631D01*
X0356540Y0146625D01*
X0356609Y0146615D01*
X0356678Y0146602D01*
X0356746Y0146584D01*
X0356813Y0146563D01*
X0356878Y0146538D01*
X0356942Y0146509D01*
X0357005Y0146477D01*
X0357065Y0146441D01*
X0357123Y0146402D01*
X0357179Y0146360D01*
X0357233Y0146315D01*
X0357284Y0146267D01*
X0357332Y0146216D01*
X0357377Y0146162D01*
X0357419Y0146106D01*
X0357458Y0146048D01*
X0357494Y0145988D01*
X0357526Y0145925D01*
X0357555Y0145861D01*
X0357580Y0145796D01*
X0357601Y0145729D01*
X0357619Y0145661D01*
X0357632Y0145592D01*
X0357642Y0145523D01*
X0357648Y0145453D01*
X0357650Y0145383D01*
X0357648Y0145313D01*
X0357642Y0145243D01*
X0357632Y0145174D01*
X0357619Y0145105D01*
X0357601Y0145037D01*
X0357580Y0144970D01*
X0357555Y0144905D01*
X0357526Y0144841D01*
X0357494Y0144778D01*
X0357458Y0144718D01*
X0357419Y0144660D01*
X0357377Y0144604D01*
X0357332Y0144550D01*
X0357284Y0144499D01*
X0357233Y0144451D01*
X0357179Y0144406D01*
X0357123Y0144364D01*
X0357065Y0144325D01*
X0357005Y0144289D01*
X0356942Y0144257D01*
X0356878Y0144228D01*
X0356813Y0144203D01*
X0356746Y0144182D01*
X0356678Y0144164D01*
X0356609Y0144151D01*
X0356540Y0144141D01*
X0356470Y0144135D01*
X0356400Y0144133D01*
X0356330Y0144135D01*
X0356260Y0144141D01*
X0356191Y0144151D01*
X0356122Y0144164D01*
X0356054Y0144182D01*
X0355987Y0144203D01*
X0355922Y0144228D01*
X0355858Y0144257D01*
X0355795Y0144289D01*
X0355735Y0144325D01*
X0355677Y0144364D01*
X0355621Y0144406D01*
X0355567Y0144451D01*
X0355516Y0144499D01*
X0355468Y0144550D01*
X0355423Y0144604D01*
X0355381Y0144660D01*
X0355342Y0144718D01*
X0355306Y0144778D01*
X0355274Y0144841D01*
X0355245Y0144905D01*
X0355220Y0144970D01*
X0355199Y0145037D01*
X0355181Y0145105D01*
X0355168Y0145174D01*
X0355158Y0145243D01*
X0355152Y0145313D01*
X0355150Y0145383D01*
X0355150Y0150483D02*
X0355152Y0150553D01*
X0355158Y0150623D01*
X0355168Y0150692D01*
X0355181Y0150761D01*
X0355199Y0150829D01*
X0355220Y0150896D01*
X0355245Y0150961D01*
X0355274Y0151025D01*
X0355306Y0151088D01*
X0355342Y0151148D01*
X0355381Y0151206D01*
X0355423Y0151262D01*
X0355468Y0151316D01*
X0355516Y0151367D01*
X0355567Y0151415D01*
X0355621Y0151460D01*
X0355677Y0151502D01*
X0355735Y0151541D01*
X0355795Y0151577D01*
X0355858Y0151609D01*
X0355922Y0151638D01*
X0355987Y0151663D01*
X0356054Y0151684D01*
X0356122Y0151702D01*
X0356191Y0151715D01*
X0356260Y0151725D01*
X0356330Y0151731D01*
X0356400Y0151733D01*
X0356470Y0151731D01*
X0356540Y0151725D01*
X0356609Y0151715D01*
X0356678Y0151702D01*
X0356746Y0151684D01*
X0356813Y0151663D01*
X0356878Y0151638D01*
X0356942Y0151609D01*
X0357005Y0151577D01*
X0357065Y0151541D01*
X0357123Y0151502D01*
X0357179Y0151460D01*
X0357233Y0151415D01*
X0357284Y0151367D01*
X0357332Y0151316D01*
X0357377Y0151262D01*
X0357419Y0151206D01*
X0357458Y0151148D01*
X0357494Y0151088D01*
X0357526Y0151025D01*
X0357555Y0150961D01*
X0357580Y0150896D01*
X0357601Y0150829D01*
X0357619Y0150761D01*
X0357632Y0150692D01*
X0357642Y0150623D01*
X0357648Y0150553D01*
X0357650Y0150483D01*
X0357648Y0150413D01*
X0357642Y0150343D01*
X0357632Y0150274D01*
X0357619Y0150205D01*
X0357601Y0150137D01*
X0357580Y0150070D01*
X0357555Y0150005D01*
X0357526Y0149941D01*
X0357494Y0149878D01*
X0357458Y0149818D01*
X0357419Y0149760D01*
X0357377Y0149704D01*
X0357332Y0149650D01*
X0357284Y0149599D01*
X0357233Y0149551D01*
X0357179Y0149506D01*
X0357123Y0149464D01*
X0357065Y0149425D01*
X0357005Y0149389D01*
X0356942Y0149357D01*
X0356878Y0149328D01*
X0356813Y0149303D01*
X0356746Y0149282D01*
X0356678Y0149264D01*
X0356609Y0149251D01*
X0356540Y0149241D01*
X0356470Y0149235D01*
X0356400Y0149233D01*
X0356330Y0149235D01*
X0356260Y0149241D01*
X0356191Y0149251D01*
X0356122Y0149264D01*
X0356054Y0149282D01*
X0355987Y0149303D01*
X0355922Y0149328D01*
X0355858Y0149357D01*
X0355795Y0149389D01*
X0355735Y0149425D01*
X0355677Y0149464D01*
X0355621Y0149506D01*
X0355567Y0149551D01*
X0355516Y0149599D01*
X0355468Y0149650D01*
X0355423Y0149704D01*
X0355381Y0149760D01*
X0355342Y0149818D01*
X0355306Y0149878D01*
X0355274Y0149941D01*
X0355245Y0150005D01*
X0355220Y0150070D01*
X0355199Y0150137D01*
X0355181Y0150205D01*
X0355168Y0150274D01*
X0355158Y0150343D01*
X0355152Y0150413D01*
X0355150Y0150483D01*
X0355150Y0155583D02*
X0355152Y0155653D01*
X0355158Y0155723D01*
X0355168Y0155792D01*
X0355181Y0155861D01*
X0355199Y0155929D01*
X0355220Y0155996D01*
X0355245Y0156061D01*
X0355274Y0156125D01*
X0355306Y0156188D01*
X0355342Y0156248D01*
X0355381Y0156306D01*
X0355423Y0156362D01*
X0355468Y0156416D01*
X0355516Y0156467D01*
X0355567Y0156515D01*
X0355621Y0156560D01*
X0355677Y0156602D01*
X0355735Y0156641D01*
X0355795Y0156677D01*
X0355858Y0156709D01*
X0355922Y0156738D01*
X0355987Y0156763D01*
X0356054Y0156784D01*
X0356122Y0156802D01*
X0356191Y0156815D01*
X0356260Y0156825D01*
X0356330Y0156831D01*
X0356400Y0156833D01*
X0356470Y0156831D01*
X0356540Y0156825D01*
X0356609Y0156815D01*
X0356678Y0156802D01*
X0356746Y0156784D01*
X0356813Y0156763D01*
X0356878Y0156738D01*
X0356942Y0156709D01*
X0357005Y0156677D01*
X0357065Y0156641D01*
X0357123Y0156602D01*
X0357179Y0156560D01*
X0357233Y0156515D01*
X0357284Y0156467D01*
X0357332Y0156416D01*
X0357377Y0156362D01*
X0357419Y0156306D01*
X0357458Y0156248D01*
X0357494Y0156188D01*
X0357526Y0156125D01*
X0357555Y0156061D01*
X0357580Y0155996D01*
X0357601Y0155929D01*
X0357619Y0155861D01*
X0357632Y0155792D01*
X0357642Y0155723D01*
X0357648Y0155653D01*
X0357650Y0155583D01*
X0357648Y0155513D01*
X0357642Y0155443D01*
X0357632Y0155374D01*
X0357619Y0155305D01*
X0357601Y0155237D01*
X0357580Y0155170D01*
X0357555Y0155105D01*
X0357526Y0155041D01*
X0357494Y0154978D01*
X0357458Y0154918D01*
X0357419Y0154860D01*
X0357377Y0154804D01*
X0357332Y0154750D01*
X0357284Y0154699D01*
X0357233Y0154651D01*
X0357179Y0154606D01*
X0357123Y0154564D01*
X0357065Y0154525D01*
X0357005Y0154489D01*
X0356942Y0154457D01*
X0356878Y0154428D01*
X0356813Y0154403D01*
X0356746Y0154382D01*
X0356678Y0154364D01*
X0356609Y0154351D01*
X0356540Y0154341D01*
X0356470Y0154335D01*
X0356400Y0154333D01*
X0356330Y0154335D01*
X0356260Y0154341D01*
X0356191Y0154351D01*
X0356122Y0154364D01*
X0356054Y0154382D01*
X0355987Y0154403D01*
X0355922Y0154428D01*
X0355858Y0154457D01*
X0355795Y0154489D01*
X0355735Y0154525D01*
X0355677Y0154564D01*
X0355621Y0154606D01*
X0355567Y0154651D01*
X0355516Y0154699D01*
X0355468Y0154750D01*
X0355423Y0154804D01*
X0355381Y0154860D01*
X0355342Y0154918D01*
X0355306Y0154978D01*
X0355274Y0155041D01*
X0355245Y0155105D01*
X0355220Y0155170D01*
X0355199Y0155237D01*
X0355181Y0155305D01*
X0355168Y0155374D01*
X0355158Y0155443D01*
X0355152Y0155513D01*
X0355150Y0155583D01*
X0355150Y0160683D02*
X0355152Y0160753D01*
X0355158Y0160823D01*
X0355168Y0160892D01*
X0355181Y0160961D01*
X0355199Y0161029D01*
X0355220Y0161096D01*
X0355245Y0161161D01*
X0355274Y0161225D01*
X0355306Y0161288D01*
X0355342Y0161348D01*
X0355381Y0161406D01*
X0355423Y0161462D01*
X0355468Y0161516D01*
X0355516Y0161567D01*
X0355567Y0161615D01*
X0355621Y0161660D01*
X0355677Y0161702D01*
X0355735Y0161741D01*
X0355795Y0161777D01*
X0355858Y0161809D01*
X0355922Y0161838D01*
X0355987Y0161863D01*
X0356054Y0161884D01*
X0356122Y0161902D01*
X0356191Y0161915D01*
X0356260Y0161925D01*
X0356330Y0161931D01*
X0356400Y0161933D01*
X0356470Y0161931D01*
X0356540Y0161925D01*
X0356609Y0161915D01*
X0356678Y0161902D01*
X0356746Y0161884D01*
X0356813Y0161863D01*
X0356878Y0161838D01*
X0356942Y0161809D01*
X0357005Y0161777D01*
X0357065Y0161741D01*
X0357123Y0161702D01*
X0357179Y0161660D01*
X0357233Y0161615D01*
X0357284Y0161567D01*
X0357332Y0161516D01*
X0357377Y0161462D01*
X0357419Y0161406D01*
X0357458Y0161348D01*
X0357494Y0161288D01*
X0357526Y0161225D01*
X0357555Y0161161D01*
X0357580Y0161096D01*
X0357601Y0161029D01*
X0357619Y0160961D01*
X0357632Y0160892D01*
X0357642Y0160823D01*
X0357648Y0160753D01*
X0357650Y0160683D01*
X0357648Y0160613D01*
X0357642Y0160543D01*
X0357632Y0160474D01*
X0357619Y0160405D01*
X0357601Y0160337D01*
X0357580Y0160270D01*
X0357555Y0160205D01*
X0357526Y0160141D01*
X0357494Y0160078D01*
X0357458Y0160018D01*
X0357419Y0159960D01*
X0357377Y0159904D01*
X0357332Y0159850D01*
X0357284Y0159799D01*
X0357233Y0159751D01*
X0357179Y0159706D01*
X0357123Y0159664D01*
X0357065Y0159625D01*
X0357005Y0159589D01*
X0356942Y0159557D01*
X0356878Y0159528D01*
X0356813Y0159503D01*
X0356746Y0159482D01*
X0356678Y0159464D01*
X0356609Y0159451D01*
X0356540Y0159441D01*
X0356470Y0159435D01*
X0356400Y0159433D01*
X0356330Y0159435D01*
X0356260Y0159441D01*
X0356191Y0159451D01*
X0356122Y0159464D01*
X0356054Y0159482D01*
X0355987Y0159503D01*
X0355922Y0159528D01*
X0355858Y0159557D01*
X0355795Y0159589D01*
X0355735Y0159625D01*
X0355677Y0159664D01*
X0355621Y0159706D01*
X0355567Y0159751D01*
X0355516Y0159799D01*
X0355468Y0159850D01*
X0355423Y0159904D01*
X0355381Y0159960D01*
X0355342Y0160018D01*
X0355306Y0160078D01*
X0355274Y0160141D01*
X0355245Y0160205D01*
X0355220Y0160270D01*
X0355199Y0160337D01*
X0355181Y0160405D01*
X0355168Y0160474D01*
X0355158Y0160543D01*
X0355152Y0160613D01*
X0355150Y0160683D01*
X0355150Y0165783D02*
X0355152Y0165853D01*
X0355158Y0165923D01*
X0355168Y0165992D01*
X0355181Y0166061D01*
X0355199Y0166129D01*
X0355220Y0166196D01*
X0355245Y0166261D01*
X0355274Y0166325D01*
X0355306Y0166388D01*
X0355342Y0166448D01*
X0355381Y0166506D01*
X0355423Y0166562D01*
X0355468Y0166616D01*
X0355516Y0166667D01*
X0355567Y0166715D01*
X0355621Y0166760D01*
X0355677Y0166802D01*
X0355735Y0166841D01*
X0355795Y0166877D01*
X0355858Y0166909D01*
X0355922Y0166938D01*
X0355987Y0166963D01*
X0356054Y0166984D01*
X0356122Y0167002D01*
X0356191Y0167015D01*
X0356260Y0167025D01*
X0356330Y0167031D01*
X0356400Y0167033D01*
X0356470Y0167031D01*
X0356540Y0167025D01*
X0356609Y0167015D01*
X0356678Y0167002D01*
X0356746Y0166984D01*
X0356813Y0166963D01*
X0356878Y0166938D01*
X0356942Y0166909D01*
X0357005Y0166877D01*
X0357065Y0166841D01*
X0357123Y0166802D01*
X0357179Y0166760D01*
X0357233Y0166715D01*
X0357284Y0166667D01*
X0357332Y0166616D01*
X0357377Y0166562D01*
X0357419Y0166506D01*
X0357458Y0166448D01*
X0357494Y0166388D01*
X0357526Y0166325D01*
X0357555Y0166261D01*
X0357580Y0166196D01*
X0357601Y0166129D01*
X0357619Y0166061D01*
X0357632Y0165992D01*
X0357642Y0165923D01*
X0357648Y0165853D01*
X0357650Y0165783D01*
X0357648Y0165713D01*
X0357642Y0165643D01*
X0357632Y0165574D01*
X0357619Y0165505D01*
X0357601Y0165437D01*
X0357580Y0165370D01*
X0357555Y0165305D01*
X0357526Y0165241D01*
X0357494Y0165178D01*
X0357458Y0165118D01*
X0357419Y0165060D01*
X0357377Y0165004D01*
X0357332Y0164950D01*
X0357284Y0164899D01*
X0357233Y0164851D01*
X0357179Y0164806D01*
X0357123Y0164764D01*
X0357065Y0164725D01*
X0357005Y0164689D01*
X0356942Y0164657D01*
X0356878Y0164628D01*
X0356813Y0164603D01*
X0356746Y0164582D01*
X0356678Y0164564D01*
X0356609Y0164551D01*
X0356540Y0164541D01*
X0356470Y0164535D01*
X0356400Y0164533D01*
X0356330Y0164535D01*
X0356260Y0164541D01*
X0356191Y0164551D01*
X0356122Y0164564D01*
X0356054Y0164582D01*
X0355987Y0164603D01*
X0355922Y0164628D01*
X0355858Y0164657D01*
X0355795Y0164689D01*
X0355735Y0164725D01*
X0355677Y0164764D01*
X0355621Y0164806D01*
X0355567Y0164851D01*
X0355516Y0164899D01*
X0355468Y0164950D01*
X0355423Y0165004D01*
X0355381Y0165060D01*
X0355342Y0165118D01*
X0355306Y0165178D01*
X0355274Y0165241D01*
X0355245Y0165305D01*
X0355220Y0165370D01*
X0355199Y0165437D01*
X0355181Y0165505D01*
X0355168Y0165574D01*
X0355158Y0165643D01*
X0355152Y0165713D01*
X0355150Y0165783D01*
X0355150Y0170883D02*
X0355152Y0170953D01*
X0355158Y0171023D01*
X0355168Y0171092D01*
X0355181Y0171161D01*
X0355199Y0171229D01*
X0355220Y0171296D01*
X0355245Y0171361D01*
X0355274Y0171425D01*
X0355306Y0171488D01*
X0355342Y0171548D01*
X0355381Y0171606D01*
X0355423Y0171662D01*
X0355468Y0171716D01*
X0355516Y0171767D01*
X0355567Y0171815D01*
X0355621Y0171860D01*
X0355677Y0171902D01*
X0355735Y0171941D01*
X0355795Y0171977D01*
X0355858Y0172009D01*
X0355922Y0172038D01*
X0355987Y0172063D01*
X0356054Y0172084D01*
X0356122Y0172102D01*
X0356191Y0172115D01*
X0356260Y0172125D01*
X0356330Y0172131D01*
X0356400Y0172133D01*
X0356470Y0172131D01*
X0356540Y0172125D01*
X0356609Y0172115D01*
X0356678Y0172102D01*
X0356746Y0172084D01*
X0356813Y0172063D01*
X0356878Y0172038D01*
X0356942Y0172009D01*
X0357005Y0171977D01*
X0357065Y0171941D01*
X0357123Y0171902D01*
X0357179Y0171860D01*
X0357233Y0171815D01*
X0357284Y0171767D01*
X0357332Y0171716D01*
X0357377Y0171662D01*
X0357419Y0171606D01*
X0357458Y0171548D01*
X0357494Y0171488D01*
X0357526Y0171425D01*
X0357555Y0171361D01*
X0357580Y0171296D01*
X0357601Y0171229D01*
X0357619Y0171161D01*
X0357632Y0171092D01*
X0357642Y0171023D01*
X0357648Y0170953D01*
X0357650Y0170883D01*
X0357648Y0170813D01*
X0357642Y0170743D01*
X0357632Y0170674D01*
X0357619Y0170605D01*
X0357601Y0170537D01*
X0357580Y0170470D01*
X0357555Y0170405D01*
X0357526Y0170341D01*
X0357494Y0170278D01*
X0357458Y0170218D01*
X0357419Y0170160D01*
X0357377Y0170104D01*
X0357332Y0170050D01*
X0357284Y0169999D01*
X0357233Y0169951D01*
X0357179Y0169906D01*
X0357123Y0169864D01*
X0357065Y0169825D01*
X0357005Y0169789D01*
X0356942Y0169757D01*
X0356878Y0169728D01*
X0356813Y0169703D01*
X0356746Y0169682D01*
X0356678Y0169664D01*
X0356609Y0169651D01*
X0356540Y0169641D01*
X0356470Y0169635D01*
X0356400Y0169633D01*
X0356330Y0169635D01*
X0356260Y0169641D01*
X0356191Y0169651D01*
X0356122Y0169664D01*
X0356054Y0169682D01*
X0355987Y0169703D01*
X0355922Y0169728D01*
X0355858Y0169757D01*
X0355795Y0169789D01*
X0355735Y0169825D01*
X0355677Y0169864D01*
X0355621Y0169906D01*
X0355567Y0169951D01*
X0355516Y0169999D01*
X0355468Y0170050D01*
X0355423Y0170104D01*
X0355381Y0170160D01*
X0355342Y0170218D01*
X0355306Y0170278D01*
X0355274Y0170341D01*
X0355245Y0170405D01*
X0355220Y0170470D01*
X0355199Y0170537D01*
X0355181Y0170605D01*
X0355168Y0170674D01*
X0355158Y0170743D01*
X0355152Y0170813D01*
X0355150Y0170883D01*
X0355150Y0175983D02*
X0355152Y0176053D01*
X0355158Y0176123D01*
X0355168Y0176192D01*
X0355181Y0176261D01*
X0355199Y0176329D01*
X0355220Y0176396D01*
X0355245Y0176461D01*
X0355274Y0176525D01*
X0355306Y0176588D01*
X0355342Y0176648D01*
X0355381Y0176706D01*
X0355423Y0176762D01*
X0355468Y0176816D01*
X0355516Y0176867D01*
X0355567Y0176915D01*
X0355621Y0176960D01*
X0355677Y0177002D01*
X0355735Y0177041D01*
X0355795Y0177077D01*
X0355858Y0177109D01*
X0355922Y0177138D01*
X0355987Y0177163D01*
X0356054Y0177184D01*
X0356122Y0177202D01*
X0356191Y0177215D01*
X0356260Y0177225D01*
X0356330Y0177231D01*
X0356400Y0177233D01*
X0356470Y0177231D01*
X0356540Y0177225D01*
X0356609Y0177215D01*
X0356678Y0177202D01*
X0356746Y0177184D01*
X0356813Y0177163D01*
X0356878Y0177138D01*
X0356942Y0177109D01*
X0357005Y0177077D01*
X0357065Y0177041D01*
X0357123Y0177002D01*
X0357179Y0176960D01*
X0357233Y0176915D01*
X0357284Y0176867D01*
X0357332Y0176816D01*
X0357377Y0176762D01*
X0357419Y0176706D01*
X0357458Y0176648D01*
X0357494Y0176588D01*
X0357526Y0176525D01*
X0357555Y0176461D01*
X0357580Y0176396D01*
X0357601Y0176329D01*
X0357619Y0176261D01*
X0357632Y0176192D01*
X0357642Y0176123D01*
X0357648Y0176053D01*
X0357650Y0175983D01*
X0357648Y0175913D01*
X0357642Y0175843D01*
X0357632Y0175774D01*
X0357619Y0175705D01*
X0357601Y0175637D01*
X0357580Y0175570D01*
X0357555Y0175505D01*
X0357526Y0175441D01*
X0357494Y0175378D01*
X0357458Y0175318D01*
X0357419Y0175260D01*
X0357377Y0175204D01*
X0357332Y0175150D01*
X0357284Y0175099D01*
X0357233Y0175051D01*
X0357179Y0175006D01*
X0357123Y0174964D01*
X0357065Y0174925D01*
X0357005Y0174889D01*
X0356942Y0174857D01*
X0356878Y0174828D01*
X0356813Y0174803D01*
X0356746Y0174782D01*
X0356678Y0174764D01*
X0356609Y0174751D01*
X0356540Y0174741D01*
X0356470Y0174735D01*
X0356400Y0174733D01*
X0356330Y0174735D01*
X0356260Y0174741D01*
X0356191Y0174751D01*
X0356122Y0174764D01*
X0356054Y0174782D01*
X0355987Y0174803D01*
X0355922Y0174828D01*
X0355858Y0174857D01*
X0355795Y0174889D01*
X0355735Y0174925D01*
X0355677Y0174964D01*
X0355621Y0175006D01*
X0355567Y0175051D01*
X0355516Y0175099D01*
X0355468Y0175150D01*
X0355423Y0175204D01*
X0355381Y0175260D01*
X0355342Y0175318D01*
X0355306Y0175378D01*
X0355274Y0175441D01*
X0355245Y0175505D01*
X0355220Y0175570D01*
X0355199Y0175637D01*
X0355181Y0175705D01*
X0355168Y0175774D01*
X0355158Y0175843D01*
X0355152Y0175913D01*
X0355150Y0175983D01*
X0355150Y0181083D02*
X0355152Y0181153D01*
X0355158Y0181223D01*
X0355168Y0181292D01*
X0355181Y0181361D01*
X0355199Y0181429D01*
X0355220Y0181496D01*
X0355245Y0181561D01*
X0355274Y0181625D01*
X0355306Y0181688D01*
X0355342Y0181748D01*
X0355381Y0181806D01*
X0355423Y0181862D01*
X0355468Y0181916D01*
X0355516Y0181967D01*
X0355567Y0182015D01*
X0355621Y0182060D01*
X0355677Y0182102D01*
X0355735Y0182141D01*
X0355795Y0182177D01*
X0355858Y0182209D01*
X0355922Y0182238D01*
X0355987Y0182263D01*
X0356054Y0182284D01*
X0356122Y0182302D01*
X0356191Y0182315D01*
X0356260Y0182325D01*
X0356330Y0182331D01*
X0356400Y0182333D01*
X0356470Y0182331D01*
X0356540Y0182325D01*
X0356609Y0182315D01*
X0356678Y0182302D01*
X0356746Y0182284D01*
X0356813Y0182263D01*
X0356878Y0182238D01*
X0356942Y0182209D01*
X0357005Y0182177D01*
X0357065Y0182141D01*
X0357123Y0182102D01*
X0357179Y0182060D01*
X0357233Y0182015D01*
X0357284Y0181967D01*
X0357332Y0181916D01*
X0357377Y0181862D01*
X0357419Y0181806D01*
X0357458Y0181748D01*
X0357494Y0181688D01*
X0357526Y0181625D01*
X0357555Y0181561D01*
X0357580Y0181496D01*
X0357601Y0181429D01*
X0357619Y0181361D01*
X0357632Y0181292D01*
X0357642Y0181223D01*
X0357648Y0181153D01*
X0357650Y0181083D01*
X0357648Y0181013D01*
X0357642Y0180943D01*
X0357632Y0180874D01*
X0357619Y0180805D01*
X0357601Y0180737D01*
X0357580Y0180670D01*
X0357555Y0180605D01*
X0357526Y0180541D01*
X0357494Y0180478D01*
X0357458Y0180418D01*
X0357419Y0180360D01*
X0357377Y0180304D01*
X0357332Y0180250D01*
X0357284Y0180199D01*
X0357233Y0180151D01*
X0357179Y0180106D01*
X0357123Y0180064D01*
X0357065Y0180025D01*
X0357005Y0179989D01*
X0356942Y0179957D01*
X0356878Y0179928D01*
X0356813Y0179903D01*
X0356746Y0179882D01*
X0356678Y0179864D01*
X0356609Y0179851D01*
X0356540Y0179841D01*
X0356470Y0179835D01*
X0356400Y0179833D01*
X0356330Y0179835D01*
X0356260Y0179841D01*
X0356191Y0179851D01*
X0356122Y0179864D01*
X0356054Y0179882D01*
X0355987Y0179903D01*
X0355922Y0179928D01*
X0355858Y0179957D01*
X0355795Y0179989D01*
X0355735Y0180025D01*
X0355677Y0180064D01*
X0355621Y0180106D01*
X0355567Y0180151D01*
X0355516Y0180199D01*
X0355468Y0180250D01*
X0355423Y0180304D01*
X0355381Y0180360D01*
X0355342Y0180418D01*
X0355306Y0180478D01*
X0355274Y0180541D01*
X0355245Y0180605D01*
X0355220Y0180670D01*
X0355199Y0180737D01*
X0355181Y0180805D01*
X0355168Y0180874D01*
X0355158Y0180943D01*
X0355152Y0181013D01*
X0355150Y0181083D01*
X0355150Y0186183D02*
X0355152Y0186253D01*
X0355158Y0186323D01*
X0355168Y0186392D01*
X0355181Y0186461D01*
X0355199Y0186529D01*
X0355220Y0186596D01*
X0355245Y0186661D01*
X0355274Y0186725D01*
X0355306Y0186788D01*
X0355342Y0186848D01*
X0355381Y0186906D01*
X0355423Y0186962D01*
X0355468Y0187016D01*
X0355516Y0187067D01*
X0355567Y0187115D01*
X0355621Y0187160D01*
X0355677Y0187202D01*
X0355735Y0187241D01*
X0355795Y0187277D01*
X0355858Y0187309D01*
X0355922Y0187338D01*
X0355987Y0187363D01*
X0356054Y0187384D01*
X0356122Y0187402D01*
X0356191Y0187415D01*
X0356260Y0187425D01*
X0356330Y0187431D01*
X0356400Y0187433D01*
X0356470Y0187431D01*
X0356540Y0187425D01*
X0356609Y0187415D01*
X0356678Y0187402D01*
X0356746Y0187384D01*
X0356813Y0187363D01*
X0356878Y0187338D01*
X0356942Y0187309D01*
X0357005Y0187277D01*
X0357065Y0187241D01*
X0357123Y0187202D01*
X0357179Y0187160D01*
X0357233Y0187115D01*
X0357284Y0187067D01*
X0357332Y0187016D01*
X0357377Y0186962D01*
X0357419Y0186906D01*
X0357458Y0186848D01*
X0357494Y0186788D01*
X0357526Y0186725D01*
X0357555Y0186661D01*
X0357580Y0186596D01*
X0357601Y0186529D01*
X0357619Y0186461D01*
X0357632Y0186392D01*
X0357642Y0186323D01*
X0357648Y0186253D01*
X0357650Y0186183D01*
X0357648Y0186113D01*
X0357642Y0186043D01*
X0357632Y0185974D01*
X0357619Y0185905D01*
X0357601Y0185837D01*
X0357580Y0185770D01*
X0357555Y0185705D01*
X0357526Y0185641D01*
X0357494Y0185578D01*
X0357458Y0185518D01*
X0357419Y0185460D01*
X0357377Y0185404D01*
X0357332Y0185350D01*
X0357284Y0185299D01*
X0357233Y0185251D01*
X0357179Y0185206D01*
X0357123Y0185164D01*
X0357065Y0185125D01*
X0357005Y0185089D01*
X0356942Y0185057D01*
X0356878Y0185028D01*
X0356813Y0185003D01*
X0356746Y0184982D01*
X0356678Y0184964D01*
X0356609Y0184951D01*
X0356540Y0184941D01*
X0356470Y0184935D01*
X0356400Y0184933D01*
X0356330Y0184935D01*
X0356260Y0184941D01*
X0356191Y0184951D01*
X0356122Y0184964D01*
X0356054Y0184982D01*
X0355987Y0185003D01*
X0355922Y0185028D01*
X0355858Y0185057D01*
X0355795Y0185089D01*
X0355735Y0185125D01*
X0355677Y0185164D01*
X0355621Y0185206D01*
X0355567Y0185251D01*
X0355516Y0185299D01*
X0355468Y0185350D01*
X0355423Y0185404D01*
X0355381Y0185460D01*
X0355342Y0185518D01*
X0355306Y0185578D01*
X0355274Y0185641D01*
X0355245Y0185705D01*
X0355220Y0185770D01*
X0355199Y0185837D01*
X0355181Y0185905D01*
X0355168Y0185974D01*
X0355158Y0186043D01*
X0355152Y0186113D01*
X0355150Y0186183D01*
X0355150Y0191283D02*
X0355152Y0191353D01*
X0355158Y0191423D01*
X0355168Y0191492D01*
X0355181Y0191561D01*
X0355199Y0191629D01*
X0355220Y0191696D01*
X0355245Y0191761D01*
X0355274Y0191825D01*
X0355306Y0191888D01*
X0355342Y0191948D01*
X0355381Y0192006D01*
X0355423Y0192062D01*
X0355468Y0192116D01*
X0355516Y0192167D01*
X0355567Y0192215D01*
X0355621Y0192260D01*
X0355677Y0192302D01*
X0355735Y0192341D01*
X0355795Y0192377D01*
X0355858Y0192409D01*
X0355922Y0192438D01*
X0355987Y0192463D01*
X0356054Y0192484D01*
X0356122Y0192502D01*
X0356191Y0192515D01*
X0356260Y0192525D01*
X0356330Y0192531D01*
X0356400Y0192533D01*
X0356470Y0192531D01*
X0356540Y0192525D01*
X0356609Y0192515D01*
X0356678Y0192502D01*
X0356746Y0192484D01*
X0356813Y0192463D01*
X0356878Y0192438D01*
X0356942Y0192409D01*
X0357005Y0192377D01*
X0357065Y0192341D01*
X0357123Y0192302D01*
X0357179Y0192260D01*
X0357233Y0192215D01*
X0357284Y0192167D01*
X0357332Y0192116D01*
X0357377Y0192062D01*
X0357419Y0192006D01*
X0357458Y0191948D01*
X0357494Y0191888D01*
X0357526Y0191825D01*
X0357555Y0191761D01*
X0357580Y0191696D01*
X0357601Y0191629D01*
X0357619Y0191561D01*
X0357632Y0191492D01*
X0357642Y0191423D01*
X0357648Y0191353D01*
X0357650Y0191283D01*
X0357648Y0191213D01*
X0357642Y0191143D01*
X0357632Y0191074D01*
X0357619Y0191005D01*
X0357601Y0190937D01*
X0357580Y0190870D01*
X0357555Y0190805D01*
X0357526Y0190741D01*
X0357494Y0190678D01*
X0357458Y0190618D01*
X0357419Y0190560D01*
X0357377Y0190504D01*
X0357332Y0190450D01*
X0357284Y0190399D01*
X0357233Y0190351D01*
X0357179Y0190306D01*
X0357123Y0190264D01*
X0357065Y0190225D01*
X0357005Y0190189D01*
X0356942Y0190157D01*
X0356878Y0190128D01*
X0356813Y0190103D01*
X0356746Y0190082D01*
X0356678Y0190064D01*
X0356609Y0190051D01*
X0356540Y0190041D01*
X0356470Y0190035D01*
X0356400Y0190033D01*
X0356330Y0190035D01*
X0356260Y0190041D01*
X0356191Y0190051D01*
X0356122Y0190064D01*
X0356054Y0190082D01*
X0355987Y0190103D01*
X0355922Y0190128D01*
X0355858Y0190157D01*
X0355795Y0190189D01*
X0355735Y0190225D01*
X0355677Y0190264D01*
X0355621Y0190306D01*
X0355567Y0190351D01*
X0355516Y0190399D01*
X0355468Y0190450D01*
X0355423Y0190504D01*
X0355381Y0190560D01*
X0355342Y0190618D01*
X0355306Y0190678D01*
X0355274Y0190741D01*
X0355245Y0190805D01*
X0355220Y0190870D01*
X0355199Y0190937D01*
X0355181Y0191005D01*
X0355168Y0191074D01*
X0355158Y0191143D01*
X0355152Y0191213D01*
X0355150Y0191283D01*
X0355150Y0196383D02*
X0355152Y0196453D01*
X0355158Y0196523D01*
X0355168Y0196592D01*
X0355181Y0196661D01*
X0355199Y0196729D01*
X0355220Y0196796D01*
X0355245Y0196861D01*
X0355274Y0196925D01*
X0355306Y0196988D01*
X0355342Y0197048D01*
X0355381Y0197106D01*
X0355423Y0197162D01*
X0355468Y0197216D01*
X0355516Y0197267D01*
X0355567Y0197315D01*
X0355621Y0197360D01*
X0355677Y0197402D01*
X0355735Y0197441D01*
X0355795Y0197477D01*
X0355858Y0197509D01*
X0355922Y0197538D01*
X0355987Y0197563D01*
X0356054Y0197584D01*
X0356122Y0197602D01*
X0356191Y0197615D01*
X0356260Y0197625D01*
X0356330Y0197631D01*
X0356400Y0197633D01*
X0356470Y0197631D01*
X0356540Y0197625D01*
X0356609Y0197615D01*
X0356678Y0197602D01*
X0356746Y0197584D01*
X0356813Y0197563D01*
X0356878Y0197538D01*
X0356942Y0197509D01*
X0357005Y0197477D01*
X0357065Y0197441D01*
X0357123Y0197402D01*
X0357179Y0197360D01*
X0357233Y0197315D01*
X0357284Y0197267D01*
X0357332Y0197216D01*
X0357377Y0197162D01*
X0357419Y0197106D01*
X0357458Y0197048D01*
X0357494Y0196988D01*
X0357526Y0196925D01*
X0357555Y0196861D01*
X0357580Y0196796D01*
X0357601Y0196729D01*
X0357619Y0196661D01*
X0357632Y0196592D01*
X0357642Y0196523D01*
X0357648Y0196453D01*
X0357650Y0196383D01*
X0357648Y0196313D01*
X0357642Y0196243D01*
X0357632Y0196174D01*
X0357619Y0196105D01*
X0357601Y0196037D01*
X0357580Y0195970D01*
X0357555Y0195905D01*
X0357526Y0195841D01*
X0357494Y0195778D01*
X0357458Y0195718D01*
X0357419Y0195660D01*
X0357377Y0195604D01*
X0357332Y0195550D01*
X0357284Y0195499D01*
X0357233Y0195451D01*
X0357179Y0195406D01*
X0357123Y0195364D01*
X0357065Y0195325D01*
X0357005Y0195289D01*
X0356942Y0195257D01*
X0356878Y0195228D01*
X0356813Y0195203D01*
X0356746Y0195182D01*
X0356678Y0195164D01*
X0356609Y0195151D01*
X0356540Y0195141D01*
X0356470Y0195135D01*
X0356400Y0195133D01*
X0356330Y0195135D01*
X0356260Y0195141D01*
X0356191Y0195151D01*
X0356122Y0195164D01*
X0356054Y0195182D01*
X0355987Y0195203D01*
X0355922Y0195228D01*
X0355858Y0195257D01*
X0355795Y0195289D01*
X0355735Y0195325D01*
X0355677Y0195364D01*
X0355621Y0195406D01*
X0355567Y0195451D01*
X0355516Y0195499D01*
X0355468Y0195550D01*
X0355423Y0195604D01*
X0355381Y0195660D01*
X0355342Y0195718D01*
X0355306Y0195778D01*
X0355274Y0195841D01*
X0355245Y0195905D01*
X0355220Y0195970D01*
X0355199Y0196037D01*
X0355181Y0196105D01*
X0355168Y0196174D01*
X0355158Y0196243D01*
X0355152Y0196313D01*
X0355150Y0196383D01*
X0355150Y0201483D02*
X0355152Y0201553D01*
X0355158Y0201623D01*
X0355168Y0201692D01*
X0355181Y0201761D01*
X0355199Y0201829D01*
X0355220Y0201896D01*
X0355245Y0201961D01*
X0355274Y0202025D01*
X0355306Y0202088D01*
X0355342Y0202148D01*
X0355381Y0202206D01*
X0355423Y0202262D01*
X0355468Y0202316D01*
X0355516Y0202367D01*
X0355567Y0202415D01*
X0355621Y0202460D01*
X0355677Y0202502D01*
X0355735Y0202541D01*
X0355795Y0202577D01*
X0355858Y0202609D01*
X0355922Y0202638D01*
X0355987Y0202663D01*
X0356054Y0202684D01*
X0356122Y0202702D01*
X0356191Y0202715D01*
X0356260Y0202725D01*
X0356330Y0202731D01*
X0356400Y0202733D01*
X0356470Y0202731D01*
X0356540Y0202725D01*
X0356609Y0202715D01*
X0356678Y0202702D01*
X0356746Y0202684D01*
X0356813Y0202663D01*
X0356878Y0202638D01*
X0356942Y0202609D01*
X0357005Y0202577D01*
X0357065Y0202541D01*
X0357123Y0202502D01*
X0357179Y0202460D01*
X0357233Y0202415D01*
X0357284Y0202367D01*
X0357332Y0202316D01*
X0357377Y0202262D01*
X0357419Y0202206D01*
X0357458Y0202148D01*
X0357494Y0202088D01*
X0357526Y0202025D01*
X0357555Y0201961D01*
X0357580Y0201896D01*
X0357601Y0201829D01*
X0357619Y0201761D01*
X0357632Y0201692D01*
X0357642Y0201623D01*
X0357648Y0201553D01*
X0357650Y0201483D01*
X0357648Y0201413D01*
X0357642Y0201343D01*
X0357632Y0201274D01*
X0357619Y0201205D01*
X0357601Y0201137D01*
X0357580Y0201070D01*
X0357555Y0201005D01*
X0357526Y0200941D01*
X0357494Y0200878D01*
X0357458Y0200818D01*
X0357419Y0200760D01*
X0357377Y0200704D01*
X0357332Y0200650D01*
X0357284Y0200599D01*
X0357233Y0200551D01*
X0357179Y0200506D01*
X0357123Y0200464D01*
X0357065Y0200425D01*
X0357005Y0200389D01*
X0356942Y0200357D01*
X0356878Y0200328D01*
X0356813Y0200303D01*
X0356746Y0200282D01*
X0356678Y0200264D01*
X0356609Y0200251D01*
X0356540Y0200241D01*
X0356470Y0200235D01*
X0356400Y0200233D01*
X0356330Y0200235D01*
X0356260Y0200241D01*
X0356191Y0200251D01*
X0356122Y0200264D01*
X0356054Y0200282D01*
X0355987Y0200303D01*
X0355922Y0200328D01*
X0355858Y0200357D01*
X0355795Y0200389D01*
X0355735Y0200425D01*
X0355677Y0200464D01*
X0355621Y0200506D01*
X0355567Y0200551D01*
X0355516Y0200599D01*
X0355468Y0200650D01*
X0355423Y0200704D01*
X0355381Y0200760D01*
X0355342Y0200818D01*
X0355306Y0200878D01*
X0355274Y0200941D01*
X0355245Y0201005D01*
X0355220Y0201070D01*
X0355199Y0201137D01*
X0355181Y0201205D01*
X0355168Y0201274D01*
X0355158Y0201343D01*
X0355152Y0201413D01*
X0355150Y0201483D01*
X0355150Y0206583D02*
X0355152Y0206653D01*
X0355158Y0206723D01*
X0355168Y0206792D01*
X0355181Y0206861D01*
X0355199Y0206929D01*
X0355220Y0206996D01*
X0355245Y0207061D01*
X0355274Y0207125D01*
X0355306Y0207188D01*
X0355342Y0207248D01*
X0355381Y0207306D01*
X0355423Y0207362D01*
X0355468Y0207416D01*
X0355516Y0207467D01*
X0355567Y0207515D01*
X0355621Y0207560D01*
X0355677Y0207602D01*
X0355735Y0207641D01*
X0355795Y0207677D01*
X0355858Y0207709D01*
X0355922Y0207738D01*
X0355987Y0207763D01*
X0356054Y0207784D01*
X0356122Y0207802D01*
X0356191Y0207815D01*
X0356260Y0207825D01*
X0356330Y0207831D01*
X0356400Y0207833D01*
X0356470Y0207831D01*
X0356540Y0207825D01*
X0356609Y0207815D01*
X0356678Y0207802D01*
X0356746Y0207784D01*
X0356813Y0207763D01*
X0356878Y0207738D01*
X0356942Y0207709D01*
X0357005Y0207677D01*
X0357065Y0207641D01*
X0357123Y0207602D01*
X0357179Y0207560D01*
X0357233Y0207515D01*
X0357284Y0207467D01*
X0357332Y0207416D01*
X0357377Y0207362D01*
X0357419Y0207306D01*
X0357458Y0207248D01*
X0357494Y0207188D01*
X0357526Y0207125D01*
X0357555Y0207061D01*
X0357580Y0206996D01*
X0357601Y0206929D01*
X0357619Y0206861D01*
X0357632Y0206792D01*
X0357642Y0206723D01*
X0357648Y0206653D01*
X0357650Y0206583D01*
X0357648Y0206513D01*
X0357642Y0206443D01*
X0357632Y0206374D01*
X0357619Y0206305D01*
X0357601Y0206237D01*
X0357580Y0206170D01*
X0357555Y0206105D01*
X0357526Y0206041D01*
X0357494Y0205978D01*
X0357458Y0205918D01*
X0357419Y0205860D01*
X0357377Y0205804D01*
X0357332Y0205750D01*
X0357284Y0205699D01*
X0357233Y0205651D01*
X0357179Y0205606D01*
X0357123Y0205564D01*
X0357065Y0205525D01*
X0357005Y0205489D01*
X0356942Y0205457D01*
X0356878Y0205428D01*
X0356813Y0205403D01*
X0356746Y0205382D01*
X0356678Y0205364D01*
X0356609Y0205351D01*
X0356540Y0205341D01*
X0356470Y0205335D01*
X0356400Y0205333D01*
X0356330Y0205335D01*
X0356260Y0205341D01*
X0356191Y0205351D01*
X0356122Y0205364D01*
X0356054Y0205382D01*
X0355987Y0205403D01*
X0355922Y0205428D01*
X0355858Y0205457D01*
X0355795Y0205489D01*
X0355735Y0205525D01*
X0355677Y0205564D01*
X0355621Y0205606D01*
X0355567Y0205651D01*
X0355516Y0205699D01*
X0355468Y0205750D01*
X0355423Y0205804D01*
X0355381Y0205860D01*
X0355342Y0205918D01*
X0355306Y0205978D01*
X0355274Y0206041D01*
X0355245Y0206105D01*
X0355220Y0206170D01*
X0355199Y0206237D01*
X0355181Y0206305D01*
X0355168Y0206374D01*
X0355158Y0206443D01*
X0355152Y0206513D01*
X0355150Y0206583D01*
X0355150Y0211683D02*
X0355152Y0211753D01*
X0355158Y0211823D01*
X0355168Y0211892D01*
X0355181Y0211961D01*
X0355199Y0212029D01*
X0355220Y0212096D01*
X0355245Y0212161D01*
X0355274Y0212225D01*
X0355306Y0212288D01*
X0355342Y0212348D01*
X0355381Y0212406D01*
X0355423Y0212462D01*
X0355468Y0212516D01*
X0355516Y0212567D01*
X0355567Y0212615D01*
X0355621Y0212660D01*
X0355677Y0212702D01*
X0355735Y0212741D01*
X0355795Y0212777D01*
X0355858Y0212809D01*
X0355922Y0212838D01*
X0355987Y0212863D01*
X0356054Y0212884D01*
X0356122Y0212902D01*
X0356191Y0212915D01*
X0356260Y0212925D01*
X0356330Y0212931D01*
X0356400Y0212933D01*
X0356470Y0212931D01*
X0356540Y0212925D01*
X0356609Y0212915D01*
X0356678Y0212902D01*
X0356746Y0212884D01*
X0356813Y0212863D01*
X0356878Y0212838D01*
X0356942Y0212809D01*
X0357005Y0212777D01*
X0357065Y0212741D01*
X0357123Y0212702D01*
X0357179Y0212660D01*
X0357233Y0212615D01*
X0357284Y0212567D01*
X0357332Y0212516D01*
X0357377Y0212462D01*
X0357419Y0212406D01*
X0357458Y0212348D01*
X0357494Y0212288D01*
X0357526Y0212225D01*
X0357555Y0212161D01*
X0357580Y0212096D01*
X0357601Y0212029D01*
X0357619Y0211961D01*
X0357632Y0211892D01*
X0357642Y0211823D01*
X0357648Y0211753D01*
X0357650Y0211683D01*
X0357648Y0211613D01*
X0357642Y0211543D01*
X0357632Y0211474D01*
X0357619Y0211405D01*
X0357601Y0211337D01*
X0357580Y0211270D01*
X0357555Y0211205D01*
X0357526Y0211141D01*
X0357494Y0211078D01*
X0357458Y0211018D01*
X0357419Y0210960D01*
X0357377Y0210904D01*
X0357332Y0210850D01*
X0357284Y0210799D01*
X0357233Y0210751D01*
X0357179Y0210706D01*
X0357123Y0210664D01*
X0357065Y0210625D01*
X0357005Y0210589D01*
X0356942Y0210557D01*
X0356878Y0210528D01*
X0356813Y0210503D01*
X0356746Y0210482D01*
X0356678Y0210464D01*
X0356609Y0210451D01*
X0356540Y0210441D01*
X0356470Y0210435D01*
X0356400Y0210433D01*
X0356330Y0210435D01*
X0356260Y0210441D01*
X0356191Y0210451D01*
X0356122Y0210464D01*
X0356054Y0210482D01*
X0355987Y0210503D01*
X0355922Y0210528D01*
X0355858Y0210557D01*
X0355795Y0210589D01*
X0355735Y0210625D01*
X0355677Y0210664D01*
X0355621Y0210706D01*
X0355567Y0210751D01*
X0355516Y0210799D01*
X0355468Y0210850D01*
X0355423Y0210904D01*
X0355381Y0210960D01*
X0355342Y0211018D01*
X0355306Y0211078D01*
X0355274Y0211141D01*
X0355245Y0211205D01*
X0355220Y0211270D01*
X0355199Y0211337D01*
X0355181Y0211405D01*
X0355168Y0211474D01*
X0355158Y0211543D01*
X0355152Y0211613D01*
X0355150Y0211683D01*
X0355150Y0216783D02*
X0355152Y0216853D01*
X0355158Y0216923D01*
X0355168Y0216992D01*
X0355181Y0217061D01*
X0355199Y0217129D01*
X0355220Y0217196D01*
X0355245Y0217261D01*
X0355274Y0217325D01*
X0355306Y0217388D01*
X0355342Y0217448D01*
X0355381Y0217506D01*
X0355423Y0217562D01*
X0355468Y0217616D01*
X0355516Y0217667D01*
X0355567Y0217715D01*
X0355621Y0217760D01*
X0355677Y0217802D01*
X0355735Y0217841D01*
X0355795Y0217877D01*
X0355858Y0217909D01*
X0355922Y0217938D01*
X0355987Y0217963D01*
X0356054Y0217984D01*
X0356122Y0218002D01*
X0356191Y0218015D01*
X0356260Y0218025D01*
X0356330Y0218031D01*
X0356400Y0218033D01*
X0356470Y0218031D01*
X0356540Y0218025D01*
X0356609Y0218015D01*
X0356678Y0218002D01*
X0356746Y0217984D01*
X0356813Y0217963D01*
X0356878Y0217938D01*
X0356942Y0217909D01*
X0357005Y0217877D01*
X0357065Y0217841D01*
X0357123Y0217802D01*
X0357179Y0217760D01*
X0357233Y0217715D01*
X0357284Y0217667D01*
X0357332Y0217616D01*
X0357377Y0217562D01*
X0357419Y0217506D01*
X0357458Y0217448D01*
X0357494Y0217388D01*
X0357526Y0217325D01*
X0357555Y0217261D01*
X0357580Y0217196D01*
X0357601Y0217129D01*
X0357619Y0217061D01*
X0357632Y0216992D01*
X0357642Y0216923D01*
X0357648Y0216853D01*
X0357650Y0216783D01*
X0357648Y0216713D01*
X0357642Y0216643D01*
X0357632Y0216574D01*
X0357619Y0216505D01*
X0357601Y0216437D01*
X0357580Y0216370D01*
X0357555Y0216305D01*
X0357526Y0216241D01*
X0357494Y0216178D01*
X0357458Y0216118D01*
X0357419Y0216060D01*
X0357377Y0216004D01*
X0357332Y0215950D01*
X0357284Y0215899D01*
X0357233Y0215851D01*
X0357179Y0215806D01*
X0357123Y0215764D01*
X0357065Y0215725D01*
X0357005Y0215689D01*
X0356942Y0215657D01*
X0356878Y0215628D01*
X0356813Y0215603D01*
X0356746Y0215582D01*
X0356678Y0215564D01*
X0356609Y0215551D01*
X0356540Y0215541D01*
X0356470Y0215535D01*
X0356400Y0215533D01*
X0356330Y0215535D01*
X0356260Y0215541D01*
X0356191Y0215551D01*
X0356122Y0215564D01*
X0356054Y0215582D01*
X0355987Y0215603D01*
X0355922Y0215628D01*
X0355858Y0215657D01*
X0355795Y0215689D01*
X0355735Y0215725D01*
X0355677Y0215764D01*
X0355621Y0215806D01*
X0355567Y0215851D01*
X0355516Y0215899D01*
X0355468Y0215950D01*
X0355423Y0216004D01*
X0355381Y0216060D01*
X0355342Y0216118D01*
X0355306Y0216178D01*
X0355274Y0216241D01*
X0355245Y0216305D01*
X0355220Y0216370D01*
X0355199Y0216437D01*
X0355181Y0216505D01*
X0355168Y0216574D01*
X0355158Y0216643D01*
X0355152Y0216713D01*
X0355150Y0216783D01*
X0355150Y0221883D02*
X0355152Y0221953D01*
X0355158Y0222023D01*
X0355168Y0222092D01*
X0355181Y0222161D01*
X0355199Y0222229D01*
X0355220Y0222296D01*
X0355245Y0222361D01*
X0355274Y0222425D01*
X0355306Y0222488D01*
X0355342Y0222548D01*
X0355381Y0222606D01*
X0355423Y0222662D01*
X0355468Y0222716D01*
X0355516Y0222767D01*
X0355567Y0222815D01*
X0355621Y0222860D01*
X0355677Y0222902D01*
X0355735Y0222941D01*
X0355795Y0222977D01*
X0355858Y0223009D01*
X0355922Y0223038D01*
X0355987Y0223063D01*
X0356054Y0223084D01*
X0356122Y0223102D01*
X0356191Y0223115D01*
X0356260Y0223125D01*
X0356330Y0223131D01*
X0356400Y0223133D01*
X0356470Y0223131D01*
X0356540Y0223125D01*
X0356609Y0223115D01*
X0356678Y0223102D01*
X0356746Y0223084D01*
X0356813Y0223063D01*
X0356878Y0223038D01*
X0356942Y0223009D01*
X0357005Y0222977D01*
X0357065Y0222941D01*
X0357123Y0222902D01*
X0357179Y0222860D01*
X0357233Y0222815D01*
X0357284Y0222767D01*
X0357332Y0222716D01*
X0357377Y0222662D01*
X0357419Y0222606D01*
X0357458Y0222548D01*
X0357494Y0222488D01*
X0357526Y0222425D01*
X0357555Y0222361D01*
X0357580Y0222296D01*
X0357601Y0222229D01*
X0357619Y0222161D01*
X0357632Y0222092D01*
X0357642Y0222023D01*
X0357648Y0221953D01*
X0357650Y0221883D01*
X0357648Y0221813D01*
X0357642Y0221743D01*
X0357632Y0221674D01*
X0357619Y0221605D01*
X0357601Y0221537D01*
X0357580Y0221470D01*
X0357555Y0221405D01*
X0357526Y0221341D01*
X0357494Y0221278D01*
X0357458Y0221218D01*
X0357419Y0221160D01*
X0357377Y0221104D01*
X0357332Y0221050D01*
X0357284Y0220999D01*
X0357233Y0220951D01*
X0357179Y0220906D01*
X0357123Y0220864D01*
X0357065Y0220825D01*
X0357005Y0220789D01*
X0356942Y0220757D01*
X0356878Y0220728D01*
X0356813Y0220703D01*
X0356746Y0220682D01*
X0356678Y0220664D01*
X0356609Y0220651D01*
X0356540Y0220641D01*
X0356470Y0220635D01*
X0356400Y0220633D01*
X0356330Y0220635D01*
X0356260Y0220641D01*
X0356191Y0220651D01*
X0356122Y0220664D01*
X0356054Y0220682D01*
X0355987Y0220703D01*
X0355922Y0220728D01*
X0355858Y0220757D01*
X0355795Y0220789D01*
X0355735Y0220825D01*
X0355677Y0220864D01*
X0355621Y0220906D01*
X0355567Y0220951D01*
X0355516Y0220999D01*
X0355468Y0221050D01*
X0355423Y0221104D01*
X0355381Y0221160D01*
X0355342Y0221218D01*
X0355306Y0221278D01*
X0355274Y0221341D01*
X0355245Y0221405D01*
X0355220Y0221470D01*
X0355199Y0221537D01*
X0355181Y0221605D01*
X0355168Y0221674D01*
X0355158Y0221743D01*
X0355152Y0221813D01*
X0355150Y0221883D01*
X0355150Y0226983D02*
X0355152Y0227053D01*
X0355158Y0227123D01*
X0355168Y0227192D01*
X0355181Y0227261D01*
X0355199Y0227329D01*
X0355220Y0227396D01*
X0355245Y0227461D01*
X0355274Y0227525D01*
X0355306Y0227588D01*
X0355342Y0227648D01*
X0355381Y0227706D01*
X0355423Y0227762D01*
X0355468Y0227816D01*
X0355516Y0227867D01*
X0355567Y0227915D01*
X0355621Y0227960D01*
X0355677Y0228002D01*
X0355735Y0228041D01*
X0355795Y0228077D01*
X0355858Y0228109D01*
X0355922Y0228138D01*
X0355987Y0228163D01*
X0356054Y0228184D01*
X0356122Y0228202D01*
X0356191Y0228215D01*
X0356260Y0228225D01*
X0356330Y0228231D01*
X0356400Y0228233D01*
X0356470Y0228231D01*
X0356540Y0228225D01*
X0356609Y0228215D01*
X0356678Y0228202D01*
X0356746Y0228184D01*
X0356813Y0228163D01*
X0356878Y0228138D01*
X0356942Y0228109D01*
X0357005Y0228077D01*
X0357065Y0228041D01*
X0357123Y0228002D01*
X0357179Y0227960D01*
X0357233Y0227915D01*
X0357284Y0227867D01*
X0357332Y0227816D01*
X0357377Y0227762D01*
X0357419Y0227706D01*
X0357458Y0227648D01*
X0357494Y0227588D01*
X0357526Y0227525D01*
X0357555Y0227461D01*
X0357580Y0227396D01*
X0357601Y0227329D01*
X0357619Y0227261D01*
X0357632Y0227192D01*
X0357642Y0227123D01*
X0357648Y0227053D01*
X0357650Y0226983D01*
X0357648Y0226913D01*
X0357642Y0226843D01*
X0357632Y0226774D01*
X0357619Y0226705D01*
X0357601Y0226637D01*
X0357580Y0226570D01*
X0357555Y0226505D01*
X0357526Y0226441D01*
X0357494Y0226378D01*
X0357458Y0226318D01*
X0357419Y0226260D01*
X0357377Y0226204D01*
X0357332Y0226150D01*
X0357284Y0226099D01*
X0357233Y0226051D01*
X0357179Y0226006D01*
X0357123Y0225964D01*
X0357065Y0225925D01*
X0357005Y0225889D01*
X0356942Y0225857D01*
X0356878Y0225828D01*
X0356813Y0225803D01*
X0356746Y0225782D01*
X0356678Y0225764D01*
X0356609Y0225751D01*
X0356540Y0225741D01*
X0356470Y0225735D01*
X0356400Y0225733D01*
X0356330Y0225735D01*
X0356260Y0225741D01*
X0356191Y0225751D01*
X0356122Y0225764D01*
X0356054Y0225782D01*
X0355987Y0225803D01*
X0355922Y0225828D01*
X0355858Y0225857D01*
X0355795Y0225889D01*
X0355735Y0225925D01*
X0355677Y0225964D01*
X0355621Y0226006D01*
X0355567Y0226051D01*
X0355516Y0226099D01*
X0355468Y0226150D01*
X0355423Y0226204D01*
X0355381Y0226260D01*
X0355342Y0226318D01*
X0355306Y0226378D01*
X0355274Y0226441D01*
X0355245Y0226505D01*
X0355220Y0226570D01*
X0355199Y0226637D01*
X0355181Y0226705D01*
X0355168Y0226774D01*
X0355158Y0226843D01*
X0355152Y0226913D01*
X0355150Y0226983D01*
X0355150Y0232083D02*
X0355152Y0232153D01*
X0355158Y0232223D01*
X0355168Y0232292D01*
X0355181Y0232361D01*
X0355199Y0232429D01*
X0355220Y0232496D01*
X0355245Y0232561D01*
X0355274Y0232625D01*
X0355306Y0232688D01*
X0355342Y0232748D01*
X0355381Y0232806D01*
X0355423Y0232862D01*
X0355468Y0232916D01*
X0355516Y0232967D01*
X0355567Y0233015D01*
X0355621Y0233060D01*
X0355677Y0233102D01*
X0355735Y0233141D01*
X0355795Y0233177D01*
X0355858Y0233209D01*
X0355922Y0233238D01*
X0355987Y0233263D01*
X0356054Y0233284D01*
X0356122Y0233302D01*
X0356191Y0233315D01*
X0356260Y0233325D01*
X0356330Y0233331D01*
X0356400Y0233333D01*
X0356470Y0233331D01*
X0356540Y0233325D01*
X0356609Y0233315D01*
X0356678Y0233302D01*
X0356746Y0233284D01*
X0356813Y0233263D01*
X0356878Y0233238D01*
X0356942Y0233209D01*
X0357005Y0233177D01*
X0357065Y0233141D01*
X0357123Y0233102D01*
X0357179Y0233060D01*
X0357233Y0233015D01*
X0357284Y0232967D01*
X0357332Y0232916D01*
X0357377Y0232862D01*
X0357419Y0232806D01*
X0357458Y0232748D01*
X0357494Y0232688D01*
X0357526Y0232625D01*
X0357555Y0232561D01*
X0357580Y0232496D01*
X0357601Y0232429D01*
X0357619Y0232361D01*
X0357632Y0232292D01*
X0357642Y0232223D01*
X0357648Y0232153D01*
X0357650Y0232083D01*
X0357648Y0232013D01*
X0357642Y0231943D01*
X0357632Y0231874D01*
X0357619Y0231805D01*
X0357601Y0231737D01*
X0357580Y0231670D01*
X0357555Y0231605D01*
X0357526Y0231541D01*
X0357494Y0231478D01*
X0357458Y0231418D01*
X0357419Y0231360D01*
X0357377Y0231304D01*
X0357332Y0231250D01*
X0357284Y0231199D01*
X0357233Y0231151D01*
X0357179Y0231106D01*
X0357123Y0231064D01*
X0357065Y0231025D01*
X0357005Y0230989D01*
X0356942Y0230957D01*
X0356878Y0230928D01*
X0356813Y0230903D01*
X0356746Y0230882D01*
X0356678Y0230864D01*
X0356609Y0230851D01*
X0356540Y0230841D01*
X0356470Y0230835D01*
X0356400Y0230833D01*
X0356330Y0230835D01*
X0356260Y0230841D01*
X0356191Y0230851D01*
X0356122Y0230864D01*
X0356054Y0230882D01*
X0355987Y0230903D01*
X0355922Y0230928D01*
X0355858Y0230957D01*
X0355795Y0230989D01*
X0355735Y0231025D01*
X0355677Y0231064D01*
X0355621Y0231106D01*
X0355567Y0231151D01*
X0355516Y0231199D01*
X0355468Y0231250D01*
X0355423Y0231304D01*
X0355381Y0231360D01*
X0355342Y0231418D01*
X0355306Y0231478D01*
X0355274Y0231541D01*
X0355245Y0231605D01*
X0355220Y0231670D01*
X0355199Y0231737D01*
X0355181Y0231805D01*
X0355168Y0231874D01*
X0355158Y0231943D01*
X0355152Y0232013D01*
X0355150Y0232083D01*
X0355150Y0237183D02*
X0355152Y0237253D01*
X0355158Y0237323D01*
X0355168Y0237392D01*
X0355181Y0237461D01*
X0355199Y0237529D01*
X0355220Y0237596D01*
X0355245Y0237661D01*
X0355274Y0237725D01*
X0355306Y0237788D01*
X0355342Y0237848D01*
X0355381Y0237906D01*
X0355423Y0237962D01*
X0355468Y0238016D01*
X0355516Y0238067D01*
X0355567Y0238115D01*
X0355621Y0238160D01*
X0355677Y0238202D01*
X0355735Y0238241D01*
X0355795Y0238277D01*
X0355858Y0238309D01*
X0355922Y0238338D01*
X0355987Y0238363D01*
X0356054Y0238384D01*
X0356122Y0238402D01*
X0356191Y0238415D01*
X0356260Y0238425D01*
X0356330Y0238431D01*
X0356400Y0238433D01*
X0356470Y0238431D01*
X0356540Y0238425D01*
X0356609Y0238415D01*
X0356678Y0238402D01*
X0356746Y0238384D01*
X0356813Y0238363D01*
X0356878Y0238338D01*
X0356942Y0238309D01*
X0357005Y0238277D01*
X0357065Y0238241D01*
X0357123Y0238202D01*
X0357179Y0238160D01*
X0357233Y0238115D01*
X0357284Y0238067D01*
X0357332Y0238016D01*
X0357377Y0237962D01*
X0357419Y0237906D01*
X0357458Y0237848D01*
X0357494Y0237788D01*
X0357526Y0237725D01*
X0357555Y0237661D01*
X0357580Y0237596D01*
X0357601Y0237529D01*
X0357619Y0237461D01*
X0357632Y0237392D01*
X0357642Y0237323D01*
X0357648Y0237253D01*
X0357650Y0237183D01*
X0357648Y0237113D01*
X0357642Y0237043D01*
X0357632Y0236974D01*
X0357619Y0236905D01*
X0357601Y0236837D01*
X0357580Y0236770D01*
X0357555Y0236705D01*
X0357526Y0236641D01*
X0357494Y0236578D01*
X0357458Y0236518D01*
X0357419Y0236460D01*
X0357377Y0236404D01*
X0357332Y0236350D01*
X0357284Y0236299D01*
X0357233Y0236251D01*
X0357179Y0236206D01*
X0357123Y0236164D01*
X0357065Y0236125D01*
X0357005Y0236089D01*
X0356942Y0236057D01*
X0356878Y0236028D01*
X0356813Y0236003D01*
X0356746Y0235982D01*
X0356678Y0235964D01*
X0356609Y0235951D01*
X0356540Y0235941D01*
X0356470Y0235935D01*
X0356400Y0235933D01*
X0356330Y0235935D01*
X0356260Y0235941D01*
X0356191Y0235951D01*
X0356122Y0235964D01*
X0356054Y0235982D01*
X0355987Y0236003D01*
X0355922Y0236028D01*
X0355858Y0236057D01*
X0355795Y0236089D01*
X0355735Y0236125D01*
X0355677Y0236164D01*
X0355621Y0236206D01*
X0355567Y0236251D01*
X0355516Y0236299D01*
X0355468Y0236350D01*
X0355423Y0236404D01*
X0355381Y0236460D01*
X0355342Y0236518D01*
X0355306Y0236578D01*
X0355274Y0236641D01*
X0355245Y0236705D01*
X0355220Y0236770D01*
X0355199Y0236837D01*
X0355181Y0236905D01*
X0355168Y0236974D01*
X0355158Y0237043D01*
X0355152Y0237113D01*
X0355150Y0237183D01*
X0355150Y0242283D02*
X0355152Y0242353D01*
X0355158Y0242423D01*
X0355168Y0242492D01*
X0355181Y0242561D01*
X0355199Y0242629D01*
X0355220Y0242696D01*
X0355245Y0242761D01*
X0355274Y0242825D01*
X0355306Y0242888D01*
X0355342Y0242948D01*
X0355381Y0243006D01*
X0355423Y0243062D01*
X0355468Y0243116D01*
X0355516Y0243167D01*
X0355567Y0243215D01*
X0355621Y0243260D01*
X0355677Y0243302D01*
X0355735Y0243341D01*
X0355795Y0243377D01*
X0355858Y0243409D01*
X0355922Y0243438D01*
X0355987Y0243463D01*
X0356054Y0243484D01*
X0356122Y0243502D01*
X0356191Y0243515D01*
X0356260Y0243525D01*
X0356330Y0243531D01*
X0356400Y0243533D01*
X0356470Y0243531D01*
X0356540Y0243525D01*
X0356609Y0243515D01*
X0356678Y0243502D01*
X0356746Y0243484D01*
X0356813Y0243463D01*
X0356878Y0243438D01*
X0356942Y0243409D01*
X0357005Y0243377D01*
X0357065Y0243341D01*
X0357123Y0243302D01*
X0357179Y0243260D01*
X0357233Y0243215D01*
X0357284Y0243167D01*
X0357332Y0243116D01*
X0357377Y0243062D01*
X0357419Y0243006D01*
X0357458Y0242948D01*
X0357494Y0242888D01*
X0357526Y0242825D01*
X0357555Y0242761D01*
X0357580Y0242696D01*
X0357601Y0242629D01*
X0357619Y0242561D01*
X0357632Y0242492D01*
X0357642Y0242423D01*
X0357648Y0242353D01*
X0357650Y0242283D01*
X0357648Y0242213D01*
X0357642Y0242143D01*
X0357632Y0242074D01*
X0357619Y0242005D01*
X0357601Y0241937D01*
X0357580Y0241870D01*
X0357555Y0241805D01*
X0357526Y0241741D01*
X0357494Y0241678D01*
X0357458Y0241618D01*
X0357419Y0241560D01*
X0357377Y0241504D01*
X0357332Y0241450D01*
X0357284Y0241399D01*
X0357233Y0241351D01*
X0357179Y0241306D01*
X0357123Y0241264D01*
X0357065Y0241225D01*
X0357005Y0241189D01*
X0356942Y0241157D01*
X0356878Y0241128D01*
X0356813Y0241103D01*
X0356746Y0241082D01*
X0356678Y0241064D01*
X0356609Y0241051D01*
X0356540Y0241041D01*
X0356470Y0241035D01*
X0356400Y0241033D01*
X0356330Y0241035D01*
X0356260Y0241041D01*
X0356191Y0241051D01*
X0356122Y0241064D01*
X0356054Y0241082D01*
X0355987Y0241103D01*
X0355922Y0241128D01*
X0355858Y0241157D01*
X0355795Y0241189D01*
X0355735Y0241225D01*
X0355677Y0241264D01*
X0355621Y0241306D01*
X0355567Y0241351D01*
X0355516Y0241399D01*
X0355468Y0241450D01*
X0355423Y0241504D01*
X0355381Y0241560D01*
X0355342Y0241618D01*
X0355306Y0241678D01*
X0355274Y0241741D01*
X0355245Y0241805D01*
X0355220Y0241870D01*
X0355199Y0241937D01*
X0355181Y0242005D01*
X0355168Y0242074D01*
X0355158Y0242143D01*
X0355152Y0242213D01*
X0355150Y0242283D01*
X0355150Y0247383D02*
X0355152Y0247453D01*
X0355158Y0247523D01*
X0355168Y0247592D01*
X0355181Y0247661D01*
X0355199Y0247729D01*
X0355220Y0247796D01*
X0355245Y0247861D01*
X0355274Y0247925D01*
X0355306Y0247988D01*
X0355342Y0248048D01*
X0355381Y0248106D01*
X0355423Y0248162D01*
X0355468Y0248216D01*
X0355516Y0248267D01*
X0355567Y0248315D01*
X0355621Y0248360D01*
X0355677Y0248402D01*
X0355735Y0248441D01*
X0355795Y0248477D01*
X0355858Y0248509D01*
X0355922Y0248538D01*
X0355987Y0248563D01*
X0356054Y0248584D01*
X0356122Y0248602D01*
X0356191Y0248615D01*
X0356260Y0248625D01*
X0356330Y0248631D01*
X0356400Y0248633D01*
X0356470Y0248631D01*
X0356540Y0248625D01*
X0356609Y0248615D01*
X0356678Y0248602D01*
X0356746Y0248584D01*
X0356813Y0248563D01*
X0356878Y0248538D01*
X0356942Y0248509D01*
X0357005Y0248477D01*
X0357065Y0248441D01*
X0357123Y0248402D01*
X0357179Y0248360D01*
X0357233Y0248315D01*
X0357284Y0248267D01*
X0357332Y0248216D01*
X0357377Y0248162D01*
X0357419Y0248106D01*
X0357458Y0248048D01*
X0357494Y0247988D01*
X0357526Y0247925D01*
X0357555Y0247861D01*
X0357580Y0247796D01*
X0357601Y0247729D01*
X0357619Y0247661D01*
X0357632Y0247592D01*
X0357642Y0247523D01*
X0357648Y0247453D01*
X0357650Y0247383D01*
X0357648Y0247313D01*
X0357642Y0247243D01*
X0357632Y0247174D01*
X0357619Y0247105D01*
X0357601Y0247037D01*
X0357580Y0246970D01*
X0357555Y0246905D01*
X0357526Y0246841D01*
X0357494Y0246778D01*
X0357458Y0246718D01*
X0357419Y0246660D01*
X0357377Y0246604D01*
X0357332Y0246550D01*
X0357284Y0246499D01*
X0357233Y0246451D01*
X0357179Y0246406D01*
X0357123Y0246364D01*
X0357065Y0246325D01*
X0357005Y0246289D01*
X0356942Y0246257D01*
X0356878Y0246228D01*
X0356813Y0246203D01*
X0356746Y0246182D01*
X0356678Y0246164D01*
X0356609Y0246151D01*
X0356540Y0246141D01*
X0356470Y0246135D01*
X0356400Y0246133D01*
X0356330Y0246135D01*
X0356260Y0246141D01*
X0356191Y0246151D01*
X0356122Y0246164D01*
X0356054Y0246182D01*
X0355987Y0246203D01*
X0355922Y0246228D01*
X0355858Y0246257D01*
X0355795Y0246289D01*
X0355735Y0246325D01*
X0355677Y0246364D01*
X0355621Y0246406D01*
X0355567Y0246451D01*
X0355516Y0246499D01*
X0355468Y0246550D01*
X0355423Y0246604D01*
X0355381Y0246660D01*
X0355342Y0246718D01*
X0355306Y0246778D01*
X0355274Y0246841D01*
X0355245Y0246905D01*
X0355220Y0246970D01*
X0355199Y0247037D01*
X0355181Y0247105D01*
X0355168Y0247174D01*
X0355158Y0247243D01*
X0355152Y0247313D01*
X0355150Y0247383D01*
X0355150Y0252483D02*
X0355152Y0252553D01*
X0355158Y0252623D01*
X0355168Y0252692D01*
X0355181Y0252761D01*
X0355199Y0252829D01*
X0355220Y0252896D01*
X0355245Y0252961D01*
X0355274Y0253025D01*
X0355306Y0253088D01*
X0355342Y0253148D01*
X0355381Y0253206D01*
X0355423Y0253262D01*
X0355468Y0253316D01*
X0355516Y0253367D01*
X0355567Y0253415D01*
X0355621Y0253460D01*
X0355677Y0253502D01*
X0355735Y0253541D01*
X0355795Y0253577D01*
X0355858Y0253609D01*
X0355922Y0253638D01*
X0355987Y0253663D01*
X0356054Y0253684D01*
X0356122Y0253702D01*
X0356191Y0253715D01*
X0356260Y0253725D01*
X0356330Y0253731D01*
X0356400Y0253733D01*
X0356470Y0253731D01*
X0356540Y0253725D01*
X0356609Y0253715D01*
X0356678Y0253702D01*
X0356746Y0253684D01*
X0356813Y0253663D01*
X0356878Y0253638D01*
X0356942Y0253609D01*
X0357005Y0253577D01*
X0357065Y0253541D01*
X0357123Y0253502D01*
X0357179Y0253460D01*
X0357233Y0253415D01*
X0357284Y0253367D01*
X0357332Y0253316D01*
X0357377Y0253262D01*
X0357419Y0253206D01*
X0357458Y0253148D01*
X0357494Y0253088D01*
X0357526Y0253025D01*
X0357555Y0252961D01*
X0357580Y0252896D01*
X0357601Y0252829D01*
X0357619Y0252761D01*
X0357632Y0252692D01*
X0357642Y0252623D01*
X0357648Y0252553D01*
X0357650Y0252483D01*
X0357648Y0252413D01*
X0357642Y0252343D01*
X0357632Y0252274D01*
X0357619Y0252205D01*
X0357601Y0252137D01*
X0357580Y0252070D01*
X0357555Y0252005D01*
X0357526Y0251941D01*
X0357494Y0251878D01*
X0357458Y0251818D01*
X0357419Y0251760D01*
X0357377Y0251704D01*
X0357332Y0251650D01*
X0357284Y0251599D01*
X0357233Y0251551D01*
X0357179Y0251506D01*
X0357123Y0251464D01*
X0357065Y0251425D01*
X0357005Y0251389D01*
X0356942Y0251357D01*
X0356878Y0251328D01*
X0356813Y0251303D01*
X0356746Y0251282D01*
X0356678Y0251264D01*
X0356609Y0251251D01*
X0356540Y0251241D01*
X0356470Y0251235D01*
X0356400Y0251233D01*
X0356330Y0251235D01*
X0356260Y0251241D01*
X0356191Y0251251D01*
X0356122Y0251264D01*
X0356054Y0251282D01*
X0355987Y0251303D01*
X0355922Y0251328D01*
X0355858Y0251357D01*
X0355795Y0251389D01*
X0355735Y0251425D01*
X0355677Y0251464D01*
X0355621Y0251506D01*
X0355567Y0251551D01*
X0355516Y0251599D01*
X0355468Y0251650D01*
X0355423Y0251704D01*
X0355381Y0251760D01*
X0355342Y0251818D01*
X0355306Y0251878D01*
X0355274Y0251941D01*
X0355245Y0252005D01*
X0355220Y0252070D01*
X0355199Y0252137D01*
X0355181Y0252205D01*
X0355168Y0252274D01*
X0355158Y0252343D01*
X0355152Y0252413D01*
X0355150Y0252483D01*
X0355150Y0257583D02*
X0355152Y0257653D01*
X0355158Y0257723D01*
X0355168Y0257792D01*
X0355181Y0257861D01*
X0355199Y0257929D01*
X0355220Y0257996D01*
X0355245Y0258061D01*
X0355274Y0258125D01*
X0355306Y0258188D01*
X0355342Y0258248D01*
X0355381Y0258306D01*
X0355423Y0258362D01*
X0355468Y0258416D01*
X0355516Y0258467D01*
X0355567Y0258515D01*
X0355621Y0258560D01*
X0355677Y0258602D01*
X0355735Y0258641D01*
X0355795Y0258677D01*
X0355858Y0258709D01*
X0355922Y0258738D01*
X0355987Y0258763D01*
X0356054Y0258784D01*
X0356122Y0258802D01*
X0356191Y0258815D01*
X0356260Y0258825D01*
X0356330Y0258831D01*
X0356400Y0258833D01*
X0356470Y0258831D01*
X0356540Y0258825D01*
X0356609Y0258815D01*
X0356678Y0258802D01*
X0356746Y0258784D01*
X0356813Y0258763D01*
X0356878Y0258738D01*
X0356942Y0258709D01*
X0357005Y0258677D01*
X0357065Y0258641D01*
X0357123Y0258602D01*
X0357179Y0258560D01*
X0357233Y0258515D01*
X0357284Y0258467D01*
X0357332Y0258416D01*
X0357377Y0258362D01*
X0357419Y0258306D01*
X0357458Y0258248D01*
X0357494Y0258188D01*
X0357526Y0258125D01*
X0357555Y0258061D01*
X0357580Y0257996D01*
X0357601Y0257929D01*
X0357619Y0257861D01*
X0357632Y0257792D01*
X0357642Y0257723D01*
X0357648Y0257653D01*
X0357650Y0257583D01*
X0357648Y0257513D01*
X0357642Y0257443D01*
X0357632Y0257374D01*
X0357619Y0257305D01*
X0357601Y0257237D01*
X0357580Y0257170D01*
X0357555Y0257105D01*
X0357526Y0257041D01*
X0357494Y0256978D01*
X0357458Y0256918D01*
X0357419Y0256860D01*
X0357377Y0256804D01*
X0357332Y0256750D01*
X0357284Y0256699D01*
X0357233Y0256651D01*
X0357179Y0256606D01*
X0357123Y0256564D01*
X0357065Y0256525D01*
X0357005Y0256489D01*
X0356942Y0256457D01*
X0356878Y0256428D01*
X0356813Y0256403D01*
X0356746Y0256382D01*
X0356678Y0256364D01*
X0356609Y0256351D01*
X0356540Y0256341D01*
X0356470Y0256335D01*
X0356400Y0256333D01*
X0356330Y0256335D01*
X0356260Y0256341D01*
X0356191Y0256351D01*
X0356122Y0256364D01*
X0356054Y0256382D01*
X0355987Y0256403D01*
X0355922Y0256428D01*
X0355858Y0256457D01*
X0355795Y0256489D01*
X0355735Y0256525D01*
X0355677Y0256564D01*
X0355621Y0256606D01*
X0355567Y0256651D01*
X0355516Y0256699D01*
X0355468Y0256750D01*
X0355423Y0256804D01*
X0355381Y0256860D01*
X0355342Y0256918D01*
X0355306Y0256978D01*
X0355274Y0257041D01*
X0355245Y0257105D01*
X0355220Y0257170D01*
X0355199Y0257237D01*
X0355181Y0257305D01*
X0355168Y0257374D01*
X0355158Y0257443D01*
X0355152Y0257513D01*
X0355150Y0257583D01*
X0355150Y0262683D02*
X0355152Y0262753D01*
X0355158Y0262823D01*
X0355168Y0262892D01*
X0355181Y0262961D01*
X0355199Y0263029D01*
X0355220Y0263096D01*
X0355245Y0263161D01*
X0355274Y0263225D01*
X0355306Y0263288D01*
X0355342Y0263348D01*
X0355381Y0263406D01*
X0355423Y0263462D01*
X0355468Y0263516D01*
X0355516Y0263567D01*
X0355567Y0263615D01*
X0355621Y0263660D01*
X0355677Y0263702D01*
X0355735Y0263741D01*
X0355795Y0263777D01*
X0355858Y0263809D01*
X0355922Y0263838D01*
X0355987Y0263863D01*
X0356054Y0263884D01*
X0356122Y0263902D01*
X0356191Y0263915D01*
X0356260Y0263925D01*
X0356330Y0263931D01*
X0356400Y0263933D01*
X0356470Y0263931D01*
X0356540Y0263925D01*
X0356609Y0263915D01*
X0356678Y0263902D01*
X0356746Y0263884D01*
X0356813Y0263863D01*
X0356878Y0263838D01*
X0356942Y0263809D01*
X0357005Y0263777D01*
X0357065Y0263741D01*
X0357123Y0263702D01*
X0357179Y0263660D01*
X0357233Y0263615D01*
X0357284Y0263567D01*
X0357332Y0263516D01*
X0357377Y0263462D01*
X0357419Y0263406D01*
X0357458Y0263348D01*
X0357494Y0263288D01*
X0357526Y0263225D01*
X0357555Y0263161D01*
X0357580Y0263096D01*
X0357601Y0263029D01*
X0357619Y0262961D01*
X0357632Y0262892D01*
X0357642Y0262823D01*
X0357648Y0262753D01*
X0357650Y0262683D01*
X0357648Y0262613D01*
X0357642Y0262543D01*
X0357632Y0262474D01*
X0357619Y0262405D01*
X0357601Y0262337D01*
X0357580Y0262270D01*
X0357555Y0262205D01*
X0357526Y0262141D01*
X0357494Y0262078D01*
X0357458Y0262018D01*
X0357419Y0261960D01*
X0357377Y0261904D01*
X0357332Y0261850D01*
X0357284Y0261799D01*
X0357233Y0261751D01*
X0357179Y0261706D01*
X0357123Y0261664D01*
X0357065Y0261625D01*
X0357005Y0261589D01*
X0356942Y0261557D01*
X0356878Y0261528D01*
X0356813Y0261503D01*
X0356746Y0261482D01*
X0356678Y0261464D01*
X0356609Y0261451D01*
X0356540Y0261441D01*
X0356470Y0261435D01*
X0356400Y0261433D01*
X0356330Y0261435D01*
X0356260Y0261441D01*
X0356191Y0261451D01*
X0356122Y0261464D01*
X0356054Y0261482D01*
X0355987Y0261503D01*
X0355922Y0261528D01*
X0355858Y0261557D01*
X0355795Y0261589D01*
X0355735Y0261625D01*
X0355677Y0261664D01*
X0355621Y0261706D01*
X0355567Y0261751D01*
X0355516Y0261799D01*
X0355468Y0261850D01*
X0355423Y0261904D01*
X0355381Y0261960D01*
X0355342Y0262018D01*
X0355306Y0262078D01*
X0355274Y0262141D01*
X0355245Y0262205D01*
X0355220Y0262270D01*
X0355199Y0262337D01*
X0355181Y0262405D01*
X0355168Y0262474D01*
X0355158Y0262543D01*
X0355152Y0262613D01*
X0355150Y0262683D01*
X0355150Y0267783D02*
X0355152Y0267853D01*
X0355158Y0267923D01*
X0355168Y0267992D01*
X0355181Y0268061D01*
X0355199Y0268129D01*
X0355220Y0268196D01*
X0355245Y0268261D01*
X0355274Y0268325D01*
X0355306Y0268388D01*
X0355342Y0268448D01*
X0355381Y0268506D01*
X0355423Y0268562D01*
X0355468Y0268616D01*
X0355516Y0268667D01*
X0355567Y0268715D01*
X0355621Y0268760D01*
X0355677Y0268802D01*
X0355735Y0268841D01*
X0355795Y0268877D01*
X0355858Y0268909D01*
X0355922Y0268938D01*
X0355987Y0268963D01*
X0356054Y0268984D01*
X0356122Y0269002D01*
X0356191Y0269015D01*
X0356260Y0269025D01*
X0356330Y0269031D01*
X0356400Y0269033D01*
X0356470Y0269031D01*
X0356540Y0269025D01*
X0356609Y0269015D01*
X0356678Y0269002D01*
X0356746Y0268984D01*
X0356813Y0268963D01*
X0356878Y0268938D01*
X0356942Y0268909D01*
X0357005Y0268877D01*
X0357065Y0268841D01*
X0357123Y0268802D01*
X0357179Y0268760D01*
X0357233Y0268715D01*
X0357284Y0268667D01*
X0357332Y0268616D01*
X0357377Y0268562D01*
X0357419Y0268506D01*
X0357458Y0268448D01*
X0357494Y0268388D01*
X0357526Y0268325D01*
X0357555Y0268261D01*
X0357580Y0268196D01*
X0357601Y0268129D01*
X0357619Y0268061D01*
X0357632Y0267992D01*
X0357642Y0267923D01*
X0357648Y0267853D01*
X0357650Y0267783D01*
X0357648Y0267713D01*
X0357642Y0267643D01*
X0357632Y0267574D01*
X0357619Y0267505D01*
X0357601Y0267437D01*
X0357580Y0267370D01*
X0357555Y0267305D01*
X0357526Y0267241D01*
X0357494Y0267178D01*
X0357458Y0267118D01*
X0357419Y0267060D01*
X0357377Y0267004D01*
X0357332Y0266950D01*
X0357284Y0266899D01*
X0357233Y0266851D01*
X0357179Y0266806D01*
X0357123Y0266764D01*
X0357065Y0266725D01*
X0357005Y0266689D01*
X0356942Y0266657D01*
X0356878Y0266628D01*
X0356813Y0266603D01*
X0356746Y0266582D01*
X0356678Y0266564D01*
X0356609Y0266551D01*
X0356540Y0266541D01*
X0356470Y0266535D01*
X0356400Y0266533D01*
X0356330Y0266535D01*
X0356260Y0266541D01*
X0356191Y0266551D01*
X0356122Y0266564D01*
X0356054Y0266582D01*
X0355987Y0266603D01*
X0355922Y0266628D01*
X0355858Y0266657D01*
X0355795Y0266689D01*
X0355735Y0266725D01*
X0355677Y0266764D01*
X0355621Y0266806D01*
X0355567Y0266851D01*
X0355516Y0266899D01*
X0355468Y0266950D01*
X0355423Y0267004D01*
X0355381Y0267060D01*
X0355342Y0267118D01*
X0355306Y0267178D01*
X0355274Y0267241D01*
X0355245Y0267305D01*
X0355220Y0267370D01*
X0355199Y0267437D01*
X0355181Y0267505D01*
X0355168Y0267574D01*
X0355158Y0267643D01*
X0355152Y0267713D01*
X0355150Y0267783D01*
D11*
X0234350Y0213130D03*
X0234350Y0206437D03*
X0225150Y0192480D03*
X0225150Y0185787D03*
X0115450Y0177080D03*
X0105000Y0173680D03*
X0115450Y0170387D03*
X0105000Y0166987D03*
X0061850Y0165387D03*
X0061850Y0172080D03*
X0091500Y0134030D03*
X0091500Y0127337D03*
X0247650Y0113730D03*
X0247650Y0107037D03*
X0305900Y0113287D03*
X0305900Y0119980D03*
X0305900Y0126287D03*
X0305900Y0132980D03*
X0105971Y0244001D03*
X0105971Y0250694D03*
D12*
X0096859Y0244283D03*
X0091741Y0244283D03*
X0083409Y0244483D03*
X0078291Y0244483D03*
X0113341Y0261133D03*
X0118459Y0261133D03*
X0160041Y0235158D03*
X0165159Y0235158D03*
X0108759Y0183733D03*
X0103641Y0183733D03*
X0087909Y0159833D03*
X0082791Y0159833D03*
X0082791Y0153433D03*
X0087909Y0153433D03*
X0069359Y0150283D03*
X0064241Y0150283D03*
X0163841Y0144133D03*
X0168959Y0144133D03*
X0168959Y0136633D03*
X0163841Y0136633D03*
X0163841Y0130383D03*
X0168959Y0130383D03*
X0195541Y0141233D03*
X0200659Y0141233D03*
X0229241Y0144583D03*
X0234359Y0144583D03*
X0210609Y0124433D03*
X0205491Y0124433D03*
X0203591Y0110383D03*
X0208709Y0110383D03*
X0119459Y0072883D03*
X0114341Y0072883D03*
X0102709Y0072883D03*
X0097591Y0072883D03*
X0087709Y0072883D03*
X0082591Y0072883D03*
X0076459Y0072883D03*
X0071341Y0072883D03*
X0063959Y0072883D03*
X0058841Y0072883D03*
X0051459Y0072883D03*
X0046341Y0072883D03*
X0175691Y0170683D03*
X0180809Y0170683D03*
X0180809Y0175783D03*
X0175691Y0175783D03*
X0275641Y0061533D03*
X0280759Y0061533D03*
D13*
X0243900Y0155324D03*
X0243900Y0160442D03*
X0223900Y0161574D03*
X0223900Y0166692D03*
X0244300Y0188874D03*
X0244300Y0193992D03*
X0175400Y0198874D03*
X0175400Y0203992D03*
X0110350Y0176292D03*
X0110350Y0171174D03*
X0124350Y0158842D03*
X0124350Y0153724D03*
X0062650Y0179949D03*
X0062650Y0185067D03*
X0077800Y0234774D03*
X0077800Y0239892D03*
X0097400Y0239892D03*
X0097400Y0234774D03*
D14*
X0112854Y0223583D03*
X0119546Y0223583D03*
X0167054Y0254133D03*
X0173746Y0254133D03*
X0173746Y0260383D03*
X0167054Y0260383D03*
X0050996Y0237883D03*
X0044304Y0237883D03*
X0044304Y0214133D03*
X0050996Y0214133D03*
X0050996Y0206633D03*
X0044304Y0206633D03*
X0093954Y0183783D03*
X0100646Y0183783D03*
X0098054Y0178383D03*
X0104746Y0178383D03*
X0088596Y0166733D03*
X0081904Y0166733D03*
X0067246Y0157883D03*
X0060554Y0157883D03*
X0081679Y0145258D03*
X0088371Y0145258D03*
X0176104Y0180933D03*
X0182796Y0180933D03*
X0215654Y0154933D03*
X0215654Y0150133D03*
X0222346Y0150133D03*
X0222346Y0154933D03*
X0219946Y0142133D03*
X0213254Y0142133D03*
X0236804Y0119133D03*
X0243496Y0119133D03*
X0251804Y0119133D03*
X0258496Y0119133D03*
X0274504Y0067633D03*
X0281196Y0067633D03*
X0280246Y0176083D03*
X0280554Y0181633D03*
X0287246Y0181633D03*
X0273554Y0176083D03*
D15*
X0180746Y0267383D03*
X0174054Y0267383D03*
X0274504Y0075033D03*
X0281196Y0075033D03*
D16*
X0043900Y0222037D03*
X0043900Y0228730D03*
D17*
X0112400Y0233883D03*
X0120000Y0233883D03*
X0116200Y0241883D03*
X0116400Y0246883D03*
X0112600Y0254883D03*
X0120200Y0254883D03*
X0312500Y0124133D03*
X0320100Y0124133D03*
X0316300Y0116133D03*
D18*
X0265400Y0114283D03*
X0257400Y0110483D03*
X0265400Y0106683D03*
D19*
X0279778Y0134933D03*
X0283022Y0134933D03*
D20*
X0281400Y0134933D03*
M02*
