G04 Layer_Color=8388736*
%FSLAX25Y25*%
%MOIN*%
G70*
G01*
G75*
%ADD49O,0.04540X0.01784*%
%ADD50O,0.01784X0.04540*%
%ADD51R,0.14973X0.14973*%
%ADD52O,0.08280X0.03162*%
G04:AMPARAMS|DCode=53|XSize=47.37mil|YSize=43.43mil|CornerRadius=8.43mil|HoleSize=0mil|Usage=FLASHONLY|Rotation=90.000|XOffset=0mil|YOffset=0mil|HoleType=Round|Shape=RoundedRectangle|*
%AMROUNDEDRECTD53*
21,1,0.04737,0.02658,0,0,90.0*
21,1,0.03051,0.04343,0,0,90.0*
1,1,0.01686,0.01329,0.01526*
1,1,0.01686,0.01329,-0.01526*
1,1,0.01686,-0.01329,-0.01526*
1,1,0.01686,-0.01329,0.01526*
%
%ADD53ROUNDEDRECTD53*%
%ADD54R,0.02965X0.01784*%
G04:AMPARAMS|DCode=55|XSize=47.37mil|YSize=43.43mil|CornerRadius=8.43mil|HoleSize=0mil|Usage=FLASHONLY|Rotation=180.000|XOffset=0mil|YOffset=0mil|HoleType=Round|Shape=RoundedRectangle|*
%AMROUNDEDRECTD55*
21,1,0.04737,0.02658,0,0,180.0*
21,1,0.03051,0.04343,0,0,180.0*
1,1,0.01686,-0.01526,0.01329*
1,1,0.01686,0.01526,0.01329*
1,1,0.01686,0.01526,-0.01329*
1,1,0.01686,-0.01526,-0.01329*
%
%ADD55ROUNDEDRECTD55*%
%ADD56R,0.13300X0.05288*%
%ADD57R,0.09816X0.20800*%
%ADD58R,0.10308X0.20800*%
%ADD59C,0.25800*%
%ADD60O,0.11800X0.06800*%
%ADD61R,0.11800X0.06800*%
%ADD62O,0.06800X0.11800*%
%ADD63R,0.06800X0.11800*%
%ADD64C,0.03200*%
%ADD65C,0.03162*%
D49*
X208791Y272500D02*
D03*
Y274469D02*
D03*
Y276437D02*
D03*
Y278406D02*
D03*
Y280374D02*
D03*
Y282343D02*
D03*
Y284311D02*
D03*
Y286280D02*
D03*
X189500D02*
D03*
Y284311D02*
D03*
Y282343D02*
D03*
Y280374D02*
D03*
Y278406D02*
D03*
Y276437D02*
D03*
Y274469D02*
D03*
Y272500D02*
D03*
D50*
X206035Y289035D02*
D03*
X204067D02*
D03*
X202098D02*
D03*
X200130D02*
D03*
X198161D02*
D03*
X196193D02*
D03*
X194224D02*
D03*
X192256D02*
D03*
Y269744D02*
D03*
X194224D02*
D03*
X196193D02*
D03*
X198161D02*
D03*
X200130D02*
D03*
X202098D02*
D03*
X204067D02*
D03*
X206035D02*
D03*
D51*
X199146Y279390D02*
D03*
D52*
X202165Y172421D02*
D03*
Y177421D02*
D03*
Y182421D02*
D03*
Y187421D02*
D03*
X183661Y172421D02*
D03*
Y177421D02*
D03*
Y182421D02*
D03*
Y187421D02*
D03*
D53*
X163976Y188583D02*
D03*
X170669D02*
D03*
X216339Y176378D02*
D03*
X223032D02*
D03*
X170669Y176772D02*
D03*
X163976D02*
D03*
X216339Y170472D02*
D03*
X223032D02*
D03*
X170669Y182677D02*
D03*
X163976D02*
D03*
X223031Y182283D02*
D03*
X216339D02*
D03*
X196260Y198425D02*
D03*
X189567D02*
D03*
X126654Y299000D02*
D03*
X133346D02*
D03*
X171654Y280000D02*
D03*
X178346D02*
D03*
X215157Y257874D02*
D03*
X221850D02*
D03*
X196260Y239764D02*
D03*
X202953D02*
D03*
X196260Y246457D02*
D03*
X202953D02*
D03*
X165346Y280000D02*
D03*
X158654D02*
D03*
X225154Y275500D02*
D03*
X231846D02*
D03*
X225154Y268500D02*
D03*
X231846D02*
D03*
X225154Y282500D02*
D03*
X231846D02*
D03*
X215157Y251575D02*
D03*
X221850D02*
D03*
D54*
X198154Y317500D02*
D03*
Y319469D02*
D03*
Y321437D02*
D03*
X201500Y317500D02*
D03*
Y319469D02*
D03*
Y321437D02*
D03*
D55*
X196457Y252953D02*
D03*
Y259646D02*
D03*
X188189Y263189D02*
D03*
Y256496D02*
D03*
X203150Y259646D02*
D03*
Y252953D02*
D03*
X196500Y301154D02*
D03*
Y307846D02*
D03*
X202500Y301154D02*
D03*
Y307846D02*
D03*
X200000Y332154D02*
D03*
Y338846D02*
D03*
D56*
X177177Y265118D02*
D03*
X156685D02*
D03*
X177177Y255118D02*
D03*
X156685D02*
D03*
Y245118D02*
D03*
X177177D02*
D03*
D57*
X200000Y359500D02*
D03*
D58*
X217254D02*
D03*
X182746D02*
D03*
D59*
X278500Y339000D02*
D03*
X128500D02*
D03*
X198500Y139000D02*
D03*
D60*
X298500Y129000D02*
D03*
Y139000D02*
D03*
Y149000D02*
D03*
Y159000D02*
D03*
Y169000D02*
D03*
Y179000D02*
D03*
Y189000D02*
D03*
Y199000D02*
D03*
Y209000D02*
D03*
Y219000D02*
D03*
Y229000D02*
D03*
Y239000D02*
D03*
Y249000D02*
D03*
Y259000D02*
D03*
Y269000D02*
D03*
Y279000D02*
D03*
Y289000D02*
D03*
Y299000D02*
D03*
Y309000D02*
D03*
X108500Y129000D02*
D03*
Y139000D02*
D03*
Y149000D02*
D03*
Y159000D02*
D03*
Y169000D02*
D03*
Y179000D02*
D03*
Y189000D02*
D03*
Y199000D02*
D03*
Y209000D02*
D03*
Y219000D02*
D03*
Y229000D02*
D03*
Y239000D02*
D03*
Y249000D02*
D03*
Y259000D02*
D03*
Y269000D02*
D03*
Y279000D02*
D03*
Y289000D02*
D03*
Y299000D02*
D03*
Y309000D02*
D03*
D61*
X298500Y319000D02*
D03*
X108500D02*
D03*
D62*
X298500Y109000D02*
D03*
X288500D02*
D03*
X278500D02*
D03*
X268500D02*
D03*
X258500D02*
D03*
X248500D02*
D03*
X238500D02*
D03*
X228500D02*
D03*
X218500D02*
D03*
X208500D02*
D03*
X198500D02*
D03*
X188500D02*
D03*
X178500D02*
D03*
X168500D02*
D03*
X158500D02*
D03*
X148500D02*
D03*
X138500D02*
D03*
X128500D02*
D03*
X118500D02*
D03*
D63*
X108500D02*
D03*
D64*
X176669Y219000D02*
D03*
X120079Y209055D02*
D03*
X125600Y199222D02*
D03*
X120079Y262992D02*
D03*
X125600Y263000D02*
D03*
X223228Y145276D02*
D03*
X183200Y288980D02*
D03*
X189370Y298031D02*
D03*
X181889Y276771D02*
D03*
X186000Y274469D02*
D03*
X188189Y268110D02*
D03*
X222047Y164173D02*
D03*
X218504Y150000D02*
D03*
X163779Y192913D02*
D03*
X171653Y221654D02*
D03*
X213386Y275984D02*
D03*
X248819Y188976D02*
D03*
X201969Y198425D02*
D03*
X217323Y245276D02*
D03*
X201969Y263779D02*
D03*
X194224Y266076D02*
D03*
X185374Y282343D02*
D03*
X194224Y294752D02*
D03*
X208400Y296900D02*
D03*
X252300Y282900D02*
D03*
X217400Y292500D02*
D03*
X220689Y290200D02*
D03*
X153800Y291000D02*
D03*
X212900Y270000D02*
D03*
X205900Y263800D02*
D03*
X197200Y265500D02*
D03*
D65*
X203476Y275059D02*
D03*
X199146D02*
D03*
X194815D02*
D03*
X203476Y279390D02*
D03*
X199146D02*
D03*
X194815D02*
D03*
X203476Y283720D02*
D03*
X199146D02*
D03*
X194815D02*
D03*
M02*
