G04 Layer_Color=8421504*
%FSLAX25Y25*%
%MOIN*%
G70*
G01*
G75*
%ADD10O,0.03740X0.00984*%
%ADD11O,0.00984X0.03740*%
%ADD12R,0.14173X0.14173*%
%ADD13O,0.07480X0.02362*%
G04:AMPARAMS|DCode=14|XSize=39.37mil|YSize=35.43mil|CornerRadius=4.43mil|HoleSize=0mil|Usage=FLASHONLY|Rotation=90.000|XOffset=0mil|YOffset=0mil|HoleType=Round|Shape=RoundedRectangle|*
%AMROUNDEDRECTD14*
21,1,0.03937,0.02658,0,0,90.0*
21,1,0.03051,0.03543,0,0,90.0*
1,1,0.00886,0.01329,0.01526*
1,1,0.00886,0.01329,-0.01526*
1,1,0.00886,-0.01329,-0.01526*
1,1,0.00886,-0.01329,0.01526*
%
%ADD14ROUNDEDRECTD14*%
%ADD15R,0.02165X0.00984*%
G04:AMPARAMS|DCode=16|XSize=39.37mil|YSize=35.43mil|CornerRadius=4.43mil|HoleSize=0mil|Usage=FLASHONLY|Rotation=180.000|XOffset=0mil|YOffset=0mil|HoleType=Round|Shape=RoundedRectangle|*
%AMROUNDEDRECTD16*
21,1,0.03937,0.02658,0,0,180.0*
21,1,0.03051,0.03543,0,0,180.0*
1,1,0.00886,-0.01526,0.01329*
1,1,0.00886,0.01526,0.01329*
1,1,0.00886,0.01526,-0.01329*
1,1,0.00886,-0.01526,-0.01329*
%
%ADD16ROUNDEDRECTD16*%
%ADD17R,0.12500X0.04488*%
%ADD18R,0.09016X0.20000*%
%ADD19R,0.09508X0.20000*%
D10*
X208791Y272500D02*
D03*
Y274469D02*
D03*
Y276437D02*
D03*
Y278406D02*
D03*
Y280374D02*
D03*
Y282343D02*
D03*
Y284311D02*
D03*
Y286280D02*
D03*
X189500D02*
D03*
Y284311D02*
D03*
Y282343D02*
D03*
Y280374D02*
D03*
Y278406D02*
D03*
Y276437D02*
D03*
Y274469D02*
D03*
Y272500D02*
D03*
D11*
X206035Y289035D02*
D03*
X204067D02*
D03*
X202098D02*
D03*
X200130D02*
D03*
X198161D02*
D03*
X196193D02*
D03*
X194224D02*
D03*
X192256D02*
D03*
Y269744D02*
D03*
X194224D02*
D03*
X196193D02*
D03*
X198161D02*
D03*
X200130D02*
D03*
X202098D02*
D03*
X204067D02*
D03*
X206035D02*
D03*
D12*
X199146Y279390D02*
D03*
D13*
X202165Y172421D02*
D03*
Y177421D02*
D03*
Y182421D02*
D03*
Y187421D02*
D03*
X183661Y172421D02*
D03*
Y177421D02*
D03*
Y182421D02*
D03*
Y187421D02*
D03*
D14*
X163976Y188583D02*
D03*
X170669D02*
D03*
X216339Y176378D02*
D03*
X223032D02*
D03*
X170669Y176772D02*
D03*
X163976D02*
D03*
X216339Y170472D02*
D03*
X223032D02*
D03*
X170669Y182677D02*
D03*
X163976D02*
D03*
X223031Y182283D02*
D03*
X216339D02*
D03*
X196260Y198425D02*
D03*
X189567D02*
D03*
X126654Y299000D02*
D03*
X133346D02*
D03*
X171654Y280000D02*
D03*
X178346D02*
D03*
X215157Y257874D02*
D03*
X221850D02*
D03*
X196260Y239764D02*
D03*
X202953D02*
D03*
X196260Y246457D02*
D03*
X202953D02*
D03*
X165346Y280000D02*
D03*
X158654D02*
D03*
X225154Y275500D02*
D03*
X231846D02*
D03*
X225154Y268500D02*
D03*
X231846D02*
D03*
X225154Y282500D02*
D03*
X231846D02*
D03*
X215157Y251575D02*
D03*
X221850D02*
D03*
D15*
X198154Y317500D02*
D03*
Y319469D02*
D03*
Y321437D02*
D03*
X201500Y317500D02*
D03*
Y319469D02*
D03*
Y321437D02*
D03*
D16*
X196457Y252953D02*
D03*
Y259646D02*
D03*
X188189Y263189D02*
D03*
Y256496D02*
D03*
X203150Y259646D02*
D03*
Y252953D02*
D03*
X196500Y301154D02*
D03*
Y307846D02*
D03*
X202500Y301154D02*
D03*
Y307846D02*
D03*
X200000Y332154D02*
D03*
Y338846D02*
D03*
D17*
X177177Y265118D02*
D03*
X156685D02*
D03*
X177177Y255118D02*
D03*
X156685D02*
D03*
Y245118D02*
D03*
X177177D02*
D03*
D18*
X200000Y359500D02*
D03*
D19*
X217254D02*
D03*
X182746D02*
D03*
M02*
