G04 Layer_Color=16711935*
%FSLAX25Y25*%
%MOIN*%
G70*
G01*
G75*
%ADD58R,0.10308X0.20800*%
%ADD59C,0.25800*%
%ADD60O,0.11800X0.06800*%
%ADD61R,0.11800X0.06800*%
%ADD62O,0.06800X0.11800*%
%ADD63R,0.06800X0.11800*%
%ADD64C,0.03200*%
%ADD65C,0.03162*%
D58*
X217254Y359500D02*
D03*
X182746D02*
D03*
D59*
X278500Y339000D02*
D03*
X128500D02*
D03*
X198500Y139000D02*
D03*
D60*
X298500Y129000D02*
D03*
Y139000D02*
D03*
Y149000D02*
D03*
Y159000D02*
D03*
Y169000D02*
D03*
Y179000D02*
D03*
Y189000D02*
D03*
Y199000D02*
D03*
Y209000D02*
D03*
Y219000D02*
D03*
Y229000D02*
D03*
Y239000D02*
D03*
Y249000D02*
D03*
Y259000D02*
D03*
Y269000D02*
D03*
Y279000D02*
D03*
Y289000D02*
D03*
Y299000D02*
D03*
Y309000D02*
D03*
X108500Y129000D02*
D03*
Y139000D02*
D03*
Y149000D02*
D03*
Y159000D02*
D03*
Y169000D02*
D03*
Y179000D02*
D03*
Y189000D02*
D03*
Y199000D02*
D03*
Y209000D02*
D03*
Y219000D02*
D03*
Y229000D02*
D03*
Y239000D02*
D03*
Y249000D02*
D03*
Y259000D02*
D03*
Y269000D02*
D03*
Y279000D02*
D03*
Y289000D02*
D03*
Y299000D02*
D03*
Y309000D02*
D03*
D61*
X298500Y319000D02*
D03*
X108500D02*
D03*
D62*
X298500Y109000D02*
D03*
X288500D02*
D03*
X278500D02*
D03*
X268500D02*
D03*
X258500D02*
D03*
X248500D02*
D03*
X238500D02*
D03*
X228500D02*
D03*
X218500D02*
D03*
X208500D02*
D03*
X198500D02*
D03*
X188500D02*
D03*
X178500D02*
D03*
X168500D02*
D03*
X158500D02*
D03*
X148500D02*
D03*
X138500D02*
D03*
X128500D02*
D03*
X118500D02*
D03*
D63*
X108500D02*
D03*
D64*
X176669Y219000D02*
D03*
X120079Y209055D02*
D03*
X125600Y199222D02*
D03*
X120079Y262992D02*
D03*
X125600Y263000D02*
D03*
X223228Y145276D02*
D03*
X183200Y288980D02*
D03*
X189370Y298031D02*
D03*
X181889Y276771D02*
D03*
X186000Y274469D02*
D03*
X188189Y268110D02*
D03*
X222047Y164173D02*
D03*
X218504Y150000D02*
D03*
X163779Y192913D02*
D03*
X171653Y221654D02*
D03*
X213386Y275984D02*
D03*
X248819Y188976D02*
D03*
X201969Y198425D02*
D03*
X217323Y245276D02*
D03*
X201969Y263779D02*
D03*
X194224Y266076D02*
D03*
X185374Y282343D02*
D03*
X194224Y294752D02*
D03*
X208400Y296900D02*
D03*
X252300Y282900D02*
D03*
X217400Y292500D02*
D03*
X220689Y290200D02*
D03*
X153800Y291000D02*
D03*
X212900Y270000D02*
D03*
X205900Y263800D02*
D03*
X197200Y265500D02*
D03*
D65*
X203476Y275059D02*
D03*
X199146D02*
D03*
X194815D02*
D03*
X203476Y279390D02*
D03*
X199146D02*
D03*
X194815D02*
D03*
X203476Y283720D02*
D03*
X199146D02*
D03*
X194815D02*
D03*
M02*
