G75*
%MOIN*%
%OFA0B0*%
%FSLAX24Y24*%
%IPPOS*%
%LPD*%
%AMOC8*
5,1,8,0,0,1.08239X$1,22.5*
%
%ADD10C,0.0000*%
%ADD11R,0.0474X0.0237*%
%ADD12OC8,0.0680*%
%ADD13R,0.0513X0.0474*%
%ADD14R,0.0474X0.0513*%
%ADD15C,0.0595*%
%ADD16R,0.0474X0.0474*%
%ADD17R,0.0493X0.0237*%
%ADD18C,0.0119*%
%ADD19R,0.1730X0.0780*%
%ADD20R,0.1730X0.1130*%
%ADD21R,0.0980X0.2080*%
%ADD22R,0.1025X0.1025*%
%ADD23R,0.0789X0.0710*%
%ADD24R,0.0671X0.0592*%
%ADD25C,0.0516*%
D10*
X003851Y002794D02*
X003851Y011539D01*
X063593Y011539D01*
X063593Y002794D01*
X003851Y002794D01*
X003851Y005094D02*
X003851Y009494D01*
X016901Y011544D02*
X021301Y011544D01*
X041901Y011544D02*
X046301Y011544D01*
D11*
X051268Y008420D03*
X051268Y008170D03*
X051268Y007920D03*
X051268Y007670D03*
X051268Y007420D03*
X051268Y007169D03*
X051268Y006919D03*
X051268Y006669D03*
X051268Y006419D03*
X051268Y006169D03*
X053433Y006169D03*
X053433Y006419D03*
X053433Y006669D03*
X053433Y006919D03*
X053433Y007169D03*
X053433Y007420D03*
X053433Y007670D03*
X053433Y007920D03*
X053433Y008170D03*
X053433Y008420D03*
D12*
X061851Y008794D03*
X062851Y008794D03*
X062851Y007794D03*
X061851Y007794D03*
X061851Y006794D03*
X062851Y006794D03*
X062851Y005794D03*
X061851Y005794D03*
X058101Y004544D03*
X061851Y003794D03*
X048101Y005544D03*
X043851Y005294D03*
X040351Y006294D03*
X039351Y006294D03*
X039351Y007294D03*
X040351Y007294D03*
X040351Y008294D03*
X039351Y008294D03*
X023851Y008294D03*
X022851Y008294D03*
X022851Y007294D03*
X023851Y007294D03*
X023851Y006294D03*
X022851Y006294D03*
X015851Y006794D03*
X014851Y006794D03*
X014851Y007794D03*
X015851Y007794D03*
X007851Y007794D03*
X006851Y007794D03*
X006851Y006794D03*
X007851Y006794D03*
X007351Y010294D03*
X062351Y010294D03*
D13*
X057435Y007794D03*
X056766Y007794D03*
X056766Y006794D03*
X057435Y006794D03*
X050435Y005544D03*
X049766Y005544D03*
X053851Y004879D03*
X053851Y004210D03*
X043435Y007294D03*
X042766Y007294D03*
X049516Y008044D03*
X050185Y008044D03*
X035185Y007794D03*
X034516Y007794D03*
X033685Y007794D03*
X033016Y007794D03*
X030685Y007794D03*
X030016Y007794D03*
X029185Y007794D03*
X028516Y007794D03*
X028516Y005294D03*
X029185Y005294D03*
X030016Y005294D03*
X030685Y005294D03*
X033016Y005294D03*
X033685Y005294D03*
X034516Y005294D03*
X035185Y005294D03*
X018435Y007294D03*
X017766Y007294D03*
X013685Y008294D03*
X013016Y008294D03*
X009685Y008294D03*
X009016Y008294D03*
X010266Y007294D03*
X010935Y007294D03*
X011516Y007294D03*
X012185Y007294D03*
X013016Y006294D03*
X013685Y006294D03*
X028516Y010294D03*
X029185Y010294D03*
X030016Y010294D03*
X030685Y010294D03*
X033016Y010294D03*
X033685Y010294D03*
X034516Y010294D03*
X035185Y010294D03*
D14*
X035851Y009629D03*
X036851Y009629D03*
X036851Y008960D03*
X035851Y008960D03*
X032351Y008960D03*
X031351Y008960D03*
X031351Y009629D03*
X032351Y009629D03*
X027851Y009629D03*
X026851Y009629D03*
X026851Y008960D03*
X027851Y008960D03*
X027851Y007129D03*
X026851Y007129D03*
X026851Y006460D03*
X027851Y006460D03*
X031351Y006460D03*
X032351Y006460D03*
X032351Y007129D03*
X031351Y007129D03*
X035851Y007129D03*
X036851Y007129D03*
X036851Y006460D03*
X035851Y006460D03*
X035851Y004629D03*
X036851Y004629D03*
X036851Y003960D03*
X035851Y003960D03*
X032351Y003960D03*
X031351Y003960D03*
X031351Y004629D03*
X032351Y004629D03*
X027851Y004629D03*
X026851Y004629D03*
X026851Y003960D03*
X027851Y003960D03*
X019101Y007710D03*
X019101Y008379D03*
X044101Y008379D03*
X044101Y007710D03*
X049351Y007379D03*
X050351Y007379D03*
X050351Y006710D03*
X049351Y006710D03*
X054351Y006629D03*
X055101Y006629D03*
X055101Y005960D03*
X054351Y005960D03*
X052851Y005129D03*
X054351Y004879D03*
X052851Y004460D03*
X054351Y004210D03*
X048185Y003794D03*
X047516Y003794D03*
X059351Y006085D03*
X059351Y006754D03*
X059351Y007710D03*
X059351Y008379D03*
X052601Y009335D03*
X051851Y009335D03*
X050851Y009629D03*
X051851Y010004D03*
X052601Y010004D03*
X050851Y008960D03*
X050185Y008794D03*
X049516Y008794D03*
D15*
X050351Y004919D03*
X051351Y003797D03*
X049351Y003797D03*
D16*
X054457Y008544D03*
X055244Y008544D03*
X053994Y009294D03*
X053207Y009294D03*
X058957Y009169D03*
X059744Y009169D03*
D17*
G36*
X011399Y008189D02*
X011746Y007842D01*
X011579Y007675D01*
X011232Y008022D01*
X011399Y008189D01*
G37*
D18*
X011580Y008286D02*
X011843Y008023D01*
X011760Y007940D01*
X011497Y008203D01*
X011580Y008286D01*
X011642Y008058D02*
X011808Y008058D01*
X011690Y008176D02*
X011524Y008176D01*
X011761Y008467D02*
X012024Y008204D01*
X011941Y008121D01*
X011678Y008384D01*
X011761Y008467D01*
X011823Y008239D02*
X011989Y008239D01*
X011871Y008357D02*
X011705Y008357D01*
X011147Y008357D02*
X010884Y008620D01*
X011147Y008357D02*
X011064Y008274D01*
X010801Y008537D01*
X010884Y008620D01*
X010946Y008392D02*
X011112Y008392D01*
X010994Y008510D02*
X010828Y008510D01*
X011065Y008801D02*
X011328Y008538D01*
X011245Y008455D01*
X010982Y008718D01*
X011065Y008801D01*
X011127Y008573D02*
X011293Y008573D01*
X011175Y008691D02*
X011009Y008691D01*
X011246Y008982D02*
X011509Y008719D01*
X011426Y008636D01*
X011163Y008899D01*
X011246Y008982D01*
X011308Y008754D02*
X011474Y008754D01*
X011356Y008872D02*
X011190Y008872D01*
D19*
X004683Y007294D03*
D20*
X004683Y005919D03*
X004683Y008670D03*
D21*
X017361Y010534D03*
X019101Y010534D03*
X020841Y010534D03*
X042361Y010534D03*
X044101Y010534D03*
X045841Y010534D03*
D22*
X058741Y010294D03*
X060710Y010294D03*
D23*
X057476Y010346D03*
X057476Y009243D03*
D24*
X056351Y009420D03*
X056351Y010168D03*
D25*
X012351Y003294D03*
M02*
