G75*
%MOIN*%
%OFA0B0*%
%FSLAX24Y24*%
%IPPOS*%
%LPD*%
%AMOC8*
5,1,8,0,0,1.08239X$1,22.5*
%
%ADD10C,0.0000*%
%ADD11C,0.0240*%
%ADD12C,0.0060*%
%ADD13C,0.0110*%
%ADD14C,0.0080*%
%ADD15C,0.0157*%
%ADD16C,0.0040*%
%ADD17C,0.0020*%
%ADD18C,0.0050*%
%ADD19C,0.0030*%
D10*
X003851Y002794D02*
X003851Y011539D01*
X063593Y011539D01*
X063593Y002794D01*
X003851Y002794D01*
X003851Y005094D02*
X003851Y009494D01*
X016901Y011544D02*
X021301Y011544D01*
X041901Y011544D02*
X046301Y011544D01*
D11*
X041351Y011294D02*
X041351Y010804D01*
X041351Y010324D02*
X041351Y009834D01*
X041351Y009354D02*
X041351Y008864D01*
X041351Y008384D02*
X041351Y007894D01*
X041351Y007414D02*
X041351Y006924D01*
X041351Y006444D02*
X041351Y005954D01*
X041351Y005474D02*
X041351Y004984D01*
X041351Y004504D02*
X041351Y004014D01*
X041351Y003534D02*
X041351Y003044D01*
X060601Y006544D02*
X060601Y008044D01*
X060851Y008044D01*
X060851Y006544D01*
X060601Y006544D01*
X060851Y006544D02*
X061101Y006544D01*
X061101Y005044D01*
X063351Y005044D01*
X063351Y009544D01*
X061101Y009544D01*
X061101Y008044D01*
X061101Y006544D01*
X060976Y006669D02*
X060976Y007919D01*
X060851Y008044D02*
X061101Y008044D01*
X061351Y008294D02*
X061351Y009294D01*
X062351Y009294D01*
X062351Y008294D01*
X061351Y008294D01*
X016601Y008384D02*
X016601Y007894D01*
X016601Y007414D02*
X016601Y006924D01*
X016601Y006444D02*
X016601Y005954D01*
X016601Y005474D02*
X016601Y004984D01*
X016601Y004504D02*
X016601Y004014D01*
X016601Y003534D02*
X016601Y003044D01*
X016601Y008864D02*
X016601Y009354D01*
X016601Y009834D02*
X016601Y010324D01*
X016601Y010804D02*
X016601Y011294D01*
D12*
X007851Y010544D02*
X007851Y010044D01*
X007601Y009794D01*
X007101Y009794D01*
X006851Y010044D01*
X006851Y010544D01*
X007101Y010794D01*
X007601Y010794D01*
X007851Y010544D01*
X007682Y009765D02*
X007512Y009765D01*
X007512Y009424D01*
X007682Y009424D01*
X007739Y009481D01*
X007739Y009708D01*
X007682Y009765D01*
X007371Y009765D02*
X007371Y009424D01*
X007144Y009765D01*
X007144Y009424D01*
X007003Y009481D02*
X007003Y009595D01*
X006889Y009595D01*
X006776Y009708D02*
X006776Y009481D01*
X006832Y009424D01*
X006946Y009424D01*
X007003Y009481D01*
X007003Y009708D02*
X006946Y009765D01*
X006832Y009765D01*
X006776Y009708D01*
X006601Y008294D02*
X008101Y008294D01*
X008351Y008044D01*
X008351Y007544D01*
X008101Y007294D01*
X006601Y007294D01*
X006351Y007044D01*
X006351Y006544D01*
X006601Y006294D01*
X008101Y006294D01*
X008351Y006544D01*
X008351Y007044D01*
X008101Y007294D01*
X006601Y007294D02*
X006351Y007544D01*
X006351Y008044D01*
X006601Y008294D01*
X014351Y008044D02*
X014351Y007544D01*
X014601Y007294D01*
X016101Y007294D01*
X016351Y007044D01*
X016351Y006544D01*
X016101Y006294D01*
X014601Y006294D01*
X014351Y006544D01*
X014351Y007044D01*
X014601Y007294D01*
X016101Y007294D02*
X016351Y007544D01*
X016351Y008044D01*
X016101Y008294D01*
X014601Y008294D01*
X014351Y008044D01*
X022351Y008044D02*
X022601Y007794D01*
X024101Y007794D01*
X024351Y007544D01*
X024351Y007044D01*
X024101Y006794D01*
X024351Y006544D01*
X024351Y006044D01*
X024101Y005794D01*
X022601Y005794D01*
X022351Y006044D01*
X022351Y006544D01*
X022601Y006794D01*
X024101Y006794D01*
X022601Y006794D02*
X022351Y007044D01*
X022351Y007544D01*
X022601Y007794D01*
X022351Y008044D02*
X022351Y008544D01*
X022601Y008794D01*
X024101Y008794D01*
X024351Y008544D01*
X024351Y008044D01*
X024101Y007794D01*
X027180Y006919D02*
X027521Y006919D01*
X027521Y006806D02*
X027521Y007033D01*
X027294Y006806D02*
X027180Y006919D01*
X027521Y006665D02*
X027521Y006438D01*
X027521Y006551D02*
X027180Y006551D01*
X027294Y006438D01*
X027521Y006296D02*
X027521Y006069D01*
X027180Y006069D01*
X028180Y006126D02*
X028237Y006069D01*
X028464Y006069D01*
X028521Y006126D01*
X028521Y006240D01*
X028464Y006296D01*
X028521Y006438D02*
X028521Y006665D01*
X028521Y006551D02*
X028180Y006551D01*
X028294Y006438D01*
X028237Y006296D02*
X028180Y006240D01*
X028180Y006126D01*
X028531Y005908D02*
X028531Y005681D01*
X028587Y005624D01*
X028701Y005624D01*
X028757Y005681D01*
X028899Y005624D02*
X029126Y005851D01*
X029126Y005908D01*
X029069Y005965D01*
X028956Y005965D01*
X028899Y005908D01*
X028757Y005908D02*
X028701Y005965D01*
X028587Y005965D01*
X028531Y005908D01*
X029267Y005965D02*
X029494Y005965D01*
X029494Y005908D01*
X029267Y005681D01*
X029267Y005624D01*
X029126Y005624D02*
X028899Y005624D01*
X030031Y005624D02*
X030031Y005965D01*
X030399Y005851D02*
X030512Y005965D01*
X030512Y005624D01*
X030399Y005624D02*
X030626Y005624D01*
X030767Y005795D02*
X030994Y005795D01*
X030937Y005965D02*
X030767Y005795D01*
X030937Y005965D02*
X030937Y005624D01*
X030257Y005624D02*
X030031Y005624D01*
X031680Y006126D02*
X031737Y006069D01*
X031964Y006069D01*
X032021Y006126D01*
X032021Y006240D01*
X031964Y006296D01*
X032021Y006438D02*
X032021Y006665D01*
X032021Y006551D02*
X031680Y006551D01*
X031794Y006438D01*
X031737Y006296D02*
X031680Y006240D01*
X031680Y006126D01*
X032680Y006069D02*
X033021Y006069D01*
X033021Y006296D01*
X033021Y006438D02*
X033021Y006665D01*
X033021Y006551D02*
X032680Y006551D01*
X032794Y006438D01*
X032737Y006806D02*
X032680Y006863D01*
X032680Y006976D01*
X032737Y007033D01*
X032794Y007033D01*
X033021Y006806D01*
X033021Y007033D01*
X032021Y006976D02*
X032021Y006863D01*
X031964Y006806D01*
X031850Y006863D02*
X031850Y007033D01*
X031737Y007033D02*
X031964Y007033D01*
X032021Y006976D01*
X031850Y006863D02*
X031794Y006806D01*
X031737Y006806D01*
X031680Y006863D01*
X031680Y006976D01*
X031737Y007033D01*
X028521Y006976D02*
X028521Y006863D01*
X028464Y006806D01*
X028407Y006806D01*
X028350Y006863D01*
X028350Y006976D01*
X028407Y007033D01*
X028464Y007033D01*
X028521Y006976D01*
X028350Y006976D02*
X028294Y007033D01*
X028237Y007033D01*
X028180Y006976D01*
X028180Y006863D01*
X028237Y006806D01*
X028294Y006806D01*
X028350Y006863D01*
X033031Y005908D02*
X033031Y005681D01*
X033087Y005624D01*
X033201Y005624D01*
X033257Y005681D01*
X033399Y005624D02*
X033626Y005851D01*
X033626Y005908D01*
X033569Y005965D01*
X033456Y005965D01*
X033399Y005908D01*
X033257Y005908D02*
X033201Y005965D01*
X033087Y005965D01*
X033031Y005908D01*
X033399Y005624D02*
X033626Y005624D01*
X033767Y005681D02*
X033767Y005795D01*
X033937Y005795D01*
X033994Y005738D01*
X033994Y005681D01*
X033937Y005624D01*
X033824Y005624D01*
X033767Y005681D01*
X033767Y005795D02*
X033881Y005908D01*
X033994Y005965D01*
X034531Y005965D02*
X034531Y005624D01*
X034757Y005624D01*
X034899Y005624D02*
X035126Y005624D01*
X035012Y005624D02*
X035012Y005965D01*
X034899Y005851D01*
X035267Y005795D02*
X035381Y005851D01*
X035437Y005851D01*
X035494Y005795D01*
X035494Y005681D01*
X035437Y005624D01*
X035324Y005624D01*
X035267Y005681D01*
X035267Y005795D02*
X035267Y005965D01*
X035494Y005965D01*
X036180Y006126D02*
X036237Y006069D01*
X036464Y006069D01*
X036521Y006126D01*
X036521Y006240D01*
X036464Y006296D01*
X036521Y006438D02*
X036294Y006665D01*
X036237Y006665D01*
X036180Y006608D01*
X036180Y006494D01*
X036237Y006438D01*
X036237Y006296D02*
X036180Y006240D01*
X036180Y006126D01*
X036521Y006438D02*
X036521Y006665D01*
X036464Y006806D02*
X036237Y006806D01*
X036180Y006863D01*
X036180Y006976D01*
X036237Y007033D01*
X036464Y006806D01*
X036521Y006863D01*
X036521Y006976D01*
X036464Y007033D01*
X036237Y007033D01*
X037180Y006976D02*
X037180Y006863D01*
X037237Y006806D01*
X037350Y006919D02*
X037350Y006976D01*
X037407Y007033D01*
X037464Y007033D01*
X037521Y006976D01*
X037521Y006863D01*
X037464Y006806D01*
X037521Y006665D02*
X037521Y006438D01*
X037521Y006551D02*
X037180Y006551D01*
X037294Y006438D01*
X037521Y006296D02*
X037521Y006069D01*
X037180Y006069D01*
X038851Y006044D02*
X038851Y006544D01*
X039101Y006794D01*
X040601Y006794D01*
X040851Y006544D01*
X040851Y006044D01*
X040601Y005794D01*
X039101Y005794D01*
X038851Y006044D01*
X039101Y006794D02*
X038851Y007044D01*
X038851Y007544D01*
X039101Y007794D01*
X040601Y007794D01*
X040851Y007544D01*
X040851Y007044D01*
X040601Y006794D01*
X037350Y006976D02*
X037294Y007033D01*
X037237Y007033D01*
X037180Y006976D01*
X038851Y008044D02*
X039101Y007794D01*
X038851Y008044D02*
X038851Y008544D01*
X039101Y008794D01*
X040601Y008794D01*
X040851Y008544D01*
X040851Y008044D01*
X040601Y007794D01*
X037521Y008626D02*
X037464Y008569D01*
X037237Y008569D01*
X037180Y008626D01*
X037180Y008740D01*
X037237Y008796D01*
X037294Y008938D02*
X037180Y009051D01*
X037521Y009051D01*
X037521Y008938D02*
X037521Y009165D01*
X037464Y009306D02*
X037521Y009363D01*
X037521Y009476D01*
X037464Y009533D01*
X037350Y009533D01*
X037294Y009476D01*
X037294Y009419D01*
X037350Y009306D01*
X037180Y009306D01*
X037180Y009533D01*
X036521Y009476D02*
X036521Y009363D01*
X036464Y009306D01*
X036407Y009306D01*
X036350Y009363D01*
X036350Y009476D01*
X036407Y009533D01*
X036464Y009533D01*
X036521Y009476D01*
X036350Y009476D02*
X036294Y009533D01*
X036237Y009533D01*
X036180Y009476D01*
X036180Y009363D01*
X036237Y009306D01*
X036294Y009306D01*
X036350Y009363D01*
X036521Y009165D02*
X036521Y008938D01*
X036180Y008938D01*
X037464Y008796D02*
X037521Y008740D01*
X037521Y008626D01*
X035494Y008408D02*
X035267Y008181D01*
X035324Y008124D01*
X035437Y008124D01*
X035494Y008181D01*
X035494Y008408D01*
X035437Y008465D01*
X035324Y008465D01*
X035267Y008408D01*
X035267Y008181D01*
X035126Y008124D02*
X034899Y008124D01*
X035012Y008124D02*
X035012Y008465D01*
X034899Y008351D01*
X034531Y008465D02*
X034531Y008124D01*
X034757Y008124D01*
X033994Y008124D02*
X033767Y008124D01*
X033881Y008124D02*
X033881Y008465D01*
X033767Y008351D01*
X033626Y008351D02*
X033626Y008408D01*
X033569Y008465D01*
X033456Y008465D01*
X033399Y008408D01*
X033257Y008408D02*
X033201Y008465D01*
X033087Y008465D01*
X033031Y008408D01*
X033031Y008181D01*
X033087Y008124D01*
X033201Y008124D01*
X033257Y008181D01*
X033399Y008124D02*
X033626Y008351D01*
X033021Y008626D02*
X032964Y008569D01*
X032737Y008569D01*
X032680Y008626D01*
X032680Y008740D01*
X032737Y008796D01*
X032794Y008938D02*
X032680Y009051D01*
X033021Y009051D01*
X033021Y008938D02*
X033021Y009165D01*
X032850Y009306D02*
X032850Y009533D01*
X032680Y009476D02*
X032850Y009306D01*
X032680Y009476D02*
X033021Y009476D01*
X032021Y009306D02*
X031964Y009306D01*
X031737Y009533D01*
X031680Y009533D01*
X031680Y009306D01*
X032021Y009165D02*
X032021Y008938D01*
X031680Y008938D01*
X032964Y008796D02*
X033021Y008740D01*
X033021Y008626D01*
X030626Y008408D02*
X030626Y008181D01*
X030569Y008124D01*
X030456Y008124D01*
X030399Y008181D01*
X030456Y008295D02*
X030626Y008295D01*
X030626Y008408D02*
X030569Y008465D01*
X030456Y008465D01*
X030399Y008408D01*
X030399Y008351D01*
X030456Y008295D01*
X030257Y008124D02*
X030031Y008124D01*
X030031Y008465D01*
X029494Y008408D02*
X029437Y008465D01*
X029324Y008465D01*
X029267Y008408D01*
X029126Y008408D02*
X029069Y008465D01*
X028956Y008465D01*
X028899Y008408D01*
X028757Y008408D02*
X028701Y008465D01*
X028587Y008465D01*
X028531Y008408D01*
X028531Y008181D01*
X028587Y008124D01*
X028701Y008124D01*
X028757Y008181D01*
X028899Y008124D02*
X029126Y008351D01*
X029126Y008408D01*
X029267Y008124D02*
X029494Y008351D01*
X029494Y008408D01*
X029494Y008124D02*
X029267Y008124D01*
X029126Y008124D02*
X028899Y008124D01*
X028464Y008569D02*
X028521Y008626D01*
X028521Y008740D01*
X028464Y008796D01*
X028521Y008938D02*
X028521Y009165D01*
X028521Y009051D02*
X028180Y009051D01*
X028294Y008938D01*
X028237Y008796D02*
X028180Y008740D01*
X028180Y008626D01*
X028237Y008569D01*
X028464Y008569D01*
X027521Y008938D02*
X027180Y008938D01*
X027521Y008938D02*
X027521Y009165D01*
X027464Y009306D02*
X027350Y009306D01*
X027350Y009476D01*
X027407Y009533D01*
X027464Y009533D01*
X027521Y009476D01*
X027521Y009363D01*
X027464Y009306D01*
X027350Y009306D02*
X027237Y009419D01*
X027180Y009533D01*
X028180Y009476D02*
X028180Y009363D01*
X028237Y009306D01*
X028350Y009419D02*
X028350Y009476D01*
X028407Y009533D01*
X028464Y009533D01*
X028521Y009476D01*
X028521Y009363D01*
X028464Y009306D01*
X028350Y009476D02*
X028294Y009533D01*
X028237Y009533D01*
X028180Y009476D01*
X028587Y010624D02*
X028701Y010624D01*
X028757Y010681D01*
X028899Y010624D02*
X029126Y010624D01*
X029012Y010624D02*
X029012Y010965D01*
X028899Y010851D01*
X028757Y010908D02*
X028701Y010965D01*
X028587Y010965D01*
X028531Y010908D01*
X028531Y010681D01*
X028587Y010624D01*
X029267Y010624D02*
X029267Y010681D01*
X029494Y010908D01*
X029494Y010965D01*
X029267Y010965D01*
X030031Y010965D02*
X030031Y010624D01*
X030257Y010624D01*
X030399Y010624D02*
X030626Y010851D01*
X030626Y010908D01*
X030569Y010965D01*
X030456Y010965D01*
X030399Y010908D01*
X030399Y010624D02*
X030626Y010624D01*
X033031Y010681D02*
X033087Y010624D01*
X033201Y010624D01*
X033257Y010681D01*
X033399Y010624D02*
X033626Y010624D01*
X033512Y010624D02*
X033512Y010965D01*
X033399Y010851D01*
X033257Y010908D02*
X033201Y010965D01*
X033087Y010965D01*
X033031Y010908D01*
X033031Y010681D01*
X033767Y010681D02*
X033824Y010624D01*
X033937Y010624D01*
X033994Y010681D01*
X033994Y010738D01*
X033937Y010795D01*
X033767Y010795D01*
X033767Y010681D01*
X033767Y010795D02*
X033881Y010908D01*
X033994Y010965D01*
X034531Y010965D02*
X034531Y010624D01*
X034757Y010624D01*
X034899Y010681D02*
X034956Y010624D01*
X035069Y010624D01*
X035126Y010681D01*
X035126Y010795D01*
X035069Y010851D01*
X035012Y010851D01*
X034899Y010795D01*
X034899Y010965D01*
X035126Y010965D01*
X033626Y008124D02*
X033399Y008124D01*
X043351Y005544D02*
X043601Y005794D01*
X044101Y005794D01*
X044351Y005544D01*
X044351Y005044D01*
X044101Y004794D01*
X043601Y004794D01*
X043351Y005044D01*
X043351Y005544D01*
X046256Y005608D02*
X046256Y005381D01*
X046312Y005324D01*
X046426Y005324D01*
X046482Y005381D01*
X046482Y005495D01*
X046369Y005495D01*
X046256Y005608D02*
X046312Y005665D01*
X046426Y005665D01*
X046482Y005608D01*
X046624Y005551D02*
X046737Y005665D01*
X046851Y005551D01*
X046851Y005324D01*
X046992Y005324D02*
X047106Y005324D01*
X047049Y005324D02*
X047049Y005665D01*
X046992Y005665D02*
X047106Y005665D01*
X047238Y005665D02*
X047465Y005324D01*
X047465Y005665D01*
X047601Y005794D02*
X047851Y006044D01*
X048351Y006044D01*
X048601Y005794D01*
X048601Y005294D01*
X048351Y005044D01*
X047851Y005044D01*
X047601Y005294D01*
X047601Y005794D01*
X047238Y005665D02*
X047238Y005324D01*
X046851Y005495D02*
X046624Y005495D01*
X046624Y005551D02*
X046624Y005324D01*
X049051Y005160D02*
X049051Y002408D01*
X051650Y002408D01*
X051650Y005160D01*
X049051Y005160D01*
X053130Y004706D02*
X053244Y004593D01*
X053180Y004608D02*
X053180Y004494D01*
X053237Y004438D01*
X053464Y004438D01*
X053521Y004494D01*
X053521Y004608D01*
X053464Y004665D01*
X053471Y004706D02*
X053130Y004706D01*
X053180Y004608D02*
X053237Y004665D01*
X053237Y004806D02*
X053180Y004863D01*
X053180Y004976D01*
X053237Y005033D01*
X053294Y005033D01*
X053350Y004976D01*
X053407Y005033D01*
X053464Y005033D01*
X053521Y004976D01*
X053521Y004863D01*
X053464Y004806D01*
X053471Y004820D02*
X053471Y004593D01*
X053471Y004451D02*
X053357Y004338D01*
X053357Y004395D02*
X053357Y004224D01*
X053471Y004224D02*
X053130Y004224D01*
X053130Y004395D01*
X053187Y004451D01*
X053300Y004451D01*
X053357Y004395D01*
X054680Y004358D02*
X054680Y004244D01*
X054737Y004188D01*
X054964Y004188D01*
X055021Y004244D01*
X055021Y004358D01*
X054964Y004415D01*
X055021Y004556D02*
X055021Y004783D01*
X055021Y004669D02*
X054680Y004669D01*
X054794Y004556D01*
X054737Y004415D02*
X054680Y004358D01*
X053350Y004919D02*
X053350Y004976D01*
X055430Y005626D02*
X055487Y005569D01*
X055714Y005569D01*
X055771Y005626D01*
X055771Y005740D01*
X055714Y005796D01*
X055714Y005938D02*
X055771Y005994D01*
X055771Y006108D01*
X055714Y006165D01*
X055657Y006165D01*
X055600Y006108D01*
X055600Y006051D01*
X055600Y006108D02*
X055544Y006165D01*
X055487Y006165D01*
X055430Y006108D01*
X055430Y005994D01*
X055487Y005938D01*
X055487Y005796D02*
X055430Y005740D01*
X055430Y005626D01*
X056656Y006181D02*
X056712Y006124D01*
X056826Y006124D01*
X056882Y006181D01*
X057024Y006124D02*
X057251Y006124D01*
X057137Y006124D02*
X057137Y006465D01*
X057024Y006351D01*
X056882Y006408D02*
X056826Y006465D01*
X056712Y006465D01*
X056656Y006408D01*
X056656Y006181D01*
X055771Y006306D02*
X055714Y006306D01*
X055487Y006533D01*
X055430Y006533D01*
X055430Y006306D01*
X057392Y006351D02*
X057506Y006465D01*
X057506Y006124D01*
X057619Y006124D02*
X057392Y006124D01*
X058555Y006145D02*
X058555Y006031D01*
X058612Y005974D01*
X058839Y005974D01*
X058896Y006031D01*
X058896Y006145D01*
X058839Y006201D01*
X058725Y006343D02*
X058725Y006570D01*
X058555Y006513D02*
X058896Y006513D01*
X058839Y006711D02*
X058896Y006768D01*
X058896Y006881D01*
X058839Y006938D01*
X058782Y006938D01*
X058725Y006881D01*
X058725Y006824D01*
X058725Y006881D02*
X058669Y006938D01*
X058612Y006938D01*
X058555Y006881D01*
X058555Y006768D01*
X058612Y006711D01*
X058555Y006513D02*
X058725Y006343D01*
X058612Y006201D02*
X058555Y006145D01*
X061351Y006044D02*
X061351Y005544D01*
X061601Y005294D01*
X063101Y005294D01*
X063351Y005544D01*
X063351Y006044D01*
X063101Y006294D01*
X061601Y006294D01*
X061351Y006044D01*
X061601Y006294D02*
X061351Y006544D01*
X061351Y007044D01*
X061601Y007294D01*
X063101Y007294D01*
X063351Y007044D01*
X063351Y006544D01*
X063101Y006294D01*
X063101Y007294D02*
X063351Y007544D01*
X063351Y008044D01*
X063101Y008294D01*
X061601Y008294D01*
X061351Y008044D01*
X061351Y007544D01*
X061601Y007294D01*
X058896Y007656D02*
X058896Y007770D01*
X058839Y007826D01*
X058896Y007656D02*
X058839Y007599D01*
X058612Y007599D01*
X058555Y007656D01*
X058555Y007770D01*
X058612Y007826D01*
X058725Y007968D02*
X058725Y008195D01*
X058555Y008138D02*
X058725Y007968D01*
X058555Y008138D02*
X058896Y008138D01*
X058896Y008336D02*
X058669Y008563D01*
X058612Y008563D01*
X058555Y008506D01*
X058555Y008393D01*
X058612Y008336D01*
X058896Y008336D02*
X058896Y008563D01*
X057619Y008408D02*
X057562Y008465D01*
X057449Y008465D01*
X057392Y008408D01*
X057619Y008408D02*
X057619Y008351D01*
X057392Y008124D01*
X057619Y008124D01*
X057251Y008124D02*
X057024Y008124D01*
X057137Y008124D02*
X057137Y008465D01*
X057024Y008351D01*
X056882Y008408D02*
X056826Y008465D01*
X056712Y008465D01*
X056656Y008408D01*
X056656Y008181D01*
X056712Y008124D01*
X056826Y008124D01*
X056882Y008181D01*
X055114Y008083D02*
X055114Y008026D01*
X055057Y007970D01*
X055114Y007913D01*
X055114Y007856D01*
X055057Y007799D01*
X054944Y007799D01*
X054887Y007856D01*
X054746Y007799D02*
X054519Y007799D01*
X054519Y008140D01*
X054887Y008083D02*
X054944Y008140D01*
X055057Y008140D01*
X055114Y008083D01*
X055057Y007970D02*
X055001Y007970D01*
X054521Y007476D02*
X054180Y007476D01*
X054350Y007306D01*
X054350Y007533D01*
X054237Y007165D02*
X054180Y007108D01*
X054180Y006994D01*
X054237Y006938D01*
X054464Y006938D01*
X054521Y006994D01*
X054521Y007108D01*
X054464Y007165D01*
X050021Y007093D02*
X049964Y007093D01*
X049737Y007320D01*
X049680Y007320D01*
X049680Y007093D01*
X049737Y006951D02*
X049680Y006895D01*
X049680Y006781D01*
X049737Y006724D01*
X049964Y006724D01*
X050021Y006781D01*
X050021Y006895D01*
X049964Y006951D01*
X049021Y006858D02*
X049021Y006744D01*
X048964Y006688D01*
X048737Y006688D01*
X048680Y006744D01*
X048680Y006858D01*
X048737Y006915D01*
X048737Y007056D02*
X048794Y007056D01*
X048850Y007113D01*
X048850Y007226D01*
X048907Y007283D01*
X048964Y007283D01*
X049021Y007226D01*
X049021Y007113D01*
X048964Y007056D01*
X048907Y007056D01*
X048850Y007113D01*
X048850Y007226D02*
X048794Y007283D01*
X048737Y007283D01*
X048680Y007226D01*
X048680Y007113D01*
X048737Y007056D01*
X048964Y006915D02*
X049021Y006858D01*
X049069Y007874D02*
X048956Y007874D01*
X048899Y007931D01*
X048956Y008045D02*
X049126Y008045D01*
X049126Y008158D02*
X049069Y008215D01*
X048956Y008215D01*
X048899Y008158D01*
X048899Y008101D01*
X048956Y008045D01*
X049126Y007931D02*
X049126Y008158D01*
X049126Y007931D02*
X049069Y007874D01*
X048757Y007931D02*
X048701Y007874D01*
X048587Y007874D01*
X048531Y007931D01*
X048531Y008158D01*
X048587Y008215D01*
X048701Y008215D01*
X048757Y008158D01*
X048846Y008574D02*
X048732Y008688D01*
X048789Y008688D02*
X048619Y008688D01*
X048619Y008574D02*
X048619Y008915D01*
X048789Y008915D01*
X048846Y008858D01*
X048846Y008745D01*
X048789Y008688D01*
X048987Y008745D02*
X049214Y008745D01*
X049157Y008915D02*
X049157Y008574D01*
X048987Y008745D02*
X049157Y008915D01*
X050680Y010031D02*
X050737Y009974D01*
X050964Y009974D01*
X051021Y010031D01*
X051021Y010145D01*
X050964Y010201D01*
X050964Y010343D02*
X051021Y010399D01*
X051021Y010513D01*
X050964Y010570D01*
X050850Y010570D01*
X050794Y010513D01*
X050794Y010456D01*
X050850Y010343D01*
X050680Y010343D01*
X050680Y010570D01*
X050737Y010201D02*
X050680Y010145D01*
X050680Y010031D01*
X051680Y010406D02*
X051737Y010349D01*
X051964Y010349D01*
X052021Y010406D01*
X052021Y010520D01*
X051964Y010576D01*
X051964Y010718D02*
X052021Y010774D01*
X052021Y010888D01*
X051964Y010945D01*
X051907Y010945D01*
X051850Y010888D01*
X051850Y010718D01*
X051964Y010718D01*
X051850Y010718D02*
X051737Y010831D01*
X051680Y010945D01*
X052430Y010888D02*
X052487Y010945D01*
X052544Y010945D01*
X052600Y010888D01*
X052657Y010945D01*
X052714Y010945D01*
X052771Y010888D01*
X052771Y010774D01*
X052714Y010718D01*
X052714Y010576D02*
X052771Y010520D01*
X052771Y010406D01*
X052714Y010349D01*
X052487Y010349D01*
X052430Y010406D01*
X052430Y010520D01*
X052487Y010576D01*
X052487Y010718D02*
X052430Y010774D01*
X052430Y010888D01*
X052600Y010888D02*
X052600Y010831D01*
X052600Y011086D02*
X052600Y011256D01*
X052657Y011313D01*
X052714Y011313D01*
X052771Y011256D01*
X052771Y011143D01*
X052714Y011086D01*
X052600Y011086D01*
X052487Y011199D01*
X052430Y011313D01*
X051737Y010576D02*
X051680Y010520D01*
X051680Y010406D01*
X055630Y010258D02*
X055800Y010088D01*
X055800Y010315D01*
X055744Y010456D02*
X055630Y010569D01*
X055971Y010569D01*
X055971Y010456D02*
X055971Y010683D01*
X056755Y010626D02*
X056755Y010513D01*
X056812Y010456D01*
X057039Y010456D01*
X056812Y010683D01*
X057039Y010683D01*
X057096Y010626D01*
X057096Y010513D01*
X057039Y010456D01*
X056925Y010315D02*
X056925Y010088D01*
X056755Y010258D01*
X057096Y010258D01*
X057039Y009946D02*
X057096Y009890D01*
X057096Y009776D01*
X057039Y009719D01*
X056812Y009719D01*
X056755Y009776D01*
X056755Y009890D01*
X056812Y009946D01*
X055971Y009890D02*
X055971Y009776D01*
X055914Y009719D01*
X055687Y009719D01*
X055630Y009776D01*
X055630Y009890D01*
X055687Y009946D01*
X055914Y009946D02*
X055971Y009890D01*
X055971Y010258D02*
X055630Y010258D01*
X056755Y010626D02*
X056812Y010683D01*
X061851Y010544D02*
X061851Y010044D01*
X062101Y009794D01*
X062601Y009794D01*
X062851Y010044D01*
X062851Y010544D01*
X062601Y010794D01*
X062101Y010794D01*
X061851Y010544D01*
X062076Y010924D02*
X062019Y010981D01*
X062076Y010924D02*
X062189Y010924D01*
X062246Y010981D01*
X062246Y011095D01*
X062189Y011151D01*
X062132Y011151D01*
X062019Y011095D01*
X062019Y011265D01*
X062246Y011265D01*
X062387Y011265D02*
X062387Y011038D01*
X062501Y010924D01*
X062614Y011038D01*
X062614Y011265D01*
X063101Y009294D02*
X061601Y009294D01*
X061351Y009044D01*
X061351Y008544D01*
X061601Y008294D01*
X063101Y008294D02*
X063351Y008544D01*
X063351Y009044D01*
X063101Y009294D01*
X060982Y008824D02*
X060756Y008824D01*
X060869Y008824D02*
X060869Y009165D01*
X060756Y009051D01*
X058614Y009049D02*
X058387Y009049D01*
X058501Y009049D02*
X058501Y009390D01*
X058387Y009276D01*
X058019Y009390D02*
X058019Y009049D01*
X058246Y009049D01*
X058351Y005044D02*
X057851Y005044D01*
X057601Y004794D01*
X057601Y004294D01*
X057851Y004044D01*
X058351Y004044D01*
X058601Y004294D01*
X058601Y004794D01*
X058351Y005044D01*
X061351Y004044D02*
X061601Y004294D01*
X062101Y004294D01*
X062351Y004044D01*
X062351Y003544D01*
X062101Y003294D01*
X061601Y003294D01*
X061351Y003544D01*
X061351Y004044D01*
X061114Y003890D02*
X061114Y003663D01*
X061001Y003549D01*
X060887Y003663D01*
X060887Y003890D01*
X060746Y003833D02*
X060689Y003890D01*
X060576Y003890D01*
X060519Y003833D01*
X060632Y003720D02*
X060689Y003720D01*
X060746Y003663D01*
X060746Y003606D01*
X060689Y003549D01*
X060576Y003549D01*
X060519Y003606D01*
X060392Y003606D02*
X060392Y003549D01*
X060335Y003549D01*
X060335Y003606D01*
X060392Y003606D01*
X060193Y003606D02*
X060137Y003549D01*
X060023Y003549D01*
X059967Y003606D01*
X060080Y003720D02*
X060137Y003720D01*
X060193Y003663D01*
X060193Y003606D01*
X060137Y003720D02*
X060193Y003776D01*
X060193Y003833D01*
X060137Y003890D01*
X060023Y003890D01*
X059967Y003833D01*
X060689Y003720D02*
X060746Y003776D01*
X060746Y003833D01*
X058489Y003731D02*
X058432Y003674D01*
X058262Y003674D01*
X058262Y004015D01*
X058432Y004015D01*
X058489Y003958D01*
X058489Y003731D01*
X058121Y003674D02*
X058121Y004015D01*
X057894Y004015D02*
X058121Y003674D01*
X057894Y003674D02*
X057894Y004015D01*
X057753Y003958D02*
X057696Y004015D01*
X057582Y004015D01*
X057526Y003958D01*
X057526Y003731D01*
X057582Y003674D01*
X057696Y003674D01*
X057753Y003731D01*
X057753Y003845D01*
X057639Y003845D01*
X052351Y003358D02*
X052351Y003301D01*
X052294Y003245D01*
X052351Y003188D01*
X052351Y003131D01*
X052294Y003074D01*
X052181Y003074D01*
X052124Y003131D01*
X051982Y003074D02*
X051869Y003188D01*
X051926Y003188D02*
X051756Y003188D01*
X051756Y003074D02*
X051756Y003415D01*
X051926Y003415D01*
X051982Y003358D01*
X051982Y003245D01*
X051926Y003188D01*
X052124Y003358D02*
X052181Y003415D01*
X052294Y003415D01*
X052351Y003358D01*
X052294Y003245D02*
X052237Y003245D01*
X044239Y004481D02*
X044182Y004424D01*
X044012Y004424D01*
X044012Y004765D01*
X044182Y004765D01*
X044239Y004708D01*
X044239Y004481D01*
X043871Y004424D02*
X043871Y004765D01*
X043644Y004765D02*
X043871Y004424D01*
X043644Y004424D02*
X043644Y004765D01*
X043503Y004708D02*
X043446Y004765D01*
X043332Y004765D01*
X043276Y004708D01*
X043276Y004481D01*
X043332Y004424D01*
X043446Y004424D01*
X043503Y004481D01*
X043503Y004595D01*
X043389Y004595D01*
X038293Y003358D02*
X038293Y003301D01*
X038236Y003245D01*
X038293Y003188D01*
X038293Y003131D01*
X038236Y003074D01*
X038123Y003074D01*
X038066Y003131D01*
X037925Y003074D02*
X037698Y003074D01*
X037811Y003074D02*
X037811Y003415D01*
X037698Y003301D01*
X037556Y003358D02*
X037330Y003131D01*
X037386Y003074D01*
X037500Y003074D01*
X037556Y003131D01*
X037556Y003358D01*
X037500Y003415D01*
X037386Y003415D01*
X037330Y003358D01*
X037330Y003131D01*
X037188Y003074D02*
X036961Y003074D01*
X037188Y003301D01*
X037188Y003358D01*
X037131Y003415D01*
X037018Y003415D01*
X036961Y003358D01*
X036820Y003415D02*
X036593Y003415D01*
X036706Y003415D02*
X036706Y003074D01*
X036451Y003245D02*
X036395Y003188D01*
X036225Y003188D01*
X036225Y003074D02*
X036225Y003415D01*
X036395Y003415D01*
X036451Y003358D01*
X036451Y003245D01*
X036083Y003415D02*
X035856Y003415D01*
X035856Y003074D01*
X036083Y003074D01*
X035715Y003131D02*
X035658Y003074D01*
X035545Y003074D01*
X035488Y003131D01*
X035545Y003245D02*
X035658Y003245D01*
X035715Y003188D01*
X035715Y003131D01*
X035856Y003245D02*
X035970Y003245D01*
X035715Y003358D02*
X035658Y003415D01*
X035545Y003415D01*
X035488Y003358D01*
X035488Y003301D01*
X035545Y003245D01*
X035233Y003415D02*
X035120Y003301D01*
X035233Y003415D02*
X035233Y003074D01*
X035120Y003074D02*
X035347Y003074D01*
X034610Y003301D02*
X034496Y003074D01*
X034383Y003301D01*
X034242Y003245D02*
X034242Y003188D01*
X034015Y003188D01*
X034015Y003131D02*
X034015Y003245D01*
X034071Y003301D01*
X034185Y003301D01*
X034242Y003245D01*
X034071Y003074D02*
X034015Y003131D01*
X034071Y003074D02*
X034185Y003074D01*
X033873Y003074D02*
X033760Y003188D01*
X033817Y003188D02*
X033646Y003188D01*
X033646Y003074D02*
X033646Y003415D01*
X033817Y003415D01*
X033873Y003358D01*
X033873Y003245D01*
X033817Y003188D01*
X033137Y003245D02*
X032910Y003245D01*
X032400Y003301D02*
X032400Y003018D01*
X032343Y002961D01*
X032287Y002961D01*
X032230Y003074D02*
X032400Y003074D01*
X032230Y003074D02*
X032173Y003131D01*
X032173Y003301D01*
X032036Y003301D02*
X031980Y003301D01*
X031866Y003188D01*
X031866Y003301D02*
X031866Y003074D01*
X031725Y003188D02*
X031498Y003188D01*
X031498Y003131D02*
X031498Y003245D01*
X031555Y003301D01*
X031668Y003301D01*
X031725Y003245D01*
X031725Y003188D01*
X031668Y003074D02*
X031555Y003074D01*
X031498Y003131D01*
X031356Y003301D02*
X031243Y003074D01*
X031130Y003301D01*
X030988Y003245D02*
X030931Y003301D01*
X030818Y003301D01*
X030761Y003245D01*
X030761Y003131D01*
X030818Y003074D01*
X030931Y003074D01*
X030988Y003131D01*
X030988Y003245D01*
X030620Y003301D02*
X030450Y003301D01*
X030393Y003245D01*
X030393Y003131D01*
X030450Y003074D01*
X030620Y003074D01*
X030252Y003188D02*
X030025Y003188D01*
X030025Y003131D02*
X030025Y003245D01*
X030081Y003301D01*
X030195Y003301D01*
X030252Y003245D01*
X030252Y003188D01*
X030195Y003074D02*
X030081Y003074D01*
X030025Y003131D01*
X029883Y003074D02*
X029770Y003188D01*
X029827Y003188D02*
X029656Y003188D01*
X029656Y003074D02*
X029656Y003415D01*
X029827Y003415D01*
X029883Y003358D01*
X029883Y003245D01*
X029827Y003188D01*
X029151Y003301D02*
X028981Y003188D01*
X029151Y003074D01*
X028981Y003074D02*
X028981Y003415D01*
X028840Y003301D02*
X028670Y003301D01*
X028613Y003245D01*
X028613Y003131D01*
X028670Y003074D01*
X028840Y003074D01*
X028471Y003131D02*
X028471Y003245D01*
X028415Y003301D01*
X028301Y003301D01*
X028244Y003245D01*
X028244Y003131D01*
X028301Y003074D01*
X028415Y003074D01*
X028471Y003131D01*
X028112Y003074D02*
X027999Y003074D01*
X028056Y003074D02*
X028056Y003415D01*
X027999Y003415D01*
X027857Y003358D02*
X027801Y003415D01*
X027687Y003415D01*
X027631Y003358D01*
X027631Y003131D01*
X027687Y003074D01*
X027801Y003074D01*
X027857Y003131D01*
X027521Y003569D02*
X027180Y003569D01*
X027521Y003569D02*
X027521Y003796D01*
X027521Y003938D02*
X027521Y004165D01*
X027521Y004051D02*
X027180Y004051D01*
X027294Y003938D01*
X027350Y004306D02*
X027350Y004476D01*
X027407Y004533D01*
X027464Y004533D01*
X027521Y004476D01*
X027521Y004363D01*
X027464Y004306D01*
X027350Y004306D01*
X027237Y004419D01*
X027180Y004533D01*
X028180Y004476D02*
X028180Y004363D01*
X028237Y004306D01*
X028237Y004165D02*
X028180Y004108D01*
X028180Y003994D01*
X028237Y003938D01*
X028237Y003796D02*
X028180Y003740D01*
X028180Y003626D01*
X028237Y003569D01*
X028464Y003569D01*
X028521Y003626D01*
X028521Y003740D01*
X028464Y003796D01*
X028521Y003938D02*
X028294Y004165D01*
X028237Y004165D01*
X028464Y004306D02*
X028521Y004363D01*
X028521Y004476D01*
X028464Y004533D01*
X028407Y004533D01*
X028350Y004476D01*
X028350Y004419D01*
X028350Y004476D02*
X028294Y004533D01*
X028237Y004533D01*
X028180Y004476D01*
X028521Y004165D02*
X028521Y003938D01*
X031680Y003994D02*
X031737Y003938D01*
X031680Y003994D02*
X031680Y004108D01*
X031737Y004165D01*
X031794Y004165D01*
X032021Y003938D01*
X032021Y004165D01*
X031850Y004306D02*
X031850Y004533D01*
X031680Y004476D02*
X032021Y004476D01*
X031850Y004306D02*
X031680Y004476D01*
X032680Y004533D02*
X032680Y004306D01*
X032737Y004533D02*
X032964Y004306D01*
X033021Y004306D01*
X033021Y004165D02*
X033021Y003938D01*
X033021Y004051D02*
X032680Y004051D01*
X032794Y003938D01*
X033021Y003796D02*
X033021Y003569D01*
X032680Y003569D01*
X032021Y003626D02*
X032021Y003740D01*
X031964Y003796D01*
X032021Y003626D02*
X031964Y003569D01*
X031737Y003569D01*
X031680Y003626D01*
X031680Y003740D01*
X031737Y003796D01*
X032680Y004533D02*
X032737Y004533D01*
X036180Y004533D02*
X036180Y004306D01*
X036350Y004306D01*
X036294Y004419D01*
X036294Y004476D01*
X036350Y004533D01*
X036464Y004533D01*
X036521Y004476D01*
X036521Y004363D01*
X036464Y004306D01*
X036521Y004165D02*
X036521Y003938D01*
X036294Y004165D01*
X036237Y004165D01*
X036180Y004108D01*
X036180Y003994D01*
X036237Y003938D01*
X036237Y003796D02*
X036180Y003740D01*
X036180Y003626D01*
X036237Y003569D01*
X036464Y003569D01*
X036521Y003626D01*
X036521Y003740D01*
X036464Y003796D01*
X037180Y003569D02*
X037521Y003569D01*
X037521Y003796D01*
X037521Y003938D02*
X037521Y004165D01*
X037521Y004051D02*
X037180Y004051D01*
X037294Y003938D01*
X037294Y004306D02*
X037237Y004306D01*
X037180Y004363D01*
X037180Y004476D01*
X037237Y004533D01*
X037294Y004533D01*
X037350Y004476D01*
X037350Y004363D01*
X037294Y004306D01*
X037350Y004363D02*
X037407Y004306D01*
X037464Y004306D01*
X037521Y004363D01*
X037521Y004476D01*
X037464Y004533D01*
X037407Y004533D01*
X037350Y004476D01*
X038123Y003415D02*
X038236Y003415D01*
X038293Y003358D01*
X038236Y003245D02*
X038180Y003245D01*
X038066Y003358D02*
X038123Y003415D01*
X025237Y003245D02*
X025237Y003074D01*
X025124Y003074D02*
X025124Y003245D01*
X025180Y003301D01*
X025237Y003245D01*
X025124Y003245D02*
X025067Y003301D01*
X025010Y003301D01*
X025010Y003074D01*
X024869Y003131D02*
X024869Y003245D01*
X024812Y003301D01*
X024699Y003301D01*
X024642Y003245D01*
X024642Y003131D01*
X024699Y003074D01*
X024812Y003074D01*
X024869Y003131D01*
X024501Y003074D02*
X024330Y003074D01*
X024274Y003131D01*
X024274Y003245D01*
X024330Y003301D01*
X024501Y003301D01*
X024146Y003131D02*
X024146Y003074D01*
X024090Y003074D01*
X024090Y003131D01*
X024146Y003131D01*
X023953Y003301D02*
X023896Y003301D01*
X023783Y003188D01*
X023783Y003301D02*
X023783Y003074D01*
X023641Y003188D02*
X023414Y003188D01*
X023414Y003131D02*
X023414Y003245D01*
X023471Y003301D01*
X023584Y003301D01*
X023641Y003245D01*
X023641Y003188D01*
X023584Y003074D02*
X023471Y003074D01*
X023414Y003131D01*
X023277Y003301D02*
X023221Y003301D01*
X023107Y003188D01*
X023107Y003301D02*
X023107Y003074D01*
X022966Y003188D02*
X022739Y003188D01*
X022739Y003131D02*
X022739Y003245D01*
X022796Y003301D01*
X022909Y003301D01*
X022966Y003245D01*
X022966Y003188D01*
X022909Y003074D02*
X022796Y003074D01*
X022739Y003131D01*
X022598Y003131D02*
X022541Y003074D01*
X022371Y003074D01*
X022371Y002961D02*
X022371Y003301D01*
X022541Y003301D01*
X022598Y003245D01*
X022598Y003131D01*
X022229Y003131D02*
X022173Y003074D01*
X022002Y003074D01*
X022059Y003188D02*
X022002Y003245D01*
X022059Y003301D01*
X022229Y003301D01*
X022173Y003188D02*
X022059Y003188D01*
X022173Y003188D02*
X022229Y003131D01*
X021870Y003074D02*
X021757Y003074D01*
X021814Y003074D02*
X021814Y003301D01*
X021757Y003301D01*
X021814Y003415D02*
X021814Y003471D01*
X021615Y003245D02*
X021615Y003074D01*
X021389Y003074D02*
X021389Y003415D01*
X021445Y003301D02*
X021559Y003301D01*
X021615Y003245D01*
X021445Y003301D02*
X021389Y003245D01*
X021247Y003415D02*
X021247Y003074D01*
X021134Y003188D01*
X021020Y003074D01*
X021020Y003415D01*
X020879Y003245D02*
X020879Y003131D01*
X020822Y003074D01*
X020652Y003074D01*
X020652Y002961D02*
X020652Y003301D01*
X020822Y003301D01*
X020879Y003245D01*
X020463Y003301D02*
X020463Y003074D01*
X020406Y003074D02*
X020520Y003074D01*
X020265Y003074D02*
X020265Y003245D01*
X020208Y003301D01*
X020095Y003301D01*
X020038Y003245D01*
X020038Y003415D02*
X020038Y003074D01*
X019897Y003131D02*
X019840Y003074D01*
X019726Y003074D01*
X019670Y003131D01*
X019670Y003358D01*
X019726Y003415D01*
X019840Y003415D01*
X019897Y003358D01*
X019542Y003131D02*
X019542Y003074D01*
X019486Y003074D01*
X019486Y003131D01*
X019542Y003131D01*
X019344Y003131D02*
X019344Y003301D01*
X019344Y003131D02*
X019287Y003074D01*
X019231Y003131D01*
X019174Y003074D01*
X019117Y003131D01*
X019117Y003301D01*
X018976Y003301D02*
X018976Y003131D01*
X018919Y003074D01*
X018862Y003131D01*
X018806Y003074D01*
X018749Y003131D01*
X018749Y003301D01*
X018607Y003301D02*
X018607Y003131D01*
X018551Y003074D01*
X018494Y003131D01*
X018437Y003074D01*
X018381Y003131D01*
X018381Y003301D01*
X020406Y003301D02*
X020463Y003301D01*
X020463Y003415D02*
X020463Y003471D01*
D13*
X020444Y003849D02*
X020628Y003849D01*
X020536Y003849D02*
X020536Y004400D01*
X020444Y004400D01*
X020203Y004125D02*
X020112Y004216D01*
X019928Y004216D01*
X019837Y004125D01*
X019837Y003941D01*
X019928Y003849D01*
X020112Y003849D01*
X020203Y004033D02*
X019837Y004033D01*
X019596Y003941D02*
X019504Y004033D01*
X019321Y004033D01*
X019229Y004125D01*
X019321Y004216D01*
X019596Y004216D01*
X018988Y004216D02*
X018713Y004216D01*
X018621Y004125D01*
X018713Y004033D01*
X018896Y004033D01*
X018988Y003941D01*
X018896Y003849D01*
X018621Y003849D01*
X018380Y004033D02*
X018013Y004033D01*
X018013Y004125D02*
X018105Y004216D01*
X018289Y004216D01*
X018380Y004125D01*
X018380Y004033D01*
X018289Y003849D02*
X018105Y003849D01*
X018013Y003941D01*
X018013Y004125D01*
X017773Y004216D02*
X017681Y004125D01*
X017406Y004125D01*
X017406Y004400D02*
X017406Y003849D01*
X017681Y003849D01*
X017773Y003941D01*
X017773Y004033D01*
X017681Y004125D01*
X017773Y004216D02*
X017773Y004308D01*
X017681Y004400D01*
X017406Y004400D01*
X019229Y003849D02*
X019504Y003849D01*
X019596Y003941D01*
X020203Y004033D02*
X020203Y004125D01*
X021457Y004125D02*
X021641Y004125D01*
X021457Y004400D02*
X021457Y003849D01*
X022065Y003849D02*
X022248Y003849D01*
X022157Y003849D02*
X022157Y004216D01*
X022065Y004216D01*
X022157Y004400D02*
X022157Y004492D01*
X022470Y004400D02*
X022562Y004400D01*
X022562Y003849D01*
X022653Y003849D02*
X022470Y003849D01*
X022967Y003941D02*
X023059Y003849D01*
X022967Y003941D02*
X022967Y004308D01*
X022875Y004216D02*
X023059Y004216D01*
X023280Y004125D02*
X023372Y004216D01*
X023555Y004216D01*
X023647Y004125D01*
X023647Y004033D01*
X023280Y004033D01*
X023280Y003941D02*
X023280Y004125D01*
X023280Y003941D02*
X023372Y003849D01*
X023555Y003849D01*
X023888Y003849D02*
X023888Y004216D01*
X023888Y004033D02*
X024071Y004216D01*
X024163Y004216D01*
X024394Y004125D02*
X024486Y004216D01*
X024761Y004216D01*
X024670Y004033D02*
X024486Y004033D01*
X024394Y004125D01*
X024394Y003849D02*
X024670Y003849D01*
X024761Y003941D01*
X024670Y004033D01*
X021824Y004400D02*
X021457Y004400D01*
X012113Y004125D02*
X012113Y003941D01*
X012021Y003849D01*
X011746Y003849D01*
X011505Y003849D02*
X011505Y004125D01*
X011413Y004216D01*
X011321Y004125D01*
X011321Y003849D01*
X011138Y003849D02*
X011138Y004216D01*
X011230Y004216D01*
X011321Y004125D01*
X010897Y004125D02*
X010530Y004125D01*
X010530Y004216D02*
X010530Y003849D01*
X010897Y003849D02*
X010897Y004216D01*
X010714Y004400D01*
X010530Y004216D01*
X009682Y004125D02*
X009682Y004033D01*
X009315Y004033D01*
X009315Y004125D02*
X009407Y004216D01*
X009590Y004216D01*
X009682Y004125D01*
X009590Y003849D02*
X009407Y003849D01*
X009315Y003941D01*
X009315Y004125D01*
X009074Y004216D02*
X008799Y004216D01*
X008707Y004125D01*
X008799Y004033D01*
X008982Y004033D01*
X009074Y003941D01*
X008982Y003849D01*
X008707Y003849D01*
X008485Y003849D02*
X008302Y003849D01*
X008394Y003849D02*
X008394Y004216D01*
X008302Y004216D01*
X008394Y004400D02*
X008394Y004492D01*
X008061Y004125D02*
X007969Y004216D01*
X007786Y004216D01*
X007694Y004125D01*
X007694Y003941D01*
X007786Y003849D01*
X007969Y003849D01*
X008061Y003941D01*
X008061Y004125D01*
X007453Y003849D02*
X007453Y004400D01*
X007087Y004400D02*
X007453Y003849D01*
X007087Y003849D02*
X007087Y004400D01*
X006238Y004216D02*
X006238Y003941D01*
X006146Y003849D01*
X006055Y003941D01*
X005963Y003849D01*
X005871Y003941D01*
X005871Y004216D01*
X005630Y004125D02*
X005539Y004216D01*
X005355Y004216D01*
X005263Y004125D01*
X005263Y003941D01*
X005355Y003849D01*
X005539Y003849D01*
X005630Y003941D01*
X005630Y004125D01*
X005023Y003849D02*
X004656Y003849D01*
X004656Y004400D01*
X011746Y004216D02*
X011746Y003666D01*
X012113Y004125D02*
X012021Y004216D01*
X011746Y004216D01*
X041906Y004400D02*
X041906Y003849D01*
X042273Y003849D01*
X042513Y003849D02*
X042697Y003849D01*
X042605Y003849D02*
X042605Y004216D01*
X042513Y004216D01*
X042605Y004400D02*
X042605Y004492D01*
X042918Y004216D02*
X043010Y004216D01*
X043102Y004125D01*
X043194Y004216D01*
X043285Y004125D01*
X043285Y003849D01*
X043102Y003849D02*
X043102Y004125D01*
X042918Y004216D02*
X042918Y003849D01*
X043526Y003849D02*
X043710Y003849D01*
X043618Y003849D02*
X043618Y004216D01*
X043526Y004216D01*
X043618Y004400D02*
X043618Y004492D01*
X043931Y004216D02*
X044115Y004216D01*
X044023Y004308D02*
X044023Y003941D01*
X044115Y003849D01*
X044337Y003941D02*
X044337Y004125D01*
X044428Y004216D01*
X044612Y004216D01*
X044703Y004125D01*
X044703Y004033D01*
X044337Y004033D01*
X044337Y003941D02*
X044428Y003849D01*
X044612Y003849D01*
X044944Y003849D02*
X044944Y004216D01*
X044944Y004033D02*
X045128Y004216D01*
X045219Y004216D01*
D14*
X040592Y005209D02*
X040311Y005209D01*
X040592Y005490D01*
X040592Y005560D01*
X040522Y005630D01*
X040381Y005630D01*
X040311Y005560D01*
X040131Y005560D02*
X040131Y005420D01*
X040061Y005350D01*
X039851Y005350D01*
X039851Y005209D02*
X039851Y005630D01*
X040061Y005630D01*
X040131Y005560D01*
X039671Y005630D02*
X039531Y005630D01*
X039601Y005630D02*
X039601Y005279D01*
X039531Y005209D01*
X039461Y005209D01*
X039391Y005279D01*
X042666Y006579D02*
X042736Y006509D01*
X042876Y006509D01*
X042946Y006579D01*
X043126Y006509D02*
X043406Y006790D01*
X043406Y006860D01*
X043336Y006930D01*
X043196Y006930D01*
X043126Y006860D01*
X042946Y006860D02*
X042876Y006930D01*
X042736Y006930D01*
X042666Y006860D01*
X042666Y006579D01*
X043126Y006509D02*
X043406Y006509D01*
X043586Y006579D02*
X043586Y006650D01*
X043656Y006720D01*
X043797Y006720D01*
X043867Y006650D01*
X043867Y006579D01*
X043797Y006509D01*
X043656Y006509D01*
X043586Y006579D01*
X043656Y006720D02*
X043586Y006790D01*
X043586Y006860D01*
X043656Y006930D01*
X043797Y006930D01*
X043867Y006860D01*
X043867Y006790D01*
X043797Y006720D01*
X044535Y007484D02*
X044816Y007484D01*
X044886Y007554D01*
X044886Y007695D01*
X044816Y007765D01*
X044886Y007945D02*
X044886Y008225D01*
X044886Y008085D02*
X044465Y008085D01*
X044605Y007945D01*
X044535Y007765D02*
X044465Y007695D01*
X044465Y007554D01*
X044535Y007484D01*
X044535Y008405D02*
X044465Y008475D01*
X044465Y008615D01*
X044535Y008685D01*
X044816Y008405D01*
X044886Y008475D01*
X044886Y008615D01*
X044816Y008685D01*
X044535Y008685D01*
X044535Y008405D02*
X044816Y008405D01*
X051607Y008962D02*
X053095Y008962D01*
X053095Y005627D01*
X051607Y005627D01*
X051607Y008962D01*
X053220Y009709D02*
X053500Y009709D01*
X053680Y009920D02*
X053960Y009920D01*
X053890Y010130D02*
X053680Y009920D01*
X053890Y010130D02*
X053890Y009709D01*
X053220Y009709D02*
X053220Y010130D01*
X045931Y011584D02*
X045931Y012155D01*
X044888Y012155D01*
X044888Y013001D01*
X045183Y013296D01*
X045183Y014792D01*
X044849Y014792D01*
X044849Y015255D01*
X043353Y015255D01*
X043353Y014792D01*
X043018Y014792D01*
X043018Y013296D01*
X043313Y013001D01*
X043313Y012155D01*
X042270Y012155D01*
X042270Y011584D01*
X042585Y011584D02*
X045616Y011584D01*
X060811Y005904D02*
X060811Y005624D01*
X060811Y005764D02*
X060390Y005764D01*
X060530Y005624D01*
X060460Y005444D02*
X060600Y005444D01*
X060671Y005374D01*
X060671Y005164D01*
X060811Y005164D02*
X060390Y005164D01*
X060390Y005374D01*
X060460Y005444D01*
X060390Y004983D02*
X060390Y004843D01*
X060390Y004913D02*
X060741Y004913D01*
X060811Y004843D01*
X060811Y004773D01*
X060741Y004703D01*
X023842Y005279D02*
X023772Y005209D01*
X023631Y005209D01*
X023561Y005279D01*
X023702Y005420D02*
X023772Y005420D01*
X023842Y005350D01*
X023842Y005279D01*
X023772Y005420D02*
X023842Y005490D01*
X023842Y005560D01*
X023772Y005630D01*
X023631Y005630D01*
X023561Y005560D01*
X023381Y005560D02*
X023381Y005420D01*
X023311Y005350D01*
X023101Y005350D01*
X023101Y005209D02*
X023101Y005630D01*
X023311Y005630D01*
X023381Y005560D01*
X022921Y005630D02*
X022781Y005630D01*
X022851Y005630D02*
X022851Y005279D01*
X022781Y005209D01*
X022711Y005209D01*
X022641Y005279D01*
X018685Y006604D02*
X018615Y006534D01*
X018475Y006534D01*
X018405Y006604D01*
X018405Y006675D01*
X018475Y006745D01*
X018615Y006745D01*
X018685Y006675D01*
X018685Y006604D01*
X018615Y006745D02*
X018685Y006815D01*
X018685Y006885D01*
X018615Y006955D01*
X018475Y006955D01*
X018405Y006885D01*
X018405Y006815D01*
X018475Y006745D01*
X018225Y006815D02*
X018155Y006745D01*
X018225Y006675D01*
X018225Y006604D01*
X018155Y006534D01*
X018015Y006534D01*
X017945Y006604D01*
X017765Y006604D02*
X017695Y006534D01*
X017555Y006534D01*
X017484Y006604D01*
X017484Y006885D01*
X017555Y006955D01*
X017695Y006955D01*
X017765Y006885D01*
X017945Y006885D02*
X018015Y006955D01*
X018155Y006955D01*
X018225Y006885D01*
X018225Y006815D01*
X018155Y006745D02*
X018085Y006745D01*
X015842Y006130D02*
X015561Y006130D01*
X015561Y005920D01*
X015702Y005990D01*
X015772Y005990D01*
X015842Y005920D01*
X015842Y005779D01*
X015772Y005709D01*
X015631Y005709D01*
X015561Y005779D01*
X015381Y005920D02*
X015311Y005850D01*
X015101Y005850D01*
X015101Y005709D02*
X015101Y006130D01*
X015311Y006130D01*
X015381Y006060D01*
X015381Y005920D01*
X014921Y006130D02*
X014781Y006130D01*
X014851Y006130D02*
X014851Y005779D01*
X014781Y005709D01*
X014711Y005709D01*
X014641Y005779D01*
X013867Y005720D02*
X013867Y005579D01*
X013797Y005509D01*
X013656Y005509D01*
X013586Y005579D01*
X013586Y005720D02*
X013727Y005790D01*
X013797Y005790D01*
X013867Y005720D01*
X013867Y005930D02*
X013586Y005930D01*
X013586Y005720D01*
X013406Y005790D02*
X013336Y005720D01*
X013406Y005650D01*
X013406Y005579D01*
X013336Y005509D01*
X013196Y005509D01*
X013126Y005579D01*
X012946Y005579D02*
X012876Y005509D01*
X012736Y005509D01*
X012666Y005579D01*
X012666Y005860D01*
X012736Y005930D01*
X012876Y005930D01*
X012946Y005860D01*
X013126Y005860D02*
X013196Y005930D01*
X013336Y005930D01*
X013406Y005860D01*
X013406Y005790D01*
X013336Y005720D02*
X013266Y005720D01*
X012560Y006479D02*
X012490Y006409D01*
X012350Y006409D01*
X012280Y006479D01*
X012100Y006479D02*
X012030Y006409D01*
X011890Y006409D01*
X011820Y006479D01*
X011640Y006479D02*
X011570Y006409D01*
X011430Y006409D01*
X011359Y006479D01*
X011359Y006760D01*
X011430Y006830D01*
X011570Y006830D01*
X011640Y006760D01*
X011820Y006760D02*
X011890Y006830D01*
X012030Y006830D01*
X012100Y006760D01*
X012100Y006690D01*
X012030Y006620D01*
X012100Y006550D01*
X012100Y006479D01*
X012030Y006620D02*
X011960Y006620D01*
X012280Y006760D02*
X012350Y006830D01*
X012490Y006830D01*
X012560Y006760D01*
X012560Y006690D01*
X012490Y006620D01*
X012560Y006550D01*
X012560Y006479D01*
X012490Y006620D02*
X012420Y006620D01*
X011117Y006665D02*
X010836Y006384D01*
X011117Y006384D01*
X010656Y006454D02*
X010656Y006525D01*
X010586Y006595D01*
X010516Y006595D01*
X010586Y006595D02*
X010656Y006665D01*
X010656Y006735D01*
X010586Y006805D01*
X010446Y006805D01*
X010376Y006735D01*
X010196Y006735D02*
X010126Y006805D01*
X009986Y006805D01*
X009916Y006735D01*
X009916Y006454D01*
X009986Y006384D01*
X010126Y006384D01*
X010196Y006454D01*
X010376Y006454D02*
X010446Y006384D01*
X010586Y006384D01*
X010656Y006454D01*
X010836Y006735D02*
X010906Y006805D01*
X011047Y006805D01*
X011117Y006735D01*
X011117Y006665D01*
X007842Y005920D02*
X007561Y005920D01*
X007772Y006130D01*
X007772Y005709D01*
X007381Y005920D02*
X007311Y005850D01*
X007101Y005850D01*
X007101Y005709D02*
X007101Y006130D01*
X007311Y006130D01*
X007381Y006060D01*
X007381Y005920D01*
X006921Y006130D02*
X006781Y006130D01*
X006851Y006130D02*
X006851Y005779D01*
X006781Y005709D01*
X006711Y005709D01*
X006641Y005779D01*
X003811Y005779D02*
X003811Y008810D01*
X003811Y009125D02*
X003240Y009125D01*
X003240Y008082D01*
X002394Y008082D01*
X002099Y008377D01*
X000603Y008377D01*
X000603Y008042D01*
X000140Y008042D01*
X000140Y006546D01*
X000603Y006546D01*
X000603Y006212D01*
X002099Y006212D01*
X002394Y006507D01*
X003240Y006507D01*
X003240Y005464D01*
X003811Y005464D01*
X011826Y008721D02*
X012024Y008523D01*
X011826Y008721D02*
X012222Y008721D01*
X012272Y008771D01*
X012272Y008870D01*
X012173Y008969D01*
X012074Y008969D01*
X011996Y009146D02*
X011748Y008898D01*
X011649Y008898D01*
X011550Y008997D01*
X011550Y009096D01*
X011797Y009344D01*
X012791Y008985D02*
X012791Y008704D01*
X012861Y008634D01*
X013001Y008634D01*
X013071Y008704D01*
X013251Y008704D02*
X013321Y008634D01*
X013461Y008634D01*
X013531Y008704D01*
X013531Y008775D01*
X013461Y008845D01*
X013391Y008845D01*
X013461Y008845D02*
X013531Y008915D01*
X013531Y008985D01*
X013461Y009055D01*
X013321Y009055D01*
X013251Y008985D01*
X013071Y008985D02*
X013001Y009055D01*
X012861Y009055D01*
X012791Y008985D01*
X013711Y008985D02*
X013781Y009055D01*
X013922Y009055D01*
X013992Y008985D01*
X013711Y008704D01*
X013781Y008634D01*
X013922Y008634D01*
X013992Y008704D01*
X013992Y008985D01*
X013711Y008985D02*
X013711Y008704D01*
X009992Y008634D02*
X009711Y008634D01*
X009852Y008634D02*
X009852Y009055D01*
X009711Y008915D01*
X009531Y008915D02*
X009531Y008985D01*
X009461Y009055D01*
X009321Y009055D01*
X009251Y008985D01*
X009071Y008985D02*
X009001Y009055D01*
X008861Y009055D01*
X008791Y008985D01*
X008791Y008704D01*
X008861Y008634D01*
X009001Y008634D01*
X009071Y008704D01*
X009251Y008704D02*
X009321Y008634D01*
X009461Y008634D01*
X009531Y008704D01*
X009531Y008775D01*
X009461Y008845D01*
X009391Y008845D01*
X009461Y008845D02*
X009531Y008915D01*
X018340Y008865D02*
X018340Y008725D01*
X018410Y008655D01*
X018480Y008655D01*
X018550Y008725D01*
X018550Y008935D01*
X018410Y008935D02*
X018691Y008935D01*
X018761Y008865D01*
X018761Y008725D01*
X018691Y008655D01*
X018761Y008475D02*
X018761Y008195D01*
X018480Y008475D01*
X018410Y008475D01*
X018340Y008405D01*
X018340Y008265D01*
X018410Y008195D01*
X018410Y008015D02*
X018340Y007945D01*
X018340Y007804D01*
X018410Y007734D01*
X018691Y007734D01*
X018761Y007804D01*
X018761Y007945D01*
X018691Y008015D01*
X018340Y008865D02*
X018410Y008935D01*
X017585Y011584D02*
X020616Y011584D01*
X020931Y011584D02*
X020931Y012155D01*
X019888Y012155D01*
X019888Y013001D01*
X020183Y013296D01*
X020183Y014792D01*
X019849Y014792D01*
X019849Y015255D01*
X018353Y015255D01*
X018353Y014792D01*
X018018Y014792D01*
X018018Y013296D01*
X018313Y013001D01*
X018313Y012155D01*
X017270Y012155D01*
X017270Y011584D01*
D15*
X051760Y008332D03*
D16*
X052457Y008033D02*
X052917Y008033D01*
X052917Y007880D02*
X052917Y008187D01*
X052610Y007880D02*
X052457Y008033D01*
X052457Y007726D02*
X052840Y007726D01*
X052917Y007649D01*
X052917Y007496D01*
X052840Y007419D01*
X052457Y007419D01*
X050317Y006273D02*
X050240Y006350D01*
X050087Y006350D01*
X050010Y006273D01*
X049857Y006273D02*
X049780Y006350D01*
X049627Y006350D01*
X049550Y006273D01*
X049550Y005966D01*
X049627Y005889D01*
X049780Y005889D01*
X049857Y005966D01*
X050010Y005889D02*
X050317Y006196D01*
X050317Y006273D01*
X050317Y005889D02*
X050010Y005889D01*
X048192Y004598D02*
X048115Y004675D01*
X047962Y004675D01*
X047885Y004598D01*
X047732Y004598D02*
X047732Y004445D01*
X047655Y004368D01*
X047425Y004368D01*
X047578Y004368D02*
X047732Y004214D01*
X047885Y004214D02*
X048192Y004521D01*
X048192Y004598D01*
X047732Y004598D02*
X047655Y004675D01*
X047425Y004675D01*
X047425Y004214D01*
X047885Y004214D02*
X048192Y004214D01*
D17*
X049491Y004069D02*
X049491Y004069D01*
X049719Y004045D01*
X049819Y004045D02*
X050024Y004045D01*
X050024Y003793D01*
X049819Y003793D01*
X049778Y003625D02*
X049565Y003538D01*
X049893Y003466D02*
X049598Y003114D01*
X049689Y003037D02*
X049984Y003392D01*
X050225Y003388D02*
X050225Y003593D01*
X050477Y003593D01*
X050477Y003388D01*
X050477Y003593D02*
X050477Y003793D01*
X050677Y003793D01*
X050677Y004045D01*
X050882Y004045D01*
X050982Y004045D02*
X051211Y004069D01*
X051211Y004069D01*
X051106Y004357D02*
X050915Y004229D01*
X050849Y004327D02*
X051040Y004455D01*
X050812Y004661D02*
X050704Y004458D01*
X050599Y004513D02*
X050707Y004716D01*
X050102Y004513D02*
X049994Y004716D01*
X049890Y004661D02*
X049998Y004458D01*
X049852Y004327D02*
X049662Y004455D01*
X049596Y004357D02*
X049786Y004229D01*
X050024Y004045D02*
X050225Y004045D01*
X050225Y004246D01*
X050477Y004246D01*
X050477Y004451D01*
X050477Y004246D02*
X050477Y004045D01*
X050677Y004045D01*
X050812Y004660D02*
X050778Y004680D01*
X050743Y004699D01*
X050708Y004716D01*
X050225Y004451D02*
X050225Y004246D01*
X049662Y004456D02*
X049638Y004424D01*
X049616Y004392D01*
X049596Y004358D01*
X049889Y004660D02*
X049923Y004680D01*
X049958Y004699D01*
X049993Y004716D01*
X051040Y004456D02*
X051064Y004424D01*
X051086Y004392D01*
X051106Y004358D01*
X051104Y003114D02*
X051059Y003075D01*
X051013Y003038D01*
X051012Y003037D02*
X050717Y003392D01*
X050807Y003467D02*
X051103Y003116D01*
X051136Y003538D02*
X050923Y003625D01*
X050882Y003793D02*
X050677Y003793D01*
X049997Y004457D02*
X049957Y004428D01*
X049919Y004397D01*
X049883Y004362D01*
X049851Y004325D01*
X049598Y003114D02*
X049643Y003075D01*
X049689Y003038D01*
X050225Y003593D02*
X050225Y003793D01*
X050024Y003793D01*
X050705Y004457D02*
X050745Y004428D01*
X050783Y004397D01*
X050819Y004362D01*
X050851Y004325D01*
X050292Y004560D02*
X050244Y004554D01*
X050196Y004544D01*
X050149Y004530D01*
X050103Y004513D01*
X050410Y004560D02*
X050458Y004554D01*
X050506Y004544D01*
X050553Y004530D01*
X050599Y004513D01*
X049804Y003919D02*
X049806Y003965D01*
X049812Y004011D01*
X049822Y004057D01*
X049835Y004101D01*
X049853Y004144D01*
X049873Y004186D01*
X049898Y004225D01*
X049925Y004263D01*
X049956Y004297D01*
X049990Y004330D01*
X050026Y004359D01*
X050064Y004385D01*
X050105Y004407D01*
X050147Y004427D01*
X050191Y004442D01*
X050236Y004454D01*
X050282Y004462D01*
X050328Y004466D01*
X050374Y004466D01*
X050420Y004462D01*
X050466Y004454D01*
X050511Y004442D01*
X050555Y004427D01*
X050597Y004407D01*
X050638Y004385D01*
X050676Y004359D01*
X050712Y004330D01*
X050746Y004297D01*
X050777Y004263D01*
X050804Y004225D01*
X050829Y004186D01*
X050849Y004144D01*
X050867Y004101D01*
X050880Y004057D01*
X050890Y004011D01*
X050896Y003965D01*
X050898Y003919D01*
X050896Y003873D01*
X050890Y003827D01*
X050880Y003781D01*
X050867Y003737D01*
X050849Y003694D01*
X050829Y003652D01*
X050804Y003613D01*
X050777Y003575D01*
X050746Y003541D01*
X050712Y003508D01*
X050676Y003479D01*
X050638Y003453D01*
X050597Y003431D01*
X050555Y003411D01*
X050511Y003396D01*
X050466Y003384D01*
X050420Y003376D01*
X050374Y003372D01*
X050328Y003372D01*
X050282Y003376D01*
X050236Y003384D01*
X050191Y003396D01*
X050147Y003411D01*
X050105Y003431D01*
X050064Y003453D01*
X050026Y003479D01*
X049990Y003508D01*
X049956Y003541D01*
X049925Y003575D01*
X049898Y003613D01*
X049873Y003652D01*
X049853Y003694D01*
X049835Y003737D01*
X049822Y003781D01*
X049812Y003827D01*
X049806Y003873D01*
X049804Y003919D01*
X049721Y004045D02*
X049733Y004093D01*
X049748Y004140D01*
X049767Y004185D01*
X049789Y004229D01*
X049985Y003392D02*
X050026Y003365D01*
X050069Y003342D01*
X050113Y003323D01*
X050159Y003306D01*
X050206Y003294D01*
X050254Y003284D01*
X050302Y003279D01*
X050351Y003277D01*
X050400Y003279D01*
X050448Y003284D01*
X050496Y003294D01*
X050543Y003306D01*
X050589Y003323D01*
X050633Y003342D01*
X050676Y003365D01*
X050717Y003392D01*
X049894Y003466D02*
X049861Y003502D01*
X049831Y003541D01*
X049804Y003581D01*
X049780Y003624D01*
X050808Y003466D02*
X050841Y003502D01*
X050871Y003541D01*
X050898Y003581D01*
X050922Y003624D01*
X050981Y004045D02*
X050969Y004093D01*
X050954Y004140D01*
X050935Y004185D01*
X050913Y004229D01*
X050996Y003927D02*
X050995Y003878D01*
X050990Y003829D01*
X050981Y003781D01*
X050969Y003734D01*
X049733Y003734D02*
X049721Y003781D01*
X049712Y003829D01*
X049707Y003878D01*
X049706Y003927D01*
D18*
X049601Y003019D02*
X049501Y002919D01*
X049601Y003019D02*
X049601Y002619D01*
X049501Y002619D01*
X049601Y002619D02*
X049701Y002619D01*
X051051Y002669D02*
X051101Y002619D01*
X051251Y002619D01*
X051301Y002669D01*
X051301Y002769D01*
X051251Y002819D01*
X051151Y002819D01*
X051251Y002819D02*
X051301Y002869D01*
X051301Y002969D01*
X051251Y003019D01*
X051101Y003019D01*
X051051Y002969D01*
X011489Y007654D02*
X010709Y008434D01*
D19*
X059241Y010996D02*
X059302Y010934D01*
X059426Y010934D01*
X059488Y010996D01*
X059609Y010996D02*
X059671Y010934D01*
X059794Y010934D01*
X059856Y010996D01*
X059856Y011058D01*
X059794Y011120D01*
X059732Y011120D01*
X059794Y011120D02*
X059856Y011181D01*
X059856Y011243D01*
X059794Y011305D01*
X059671Y011305D01*
X059609Y011243D01*
X059488Y011243D02*
X059426Y011305D01*
X059302Y011305D01*
X059241Y011243D01*
X059241Y010996D01*
X059977Y010996D02*
X060039Y010934D01*
X060162Y010934D01*
X060224Y010996D01*
X060224Y011243D01*
X060162Y011305D01*
X060039Y011305D01*
X059977Y011243D01*
X059977Y011181D01*
X060039Y011120D01*
X060224Y011120D01*
M02*
