G75*
%MOIN*%
%OFA0B0*%
%FSLAX24Y24*%
%IPPOS*%
%LPD*%
%AMOC8*
5,1,8,0,0,1.08239X$1,22.5*
%
%ADD10C,0.0000*%
%ADD11R,0.0394X0.0157*%
%ADD12OC8,0.0600*%
%ADD13R,0.0433X0.0394*%
%ADD14R,0.0394X0.0433*%
%ADD15C,0.0515*%
%ADD16R,0.0394X0.0394*%
%ADD17R,0.0413X0.0157*%
%ADD18C,0.0079*%
%ADD19R,0.1650X0.0700*%
%ADD20R,0.1650X0.1050*%
%ADD21R,0.0900X0.2000*%
%ADD22R,0.0945X0.0945*%
%ADD23R,0.0709X0.0630*%
%ADD24R,0.0591X0.0512*%
%ADD25C,0.0120*%
%ADD26C,0.0160*%
%ADD27C,0.0100*%
%ADD28C,0.0400*%
%ADD29C,0.0357*%
%ADD30C,0.0240*%
%ADD31C,0.0320*%
%ADD32C,0.0500*%
%ADD33C,0.0436*%
D10*
X003851Y002794D02*
X003851Y011539D01*
X063593Y011539D01*
X063593Y002794D01*
X003851Y002794D01*
X003851Y005094D02*
X003851Y009494D01*
X016901Y011544D02*
X021301Y011544D01*
X041901Y011544D02*
X046301Y011544D01*
D11*
X051268Y008420D03*
X051268Y008170D03*
X051268Y007920D03*
X051268Y007670D03*
X051268Y007420D03*
X051268Y007169D03*
X051268Y006919D03*
X051268Y006669D03*
X051268Y006419D03*
X051268Y006169D03*
X053433Y006169D03*
X053433Y006419D03*
X053433Y006669D03*
X053433Y006919D03*
X053433Y007169D03*
X053433Y007420D03*
X053433Y007670D03*
X053433Y007920D03*
X053433Y008170D03*
X053433Y008420D03*
D12*
X061851Y008794D03*
X062851Y008794D03*
X062851Y007794D03*
X061851Y007794D03*
X061851Y006794D03*
X062851Y006794D03*
X062851Y005794D03*
X061851Y005794D03*
X058101Y004544D03*
X061851Y003794D03*
X048101Y005544D03*
X043851Y005294D03*
X040351Y006294D03*
X039351Y006294D03*
X039351Y007294D03*
X040351Y007294D03*
X040351Y008294D03*
X039351Y008294D03*
X023851Y008294D03*
X022851Y008294D03*
X022851Y007294D03*
X023851Y007294D03*
X023851Y006294D03*
X022851Y006294D03*
X015851Y006794D03*
X014851Y006794D03*
X014851Y007794D03*
X015851Y007794D03*
X007851Y007794D03*
X006851Y007794D03*
X006851Y006794D03*
X007851Y006794D03*
X007351Y010294D03*
X062351Y010294D03*
D13*
X057435Y007794D03*
X056766Y007794D03*
X056766Y006794D03*
X057435Y006794D03*
X050435Y005544D03*
X049766Y005544D03*
X053851Y004879D03*
X053851Y004210D03*
X043435Y007294D03*
X042766Y007294D03*
X049516Y008044D03*
X050185Y008044D03*
X035185Y007794D03*
X034516Y007794D03*
X033685Y007794D03*
X033016Y007794D03*
X030685Y007794D03*
X030016Y007794D03*
X029185Y007794D03*
X028516Y007794D03*
X028516Y005294D03*
X029185Y005294D03*
X030016Y005294D03*
X030685Y005294D03*
X033016Y005294D03*
X033685Y005294D03*
X034516Y005294D03*
X035185Y005294D03*
X018435Y007294D03*
X017766Y007294D03*
X013685Y008294D03*
X013016Y008294D03*
X009685Y008294D03*
X009016Y008294D03*
X010266Y007294D03*
X010935Y007294D03*
X011516Y007294D03*
X012185Y007294D03*
X013016Y006294D03*
X013685Y006294D03*
X028516Y010294D03*
X029185Y010294D03*
X030016Y010294D03*
X030685Y010294D03*
X033016Y010294D03*
X033685Y010294D03*
X034516Y010294D03*
X035185Y010294D03*
D14*
X035851Y009629D03*
X036851Y009629D03*
X036851Y008960D03*
X035851Y008960D03*
X032351Y008960D03*
X031351Y008960D03*
X031351Y009629D03*
X032351Y009629D03*
X027851Y009629D03*
X026851Y009629D03*
X026851Y008960D03*
X027851Y008960D03*
X027851Y007129D03*
X026851Y007129D03*
X026851Y006460D03*
X027851Y006460D03*
X031351Y006460D03*
X032351Y006460D03*
X032351Y007129D03*
X031351Y007129D03*
X035851Y007129D03*
X036851Y007129D03*
X036851Y006460D03*
X035851Y006460D03*
X035851Y004629D03*
X036851Y004629D03*
X036851Y003960D03*
X035851Y003960D03*
X032351Y003960D03*
X031351Y003960D03*
X031351Y004629D03*
X032351Y004629D03*
X027851Y004629D03*
X026851Y004629D03*
X026851Y003960D03*
X027851Y003960D03*
X019101Y007710D03*
X019101Y008379D03*
X044101Y008379D03*
X044101Y007710D03*
X049351Y007379D03*
X050351Y007379D03*
X050351Y006710D03*
X049351Y006710D03*
X054351Y006629D03*
X055101Y006629D03*
X055101Y005960D03*
X054351Y005960D03*
X052851Y005129D03*
X054351Y004879D03*
X052851Y004460D03*
X054351Y004210D03*
X048185Y003794D03*
X047516Y003794D03*
X059351Y006085D03*
X059351Y006754D03*
X059351Y007710D03*
X059351Y008379D03*
X052601Y009335D03*
X051851Y009335D03*
X050851Y009629D03*
X051851Y010004D03*
X052601Y010004D03*
X050851Y008960D03*
X050185Y008794D03*
X049516Y008794D03*
D15*
X050351Y004919D03*
X051351Y003797D03*
X049351Y003797D03*
D16*
X054457Y008544D03*
X055244Y008544D03*
X053994Y009294D03*
X053207Y009294D03*
X058957Y009169D03*
X059744Y009169D03*
D17*
G36*
X011399Y008132D02*
X011689Y007842D01*
X011579Y007732D01*
X011289Y008022D01*
X011399Y008132D01*
G37*
D18*
X011580Y008258D02*
X011815Y008023D01*
X011760Y007968D01*
X011525Y008203D01*
X011580Y008258D01*
X011682Y008046D02*
X011792Y008046D01*
X011714Y008124D02*
X011604Y008124D01*
X011636Y008202D02*
X011526Y008202D01*
X011761Y008439D02*
X011996Y008204D01*
X011941Y008149D01*
X011706Y008384D01*
X011761Y008439D01*
X011863Y008227D02*
X011973Y008227D01*
X011895Y008305D02*
X011785Y008305D01*
X011817Y008383D02*
X011707Y008383D01*
X011119Y008357D02*
X010884Y008592D01*
X011119Y008357D02*
X011064Y008302D01*
X010829Y008537D01*
X010884Y008592D01*
X010986Y008380D02*
X011096Y008380D01*
X011018Y008458D02*
X010908Y008458D01*
X010940Y008536D02*
X010830Y008536D01*
X011065Y008773D02*
X011300Y008538D01*
X011245Y008483D01*
X011010Y008718D01*
X011065Y008773D01*
X011167Y008561D02*
X011277Y008561D01*
X011199Y008639D02*
X011089Y008639D01*
X011121Y008717D02*
X011011Y008717D01*
X011246Y008954D02*
X011481Y008719D01*
X011426Y008664D01*
X011191Y008899D01*
X011246Y008954D01*
X011348Y008742D02*
X011458Y008742D01*
X011380Y008820D02*
X011270Y008820D01*
X011302Y008898D02*
X011192Y008898D01*
D19*
X004683Y007294D03*
D20*
X004683Y005919D03*
X004683Y008670D03*
D21*
X017361Y010534D03*
X019101Y010534D03*
X020841Y010534D03*
X042361Y010534D03*
X044101Y010534D03*
X045841Y010534D03*
D22*
X058741Y010294D03*
X060710Y010294D03*
D23*
X057476Y010346D03*
X057476Y009243D03*
D24*
X056351Y009420D03*
X056351Y010168D03*
D25*
X050810Y008170D02*
X050185Y008794D01*
X050185Y009210D01*
X050101Y009294D01*
X049516Y008794D02*
X049516Y008044D01*
X049726Y007544D02*
X050185Y008004D01*
X050185Y008044D01*
X050310Y007919D01*
X050476Y007919D01*
X050725Y007670D01*
X051268Y007670D01*
X051268Y007420D02*
X050391Y007420D01*
X050351Y007379D01*
X049726Y007544D02*
X049516Y007544D01*
X049351Y007379D01*
X050601Y006669D02*
X050850Y006919D01*
X051268Y006919D01*
X051268Y006669D02*
X050975Y006669D01*
X050601Y006294D01*
X049476Y006294D01*
X049351Y006419D01*
X049351Y006710D01*
X050351Y006710D02*
X050391Y006669D01*
X050601Y006669D01*
X052976Y006669D02*
X053433Y006669D01*
X054310Y006669D01*
X054351Y006629D01*
X054060Y006919D01*
X053433Y006919D01*
X053433Y006669D02*
X053433Y006669D01*
X053433Y007169D02*
X055976Y007169D01*
X056351Y006794D01*
X056766Y006794D01*
X057435Y006794D02*
X059351Y006794D01*
X059351Y006754D01*
X059351Y006794D02*
X061851Y006794D01*
X061851Y007794D02*
X059351Y007794D01*
X059351Y007710D01*
X059351Y007794D02*
X057435Y007794D01*
X056766Y007794D02*
X056351Y007794D01*
X055976Y007420D01*
X053433Y007420D01*
X053433Y007920D02*
X053558Y008044D01*
X053726Y008044D01*
X053433Y007920D02*
X053433Y008170D01*
X053433Y008169D01*
X051268Y008170D02*
X050810Y008170D01*
X013016Y008294D02*
X011851Y008294D01*
X011670Y008113D02*
X011670Y008100D01*
X012101Y007669D01*
X012101Y007379D01*
X012185Y007294D01*
X011185Y008628D02*
X011351Y008794D01*
X011336Y008809D02*
X011336Y008809D01*
X010976Y009169D01*
X010726Y009044D02*
X010601Y009044D01*
X010351Y009294D01*
X010726Y009044D02*
X011142Y008628D01*
X011155Y008628D01*
X011185Y008628D01*
D26*
X010974Y008447D02*
X010974Y008417D01*
X010851Y008294D01*
X011351Y007794D02*
X011489Y007932D01*
X047351Y003169D02*
X047516Y003335D01*
X047516Y003794D01*
X048185Y003794D02*
X049229Y003794D01*
X049351Y003797D01*
X050351Y004919D02*
X050351Y005460D01*
X050435Y005544D01*
X051101Y005544D01*
X051268Y005712D01*
X051268Y006169D01*
X051268Y006419D02*
X051726Y006419D01*
X051976Y006169D01*
X053183Y005377D02*
X053433Y006169D01*
X053433Y006419D02*
X053850Y006419D01*
X053851Y006419D01*
X053851Y004879D01*
X054351Y004879D01*
X053183Y005377D02*
X053101Y005294D01*
X053016Y005294D01*
X052851Y005129D01*
X051976Y006919D02*
X051726Y007169D01*
X051268Y007169D01*
X053433Y007670D02*
X053726Y007670D01*
X054101Y007794D01*
X051851Y008044D02*
X051726Y007920D01*
X051268Y007920D01*
X051268Y008420D02*
X051268Y008542D01*
X050851Y008960D01*
X053433Y008627D02*
X053433Y008420D01*
X053433Y008627D02*
X053601Y008794D01*
D27*
X050476Y005794D02*
X050351Y005919D01*
X049101Y005919D01*
X048726Y005544D01*
X048101Y005544D01*
X050435Y005544D02*
X050476Y005585D01*
X050476Y005794D01*
D28*
X039351Y006294D02*
X038351Y005294D01*
X036851Y005294D01*
X036851Y004629D01*
X035851Y004629D02*
X035851Y005294D01*
X036851Y005294D01*
X035851Y005294D02*
X035185Y005294D01*
X034516Y005294D02*
X033685Y005294D01*
X033016Y005294D02*
X032351Y005294D01*
X032351Y004629D01*
X031351Y004629D02*
X031351Y005294D01*
X032351Y005294D01*
X031351Y005294D02*
X030685Y005294D01*
X030016Y005294D02*
X029185Y005294D01*
X028516Y005294D02*
X027851Y005294D01*
X027851Y004629D01*
X026851Y004629D02*
X026851Y005294D01*
X024851Y005294D01*
X023851Y006294D01*
X026851Y006460D02*
X027851Y006460D01*
X031351Y006460D01*
X032351Y006460D01*
X035851Y006460D01*
X036851Y006460D01*
X036851Y007129D02*
X039185Y007129D01*
X039351Y007294D01*
X036851Y007129D02*
X036851Y007794D01*
X035851Y007794D01*
X035851Y007129D01*
X035851Y007794D02*
X035185Y007794D01*
X034516Y007794D02*
X033685Y007794D01*
X033016Y007794D02*
X032351Y007794D01*
X032351Y007129D01*
X031351Y007129D02*
X031351Y007794D01*
X030685Y007794D01*
X031351Y007794D02*
X032351Y007794D01*
X030016Y007794D02*
X029185Y007794D01*
X028516Y007794D02*
X027851Y007794D01*
X026851Y007794D01*
X026851Y007129D01*
X026685Y007294D01*
X023851Y007294D01*
X023851Y008294D02*
X025185Y009629D01*
X026851Y009629D01*
X026851Y010294D01*
X027851Y010294D01*
X027851Y009629D01*
X027851Y010294D02*
X028516Y010294D01*
X029185Y010294D02*
X030016Y010294D01*
X030685Y010294D02*
X031351Y010294D01*
X031351Y009629D01*
X032351Y009629D02*
X032351Y010294D01*
X033016Y010294D01*
X032351Y010294D02*
X031351Y010294D01*
X033685Y010294D02*
X034516Y010294D01*
X035185Y010294D02*
X035851Y010294D01*
X035851Y009629D01*
X036851Y009629D02*
X038016Y009629D01*
X039351Y008294D01*
X036851Y008960D02*
X035851Y008960D01*
X032351Y008960D01*
X031351Y008960D01*
X027851Y008960D01*
X026851Y008960D01*
X027851Y007794D02*
X027851Y007129D01*
X027851Y005294D02*
X026851Y005294D01*
X026851Y003960D02*
X027851Y003960D01*
X031351Y003960D01*
X032351Y003960D01*
X035851Y003960D01*
X036851Y003960D01*
X036851Y009629D02*
X036851Y010294D01*
X035851Y010294D01*
X061851Y009794D02*
X061851Y008794D01*
X061851Y009794D02*
X062351Y010294D01*
D29*
X062976Y009669D03*
X060851Y009544D03*
X056726Y008669D03*
X055976Y008544D03*
X053601Y008794D03*
X052476Y008419D03*
X054101Y007794D03*
X055101Y007919D03*
X058476Y008419D03*
X060351Y008419D03*
X055601Y009294D03*
X052601Y010544D03*
X051851Y010544D03*
X050851Y010044D03*
X049851Y010044D03*
X047976Y009419D03*
X046351Y008294D03*
X042351Y008294D03*
X039851Y009044D03*
X037351Y008794D03*
X035351Y008794D03*
X034101Y008794D03*
X032851Y008794D03*
X030851Y008794D03*
X029601Y008794D03*
X028351Y008794D03*
X026351Y008794D03*
X023351Y009294D03*
X021351Y009294D03*
X023351Y010294D03*
X025851Y010419D03*
X017351Y009294D03*
X015351Y009294D03*
X013351Y009294D03*
X012351Y009294D03*
X010351Y009294D03*
X009351Y009294D03*
X009351Y007294D03*
X011351Y007044D03*
X012851Y007294D03*
X013351Y005294D03*
X011351Y005294D03*
X009351Y005294D03*
X015351Y005294D03*
X017351Y005294D03*
X019351Y005294D03*
X021351Y005294D03*
X023351Y005294D03*
X026351Y006294D03*
X028351Y006294D03*
X029601Y006294D03*
X030851Y006294D03*
X032851Y006294D03*
X034101Y006294D03*
X035351Y006294D03*
X037351Y006294D03*
X038226Y006294D03*
X039851Y005669D03*
X042351Y006294D03*
X044351Y006294D03*
X046351Y006294D03*
X048476Y007169D03*
X051976Y006919D03*
X051976Y006169D03*
X054351Y005544D03*
X055101Y005544D03*
X056726Y005919D03*
X058601Y006044D03*
X060226Y006169D03*
X062851Y004794D03*
X060976Y004544D03*
X059476Y004044D03*
X062851Y003794D03*
X055226Y004544D03*
X052851Y004044D03*
X051976Y003919D03*
X053851Y003794D03*
X054351Y003794D03*
X051976Y004919D03*
X048851Y004794D03*
X046351Y004294D03*
X044351Y004294D03*
X042351Y004294D03*
X039101Y004794D03*
X037351Y003794D03*
X035351Y003794D03*
X034101Y003794D03*
X032851Y003794D03*
X030851Y003794D03*
X029601Y003794D03*
X028351Y003794D03*
X026351Y003794D03*
X038226Y008044D03*
X061476Y010919D03*
X062976Y010919D03*
D30*
X062976Y009669D02*
X063351Y009294D01*
X063351Y008294D01*
X062851Y007794D01*
X062851Y006794D01*
X063101Y006794D01*
X063351Y006544D01*
X063351Y005294D01*
X062851Y004794D01*
X062851Y005794D02*
X062351Y006294D01*
X062351Y008294D01*
X061851Y008794D01*
X056351Y010168D02*
X055475Y010168D01*
X054601Y009294D01*
X055244Y008651D01*
X055244Y008544D01*
X054457Y008544D02*
X054226Y008544D01*
X053726Y008044D01*
X053101Y008044D01*
X052851Y007794D01*
X052851Y006794D01*
X052976Y006669D01*
X054351Y006629D02*
X055101Y006629D01*
X055101Y005960D02*
X054351Y005960D01*
X054351Y005544D01*
X055101Y005544D02*
X055101Y005960D01*
X052851Y004460D02*
X052851Y004044D01*
X053851Y004210D02*
X053851Y003794D01*
X054351Y003794D02*
X054351Y004210D01*
X053851Y004210D01*
X051851Y008044D02*
X051851Y009335D01*
X052601Y009335D01*
X053167Y009335D01*
X053207Y009294D01*
X053994Y009294D02*
X054601Y009294D01*
X052601Y010004D02*
X052601Y010544D01*
X051851Y010544D02*
X051851Y010004D01*
X050851Y010044D02*
X050851Y009629D01*
D31*
X050851Y009629D01*
X050851Y010106D01*
X051073Y010106D01*
X051123Y010096D01*
X051171Y010076D01*
X051213Y010048D01*
X051249Y010011D01*
X051278Y009969D01*
X051297Y009921D01*
X051307Y009871D01*
X051307Y009656D01*
X051349Y009755D01*
X051394Y009800D01*
X051394Y010004D01*
X051851Y010004D01*
X051851Y010004D01*
X052307Y010004D01*
X052601Y010004D01*
X052601Y010004D01*
X053057Y010004D01*
X053057Y010246D01*
X053047Y010296D01*
X053028Y010344D01*
X052999Y010386D01*
X052963Y010423D01*
X052921Y010451D01*
X052873Y010471D01*
X052823Y010481D01*
X052601Y010481D01*
X052601Y010004D01*
X053057Y010004D01*
X053057Y009851D01*
X053475Y009851D01*
X053601Y009799D01*
X053726Y009851D01*
X054263Y009851D01*
X054395Y009796D01*
X054409Y009782D01*
X055203Y010575D01*
X055379Y010648D01*
X055770Y010648D01*
X055851Y010729D01*
X055984Y010784D01*
X056231Y010784D01*
X056233Y010786D01*
X056424Y010866D01*
X056817Y010866D01*
X056917Y010966D01*
X057050Y011021D01*
X057902Y011021D01*
X057981Y010988D01*
X058065Y011072D01*
X058197Y011127D01*
X059285Y011127D01*
X059418Y011072D01*
X059519Y010971D01*
X059574Y010838D01*
X059574Y009750D01*
X059564Y009726D01*
X059996Y009726D01*
X059987Y009746D01*
X059977Y009796D01*
X059977Y010218D01*
X060634Y010218D01*
X060786Y010218D01*
X060786Y009562D01*
X061208Y009562D01*
X061258Y009572D01*
X061291Y009585D01*
X061291Y009390D01*
X060433Y009562D01*
X060634Y009562D01*
X060634Y010218D01*
X060634Y010371D01*
X060634Y011027D01*
X060212Y011027D01*
X060162Y011017D01*
X060114Y010997D01*
X060072Y010969D01*
X060035Y010933D01*
X060007Y010890D01*
X059987Y010843D01*
X059977Y010792D01*
X059977Y010371D01*
X060634Y010371D01*
X060786Y010371D01*
X060786Y011027D01*
X061208Y011027D01*
X061258Y011017D01*
X061305Y010997D01*
X061348Y010969D01*
X061384Y010933D01*
X061413Y010890D01*
X061432Y010843D01*
X061442Y010792D01*
X061442Y010371D01*
X060786Y010371D01*
X060786Y010218D01*
X061442Y010218D01*
X061442Y010178D01*
X061691Y010426D01*
X061691Y010568D01*
X062077Y010954D01*
X062624Y010954D01*
X063011Y010568D01*
X063011Y010021D01*
X062624Y009634D01*
X062483Y009634D01*
X062411Y009562D01*
X062411Y009288D01*
X062577Y009454D01*
X063124Y009454D01*
X063233Y009346D01*
X063233Y011179D01*
X046551Y011179D01*
X046551Y010599D01*
X045906Y010599D01*
X045906Y010469D01*
X046551Y010469D01*
X046551Y009509D01*
X046541Y009459D01*
X046521Y009411D01*
X046493Y009369D01*
X046456Y009332D01*
X046414Y009304D01*
X046366Y009284D01*
X046316Y009274D01*
X045906Y009274D01*
X045906Y010469D01*
X045776Y010469D01*
X045776Y009274D01*
X045365Y009274D01*
X045315Y009284D01*
X045267Y009304D01*
X045225Y009332D01*
X045189Y009369D01*
X045160Y009411D01*
X045141Y009459D01*
X045131Y009509D01*
X045131Y010469D01*
X045776Y010469D01*
X045776Y010599D01*
X045131Y010599D01*
X045131Y011179D01*
X044911Y011179D01*
X044911Y009463D01*
X044856Y009330D01*
X044755Y009229D01*
X044622Y009174D01*
X044621Y009174D01*
X044621Y008756D01*
X044657Y008667D01*
X044657Y008091D01*
X044638Y008044D01*
X044657Y007998D01*
X044657Y007814D01*
X047135Y007814D01*
X047331Y008010D01*
X047331Y008148D01*
X047410Y008339D01*
X047556Y008485D01*
X048806Y009735D01*
X048997Y009814D01*
X050204Y009814D01*
X050394Y009736D01*
X050394Y009871D01*
X050404Y009921D01*
X050423Y009969D01*
X050452Y010011D01*
X050488Y010048D01*
X050531Y010076D01*
X050578Y010096D01*
X050628Y010106D01*
X050851Y010106D01*
X050851Y009629D01*
X050851Y009634D02*
X050851Y009634D01*
X050851Y009952D02*
X050851Y009952D01*
X051285Y009952D02*
X051394Y009952D01*
X051394Y010004D02*
X051851Y010004D01*
X052601Y010004D01*
X052601Y010004D01*
X052601Y010481D01*
X052378Y010481D01*
X052328Y010471D01*
X052281Y010451D01*
X052238Y010423D01*
X052226Y010410D01*
X052213Y010423D01*
X052171Y010451D01*
X052123Y010471D01*
X052073Y010481D01*
X051851Y010481D01*
X051851Y010004D01*
X051851Y010004D01*
X051851Y010481D01*
X051628Y010481D01*
X051578Y010471D01*
X051531Y010451D01*
X051488Y010423D01*
X051452Y010386D01*
X051423Y010344D01*
X051404Y010296D01*
X051394Y010246D01*
X051394Y010004D01*
X051851Y010004D02*
X051851Y010004D01*
X052601Y010004D02*
X052601Y010004D01*
X053057Y009952D02*
X054580Y009952D01*
X054898Y010271D02*
X053053Y010271D01*
X052601Y010271D02*
X052601Y010271D01*
X051851Y010271D02*
X051851Y010271D01*
X051399Y010271D02*
X046551Y010271D01*
X045906Y010271D02*
X045776Y010271D01*
X045131Y010271D02*
X044911Y010271D01*
X044911Y010589D02*
X045776Y010589D01*
X045906Y010589D02*
X055237Y010589D01*
X056351Y010168D02*
X056528Y010346D01*
X057476Y010346D01*
X058690Y010346D01*
X058741Y010294D01*
X058957Y010079D01*
X058957Y009169D01*
X058400Y009315D02*
X058090Y009315D01*
X058090Y009243D02*
X058090Y009506D01*
X058197Y009462D01*
X058410Y009462D01*
X058400Y009438D01*
X058400Y008901D01*
X058455Y008769D01*
X058556Y008667D01*
X058688Y008613D01*
X058894Y008613D01*
X058894Y008379D01*
X058894Y008214D01*
X057938Y008214D01*
X057856Y008296D01*
X057723Y008351D01*
X057147Y008351D01*
X057101Y008332D01*
X057054Y008351D01*
X056478Y008351D01*
X056346Y008296D01*
X056261Y008212D01*
X056113Y008150D01*
X055995Y008032D01*
X055802Y007840D01*
X054200Y007840D01*
X054348Y007988D01*
X054725Y007988D01*
X054851Y008039D01*
X054976Y007988D01*
X055513Y007988D01*
X055645Y008042D01*
X055746Y008144D01*
X055801Y008276D01*
X055801Y008813D01*
X055746Y008945D01*
X055645Y009046D01*
X055513Y009101D01*
X055473Y009101D01*
X055279Y009294D01*
X055673Y009688D01*
X055770Y009688D01*
X055795Y009663D01*
X055795Y009420D01*
X055795Y009139D01*
X055805Y009089D01*
X055825Y009041D01*
X055853Y008999D01*
X055890Y008963D01*
X055932Y008934D01*
X055980Y008914D01*
X056030Y008904D01*
X056351Y008904D01*
X056672Y008904D01*
X056722Y008914D01*
X056769Y008934D01*
X056812Y008963D01*
X056848Y008999D01*
X056861Y009019D01*
X056861Y008903D01*
X056871Y008852D01*
X056891Y008805D01*
X056919Y008763D01*
X056956Y008726D01*
X056998Y008698D01*
X057045Y008678D01*
X055801Y008678D01*
X056351Y008904D02*
X056351Y009420D01*
X056351Y008904D01*
X056351Y008997D02*
X056351Y008997D01*
X056846Y008997D02*
X056861Y008997D01*
X057476Y008997D02*
X057476Y008997D01*
X058032Y008763D02*
X058060Y008805D01*
X058080Y008852D01*
X058090Y008903D01*
X058090Y009243D01*
X057476Y009243D01*
X057476Y009243D01*
X057476Y008668D01*
X057856Y008668D01*
X057906Y008678D01*
X057953Y008698D01*
X057996Y008726D01*
X058032Y008763D01*
X057906Y008678D02*
X058545Y008678D01*
X057476Y008678D02*
X057476Y008678D01*
X057476Y008668D02*
X057476Y009243D01*
X057476Y009243D01*
X058090Y009243D01*
X058090Y008997D02*
X058400Y008997D01*
X057476Y008668D02*
X057096Y008668D01*
X057045Y008678D01*
X055855Y008997D02*
X055695Y008997D01*
X055795Y009315D02*
X055300Y009315D01*
X055795Y009420D02*
X056351Y009420D01*
X056351Y009420D01*
X056351Y009420D01*
X055795Y009420D01*
X055795Y009634D02*
X055619Y009634D01*
X056351Y009315D02*
X056351Y009315D01*
X053433Y008738D02*
X053433Y008608D01*
X053433Y008738D01*
X053433Y008738D01*
X053433Y008678D02*
X053433Y008678D01*
X053433Y008608D02*
X053433Y008608D01*
X053135Y008738D02*
X053113Y008729D01*
X053071Y008700D01*
X053035Y008664D01*
X053006Y008621D01*
X052986Y008574D01*
X052976Y008524D01*
X052976Y008512D01*
X052829Y008451D01*
X052579Y008201D01*
X052444Y008066D01*
X052371Y007890D01*
X052371Y006699D01*
X052444Y006522D01*
X052704Y006262D01*
X052876Y006191D01*
X052876Y006019D01*
X052904Y005953D01*
X052826Y005706D01*
X052582Y005706D01*
X052450Y005651D01*
X052349Y005549D01*
X052294Y005417D01*
X052294Y004841D01*
X052349Y004709D01*
X052394Y004663D01*
X052394Y004460D01*
X052851Y004460D01*
X053307Y004460D01*
X053307Y004530D01*
X053329Y004478D01*
X053374Y004433D01*
X053374Y004432D01*
X053374Y004210D01*
X053851Y004210D01*
X054351Y004210D01*
X054807Y004210D01*
X054807Y004413D01*
X054853Y004459D01*
X054907Y004591D01*
X054907Y005167D01*
X054853Y005299D01*
X054751Y005401D01*
X054619Y005456D01*
X054291Y005456D01*
X054291Y005483D01*
X054351Y005483D01*
X054573Y005483D01*
X054623Y005493D01*
X054671Y005513D01*
X054713Y005541D01*
X054726Y005554D01*
X054738Y005541D01*
X054781Y005513D01*
X054828Y005493D01*
X054878Y005483D01*
X055101Y005483D01*
X055323Y005483D01*
X055373Y005493D01*
X055421Y005513D01*
X055463Y005541D01*
X055499Y005577D01*
X055528Y005620D01*
X055547Y005667D01*
X055557Y005718D01*
X055557Y005960D01*
X055557Y006163D01*
X055603Y006209D01*
X055657Y006341D01*
X055657Y006749D01*
X055802Y006749D01*
X055995Y006556D01*
X056113Y006438D01*
X056261Y006377D01*
X056346Y006292D01*
X056478Y006238D01*
X057054Y006238D01*
X057101Y006257D01*
X057147Y006238D01*
X057723Y006238D01*
X057856Y006292D01*
X057938Y006374D01*
X058832Y006374D01*
X058849Y006334D01*
X058894Y006288D01*
X058894Y006085D01*
X059351Y006085D01*
X059807Y006085D01*
X059807Y006288D01*
X059853Y006334D01*
X059870Y006374D01*
X061337Y006374D01*
X061417Y006294D01*
X061191Y006068D01*
X061191Y005521D01*
X061241Y005471D01*
X061241Y004118D01*
X061191Y004068D01*
X061191Y003779D01*
X054695Y003779D01*
X054713Y003791D01*
X054749Y003827D01*
X054778Y003870D01*
X054797Y003917D01*
X054807Y003968D01*
X054807Y004210D01*
X054351Y004210D01*
X054351Y004210D01*
X054351Y003779D01*
X054351Y003779D01*
X054351Y004210D01*
X054351Y004210D01*
X054351Y004210D01*
X053894Y004210D01*
X053851Y004210D01*
X053851Y004210D01*
X053851Y003779D01*
X053851Y003779D01*
X053851Y004210D01*
X053851Y004210D01*
X053851Y004210D01*
X053374Y004210D01*
X053374Y003987D01*
X053384Y003937D01*
X053404Y003890D01*
X053432Y003847D01*
X053468Y003811D01*
X053511Y003782D01*
X053518Y003779D01*
X051868Y003779D01*
X051868Y003797D01*
X051351Y003797D01*
X051351Y003797D01*
X051868Y003797D01*
X051868Y003838D01*
X051855Y003919D01*
X051830Y003996D01*
X051793Y004069D01*
X051745Y004134D01*
X051688Y004192D01*
X051622Y004240D01*
X051549Y004277D01*
X051472Y004302D01*
X051391Y004315D01*
X051351Y004315D01*
X051351Y003797D01*
X051351Y003797D01*
X050833Y003797D01*
X050833Y003779D01*
X049968Y003779D01*
X049968Y003920D01*
X049874Y004147D01*
X049700Y004321D01*
X049473Y004415D01*
X049228Y004415D01*
X049001Y004321D01*
X048914Y004234D01*
X048668Y004234D01*
X048586Y004316D01*
X048454Y004371D01*
X047917Y004371D01*
X047851Y004344D01*
X047784Y004371D01*
X047248Y004371D01*
X047115Y004316D01*
X047014Y004215D01*
X046959Y004083D01*
X046959Y003779D01*
X037307Y003779D01*
X037307Y003960D01*
X037307Y004163D01*
X037353Y004209D01*
X037407Y004341D01*
X037407Y004510D01*
X037411Y004518D01*
X037411Y004734D01*
X038462Y004734D01*
X038668Y004820D01*
X039483Y005634D01*
X039624Y005634D01*
X039851Y005861D01*
X040077Y005634D01*
X040624Y005634D01*
X041011Y006021D01*
X041011Y006568D01*
X040871Y006708D01*
X040871Y006774D01*
X042389Y006774D01*
X042478Y006738D01*
X043054Y006738D01*
X043101Y006757D01*
X043147Y006738D01*
X043723Y006738D01*
X043812Y006774D01*
X047454Y006774D01*
X047645Y006854D01*
X047791Y007000D01*
X048291Y007500D01*
X048371Y007691D01*
X048371Y007829D01*
X048985Y008443D01*
X048989Y008433D01*
X048939Y008313D01*
X048939Y007890D01*
X048849Y007799D01*
X048794Y007667D01*
X048794Y007091D01*
X048813Y007044D01*
X048794Y006998D01*
X048794Y006422D01*
X048849Y006289D01*
X048870Y006268D01*
X048868Y006267D01*
X048753Y006152D01*
X048590Y005988D01*
X048374Y006204D01*
X047827Y006204D01*
X047441Y005818D01*
X047441Y005271D01*
X047827Y004884D01*
X048374Y004884D01*
X048624Y005134D01*
X048807Y005134D01*
X048958Y005197D01*
X049270Y005509D01*
X049289Y005509D01*
X049289Y005322D01*
X049299Y005272D01*
X049319Y005224D01*
X049347Y005182D01*
X049384Y005146D01*
X049426Y005117D01*
X049474Y005098D01*
X049524Y005088D01*
X049752Y005088D01*
X049733Y005042D01*
X049733Y004797D01*
X049827Y004570D01*
X050001Y004396D01*
X050228Y004302D01*
X050473Y004302D01*
X050700Y004396D01*
X050874Y004570D01*
X050968Y004797D01*
X050968Y005042D01*
X050942Y005104D01*
X051188Y005104D01*
X051350Y005171D01*
X051474Y005295D01*
X051641Y005462D01*
X051708Y005624D01*
X051708Y005824D01*
X051770Y005887D01*
X051825Y006019D01*
X051825Y006320D01*
X051784Y006419D01*
X051825Y006519D01*
X051825Y007070D01*
X051783Y007169D01*
X051825Y007269D01*
X051825Y007484D01*
X051975Y007547D01*
X052026Y007597D01*
X052123Y007637D01*
X052258Y007772D01*
X052331Y007949D01*
X052331Y008759D01*
X052332Y008758D01*
X052869Y008758D01*
X052879Y008762D01*
X052938Y008738D01*
X053135Y008738D01*
X053049Y008678D02*
X052331Y008678D01*
X052331Y008360D02*
X052737Y008360D01*
X052433Y008041D02*
X052331Y008041D01*
X052371Y007723D02*
X052208Y007723D01*
X052371Y007404D02*
X051825Y007404D01*
X051818Y007086D02*
X052371Y007086D01*
X052371Y006767D02*
X051825Y006767D01*
X051796Y006449D02*
X052517Y006449D01*
X052876Y006130D02*
X051825Y006130D01*
X051708Y005812D02*
X052859Y005812D01*
X052325Y005493D02*
X051654Y005493D01*
X051353Y005175D02*
X052294Y005175D01*
X052294Y004856D02*
X050968Y004856D01*
X050842Y004538D02*
X052394Y004538D01*
X052394Y004460D02*
X052394Y004218D01*
X052404Y004167D01*
X052423Y004120D01*
X052452Y004077D01*
X052488Y004041D01*
X052531Y004013D01*
X052578Y003993D01*
X052628Y003983D01*
X052851Y003983D01*
X053073Y003983D01*
X053123Y003993D01*
X053171Y004013D01*
X053213Y004041D01*
X053249Y004077D01*
X053278Y004120D01*
X053297Y004167D01*
X053307Y004218D01*
X053307Y004460D01*
X052851Y004460D01*
X052851Y004460D01*
X052851Y003983D01*
X052851Y004460D01*
X052851Y004460D01*
X052851Y004460D01*
X052394Y004460D01*
X052394Y004219D02*
X051650Y004219D01*
X051351Y004219D02*
X051351Y004219D01*
X051351Y004315D02*
X051310Y004315D01*
X051229Y004302D01*
X051152Y004277D01*
X051079Y004240D01*
X051014Y004192D01*
X050956Y004134D01*
X050908Y004069D01*
X050871Y003996D01*
X050846Y003919D01*
X050833Y003838D01*
X050833Y003797D01*
X051351Y003797D01*
X051351Y003797D01*
X051351Y004315D01*
X051051Y004219D02*
X049802Y004219D01*
X049859Y004538D02*
X037411Y004538D01*
X037357Y004219D02*
X047018Y004219D01*
X046959Y003901D02*
X037307Y003901D01*
X037307Y003960D02*
X036851Y003960D01*
X037307Y003960D01*
X036851Y003960D02*
X036851Y003960D01*
X036851Y003960D01*
X036394Y003960D01*
X036394Y004163D01*
X036351Y004207D01*
X036307Y004163D01*
X036307Y003960D01*
X035851Y003960D01*
X035851Y003960D01*
X036307Y003960D01*
X036307Y003779D01*
X036394Y003779D01*
X036394Y003960D01*
X036851Y003960D01*
X036394Y003901D02*
X036307Y003901D01*
X035851Y003960D02*
X035394Y003960D01*
X035851Y003960D01*
X035851Y003960D01*
X035394Y003960D02*
X035394Y003779D01*
X032807Y003779D01*
X032807Y003960D01*
X032807Y004163D01*
X032853Y004209D01*
X032907Y004341D01*
X032907Y004510D01*
X032911Y004518D01*
X032911Y004734D01*
X033127Y004734D01*
X033135Y004738D01*
X033304Y004738D01*
X033351Y004757D01*
X033397Y004738D01*
X033566Y004738D01*
X033574Y004734D01*
X034627Y004734D01*
X034635Y004738D01*
X034804Y004738D01*
X034851Y004757D01*
X034897Y004738D01*
X035066Y004738D01*
X035074Y004734D01*
X035291Y004734D01*
X035291Y004518D01*
X035294Y004510D01*
X035294Y004341D01*
X035349Y004209D01*
X035394Y004163D01*
X035394Y003960D01*
X035394Y003901D02*
X032807Y003901D01*
X032807Y003960D02*
X032351Y003960D01*
X032807Y003960D01*
X032351Y003960D02*
X032351Y003960D01*
X032351Y003960D01*
X031894Y003960D01*
X031894Y004163D01*
X031851Y004207D01*
X031807Y004163D01*
X031807Y003960D01*
X031351Y003960D01*
X031351Y003960D01*
X031807Y003960D01*
X031807Y003779D01*
X031894Y003779D01*
X031894Y003960D01*
X032351Y003960D01*
X031894Y003901D02*
X031807Y003901D01*
X031351Y003960D02*
X030894Y003960D01*
X031351Y003960D01*
X031351Y003960D01*
X030894Y003960D02*
X030894Y003779D01*
X028307Y003779D01*
X028307Y003960D01*
X028307Y004163D01*
X028353Y004209D01*
X028407Y004341D01*
X028407Y004510D01*
X028411Y004518D01*
X028411Y004734D01*
X028627Y004734D01*
X028635Y004738D01*
X028804Y004738D01*
X028851Y004757D01*
X028897Y004738D01*
X029066Y004738D01*
X029074Y004734D01*
X030127Y004734D01*
X030135Y004738D01*
X030304Y004738D01*
X030351Y004757D01*
X030397Y004738D01*
X030566Y004738D01*
X030574Y004734D01*
X030791Y004734D01*
X030791Y004518D01*
X030794Y004510D01*
X030794Y004341D01*
X030849Y004209D01*
X030894Y004163D01*
X030894Y003960D01*
X030894Y003901D02*
X028307Y003901D01*
X028307Y003960D02*
X027851Y003960D01*
X028307Y003960D01*
X027851Y003960D02*
X027851Y003960D01*
X027851Y003960D01*
X027394Y003960D01*
X027394Y004163D01*
X027351Y004207D01*
X027307Y004163D01*
X027307Y003960D01*
X026851Y003960D01*
X026851Y003960D01*
X027307Y003960D01*
X027307Y003779D01*
X027394Y003779D01*
X027394Y003960D01*
X027851Y003960D01*
X027394Y003901D02*
X027307Y003901D01*
X026851Y003960D02*
X026394Y003960D01*
X026851Y003960D01*
X026851Y003960D01*
X026394Y003960D02*
X026394Y003779D01*
X012728Y003779D01*
X012696Y003812D01*
X012472Y003904D01*
X012229Y003904D01*
X012005Y003812D01*
X011833Y003640D01*
X011741Y003416D01*
X011741Y003173D01*
X011748Y003154D01*
X004211Y003154D01*
X004211Y005134D01*
X004581Y005134D01*
X004581Y005816D01*
X004786Y005816D01*
X004786Y005134D01*
X005534Y005134D01*
X005584Y005144D01*
X005632Y005163D01*
X005674Y005192D01*
X005710Y005228D01*
X005739Y005270D01*
X005758Y005318D01*
X005768Y005368D01*
X005768Y005816D01*
X004786Y005816D01*
X004786Y006021D01*
X005768Y006021D01*
X005768Y006469D01*
X005758Y006519D01*
X005739Y006567D01*
X005710Y006609D01*
X005690Y006630D01*
X005712Y006639D01*
X005814Y006740D01*
X005828Y006774D01*
X006191Y006774D01*
X006191Y006521D01*
X006577Y006134D01*
X007124Y006134D01*
X007351Y006361D01*
X007577Y006134D01*
X007775Y006134D01*
X008056Y005854D01*
X008247Y005774D01*
X012639Y005774D01*
X012728Y005738D01*
X013304Y005738D01*
X013351Y005757D01*
X013397Y005738D01*
X013973Y005738D01*
X014062Y005774D01*
X014454Y005774D01*
X014645Y005854D01*
X014926Y006134D01*
X015124Y006134D01*
X015351Y006361D01*
X015577Y006134D01*
X016124Y006134D01*
X016511Y006521D01*
X016511Y006774D01*
X017389Y006774D01*
X017478Y006738D01*
X018054Y006738D01*
X018101Y006757D01*
X018147Y006738D01*
X018723Y006738D01*
X018812Y006774D01*
X022331Y006774D01*
X022331Y006708D01*
X022191Y006568D01*
X022191Y006021D01*
X022577Y005634D01*
X023124Y005634D01*
X023351Y005861D01*
X023577Y005634D01*
X023719Y005634D01*
X024533Y004820D01*
X024739Y004734D01*
X026291Y004734D01*
X026291Y004518D01*
X026294Y004510D01*
X026294Y004341D01*
X026349Y004209D01*
X026394Y004163D01*
X026394Y003960D01*
X026394Y003901D02*
X012480Y003901D01*
X012221Y003901D02*
X004211Y003901D01*
X004211Y004219D02*
X026344Y004219D01*
X026291Y004538D02*
X004211Y004538D01*
X004211Y004856D02*
X024497Y004856D01*
X024178Y005175D02*
X005649Y005175D01*
X004786Y005175D02*
X004581Y005175D01*
X004581Y005493D02*
X004786Y005493D01*
X004786Y005812D02*
X004581Y005812D01*
X005768Y005812D02*
X008157Y005812D01*
X007779Y006130D02*
X005768Y006130D01*
X005768Y006449D02*
X006263Y006449D01*
X006191Y006767D02*
X005825Y006767D01*
X006851Y006794D02*
X006851Y007294D01*
X006851Y007794D01*
X006191Y007814D02*
X005828Y007814D01*
X005814Y007848D01*
X005712Y007950D01*
X005690Y007959D01*
X005710Y007979D01*
X005739Y008022D01*
X005758Y008069D01*
X005768Y008120D01*
X005768Y008568D01*
X004786Y008568D01*
X004786Y008773D01*
X004581Y008773D01*
X004581Y009455D01*
X004211Y009455D01*
X004211Y011179D01*
X016651Y011179D01*
X016651Y010599D01*
X017296Y010599D01*
X017296Y010469D01*
X017426Y010469D01*
X017426Y010599D01*
X018071Y010599D01*
X018071Y011179D01*
X018291Y011179D01*
X018291Y009463D01*
X018345Y009330D01*
X018447Y009229D01*
X018579Y009174D01*
X018581Y009174D01*
X018581Y008756D01*
X018544Y008667D01*
X018544Y008091D01*
X018563Y008044D01*
X018544Y007998D01*
X018544Y007851D01*
X018147Y007851D01*
X018101Y007832D01*
X018054Y007851D01*
X017478Y007851D01*
X017389Y007814D01*
X016511Y007814D01*
X016511Y008068D01*
X016124Y008454D01*
X015577Y008454D01*
X015351Y008228D01*
X015124Y008454D01*
X014926Y008454D01*
X014645Y008735D01*
X014454Y008814D01*
X014062Y008814D01*
X013973Y008851D01*
X013397Y008851D01*
X013351Y008832D01*
X013304Y008851D01*
X012728Y008851D01*
X012639Y008814D01*
X011997Y008814D01*
X011949Y008795D01*
X011840Y008840D01*
X011756Y008840D01*
X011747Y008861D01*
X011714Y008910D01*
X011575Y009049D01*
X011436Y009188D01*
X011387Y009221D01*
X011332Y009243D01*
X011275Y009255D01*
X011216Y009255D01*
X011158Y009243D01*
X011103Y009221D01*
X011054Y009188D01*
X011006Y009139D01*
X010957Y009091D01*
X010924Y009042D01*
X010924Y009040D01*
X010922Y009040D01*
X010873Y009007D01*
X010859Y008993D01*
X010804Y008993D01*
X010657Y008932D01*
X010539Y008814D01*
X010062Y008814D01*
X009973Y008851D01*
X009397Y008851D01*
X009351Y008832D01*
X009304Y008851D01*
X008728Y008851D01*
X008639Y008814D01*
X008247Y008814D01*
X008056Y008735D01*
X007775Y008454D01*
X007577Y008454D01*
X007351Y008228D01*
X007124Y008454D01*
X006577Y008454D01*
X006191Y008068D01*
X006191Y007814D01*
X006191Y008041D02*
X005747Y008041D01*
X005768Y008360D02*
X006483Y008360D01*
X007218Y008360D02*
X007483Y008360D01*
X007999Y008678D02*
X004786Y008678D01*
X004786Y008773D02*
X005768Y008773D01*
X005768Y009221D01*
X005758Y009271D01*
X005739Y009318D01*
X005710Y009361D01*
X005674Y009397D01*
X005632Y009426D01*
X005584Y009445D01*
X005534Y009455D01*
X004786Y009455D01*
X004786Y008773D01*
X004786Y008997D02*
X004581Y008997D01*
X004581Y009315D02*
X004786Y009315D01*
X004211Y009634D02*
X016651Y009634D01*
X016651Y009509D02*
X016661Y009459D01*
X016680Y009411D01*
X016709Y009369D01*
X016745Y009332D01*
X016787Y009304D01*
X016835Y009284D01*
X016885Y009274D01*
X017296Y009274D01*
X017296Y010469D01*
X016651Y010469D01*
X016651Y009509D01*
X016770Y009315D02*
X005740Y009315D01*
X005768Y008997D02*
X010863Y008997D01*
X011006Y009139D02*
X011071Y009074D01*
X011071Y009074D01*
X011006Y009139D01*
X011336Y008809D02*
X011575Y009049D01*
X011336Y008809D01*
X011336Y008809D01*
X011523Y008997D02*
X011523Y008997D01*
X011627Y008997D02*
X018581Y008997D01*
X019621Y008997D02*
X023761Y008997D01*
X023719Y008954D02*
X023577Y008954D01*
X023351Y008728D01*
X023124Y008954D01*
X022577Y008954D01*
X022191Y008568D01*
X022191Y008021D01*
X022331Y007881D01*
X022331Y007814D01*
X019657Y007814D01*
X019657Y007998D01*
X019638Y008044D01*
X019657Y008091D01*
X019657Y008667D01*
X019621Y008756D01*
X019621Y009174D01*
X019622Y009174D01*
X019755Y009229D01*
X019856Y009330D01*
X019911Y009463D01*
X019911Y011179D01*
X020131Y011179D01*
X020131Y010599D01*
X020776Y010599D01*
X020776Y010469D01*
X020906Y010469D01*
X020906Y010599D01*
X021551Y010599D01*
X021551Y011179D01*
X041651Y011179D01*
X041651Y010599D01*
X042296Y010599D01*
X042296Y010469D01*
X042426Y010469D01*
X042426Y010599D01*
X043071Y010599D01*
X043071Y011179D01*
X043291Y011179D01*
X043291Y009463D01*
X043345Y009330D01*
X043447Y009229D01*
X043579Y009174D01*
X043581Y009174D01*
X043581Y008756D01*
X043544Y008667D01*
X043544Y008091D01*
X043563Y008044D01*
X043544Y007998D01*
X043544Y007851D01*
X043147Y007851D01*
X043101Y007832D01*
X043054Y007851D01*
X042478Y007851D01*
X042389Y007814D01*
X040871Y007814D01*
X040871Y007881D01*
X041011Y008021D01*
X041011Y008568D01*
X040624Y008954D01*
X040077Y008954D01*
X039851Y008728D01*
X039624Y008954D01*
X039483Y008954D01*
X038333Y010104D01*
X038127Y010189D01*
X037411Y010189D01*
X037411Y010406D01*
X037325Y010612D01*
X037168Y010769D01*
X036962Y010854D01*
X035074Y010854D01*
X035066Y010851D01*
X034897Y010851D01*
X034851Y010832D01*
X034804Y010851D01*
X034635Y010851D01*
X034627Y010854D01*
X033574Y010854D01*
X033566Y010851D01*
X033397Y010851D01*
X033351Y010832D01*
X033304Y010851D01*
X033135Y010851D01*
X033127Y010854D01*
X030574Y010854D01*
X030566Y010851D01*
X030397Y010851D01*
X030351Y010832D01*
X030304Y010851D01*
X030135Y010851D01*
X030127Y010854D01*
X029074Y010854D01*
X029066Y010851D01*
X028897Y010851D01*
X028851Y010832D01*
X028804Y010851D01*
X028635Y010851D01*
X028627Y010854D01*
X026739Y010854D01*
X026533Y010769D01*
X026376Y010612D01*
X026291Y010406D01*
X026291Y010189D01*
X025074Y010189D01*
X024868Y010104D01*
X023719Y008954D01*
X024080Y009315D02*
X021431Y009315D01*
X021414Y009304D02*
X021456Y009332D01*
X021493Y009369D01*
X021521Y009411D01*
X021541Y009459D01*
X021551Y009509D01*
X021551Y010469D01*
X020906Y010469D01*
X020906Y009274D01*
X021316Y009274D01*
X021366Y009284D01*
X021414Y009304D01*
X020906Y009315D02*
X020776Y009315D01*
X020776Y009274D02*
X020776Y010469D01*
X020131Y010469D01*
X020131Y009509D01*
X020141Y009459D01*
X020160Y009411D01*
X020189Y009369D01*
X020225Y009332D01*
X020267Y009304D01*
X020315Y009284D01*
X020365Y009274D01*
X020776Y009274D01*
X020250Y009315D02*
X019841Y009315D01*
X019911Y009634D02*
X020131Y009634D01*
X020776Y009634D02*
X020906Y009634D01*
X021551Y009634D02*
X024398Y009634D01*
X024717Y009952D02*
X021551Y009952D01*
X020906Y009952D02*
X020776Y009952D01*
X020131Y009952D02*
X019911Y009952D01*
X019911Y010271D02*
X020131Y010271D01*
X020776Y010271D02*
X020906Y010271D01*
X021551Y010271D02*
X026291Y010271D01*
X026367Y010589D02*
X020906Y010589D01*
X020776Y010589D02*
X019911Y010589D01*
X019911Y010908D02*
X020131Y010908D01*
X019101Y010534D02*
X019101Y008379D01*
X019657Y008360D02*
X022191Y008360D01*
X022851Y008294D02*
X022851Y007294D01*
X019101Y007294D01*
X019101Y007710D01*
X019639Y008041D02*
X022191Y008041D01*
X022301Y008678D02*
X019653Y008678D01*
X018548Y008678D02*
X014702Y008678D01*
X015218Y008360D02*
X015483Y008360D01*
X016218Y008360D02*
X018544Y008360D01*
X018562Y008041D02*
X016511Y008041D01*
X015851Y007794D02*
X015851Y007294D01*
X015851Y006794D01*
X016511Y006767D02*
X017406Y006767D01*
X016439Y006449D02*
X022191Y006449D01*
X022851Y006294D02*
X022851Y007294D01*
X022331Y006767D02*
X018796Y006767D01*
X019101Y007294D02*
X018435Y007294D01*
X017766Y007294D02*
X015851Y007294D01*
X014417Y007294D02*
X014191Y007068D01*
X014191Y006870D01*
X014135Y006814D01*
X014062Y006814D01*
X013973Y006851D01*
X013397Y006851D01*
X013351Y006832D01*
X013304Y006851D01*
X012728Y006851D01*
X012639Y006814D01*
X011958Y006814D01*
X011982Y006838D01*
X012185Y006838D01*
X012185Y007294D01*
X012185Y007294D01*
X012185Y006838D01*
X012427Y006838D01*
X012478Y006848D01*
X012525Y006867D01*
X012568Y006896D01*
X012604Y006932D01*
X012632Y006974D01*
X012652Y007022D01*
X012662Y007072D01*
X012662Y007294D01*
X012185Y007294D01*
X012851Y007294D01*
X012662Y007294D02*
X012662Y007517D01*
X012652Y007567D01*
X012632Y007614D01*
X012604Y007657D01*
X012568Y007693D01*
X012525Y007722D01*
X012478Y007741D01*
X012427Y007751D01*
X012185Y007751D01*
X012043Y007751D01*
X012046Y007759D01*
X012082Y007774D01*
X012639Y007774D01*
X012728Y007738D01*
X013304Y007738D01*
X013351Y007757D01*
X013397Y007738D01*
X013973Y007738D01*
X014062Y007774D01*
X014135Y007774D01*
X014191Y007719D01*
X014191Y007521D01*
X014417Y007294D01*
X014307Y007404D02*
X012662Y007404D01*
X012662Y007294D02*
X012185Y007294D01*
X012185Y007294D01*
X012185Y007751D01*
X012185Y007294D01*
X012185Y007294D01*
X012185Y007404D02*
X012185Y007404D01*
X011516Y007294D02*
X011516Y007210D01*
X011351Y007044D01*
X010493Y006814D02*
X008566Y006814D01*
X008511Y006870D01*
X008511Y007068D01*
X008284Y007294D01*
X008511Y007521D01*
X008511Y007719D01*
X008566Y007774D01*
X008639Y007774D01*
X008728Y007738D01*
X009304Y007738D01*
X009351Y007757D01*
X009397Y007738D01*
X009965Y007738D01*
X009926Y007722D01*
X009884Y007693D01*
X009847Y007657D01*
X009819Y007614D01*
X009799Y007567D01*
X009789Y007517D01*
X009789Y007294D01*
X009789Y007072D01*
X009799Y007022D01*
X009819Y006974D01*
X009847Y006932D01*
X009884Y006896D01*
X009926Y006867D01*
X009974Y006848D01*
X010024Y006838D01*
X010266Y006838D01*
X010470Y006838D01*
X010493Y006814D01*
X010266Y006838D02*
X010266Y007294D01*
X010266Y007294D01*
X010266Y006838D01*
X010266Y007086D02*
X010266Y007086D01*
X010266Y007294D02*
X009789Y007294D01*
X010266Y007294D01*
X010266Y007294D01*
X009789Y007404D02*
X008394Y007404D01*
X008492Y007086D02*
X009789Y007086D01*
X010935Y007294D02*
X011516Y007294D01*
X011351Y007294D01*
X011351Y007794D01*
X012185Y007723D02*
X012185Y007723D01*
X012522Y007723D02*
X014187Y007723D01*
X014351Y008294D02*
X014851Y007794D01*
X014351Y008294D02*
X013685Y008294D01*
X013016Y008294D02*
X012101Y008294D01*
X010851Y008294D02*
X009685Y008294D01*
X009016Y008294D02*
X008351Y008294D01*
X007851Y007794D01*
X008515Y007723D02*
X009929Y007723D01*
X012185Y007086D02*
X012185Y007086D01*
X012662Y007086D02*
X014209Y007086D01*
X014851Y006794D02*
X014351Y006294D01*
X013685Y006294D01*
X013016Y006294D02*
X008351Y006294D01*
X007851Y006794D01*
X006851Y007294D02*
X004683Y007294D01*
X005768Y005493D02*
X023860Y005493D01*
X023400Y005812D02*
X023302Y005812D01*
X022400Y005812D02*
X014545Y005812D01*
X014922Y006130D02*
X022191Y006130D01*
X024344Y006734D02*
X026338Y006734D01*
X026349Y006709D01*
X026394Y006663D01*
X026394Y006460D01*
X026851Y006460D01*
X027307Y006460D01*
X027307Y006663D01*
X027351Y006707D01*
X027394Y006663D01*
X027394Y006460D01*
X027851Y006460D01*
X028307Y006460D01*
X028307Y006663D01*
X028353Y006709D01*
X028407Y006841D01*
X028407Y007010D01*
X028411Y007018D01*
X028411Y007234D01*
X028627Y007234D01*
X028635Y007238D01*
X028804Y007238D01*
X028851Y007257D01*
X028897Y007238D01*
X029066Y007238D01*
X029074Y007234D01*
X030127Y007234D01*
X030135Y007238D01*
X030304Y007238D01*
X030351Y007257D01*
X030397Y007238D01*
X030566Y007238D01*
X030574Y007234D01*
X030791Y007234D01*
X030791Y007018D01*
X030794Y007010D01*
X030794Y006841D01*
X030849Y006709D01*
X030894Y006663D01*
X030894Y006460D01*
X031351Y006460D01*
X031807Y006460D01*
X031807Y006663D01*
X031851Y006707D01*
X031894Y006663D01*
X031894Y006460D01*
X032351Y006460D01*
X032807Y006460D01*
X032807Y006663D01*
X032853Y006709D01*
X032907Y006841D01*
X032907Y007010D01*
X032911Y007018D01*
X032911Y007234D01*
X033127Y007234D01*
X033135Y007238D01*
X033304Y007238D01*
X033351Y007257D01*
X033397Y007238D01*
X033566Y007238D01*
X033574Y007234D01*
X034627Y007234D01*
X034635Y007238D01*
X034804Y007238D01*
X034851Y007257D01*
X034897Y007238D01*
X035066Y007238D01*
X035074Y007234D01*
X035291Y007234D01*
X035291Y007018D01*
X035294Y007010D01*
X035294Y006841D01*
X035349Y006709D01*
X035394Y006663D01*
X035394Y006460D01*
X035851Y006460D01*
X036307Y006460D01*
X036307Y006663D01*
X036351Y006707D01*
X036394Y006663D01*
X036394Y006460D01*
X036851Y006460D01*
X037307Y006460D01*
X037307Y006569D01*
X038692Y006569D01*
X038691Y006568D01*
X038691Y006426D01*
X038119Y005854D01*
X035074Y005854D01*
X035066Y005851D01*
X034897Y005851D01*
X034851Y005832D01*
X034804Y005851D01*
X034635Y005851D01*
X034627Y005854D01*
X033574Y005854D01*
X033566Y005851D01*
X033397Y005851D01*
X033351Y005832D01*
X033304Y005851D01*
X033135Y005851D01*
X033127Y005854D01*
X030574Y005854D01*
X030566Y005851D01*
X030397Y005851D01*
X030351Y005832D01*
X030304Y005851D01*
X030135Y005851D01*
X030127Y005854D01*
X029074Y005854D01*
X029066Y005851D01*
X028897Y005851D01*
X028851Y005832D01*
X028804Y005851D01*
X028635Y005851D01*
X028627Y005854D01*
X025083Y005854D01*
X024511Y006426D01*
X024511Y006568D01*
X024344Y006734D01*
X024511Y006449D02*
X026394Y006449D01*
X026394Y006460D02*
X026394Y006218D01*
X026404Y006167D01*
X026423Y006120D01*
X026452Y006077D01*
X026488Y006041D01*
X026531Y006013D01*
X026578Y005993D01*
X026628Y005983D01*
X026851Y005983D01*
X027073Y005983D01*
X027123Y005993D01*
X027171Y006013D01*
X027213Y006041D01*
X027249Y006077D01*
X027278Y006120D01*
X027297Y006167D01*
X027307Y006218D01*
X027307Y006460D01*
X026851Y006460D01*
X026851Y006460D01*
X026851Y005983D01*
X026851Y006460D01*
X026851Y006460D01*
X026851Y006460D01*
X026394Y006460D01*
X026851Y006449D02*
X026851Y006449D01*
X027307Y006449D02*
X027394Y006449D01*
X027394Y006460D02*
X027394Y006218D01*
X027404Y006167D01*
X027423Y006120D01*
X027452Y006077D01*
X027488Y006041D01*
X027531Y006013D01*
X027578Y005993D01*
X027628Y005983D01*
X027851Y005983D01*
X028073Y005983D01*
X028123Y005993D01*
X028171Y006013D01*
X028213Y006041D01*
X028249Y006077D01*
X028278Y006120D01*
X028297Y006167D01*
X028307Y006218D01*
X028307Y006460D01*
X027851Y006460D01*
X027851Y006460D01*
X027851Y005983D01*
X027851Y006460D01*
X027851Y006460D01*
X027851Y006460D01*
X027394Y006460D01*
X027851Y006449D02*
X027851Y006449D01*
X028307Y006449D02*
X030894Y006449D01*
X030894Y006460D02*
X030894Y006218D01*
X030904Y006167D01*
X030923Y006120D01*
X030952Y006077D01*
X030988Y006041D01*
X031031Y006013D01*
X031078Y005993D01*
X031128Y005983D01*
X031351Y005983D01*
X031573Y005983D01*
X031623Y005993D01*
X031671Y006013D01*
X031713Y006041D01*
X031749Y006077D01*
X031778Y006120D01*
X031797Y006167D01*
X031807Y006218D01*
X031807Y006460D01*
X031351Y006460D01*
X031351Y006460D01*
X031351Y005983D01*
X031351Y006460D01*
X031351Y006460D01*
X031351Y006460D01*
X030894Y006460D01*
X031351Y006449D02*
X031351Y006449D01*
X031807Y006449D02*
X031894Y006449D01*
X031894Y006460D02*
X031894Y006218D01*
X031904Y006167D01*
X031923Y006120D01*
X031952Y006077D01*
X031988Y006041D01*
X032031Y006013D01*
X032078Y005993D01*
X032128Y005983D01*
X032351Y005983D01*
X032573Y005983D01*
X032623Y005993D01*
X032671Y006013D01*
X032713Y006041D01*
X032749Y006077D01*
X032778Y006120D01*
X032797Y006167D01*
X032807Y006218D01*
X032807Y006460D01*
X032351Y006460D01*
X032351Y006460D01*
X032351Y005983D01*
X032351Y006460D01*
X032351Y006460D01*
X032351Y006460D01*
X031894Y006460D01*
X032351Y006449D02*
X032351Y006449D01*
X032807Y006449D02*
X035394Y006449D01*
X035394Y006460D02*
X035394Y006218D01*
X035404Y006167D01*
X035423Y006120D01*
X035452Y006077D01*
X035488Y006041D01*
X035531Y006013D01*
X035578Y005993D01*
X035628Y005983D01*
X035851Y005983D01*
X036073Y005983D01*
X036123Y005993D01*
X036171Y006013D01*
X036213Y006041D01*
X036249Y006077D01*
X036278Y006120D01*
X036297Y006167D01*
X036307Y006218D01*
X036307Y006460D01*
X035851Y006460D01*
X035851Y006460D01*
X035851Y005983D01*
X035851Y006460D01*
X035851Y006460D01*
X035851Y006460D01*
X035394Y006460D01*
X035851Y006449D02*
X035851Y006449D01*
X036307Y006449D02*
X036394Y006449D01*
X036394Y006460D02*
X036394Y006218D01*
X036404Y006167D01*
X036423Y006120D01*
X036452Y006077D01*
X036488Y006041D01*
X036531Y006013D01*
X036578Y005993D01*
X036628Y005983D01*
X036851Y005983D01*
X037073Y005983D01*
X037123Y005993D01*
X037171Y006013D01*
X037213Y006041D01*
X037249Y006077D01*
X037278Y006120D01*
X037297Y006167D01*
X037307Y006218D01*
X037307Y006460D01*
X036851Y006460D01*
X036851Y006460D01*
X036851Y005983D01*
X036851Y006460D01*
X036851Y006460D01*
X036851Y006460D01*
X036394Y006460D01*
X036851Y006449D02*
X036851Y006449D01*
X037307Y006449D02*
X038691Y006449D01*
X038395Y006130D02*
X037282Y006130D01*
X036851Y006130D02*
X036851Y006130D01*
X036419Y006130D02*
X036282Y006130D01*
X035851Y006130D02*
X035851Y006130D01*
X035419Y006130D02*
X032782Y006130D01*
X032351Y006130D02*
X032351Y006130D01*
X031919Y006130D02*
X031782Y006130D01*
X031351Y006130D02*
X031351Y006130D01*
X030919Y006130D02*
X028282Y006130D01*
X027851Y006130D02*
X027851Y006130D01*
X027419Y006130D02*
X027282Y006130D01*
X026851Y006130D02*
X026851Y006130D01*
X026419Y006130D02*
X024807Y006130D01*
X028377Y006767D02*
X030824Y006767D01*
X030791Y007086D02*
X028411Y007086D01*
X026291Y007854D02*
X024344Y007854D01*
X024511Y008021D01*
X024511Y008162D01*
X025417Y009069D01*
X026394Y009069D01*
X026394Y008960D01*
X026851Y008960D01*
X027307Y008960D01*
X027307Y009163D01*
X027351Y009207D01*
X027394Y009163D01*
X027394Y008960D01*
X027851Y008960D01*
X028307Y008960D01*
X028307Y009163D01*
X028353Y009209D01*
X028407Y009341D01*
X028407Y009510D01*
X028411Y009518D01*
X028411Y009734D01*
X028627Y009734D01*
X028635Y009738D01*
X028804Y009738D01*
X028851Y009757D01*
X028897Y009738D01*
X029066Y009738D01*
X029074Y009734D01*
X030127Y009734D01*
X030135Y009738D01*
X030304Y009738D01*
X030351Y009757D01*
X030397Y009738D01*
X030566Y009738D01*
X030574Y009734D01*
X030791Y009734D01*
X030791Y009518D01*
X030794Y009510D01*
X030794Y009341D01*
X030849Y009209D01*
X030894Y009163D01*
X030894Y008960D01*
X031351Y008960D01*
X031807Y008960D01*
X031807Y009163D01*
X031851Y009207D01*
X031894Y009163D01*
X031894Y008960D01*
X032351Y008960D01*
X032807Y008960D01*
X032807Y009163D01*
X032853Y009209D01*
X032907Y009341D01*
X032907Y009510D01*
X032911Y009518D01*
X032911Y009734D01*
X033127Y009734D01*
X033135Y009738D01*
X033304Y009738D01*
X033351Y009757D01*
X033397Y009738D01*
X033566Y009738D01*
X033574Y009734D01*
X034627Y009734D01*
X034635Y009738D01*
X034804Y009738D01*
X034851Y009757D01*
X034897Y009738D01*
X035066Y009738D01*
X035074Y009734D01*
X035291Y009734D01*
X035291Y009518D01*
X035294Y009510D01*
X035294Y009341D01*
X035349Y009209D01*
X035394Y009163D01*
X035394Y008960D01*
X035851Y008960D01*
X036307Y008960D01*
X036307Y009163D01*
X036351Y009207D01*
X036394Y009163D01*
X036394Y008960D01*
X036851Y008960D01*
X037307Y008960D01*
X037307Y009069D01*
X037784Y009069D01*
X038691Y008162D01*
X038691Y008021D01*
X038917Y007794D01*
X038812Y007689D01*
X037411Y007689D01*
X037411Y007906D01*
X037325Y008112D01*
X037168Y008269D01*
X036962Y008354D01*
X035074Y008354D01*
X035066Y008351D01*
X034897Y008351D01*
X034851Y008332D01*
X034804Y008351D01*
X034635Y008351D01*
X034627Y008354D01*
X033574Y008354D01*
X033566Y008351D01*
X033397Y008351D01*
X033351Y008332D01*
X033304Y008351D01*
X033135Y008351D01*
X033127Y008354D01*
X030574Y008354D01*
X030566Y008351D01*
X030397Y008351D01*
X030351Y008332D01*
X030304Y008351D01*
X030135Y008351D01*
X030127Y008354D01*
X029074Y008354D01*
X029066Y008351D01*
X028897Y008351D01*
X028851Y008332D01*
X028804Y008351D01*
X028635Y008351D01*
X028627Y008354D01*
X026739Y008354D01*
X026533Y008269D01*
X026376Y008112D01*
X026291Y007906D01*
X026291Y007854D01*
X026347Y008041D02*
X024511Y008041D01*
X024708Y008360D02*
X038493Y008360D01*
X038691Y008041D02*
X037354Y008041D01*
X037411Y007723D02*
X038846Y007723D01*
X040351Y007294D02*
X040351Y006294D01*
X041011Y006449D02*
X048794Y006449D01*
X048794Y006767D02*
X043796Y006767D01*
X042406Y006767D02*
X040871Y006767D01*
X041011Y006130D02*
X047753Y006130D01*
X047441Y005812D02*
X044125Y005812D01*
X044083Y005854D02*
X043851Y005854D01*
X043851Y005294D01*
X043851Y005294D01*
X044411Y005294D01*
X044411Y005062D01*
X044083Y004734D01*
X043851Y004734D01*
X043851Y005294D01*
X043851Y005294D01*
X044411Y005294D01*
X044411Y005526D01*
X044083Y005854D01*
X043851Y005854D02*
X043619Y005854D01*
X043291Y005526D01*
X043291Y005294D01*
X043291Y005062D01*
X043619Y004734D01*
X043851Y004734D01*
X043851Y005294D01*
X043291Y005294D01*
X043851Y005294D01*
X043851Y005294D01*
X043851Y005294D01*
X043851Y005854D01*
X043851Y005812D02*
X043851Y005812D01*
X043576Y005812D02*
X040802Y005812D01*
X039900Y005812D02*
X039802Y005812D01*
X039342Y005493D02*
X043291Y005493D01*
X043851Y005493D02*
X043851Y005493D01*
X044411Y005493D02*
X047441Y005493D01*
X047537Y005175D02*
X044411Y005175D01*
X043851Y005175D02*
X043851Y005175D01*
X043291Y005175D02*
X039023Y005175D01*
X038705Y004856D02*
X043497Y004856D01*
X043851Y004856D02*
X043851Y004856D01*
X044205Y004856D02*
X049733Y004856D01*
X049354Y005175D02*
X048905Y005175D01*
X048851Y004794D02*
X049766Y005544D01*
X049289Y005493D02*
X049254Y005493D01*
X048732Y006130D02*
X048448Y006130D01*
X048796Y007086D02*
X047878Y007086D01*
X047351Y007294D02*
X044101Y007294D01*
X044101Y007710D01*
X044639Y008041D02*
X047331Y008041D01*
X047851Y008044D02*
X047851Y007794D01*
X047351Y007294D01*
X048196Y007404D02*
X048794Y007404D01*
X048817Y007723D02*
X048371Y007723D01*
X048583Y008041D02*
X048939Y008041D01*
X047851Y008044D02*
X049101Y009294D01*
X050101Y009294D01*
X048705Y009634D02*
X046551Y009634D01*
X045906Y009634D02*
X045776Y009634D01*
X045131Y009634D02*
X044911Y009634D01*
X044911Y009952D02*
X045131Y009952D01*
X045776Y009952D02*
X045906Y009952D01*
X046551Y009952D02*
X050417Y009952D01*
X048386Y009315D02*
X046431Y009315D01*
X045906Y009315D02*
X045776Y009315D01*
X045250Y009315D02*
X044841Y009315D01*
X044621Y008997D02*
X048068Y008997D01*
X047749Y008678D02*
X044653Y008678D01*
X044657Y008360D02*
X047431Y008360D01*
X048902Y008360D02*
X048959Y008360D01*
X044101Y008379D02*
X044101Y010534D01*
X043291Y010589D02*
X042426Y010589D01*
X042426Y010469D02*
X043071Y010469D01*
X043071Y009509D01*
X043061Y009459D01*
X043041Y009411D01*
X043013Y009369D01*
X042976Y009332D01*
X042934Y009304D01*
X042886Y009284D01*
X042836Y009274D01*
X042426Y009274D01*
X042426Y010469D01*
X042296Y010469D02*
X042296Y009274D01*
X041885Y009274D01*
X041835Y009284D01*
X041787Y009304D01*
X041745Y009332D01*
X041709Y009369D01*
X041680Y009411D01*
X041661Y009459D01*
X041651Y009509D01*
X041651Y010469D01*
X042296Y010469D01*
X042296Y010589D02*
X037335Y010589D01*
X037411Y010271D02*
X041651Y010271D01*
X042296Y010271D02*
X042426Y010271D01*
X043071Y010271D02*
X043291Y010271D01*
X043291Y009952D02*
X043071Y009952D01*
X042426Y009952D02*
X042296Y009952D01*
X041651Y009952D02*
X038485Y009952D01*
X038803Y009634D02*
X041651Y009634D01*
X042296Y009634D02*
X042426Y009634D01*
X043071Y009634D02*
X043291Y009634D01*
X043360Y009315D02*
X042951Y009315D01*
X042426Y009315D02*
X042296Y009315D01*
X041770Y009315D02*
X039122Y009315D01*
X039440Y008997D02*
X043581Y008997D01*
X043548Y008678D02*
X040900Y008678D01*
X041011Y008360D02*
X043544Y008360D01*
X043562Y008041D02*
X041011Y008041D01*
X040351Y008294D02*
X040351Y007294D01*
X042766Y007294D01*
X043435Y007294D02*
X044101Y007294D01*
X038175Y008678D02*
X037300Y008678D01*
X037297Y008667D02*
X037307Y008718D01*
X037307Y008960D01*
X036851Y008960D01*
X036851Y008960D01*
X036851Y008483D01*
X037073Y008483D01*
X037123Y008493D01*
X037171Y008513D01*
X037213Y008541D01*
X037249Y008577D01*
X037278Y008620D01*
X037297Y008667D01*
X036851Y008678D02*
X036851Y008678D01*
X036851Y008483D02*
X036851Y008960D01*
X036851Y008960D01*
X036851Y008960D01*
X036394Y008960D01*
X036394Y008718D01*
X036404Y008667D01*
X036423Y008620D01*
X036452Y008577D01*
X036488Y008541D01*
X036531Y008513D01*
X036578Y008493D01*
X036628Y008483D01*
X036851Y008483D01*
X036402Y008678D02*
X036300Y008678D01*
X036297Y008667D02*
X036307Y008718D01*
X036307Y008960D01*
X035851Y008960D01*
X035851Y008960D01*
X035851Y008483D01*
X036073Y008483D01*
X036123Y008493D01*
X036171Y008513D01*
X036213Y008541D01*
X036249Y008577D01*
X036278Y008620D01*
X036297Y008667D01*
X035851Y008678D02*
X035851Y008678D01*
X035851Y008483D02*
X035628Y008483D01*
X035578Y008493D01*
X035531Y008513D01*
X035488Y008541D01*
X035452Y008577D01*
X035423Y008620D01*
X035404Y008667D01*
X035394Y008718D01*
X035394Y008960D01*
X035851Y008960D01*
X035851Y008960D01*
X035851Y008960D01*
X035851Y008483D01*
X035402Y008678D02*
X032800Y008678D01*
X032797Y008667D02*
X032807Y008718D01*
X032807Y008960D01*
X032351Y008960D01*
X032351Y008960D01*
X032351Y008483D01*
X032573Y008483D01*
X032623Y008493D01*
X032671Y008513D01*
X032713Y008541D01*
X032749Y008577D01*
X032778Y008620D01*
X032797Y008667D01*
X032351Y008678D02*
X032351Y008678D01*
X032351Y008483D02*
X032351Y008960D01*
X032351Y008960D01*
X032351Y008960D01*
X031894Y008960D01*
X031894Y008718D01*
X031904Y008667D01*
X031923Y008620D01*
X031952Y008577D01*
X031988Y008541D01*
X032031Y008513D01*
X032078Y008493D01*
X032128Y008483D01*
X032351Y008483D01*
X031902Y008678D02*
X031800Y008678D01*
X031797Y008667D02*
X031807Y008718D01*
X031807Y008960D01*
X031351Y008960D01*
X031351Y008960D01*
X031351Y008483D01*
X031573Y008483D01*
X031623Y008493D01*
X031671Y008513D01*
X031713Y008541D01*
X031749Y008577D01*
X031778Y008620D01*
X031797Y008667D01*
X031351Y008678D02*
X031351Y008678D01*
X031351Y008483D02*
X031128Y008483D01*
X031078Y008493D01*
X031031Y008513D01*
X030988Y008541D01*
X030952Y008577D01*
X030923Y008620D01*
X030904Y008667D01*
X030894Y008718D01*
X030894Y008960D01*
X031351Y008960D01*
X031351Y008960D01*
X031351Y008960D01*
X031351Y008483D01*
X030902Y008678D02*
X028300Y008678D01*
X028297Y008667D02*
X028307Y008718D01*
X028307Y008960D01*
X027851Y008960D01*
X027851Y008960D01*
X027851Y008483D01*
X028073Y008483D01*
X028123Y008493D01*
X028171Y008513D01*
X028213Y008541D01*
X028249Y008577D01*
X028278Y008620D01*
X028297Y008667D01*
X027851Y008678D02*
X027851Y008678D01*
X027851Y008483D02*
X027851Y008960D01*
X027851Y008960D01*
X027851Y008960D01*
X027394Y008960D01*
X027394Y008718D01*
X027404Y008667D01*
X027423Y008620D01*
X027452Y008577D01*
X027488Y008541D01*
X027531Y008513D01*
X027578Y008493D01*
X027628Y008483D01*
X027851Y008483D01*
X027402Y008678D02*
X027300Y008678D01*
X027297Y008667D02*
X027307Y008718D01*
X027307Y008960D01*
X026851Y008960D01*
X026851Y008960D01*
X026851Y008483D01*
X027073Y008483D01*
X027123Y008493D01*
X027171Y008513D01*
X027213Y008541D01*
X027249Y008577D01*
X027278Y008620D01*
X027297Y008667D01*
X026851Y008678D02*
X026851Y008678D01*
X026851Y008483D02*
X026628Y008483D01*
X026578Y008493D01*
X026531Y008513D01*
X026488Y008541D01*
X026452Y008577D01*
X026423Y008620D01*
X026404Y008667D01*
X026394Y008718D01*
X026394Y008960D01*
X026851Y008960D01*
X026851Y008960D01*
X026851Y008960D01*
X026851Y008483D01*
X026402Y008678D02*
X025027Y008678D01*
X025345Y008997D02*
X026394Y008997D01*
X027307Y008997D02*
X027394Y008997D01*
X028307Y008997D02*
X030894Y008997D01*
X031807Y008997D02*
X031894Y008997D01*
X032807Y008997D02*
X035394Y008997D01*
X035304Y009315D02*
X032897Y009315D01*
X032911Y009634D02*
X035291Y009634D01*
X036307Y008997D02*
X036394Y008997D01*
X037307Y008997D02*
X037856Y008997D01*
X030804Y009315D02*
X028397Y009315D01*
X028411Y009634D02*
X030791Y009634D01*
X021551Y010908D02*
X041651Y010908D01*
X043071Y010908D02*
X043291Y010908D01*
X044911Y010908D02*
X045131Y010908D01*
X046551Y010908D02*
X056860Y010908D01*
X059545Y010908D02*
X060019Y010908D01*
X060634Y010908D02*
X060786Y010908D01*
X061401Y010908D02*
X062031Y010908D01*
X062670Y010908D02*
X063233Y010908D01*
X063233Y010589D02*
X062989Y010589D01*
X063011Y010271D02*
X063233Y010271D01*
X063233Y009952D02*
X062942Y009952D01*
X063233Y009634D02*
X062482Y009634D01*
X062438Y009315D02*
X062411Y009315D01*
X060786Y009634D02*
X060634Y009634D01*
X060634Y009952D02*
X060786Y009952D01*
X059977Y009952D02*
X059574Y009952D01*
X059574Y010271D02*
X060634Y010271D01*
X060786Y010271D02*
X061535Y010271D01*
X061442Y010589D02*
X061712Y010589D01*
X060786Y010589D02*
X060634Y010589D01*
X059977Y010589D02*
X059574Y010589D01*
X059744Y009169D02*
X061619Y008794D01*
X061851Y008794D01*
X061405Y008307D02*
X059877Y008613D01*
X059807Y008613D01*
X059807Y008379D01*
X059807Y008214D01*
X061337Y008214D01*
X061417Y008294D01*
X061405Y008307D01*
X061140Y008360D02*
X059807Y008360D01*
X059807Y008379D02*
X059351Y008379D01*
X059351Y008379D01*
X059807Y008379D01*
X059351Y008379D02*
X058894Y008379D01*
X059351Y008379D01*
X059351Y008379D01*
X058894Y008360D02*
X055801Y008360D01*
X055643Y008041D02*
X056004Y008041D01*
X056102Y006449D02*
X055657Y006449D01*
X055557Y006130D02*
X058894Y006130D01*
X058894Y006085D02*
X058894Y005843D01*
X058904Y005792D01*
X058923Y005745D01*
X058952Y005702D01*
X058988Y005666D01*
X059031Y005638D01*
X059078Y005618D01*
X059128Y005608D01*
X059351Y005608D01*
X059573Y005608D01*
X059623Y005618D01*
X059671Y005638D01*
X059713Y005666D01*
X059749Y005702D01*
X059778Y005745D01*
X059797Y005792D01*
X059807Y005843D01*
X059807Y006085D01*
X059351Y006085D01*
X059351Y006085D01*
X059351Y005608D01*
X059351Y006085D01*
X059351Y006085D01*
X059351Y006085D01*
X058894Y006085D01*
X059807Y006130D02*
X061253Y006130D01*
X061191Y005812D02*
X059801Y005812D01*
X059351Y005812D02*
X059351Y005812D01*
X058900Y005812D02*
X055557Y005812D01*
X055557Y005960D02*
X055101Y005960D01*
X055557Y005960D01*
X055101Y005960D02*
X055101Y005960D01*
X055101Y005483D01*
X055101Y005960D01*
X055101Y005960D01*
X055101Y005960D01*
X054351Y005960D01*
X054351Y005960D01*
X054807Y005960D01*
X055101Y005960D01*
X055101Y005812D02*
X055101Y005812D01*
X054351Y005812D02*
X054351Y005812D01*
X054351Y005960D02*
X054351Y005483D01*
X054351Y005960D01*
X054351Y005960D01*
X054351Y005493D02*
X054351Y005493D01*
X054624Y005493D02*
X054827Y005493D01*
X055101Y005493D02*
X055101Y005493D01*
X055374Y005493D02*
X061218Y005493D01*
X061241Y005175D02*
X054904Y005175D01*
X054907Y004856D02*
X057621Y004856D01*
X057541Y004776D02*
X057541Y004544D01*
X057541Y004312D01*
X057869Y003984D01*
X058101Y003984D01*
X058333Y003984D01*
X058661Y004312D01*
X058661Y004544D01*
X058101Y004544D01*
X058101Y004544D01*
X058101Y003984D01*
X058101Y004544D01*
X058101Y004544D01*
X058661Y004544D01*
X058661Y004776D01*
X058333Y005104D01*
X058101Y005104D01*
X058101Y004544D01*
X057541Y004544D01*
X058101Y004544D01*
X058101Y004544D01*
X058101Y004544D01*
X058101Y005104D01*
X057869Y005104D01*
X057541Y004776D01*
X058101Y004856D02*
X058101Y004856D01*
X058581Y004856D02*
X061241Y004856D01*
X061241Y004538D02*
X058661Y004538D01*
X058101Y004538D02*
X058101Y004538D01*
X057541Y004538D02*
X054886Y004538D01*
X054807Y004219D02*
X057634Y004219D01*
X058101Y004219D02*
X058101Y004219D01*
X058568Y004219D02*
X061241Y004219D01*
X061191Y003901D02*
X054791Y003901D01*
X054351Y003901D02*
X054351Y003901D01*
X053851Y003901D02*
X053851Y003901D01*
X053399Y003901D02*
X051858Y003901D01*
X051351Y003901D02*
X051351Y003901D01*
X050843Y003901D02*
X049968Y003901D01*
X052851Y004219D02*
X052851Y004219D01*
X053307Y004219D02*
X053374Y004219D01*
X062323Y003154D02*
X062368Y003199D01*
X062461Y003423D01*
X062461Y003471D01*
X062511Y003521D01*
X062511Y004068D01*
X062461Y004118D01*
X062461Y005251D01*
X062577Y005134D01*
X063124Y005134D01*
X063233Y005243D01*
X063233Y003154D01*
X062323Y003154D01*
X062395Y003264D02*
X063233Y003264D01*
X063233Y003582D02*
X062511Y003582D01*
X062511Y003901D02*
X063233Y003901D01*
X063233Y004219D02*
X062461Y004219D01*
X062461Y004538D02*
X063233Y004538D01*
X063233Y004856D02*
X062461Y004856D01*
X062461Y005175D02*
X062537Y005175D01*
X063165Y005175D02*
X063233Y005175D01*
X063233Y006794D02*
X062851Y006794D01*
X062851Y006794D01*
X063233Y006794D01*
X063233Y006794D01*
X062851Y006794D02*
X062851Y006794D01*
X062851Y007794D01*
X062851Y007794D01*
X062851Y007354D01*
X062851Y006794D01*
X062851Y007086D02*
X062851Y007086D01*
X062851Y007404D02*
X062851Y007404D01*
X062851Y007723D02*
X062851Y007723D01*
X035324Y006767D02*
X032877Y006767D01*
X032911Y007086D02*
X035291Y007086D01*
X035291Y004538D02*
X032911Y004538D01*
X032857Y004219D02*
X035344Y004219D01*
X030844Y004219D02*
X028357Y004219D01*
X028411Y004538D02*
X030791Y004538D01*
X011810Y003582D02*
X004211Y003582D01*
X004211Y003264D02*
X011741Y003264D01*
X017296Y009315D02*
X017426Y009315D01*
X017426Y009274D02*
X017836Y009274D01*
X017886Y009284D01*
X017934Y009304D01*
X017976Y009332D01*
X018013Y009369D01*
X018041Y009411D01*
X018061Y009459D01*
X018071Y009509D01*
X018071Y010469D01*
X017426Y010469D01*
X017426Y009274D01*
X017951Y009315D02*
X018360Y009315D01*
X018291Y009634D02*
X018071Y009634D01*
X017426Y009634D02*
X017296Y009634D01*
X017296Y009952D02*
X017426Y009952D01*
X018071Y009952D02*
X018291Y009952D01*
X018291Y010271D02*
X018071Y010271D01*
X017426Y010271D02*
X017296Y010271D01*
X016651Y010271D02*
X007911Y010271D01*
X007911Y010294D02*
X007351Y010294D01*
X007351Y010294D01*
X007351Y009734D01*
X007583Y009734D01*
X007911Y010062D01*
X007911Y010294D01*
X007911Y010526D01*
X007583Y010854D01*
X007351Y010854D01*
X007351Y010294D01*
X007351Y010294D01*
X007911Y010294D01*
X007351Y010294D02*
X007351Y010294D01*
X007351Y009734D01*
X007119Y009734D01*
X006791Y010062D01*
X006791Y010294D01*
X007351Y010294D01*
X007351Y010294D01*
X006791Y010294D01*
X006791Y010526D01*
X007119Y010854D01*
X007351Y010854D01*
X007351Y010294D01*
X007351Y010271D02*
X007351Y010271D01*
X006791Y010271D02*
X004211Y010271D01*
X004211Y010589D02*
X006854Y010589D01*
X007351Y010589D02*
X007351Y010589D01*
X007848Y010589D02*
X017296Y010589D01*
X017426Y010589D02*
X018291Y010589D01*
X018291Y010908D02*
X018071Y010908D01*
X016651Y010908D02*
X004211Y010908D01*
X004211Y009952D02*
X006901Y009952D01*
X007351Y009952D02*
X007351Y009952D01*
X007801Y009952D02*
X016651Y009952D01*
D32*
X012351Y003294D02*
X012476Y003169D01*
X047351Y003169D01*
X061476Y003169D01*
X061851Y003544D01*
X061851Y003794D01*
X061851Y005794D01*
D33*
X012351Y003294D03*
M02*
