G75*
%MOIN*%
%OFA0B0*%
%FSLAX24Y24*%
%IPPOS*%
%LPD*%
%AMOC8*
5,1,8,0,0,1.08239X$1,22.5*
%
%ADD10C,0.0000*%
%ADD11C,0.0240*%
%ADD12C,0.0060*%
%ADD13C,0.0080*%
D10*
X003851Y002794D02*
X003851Y011539D01*
X063593Y011539D01*
X063593Y002794D01*
X003851Y002794D01*
X003851Y005094D02*
X003851Y009494D01*
X016901Y011544D02*
X021301Y011544D01*
X041901Y011544D02*
X046301Y011544D01*
D11*
X061351Y009294D02*
X061351Y008294D01*
X062351Y008294D01*
X062351Y009294D01*
X061351Y009294D01*
D12*
X061687Y009438D02*
X061914Y009438D01*
X061801Y009551D02*
X061801Y009324D01*
X062937Y009438D02*
X063164Y009438D01*
X063051Y009551D02*
X063051Y009324D01*
X063164Y009693D02*
X063221Y009749D01*
X063221Y009863D01*
X063164Y009920D01*
X063107Y009920D01*
X063051Y009863D01*
X062994Y009920D01*
X062937Y009920D01*
X062881Y009863D01*
X062881Y009749D01*
X062937Y009693D01*
X063051Y009806D02*
X063051Y009863D01*
X062937Y010061D02*
X062937Y010118D01*
X062881Y010118D01*
X062881Y010061D01*
X062937Y010061D01*
X062937Y010245D02*
X062881Y010302D01*
X062881Y010415D01*
X062937Y010472D01*
X062994Y010472D01*
X063051Y010415D01*
X063051Y010359D01*
X063051Y010415D02*
X063107Y010472D01*
X063164Y010472D01*
X063221Y010415D01*
X063221Y010302D01*
X063164Y010245D01*
X063221Y010613D02*
X062994Y010613D01*
X062881Y010727D01*
X062994Y010840D01*
X063221Y010840D01*
X061971Y010288D02*
X061744Y010288D01*
X061631Y010174D01*
X061744Y010061D01*
X061971Y010061D01*
X061971Y009920D02*
X061971Y009693D01*
X061801Y009693D01*
X061857Y009806D01*
X061857Y009863D01*
X061801Y009920D01*
X061687Y009920D01*
X061631Y009863D01*
X061631Y009749D01*
X061687Y009693D01*
X061264Y008040D02*
X061321Y007983D01*
X061321Y007756D01*
X061264Y007699D01*
X061150Y007699D01*
X061094Y007756D01*
X060952Y007699D02*
X060725Y007699D01*
X060584Y007699D02*
X060584Y008040D01*
X060527Y007870D02*
X060357Y007699D01*
X060584Y007813D02*
X060357Y008040D01*
X060952Y008040D02*
X060952Y007699D01*
X061094Y007983D02*
X061150Y008040D01*
X061264Y008040D01*
X061264Y007040D02*
X061321Y006983D01*
X061321Y006756D01*
X061264Y006699D01*
X061150Y006699D01*
X061094Y006756D01*
X060952Y006699D02*
X060725Y006699D01*
X060584Y006699D02*
X060584Y007040D01*
X060527Y006870D02*
X060357Y006699D01*
X060584Y006813D02*
X060357Y007040D01*
X060952Y007040D02*
X060952Y006699D01*
X061094Y006983D02*
X061150Y007040D01*
X061264Y007040D01*
X061346Y006090D02*
X061119Y006090D01*
X061006Y005977D01*
X061119Y005863D01*
X061346Y005863D01*
X061289Y005722D02*
X061232Y005722D01*
X061176Y005665D01*
X061119Y005722D01*
X061062Y005722D01*
X061006Y005665D01*
X061006Y005552D01*
X061062Y005495D01*
X061062Y005368D02*
X061006Y005368D01*
X061006Y005311D01*
X061062Y005311D01*
X061062Y005368D01*
X061062Y005170D02*
X061006Y005113D01*
X061006Y004999D01*
X061062Y004943D01*
X061176Y005056D02*
X061176Y005113D01*
X061119Y005170D01*
X061062Y005170D01*
X061176Y005113D02*
X061232Y005170D01*
X061289Y005170D01*
X061346Y005113D01*
X061346Y004999D01*
X061289Y004943D01*
X061176Y004801D02*
X061176Y004574D01*
X061289Y004688D02*
X061062Y004688D01*
X062631Y004749D02*
X062687Y004693D01*
X062631Y004749D02*
X062631Y004863D01*
X062687Y004920D01*
X062801Y004920D01*
X062857Y004863D01*
X062857Y004806D01*
X062801Y004693D01*
X062971Y004693D01*
X062971Y004920D01*
X062971Y005061D02*
X062744Y005061D01*
X062631Y005174D01*
X062744Y005288D01*
X062971Y005288D01*
X061346Y005552D02*
X061346Y005665D01*
X061289Y005722D01*
X061176Y005665D02*
X061176Y005609D01*
X061289Y005495D02*
X061346Y005552D01*
X062801Y004551D02*
X062801Y004324D01*
X062914Y004438D02*
X062687Y004438D01*
X037571Y009074D02*
X037400Y009074D01*
X037344Y009131D01*
X037344Y009358D01*
X037400Y009415D01*
X037571Y009415D01*
X037571Y009074D01*
X037202Y009131D02*
X037146Y009074D01*
X037032Y009074D01*
X036975Y009188D02*
X037202Y009188D01*
X037202Y009131D02*
X037202Y009245D01*
X037146Y009301D01*
X037032Y009301D01*
X036975Y009245D01*
X036975Y009188D01*
X036834Y009245D02*
X036777Y009301D01*
X036607Y009301D01*
X036664Y009188D02*
X036777Y009188D01*
X036834Y009245D01*
X036664Y009188D02*
X036607Y009131D01*
X036664Y009074D01*
X036834Y009074D01*
X036466Y009074D02*
X036352Y009074D01*
X036409Y009074D02*
X036409Y009301D01*
X036466Y009301D01*
X036409Y009415D02*
X036409Y009471D01*
X036220Y009245D02*
X036220Y009131D01*
X036163Y009074D01*
X035993Y009074D01*
X035993Y009018D02*
X035993Y009301D01*
X036163Y009301D01*
X036220Y009245D01*
X035852Y009301D02*
X035682Y009301D01*
X035625Y009245D01*
X035625Y009074D01*
X035484Y009131D02*
X035427Y009074D01*
X035313Y009074D01*
X035257Y009188D02*
X035484Y009188D01*
X035484Y009131D02*
X035484Y009245D01*
X035427Y009301D01*
X035313Y009301D01*
X035257Y009245D01*
X035257Y009188D01*
X035115Y009131D02*
X035115Y009245D01*
X035058Y009301D01*
X034888Y009301D01*
X034888Y009415D02*
X034888Y009074D01*
X035058Y009074D01*
X035115Y009131D01*
X035852Y009074D02*
X035852Y009301D01*
X035993Y009018D02*
X036050Y008961D01*
X036107Y008961D01*
X034379Y009074D02*
X034379Y009415D01*
X034379Y009301D02*
X034208Y009301D01*
X034152Y009245D01*
X034152Y009131D01*
X034208Y009074D01*
X034379Y009074D01*
X034010Y009131D02*
X033954Y009074D01*
X033783Y009074D01*
X033783Y009018D02*
X033840Y008961D01*
X033897Y008961D01*
X033783Y009018D02*
X033783Y009301D01*
X034010Y009301D02*
X034010Y009131D01*
X033274Y009131D02*
X033217Y009074D01*
X033103Y009074D01*
X033047Y009131D01*
X032905Y009131D02*
X032849Y009074D01*
X032735Y009074D01*
X032678Y009131D01*
X032678Y009245D01*
X032735Y009301D01*
X032849Y009301D01*
X032905Y009245D01*
X032905Y009131D01*
X033047Y009358D02*
X033103Y009415D01*
X033217Y009415D01*
X033274Y009358D01*
X033274Y009131D01*
X032537Y009074D02*
X032424Y009074D01*
X032480Y009074D02*
X032480Y009415D01*
X032537Y009415D01*
X032291Y009301D02*
X032235Y009301D01*
X032235Y009074D01*
X032291Y009074D02*
X032178Y009074D01*
X032046Y009074D02*
X032046Y009301D01*
X031876Y009301D01*
X031819Y009245D01*
X031819Y009074D01*
X031309Y009131D02*
X031253Y009074D01*
X031139Y009074D01*
X031082Y009131D01*
X031082Y009358D01*
X031139Y009415D01*
X031253Y009415D01*
X031309Y009358D01*
X031309Y009131D01*
X030941Y009301D02*
X030884Y009358D01*
X030884Y009471D01*
X030757Y009415D02*
X030530Y009415D01*
X030388Y009415D02*
X030332Y009415D01*
X030332Y009074D01*
X030388Y009074D02*
X030275Y009074D01*
X030143Y009131D02*
X030086Y009074D01*
X029916Y009074D01*
X029916Y009018D02*
X029973Y008961D01*
X030030Y008961D01*
X029916Y009018D02*
X029916Y009301D01*
X029775Y009301D02*
X029604Y009301D01*
X029548Y009245D01*
X029548Y009074D01*
X029406Y009074D02*
X029406Y009301D01*
X029236Y009301D01*
X029179Y009245D01*
X029179Y009074D01*
X029775Y009074D02*
X029775Y009301D01*
X030143Y009301D02*
X030143Y009131D01*
X030643Y009245D02*
X030757Y009245D01*
X030757Y009415D02*
X030757Y009074D01*
X032235Y009415D02*
X032235Y009471D01*
X032107Y009711D02*
X032107Y010051D01*
X031937Y010051D01*
X031880Y009995D01*
X031880Y009881D01*
X031937Y009824D01*
X032107Y009824D01*
X032249Y009881D02*
X032305Y009824D01*
X032476Y009824D01*
X032419Y009938D02*
X032476Y009995D01*
X032419Y010051D01*
X032249Y010051D01*
X032305Y009938D02*
X032419Y009938D01*
X032305Y009938D02*
X032249Y009881D01*
X032608Y009824D02*
X032721Y009824D01*
X032664Y009824D02*
X032664Y010051D01*
X032721Y010051D01*
X032664Y010165D02*
X032664Y010221D01*
X032863Y009995D02*
X032919Y010051D01*
X033033Y010051D01*
X033089Y009995D01*
X033089Y010165D02*
X033089Y009824D01*
X033231Y009824D02*
X033344Y009938D01*
X033458Y009824D01*
X033458Y010165D01*
X033599Y009995D02*
X033656Y010051D01*
X033826Y010051D01*
X033826Y009711D01*
X033826Y009824D02*
X033656Y009824D01*
X033599Y009881D01*
X033599Y009995D01*
X033958Y009824D02*
X034072Y009824D01*
X034015Y009824D02*
X034015Y010051D01*
X034072Y010051D01*
X034015Y010165D02*
X034015Y010221D01*
X034213Y009995D02*
X034270Y010051D01*
X034383Y010051D01*
X034440Y009995D01*
X034440Y010165D02*
X034440Y009824D01*
X034581Y009881D02*
X034638Y009824D01*
X034752Y009824D01*
X034808Y009881D01*
X034808Y010108D01*
X034752Y010165D01*
X034638Y010165D01*
X034581Y010108D01*
X034213Y009995D02*
X034213Y009824D01*
X034936Y009824D02*
X034936Y009881D01*
X034992Y009881D01*
X034992Y009824D01*
X034936Y009824D01*
X035134Y009881D02*
X035134Y010051D01*
X035134Y009881D02*
X035191Y009824D01*
X035247Y009881D01*
X035304Y009824D01*
X035361Y009881D01*
X035361Y010051D01*
X035502Y010051D02*
X035502Y009881D01*
X035559Y009824D01*
X035616Y009881D01*
X035672Y009824D01*
X035729Y009881D01*
X035729Y010051D01*
X035871Y010051D02*
X035871Y009881D01*
X035927Y009824D01*
X035984Y009881D01*
X036041Y009824D01*
X036097Y009881D01*
X036097Y010051D01*
X036607Y009995D02*
X036607Y009938D01*
X036834Y009938D01*
X036834Y009995D02*
X036777Y010051D01*
X036664Y010051D01*
X036607Y009995D01*
X036664Y009824D02*
X036777Y009824D01*
X036834Y009881D01*
X036834Y009995D01*
X036975Y009995D02*
X037032Y010051D01*
X037146Y010051D01*
X037202Y009995D01*
X037202Y009881D01*
X037146Y009824D01*
X037032Y009824D01*
X036975Y009938D02*
X037202Y009938D01*
X037344Y009938D02*
X037344Y009881D01*
X037400Y009824D01*
X037514Y009824D01*
X037571Y009881D01*
X037514Y009995D02*
X037400Y009995D01*
X037344Y009938D01*
X037344Y010108D02*
X037400Y010165D01*
X037514Y010165D01*
X037571Y010108D01*
X037571Y010051D01*
X037514Y009995D01*
X036975Y009995D02*
X036975Y009938D01*
X036588Y010461D02*
X036588Y010801D01*
X036418Y010801D01*
X036362Y010745D01*
X036362Y010631D01*
X036418Y010574D01*
X036588Y010574D01*
X036721Y010574D02*
X036834Y010574D01*
X036777Y010574D02*
X036777Y010801D01*
X036834Y010801D01*
X036777Y010915D02*
X036777Y010971D01*
X036975Y010745D02*
X037032Y010801D01*
X037146Y010801D01*
X037202Y010745D01*
X037202Y010915D02*
X037202Y010574D01*
X037344Y010631D02*
X037400Y010574D01*
X037514Y010574D01*
X037571Y010631D01*
X037571Y010858D01*
X037514Y010915D01*
X037400Y010915D01*
X037344Y010858D01*
X036975Y010745D02*
X036975Y010574D01*
X036220Y010574D02*
X036220Y010915D01*
X035993Y010915D02*
X035993Y010574D01*
X036107Y010688D01*
X036220Y010574D01*
X035852Y010574D02*
X035852Y010915D01*
X035795Y010801D02*
X035682Y010801D01*
X035625Y010745D01*
X035625Y010574D01*
X035484Y010574D02*
X035370Y010574D01*
X035427Y010574D02*
X035427Y010801D01*
X035484Y010801D01*
X035427Y010915D02*
X035427Y010971D01*
X035238Y010745D02*
X035181Y010801D01*
X035011Y010801D01*
X035068Y010688D02*
X035011Y010631D01*
X035068Y010574D01*
X035238Y010574D01*
X035181Y010688D02*
X035238Y010745D01*
X035181Y010688D02*
X035068Y010688D01*
X034870Y010801D02*
X034700Y010801D01*
X034643Y010745D01*
X034643Y010631D01*
X034700Y010574D01*
X034870Y010574D01*
X034870Y010461D02*
X034870Y010801D01*
X034501Y010745D02*
X034445Y010801D01*
X034331Y010801D01*
X034274Y010745D01*
X034274Y010688D01*
X034501Y010688D01*
X034501Y010631D02*
X034501Y010745D01*
X034501Y010631D02*
X034445Y010574D01*
X034331Y010574D01*
X034133Y010574D02*
X034133Y010801D01*
X034133Y010688D02*
X034020Y010801D01*
X033963Y010801D01*
X033826Y010745D02*
X033769Y010801D01*
X033656Y010801D01*
X033599Y010745D01*
X033599Y010688D01*
X033826Y010688D01*
X033826Y010631D02*
X033826Y010745D01*
X033826Y010631D02*
X033769Y010574D01*
X033656Y010574D01*
X033458Y010574D02*
X033458Y010801D01*
X033458Y010688D02*
X033344Y010801D01*
X033288Y010801D01*
X032783Y010858D02*
X032783Y010631D01*
X032726Y010574D01*
X032612Y010574D01*
X032556Y010631D01*
X032414Y010574D02*
X032301Y010574D01*
X032358Y010574D02*
X032358Y010915D01*
X032414Y010915D01*
X032556Y010858D02*
X032612Y010915D01*
X032726Y010915D01*
X032783Y010858D01*
X032169Y010745D02*
X032169Y010631D01*
X032112Y010574D01*
X031999Y010574D01*
X031942Y010631D01*
X031942Y010745D01*
X031999Y010801D01*
X032112Y010801D01*
X032169Y010745D01*
X031800Y010745D02*
X031744Y010801D01*
X031574Y010801D01*
X031432Y010688D02*
X031262Y010801D01*
X031432Y010688D02*
X031262Y010574D01*
X031432Y010574D02*
X031432Y010915D01*
X031800Y010745D02*
X031800Y010631D01*
X031744Y010574D01*
X031574Y010574D01*
X030757Y010574D02*
X030757Y010915D01*
X030587Y010915D01*
X030530Y010858D01*
X030530Y010745D01*
X030587Y010688D01*
X030757Y010688D01*
X030643Y010688D02*
X030530Y010574D01*
X030389Y010631D02*
X030332Y010574D01*
X030218Y010574D01*
X030162Y010688D02*
X030389Y010688D01*
X030389Y010745D02*
X030332Y010801D01*
X030218Y010801D01*
X030162Y010745D01*
X030162Y010688D01*
X030020Y010745D02*
X030020Y010631D01*
X029963Y010574D01*
X029793Y010574D01*
X029652Y010631D02*
X029595Y010574D01*
X029482Y010574D01*
X029425Y010631D01*
X029425Y010745D01*
X029482Y010801D01*
X029595Y010801D01*
X029652Y010745D01*
X029652Y010631D01*
X029793Y010801D02*
X029963Y010801D01*
X030020Y010745D01*
X030389Y010745D02*
X030389Y010631D01*
X029284Y010801D02*
X029170Y010574D01*
X029057Y010801D01*
X028915Y010745D02*
X028859Y010801D01*
X028745Y010801D01*
X028688Y010745D01*
X028688Y010688D01*
X028915Y010688D01*
X028915Y010631D02*
X028915Y010745D01*
X028915Y010631D02*
X028859Y010574D01*
X028745Y010574D01*
X028547Y010574D02*
X028547Y010801D01*
X028547Y010688D02*
X028433Y010801D01*
X028377Y010801D01*
X028240Y010801D02*
X028240Y010631D01*
X028183Y010574D01*
X028013Y010574D01*
X028013Y010518D02*
X028070Y010461D01*
X028127Y010461D01*
X028013Y010518D02*
X028013Y010801D01*
X027503Y010745D02*
X027333Y010745D01*
X027277Y010688D01*
X027277Y010631D01*
X027333Y010574D01*
X027503Y010574D01*
X027503Y010915D01*
X027333Y010915D01*
X027277Y010858D01*
X027277Y010801D01*
X027333Y010745D01*
X027135Y010745D02*
X027135Y010631D01*
X027078Y010574D01*
X026965Y010574D01*
X026908Y010631D01*
X026908Y010745D01*
X026965Y010801D01*
X027078Y010801D01*
X027135Y010745D01*
X026767Y010631D02*
X026710Y010688D01*
X026540Y010688D01*
X026540Y010745D02*
X026540Y010574D01*
X026710Y010574D01*
X026767Y010631D01*
X026710Y010801D02*
X026597Y010801D01*
X026540Y010745D01*
X026398Y010801D02*
X026398Y010574D01*
X026398Y010688D02*
X026285Y010801D01*
X026228Y010801D01*
X026092Y010745D02*
X026035Y010801D01*
X025865Y010801D01*
X025865Y010915D02*
X025865Y010574D01*
X026035Y010574D01*
X026092Y010631D01*
X026092Y010745D01*
X029241Y009995D02*
X029241Y009824D01*
X029354Y009824D02*
X029354Y009995D01*
X029298Y010051D01*
X029241Y009995D01*
X029354Y009995D02*
X029411Y010051D01*
X029468Y010051D01*
X029468Y009824D01*
X029609Y009881D02*
X029666Y009824D01*
X029779Y009824D01*
X029836Y009881D01*
X029836Y009995D01*
X029779Y010051D01*
X029666Y010051D01*
X029609Y009995D01*
X029609Y009881D01*
X029977Y009824D02*
X030148Y009824D01*
X030204Y009881D01*
X030204Y009995D01*
X030148Y010051D01*
X029977Y010051D01*
X030332Y009881D02*
X030332Y009824D01*
X030389Y009824D01*
X030389Y009881D01*
X030332Y009881D01*
X030525Y010051D02*
X030582Y010051D01*
X030695Y009938D01*
X030695Y010051D02*
X030695Y009824D01*
X030837Y009938D02*
X031064Y009938D01*
X031064Y009995D02*
X031007Y010051D01*
X030894Y010051D01*
X030837Y009995D01*
X030837Y009938D01*
X030894Y009824D02*
X031007Y009824D01*
X031064Y009881D01*
X031064Y009995D01*
X031201Y010051D02*
X031257Y010051D01*
X031371Y009938D01*
X031371Y010051D02*
X031371Y009824D01*
X031512Y009938D02*
X031739Y009938D01*
X031739Y009995D02*
X031682Y010051D01*
X031569Y010051D01*
X031512Y009995D01*
X031512Y009938D01*
X031569Y009824D02*
X031682Y009824D01*
X031739Y009881D01*
X031739Y009995D01*
X032863Y009995D02*
X032863Y009824D01*
X033231Y009824D02*
X033231Y010165D01*
X035795Y010801D02*
X035852Y010745D01*
D13*
X012161Y007985D02*
X012161Y007704D01*
X012091Y007634D01*
X011950Y007634D01*
X011880Y007704D01*
X011700Y007704D02*
X011630Y007634D01*
X011490Y007634D01*
X011420Y007704D01*
X011420Y007775D01*
X011490Y007845D01*
X011560Y007845D01*
X011490Y007845D02*
X011420Y007915D01*
X011420Y007985D01*
X011490Y008055D01*
X011630Y008055D01*
X011700Y007985D01*
X011880Y007985D02*
X011950Y008055D01*
X012091Y008055D01*
X012161Y007985D01*
X011240Y007845D02*
X010960Y007845D01*
X011030Y008055D02*
X011240Y007845D01*
X011030Y008055D02*
X011030Y007634D01*
M02*
