G75*
%MOIN*%
%OFA0B0*%
%FSLAX24Y24*%
%IPPOS*%
%LPD*%
%AMOC8*
5,1,8,0,0,1.08239X$1,22.5*
%
%ADD10C,0.0000*%
%ADD11OC8,0.0600*%
%ADD12C,0.0515*%
%ADD13R,0.0433X0.0394*%
%ADD14R,0.1650X0.1050*%
%ADD15R,0.0900X0.2000*%
%ADD16C,0.0357*%
%ADD17C,0.0320*%
%ADD18C,0.0240*%
%ADD19C,0.0436*%
%ADD20C,0.0400*%
D10*
X003851Y002794D02*
X003851Y011539D01*
X063593Y011539D01*
X063593Y002794D01*
X003851Y002794D01*
X003851Y005094D02*
X003851Y009494D01*
X016901Y011544D02*
X021301Y011544D01*
X041901Y011544D02*
X046301Y011544D01*
D11*
X040351Y008294D03*
X039351Y008294D03*
X039351Y007294D03*
X040351Y007294D03*
X040351Y006294D03*
X039351Y006294D03*
X043851Y005294D03*
X048101Y005544D03*
X058101Y004544D03*
X061851Y003794D03*
X061851Y005794D03*
X062851Y005794D03*
X062851Y006794D03*
X061851Y006794D03*
X061851Y007794D03*
X062851Y007794D03*
X062851Y008794D03*
X061851Y008794D03*
X062351Y010294D03*
X023851Y008294D03*
X022851Y008294D03*
X022851Y007294D03*
X023851Y007294D03*
X023851Y006294D03*
X022851Y006294D03*
X015851Y006794D03*
X014851Y006794D03*
X014851Y007794D03*
X015851Y007794D03*
X007851Y007794D03*
X006851Y007794D03*
X006851Y006794D03*
X007851Y006794D03*
X007351Y010294D03*
D12*
X049351Y003797D03*
X051351Y003797D03*
X050351Y004919D03*
D13*
X012185Y007294D03*
X011516Y007294D03*
D14*
X004683Y005919D03*
X004683Y008670D03*
D15*
X017361Y010534D03*
X020841Y010534D03*
X042361Y010534D03*
X045841Y010534D03*
D16*
X047976Y009419D03*
X049851Y010044D03*
X050851Y010044D03*
X051851Y010544D03*
X052601Y010544D03*
X055601Y009294D03*
X053601Y008794D03*
X052476Y008419D03*
X054101Y007794D03*
X055101Y007919D03*
X055976Y008544D03*
X056726Y008669D03*
X058476Y008419D03*
X060351Y008419D03*
X060851Y009544D03*
X062976Y009669D03*
X062976Y010919D03*
X061476Y010919D03*
X048476Y007169D03*
X051976Y006919D03*
X051976Y006169D03*
X054351Y005544D03*
X055101Y005544D03*
X056726Y005919D03*
X058601Y006044D03*
X060226Y006169D03*
X062851Y004794D03*
X060976Y004544D03*
X059476Y004044D03*
X062851Y003794D03*
X055226Y004544D03*
X052851Y004044D03*
X051976Y003919D03*
X053851Y003794D03*
X054351Y003794D03*
X051976Y004919D03*
X048851Y004794D03*
X046351Y004294D03*
X044351Y004294D03*
X042351Y004294D03*
X039101Y004794D03*
X039851Y005669D03*
X038226Y006294D03*
X037351Y006294D03*
X035351Y006294D03*
X034101Y006294D03*
X032851Y006294D03*
X030851Y006294D03*
X029601Y006294D03*
X028351Y006294D03*
X026351Y006294D03*
X023351Y005294D03*
X021351Y005294D03*
X019351Y005294D03*
X017351Y005294D03*
X015351Y005294D03*
X013351Y005294D03*
X011351Y005294D03*
X009351Y005294D03*
X011351Y007044D03*
X012851Y007294D03*
X009351Y007294D03*
X009351Y009294D03*
X010351Y009294D03*
X012351Y009294D03*
X013351Y009294D03*
X015351Y009294D03*
X017351Y009294D03*
X021351Y009294D03*
X023351Y009294D03*
X026351Y008794D03*
X028351Y008794D03*
X029601Y008794D03*
X030851Y008794D03*
X032851Y008794D03*
X034101Y008794D03*
X035351Y008794D03*
X037351Y008794D03*
X039851Y009044D03*
X042351Y008294D03*
X046351Y008294D03*
X038226Y008044D03*
X042351Y006294D03*
X044351Y006294D03*
X046351Y006294D03*
X037351Y003794D03*
X035351Y003794D03*
X034101Y003794D03*
X032851Y003794D03*
X030851Y003794D03*
X029601Y003794D03*
X028351Y003794D03*
X026351Y003794D03*
X023351Y010294D03*
X025851Y010419D03*
D17*
X021551Y010469D02*
X021551Y009509D01*
X021541Y009459D01*
X021521Y009411D01*
X021493Y009369D01*
X021456Y009332D01*
X021414Y009304D01*
X021366Y009284D01*
X021316Y009274D01*
X020906Y009274D01*
X020906Y010469D01*
X020776Y010469D01*
X020776Y009274D01*
X020365Y009274D01*
X020315Y009284D01*
X020267Y009304D01*
X020225Y009332D01*
X020189Y009369D01*
X020160Y009411D01*
X020141Y009459D01*
X020131Y009509D01*
X020131Y010469D01*
X020776Y010469D01*
X020776Y010599D01*
X020131Y010599D01*
X020131Y011329D01*
X018071Y011329D01*
X018071Y010599D01*
X017426Y010599D01*
X017426Y010469D01*
X018071Y010469D01*
X018071Y009509D01*
X018061Y009459D01*
X018041Y009411D01*
X018013Y009369D01*
X017976Y009332D01*
X017934Y009304D01*
X017886Y009284D01*
X017836Y009274D01*
X017426Y009274D01*
X017426Y010469D01*
X017296Y010469D01*
X017296Y009274D01*
X016885Y009274D01*
X016835Y009284D01*
X016787Y009304D01*
X016745Y009332D01*
X016709Y009369D01*
X016680Y009411D01*
X016661Y009459D01*
X016651Y009509D01*
X016651Y010469D01*
X017296Y010469D01*
X017296Y010599D01*
X016651Y010599D01*
X016651Y011329D01*
X004061Y011329D01*
X004061Y009455D01*
X004581Y009455D01*
X004581Y008773D01*
X004786Y008773D01*
X004786Y009455D01*
X005534Y009455D01*
X005584Y009445D01*
X005632Y009426D01*
X005674Y009397D01*
X005710Y009361D01*
X005739Y009318D01*
X005758Y009271D01*
X005768Y009221D01*
X005768Y008773D01*
X004786Y008773D01*
X004786Y008568D01*
X005768Y008568D01*
X005768Y008120D01*
X005758Y008069D01*
X005739Y008022D01*
X005710Y007979D01*
X005674Y007943D01*
X005632Y007915D01*
X005584Y007895D01*
X005534Y007885D01*
X004786Y007885D01*
X004786Y008568D01*
X004581Y008568D01*
X004581Y007885D01*
X004061Y007885D01*
X004061Y006704D01*
X004581Y006704D01*
X004581Y006021D01*
X004786Y006021D01*
X005768Y006021D01*
X005768Y006469D01*
X005758Y006519D01*
X005739Y006567D01*
X005710Y006609D01*
X005674Y006646D01*
X005632Y006674D01*
X005584Y006694D01*
X005534Y006704D01*
X004786Y006704D01*
X004786Y006021D01*
X004786Y005816D01*
X004786Y005134D01*
X005534Y005134D01*
X005584Y005144D01*
X005632Y005163D01*
X005674Y005192D01*
X005710Y005228D01*
X005739Y005270D01*
X005758Y005318D01*
X005768Y005368D01*
X005768Y005816D01*
X004786Y005816D01*
X004581Y005816D01*
X004581Y005134D01*
X004061Y005134D01*
X004061Y003004D01*
X011993Y003004D01*
X011963Y003035D01*
X011893Y003203D01*
X011893Y003385D01*
X011911Y003428D01*
X011911Y005862D01*
X010978Y006795D01*
X010911Y006957D01*
X010911Y007132D01*
X010978Y007294D01*
X010992Y007308D01*
X011012Y007356D01*
X011059Y007404D01*
X008224Y007404D01*
X008114Y007294D02*
X008391Y007571D01*
X008391Y008018D01*
X008074Y008334D01*
X007627Y008334D01*
X007351Y008058D01*
X007074Y008334D01*
X006627Y008334D01*
X006311Y008018D01*
X006311Y007571D01*
X006587Y007294D01*
X006311Y007018D01*
X006311Y006571D01*
X006627Y006254D01*
X007074Y006254D01*
X007351Y006531D01*
X007627Y006254D01*
X008074Y006254D01*
X008391Y006571D01*
X008391Y007018D01*
X008114Y007294D01*
X008323Y007086D02*
X010911Y007086D01*
X011351Y007044D02*
X011351Y007129D01*
X011516Y007294D01*
X011059Y007404D02*
X011059Y007539D01*
X011096Y007627D01*
X011163Y007695D01*
X011252Y007731D01*
X011780Y007731D01*
X011829Y007711D01*
X011846Y007722D01*
X011893Y007741D01*
X011943Y007751D01*
X012185Y007751D01*
X012185Y007294D01*
X012185Y007294D01*
X012185Y006838D01*
X012180Y006838D01*
X012724Y006294D01*
X012791Y006132D01*
X012791Y003428D01*
X012808Y003385D01*
X012808Y003203D01*
X012739Y003035D01*
X012708Y003004D01*
X063351Y003004D01*
X063351Y005531D01*
X063074Y005254D01*
X062627Y005254D01*
X062351Y005531D01*
X062074Y005254D01*
X061627Y005254D01*
X061311Y005571D01*
X061311Y006018D01*
X061587Y006294D01*
X061311Y006571D01*
X061311Y007018D01*
X061587Y007294D01*
X061311Y007571D01*
X061311Y008018D01*
X061587Y008294D01*
X061311Y008571D01*
X061311Y009018D01*
X061627Y009334D01*
X062074Y009334D01*
X062351Y009058D01*
X062627Y009334D01*
X063074Y009334D01*
X063351Y009058D01*
X063351Y011329D01*
X046551Y011329D01*
X046551Y010599D01*
X045906Y010599D01*
X045906Y010469D01*
X046551Y010469D01*
X046551Y009509D01*
X046541Y009459D01*
X046521Y009411D01*
X046493Y009369D01*
X046456Y009332D01*
X046414Y009304D01*
X046366Y009284D01*
X046316Y009274D01*
X045906Y009274D01*
X045906Y010469D01*
X045776Y010469D01*
X045776Y009274D01*
X045365Y009274D01*
X045315Y009284D01*
X045267Y009304D01*
X045225Y009332D01*
X045189Y009369D01*
X045160Y009411D01*
X045141Y009459D01*
X045131Y009509D01*
X045131Y010469D01*
X045776Y010469D01*
X045776Y010599D01*
X045131Y010599D01*
X045131Y011329D01*
X043071Y011329D01*
X043071Y010599D01*
X042426Y010599D01*
X042426Y010469D01*
X043071Y010469D01*
X043071Y009509D01*
X043061Y009459D01*
X043041Y009411D01*
X043013Y009369D01*
X042976Y009332D01*
X042934Y009304D01*
X042886Y009284D01*
X042836Y009274D01*
X042426Y009274D01*
X042426Y010469D01*
X042296Y010469D01*
X042296Y009274D01*
X041885Y009274D01*
X041835Y009284D01*
X041787Y009304D01*
X041745Y009332D01*
X041709Y009369D01*
X041680Y009411D01*
X041661Y009459D01*
X041651Y009509D01*
X041651Y010469D01*
X042296Y010469D01*
X042296Y010599D01*
X041651Y010599D01*
X041651Y011329D01*
X021551Y011329D01*
X021551Y010599D01*
X020906Y010599D01*
X020906Y010469D01*
X021551Y010469D01*
X020906Y010589D02*
X042296Y010589D01*
X042426Y010589D02*
X045776Y010589D01*
X045906Y010589D02*
X061882Y010589D01*
X061811Y010518D02*
X061811Y010071D01*
X062127Y009754D01*
X062574Y009754D01*
X062891Y010071D01*
X062891Y010518D01*
X062574Y010834D01*
X062127Y010834D01*
X061811Y010518D01*
X062819Y010589D02*
X063351Y010589D01*
X063351Y010271D02*
X062891Y010271D01*
X061811Y010271D02*
X046551Y010271D01*
X045906Y010271D02*
X045776Y010271D01*
X045131Y010271D02*
X043071Y010271D01*
X042426Y010271D02*
X042296Y010271D01*
X041651Y010271D02*
X021551Y010271D01*
X020906Y010271D02*
X020776Y010271D01*
X020131Y010271D02*
X018071Y010271D01*
X017426Y010271D02*
X017296Y010271D01*
X016651Y010271D02*
X007911Y010271D01*
X007911Y010294D02*
X007351Y010294D01*
X007351Y010294D01*
X007351Y009734D01*
X007583Y009734D01*
X007911Y010062D01*
X007911Y010294D01*
X007911Y010526D01*
X007583Y010854D01*
X007351Y010854D01*
X007351Y010294D01*
X007351Y010294D01*
X007911Y010294D01*
X007351Y010294D02*
X007351Y010294D01*
X007351Y009734D01*
X007119Y009734D01*
X006791Y010062D01*
X006791Y010294D01*
X007351Y010294D01*
X007351Y010294D01*
X006791Y010294D01*
X006791Y010526D01*
X007119Y010854D01*
X007351Y010854D01*
X007351Y010294D01*
X007351Y010271D02*
X007351Y010271D01*
X006791Y010271D02*
X004061Y010271D01*
X004061Y010589D02*
X006854Y010589D01*
X007351Y010589D02*
X007351Y010589D01*
X007848Y010589D02*
X017296Y010589D01*
X017426Y010589D02*
X020776Y010589D01*
X020131Y010908D02*
X018071Y010908D01*
X018071Y011226D02*
X020131Y011226D01*
X021551Y011226D02*
X041651Y011226D01*
X041651Y010908D02*
X021551Y010908D01*
X021551Y009952D02*
X041651Y009952D01*
X042296Y009952D02*
X042426Y009952D01*
X043071Y009952D02*
X045131Y009952D01*
X045776Y009952D02*
X045906Y009952D01*
X046551Y009952D02*
X061929Y009952D01*
X062772Y009952D02*
X063351Y009952D01*
X063351Y009634D02*
X046551Y009634D01*
X045906Y009634D02*
X045776Y009634D01*
X045131Y009634D02*
X043071Y009634D01*
X042426Y009634D02*
X042296Y009634D01*
X041651Y009634D02*
X021551Y009634D01*
X020906Y009634D02*
X020776Y009634D01*
X020131Y009634D02*
X018071Y009634D01*
X017426Y009634D02*
X017296Y009634D01*
X016651Y009634D02*
X004061Y009634D01*
X004061Y009952D02*
X006901Y009952D01*
X007351Y009952D02*
X007351Y009952D01*
X007801Y009952D02*
X016651Y009952D01*
X017296Y009952D02*
X017426Y009952D01*
X018071Y009952D02*
X020131Y009952D01*
X020776Y009952D02*
X020906Y009952D01*
X020906Y009315D02*
X020776Y009315D01*
X020250Y009315D02*
X017951Y009315D01*
X017426Y009315D02*
X017296Y009315D01*
X016770Y009315D02*
X005740Y009315D01*
X005768Y008997D02*
X061311Y008997D01*
X061311Y008678D02*
X040730Y008678D01*
X040574Y008834D02*
X040127Y008834D01*
X039851Y008558D01*
X039574Y008834D01*
X039127Y008834D01*
X038811Y008518D01*
X038811Y008071D01*
X039087Y007794D01*
X038811Y007518D01*
X038811Y007071D01*
X039087Y006794D01*
X038811Y006518D01*
X038811Y006071D01*
X039127Y005754D01*
X039574Y005754D01*
X039851Y006031D01*
X040127Y005754D01*
X040574Y005754D01*
X040891Y006071D01*
X040891Y006518D01*
X040614Y006794D01*
X040891Y007071D01*
X040891Y007518D01*
X040614Y007794D01*
X040891Y008071D01*
X040891Y008518D01*
X040574Y008834D01*
X039971Y008678D02*
X039730Y008678D01*
X038971Y008678D02*
X024230Y008678D01*
X024074Y008834D02*
X023627Y008834D01*
X023351Y008558D01*
X023074Y008834D01*
X022627Y008834D01*
X022311Y008518D01*
X022311Y008071D01*
X022587Y007794D01*
X022311Y007518D01*
X022311Y007071D01*
X022587Y006794D01*
X022311Y006518D01*
X022311Y006071D01*
X022627Y005754D01*
X023074Y005754D01*
X023351Y006031D01*
X023627Y005754D01*
X024074Y005754D01*
X024391Y006071D01*
X024391Y006518D01*
X024114Y006794D01*
X024391Y007071D01*
X024391Y007518D01*
X024114Y007794D01*
X024391Y008071D01*
X024391Y008518D01*
X024074Y008834D01*
X023471Y008678D02*
X023230Y008678D01*
X022471Y008678D02*
X004786Y008678D01*
X004786Y008360D02*
X004581Y008360D01*
X004581Y008041D02*
X004786Y008041D01*
X004061Y007723D02*
X006311Y007723D01*
X006334Y008041D02*
X005747Y008041D01*
X005768Y008360D02*
X022311Y008360D01*
X022340Y008041D02*
X016367Y008041D01*
X016391Y008018D02*
X016074Y008334D01*
X015627Y008334D01*
X015351Y008058D01*
X015074Y008334D01*
X014627Y008334D01*
X014311Y008018D01*
X014311Y007571D01*
X014587Y007294D01*
X014311Y007018D01*
X014311Y006571D01*
X014627Y006254D01*
X015074Y006254D01*
X015351Y006531D01*
X015627Y006254D01*
X016074Y006254D01*
X016391Y006571D01*
X016391Y007018D01*
X016114Y007294D01*
X016391Y007571D01*
X016391Y008018D01*
X016391Y007723D02*
X022515Y007723D01*
X022311Y007404D02*
X016224Y007404D01*
X016323Y007086D02*
X022311Y007086D01*
X022560Y006767D02*
X016391Y006767D01*
X016269Y006449D02*
X022311Y006449D01*
X022311Y006130D02*
X012791Y006130D01*
X012791Y005812D02*
X022569Y005812D01*
X023132Y005812D02*
X023569Y005812D01*
X024132Y005812D02*
X039069Y005812D01*
X039632Y005812D02*
X040069Y005812D01*
X040632Y005812D02*
X043576Y005812D01*
X043619Y005854D02*
X043291Y005526D01*
X043291Y005294D01*
X043291Y005062D01*
X043619Y004734D01*
X043851Y004734D01*
X044083Y004734D01*
X044411Y005062D01*
X044411Y005294D01*
X043851Y005294D01*
X043851Y005294D01*
X043851Y004734D01*
X043851Y005294D01*
X043851Y005294D01*
X044411Y005294D01*
X044411Y005526D01*
X044083Y005854D01*
X043851Y005854D01*
X043851Y005294D01*
X043291Y005294D01*
X043851Y005294D01*
X043851Y005294D01*
X043851Y005294D01*
X043851Y005854D01*
X043619Y005854D01*
X043851Y005812D02*
X043851Y005812D01*
X044125Y005812D02*
X047604Y005812D01*
X047561Y005768D02*
X047561Y005321D01*
X047877Y005004D01*
X048324Y005004D01*
X048641Y005321D01*
X048641Y005768D01*
X048324Y006084D01*
X047877Y006084D01*
X047561Y005768D01*
X047561Y005493D02*
X044411Y005493D01*
X043851Y005493D02*
X043851Y005493D01*
X043291Y005493D02*
X012791Y005493D01*
X012791Y005175D02*
X043291Y005175D01*
X043851Y005175D02*
X043851Y005175D01*
X044411Y005175D02*
X047706Y005175D01*
X048495Y005175D02*
X049918Y005175D01*
X049929Y005201D02*
X049853Y005018D01*
X049853Y004820D01*
X049929Y004638D01*
X050069Y004498D01*
X050252Y004422D01*
X050450Y004422D01*
X050632Y004498D01*
X050772Y004638D01*
X050848Y004820D01*
X050848Y005018D01*
X050772Y005201D01*
X050632Y005341D01*
X050450Y005417D01*
X050252Y005417D01*
X050069Y005341D01*
X049929Y005201D01*
X050783Y005175D02*
X063351Y005175D01*
X063351Y005493D02*
X063313Y005493D01*
X062388Y005493D02*
X062313Y005493D01*
X061388Y005493D02*
X048641Y005493D01*
X048597Y005812D02*
X061311Y005812D01*
X061423Y006130D02*
X040891Y006130D01*
X040891Y006449D02*
X061432Y006449D01*
X061311Y006767D02*
X040641Y006767D01*
X039060Y006767D02*
X024141Y006767D01*
X024391Y006449D02*
X038811Y006449D01*
X038811Y006130D02*
X024391Y006130D01*
X024391Y007086D02*
X038811Y007086D01*
X038811Y007404D02*
X024391Y007404D01*
X024186Y007723D02*
X039015Y007723D01*
X038840Y008041D02*
X024361Y008041D01*
X024391Y008360D02*
X038811Y008360D01*
X040686Y007723D02*
X061311Y007723D01*
X061334Y008041D02*
X040861Y008041D01*
X040891Y008360D02*
X061521Y008360D01*
X063128Y008309D02*
X063351Y008086D01*
X063351Y008531D01*
X063128Y008309D01*
X063180Y008360D02*
X063351Y008360D01*
X062851Y007794D02*
X062851Y006794D01*
X062851Y006794D01*
X063351Y006794D01*
X063351Y006794D01*
X062851Y006794D01*
X062851Y006794D01*
X062851Y007354D01*
X062851Y007794D01*
X062851Y007794D01*
X062851Y007723D02*
X062851Y007723D01*
X062851Y007404D02*
X062851Y007404D01*
X062851Y007086D02*
X062851Y007086D01*
X061477Y007404D02*
X040891Y007404D01*
X040891Y007086D02*
X061378Y007086D01*
X058661Y004776D02*
X058333Y005104D01*
X058101Y005104D01*
X058101Y004544D01*
X058101Y004544D01*
X058661Y004544D01*
X058661Y004312D01*
X058333Y003984D01*
X058101Y003984D01*
X058101Y004544D01*
X058101Y004544D01*
X058661Y004544D01*
X058661Y004776D01*
X058581Y004856D02*
X063351Y004856D01*
X063351Y004538D02*
X058661Y004538D01*
X058101Y004538D02*
X058101Y004538D01*
X058101Y004544D02*
X058101Y003984D01*
X057869Y003984D01*
X057541Y004312D01*
X057541Y004544D01*
X058101Y004544D01*
X058101Y004544D01*
X058101Y004544D01*
X057541Y004544D01*
X057541Y004776D01*
X057869Y005104D01*
X058101Y005104D01*
X058101Y004544D01*
X057541Y004538D02*
X050673Y004538D01*
X051229Y004302D02*
X051310Y004315D01*
X051351Y004315D01*
X051391Y004315D01*
X051472Y004302D01*
X051549Y004277D01*
X051622Y004240D01*
X051688Y004192D01*
X051745Y004134D01*
X051793Y004069D01*
X051830Y003996D01*
X051855Y003919D01*
X051868Y003838D01*
X051868Y003797D01*
X051351Y003797D01*
X051351Y003797D01*
X051351Y003280D01*
X051391Y003280D01*
X051472Y003293D01*
X051549Y003318D01*
X051622Y003355D01*
X051688Y003403D01*
X051745Y003460D01*
X051793Y003526D01*
X051830Y003599D01*
X051855Y003676D01*
X051868Y003757D01*
X051868Y003797D01*
X051351Y003797D01*
X051351Y003797D01*
X051351Y003280D01*
X051310Y003280D01*
X051229Y003293D01*
X051152Y003318D01*
X051079Y003355D01*
X051014Y003403D01*
X050956Y003460D01*
X050908Y003526D01*
X050871Y003599D01*
X050846Y003676D01*
X050833Y003757D01*
X050833Y003797D01*
X051351Y003797D01*
X051351Y003797D01*
X051351Y004315D01*
X051351Y003797D01*
X051351Y003797D01*
X050833Y003797D01*
X050833Y003838D01*
X050846Y003919D01*
X050871Y003996D01*
X050908Y004069D01*
X050956Y004134D01*
X051014Y004192D01*
X051079Y004240D01*
X051152Y004277D01*
X051229Y004302D01*
X051351Y004219D02*
X051351Y004219D01*
X051650Y004219D02*
X057634Y004219D01*
X058101Y004219D02*
X058101Y004219D01*
X058568Y004219D02*
X061512Y004219D01*
X061627Y004334D02*
X061311Y004018D01*
X061311Y003571D01*
X061627Y003254D01*
X062074Y003254D01*
X062391Y003571D01*
X062391Y004018D01*
X062074Y004334D01*
X061627Y004334D01*
X062189Y004219D02*
X063351Y004219D01*
X063351Y003901D02*
X062391Y003901D01*
X061311Y003901D02*
X051858Y003901D01*
X051351Y003901D02*
X051351Y003901D01*
X050843Y003901D02*
X049846Y003901D01*
X049848Y003896D02*
X049772Y004079D01*
X049632Y004219D01*
X049450Y004295D01*
X049252Y004295D01*
X049069Y004219D01*
X048929Y004079D01*
X048853Y003896D01*
X048853Y003698D01*
X048929Y003516D01*
X049069Y003376D01*
X049252Y003300D01*
X049450Y003300D01*
X049632Y003376D01*
X049772Y003516D01*
X049848Y003698D01*
X049848Y003896D01*
X049800Y003582D02*
X050879Y003582D01*
X051351Y003582D02*
X051351Y003582D01*
X051822Y003582D02*
X061311Y003582D01*
X062391Y003582D02*
X063351Y003582D01*
X063351Y003264D02*
X062084Y003264D01*
X061617Y003264D02*
X012808Y003264D01*
X012791Y003582D02*
X048901Y003582D01*
X048855Y003901D02*
X012791Y003901D01*
X012791Y004219D02*
X049070Y004219D01*
X049632Y004219D02*
X051051Y004219D01*
X050029Y004538D02*
X012791Y004538D01*
X012791Y004856D02*
X043497Y004856D01*
X043851Y004856D02*
X043851Y004856D01*
X044205Y004856D02*
X049853Y004856D01*
X050848Y004856D02*
X057621Y004856D01*
X058101Y004856D02*
X058101Y004856D01*
X061608Y009315D02*
X046431Y009315D01*
X045906Y009315D02*
X045776Y009315D01*
X045250Y009315D02*
X042951Y009315D01*
X042426Y009315D02*
X042296Y009315D01*
X041770Y009315D02*
X021431Y009315D01*
X016651Y010908D02*
X004061Y010908D01*
X004061Y011226D02*
X016651Y011226D01*
X004786Y009315D02*
X004581Y009315D01*
X004581Y008997D02*
X004786Y008997D01*
X008367Y008041D02*
X014334Y008041D01*
X014311Y007723D02*
X012522Y007723D01*
X012525Y007722D02*
X012478Y007741D01*
X012427Y007751D01*
X012185Y007751D01*
X012185Y007294D01*
X012185Y006838D01*
X012427Y006838D01*
X012478Y006848D01*
X012525Y006867D01*
X012568Y006896D01*
X012604Y006932D01*
X012632Y006974D01*
X012652Y007022D01*
X012662Y007072D01*
X012662Y007294D01*
X012185Y007294D01*
X012851Y007294D01*
X012662Y007294D02*
X012662Y007517D01*
X012652Y007567D01*
X012632Y007614D01*
X012604Y007657D01*
X012568Y007693D01*
X012525Y007722D01*
X012185Y007723D02*
X012185Y007723D01*
X011849Y007723D02*
X011800Y007723D01*
X011232Y007723D02*
X008391Y007723D01*
X006477Y007404D02*
X004061Y007404D01*
X004061Y007086D02*
X006378Y007086D01*
X006311Y006767D02*
X004061Y006767D01*
X004581Y006449D02*
X004786Y006449D01*
X004786Y006130D02*
X004581Y006130D01*
X004581Y005812D02*
X004786Y005812D01*
X004786Y005493D02*
X004581Y005493D01*
X004581Y005175D02*
X004786Y005175D01*
X005649Y005175D02*
X011911Y005175D01*
X011911Y005493D02*
X005768Y005493D01*
X005768Y005812D02*
X011911Y005812D01*
X011642Y006130D02*
X005768Y006130D01*
X005768Y006449D02*
X006432Y006449D01*
X007269Y006449D02*
X007432Y006449D01*
X008269Y006449D02*
X011324Y006449D01*
X011005Y006767D02*
X008391Y006767D01*
X012185Y007086D02*
X012185Y007086D01*
X012185Y007294D02*
X012185Y007294D01*
X012185Y007294D01*
X012662Y007294D01*
X012662Y007404D02*
X014477Y007404D01*
X014378Y007086D02*
X012662Y007086D01*
X012185Y007404D02*
X012185Y007404D01*
X012250Y006767D02*
X014311Y006767D01*
X014432Y006449D02*
X012568Y006449D01*
X015269Y006449D02*
X015432Y006449D01*
X011911Y004856D02*
X004061Y004856D01*
X004061Y004538D02*
X011911Y004538D01*
X011911Y004219D02*
X004061Y004219D01*
X004061Y003901D02*
X011911Y003901D01*
X011911Y003582D02*
X004061Y003582D01*
X004061Y003264D02*
X011893Y003264D01*
X043071Y010908D02*
X045131Y010908D01*
X045131Y011226D02*
X043071Y011226D01*
X046551Y011226D02*
X063351Y011226D01*
X063351Y010908D02*
X046551Y010908D01*
X062093Y009315D02*
X062608Y009315D01*
X063093Y009315D02*
X063351Y009315D01*
D18*
X063351Y009294D02*
X062976Y009669D01*
X063351Y009294D02*
X063351Y008294D01*
X062851Y007794D01*
X062351Y008294D02*
X062851Y008794D01*
X062351Y008294D02*
X062351Y006294D01*
X061851Y005794D01*
X062851Y004794D02*
X063351Y005294D01*
X063351Y006544D01*
X063101Y006794D01*
X062851Y006794D01*
D19*
X012351Y003294D03*
D20*
X012351Y006044D01*
X011351Y007044D01*
M02*
