G75*
%MOIN*%
%OFA0B0*%
%FSLAX24Y24*%
%IPPOS*%
%LPD*%
%AMOC8*
5,1,8,0,0,1.08239X$1,22.5*
%
%ADD10C,0.0000*%
%ADD11C,0.0110*%
%ADD12C,0.0160*%
%ADD13C,0.0080*%
%ADD14C,0.0060*%
%ADD15C,0.0050*%
D10*
X000850Y000350D02*
X000850Y009220D01*
X022842Y009220D01*
X022842Y000350D01*
X000850Y000350D01*
D11*
X002155Y000655D02*
X002522Y000655D01*
X002338Y000655D02*
X002338Y001205D01*
X002155Y001022D01*
X002155Y003655D02*
X002522Y004022D01*
X002522Y004114D01*
X002430Y004205D01*
X002247Y004205D01*
X002155Y004114D01*
X002155Y003655D02*
X002522Y003655D01*
X004155Y003997D02*
X004247Y003905D01*
X004430Y003905D01*
X004522Y003997D01*
X004522Y004364D01*
X004430Y004455D01*
X004247Y004455D01*
X004155Y004364D01*
X004155Y003997D01*
X004763Y003905D02*
X005038Y003905D01*
X005130Y003997D01*
X005130Y004180D01*
X005038Y004272D01*
X004763Y004272D01*
X004763Y003722D01*
X005370Y003997D02*
X005370Y004180D01*
X005462Y004272D01*
X005646Y004272D01*
X005737Y004180D01*
X005737Y004088D01*
X005370Y004088D01*
X005370Y003997D02*
X005462Y003905D01*
X005646Y003905D01*
X005978Y003905D02*
X005978Y004272D01*
X006253Y004272D01*
X006345Y004180D01*
X006345Y003905D01*
X006586Y003905D02*
X006586Y004272D01*
X006769Y004455D01*
X006953Y004272D01*
X006953Y003905D01*
X006953Y004180D02*
X006586Y004180D01*
X007194Y003905D02*
X007469Y003905D01*
X007561Y003997D01*
X007561Y004364D01*
X007469Y004455D01*
X007194Y004455D01*
X007194Y003905D01*
X007801Y003997D02*
X007801Y004364D01*
X007893Y004455D01*
X008077Y004455D01*
X008168Y004364D01*
X008168Y003997D02*
X008077Y003905D01*
X007893Y003905D01*
X007801Y003997D01*
X009017Y004272D02*
X009200Y004272D01*
X009108Y004364D02*
X009108Y003997D01*
X009200Y003905D01*
X009422Y003997D02*
X009422Y004180D01*
X009514Y004272D01*
X009697Y004272D01*
X009789Y004180D01*
X009789Y003997D01*
X009697Y003905D01*
X009514Y003905D01*
X009422Y003997D01*
X010637Y003997D02*
X010729Y003905D01*
X010913Y003905D01*
X011004Y003997D01*
X011004Y004088D01*
X010913Y004180D01*
X010729Y004180D01*
X010637Y004272D01*
X010637Y004364D01*
X010729Y004455D01*
X010913Y004455D01*
X011004Y004364D01*
X011245Y004272D02*
X011429Y004455D01*
X011612Y004272D01*
X011612Y003905D01*
X011853Y003905D02*
X011853Y004455D01*
X011945Y004180D02*
X012220Y003905D01*
X012460Y003997D02*
X012552Y003905D01*
X012736Y003905D01*
X012827Y003997D01*
X012827Y004455D01*
X013068Y004455D02*
X013343Y004455D01*
X013435Y004364D01*
X013435Y004180D01*
X013343Y004088D01*
X013068Y004088D01*
X013068Y003905D02*
X013068Y004455D01*
X013252Y004088D02*
X013435Y003905D01*
X013676Y003905D02*
X013676Y004272D01*
X013859Y004455D01*
X014043Y004272D01*
X014043Y003905D01*
X014043Y004180D02*
X013676Y004180D01*
X014284Y004180D02*
X014651Y004180D01*
X014891Y003997D02*
X014983Y003905D01*
X015167Y003905D01*
X015258Y003997D01*
X015258Y004180D01*
X015075Y004180D01*
X014891Y003997D02*
X014891Y004364D01*
X014983Y004455D01*
X015167Y004455D01*
X015258Y004364D01*
X016107Y004272D02*
X016107Y003905D01*
X016107Y004180D02*
X016474Y004180D01*
X016474Y004272D02*
X016290Y004455D01*
X016107Y004272D01*
X016474Y004272D02*
X016474Y003905D01*
X016715Y003997D02*
X016715Y004180D01*
X016806Y004272D01*
X017082Y004272D01*
X017082Y004455D02*
X017082Y003905D01*
X016806Y003905D01*
X016715Y003997D01*
X017322Y003997D02*
X017414Y004088D01*
X017689Y004088D01*
X017689Y004180D02*
X017689Y003905D01*
X017414Y003905D01*
X017322Y003997D01*
X017414Y004272D02*
X017597Y004272D01*
X017689Y004180D01*
X017930Y004272D02*
X018205Y004272D01*
X018297Y004180D01*
X018297Y003997D01*
X018205Y003905D01*
X017930Y003905D01*
X017930Y003722D02*
X017930Y004272D01*
X018538Y004272D02*
X018721Y004272D01*
X018629Y004364D02*
X018629Y003997D01*
X018721Y003905D01*
X018943Y003997D02*
X018943Y004180D01*
X019035Y004272D01*
X019218Y004272D01*
X019310Y004180D01*
X019310Y004088D01*
X018943Y004088D01*
X018943Y003997D02*
X019035Y003905D01*
X019218Y003905D01*
X019551Y003905D02*
X019551Y004272D01*
X019734Y004272D02*
X019551Y004088D01*
X019734Y004272D02*
X019826Y004272D01*
X020905Y003680D02*
X021272Y003680D01*
X021180Y003405D02*
X021180Y003955D01*
X020905Y003680D01*
X021513Y003497D02*
X021880Y003864D01*
X021880Y003497D01*
X021788Y003405D01*
X021604Y003405D01*
X021513Y003497D01*
X021513Y003864D01*
X021604Y003955D01*
X021788Y003955D01*
X021880Y003864D01*
X021788Y001205D02*
X021604Y001205D01*
X021513Y001114D01*
X021513Y001022D01*
X021604Y000930D01*
X021880Y000930D01*
X021880Y000747D02*
X021880Y001114D01*
X021788Y001205D01*
X021880Y000747D02*
X021788Y000655D01*
X021604Y000655D01*
X021513Y000747D01*
X021272Y000747D02*
X021180Y000655D01*
X020997Y000655D01*
X020905Y000747D01*
X021088Y000930D02*
X021180Y000930D01*
X021272Y000838D01*
X021272Y000747D01*
X021180Y000930D02*
X021272Y001022D01*
X021272Y001114D01*
X021180Y001205D01*
X020997Y001205D01*
X020905Y001114D01*
X019022Y006155D02*
X018655Y006155D01*
X018838Y006155D02*
X018838Y006705D01*
X018655Y006522D01*
X017753Y007972D02*
X017661Y007972D01*
X017753Y007972D02*
X017844Y008063D01*
X017844Y008522D01*
X017477Y008522D02*
X017477Y008247D01*
X017569Y008155D01*
X017844Y008155D01*
X017237Y008155D02*
X016961Y008155D01*
X016870Y008247D01*
X016961Y008338D01*
X017237Y008338D01*
X017237Y008430D02*
X017237Y008155D01*
X017237Y008430D02*
X017145Y008522D01*
X016961Y008522D01*
X016629Y008705D02*
X016629Y008155D01*
X016445Y008338D01*
X016262Y008155D01*
X016262Y008705D01*
X015413Y008522D02*
X015138Y008522D01*
X015047Y008430D01*
X015138Y008338D01*
X015322Y008338D01*
X015413Y008247D01*
X015322Y008155D01*
X015047Y008155D01*
X014825Y008155D02*
X014641Y008155D01*
X014733Y008155D02*
X014733Y008522D01*
X014641Y008522D01*
X014733Y008705D02*
X014733Y008797D01*
X014401Y008430D02*
X014309Y008522D01*
X014125Y008522D01*
X014034Y008430D01*
X014034Y008705D02*
X014034Y008155D01*
X014401Y008155D02*
X014401Y008430D01*
X013793Y008705D02*
X013426Y008705D01*
X013609Y008705D02*
X013609Y008155D01*
X012577Y008155D02*
X012302Y008155D01*
X012210Y008247D01*
X012210Y008430D01*
X012302Y008522D01*
X012577Y008522D01*
X012577Y008705D02*
X012577Y008155D01*
X011970Y008338D02*
X011603Y008338D01*
X011603Y008247D02*
X011603Y008430D01*
X011695Y008522D01*
X011878Y008522D01*
X011970Y008430D01*
X011970Y008338D01*
X011878Y008155D02*
X011695Y008155D01*
X011603Y008247D01*
X011381Y008155D02*
X011289Y008247D01*
X011289Y008614D01*
X011198Y008522D02*
X011381Y008522D01*
X010957Y008430D02*
X010957Y008155D01*
X010957Y008430D02*
X010865Y008522D01*
X010590Y008522D01*
X010590Y008155D01*
X010349Y008155D02*
X010349Y008522D01*
X009982Y008522D02*
X009982Y008247D01*
X010074Y008155D01*
X010349Y008155D01*
X009741Y008247D02*
X009741Y008430D01*
X009650Y008522D01*
X009466Y008522D01*
X009374Y008430D01*
X009374Y008247D01*
X009466Y008155D01*
X009650Y008155D01*
X009741Y008247D01*
X009134Y008155D02*
X009134Y008705D01*
X008950Y008522D01*
X008767Y008705D01*
X008767Y008155D01*
X007918Y008247D02*
X007827Y008155D01*
X007643Y008155D01*
X007551Y008247D01*
X007551Y008614D01*
X007643Y008705D01*
X007827Y008705D01*
X007918Y008614D01*
X007311Y008614D02*
X007311Y008247D01*
X007219Y008155D01*
X006944Y008155D01*
X006944Y008705D01*
X007219Y008705D01*
X007311Y008614D01*
X006703Y008522D02*
X006703Y008155D01*
X006703Y008430D02*
X006336Y008430D01*
X006336Y008522D02*
X006519Y008705D01*
X006703Y008522D01*
X006336Y008522D02*
X006336Y008155D01*
X006095Y008155D02*
X006095Y008430D01*
X006003Y008522D01*
X005728Y008522D01*
X005728Y008155D01*
X005487Y008338D02*
X005120Y008338D01*
X005120Y008247D02*
X005120Y008430D01*
X005212Y008522D01*
X005396Y008522D01*
X005487Y008430D01*
X005487Y008338D01*
X005396Y008155D02*
X005212Y008155D01*
X005120Y008247D01*
X004880Y008247D02*
X004880Y008430D01*
X004788Y008522D01*
X004513Y008522D01*
X004513Y007972D01*
X004513Y008155D02*
X004788Y008155D01*
X004880Y008247D01*
X004272Y008247D02*
X004272Y008614D01*
X004180Y008705D01*
X003997Y008705D01*
X003905Y008614D01*
X003905Y008247D01*
X003997Y008155D01*
X004180Y008155D01*
X004272Y008247D01*
X011245Y004272D02*
X011245Y003905D01*
X011245Y004180D02*
X011612Y004180D01*
X011853Y004088D02*
X012220Y004455D01*
X012460Y004455D02*
X012460Y003997D01*
X014027Y001205D02*
X013935Y001114D01*
X013935Y000747D01*
X014027Y000655D01*
X014210Y000655D01*
X014302Y000747D01*
X014542Y000655D02*
X014542Y001205D01*
X014909Y000655D01*
X014909Y001205D01*
X015150Y001205D02*
X015150Y000930D01*
X015334Y001022D01*
X015425Y001022D01*
X015517Y000930D01*
X015517Y000747D01*
X015425Y000655D01*
X015242Y000655D01*
X015150Y000747D01*
X015150Y001205D02*
X015517Y001205D01*
X014302Y001114D02*
X014210Y001205D01*
X014027Y001205D01*
X013086Y000930D02*
X013086Y000747D01*
X012995Y000655D01*
X012811Y000655D01*
X012719Y000747D01*
X012719Y000930D01*
X012811Y001022D01*
X012995Y001022D01*
X013086Y000930D01*
X012498Y001022D02*
X012314Y001022D01*
X012406Y001114D02*
X012406Y000747D01*
X012498Y000655D01*
X011485Y000655D02*
X011393Y000747D01*
X011393Y001114D01*
X011301Y001022D02*
X011485Y001022D01*
X011061Y001022D02*
X010785Y001022D01*
X010694Y000930D01*
X010694Y000747D01*
X010785Y000655D01*
X011061Y000655D01*
X010453Y000838D02*
X010453Y000930D01*
X010361Y001022D01*
X010178Y001022D01*
X010086Y000930D01*
X010086Y000747D01*
X010178Y000655D01*
X010361Y000655D01*
X010453Y000838D02*
X010086Y000838D01*
X009845Y000930D02*
X009845Y000655D01*
X009845Y000930D02*
X009753Y001022D01*
X009478Y001022D01*
X009478Y000655D01*
X009237Y000655D02*
X009237Y000930D01*
X009146Y001022D01*
X008870Y001022D01*
X008870Y000655D01*
X008630Y000747D02*
X008630Y000930D01*
X008538Y001022D01*
X008354Y001022D01*
X008263Y000930D01*
X008263Y000747D01*
X008354Y000655D01*
X008538Y000655D01*
X008630Y000747D01*
X008022Y000747D02*
X007930Y000655D01*
X007747Y000655D01*
X007655Y000747D01*
X007655Y001114D01*
X007747Y001205D01*
X007930Y001205D01*
X008022Y001114D01*
D12*
X002850Y001350D02*
X001850Y001350D01*
X001850Y002350D01*
X002850Y002350D01*
X002850Y001350D01*
X003350Y007600D02*
X003350Y008850D01*
X003600Y008600D01*
X003100Y008600D01*
X003350Y008850D01*
X017350Y006850D02*
X017350Y005850D01*
X018350Y005850D01*
X018350Y006850D01*
X017350Y006850D01*
X018350Y007600D02*
X018350Y008850D01*
X018600Y008600D01*
X018100Y008600D01*
X018350Y008850D01*
D13*
X001700Y004630D02*
X001280Y004630D01*
X001280Y004840D01*
X001350Y004910D01*
X001490Y004910D01*
X001560Y004840D01*
X001560Y004630D01*
X001490Y004450D02*
X001420Y004380D01*
X001420Y004240D01*
X001350Y004170D01*
X001280Y004240D01*
X001280Y004450D01*
X001490Y004450D02*
X001560Y004380D01*
X001560Y004170D01*
X001560Y004003D02*
X001560Y003863D01*
X001560Y003933D02*
X001280Y003933D01*
X001280Y003863D01*
X001140Y003933D02*
X001070Y003933D01*
X001350Y003683D02*
X001560Y003683D01*
X001350Y003683D02*
X001280Y003613D01*
X001280Y003472D01*
X001350Y003402D01*
X001140Y003402D02*
X001560Y003402D01*
X001560Y003222D02*
X001140Y003222D01*
X001140Y002942D02*
X001560Y002942D01*
X001420Y003082D01*
X001560Y003222D01*
X001490Y002762D02*
X001350Y002762D01*
X001280Y002692D01*
X001280Y002482D01*
X001700Y002482D01*
X001560Y002482D02*
X001560Y002692D01*
X001490Y002762D01*
X001560Y002315D02*
X001560Y002175D01*
X001560Y002245D02*
X001280Y002245D01*
X001280Y002175D01*
X001140Y002245D02*
X001070Y002245D01*
X001350Y001995D02*
X001560Y001995D01*
X001350Y001995D02*
X001280Y001924D01*
X001280Y001784D01*
X001350Y001714D01*
X001140Y001714D02*
X001560Y001714D01*
X001490Y001534D02*
X001560Y001464D01*
X001560Y001324D01*
X001490Y001254D01*
X001210Y001254D01*
X001140Y001324D01*
X001140Y001464D01*
X001210Y001534D01*
X001350Y005091D02*
X001280Y005161D01*
X001280Y005301D01*
X001350Y005371D01*
X001420Y005371D01*
X001420Y005091D01*
X001490Y005091D02*
X001350Y005091D01*
X001490Y005091D02*
X001560Y005161D01*
X001560Y005301D01*
X001560Y005551D02*
X001280Y005551D01*
X001420Y005551D02*
X001280Y005691D01*
X001280Y005761D01*
X001350Y005935D02*
X001280Y006005D01*
X001280Y006145D01*
X001350Y006215D01*
X001420Y006215D01*
X001420Y005935D01*
X001490Y005935D02*
X001350Y005935D01*
X001490Y005935D02*
X001560Y006005D01*
X001560Y006145D01*
X001560Y006395D02*
X001280Y006395D01*
X001420Y006395D02*
X001280Y006535D01*
X001280Y006605D01*
X001490Y006779D02*
X001490Y006849D01*
X001560Y006849D01*
X001560Y006779D01*
X001490Y006779D01*
X001490Y007009D02*
X001350Y007009D01*
X001280Y007079D01*
X001280Y007289D01*
X001350Y007469D02*
X001490Y007469D01*
X001560Y007539D01*
X001560Y007679D01*
X001490Y007749D01*
X001350Y007749D01*
X001280Y007679D01*
X001280Y007539D01*
X001350Y007469D01*
X001560Y007289D02*
X001560Y007079D01*
X001490Y007009D01*
X001560Y007930D02*
X001280Y007930D01*
X001280Y008000D01*
X001350Y008070D01*
X001280Y008140D01*
X001350Y008210D01*
X001560Y008210D01*
X001560Y008070D02*
X001350Y008070D01*
D14*
X002100Y003350D02*
X002600Y003350D01*
X002850Y003100D01*
X002850Y001600D01*
X003100Y001350D01*
X003600Y001350D01*
X003850Y001600D01*
X003850Y003100D01*
X004100Y003350D01*
X004600Y003350D01*
X004850Y003100D01*
X004850Y001600D01*
X005100Y001350D01*
X005600Y001350D01*
X005850Y001600D01*
X005850Y003100D01*
X006100Y003350D01*
X006600Y003350D01*
X006850Y003100D01*
X006850Y001600D01*
X007100Y001350D01*
X007600Y001350D01*
X007850Y001600D01*
X007850Y003100D01*
X008100Y003350D01*
X008600Y003350D01*
X008850Y003100D01*
X008850Y001600D01*
X008600Y001350D01*
X008100Y001350D01*
X007850Y001600D01*
X006850Y001600D02*
X006600Y001350D01*
X006100Y001350D01*
X005850Y001600D01*
X004850Y001600D02*
X004600Y001350D01*
X004100Y001350D01*
X003850Y001600D01*
X002850Y001600D02*
X002600Y001350D01*
X002100Y001350D01*
X001850Y001600D01*
X001850Y003100D01*
X002100Y003350D01*
X002850Y003100D02*
X003100Y003350D01*
X003600Y003350D01*
X003850Y003100D01*
X004850Y003100D02*
X005100Y003350D01*
X005600Y003350D01*
X005850Y003100D01*
X006850Y003100D02*
X007100Y003350D01*
X007600Y003350D01*
X007850Y003100D01*
X008850Y003100D02*
X009100Y003350D01*
X009600Y003350D01*
X009850Y003100D01*
X009850Y001600D01*
X009600Y001350D01*
X009100Y001350D01*
X008850Y001600D01*
X009850Y001600D02*
X010100Y001350D01*
X010600Y001350D01*
X010850Y001600D01*
X010850Y003100D01*
X011100Y003350D01*
X011600Y003350D01*
X011850Y003100D01*
X011850Y001600D01*
X011600Y001350D01*
X011100Y001350D01*
X010850Y001600D01*
X011850Y001600D02*
X012100Y001350D01*
X012600Y001350D01*
X012850Y001600D01*
X012850Y003100D01*
X013100Y003350D01*
X013600Y003350D01*
X013850Y003100D01*
X013850Y001600D01*
X013600Y001350D01*
X013100Y001350D01*
X012850Y001600D01*
X013850Y001600D02*
X014100Y001350D01*
X014600Y001350D01*
X014850Y001600D01*
X014850Y003100D01*
X015100Y003350D01*
X015600Y003350D01*
X015850Y003100D01*
X015850Y001600D01*
X015600Y001350D01*
X015100Y001350D01*
X014850Y001600D01*
X015850Y001600D02*
X016100Y001350D01*
X016600Y001350D01*
X016850Y001600D01*
X016850Y003100D01*
X017100Y003350D01*
X017600Y003350D01*
X017850Y003100D01*
X017850Y001600D01*
X017600Y001350D01*
X017100Y001350D01*
X016850Y001600D01*
X017850Y001600D02*
X018100Y001350D01*
X018600Y001350D01*
X018850Y001600D01*
X018850Y003100D01*
X019100Y003350D01*
X019600Y003350D01*
X019850Y003100D01*
X019850Y001600D01*
X019600Y001350D01*
X019100Y001350D01*
X018850Y001600D01*
X019850Y001600D02*
X020100Y001350D01*
X020600Y001350D01*
X020850Y001600D01*
X021100Y001350D01*
X021600Y001350D01*
X021850Y001600D01*
X021850Y003100D01*
X021600Y003350D01*
X021100Y003350D01*
X020850Y003100D01*
X020850Y001600D01*
X020850Y003100D02*
X020600Y003350D01*
X020100Y003350D01*
X019850Y003100D01*
X018850Y003100D02*
X018600Y003350D01*
X018100Y003350D01*
X017850Y003100D01*
X016850Y003100D02*
X016600Y003350D01*
X016100Y003350D01*
X015850Y003100D01*
X014850Y003100D02*
X014600Y003350D01*
X014100Y003350D01*
X013850Y003100D01*
X012850Y003100D02*
X012600Y003350D01*
X012100Y003350D01*
X011850Y003100D01*
X010850Y003100D02*
X010600Y003350D01*
X010100Y003350D01*
X009850Y003100D01*
D15*
X003350Y004850D02*
X003350Y006850D01*
X018350Y006850D01*
X018350Y004850D01*
X003350Y004850D01*
X003350Y006850D02*
X003350Y022350D01*
X018350Y022350D01*
X018350Y006850D01*
M02*
