G75*
%MOIN*%
%OFA0B0*%
%FSLAX24Y24*%
%IPPOS*%
%LPD*%
%AMOC8*
5,1,8,0,0,1.08239X$1,22.5*
%
%ADD10C,0.0000*%
%ADD11C,0.0110*%
%ADD12C,0.0040*%
D10*
X000850Y000350D02*
X000850Y009220D01*
X022842Y009220D01*
X022842Y000350D01*
X000850Y000350D01*
D11*
X003754Y003905D02*
X003662Y003997D01*
X003662Y004088D01*
X003754Y004180D01*
X003845Y004180D01*
X003754Y004180D02*
X003662Y004272D01*
X003662Y004364D01*
X003754Y004455D01*
X003937Y004455D01*
X004029Y004364D01*
X004029Y003997D02*
X003937Y003905D01*
X003754Y003905D01*
X004270Y003905D02*
X004637Y003905D01*
X004453Y003905D02*
X004453Y004455D01*
X004637Y004272D01*
X004877Y004364D02*
X004877Y003997D01*
X004969Y003905D01*
X005153Y003905D01*
X005244Y003997D01*
X004877Y004364D01*
X004969Y004455D01*
X005153Y004455D01*
X005244Y004364D01*
X005244Y003997D01*
X005485Y003905D02*
X005852Y003905D01*
X005485Y004272D01*
X005485Y004364D01*
X005577Y004455D01*
X005760Y004455D01*
X005852Y004364D01*
X006093Y004364D02*
X006185Y004455D01*
X006368Y004455D01*
X006460Y004364D01*
X006460Y003997D01*
X006368Y003905D01*
X006185Y003905D01*
X006093Y003997D01*
X006093Y004180D01*
X006276Y004180D01*
X006700Y003997D02*
X006700Y004455D01*
X007067Y004455D02*
X007067Y003997D01*
X006976Y003905D01*
X006792Y003905D01*
X006700Y003997D01*
X007308Y003905D02*
X007308Y004272D01*
X007492Y004455D01*
X007675Y004272D01*
X007675Y003905D01*
X007675Y004180D02*
X007308Y004180D01*
X007916Y004180D02*
X008283Y004180D01*
X008008Y004455D01*
X008008Y003905D01*
X008524Y003905D02*
X008891Y003905D01*
X008524Y004272D01*
X008524Y004364D01*
X008615Y004455D01*
X008799Y004455D01*
X008891Y004364D01*
X009739Y004272D02*
X009923Y003905D01*
X010106Y004272D01*
X010347Y004180D02*
X010347Y004088D01*
X010714Y004088D01*
X010714Y003997D02*
X010714Y004180D01*
X010622Y004272D01*
X010439Y004272D01*
X010347Y004180D01*
X010439Y003905D02*
X010622Y003905D01*
X010714Y003997D01*
X010955Y003905D02*
X011138Y004088D01*
X011046Y004088D02*
X011321Y004088D01*
X011321Y003905D02*
X011321Y004455D01*
X011046Y004455D01*
X010955Y004364D01*
X010955Y004180D01*
X011046Y004088D01*
X012141Y003997D02*
X012141Y003905D01*
X012233Y003905D01*
X012233Y003997D01*
X012141Y003997D01*
X012474Y003905D02*
X012474Y004180D01*
X012566Y004272D01*
X012841Y004272D01*
X012841Y003905D01*
X013082Y003905D02*
X013082Y004180D01*
X013173Y004272D01*
X013449Y004272D01*
X013449Y003905D01*
X013689Y003905D02*
X013964Y003905D01*
X014056Y003997D01*
X014056Y004272D01*
X014370Y004455D02*
X014370Y003905D01*
X014461Y003905D02*
X014278Y003905D01*
X013873Y003722D02*
X013781Y003722D01*
X013689Y003813D01*
X013689Y004272D01*
X014370Y004455D02*
X014461Y004455D01*
X014702Y004455D02*
X015069Y004455D01*
X015069Y003905D01*
X015069Y004180D02*
X014886Y004180D01*
X015281Y004364D02*
X015373Y004272D01*
X015281Y004364D02*
X015281Y004547D01*
X015614Y004364D02*
X015705Y004455D01*
X015889Y004455D01*
X015981Y004364D01*
X015981Y003997D01*
X015889Y003905D01*
X015705Y003905D01*
X015614Y003997D01*
X015614Y004364D01*
X016829Y004180D02*
X016829Y003905D01*
X016829Y004180D02*
X016921Y004272D01*
X017196Y004272D01*
X017196Y003905D01*
X017418Y003905D02*
X017601Y003905D01*
X017510Y003905D02*
X017510Y004272D01*
X017601Y004272D01*
X017510Y004455D02*
X017510Y004547D01*
X017915Y004455D02*
X017915Y003905D01*
X018006Y003905D02*
X017823Y003905D01*
X018247Y003997D02*
X018247Y004180D01*
X018339Y004272D01*
X018522Y004272D01*
X018614Y004180D01*
X018614Y003997D01*
X018522Y003905D01*
X018339Y003905D01*
X018247Y003997D01*
X018006Y004455D02*
X017915Y004455D01*
X018855Y004364D02*
X018947Y004455D01*
X019130Y004455D01*
X019222Y004364D01*
X019222Y003997D01*
X019130Y003905D01*
X018947Y003905D01*
X018855Y003997D01*
X020070Y003905D02*
X020346Y003905D01*
X020437Y003997D01*
X020437Y004272D01*
X020678Y004180D02*
X020770Y004272D01*
X021045Y004272D01*
X021045Y004455D02*
X021045Y003905D01*
X020770Y003905D01*
X020678Y003997D01*
X020678Y004180D01*
X020254Y003722D02*
X020162Y003722D01*
X020070Y003813D01*
X020070Y004272D01*
D12*
X015330Y007447D02*
X015254Y007370D01*
X014947Y007370D01*
X014870Y007447D01*
X014870Y007600D01*
X014947Y007677D01*
X014830Y007600D02*
X014830Y007447D01*
X014754Y007370D01*
X014447Y007370D01*
X014370Y007447D01*
X014370Y007600D01*
X014447Y007677D01*
X014370Y007830D02*
X014677Y008137D01*
X014754Y008137D01*
X014830Y008061D01*
X014830Y007907D01*
X014754Y007830D01*
X014870Y007830D02*
X014870Y008137D01*
X014870Y007984D02*
X015330Y007984D01*
X015177Y007830D01*
X015254Y007677D02*
X015330Y007600D01*
X015330Y007447D01*
X014830Y007600D02*
X014754Y007677D01*
X014370Y007830D02*
X014370Y008137D01*
X006830Y008061D02*
X006600Y007830D01*
X006600Y008137D01*
X006370Y008061D02*
X006830Y008061D01*
X006754Y007677D02*
X006830Y007600D01*
X006830Y007447D01*
X006754Y007370D01*
X006447Y007370D01*
X006370Y007447D01*
X006370Y007600D01*
X006447Y007677D01*
X006330Y007600D02*
X006330Y007447D01*
X006254Y007370D01*
X005947Y007370D01*
X005870Y007447D01*
X005870Y007600D01*
X005947Y007677D01*
X005947Y007830D02*
X005870Y007907D01*
X005870Y008061D01*
X005947Y008137D01*
X006023Y008137D01*
X006100Y008061D01*
X006100Y007984D01*
X006100Y008061D02*
X006177Y008137D01*
X006254Y008137D01*
X006330Y008061D01*
X006330Y007907D01*
X006254Y007830D01*
X006254Y007677D02*
X006330Y007600D01*
M02*
