G75*
%MOIN*%
%OFA0B0*%
%FSLAX24Y24*%
%IPPOS*%
%LPD*%
%AMOC8*
5,1,8,0,0,1.08239X$1,22.5*
%
%ADD10C,0.0000*%
%ADD11OC8,0.0600*%
%ADD12OC8,0.0515*%
%ADD13R,0.0591X0.0512*%
%ADD14C,0.0500*%
%ADD15OC8,0.0396*%
%ADD16C,0.0400*%
D10*
X000850Y000350D02*
X000850Y009220D01*
X022842Y009220D01*
X022842Y000350D01*
X000850Y000350D01*
D11*
X002350Y001850D03*
X002350Y002850D03*
X003350Y002850D03*
X003350Y001850D03*
X004350Y001850D03*
X004350Y002850D03*
X005350Y002850D03*
X005350Y001850D03*
X006350Y001850D03*
X006350Y002850D03*
X007350Y002850D03*
X007350Y001850D03*
X008350Y001850D03*
X008350Y002850D03*
X009350Y002850D03*
X009350Y001850D03*
X010350Y001850D03*
X010350Y002850D03*
X011350Y002850D03*
X011350Y001850D03*
X012350Y001850D03*
X012350Y002850D03*
X013350Y002850D03*
X013350Y001850D03*
X014350Y001850D03*
X014350Y002850D03*
X015350Y002850D03*
X015350Y001850D03*
X016350Y001850D03*
X016350Y002850D03*
X017350Y002850D03*
X017350Y001850D03*
X018350Y001850D03*
X018350Y002850D03*
X019350Y002850D03*
X019350Y001850D03*
X020350Y001850D03*
X020350Y002850D03*
X021350Y002850D03*
X021350Y001850D03*
D12*
X017850Y005350D03*
X016850Y005350D03*
X015850Y005350D03*
X014850Y005350D03*
X014850Y006350D03*
X015850Y006350D03*
X016850Y006350D03*
X017850Y006350D03*
X013850Y006350D03*
X012850Y006350D03*
X011850Y006350D03*
X011850Y005350D03*
X012850Y005350D03*
X013850Y005350D03*
X010850Y005350D03*
X009850Y005350D03*
X008850Y005350D03*
X008850Y006350D03*
X009850Y006350D03*
X010850Y006350D03*
X007850Y006350D03*
X006850Y006350D03*
X005850Y006350D03*
X005850Y005350D03*
X006850Y005350D03*
X007850Y005350D03*
X004850Y005350D03*
X003850Y005350D03*
X003850Y006350D03*
X004850Y006350D03*
D13*
X004850Y007476D03*
X004850Y008224D03*
X003850Y008224D03*
X003850Y007476D03*
X012350Y007476D03*
X012350Y008224D03*
X013350Y008224D03*
X013350Y007476D03*
D14*
X012350Y007476D01*
X012724Y007476D01*
X012850Y007350D01*
X012850Y006350D01*
X012850Y005350D01*
X012350Y004906D02*
X012574Y004683D01*
X013126Y004683D01*
X013392Y004948D01*
X013598Y004743D01*
X013850Y004743D01*
X014102Y004743D01*
X014308Y004948D01*
X014574Y004683D01*
X015126Y004683D01*
X015350Y004906D01*
X015574Y004683D01*
X016126Y004683D01*
X016350Y004906D01*
X016574Y004683D01*
X017126Y004683D01*
X017350Y004906D01*
X017574Y004683D01*
X018126Y004683D01*
X018517Y005074D01*
X018517Y005626D01*
X018294Y005850D01*
X018517Y006074D01*
X018517Y006626D01*
X018126Y007017D01*
X017574Y007017D01*
X017350Y006794D01*
X017126Y007017D01*
X016574Y007017D01*
X016350Y006794D01*
X016126Y007017D01*
X015574Y007017D01*
X015350Y006794D01*
X015126Y007017D01*
X014574Y007017D01*
X014308Y006752D01*
X014102Y006957D01*
X013963Y006957D01*
X013993Y006988D01*
X014055Y007139D01*
X014055Y007813D01*
X013995Y007958D01*
X013995Y008224D01*
X013995Y008514D01*
X013982Y008582D01*
X013955Y008646D01*
X013917Y008703D01*
X013868Y008752D01*
X013811Y008790D01*
X013763Y008810D01*
X022432Y008810D01*
X022432Y000760D01*
X001260Y000760D01*
X001260Y008810D01*
X003437Y008810D01*
X003389Y008790D01*
X003332Y008752D01*
X003283Y008703D01*
X003245Y008646D01*
X003218Y008582D01*
X003205Y008514D01*
X003205Y008224D01*
X003205Y007958D01*
X003145Y007813D01*
X003145Y007139D01*
X003190Y007029D01*
X003190Y006634D01*
X003183Y006626D01*
X003183Y006074D01*
X003190Y006066D01*
X003190Y005634D01*
X003183Y005626D01*
X003183Y005074D01*
X003574Y004683D01*
X004126Y004683D01*
X004392Y004948D01*
X004598Y004743D01*
X004850Y004743D01*
X005102Y004743D01*
X005308Y004948D01*
X005574Y004683D01*
X006126Y004683D01*
X006350Y004906D01*
X006574Y004683D01*
X007126Y004683D01*
X007350Y004906D01*
X007574Y004683D01*
X008126Y004683D01*
X008350Y004906D01*
X008574Y004683D01*
X009126Y004683D01*
X009350Y004906D01*
X009574Y004683D01*
X010126Y004683D01*
X010350Y004906D01*
X010574Y004683D01*
X011126Y004683D01*
X011350Y004906D01*
X011574Y004683D01*
X012126Y004683D01*
X012350Y004906D01*
X012280Y004837D02*
X012420Y004837D01*
X013280Y004837D02*
X013504Y004837D01*
X013850Y004837D02*
X013850Y004837D01*
X013850Y004743D02*
X013850Y005350D01*
X013850Y005350D01*
X013850Y006350D01*
X013850Y006350D01*
X013850Y005957D01*
X013850Y005350D01*
X013850Y005350D01*
X013850Y004743D01*
X014196Y004837D02*
X014420Y004837D01*
X013850Y005335D02*
X013850Y005335D01*
X013850Y005834D02*
X013850Y005834D01*
X013850Y006332D02*
X013850Y006332D01*
X014229Y006831D02*
X014387Y006831D01*
X014055Y007329D02*
X022432Y007329D01*
X022432Y006831D02*
X018313Y006831D01*
X018517Y006332D02*
X022432Y006332D01*
X022432Y005834D02*
X018310Y005834D01*
X018517Y005335D02*
X022432Y005335D01*
X022432Y004837D02*
X018280Y004837D01*
X017420Y004837D02*
X017280Y004837D01*
X016420Y004837D02*
X016280Y004837D01*
X015420Y004837D02*
X015280Y004837D01*
X015056Y003560D02*
X014850Y003354D01*
X014644Y003560D01*
X014056Y003560D01*
X013850Y003354D01*
X013644Y003560D01*
X013056Y003560D01*
X012850Y003354D01*
X012644Y003560D01*
X012056Y003560D01*
X011808Y003312D01*
X011619Y003500D01*
X011350Y003500D01*
X011350Y002850D01*
X011350Y002850D01*
X011350Y003500D01*
X011081Y003500D01*
X010892Y003312D01*
X010644Y003560D01*
X010056Y003560D01*
X009850Y003354D01*
X009644Y003560D01*
X009056Y003560D01*
X008850Y003354D01*
X008644Y003560D01*
X008056Y003560D01*
X007850Y003354D01*
X007644Y003560D01*
X007056Y003560D01*
X006808Y003312D01*
X006619Y003500D01*
X006350Y003500D01*
X006350Y002850D01*
X006350Y002850D01*
X006350Y003500D01*
X006081Y003500D01*
X005892Y003312D01*
X005644Y003560D01*
X005056Y003560D01*
X004850Y003354D01*
X004644Y003560D01*
X004056Y003560D01*
X003850Y003354D01*
X003644Y003560D01*
X003056Y003560D01*
X002850Y003354D01*
X002644Y003560D01*
X002056Y003560D01*
X001640Y003144D01*
X001640Y002556D01*
X001846Y002350D01*
X001640Y002144D01*
X001640Y001556D01*
X002056Y001140D01*
X002644Y001140D01*
X002850Y001346D01*
X003056Y001140D01*
X003644Y001140D01*
X003850Y001346D01*
X004056Y001140D01*
X004644Y001140D01*
X004850Y001346D01*
X005056Y001140D01*
X005644Y001140D01*
X005892Y001388D01*
X006081Y001200D01*
X006350Y001200D01*
X006619Y001200D01*
X006808Y001388D01*
X007056Y001140D01*
X007644Y001140D01*
X007850Y001346D01*
X008056Y001140D01*
X008644Y001140D01*
X008850Y001346D01*
X009056Y001140D01*
X009644Y001140D01*
X009850Y001346D01*
X010056Y001140D01*
X010644Y001140D01*
X010892Y001388D01*
X011081Y001200D01*
X011350Y001200D01*
X011619Y001200D01*
X011808Y001388D01*
X012056Y001140D01*
X012644Y001140D01*
X012850Y001346D01*
X013056Y001140D01*
X013644Y001140D01*
X013850Y001346D01*
X014056Y001140D01*
X014644Y001140D01*
X014850Y001346D01*
X015056Y001140D01*
X015644Y001140D01*
X015892Y001388D01*
X016081Y001200D01*
X016350Y001200D01*
X016619Y001200D01*
X016808Y001388D01*
X017056Y001140D01*
X017644Y001140D01*
X017850Y001346D01*
X018056Y001140D01*
X018644Y001140D01*
X018892Y001388D01*
X019081Y001200D01*
X019350Y001200D01*
X019619Y001200D01*
X019808Y001388D01*
X020056Y001140D01*
X020644Y001140D01*
X020850Y001346D01*
X021056Y001140D01*
X021644Y001140D01*
X022060Y001556D01*
X022060Y002144D01*
X021854Y002350D01*
X022060Y002556D01*
X022060Y003144D01*
X021644Y003560D01*
X021056Y003560D01*
X020850Y003354D01*
X020644Y003560D01*
X020056Y003560D01*
X019808Y003312D01*
X019619Y003500D01*
X019350Y003500D01*
X019350Y002850D01*
X019350Y002850D01*
X019350Y003500D01*
X019081Y003500D01*
X018892Y003312D01*
X018644Y003560D01*
X018056Y003560D01*
X017850Y003354D01*
X017644Y003560D01*
X017056Y003560D01*
X016808Y003312D01*
X016619Y003500D01*
X016350Y003500D01*
X016350Y002850D01*
X016350Y002850D01*
X016350Y003500D01*
X016081Y003500D01*
X015892Y003312D01*
X015644Y003560D01*
X015056Y003560D01*
X015863Y003341D02*
X015922Y003341D01*
X016350Y003341D02*
X016350Y003341D01*
X016778Y003341D02*
X016837Y003341D01*
X016350Y002850D02*
X016350Y002200D01*
X016350Y001850D01*
X016350Y001850D01*
X016350Y001200D01*
X016350Y001850D01*
X016350Y001850D01*
X016350Y002850D01*
X016350Y002850D01*
X016350Y002843D02*
X016350Y002843D01*
X016350Y002344D02*
X016350Y002344D01*
X016350Y001846D02*
X016350Y001846D01*
X016350Y001347D02*
X016350Y001347D01*
X016766Y001347D02*
X016849Y001347D01*
X015934Y001347D02*
X015851Y001347D01*
X018851Y001347D02*
X018934Y001347D01*
X019350Y001347D02*
X019350Y001347D01*
X019350Y001200D02*
X019350Y001850D01*
X019350Y001850D01*
X019350Y002200D01*
X019350Y002850D01*
X019350Y002850D01*
X019350Y001850D01*
X019350Y001850D01*
X019350Y001200D01*
X019766Y001347D02*
X019849Y001347D01*
X019350Y001846D02*
X019350Y001846D01*
X019350Y002344D02*
X019350Y002344D01*
X019350Y002843D02*
X019350Y002843D01*
X019350Y003341D02*
X019350Y003341D01*
X018922Y003341D02*
X018863Y003341D01*
X019778Y003341D02*
X019837Y003341D01*
X021863Y003341D02*
X022432Y003341D01*
X022432Y002843D02*
X022060Y002843D01*
X021860Y002344D02*
X022432Y002344D01*
X022432Y001846D02*
X022060Y001846D01*
X021851Y001347D02*
X022432Y001347D01*
X022432Y000849D02*
X001260Y000849D01*
X001260Y001347D02*
X001849Y001347D01*
X001640Y001846D02*
X001260Y001846D01*
X001260Y002344D02*
X001840Y002344D01*
X001640Y002843D02*
X001260Y002843D01*
X001260Y003341D02*
X001837Y003341D01*
X001260Y003840D02*
X022432Y003840D01*
X022432Y004338D02*
X001260Y004338D01*
X001260Y004837D02*
X003420Y004837D01*
X003183Y005335D02*
X001260Y005335D01*
X001260Y005834D02*
X003190Y005834D01*
X003183Y006332D02*
X001260Y006332D01*
X001260Y006831D02*
X003190Y006831D01*
X003145Y007329D02*
X001260Y007329D01*
X001260Y007828D02*
X003151Y007828D01*
X003205Y008224D02*
X003850Y008224D01*
X003850Y008224D01*
X004205Y008224D01*
X004850Y008224D01*
X004850Y008224D01*
X005495Y008224D01*
X004850Y008224D01*
X004850Y008224D01*
X003850Y008224D01*
X003850Y008224D01*
X003205Y008224D01*
X003205Y008326D02*
X001260Y008326D01*
X003850Y007476D02*
X003850Y006350D01*
X003850Y005350D01*
X004280Y004837D02*
X004504Y004837D01*
X004850Y004837D02*
X004850Y004837D01*
X004850Y004743D02*
X004850Y005350D01*
X004850Y005350D01*
X004850Y006350D01*
X004850Y006350D01*
X004850Y005957D01*
X004850Y005350D01*
X004850Y005350D01*
X004850Y004743D01*
X005196Y004837D02*
X005420Y004837D01*
X004850Y005335D02*
X004850Y005335D01*
X004850Y005834D02*
X004850Y005834D01*
X004850Y006332D02*
X004850Y006332D01*
X005308Y006752D02*
X005243Y006817D01*
X005378Y006872D01*
X005493Y006988D01*
X005555Y007139D01*
X005555Y007813D01*
X005495Y007958D01*
X005495Y008224D01*
X005495Y008514D01*
X005482Y008582D01*
X005455Y008646D01*
X005417Y008703D01*
X005368Y008752D01*
X005311Y008790D01*
X005263Y008810D01*
X011937Y008810D01*
X011889Y008790D01*
X011832Y008752D01*
X011783Y008703D01*
X011745Y008646D01*
X011718Y008582D01*
X011705Y008514D01*
X011705Y008224D01*
X011705Y007958D01*
X011645Y007813D01*
X011645Y007139D01*
X011695Y007017D01*
X011574Y007017D01*
X011350Y006794D01*
X011126Y007017D01*
X010574Y007017D01*
X010350Y006794D01*
X010126Y007017D01*
X009574Y007017D01*
X009350Y006794D01*
X009126Y007017D01*
X008574Y007017D01*
X008350Y006794D01*
X008126Y007017D01*
X007574Y007017D01*
X007350Y006794D01*
X007126Y007017D01*
X006574Y007017D01*
X006350Y006794D01*
X006126Y007017D01*
X005574Y007017D01*
X005308Y006752D01*
X005276Y006831D02*
X005387Y006831D01*
X005555Y007329D02*
X011645Y007329D01*
X011651Y007828D02*
X005549Y007828D01*
X005495Y008326D02*
X011705Y008326D01*
X011705Y008224D02*
X012350Y008224D01*
X012350Y008224D01*
X013350Y008224D01*
X013350Y008224D01*
X013995Y008224D01*
X013350Y008224D01*
X013350Y008224D01*
X012995Y008224D01*
X012350Y008224D01*
X011705Y008224D01*
X012350Y008224D02*
X012350Y008224D01*
X011387Y006831D02*
X011313Y006831D01*
X010387Y006831D02*
X010313Y006831D01*
X009387Y006831D02*
X009313Y006831D01*
X008387Y006831D02*
X008313Y006831D01*
X007387Y006831D02*
X007313Y006831D01*
X006387Y006831D02*
X006313Y006831D01*
X004850Y007476D02*
X003850Y007476D01*
X006280Y004837D02*
X006420Y004837D01*
X007280Y004837D02*
X007420Y004837D01*
X008280Y004837D02*
X008420Y004837D01*
X009280Y004837D02*
X009420Y004837D01*
X010280Y004837D02*
X010420Y004837D01*
X011280Y004837D02*
X011420Y004837D01*
X011350Y003341D02*
X011350Y003341D01*
X010922Y003341D02*
X010863Y003341D01*
X011350Y002850D02*
X011350Y002850D01*
X011350Y002500D01*
X011350Y001850D01*
X011350Y001850D01*
X011350Y001200D01*
X011350Y001850D01*
X011350Y001850D01*
X011350Y002850D01*
X011350Y002843D02*
X011350Y002843D01*
X011350Y002344D02*
X011350Y002344D01*
X011350Y001846D02*
X011350Y001846D01*
X011350Y001347D02*
X011350Y001347D01*
X010934Y001347D02*
X010851Y001347D01*
X011766Y001347D02*
X011849Y001347D01*
X011837Y003341D02*
X011778Y003341D01*
X015313Y006831D02*
X015387Y006831D01*
X016313Y006831D02*
X016387Y006831D01*
X017313Y006831D02*
X017387Y006831D01*
X014049Y007828D02*
X022432Y007828D01*
X022432Y008326D02*
X013995Y008326D01*
X006837Y003341D02*
X006778Y003341D01*
X006350Y003341D02*
X006350Y003341D01*
X005922Y003341D02*
X005863Y003341D01*
X006350Y002850D02*
X006350Y002850D01*
X006350Y002200D01*
X006350Y001850D01*
X006350Y001850D01*
X006350Y001200D01*
X006350Y001850D01*
X006350Y001850D01*
X006350Y002850D01*
X006350Y002843D02*
X006350Y002843D01*
X006350Y002344D02*
X006350Y002344D01*
X006350Y001846D02*
X006350Y001846D01*
X006350Y001347D02*
X006350Y001347D01*
X006766Y001347D02*
X006849Y001347D01*
X005934Y001347D02*
X005851Y001347D01*
D15*
X001850Y003850D03*
X002350Y005350D03*
X002350Y006850D03*
X002350Y008350D03*
X005850Y007350D03*
X007850Y007350D03*
X009850Y007350D03*
X011350Y007350D03*
X021350Y006850D03*
X021350Y005350D03*
X022100Y004100D03*
X021350Y008350D03*
D16*
X005850Y008100D02*
X005850Y007350D01*
X005850Y008100D02*
X005726Y008224D01*
X004850Y008224D01*
M02*
