G75*
%MOIN*%
%OFA0B0*%
%FSLAX24Y24*%
%IPPOS*%
%LPD*%
%AMOC8*
5,1,8,0,0,1.08239X$1,22.5*
%
%ADD10C,0.0000*%
%ADD11OC8,0.0680*%
%ADD12OC8,0.0595*%
%ADD13R,0.0671X0.0592*%
%ADD14OC8,0.0476*%
D10*
X000850Y000350D02*
X000850Y009220D01*
X022842Y009220D01*
X022842Y000350D01*
X000850Y000350D01*
D11*
X002350Y001850D03*
X002350Y002850D03*
X003350Y002850D03*
X003350Y001850D03*
X004350Y001850D03*
X004350Y002850D03*
X005350Y002850D03*
X005350Y001850D03*
X006350Y001850D03*
X006350Y002850D03*
X007350Y002850D03*
X007350Y001850D03*
X008350Y001850D03*
X008350Y002850D03*
X009350Y002850D03*
X009350Y001850D03*
X010350Y001850D03*
X010350Y002850D03*
X011350Y002850D03*
X011350Y001850D03*
X012350Y001850D03*
X012350Y002850D03*
X013350Y002850D03*
X013350Y001850D03*
X014350Y001850D03*
X014350Y002850D03*
X015350Y002850D03*
X015350Y001850D03*
X016350Y001850D03*
X016350Y002850D03*
X017350Y002850D03*
X017350Y001850D03*
X018350Y001850D03*
X018350Y002850D03*
X019350Y002850D03*
X019350Y001850D03*
X020350Y001850D03*
X020350Y002850D03*
X021350Y002850D03*
X021350Y001850D03*
D12*
X017850Y005350D03*
X016850Y005350D03*
X015850Y005350D03*
X014850Y005350D03*
X014850Y006350D03*
X015850Y006350D03*
X016850Y006350D03*
X017850Y006350D03*
X013850Y006350D03*
X012850Y006350D03*
X011850Y006350D03*
X011850Y005350D03*
X012850Y005350D03*
X013850Y005350D03*
X010850Y005350D03*
X009850Y005350D03*
X008850Y005350D03*
X008850Y006350D03*
X009850Y006350D03*
X010850Y006350D03*
X007850Y006350D03*
X006850Y006350D03*
X005850Y006350D03*
X005850Y005350D03*
X006850Y005350D03*
X007850Y005350D03*
X004850Y005350D03*
X003850Y005350D03*
X003850Y006350D03*
X004850Y006350D03*
D13*
X004850Y007476D03*
X004850Y008224D03*
X003850Y008224D03*
X003850Y007476D03*
X012350Y007476D03*
X012350Y008224D03*
X013350Y008224D03*
X013350Y007476D03*
D14*
X011350Y007350D03*
X009850Y007350D03*
X007850Y007350D03*
X005850Y007350D03*
X002350Y006850D03*
X002350Y005350D03*
X001850Y003850D03*
X002350Y008350D03*
X021350Y008350D03*
X021350Y006850D03*
X021350Y005350D03*
X022100Y004100D03*
M02*
