G75*
%MOIN*%
%OFA0B0*%
%FSLAX24Y24*%
%IPPOS*%
%LPD*%
%AMOC8*
5,1,8,0,0,1.08239X$1,22.5*
%
%ADD10C,0.0000*%
%ADD11OC8,0.0600*%
%ADD12OC8,0.0515*%
%ADD13C,0.0400*%
%ADD14C,0.0500*%
%ADD15OC8,0.0396*%
%ADD16C,0.0160*%
D10*
X000850Y000350D02*
X000850Y009220D01*
X022842Y009220D01*
X022842Y000350D01*
X000850Y000350D01*
D11*
X002350Y001850D03*
X002350Y002850D03*
X003350Y002850D03*
X003350Y001850D03*
X004350Y001850D03*
X004350Y002850D03*
X005350Y002850D03*
X005350Y001850D03*
X006350Y001850D03*
X006350Y002850D03*
X007350Y002850D03*
X007350Y001850D03*
X008350Y001850D03*
X008350Y002850D03*
X009350Y002850D03*
X009350Y001850D03*
X010350Y001850D03*
X010350Y002850D03*
X011350Y002850D03*
X011350Y001850D03*
X012350Y001850D03*
X012350Y002850D03*
X013350Y002850D03*
X013350Y001850D03*
X014350Y001850D03*
X014350Y002850D03*
X015350Y002850D03*
X015350Y001850D03*
X016350Y001850D03*
X016350Y002850D03*
X017350Y002850D03*
X017350Y001850D03*
X018350Y001850D03*
X018350Y002850D03*
X019350Y002850D03*
X019350Y001850D03*
X020350Y001850D03*
X020350Y002850D03*
X021350Y002850D03*
X021350Y001850D03*
D12*
X017850Y005350D03*
X016850Y005350D03*
X015850Y005350D03*
X014850Y005350D03*
X014850Y006350D03*
X015850Y006350D03*
X016850Y006350D03*
X017850Y006350D03*
X013850Y006350D03*
X012850Y006350D03*
X011850Y006350D03*
X011850Y005350D03*
X012850Y005350D03*
X013850Y005350D03*
X010850Y005350D03*
X009850Y005350D03*
X008850Y005350D03*
X008850Y006350D03*
X009850Y006350D03*
X010850Y006350D03*
X007850Y006350D03*
X006850Y006350D03*
X005850Y006350D03*
X005850Y005350D03*
X006850Y005350D03*
X007850Y005350D03*
X004850Y005350D03*
X003850Y005350D03*
X003850Y006350D03*
X004850Y006350D03*
D13*
X003850Y006350D02*
X003850Y007350D01*
X004850Y008350D01*
X018350Y008350D01*
X020350Y006350D01*
X020350Y002850D01*
X020350Y001850D01*
X018350Y001850D02*
X018350Y002850D01*
X019350Y003850D01*
X019350Y006350D01*
X018350Y007350D01*
X013350Y007350D01*
X012850Y006850D01*
X012850Y006350D01*
X012850Y005350D01*
X003850Y005350D02*
X003850Y006350D01*
D14*
X003183Y006332D02*
X001260Y006332D01*
X001260Y006831D02*
X003240Y006831D01*
X003240Y006684D02*
X003183Y006626D01*
X003183Y006074D01*
X003240Y006016D01*
X003240Y005684D01*
X003183Y005626D01*
X003183Y005074D01*
X003574Y004683D01*
X004126Y004683D01*
X004392Y004948D01*
X004598Y004743D01*
X004850Y004743D01*
X005102Y004743D01*
X005308Y004948D01*
X005360Y004896D01*
X005360Y004253D01*
X005435Y004072D01*
X005572Y003935D01*
X006044Y003463D01*
X005892Y003312D01*
X005644Y003560D01*
X005056Y003560D01*
X004850Y003354D01*
X004644Y003560D01*
X004056Y003560D01*
X003850Y003354D01*
X003644Y003560D01*
X003056Y003560D01*
X002850Y003354D01*
X002644Y003560D01*
X002056Y003560D01*
X001640Y003144D01*
X001640Y002556D01*
X001846Y002350D01*
X001640Y002144D01*
X001640Y001556D01*
X002056Y001140D01*
X002644Y001140D01*
X002850Y001346D01*
X003056Y001140D01*
X003644Y001140D01*
X003850Y001346D01*
X004056Y001140D01*
X004644Y001140D01*
X004850Y001346D01*
X005056Y001140D01*
X005644Y001140D01*
X005892Y001388D01*
X006081Y001200D01*
X006350Y001200D01*
X006619Y001200D01*
X006808Y001388D01*
X007056Y001140D01*
X007644Y001140D01*
X007850Y001346D01*
X008056Y001140D01*
X008644Y001140D01*
X008850Y001346D01*
X009056Y001140D01*
X009644Y001140D01*
X009850Y001346D01*
X010056Y001140D01*
X010644Y001140D01*
X010892Y001388D01*
X011081Y001200D01*
X011350Y001200D01*
X011619Y001200D01*
X011808Y001388D01*
X012056Y001140D01*
X012644Y001140D01*
X012850Y001346D01*
X013056Y001140D01*
X013644Y001140D01*
X013850Y001346D01*
X014056Y001140D01*
X014644Y001140D01*
X014850Y001346D01*
X015056Y001140D01*
X015644Y001140D01*
X015892Y001388D01*
X016081Y001200D01*
X016350Y001200D01*
X016619Y001200D01*
X016808Y001388D01*
X017056Y001140D01*
X017644Y001140D01*
X017850Y001346D01*
X018056Y001140D01*
X018644Y001140D01*
X018892Y001388D01*
X019081Y001200D01*
X019350Y001200D01*
X019619Y001200D01*
X019808Y001388D01*
X020056Y001140D01*
X020644Y001140D01*
X020850Y001346D01*
X021056Y001140D01*
X021644Y001140D01*
X022060Y001556D01*
X022060Y002144D01*
X021854Y002350D01*
X022060Y002556D01*
X022060Y003144D01*
X021644Y003560D01*
X021056Y003560D01*
X020960Y003464D01*
X020960Y006471D01*
X020867Y006696D01*
X018867Y008696D01*
X018753Y008810D01*
X022432Y008810D01*
X022432Y000760D01*
X001260Y000760D01*
X001260Y008810D01*
X004447Y008810D01*
X003333Y007696D01*
X003240Y007471D01*
X003240Y006684D01*
X003240Y007329D02*
X001260Y007329D01*
X001260Y007828D02*
X003465Y007828D01*
X003963Y008326D02*
X001260Y008326D01*
X001260Y005834D02*
X003240Y005834D01*
X003183Y005335D02*
X001260Y005335D01*
X001260Y004837D02*
X003420Y004837D01*
X004280Y004837D02*
X004504Y004837D01*
X004850Y004837D02*
X004850Y004837D01*
X004850Y004743D02*
X004850Y005350D01*
X004850Y005350D01*
X004850Y006350D01*
X004850Y006350D01*
X004850Y006957D01*
X004598Y006957D01*
X004460Y006819D01*
X004460Y007097D01*
X005103Y007740D01*
X012877Y007740D01*
X012504Y007367D01*
X012333Y007196D01*
X012240Y006971D01*
X012240Y006904D01*
X012126Y007017D01*
X011574Y007017D01*
X011350Y006794D01*
X011126Y007017D01*
X010574Y007017D01*
X010350Y006794D01*
X010126Y007017D01*
X009574Y007017D01*
X009350Y006794D01*
X009126Y007017D01*
X008574Y007017D01*
X008350Y006794D01*
X008126Y007017D01*
X007574Y007017D01*
X007350Y006794D01*
X007126Y007017D01*
X006574Y007017D01*
X006350Y006794D01*
X006126Y007017D01*
X005574Y007017D01*
X005308Y006752D01*
X005102Y006957D01*
X004850Y006957D01*
X004850Y006350D01*
X004850Y006350D01*
X004850Y005957D01*
X004850Y005350D01*
X004850Y005350D01*
X004850Y004743D01*
X005196Y004837D02*
X005360Y004837D01*
X005360Y004338D02*
X001260Y004338D01*
X001260Y003840D02*
X005668Y003840D01*
X005850Y003350D02*
X006350Y002850D01*
X006350Y002200D01*
X006350Y001850D01*
X006350Y001850D01*
X006350Y001200D01*
X006350Y001850D01*
X006350Y001850D01*
X006350Y002850D01*
X006350Y002850D01*
X006350Y002843D02*
X006350Y002843D01*
X006350Y002344D02*
X006350Y002344D01*
X006350Y001846D02*
X006350Y001846D01*
X006350Y001347D02*
X006350Y001347D01*
X006766Y001347D02*
X006849Y001347D01*
X005934Y001347D02*
X005851Y001347D01*
X005863Y003341D02*
X005922Y003341D01*
X004850Y005335D02*
X004850Y005335D01*
X004850Y005834D02*
X004850Y005834D01*
X004850Y006332D02*
X004850Y006332D01*
X004850Y006831D02*
X004850Y006831D01*
X004471Y006831D02*
X004460Y006831D01*
X004692Y007329D02*
X012466Y007329D01*
X011387Y006831D02*
X011313Y006831D01*
X010387Y006831D02*
X010313Y006831D01*
X009387Y006831D02*
X009313Y006831D01*
X008387Y006831D02*
X008313Y006831D01*
X007387Y006831D02*
X007313Y006831D01*
X006387Y006831D02*
X006313Y006831D01*
X005387Y006831D02*
X005229Y006831D01*
X001837Y003341D02*
X001260Y003341D01*
X001260Y002843D02*
X001640Y002843D01*
X001840Y002344D02*
X001260Y002344D01*
X001260Y001846D02*
X001640Y001846D01*
X001849Y001347D02*
X001260Y001347D01*
X001260Y000849D02*
X022432Y000849D01*
X022432Y001347D02*
X021851Y001347D01*
X022060Y001846D02*
X022432Y001846D01*
X022432Y002344D02*
X021860Y002344D01*
X022060Y002843D02*
X022432Y002843D01*
X022432Y003341D02*
X021863Y003341D01*
X022432Y003840D02*
X020960Y003840D01*
X020960Y004338D02*
X022432Y004338D01*
X022432Y004837D02*
X020960Y004837D01*
X020960Y005335D02*
X022432Y005335D01*
X022432Y005834D02*
X020960Y005834D01*
X020960Y006332D02*
X022432Y006332D01*
X022432Y006831D02*
X020732Y006831D01*
X020234Y007329D02*
X022432Y007329D01*
X022432Y007828D02*
X019735Y007828D01*
X019237Y008326D02*
X022432Y008326D01*
X016860Y004167D02*
X016860Y003364D01*
X016808Y003312D01*
X016619Y003500D01*
X016350Y003500D01*
X016350Y002850D01*
X016350Y002850D01*
X016350Y003500D01*
X016340Y003500D01*
X016340Y003647D01*
X016860Y004167D01*
X016860Y003840D02*
X016532Y003840D01*
X016350Y003341D02*
X016350Y003341D01*
X016778Y003341D02*
X016837Y003341D01*
X016350Y002850D02*
X016350Y002200D01*
X016350Y001850D01*
X016350Y001850D01*
X016350Y001200D01*
X016350Y001850D01*
X016350Y001850D01*
X016350Y002850D01*
X016350Y002850D01*
X016350Y002843D02*
X016350Y002843D01*
X016350Y002344D02*
X016350Y002344D01*
X016350Y001846D02*
X016350Y001846D01*
X016350Y001347D02*
X016350Y001347D01*
X016766Y001347D02*
X016849Y001347D01*
X015934Y001347D02*
X015851Y001347D01*
X018851Y001347D02*
X018934Y001347D01*
X019350Y001347D02*
X019350Y001347D01*
X019350Y001200D02*
X019350Y001850D01*
X019350Y001850D01*
X019350Y002200D01*
X019350Y002850D01*
X019350Y002850D01*
X019350Y001850D01*
X019350Y001850D01*
X019350Y001200D01*
X019766Y001347D02*
X019849Y001347D01*
X019350Y001846D02*
X019350Y001846D01*
X019350Y002344D02*
X019350Y002344D01*
X019350Y002843D02*
X019350Y002843D01*
X013850Y005350D02*
X013850Y005350D01*
X013850Y006350D01*
X013850Y006350D01*
X013850Y005957D01*
X013850Y005350D01*
X013850Y005834D02*
X013850Y005834D01*
X013850Y006332D02*
X013850Y006332D01*
X011350Y002850D02*
X011350Y002500D01*
X011350Y001850D01*
X011350Y001850D01*
X011350Y001200D01*
X011350Y001850D01*
X011350Y001850D01*
X011350Y002850D01*
X011350Y002850D01*
X011350Y002843D02*
X011350Y002843D01*
X011350Y002344D02*
X011350Y002344D01*
X011350Y001846D02*
X011350Y001846D01*
X011350Y001347D02*
X011350Y001347D01*
X010934Y001347D02*
X010851Y001347D01*
X011766Y001347D02*
X011849Y001347D01*
D15*
X011350Y007350D03*
X009850Y007350D03*
X007850Y007350D03*
X005850Y007350D03*
X002350Y006850D03*
X002350Y005350D03*
X001850Y003850D03*
X002350Y008350D03*
X021350Y008350D03*
X021350Y006850D03*
X021350Y005350D03*
X022100Y004100D03*
D16*
X017850Y005350D02*
X017850Y002350D01*
X017350Y001850D01*
X017350Y002850D02*
X017350Y005850D01*
X017850Y006350D01*
X016850Y006350D02*
X016350Y005850D01*
X016350Y004850D01*
X015350Y003850D01*
X015350Y002850D01*
X014850Y002350D02*
X014850Y003850D01*
X015850Y004850D01*
X015850Y005350D01*
X015350Y004850D02*
X015350Y005850D01*
X015850Y006350D01*
X014850Y006350D02*
X014350Y005850D01*
X014350Y004850D01*
X013350Y003850D01*
X013350Y002850D01*
X013850Y002350D02*
X013850Y003850D01*
X014850Y004850D01*
X014850Y005350D01*
X015350Y004850D02*
X014350Y003850D01*
X014350Y002850D01*
X013850Y002350D02*
X013350Y001850D01*
X012350Y001850D02*
X011850Y002350D01*
X011850Y003350D01*
X011350Y003850D01*
X010350Y003850D01*
X009850Y004350D01*
X009850Y005350D01*
X010350Y004850D02*
X010350Y005850D01*
X009850Y006350D01*
X009350Y005850D02*
X008850Y006350D01*
X009350Y005850D02*
X009350Y004350D01*
X010350Y003350D01*
X010350Y002850D01*
X009850Y002350D02*
X009850Y003350D01*
X008850Y004350D01*
X008850Y005350D01*
X008350Y005850D02*
X007850Y006350D01*
X007350Y005850D02*
X006850Y006350D01*
X006350Y005850D02*
X006350Y004350D01*
X007350Y003350D01*
X007350Y002850D01*
X006850Y002350D02*
X006850Y003350D01*
X005850Y004350D01*
X005850Y005350D01*
X006350Y005850D02*
X005850Y006350D01*
X006850Y005350D02*
X006850Y004350D01*
X007850Y003350D01*
X007850Y002350D01*
X008350Y001850D01*
X008850Y002350D02*
X008850Y003350D01*
X007850Y004350D01*
X007850Y005350D01*
X007350Y005850D02*
X007350Y004350D01*
X008350Y003350D01*
X008350Y002850D01*
X008850Y002350D02*
X009350Y001850D01*
X009850Y002350D02*
X010350Y001850D01*
X009350Y002850D02*
X009350Y003350D01*
X008350Y004350D01*
X008350Y005850D01*
X010350Y004850D02*
X010850Y004350D01*
X011350Y004350D01*
X012350Y003350D01*
X012350Y002850D01*
X014350Y001850D02*
X014850Y002350D01*
X015350Y001850D02*
X015850Y002350D01*
X015850Y003850D01*
X016850Y004850D01*
X016850Y005350D01*
X007350Y001850D02*
X006850Y002350D01*
M02*
