G04 Layer_Color=65535*
%FSLAX25Y25*%
%MOIN*%
G70*
G01*
G75*
%ADD31C,0.00984*%
%ADD32C,0.02362*%
%ADD33C,0.01000*%
%ADD34C,0.00787*%
G36*
X481496Y462992D02*
X292520D01*
Y479134D01*
X481496D01*
Y462992D01*
D02*
G37*
%LPC*%
G36*
X315998Y473429D02*
X313721D01*
Y473096D01*
X313798Y473074D01*
X313865Y473041D01*
X313910Y473018D01*
X313943Y472996D01*
X313987Y472974D01*
X313999Y472963D01*
X314032Y472918D01*
X314043Y472863D01*
X314054Y472818D01*
Y472807D01*
Y472796D01*
Y468063D01*
X314043Y467985D01*
X314032Y467919D01*
X314010Y467885D01*
X313999Y467874D01*
X313976Y467852D01*
X313932Y467830D01*
X313843Y467797D01*
X313798Y467774D01*
X313754Y467763D01*
X313732Y467752D01*
X313721D01*
Y467430D01*
X315998D01*
Y467752D01*
X315921Y467774D01*
X315854Y467797D01*
X315809Y467819D01*
X315765Y467841D01*
X315721Y467863D01*
X315709Y467874D01*
X315687Y467930D01*
X315676Y467997D01*
X315665Y468041D01*
Y468063D01*
Y472796D01*
X315676Y472874D01*
X315687Y472929D01*
X315698Y472963D01*
X315709Y472974D01*
X315732Y472996D01*
X315776Y473018D01*
X315876Y473052D01*
X315921Y473074D01*
X315965Y473085D01*
X315987Y473096D01*
X315998D01*
Y473429D01*
D02*
G37*
G36*
X320931D02*
X316854D01*
Y473096D01*
X316932Y473074D01*
X316998Y473041D01*
X317043Y473018D01*
X317076Y472996D01*
X317120Y472974D01*
X317131Y472963D01*
X317165Y472918D01*
X317176Y472863D01*
X317187Y472818D01*
Y472807D01*
Y472796D01*
Y468063D01*
X317176Y467985D01*
X317165Y467919D01*
X317143Y467885D01*
X317131Y467874D01*
X317109Y467852D01*
X317065Y467830D01*
X316976Y467797D01*
X316932Y467774D01*
X316887Y467763D01*
X316865Y467752D01*
X316854D01*
Y467430D01*
X319131D01*
Y467752D01*
X319054Y467774D01*
X318987Y467797D01*
X318942Y467819D01*
X318898Y467841D01*
X318854Y467863D01*
X318843Y467874D01*
X318820Y467930D01*
X318809Y467997D01*
X318798Y468041D01*
Y468063D01*
Y469819D01*
X320976D01*
X321187Y469841D01*
X321387Y469863D01*
X321564Y469885D01*
X321731Y469919D01*
X321887Y469963D01*
X322031Y469996D01*
X322153Y470041D01*
X322264Y470085D01*
X322353Y470119D01*
X322442Y470163D01*
X322509Y470196D01*
X322553Y470219D01*
X322586Y470241D01*
X322609Y470263D01*
X322620D01*
X322731Y470352D01*
X322831Y470452D01*
X322909Y470552D01*
X322987Y470663D01*
X323053Y470774D01*
X323098Y470896D01*
X323175Y471118D01*
X323220Y471318D01*
X323231Y471407D01*
X323242Y471474D01*
X323253Y471541D01*
Y471585D01*
Y471619D01*
Y471630D01*
X323242Y471796D01*
X323220Y471963D01*
X323186Y472107D01*
X323153Y472229D01*
X323120Y472330D01*
X323087Y472407D01*
X323064Y472452D01*
X323053Y472474D01*
X322975Y472607D01*
X322875Y472729D01*
X322786Y472829D01*
X322698Y472918D01*
X322609Y472985D01*
X322542Y473041D01*
X322498Y473063D01*
X322487Y473074D01*
X322375Y473141D01*
X322242Y473196D01*
X321964Y473285D01*
X321675Y473341D01*
X321398Y473385D01*
X321265Y473396D01*
X321142Y473407D01*
X321031Y473418D01*
X320931Y473429D01*
D02*
G37*
G36*
X342973D02*
X340696D01*
Y473096D01*
X340774Y473074D01*
X340840Y473052D01*
X340885Y473030D01*
X340918Y473007D01*
X340963Y472985D01*
X340974Y472974D01*
X341007Y472918D01*
X341018Y472863D01*
X341029Y472818D01*
Y472807D01*
Y472796D01*
Y471207D01*
X338018D01*
Y472796D01*
X338029Y472874D01*
X338041Y472929D01*
X338052Y472963D01*
X338063Y472974D01*
X338085Y472996D01*
X338129Y473018D01*
X338229Y473052D01*
X338274Y473074D01*
X338318Y473085D01*
X338340Y473096D01*
X338352D01*
Y473429D01*
X336074D01*
Y473096D01*
X336152Y473074D01*
X336219Y473041D01*
X336263Y473018D01*
X336296Y472996D01*
X336341Y472974D01*
X336352Y472963D01*
X336385Y472918D01*
X336396Y472863D01*
X336407Y472818D01*
Y472807D01*
Y472796D01*
Y468063D01*
X336396Y467985D01*
X336385Y467919D01*
X336363Y467885D01*
X336352Y467874D01*
X336330Y467852D01*
X336285Y467830D01*
X336196Y467797D01*
X336152Y467774D01*
X336107Y467763D01*
X336085Y467752D01*
X336074D01*
Y467430D01*
X338352D01*
Y467752D01*
X338274Y467774D01*
X338207Y467797D01*
X338163Y467819D01*
X338118Y467841D01*
X338074Y467863D01*
X338063Y467874D01*
X338041Y467930D01*
X338029Y467997D01*
X338018Y468041D01*
Y468063D01*
Y469952D01*
X341029D01*
Y468063D01*
X341018Y467985D01*
X341007Y467919D01*
X340985Y467885D01*
X340974Y467874D01*
X340951Y467852D01*
X340907Y467830D01*
X340818Y467786D01*
X340774Y467774D01*
X340729Y467763D01*
X340707Y467752D01*
X340696D01*
Y467430D01*
X342973D01*
Y467752D01*
X342896Y467774D01*
X342829Y467797D01*
X342785Y467819D01*
X342740Y467841D01*
X342696Y467863D01*
X342685Y467874D01*
X342662Y467930D01*
X342651Y467997D01*
X342640Y468041D01*
Y468063D01*
Y472796D01*
X342651Y472874D01*
X342662Y472929D01*
X342673Y472963D01*
X342685Y472974D01*
X342707Y472996D01*
X342751Y473018D01*
X342851Y473052D01*
X342896Y473074D01*
X342940Y473085D01*
X342962Y473096D01*
X342973D01*
Y473429D01*
D02*
G37*
G36*
X312788D02*
X310510D01*
Y473096D01*
X310588Y473074D01*
X310654Y473052D01*
X310699Y473030D01*
X310732Y473007D01*
X310777Y472985D01*
X310788Y472974D01*
X310821Y472918D01*
X310832Y472863D01*
X310843Y472818D01*
Y472807D01*
Y472796D01*
Y471207D01*
X307833D01*
Y472796D01*
X307844Y472874D01*
X307855Y472929D01*
X307866Y472963D01*
X307877Y472974D01*
X307899Y472996D01*
X307944Y473018D01*
X308044Y473052D01*
X308088Y473074D01*
X308132Y473085D01*
X308155Y473096D01*
X308166D01*
Y473429D01*
X305888D01*
Y473096D01*
X305966Y473074D01*
X306033Y473041D01*
X306077Y473018D01*
X306110Y472996D01*
X306155Y472974D01*
X306166Y472963D01*
X306199Y472918D01*
X306210Y472863D01*
X306222Y472818D01*
Y472807D01*
Y472796D01*
Y468063D01*
X306210Y467985D01*
X306199Y467919D01*
X306177Y467885D01*
X306166Y467874D01*
X306144Y467852D01*
X306099Y467830D01*
X306010Y467797D01*
X305966Y467774D01*
X305922Y467763D01*
X305899Y467752D01*
X305888D01*
Y467430D01*
X308166D01*
Y467752D01*
X308088Y467774D01*
X308021Y467797D01*
X307977Y467819D01*
X307932Y467841D01*
X307888Y467863D01*
X307877Y467874D01*
X307855Y467930D01*
X307844Y467997D01*
X307833Y468041D01*
Y468063D01*
Y469952D01*
X310843D01*
Y468063D01*
X310832Y467985D01*
X310821Y467919D01*
X310799Y467885D01*
X310788Y467874D01*
X310766Y467852D01*
X310721Y467830D01*
X310632Y467786D01*
X310588Y467774D01*
X310543Y467763D01*
X310521Y467752D01*
X310510D01*
Y467430D01*
X312788D01*
Y467752D01*
X312710Y467774D01*
X312643Y467797D01*
X312599Y467819D01*
X312554Y467841D01*
X312510Y467863D01*
X312499Y467874D01*
X312476Y467930D01*
X312465Y467997D01*
X312454Y468041D01*
Y468063D01*
Y472796D01*
X312465Y472874D01*
X312476Y472929D01*
X312488Y472963D01*
X312499Y472974D01*
X312521Y472996D01*
X312565Y473018D01*
X312665Y473052D01*
X312710Y473074D01*
X312754Y473085D01*
X312776Y473096D01*
X312788D01*
Y473429D01*
D02*
G37*
G36*
X395713Y474818D02*
X395513D01*
X395190Y474807D01*
X394890Y474785D01*
X394624Y474752D01*
X394368Y474707D01*
X394135Y474651D01*
X393924Y474596D01*
X393735Y474529D01*
X393557Y474463D01*
X393413Y474396D01*
X393291Y474329D01*
X393179Y474274D01*
X393091Y474218D01*
X393024Y474174D01*
X392968Y474141D01*
X392946Y474118D01*
X392935Y474107D01*
X392824Y474007D01*
X392735Y473896D01*
X392657Y473796D01*
X392580Y473685D01*
X392468Y473463D01*
X392402Y473263D01*
X392357Y473085D01*
X392346Y473007D01*
X392335Y472941D01*
X392324Y472896D01*
Y472852D01*
Y472829D01*
Y472818D01*
X392335Y472618D01*
X392380Y472441D01*
X392446Y472274D01*
X392524Y472130D01*
X392613Y471985D01*
X392724Y471863D01*
X392835Y471752D01*
X392957Y471663D01*
X393079Y471574D01*
X393191Y471507D01*
X393302Y471452D01*
X393391Y471396D01*
X393479Y471363D01*
X393535Y471341D01*
X393579Y471318D01*
X393591D01*
X393313Y471241D01*
X393068Y471152D01*
X392868Y471041D01*
X392691Y470907D01*
X392535Y470774D01*
X392402Y470641D01*
X392302Y470496D01*
X392224Y470352D01*
X392157Y470208D01*
X392102Y470085D01*
X392069Y469963D01*
X392046Y469852D01*
X392035Y469763D01*
X392024Y469697D01*
Y469652D01*
Y469641D01*
X392035Y469408D01*
X392080Y469197D01*
X392135Y468996D01*
X392213Y468830D01*
X392280Y468674D01*
X392335Y468574D01*
X392357Y468530D01*
X392380Y468497D01*
X392391Y468485D01*
Y468474D01*
X392535Y468286D01*
X392702Y468130D01*
X392857Y467985D01*
X393002Y467885D01*
X393135Y467797D01*
X393246Y467730D01*
X393313Y467697D01*
X393324Y467686D01*
X393335D01*
X393679Y467563D01*
X394035Y467463D01*
X394402Y467397D01*
X394746Y467352D01*
X394901Y467341D01*
X395046Y467330D01*
X395179Y467319D01*
X395290D01*
X395390Y467308D01*
X395513D01*
X395868Y467319D01*
X396190Y467341D01*
X396490Y467386D01*
X396768Y467430D01*
X397024Y467486D01*
X397246Y467552D01*
X397457Y467630D01*
X397635Y467708D01*
X397790Y467774D01*
X397935Y467852D01*
X398046Y467919D01*
X398134Y467974D01*
X398212Y468019D01*
X398257Y468063D01*
X398290Y468085D01*
X398301Y468097D01*
X398423Y468219D01*
X398534Y468352D01*
X398635Y468485D01*
X398712Y468619D01*
X398779Y468752D01*
X398834Y468885D01*
X398923Y469130D01*
X398979Y469341D01*
X398990Y469430D01*
X399001Y469508D01*
X399012Y469563D01*
Y469608D01*
Y469641D01*
Y469652D01*
X398990Y469885D01*
X398946Y470108D01*
X398868Y470296D01*
X398768Y470474D01*
X398646Y470630D01*
X398512Y470763D01*
X398368Y470874D01*
X398223Y470985D01*
X398079Y471063D01*
X397935Y471141D01*
X397801Y471196D01*
X397679Y471241D01*
X397579Y471274D01*
X397501Y471296D01*
X397457Y471318D01*
X397435D01*
X397657Y471407D01*
X397857Y471496D01*
X398024Y471607D01*
X398179Y471730D01*
X398301Y471852D01*
X398401Y471974D01*
X398490Y472096D01*
X398557Y472218D01*
X398601Y472341D01*
X398646Y472452D01*
X398679Y472552D01*
X398690Y472641D01*
X398701Y472718D01*
X398712Y472774D01*
Y472807D01*
Y472818D01*
X398701Y473018D01*
X398657Y473207D01*
X398612Y473374D01*
X398546Y473518D01*
X398490Y473629D01*
X398434Y473718D01*
X398390Y473774D01*
X398379Y473796D01*
X398257Y473941D01*
X398112Y474074D01*
X397979Y474185D01*
X397846Y474274D01*
X397735Y474352D01*
X397646Y474396D01*
X397579Y474429D01*
X397568Y474440D01*
X397557D01*
X397235Y474563D01*
X396890Y474663D01*
X396546Y474729D01*
X396224Y474774D01*
X396079Y474785D01*
X395946Y474796D01*
X395824Y474807D01*
X395713Y474818D01*
D02*
G37*
G36*
X346184Y473429D02*
X343907D01*
Y473096D01*
X343984Y473074D01*
X344051Y473041D01*
X344095Y473018D01*
X344129Y472996D01*
X344173Y472974D01*
X344184Y472963D01*
X344218Y472918D01*
X344229Y472863D01*
X344240Y472818D01*
Y472807D01*
Y472796D01*
Y468063D01*
X344229Y467985D01*
X344218Y467919D01*
X344196Y467885D01*
X344184Y467874D01*
X344162Y467852D01*
X344118Y467830D01*
X344029Y467797D01*
X343984Y467774D01*
X343940Y467763D01*
X343918Y467752D01*
X343907D01*
Y467430D01*
X346184D01*
Y467752D01*
X346106Y467774D01*
X346040Y467797D01*
X345995Y467819D01*
X345951Y467841D01*
X345906Y467863D01*
X345895Y467874D01*
X345873Y467930D01*
X345862Y467997D01*
X345851Y468041D01*
Y468063D01*
Y472796D01*
X345862Y472874D01*
X345873Y472929D01*
X345884Y472963D01*
X345895Y472974D01*
X345918Y472996D01*
X345962Y473018D01*
X346062Y473052D01*
X346106Y473074D01*
X346151Y473085D01*
X346173Y473096D01*
X346184D01*
Y473429D01*
D02*
G37*
G36*
X386169D02*
X382014D01*
Y473096D01*
X382092Y473074D01*
X382158Y473041D01*
X382203Y473018D01*
X382236Y472996D01*
X382281Y472974D01*
X382292Y472963D01*
X382325Y472918D01*
X382336Y472863D01*
X382347Y472818D01*
Y472807D01*
Y472796D01*
Y468063D01*
X382336Y467985D01*
X382325Y467919D01*
X382303Y467885D01*
X382292Y467874D01*
X382270Y467852D01*
X382225Y467830D01*
X382136Y467797D01*
X382092Y467774D01*
X382047Y467763D01*
X382025Y467752D01*
X382014D01*
Y467430D01*
X384292D01*
Y467752D01*
X384214Y467774D01*
X384147Y467797D01*
X384103Y467819D01*
X384058Y467841D01*
X384014Y467863D01*
X384003Y467874D01*
X383980Y467930D01*
X383969Y467997D01*
X383958Y468041D01*
Y468063D01*
Y469808D01*
X385180D01*
X386358Y468141D01*
X386414Y468041D01*
X386436Y467963D01*
X386447Y467919D01*
Y467908D01*
X386436Y467874D01*
X386402Y467852D01*
X386358Y467830D01*
X386314Y467797D01*
X386269Y467786D01*
X386225Y467763D01*
X386191Y467752D01*
X386180D01*
Y467430D01*
X388836D01*
Y467763D01*
X388736Y467786D01*
X388647Y467808D01*
X388569Y467841D01*
X388502Y467874D01*
X388447Y467897D01*
X388413Y467919D01*
X388391Y467941D01*
X388380D01*
X388313Y468008D01*
X388247Y468085D01*
X388091Y468274D01*
X388024Y468363D01*
X387969Y468441D01*
X387936Y468485D01*
X387925Y468508D01*
X386847Y469908D01*
X387124Y469974D01*
X387369Y470052D01*
X387580Y470152D01*
X387758Y470241D01*
X387891Y470330D01*
X387980Y470407D01*
X388036Y470452D01*
X388058Y470474D01*
X388202Y470641D01*
X388302Y470841D01*
X388380Y471030D01*
X388424Y471218D01*
X388458Y471396D01*
X388469Y471463D01*
Y471530D01*
X388480Y471585D01*
Y471619D01*
Y471641D01*
Y471652D01*
X388469Y471830D01*
X388447Y471985D01*
X388413Y472141D01*
X388369Y472285D01*
X388324Y472407D01*
X388258Y472518D01*
X388202Y472629D01*
X388136Y472718D01*
X388069Y472796D01*
X388013Y472874D01*
X387902Y472974D01*
X387858Y473018D01*
X387825Y473041D01*
X387802Y473063D01*
X387791D01*
X387669Y473129D01*
X387547Y473196D01*
X387424Y473241D01*
X387313Y473274D01*
X387213Y473307D01*
X387136Y473329D01*
X387091Y473341D01*
X387069D01*
X386902Y473374D01*
X386714Y473396D01*
X386525Y473407D01*
X386336Y473418D01*
X386169Y473429D01*
D02*
G37*
G36*
X453618D02*
X449463D01*
Y473096D01*
X449541Y473074D01*
X449607Y473041D01*
X449652Y473018D01*
X449685Y472996D01*
X449729Y472974D01*
X449741Y472963D01*
X449774Y472918D01*
X449785Y472863D01*
X449796Y472818D01*
Y472807D01*
Y472796D01*
Y468063D01*
X449785Y467985D01*
X449774Y467919D01*
X449752Y467885D01*
X449741Y467874D01*
X449718Y467852D01*
X449674Y467830D01*
X449585Y467797D01*
X449541Y467774D01*
X449496Y467763D01*
X449474Y467752D01*
X449463D01*
Y467430D01*
X451740D01*
Y467752D01*
X451662Y467774D01*
X451596Y467797D01*
X451551Y467819D01*
X451507Y467841D01*
X451463Y467863D01*
X451451Y467874D01*
X451429Y467930D01*
X451418Y467997D01*
X451407Y468041D01*
Y468063D01*
Y469808D01*
X452629D01*
X453807Y468141D01*
X453862Y468041D01*
X453885Y467963D01*
X453896Y467919D01*
Y467908D01*
X453885Y467874D01*
X453851Y467852D01*
X453807Y467830D01*
X453762Y467797D01*
X453718Y467786D01*
X453673Y467763D01*
X453640Y467752D01*
X453629D01*
Y467430D01*
X456284D01*
Y467763D01*
X456184Y467786D01*
X456095Y467808D01*
X456018Y467841D01*
X455951Y467874D01*
X455895Y467897D01*
X455862Y467919D01*
X455840Y467941D01*
X455829D01*
X455762Y468008D01*
X455695Y468085D01*
X455540Y468274D01*
X455473Y468363D01*
X455418Y468441D01*
X455384Y468485D01*
X455373Y468508D01*
X454296Y469908D01*
X454573Y469974D01*
X454818Y470052D01*
X455029Y470152D01*
X455207Y470241D01*
X455340Y470330D01*
X455429Y470407D01*
X455484Y470452D01*
X455507Y470474D01*
X455651Y470641D01*
X455751Y470841D01*
X455829Y471030D01*
X455873Y471218D01*
X455906Y471396D01*
X455918Y471463D01*
Y471530D01*
X455929Y471585D01*
Y471619D01*
Y471641D01*
Y471652D01*
X455918Y471830D01*
X455895Y471985D01*
X455862Y472141D01*
X455818Y472285D01*
X455773Y472407D01*
X455707Y472518D01*
X455651Y472629D01*
X455584Y472718D01*
X455518Y472796D01*
X455462Y472874D01*
X455351Y472974D01*
X455307Y473018D01*
X455273Y473041D01*
X455251Y473063D01*
X455240D01*
X455118Y473129D01*
X454995Y473196D01*
X454873Y473241D01*
X454762Y473274D01*
X454662Y473307D01*
X454585Y473329D01*
X454540Y473341D01*
X454518D01*
X454351Y473374D01*
X454162Y473396D01*
X453973Y473407D01*
X453785Y473418D01*
X453618Y473429D01*
D02*
G37*
G36*
X446419D02*
X443952D01*
Y473107D01*
X444052Y473063D01*
X444119Y473018D01*
X444174Y472974D01*
X444208Y472929D01*
X444230Y472896D01*
X444241Y472874D01*
Y472863D01*
Y472852D01*
X444219Y472718D01*
X444185Y472596D01*
X444163Y472552D01*
X444152Y472507D01*
X444130Y472485D01*
Y472474D01*
X442019Y468186D01*
X441975Y468108D01*
X441941Y468030D01*
X441908Y467985D01*
X441875Y467941D01*
X441852Y467908D01*
X441830Y467885D01*
X441819Y467874D01*
X441786Y467852D01*
X441741Y467830D01*
X441630Y467797D01*
X441575Y467786D01*
X441541Y467774D01*
X441508Y467763D01*
X441497D01*
Y467430D01*
X443852D01*
Y467763D01*
X443741Y467797D01*
X443652Y467830D01*
X443597Y467863D01*
X443552Y467908D01*
X443530Y467941D01*
X443519Y467974D01*
X443508Y467985D01*
Y467997D01*
X443519Y468097D01*
X443563Y468197D01*
X443574Y468241D01*
X443597Y468274D01*
X443608Y468297D01*
Y468308D01*
X443886Y468885D01*
X446408D01*
X446696Y468341D01*
X446741Y468263D01*
X446763Y468197D01*
X446807Y468085D01*
Y468052D01*
X446819Y468019D01*
Y468008D01*
Y467997D01*
X446807Y467941D01*
X446763Y467885D01*
X446719Y467841D01*
X446652Y467819D01*
X446596Y467786D01*
X446541Y467774D01*
X446496Y467763D01*
X446485D01*
Y467430D01*
X449063D01*
Y467763D01*
X448974Y467786D01*
X448896Y467797D01*
X448830Y467819D01*
X448785Y467841D01*
X448752Y467863D01*
X448730Y467874D01*
X448707Y467885D01*
X448674Y467930D01*
X448630Y467985D01*
X448541Y468130D01*
X448507Y468197D01*
X448474Y468252D01*
X448452Y468297D01*
X448441Y468308D01*
X446252Y472452D01*
X446185Y472607D01*
X446152Y472729D01*
Y472774D01*
X446141Y472807D01*
Y472818D01*
Y472829D01*
X446152Y472885D01*
X446185Y472941D01*
X446230Y472985D01*
X446285Y473030D01*
X446330Y473063D01*
X446374Y473085D01*
X446408Y473107D01*
X446419D01*
Y473429D01*
D02*
G37*
G36*
X357772D02*
X353695D01*
Y473096D01*
X353772Y473074D01*
X353839Y473041D01*
X353883Y473018D01*
X353917Y472996D01*
X353961Y472974D01*
X353972Y472963D01*
X354006Y472918D01*
X354017Y472863D01*
X354028Y472818D01*
Y472807D01*
Y472796D01*
Y468063D01*
X354017Y467985D01*
X354006Y467919D01*
X353983Y467885D01*
X353972Y467874D01*
X353950Y467852D01*
X353906Y467830D01*
X353817Y467797D01*
X353772Y467774D01*
X353728Y467763D01*
X353706Y467752D01*
X353695D01*
Y467430D01*
X355972D01*
Y467752D01*
X355894Y467774D01*
X355828Y467797D01*
X355783Y467819D01*
X355739Y467841D01*
X355694Y467863D01*
X355683Y467874D01*
X355661Y467930D01*
X355650Y467997D01*
X355639Y468041D01*
Y468063D01*
Y469819D01*
X357816D01*
X358027Y469841D01*
X358227Y469863D01*
X358405Y469885D01*
X358572Y469919D01*
X358727Y469963D01*
X358872Y469996D01*
X358994Y470041D01*
X359105Y470085D01*
X359194Y470119D01*
X359283Y470163D01*
X359349Y470196D01*
X359394Y470219D01*
X359427Y470241D01*
X359450Y470263D01*
X359461D01*
X359572Y470352D01*
X359672Y470452D01*
X359750Y470552D01*
X359827Y470663D01*
X359894Y470774D01*
X359938Y470896D01*
X360016Y471118D01*
X360061Y471318D01*
X360072Y471407D01*
X360083Y471474D01*
X360094Y471541D01*
Y471585D01*
Y471619D01*
Y471630D01*
X360083Y471796D01*
X360061Y471963D01*
X360027Y472107D01*
X359994Y472229D01*
X359961Y472330D01*
X359927Y472407D01*
X359905Y472452D01*
X359894Y472474D01*
X359816Y472607D01*
X359716Y472729D01*
X359627Y472829D01*
X359538Y472918D01*
X359450Y472985D01*
X359383Y473041D01*
X359338Y473063D01*
X359327Y473074D01*
X359216Y473141D01*
X359083Y473196D01*
X358805Y473285D01*
X358516Y473341D01*
X358239Y473385D01*
X358105Y473396D01*
X357983Y473407D01*
X357872Y473418D01*
X357772Y473429D01*
D02*
G37*
G36*
X335674Y474696D02*
X333019D01*
Y474329D01*
X333141Y474307D01*
X333230Y474274D01*
X333297Y474240D01*
X333341Y474207D01*
X333363Y474174D01*
X333385Y474152D01*
Y474141D01*
Y474129D01*
X333374Y474018D01*
X333341Y473907D01*
X333330Y473852D01*
X333308Y473807D01*
X333297Y473785D01*
Y473774D01*
X332008Y470152D01*
X330452Y473885D01*
X330497Y473929D01*
X330530Y473974D01*
X330575Y474041D01*
X330586Y474074D01*
Y474085D01*
X330597Y474141D01*
X330641Y474196D01*
X330697Y474229D01*
X330764Y474274D01*
X330830Y474296D01*
X330886Y474318D01*
X330930Y474340D01*
X330941D01*
Y474696D01*
X328164D01*
Y474329D01*
X328275Y474296D01*
X328364Y474274D01*
X328419Y474229D01*
X328464Y474196D01*
X328486Y474163D01*
X328508Y474141D01*
Y474129D01*
Y474118D01*
Y474085D01*
X328497Y474052D01*
X328464Y473952D01*
X328453Y473907D01*
X328430Y473863D01*
X328419Y473841D01*
Y473829D01*
X327008Y470152D01*
X325720Y473807D01*
X325675Y473941D01*
X325653Y474041D01*
X325642Y474096D01*
Y474118D01*
X325653Y474174D01*
X325697Y474207D01*
X325742Y474252D01*
X325808Y474274D01*
X325864Y474296D01*
X325920Y474318D01*
X325953Y474329D01*
X325964D01*
Y474696D01*
X323298D01*
Y474329D01*
X323398Y474307D01*
X323475Y474274D01*
X323542Y474252D01*
X323587Y474218D01*
X323631Y474196D01*
X323653Y474174D01*
X323675Y474163D01*
Y474152D01*
X323720Y474096D01*
X323764Y474029D01*
X323842Y473874D01*
X323875Y473796D01*
X323898Y473729D01*
X323909Y473685D01*
X323920Y473674D01*
X325975Y468408D01*
X326008Y468308D01*
X326042Y468230D01*
X326064Y468163D01*
X326075Y468119D01*
X326086Y468085D01*
Y468063D01*
Y468052D01*
X326075Y467985D01*
X326031Y467930D01*
X325975Y467885D01*
X325920Y467841D01*
X325853Y467819D01*
X325797Y467797D01*
X325753Y467786D01*
X325742D01*
Y467430D01*
X328241D01*
Y467774D01*
X328108Y467819D01*
X328019Y467863D01*
X327953Y467908D01*
X327897Y467941D01*
X327875Y467985D01*
X327864Y468019D01*
X327853Y468030D01*
Y468041D01*
X327864Y468074D01*
X327875Y468119D01*
X327919Y468230D01*
X327942Y468286D01*
X327964Y468330D01*
X327986Y468363D01*
Y468374D01*
X329486Y472385D01*
X330941Y468474D01*
X330997Y468352D01*
X331030Y468263D01*
X331064Y468186D01*
X331075Y468130D01*
X331086Y468097D01*
X331097Y468063D01*
Y468052D01*
X331086Y467985D01*
X331041Y467919D01*
X330986Y467874D01*
X330919Y467841D01*
X330841Y467819D01*
X330786Y467797D01*
X330741Y467786D01*
X330730D01*
Y467430D01*
X333252D01*
Y467786D01*
X333130Y467819D01*
X333041Y467852D01*
X332974Y467885D01*
X332930Y467930D01*
X332908Y467963D01*
X332897Y467997D01*
X332886Y468008D01*
Y468019D01*
X332897Y468063D01*
X332908Y468130D01*
X332963Y468286D01*
X332985Y468352D01*
X333008Y468419D01*
X333019Y468463D01*
X333030Y468474D01*
X335041Y473674D01*
X335096Y473807D01*
X335141Y473918D01*
X335185Y473996D01*
X335219Y474063D01*
X335241Y474107D01*
X335263Y474129D01*
X335274Y474152D01*
X335319Y474185D01*
X335374Y474218D01*
X335507Y474285D01*
X335574Y474307D01*
X335630Y474329D01*
X335663Y474340D01*
X335674D01*
Y474696D01*
D02*
G37*
G36*
X371826Y473429D02*
X367671D01*
Y473096D01*
X367749Y473074D01*
X367815Y473041D01*
X367860Y473018D01*
X367893Y472996D01*
X367938Y472974D01*
X367949Y472963D01*
X367982Y472918D01*
X367993Y472863D01*
X368004Y472818D01*
Y472807D01*
Y472796D01*
Y468063D01*
X367993Y467985D01*
X367982Y467919D01*
X367960Y467885D01*
X367949Y467874D01*
X367927Y467852D01*
X367882Y467830D01*
X367793Y467797D01*
X367749Y467774D01*
X367704Y467763D01*
X367682Y467752D01*
X367671D01*
Y467430D01*
X369949D01*
Y467752D01*
X369871Y467774D01*
X369804Y467797D01*
X369760Y467819D01*
X369715Y467841D01*
X369671Y467863D01*
X369660Y467874D01*
X369637Y467930D01*
X369626Y467997D01*
X369615Y468041D01*
Y468063D01*
Y469808D01*
X370837D01*
X372015Y468141D01*
X372071Y468041D01*
X372093Y467963D01*
X372104Y467919D01*
Y467908D01*
X372093Y467874D01*
X372059Y467852D01*
X372015Y467830D01*
X371971Y467797D01*
X371926Y467786D01*
X371882Y467763D01*
X371848Y467752D01*
X371837D01*
Y467430D01*
X374493D01*
Y467763D01*
X374393Y467786D01*
X374304Y467808D01*
X374226Y467841D01*
X374159Y467874D01*
X374104Y467897D01*
X374070Y467919D01*
X374048Y467941D01*
X374037D01*
X373970Y468008D01*
X373904Y468085D01*
X373748Y468274D01*
X373681Y468363D01*
X373626Y468441D01*
X373593Y468485D01*
X373581Y468508D01*
X372504Y469908D01*
X372781Y469974D01*
X373026Y470052D01*
X373237Y470152D01*
X373415Y470241D01*
X373548Y470330D01*
X373637Y470407D01*
X373692Y470452D01*
X373715Y470474D01*
X373859Y470641D01*
X373959Y470841D01*
X374037Y471030D01*
X374081Y471218D01*
X374115Y471396D01*
X374126Y471463D01*
Y471530D01*
X374137Y471585D01*
Y471619D01*
Y471641D01*
Y471652D01*
X374126Y471830D01*
X374104Y471985D01*
X374070Y472141D01*
X374026Y472285D01*
X373981Y472407D01*
X373915Y472518D01*
X373859Y472629D01*
X373793Y472718D01*
X373726Y472796D01*
X373670Y472874D01*
X373559Y472974D01*
X373515Y473018D01*
X373481Y473041D01*
X373459Y473063D01*
X373448D01*
X373326Y473129D01*
X373204Y473196D01*
X373081Y473241D01*
X372970Y473274D01*
X372870Y473307D01*
X372793Y473329D01*
X372748Y473341D01*
X372726D01*
X372559Y473374D01*
X372371Y473396D01*
X372182Y473407D01*
X371993Y473418D01*
X371826Y473429D01*
D02*
G37*
G36*
X477215Y473763D02*
X476871D01*
X476849Y473685D01*
X476827Y473618D01*
X476804Y473563D01*
X476782Y473529D01*
X476771Y473496D01*
X476760Y473485D01*
X476749Y473474D01*
X476693Y473452D01*
X476638Y473441D01*
X476593Y473429D01*
X471794D01*
X471716Y473441D01*
X471661Y473452D01*
X471627Y473463D01*
X471616Y473474D01*
X471594Y473496D01*
X471572Y473540D01*
X471538Y473640D01*
X471516Y473685D01*
X471505Y473729D01*
X471494Y473752D01*
Y473763D01*
X471161D01*
Y471841D01*
X471494D01*
X471516Y471918D01*
X471538Y471974D01*
X471560Y472030D01*
X471583Y472063D01*
X471605Y472107D01*
X471616Y472118D01*
X471672Y472152D01*
X471727Y472163D01*
X471772Y472174D01*
X473383D01*
Y468063D01*
X473372Y467985D01*
X473360Y467919D01*
X473338Y467885D01*
X473327Y467874D01*
X473305Y467852D01*
X473260Y467830D01*
X473172Y467797D01*
X473127Y467774D01*
X473083Y467763D01*
X473060Y467752D01*
X473049D01*
Y467430D01*
X475327D01*
Y467752D01*
X475249Y467774D01*
X475182Y467797D01*
X475138Y467819D01*
X475094Y467841D01*
X475049Y467863D01*
X475038Y467874D01*
X475016Y467930D01*
X475005Y467997D01*
X474994Y468041D01*
Y468063D01*
Y472174D01*
X476571D01*
X476649Y472163D01*
X476705Y472152D01*
X476738Y472130D01*
X476749Y472118D01*
X476771Y472096D01*
X476793Y472052D01*
X476827Y471963D01*
X476849Y471918D01*
X476860Y471874D01*
X476871Y471852D01*
Y471841D01*
X477215D01*
Y473763D01*
D02*
G37*
G36*
X423010Y475029D02*
X422643D01*
X422621Y474952D01*
X422588Y474885D01*
X422565Y474829D01*
X422543Y474796D01*
X422532Y474763D01*
X422521Y474752D01*
X422510Y474740D01*
X422465Y474718D01*
X422421Y474707D01*
X422377Y474696D01*
X416666D01*
Y474340D01*
X416744Y474318D01*
X416799Y474296D01*
X416855Y474274D01*
X416888Y474252D01*
X416933Y474229D01*
X416944Y474218D01*
X416977Y474163D01*
X416988Y474107D01*
X416999Y474052D01*
Y474041D01*
Y474029D01*
Y472541D01*
X416988Y472463D01*
X416977Y472407D01*
X416955Y472374D01*
X416933Y472352D01*
X416877Y472318D01*
X416833D01*
X416788Y472330D01*
X416755Y472341D01*
X416744D01*
X416566Y472096D01*
X418488Y470163D01*
X418733Y470352D01*
X418710Y470419D01*
X418688Y470474D01*
X418666Y470541D01*
X418655Y470585D01*
Y470596D01*
X418677Y470652D01*
X418733Y470696D01*
X418799Y470752D01*
X418888Y470796D01*
X418977Y470841D01*
X419044Y470874D01*
X419099Y470885D01*
X419121Y470896D01*
X419299Y470952D01*
X419488Y470996D01*
X419655Y471030D01*
X419821Y471052D01*
X419955Y471063D01*
X420066Y471074D01*
X420155D01*
X420421Y471063D01*
X420654Y471030D01*
X420855Y470974D01*
X421021Y470919D01*
X421154Y470852D01*
X421254Y470808D01*
X421310Y470763D01*
X421332Y470752D01*
X421477Y470630D01*
X421588Y470496D01*
X421665Y470352D01*
X421710Y470219D01*
X421743Y470096D01*
X421754Y470008D01*
X421766Y469941D01*
Y469930D01*
Y469919D01*
X421743Y469719D01*
X421699Y469530D01*
X421621Y469385D01*
X421543Y469252D01*
X421465Y469152D01*
X421388Y469074D01*
X421343Y469030D01*
X421321Y469019D01*
X421154Y468919D01*
X420966Y468841D01*
X420766Y468797D01*
X420577Y468752D01*
X420410Y468730D01*
X420343D01*
X420277Y468719D01*
X420155D01*
X419966Y468730D01*
X419788Y468741D01*
X419421Y468808D01*
X419088Y468896D01*
X418944Y468952D01*
X418799Y469008D01*
X418666Y469052D01*
X418544Y469108D01*
X418444Y469152D01*
X418355Y469197D01*
X418288Y469230D01*
X418232Y469263D01*
X418199Y469274D01*
X418188Y469285D01*
X418110Y469363D01*
X418044Y469430D01*
X417999Y469508D01*
X417977Y469563D01*
X417955Y469619D01*
X417944Y469663D01*
Y469685D01*
Y469697D01*
X417955Y469774D01*
X417966Y469863D01*
X417977Y469930D01*
Y469952D01*
Y469963D01*
X417710Y470130D01*
X416388Y468352D01*
X416622Y468163D01*
X416711Y468197D01*
X416777Y468230D01*
X416833Y468252D01*
X416866Y468263D01*
X416899Y468274D01*
X416933D01*
X417044Y468252D01*
X417155Y468219D01*
X417199Y468197D01*
X417233Y468186D01*
X417255Y468163D01*
X417266D01*
X417444Y468063D01*
X417588Y467974D01*
X417722Y467897D01*
X417822Y467841D01*
X417899Y467808D01*
X417955Y467774D01*
X417988Y467763D01*
X417999Y467752D01*
X418355Y467608D01*
X418733Y467497D01*
X419099Y467419D01*
X419444Y467363D01*
X419599Y467341D01*
X419743Y467330D01*
X419877Y467319D01*
X419988D01*
X420077Y467308D01*
X420199D01*
X420554Y467319D01*
X420888Y467352D01*
X421199Y467408D01*
X421477Y467486D01*
X421732Y467563D01*
X421966Y467663D01*
X422177Y467763D01*
X422354Y467874D01*
X422521Y467974D01*
X422654Y468074D01*
X422765Y468174D01*
X422865Y468252D01*
X422932Y468330D01*
X422976Y468386D01*
X423010Y468419D01*
X423021Y468430D01*
X423110Y468552D01*
X423188Y468685D01*
X423310Y468941D01*
X423399Y469197D01*
X423454Y469430D01*
X423499Y469630D01*
X423510Y469719D01*
Y469785D01*
X423521Y469852D01*
Y469896D01*
Y469919D01*
Y469930D01*
X423510Y470130D01*
X423488Y470319D01*
X423443Y470496D01*
X423388Y470663D01*
X423332Y470819D01*
X423265Y470963D01*
X423188Y471096D01*
X423110Y471207D01*
X423032Y471318D01*
X422954Y471419D01*
X422888Y471496D01*
X422832Y471563D01*
X422777Y471619D01*
X422732Y471652D01*
X422710Y471674D01*
X422699Y471685D01*
X422532Y471807D01*
X422343Y471918D01*
X422154Y472018D01*
X421954Y472096D01*
X421754Y472163D01*
X421554Y472218D01*
X421177Y472307D01*
X420999Y472341D01*
X420832Y472363D01*
X420688Y472374D01*
X420566Y472385D01*
X420455Y472396D01*
X420310D01*
X419899Y472374D01*
X419710Y472363D01*
X419532Y472330D01*
X419377Y472296D01*
X419221Y472263D01*
X419077Y472229D01*
X418955Y472185D01*
X418844Y472141D01*
X418744Y472107D01*
X418655Y472074D01*
X418588Y472041D01*
X418533Y472018D01*
X418488Y471996D01*
X418466Y471974D01*
X418455D01*
Y473285D01*
X422354D01*
X422421Y473274D01*
X422477Y473263D01*
X422499Y473241D01*
X422510Y473229D01*
X422532Y473207D01*
X422554Y473163D01*
X422599Y473074D01*
X422621Y473030D01*
X422632Y472985D01*
X422643Y472963D01*
Y472952D01*
X423010D01*
Y475029D01*
D02*
G37*
G36*
X411978Y474818D02*
X411766D01*
X411344Y474807D01*
X410944Y474752D01*
X410578Y474685D01*
X410233Y474585D01*
X409911Y474474D01*
X409633Y474352D01*
X409367Y474218D01*
X409133Y474085D01*
X408933Y473952D01*
X408756Y473818D01*
X408611Y473696D01*
X408489Y473585D01*
X408389Y473485D01*
X408322Y473418D01*
X408278Y473374D01*
X408267Y473352D01*
X408134Y473163D01*
X408011Y472974D01*
X407911Y472774D01*
X407823Y472585D01*
X407745Y472385D01*
X407689Y472196D01*
X407634Y472018D01*
X407600Y471841D01*
X407567Y471674D01*
X407545Y471530D01*
X407522Y471396D01*
X407511Y471285D01*
X407500Y471196D01*
Y471118D01*
Y471074D01*
Y471063D01*
X407511Y470885D01*
X407522Y470708D01*
X407578Y470374D01*
X407656Y470063D01*
X407700Y469919D01*
X407756Y469785D01*
X407800Y469663D01*
X407845Y469552D01*
X407889Y469463D01*
X407923Y469385D01*
X407956Y469319D01*
X407978Y469274D01*
X408000Y469241D01*
Y469230D01*
X408122Y468996D01*
X408267Y468797D01*
X408422Y468619D01*
X408567Y468474D01*
X408700Y468363D01*
X408811Y468274D01*
X408856Y468252D01*
X408889Y468230D01*
X408900Y468208D01*
X408911D01*
X409133Y468052D01*
X409356Y467908D01*
X409600Y467786D01*
X409833Y467686D01*
X410078Y467597D01*
X410311Y467530D01*
X410544Y467463D01*
X410755Y467419D01*
X410967Y467386D01*
X411156Y467352D01*
X411322Y467341D01*
X411467Y467319D01*
X411589D01*
X411678Y467308D01*
X411755D01*
X412067Y467319D01*
X412344Y467341D01*
X412600Y467363D01*
X412811Y467397D01*
X412911Y467419D01*
X412989Y467430D01*
X413066Y467441D01*
X413122Y467463D01*
X413166Y467475D01*
X413200D01*
X413222Y467486D01*
X413233D01*
X413478Y467563D01*
X413733Y467674D01*
X413988Y467786D01*
X414233Y467908D01*
X414433Y468008D01*
X414533Y468063D01*
X414611Y468097D01*
X414666Y468141D01*
X414711Y468163D01*
X414744Y468174D01*
X414755Y468186D01*
X414888Y468263D01*
X414999Y468319D01*
X415077Y468363D01*
X415144Y468386D01*
X415177Y468408D01*
X415211Y468419D01*
X415244D01*
X415277Y468397D01*
X415355Y468352D01*
X415411Y468308D01*
X415433Y468297D01*
X415444Y468286D01*
X415711Y468452D01*
X414644Y470074D01*
X414355Y469908D01*
X414366Y469819D01*
Y469774D01*
Y469741D01*
Y469730D01*
X414344Y469652D01*
X414311Y469574D01*
X414277Y469530D01*
X414255Y469508D01*
X414211Y469463D01*
X414144Y469419D01*
X414011Y469319D01*
X413944Y469285D01*
X413889Y469252D01*
X413844Y469230D01*
X413833Y469219D01*
X413666Y469130D01*
X413500Y469052D01*
X413166Y468930D01*
X412844Y468841D01*
X412566Y468785D01*
X412433Y468763D01*
X412311Y468741D01*
X412211Y468730D01*
X412122D01*
X412055Y468719D01*
X411744D01*
X411544Y468741D01*
X411355Y468752D01*
X411178Y468785D01*
X411011Y468808D01*
X410867Y468841D01*
X410733Y468885D01*
X410611Y468919D01*
X410500Y468952D01*
X410400Y468996D01*
X410322Y469030D01*
X410256Y469052D01*
X410200Y469085D01*
X410167Y469097D01*
X410145Y469119D01*
X410133D01*
X409989Y469285D01*
X409856Y469441D01*
X409745Y469608D01*
X409645Y469774D01*
X409567Y469941D01*
X409500Y470108D01*
X409445Y470263D01*
X409400Y470407D01*
X409356Y470541D01*
X409333Y470674D01*
X409311Y470785D01*
X409300Y470874D01*
Y470952D01*
X409289Y471019D01*
Y471052D01*
Y471063D01*
X409300Y471263D01*
X409322Y471463D01*
X409367Y471641D01*
X409422Y471830D01*
X409556Y472152D01*
X409633Y472307D01*
X409711Y472441D01*
X409789Y472563D01*
X409867Y472674D01*
X409933Y472763D01*
X410000Y472852D01*
X410056Y472907D01*
X410100Y472963D01*
X410122Y472985D01*
X410133Y472996D01*
X410256Y473074D01*
X410400Y473129D01*
X410689Y473229D01*
X410989Y473307D01*
X411289Y473352D01*
X411422Y473374D01*
X411544Y473385D01*
X411666Y473396D01*
X411766D01*
X411844Y473407D01*
X412144D01*
X412322Y473385D01*
X412666Y473329D01*
X412989Y473252D01*
X413133Y473207D01*
X413266Y473163D01*
X413389Y473107D01*
X413500Y473063D01*
X413600Y473018D01*
X413677Y472985D01*
X413744Y472952D01*
X413789Y472929D01*
X413822Y472918D01*
X413833Y472907D01*
X413944Y472841D01*
X414033Y472785D01*
X414111Y472741D01*
X414166Y472696D01*
X414211Y472663D01*
X414233Y472641D01*
X414255Y472618D01*
X414322Y472541D01*
X414355Y472474D01*
X414366Y472430D01*
Y472407D01*
Y472363D01*
Y472296D01*
X414355Y472229D01*
Y472218D01*
Y472207D01*
X414644Y472063D01*
X415711Y473663D01*
X415444Y473852D01*
X415388Y473807D01*
X415333Y473774D01*
X415266Y473729D01*
X415233Y473707D01*
X415222D01*
X415188Y473718D01*
X415122Y473740D01*
X415044Y473774D01*
X414966Y473818D01*
X414888Y473863D01*
X414822Y473896D01*
X414777Y473918D01*
X414755Y473929D01*
X414433Y474107D01*
X414133Y474263D01*
X413866Y474385D01*
X413644Y474474D01*
X413555Y474518D01*
X413466Y474540D01*
X413400Y474574D01*
X413333Y474596D01*
X413289Y474607D01*
X413255Y474618D01*
X413233Y474629D01*
X413222D01*
X412989Y474696D01*
X412733Y474740D01*
X412489Y474774D01*
X412266Y474796D01*
X412067Y474807D01*
X411978Y474818D01*
D02*
G37*
G36*
X441486Y475029D02*
X441119D01*
X441097Y474952D01*
X441075Y474885D01*
X441052Y474829D01*
X441030Y474796D01*
X441019Y474763D01*
X441008Y474752D01*
X440997Y474740D01*
X440952Y474718D01*
X440897Y474707D01*
X440852Y474696D01*
X434920D01*
X434842Y474707D01*
X434797Y474718D01*
X434764Y474729D01*
X434753Y474740D01*
X434731Y474763D01*
X434720Y474807D01*
X434675Y474907D01*
X434653Y474952D01*
X434642Y474996D01*
X434631Y475018D01*
Y475029D01*
X434275D01*
Y472985D01*
X434631D01*
X434653Y473063D01*
X434675Y473129D01*
X434698Y473174D01*
X434720Y473207D01*
X434742Y473252D01*
X434753Y473263D01*
X434797Y473296D01*
X434853Y473307D01*
X434898Y473318D01*
X436997D01*
Y468074D01*
X436986Y467997D01*
X436975Y467941D01*
X436953Y467908D01*
X436942Y467897D01*
X436920Y467874D01*
X436875Y467852D01*
X436786Y467819D01*
X436742Y467797D01*
X436697Y467786D01*
X436675Y467774D01*
X436664D01*
Y467430D01*
X439097D01*
Y467774D01*
X439019Y467797D01*
X438953Y467819D01*
X438897Y467841D01*
X438864Y467863D01*
X438831Y467874D01*
X438819Y467885D01*
X438808Y467897D01*
X438786Y467952D01*
X438775Y468008D01*
X438764Y468052D01*
Y468074D01*
Y473318D01*
X440830D01*
X440908Y473307D01*
X440952Y473296D01*
X440986Y473274D01*
X440997Y473263D01*
X441019Y473241D01*
X441041Y473196D01*
X441075Y473107D01*
X441097Y473063D01*
X441108Y473018D01*
X441119Y472996D01*
Y472985D01*
X441486D01*
Y475029D01*
D02*
G37*
G36*
X406656D02*
X406289D01*
X406267Y474952D01*
X406245Y474885D01*
X406223Y474829D01*
X406200Y474796D01*
X406189Y474763D01*
X406178Y474752D01*
X406167Y474740D01*
X406123Y474718D01*
X406067Y474707D01*
X406023Y474696D01*
X400412D01*
X400334Y474707D01*
X400290Y474718D01*
X400257Y474729D01*
X400245Y474740D01*
X400223Y474763D01*
X400201Y474807D01*
X400168Y474907D01*
X400145Y474952D01*
X400134Y474996D01*
X400123Y475018D01*
Y475029D01*
X399768D01*
Y472985D01*
X400123D01*
X400145Y473063D01*
X400168Y473129D01*
X400190Y473174D01*
X400212Y473207D01*
X400234Y473252D01*
X400245Y473263D01*
X400290Y473296D01*
X400345Y473307D01*
X400390Y473318D01*
X404701D01*
X401556Y468397D01*
X401490Y468297D01*
X401423Y468208D01*
X401368Y468130D01*
X401323Y468074D01*
X401290Y468030D01*
X401257Y467997D01*
X401245Y467985D01*
X401234Y467974D01*
X401179Y467930D01*
X401112Y467897D01*
X400990Y467830D01*
X400923Y467808D01*
X400879Y467786D01*
X400845Y467774D01*
X400834D01*
Y467430D01*
X403590D01*
Y467774D01*
X403490Y467808D01*
X403423Y467841D01*
X403367Y467874D01*
X403334Y467897D01*
X403312Y467919D01*
X403301Y467941D01*
Y467952D01*
X403312Y467985D01*
X403323Y468030D01*
X403390Y468141D01*
X403412Y468197D01*
X403445Y468241D01*
X403456Y468274D01*
X403467Y468286D01*
X406656Y473540D01*
Y475029D01*
D02*
G37*
G36*
X429132Y474696D02*
X426754D01*
Y474340D01*
X426832Y474318D01*
X426898Y474296D01*
X426943Y474274D01*
X426976Y474252D01*
X427021Y474229D01*
X427032Y474218D01*
X427065Y474174D01*
X427076Y474118D01*
X427087Y474074D01*
Y474052D01*
Y473818D01*
X426743Y473740D01*
X426676Y473729D01*
X426643Y473718D01*
X426610D01*
X426543Y473729D01*
X426532Y473740D01*
X426521D01*
X426510Y473763D01*
X426498Y473796D01*
X426465Y473896D01*
X426443Y473941D01*
X426432Y473985D01*
X426421Y474007D01*
Y474018D01*
X426065D01*
Y471941D01*
X426421D01*
X426443Y472018D01*
X426465Y472085D01*
X426487Y472130D01*
X426510Y472174D01*
X426532Y472218D01*
X426543Y472229D01*
X426598Y472263D01*
X426654Y472296D01*
X426710Y472307D01*
X426732Y472318D01*
X427087Y472430D01*
Y468074D01*
X427076Y467997D01*
X427065Y467941D01*
X427043Y467908D01*
X427032Y467897D01*
X427009Y467874D01*
X426965Y467852D01*
X426876Y467819D01*
X426832Y467797D01*
X426787Y467786D01*
X426765Y467774D01*
X426754D01*
Y467430D01*
X429132D01*
Y467774D01*
X429054Y467797D01*
X428987Y467819D01*
X428932Y467841D01*
X428898Y467863D01*
X428865Y467874D01*
X428854Y467885D01*
X428843Y467897D01*
X428820Y467952D01*
X428809Y468008D01*
X428798Y468052D01*
Y468074D01*
Y474052D01*
X428809Y474129D01*
X428820Y474174D01*
X428831Y474207D01*
X428843Y474218D01*
X428865Y474240D01*
X428909Y474263D01*
X429009Y474296D01*
X429054Y474318D01*
X429098Y474329D01*
X429120Y474340D01*
X429132D01*
Y474696D01*
D02*
G37*
G36*
X366716Y473763D02*
X366371D01*
X366349Y473685D01*
X366327Y473618D01*
X366304Y473563D01*
X366282Y473529D01*
X366271Y473496D01*
X366260Y473485D01*
X366249Y473474D01*
X366193Y473452D01*
X366138Y473441D01*
X366093Y473429D01*
X360738D01*
Y473096D01*
X360816Y473074D01*
X360883Y473041D01*
X360927Y473018D01*
X360961Y472996D01*
X361005Y472974D01*
X361016Y472963D01*
X361049Y472918D01*
X361061Y472863D01*
X361072Y472818D01*
Y472807D01*
Y472796D01*
Y468063D01*
X361061Y467985D01*
X361049Y467919D01*
X361027Y467885D01*
X361016Y467874D01*
X360994Y467852D01*
X360949Y467830D01*
X360860Y467797D01*
X360816Y467774D01*
X360772Y467763D01*
X360749Y467752D01*
X360738D01*
Y467430D01*
X366227D01*
X366304Y467419D01*
X366360Y467408D01*
X366393Y467397D01*
X366404Y467386D01*
X366427Y467352D01*
X366449Y467319D01*
X366482Y467219D01*
X366504Y467174D01*
X366515Y467130D01*
X366527Y467108D01*
Y467097D01*
X366871D01*
Y469019D01*
X366527D01*
X366504Y468941D01*
X366482Y468874D01*
X366460Y468819D01*
X366438Y468785D01*
X366427Y468752D01*
X366416Y468741D01*
X366404Y468730D01*
X366349Y468708D01*
X366293Y468697D01*
X366249Y468685D01*
X362683D01*
Y469885D01*
X364738D01*
X364816Y469874D01*
X364871Y469863D01*
X364904Y469841D01*
X364916Y469830D01*
X364938Y469808D01*
X364960Y469763D01*
X364993Y469674D01*
X365016Y469630D01*
X365027Y469585D01*
X365038Y469563D01*
Y469552D01*
X365382D01*
Y471441D01*
X365038D01*
X365016Y471363D01*
X364982Y471296D01*
X364960Y471241D01*
X364938Y471207D01*
X364927Y471174D01*
X364916Y471163D01*
X364904Y471152D01*
X364860Y471130D01*
X364805Y471118D01*
X364760Y471107D01*
X362683D01*
Y472174D01*
X366071D01*
X366149Y472163D01*
X366204Y472152D01*
X366238Y472130D01*
X366249Y472118D01*
X366271Y472096D01*
X366293Y472052D01*
X366327Y471963D01*
X366349Y471918D01*
X366360Y471874D01*
X366371Y471852D01*
Y471841D01*
X366716D01*
Y473763D01*
D02*
G37*
G36*
X460539Y473552D02*
X460384D01*
X460028Y473540D01*
X459684Y473496D01*
X459373Y473429D01*
X459084Y473352D01*
X458817Y473252D01*
X458573Y473152D01*
X458351Y473030D01*
X458151Y472918D01*
X457973Y472796D01*
X457818Y472674D01*
X457695Y472574D01*
X457584Y472474D01*
X457506Y472396D01*
X457440Y472330D01*
X457406Y472285D01*
X457395Y472274D01*
X457284Y472118D01*
X457184Y471963D01*
X457095Y471796D01*
X457029Y471630D01*
X456962Y471474D01*
X456907Y471318D01*
X456829Y471030D01*
X456807Y470896D01*
X456784Y470774D01*
X456773Y470663D01*
X456762Y470574D01*
X456751Y470496D01*
Y470441D01*
Y470407D01*
Y470396D01*
X456762Y470119D01*
X456807Y469852D01*
X456862Y469608D01*
X456929Y469385D01*
X456995Y469208D01*
X457029Y469130D01*
X457051Y469074D01*
X457073Y469019D01*
X457095Y468985D01*
X457106Y468963D01*
Y468952D01*
X457229Y468752D01*
X457351Y468574D01*
X457473Y468430D01*
X457595Y468308D01*
X457706Y468208D01*
X457784Y468141D01*
X457840Y468097D01*
X457862Y468085D01*
X458051Y467952D01*
X458240Y467830D01*
X458451Y467730D01*
X458651Y467641D01*
X458851Y467563D01*
X459062Y467497D01*
X459251Y467441D01*
X459440Y467408D01*
X459617Y467375D01*
X459784Y467352D01*
X459928Y467330D01*
X460051Y467319D01*
X460151Y467308D01*
X460295D01*
X460617Y467319D01*
X460928Y467352D01*
X461250Y467397D01*
X461550Y467463D01*
X461850Y467530D01*
X462139Y467619D01*
X462406Y467697D01*
X462661Y467797D01*
X462895Y467885D01*
X463106Y467974D01*
X463295Y468052D01*
X463450Y468119D01*
X463573Y468186D01*
X463672Y468230D01*
X463728Y468263D01*
X463750Y468274D01*
Y468530D01*
X463672Y468552D01*
X463606Y468574D01*
X463561Y468597D01*
X463517Y468619D01*
X463473Y468641D01*
X463461Y468652D01*
X463439Y468708D01*
X463428Y468774D01*
X463417Y468830D01*
Y468852D01*
Y470074D01*
X463428Y470163D01*
X463439Y470230D01*
X463450Y470274D01*
X463461Y470285D01*
X463495Y470307D01*
X463528Y470330D01*
X463628Y470374D01*
X463672Y470396D01*
X463717Y470407D01*
X463739Y470419D01*
X463750D01*
Y470752D01*
X460884D01*
X460806Y470763D01*
X460750Y470774D01*
X460717Y470785D01*
X460706Y470796D01*
X460684Y470830D01*
X460662Y470863D01*
X460628Y470963D01*
X460606Y471007D01*
X460595Y471052D01*
X460584Y471074D01*
Y471085D01*
X460251D01*
Y469330D01*
X460584D01*
X460606Y469408D01*
X460628Y469474D01*
X460650Y469519D01*
X460673Y469552D01*
X460695Y469596D01*
X460706Y469608D01*
X460762Y469641D01*
X460817Y469652D01*
X460862Y469663D01*
X462095D01*
Y468941D01*
X461850Y468830D01*
X461584Y468752D01*
X461317Y468697D01*
X461062Y468663D01*
X460951Y468641D01*
X460839D01*
X460739Y468630D01*
X460662Y468619D01*
X460495D01*
X460306Y468630D01*
X460140Y468641D01*
X459973Y468663D01*
X459817Y468697D01*
X459673Y468730D01*
X459551Y468774D01*
X459428Y468819D01*
X459328Y468863D01*
X459228Y468908D01*
X459151Y468952D01*
X459073Y468996D01*
X459017Y469030D01*
X458973Y469063D01*
X458940Y469085D01*
X458928Y469108D01*
X458917D01*
X458828Y469197D01*
X458740Y469297D01*
X458606Y469508D01*
X458517Y469730D01*
X458451Y469930D01*
X458417Y470119D01*
X458395Y470196D01*
Y470263D01*
X458384Y470319D01*
Y470363D01*
Y470385D01*
Y470396D01*
X458395Y470552D01*
X458406Y470696D01*
X458473Y470974D01*
X458573Y471196D01*
X458684Y471396D01*
X458784Y471552D01*
X458884Y471663D01*
X458917Y471696D01*
X458951Y471730D01*
X458962Y471752D01*
X458973D01*
X459084Y471841D01*
X459195Y471918D01*
X459440Y472030D01*
X459684Y472118D01*
X459917Y472185D01*
X460117Y472218D01*
X460206Y472229D01*
X460284D01*
X460339Y472241D01*
X460428D01*
X460717Y472229D01*
X460984Y472185D01*
X461239Y472130D01*
X461450Y472063D01*
X461639Y471985D01*
X461717Y471963D01*
X461773Y471930D01*
X461828Y471907D01*
X461862Y471885D01*
X461884Y471874D01*
X461895D01*
X462006Y471818D01*
X462084Y471763D01*
X462139Y471707D01*
X462173Y471663D01*
X462206Y471630D01*
X462217Y471607D01*
Y471596D01*
Y471585D01*
Y471563D01*
Y471530D01*
Y471496D01*
Y471485D01*
X462506Y471374D01*
X463250Y472985D01*
X463006Y473129D01*
X462906Y473074D01*
X462850Y473041D01*
X462817Y473030D01*
X462806D01*
X462773Y473041D01*
X462706Y473052D01*
X462639Y473074D01*
X462550Y473107D01*
X462473Y473129D01*
X462406Y473152D01*
X462361Y473163D01*
X462339Y473174D01*
X461939Y473296D01*
X461573Y473396D01*
X461239Y473463D01*
X461084Y473485D01*
X460951Y473507D01*
X460828Y473518D01*
X460717Y473529D01*
X460617Y473540D01*
X460539Y473552D01*
D02*
G37*
G36*
X349851D02*
X349539D01*
X349339Y473529D01*
X348973Y473474D01*
X348806Y473441D01*
X348651Y473396D01*
X348506Y473363D01*
X348373Y473318D01*
X348262Y473274D01*
X348151Y473229D01*
X348062Y473185D01*
X347984Y473152D01*
X347929Y473118D01*
X347884Y473096D01*
X347862Y473085D01*
X347851Y473074D01*
X347695Y472974D01*
X347562Y472852D01*
X347451Y472729D01*
X347351Y472607D01*
X347262Y472485D01*
X347195Y472352D01*
X347140Y472229D01*
X347095Y472107D01*
X347028Y471885D01*
X347006Y471785D01*
X346995Y471707D01*
Y471641D01*
X346984Y471585D01*
Y471552D01*
Y471541D01*
X346995Y471374D01*
X347017Y471218D01*
X347040Y471074D01*
X347084Y470952D01*
X347117Y470841D01*
X347140Y470763D01*
X347162Y470719D01*
X347173Y470696D01*
X347251Y470563D01*
X347340Y470441D01*
X347440Y470341D01*
X347529Y470252D01*
X347606Y470185D01*
X347673Y470141D01*
X347717Y470108D01*
X347728Y470096D01*
X347940Y469985D01*
X348051Y469941D01*
X348151Y469908D01*
X348239Y469874D01*
X348306Y469863D01*
X348351Y469841D01*
X348362D01*
X348506Y469819D01*
X348673Y469785D01*
X348851Y469763D01*
X349017Y469741D01*
X349162Y469730D01*
X349284Y469719D01*
X349328D01*
X349362Y469708D01*
X349395D01*
X350206Y469641D01*
X350417Y469619D01*
X350606Y469596D01*
X350750Y469574D01*
X350873Y469552D01*
X350961Y469541D01*
X351028Y469519D01*
X351062Y469508D01*
X351073D01*
X351173Y469463D01*
X351250Y469419D01*
X351295Y469363D01*
X351339Y469308D01*
X351361Y469252D01*
X351373Y469208D01*
Y469185D01*
Y469174D01*
X351361Y469119D01*
X351350Y469063D01*
X351284Y468963D01*
X351206Y468874D01*
X351106Y468797D01*
X351006Y468741D01*
X350917Y468697D01*
X350850Y468674D01*
X350839Y468663D01*
X350828D01*
X350695Y468630D01*
X350550Y468608D01*
X350406Y468585D01*
X350262Y468574D01*
X350150D01*
X350050Y468563D01*
X349962D01*
X349739Y468574D01*
X349517Y468585D01*
X349306Y468608D01*
X349117Y468641D01*
X348962Y468674D01*
X348839Y468697D01*
X348795Y468708D01*
X348773D01*
X348751Y468719D01*
X348740D01*
X348528Y468785D01*
X348340Y468852D01*
X348173Y468919D01*
X348040Y468985D01*
X347940Y469041D01*
X347862Y469085D01*
X347817Y469119D01*
X347806Y469130D01*
X347817Y469163D01*
Y469197D01*
Y469241D01*
Y469252D01*
Y469274D01*
Y469308D01*
Y469341D01*
Y469352D01*
X347506Y469452D01*
X346873Y467863D01*
X347151Y467763D01*
X347184Y467808D01*
X347217Y467830D01*
X347262Y467874D01*
X347284Y467885D01*
X347328D01*
X347362Y467874D01*
X347384Y467863D01*
X347395D01*
X347628Y467763D01*
X347862Y467686D01*
X348095Y467608D01*
X348317Y467541D01*
X348751Y467441D01*
X348951Y467408D01*
X349151Y467375D01*
X349328Y467352D01*
X349484Y467341D01*
X349628Y467330D01*
X349739Y467319D01*
X349839Y467308D01*
X349973D01*
X350217Y467319D01*
X350439Y467330D01*
X350661Y467352D01*
X350862Y467386D01*
X351050Y467419D01*
X351217Y467463D01*
X351384Y467508D01*
X351528Y467563D01*
X351650Y467608D01*
X351761Y467652D01*
X351861Y467697D01*
X351939Y467730D01*
X352006Y467763D01*
X352050Y467786D01*
X352073Y467808D01*
X352084D01*
X352239Y467919D01*
X352361Y468030D01*
X352484Y468152D01*
X352584Y468274D01*
X352661Y468397D01*
X352728Y468519D01*
X352783Y468641D01*
X352828Y468752D01*
X352895Y468974D01*
X352917Y469063D01*
X352928Y469141D01*
X352939Y469208D01*
Y469252D01*
Y469285D01*
Y469297D01*
X352928Y469485D01*
X352895Y469652D01*
X352850Y469819D01*
X352806Y469952D01*
X352750Y470063D01*
X352706Y470152D01*
X352672Y470196D01*
X352661Y470219D01*
X352572Y470341D01*
X352484Y470441D01*
X352395Y470530D01*
X352306Y470608D01*
X352239Y470674D01*
X352172Y470719D01*
X352128Y470741D01*
X352117Y470752D01*
X352006Y470819D01*
X351884Y470874D01*
X351617Y470963D01*
X351328Y471041D01*
X351062Y471096D01*
X350939Y471118D01*
X350817Y471130D01*
X350717Y471141D01*
X350617Y471152D01*
X350550Y471163D01*
X350484Y471174D01*
X350439D01*
X349651Y471241D01*
X349506Y471252D01*
X349384Y471263D01*
X349262Y471274D01*
X349162Y471285D01*
X349062Y471296D01*
X348984Y471307D01*
X348851Y471330D01*
X348751Y471352D01*
X348684Y471374D01*
X348651Y471385D01*
X348639D01*
X348562Y471419D01*
X348506Y471463D01*
X348473Y471507D01*
X348451Y471563D01*
X348417Y471630D01*
Y471652D01*
Y471663D01*
X348428Y471719D01*
X348440Y471774D01*
X348495Y471874D01*
X348573Y471952D01*
X348662Y472018D01*
X348740Y472074D01*
X348817Y472107D01*
X348873Y472130D01*
X348895Y472141D01*
X349040Y472185D01*
X349184Y472229D01*
X349328Y472252D01*
X349462Y472263D01*
X349584Y472274D01*
X349673Y472285D01*
X349750D01*
X349962Y472274D01*
X350162Y472263D01*
X350350Y472229D01*
X350528Y472207D01*
X350673Y472174D01*
X350773Y472141D01*
X350817Y472130D01*
X350850D01*
X350862Y472118D01*
X350873D01*
X351073Y472052D01*
X351239Y471985D01*
X351384Y471918D01*
X351495Y471852D01*
X351584Y471796D01*
X351650Y471752D01*
X351695Y471719D01*
X351706Y471707D01*
X351728Y471674D01*
X351750Y471641D01*
X351772Y471552D01*
X351784Y471485D01*
Y471463D01*
Y471452D01*
X352061Y471341D01*
X352828Y472841D01*
X352572Y472974D01*
X352517Y472929D01*
X352472Y472907D01*
X352417Y472863D01*
X352384Y472852D01*
X352350D01*
X352306Y472863D01*
X352228Y472896D01*
X352161Y472929D01*
X352139Y472941D01*
X352128D01*
X351872Y473052D01*
X351639Y473152D01*
X351417Y473241D01*
X351239Y473296D01*
X351095Y473352D01*
X350984Y473385D01*
X350939Y473396D01*
X350906D01*
X350895Y473407D01*
X350884D01*
X350684Y473452D01*
X350484Y473496D01*
X350295Y473518D01*
X350117Y473529D01*
X349973Y473540D01*
X349851Y473552D01*
D02*
G37*
G36*
X301278Y474818D02*
X301066D01*
X300644Y474807D01*
X300244Y474752D01*
X299878Y474685D01*
X299533Y474585D01*
X299211Y474474D01*
X298933Y474352D01*
X298667Y474218D01*
X298433Y474085D01*
X298233Y473952D01*
X298056Y473818D01*
X297911Y473696D01*
X297789Y473585D01*
X297689Y473485D01*
X297622Y473418D01*
X297578Y473374D01*
X297567Y473352D01*
X297433Y473163D01*
X297311Y472974D01*
X297211Y472774D01*
X297122Y472585D01*
X297045Y472385D01*
X296989Y472196D01*
X296934Y472018D01*
X296900Y471841D01*
X296867Y471674D01*
X296845Y471530D01*
X296823Y471396D01*
X296811Y471285D01*
X296800Y471196D01*
Y471118D01*
Y471074D01*
Y471063D01*
X296811Y470885D01*
X296823Y470708D01*
X296878Y470374D01*
X296956Y470063D01*
X297000Y469919D01*
X297056Y469785D01*
X297100Y469663D01*
X297145Y469552D01*
X297189Y469463D01*
X297222Y469385D01*
X297256Y469319D01*
X297278Y469274D01*
X297300Y469241D01*
Y469230D01*
X297422Y468996D01*
X297567Y468797D01*
X297722Y468619D01*
X297867Y468474D01*
X298000Y468363D01*
X298111Y468274D01*
X298156Y468252D01*
X298189Y468230D01*
X298200Y468208D01*
X298211D01*
X298433Y468052D01*
X298656Y467908D01*
X298900Y467786D01*
X299133Y467686D01*
X299378Y467597D01*
X299611Y467530D01*
X299844Y467463D01*
X300056Y467419D01*
X300267Y467386D01*
X300455Y467352D01*
X300622Y467341D01*
X300766Y467319D01*
X300889D01*
X300978Y467308D01*
X301055D01*
X301366Y467319D01*
X301644Y467341D01*
X301900Y467363D01*
X302111Y467397D01*
X302211Y467419D01*
X302289Y467430D01*
X302366Y467441D01*
X302422Y467463D01*
X302466Y467475D01*
X302500D01*
X302522Y467486D01*
X302533D01*
X302777Y467563D01*
X303033Y467674D01*
X303289Y467786D01*
X303533Y467908D01*
X303733Y468008D01*
X303833Y468063D01*
X303911Y468097D01*
X303966Y468141D01*
X304011Y468163D01*
X304044Y468174D01*
X304055Y468186D01*
X304188Y468263D01*
X304299Y468319D01*
X304377Y468363D01*
X304444Y468386D01*
X304477Y468408D01*
X304511Y468419D01*
X304544D01*
X304577Y468397D01*
X304655Y468352D01*
X304711Y468308D01*
X304733Y468297D01*
X304744Y468286D01*
X305011Y468452D01*
X303944Y470074D01*
X303655Y469908D01*
X303666Y469819D01*
Y469774D01*
Y469741D01*
Y469730D01*
X303644Y469652D01*
X303611Y469574D01*
X303577Y469530D01*
X303555Y469508D01*
X303511Y469463D01*
X303444Y469419D01*
X303311Y469319D01*
X303244Y469285D01*
X303188Y469252D01*
X303144Y469230D01*
X303133Y469219D01*
X302966Y469130D01*
X302800Y469052D01*
X302466Y468930D01*
X302144Y468841D01*
X301866Y468785D01*
X301733Y468763D01*
X301611Y468741D01*
X301511Y468730D01*
X301422D01*
X301355Y468719D01*
X301044D01*
X300844Y468741D01*
X300655Y468752D01*
X300478Y468785D01*
X300311Y468808D01*
X300167Y468841D01*
X300033Y468885D01*
X299911Y468919D01*
X299800Y468952D01*
X299700Y468996D01*
X299622Y469030D01*
X299555Y469052D01*
X299500Y469085D01*
X299467Y469097D01*
X299444Y469119D01*
X299433D01*
X299289Y469285D01*
X299156Y469441D01*
X299044Y469608D01*
X298944Y469774D01*
X298867Y469941D01*
X298800Y470108D01*
X298745Y470263D01*
X298700Y470407D01*
X298656Y470541D01*
X298633Y470674D01*
X298611Y470785D01*
X298600Y470874D01*
Y470952D01*
X298589Y471019D01*
Y471052D01*
Y471063D01*
X298600Y471263D01*
X298622Y471463D01*
X298667Y471641D01*
X298722Y471830D01*
X298856Y472152D01*
X298933Y472307D01*
X299011Y472441D01*
X299089Y472563D01*
X299167Y472674D01*
X299233Y472763D01*
X299300Y472852D01*
X299356Y472907D01*
X299400Y472963D01*
X299422Y472985D01*
X299433Y472996D01*
X299555Y473074D01*
X299700Y473129D01*
X299989Y473229D01*
X300289Y473307D01*
X300589Y473352D01*
X300722Y473374D01*
X300844Y473385D01*
X300967Y473396D01*
X301066D01*
X301144Y473407D01*
X301444D01*
X301622Y473385D01*
X301966Y473329D01*
X302289Y473252D01*
X302433Y473207D01*
X302566Y473163D01*
X302689Y473107D01*
X302800Y473063D01*
X302900Y473018D01*
X302977Y472985D01*
X303044Y472952D01*
X303088Y472929D01*
X303122Y472918D01*
X303133Y472907D01*
X303244Y472841D01*
X303333Y472785D01*
X303411Y472741D01*
X303466Y472696D01*
X303511Y472663D01*
X303533Y472641D01*
X303555Y472618D01*
X303622Y472541D01*
X303655Y472474D01*
X303666Y472430D01*
Y472407D01*
Y472363D01*
Y472296D01*
X303655Y472229D01*
Y472218D01*
Y472207D01*
X303944Y472063D01*
X305011Y473663D01*
X304744Y473852D01*
X304688Y473807D01*
X304633Y473774D01*
X304566Y473729D01*
X304533Y473707D01*
X304522D01*
X304488Y473718D01*
X304422Y473740D01*
X304344Y473774D01*
X304266Y473818D01*
X304188Y473863D01*
X304122Y473896D01*
X304077Y473918D01*
X304055Y473929D01*
X303733Y474107D01*
X303433Y474263D01*
X303166Y474385D01*
X302944Y474474D01*
X302855Y474518D01*
X302766Y474540D01*
X302700Y474574D01*
X302633Y474596D01*
X302589Y474607D01*
X302555Y474618D01*
X302533Y474629D01*
X302522D01*
X302289Y474696D01*
X302033Y474740D01*
X301789Y474774D01*
X301566Y474796D01*
X301366Y474807D01*
X301278Y474818D01*
D02*
G37*
G36*
X470627Y473763D02*
X470283D01*
X470261Y473685D01*
X470238Y473618D01*
X470216Y473563D01*
X470194Y473529D01*
X470183Y473496D01*
X470172Y473485D01*
X470161Y473474D01*
X470105Y473452D01*
X470050Y473441D01*
X470005Y473429D01*
X464650D01*
Y473096D01*
X464728Y473074D01*
X464794Y473041D01*
X464839Y473018D01*
X464872Y472996D01*
X464917Y472974D01*
X464928Y472963D01*
X464961Y472918D01*
X464972Y472863D01*
X464983Y472818D01*
Y472807D01*
Y472796D01*
Y468063D01*
X464972Y467985D01*
X464961Y467919D01*
X464939Y467885D01*
X464928Y467874D01*
X464906Y467852D01*
X464861Y467830D01*
X464772Y467797D01*
X464728Y467774D01*
X464683Y467763D01*
X464661Y467752D01*
X464650D01*
Y467430D01*
X470139D01*
X470216Y467419D01*
X470272Y467408D01*
X470305Y467397D01*
X470316Y467386D01*
X470338Y467352D01*
X470361Y467319D01*
X470394Y467219D01*
X470416Y467174D01*
X470427Y467130D01*
X470438Y467108D01*
Y467097D01*
X470783D01*
Y469019D01*
X470438D01*
X470416Y468941D01*
X470394Y468874D01*
X470372Y468819D01*
X470350Y468785D01*
X470338Y468752D01*
X470327Y468741D01*
X470316Y468730D01*
X470261Y468708D01*
X470205Y468697D01*
X470161Y468685D01*
X466594D01*
Y469885D01*
X468650D01*
X468727Y469874D01*
X468783Y469863D01*
X468816Y469841D01*
X468827Y469830D01*
X468850Y469808D01*
X468872Y469763D01*
X468905Y469674D01*
X468927Y469630D01*
X468939Y469585D01*
X468950Y469563D01*
Y469552D01*
X469294D01*
Y471441D01*
X468950D01*
X468927Y471363D01*
X468894Y471296D01*
X468872Y471241D01*
X468850Y471207D01*
X468839Y471174D01*
X468827Y471163D01*
X468816Y471152D01*
X468772Y471130D01*
X468716Y471118D01*
X468672Y471107D01*
X466594D01*
Y472174D01*
X469983D01*
X470061Y472163D01*
X470116Y472152D01*
X470150Y472130D01*
X470161Y472118D01*
X470183Y472096D01*
X470205Y472052D01*
X470238Y471963D01*
X470261Y471918D01*
X470272Y471874D01*
X470283Y471852D01*
Y471841D01*
X470627D01*
Y473763D01*
D02*
G37*
G36*
X381059D02*
X380714D01*
X380692Y473685D01*
X380670Y473618D01*
X380647Y473563D01*
X380625Y473529D01*
X380614Y473496D01*
X380603Y473485D01*
X380592Y473474D01*
X380536Y473452D01*
X380481Y473441D01*
X380436Y473429D01*
X375081D01*
Y473096D01*
X375159Y473074D01*
X375226Y473041D01*
X375270Y473018D01*
X375304Y472996D01*
X375348Y472974D01*
X375359Y472963D01*
X375392Y472918D01*
X375403Y472863D01*
X375415Y472818D01*
Y472807D01*
Y472796D01*
Y468063D01*
X375403Y467985D01*
X375392Y467919D01*
X375370Y467885D01*
X375359Y467874D01*
X375337Y467852D01*
X375292Y467830D01*
X375203Y467797D01*
X375159Y467774D01*
X375115Y467763D01*
X375092Y467752D01*
X375081D01*
Y467430D01*
X380570D01*
X380647Y467419D01*
X380703Y467408D01*
X380736Y467397D01*
X380747Y467386D01*
X380770Y467352D01*
X380792Y467319D01*
X380825Y467219D01*
X380847Y467174D01*
X380858Y467130D01*
X380870Y467108D01*
Y467097D01*
X381214D01*
Y469019D01*
X380870D01*
X380847Y468941D01*
X380825Y468874D01*
X380803Y468819D01*
X380781Y468785D01*
X380770Y468752D01*
X380759Y468741D01*
X380747Y468730D01*
X380692Y468708D01*
X380636Y468697D01*
X380592Y468685D01*
X377026D01*
Y469885D01*
X379081D01*
X379159Y469874D01*
X379214Y469863D01*
X379248Y469841D01*
X379259Y469830D01*
X379281Y469808D01*
X379303Y469763D01*
X379336Y469674D01*
X379359Y469630D01*
X379370Y469585D01*
X379381Y469563D01*
Y469552D01*
X379725D01*
Y471441D01*
X379381D01*
X379359Y471363D01*
X379325Y471296D01*
X379303Y471241D01*
X379281Y471207D01*
X379270Y471174D01*
X379259Y471163D01*
X379248Y471152D01*
X379203Y471130D01*
X379148Y471118D01*
X379103Y471107D01*
X377026D01*
Y472174D01*
X380414D01*
X380492Y472163D01*
X380547Y472152D01*
X380581Y472130D01*
X380592Y472118D01*
X380614Y472096D01*
X380636Y472052D01*
X380670Y471963D01*
X380692Y471918D01*
X380703Y471874D01*
X380714Y471852D01*
Y471841D01*
X381059D01*
Y473763D01*
D02*
G37*
%LPD*%
G36*
X320987Y472163D02*
X321098Y472152D01*
X321176Y472141D01*
X321242Y472118D01*
X321276Y472107D01*
X321298Y472096D01*
X321309D01*
X321409Y472030D01*
X321487Y471963D01*
X321542Y471885D01*
X321587Y471807D01*
X321609Y471741D01*
X321620Y471685D01*
Y471641D01*
Y471630D01*
X321609Y471507D01*
X321575Y471407D01*
X321542Y471330D01*
X321498Y471263D01*
X321442Y471218D01*
X321409Y471185D01*
X321376Y471174D01*
X321364Y471163D01*
X321276Y471130D01*
X321176Y471107D01*
X320942Y471085D01*
X320831Y471074D01*
X318798D01*
Y472174D01*
X320842D01*
X320987Y472163D01*
D02*
G37*
G36*
X395757Y473496D02*
X395990Y473474D01*
X396179Y473441D01*
X396335Y473407D01*
X396457Y473363D01*
X396546Y473329D01*
X396590Y473307D01*
X396613Y473296D01*
X396746Y473207D01*
X396835Y473118D01*
X396901Y473030D01*
X396957Y472941D01*
X396979Y472874D01*
X396990Y472807D01*
X397001Y472763D01*
Y472752D01*
X396979Y472641D01*
X396935Y472530D01*
X396879Y472441D01*
X396801Y472363D01*
X396724Y472307D01*
X396668Y472252D01*
X396624Y472229D01*
X396601Y472218D01*
X396446Y472152D01*
X396268Y472107D01*
X396090Y472063D01*
X395913Y472041D01*
X395757Y472030D01*
X395624Y472018D01*
X395513D01*
X395257Y472030D01*
X395046Y472052D01*
X394857Y472085D01*
X394702Y472118D01*
X394568Y472152D01*
X394491Y472185D01*
X394435Y472207D01*
X394413Y472218D01*
X394290Y472296D01*
X394191Y472385D01*
X394124Y472474D01*
X394079Y472563D01*
X394057Y472641D01*
X394046Y472707D01*
X394035Y472752D01*
Y472763D01*
X394046Y472874D01*
X394091Y472985D01*
X394157Y473074D01*
X394224Y473152D01*
X394290Y473207D01*
X394357Y473263D01*
X394402Y473285D01*
X394413Y473296D01*
X394568Y473363D01*
X394746Y473418D01*
X394924Y473452D01*
X395101Y473485D01*
X395257Y473496D01*
X395390Y473507D01*
X395501D01*
X395757Y473496D01*
D02*
G37*
G36*
X395790Y470608D02*
X396046Y470574D01*
X396268Y470530D01*
X396446Y470485D01*
X396590Y470430D01*
X396690Y470396D01*
X396746Y470363D01*
X396768Y470352D01*
X396912Y470252D01*
X397024Y470130D01*
X397101Y470019D01*
X397157Y469908D01*
X397190Y469808D01*
X397201Y469730D01*
X397212Y469674D01*
Y469652D01*
X397201Y469519D01*
X397179Y469396D01*
X397135Y469297D01*
X397101Y469208D01*
X397057Y469152D01*
X397012Y469097D01*
X396990Y469074D01*
X396979Y469063D01*
X396746Y468952D01*
X396501Y468863D01*
X396257Y468808D01*
X396024Y468763D01*
X395824Y468741D01*
X395735Y468730D01*
X395657D01*
X395602Y468719D01*
X395513D01*
X395224Y468730D01*
X394979Y468763D01*
X394757Y468797D01*
X394579Y468852D01*
X394446Y468896D01*
X394335Y468930D01*
X394279Y468963D01*
X394257Y468974D01*
X394113Y469074D01*
X394002Y469185D01*
X393935Y469308D01*
X393879Y469419D01*
X393846Y469508D01*
X393835Y469596D01*
X393824Y469641D01*
Y469663D01*
X393835Y469808D01*
X393879Y469941D01*
X393946Y470052D01*
X394013Y470163D01*
X394079Y470241D01*
X394146Y470296D01*
X394191Y470341D01*
X394202Y470352D01*
X394391Y470441D01*
X394590Y470507D01*
X394813Y470552D01*
X395024Y470585D01*
X395213Y470608D01*
X395290D01*
X395357Y470619D01*
X395501D01*
X395790Y470608D01*
D02*
G37*
G36*
X386269Y472152D02*
X386391Y472141D01*
X386491Y472118D01*
X386569Y472096D01*
X386625Y472074D01*
X386647Y472063D01*
X386658Y472052D01*
X386725Y471996D01*
X386769Y471930D01*
X386802Y471863D01*
X386825Y471785D01*
X386836Y471719D01*
X386847Y471674D01*
Y471630D01*
Y471619D01*
X386836Y471496D01*
X386802Y471396D01*
X386747Y471307D01*
X386702Y471241D01*
X386647Y471196D01*
X386591Y471152D01*
X386558Y471141D01*
X386547Y471130D01*
X386469Y471107D01*
X386380Y471096D01*
X386169Y471074D01*
X386080Y471063D01*
X383958D01*
Y472174D01*
X386114D01*
X386269Y472152D01*
D02*
G37*
G36*
X453718D02*
X453840Y472141D01*
X453940Y472118D01*
X454018Y472096D01*
X454073Y472074D01*
X454096Y472063D01*
X454107Y472052D01*
X454173Y471996D01*
X454218Y471930D01*
X454251Y471863D01*
X454273Y471785D01*
X454284Y471719D01*
X454296Y471674D01*
Y471630D01*
Y471619D01*
X454284Y471496D01*
X454251Y471396D01*
X454196Y471307D01*
X454151Y471241D01*
X454096Y471196D01*
X454040Y471152D01*
X454007Y471141D01*
X453996Y471130D01*
X453918Y471107D01*
X453829Y471096D01*
X453618Y471074D01*
X453529Y471063D01*
X451407D01*
Y472174D01*
X453562D01*
X453718Y472152D01*
D02*
G37*
G36*
X445941Y469908D02*
X444319D01*
X445108Y471552D01*
X445941Y469908D01*
D02*
G37*
G36*
X357827Y472163D02*
X357939Y472152D01*
X358016Y472141D01*
X358083Y472118D01*
X358116Y472107D01*
X358138Y472096D01*
X358150D01*
X358250Y472030D01*
X358327Y471963D01*
X358383Y471885D01*
X358427Y471807D01*
X358450Y471741D01*
X358461Y471685D01*
Y471641D01*
Y471630D01*
X358450Y471507D01*
X358416Y471407D01*
X358383Y471330D01*
X358338Y471263D01*
X358283Y471218D01*
X358250Y471185D01*
X358216Y471174D01*
X358205Y471163D01*
X358116Y471130D01*
X358016Y471107D01*
X357783Y471085D01*
X357672Y471074D01*
X355639D01*
Y472174D01*
X357683D01*
X357827Y472163D01*
D02*
G37*
G36*
X371926Y472152D02*
X372048Y472141D01*
X372148Y472118D01*
X372226Y472096D01*
X372282Y472074D01*
X372304Y472063D01*
X372315Y472052D01*
X372382Y471996D01*
X372426Y471930D01*
X372459Y471863D01*
X372482Y471785D01*
X372493Y471719D01*
X372504Y471674D01*
Y471630D01*
Y471619D01*
X372493Y471496D01*
X372459Y471396D01*
X372404Y471307D01*
X372359Y471241D01*
X372304Y471196D01*
X372248Y471152D01*
X372215Y471141D01*
X372204Y471130D01*
X372126Y471107D01*
X372037Y471096D01*
X371826Y471074D01*
X371737Y471063D01*
X369615D01*
Y472174D01*
X371771D01*
X371926Y472152D01*
D02*
G37*
D31*
X409646Y394882D02*
G03*
X409646Y394882I-492J0D01*
G01*
D32*
X404921Y386417D02*
G03*
X404921Y386417I-1181J0D01*
G01*
D33*
X487500Y175000D02*
Y375000D01*
X282126Y365000D02*
X297874D01*
X282126Y375000D02*
X297500D01*
Y175000D02*
Y375000D01*
X282126Y175000D02*
X297500D01*
X282126D02*
Y375000D01*
X295000Y152126D02*
Y167874D01*
X285000Y152126D02*
Y167500D01*
X485000D01*
Y152126D02*
Y167500D01*
X285000Y152126D02*
X485000D01*
X472126Y365000D02*
X487874D01*
X472126Y375000D02*
X487500D01*
X472126Y175000D02*
X487500D01*
X472126D02*
Y375000D01*
X447126Y365000D02*
X462874D01*
X447126Y375000D02*
X462500D01*
Y175000D02*
Y375000D01*
X447126Y175000D02*
X462500D01*
X447126D02*
Y375000D01*
X307126Y365000D02*
X322874D01*
X307126Y375000D02*
X322500D01*
Y175000D02*
Y375000D01*
X307126Y175000D02*
X322500D01*
X307126D02*
Y375000D01*
X340000Y315000D02*
X345000Y320000D01*
X430000D01*
Y230000D02*
Y320000D01*
X340000Y230000D02*
X430000D01*
X340000D02*
Y315000D01*
X353030Y225863D02*
X352030Y226863D01*
X350031D01*
X349031Y225863D01*
Y221864D01*
X350031Y220865D01*
X352030D01*
X353030Y221864D01*
X355030Y226863D02*
Y220865D01*
Y223864D01*
X356029Y224864D01*
X358029D01*
X359028Y223864D01*
Y220865D01*
X361028D02*
X363027D01*
X362027D01*
Y224864D01*
X361028D01*
X366026Y218865D02*
Y224864D01*
X369025D01*
X370025Y223864D01*
Y221864D01*
X369025Y220865D01*
X366026D01*
X372024Y226863D02*
Y220865D01*
X374023Y222864D01*
X376023Y220865D01*
Y226863D01*
X378022D02*
Y220865D01*
Y223864D01*
X379022Y224864D01*
X381021D01*
X382021Y223864D01*
Y220865D01*
X384020D02*
X386019D01*
X385020D01*
Y224864D01*
X384020D01*
X389019Y220865D02*
X392018D01*
X393017Y221864D01*
X392018Y222864D01*
X390018D01*
X389019Y223864D01*
X390018Y224864D01*
X393017D01*
X395017Y218865D02*
Y224864D01*
X398016D01*
X399015Y223864D01*
Y221864D01*
X398016Y220865D01*
X395017D01*
X404014D02*
X402014D01*
X401015Y221864D01*
Y223864D01*
X402014Y224864D01*
X404014D01*
X405013Y223864D01*
Y222864D01*
X401015D01*
X407013Y224864D02*
Y220865D01*
Y222864D01*
X408012Y223864D01*
X409012Y224864D01*
X410012D01*
X416010Y220865D02*
X414010D01*
X413011Y221864D01*
Y223864D01*
X414010Y224864D01*
X416010D01*
X417009Y223864D01*
Y222864D01*
X413011D01*
X419009Y224864D02*
Y220865D01*
Y222864D01*
X420009Y223864D01*
X421008Y224864D01*
X422008D01*
X355529Y214266D02*
X354530Y215266D01*
X352530D01*
X351531Y214266D01*
Y210267D01*
X352530Y209268D01*
X354530D01*
X355529Y210267D01*
X357529Y215266D02*
Y209268D01*
X359528Y211267D01*
X361527Y209268D01*
Y215266D01*
X363527Y214266D02*
X364527Y215266D01*
X366526D01*
X367526Y214266D01*
Y213266D01*
X366526Y212267D01*
X365526D01*
X366526D01*
X367526Y211267D01*
Y210267D01*
X366526Y209268D01*
X364527D01*
X363527Y210267D01*
X369525Y214266D02*
X370525Y215266D01*
X372524D01*
X373524Y214266D01*
Y210267D01*
X372524Y209268D01*
X370525D01*
X369525Y210267D01*
Y214266D01*
X375523D02*
X376523Y215266D01*
X378522D01*
X379522Y214266D01*
Y213266D01*
X378522Y212267D01*
X379522Y211267D01*
Y210267D01*
X378522Y209268D01*
X376523D01*
X375523Y210267D01*
Y211267D01*
X376523Y212267D01*
X375523Y213266D01*
Y214266D01*
X376523Y212267D02*
X378522D01*
X381521Y215266D02*
X385520D01*
X383520D01*
Y209268D01*
X387519Y212267D02*
X391518D01*
X393517Y214266D02*
X394517Y215266D01*
X396516D01*
X397516Y214266D01*
Y213266D01*
X396516Y212267D01*
X397516Y211267D01*
Y210267D01*
X396516Y209268D01*
X394517D01*
X393517Y210267D01*
Y211267D01*
X394517Y212267D01*
X393517Y213266D01*
Y214266D01*
X394517Y212267D02*
X396516D01*
X399515Y215266D02*
X403514D01*
Y214266D01*
X399515Y210267D01*
Y209268D01*
X409512Y214266D02*
X408512Y215266D01*
X406513D01*
X405513Y214266D01*
Y210267D01*
X406513Y209268D01*
X408512D01*
X409512Y210267D01*
X415510Y215266D02*
X411511D01*
Y212267D01*
X413511Y213266D01*
X414510D01*
X415510Y212267D01*
Y210267D01*
X414510Y209268D01*
X412511D01*
X411511Y210267D01*
X417509Y209268D02*
X419509D01*
X418509D01*
Y215266D01*
X417509Y214266D01*
X428252Y445049D02*
Y443049D01*
Y444049D01*
X433250D01*
X434250Y443049D01*
Y442050D01*
X433250Y441050D01*
X434250Y451047D02*
Y447048D01*
X430251Y451047D01*
X429252D01*
X428252Y450047D01*
Y448048D01*
X429252Y447048D01*
X378252Y445049D02*
Y443049D01*
Y444049D01*
X383250D01*
X384250Y443049D01*
Y442050D01*
X383250Y441050D01*
X384250Y447048D02*
Y449047D01*
Y448048D01*
X378252D01*
X379252Y447048D01*
X324865Y383163D02*
X322866D01*
X323865D01*
Y378165D01*
X322866Y377165D01*
X321866D01*
X320866Y378165D01*
X326864D02*
X327864Y377165D01*
X329863D01*
X330863Y378165D01*
Y382164D01*
X329863Y383163D01*
X327864D01*
X326864Y382164D01*
Y381164D01*
X327864Y380164D01*
X330863D01*
X442581Y383163D02*
X440582D01*
X441582D01*
Y378165D01*
X440582Y377165D01*
X439582D01*
X438583Y378165D01*
X444581Y382164D02*
X445580Y383163D01*
X447580D01*
X448579Y382164D01*
Y381164D01*
X447580Y380164D01*
X448579Y379165D01*
Y378165D01*
X447580Y377165D01*
X445580D01*
X444581Y378165D01*
Y379165D01*
X445580Y380164D01*
X444581Y381164D01*
Y382164D01*
X445580Y380164D02*
X447580D01*
X355900Y328198D02*
Y323200D01*
X356900Y322200D01*
X358899D01*
X359899Y323200D01*
Y328198D01*
X361898Y322200D02*
X363897D01*
X362898D01*
Y328198D01*
X361898Y327198D01*
X285999Y381998D02*
X283999D01*
X284999D01*
Y377000D01*
X283999Y376000D01*
X283000D01*
X282000Y377000D01*
X287998Y376000D02*
X289997D01*
X288998D01*
Y381998D01*
X287998Y380998D01*
X292996D02*
X293996Y381998D01*
X295995D01*
X296995Y380998D01*
Y377000D01*
X295995Y376000D01*
X293996D01*
X292996Y377000D01*
Y380998D01*
X330252Y445049D02*
Y443049D01*
Y444049D01*
X335250D01*
X336250Y443049D01*
Y442050D01*
X335250Y441050D01*
X331252Y447048D02*
X330252Y448048D01*
Y450047D01*
X331252Y451047D01*
X332251D01*
X333251Y450047D01*
Y449047D01*
Y450047D01*
X334251Y451047D01*
X335250D01*
X336250Y450047D01*
Y448048D01*
X335250Y447048D01*
X284252Y445049D02*
Y443049D01*
Y444049D01*
X289250D01*
X290250Y443049D01*
Y442050D01*
X289250Y441050D01*
X290250Y450047D02*
X284252D01*
X287251Y447048D01*
Y451047D01*
X330252Y415049D02*
Y413049D01*
Y414049D01*
X335250D01*
X336250Y413049D01*
Y412050D01*
X335250Y411050D01*
X330252Y421047D02*
Y417048D01*
X333251D01*
X332251Y419047D01*
Y420047D01*
X333251Y421047D01*
X335250D01*
X336250Y420047D01*
Y418048D01*
X335250Y417048D01*
X284252Y415049D02*
Y413049D01*
Y414049D01*
X289250D01*
X290250Y413049D01*
Y412050D01*
X289250Y411050D01*
X284252Y421047D02*
X285252Y419047D01*
X287251Y417048D01*
X289250D01*
X290250Y418048D01*
Y420047D01*
X289250Y421047D01*
X288251D01*
X287251Y420047D01*
Y417048D01*
X378252Y415049D02*
Y413049D01*
Y414049D01*
X383250D01*
X384250Y413049D01*
Y412050D01*
X383250Y411050D01*
X378252Y417048D02*
Y421047D01*
X379252D01*
X383250Y417048D01*
X384250D01*
X394252Y189049D02*
Y187049D01*
Y188049D01*
X399250D01*
X400250Y187049D01*
Y186050D01*
X399250Y185050D01*
X400250Y191048D02*
Y193047D01*
Y192048D01*
X394252D01*
X395252Y191048D01*
X400250Y196046D02*
Y198046D01*
Y197046D01*
X394252D01*
X395252Y196046D01*
X336198Y314401D02*
Y316401D01*
Y315401D01*
X331200D01*
X330200Y316401D01*
Y317400D01*
X331200Y318400D01*
X330200Y312402D02*
Y310403D01*
Y311402D01*
X336198D01*
X335198Y312402D01*
X330200Y303405D02*
Y307404D01*
X334199Y303405D01*
X335198D01*
X336198Y304404D01*
Y306404D01*
X335198Y307404D01*
X425289Y386614D02*
X420291D01*
X419291Y385614D01*
Y383615D01*
X420291Y382615D01*
X425289D01*
X424290Y380616D02*
X425289Y379616D01*
Y377617D01*
X424290Y376617D01*
X423290D01*
X422290Y377617D01*
Y378617D01*
Y377617D01*
X421291Y376617D01*
X420291D01*
X419291Y377617D01*
Y379616D01*
X420291Y380616D01*
X439507Y367323D02*
Y372321D01*
X437008Y369822D01*
X440340D01*
X444505Y367323D02*
Y372321D01*
X442006Y369822D01*
X445338D01*
X439507Y357480D02*
Y362479D01*
X437008Y359980D01*
X440340D01*
X442006Y361646D02*
X442839Y362479D01*
X444505D01*
X445338Y361646D01*
Y360813D01*
X444505Y359980D01*
X443672D01*
X444505D01*
X445338Y359146D01*
Y358313D01*
X444505Y357480D01*
X442839D01*
X442006Y358313D01*
X439507Y347638D02*
Y352636D01*
X437008Y350137D01*
X440340D01*
X445338Y347638D02*
X442006D01*
X445338Y350970D01*
Y351803D01*
X444505Y352636D01*
X442839D01*
X442006Y351803D01*
X440295Y337008D02*
Y342006D01*
X437795Y339507D01*
X441127D01*
X442794Y337008D02*
X444460D01*
X443627D01*
Y342006D01*
X442794Y341173D01*
X439507Y327559D02*
Y332557D01*
X437008Y330058D01*
X440340D01*
X442006Y331724D02*
X442839Y332557D01*
X444505D01*
X445338Y331724D01*
Y328392D01*
X444505Y327559D01*
X442839D01*
X442006Y328392D01*
Y331724D01*
X437008Y321094D02*
X437841Y321927D01*
X439507D01*
X440340Y321094D01*
Y320261D01*
X439507Y319428D01*
X438674D01*
X439507D01*
X440340Y318595D01*
Y317762D01*
X439507Y316929D01*
X437841D01*
X437008Y317762D01*
X442006D02*
X442839Y316929D01*
X444505D01*
X445338Y317762D01*
Y321094D01*
X444505Y321927D01*
X442839D01*
X442006Y321094D01*
Y320261D01*
X442839Y319428D01*
X445338D01*
X436614Y311646D02*
X437447Y312479D01*
X439113D01*
X439946Y311646D01*
Y310813D01*
X439113Y309980D01*
X438280D01*
X439113D01*
X439946Y309146D01*
Y308313D01*
X439113Y307480D01*
X437447D01*
X436614Y308313D01*
X441613Y311646D02*
X442446Y312479D01*
X444112D01*
X444945Y311646D01*
Y310813D01*
X444112Y309980D01*
X444945Y309146D01*
Y308313D01*
X444112Y307480D01*
X442446D01*
X441613Y308313D01*
Y309146D01*
X442446Y309980D01*
X441613Y310813D01*
Y311646D01*
X442446Y309980D02*
X444112D01*
X437008Y301016D02*
X437841Y301849D01*
X439507D01*
X440340Y301016D01*
Y300183D01*
X439507Y299350D01*
X438674D01*
X439507D01*
X440340Y298517D01*
Y297683D01*
X439507Y296850D01*
X437841D01*
X437008Y297683D01*
X442006Y301849D02*
X445338D01*
Y301016D01*
X442006Y297683D01*
Y296850D01*
X436614Y291567D02*
X437447Y292400D01*
X439113D01*
X439946Y291567D01*
Y290734D01*
X439113Y289901D01*
X438280D01*
X439113D01*
X439946Y289068D01*
Y288235D01*
X439113Y287402D01*
X437447D01*
X436614Y288235D01*
X444945Y292400D02*
X443279Y291567D01*
X441613Y289901D01*
Y288235D01*
X442446Y287402D01*
X444112D01*
X444945Y288235D01*
Y289068D01*
X444112Y289901D01*
X441613D01*
X436614Y281331D02*
X437447Y282164D01*
X439113D01*
X439946Y281331D01*
Y280498D01*
X439113Y279664D01*
X438280D01*
X439113D01*
X439946Y278832D01*
Y277998D01*
X439113Y277165D01*
X437447D01*
X436614Y277998D01*
X444945Y282164D02*
X441613D01*
Y279664D01*
X443279Y280498D01*
X444112D01*
X444945Y279664D01*
Y277998D01*
X444112Y277165D01*
X442446D01*
X441613Y277998D01*
X436614Y271094D02*
X437447Y271927D01*
X439113D01*
X439946Y271094D01*
Y270261D01*
X439113Y269428D01*
X438280D01*
X439113D01*
X439946Y268595D01*
Y267762D01*
X439113Y266929D01*
X437447D01*
X436614Y267762D01*
X441613Y271094D02*
X442446Y271927D01*
X444112D01*
X444945Y271094D01*
Y270261D01*
X444112Y269428D01*
X443279D01*
X444112D01*
X444945Y268595D01*
Y267762D01*
X444112Y266929D01*
X442446D01*
X441613Y267762D01*
X437008Y261646D02*
X437841Y262479D01*
X439507D01*
X440340Y261646D01*
Y260813D01*
X439507Y259980D01*
X438674D01*
X439507D01*
X440340Y259146D01*
Y258313D01*
X439507Y257480D01*
X437841D01*
X437008Y258313D01*
X445338Y257480D02*
X442006D01*
X445338Y260813D01*
Y261646D01*
X444505Y262479D01*
X442839D01*
X442006Y261646D01*
X437795Y251803D02*
X438628Y252636D01*
X440295D01*
X441127Y251803D01*
Y250970D01*
X440295Y250137D01*
X439461D01*
X440295D01*
X441127Y249304D01*
Y248471D01*
X440295Y247638D01*
X438628D01*
X437795Y248471D01*
X442794Y247638D02*
X444460D01*
X443627D01*
Y252636D01*
X442794Y251803D01*
X436614Y241173D02*
X437447Y242006D01*
X439113D01*
X439946Y241173D01*
Y240340D01*
X439113Y239507D01*
X438280D01*
X439113D01*
X439946Y238674D01*
Y237841D01*
X439113Y237008D01*
X437447D01*
X436614Y237841D01*
X441613Y241173D02*
X442446Y242006D01*
X444112D01*
X444945Y241173D01*
Y237841D01*
X444112Y237008D01*
X442446D01*
X441613Y237841D01*
Y241173D01*
X439946Y227165D02*
X436614D01*
X439946Y230498D01*
Y231331D01*
X439113Y232164D01*
X437447D01*
X436614Y231331D01*
X441613Y227998D02*
X442446Y227165D01*
X444112D01*
X444945Y227998D01*
Y231331D01*
X444112Y232164D01*
X442446D01*
X441613Y231331D01*
Y230498D01*
X442446Y229664D01*
X444945D01*
X439553Y217323D02*
X436221D01*
X439553Y220655D01*
Y221488D01*
X438720Y222321D01*
X437053D01*
X436221Y221488D01*
X441219D02*
X442052Y222321D01*
X443718D01*
X444551Y221488D01*
Y220655D01*
X443718Y219822D01*
X444551Y218989D01*
Y218156D01*
X443718Y217323D01*
X442052D01*
X441219Y218156D01*
Y218989D01*
X442052Y219822D01*
X441219Y220655D01*
Y221488D01*
X442052Y219822D02*
X443718D01*
X439553Y207480D02*
X436221D01*
X439553Y210813D01*
Y211646D01*
X438720Y212479D01*
X437053D01*
X436221Y211646D01*
X441219Y212479D02*
X444551D01*
Y211646D01*
X441219Y208313D01*
Y207480D01*
X439553Y198031D02*
X436221D01*
X439553Y201364D01*
Y202197D01*
X438720Y203030D01*
X437053D01*
X436221Y202197D01*
X444551Y203030D02*
X442885Y202197D01*
X441219Y200531D01*
Y198865D01*
X442052Y198031D01*
X443718D01*
X444551Y198865D01*
Y199698D01*
X443718Y200531D01*
X441219D01*
X440340Y176772D02*
X437008D01*
X440340Y180104D01*
Y180937D01*
X439507Y181770D01*
X437841D01*
X437008Y180937D01*
X444505Y176772D02*
Y181770D01*
X442006Y179271D01*
X445338D01*
X327742Y177559D02*
X324410D01*
X327742Y180891D01*
Y181724D01*
X326909Y182557D01*
X325242D01*
X324410Y181724D01*
X332740Y177559D02*
X329408D01*
X332740Y180891D01*
Y181724D01*
X331907Y182557D01*
X330241D01*
X329408Y181724D01*
X334406Y177559D02*
X337738Y180891D01*
X342737Y181724D02*
X341904Y182557D01*
X340238D01*
X339405Y181724D01*
Y178392D01*
X340238Y177559D01*
X341904D01*
X342737Y178392D01*
Y180058D01*
X341071D01*
X344403Y177559D02*
Y182557D01*
X347735Y177559D01*
Y182557D01*
X349401D02*
Y177559D01*
X351901D01*
X352734Y178392D01*
Y181724D01*
X351901Y182557D01*
X349401D01*
X327348Y187795D02*
X324016D01*
X327348Y191128D01*
Y191961D01*
X326515Y192794D01*
X324849D01*
X324016Y191961D01*
X329014Y187795D02*
X330680D01*
X329847D01*
Y192794D01*
X329014Y191961D01*
X327348Y197638D02*
X324016D01*
X327348Y200970D01*
Y201803D01*
X326515Y202636D01*
X324849D01*
X324016Y201803D01*
X329014D02*
X329847Y202636D01*
X331513D01*
X332346Y201803D01*
Y198471D01*
X331513Y197638D01*
X329847D01*
X329014Y198471D01*
Y201803D01*
X324410Y207480D02*
X326076D01*
X325242D01*
Y212479D01*
X324410Y211646D01*
X328575Y208313D02*
X329408Y207480D01*
X331074D01*
X331907Y208313D01*
Y211646D01*
X331074Y212479D01*
X329408D01*
X328575Y211646D01*
Y210813D01*
X329408Y209980D01*
X331907D01*
X324410Y217323D02*
X326076D01*
X325242D01*
Y222321D01*
X324410Y221488D01*
X328575D02*
X329408Y222321D01*
X331074D01*
X331907Y221488D01*
Y220655D01*
X331074Y219822D01*
X331907Y218989D01*
Y218156D01*
X331074Y217323D01*
X329408D01*
X328575Y218156D01*
Y218989D01*
X329408Y219822D01*
X328575Y220655D01*
Y221488D01*
X329408Y219822D02*
X331074D01*
X324410Y227559D02*
X326076D01*
X325242D01*
Y232557D01*
X324410Y231724D01*
X328575Y232557D02*
X331907D01*
Y231724D01*
X328575Y228392D01*
Y227559D01*
X324410Y237402D02*
X326076D01*
X325242D01*
Y242400D01*
X324410Y241567D01*
X331907Y242400D02*
X330241Y241567D01*
X328575Y239901D01*
Y238235D01*
X329408Y237402D01*
X331074D01*
X331907Y238235D01*
Y239068D01*
X331074Y239901D01*
X328575D01*
X324410Y247244D02*
X326076D01*
X325242D01*
Y252242D01*
X324410Y251409D01*
X331907Y252242D02*
X328575D01*
Y249743D01*
X330241Y250576D01*
X331074D01*
X331907Y249743D01*
Y248077D01*
X331074Y247244D01*
X329408D01*
X328575Y248077D01*
X324803Y257480D02*
X326469D01*
X325636D01*
Y262479D01*
X324803Y261646D01*
X331468Y257480D02*
Y262479D01*
X328969Y259980D01*
X332301D01*
X324803Y267717D02*
X326469D01*
X325636D01*
Y272715D01*
X324803Y271882D01*
X328969D02*
X329802Y272715D01*
X331468D01*
X332301Y271882D01*
Y271049D01*
X331468Y270216D01*
X330635D01*
X331468D01*
X332301Y269383D01*
Y268550D01*
X331468Y267717D01*
X329802D01*
X328969Y268550D01*
X324803Y277165D02*
X326469D01*
X325636D01*
Y282164D01*
X324803Y281331D01*
X328969Y277165D02*
X330635D01*
X329802D01*
Y282164D01*
X328969Y281331D01*
X324803Y287402D02*
X326469D01*
X325636D01*
Y292400D01*
X324803Y291567D01*
X328969D02*
X329802Y292400D01*
X331468D01*
X332301Y291567D01*
Y288235D01*
X331468Y287402D01*
X329802D01*
X328969Y288235D01*
Y291567D01*
X324803Y298471D02*
X325636Y297638D01*
X327302D01*
X328135Y298471D01*
Y301803D01*
X327302Y302636D01*
X325636D01*
X324803Y301803D01*
Y300970D01*
X325636Y300137D01*
X328135D01*
X324803Y311646D02*
X325636Y312479D01*
X327302D01*
X328135Y311646D01*
Y310813D01*
X327302Y309980D01*
X328135Y309146D01*
Y308313D01*
X327302Y307480D01*
X325636D01*
X324803Y308313D01*
Y309146D01*
X325636Y309980D01*
X324803Y310813D01*
Y311646D01*
X325636Y309980D02*
X327302D01*
X327696Y348031D02*
Y353030D01*
X325197Y350531D01*
X328529D01*
X325590Y362039D02*
X326424Y362872D01*
X328090D01*
X328923Y362039D01*
Y361206D01*
X328090Y360373D01*
X327257D01*
X328090D01*
X328923Y359540D01*
Y358707D01*
X328090Y357874D01*
X326424D01*
X325590Y358707D01*
X328923Y368110D02*
X325590D01*
X328923Y371443D01*
Y372276D01*
X328090Y373109D01*
X326424D01*
X325590Y372276D01*
X454000Y434000D02*
Y437499D01*
X455749D01*
X456333Y436916D01*
Y435749D01*
X455749Y435166D01*
X454000D01*
X455166D02*
X456333Y434000D01*
X457499Y437499D02*
Y434583D01*
X458082Y434000D01*
X459248D01*
X459831Y434583D01*
Y437499D01*
X460998Y434000D02*
Y437499D01*
X463330Y434000D01*
Y437499D01*
X465663Y434000D02*
X464497Y435166D01*
Y436333D01*
X465663Y437499D01*
X469745D02*
X467412D01*
Y434000D01*
X469745D01*
X467412Y435749D02*
X468579D01*
X470911Y434000D02*
Y436333D01*
X472078Y437499D01*
X473244Y436333D01*
Y434000D01*
Y435749D01*
X470911D01*
X474410Y435166D02*
X476743D01*
X474410Y436333D02*
X476743D01*
X477909Y434000D02*
X479075D01*
X478492D01*
Y437499D01*
X477909Y436916D01*
X480825Y434000D02*
X481991Y435166D01*
Y436333D01*
X480825Y437499D01*
X434000Y434000D02*
Y437499D01*
X435749D01*
X436333Y436916D01*
Y435749D01*
X435749Y435166D01*
X434000D01*
X437499Y434000D02*
Y437499D01*
X439248D01*
X439831Y436916D01*
Y435749D01*
X439248Y435166D01*
X437499D01*
X438665D02*
X439831Y434000D01*
X442747Y437499D02*
X441581D01*
X440998Y436916D01*
Y434583D01*
X441581Y434000D01*
X442747D01*
X443330Y434583D01*
Y436916D01*
X442747Y437499D01*
X446829Y436916D02*
X446246Y437499D01*
X445080D01*
X444497Y436916D01*
Y434583D01*
X445080Y434000D01*
X446246D01*
X446829Y434583D01*
Y435749D01*
X445663D01*
X388000Y434000D02*
Y437499D01*
X389749D01*
X390333Y436916D01*
Y435749D01*
X389749Y435166D01*
X388000D01*
X391499Y434000D02*
Y437499D01*
X393248D01*
X393831Y436916D01*
Y435749D01*
X393248Y435166D01*
X391499D01*
X392665D02*
X393831Y434000D01*
X396747Y437499D02*
X395581D01*
X394998Y436916D01*
Y434583D01*
X395581Y434000D01*
X396747D01*
X397330Y434583D01*
Y436916D01*
X396747Y437499D01*
X400829Y436916D02*
X400246Y437499D01*
X399080D01*
X398497Y436916D01*
Y434583D01*
X399080Y434000D01*
X400246D01*
X400829Y434583D01*
Y435749D01*
X399663D01*
X410000Y434000D02*
Y437499D01*
X411749D01*
X412333Y436916D01*
Y435749D01*
X411749Y435166D01*
X410000D01*
X411166D02*
X412333Y434000D01*
X413499Y437499D02*
Y434583D01*
X414082Y434000D01*
X415248D01*
X415832Y434583D01*
Y437499D01*
X416998Y434000D02*
Y437499D01*
X419330Y434000D01*
Y437499D01*
X388000Y460998D02*
X389666D01*
X388833D01*
Y456000D01*
X388000D01*
X389666D01*
X394665Y460998D02*
X392998D01*
X392165Y460165D01*
Y456833D01*
X392998Y456000D01*
X394665D01*
X395498Y456833D01*
Y460165D01*
X394665Y460998D01*
X402162Y456000D02*
Y460998D01*
X403828Y459332D01*
X405494Y460998D01*
Y456000D01*
X409660Y460998D02*
X407994D01*
X407161Y460165D01*
Y456833D01*
X407994Y456000D01*
X409660D01*
X410493Y456833D01*
Y460165D01*
X409660Y460998D01*
X412159D02*
Y456000D01*
X414658D01*
X415491Y456833D01*
Y460165D01*
X414658Y460998D01*
X412159D01*
X420490D02*
X417157D01*
Y456000D01*
X420490D01*
X417157Y458499D02*
X418823D01*
X443332Y460998D02*
X440000D01*
Y456000D01*
X443332D01*
X440000Y458499D02*
X441666D01*
X444998Y456000D02*
Y459332D01*
X446664Y460998D01*
X448331Y459332D01*
Y456000D01*
Y458499D01*
X444998D01*
X449997Y456000D02*
X453329Y459332D01*
X454995Y460998D02*
Y457666D01*
X456661Y456000D01*
X458327Y457666D01*
Y460998D01*
X459994Y456000D02*
Y460998D01*
X462493D01*
X463326Y460165D01*
Y458499D01*
X462493Y457666D01*
X459994D01*
X464992Y456000D02*
Y460998D01*
X467491D01*
X468324Y460165D01*
Y458499D01*
X467491Y457666D01*
X464992D01*
X348000Y460998D02*
X351332D01*
X349666D01*
Y456000D01*
X352998Y460998D02*
X356331Y456000D01*
Y460998D02*
X352998Y456000D01*
X357997Y460998D02*
Y456000D01*
X360496D01*
X361329Y456833D01*
Y460165D01*
X360496Y460998D01*
X357997D01*
X304000Y456000D02*
Y460998D01*
X306499D01*
X307332Y460165D01*
Y458499D01*
X306499Y457666D01*
X304000D01*
X305666D02*
X307332Y456000D01*
X308998Y460998D02*
X312331Y456000D01*
Y460998D02*
X308998Y456000D01*
X313997Y460998D02*
Y456000D01*
X316496D01*
X317329Y456833D01*
Y460165D01*
X316496Y460998D01*
X313997D01*
X294000Y434000D02*
Y437499D01*
X295749D01*
X296333Y436916D01*
Y435749D01*
X295749Y435166D01*
X294000D01*
X297499Y434000D02*
Y437499D01*
X299248D01*
X299831Y436916D01*
Y435749D01*
X299248Y435166D01*
X297499D01*
X298665D02*
X299831Y434000D01*
X302747Y437499D02*
X301581D01*
X300998Y436916D01*
Y434583D01*
X301581Y434000D01*
X302747D01*
X303330Y434583D01*
Y436916D01*
X302747Y437499D01*
X306829Y436916D02*
X306246Y437499D01*
X305080D01*
X304497Y436916D01*
Y434583D01*
X305080Y434000D01*
X306246D01*
X306829Y434583D01*
Y435749D01*
X305663D01*
X340000Y434000D02*
Y437499D01*
X341749D01*
X342333Y436916D01*
Y435749D01*
X341749Y435166D01*
X340000D01*
X343499Y434000D02*
Y437499D01*
X345248D01*
X345831Y436916D01*
Y435749D01*
X345248Y435166D01*
X343499D01*
X344665D02*
X345831Y434000D01*
X348747Y437499D02*
X347581D01*
X346998Y436916D01*
Y434583D01*
X347581Y434000D01*
X348747D01*
X349330Y434583D01*
Y436916D01*
X348747Y437499D01*
X352829Y436916D02*
X352246Y437499D01*
X351080D01*
X350497Y436916D01*
Y434583D01*
X351080Y434000D01*
X352246D01*
X352829Y434583D01*
Y435749D01*
X351663D01*
X362000Y434000D02*
Y437499D01*
X363749D01*
X364333Y436916D01*
Y435749D01*
X363749Y435166D01*
X362000D01*
X363166D02*
X364333Y434000D01*
X365499Y437499D02*
Y434583D01*
X366082Y434000D01*
X367248D01*
X367831Y434583D01*
Y437499D01*
X368998Y434000D02*
Y437499D01*
X371330Y434000D01*
Y437499D01*
X316000Y434000D02*
Y437499D01*
X317749D01*
X318333Y436916D01*
Y435749D01*
X317749Y435166D01*
X316000D01*
X317166D02*
X318333Y434000D01*
X319499Y437499D02*
Y434583D01*
X320082Y434000D01*
X321248D01*
X321831Y434583D01*
Y437499D01*
X322998Y434000D02*
Y437499D01*
X325330Y434000D01*
Y437499D01*
X336000Y428998D02*
X339332D01*
X337666D01*
Y424000D01*
X340998D02*
Y428998D01*
X343498D01*
X344331Y428165D01*
Y426499D01*
X343498Y425666D01*
X340998D01*
X342665D02*
X344331Y424000D01*
X345997Y428998D02*
X347663D01*
X346830D01*
Y424000D01*
X345997D01*
X347663D01*
X353494Y428165D02*
X352661Y428998D01*
X350995D01*
X350162Y428165D01*
Y424833D01*
X350995Y424000D01*
X352661D01*
X353494Y424833D01*
Y426499D01*
X351828D01*
X356827Y424000D02*
X355160Y425666D01*
Y427332D01*
X356827Y428998D01*
X359326D02*
X360992D01*
X360159D01*
Y424000D01*
X359326D01*
X360992D01*
X365990Y428998D02*
X364324D01*
X363491Y428165D01*
Y424833D01*
X364324Y424000D01*
X365990D01*
X366823Y424833D01*
Y428165D01*
X365990Y428998D01*
X370989Y424000D02*
Y428998D01*
X368490Y426499D01*
X371822D01*
X373488Y424000D02*
X375154Y425666D01*
Y427332D01*
X373488Y428998D01*
X340000Y404000D02*
Y406333D01*
X341166Y407499D01*
X342333Y406333D01*
Y404000D01*
Y405749D01*
X340000D01*
X343499Y407499D02*
Y405166D01*
X344665Y404000D01*
X345831Y405166D01*
Y407499D01*
X346998Y404000D02*
Y407499D01*
X348747D01*
X349330Y406916D01*
Y405749D01*
X348747Y405166D01*
X346998D01*
X348164D02*
X349330Y404000D01*
X358333Y407499D02*
X356000D01*
Y405749D01*
X357166Y406333D01*
X357749D01*
X358333Y405749D01*
Y404583D01*
X357749Y404000D01*
X356583D01*
X356000Y404583D01*
X359499Y404000D02*
X360665D01*
X360082D01*
Y407499D01*
X359499Y406916D01*
X362415Y404000D02*
X364747Y406333D01*
X365914Y404000D02*
Y407499D01*
X367663D01*
X368246Y406916D01*
Y405749D01*
X367663Y405166D01*
X365914D01*
X369412Y404000D02*
X370579D01*
X369995D01*
Y407499D01*
X369412Y406916D01*
X372328Y404000D02*
Y404583D01*
X372911D01*
Y404000D01*
X372328D01*
X375244Y406916D02*
X375827Y407499D01*
X376993D01*
X377576Y406916D01*
Y404583D01*
X376993Y404000D01*
X375827D01*
X375244Y404583D01*
Y406916D01*
X301332Y428165D02*
X300499Y428998D01*
X298833D01*
X298000Y428165D01*
Y424833D01*
X298833Y424000D01*
X300499D01*
X301332Y424833D01*
Y426499D01*
X299666D01*
X302998Y424000D02*
Y428998D01*
X305498D01*
X306331Y428165D01*
Y426499D01*
X305498Y425666D01*
X302998D01*
X307997Y428998D02*
X309663D01*
X308830D01*
Y424000D01*
X307997D01*
X309663D01*
X314661Y428998D02*
X312995D01*
X312162Y428165D01*
Y424833D01*
X312995Y424000D01*
X314661D01*
X315494Y424833D01*
Y428165D01*
X314661Y428998D01*
X317161Y428165D02*
X317993Y428998D01*
X319660D01*
X320493Y428165D01*
Y427332D01*
X319660Y426499D01*
X318827D01*
X319660D01*
X320493Y425666D01*
Y424833D01*
X319660Y424000D01*
X317993D01*
X317161Y424833D01*
X314333Y407499D02*
X312000D01*
Y405749D01*
X313166Y406333D01*
X313749D01*
X314333Y405749D01*
Y404583D01*
X313749Y404000D01*
X312583D01*
X312000Y404583D01*
X315499Y404000D02*
X316665D01*
X316082D01*
Y407499D01*
X315499Y406916D01*
X318415Y405749D02*
X320747D01*
X321914Y404000D02*
Y407499D01*
X323663D01*
X324246Y406916D01*
Y405749D01*
X323663Y405166D01*
X321914D01*
X323080D02*
X324246Y404000D01*
X327745Y406916D02*
X327162Y407499D01*
X325995D01*
X325412Y406916D01*
Y406333D01*
X325995Y405749D01*
X327162D01*
X327745Y405166D01*
Y404583D01*
X327162Y404000D01*
X325995D01*
X325412Y404583D01*
X328911Y407499D02*
X331244D01*
X330078D01*
Y404000D01*
X296000D02*
Y406333D01*
X297166Y407499D01*
X298333Y406333D01*
Y404000D01*
Y405749D01*
X296000D01*
X299499Y407499D02*
Y405166D01*
X300665Y404000D01*
X301831Y405166D01*
Y407499D01*
X302998Y404000D02*
Y407499D01*
X304747D01*
X305330Y406916D01*
Y405749D01*
X304747Y405166D01*
X302998D01*
X304164D02*
X305330Y404000D01*
X409749Y407499D02*
X408583D01*
X408000Y406916D01*
Y404583D01*
X408583Y404000D01*
X409749D01*
X410333Y404583D01*
Y406916D01*
X409749Y407499D01*
X411499Y404000D02*
Y407499D01*
X413248D01*
X413832Y406916D01*
Y405749D01*
X413248Y405166D01*
X411499D01*
X414998Y407499D02*
X417330D01*
X416164D01*
Y404000D01*
X386000Y424000D02*
Y427332D01*
X387666Y428998D01*
X389332Y427332D01*
Y424000D01*
Y426499D01*
X386000D01*
X390998Y428998D02*
Y425666D01*
X392665Y424000D01*
X394331Y425666D01*
Y428998D01*
X395997Y424000D02*
Y428998D01*
X398496D01*
X399329Y428165D01*
Y426499D01*
X398496Y425666D01*
X395997D01*
X397663D02*
X399329Y424000D01*
X405994D02*
Y428998D01*
X407660Y427332D01*
X409326Y428998D01*
Y424000D01*
X413491Y428998D02*
X411825D01*
X410992Y428165D01*
Y424833D01*
X411825Y424000D01*
X413491D01*
X414324Y424833D01*
Y428165D01*
X413491Y428998D01*
X415990D02*
Y424000D01*
X418490D01*
X419322Y424833D01*
Y428165D01*
X418490Y428998D01*
X415990D01*
X424321D02*
X420989D01*
Y424000D01*
X424321D01*
X420989Y426499D02*
X422655D01*
X390000Y404000D02*
Y407499D01*
X392333Y404000D01*
Y407499D01*
X395248D02*
X394082D01*
X393499Y406916D01*
Y404583D01*
X394082Y404000D01*
X395248D01*
X395831Y404583D01*
Y406916D01*
X395248Y407499D01*
X396998Y404000D02*
Y407499D01*
X398747D01*
X399330Y406916D01*
Y405749D01*
X398747Y405166D01*
X396998D01*
X398164D02*
X399330Y404000D01*
X400497D02*
Y407499D01*
X401663Y406333D01*
X402829Y407499D01*
Y404000D01*
X414000Y202998D02*
Y199666D01*
X415666Y198000D01*
X417332Y199666D01*
Y202998D01*
X422331Y202165D02*
X421498Y202998D01*
X419831D01*
X418998Y202165D01*
Y198833D01*
X419831Y198000D01*
X421498D01*
X422331Y198833D01*
X427329Y202165D02*
X426496Y202998D01*
X424830D01*
X423997Y202165D01*
Y198833D01*
X424830Y198000D01*
X426496D01*
X427329Y198833D01*
X428333Y181499D02*
X426000D01*
Y179749D01*
X427166Y180333D01*
X427749D01*
X428333Y179749D01*
Y178583D01*
X427749Y178000D01*
X426583D01*
X426000Y178583D01*
X429499Y181499D02*
Y179166D01*
X430665Y178000D01*
X431832Y179166D01*
Y181499D01*
X406000Y180916D02*
X406583Y181499D01*
X407749D01*
X408333Y180916D01*
Y180333D01*
X407749Y179749D01*
X407166D01*
X407749D01*
X408333Y179166D01*
Y178583D01*
X407749Y178000D01*
X406583D01*
X406000Y178583D01*
X409499Y178000D02*
Y178583D01*
X410082D01*
Y178000D01*
X409499D01*
X412415Y180916D02*
X412998Y181499D01*
X414164D01*
X414747Y180916D01*
Y180333D01*
X414164Y179749D01*
X413581D01*
X414164D01*
X414747Y179166D01*
Y178583D01*
X414164Y178000D01*
X412998D01*
X412415Y178583D01*
X415913Y181499D02*
Y179166D01*
X417080Y178000D01*
X418246Y179166D01*
Y181499D01*
D34*
X438252Y441000D02*
Y451000D01*
X469748D01*
Y441000D02*
Y451000D01*
X438252Y441000D02*
X469748D01*
X388252D02*
Y451000D01*
X419748D01*
Y441000D02*
Y451000D01*
X388252Y441000D02*
X419748D01*
X340252D02*
X371748D01*
Y451000D01*
X340252D02*
X371748D01*
X340252Y441000D02*
Y451000D01*
X294252Y441000D02*
X325748D01*
Y451000D01*
X294252D02*
X325748D01*
X294252Y441000D02*
Y451000D01*
X340252Y411000D02*
X371748D01*
Y421000D01*
X340252D02*
X371748D01*
X340252Y411000D02*
Y421000D01*
X294252Y411000D02*
X325748D01*
Y421000D01*
X294252D02*
X325748D01*
X294252Y411000D02*
Y421000D01*
X388252Y411000D02*
X419748D01*
Y421000D01*
X388252D02*
X419748D01*
X388252Y411000D02*
Y421000D01*
X404252Y185000D02*
X435748D01*
Y195000D01*
X404252D02*
X435748D01*
X404252Y185000D02*
Y195000D01*
X328300Y320548D02*
X338300D01*
X328300D02*
Y342048D01*
X338300D01*
Y320548D02*
Y342048D01*
X356890Y390354D02*
X407677D01*
X356890Y339567D02*
X407677D01*
Y390354D01*
X356890Y339567D02*
Y390354D01*
M02*
