G04 Layer_Color=8421504*
%FSLAX25Y25*%
%MOIN*%
G70*
G01*
G75*
%ADD10O,0.02165X0.05709*%
%ADD11O,0.05709X0.02165*%
D10*
X405906Y394882D02*
D03*
X402756D02*
D03*
X399606D02*
D03*
X396457D02*
D03*
X393307D02*
D03*
X390157D02*
D03*
X387008D02*
D03*
X383858D02*
D03*
X380709D02*
D03*
X377559D02*
D03*
X374409D02*
D03*
X371260D02*
D03*
X368110D02*
D03*
X364961D02*
D03*
X361811D02*
D03*
X358661D02*
D03*
Y335039D02*
D03*
X361811D02*
D03*
X364961D02*
D03*
X368110D02*
D03*
X371260D02*
D03*
X374409D02*
D03*
X377559D02*
D03*
X380709D02*
D03*
X383858D02*
D03*
X387008D02*
D03*
X390157D02*
D03*
X393307D02*
D03*
X396457D02*
D03*
X399606D02*
D03*
X402756D02*
D03*
X405906D02*
D03*
D11*
X352362Y388583D02*
D03*
Y385433D02*
D03*
Y382283D02*
D03*
Y379134D02*
D03*
Y375984D02*
D03*
Y372835D02*
D03*
Y369685D02*
D03*
Y366535D02*
D03*
Y363386D02*
D03*
Y360236D02*
D03*
Y357087D02*
D03*
Y353937D02*
D03*
Y350787D02*
D03*
Y347638D02*
D03*
Y344488D02*
D03*
Y341339D02*
D03*
X412205D02*
D03*
Y344488D02*
D03*
Y347638D02*
D03*
Y350787D02*
D03*
Y353937D02*
D03*
Y357087D02*
D03*
Y360236D02*
D03*
Y363386D02*
D03*
Y366535D02*
D03*
Y369685D02*
D03*
Y372835D02*
D03*
Y375984D02*
D03*
Y379134D02*
D03*
Y382283D02*
D03*
Y385433D02*
D03*
Y388583D02*
D03*
M02*
