G04 Layer_Color=32896*
%FSLAX25Y25*%
%MOIN*%
G70*
G01*
G75*
%ADD16C,0.01000*%
%ADD23C,0.00500*%
%ADD38C,0.00787*%
%ADD56C,0.02699*%
G36*
X440691Y286399D02*
X440475D01*
Y286615D01*
X440691D01*
Y286399D01*
D02*
G37*
G36*
X350000Y255222D02*
X346078Y251138D01*
X345962Y250039D01*
X345719Y247366D01*
X345522Y245445D01*
X349722Y241130D01*
X349433Y240852D01*
X345488Y244901D01*
X345256Y242414D01*
X345129D01*
Y241465D01*
X344250D01*
Y242414D01*
X341531D01*
X341427Y242229D01*
X341299Y242044D01*
X341103Y241835D01*
X340848Y241662D01*
X340559Y241569D01*
X340281Y241535D01*
X339992Y241546D01*
X339784Y241604D01*
X339541Y241708D01*
X339333Y241835D01*
X339171Y241997D01*
X339008Y242229D01*
X338893Y242483D01*
X338823Y242726D01*
X338800Y242923D01*
X338823Y243166D01*
X338858Y243351D01*
X338928Y243525D01*
X339032Y243721D01*
X339147Y243883D01*
X339309Y244034D01*
X339483Y244149D01*
X339645Y244230D01*
X339622Y244439D01*
X336162Y240852D01*
X335873Y241141D01*
X339587Y244982D01*
X339286Y248338D01*
X339078Y250767D01*
X337967D01*
Y252329D01*
X338256D01*
X335445Y255222D01*
X335734Y255500D01*
X338384Y252769D01*
Y252966D01*
X338326Y253012D01*
X338256Y253058D01*
X338187Y253128D01*
X338118Y253209D01*
X338083Y253313D01*
X338048Y253405D01*
X338037Y253521D01*
X338060Y253672D01*
X338094Y253752D01*
X338199Y253914D01*
X338314Y254019D01*
X338465Y254088D01*
X338627Y254111D01*
X338789Y254088D01*
X338928Y254030D01*
X339043Y253961D01*
X339101Y253891D01*
X339205Y253984D01*
X339379Y254100D01*
X339587Y254204D01*
X339888Y254319D01*
X340212Y254412D01*
X340536Y254481D01*
X340883Y254539D01*
X341160Y254574D01*
Y254921D01*
X343382D01*
Y254620D01*
X343555D01*
X343845Y254586D01*
X344146Y254551D01*
X344435Y254504D01*
Y254690D01*
X345395D01*
Y254238D01*
X345511Y254181D01*
X345661Y254111D01*
X345835Y254007D01*
X345974Y253914D01*
X346101Y253799D01*
X346194Y253718D01*
X346251Y253637D01*
X346298Y253544D01*
X346274Y253382D01*
X346830D01*
Y252677D01*
X346217D01*
X346124Y251762D01*
X349711Y255500D01*
X350000Y255222D01*
D02*
G37*
G36*
X450193Y282944D02*
X449977D01*
Y283159D01*
X450193D01*
Y282944D01*
D02*
G37*
G36*
X445873Y284671D02*
X445658D01*
Y284887D01*
X445873D01*
Y284671D01*
D02*
G37*
G36*
X432053Y318360D02*
X431837D01*
Y318576D01*
X432053D01*
Y318360D01*
D02*
G37*
G36*
X437235Y319224D02*
X437019D01*
Y319440D01*
X437235D01*
Y319224D01*
D02*
G37*
G36*
X434644Y288126D02*
X434428D01*
Y288342D01*
X434644D01*
Y288126D01*
D02*
G37*
G36*
X437235Y301947D02*
X437019D01*
Y302164D01*
X437235D01*
Y301947D01*
D02*
G37*
G36*
X451920Y282080D02*
X451704D01*
Y282296D01*
X451920D01*
Y282080D01*
D02*
G37*
G36*
X380656Y209087D02*
X380439D01*
Y209303D01*
X380656D01*
Y209087D01*
D02*
G37*
G36*
X484745Y224636D02*
X484529D01*
Y224852D01*
X484745D01*
Y224636D01*
D02*
G37*
G36*
X433780Y208224D02*
X433564D01*
Y208439D01*
X433780D01*
Y208224D01*
D02*
G37*
G36*
X469628Y206496D02*
X469413D01*
Y206712D01*
X469628D01*
Y206496D01*
D02*
G37*
G36*
X406570Y203905D02*
X406354D01*
Y204120D01*
X406570D01*
Y203905D01*
D02*
G37*
G36*
X453648Y281216D02*
X453432D01*
Y281432D01*
X453648D01*
Y281216D01*
D02*
G37*
G36*
X393613Y204768D02*
X393397D01*
Y204984D01*
X393613D01*
Y204768D01*
D02*
G37*
G36*
X384975D02*
X384759D01*
Y204984D01*
X384975D01*
Y204768D01*
D02*
G37*
G36*
X364698Y255073D02*
X365068Y255050D01*
X365427Y255015D01*
X365774Y254957D01*
X366121Y254900D01*
X366445Y254819D01*
X367093Y254645D01*
X367694Y254425D01*
X368261Y254182D01*
X368782Y253928D01*
X369025Y253800D01*
X369256Y253661D01*
X369476Y253534D01*
X369684Y253395D01*
X369881Y253268D01*
X370066Y253141D01*
X370240Y253014D01*
X370402Y252898D01*
X370541Y252782D01*
X370668Y252678D01*
X370783Y252586D01*
X370888Y252504D01*
X370980Y252424D01*
X371050Y252366D01*
X371108Y252308D01*
X371142Y252273D01*
X371165Y252250D01*
X371177Y252238D01*
X371431Y251972D01*
X371674Y251695D01*
X371894Y251417D01*
X372114Y251128D01*
X372299Y250838D01*
X372484Y250561D01*
X372658Y250260D01*
X372808Y249971D01*
X372947Y249681D01*
X373086Y249392D01*
X373306Y248825D01*
X373502Y248282D01*
X373641Y247761D01*
X373769Y247263D01*
X373815Y247032D01*
X373850Y246812D01*
X373884Y246615D01*
X373919Y246419D01*
X373942Y246234D01*
X373954Y246072D01*
X373965Y245921D01*
X373977Y245794D01*
X373988Y245678D01*
Y245574D01*
X374000Y245505D01*
Y245447D01*
Y245412D01*
Y245401D01*
X373988Y245030D01*
X373965Y244660D01*
X373931Y244301D01*
X373873Y243954D01*
X373815Y243607D01*
X373734Y243283D01*
X373560Y242635D01*
X373341Y242034D01*
X373109Y241467D01*
X372855Y240946D01*
X372716Y240703D01*
X372588Y240472D01*
X372461Y240252D01*
X372322Y240044D01*
X372195Y239847D01*
X372068Y239662D01*
X371952Y239488D01*
X371836Y239326D01*
X371721Y239188D01*
X371617Y239060D01*
X371524Y238945D01*
X371431Y238840D01*
X371362Y238748D01*
X371293Y238678D01*
X371246Y238620D01*
X371212Y238586D01*
X371188Y238563D01*
X371177Y238551D01*
X370911Y238297D01*
X370633Y238054D01*
X370356Y237822D01*
X370066Y237614D01*
X369777Y237417D01*
X369488Y237232D01*
X369198Y237070D01*
X368909Y236908D01*
X368620Y236769D01*
X368331Y236642D01*
X367764Y236411D01*
X367208Y236226D01*
X366688Y236075D01*
X366202Y235959D01*
X365970Y235902D01*
X365751Y235867D01*
X365542Y235832D01*
X365346Y235809D01*
X365160Y235774D01*
X364999Y235763D01*
X364848Y235751D01*
X364721Y235740D01*
X364605Y235728D01*
X364501D01*
X364432Y235717D01*
X364328D01*
X363957Y235728D01*
X363587Y235751D01*
X363228Y235786D01*
X362881Y235844D01*
X362546Y235902D01*
X362210Y235983D01*
X361574Y236156D01*
X360972Y236376D01*
X360405Y236619D01*
X359885Y236874D01*
X359642Y237001D01*
X359410Y237140D01*
X359190Y237267D01*
X358982Y237394D01*
X358785Y237533D01*
X358600Y237660D01*
X358427Y237776D01*
X358265Y237892D01*
X358126Y238007D01*
X357999Y238111D01*
X357883Y238204D01*
X357779Y238285D01*
X357686Y238366D01*
X357617Y238435D01*
X357559Y238482D01*
X357524Y238516D01*
X357501Y238540D01*
X357490Y238551D01*
X357235Y238817D01*
X356992Y239095D01*
X356761Y239373D01*
X356552Y239662D01*
X356356Y239951D01*
X356171Y240240D01*
X355997Y240530D01*
X355847Y240819D01*
X355696Y241108D01*
X355569Y241397D01*
X355338Y241964D01*
X355153Y242520D01*
X355002Y243040D01*
X354886Y243526D01*
X354829Y243758D01*
X354794Y243977D01*
X354759Y244186D01*
X354724Y244382D01*
X354701Y244567D01*
X354690Y244729D01*
X354678Y244880D01*
X354666Y245007D01*
X354655Y245123D01*
X354643Y245227D01*
Y245296D01*
Y245354D01*
Y245389D01*
Y245401D01*
X354655Y245771D01*
X354678Y246141D01*
X354713Y246500D01*
X354771Y246847D01*
X354829Y247182D01*
X354909Y247518D01*
X355083Y248154D01*
X355303Y248756D01*
X355546Y249323D01*
X355800Y249843D01*
X355928Y250086D01*
X356066Y250318D01*
X356194Y250538D01*
X356333Y250746D01*
X356460Y250943D01*
X356587Y251128D01*
X356714Y251301D01*
X356830Y251463D01*
X356946Y251602D01*
X357050Y251729D01*
X357142Y251845D01*
X357224Y251949D01*
X357305Y252042D01*
X357362Y252111D01*
X357420Y252169D01*
X357455Y252204D01*
X357478Y252227D01*
X357490Y252238D01*
X357756Y252493D01*
X358033Y252736D01*
X358311Y252967D01*
X358600Y253176D01*
X358890Y253372D01*
X359167Y253557D01*
X359468Y253731D01*
X359757Y253881D01*
X360047Y254032D01*
X360336Y254159D01*
X360903Y254390D01*
X361446Y254576D01*
X361967Y254726D01*
X362465Y254842D01*
X362696Y254900D01*
X362916Y254934D01*
X363113Y254969D01*
X363309Y255004D01*
X363494Y255027D01*
X363656Y255038D01*
X363807Y255050D01*
X363934Y255062D01*
X364050Y255073D01*
X364154Y255085D01*
X364328D01*
X364698Y255073D01*
D02*
G37*
G36*
X368041Y230377D02*
X368516Y230320D01*
X368967Y230227D01*
X369395Y230100D01*
X369800Y229961D01*
X370170Y229799D01*
X370529Y229625D01*
X370841Y229452D01*
X371131Y229278D01*
X371385Y229105D01*
X371605Y228943D01*
X371790Y228804D01*
X371929Y228677D01*
X372033Y228584D01*
X372102Y228526D01*
X372126Y228503D01*
X372461Y228144D01*
X372750Y227763D01*
X373005Y227381D01*
X373213Y226999D01*
X373398Y226606D01*
X373549Y226235D01*
X373676Y225865D01*
X373780Y225518D01*
X373850Y225194D01*
X373907Y224893D01*
X373954Y224627D01*
X373977Y224396D01*
X373988Y224292D01*
X374000Y224199D01*
Y224130D01*
X374012Y224060D01*
Y224014D01*
Y223979D01*
Y223956D01*
Y223944D01*
X373988Y223459D01*
X373931Y222984D01*
X373838Y222533D01*
X373711Y222105D01*
X373572Y221700D01*
X373410Y221330D01*
X373248Y220983D01*
X373063Y220659D01*
X372889Y220381D01*
X372727Y220126D01*
X372565Y219907D01*
X372415Y219721D01*
X372299Y219583D01*
X372207Y219467D01*
X372149Y219409D01*
X372126Y219386D01*
X371767Y219050D01*
X371385Y218761D01*
X371003Y218507D01*
X370610Y218298D01*
X370228Y218113D01*
X369846Y217963D01*
X369476Y217835D01*
X369129Y217731D01*
X368805Y217662D01*
X368504Y217604D01*
X368238Y217558D01*
X368007Y217535D01*
X367903Y217523D01*
X367810Y217512D01*
X367741D01*
X367671Y217500D01*
X367313D01*
X367208Y217512D01*
X367023D01*
X366965Y217523D01*
X366908D01*
Y219479D01*
X367127Y219455D01*
X367243Y219444D01*
X367336D01*
X367428Y219432D01*
X367555D01*
X367903Y219444D01*
X368227Y219490D01*
X368539Y219560D01*
X368840Y219640D01*
X369117Y219733D01*
X369384Y219849D01*
X369626Y219964D01*
X369846Y220092D01*
X370055Y220219D01*
X370228Y220335D01*
X370379Y220450D01*
X370506Y220543D01*
X370610Y220636D01*
X370691Y220693D01*
X370737Y220740D01*
X370749Y220751D01*
X370980Y221006D01*
X371188Y221272D01*
X371362Y221538D01*
X371512Y221816D01*
X371640Y222082D01*
X371744Y222348D01*
X371836Y222602D01*
X371906Y222845D01*
X371952Y223077D01*
X371998Y223285D01*
X372022Y223470D01*
X372045Y223632D01*
X372056Y223759D01*
X372068Y223864D01*
Y223921D01*
Y223944D01*
X372056Y224292D01*
X372010Y224616D01*
X371940Y224939D01*
X371860Y225240D01*
X371767Y225518D01*
X371651Y225784D01*
X371536Y226027D01*
X371408Y226247D01*
X371281Y226444D01*
X371165Y226617D01*
X371050Y226779D01*
X370957Y226906D01*
X370865Y226999D01*
X370807Y227080D01*
X370760Y227126D01*
X370749Y227138D01*
X370494Y227369D01*
X370228Y227577D01*
X369962Y227751D01*
X369684Y227913D01*
X369418Y228040D01*
X369152Y228144D01*
X368898Y228237D01*
X368655Y228306D01*
X368423Y228353D01*
X368215Y228399D01*
X368030Y228434D01*
X367868Y228445D01*
X367741Y228457D01*
X367636Y228468D01*
X367555D01*
X367313Y228457D01*
X367208D01*
X367104Y228445D01*
X367023Y228434D01*
X366965D01*
X366919Y228422D01*
X366908D01*
Y230366D01*
X367127Y230389D01*
X367232D01*
X367336Y230401D01*
X367555D01*
X368041Y230377D01*
D02*
G37*
G36*
X349155Y237647D02*
Y237589D01*
Y237508D01*
Y237427D01*
Y237335D01*
Y237254D01*
Y237196D01*
Y237184D01*
Y237173D01*
Y236791D01*
Y236606D01*
Y236432D01*
Y236293D01*
Y236178D01*
Y236131D01*
Y236097D01*
Y236085D01*
Y236073D01*
Y235854D01*
Y235657D01*
Y235472D01*
Y235310D01*
Y235171D01*
Y235079D01*
Y235009D01*
Y234998D01*
Y234986D01*
Y234824D01*
Y234708D01*
Y234616D01*
Y234558D01*
Y234523D01*
Y234512D01*
Y234500D01*
X336509D01*
Y234523D01*
Y234581D01*
Y234650D01*
Y234743D01*
Y234836D01*
Y234905D01*
Y234963D01*
Y234986D01*
Y235368D01*
Y235553D01*
Y235715D01*
Y235865D01*
Y235969D01*
Y236016D01*
Y236050D01*
Y236062D01*
Y236073D01*
Y236293D01*
Y236502D01*
Y236687D01*
Y236849D01*
Y236988D01*
Y237092D01*
Y237150D01*
Y237173D01*
Y237265D01*
Y237335D01*
Y237462D01*
Y237555D01*
Y237612D01*
Y237647D01*
Y237659D01*
Y237670D01*
X349155D01*
Y237647D01*
D02*
G37*
G36*
X430325Y333045D02*
X430109D01*
Y333261D01*
X430325D01*
Y333045D01*
D02*
G37*
G36*
X357073Y230377D02*
X357547Y230320D01*
X357999Y230227D01*
X358427Y230100D01*
X358832Y229961D01*
X359202Y229799D01*
X359549Y229625D01*
X359873Y229452D01*
X360151Y229278D01*
X360405Y229105D01*
X360625Y228943D01*
X360810Y228804D01*
X360949Y228677D01*
X361065Y228584D01*
X361123Y228526D01*
X361146Y228503D01*
X361481Y228144D01*
X361771Y227763D01*
X362025Y227381D01*
X362233Y226999D01*
X362418Y226606D01*
X362569Y226235D01*
X362696Y225865D01*
X362800Y225518D01*
X362870Y225194D01*
X362928Y224893D01*
X362974Y224627D01*
X362997Y224396D01*
X363008Y224292D01*
X363020Y224199D01*
Y224130D01*
X363032Y224060D01*
Y224014D01*
Y223979D01*
Y223956D01*
Y223944D01*
X363008Y223459D01*
X362951Y222984D01*
X362858Y222533D01*
X362731Y222105D01*
X362592Y221700D01*
X362430Y221330D01*
X362268Y220983D01*
X362083Y220659D01*
X361909Y220381D01*
X361747Y220126D01*
X361585Y219907D01*
X361435Y219721D01*
X361319Y219583D01*
X361227Y219467D01*
X361169Y219409D01*
X361146Y219386D01*
X360787Y219050D01*
X360405Y218761D01*
X360023Y218507D01*
X359642Y218298D01*
X359248Y218113D01*
X358878Y217963D01*
X358508Y217835D01*
X358161Y217731D01*
X357837Y217662D01*
X357536Y217604D01*
X357270Y217558D01*
X357038Y217535D01*
X356934Y217523D01*
X356842Y217512D01*
X356772D01*
X356703Y217500D01*
X356344D01*
X356240Y217512D01*
X356055D01*
X355997Y217523D01*
X355939D01*
X355951Y219479D01*
X356171Y219455D01*
X356275Y219444D01*
X356379D01*
X356460Y219432D01*
X356587D01*
X356876Y219444D01*
X357166Y219479D01*
X357443Y219525D01*
X357698Y219583D01*
X357952Y219664D01*
X358184Y219745D01*
X358404Y219837D01*
X358600Y219930D01*
X358785Y220022D01*
X358947Y220115D01*
X359086Y220196D01*
X359202Y220277D01*
X359295Y220335D01*
X359364Y220381D01*
X359410Y220416D01*
X359422Y220427D01*
X359642Y220624D01*
X359850Y220821D01*
X360023Y221029D01*
X360185Y221249D01*
X360336Y221457D01*
X360463Y221677D01*
X360579Y221885D01*
X360671Y222082D01*
X360752Y222267D01*
X360822Y222440D01*
X360880Y222591D01*
X360926Y222730D01*
X360961Y222834D01*
X360984Y222915D01*
X360995Y222961D01*
Y222984D01*
X357224D01*
Y224916D01*
X360995D01*
X360926Y225206D01*
X360833Y225472D01*
X360729Y225738D01*
X360613Y225981D01*
X360486Y226201D01*
X360359Y226409D01*
X360220Y226606D01*
X360093Y226779D01*
X359966Y226941D01*
X359838Y227080D01*
X359734Y227196D01*
X359630Y227288D01*
X359549Y227369D01*
X359491Y227427D01*
X359445Y227462D01*
X359433Y227473D01*
X359190Y227647D01*
X358947Y227797D01*
X358704Y227936D01*
X358461Y228052D01*
X358219Y228144D01*
X357987Y228225D01*
X357756Y228295D01*
X357536Y228341D01*
X357339Y228387D01*
X357154Y228411D01*
X356992Y228434D01*
X356853Y228457D01*
X356738D01*
X356657Y228468D01*
X356587D01*
X356344Y228457D01*
X356240D01*
X356136Y228445D01*
X356055Y228434D01*
X355997D01*
X355951Y228422D01*
X355939D01*
Y230366D01*
X356078Y230377D01*
X356194Y230389D01*
X356310D01*
X356402Y230401D01*
X356587D01*
X357073Y230377D01*
D02*
G37*
G36*
X434860Y355720D02*
X435076D01*
Y355504D01*
X435292D01*
Y355720D01*
X435508D01*
Y355504D01*
X435724D01*
Y355288D01*
X435940D01*
Y355504D01*
X435724D01*
Y355720D01*
X435940D01*
Y355504D01*
X436156D01*
Y355288D01*
X437667D01*
Y355072D01*
X437883D01*
Y354856D01*
X438099D01*
Y354640D01*
X438315D01*
Y354856D01*
X438531D01*
Y354640D01*
X438747D01*
Y354424D01*
X439395D01*
Y354208D01*
X439611D01*
Y353992D01*
X439827D01*
Y353776D01*
X440043D01*
Y353560D01*
X440691D01*
Y353344D01*
X440907D01*
Y353129D01*
X441122D01*
Y352913D01*
X441338D01*
Y352697D01*
X441554D01*
Y352481D01*
X441770D01*
Y352265D01*
X441986D01*
Y352049D01*
X442202D01*
Y351833D01*
X442418D01*
Y351617D01*
X442634D01*
Y351401D01*
X442850D01*
Y351185D01*
X442634D01*
Y350969D01*
X442850D01*
Y350753D01*
X443066D01*
Y350537D01*
X443282D01*
Y350321D01*
X443066D01*
Y350105D01*
X443714D01*
Y349889D01*
X443498D01*
Y349673D01*
X443714D01*
Y349457D01*
X443930D01*
Y349241D01*
X443714D01*
Y349026D01*
X443930D01*
Y348810D01*
X444146D01*
Y348594D01*
X443930D01*
Y348378D01*
X444578D01*
Y348162D01*
X444362D01*
Y347946D01*
X444578D01*
Y347730D01*
X444362D01*
Y347514D01*
X444578D01*
Y347298D01*
X444362D01*
Y347082D01*
X444578D01*
Y346866D01*
X444794D01*
Y346650D01*
X444578D01*
Y346434D01*
X444794D01*
Y346218D01*
X444578D01*
Y346002D01*
X444794D01*
Y345786D01*
X445010D01*
Y345570D01*
X444794D01*
Y345354D01*
X445010D01*
Y345138D01*
X444794D01*
Y344922D01*
X445010D01*
Y344706D01*
X444794D01*
Y344490D01*
X445010D01*
Y344274D01*
X444794D01*
Y344058D01*
X445010D01*
Y343843D01*
X444794D01*
Y343627D01*
X445010D01*
Y343411D01*
X444794D01*
Y343195D01*
X445010D01*
Y342979D01*
X444794D01*
Y342763D01*
X444578D01*
Y342547D01*
X444794D01*
Y342331D01*
X444578D01*
Y342115D01*
X444794D01*
Y341899D01*
X444578D01*
Y341683D01*
X444794D01*
Y341467D01*
X444578D01*
Y341683D01*
X444362D01*
Y341467D01*
X444578D01*
Y341251D01*
X444362D01*
Y341035D01*
X444578D01*
Y340819D01*
X444362D01*
Y340603D01*
X444578D01*
Y340387D01*
X444362D01*
Y340171D01*
X444146D01*
Y340387D01*
X443930D01*
Y340171D01*
X444146D01*
Y339955D01*
X443930D01*
Y339739D01*
X444146D01*
Y339524D01*
X443930D01*
Y339739D01*
X443714D01*
Y339524D01*
X443930D01*
Y339308D01*
X443714D01*
Y339092D01*
X443498D01*
Y338876D01*
X443714D01*
Y338660D01*
X443498D01*
Y338444D01*
X443282D01*
Y338660D01*
X443066D01*
Y338444D01*
X443282D01*
Y338228D01*
X443066D01*
Y338012D01*
X442850D01*
Y337796D01*
X442634D01*
Y337580D01*
X442850D01*
Y337364D01*
X442634D01*
Y337148D01*
X442418D01*
Y336932D01*
X442202D01*
Y336716D01*
X441986D01*
Y336500D01*
X441770D01*
Y336284D01*
X441554D01*
Y336068D01*
X441338D01*
Y335852D01*
X441122D01*
Y335636D01*
X440907D01*
Y335420D01*
X440691D01*
Y335204D01*
X440475D01*
Y334988D01*
X440259D01*
Y335204D01*
X440043D01*
Y334988D01*
X439827D01*
Y334772D01*
X439611D01*
Y334557D01*
X439395D01*
Y334772D01*
X439179D01*
Y334557D01*
X439395D01*
Y334341D01*
X439179D01*
Y334125D01*
X438963D01*
Y334341D01*
X438747D01*
Y334125D01*
X438531D01*
Y333909D01*
X438315D01*
Y334125D01*
X438099D01*
Y333909D01*
X437883D01*
Y333693D01*
X437667D01*
Y333909D01*
X437451D01*
Y333693D01*
X437667D01*
Y333477D01*
X437451D01*
Y333693D01*
X437235D01*
Y333477D01*
X436587D01*
Y333261D01*
X436372D01*
Y333477D01*
X436156D01*
Y333261D01*
X436372D01*
Y333045D01*
X435724D01*
Y332829D01*
X436372D01*
Y332613D01*
X436587D01*
Y332397D01*
X436803D01*
Y332181D01*
X437019D01*
Y331965D01*
X436803D01*
Y331749D01*
X437019D01*
Y331533D01*
X437235D01*
Y331317D01*
X437019D01*
Y331101D01*
X437667D01*
Y330885D01*
X437451D01*
Y330669D01*
Y330453D01*
Y330238D01*
X437667D01*
Y330022D01*
X437883D01*
Y329806D01*
X437667D01*
Y329590D01*
X437883D01*
Y329374D01*
X437667D01*
Y329158D01*
X437883D01*
Y328942D01*
X437667D01*
Y328726D01*
X437883D01*
Y328510D01*
X437667D01*
Y328294D01*
X437883D01*
Y328078D01*
X437667D01*
Y327862D01*
X437451D01*
Y327646D01*
X437667D01*
Y327430D01*
X437451D01*
Y327214D01*
X437235D01*
Y326998D01*
X437019D01*
Y326782D01*
X437235D01*
Y326566D01*
X437019D01*
Y326350D01*
X436803D01*
Y326134D01*
X436587D01*
Y325918D01*
X436803D01*
Y325703D01*
X436587D01*
Y325486D01*
X436372D01*
Y325703D01*
X436156D01*
Y325486D01*
X436372D01*
Y325271D01*
X436156D01*
Y325055D01*
X435940D01*
Y325271D01*
X435724D01*
Y325055D01*
X435940D01*
Y324839D01*
X435724D01*
Y324623D01*
X435508D01*
Y324839D01*
X435292D01*
Y324623D01*
X435508D01*
Y324407D01*
X435292D01*
Y324191D01*
X435076D01*
Y323975D01*
X434860D01*
Y323759D01*
X434644D01*
Y323543D01*
X434428D01*
Y323327D01*
X434212D01*
Y323111D01*
X433996D01*
Y322895D01*
X433780D01*
Y322679D01*
X433564D01*
Y322463D01*
X433348D01*
Y322247D01*
Y322031D01*
Y321815D01*
X433564D01*
Y321599D01*
X433348D01*
Y321383D01*
X433564D01*
Y321167D01*
X433780D01*
Y320952D01*
X433996D01*
Y320736D01*
X434212D01*
Y320952D01*
X433996D01*
Y321167D01*
X434212D01*
Y320952D01*
X434428D01*
Y321167D01*
X434644D01*
Y320952D01*
X434860D01*
Y320736D01*
X435940D01*
Y320519D01*
X436156D01*
Y320304D01*
X436372D01*
Y320088D01*
X436587D01*
Y319872D01*
X436803D01*
Y319656D01*
Y319440D01*
Y319224D01*
X437019D01*
Y319008D01*
X437235D01*
Y318792D01*
X437451D01*
Y318576D01*
X437667D01*
Y318360D01*
X437451D01*
Y318144D01*
X437667D01*
Y317928D01*
X437451D01*
Y317712D01*
Y317496D01*
Y317280D01*
X437667D01*
Y317064D01*
X437451D01*
Y316848D01*
Y316632D01*
Y316416D01*
X437667D01*
Y316200D01*
X437451D01*
Y315985D01*
Y315769D01*
Y315553D01*
X437667D01*
Y315337D01*
X437451D01*
Y315121D01*
X437235D01*
Y315337D01*
X437019D01*
Y315121D01*
X437235D01*
Y314905D01*
X437019D01*
Y314689D01*
X437235D01*
Y314473D01*
X437019D01*
Y314257D01*
X436803D01*
Y314041D01*
X437019D01*
Y313825D01*
X436803D01*
Y314041D01*
X436587D01*
Y313825D01*
X436803D01*
Y313609D01*
X436587D01*
Y313393D01*
X436372D01*
Y313609D01*
X436156D01*
Y313393D01*
X436372D01*
Y313177D01*
X436156D01*
Y312961D01*
X435940D01*
Y312745D01*
X435724D01*
Y312529D01*
X435508D01*
Y312313D01*
X435292D01*
Y312097D01*
X435076D01*
Y311881D01*
X434860D01*
Y311666D01*
X434644D01*
Y311450D01*
X434428D01*
Y311233D01*
X434212D01*
Y311450D01*
X433996D01*
Y311233D01*
X434212D01*
Y311018D01*
X433996D01*
Y310802D01*
X433780D01*
Y311018D01*
X433564D01*
Y310802D01*
X433780D01*
Y310586D01*
X433564D01*
Y310370D01*
X433348D01*
Y310586D01*
X433132D01*
Y310370D01*
X433348D01*
Y310154D01*
X433132D01*
Y309938D01*
X432916D01*
Y310154D01*
X432700D01*
Y309938D01*
X432484D01*
Y309722D01*
X432268D01*
Y309506D01*
X432053D01*
Y309290D01*
X431837D01*
Y309074D01*
X431621D01*
Y308858D01*
X431405D01*
Y308642D01*
X431621D01*
Y308426D01*
X431405D01*
Y308210D01*
X431621D01*
Y307994D01*
X431837D01*
Y307778D01*
X432053D01*
Y307562D01*
X431837D01*
Y307346D01*
X432053D01*
Y307130D01*
X432268D01*
Y306914D01*
X432484D01*
Y306698D01*
X432700D01*
Y306483D01*
X432916D01*
Y306267D01*
X433132D01*
Y306051D01*
X433348D01*
Y305835D01*
X433564D01*
Y305619D01*
X433780D01*
Y305403D01*
X433996D01*
Y305187D01*
X434212D01*
Y304971D01*
X434428D01*
Y304755D01*
X434644D01*
Y304539D01*
X434860D01*
Y304323D01*
X435076D01*
Y304107D01*
X435292D01*
Y303891D01*
X435508D01*
Y303675D01*
X435724D01*
Y303459D01*
X435940D01*
Y303243D01*
X436156D01*
Y303027D01*
X436372D01*
Y302811D01*
X436587D01*
Y302595D01*
X436803D01*
Y302379D01*
Y302164D01*
Y301947D01*
X437019D01*
Y301732D01*
X437667D01*
Y301516D01*
X437451D01*
Y301300D01*
Y301084D01*
Y300868D01*
X437667D01*
Y300652D01*
X437883D01*
Y300436D01*
X437667D01*
Y300220D01*
X437883D01*
Y300004D01*
X437667D01*
Y299788D01*
X437883D01*
Y299572D01*
X437667D01*
Y299356D01*
X437883D01*
Y299140D01*
X437667D01*
Y298924D01*
X437883D01*
Y298708D01*
X437667D01*
Y298492D01*
X437883D01*
Y298276D01*
X437667D01*
Y298492D01*
X437451D01*
Y298276D01*
X437667D01*
Y298060D01*
X437451D01*
Y297844D01*
X437235D01*
Y297628D01*
X437019D01*
Y297412D01*
X437235D01*
Y297197D01*
X437019D01*
Y296981D01*
X436803D01*
Y296765D01*
X437019D01*
Y296549D01*
X436803D01*
Y296765D01*
X436587D01*
Y296549D01*
X436803D01*
Y296333D01*
X436587D01*
Y296117D01*
X436372D01*
Y296333D01*
X436156D01*
Y296117D01*
X436372D01*
Y295901D01*
X436156D01*
Y295685D01*
X435940D01*
Y295469D01*
X435724D01*
Y295253D01*
X435508D01*
Y295037D01*
X435292D01*
Y294821D01*
X435076D01*
Y294605D01*
X434860D01*
Y294389D01*
X434644D01*
Y294173D01*
X434428D01*
Y293957D01*
X434212D01*
Y293741D01*
X433996D01*
Y293525D01*
X433780D01*
Y293309D01*
X433564D01*
Y293093D01*
X433348D01*
Y292878D01*
X433132D01*
Y292661D01*
X432916D01*
Y292446D01*
X432700D01*
Y292230D01*
X432484D01*
Y292014D01*
Y291798D01*
Y291582D01*
X432268D01*
Y291366D01*
X432053D01*
Y291150D01*
X431837D01*
Y290934D01*
X432053D01*
Y290718D01*
X431837D01*
Y290502D01*
X431621D01*
Y290286D01*
Y290070D01*
Y289854D01*
X431837D01*
Y289638D01*
X432053D01*
Y289422D01*
X432268D01*
Y289206D01*
X432484D01*
Y288990D01*
X432700D01*
Y288774D01*
X433348D01*
Y288558D01*
X433564D01*
Y288342D01*
X433780D01*
Y288126D01*
X433996D01*
Y287911D01*
X434212D01*
Y288126D01*
X433996D01*
Y288342D01*
X434212D01*
Y288126D01*
X434428D01*
Y287911D01*
X435508D01*
Y287695D01*
X435724D01*
Y287479D01*
X435940D01*
Y287695D01*
X436156D01*
Y287479D01*
X436372D01*
Y287695D01*
X436587D01*
Y287479D01*
X436803D01*
Y287263D01*
X437019D01*
Y287479D01*
X437235D01*
Y287263D01*
X437451D01*
Y287047D01*
X438531D01*
Y286831D01*
X438747D01*
Y286615D01*
X438963D01*
Y286831D01*
X439179D01*
Y286615D01*
X439395D01*
Y286831D01*
X439611D01*
Y286615D01*
X439827D01*
Y286399D01*
X440043D01*
Y286183D01*
X440259D01*
Y286399D01*
X440043D01*
Y286615D01*
X440259D01*
Y286399D01*
X440475D01*
Y286183D01*
X441554D01*
Y285967D01*
X441770D01*
Y285751D01*
X441986D01*
Y285967D01*
X442202D01*
Y285751D01*
X442418D01*
Y285535D01*
X442634D01*
Y285319D01*
X442850D01*
Y285535D01*
X442634D01*
Y285751D01*
X442850D01*
Y285535D01*
X443066D01*
Y285751D01*
X443282D01*
Y285535D01*
X443498D01*
Y285319D01*
X444578D01*
Y285103D01*
X444794D01*
Y284887D01*
X445010D01*
Y284671D01*
X445226D01*
Y284455D01*
X445442D01*
Y284671D01*
X445226D01*
Y284887D01*
X445442D01*
Y284671D01*
X445658D01*
Y284455D01*
X446737D01*
Y284239D01*
X446953D01*
Y284023D01*
X447601D01*
Y283807D01*
X447817D01*
Y283591D01*
X448033D01*
Y283807D01*
X447817D01*
Y284023D01*
X448033D01*
Y283807D01*
X448249D01*
Y283591D01*
X448897D01*
Y283376D01*
X449113D01*
Y283159D01*
X449329D01*
Y282944D01*
X449545D01*
Y282728D01*
X449761D01*
Y282944D01*
X449545D01*
Y283159D01*
X449761D01*
Y282944D01*
X449977D01*
Y282728D01*
X450625D01*
Y282512D01*
X450840D01*
Y282296D01*
X451056D01*
Y282512D01*
X451272D01*
Y282296D01*
X451488D01*
Y282080D01*
X451704D01*
Y281864D01*
X452352D01*
Y281648D01*
X452568D01*
Y281432D01*
X452784D01*
Y281648D01*
X453000D01*
Y281432D01*
X453216D01*
Y281216D01*
X453432D01*
Y281000D01*
X454080D01*
Y280784D01*
X454296D01*
Y280568D01*
X454512D01*
Y280352D01*
X454728D01*
Y280136D01*
X454944D01*
Y280352D01*
X454728D01*
Y280568D01*
X454944D01*
Y280352D01*
X455160D01*
Y280136D01*
X455807D01*
Y279920D01*
X455591D01*
Y279704D01*
X456239D01*
Y279488D01*
X456455D01*
Y279272D01*
X456671D01*
Y279056D01*
X456887D01*
Y278840D01*
X457103D01*
Y279056D01*
X457319D01*
Y278840D01*
X457535D01*
Y278625D01*
X457751D01*
Y278409D01*
X458399D01*
Y278193D01*
X458183D01*
Y277977D01*
X458831D01*
Y277761D01*
X459047D01*
Y277545D01*
X459263D01*
Y277329D01*
X459479D01*
Y277113D01*
X459695D01*
Y276897D01*
X459910D01*
Y276681D01*
X460558D01*
Y276465D01*
X460774D01*
Y276249D01*
X460990D01*
Y276033D01*
X461206D01*
Y275817D01*
X461422D01*
Y275601D01*
X461638D01*
Y275385D01*
X461854D01*
Y275169D01*
X462070D01*
Y274953D01*
X462286D01*
Y274737D01*
X462502D01*
Y274521D01*
X462718D01*
Y274305D01*
X462934D01*
Y274090D01*
X463150D01*
Y273873D01*
X463366D01*
Y273658D01*
X463582D01*
Y273442D01*
X463798D01*
Y273226D01*
X464014D01*
Y273010D01*
X464230D01*
Y272794D01*
X464446D01*
Y272578D01*
X464662D01*
Y272362D01*
X464878D01*
Y272146D01*
X465093D01*
Y271930D01*
X465309D01*
Y271714D01*
X465525D01*
Y271498D01*
Y271282D01*
Y271066D01*
X465741D01*
Y270850D01*
X465957D01*
Y270634D01*
X466173D01*
Y270418D01*
X466389D01*
Y270202D01*
X466605D01*
Y269986D01*
Y269770D01*
X467037D01*
Y269554D01*
X466821D01*
Y269338D01*
X467037D01*
Y269123D01*
X467253D01*
Y268907D01*
X467469D01*
Y268691D01*
Y268475D01*
Y268259D01*
X467685D01*
Y268043D01*
X467901D01*
Y267827D01*
X467685D01*
Y267611D01*
X468333D01*
Y267395D01*
Y267179D01*
Y266963D01*
X468549D01*
Y266747D01*
X468765D01*
Y266531D01*
X468549D01*
Y266315D01*
X468765D01*
Y266099D01*
X468981D01*
Y265883D01*
X469197D01*
Y265667D01*
Y265451D01*
Y265235D01*
X469413D01*
Y265019D01*
X469628D01*
Y264804D01*
X469413D01*
Y264587D01*
X469628D01*
Y264372D01*
X469413D01*
Y264156D01*
X469844D01*
Y263940D01*
Y263724D01*
X470060D01*
Y263508D01*
X470276D01*
Y263292D01*
X470060D01*
Y263076D01*
Y262860D01*
X470492D01*
Y262644D01*
X470276D01*
Y262428D01*
X470492D01*
Y262212D01*
X470708D01*
Y261996D01*
Y261780D01*
Y261564D01*
X470924D01*
Y261348D01*
Y261132D01*
Y260916D01*
X471140D01*
Y260700D01*
X470924D01*
Y260484D01*
Y260268D01*
X471356D01*
Y260052D01*
X471140D01*
Y259837D01*
X471356D01*
Y259621D01*
X471140D01*
Y259405D01*
X471356D01*
Y259189D01*
X471572D01*
Y258973D01*
X471788D01*
Y258757D01*
X471572D01*
Y258541D01*
Y258325D01*
Y258109D01*
X471788D01*
Y257893D01*
Y257677D01*
Y257461D01*
X472004D01*
Y257245D01*
X471788D01*
Y257029D01*
Y256813D01*
Y256597D01*
X472004D01*
Y256381D01*
X472220D01*
Y256165D01*
X472004D01*
Y255949D01*
X472220D01*
Y255733D01*
X472004D01*
Y255517D01*
X472220D01*
Y255301D01*
X472004D01*
Y255085D01*
X472220D01*
Y254870D01*
Y254654D01*
X472652D01*
Y254438D01*
X472436D01*
Y254222D01*
Y254006D01*
Y253790D01*
X472652D01*
Y253574D01*
X472436D01*
Y253358D01*
Y253142D01*
Y252926D01*
X472652D01*
Y252710D01*
X472436D01*
Y252494D01*
Y252278D01*
Y252062D01*
Y251846D01*
Y251630D01*
X472652D01*
Y251414D01*
X472868D01*
Y251198D01*
X472652D01*
Y250982D01*
Y250766D01*
Y250551D01*
X472868D01*
Y250335D01*
X472652D01*
Y250119D01*
Y249903D01*
Y249687D01*
X472868D01*
Y249471D01*
X472652D01*
Y249255D01*
Y249039D01*
Y248823D01*
X472868D01*
Y248607D01*
X472652D01*
Y248391D01*
Y248175D01*
Y247959D01*
X472868D01*
Y247743D01*
X472652D01*
Y247527D01*
X472868D01*
Y247311D01*
X473084D01*
Y247095D01*
X473300D01*
Y246879D01*
X473516D01*
Y246663D01*
X473732D01*
Y246447D01*
X473947D01*
Y246231D01*
X474163D01*
Y246016D01*
X474379D01*
Y245799D01*
Y245584D01*
X474811D01*
Y245368D01*
Y245152D01*
X475027D01*
Y244936D01*
Y244720D01*
X475243D01*
Y244504D01*
X475459D01*
Y244288D01*
X475675D01*
Y244072D01*
X475891D01*
Y243856D01*
Y243640D01*
Y243424D01*
X476107D01*
Y243208D01*
X476323D01*
Y242992D01*
X476539D01*
Y242776D01*
Y242560D01*
X476971D01*
Y242344D01*
Y242128D01*
Y241912D01*
X477187D01*
Y241696D01*
X477403D01*
Y241480D01*
X477619D01*
Y241265D01*
Y241049D01*
Y240833D01*
X477835D01*
Y240617D01*
X478051D01*
Y240401D01*
X478267D01*
Y240185D01*
Y239969D01*
X478698D01*
Y239753D01*
X478482D01*
Y239537D01*
X478698D01*
Y239321D01*
X478914D01*
Y239105D01*
X479130D01*
Y238889D01*
X478914D01*
Y238673D01*
X479130D01*
Y238457D01*
X479346D01*
Y238241D01*
X479562D01*
Y238025D01*
Y237809D01*
Y237593D01*
X479778D01*
Y237377D01*
X479994D01*
Y237161D01*
X479778D01*
Y236945D01*
X479994D01*
Y236729D01*
X480210D01*
Y236513D01*
X480426D01*
Y236298D01*
Y236082D01*
Y235866D01*
X480642D01*
Y235650D01*
X480858D01*
Y235434D01*
X480642D01*
Y235218D01*
X480858D01*
Y235002D01*
X481074D01*
Y234786D01*
X481290D01*
Y234570D01*
Y234354D01*
Y234138D01*
X481506D01*
Y233922D01*
X481290D01*
Y233706D01*
X481506D01*
Y233490D01*
X481722D01*
Y233274D01*
Y233058D01*
X482154D01*
Y232842D01*
X481938D01*
Y232626D01*
X482154D01*
Y232410D01*
X482370D01*
Y232194D01*
X482154D01*
Y231979D01*
X482370D01*
Y231763D01*
X482586D01*
Y231547D01*
X482370D01*
Y231331D01*
X482586D01*
Y231115D01*
X482370D01*
Y230899D01*
X482586D01*
Y230683D01*
X482802D01*
Y230467D01*
X483018D01*
Y230251D01*
X482802D01*
Y230035D01*
X483018D01*
Y229819D01*
X483234D01*
Y229603D01*
X483018D01*
Y229387D01*
X483234D01*
Y229171D01*
X483450D01*
Y228955D01*
X483234D01*
Y228739D01*
X483450D01*
Y228523D01*
X483234D01*
Y228307D01*
X483450D01*
Y228091D01*
X483665D01*
Y227875D01*
X483881D01*
Y227659D01*
X483665D01*
Y227443D01*
X483881D01*
Y227227D01*
X483665D01*
Y227011D01*
X483881D01*
Y226796D01*
X484097D01*
Y226580D01*
X483881D01*
Y226364D01*
X484097D01*
Y226148D01*
X483881D01*
Y225932D01*
X484097D01*
Y225716D01*
X484313D01*
Y225500D01*
X484097D01*
Y225284D01*
X484313D01*
Y225068D01*
X484097D01*
Y224852D01*
X484313D01*
Y224636D01*
X484529D01*
Y224420D01*
X484745D01*
Y224204D01*
X484529D01*
Y223988D01*
X484745D01*
Y223772D01*
X484529D01*
Y223556D01*
X484745D01*
Y223340D01*
X484529D01*
Y223124D01*
X484745D01*
Y222908D01*
X484961D01*
Y222692D01*
X484745D01*
Y222477D01*
X484961D01*
Y222260D01*
X484745D01*
Y222045D01*
X484961D01*
Y221829D01*
X484745D01*
Y221613D01*
X484961D01*
Y221397D01*
X485177D01*
Y221181D01*
Y220965D01*
Y220749D01*
X484961D01*
Y220533D01*
X485177D01*
Y220317D01*
X484961D01*
Y220101D01*
X485177D01*
Y219885D01*
X484961D01*
Y219669D01*
X485177D01*
Y219453D01*
X484961D01*
Y219237D01*
X485177D01*
Y219021D01*
X484961D01*
Y218805D01*
X485177D01*
Y218589D01*
X485393D01*
Y218373D01*
X485609D01*
Y218157D01*
X485393D01*
Y217941D01*
X485609D01*
Y217725D01*
X485393D01*
Y217510D01*
X485609D01*
Y217294D01*
X485393D01*
Y217078D01*
X485609D01*
Y216862D01*
X485393D01*
Y216646D01*
X485609D01*
Y216430D01*
X485393D01*
Y216214D01*
X485609D01*
Y215998D01*
X485393D01*
Y215782D01*
X485609D01*
Y215566D01*
X485393D01*
Y215350D01*
X485609D01*
Y215134D01*
X485393D01*
Y214918D01*
X485609D01*
Y214702D01*
X485393D01*
Y214486D01*
X485177D01*
Y214270D01*
X484961D01*
Y214054D01*
X485177D01*
Y213838D01*
X484961D01*
Y213622D01*
X485177D01*
Y213406D01*
X484961D01*
Y213191D01*
X484745D01*
Y212975D01*
X484961D01*
Y212759D01*
X485177D01*
Y212543D01*
X485393D01*
Y212327D01*
X485609D01*
Y212111D01*
X485825D01*
Y211895D01*
X486041D01*
Y211679D01*
X485825D01*
Y211463D01*
X486041D01*
Y211247D01*
X485825D01*
Y211031D01*
X486041D01*
Y210815D01*
Y210599D01*
Y210383D01*
X485825D01*
Y210167D01*
X485609D01*
Y209951D01*
X485825D01*
Y209735D01*
X485609D01*
Y209951D01*
X485393D01*
Y209735D01*
X485609D01*
Y209519D01*
X484961D01*
Y209303D01*
X485177D01*
Y209087D01*
X484529D01*
Y208871D01*
X484313D01*
Y209087D01*
X484097D01*
Y208871D01*
X483881D01*
Y208655D01*
X483234D01*
Y208871D01*
X483018D01*
Y209087D01*
X482802D01*
Y208871D01*
X482586D01*
Y208655D01*
X482370D01*
Y208439D01*
X482586D01*
Y208224D01*
Y208008D01*
X483018D01*
Y207792D01*
X482802D01*
Y207576D01*
X482586D01*
Y207360D01*
X482370D01*
Y207144D01*
X482586D01*
Y206928D01*
X482370D01*
Y206712D01*
X482586D01*
Y206496D01*
X482370D01*
Y206280D01*
X482154D01*
Y206064D01*
X481938D01*
Y205848D01*
X481722D01*
Y205632D01*
X481506D01*
Y205416D01*
X481290D01*
Y205632D01*
X481074D01*
Y205416D01*
X480858D01*
Y205632D01*
X480642D01*
Y205416D01*
X480426D01*
Y205200D01*
X479778D01*
Y205416D01*
X479562D01*
Y205632D01*
X479346D01*
Y205416D01*
X479130D01*
Y205632D01*
X478914D01*
Y205848D01*
X478698D01*
Y206064D01*
X478482D01*
Y205848D01*
X478267D01*
Y205632D01*
X478051D01*
Y205416D01*
X478267D01*
Y205200D01*
X478051D01*
Y204984D01*
X477835D01*
Y204768D01*
X477619D01*
Y204552D01*
X477403D01*
Y204336D01*
X475459D01*
Y204552D01*
X475243D01*
Y204768D01*
X475027D01*
Y204552D01*
X474811D01*
Y204768D01*
X474595D01*
Y204984D01*
X474379D01*
Y205200D01*
X474163D01*
Y205416D01*
Y205632D01*
Y205848D01*
X474379D01*
Y206064D01*
X474163D01*
Y206280D01*
X473947D01*
Y206496D01*
X473732D01*
Y206280D01*
X473516D01*
Y206064D01*
X473300D01*
Y205848D01*
X473084D01*
Y205632D01*
X472868D01*
Y205416D01*
X472652D01*
Y205632D01*
X472436D01*
Y205416D01*
X472220D01*
Y205200D01*
X471572D01*
Y205416D01*
X471356D01*
Y205632D01*
X471140D01*
Y205416D01*
X470924D01*
Y205632D01*
X470708D01*
Y205848D01*
X470492D01*
Y205632D01*
X470276D01*
Y205848D01*
X470060D01*
Y206064D01*
X469844D01*
Y206280D01*
Y206496D01*
Y206712D01*
X469628D01*
Y206928D01*
X469413D01*
Y207144D01*
X469628D01*
Y207360D01*
X469413D01*
Y207576D01*
X469628D01*
Y207792D01*
X469413D01*
Y208008D01*
X469628D01*
Y208224D01*
X469413D01*
Y208439D01*
X469628D01*
Y208655D01*
X467685D01*
Y208871D01*
X467469D01*
Y209087D01*
X467253D01*
Y209303D01*
X467037D01*
Y209087D01*
X466821D01*
Y209303D01*
X466605D01*
Y209519D01*
Y209735D01*
Y209951D01*
X466389D01*
Y210167D01*
Y210383D01*
Y210599D01*
X466605D01*
Y210815D01*
X466389D01*
Y211031D01*
Y211247D01*
Y211463D01*
Y211679D01*
Y211895D01*
X466605D01*
Y212111D01*
X466821D01*
Y212327D01*
X467037D01*
Y212543D01*
X466821D01*
Y212759D01*
X467469D01*
Y212975D01*
X467253D01*
Y213191D01*
X467469D01*
Y213406D01*
X467253D01*
Y213622D01*
Y213838D01*
Y214054D01*
Y214270D01*
Y214486D01*
Y214702D01*
Y214918D01*
X467037D01*
Y215134D01*
X466821D01*
Y215350D01*
X467037D01*
Y215566D01*
X466821D01*
Y215782D01*
X467037D01*
Y215998D01*
X466821D01*
Y216214D01*
X467037D01*
Y216430D01*
X466821D01*
Y216646D01*
X467037D01*
Y216862D01*
X466821D01*
Y217078D01*
X467037D01*
Y217294D01*
X466821D01*
Y217510D01*
X467037D01*
Y217725D01*
X466821D01*
Y217941D01*
X467037D01*
Y218157D01*
X466821D01*
Y218373D01*
X467037D01*
Y218589D01*
X466821D01*
Y218805D01*
X467037D01*
Y219021D01*
X466821D01*
Y219237D01*
X467037D01*
Y219453D01*
X466821D01*
Y219669D01*
X467037D01*
Y219885D01*
X466821D01*
Y220101D01*
X467037D01*
Y220317D01*
X466821D01*
Y220533D01*
X467037D01*
Y220749D01*
X466821D01*
Y220965D01*
X466605D01*
Y221181D01*
Y221397D01*
Y221613D01*
Y221829D01*
Y222045D01*
Y222260D01*
Y222477D01*
X466821D01*
Y222692D01*
X466605D01*
Y222908D01*
X466389D01*
Y223124D01*
Y223340D01*
Y223556D01*
Y223772D01*
Y223988D01*
Y224204D01*
Y224420D01*
X466173D01*
Y224636D01*
X465957D01*
Y224852D01*
X466173D01*
Y225068D01*
X465957D01*
Y225284D01*
X466173D01*
Y225500D01*
X465957D01*
Y225716D01*
X466173D01*
Y225932D01*
X465957D01*
Y226148D01*
X465741D01*
Y226364D01*
X465525D01*
Y226148D01*
X465741D01*
Y225932D01*
X465525D01*
Y226148D01*
X465309D01*
Y225932D01*
X465093D01*
Y225716D01*
X464878D01*
Y225500D01*
Y225284D01*
Y225068D01*
X464662D01*
Y224852D01*
X464446D01*
Y224636D01*
X464230D01*
Y224420D01*
X464014D01*
Y224204D01*
Y223988D01*
Y223772D01*
X463582D01*
Y223556D01*
Y223340D01*
X463150D01*
Y223124D01*
Y222908D01*
X462718D01*
Y222692D01*
Y222477D01*
X462502D01*
Y222260D01*
X462718D01*
Y222045D01*
X462502D01*
Y221829D01*
X462718D01*
Y221613D01*
X462286D01*
Y221397D01*
Y221181D01*
Y220965D01*
Y220749D01*
Y220533D01*
Y220317D01*
X462070D01*
Y220101D01*
Y219885D01*
Y219669D01*
Y219453D01*
Y219237D01*
X461854D01*
Y219453D01*
X461638D01*
Y219237D01*
X461854D01*
Y219021D01*
X461638D01*
Y218805D01*
X461854D01*
Y218589D01*
X461638D01*
Y218373D01*
X461854D01*
Y218157D01*
X461422D01*
Y217941D01*
Y217725D01*
X461206D01*
Y217510D01*
X461422D01*
Y217294D01*
Y217078D01*
Y216862D01*
X461206D01*
Y216646D01*
Y216430D01*
Y216214D01*
Y215998D01*
Y215782D01*
X460990D01*
Y215566D01*
X460774D01*
Y215350D01*
X460990D01*
Y215134D01*
X460774D01*
Y214918D01*
X460990D01*
Y214702D01*
X460774D01*
Y214486D01*
X460558D01*
Y214270D01*
X460342D01*
Y214054D01*
X460558D01*
Y213838D01*
Y213622D01*
Y213406D01*
X460342D01*
Y213191D01*
X460558D01*
Y212975D01*
Y212759D01*
Y212543D01*
X460342D01*
Y212327D01*
Y212111D01*
Y211895D01*
Y211679D01*
Y211463D01*
Y211247D01*
Y211031D01*
X460126D01*
Y210815D01*
X459910D01*
Y210599D01*
X460126D01*
Y210383D01*
X459910D01*
Y210167D01*
X460126D01*
Y209951D01*
X459910D01*
Y209735D01*
X460126D01*
Y209519D01*
X459910D01*
Y209303D01*
X460126D01*
Y209087D01*
X459910D01*
Y208871D01*
X460126D01*
Y208655D01*
X459910D01*
Y208439D01*
X460126D01*
Y208224D01*
X459910D01*
Y208008D01*
X459695D01*
Y207792D01*
Y207576D01*
Y207360D01*
X459479D01*
Y207144D01*
X459695D01*
Y206928D01*
Y206712D01*
Y206496D01*
Y206280D01*
Y206064D01*
Y205848D01*
Y205632D01*
X459479D01*
Y205416D01*
X459695D01*
Y205200D01*
Y204984D01*
Y204768D01*
X459479D01*
Y204552D01*
X459263D01*
Y204768D01*
X459047D01*
Y204552D01*
X458831D01*
Y204768D01*
X458615D01*
Y204552D01*
X458399D01*
Y204768D01*
X458183D01*
Y204552D01*
X457967D01*
Y204768D01*
X457751D01*
Y204552D01*
X457535D01*
Y204768D01*
X457319D01*
Y204552D01*
X457103D01*
Y204768D01*
X456887D01*
Y204552D01*
X456671D01*
Y204768D01*
X456455D01*
Y204552D01*
X456239D01*
Y204768D01*
X456023D01*
Y204552D01*
X455807D01*
Y204768D01*
X455591D01*
Y204552D01*
X455375D01*
Y204768D01*
X455160D01*
Y204552D01*
X454944D01*
Y204768D01*
X454728D01*
Y204552D01*
X454512D01*
Y204768D01*
X454296D01*
Y204552D01*
X454080D01*
Y204768D01*
X453864D01*
Y204552D01*
X453648D01*
Y204768D01*
X453432D01*
Y204552D01*
X453216D01*
Y204768D01*
X453000D01*
Y204552D01*
X452784D01*
Y204768D01*
X452568D01*
Y204552D01*
X452352D01*
Y204768D01*
X452136D01*
Y204552D01*
X451920D01*
Y204768D01*
X451704D01*
Y204552D01*
X451488D01*
Y204768D01*
X451272D01*
Y204552D01*
X451056D01*
Y204768D01*
X450840D01*
Y204552D01*
X450625D01*
Y204768D01*
X450409D01*
Y204552D01*
X450193D01*
Y204768D01*
X449977D01*
Y204552D01*
X449761D01*
Y204768D01*
X449545D01*
Y204552D01*
X449329D01*
Y204768D01*
X449113D01*
Y204552D01*
X448897D01*
Y204768D01*
X448681D01*
Y204552D01*
X448465D01*
Y204768D01*
X448249D01*
Y204552D01*
X448033D01*
Y204768D01*
X447817D01*
Y204552D01*
X447601D01*
Y204768D01*
X447385D01*
Y204552D01*
X447169D01*
Y204768D01*
X446953D01*
Y204552D01*
X446737D01*
Y204768D01*
X446521D01*
Y204552D01*
X446305D01*
Y204768D01*
X446090D01*
Y204552D01*
X445873D01*
Y204768D01*
X445658D01*
Y204552D01*
X445442D01*
Y204768D01*
X445226D01*
Y204552D01*
X445010D01*
Y204768D01*
X444794D01*
Y204552D01*
X444578D01*
Y204768D01*
X444362D01*
Y204552D01*
X444146D01*
Y204768D01*
X443930D01*
Y204552D01*
X443714D01*
Y204768D01*
X443498D01*
Y204552D01*
X443282D01*
Y204768D01*
X443066D01*
Y204552D01*
X442850D01*
Y204768D01*
X442634D01*
Y204552D01*
X442418D01*
Y204768D01*
X442202D01*
Y204552D01*
X441986D01*
Y204768D01*
X441770D01*
Y204552D01*
X441554D01*
Y204768D01*
X441338D01*
Y204552D01*
X441122D01*
Y204768D01*
X440907D01*
Y204552D01*
X440691D01*
Y204768D01*
X440475D01*
Y204552D01*
X440259D01*
Y204768D01*
X440043D01*
Y204552D01*
X439827D01*
Y204768D01*
X439611D01*
Y204552D01*
X439395D01*
Y204768D01*
X439179D01*
Y204552D01*
X438963D01*
Y204768D01*
X438747D01*
Y204552D01*
X438531D01*
Y204768D01*
X438315D01*
Y204552D01*
X438099D01*
Y204768D01*
X437883D01*
Y204552D01*
X437667D01*
Y204768D01*
X437451D01*
Y204552D01*
X437235D01*
Y204768D01*
X437019D01*
Y204552D01*
X436803D01*
Y204768D01*
X436587D01*
Y204552D01*
X436372D01*
Y204768D01*
X436156D01*
Y204552D01*
X435940D01*
Y204768D01*
X435724D01*
Y204552D01*
X435508D01*
Y204768D01*
X435292D01*
Y204552D01*
X435076D01*
Y204768D01*
X434860D01*
Y204552D01*
X434644D01*
Y204768D01*
X434428D01*
Y204984D01*
X434212D01*
Y205200D01*
Y205416D01*
Y205632D01*
X433996D01*
Y205848D01*
X434212D01*
Y206064D01*
X433996D01*
Y206280D01*
Y206496D01*
Y206712D01*
X434212D01*
Y206928D01*
X433996D01*
Y207144D01*
Y207360D01*
Y207576D01*
X434212D01*
Y207792D01*
X433996D01*
Y208008D01*
Y208224D01*
Y208439D01*
X433780D01*
Y208655D01*
X433564D01*
Y208871D01*
X433780D01*
Y209087D01*
X433564D01*
Y209303D01*
X433348D01*
Y209519D01*
X433132D01*
Y209303D01*
X433348D01*
Y209087D01*
X433132D01*
Y209303D01*
X432916D01*
Y209087D01*
X432700D01*
Y209303D01*
X432484D01*
Y209087D01*
Y208871D01*
Y208655D01*
X432268D01*
Y208439D01*
X432484D01*
Y208224D01*
X432268D01*
Y208008D01*
Y207792D01*
Y207576D01*
X432484D01*
Y207360D01*
X432268D01*
Y207144D01*
Y206928D01*
Y206712D01*
X432484D01*
Y206496D01*
X432268D01*
Y206280D01*
Y206064D01*
Y205848D01*
X432484D01*
Y205632D01*
X432268D01*
Y205416D01*
X432053D01*
Y205632D01*
X431837D01*
Y205416D01*
X432053D01*
Y205200D01*
X431837D01*
Y204984D01*
X432053D01*
Y204768D01*
X431837D01*
Y204552D01*
X432053D01*
Y204336D01*
X431837D01*
Y204120D01*
X431621D01*
Y203905D01*
X431405D01*
Y204120D01*
X431189D01*
Y203905D01*
X430973D01*
Y204120D01*
X430757D01*
Y203905D01*
X430541D01*
Y204120D01*
X430325D01*
Y203905D01*
X430109D01*
Y204120D01*
X429893D01*
Y203905D01*
X429677D01*
Y204120D01*
X429461D01*
Y203905D01*
X429245D01*
Y204120D01*
X429029D01*
Y203905D01*
X428813D01*
Y204120D01*
X428597D01*
Y203905D01*
X428381D01*
Y204120D01*
X428165D01*
Y203905D01*
X427949D01*
Y204120D01*
X427733D01*
Y203905D01*
X427517D01*
Y204120D01*
X427302D01*
Y203905D01*
X427085D01*
Y204120D01*
X426870D01*
Y203905D01*
X426654D01*
Y204120D01*
X426438D01*
Y203905D01*
X426222D01*
Y204120D01*
X426006D01*
Y203905D01*
X425790D01*
Y204120D01*
X425574D01*
Y203905D01*
X425358D01*
Y204120D01*
X425142D01*
Y203905D01*
X424926D01*
Y204120D01*
X424710D01*
Y203905D01*
X424494D01*
Y204120D01*
X424278D01*
Y203905D01*
X424062D01*
Y204120D01*
X423846D01*
Y203905D01*
X423630D01*
Y204120D01*
X423414D01*
Y203905D01*
X423198D01*
Y204120D01*
X422982D01*
Y203905D01*
X422766D01*
Y204120D01*
X422550D01*
Y203905D01*
X422334D01*
Y204120D01*
X422119D01*
Y203905D01*
X421903D01*
Y204120D01*
X421687D01*
Y203905D01*
X421471D01*
Y204120D01*
X421255D01*
Y203905D01*
X421039D01*
Y204120D01*
X420823D01*
Y203905D01*
X420607D01*
Y204120D01*
X420391D01*
Y203905D01*
X420175D01*
Y204120D01*
X419959D01*
Y203905D01*
X419743D01*
Y204120D01*
X419527D01*
Y203905D01*
X419311D01*
Y204120D01*
X419095D01*
Y203905D01*
X418879D01*
Y204120D01*
X418663D01*
Y203905D01*
X418447D01*
Y204120D01*
X418231D01*
Y203905D01*
X418015D01*
Y204120D01*
X417800D01*
Y203905D01*
X417584D01*
Y204120D01*
X417368D01*
Y203905D01*
X417152D01*
Y204120D01*
X416936D01*
Y203905D01*
X416720D01*
Y204120D01*
X416504D01*
Y203905D01*
X416288D01*
Y204120D01*
X416072D01*
Y203905D01*
X415856D01*
Y204120D01*
X415640D01*
Y203905D01*
X415424D01*
Y204120D01*
X415208D01*
Y203905D01*
X414992D01*
Y204120D01*
X414776D01*
Y203905D01*
X414560D01*
Y204120D01*
X414344D01*
Y203905D01*
X414128D01*
Y204120D01*
X413912D01*
Y203905D01*
X413696D01*
Y204120D01*
X413480D01*
Y203905D01*
X413265D01*
Y204120D01*
X413049D01*
Y203905D01*
X412833D01*
Y204120D01*
X412617D01*
Y203905D01*
X412401D01*
Y204120D01*
X412185D01*
Y203905D01*
X411969D01*
Y204120D01*
X411753D01*
Y203905D01*
X411537D01*
Y204120D01*
X411321D01*
Y203905D01*
X411105D01*
Y204120D01*
X410889D01*
Y203905D01*
X410673D01*
Y204120D01*
X410457D01*
Y203905D01*
X410241D01*
Y204120D01*
X410025D01*
Y203905D01*
X409809D01*
Y204120D01*
X409593D01*
Y203905D01*
X409377D01*
Y204120D01*
X409161D01*
Y203905D01*
X408945D01*
Y204120D01*
X408729D01*
Y203905D01*
X408513D01*
Y204120D01*
X408298D01*
Y203905D01*
X408082D01*
Y204120D01*
X407866D01*
Y203905D01*
X407650D01*
Y204120D01*
X407434D01*
Y203905D01*
X407218D01*
Y204120D01*
X407002D01*
Y203905D01*
X406786D01*
Y204120D01*
X406570D01*
Y204336D01*
X406354D01*
Y204552D01*
X406570D01*
Y204768D01*
X406354D01*
Y204984D01*
X406570D01*
Y205200D01*
Y205416D01*
Y205632D01*
X406354D01*
Y205848D01*
X406570D01*
Y206064D01*
X406354D01*
Y206280D01*
X406570D01*
Y206496D01*
X406354D01*
Y206712D01*
X406570D01*
Y206928D01*
X406354D01*
Y207144D01*
X406138D01*
Y207360D01*
X406354D01*
Y207576D01*
X406138D01*
Y207792D01*
X406354D01*
Y208008D01*
X406138D01*
Y208224D01*
X406354D01*
Y208439D01*
Y208655D01*
Y208871D01*
X406138D01*
Y209087D01*
X406354D01*
Y209303D01*
Y209519D01*
Y209735D01*
X406138D01*
Y209951D01*
X405922D01*
Y210167D01*
X406138D01*
Y210383D01*
X405922D01*
Y210599D01*
X406138D01*
Y210815D01*
X405922D01*
Y211031D01*
X406138D01*
Y211247D01*
X405922D01*
Y211463D01*
X406138D01*
Y211679D01*
X405922D01*
Y211895D01*
X406138D01*
Y212111D01*
X405706D01*
Y212327D01*
Y212543D01*
X405490D01*
Y212759D01*
X405706D01*
Y212975D01*
Y213191D01*
Y213406D01*
X405490D01*
Y213622D01*
Y213838D01*
Y214054D01*
X405274D01*
Y214270D01*
X405490D01*
Y214486D01*
Y214702D01*
Y214918D01*
X405274D01*
Y215134D01*
X405058D01*
Y215350D01*
X405274D01*
Y215566D01*
X405058D01*
Y215782D01*
X405274D01*
Y215998D01*
X405058D01*
Y216214D01*
X405274D01*
Y216430D01*
X404842D01*
Y216646D01*
Y216862D01*
X404626D01*
Y217078D01*
X404842D01*
Y217294D01*
Y217510D01*
Y217725D01*
X404626D01*
Y217941D01*
X404410D01*
Y218157D01*
X404626D01*
Y218373D01*
X404410D01*
Y218589D01*
X404194D01*
Y218805D01*
X404410D01*
Y219021D01*
X404194D01*
Y219237D01*
X404410D01*
Y219453D01*
X404194D01*
Y219669D01*
X404410D01*
Y219885D01*
X403978D01*
Y220101D01*
Y220317D01*
X403762D01*
Y220533D01*
X403978D01*
Y220749D01*
X403762D01*
Y220965D01*
X403978D01*
Y221181D01*
X403762D01*
Y221397D01*
X403547D01*
Y221613D01*
X403762D01*
Y221829D01*
X403547D01*
Y222045D01*
X403331D01*
Y222260D01*
X403547D01*
Y222477D01*
X403115D01*
Y222692D01*
Y222908D01*
X402899D01*
Y223124D01*
X402683D01*
Y223340D01*
X402467D01*
Y223556D01*
X402251D01*
Y223772D01*
X402035D01*
Y223988D01*
X401819D01*
Y224204D01*
X401603D01*
Y224420D01*
X401819D01*
Y224636D01*
X401603D01*
Y224852D01*
X401387D01*
Y225068D01*
X401171D01*
Y225284D01*
X400955D01*
Y225500D01*
X400739D01*
Y225716D01*
X400955D01*
Y225932D01*
X400307D01*
Y225716D01*
X400523D01*
Y225500D01*
X400307D01*
Y225284D01*
X400091D01*
Y225068D01*
X400307D01*
Y224852D01*
X400091D01*
Y224636D01*
X400307D01*
Y224420D01*
X400091D01*
Y224204D01*
X399875D01*
Y223988D01*
X400091D01*
Y223772D01*
X399875D01*
Y223556D01*
X400091D01*
Y223340D01*
X399875D01*
Y223124D01*
X400091D01*
Y222908D01*
X399875D01*
Y222692D01*
X399659D01*
Y222477D01*
X399443D01*
Y222260D01*
X399659D01*
Y222045D01*
X399443D01*
Y221829D01*
X399659D01*
Y221613D01*
X399443D01*
Y221397D01*
X399659D01*
Y221181D01*
X399443D01*
Y220965D01*
X399659D01*
Y220749D01*
X399443D01*
Y220533D01*
X399227D01*
Y220317D01*
X399443D01*
Y220101D01*
X399227D01*
Y219885D01*
X399443D01*
Y219669D01*
X399227D01*
Y219453D01*
X399443D01*
Y219237D01*
X399227D01*
Y219021D01*
Y218805D01*
Y218589D01*
X399443D01*
Y218373D01*
X399227D01*
Y218157D01*
X399443D01*
Y217941D01*
X399227D01*
Y217725D01*
X399443D01*
Y217510D01*
X399227D01*
Y217294D01*
Y217078D01*
Y216862D01*
X399443D01*
Y216646D01*
X399227D01*
Y216862D01*
X399011D01*
Y216646D01*
X399227D01*
Y216430D01*
X399011D01*
Y216214D01*
X399227D01*
Y215998D01*
X399011D01*
Y215782D01*
X399227D01*
Y215566D01*
X399011D01*
Y215350D01*
X399227D01*
Y215134D01*
X399011D01*
Y214918D01*
X399227D01*
Y214702D01*
X399011D01*
Y214486D01*
X399227D01*
Y214270D01*
X399011D01*
Y214054D01*
X399227D01*
Y213838D01*
X399011D01*
Y213622D01*
X399227D01*
Y213406D01*
X399011D01*
Y213191D01*
X398796D01*
Y212975D01*
X398580D01*
Y212759D01*
X398796D01*
Y212543D01*
Y212327D01*
X399227D01*
Y212111D01*
Y211895D01*
X399659D01*
Y211679D01*
Y211463D01*
X400091D01*
Y211247D01*
X399875D01*
Y211031D01*
X400091D01*
Y210815D01*
X399875D01*
Y210599D01*
X400091D01*
Y210383D01*
X399875D01*
Y210167D01*
X400091D01*
Y209951D01*
X399875D01*
Y209735D01*
X400091D01*
Y209519D01*
X399443D01*
Y209303D01*
X399659D01*
Y209087D01*
X399443D01*
Y208871D01*
X399227D01*
Y208655D01*
X399011D01*
Y208439D01*
X398796D01*
Y208224D01*
X398148D01*
Y208008D01*
X397932D01*
Y208224D01*
X397716D01*
Y208008D01*
X397500D01*
Y208224D01*
X397284D01*
Y208008D01*
X397068D01*
Y208224D01*
X396852D01*
Y208008D01*
X396636D01*
Y208224D01*
X396420D01*
Y208008D01*
X396636D01*
Y207792D01*
Y207576D01*
Y207360D01*
X396852D01*
Y207144D01*
X396636D01*
Y206928D01*
Y206712D01*
Y206496D01*
X396420D01*
Y206280D01*
X396636D01*
Y206064D01*
X396420D01*
Y205848D01*
X396204D01*
Y205632D01*
X395988D01*
Y205416D01*
X395772D01*
Y205200D01*
X395124D01*
Y204984D01*
X394908D01*
Y204768D01*
X394692D01*
Y204984D01*
X394477D01*
Y205200D01*
X394261D01*
Y204984D01*
X394477D01*
Y204768D01*
X394261D01*
Y204984D01*
X394045D01*
Y204768D01*
X393829D01*
Y204984D01*
X393613D01*
Y205200D01*
X392965D01*
Y205416D01*
X392749D01*
Y205632D01*
X392533D01*
Y205848D01*
X392317D01*
Y206064D01*
X392101D01*
Y205848D01*
Y205632D01*
Y205416D01*
X392317D01*
Y205200D01*
X392101D01*
Y204984D01*
X391885D01*
Y204768D01*
X391669D01*
Y204552D01*
X391453D01*
Y204336D01*
X391237D01*
Y204120D01*
X391021D01*
Y203905D01*
X390373D01*
Y203689D01*
X390157D01*
Y203905D01*
X389942D01*
Y203689D01*
X389725D01*
Y203905D01*
X389510D01*
Y203689D01*
X389294D01*
Y203905D01*
X389078D01*
Y204120D01*
X388862D01*
Y203905D01*
X388646D01*
Y204120D01*
Y204336D01*
X388214D01*
Y204552D01*
X387998D01*
Y204768D01*
Y204984D01*
Y205200D01*
X387782D01*
Y205416D01*
X387998D01*
Y205632D01*
X387782D01*
Y205848D01*
X387566D01*
Y205632D01*
X387350D01*
Y205416D01*
X387134D01*
Y205200D01*
X386918D01*
Y204984D01*
X386702D01*
Y204768D01*
X386486D01*
Y204984D01*
X386270D01*
Y204768D01*
X386054D01*
Y204984D01*
X385838D01*
Y205200D01*
X385622D01*
Y204984D01*
X385838D01*
Y204768D01*
X385622D01*
Y204984D01*
X385406D01*
Y204768D01*
X385191D01*
Y204984D01*
X384975D01*
Y205200D01*
X384327D01*
Y205416D01*
X384111D01*
Y205632D01*
X383895D01*
Y205848D01*
X383679D01*
Y206064D01*
Y206280D01*
Y206496D01*
X383463D01*
Y206712D01*
Y206928D01*
Y207144D01*
X383679D01*
Y207360D01*
X383463D01*
Y207576D01*
X383679D01*
Y207792D01*
X383463D01*
Y208008D01*
X383679D01*
Y208224D01*
Y208439D01*
Y208655D01*
X383463D01*
Y208439D01*
X383247D01*
Y208224D01*
X383031D01*
Y208439D01*
X382815D01*
Y208224D01*
X382599D01*
Y208439D01*
X382383D01*
Y208655D01*
X382167D01*
Y208439D01*
X382383D01*
Y208224D01*
X382167D01*
Y208439D01*
X381951D01*
Y208224D01*
X381735D01*
Y208439D01*
Y208655D01*
X381303D01*
Y208871D01*
X381087D01*
Y209087D01*
X380871D01*
Y209303D01*
X380656D01*
Y209519D01*
X380439D01*
Y209735D01*
X380223D01*
Y209951D01*
Y210167D01*
Y210383D01*
X380439D01*
Y210599D01*
X380223D01*
Y210815D01*
Y211031D01*
Y211247D01*
X380439D01*
Y211031D01*
X380656D01*
Y211247D01*
X380439D01*
Y211463D01*
X380656D01*
Y211679D01*
X380439D01*
Y211895D01*
X380656D01*
Y212111D01*
X380871D01*
Y212327D01*
X381087D01*
Y212543D01*
Y212759D01*
Y212975D01*
X381303D01*
Y213191D01*
X381087D01*
Y213406D01*
X380871D01*
Y213622D01*
Y213838D01*
Y214054D01*
Y214270D01*
Y214486D01*
Y214702D01*
Y214918D01*
Y215134D01*
Y215350D01*
Y215566D01*
Y215782D01*
Y215998D01*
Y216214D01*
Y216430D01*
Y216646D01*
Y216862D01*
Y217078D01*
Y217294D01*
Y217510D01*
Y217725D01*
Y217941D01*
Y218157D01*
Y218373D01*
Y218589D01*
Y218805D01*
X381087D01*
Y219021D01*
Y219237D01*
Y219453D01*
Y219669D01*
Y219885D01*
Y220101D01*
Y220317D01*
Y220533D01*
Y220749D01*
Y220965D01*
Y221181D01*
X381303D01*
Y221397D01*
X381519D01*
Y221613D01*
X381303D01*
Y221829D01*
X381519D01*
Y222045D01*
X381303D01*
Y222260D01*
X381519D01*
Y222477D01*
X381303D01*
Y222692D01*
X381519D01*
Y222908D01*
X381303D01*
Y223124D01*
X381735D01*
Y223340D01*
Y223556D01*
Y223772D01*
Y223988D01*
Y224204D01*
Y224420D01*
X381951D01*
Y224636D01*
Y224852D01*
Y225068D01*
Y225284D01*
Y225500D01*
Y225716D01*
Y225932D01*
X382167D01*
Y225716D01*
X382383D01*
Y225932D01*
X382167D01*
Y226148D01*
X382383D01*
Y226364D01*
X382167D01*
Y226580D01*
X382383D01*
Y226796D01*
X382167D01*
Y227011D01*
X382383D01*
Y227227D01*
X382599D01*
Y227443D01*
Y227659D01*
Y227875D01*
X382815D01*
Y228091D01*
Y228307D01*
Y228523D01*
X383031D01*
Y228739D01*
X382815D01*
Y228955D01*
X383031D01*
Y229171D01*
X383247D01*
Y229387D01*
X383031D01*
Y229603D01*
X383247D01*
Y229819D01*
X383031D01*
Y230035D01*
X383463D01*
Y230251D01*
Y230467D01*
Y230683D01*
Y230899D01*
X383679D01*
Y231115D01*
X383895D01*
Y231331D01*
X383679D01*
Y231547D01*
X383895D01*
Y231331D01*
X384111D01*
Y231547D01*
X383895D01*
Y231763D01*
X384111D01*
Y231979D01*
X383895D01*
Y232194D01*
X384111D01*
Y232410D01*
X384327D01*
Y232626D01*
X384543D01*
Y232842D01*
X384327D01*
Y233058D01*
X384543D01*
Y233274D01*
Y233490D01*
Y233706D01*
X384759D01*
Y233490D01*
X384975D01*
Y233706D01*
X384759D01*
Y233922D01*
X384975D01*
Y234138D01*
X384759D01*
Y234354D01*
X385191D01*
Y234570D01*
Y234786D01*
X385406D01*
Y235002D01*
Y235218D01*
Y235434D01*
X385622D01*
Y235218D01*
X385838D01*
Y235434D01*
X385622D01*
Y235650D01*
X385838D01*
Y235866D01*
X385622D01*
Y236082D01*
X385838D01*
Y236298D01*
X386054D01*
Y236513D01*
X386270D01*
Y236729D01*
Y236945D01*
Y237161D01*
X386486D01*
Y236945D01*
X386702D01*
Y237161D01*
X386486D01*
Y237377D01*
X386702D01*
Y237593D01*
X386486D01*
Y237809D01*
X386918D01*
Y238025D01*
Y238241D01*
X387134D01*
Y238457D01*
Y238673D01*
Y238889D01*
X387350D01*
Y238673D01*
X387566D01*
Y238889D01*
X387350D01*
Y239105D01*
X387566D01*
Y239321D01*
X387350D01*
Y239537D01*
X387998D01*
Y239753D01*
X387782D01*
Y239969D01*
X387998D01*
Y240185D01*
X388214D01*
Y240401D01*
X388430D01*
Y240617D01*
X388646D01*
Y240833D01*
Y241049D01*
Y241265D01*
X388862D01*
Y241480D01*
X389078D01*
Y241696D01*
X389294D01*
Y241912D01*
X389078D01*
Y242128D01*
X389725D01*
Y242344D01*
X389510D01*
Y242560D01*
X389725D01*
Y242344D01*
X389942D01*
Y242560D01*
X389725D01*
Y242776D01*
X389942D01*
Y242992D01*
X390157D01*
Y243208D01*
X390373D01*
Y243424D01*
X390589D01*
Y243640D01*
X390373D01*
Y243856D01*
X390589D01*
Y244072D01*
X390805D01*
Y244288D01*
X391021D01*
Y244504D01*
X391237D01*
Y244288D01*
X391453D01*
Y244504D01*
X391237D01*
Y244720D01*
X391453D01*
Y244936D01*
X391237D01*
Y245152D01*
X391885D01*
Y245368D01*
X391669D01*
Y245584D01*
X392317D01*
Y245799D01*
X392101D01*
Y246016D01*
X392317D01*
Y246231D01*
X392533D01*
Y246447D01*
X392749D01*
Y246663D01*
X392965D01*
Y246879D01*
X393181D01*
Y247095D01*
X393397D01*
Y247311D01*
X393613D01*
Y247527D01*
X393397D01*
Y247743D01*
X393613D01*
Y247959D01*
X393397D01*
Y248175D01*
X393613D01*
Y248391D01*
X393397D01*
Y248607D01*
X393613D01*
Y248823D01*
X393397D01*
Y249039D01*
X393613D01*
Y249255D01*
X393397D01*
Y249471D01*
X393613D01*
Y249687D01*
X393397D01*
Y249903D01*
X393613D01*
Y250119D01*
X393397D01*
Y250335D01*
X393613D01*
Y250551D01*
X393397D01*
Y250766D01*
X393613D01*
Y250982D01*
X393397D01*
Y251198D01*
X393613D01*
Y251414D01*
X393397D01*
Y251630D01*
X394045D01*
Y251846D01*
X393829D01*
Y252062D01*
X394045D01*
Y252278D01*
X393829D01*
Y252494D01*
X394045D01*
Y252710D01*
X393829D01*
Y252926D01*
X394045D01*
Y253142D01*
X393829D01*
Y253358D01*
X394045D01*
Y253574D01*
X393829D01*
Y253790D01*
X394045D01*
Y254006D01*
Y254222D01*
Y254438D01*
X394261D01*
Y254654D01*
X394045D01*
Y254870D01*
Y255085D01*
Y255301D01*
X394261D01*
Y255517D01*
X394477D01*
Y255733D01*
X394261D01*
Y255949D01*
X394477D01*
Y256165D01*
X394261D01*
Y256381D01*
X394477D01*
Y256597D01*
X394261D01*
Y256813D01*
X394477D01*
Y257029D01*
X394692D01*
Y257245D01*
X394908D01*
Y257461D01*
X394692D01*
Y257677D01*
X394908D01*
Y257893D01*
X394692D01*
Y258109D01*
X394908D01*
Y258325D01*
Y258541D01*
Y258757D01*
X395124D01*
Y258973D01*
X394908D01*
Y259189D01*
X395124D01*
Y259405D01*
X395340D01*
Y259621D01*
X395124D01*
Y259837D01*
X395340D01*
Y260052D01*
X395124D01*
Y260268D01*
X395772D01*
Y260484D01*
X395556D01*
Y260700D01*
X395772D01*
Y260916D01*
X395556D01*
Y261132D01*
X395772D01*
Y261348D01*
X395988D01*
Y261564D01*
X395772D01*
Y261780D01*
X395988D01*
Y261996D01*
X396204D01*
Y262212D01*
X395988D01*
Y262428D01*
X396204D01*
Y262644D01*
X396420D01*
Y262428D01*
X396636D01*
Y262644D01*
X396420D01*
Y262860D01*
X396636D01*
Y263076D01*
X396420D01*
Y263292D01*
X396636D01*
Y263508D01*
Y263724D01*
Y263940D01*
X396852D01*
Y263724D01*
X397068D01*
Y263940D01*
X396852D01*
Y264156D01*
X397068D01*
Y264372D01*
X396852D01*
Y264587D01*
X397500D01*
Y264804D01*
X397284D01*
Y265019D01*
X397500D01*
Y265235D01*
Y265451D01*
X397932D01*
Y265667D01*
X397716D01*
Y265883D01*
X397932D01*
Y266099D01*
X397716D01*
Y266315D01*
X398364D01*
Y266531D01*
X398148D01*
Y266747D01*
X398364D01*
Y266963D01*
Y267179D01*
Y267395D01*
X398580D01*
Y267179D01*
X398796D01*
Y267395D01*
X398580D01*
Y267611D01*
X398796D01*
Y267827D01*
X398580D01*
Y268043D01*
X399227D01*
Y268259D01*
X399011D01*
Y268475D01*
X399227D01*
Y268259D01*
X399443D01*
Y268475D01*
X399227D01*
Y268691D01*
X399443D01*
Y268907D01*
X399659D01*
Y269123D01*
X399443D01*
Y269338D01*
X399659D01*
Y269554D01*
X399875D01*
Y269770D01*
X400091D01*
Y269986D01*
X400307D01*
Y270202D01*
X400523D01*
Y270418D01*
X400307D01*
Y270634D01*
X400955D01*
Y270850D01*
X400739D01*
Y271066D01*
X400955D01*
Y270850D01*
X401171D01*
Y271066D01*
X400955D01*
Y271282D01*
X401171D01*
Y271498D01*
X401387D01*
Y271714D01*
X401603D01*
Y271930D01*
X401819D01*
Y272146D01*
X402035D01*
Y272362D01*
X402251D01*
Y272578D01*
X402035D01*
Y272794D01*
X402251D01*
Y273010D01*
X402467D01*
Y272794D01*
X402683D01*
Y273010D01*
X402467D01*
Y273226D01*
X402683D01*
Y273442D01*
X402899D01*
Y273658D01*
X403115D01*
Y273873D01*
X403331D01*
Y274090D01*
X403547D01*
Y274305D01*
X403762D01*
Y274521D01*
X403978D01*
Y274737D01*
X403762D01*
Y274953D01*
X404410D01*
Y275169D01*
X404626D01*
Y275385D01*
X404842D01*
Y275601D01*
X404626D01*
Y275817D01*
X405274D01*
Y276033D01*
X405490D01*
Y276249D01*
X405706D01*
Y276465D01*
X405922D01*
Y276681D01*
X406138D01*
Y276897D01*
X406354D01*
Y277113D01*
X406570D01*
Y277329D01*
X406786D01*
Y277113D01*
X407002D01*
Y277329D01*
X406786D01*
Y277545D01*
X407434D01*
Y277761D01*
X407218D01*
Y277977D01*
X407434D01*
Y278193D01*
X407650D01*
Y277977D01*
X407866D01*
Y278193D01*
X407650D01*
Y278409D01*
X408082D01*
Y278625D01*
Y278840D01*
X408298D01*
Y279056D01*
X408513D01*
Y278840D01*
X408729D01*
Y279056D01*
X408945D01*
Y279272D01*
X409161D01*
Y279488D01*
X409377D01*
Y279704D01*
X409593D01*
Y279920D01*
X409809D01*
Y279704D01*
X410025D01*
Y279920D01*
X409809D01*
Y280136D01*
X410025D01*
Y279920D01*
X410241D01*
Y280136D01*
X410457D01*
Y280352D01*
X410673D01*
Y280136D01*
X410889D01*
Y280352D01*
X410673D01*
Y280568D01*
X410889D01*
Y280784D01*
X411105D01*
Y280568D01*
X411321D01*
Y280784D01*
X411105D01*
Y281000D01*
X411753D01*
Y281216D01*
X411969D01*
Y281432D01*
X412185D01*
Y281648D01*
X412401D01*
Y281432D01*
X412617D01*
Y281648D01*
X412401D01*
Y281864D01*
X412617D01*
Y281648D01*
X412833D01*
Y281864D01*
X413049D01*
Y282080D01*
X413265D01*
Y281864D01*
X413480D01*
Y282080D01*
X413265D01*
Y282296D01*
X413912D01*
Y282512D01*
X414128D01*
Y282728D01*
X414776D01*
Y282944D01*
X414992D01*
Y282728D01*
X415208D01*
Y282944D01*
X414992D01*
Y283159D01*
X415208D01*
Y283376D01*
X415424D01*
Y283159D01*
X415640D01*
Y283376D01*
X415856D01*
Y283591D01*
X416504D01*
Y283807D01*
X416720D01*
Y283591D01*
X416936D01*
Y283807D01*
X416720D01*
Y284023D01*
X416936D01*
Y283807D01*
X417152D01*
Y284023D01*
X417368D01*
Y284239D01*
X417584D01*
Y284023D01*
X417800D01*
Y284239D01*
X418015D01*
Y284455D01*
X418663D01*
Y284671D01*
X418879D01*
Y284887D01*
X419095D01*
Y284671D01*
X419311D01*
Y284455D01*
X419527D01*
Y284671D01*
X419311D01*
Y284887D01*
X419959D01*
Y285103D01*
X420175D01*
Y284887D01*
X420391D01*
Y285103D01*
X420607D01*
Y285319D01*
X421255D01*
Y285535D01*
X421471D01*
Y285751D01*
X421687D01*
Y285535D01*
X421903D01*
Y285319D01*
X422119D01*
Y285535D01*
X421903D01*
Y285751D01*
X422550D01*
Y285967D01*
X422766D01*
Y285751D01*
X422982D01*
Y285967D01*
X423198D01*
Y286183D01*
X423846D01*
Y286399D01*
X424062D01*
Y286615D01*
X424278D01*
Y286831D01*
X424494D01*
Y286615D01*
X424710D01*
Y286831D01*
X424926D01*
Y287047D01*
X425142D01*
Y287263D01*
X425358D01*
Y287047D01*
X425574D01*
Y287263D01*
X425358D01*
Y287479D01*
X426006D01*
Y287695D01*
X425790D01*
Y287911D01*
X426438D01*
Y288126D01*
X426222D01*
Y288342D01*
X426870D01*
Y288558D01*
X426654D01*
Y288774D01*
X427302D01*
Y288990D01*
X427085D01*
Y289206D01*
X427733D01*
Y289422D01*
X427517D01*
Y289638D01*
X428165D01*
Y289854D01*
X427949D01*
Y290070D01*
X428165D01*
Y290286D01*
X428381D01*
Y290502D01*
X428597D01*
Y290718D01*
X428381D01*
Y290934D01*
X428597D01*
Y291150D01*
X428813D01*
Y291366D01*
X429029D01*
Y291582D01*
X428813D01*
Y291798D01*
X429029D01*
Y292014D01*
X429245D01*
Y292230D01*
X429461D01*
Y292446D01*
X429677D01*
Y292661D01*
Y292878D01*
Y293093D01*
X429893D01*
Y293309D01*
X430109D01*
Y293525D01*
X430325D01*
Y293741D01*
X430541D01*
Y293957D01*
X430757D01*
Y294173D01*
X430541D01*
Y294389D01*
X431189D01*
Y294605D01*
X430973D01*
Y294821D01*
X431621D01*
Y295037D01*
X431405D01*
Y295253D01*
X432053D01*
Y295469D01*
X431837D01*
Y295685D01*
X432484D01*
Y295901D01*
X432268D01*
Y296117D01*
X432916D01*
Y296333D01*
X432700D01*
Y296549D01*
X433348D01*
Y296765D01*
X433132D01*
Y296981D01*
X433780D01*
Y297197D01*
X433564D01*
Y297412D01*
X434212D01*
Y297628D01*
X433996D01*
Y297844D01*
X434212D01*
Y298060D01*
X434428D01*
Y298276D01*
X434644D01*
Y298492D01*
X434428D01*
Y298708D01*
X434644D01*
Y298924D01*
X434860D01*
Y299140D01*
X435076D01*
Y299356D01*
X434860D01*
Y299572D01*
Y299788D01*
Y300004D01*
X434644D01*
Y300220D01*
X434428D01*
Y300436D01*
X434644D01*
Y300652D01*
X433996D01*
Y300868D01*
X434212D01*
Y301084D01*
X433564D01*
Y301300D01*
X433780D01*
Y301516D01*
X433132D01*
Y301732D01*
X432916D01*
Y301947D01*
X432700D01*
Y302164D01*
X432484D01*
Y302379D01*
X432268D01*
Y302595D01*
X432053D01*
Y302811D01*
X431837D01*
Y303027D01*
X431621D01*
Y303243D01*
X431405D01*
Y303459D01*
X431189D01*
Y303675D01*
X430973D01*
Y303891D01*
X430757D01*
Y304107D01*
X430541D01*
Y304323D01*
X430757D01*
Y304539D01*
X430109D01*
Y304755D01*
X430325D01*
Y304971D01*
X429677D01*
Y305187D01*
X429893D01*
Y305403D01*
X429677D01*
Y305619D01*
X429461D01*
Y305835D01*
X429245D01*
Y306051D01*
X429461D01*
Y306267D01*
X429245D01*
Y306483D01*
X429029D01*
Y306698D01*
X428813D01*
Y306914D01*
X429029D01*
Y307130D01*
X428813D01*
Y307346D01*
X428597D01*
Y307562D01*
X428381D01*
Y307778D01*
X428597D01*
Y307994D01*
X428381D01*
Y308210D01*
X428597D01*
Y308426D01*
X428381D01*
Y308642D01*
X428597D01*
Y308858D01*
X428381D01*
Y309074D01*
X428597D01*
Y309290D01*
X428381D01*
Y309506D01*
X429029D01*
Y309722D01*
X428813D01*
Y309938D01*
X429029D01*
Y310154D01*
Y310370D01*
Y310586D01*
X429245D01*
Y310802D01*
X429461D01*
Y311018D01*
X429677D01*
Y311233D01*
X429893D01*
Y311450D01*
X430109D01*
Y311666D01*
X430325D01*
Y311881D01*
X430541D01*
Y312097D01*
X431189D01*
Y312313D01*
X431405D01*
Y312529D01*
X431621D01*
Y312745D01*
X431837D01*
Y312961D01*
X432053D01*
Y313177D01*
X432268D01*
Y313393D01*
X432484D01*
Y313609D01*
X432700D01*
Y313825D01*
X432916D01*
Y314041D01*
X433132D01*
Y314257D01*
X433348D01*
Y314473D01*
X433564D01*
Y314689D01*
X433780D01*
Y314905D01*
X433996D01*
Y315121D01*
Y315337D01*
Y315553D01*
X434212D01*
Y315769D01*
Y315985D01*
X434644D01*
Y316200D01*
X434428D01*
Y316416D01*
X434644D01*
Y316632D01*
X434428D01*
Y316848D01*
X434644D01*
Y317064D01*
X434428D01*
Y317280D01*
X434212D01*
Y317496D01*
Y317712D01*
Y317928D01*
X433996D01*
Y317712D01*
X433780D01*
Y317928D01*
X433132D01*
Y318144D01*
X432916D01*
Y317928D01*
X432700D01*
Y318144D01*
X432484D01*
Y318360D01*
X432268D01*
Y318576D01*
X432053D01*
Y318792D01*
X431405D01*
Y319008D01*
X431621D01*
Y319224D01*
X430973D01*
Y319440D01*
X431189D01*
Y319656D01*
X430757D01*
Y319872D01*
Y320088D01*
X430541D01*
Y320304D01*
Y320519D01*
Y320736D01*
X430757D01*
Y320952D01*
X430541D01*
Y321167D01*
Y321383D01*
Y321599D01*
X430757D01*
Y321815D01*
X430541D01*
Y322031D01*
Y322247D01*
Y322463D01*
X430757D01*
Y322679D01*
X430541D01*
Y322895D01*
X430757D01*
Y323111D01*
Y323327D01*
Y323543D01*
X430973D01*
Y323759D01*
X431189D01*
Y323975D01*
X430973D01*
Y324191D01*
X431621D01*
Y324407D01*
X431405D01*
Y324623D01*
X432053D01*
Y324839D01*
X431837D01*
Y325055D01*
X432484D01*
Y325271D01*
X432268D01*
Y325486D01*
X432916D01*
Y325703D01*
X432700D01*
Y325918D01*
X433348D01*
Y326134D01*
X433132D01*
Y326350D01*
X433780D01*
Y326566D01*
X433564D01*
Y326782D01*
X433780D01*
Y326998D01*
X433996D01*
Y327214D01*
X434212D01*
Y327430D01*
X434428D01*
Y327646D01*
X434212D01*
Y327862D01*
X434428D01*
Y328078D01*
X434644D01*
Y328294D01*
X434428D01*
Y328510D01*
X434644D01*
Y328726D01*
X434428D01*
Y328942D01*
X434644D01*
Y329158D01*
X434428D01*
Y329374D01*
X434644D01*
Y329590D01*
X434428D01*
Y329806D01*
X434212D01*
Y330022D01*
X433996D01*
Y330238D01*
X433780D01*
Y330022D01*
X433564D01*
Y330238D01*
X433348D01*
Y330453D01*
X433132D01*
Y330238D01*
X433348D01*
Y330022D01*
X433132D01*
Y330238D01*
X432916D01*
Y330022D01*
X432700D01*
Y330238D01*
X432484D01*
Y330453D01*
X432268D01*
Y330669D01*
X432053D01*
Y330885D01*
X431405D01*
Y331101D01*
X431621D01*
Y331317D01*
X430973D01*
Y331533D01*
X431189D01*
Y331749D01*
X430973D01*
Y331965D01*
X430757D01*
Y332181D01*
Y332397D01*
Y332613D01*
X430541D01*
Y332829D01*
X430757D01*
Y333045D01*
X430541D01*
Y333261D01*
X430325D01*
Y333477D01*
X429677D01*
Y333261D01*
X429461D01*
Y333477D01*
X429245D01*
Y333693D01*
X429029D01*
Y333909D01*
X428813D01*
Y333693D01*
X429029D01*
Y333477D01*
X428813D01*
Y333693D01*
X428597D01*
Y333909D01*
X427949D01*
Y334125D01*
X427733D01*
Y334341D01*
X427085D01*
Y334557D01*
X427302D01*
Y334772D01*
X426654D01*
Y334988D01*
X426438D01*
Y335204D01*
X426222D01*
Y335420D01*
X426006D01*
Y335636D01*
X425358D01*
Y335852D01*
X425142D01*
Y336068D01*
X424926D01*
Y336284D01*
X424710D01*
Y336500D01*
Y336716D01*
Y336932D01*
X424494D01*
Y337148D01*
X424278D01*
Y337364D01*
X424062D01*
Y337580D01*
X423846D01*
Y337796D01*
X423630D01*
Y338012D01*
X423846D01*
Y338228D01*
X423198D01*
Y338444D01*
X423414D01*
Y338660D01*
X423198D01*
Y338876D01*
X422982D01*
Y339092D01*
Y339308D01*
Y339524D01*
X422766D01*
Y339739D01*
X422982D01*
Y339955D01*
X422334D01*
Y340171D01*
X422550D01*
Y340387D01*
X422334D01*
Y340603D01*
X422550D01*
Y340819D01*
X422334D01*
Y341035D01*
X422119D01*
Y341251D01*
X421903D01*
Y341467D01*
X422119D01*
Y341683D01*
Y341899D01*
Y342115D01*
X421903D01*
Y342331D01*
Y342547D01*
Y342763D01*
X421687D01*
Y342979D01*
X421903D01*
Y343195D01*
X422119D01*
Y343411D01*
X421903D01*
Y343627D01*
Y343843D01*
Y344058D01*
X422119D01*
Y344274D01*
X421903D01*
Y344490D01*
X421687D01*
Y344706D01*
X421903D01*
Y344922D01*
X422119D01*
Y345138D01*
X421903D01*
Y345354D01*
Y345570D01*
Y345786D01*
X422119D01*
Y346002D01*
X421903D01*
Y346218D01*
X421687D01*
Y346434D01*
X421903D01*
Y346650D01*
X422119D01*
Y346866D01*
X421903D01*
Y347082D01*
X422119D01*
Y347298D01*
X421903D01*
Y347514D01*
X422119D01*
Y347730D01*
Y347946D01*
Y348162D01*
X422334D01*
Y347946D01*
X422550D01*
Y348162D01*
X422334D01*
Y348378D01*
X422550D01*
Y348594D01*
X422766D01*
Y348810D01*
Y349026D01*
Y349241D01*
X422982D01*
Y349457D01*
Y349673D01*
Y349889D01*
X423198D01*
Y349673D01*
X423414D01*
Y349889D01*
X423198D01*
Y350105D01*
X423414D01*
Y350321D01*
X423630D01*
Y350537D01*
Y350753D01*
Y350969D01*
X423846D01*
Y351185D01*
X424062D01*
Y351401D01*
X424278D01*
Y351617D01*
X424494D01*
Y351833D01*
X424710D01*
Y352049D01*
Y352265D01*
X425142D01*
Y352481D01*
X424926D01*
Y352697D01*
X425574D01*
Y352913D01*
X425790D01*
Y353129D01*
X426006D01*
Y353344D01*
X426222D01*
Y353560D01*
X426438D01*
Y353776D01*
X426654D01*
Y353992D01*
X426870D01*
Y353776D01*
X427085D01*
Y353992D01*
X427302D01*
Y354208D01*
X427517D01*
Y354424D01*
X428165D01*
Y354640D01*
X428381D01*
Y354856D01*
X428597D01*
Y355072D01*
X428813D01*
Y354856D01*
X429029D01*
Y355072D01*
X429245D01*
Y354856D01*
X429461D01*
Y355072D01*
X429245D01*
Y355288D01*
X430325D01*
Y355504D01*
X430541D01*
Y355720D01*
X430757D01*
Y355504D01*
X430973D01*
Y355720D01*
X431189D01*
Y355504D01*
X431405D01*
Y355720D01*
X431621D01*
Y355504D01*
X431837D01*
Y355720D01*
X432053D01*
Y355936D01*
X432268D01*
Y355720D01*
X432484D01*
Y355936D01*
X432700D01*
Y355720D01*
X432916D01*
Y355936D01*
X433132D01*
Y355720D01*
X433348D01*
Y355936D01*
X433564D01*
Y355720D01*
X433780D01*
Y355936D01*
X433996D01*
Y355720D01*
X434212D01*
Y355936D01*
X434428D01*
Y355720D01*
X434644D01*
Y355936D01*
X434860D01*
Y355720D01*
D02*
G37*
G36*
X436372Y355504D02*
X436156D01*
Y355720D01*
X436372D01*
Y355504D01*
D02*
G37*
G36*
X432053Y330453D02*
X431837D01*
Y330669D01*
X432053D01*
Y330453D01*
D02*
G37*
%LPC*%
G36*
X343382Y254204D02*
Y253891D01*
X341160D01*
Y254157D01*
X340698Y254088D01*
X340281Y253984D01*
X339934Y253891D01*
X339656Y253764D01*
X339437Y253637D01*
X339275Y253486D01*
Y253382D01*
X344435D01*
Y254065D01*
X344122Y254123D01*
X343775Y254169D01*
X343382Y254204D01*
D02*
G37*
G36*
X342965Y254528D02*
X341554D01*
Y254296D01*
X342965D01*
Y254528D01*
D02*
G37*
G36*
X345626Y250675D02*
X343035Y247991D01*
X345164Y245804D01*
X345626Y250675D01*
D02*
G37*
G36*
X344736Y242425D02*
X344643D01*
Y241859D01*
X344736D01*
Y242425D01*
D02*
G37*
G36*
X345812Y252677D02*
X339333D01*
X339367Y252329D01*
X339541D01*
Y251589D01*
X340513Y250594D01*
X343428D01*
Y249668D01*
X341415D01*
X342757Y248280D01*
X345684Y251323D01*
X345812Y252677D01*
D02*
G37*
G36*
X342757Y247701D02*
X340003Y244844D01*
X340050Y244346D01*
X340235Y244358D01*
X340443Y244346D01*
X340698Y244277D01*
X340941Y244149D01*
X341126Y244022D01*
X341299Y243849D01*
X341450Y243629D01*
X341577Y243351D01*
X341635Y243039D01*
X341623Y242830D01*
X344886D01*
X345117Y245272D01*
X342757Y247701D01*
D02*
G37*
G36*
X340293Y243652D02*
X340223D01*
X340096Y243640D01*
X339992Y243617D01*
X339899Y243583D01*
X339818Y243548D01*
X339749Y243490D01*
X339703Y243432D01*
X339610Y243305D01*
X339564Y243166D01*
X339541Y243062D01*
X339529Y243016D01*
Y242981D01*
Y242958D01*
Y242946D01*
X339541Y242819D01*
X339564Y242715D01*
X339599Y242622D01*
X339633Y242541D01*
X339691Y242483D01*
X339749Y242425D01*
X339876Y242344D01*
X340003Y242287D01*
X340119Y242264D01*
X340154Y242252D01*
X340223D01*
X340351Y242264D01*
X340455Y242287D01*
X340547Y242321D01*
X340628Y242356D01*
X340698Y242414D01*
X340756Y242472D01*
X340837Y242599D01*
X340894Y242726D01*
X340917Y242842D01*
X340929Y242877D01*
Y242911D01*
Y242934D01*
Y242946D01*
X340917Y243073D01*
X340894Y243178D01*
X340860Y243270D01*
X340813Y243351D01*
X340767Y243421D01*
X340709Y243478D01*
X340570Y243559D01*
X340443Y243617D01*
X340328Y243640D01*
X340293Y243652D01*
D02*
G37*
G36*
X339541Y251010D02*
Y250767D01*
X339494D01*
X339957Y245376D01*
X342479Y247991D01*
X340848Y249668D01*
X340513D01*
Y250004D01*
X339541Y251010D01*
D02*
G37*
G36*
X343023Y250189D02*
X340941D01*
Y250062D01*
X343023D01*
Y250189D01*
D02*
G37*
G36*
X345395Y253776D02*
Y253382D01*
X345869D01*
X345881Y253452D01*
X345765Y253567D01*
X345615Y253672D01*
X345395Y253776D01*
D02*
G37*
G36*
X345002Y254296D02*
X344840D01*
Y253764D01*
X344990D01*
X345002Y254296D01*
D02*
G37*
G36*
X339147Y251936D02*
X338372D01*
Y251172D01*
X339147D01*
Y251936D01*
D02*
G37*
G36*
X338685Y253706D02*
X338650D01*
X338580Y253695D01*
X338534Y253672D01*
X338488Y253648D01*
X338465Y253614D01*
X338442Y253544D01*
Y253521D01*
Y253509D01*
X338453Y253440D01*
X338476Y253394D01*
X338511Y253359D01*
X338546Y253336D01*
X338615Y253313D01*
X338650D01*
X338719Y253324D01*
X338766Y253347D01*
X338800Y253371D01*
X338823Y253417D01*
X338846Y253475D01*
Y253498D01*
Y253509D01*
X338835Y253579D01*
X338812Y253625D01*
X338789Y253660D01*
X338742Y253683D01*
X338685Y253706D01*
D02*
G37*
%LPD*%
G36*
X340385Y243397D02*
X340501Y243351D01*
X340582Y243270D01*
X340640Y243189D01*
X340675Y243096D01*
X340686Y243016D01*
X340698Y242969D01*
Y242946D01*
X340675Y242796D01*
X340628Y242680D01*
X340547Y242599D01*
X340455Y242541D01*
X340374Y242506D01*
X340293Y242495D01*
X340247Y242483D01*
X340223D01*
X340073Y242506D01*
X339957Y242553D01*
X339876Y242634D01*
X339818Y242715D01*
X339784Y242796D01*
X339772Y242877D01*
X339761Y242923D01*
Y242946D01*
X339784Y243108D01*
X339830Y243224D01*
X339911Y243305D01*
X339992Y243363D01*
X340073Y243397D01*
X340154Y243409D01*
X340200Y243421D01*
X340223D01*
X340385Y243397D01*
D02*
G37*
%LPC*%
G36*
X340235Y243016D02*
X340223D01*
X340177Y243004D01*
X340165Y242981D01*
X340154Y242958D01*
Y242946D01*
X340165Y242911D01*
X340189Y242888D01*
X340212Y242877D01*
X340223D01*
X340258Y242888D01*
X340281Y242911D01*
X340293Y242934D01*
Y242946D01*
X340281Y242992D01*
X340258Y243004D01*
X340235Y243016D01*
D02*
G37*
G36*
X364490Y254113D02*
X364328D01*
X363992Y254101D01*
X363668Y254090D01*
X363344Y254055D01*
X363032Y254009D01*
X362418Y253881D01*
X361840Y253719D01*
X361296Y253523D01*
X360799Y253303D01*
X360324Y253071D01*
X359896Y252840D01*
X359514Y252597D01*
X359329Y252481D01*
X359167Y252366D01*
X359017Y252250D01*
X358878Y252146D01*
X358739Y252053D01*
X358624Y251961D01*
X358519Y251868D01*
X358427Y251787D01*
X358357Y251729D01*
X358288Y251672D01*
X358242Y251614D01*
X358207Y251590D01*
X358184Y251567D01*
X358172Y251556D01*
X357941Y251313D01*
X357721Y251070D01*
X357513Y250815D01*
X357328Y250561D01*
X357154Y250306D01*
X356992Y250040D01*
X356830Y249786D01*
X356691Y249519D01*
X356448Y248999D01*
X356240Y248490D01*
X356066Y247992D01*
X355939Y247529D01*
X355823Y247078D01*
X355754Y246673D01*
X355719Y246488D01*
X355696Y246315D01*
X355673Y246153D01*
X355650Y246002D01*
X355638Y245875D01*
X355627Y245748D01*
Y245643D01*
X355615Y245563D01*
Y245493D01*
Y245447D01*
Y245412D01*
Y245401D01*
X355627Y245065D01*
X355638Y244741D01*
X355673Y244417D01*
X355719Y244105D01*
X355847Y243492D01*
X356009Y242913D01*
X356205Y242369D01*
X356425Y241860D01*
X356657Y241397D01*
X356888Y240969D01*
X357131Y240576D01*
X357247Y240402D01*
X357362Y240229D01*
X357478Y240078D01*
X357582Y239939D01*
X357675Y239812D01*
X357767Y239685D01*
X357833Y239612D01*
X357825Y239604D01*
X358002Y239415D01*
X358056Y239349D01*
X358083Y239328D01*
X358134Y239274D01*
X358114Y239303D01*
X358083Y239328D01*
X358002Y239415D01*
X357999Y239419D01*
X357941Y239488D01*
X357860Y239581D01*
X357833Y239612D01*
X360509Y242288D01*
X360370Y242381D01*
X360243Y242473D01*
X360197Y242520D01*
X360162Y242554D01*
X360139Y242566D01*
X360128Y242578D01*
X359989Y242716D01*
X359873Y242855D01*
X359769Y243006D01*
X359688Y243167D01*
X359607Y243318D01*
X359549Y243468D01*
X359456Y243769D01*
X359422Y243908D01*
X359399Y244024D01*
X359387Y244139D01*
X359376Y244244D01*
X359364Y244313D01*
Y244382D01*
Y244417D01*
Y244429D01*
Y244614D01*
X359387Y244787D01*
X359445Y245088D01*
X359526Y245366D01*
X359561Y245481D01*
X359607Y245586D01*
X359653Y245678D01*
X359700Y245759D01*
X359746Y245829D01*
X359781Y245886D01*
X359815Y245933D01*
X359838Y245968D01*
X359850Y245979D01*
X359861Y245991D01*
X359954Y246095D01*
X360058Y246187D01*
X360151Y246257D01*
X360255Y246326D01*
X360452Y246430D01*
X360625Y246500D01*
X360787Y246534D01*
X360903Y246557D01*
X360949Y246569D01*
X361018D01*
X361157Y246557D01*
X361285Y246534D01*
X361412Y246488D01*
X361539Y246430D01*
X361771Y246291D01*
X361979Y246129D01*
X362141Y245968D01*
X362210Y245898D01*
X362268Y245829D01*
X362314Y245771D01*
X362349Y245725D01*
X362372Y245701D01*
X362384Y245690D01*
Y248825D01*
X362592D01*
X363888Y248293D01*
X363818Y248131D01*
X363691Y248177D01*
X363587Y248189D01*
X363518Y248200D01*
X363494D01*
X363414Y248189D01*
X363356Y248177D01*
X363309Y248154D01*
X363298Y248143D01*
X363251Y248073D01*
X363217Y248004D01*
X363205Y247934D01*
X363194Y247923D01*
Y247911D01*
X363182Y247877D01*
Y247819D01*
X363171Y247703D01*
Y247553D01*
X363159Y247391D01*
Y247252D01*
Y247125D01*
Y247078D01*
Y247043D01*
Y247020D01*
Y247009D01*
Y244938D01*
X364304Y246095D01*
X364247Y246315D01*
X364223Y246430D01*
X364212Y246523D01*
X364200Y246615D01*
Y246685D01*
Y246731D01*
Y246743D01*
X364212Y246951D01*
X364258Y247136D01*
X364304Y247310D01*
X364374Y247448D01*
X364432Y247576D01*
X364490Y247657D01*
X364536Y247715D01*
X364547Y247738D01*
X364686Y247888D01*
X364825Y248015D01*
X364964Y248119D01*
X365091Y248200D01*
X365207Y248258D01*
X365299Y248305D01*
X365357Y248328D01*
X365380Y248339D01*
X365589Y248397D01*
X365808Y248444D01*
X366028Y248467D01*
X366248Y248490D01*
X366445Y248501D01*
X366526Y248513D01*
X366734D01*
X370118Y251897D01*
X369997Y252007D01*
X369742Y252215D01*
X369488Y252400D01*
X369222Y252574D01*
X368967Y252736D01*
X368701Y252898D01*
X368446Y253037D01*
X367926Y253280D01*
X367417Y253488D01*
X366919Y253661D01*
X366445Y253789D01*
X366005Y253905D01*
X365600Y253974D01*
X365415Y254009D01*
X365242Y254032D01*
X365079Y254055D01*
X364929Y254078D01*
X364790Y254090D01*
X364675Y254101D01*
X364570D01*
X364490Y254113D01*
D02*
G37*
G36*
X366318Y248096D02*
X366179Y248050D01*
X366051Y248004D01*
X366005Y247981D01*
X365970Y247969D01*
X365947Y247946D01*
X365936D01*
X365832Y247877D01*
X365727Y247796D01*
X365647Y247703D01*
X365577Y247622D01*
X365519Y247541D01*
X365484Y247472D01*
X365461Y247425D01*
X365450Y247414D01*
X365392Y247287D01*
X365357Y247205D01*
X365346Y247148D01*
X365334Y247125D01*
X366318Y248096D01*
D02*
G37*
G36*
X367266Y247668D02*
X365473Y245886D01*
X365531Y245794D01*
X365589Y245725D01*
X365623Y245678D01*
X365635Y245667D01*
X365774Y245539D01*
X365924Y245435D01*
X366063Y245366D01*
X366190Y245320D01*
X366306Y245296D01*
X366399Y245285D01*
X366456Y245273D01*
X366479D01*
X366584Y245285D01*
X366699Y245296D01*
X366746D01*
X366780Y245308D01*
X366815D01*
X366965Y245320D01*
X367116Y245343D01*
X367174Y245354D01*
X367220Y245366D01*
X367255Y245377D01*
X367266D01*
Y247668D01*
D02*
G37*
G36*
X370495Y251543D02*
X370506Y251521D01*
X370541Y251486D01*
X370587Y251440D01*
X370645Y251371D01*
X370714Y251301D01*
X370795Y251209D01*
X368099Y248513D01*
X369083D01*
Y248339D01*
X368840D01*
X368712Y248328D01*
X368608Y248305D01*
X368504Y248270D01*
X368435Y248235D01*
X368377Y248200D01*
X368331Y248166D01*
X368308Y248143D01*
X368296Y248131D01*
X368250Y248062D01*
X368227Y247957D01*
X368203Y247830D01*
X368180Y247703D01*
Y247576D01*
X368169Y247483D01*
Y247402D01*
Y247391D01*
Y247379D01*
Y243249D01*
Y243063D01*
X368180Y242901D01*
X368192Y242786D01*
X368215Y242693D01*
X368227Y242624D01*
X368250Y242578D01*
X368261Y242554D01*
Y242543D01*
X368342Y242462D01*
X368435Y242392D01*
X368527Y242346D01*
X368620Y242323D01*
X368701Y242300D01*
X368770Y242288D01*
X369083D01*
Y242103D01*
X366341D01*
Y242288D01*
X366584D01*
X366711Y242300D01*
X366815Y242323D01*
X366908Y242346D01*
X366989Y242392D01*
X367046Y242427D01*
X367093Y242450D01*
X367116Y242473D01*
X367127Y242485D01*
X367174Y242566D01*
X367208Y242670D01*
X367232Y242797D01*
X367243Y242925D01*
X367255Y243052D01*
X367266Y243156D01*
Y243225D01*
Y243237D01*
Y243249D01*
Y245100D01*
X367139Y245077D01*
X367023Y245054D01*
X366931Y245042D01*
X366850Y245030D01*
X366780Y245019D01*
X366734Y245007D01*
X366688D01*
X366491Y244984D01*
X366399D01*
X366329Y244972D01*
X366179D01*
X365901Y244984D01*
X365647Y245030D01*
X365427Y245088D01*
X365242Y245146D01*
X365103Y245215D01*
X364999Y245262D01*
X364929Y245308D01*
X364906Y245320D01*
X363159Y243572D01*
Y242520D01*
X363008Y242427D01*
X362858Y242346D01*
X362731Y242277D01*
X362603Y242219D01*
X362511Y242173D01*
X362430Y242138D01*
X362372Y242126D01*
X362361Y242115D01*
X362222Y242068D01*
X362094Y242034D01*
X361956Y242010D01*
X361840Y241999D01*
X361747Y241987D01*
X361666Y241976D01*
X361562D01*
X358508Y238921D01*
X358161Y239245D01*
X358134Y239274D01*
X358137Y239268D01*
X358161Y239245D01*
X358172Y239234D01*
X358415Y239002D01*
X358658Y238783D01*
X358913Y238586D01*
X359167Y238389D01*
X359422Y238216D01*
X359688Y238054D01*
X359943Y237903D01*
X360209Y237764D01*
X360729Y237521D01*
X361238Y237313D01*
X361736Y237140D01*
X362199Y237012D01*
X362650Y236897D01*
X363055Y236827D01*
X363240Y236792D01*
X363414Y236769D01*
X363575Y236746D01*
X363726Y236723D01*
X363853Y236712D01*
X363980Y236700D01*
X364085D01*
X364165Y236688D01*
X364328D01*
X364663Y236700D01*
X364987Y236723D01*
X365311Y236746D01*
X365623Y236792D01*
X366236Y236920D01*
X366804Y237082D01*
X367347Y237278D01*
X367856Y237498D01*
X368331Y237730D01*
X368759Y237961D01*
X369141Y238204D01*
X369314Y238320D01*
X369488Y238424D01*
X369638Y238540D01*
X369777Y238644D01*
X369904Y238748D01*
X370031Y238840D01*
X370136Y238921D01*
X370228Y239002D01*
X370298Y239072D01*
X370367Y239130D01*
X370413Y239176D01*
X370448Y239211D01*
X370471Y239222D01*
X370483Y239234D01*
X370714Y239477D01*
X370934Y239720D01*
X371131Y239974D01*
X371327Y240229D01*
X371501Y240495D01*
X371663Y240749D01*
X371825Y241016D01*
X371964Y241282D01*
X372207Y241802D01*
X372415Y242311D01*
X372588Y242809D01*
X372716Y243272D01*
X372820Y243723D01*
X372901Y244128D01*
X372936Y244313D01*
X372959Y244486D01*
X372982Y244649D01*
X373005Y244799D01*
X373017Y244926D01*
X373028Y245054D01*
Y245158D01*
X373040Y245239D01*
Y245308D01*
Y245354D01*
Y245389D01*
Y245401D01*
X373028Y245736D01*
X373005Y246060D01*
X372982Y246384D01*
X372924Y246696D01*
X372808Y247310D01*
X372635Y247888D01*
X372450Y248432D01*
X372230Y248929D01*
X371998Y249404D01*
X371755Y249832D01*
X371524Y250214D01*
X371408Y250399D01*
X371293Y250561D01*
X371177Y250711D01*
X371073Y250850D01*
X370980Y250989D01*
X370876Y251105D01*
X370795Y251209D01*
X370807Y251220D01*
X370495Y251543D01*
D02*
G37*
G36*
X361481Y245886D02*
X361389D01*
X361215Y245863D01*
X361065Y245817D01*
X360926Y245748D01*
X360799Y245667D01*
X360695Y245586D01*
X360625Y245516D01*
X360567Y245470D01*
X360556Y245447D01*
X360428Y245262D01*
X360336Y245054D01*
X360266Y244845D01*
X360220Y244637D01*
X360197Y244452D01*
X360185Y244371D01*
X360174Y244301D01*
Y244244D01*
Y244197D01*
Y244174D01*
Y244163D01*
X360185Y243850D01*
X360232Y243572D01*
X360290Y243330D01*
X360359Y243144D01*
X360440Y242994D01*
X360498Y242890D01*
X360544Y242820D01*
X360556Y242797D01*
X360625Y242693D01*
X360695Y242624D01*
X360752Y242566D01*
X360764Y242554D01*
X360775D01*
X362384Y244151D01*
Y245389D01*
X362268Y245493D01*
X362175Y245574D01*
X362083Y245632D01*
X362014Y245690D01*
X361956Y245725D01*
X361921Y245748D01*
X361898Y245771D01*
X361886D01*
X361701Y245840D01*
X361620Y245863D01*
X361539Y245875D01*
X361481Y245886D01*
D02*
G37*
G36*
X370483Y251556D02*
X370495Y251543D01*
X370494Y251544D01*
X370483Y251556D01*
D02*
G37*
G36*
X370124Y251903D02*
X370118Y251897D01*
X370240Y251787D01*
X370483Y251556D01*
X370124Y251903D01*
D02*
G37*
G36*
X479994Y205632D02*
X479778D01*
Y205416D01*
X479994D01*
Y205632D01*
D02*
G37*
G36*
X436372Y332613D02*
X436156D01*
Y332397D01*
X436372D01*
Y332613D01*
D02*
G37*
G36*
X429893Y336068D02*
X429677D01*
Y335852D01*
X429893D01*
Y336068D01*
D02*
G37*
G36*
X429029Y336500D02*
X428813D01*
Y336284D01*
X429029D01*
Y336500D01*
D02*
G37*
G36*
X434212Y330453D02*
X433996D01*
Y330238D01*
X434212D01*
Y330453D01*
D02*
G37*
G36*
X433348Y318360D02*
X433132D01*
Y318144D01*
X433348D01*
Y318360D01*
D02*
G37*
G36*
X437235Y318792D02*
X437019D01*
Y318576D01*
X437235D01*
Y318792D01*
D02*
G37*
G36*
X435940Y320519D02*
X435724D01*
Y320304D01*
X435940D01*
Y320519D01*
D02*
G37*
G36*
X434860Y353129D02*
X434644D01*
Y352913D01*
X433996D01*
Y353129D01*
X433780D01*
Y352913D01*
X433132D01*
Y353129D01*
X432916D01*
Y352913D01*
X432268D01*
Y353129D01*
X432053D01*
Y352913D01*
X431837D01*
Y352697D01*
X431621D01*
Y352913D01*
X431405D01*
Y352697D01*
X431621D01*
Y352481D01*
X431405D01*
Y352697D01*
X431189D01*
Y352481D01*
X430973D01*
Y352697D01*
X430757D01*
Y352481D01*
X430541D01*
Y352265D01*
X430325D01*
Y352481D01*
X430109D01*
Y352265D01*
X429893D01*
Y352049D01*
X429677D01*
Y352265D01*
X429461D01*
Y352049D01*
X429245D01*
Y351833D01*
X429029D01*
Y352049D01*
X428813D01*
Y351833D01*
X429029D01*
Y351617D01*
X428813D01*
Y351401D01*
X428597D01*
Y351617D01*
X428381D01*
Y351401D01*
X428597D01*
Y351185D01*
X427949D01*
Y350969D01*
X427733D01*
Y350753D01*
X427517D01*
Y350537D01*
X427302D01*
Y350321D01*
X427085D01*
Y350105D01*
X426870D01*
Y349889D01*
X426654D01*
Y349673D01*
X426438D01*
Y349457D01*
X426222D01*
Y349241D01*
X426438D01*
Y349026D01*
X426222D01*
Y348810D01*
X426006D01*
Y349026D01*
X425790D01*
Y348810D01*
X426006D01*
Y348594D01*
X425790D01*
Y348378D01*
X425574D01*
Y348594D01*
X425358D01*
Y348378D01*
X425574D01*
Y348162D01*
Y347946D01*
Y347730D01*
X425358D01*
Y347514D01*
Y347298D01*
Y347082D01*
X425142D01*
Y347298D01*
X424926D01*
Y347082D01*
X425142D01*
Y346866D01*
X424926D01*
Y346650D01*
X425142D01*
Y346434D01*
X424926D01*
Y346218D01*
X424710D01*
Y346002D01*
X424494D01*
Y345786D01*
X424710D01*
Y345570D01*
Y345354D01*
Y345138D01*
Y344922D01*
Y344706D01*
X424494D01*
Y344490D01*
Y344274D01*
Y344058D01*
X424710D01*
Y343843D01*
X424494D01*
Y343627D01*
X424710D01*
Y343411D01*
X424494D01*
Y343195D01*
X424710D01*
Y342979D01*
Y342763D01*
Y342547D01*
X424494D01*
Y342331D01*
X424710D01*
Y342115D01*
X424926D01*
Y341899D01*
X425142D01*
Y341683D01*
X424926D01*
Y341467D01*
X425142D01*
Y341251D01*
X424926D01*
Y341035D01*
X425142D01*
Y340819D01*
X425358D01*
Y340603D01*
X425574D01*
Y340387D01*
X425358D01*
Y340171D01*
X425574D01*
Y339955D01*
X425790D01*
Y339739D01*
X426006D01*
Y339524D01*
X426222D01*
Y339308D01*
Y339092D01*
Y338876D01*
X426438D01*
Y338660D01*
X426654D01*
Y338444D01*
X426870D01*
Y338228D01*
X427085D01*
Y338012D01*
X427302D01*
Y337796D01*
X427517D01*
Y337580D01*
X427733D01*
Y337364D01*
X427949D01*
Y337148D01*
X428165D01*
Y336932D01*
X428381D01*
Y336716D01*
X428597D01*
Y336932D01*
X428813D01*
Y336716D01*
X429029D01*
Y336500D01*
X429245D01*
Y336284D01*
X429893D01*
Y336068D01*
X430109D01*
Y335852D01*
X430325D01*
Y336068D01*
X430541D01*
Y335852D01*
X430757D01*
Y335636D01*
X430973D01*
Y335852D01*
X431189D01*
Y335636D01*
X431405D01*
Y335420D01*
X435508D01*
Y335636D01*
X435724D01*
Y335852D01*
X435940D01*
Y335636D01*
X436156D01*
Y335852D01*
X436372D01*
Y336068D01*
X436587D01*
Y335852D01*
X436803D01*
Y336068D01*
X437019D01*
Y335852D01*
X437235D01*
Y336068D01*
X437019D01*
Y336284D01*
X437667D01*
Y336500D01*
X437883D01*
Y336716D01*
X438099D01*
Y336932D01*
X438315D01*
Y336716D01*
X438531D01*
Y336932D01*
X438747D01*
Y337148D01*
X438963D01*
Y337364D01*
X439179D01*
Y337580D01*
X439395D01*
Y337796D01*
X439611D01*
Y338012D01*
X439827D01*
Y338228D01*
X440043D01*
Y338444D01*
X440259D01*
Y338660D01*
X440475D01*
Y338876D01*
X440691D01*
Y339092D01*
X440907D01*
Y339308D01*
Y339524D01*
Y339739D01*
X441122D01*
Y339955D01*
X441338D01*
Y340171D01*
X441554D01*
Y340387D01*
X441338D01*
Y340603D01*
X441554D01*
Y340819D01*
X441770D01*
Y341035D01*
X441986D01*
Y341251D01*
X441770D01*
Y341467D01*
X441986D01*
Y341683D01*
X441770D01*
Y341899D01*
X441986D01*
Y342115D01*
X442202D01*
Y342331D01*
X441986D01*
Y342547D01*
X442202D01*
Y342763D01*
X441986D01*
Y342979D01*
X442202D01*
Y343195D01*
X442418D01*
Y343411D01*
X442202D01*
Y343627D01*
X442418D01*
Y343843D01*
X442202D01*
Y344058D01*
X442418D01*
Y344274D01*
X442202D01*
Y344490D01*
X442418D01*
Y344706D01*
X442202D01*
Y344922D01*
X442418D01*
Y345138D01*
X442202D01*
Y345354D01*
X441986D01*
Y345570D01*
X442202D01*
Y345786D01*
X441986D01*
Y346002D01*
X442202D01*
Y346218D01*
X441986D01*
Y346434D01*
X441770D01*
Y346650D01*
X441986D01*
Y346434D01*
X442202D01*
Y346650D01*
X441986D01*
Y346866D01*
X441770D01*
Y347082D01*
X441986D01*
Y347298D01*
X441770D01*
Y347514D01*
X441554D01*
Y347730D01*
X441338D01*
Y347946D01*
X441554D01*
Y348162D01*
X441338D01*
Y348378D01*
X441122D01*
Y348594D01*
X440907D01*
Y348810D01*
X440691D01*
Y349026D01*
X440475D01*
Y349241D01*
X440691D01*
Y349457D01*
X440475D01*
Y349673D01*
X440259D01*
Y349889D01*
X440043D01*
Y350105D01*
X439827D01*
Y350321D01*
X439611D01*
Y350537D01*
X439395D01*
Y350753D01*
X439179D01*
Y350969D01*
X438963D01*
Y351185D01*
X438315D01*
Y351401D01*
X438099D01*
Y351617D01*
X437883D01*
Y351833D01*
X437667D01*
Y352049D01*
X437451D01*
Y352265D01*
X437235D01*
Y352049D01*
X437019D01*
Y352265D01*
X436803D01*
Y352481D01*
X436587D01*
Y352265D01*
X436372D01*
Y352481D01*
X435724D01*
Y352697D01*
X435076D01*
Y352913D01*
X434860D01*
Y353129D01*
D02*
G37*
G36*
X439395Y354208D02*
X439179D01*
Y353992D01*
X439395D01*
Y354208D01*
D02*
G37*
G36*
X437667Y355072D02*
X437451D01*
Y354856D01*
X437667D01*
Y355072D01*
D02*
G37*
G36*
X435940Y352913D02*
X435724D01*
Y352697D01*
X435940D01*
Y352913D01*
D02*
G37*
G36*
X426006Y339524D02*
X425790D01*
Y339308D01*
X426006D01*
Y339524D01*
D02*
G37*
G36*
X425574Y339955D02*
X425358D01*
Y339739D01*
X425574D01*
Y339955D01*
D02*
G37*
G36*
X441986Y347730D02*
X441770D01*
Y347514D01*
X441986D01*
Y347730D01*
D02*
G37*
G36*
X457535Y278625D02*
X457319D01*
Y278409D01*
X457535D01*
Y278625D01*
D02*
G37*
G36*
X467037Y269123D02*
X466821D01*
Y268907D01*
X467037D01*
Y269123D01*
D02*
G37*
G36*
X448897Y283376D02*
X448681D01*
Y283159D01*
X448897D01*
Y283376D01*
D02*
G37*
G36*
X453216Y281216D02*
X453000D01*
Y281000D01*
X453216D01*
Y281216D01*
D02*
G37*
G36*
X483450Y209087D02*
X483234D01*
Y208871D01*
X483450D01*
Y209087D01*
D02*
G37*
G36*
X434212Y208655D02*
X433996D01*
Y208439D01*
X434212D01*
Y208655D01*
D02*
G37*
G36*
X470492Y262212D02*
X470276D01*
Y261996D01*
X470492D01*
Y262212D01*
D02*
G37*
G36*
X477403Y241480D02*
X477187D01*
Y241265D01*
X477403D01*
Y241480D01*
D02*
G37*
G36*
X433348Y301947D02*
X433132D01*
Y301732D01*
X433348D01*
Y301947D01*
D02*
G37*
G36*
X432053Y289422D02*
X431837D01*
Y289206D01*
X432053D01*
Y289422D01*
D02*
G37*
G36*
X433348Y288558D02*
X433132D01*
Y288342D01*
X433348D01*
Y288558D01*
D02*
G37*
G36*
X444578Y285103D02*
X444362D01*
Y284887D01*
X444578D01*
Y285103D01*
D02*
G37*
G36*
X436803Y287263D02*
X436587D01*
Y287047D01*
X436803D01*
Y287263D01*
D02*
G37*
G36*
X435508Y287695D02*
X435292D01*
Y287479D01*
X435508D01*
Y287695D01*
D02*
G37*
%LPD*%
G36*
X437667Y351617D02*
X437451D01*
Y351833D01*
X437667D01*
Y351617D01*
D02*
G37*
G36*
X435076Y352481D02*
X434860D01*
Y352697D01*
X435076D01*
Y352481D01*
D02*
G37*
D16*
X369195Y285000D02*
X375193D01*
X369195Y288999D01*
X375193D01*
X369195Y293997D02*
Y291998D01*
X370194Y290998D01*
X372194D01*
X373193Y291998D01*
Y293997D01*
X372194Y294997D01*
X371194D01*
Y290998D01*
X373193Y296996D02*
X370194D01*
X369195Y297996D01*
X370194Y298995D01*
X369195Y299995D01*
X370194Y300995D01*
X373193D01*
X369195Y302994D02*
X373193D01*
X375193Y304994D01*
X373193Y306993D01*
X369195D01*
X372194D01*
Y302994D01*
X375193Y312991D02*
Y308992D01*
X369195D01*
Y312991D01*
X372194Y308992D02*
Y310992D01*
X375193Y320988D02*
Y324987D01*
Y322988D01*
X369195D01*
Y329985D02*
Y327986D01*
X370194Y326986D01*
X372194D01*
X373193Y327986D01*
Y329985D01*
X372194Y330985D01*
X371194D01*
Y326986D01*
X373193Y336983D02*
Y333984D01*
X372194Y332984D01*
X370194D01*
X369195Y333984D01*
Y336983D01*
X375193Y338983D02*
X369195D01*
X372194D01*
X373193Y339982D01*
Y341982D01*
X372194Y342981D01*
X369195D01*
Y344981D02*
X373193D01*
Y347980D01*
X372194Y348979D01*
X369195D01*
Y351978D02*
Y353978D01*
X370194Y354977D01*
X372194D01*
X373193Y353978D01*
Y351978D01*
X372194Y350979D01*
X370194D01*
X369195Y351978D01*
Y356977D02*
Y358976D01*
Y357976D01*
X375193D01*
Y356977D01*
X369195Y362975D02*
Y364974D01*
X370194Y365974D01*
X372194D01*
X373193Y364974D01*
Y362975D01*
X372194Y361975D01*
X370194D01*
X369195Y362975D01*
X367195Y369972D02*
Y370972D01*
X368195Y371972D01*
X373193D01*
Y368973D01*
X372194Y367973D01*
X370194D01*
X369195Y368973D01*
Y371972D01*
X373193Y373971D02*
X370194D01*
X369195Y374971D01*
Y377970D01*
X368195D01*
X367195Y376970D01*
Y375971D01*
X369195Y377970D02*
X373193D01*
X375193Y385967D02*
Y387967D01*
Y386967D01*
X369195D01*
Y385967D01*
Y387967D01*
Y390966D02*
X373193D01*
Y393965D01*
X372194Y394964D01*
X369195D01*
X373193Y400962D02*
Y397964D01*
X372194Y396964D01*
X370194D01*
X369195Y397964D01*
Y400962D01*
Y402962D02*
X370194D01*
Y403962D01*
X369195D01*
Y402962D01*
X357598Y285000D02*
X363596D01*
X357598Y288999D01*
X363596D01*
X357598Y290998D02*
X361596D01*
X363596Y292997D01*
X361596Y294997D01*
X357598D01*
X360597D01*
Y290998D01*
X363596Y300995D02*
Y296996D01*
X357598D01*
Y300995D01*
X360597Y296996D02*
Y298995D01*
Y302994D02*
Y306993D01*
X362596Y312991D02*
X363596Y311991D01*
Y309992D01*
X362596Y308992D01*
X358597D01*
X357598Y309992D01*
Y311991D01*
X358597Y312991D01*
X363596Y314990D02*
X357598D01*
X359597Y316990D01*
X357598Y318989D01*
X363596D01*
X362596Y320988D02*
X363596Y321988D01*
Y323987D01*
X362596Y324987D01*
X361596D01*
X360597Y323987D01*
Y322988D01*
Y323987D01*
X359597Y324987D01*
X358597D01*
X357598Y323987D01*
Y321988D01*
X358597Y320988D01*
X362596Y326986D02*
X363596Y327986D01*
Y329985D01*
X362596Y330985D01*
X358597D01*
X357598Y329985D01*
Y327986D01*
X358597Y326986D01*
X362596D01*
Y332984D02*
X363596Y333984D01*
Y335983D01*
X362596Y336983D01*
X361596D01*
X360597Y335983D01*
X359597Y336983D01*
X358597D01*
X357598Y335983D01*
Y333984D01*
X358597Y332984D01*
X359597D01*
X360597Y333984D01*
X361596Y332984D01*
X362596D01*
X360597Y333984D02*
Y335983D01*
X363596Y338983D02*
Y342981D01*
Y340982D01*
X357598D01*
X360597Y344981D02*
Y348979D01*
X362596Y354977D02*
X363596Y353978D01*
Y351978D01*
X362596Y350979D01*
X361596D01*
X360597Y351978D01*
Y353978D01*
X359597Y354977D01*
X358597D01*
X357598Y353978D01*
Y351978D01*
X358597Y350979D01*
X357598Y356977D02*
X361596D01*
X363596Y358976D01*
X361596Y360975D01*
X357598D01*
X360597D01*
Y356977D01*
X357598Y362975D02*
X363596D01*
X361596Y364974D01*
X363596Y366973D01*
X357598D01*
Y371972D02*
X363596D01*
X360597Y368973D01*
Y372972D01*
X363596Y374971D02*
X357598D01*
Y378970D01*
X360597Y380969D02*
Y384968D01*
X362596Y386967D02*
X363596Y387967D01*
Y389966D01*
X362596Y390966D01*
X358597D01*
X357598Y389966D01*
Y387967D01*
X358597Y386967D01*
X362596D01*
X357598Y396964D02*
Y392965D01*
X361596Y396964D01*
X362596D01*
X363596Y395964D01*
Y393965D01*
X362596Y392965D01*
X348000Y285000D02*
X353998D01*
Y287999D01*
X352998Y288999D01*
X350999D01*
X349999Y287999D01*
Y285000D01*
Y286999D02*
X348000Y288999D01*
Y291998D02*
Y293997D01*
X349000Y294997D01*
X350999D01*
X351999Y293997D01*
Y291998D01*
X350999Y290998D01*
X349000D01*
X348000Y291998D01*
X353998Y296996D02*
X348000D01*
X350999D01*
Y300995D01*
X353998D01*
X348000D01*
X352998Y306993D02*
X353998Y305993D01*
Y303994D01*
X352998Y302994D01*
X351999D01*
X350999Y303994D01*
Y305993D01*
X349999Y306993D01*
X349000D01*
X348000Y305993D01*
Y303994D01*
X349000Y302994D01*
X348000Y314990D02*
X351999Y318989D01*
X348000Y326986D02*
X353998D01*
Y329985D01*
X352998Y330985D01*
X350999D01*
X349999Y329985D01*
Y326986D01*
X353998Y332984D02*
X348000D01*
Y335983D01*
X349000Y336983D01*
X349999D01*
X350999D01*
X351999Y335983D01*
Y332984D01*
X350999Y338983D02*
Y342981D01*
X353998Y348979D02*
Y344981D01*
X350999D01*
Y346980D01*
Y344981D01*
X348000D01*
X351999Y350979D02*
X348000D01*
X349999D01*
X350999Y351978D01*
X351999Y352978D01*
Y353978D01*
X348000Y359976D02*
Y357976D01*
X349000Y356977D01*
X350999D01*
X351999Y357976D01*
Y359976D01*
X350999Y360975D01*
X349999D01*
Y356977D01*
X348000Y365974D02*
Y363974D01*
X349000Y362975D01*
X350999D01*
X351999Y363974D01*
Y365974D01*
X350999Y366973D01*
X349999D01*
Y362975D01*
X435501Y373998D02*
X436501Y374998D01*
X438500D01*
X439500Y373998D01*
Y372999D01*
X438500Y371999D01*
X436501D01*
X435501Y370999D01*
Y370000D01*
X436501Y369000D01*
X438500D01*
X439500Y370000D01*
X429503Y374998D02*
X431503D01*
X430503D01*
Y370000D01*
X431503Y369000D01*
X432502D01*
X433502Y370000D01*
X427504Y369000D02*
X425504D01*
X426504D01*
Y374998D01*
X427504Y373998D01*
D23*
X300000Y185500D02*
X505500D01*
Y439500D01*
X300000D02*
X505500D01*
X300000Y185500D02*
Y439500D01*
D38*
X434756Y357791D02*
G03*
X435937Y358972I0J1181D01*
G01*
X428063Y358578D02*
G03*
X428850Y357791I787J0D01*
G01*
Y366452D02*
G03*
X428063Y365665I0J-787D01*
G01*
X435937D02*
G03*
X435150Y366452I-787J0D01*
G01*
X428850Y357791D02*
X434756D01*
X428063Y358578D02*
Y365665D01*
X428850Y366452D02*
X435150D01*
X435937Y358972D02*
Y365665D01*
D56*
X437311Y347919D02*
G03*
X437311Y347919I-427J0D01*
G01*
M02*
