G04 Layer_Color=8388736*
%FSLAX25Y25*%
%MOIN*%
G70*
G01*
G75*
%ADD23C,0.00500*%
%ADD41R,0.04540X0.03753*%
%ADD42R,0.03753X0.04540*%
G04:AMPARAMS|DCode=43|XSize=47.37mil|YSize=43.43mil|CornerRadius=8.43mil|HoleSize=0mil|Usage=FLASHONLY|Rotation=180.000|XOffset=0mil|YOffset=0mil|HoleType=Round|Shape=RoundedRectangle|*
%AMROUNDEDRECTD43*
21,1,0.04737,0.02657,0,0,180.0*
21,1,0.03051,0.04343,0,0,180.0*
1,1,0.01686,-0.01526,0.01329*
1,1,0.01686,0.01526,0.01329*
1,1,0.01686,0.01526,-0.01329*
1,1,0.01686,-0.01526,-0.01329*
%
%ADD43ROUNDEDRECTD43*%
%ADD44O,0.06312X0.01981*%
%ADD45O,0.01981X0.06312*%
G04:AMPARAMS|DCode=46|XSize=47.37mil|YSize=43.43mil|CornerRadius=8.43mil|HoleSize=0mil|Usage=FLASHONLY|Rotation=90.000|XOffset=0mil|YOffset=0mil|HoleType=Round|Shape=RoundedRectangle|*
%AMROUNDEDRECTD46*
21,1,0.04737,0.02657,0,0,90.0*
21,1,0.03051,0.04343,0,0,90.0*
1,1,0.01686,0.01329,0.01526*
1,1,0.01686,0.01329,-0.01526*
1,1,0.01686,-0.01329,-0.01526*
1,1,0.01686,-0.01329,0.01526*
%
%ADD46ROUNDEDRECTD46*%
G04:AMPARAMS|DCode=47|XSize=47.37mil|YSize=70.99mil|CornerRadius=23.68mil|HoleSize=0mil|Usage=FLASHONLY|Rotation=0.000|XOffset=0mil|YOffset=0mil|HoleType=Round|Shape=RoundedRectangle|*
%AMROUNDEDRECTD47*
21,1,0.04737,0.02362,0,0,0.0*
21,1,0.00000,0.07099,0,0,0.0*
1,1,0.04737,0.00000,-0.01181*
1,1,0.04737,0.00000,-0.01181*
1,1,0.04737,0.00000,0.01181*
1,1,0.04737,0.00000,0.01181*
%
%ADD47ROUNDEDRECTD47*%
%ADD48C,0.03753*%
%ADD49C,0.25800*%
%ADD50O,0.11800X0.06800*%
%ADD51R,0.11800X0.06800*%
%ADD52O,0.06800X0.11800*%
%ADD53R,0.06800X0.11800*%
D23*
X300000Y185500D02*
X505500D01*
Y439500D01*
X300000D02*
X505500D01*
X300000Y185500D02*
Y439500D01*
D41*
X436500Y368256D02*
D03*
Y362744D02*
D03*
X397000Y383744D02*
D03*
Y389256D02*
D03*
X473500Y357744D02*
D03*
Y363256D02*
D03*
X465500D02*
D03*
Y357744D02*
D03*
X432500Y383744D02*
D03*
Y389256D02*
D03*
X405500D02*
D03*
Y383744D02*
D03*
D42*
X416612Y305500D02*
D03*
X411100D02*
D03*
X403100D02*
D03*
X397588D02*
D03*
X374500Y357000D02*
D03*
X380012D02*
D03*
X380000Y335000D02*
D03*
X374488D02*
D03*
X392900Y321100D02*
D03*
X398412D02*
D03*
X380000Y365000D02*
D03*
X374488D02*
D03*
D43*
X435000Y335693D02*
D03*
Y329000D02*
D03*
X441000Y389846D02*
D03*
Y383154D02*
D03*
X423500Y389846D02*
D03*
Y383154D02*
D03*
X408100Y290807D02*
D03*
Y297500D02*
D03*
X401100D02*
D03*
Y290807D02*
D03*
D44*
X421535Y347173D02*
D03*
Y349142D02*
D03*
Y351110D02*
D03*
Y353079D02*
D03*
Y355047D02*
D03*
Y357016D02*
D03*
Y358984D02*
D03*
Y360953D02*
D03*
Y362921D02*
D03*
Y364890D02*
D03*
Y366858D02*
D03*
Y368827D02*
D03*
X388465D02*
D03*
Y366858D02*
D03*
Y364890D02*
D03*
Y362921D02*
D03*
Y360953D02*
D03*
Y358984D02*
D03*
Y357016D02*
D03*
Y355047D02*
D03*
Y353079D02*
D03*
Y351110D02*
D03*
Y349142D02*
D03*
Y347173D02*
D03*
D45*
X415827Y374535D02*
D03*
X413858D02*
D03*
X411890D02*
D03*
X409921D02*
D03*
X407953D02*
D03*
X405984D02*
D03*
X404016D02*
D03*
X402047D02*
D03*
X400079D02*
D03*
X398110D02*
D03*
X396142D02*
D03*
X394173D02*
D03*
Y341465D02*
D03*
X396142D02*
D03*
X398110D02*
D03*
X400079D02*
D03*
X402047D02*
D03*
X404016D02*
D03*
X405984D02*
D03*
X407953D02*
D03*
X409921D02*
D03*
X411890D02*
D03*
X413858D02*
D03*
X415827D02*
D03*
D46*
X446654Y363500D02*
D03*
X453346D02*
D03*
X381407Y305500D02*
D03*
X388100D02*
D03*
Y297500D02*
D03*
X381407D02*
D03*
X397407Y283500D02*
D03*
X404100D02*
D03*
X417793D02*
D03*
X411100D02*
D03*
D47*
X416057Y262634D02*
D03*
X387907D02*
D03*
D48*
X404541Y259563D02*
D03*
X407100Y263500D02*
D03*
X401982D02*
D03*
X399423Y259563D02*
D03*
X396864Y263500D02*
D03*
D49*
X478000Y423300D02*
D03*
X328000D02*
D03*
X398000Y223300D02*
D03*
D50*
X498000Y213300D02*
D03*
Y223300D02*
D03*
Y233300D02*
D03*
Y243300D02*
D03*
Y253300D02*
D03*
Y263300D02*
D03*
Y273300D02*
D03*
Y283300D02*
D03*
Y293300D02*
D03*
Y303300D02*
D03*
Y313300D02*
D03*
Y323300D02*
D03*
Y333300D02*
D03*
Y343300D02*
D03*
Y353300D02*
D03*
Y363300D02*
D03*
Y373300D02*
D03*
Y383300D02*
D03*
Y393300D02*
D03*
X308000Y213300D02*
D03*
Y223300D02*
D03*
Y233300D02*
D03*
Y243300D02*
D03*
Y253300D02*
D03*
Y263300D02*
D03*
Y273300D02*
D03*
Y283300D02*
D03*
Y293300D02*
D03*
Y303300D02*
D03*
Y313300D02*
D03*
Y323300D02*
D03*
Y333300D02*
D03*
Y343300D02*
D03*
Y353300D02*
D03*
Y363300D02*
D03*
Y373300D02*
D03*
Y383300D02*
D03*
Y393300D02*
D03*
D51*
X498000Y403300D02*
D03*
X308000D02*
D03*
D52*
X498000Y193300D02*
D03*
X488000D02*
D03*
X478000D02*
D03*
X468000D02*
D03*
X458000D02*
D03*
X448000D02*
D03*
X438000D02*
D03*
X428000D02*
D03*
X418000D02*
D03*
X408000D02*
D03*
X398000D02*
D03*
X388000D02*
D03*
X378000D02*
D03*
X368000D02*
D03*
X358000D02*
D03*
X348000D02*
D03*
X338000D02*
D03*
X328000D02*
D03*
X318000D02*
D03*
D53*
X308000D02*
D03*
M02*
