G04 Layer_Color=8421504*
%FSLAX25Y25*%
%MOIN*%
G70*
G01*
G75*
%ADD10R,0.03740X0.02953*%
%ADD11R,0.02953X0.03740*%
G04:AMPARAMS|DCode=12|XSize=39.37mil|YSize=35.43mil|CornerRadius=4.43mil|HoleSize=0mil|Usage=FLASHONLY|Rotation=180.000|XOffset=0mil|YOffset=0mil|HoleType=Round|Shape=RoundedRectangle|*
%AMROUNDEDRECTD12*
21,1,0.03937,0.02657,0,0,180.0*
21,1,0.03051,0.03543,0,0,180.0*
1,1,0.00886,-0.01526,0.01329*
1,1,0.00886,0.01526,0.01329*
1,1,0.00886,0.01526,-0.01329*
1,1,0.00886,-0.01526,-0.01329*
%
%ADD12ROUNDEDRECTD12*%
G04:AMPARAMS|DCode=15|XSize=39.37mil|YSize=35.43mil|CornerRadius=4.43mil|HoleSize=0mil|Usage=FLASHONLY|Rotation=90.000|XOffset=0mil|YOffset=0mil|HoleType=Round|Shape=RoundedRectangle|*
%AMROUNDEDRECTD15*
21,1,0.03937,0.02657,0,0,90.0*
21,1,0.03051,0.03543,0,0,90.0*
1,1,0.00886,0.01329,0.01526*
1,1,0.00886,0.01329,-0.01526*
1,1,0.00886,-0.01329,-0.01526*
1,1,0.00886,-0.01329,0.01526*
%
%ADD15ROUNDEDRECTD15*%
%ADD23C,0.00500*%
%ADD39O,0.05112X0.00781*%
%ADD40O,0.00781X0.05112*%
D10*
X436500Y368256D02*
D03*
Y362744D02*
D03*
X397000Y383744D02*
D03*
Y389256D02*
D03*
X473500Y357744D02*
D03*
Y363256D02*
D03*
X465500D02*
D03*
Y357744D02*
D03*
X432500Y383744D02*
D03*
Y389256D02*
D03*
X405500D02*
D03*
Y383744D02*
D03*
D11*
X416612Y305500D02*
D03*
X411100D02*
D03*
X403100D02*
D03*
X397588D02*
D03*
X374500Y357000D02*
D03*
X380012D02*
D03*
X380000Y335000D02*
D03*
X374488D02*
D03*
X392900Y321100D02*
D03*
X398412D02*
D03*
X380000Y365000D02*
D03*
X374488D02*
D03*
D12*
X435000Y335693D02*
D03*
Y329000D02*
D03*
X441000Y389846D02*
D03*
Y383154D02*
D03*
X423500Y389846D02*
D03*
Y383154D02*
D03*
X408100Y290807D02*
D03*
Y297500D02*
D03*
X401100D02*
D03*
Y290807D02*
D03*
D15*
X446654Y363500D02*
D03*
X453346D02*
D03*
X381407Y305500D02*
D03*
X388100D02*
D03*
Y297500D02*
D03*
X381407D02*
D03*
X397407Y283500D02*
D03*
X404100D02*
D03*
X417793D02*
D03*
X411100D02*
D03*
D23*
X300000Y185500D02*
X505500D01*
Y439500D01*
X300000D02*
X505500D01*
X300000Y185500D02*
Y439500D01*
D39*
X421535Y347173D02*
D03*
Y349142D02*
D03*
Y351110D02*
D03*
Y353079D02*
D03*
Y355047D02*
D03*
Y357016D02*
D03*
Y358984D02*
D03*
Y360953D02*
D03*
Y362921D02*
D03*
Y364890D02*
D03*
Y366858D02*
D03*
Y368827D02*
D03*
X388465D02*
D03*
Y366858D02*
D03*
Y364890D02*
D03*
Y362921D02*
D03*
Y360953D02*
D03*
Y358984D02*
D03*
Y357016D02*
D03*
Y355047D02*
D03*
Y353079D02*
D03*
Y351110D02*
D03*
Y349142D02*
D03*
Y347173D02*
D03*
D40*
X415827Y374535D02*
D03*
X413858D02*
D03*
X411890D02*
D03*
X409921D02*
D03*
X407953D02*
D03*
X405984D02*
D03*
X404016D02*
D03*
X402047D02*
D03*
X400079D02*
D03*
X398110D02*
D03*
X396142D02*
D03*
X394173D02*
D03*
Y341465D02*
D03*
X396142D02*
D03*
X398110D02*
D03*
X400079D02*
D03*
X402047D02*
D03*
X404016D02*
D03*
X405984D02*
D03*
X407953D02*
D03*
X409921D02*
D03*
X411890D02*
D03*
X413858D02*
D03*
X415827D02*
D03*
M02*
