G04 Layer_Color=65535*
%FSLAX25Y25*%
%MOIN*%
G70*
G01*
G75*
%ADD16C,0.01000*%
%ADD17C,0.02000*%
%ADD21C,0.00800*%
%ADD23C,0.00500*%
%ADD34C,0.01408*%
%ADD35C,0.00984*%
%ADD36C,0.02362*%
%ADD37C,0.00394*%
%ADD38C,0.00787*%
G36*
X436932Y283506D02*
X437045D01*
Y283393D01*
X437157D01*
Y283506D01*
X437270D01*
Y283393D01*
X437383D01*
Y283506D01*
X437495D01*
Y283393D01*
X437608D01*
Y283506D01*
X437721D01*
Y283393D01*
X437833D01*
Y283281D01*
X438397D01*
Y283168D01*
X438509D01*
Y283055D01*
X438622D01*
Y283168D01*
X438735D01*
Y283055D01*
X438847D01*
Y282943D01*
X438960D01*
Y282830D01*
X439298D01*
Y282717D01*
X439410D01*
Y282605D01*
X439523D01*
Y282492D01*
X439636D01*
Y282605D01*
X439748D01*
Y282492D01*
X439861D01*
Y282380D01*
X439974D01*
Y282267D01*
X440086D01*
Y282154D01*
X440199D01*
Y282042D01*
X440312D01*
Y281929D01*
X440650D01*
Y281816D01*
X440537D01*
Y281704D01*
X440762D01*
Y281591D01*
Y281478D01*
X440875D01*
Y281366D01*
X440988D01*
Y281253D01*
X441100D01*
Y281140D01*
X441213D01*
Y281028D01*
X441326D01*
Y280915D01*
Y280802D01*
Y280690D01*
X441438D01*
Y280577D01*
X441551D01*
Y280464D01*
X441664D01*
Y280352D01*
Y280239D01*
Y280127D01*
X441776D01*
Y280014D01*
Y279901D01*
Y279788D01*
X441889D01*
Y279676D01*
X442002D01*
Y279563D01*
X442114D01*
Y279450D01*
Y279338D01*
Y279225D01*
X442227D01*
Y279113D01*
X442114D01*
Y279000D01*
X442227D01*
Y278887D01*
X442114D01*
Y278775D01*
X442227D01*
Y278662D01*
X442340D01*
Y278549D01*
X442227D01*
Y278437D01*
X442114D01*
Y278324D01*
X442227D01*
Y278211D01*
Y278099D01*
Y277986D01*
X442114D01*
Y277873D01*
X442227D01*
Y277761D01*
X442340D01*
Y277648D01*
X442227D01*
Y277535D01*
X442114D01*
Y277423D01*
X442227D01*
Y277310D01*
Y277197D01*
Y277085D01*
X442114D01*
Y276972D01*
X442227D01*
Y276859D01*
X442340D01*
Y276747D01*
X442227D01*
Y276634D01*
Y276521D01*
Y276409D01*
X442114D01*
Y276296D01*
Y276184D01*
Y276071D01*
X442227D01*
Y275958D01*
X442114D01*
Y275846D01*
X442002D01*
Y275733D01*
X441889D01*
Y275620D01*
X442002D01*
Y275508D01*
X441889D01*
Y275395D01*
X442002D01*
Y275282D01*
X441664D01*
Y275170D01*
X441776D01*
Y275057D01*
X441664D01*
Y274944D01*
Y274832D01*
Y274719D01*
X441551D01*
Y274606D01*
X441438D01*
Y274494D01*
X441551D01*
Y274381D01*
X441213D01*
Y274268D01*
X441326D01*
Y274156D01*
X441213D01*
Y274043D01*
X441100D01*
Y273931D01*
X440988D01*
Y273818D01*
X440875D01*
Y273705D01*
X440762D01*
Y273592D01*
Y273480D01*
Y273367D01*
X440650D01*
Y273255D01*
X440537D01*
Y273142D01*
X440424D01*
Y273029D01*
X440086D01*
Y272917D01*
X439974D01*
Y272804D01*
X439861D01*
Y272691D01*
X439748D01*
Y272579D01*
X439410D01*
Y272466D01*
X439523D01*
Y272353D01*
X439185D01*
Y272241D01*
X439073D01*
Y272128D01*
X438735D01*
Y272015D01*
X438622D01*
Y272128D01*
X438509D01*
Y272015D01*
X438622D01*
Y271903D01*
X438509D01*
Y272015D01*
X438397D01*
Y271903D01*
X438284D01*
Y271790D01*
X438171D01*
Y271903D01*
X437833D01*
Y271790D01*
X437946D01*
Y271677D01*
X437833D01*
Y271790D01*
X437721D01*
Y271677D01*
X437608D01*
Y271565D01*
X437721D01*
Y271452D01*
X437608D01*
Y271339D01*
Y271227D01*
Y271114D01*
X437495D01*
Y271002D01*
X437383D01*
Y270889D01*
X437495D01*
Y270776D01*
X437157D01*
Y270663D01*
X437270D01*
Y270551D01*
X436932D01*
Y270438D01*
X437045D01*
Y270326D01*
X436932D01*
Y270438D01*
X436820D01*
Y270326D01*
X436707D01*
Y270213D01*
X436594D01*
Y270100D01*
X436482D01*
Y270213D01*
X436369D01*
Y270326D01*
X436256D01*
Y270213D01*
X436369D01*
Y270100D01*
X436256D01*
Y270213D01*
X436144D01*
Y270100D01*
X436031D01*
Y270213D01*
X435918D01*
Y270326D01*
X435806D01*
Y270213D01*
X435918D01*
Y270100D01*
X435806D01*
Y269988D01*
X435693D01*
Y269875D01*
X435580D01*
Y269762D01*
X435693D01*
Y269650D01*
X435580D01*
Y269537D01*
X435693D01*
Y269424D01*
X435580D01*
Y269312D01*
X435693D01*
Y269199D01*
X435580D01*
Y269086D01*
X435693D01*
Y268974D01*
X435806D01*
Y268861D01*
X435693D01*
Y268748D01*
X435806D01*
Y268636D01*
X435918D01*
Y268523D01*
X436031D01*
Y268410D01*
X436144D01*
Y268298D01*
X436031D01*
Y268185D01*
X436369D01*
Y268073D01*
X436256D01*
Y267960D01*
X436594D01*
Y267847D01*
X436482D01*
Y267735D01*
X436820D01*
Y267622D01*
X436707D01*
Y267509D01*
X437045D01*
Y267396D01*
X436932D01*
Y267284D01*
X437270D01*
Y267171D01*
X437157D01*
Y267059D01*
X437495D01*
Y266946D01*
X437383D01*
Y266833D01*
X437495D01*
Y266721D01*
X437608D01*
Y266608D01*
Y266495D01*
Y266383D01*
X437721D01*
Y266270D01*
X437608D01*
Y266157D01*
X437721D01*
Y266045D01*
Y265932D01*
Y265819D01*
X437608D01*
Y265707D01*
X437721D01*
Y265594D01*
Y265481D01*
Y265369D01*
X437608D01*
Y265256D01*
X437721D01*
Y265143D01*
Y265031D01*
Y264918D01*
X437608D01*
Y264806D01*
Y264693D01*
X437383D01*
Y264580D01*
X437495D01*
Y264468D01*
X437157D01*
Y264355D01*
X437270D01*
Y264242D01*
X436932D01*
Y264130D01*
X437045D01*
Y264017D01*
X436932D01*
Y264130D01*
X436820D01*
Y264017D01*
X436707D01*
Y263904D01*
X436594D01*
Y263792D01*
X436482D01*
Y263904D01*
X436369D01*
Y264017D01*
X436256D01*
Y263904D01*
X436369D01*
Y263792D01*
X436031D01*
Y263679D01*
X435918D01*
Y263792D01*
X435806D01*
Y263679D01*
Y263566D01*
Y263454D01*
X435693D01*
Y263341D01*
X435580D01*
Y263228D01*
X435693D01*
Y263116D01*
X435580D01*
Y263003D01*
X435693D01*
Y262890D01*
X435580D01*
Y262778D01*
X435806D01*
Y262665D01*
Y262552D01*
X435918D01*
Y262440D01*
Y262327D01*
Y262214D01*
X436031D01*
Y262102D01*
X436144D01*
Y261989D01*
X436256D01*
Y261877D01*
X436369D01*
Y261764D01*
X436482D01*
Y261651D01*
X436594D01*
Y261539D01*
X436707D01*
Y261426D01*
X436820D01*
Y261313D01*
X436932D01*
Y261201D01*
X437045D01*
Y261088D01*
X437157D01*
Y260975D01*
X437270D01*
Y260863D01*
X437383D01*
Y260750D01*
X437721D01*
Y260637D01*
X437833D01*
Y260525D01*
X437946D01*
Y260412D01*
X438059D01*
Y260299D01*
X438171D01*
Y260187D01*
X438284D01*
Y260074D01*
X438397D01*
Y259961D01*
X438509D01*
Y259849D01*
Y259736D01*
Y259623D01*
X438622D01*
Y259511D01*
X438509D01*
Y259398D01*
X438847D01*
Y259285D01*
X438735D01*
Y259173D01*
X438847D01*
Y259060D01*
X438735D01*
Y258947D01*
X438847D01*
Y258835D01*
X438735D01*
Y258722D01*
X438847D01*
Y258610D01*
X438735D01*
Y258497D01*
X438847D01*
Y258384D01*
X438735D01*
Y258272D01*
X438622D01*
Y258159D01*
X438509D01*
Y258046D01*
X438622D01*
Y257934D01*
X438509D01*
Y257821D01*
X438397D01*
Y257708D01*
X438284D01*
Y257596D01*
X438397D01*
Y257483D01*
X438284D01*
Y257370D01*
X438171D01*
Y257258D01*
X438059D01*
Y257145D01*
X438171D01*
Y257032D01*
X437833D01*
Y256920D01*
X437946D01*
Y256807D01*
X437608D01*
Y256694D01*
X437721D01*
Y256582D01*
X437608D01*
Y256469D01*
X437495D01*
Y256356D01*
X437383D01*
Y256244D01*
X437270D01*
Y256131D01*
X437157D01*
Y256018D01*
X437045D01*
Y255906D01*
X436932D01*
Y255793D01*
X436820D01*
Y255680D01*
X436707D01*
Y255568D01*
X436594D01*
Y255455D01*
X436482D01*
Y255343D01*
X436369D01*
Y255455D01*
X436256D01*
Y255343D01*
X436369D01*
Y255230D01*
X436031D01*
Y255117D01*
X436144D01*
Y255005D01*
X435806D01*
Y254892D01*
X435918D01*
Y254779D01*
X435580D01*
Y254667D01*
X435693D01*
Y254554D01*
X435580D01*
Y254441D01*
X435468D01*
Y254329D01*
Y254216D01*
Y254103D01*
X435355D01*
Y253991D01*
X435468D01*
Y253878D01*
X435580D01*
Y253765D01*
X435693D01*
Y253653D01*
X435580D01*
Y253540D01*
X435693D01*
Y253427D01*
X435806D01*
Y253315D01*
X435918D01*
Y253202D01*
X435806D01*
Y253089D01*
X436144D01*
Y252977D01*
X436031D01*
Y252864D01*
X436369D01*
Y252751D01*
X436256D01*
Y252639D01*
X436594D01*
Y252526D01*
X436482D01*
Y252414D01*
X436820D01*
Y252301D01*
X436707D01*
Y252188D01*
X437045D01*
Y252076D01*
X436932D01*
Y251963D01*
X437270D01*
Y251850D01*
X437157D01*
Y251738D01*
X437495D01*
Y251625D01*
X437383D01*
Y251512D01*
X437721D01*
Y251400D01*
X437608D01*
Y251287D01*
X437721D01*
Y251174D01*
X437833D01*
Y251062D01*
X437946D01*
Y250949D01*
X438059D01*
Y250836D01*
X438171D01*
Y250724D01*
Y250611D01*
Y250499D01*
X438284D01*
Y250386D01*
X438397D01*
Y250273D01*
X438509D01*
Y250161D01*
X438622D01*
Y250048D01*
X438509D01*
Y249935D01*
X438622D01*
Y249822D01*
X438735D01*
Y249710D01*
X438847D01*
Y249597D01*
X438735D01*
Y249485D01*
X438847D01*
Y249372D01*
X438960D01*
Y249259D01*
X439073D01*
Y249147D01*
X438960D01*
Y249034D01*
X439298D01*
Y248921D01*
X439185D01*
Y248809D01*
X439523D01*
Y248696D01*
X439410D01*
Y248583D01*
X439748D01*
Y248471D01*
X439636D01*
Y248358D01*
X439974D01*
Y248245D01*
X439861D01*
Y248133D01*
X440199D01*
Y248020D01*
X440086D01*
Y247907D01*
X440424D01*
Y247795D01*
X440537D01*
Y247682D01*
X440650D01*
Y247569D01*
X440762D01*
Y247457D01*
X440875D01*
Y247569D01*
X440988D01*
Y247457D01*
X441100D01*
Y247344D01*
X441213D01*
Y247232D01*
X441551D01*
Y247119D01*
X441664D01*
Y247006D01*
X441776D01*
Y247119D01*
X441889D01*
Y247006D01*
X442227D01*
Y246894D01*
X442340D01*
Y247006D01*
X442452D01*
Y246894D01*
X442565D01*
Y246781D01*
X442903D01*
Y246668D01*
X443015D01*
Y246555D01*
X443128D01*
Y246668D01*
X443241D01*
Y246555D01*
X443579D01*
Y246443D01*
X443691D01*
Y246555D01*
X443804D01*
Y246443D01*
X443917D01*
Y246330D01*
X444255D01*
Y246218D01*
X444367D01*
Y246105D01*
X444480D01*
Y246218D01*
X444593D01*
Y246105D01*
X444705D01*
Y245992D01*
X444818D01*
Y245880D01*
X444931D01*
Y245992D01*
X444818D01*
Y246105D01*
X444931D01*
Y245992D01*
X445043D01*
Y245880D01*
X445381D01*
Y245767D01*
X445494D01*
Y245654D01*
X445607D01*
Y245767D01*
X445719D01*
Y245654D01*
X445832D01*
Y245542D01*
X445944D01*
Y245429D01*
X446282D01*
Y245316D01*
X446395D01*
Y245204D01*
X446733D01*
Y245091D01*
X446846D01*
Y244978D01*
X446958D01*
Y244866D01*
X447071D01*
Y244753D01*
X447184D01*
Y244866D01*
X447071D01*
Y244978D01*
X447184D01*
Y244866D01*
X447296D01*
Y244753D01*
X447409D01*
Y244640D01*
X447522D01*
Y244528D01*
X447860D01*
Y244415D01*
X447972D01*
Y244303D01*
X448085D01*
Y244190D01*
X448198D01*
Y244077D01*
X448310D01*
Y243965D01*
X448423D01*
Y243852D01*
X448535D01*
Y243965D01*
X448423D01*
Y244077D01*
X448535D01*
Y243965D01*
X448648D01*
Y243852D01*
X448761D01*
Y243739D01*
X448874D01*
Y243626D01*
X448986D01*
Y243514D01*
X449099D01*
Y243401D01*
X449211D01*
Y243514D01*
X449324D01*
Y243401D01*
X449437D01*
Y243289D01*
Y243176D01*
X449662D01*
Y243063D01*
X449775D01*
Y242951D01*
X449887D01*
Y242838D01*
X449775D01*
Y242725D01*
X450113D01*
Y242613D01*
X450225D01*
Y242500D01*
X450338D01*
Y242387D01*
X450451D01*
Y242275D01*
X450563D01*
Y242162D01*
X450676D01*
Y242049D01*
X450789D01*
Y241937D01*
X450901D01*
Y241824D01*
X451239D01*
Y241711D01*
X451126D01*
Y241599D01*
X451239D01*
Y241486D01*
X451352D01*
Y241373D01*
X451690D01*
Y241261D01*
X451577D01*
Y241148D01*
X451690D01*
Y241036D01*
X451802D01*
Y240923D01*
X451915D01*
Y240810D01*
X452028D01*
Y240698D01*
X452140D01*
Y240585D01*
X452253D01*
Y240472D01*
X452366D01*
Y240360D01*
X452478D01*
Y240247D01*
X452591D01*
Y240134D01*
X452478D01*
Y240022D01*
X452591D01*
Y239909D01*
X452704D01*
Y239796D01*
X452816D01*
Y239684D01*
X452929D01*
Y239571D01*
X453042D01*
Y239458D01*
X453154D01*
Y239346D01*
X453267D01*
Y239233D01*
X453154D01*
Y239346D01*
X453042D01*
Y239233D01*
X453154D01*
Y239120D01*
X453492D01*
Y239008D01*
X453380D01*
Y238895D01*
X453492D01*
Y238782D01*
X453605D01*
Y238670D01*
X453718D01*
Y238557D01*
X453830D01*
Y238444D01*
X453943D01*
Y238332D01*
X453830D01*
Y238219D01*
X453943D01*
Y238106D01*
X454056D01*
Y237994D01*
X454168D01*
Y237881D01*
X454056D01*
Y237994D01*
X453943D01*
Y237881D01*
X454056D01*
Y237769D01*
X454393D01*
Y237656D01*
X454281D01*
Y237543D01*
X454393D01*
Y237431D01*
X454506D01*
Y237318D01*
Y237205D01*
Y237093D01*
X454619D01*
Y236980D01*
X454506D01*
Y236867D01*
X454844D01*
Y236755D01*
X454732D01*
Y236642D01*
X454844D01*
Y236529D01*
X454732D01*
Y236417D01*
X454957D01*
Y236304D01*
Y236191D01*
X455069D01*
Y236079D01*
X454957D01*
Y235966D01*
X455295D01*
Y235853D01*
X455182D01*
Y235741D01*
X455295D01*
Y235628D01*
X455407D01*
Y235515D01*
Y235403D01*
Y235290D01*
X455520D01*
Y235177D01*
X455407D01*
Y235065D01*
X455520D01*
Y234952D01*
X455633D01*
Y234840D01*
X455745D01*
Y234727D01*
X455633D01*
Y234614D01*
X455745D01*
Y234502D01*
X455858D01*
Y234389D01*
X455745D01*
Y234276D01*
X455858D01*
Y234164D01*
X455971D01*
Y234051D01*
X455858D01*
Y233938D01*
X455971D01*
Y233826D01*
X455858D01*
Y233713D01*
X456196D01*
Y233600D01*
X456083D01*
Y233488D01*
X456196D01*
Y233375D01*
X456083D01*
Y233262D01*
X456196D01*
Y233150D01*
X456309D01*
Y233037D01*
X456196D01*
Y232924D01*
X456309D01*
Y232812D01*
Y232699D01*
Y232587D01*
X456421D01*
Y232474D01*
X456309D01*
Y232361D01*
X456421D01*
Y232248D01*
X456309D01*
Y232136D01*
X456421D01*
Y232023D01*
X456534D01*
Y231910D01*
X456647D01*
Y231798D01*
X456534D01*
Y231685D01*
X456647D01*
Y231573D01*
X456534D01*
Y231460D01*
X456647D01*
Y231347D01*
X456534D01*
Y231235D01*
X456647D01*
Y231122D01*
X456759D01*
Y231009D01*
Y230897D01*
Y230784D01*
X456647D01*
Y230671D01*
X456759D01*
Y230559D01*
Y230446D01*
Y230333D01*
X456872D01*
Y230221D01*
X456759D01*
Y230108D01*
X456872D01*
Y229995D01*
X456759D01*
Y229883D01*
X456872D01*
Y229770D01*
X456759D01*
Y229658D01*
X456872D01*
Y229545D01*
X456759D01*
Y229432D01*
X456872D01*
Y229320D01*
X456759D01*
Y229207D01*
X457097D01*
Y229094D01*
X456985D01*
Y228981D01*
X457097D01*
Y228869D01*
X456985D01*
Y228756D01*
X457097D01*
Y228644D01*
X456985D01*
Y228531D01*
X457097D01*
Y228418D01*
X456985D01*
Y228306D01*
X457097D01*
Y228193D01*
X456985D01*
Y228080D01*
X457097D01*
Y227968D01*
X456985D01*
Y227855D01*
X457097D01*
Y227742D01*
X456985D01*
Y227630D01*
X457097D01*
Y227517D01*
X456985D01*
Y227404D01*
X457097D01*
Y227292D01*
X456985D01*
Y227179D01*
X457097D01*
Y227066D01*
X456985D01*
Y226954D01*
X457097D01*
Y226841D01*
X457210D01*
Y226728D01*
X457323D01*
Y226616D01*
X457435D01*
Y226503D01*
X457548D01*
Y226391D01*
X457660D01*
Y226278D01*
X457773D01*
Y226165D01*
X457660D01*
Y226052D01*
X457998D01*
Y225940D01*
X457886D01*
Y225827D01*
X458224D01*
Y225715D01*
X458111D01*
Y225602D01*
X458224D01*
Y225489D01*
X458336D01*
Y225377D01*
X458449D01*
Y225264D01*
X458562D01*
Y225151D01*
X458674D01*
Y225039D01*
X458562D01*
Y224926D01*
X458674D01*
Y224813D01*
X458787D01*
Y224701D01*
X458900D01*
Y224588D01*
X459012D01*
Y224475D01*
X459125D01*
Y224363D01*
X459012D01*
Y224475D01*
X458900D01*
Y224363D01*
X459012D01*
Y224250D01*
X459350D01*
Y224137D01*
X459238D01*
Y224025D01*
X459350D01*
Y223912D01*
X459463D01*
Y223799D01*
X459576D01*
Y223687D01*
Y223574D01*
Y223462D01*
X459688D01*
Y223349D01*
X459801D01*
Y223236D01*
X459914D01*
Y223124D01*
X460026D01*
Y223011D01*
X459914D01*
Y222898D01*
X460252D01*
Y222786D01*
X460139D01*
Y222673D01*
X460252D01*
Y222560D01*
X460364D01*
Y222448D01*
Y222335D01*
Y222222D01*
X460477D01*
Y222110D01*
Y221997D01*
X460702D01*
Y221884D01*
X460590D01*
Y221772D01*
X460702D01*
Y221659D01*
X460815D01*
Y221546D01*
Y221434D01*
Y221321D01*
X460927D01*
Y221208D01*
X461040D01*
Y221096D01*
X461153D01*
Y220983D01*
X461040D01*
Y220870D01*
X461153D01*
Y220758D01*
X461265D01*
Y220645D01*
Y220532D01*
Y220420D01*
X461378D01*
Y220307D01*
Y220195D01*
X461603D01*
Y220082D01*
X461491D01*
Y219969D01*
X461603D01*
Y219857D01*
X461716D01*
Y219744D01*
Y219631D01*
Y219519D01*
X461829D01*
Y219406D01*
X461716D01*
Y219293D01*
X461829D01*
Y219181D01*
X461941D01*
Y219068D01*
X462054D01*
Y218955D01*
X461941D01*
Y218843D01*
X462054D01*
Y218730D01*
X462167D01*
Y218617D01*
X462054D01*
Y218730D01*
X461941D01*
Y218617D01*
X462054D01*
Y218505D01*
X462167D01*
Y218392D01*
X462279D01*
Y218279D01*
Y218167D01*
Y218054D01*
Y217941D01*
X462505D01*
Y217829D01*
X462392D01*
Y217716D01*
X462505D01*
Y217603D01*
X462392D01*
Y217491D01*
X462505D01*
Y217378D01*
X462617D01*
Y217266D01*
X462505D01*
Y217153D01*
X462617D01*
Y217040D01*
Y216928D01*
Y216815D01*
X462730D01*
Y216702D01*
Y216590D01*
Y216477D01*
X462843D01*
Y216364D01*
X462955D01*
Y216252D01*
X462843D01*
Y216139D01*
X462955D01*
Y216026D01*
X462843D01*
Y215914D01*
X462955D01*
Y215801D01*
X463068D01*
Y215688D01*
Y215576D01*
Y215463D01*
Y215350D01*
Y215238D01*
Y215125D01*
Y215012D01*
X463180D01*
Y214900D01*
Y214787D01*
Y214674D01*
Y214562D01*
Y214449D01*
Y214336D01*
X463406D01*
Y214224D01*
X463293D01*
Y214111D01*
X463406D01*
Y213999D01*
X463293D01*
Y213886D01*
X463406D01*
Y213773D01*
X463293D01*
Y213661D01*
X463406D01*
Y213548D01*
X463293D01*
Y213435D01*
X463406D01*
Y213323D01*
X463518D01*
Y213210D01*
Y213097D01*
Y212985D01*
Y212872D01*
Y212759D01*
Y212647D01*
Y212534D01*
Y212421D01*
Y212309D01*
Y212196D01*
Y212083D01*
X463631D01*
Y211971D01*
Y211858D01*
Y211746D01*
Y211633D01*
Y211520D01*
Y211407D01*
Y211295D01*
Y211182D01*
Y211069D01*
Y210957D01*
Y210844D01*
Y210732D01*
Y210619D01*
Y210506D01*
Y210394D01*
Y210281D01*
Y210168D01*
Y210056D01*
Y209943D01*
Y209830D01*
Y209718D01*
Y209605D01*
Y209492D01*
Y209380D01*
Y209267D01*
X463518D01*
Y209154D01*
X463406D01*
Y209042D01*
X463518D01*
Y208929D01*
Y208817D01*
Y208704D01*
X463631D01*
Y208591D01*
X463744D01*
Y208478D01*
X463856D01*
Y208366D01*
X463744D01*
Y208253D01*
X463856D01*
Y208140D01*
X463969D01*
Y208028D01*
Y207915D01*
Y207803D01*
X463856D01*
Y207690D01*
X463969D01*
Y207577D01*
Y207465D01*
Y207352D01*
X463856D01*
Y207239D01*
X463744D01*
Y207127D01*
X463856D01*
Y207014D01*
X463744D01*
Y207127D01*
X463631D01*
Y207014D01*
X463518D01*
Y206901D01*
X463406D01*
Y206789D01*
X463180D01*
Y206676D01*
Y206563D01*
X463068D01*
Y206676D01*
X462955D01*
Y206789D01*
X462843D01*
Y206676D01*
X462955D01*
Y206563D01*
X462843D01*
Y206676D01*
X462730D01*
Y206563D01*
X462617D01*
Y206676D01*
X462505D01*
Y206563D01*
X462392D01*
Y206676D01*
X462279D01*
Y206789D01*
X462167D01*
Y206676D01*
Y206563D01*
Y206451D01*
X462279D01*
Y206338D01*
X462167D01*
Y206225D01*
X462279D01*
Y206113D01*
X462167D01*
Y206000D01*
X462279D01*
Y205888D01*
Y205775D01*
Y205662D01*
X462167D01*
Y205550D01*
Y205437D01*
Y205324D01*
X462054D01*
Y205211D01*
X461941D01*
Y205099D01*
X461829D01*
Y204986D01*
X461491D01*
Y204874D01*
X461603D01*
Y204761D01*
X461491D01*
Y204874D01*
X461378D01*
Y204761D01*
X461265D01*
Y204874D01*
X461153D01*
Y204986D01*
X461040D01*
Y204874D01*
X461153D01*
Y204761D01*
X461040D01*
Y204874D01*
X460927D01*
Y204761D01*
X460815D01*
Y204874D01*
X460702D01*
Y204761D01*
X460590D01*
Y204874D01*
X460477D01*
Y204986D01*
X460364D01*
Y205099D01*
X460252D01*
Y205211D01*
X460139D01*
Y205324D01*
X460026D01*
Y205211D01*
X459914D01*
Y205099D01*
X460026D01*
Y204986D01*
X459914D01*
Y204874D01*
Y204761D01*
Y204648D01*
X459801D01*
Y204536D01*
X459576D01*
Y204423D01*
Y204310D01*
X459463D01*
Y204423D01*
X459350D01*
Y204310D01*
X459238D01*
Y204198D01*
X459125D01*
Y204310D01*
X459012D01*
Y204198D01*
X458900D01*
Y204310D01*
X458787D01*
Y204198D01*
X458674D01*
Y204310D01*
X458336D01*
Y204423D01*
X458224D01*
Y204536D01*
X458111D01*
Y204648D01*
X457998D01*
Y204761D01*
X457886D01*
Y204874D01*
X457773D01*
Y204986D01*
X457660D01*
Y205099D01*
X457773D01*
Y205211D01*
Y205324D01*
Y205437D01*
X457660D01*
Y205324D01*
X457548D01*
Y205211D01*
X457435D01*
Y205099D01*
X457323D01*
Y204986D01*
X456985D01*
Y204874D01*
X457097D01*
Y204761D01*
X456985D01*
Y204874D01*
X456872D01*
Y204761D01*
X456759D01*
Y204874D01*
X456647D01*
Y204986D01*
X456534D01*
Y204874D01*
X456647D01*
Y204761D01*
X456534D01*
Y204874D01*
X456421D01*
Y204761D01*
X456309D01*
Y204874D01*
X456196D01*
Y204986D01*
X455858D01*
Y205099D01*
X455745D01*
Y205211D01*
X455633D01*
Y205324D01*
X455520D01*
Y205437D01*
X455407D01*
Y205550D01*
X455520D01*
Y205662D01*
X455407D01*
Y205775D01*
Y205888D01*
Y206000D01*
X455295D01*
Y206113D01*
X455407D01*
Y206225D01*
Y206338D01*
Y206451D01*
X455295D01*
Y206563D01*
X455182D01*
Y206451D01*
X455069D01*
Y206563D01*
X454957D01*
Y206451D01*
X454844D01*
Y206563D01*
X454732D01*
Y206451D01*
X454619D01*
Y206563D01*
X454281D01*
Y206676D01*
X454168D01*
Y206789D01*
X454056D01*
Y206901D01*
X453943D01*
Y207014D01*
X453830D01*
Y207127D01*
X453943D01*
Y207239D01*
X453605D01*
Y207352D01*
X453718D01*
Y207465D01*
X453605D01*
Y207577D01*
X453718D01*
Y207690D01*
X453605D01*
Y207803D01*
X453718D01*
Y207915D01*
X453605D01*
Y208028D01*
X453718D01*
Y208140D01*
X453605D01*
Y208253D01*
X453830D01*
Y208366D01*
Y208478D01*
X454056D01*
Y208591D01*
Y208704D01*
X454281D01*
Y208817D01*
Y208929D01*
X454393D01*
Y209042D01*
X454281D01*
Y209154D01*
X454168D01*
Y209267D01*
X454056D01*
Y209380D01*
X454168D01*
Y209492D01*
X454056D01*
Y209605D01*
X454168D01*
Y209718D01*
X454056D01*
Y209830D01*
X454168D01*
Y209943D01*
X454056D01*
Y210056D01*
X454168D01*
Y210168D01*
X454056D01*
Y210281D01*
X454168D01*
Y210394D01*
X454056D01*
Y210506D01*
X454168D01*
Y210619D01*
X454056D01*
Y210732D01*
X454168D01*
Y210844D01*
X454056D01*
Y210957D01*
X453943D01*
Y211069D01*
X454056D01*
Y210957D01*
X454168D01*
Y211069D01*
X454056D01*
Y211182D01*
Y211295D01*
Y211407D01*
X453943D01*
Y211520D01*
X454056D01*
Y211633D01*
X453943D01*
Y211746D01*
X454056D01*
Y211858D01*
X453943D01*
Y211971D01*
X454056D01*
Y212083D01*
Y212196D01*
Y212309D01*
X453943D01*
Y212421D01*
X454056D01*
Y212534D01*
X453943D01*
Y212647D01*
X454056D01*
Y212759D01*
X453943D01*
Y212872D01*
X454056D01*
Y212985D01*
X453943D01*
Y213097D01*
X453830D01*
Y213210D01*
X453943D01*
Y213323D01*
X453830D01*
Y213435D01*
X453943D01*
Y213548D01*
X453830D01*
Y213661D01*
X453943D01*
Y213773D01*
X453830D01*
Y213886D01*
X453943D01*
Y213999D01*
X453830D01*
Y214111D01*
X453718D01*
Y214224D01*
X453605D01*
Y214336D01*
X453718D01*
Y214449D01*
X453605D01*
Y214562D01*
X453718D01*
Y214674D01*
X453605D01*
Y214787D01*
X453718D01*
Y214900D01*
X453605D01*
Y215012D01*
X453492D01*
Y215125D01*
X453605D01*
Y215238D01*
X453492D01*
Y215350D01*
X453605D01*
Y215463D01*
X453492D01*
Y215576D01*
X453380D01*
Y215688D01*
X453492D01*
Y215801D01*
X453154D01*
Y215688D01*
X453267D01*
Y215576D01*
X453154D01*
Y215463D01*
X453042D01*
Y215350D01*
X452929D01*
Y215238D01*
X452816D01*
Y215125D01*
X452704D01*
Y215012D01*
X452816D01*
Y214900D01*
X452704D01*
Y214787D01*
X452591D01*
Y214674D01*
X452478D01*
Y214562D01*
X452366D01*
Y214449D01*
X452253D01*
Y214336D01*
X452140D01*
Y214224D01*
X452028D01*
Y214111D01*
Y213999D01*
X451802D01*
Y213886D01*
X451915D01*
Y213773D01*
X451802D01*
Y213661D01*
X451690D01*
Y213548D01*
X451802D01*
Y213435D01*
X451690D01*
Y213323D01*
X451577D01*
Y213210D01*
X451690D01*
Y213097D01*
X451577D01*
Y212985D01*
X451690D01*
Y212872D01*
X451577D01*
Y212759D01*
Y212647D01*
X451352D01*
Y212534D01*
X451465D01*
Y212421D01*
X451352D01*
Y212309D01*
X451465D01*
Y212196D01*
X451352D01*
Y212083D01*
X451465D01*
Y211971D01*
X451352D01*
Y211858D01*
X451239D01*
Y211746D01*
X451352D01*
Y211633D01*
X451239D01*
Y211520D01*
X451126D01*
Y211407D01*
Y211295D01*
Y211182D01*
X451239D01*
Y211069D01*
X451126D01*
Y210957D01*
Y210844D01*
X450901D01*
Y210732D01*
X451014D01*
Y210619D01*
X450901D01*
Y210506D01*
X451014D01*
Y210394D01*
X450901D01*
Y210281D01*
X451014D01*
Y210168D01*
X450901D01*
Y210056D01*
X450789D01*
Y209943D01*
Y209830D01*
Y209718D01*
X450901D01*
Y209605D01*
X450789D01*
Y209492D01*
Y209380D01*
Y209267D01*
X450676D01*
Y209154D01*
Y209042D01*
Y208929D01*
X450789D01*
Y208817D01*
X450676D01*
Y208704D01*
Y208591D01*
X450451D01*
Y208478D01*
X450563D01*
Y208366D01*
X450451D01*
Y208253D01*
X450563D01*
Y208140D01*
X450451D01*
Y208028D01*
X450563D01*
Y207915D01*
X450451D01*
Y207803D01*
X450563D01*
Y207690D01*
X450451D01*
Y207577D01*
X450563D01*
Y207465D01*
X450451D01*
Y207352D01*
X450338D01*
Y207239D01*
Y207127D01*
Y207014D01*
X450451D01*
Y206901D01*
X450338D01*
Y206789D01*
Y206676D01*
Y206563D01*
X450451D01*
Y206451D01*
X450338D01*
Y206338D01*
X450451D01*
Y206225D01*
X450338D01*
Y206113D01*
X450451D01*
Y206000D01*
X450338D01*
Y205888D01*
X450225D01*
Y205775D01*
X450338D01*
Y205662D01*
X450225D01*
Y205550D01*
X450338D01*
Y205437D01*
X450225D01*
Y205324D01*
X450338D01*
Y205211D01*
X450225D01*
Y205099D01*
Y204986D01*
Y204874D01*
X450338D01*
Y204761D01*
X450225D01*
Y204648D01*
X450338D01*
Y204536D01*
X450225D01*
Y204423D01*
X450338D01*
Y204310D01*
X450225D01*
Y204423D01*
X450113D01*
Y204310D01*
X450000D01*
Y204423D01*
X449887D01*
Y204310D01*
X449775D01*
Y204423D01*
X449662D01*
Y204310D01*
X449549D01*
Y204423D01*
X449437D01*
Y204310D01*
X449324D01*
Y204423D01*
X449211D01*
Y204310D01*
X449099D01*
Y204423D01*
X448986D01*
Y204310D01*
X448874D01*
Y204423D01*
X448761D01*
Y204310D01*
X448648D01*
Y204423D01*
X448535D01*
Y204310D01*
X448423D01*
Y204423D01*
X448310D01*
Y204310D01*
X448198D01*
Y204423D01*
X448085D01*
Y204310D01*
X447972D01*
Y204423D01*
X447860D01*
Y204310D01*
X447747D01*
Y204423D01*
X447634D01*
Y204310D01*
X447522D01*
Y204423D01*
X447409D01*
Y204310D01*
X447296D01*
Y204423D01*
X447184D01*
Y204310D01*
X447071D01*
Y204423D01*
X446958D01*
Y204310D01*
X446846D01*
Y204423D01*
X446733D01*
Y204310D01*
X446620D01*
Y204423D01*
X446508D01*
Y204310D01*
X446395D01*
Y204423D01*
X446282D01*
Y204310D01*
X446170D01*
Y204423D01*
X446057D01*
Y204310D01*
X445944D01*
Y204423D01*
X445832D01*
Y204310D01*
X445719D01*
Y204423D01*
X445607D01*
Y204310D01*
X445494D01*
Y204423D01*
X445381D01*
Y204310D01*
X445268D01*
Y204423D01*
X445156D01*
Y204310D01*
X445043D01*
Y204423D01*
X444931D01*
Y204310D01*
X444818D01*
Y204423D01*
X444705D01*
Y204310D01*
X444593D01*
Y204423D01*
X444480D01*
Y204310D01*
X444367D01*
Y204423D01*
X444255D01*
Y204310D01*
X444142D01*
Y204423D01*
X444029D01*
Y204310D01*
X443917D01*
Y204423D01*
X443804D01*
Y204310D01*
X443691D01*
Y204423D01*
X443579D01*
Y204310D01*
X443466D01*
Y204423D01*
X443353D01*
Y204310D01*
X443241D01*
Y204423D01*
X443128D01*
Y204310D01*
X443015D01*
Y204423D01*
X442903D01*
Y204310D01*
X442790D01*
Y204423D01*
X442677D01*
Y204310D01*
X442565D01*
Y204423D01*
X442452D01*
Y204310D01*
X442340D01*
Y204423D01*
X442227D01*
Y204310D01*
X442114D01*
Y204423D01*
X442002D01*
Y204310D01*
X441889D01*
Y204423D01*
X441776D01*
Y204310D01*
X441664D01*
Y204423D01*
X441551D01*
Y204310D01*
X441438D01*
Y204423D01*
X441326D01*
Y204310D01*
X441213D01*
Y204423D01*
X441100D01*
Y204310D01*
X440988D01*
Y204423D01*
X440875D01*
Y204310D01*
X440762D01*
Y204423D01*
X440650D01*
Y204310D01*
X440537D01*
Y204423D01*
X440424D01*
Y204310D01*
X440312D01*
Y204423D01*
X440199D01*
Y204310D01*
X440086D01*
Y204423D01*
X439974D01*
Y204310D01*
X439861D01*
Y204423D01*
X439748D01*
Y204310D01*
X439636D01*
Y204423D01*
X439523D01*
Y204310D01*
X439410D01*
Y204423D01*
X439298D01*
Y204310D01*
X439185D01*
Y204423D01*
X439073D01*
Y204310D01*
X438960D01*
Y204423D01*
X438847D01*
Y204310D01*
X438735D01*
Y204423D01*
X438622D01*
Y204310D01*
X438509D01*
Y204423D01*
X438397D01*
Y204310D01*
X438284D01*
Y204423D01*
X438171D01*
Y204310D01*
X438059D01*
Y204423D01*
X437946D01*
Y204310D01*
X437833D01*
Y204423D01*
X437721D01*
Y204310D01*
X437608D01*
Y204423D01*
X437495D01*
Y204310D01*
X437383D01*
Y204423D01*
X437270D01*
Y204310D01*
X437157D01*
Y204423D01*
X437045D01*
Y204536D01*
X436932D01*
Y204648D01*
X437045D01*
Y204761D01*
X436932D01*
Y204874D01*
X437045D01*
Y204986D01*
X436932D01*
Y205099D01*
X436820D01*
Y205211D01*
X436707D01*
Y205324D01*
X436820D01*
Y205437D01*
Y205550D01*
Y205662D01*
X436707D01*
Y205775D01*
X436820D01*
Y205888D01*
Y206000D01*
Y206113D01*
X436707D01*
Y206225D01*
X436820D01*
Y206338D01*
Y206451D01*
Y206563D01*
X436707D01*
Y206676D01*
X436820D01*
Y206789D01*
X436707D01*
Y206901D01*
Y207014D01*
Y207127D01*
X436594D01*
Y207014D01*
X436482D01*
Y207127D01*
X436369D01*
Y207239D01*
X436256D01*
Y207127D01*
X436369D01*
Y207014D01*
X436256D01*
Y207127D01*
X436144D01*
Y207014D01*
X436031D01*
Y206901D01*
X436144D01*
Y206789D01*
X436031D01*
Y206676D01*
X436144D01*
Y206563D01*
X436031D01*
Y206676D01*
X435918D01*
Y206789D01*
X435806D01*
Y206676D01*
X435918D01*
Y206563D01*
Y206451D01*
Y206338D01*
X435806D01*
Y206225D01*
X435918D01*
Y206113D01*
Y206000D01*
Y205888D01*
X435806D01*
Y205775D01*
X435918D01*
Y205662D01*
Y205550D01*
Y205437D01*
X435806D01*
Y205324D01*
X435918D01*
Y205211D01*
X435806D01*
Y205099D01*
Y204986D01*
Y204874D01*
X435693D01*
Y204761D01*
X435580D01*
Y204648D01*
X435468D01*
Y204761D01*
X435355D01*
Y204648D01*
X435242D01*
Y204761D01*
X435130D01*
Y204648D01*
X435017D01*
Y204761D01*
X434904D01*
Y204648D01*
X434792D01*
Y204761D01*
X434679D01*
Y204648D01*
X434566D01*
Y204761D01*
X434454D01*
Y204648D01*
X434341D01*
Y204761D01*
X434228D01*
Y204648D01*
X434116D01*
Y204761D01*
X434003D01*
Y204648D01*
X433890D01*
Y204761D01*
X433778D01*
Y204648D01*
X433665D01*
Y204761D01*
X433553D01*
Y204648D01*
X433440D01*
Y204761D01*
X433327D01*
Y204648D01*
X433215D01*
Y204761D01*
X433102D01*
Y204648D01*
X432989D01*
Y204761D01*
X432877D01*
Y204648D01*
X432764D01*
Y204761D01*
X432651D01*
Y204648D01*
X432539D01*
Y204761D01*
X432426D01*
Y204648D01*
X432313D01*
Y204761D01*
X432201D01*
Y204648D01*
X432088D01*
Y204761D01*
X431975D01*
Y204648D01*
X431863D01*
Y204761D01*
X431750D01*
Y204648D01*
X431637D01*
Y204761D01*
X431525D01*
Y204648D01*
X431412D01*
Y204761D01*
X431299D01*
Y204648D01*
X431187D01*
Y204761D01*
X431074D01*
Y204648D01*
X430962D01*
Y204761D01*
X430849D01*
Y204648D01*
X430736D01*
Y204761D01*
X430623D01*
Y204648D01*
X430511D01*
Y204761D01*
X430398D01*
Y204648D01*
X430286D01*
Y204761D01*
X430173D01*
Y204648D01*
X430060D01*
Y204761D01*
X429948D01*
Y204648D01*
X429835D01*
Y204761D01*
X429722D01*
Y204648D01*
X429610D01*
Y204761D01*
X429497D01*
Y204648D01*
X429384D01*
Y204761D01*
X429272D01*
Y204648D01*
X429159D01*
Y204761D01*
X429046D01*
Y204648D01*
X428934D01*
Y204761D01*
X428821D01*
Y204648D01*
X428708D01*
Y204761D01*
X428596D01*
Y204648D01*
X428483D01*
Y204761D01*
X428370D01*
Y204648D01*
X428258D01*
Y204761D01*
X428145D01*
Y204648D01*
X428032D01*
Y204761D01*
X427920D01*
Y204648D01*
X427807D01*
Y204761D01*
X427695D01*
Y204648D01*
X427582D01*
Y204761D01*
X427469D01*
Y204648D01*
X427356D01*
Y204761D01*
X427244D01*
Y204648D01*
X427131D01*
Y204761D01*
X427019D01*
Y204648D01*
X426906D01*
Y204761D01*
X426793D01*
Y204648D01*
X426681D01*
Y204761D01*
X426568D01*
Y204648D01*
X426455D01*
Y204761D01*
X426343D01*
Y204648D01*
X426230D01*
Y204761D01*
X426117D01*
Y204648D01*
X426005D01*
Y204761D01*
X425892D01*
Y204648D01*
X425779D01*
Y204761D01*
X425667D01*
Y204648D01*
X425554D01*
Y204761D01*
X425441D01*
Y204648D01*
X425329D01*
Y204761D01*
X425216D01*
Y204648D01*
X425104D01*
Y204761D01*
X424991D01*
Y204648D01*
X424878D01*
Y204761D01*
X424765D01*
Y204648D01*
X424653D01*
Y204761D01*
X424540D01*
Y204648D01*
X424428D01*
Y204761D01*
X424315D01*
Y204648D01*
X424202D01*
Y204761D01*
X424090D01*
Y204648D01*
X423977D01*
Y204761D01*
X423864D01*
Y204648D01*
X423752D01*
Y204761D01*
X423639D01*
Y204648D01*
X423526D01*
Y204761D01*
X423414D01*
Y204648D01*
X423301D01*
Y204761D01*
X423188D01*
Y204648D01*
X423076D01*
Y204761D01*
X422963D01*
Y204648D01*
X422850D01*
Y204761D01*
X422738D01*
Y204648D01*
X422625D01*
Y204761D01*
X422512D01*
Y204874D01*
Y204986D01*
Y205099D01*
X422625D01*
Y205211D01*
X422512D01*
Y205324D01*
Y205437D01*
Y205550D01*
Y205662D01*
Y205775D01*
Y205888D01*
Y206000D01*
X422625D01*
Y206113D01*
X422512D01*
Y206225D01*
Y206338D01*
Y206451D01*
X422400D01*
Y206563D01*
X422287D01*
Y206676D01*
X422400D01*
Y206789D01*
X422287D01*
Y206901D01*
X422400D01*
Y207014D01*
X422287D01*
Y207127D01*
X422400D01*
Y207239D01*
X422287D01*
Y207352D01*
X422400D01*
Y207465D01*
X422287D01*
Y207577D01*
X422400D01*
Y207690D01*
X422287D01*
Y207803D01*
X422400D01*
Y207915D01*
X422287D01*
Y208028D01*
X422175D01*
Y208140D01*
Y208253D01*
Y208366D01*
Y208478D01*
Y208591D01*
Y208704D01*
Y208817D01*
X422062D01*
Y208929D01*
Y209042D01*
Y209154D01*
X422175D01*
Y209267D01*
X422062D01*
Y209380D01*
Y209492D01*
Y209605D01*
X422175D01*
Y209718D01*
X422062D01*
Y209830D01*
X421949D01*
Y209943D01*
X421837D01*
Y210056D01*
X421949D01*
Y210168D01*
X421837D01*
Y210281D01*
X421949D01*
Y210394D01*
X421837D01*
Y210506D01*
X421724D01*
Y210619D01*
Y210732D01*
Y210844D01*
Y210957D01*
Y211069D01*
X421611D01*
Y211182D01*
Y211295D01*
Y211407D01*
X421724D01*
Y211520D01*
X421611D01*
Y211633D01*
Y211746D01*
X421386D01*
Y211858D01*
X421498D01*
Y211971D01*
X421386D01*
Y212083D01*
X421498D01*
Y212196D01*
X421386D01*
Y212309D01*
X421273D01*
Y212421D01*
Y212534D01*
Y212647D01*
Y212759D01*
Y212872D01*
X421161D01*
Y212985D01*
Y213097D01*
Y213210D01*
Y213323D01*
Y213435D01*
Y213548D01*
X420935D01*
Y213661D01*
X421048D01*
Y213773D01*
X420935D01*
Y213886D01*
X421048D01*
Y213999D01*
X420935D01*
Y214111D01*
Y214224D01*
X420710D01*
Y214336D01*
Y214449D01*
X420485D01*
Y214562D01*
Y214674D01*
X420259D01*
Y214787D01*
Y214900D01*
Y215012D01*
X420147D01*
Y215125D01*
X420034D01*
Y215238D01*
X419921D01*
Y215350D01*
X419809D01*
Y215463D01*
Y215576D01*
Y215688D01*
X419696D01*
Y215801D01*
X419583D01*
Y215914D01*
X419471D01*
Y216026D01*
X419358D01*
Y215914D01*
X419471D01*
Y215801D01*
X419358D01*
Y215914D01*
X419245D01*
Y215801D01*
X419133D01*
Y215688D01*
X419245D01*
Y215576D01*
X419133D01*
Y215463D01*
X419245D01*
Y215350D01*
X419133D01*
Y215238D01*
X419245D01*
Y215125D01*
X419133D01*
Y215012D01*
X419020D01*
Y214900D01*
Y214787D01*
Y214674D01*
Y214562D01*
Y214449D01*
Y214336D01*
Y214224D01*
X418907D01*
Y214111D01*
X418795D01*
Y213999D01*
X418907D01*
Y213886D01*
Y213773D01*
Y213661D01*
Y213548D01*
Y213435D01*
Y213323D01*
Y213210D01*
X418795D01*
Y213097D01*
X418682D01*
Y212985D01*
X418795D01*
Y212872D01*
X418682D01*
Y212759D01*
X418795D01*
Y212647D01*
X418682D01*
Y212534D01*
X418795D01*
Y212421D01*
X418682D01*
Y212309D01*
X418795D01*
Y212196D01*
X418682D01*
Y212083D01*
X418795D01*
Y211971D01*
X418682D01*
Y211858D01*
X418795D01*
Y211746D01*
X418682D01*
Y211633D01*
X418795D01*
Y211520D01*
X418682D01*
Y211407D01*
X418795D01*
Y211295D01*
X418682D01*
Y211182D01*
X418795D01*
Y211069D01*
X418682D01*
Y210957D01*
X418795D01*
Y210844D01*
X418682D01*
Y210732D01*
X418795D01*
Y210619D01*
X418682D01*
Y210506D01*
X418795D01*
Y210394D01*
X418682D01*
Y210281D01*
X418795D01*
Y210168D01*
X418682D01*
Y210056D01*
X418570D01*
Y209943D01*
Y209830D01*
Y209718D01*
Y209605D01*
Y209492D01*
Y209380D01*
Y209267D01*
X418457D01*
Y209154D01*
X418570D01*
Y209042D01*
X418457D01*
Y208929D01*
X418795D01*
Y208817D01*
X418682D01*
Y208704D01*
X418795D01*
Y208591D01*
X418907D01*
Y208478D01*
X419020D01*
Y208366D01*
Y208253D01*
Y208140D01*
Y208028D01*
Y207915D01*
X418907D01*
Y207803D01*
X419020D01*
Y207690D01*
Y207577D01*
Y207465D01*
X418907D01*
Y207352D01*
Y207239D01*
Y207127D01*
X418795D01*
Y207014D01*
X418682D01*
Y207127D01*
X418570D01*
Y207014D01*
X418457D01*
Y206901D01*
X418344D01*
Y206789D01*
X417330D01*
Y206676D01*
X417443D01*
Y206563D01*
X417330D01*
Y206451D01*
X417443D01*
Y206338D01*
X417330D01*
Y206225D01*
X417443D01*
Y206113D01*
X417330D01*
Y206000D01*
X417443D01*
Y205888D01*
X417330D01*
Y205775D01*
X417443D01*
Y205662D01*
X417330D01*
Y205775D01*
X417218D01*
Y205662D01*
Y205550D01*
Y205437D01*
X417105D01*
Y205324D01*
X416992D01*
Y205211D01*
X416880D01*
Y205324D01*
X416767D01*
Y205211D01*
X416654D01*
Y205099D01*
X416542D01*
Y205211D01*
X416429D01*
Y205099D01*
X416316D01*
Y204986D01*
X415978D01*
Y205099D01*
X415866D01*
Y205211D01*
X415753D01*
Y205099D01*
X415640D01*
Y205211D01*
X415528D01*
Y205324D01*
X415415D01*
Y205437D01*
X415303D01*
Y205550D01*
X415190D01*
Y205662D01*
X415077D01*
Y205550D01*
X414965D01*
Y205437D01*
X414852D01*
Y205324D01*
X414965D01*
Y205211D01*
Y205099D01*
Y204986D01*
X414852D01*
Y204874D01*
X414739D01*
Y204761D01*
X414627D01*
Y204648D01*
X414514D01*
Y204761D01*
X414401D01*
Y204648D01*
X414289D01*
Y204536D01*
X413275D01*
Y204648D01*
X413162D01*
Y204761D01*
X413050D01*
Y204874D01*
X412937D01*
Y204986D01*
X412824D01*
Y205099D01*
X412937D01*
Y205211D01*
X412824D01*
Y205324D01*
X412711D01*
Y205437D01*
X412599D01*
Y205324D01*
X412486D01*
Y205211D01*
X412374D01*
Y205099D01*
X412261D01*
Y205211D01*
X412148D01*
Y205099D01*
X412036D01*
Y205211D01*
X411923D01*
Y205099D01*
X412036D01*
Y204986D01*
X411698D01*
Y205099D01*
X411585D01*
Y205211D01*
X411472D01*
Y205099D01*
X411360D01*
Y205211D01*
X411247D01*
Y205099D01*
X411134D01*
Y205211D01*
X411022D01*
Y205324D01*
X410909D01*
Y205437D01*
X410796D01*
Y205550D01*
X410684D01*
Y205662D01*
X410571D01*
Y205775D01*
X410684D01*
Y205888D01*
X410571D01*
Y206000D01*
X410684D01*
Y206113D01*
X410571D01*
Y206225D01*
X410458D01*
Y206338D01*
X410346D01*
Y206451D01*
X410571D01*
Y206563D01*
Y206676D01*
X410684D01*
Y206789D01*
X410571D01*
Y206901D01*
X410458D01*
Y207014D01*
X410346D01*
Y206901D01*
X410233D01*
Y207014D01*
X410120D01*
Y206901D01*
X410233D01*
Y206789D01*
X409895D01*
Y206901D01*
X409783D01*
Y207014D01*
X409670D01*
Y206901D01*
X409557D01*
Y207014D01*
X409219D01*
Y207127D01*
X409332D01*
Y207239D01*
X408994D01*
Y207352D01*
X408881D01*
Y207465D01*
X408994D01*
Y207352D01*
X409107D01*
Y207465D01*
X408994D01*
Y207577D01*
X408881D01*
Y207690D01*
X408769D01*
Y207803D01*
Y207915D01*
Y208028D01*
X408881D01*
Y208140D01*
X408769D01*
Y208253D01*
X408881D01*
Y208366D01*
X408769D01*
Y208478D01*
X408881D01*
Y208591D01*
X408994D01*
Y208704D01*
X409107D01*
Y208817D01*
X409219D01*
Y208929D01*
X409332D01*
Y209042D01*
X409445D01*
Y209154D01*
X409332D01*
Y209267D01*
X409219D01*
Y209380D01*
X409332D01*
Y209492D01*
X409219D01*
Y209605D01*
X409332D01*
Y209718D01*
X409219D01*
Y209830D01*
X409107D01*
Y209943D01*
X408994D01*
Y210056D01*
X409107D01*
Y210168D01*
X408994D01*
Y210281D01*
X409107D01*
Y210394D01*
X408994D01*
Y210506D01*
X409107D01*
Y210619D01*
X408994D01*
Y210732D01*
X409107D01*
Y210844D01*
X408994D01*
Y210957D01*
X409107D01*
Y211069D01*
X408994D01*
Y211182D01*
X409107D01*
Y211295D01*
X408994D01*
Y211407D01*
X409107D01*
Y211520D01*
X408994D01*
Y211633D01*
X409107D01*
Y211746D01*
X408994D01*
Y211858D01*
X409107D01*
Y211971D01*
X409219D01*
Y212083D01*
X409332D01*
Y212196D01*
X409219D01*
Y212309D01*
X409332D01*
Y212421D01*
X409219D01*
Y212534D01*
X409332D01*
Y212647D01*
X409219D01*
Y212759D01*
X409332D01*
Y212872D01*
X409219D01*
Y212985D01*
X409332D01*
Y213097D01*
X409219D01*
Y213210D01*
Y213323D01*
Y213435D01*
X409332D01*
Y213548D01*
X409445D01*
Y213661D01*
X409332D01*
Y213773D01*
X409445D01*
Y213886D01*
X409332D01*
Y213999D01*
X409445D01*
Y214111D01*
X409332D01*
Y214224D01*
X409445D01*
Y214336D01*
X409557D01*
Y214449D01*
X409445D01*
Y214562D01*
X409557D01*
Y214674D01*
X409445D01*
Y214787D01*
X409557D01*
Y214900D01*
X409445D01*
Y215012D01*
X409557D01*
Y215125D01*
X409445D01*
Y215238D01*
X409557D01*
Y215125D01*
X409670D01*
Y215238D01*
X409783D01*
Y215350D01*
X409670D01*
Y215463D01*
X409783D01*
Y215576D01*
X409670D01*
Y215688D01*
X409783D01*
Y215801D01*
X409895D01*
Y215914D01*
X409783D01*
Y216026D01*
X409895D01*
Y216139D01*
X409783D01*
Y216252D01*
X409895D01*
Y216364D01*
X410008D01*
Y216477D01*
X409895D01*
Y216590D01*
X410008D01*
Y216702D01*
X409895D01*
Y216815D01*
X410008D01*
Y216928D01*
X410120D01*
Y217040D01*
X410233D01*
Y217153D01*
X410120D01*
Y217266D01*
X410233D01*
Y217378D01*
X410120D01*
Y217491D01*
X410233D01*
Y217603D01*
X410346D01*
Y217716D01*
X410233D01*
Y217829D01*
X410346D01*
Y217941D01*
X410458D01*
Y218054D01*
X410346D01*
Y218167D01*
X410458D01*
Y218279D01*
X410571D01*
Y218392D01*
X410684D01*
Y218505D01*
X410571D01*
Y218617D01*
X410684D01*
Y218730D01*
X410571D01*
Y218843D01*
X410684D01*
Y218955D01*
X410796D01*
Y219068D01*
X410684D01*
Y219181D01*
X410796D01*
Y219293D01*
X410909D01*
Y219406D01*
X410796D01*
Y219519D01*
X411022D01*
Y219631D01*
Y219744D01*
X411134D01*
Y219857D01*
X411247D01*
Y219969D01*
X411134D01*
Y220082D01*
X411247D01*
Y220195D01*
Y220307D01*
Y220420D01*
X411360D01*
Y220532D01*
X411472D01*
Y220645D01*
X411585D01*
Y220758D01*
X411472D01*
Y220870D01*
X411585D01*
Y220983D01*
X411698D01*
Y221096D01*
Y221208D01*
Y221321D01*
X411810D01*
Y221434D01*
X411923D01*
Y221546D01*
X412036D01*
Y221659D01*
X411923D01*
Y221772D01*
X412036D01*
Y221884D01*
X412148D01*
Y221997D01*
Y222110D01*
Y222222D01*
X412261D01*
Y222335D01*
X412374D01*
Y222448D01*
X412486D01*
Y222560D01*
X412374D01*
Y222673D01*
X412486D01*
Y222786D01*
X412599D01*
Y222898D01*
X412711D01*
Y223011D01*
X412599D01*
Y223124D01*
X412824D01*
Y223236D01*
Y223349D01*
X412937D01*
Y223462D01*
X413050D01*
Y223574D01*
X413162D01*
Y223687D01*
Y223799D01*
Y223912D01*
X413275D01*
Y223799D01*
X413387D01*
Y223912D01*
X413275D01*
Y224025D01*
X413387D01*
Y224137D01*
X413500D01*
Y224250D01*
Y224363D01*
Y224475D01*
X413725D01*
Y224588D01*
Y224701D01*
X413838D01*
Y224813D01*
X413951D01*
Y224926D01*
X414063D01*
Y225039D01*
Y225151D01*
Y225264D01*
X414176D01*
Y225377D01*
X414289D01*
Y225489D01*
X414401D01*
Y225602D01*
X414514D01*
Y225715D01*
Y225827D01*
X414627D01*
Y225940D01*
Y226052D01*
X414852D01*
Y226165D01*
Y226278D01*
X414965D01*
Y226391D01*
X415077D01*
Y226503D01*
X415190D01*
Y226616D01*
X415303D01*
Y226728D01*
X415415D01*
Y226841D01*
X415528D01*
Y226954D01*
X415640D01*
Y227066D01*
X415753D01*
Y227179D01*
X415640D01*
Y227292D01*
X415753D01*
Y227404D01*
Y227517D01*
Y227630D01*
X415640D01*
Y227742D01*
X415753D01*
Y227855D01*
Y227968D01*
Y228080D01*
X415640D01*
Y228193D01*
X415753D01*
Y228306D01*
Y228418D01*
Y228531D01*
X415640D01*
Y228644D01*
X415753D01*
Y228756D01*
Y228869D01*
Y228981D01*
X415640D01*
Y229094D01*
X415753D01*
Y229207D01*
X415866D01*
Y229320D01*
Y229432D01*
Y229545D01*
Y229658D01*
Y229770D01*
X415753D01*
Y229883D01*
X415866D01*
Y229995D01*
Y230108D01*
Y230221D01*
X415753D01*
Y230333D01*
X415866D01*
Y230446D01*
Y230559D01*
Y230671D01*
X415753D01*
Y230784D01*
X415978D01*
Y230897D01*
Y231009D01*
X416091D01*
Y231122D01*
X415978D01*
Y231235D01*
X416091D01*
Y231347D01*
X415978D01*
Y231460D01*
X416091D01*
Y231573D01*
X415978D01*
Y231685D01*
X416091D01*
Y231798D01*
X416204D01*
Y231910D01*
Y232023D01*
Y232136D01*
X416091D01*
Y232248D01*
X416204D01*
Y232361D01*
Y232474D01*
Y232587D01*
X416316D01*
Y232699D01*
Y232812D01*
Y232924D01*
X416204D01*
Y233037D01*
X416316D01*
Y233150D01*
X416429D01*
Y233262D01*
X416542D01*
Y233375D01*
X416429D01*
Y233488D01*
X416542D01*
Y233600D01*
X416429D01*
Y233713D01*
X416654D01*
Y233826D01*
Y233938D01*
X416542D01*
Y234051D01*
X416654D01*
Y234164D01*
Y234276D01*
Y234389D01*
X416767D01*
Y234502D01*
Y234614D01*
Y234727D01*
X416880D01*
Y234614D01*
X416992D01*
Y234727D01*
X416880D01*
Y234840D01*
X416992D01*
Y234952D01*
X416880D01*
Y235065D01*
X417105D01*
Y235177D01*
Y235290D01*
X416992D01*
Y235403D01*
X417105D01*
Y235515D01*
X417218D01*
Y235628D01*
Y235741D01*
X417443D01*
Y235853D01*
X417330D01*
Y235966D01*
X417443D01*
Y236079D01*
X417330D01*
Y236191D01*
X417443D01*
Y236304D01*
X417556D01*
Y236417D01*
Y236529D01*
Y236642D01*
X417668D01*
Y236755D01*
X417781D01*
Y236867D01*
X417894D01*
Y236980D01*
X417781D01*
Y237093D01*
X417894D01*
Y237205D01*
X418006D01*
Y237318D01*
Y237431D01*
Y237543D01*
X418344D01*
Y237656D01*
X418232D01*
Y237769D01*
X418344D01*
Y237881D01*
X418457D01*
Y237994D01*
Y238106D01*
Y238219D01*
X418570D01*
Y238332D01*
X418682D01*
Y238219D01*
X418795D01*
Y238332D01*
X418682D01*
Y238444D01*
X418795D01*
Y238557D01*
X418682D01*
Y238670D01*
X418907D01*
Y238782D01*
Y238895D01*
X419020D01*
Y239008D01*
X419133D01*
Y239120D01*
X419245D01*
Y239233D01*
X419358D01*
Y239346D01*
X419471D01*
Y239458D01*
Y239571D01*
Y239684D01*
X419583D01*
Y239796D01*
X419696D01*
Y239909D01*
X419809D01*
Y240022D01*
X419921D01*
Y240134D01*
X420034D01*
Y240247D01*
X420147D01*
Y240360D01*
X420259D01*
Y240472D01*
X420372D01*
Y240585D01*
X420485D01*
Y240698D01*
X420597D01*
Y240810D01*
X420710D01*
Y240923D01*
X420823D01*
Y241036D01*
X420935D01*
Y241148D01*
X421048D01*
Y241261D01*
X421161D01*
Y241373D01*
X421273D01*
Y241486D01*
X421386D01*
Y241599D01*
X421498D01*
Y241711D01*
X421611D01*
Y241824D01*
X421724D01*
Y241937D01*
X421837D01*
Y242049D01*
X421949D01*
Y242162D01*
X422062D01*
Y242275D01*
X422400D01*
Y242387D01*
X422512D01*
Y242500D01*
X422625D01*
Y242613D01*
X422738D01*
Y242725D01*
X422850D01*
Y242838D01*
X422963D01*
Y242951D01*
X423301D01*
Y243063D01*
X423188D01*
Y243176D01*
X423526D01*
Y243289D01*
X423639D01*
Y243176D01*
X423752D01*
Y243289D01*
X423639D01*
Y243401D01*
X423752D01*
Y243514D01*
X423864D01*
Y243401D01*
X423977D01*
Y243514D01*
X424090D01*
Y243626D01*
X424202D01*
Y243739D01*
X424315D01*
Y243852D01*
X424653D01*
Y243965D01*
X424540D01*
Y244077D01*
X424878D01*
Y244190D01*
X424991D01*
Y244077D01*
X425104D01*
Y244190D01*
X424991D01*
Y244303D01*
X425104D01*
Y244190D01*
X425216D01*
Y244303D01*
X425329D01*
Y244415D01*
X425441D01*
Y244528D01*
X425779D01*
Y244640D01*
X425667D01*
Y244753D01*
X425779D01*
Y244640D01*
X425892D01*
Y244528D01*
X426005D01*
Y244640D01*
X425892D01*
Y244753D01*
X426005D01*
Y244866D01*
X426117D01*
Y244753D01*
X426230D01*
Y244866D01*
X426343D01*
Y244978D01*
X426681D01*
Y245091D01*
X426568D01*
Y245204D01*
X426681D01*
Y245091D01*
X426793D01*
Y245204D01*
X426906D01*
Y245316D01*
X427019D01*
Y245204D01*
X427131D01*
Y245316D01*
X427244D01*
Y245429D01*
X427582D01*
Y245542D01*
X427469D01*
Y245654D01*
X427582D01*
Y245542D01*
X427695D01*
Y245429D01*
X427807D01*
Y245542D01*
X427695D01*
Y245654D01*
X427807D01*
Y245542D01*
X427920D01*
Y245654D01*
X428032D01*
Y245767D01*
X428145D01*
Y245654D01*
X428258D01*
Y245767D01*
X428145D01*
Y245880D01*
X428483D01*
Y245992D01*
X428596D01*
Y245880D01*
X428708D01*
Y245992D01*
X428596D01*
Y246105D01*
X428708D01*
Y245992D01*
X428821D01*
Y246105D01*
X429159D01*
Y246218D01*
X429272D01*
Y246330D01*
X429835D01*
Y246443D01*
X429722D01*
Y246555D01*
X429835D01*
Y246443D01*
X429948D01*
Y246330D01*
X430060D01*
Y246443D01*
X429948D01*
Y246555D01*
X430060D01*
Y246443D01*
X430173D01*
Y246555D01*
X430286D01*
Y246668D01*
X430398D01*
Y246555D01*
X430511D01*
Y246668D01*
X430398D01*
Y246781D01*
X430962D01*
Y246894D01*
X431074D01*
Y247006D01*
X431187D01*
Y246894D01*
X431299D01*
Y246781D01*
X431412D01*
Y246894D01*
X431299D01*
Y247006D01*
X431412D01*
Y246894D01*
X431525D01*
Y247006D01*
X431637D01*
Y247119D01*
X431750D01*
Y247006D01*
X431863D01*
Y247119D01*
X431975D01*
Y247232D01*
X432539D01*
Y247344D01*
X432426D01*
Y247457D01*
X432539D01*
Y247344D01*
X432651D01*
Y247232D01*
X432764D01*
Y247344D01*
X432651D01*
Y247457D01*
X432764D01*
Y247344D01*
X432877D01*
Y247457D01*
X432989D01*
Y247569D01*
X433102D01*
Y247457D01*
X433215D01*
Y247569D01*
X433327D01*
Y247457D01*
X433440D01*
Y247569D01*
X433553D01*
Y247682D01*
X434116D01*
Y247795D01*
X434228D01*
Y247907D01*
X434341D01*
Y247795D01*
X434454D01*
Y247682D01*
X434566D01*
Y247795D01*
X434454D01*
Y247907D01*
X434566D01*
Y248020D01*
X434679D01*
Y247907D01*
X434792D01*
Y248020D01*
X434904D01*
Y247907D01*
X435017D01*
Y248020D01*
X435130D01*
Y247907D01*
X435242D01*
Y248020D01*
X435130D01*
Y248133D01*
X435693D01*
Y248245D01*
X435580D01*
Y248358D01*
X435693D01*
Y248245D01*
X435806D01*
Y248133D01*
X435918D01*
Y248245D01*
X435806D01*
Y248358D01*
X435918D01*
Y248245D01*
X436031D01*
Y248358D01*
X436144D01*
Y248471D01*
X436256D01*
Y248358D01*
X436369D01*
Y248471D01*
X436256D01*
Y248583D01*
X436594D01*
Y248696D01*
X436707D01*
Y248809D01*
X436820D01*
Y248921D01*
X436932D01*
Y248809D01*
X437045D01*
Y248921D01*
X436932D01*
Y249034D01*
X437045D01*
Y249147D01*
X437157D01*
Y249259D01*
Y249372D01*
Y249485D01*
X437045D01*
Y249597D01*
X436932D01*
Y249710D01*
X437045D01*
Y249822D01*
X436932D01*
Y249935D01*
X436820D01*
Y250048D01*
X436707D01*
Y250161D01*
Y250273D01*
Y250386D01*
X436594D01*
Y250499D01*
X436482D01*
Y250611D01*
X436369D01*
Y250724D01*
X436256D01*
Y250836D01*
X436144D01*
Y250949D01*
X436031D01*
Y251062D01*
X435918D01*
Y251174D01*
X435806D01*
Y251287D01*
X435693D01*
Y251400D01*
X435580D01*
Y251512D01*
X435468D01*
Y251625D01*
X435355D01*
Y251738D01*
X435242D01*
Y251850D01*
X435130D01*
Y251963D01*
X435017D01*
Y252076D01*
X434904D01*
Y252188D01*
X434792D01*
Y252301D01*
X434679D01*
Y252414D01*
X434566D01*
Y252526D01*
X434454D01*
Y252639D01*
X434341D01*
Y252751D01*
X434454D01*
Y252639D01*
X434566D01*
Y252751D01*
X434454D01*
Y252864D01*
X434341D01*
Y252977D01*
X434228D01*
Y253089D01*
X434341D01*
Y253202D01*
X434228D01*
Y253315D01*
X434116D01*
Y253427D01*
X434003D01*
Y253540D01*
X433890D01*
Y253653D01*
X434003D01*
Y253540D01*
X434116D01*
Y253653D01*
X434003D01*
Y253765D01*
X433890D01*
Y253878D01*
X434003D01*
Y253991D01*
X433890D01*
Y254103D01*
X434003D01*
Y254216D01*
X433890D01*
Y254329D01*
X434003D01*
Y254441D01*
X433890D01*
Y254554D01*
X434003D01*
Y254667D01*
X433890D01*
Y254779D01*
X434003D01*
Y254892D01*
X434116D01*
Y255005D01*
Y255117D01*
Y255230D01*
X434003D01*
Y255343D01*
X434341D01*
Y255455D01*
X434228D01*
Y255568D01*
X434341D01*
Y255455D01*
X434454D01*
Y255568D01*
Y255680D01*
Y255793D01*
X434566D01*
Y255906D01*
X434679D01*
Y256018D01*
X434792D01*
Y256131D01*
X434904D01*
Y256244D01*
X435017D01*
Y256356D01*
X435130D01*
Y256469D01*
X435242D01*
Y256582D01*
X435355D01*
Y256694D01*
X435468D01*
Y256807D01*
X435580D01*
Y256920D01*
X435693D01*
Y257032D01*
X435806D01*
Y257145D01*
X435918D01*
Y257258D01*
X436031D01*
Y257370D01*
X436144D01*
Y257483D01*
X436256D01*
Y257596D01*
X436369D01*
Y257708D01*
X436482D01*
Y257821D01*
X436594D01*
Y257934D01*
X436707D01*
Y258046D01*
X436820D01*
Y258159D01*
X436932D01*
Y258272D01*
X437045D01*
Y258384D01*
X436932D01*
Y258497D01*
X437045D01*
Y258610D01*
X437157D01*
Y258722D01*
X437270D01*
Y258835D01*
X437157D01*
Y258947D01*
X437270D01*
Y259060D01*
X437157D01*
Y259173D01*
X437045D01*
Y259285D01*
X436932D01*
Y259398D01*
X436820D01*
Y259511D01*
X436707D01*
Y259623D01*
X436594D01*
Y259736D01*
X436482D01*
Y259623D01*
X436369D01*
Y259736D01*
X436256D01*
Y259849D01*
X436144D01*
Y259961D01*
X436031D01*
Y260074D01*
X435918D01*
Y260187D01*
X435806D01*
Y260299D01*
X435693D01*
Y260412D01*
X435580D01*
Y260525D01*
X435468D01*
Y260637D01*
X435355D01*
Y260750D01*
X435242D01*
Y260863D01*
X435130D01*
Y260975D01*
X435017D01*
Y261088D01*
X434904D01*
Y261201D01*
X434792D01*
Y261313D01*
X434679D01*
Y261426D01*
X434566D01*
Y261539D01*
X434454D01*
Y261651D01*
X434341D01*
Y261764D01*
X434454D01*
Y261651D01*
X434566D01*
Y261764D01*
X434454D01*
Y261877D01*
X434341D01*
Y261989D01*
X434228D01*
Y262102D01*
X434341D01*
Y262214D01*
X434228D01*
Y262327D01*
X434116D01*
Y262440D01*
X434003D01*
Y262552D01*
X434116D01*
Y262665D01*
Y262778D01*
Y262890D01*
X434003D01*
Y263003D01*
X434116D01*
Y263116D01*
Y263228D01*
Y263341D01*
X434003D01*
Y263454D01*
X434116D01*
Y263566D01*
Y263679D01*
Y263792D01*
X434003D01*
Y263904D01*
X434116D01*
Y264017D01*
X434003D01*
Y264130D01*
X434116D01*
Y264242D01*
X434228D01*
Y264130D01*
X434341D01*
Y264242D01*
X434228D01*
Y264355D01*
X434341D01*
Y264468D01*
X434228D01*
Y264580D01*
X434341D01*
Y264468D01*
X434454D01*
Y264580D01*
Y264693D01*
Y264806D01*
X434566D01*
Y264918D01*
X434679D01*
Y265031D01*
X434792D01*
Y265143D01*
X434904D01*
Y265031D01*
X435017D01*
Y265143D01*
X434904D01*
Y265256D01*
X435468D01*
Y265369D01*
X435580D01*
Y265481D01*
X435693D01*
Y265369D01*
X435806D01*
Y265256D01*
X435918D01*
Y265369D01*
X435806D01*
Y265481D01*
X435918D01*
Y265369D01*
X436031D01*
Y265481D01*
X436144D01*
Y265594D01*
X436256D01*
Y265707D01*
X436144D01*
Y265819D01*
X436256D01*
Y265932D01*
Y266045D01*
Y266157D01*
X436144D01*
Y266270D01*
X436031D01*
Y266383D01*
X435918D01*
Y266495D01*
X435806D01*
Y266608D01*
X435693D01*
Y266721D01*
X435580D01*
Y266833D01*
X435468D01*
Y266946D01*
X435355D01*
Y267059D01*
X435242D01*
Y267171D01*
X435130D01*
Y267284D01*
X435017D01*
Y267396D01*
X434904D01*
Y267509D01*
X434792D01*
Y267622D01*
X434679D01*
Y267735D01*
X434566D01*
Y267847D01*
X434454D01*
Y267960D01*
X434566D01*
Y268073D01*
X434454D01*
Y268185D01*
X434341D01*
Y268298D01*
X434228D01*
Y268410D01*
X434341D01*
Y268523D01*
X434228D01*
Y268636D01*
X434116D01*
Y268748D01*
X434003D01*
Y268861D01*
X434116D01*
Y268974D01*
X434003D01*
Y269086D01*
X433890D01*
Y269199D01*
X434003D01*
Y269312D01*
X433890D01*
Y269424D01*
X434003D01*
Y269537D01*
X433890D01*
Y269650D01*
X434003D01*
Y269762D01*
X433890D01*
Y269875D01*
X434003D01*
Y269988D01*
X433890D01*
Y270100D01*
X434003D01*
Y270213D01*
X434116D01*
Y270326D01*
Y270438D01*
Y270551D01*
X434003D01*
Y270663D01*
X434341D01*
Y270776D01*
X434228D01*
Y270889D01*
X434341D01*
Y271002D01*
X434454D01*
Y271114D01*
X434341D01*
Y271227D01*
X434454D01*
Y271339D01*
X434566D01*
Y271452D01*
X434679D01*
Y271339D01*
X434792D01*
Y271452D01*
X434679D01*
Y271565D01*
X435017D01*
Y271677D01*
X434679D01*
Y271790D01*
X434566D01*
Y271903D01*
X434228D01*
Y272015D01*
X434116D01*
Y272128D01*
X434003D01*
Y272015D01*
X434116D01*
Y271903D01*
X434003D01*
Y272015D01*
X433890D01*
Y272128D01*
X433778D01*
Y272241D01*
X433665D01*
Y272128D01*
X433553D01*
Y272241D01*
X433440D01*
Y272353D01*
X433327D01*
Y272241D01*
X433215D01*
Y272353D01*
X433102D01*
Y272466D01*
X432989D01*
Y272579D01*
X432877D01*
Y272691D01*
X432764D01*
Y272804D01*
X432651D01*
Y272691D01*
X432539D01*
Y272804D01*
X432426D01*
Y272917D01*
X432313D01*
Y273029D01*
X432201D01*
Y273142D01*
X432088D01*
Y273255D01*
X431975D01*
Y273367D01*
X431863D01*
Y273480D01*
X431750D01*
Y273592D01*
X431637D01*
Y273705D01*
X431525D01*
Y273818D01*
X431412D01*
Y273931D01*
X431299D01*
Y274043D01*
X431412D01*
Y274156D01*
X431299D01*
Y274268D01*
X431187D01*
Y274381D01*
X431074D01*
Y274494D01*
X430962D01*
Y274606D01*
X430849D01*
Y274719D01*
X430962D01*
Y274832D01*
X430849D01*
Y274944D01*
X430736D01*
Y275057D01*
X430623D01*
Y275170D01*
X430736D01*
Y275057D01*
X430849D01*
Y275170D01*
X430736D01*
Y275282D01*
X430623D01*
Y275395D01*
X430511D01*
Y275508D01*
X430398D01*
Y275620D01*
X430511D01*
Y275733D01*
X430398D01*
Y275846D01*
X430511D01*
Y275958D01*
X430398D01*
Y276071D01*
X430286D01*
Y276184D01*
X430398D01*
Y276071D01*
X430511D01*
Y276184D01*
X430398D01*
Y276296D01*
X430286D01*
Y276409D01*
X430398D01*
Y276521D01*
X430286D01*
Y276634D01*
X430398D01*
Y276747D01*
X430286D01*
Y276859D01*
X430173D01*
Y276972D01*
X430286D01*
Y277085D01*
X430173D01*
Y277197D01*
X430286D01*
Y277310D01*
X430173D01*
Y277423D01*
X430286D01*
Y277535D01*
X430173D01*
Y277648D01*
X430286D01*
Y277761D01*
X430173D01*
Y277873D01*
X430286D01*
Y277986D01*
X430173D01*
Y278099D01*
X430286D01*
Y278211D01*
X430173D01*
Y278324D01*
X430286D01*
Y278437D01*
X430398D01*
Y278549D01*
X430286D01*
Y278662D01*
X430398D01*
Y278775D01*
X430286D01*
Y278887D01*
X430398D01*
Y279000D01*
X430511D01*
Y279113D01*
X430398D01*
Y279225D01*
X430511D01*
Y279338D01*
X430398D01*
Y279450D01*
X430511D01*
Y279563D01*
X430398D01*
Y279676D01*
X430736D01*
Y279788D01*
X430623D01*
Y279901D01*
X430736D01*
Y280014D01*
X430849D01*
Y280127D01*
X430736D01*
Y280239D01*
X430849D01*
Y280352D01*
X430962D01*
Y280464D01*
X430849D01*
Y280577D01*
X431187D01*
Y280690D01*
X431074D01*
Y280802D01*
X431187D01*
Y280915D01*
X431299D01*
Y281028D01*
X431412D01*
Y281140D01*
X431299D01*
Y281253D01*
X431412D01*
Y281366D01*
X431525D01*
Y281478D01*
X431637D01*
Y281591D01*
X431750D01*
Y281704D01*
X431863D01*
Y281816D01*
X431975D01*
Y281929D01*
X432088D01*
Y282042D01*
X432201D01*
Y282154D01*
X432313D01*
Y282267D01*
X432426D01*
Y282380D01*
X432764D01*
Y282492D01*
X432877D01*
Y282605D01*
X432989D01*
Y282717D01*
X433102D01*
Y282605D01*
X433215D01*
Y282717D01*
X433102D01*
Y282830D01*
X433440D01*
Y282943D01*
X433553D01*
Y283055D01*
X433665D01*
Y282943D01*
X433778D01*
Y283055D01*
X433890D01*
Y283168D01*
X434003D01*
Y283055D01*
X434116D01*
Y283168D01*
X434003D01*
Y283281D01*
X434792D01*
Y283393D01*
X434679D01*
Y283506D01*
X434792D01*
Y283393D01*
X434904D01*
Y283281D01*
X435017D01*
Y283393D01*
X434904D01*
Y283506D01*
X435017D01*
Y283393D01*
X435130D01*
Y283506D01*
X435242D01*
Y283393D01*
X435355D01*
Y283506D01*
X435468D01*
Y283619D01*
X435580D01*
Y283506D01*
X435693D01*
Y283619D01*
X435806D01*
Y283506D01*
X435918D01*
Y283619D01*
X436031D01*
Y283506D01*
X436144D01*
Y283619D01*
X436256D01*
Y283506D01*
X436369D01*
Y283619D01*
X436482D01*
Y283506D01*
X436594D01*
Y283619D01*
X436707D01*
Y283506D01*
X436820D01*
Y283619D01*
X436932D01*
Y283506D01*
D02*
G37*
%LPC*%
G36*
X449662Y243063D02*
X449549D01*
Y242951D01*
X449662D01*
Y243063D01*
D02*
G37*
G36*
X448085Y244190D02*
X447972D01*
Y244077D01*
X448085D01*
Y244190D01*
D02*
G37*
G36*
X450113Y242613D02*
X450000D01*
Y242500D01*
X450113D01*
Y242613D01*
D02*
G37*
G36*
X454393Y237431D02*
X454281D01*
Y237318D01*
X454393D01*
Y237431D01*
D02*
G37*
G36*
X452366Y240360D02*
X452253D01*
Y240247D01*
X452366D01*
Y240360D01*
D02*
G37*
G36*
X447860Y244415D02*
X447747D01*
Y244303D01*
X447860D01*
Y244415D01*
D02*
G37*
G36*
X442227Y246894D02*
X442114D01*
Y246781D01*
X442227D01*
Y246894D01*
D02*
G37*
G36*
X440424Y247795D02*
X440312D01*
Y247682D01*
X440424D01*
Y247795D01*
D02*
G37*
G36*
X443579Y246443D02*
X443466D01*
Y246330D01*
X443579D01*
Y246443D01*
D02*
G37*
G36*
X446733Y245091D02*
X446620D01*
Y244978D01*
X446733D01*
Y245091D01*
D02*
G37*
G36*
X445832Y245542D02*
X445719D01*
Y245429D01*
X445832D01*
Y245542D01*
D02*
G37*
G36*
X455295Y235628D02*
X455182D01*
Y235515D01*
X455295D01*
Y235628D01*
D02*
G37*
G36*
X421498Y212421D02*
X421386D01*
Y212309D01*
X421498D01*
Y212421D01*
D02*
G37*
G36*
X462955Y215801D02*
X462843D01*
Y215688D01*
X462955D01*
Y215801D01*
D02*
G37*
G36*
X463856Y208140D02*
X463744D01*
Y208028D01*
X463856D01*
Y208140D01*
D02*
G37*
G36*
X437045Y205211D02*
X436932D01*
Y205099D01*
X437045D01*
Y205211D01*
D02*
G37*
G36*
X455520Y206563D02*
X455407D01*
Y206451D01*
X455520D01*
Y206563D01*
D02*
G37*
G36*
X461603Y219857D02*
X461491D01*
Y219744D01*
X461603D01*
Y219857D01*
D02*
G37*
G36*
X458224Y225489D02*
X458111D01*
Y225377D01*
X458224D01*
Y225489D01*
D02*
G37*
G36*
X455520Y234952D02*
X455407D01*
Y234840D01*
X455520D01*
Y234952D01*
D02*
G37*
G36*
X460252Y222560D02*
X460139D01*
Y222448D01*
X460252D01*
Y222560D01*
D02*
G37*
G36*
X461153Y220758D02*
X461040D01*
Y220645D01*
X461153D01*
Y220758D01*
D02*
G37*
G36*
X460702Y221659D02*
X460590D01*
Y221546D01*
X460702D01*
Y221659D01*
D02*
G37*
G36*
X442002Y279563D02*
X441889D01*
Y279450D01*
X442002D01*
Y279563D01*
D02*
G37*
G36*
X440424Y279788D02*
X440312D01*
Y279676D01*
X440424D01*
Y279788D01*
D02*
G37*
G36*
X440650Y279113D02*
X440537D01*
Y279000D01*
X440650D01*
Y279113D01*
D02*
G37*
G36*
X431187Y274606D02*
X431074D01*
Y274494D01*
X431187D01*
Y274606D01*
D02*
G37*
G36*
X430736Y275508D02*
X430623D01*
Y275395D01*
X430736D01*
Y275508D01*
D02*
G37*
G36*
X440199Y280014D02*
X440086D01*
Y279901D01*
X440199D01*
Y280014D01*
D02*
G37*
G36*
X436932Y282154D02*
X436820D01*
Y282042D01*
X436482D01*
Y282154D01*
X436369D01*
Y282042D01*
X436031D01*
Y282154D01*
X435918D01*
Y282042D01*
X435580D01*
Y282154D01*
X435468D01*
Y282042D01*
X435355D01*
Y281929D01*
X435468D01*
Y281816D01*
X435355D01*
Y281929D01*
X435017D01*
Y282042D01*
X434904D01*
Y281929D01*
X435017D01*
Y281816D01*
X434679D01*
Y281704D01*
X434566D01*
Y281816D01*
X434454D01*
Y281704D01*
X434341D01*
Y281591D01*
X434228D01*
Y281704D01*
X434116D01*
Y281591D01*
X434003D01*
Y281478D01*
X434116D01*
Y281366D01*
X434003D01*
Y281478D01*
X433890D01*
Y281366D01*
X433778D01*
Y281253D01*
X433665D01*
Y281140D01*
X433327D01*
Y281028D01*
X433215D01*
Y280915D01*
X433102D01*
Y280802D01*
X432989D01*
Y280690D01*
X432877D01*
Y280577D01*
X432764D01*
Y280464D01*
X432651D01*
Y280352D01*
X432539D01*
Y280239D01*
X432426D01*
Y280127D01*
X432539D01*
Y280014D01*
X432426D01*
Y279901D01*
X432313D01*
Y279788D01*
X432201D01*
Y279676D01*
X432088D01*
Y279563D01*
X431975D01*
Y279450D01*
X432088D01*
Y279338D01*
X431975D01*
Y279225D01*
X431863D01*
Y279338D01*
X431750D01*
Y279225D01*
X431863D01*
Y279113D01*
X431750D01*
Y279000D01*
X431863D01*
Y278887D01*
X431750D01*
Y278775D01*
X431863D01*
Y278662D01*
X431750D01*
Y278775D01*
X431637D01*
Y278662D01*
X431750D01*
Y278549D01*
X431637D01*
Y278437D01*
X431750D01*
Y278324D01*
X431637D01*
Y278211D01*
X431750D01*
Y278099D01*
X431637D01*
Y277986D01*
X431525D01*
Y277873D01*
X431637D01*
Y277761D01*
X431525D01*
Y277648D01*
X431637D01*
Y277535D01*
X431525D01*
Y277423D01*
X431637D01*
Y277310D01*
X431525D01*
Y277197D01*
X431637D01*
Y277085D01*
X431525D01*
Y276972D01*
X431637D01*
Y276859D01*
X431750D01*
Y276747D01*
X431637D01*
Y276634D01*
X431750D01*
Y276521D01*
X431637D01*
Y276409D01*
X431750D01*
Y276296D01*
X431863D01*
Y276184D01*
X431750D01*
Y276071D01*
X431863D01*
Y275958D01*
X431750D01*
Y275846D01*
X431863D01*
Y275733D01*
X431975D01*
Y275620D01*
X432088D01*
Y275508D01*
X431975D01*
Y275395D01*
X432088D01*
Y275282D01*
X432201D01*
Y275170D01*
X432313D01*
Y275057D01*
Y274944D01*
Y274832D01*
X432426D01*
Y274719D01*
X432539D01*
Y274606D01*
X432651D01*
Y274494D01*
X432764D01*
Y274381D01*
X432877D01*
Y274268D01*
X432989D01*
Y274156D01*
X433102D01*
Y274043D01*
X433215D01*
Y273931D01*
X433327D01*
Y273818D01*
X433440D01*
Y273705D01*
X433553D01*
Y273592D01*
X433665D01*
Y273705D01*
X433778D01*
Y273592D01*
X433890D01*
Y273480D01*
X434003D01*
Y273367D01*
X434341D01*
Y273255D01*
X434454D01*
Y273142D01*
X434566D01*
Y273255D01*
X434679D01*
Y273142D01*
X434792D01*
Y273029D01*
X434904D01*
Y273142D01*
X435017D01*
Y273029D01*
X435130D01*
Y272917D01*
X437270D01*
Y273029D01*
X437383D01*
Y273142D01*
X437495D01*
Y273029D01*
X437608D01*
Y273142D01*
X437721D01*
Y273255D01*
X437833D01*
Y273142D01*
X437946D01*
Y273255D01*
X438059D01*
Y273142D01*
X438171D01*
Y273255D01*
X438059D01*
Y273367D01*
X438397D01*
Y273480D01*
X438509D01*
Y273367D01*
X438622D01*
Y273480D01*
X438509D01*
Y273592D01*
X438622D01*
Y273705D01*
X438735D01*
Y273592D01*
X438847D01*
Y273705D01*
X438960D01*
Y273818D01*
X439073D01*
Y273931D01*
X439185D01*
Y274043D01*
X439298D01*
Y274156D01*
X439410D01*
Y274268D01*
X439523D01*
Y274381D01*
X439636D01*
Y274494D01*
X439748D01*
Y274606D01*
X439861D01*
Y274719D01*
X439974D01*
Y274832D01*
Y274944D01*
Y275057D01*
X440086D01*
Y274944D01*
X440199D01*
Y275057D01*
X440086D01*
Y275170D01*
X440199D01*
Y275282D01*
X440312D01*
Y275170D01*
X440424D01*
Y275282D01*
X440312D01*
Y275395D01*
X440424D01*
Y275508D01*
X440312D01*
Y275620D01*
X440424D01*
Y275733D01*
X440537D01*
Y275846D01*
X440650D01*
Y275958D01*
X440537D01*
Y276071D01*
X440650D01*
Y276184D01*
X440537D01*
Y276296D01*
X440650D01*
Y276409D01*
X440762D01*
Y276521D01*
X440875D01*
Y276634D01*
X440762D01*
Y276747D01*
Y276859D01*
Y276972D01*
X440875D01*
Y277085D01*
X440762D01*
Y277197D01*
X440875D01*
Y277310D01*
X440762D01*
Y277423D01*
X440875D01*
Y277535D01*
Y277648D01*
Y277761D01*
X440762D01*
Y277873D01*
Y277986D01*
Y278099D01*
Y278211D01*
Y278324D01*
X440875D01*
Y278437D01*
X440762D01*
Y278549D01*
X440650D01*
Y278662D01*
X440537D01*
Y278775D01*
X440650D01*
Y278887D01*
X440537D01*
Y279000D01*
X440424D01*
Y279113D01*
Y279225D01*
Y279338D01*
X440312D01*
Y279450D01*
Y279563D01*
Y279676D01*
X440199D01*
Y279788D01*
X440086D01*
Y279901D01*
X439974D01*
Y280014D01*
X439861D01*
Y280127D01*
X439974D01*
Y280239D01*
X439861D01*
Y280352D01*
X439748D01*
Y280464D01*
X439636D01*
Y280577D01*
X439523D01*
Y280690D01*
X439410D01*
Y280802D01*
X439298D01*
Y280915D01*
X439185D01*
Y281028D01*
X439073D01*
Y281140D01*
X438735D01*
Y281253D01*
X438622D01*
Y281366D01*
X438509D01*
Y281478D01*
X438397D01*
Y281591D01*
X438284D01*
Y281704D01*
X438171D01*
Y281591D01*
X438059D01*
Y281704D01*
X437946D01*
Y281816D01*
X437833D01*
Y281704D01*
X437721D01*
Y281816D01*
X437608D01*
Y281929D01*
X437495D01*
Y281816D01*
X437383D01*
Y281929D01*
X437270D01*
Y282042D01*
X437157D01*
Y281929D01*
X437270D01*
Y281816D01*
X437157D01*
Y281929D01*
X437045D01*
Y282042D01*
X436932D01*
Y282154D01*
D02*
G37*
G36*
X438397Y283168D02*
X438284D01*
Y283055D01*
X438397D01*
Y283168D01*
D02*
G37*
G36*
X438622Y281591D02*
X438509D01*
Y281478D01*
X438622D01*
Y281591D01*
D02*
G37*
G36*
X441551Y280464D02*
X441438D01*
Y280352D01*
X441551D01*
Y280464D01*
D02*
G37*
G36*
X438847Y281366D02*
X438735D01*
Y281253D01*
X438847D01*
Y281366D01*
D02*
G37*
G36*
X434341Y273255D02*
X434228D01*
Y273142D01*
X434341D01*
Y273255D01*
D02*
G37*
G36*
X435918Y260412D02*
X435806D01*
Y260299D01*
X435918D01*
Y260412D01*
D02*
G37*
G36*
X434792Y261539D02*
X434679D01*
Y261426D01*
X434792D01*
Y261539D01*
D02*
G37*
G36*
X436144Y260187D02*
X436031D01*
Y260074D01*
X436144D01*
Y260187D01*
D02*
G37*
G36*
X434792Y252526D02*
X434679D01*
Y252414D01*
X434792D01*
Y252526D01*
D02*
G37*
G36*
X436369Y259961D02*
X436256D01*
Y259849D01*
X436369D01*
Y259961D01*
D02*
G37*
G36*
X434341Y262440D02*
X434228D01*
Y262327D01*
X434341D01*
Y262440D01*
D02*
G37*
G36*
X434792Y271903D02*
X434679D01*
Y271790D01*
X434792D01*
Y271903D01*
D02*
G37*
G36*
X433215Y272579D02*
X433102D01*
Y272466D01*
X433215D01*
Y272579D01*
D02*
G37*
G36*
X434792Y267847D02*
X434679D01*
Y267735D01*
X434792D01*
Y267847D01*
D02*
G37*
G36*
X435242Y267396D02*
X435130D01*
Y267284D01*
X435242D01*
Y267396D01*
D02*
G37*
G36*
X435017Y267622D02*
X434904D01*
Y267509D01*
X435017D01*
Y267622D01*
D02*
G37*
%LPD*%
D16*
X490126Y208300D02*
Y408300D01*
Y208300D02*
X505500D01*
X490126Y408300D02*
X505500D01*
X490126Y398300D02*
X505874D01*
X303000Y185426D02*
X503000D01*
Y200800D01*
X303000D02*
X503000D01*
X303000Y185426D02*
Y200800D01*
X313000Y185426D02*
Y201174D01*
X300126Y208300D02*
Y408300D01*
Y208300D02*
X315500D01*
Y408300D01*
X300126D02*
X315500D01*
X300126Y398300D02*
X315874D01*
X505500Y208300D02*
Y408300D01*
X315600D02*
X490226D01*
X470904Y279593D02*
Y275594D01*
X476902D01*
Y279593D01*
X473903Y275594D02*
Y277593D01*
X476902Y281592D02*
X472904D01*
Y284591D01*
X473903Y285591D01*
X476902D01*
X472904Y288590D02*
Y290589D01*
X473903Y291589D01*
X476902D01*
Y288590D01*
X475903Y287590D01*
X474903Y288590D01*
Y291589D01*
X470904Y293588D02*
X476902D01*
Y296587D01*
X475903Y297587D01*
X474903D01*
X473903D01*
X472904Y296587D01*
Y293588D01*
X476902Y299586D02*
Y301586D01*
Y300586D01*
X470904D01*
Y299586D01*
X476902Y307584D02*
Y305585D01*
X475903Y304585D01*
X473903D01*
X472904Y305585D01*
Y307584D01*
X473903Y308583D01*
X474903D01*
Y304585D01*
X471904Y316581D02*
X470904Y317581D01*
Y319580D01*
X471904Y320580D01*
X472904D01*
X473903Y319580D01*
Y318580D01*
Y319580D01*
X474903Y320580D01*
X475903D01*
X476902Y319580D01*
Y317581D01*
X475903Y316581D01*
X476902Y322579D02*
X475903D01*
Y323579D01*
X476902D01*
Y322579D01*
X471904Y327577D02*
X470904Y328577D01*
Y330576D01*
X471904Y331576D01*
X472904D01*
X473903Y330576D01*
Y329577D01*
Y330576D01*
X474903Y331576D01*
X475903D01*
X476902Y330576D01*
Y328577D01*
X475903Y327577D01*
X470904Y333575D02*
X474903D01*
X476902Y335575D01*
X474903Y337574D01*
X470904D01*
X482501Y264598D02*
Y266597D01*
X483501Y267597D01*
X486500D01*
Y264598D01*
X485500Y263598D01*
X484501Y264598D01*
Y267597D01*
X486500Y269596D02*
X482501D01*
Y272595D01*
X483501Y273595D01*
X486500D01*
X480502Y279593D02*
X486500D01*
Y276594D01*
X485500Y275594D01*
X483501D01*
X482501Y276594D01*
Y279593D01*
X486500Y287590D02*
Y289590D01*
Y288590D01*
X480502D01*
X481502Y287590D01*
X486500Y292589D02*
X485500D01*
Y293588D01*
X486500D01*
Y292589D01*
X481502Y297587D02*
X480502Y298587D01*
Y300586D01*
X481502Y301586D01*
X482501D01*
X483501Y300586D01*
X484501Y301586D01*
X485500D01*
X486500Y300586D01*
Y298587D01*
X485500Y297587D01*
X484501D01*
X483501Y298587D01*
X482501Y297587D01*
X481502D01*
X483501Y298587D02*
Y300586D01*
X480502Y303585D02*
X484501D01*
X486500Y305585D01*
X484501Y307584D01*
X480502D01*
X481502Y319580D02*
X480502Y318580D01*
Y316581D01*
X481502Y315581D01*
X482501D01*
X483501Y316581D01*
Y318580D01*
X484501Y319580D01*
X485500D01*
X486500Y318580D01*
Y316581D01*
X485500Y315581D01*
X486500Y322579D02*
Y324578D01*
X485500Y325578D01*
X483501D01*
X482501Y324578D01*
Y322579D01*
X483501Y321579D01*
X485500D01*
X486500Y322579D01*
X482501Y327577D02*
X485500D01*
X486500Y328577D01*
Y331576D01*
X482501D01*
Y333575D02*
X486500D01*
X484501D01*
X483501Y334575D01*
X482501Y335575D01*
Y336574D01*
Y343572D02*
Y340573D01*
X483501Y339574D01*
X485500D01*
X486500Y340573D01*
Y343572D01*
Y348571D02*
Y346571D01*
X485500Y345571D01*
X483501D01*
X482501Y346571D01*
Y348571D01*
X483501Y349570D01*
X484501D01*
Y345571D01*
X486500Y351570D02*
Y354569D01*
X485500Y355568D01*
X484501Y354569D01*
Y352569D01*
X483501Y351570D01*
X482501Y352569D01*
Y355568D01*
X373327Y423530D02*
X370661D01*
Y421531D01*
X371994D01*
X370661D01*
Y419531D01*
X375327D02*
X376659D01*
X377326Y420198D01*
Y421531D01*
X376659Y422197D01*
X375327D01*
X374660Y421531D01*
Y420198D01*
X375327Y419531D01*
X378659Y422197D02*
Y419531D01*
Y420864D01*
X379325Y421531D01*
X379992Y422197D01*
X380658D01*
X389322Y422864D02*
X388656Y423530D01*
X387323D01*
X386656Y422864D01*
Y420198D01*
X387323Y419531D01*
X388656D01*
X389322Y420198D01*
X390655Y423530D02*
Y419531D01*
Y421531D01*
X391321Y422197D01*
X392654D01*
X393321Y421531D01*
Y419531D01*
X394654D02*
X395987D01*
X395320D01*
Y422197D01*
X394654D01*
X397986Y418198D02*
Y422197D01*
X399985D01*
X400652Y421531D01*
Y420198D01*
X399985Y419531D01*
X397986D01*
X401985Y423530D02*
Y419531D01*
X403317Y420864D01*
X404650Y419531D01*
Y423530D01*
X405983D02*
Y419531D01*
Y421531D01*
X406650Y422197D01*
X407983D01*
X408649Y421531D01*
Y419531D01*
X409982D02*
X411315D01*
X410648D01*
Y422197D01*
X409982D01*
X413314Y419531D02*
X415314D01*
X415980Y420198D01*
X415314Y420864D01*
X413981D01*
X413314Y421531D01*
X413981Y422197D01*
X415980D01*
X417313Y418198D02*
Y422197D01*
X419312D01*
X419979Y421531D01*
Y420198D01*
X419312Y419531D01*
X417313D01*
X423311D02*
X421978D01*
X421312Y420198D01*
Y421531D01*
X421978Y422197D01*
X423311D01*
X423978Y421531D01*
Y420864D01*
X421312D01*
X425311Y422197D02*
Y419531D01*
Y420864D01*
X425977Y421531D01*
X426643Y422197D01*
X427310D01*
X431309Y419531D02*
X429976D01*
X429309Y420198D01*
Y421531D01*
X429976Y422197D01*
X431309D01*
X431975Y421531D01*
Y420864D01*
X429309D01*
X433308Y422197D02*
Y419531D01*
Y420864D01*
X433974Y421531D01*
X434641Y422197D01*
X435307D01*
X376326Y414332D02*
X375660Y414999D01*
X374327D01*
X373660Y414332D01*
Y411666D01*
X374327Y411000D01*
X375660D01*
X376326Y411666D01*
X377659Y414999D02*
Y411000D01*
X378992Y412333D01*
X380325Y411000D01*
Y414999D01*
X381658Y414332D02*
X382324Y414999D01*
X383657D01*
X384324Y414332D01*
Y413666D01*
X383657Y412999D01*
X382991D01*
X383657D01*
X384324Y412333D01*
Y411666D01*
X383657Y411000D01*
X382324D01*
X381658Y411666D01*
X385657Y414332D02*
X386323Y414999D01*
X387656D01*
X388322Y414332D01*
Y411666D01*
X387656Y411000D01*
X386323D01*
X385657Y411666D01*
Y414332D01*
X389655D02*
X390322Y414999D01*
X391655D01*
X392321Y414332D01*
Y413666D01*
X391655Y412999D01*
X392321Y412333D01*
Y411666D01*
X391655Y411000D01*
X390322D01*
X389655Y411666D01*
Y412333D01*
X390322Y412999D01*
X389655Y413666D01*
Y414332D01*
X390322Y412999D02*
X391655D01*
X397653Y414999D02*
Y411666D01*
X398319Y411000D01*
X399652D01*
X400318Y411666D01*
Y414999D01*
X404317D02*
X401651D01*
Y412999D01*
X402984D01*
X401651D01*
Y411000D01*
X407650Y414999D02*
X406317D01*
X405650Y414332D01*
Y411666D01*
X406317Y411000D01*
X407650D01*
X408316Y411666D01*
Y414332D01*
X407650Y414999D01*
X413648D02*
Y411000D01*
X415647D01*
X416313Y411666D01*
Y412333D01*
X415647Y412999D01*
X413648D01*
X415647D01*
X416313Y413666D01*
Y414332D01*
X415647Y414999D01*
X413648D01*
X418313Y411000D02*
X419646D01*
X420312Y411666D01*
Y412999D01*
X419646Y413666D01*
X418313D01*
X417646Y412999D01*
Y411666D01*
X418313Y411000D01*
X422311Y413666D02*
X423644D01*
X424311Y412999D01*
Y411000D01*
X422311D01*
X421645Y411666D01*
X422311Y412333D01*
X424311D01*
X425644Y413666D02*
Y411000D01*
Y412333D01*
X426310Y412999D01*
X426977Y413666D01*
X427643D01*
X432308Y414999D02*
Y411000D01*
X430309D01*
X429642Y411666D01*
Y412999D01*
X430309Y413666D01*
X432308D01*
X366666Y366332D02*
X365999Y366999D01*
X364666D01*
X364000Y366332D01*
Y363666D01*
X364666Y363000D01*
X365999D01*
X366666Y363666D01*
X370665Y366999D02*
X369332Y366332D01*
X367999Y364999D01*
Y363666D01*
X368665Y363000D01*
X369998D01*
X370665Y363666D01*
Y364333D01*
X369998Y364999D01*
X367999D01*
X443000Y394000D02*
X439001D01*
Y395999D01*
X439668Y396666D01*
X441001D01*
X441667Y395999D01*
Y394000D01*
Y395333D02*
X443000Y396666D01*
Y397999D02*
Y399332D01*
Y398665D01*
X439001D01*
X439668Y397999D01*
Y401331D02*
X439001Y401997D01*
Y403330D01*
X439668Y403997D01*
X442334D01*
X443000Y403330D01*
Y401997D01*
X442334Y401331D01*
X439668D01*
X437000Y340000D02*
X433001D01*
Y341999D01*
X433668Y342666D01*
X435001D01*
X435667Y341999D01*
Y340000D01*
Y341333D02*
X437000Y342666D01*
X436334Y343999D02*
X437000Y344665D01*
Y345998D01*
X436334Y346665D01*
X433668D01*
X433001Y345998D01*
Y344665D01*
X433668Y343999D01*
X434334D01*
X435001Y344665D01*
Y346665D01*
X425500Y394000D02*
X421501D01*
Y395999D01*
X422168Y396666D01*
X423501D01*
X424167Y395999D01*
Y394000D01*
Y395333D02*
X425500Y396666D01*
X422168Y397999D02*
X421501Y398665D01*
Y399998D01*
X422168Y400665D01*
X422834D01*
X423501Y399998D01*
X424167Y400665D01*
X424834D01*
X425500Y399998D01*
Y398665D01*
X424834Y397999D01*
X424167D01*
X423501Y398665D01*
X422834Y397999D01*
X422168D01*
X423501Y398665D02*
Y399998D01*
X404168Y395666D02*
X403501Y394999D01*
Y393666D01*
X404168Y393000D01*
X406834D01*
X407500Y393666D01*
Y394999D01*
X406834Y395666D01*
X407500Y396999D02*
Y398332D01*
Y397665D01*
X403501D01*
X404168Y396999D01*
X407500Y400331D02*
Y401664D01*
Y400997D01*
X403501D01*
X404168Y400331D01*
X431168Y395666D02*
X430501Y394999D01*
Y393666D01*
X431168Y393000D01*
X433834D01*
X434500Y393666D01*
Y394999D01*
X433834Y395666D01*
X434500Y396999D02*
Y398332D01*
Y397665D01*
X430501D01*
X431168Y396999D01*
Y400331D02*
X430501Y400997D01*
Y402330D01*
X431168Y402997D01*
X433834D01*
X434500Y402330D01*
Y400997D01*
X433834Y400331D01*
X431168D01*
X394666Y328532D02*
X393999Y329199D01*
X392666D01*
X392000Y328532D01*
Y325866D01*
X392666Y325200D01*
X393999D01*
X394666Y325866D01*
X395999D02*
X396665Y325200D01*
X397998D01*
X398664Y325866D01*
Y328532D01*
X397998Y329199D01*
X396665D01*
X395999Y328532D01*
Y327866D01*
X396665Y327199D01*
X398664D01*
X376666Y342332D02*
X375999Y342999D01*
X374666D01*
X374000Y342332D01*
Y339666D01*
X374666Y339000D01*
X375999D01*
X376666Y339666D01*
X377999Y342332D02*
X378665Y342999D01*
X379998D01*
X380664Y342332D01*
Y341666D01*
X379998Y340999D01*
X380664Y340333D01*
Y339666D01*
X379998Y339000D01*
X378665D01*
X377999Y339666D01*
Y340333D01*
X378665Y340999D01*
X377999Y341666D01*
Y342332D01*
X378665Y340999D02*
X379998D01*
X366666Y358332D02*
X365999Y358999D01*
X364666D01*
X364000Y358332D01*
Y355666D01*
X364666Y355000D01*
X365999D01*
X366666Y355666D01*
X367999Y358999D02*
X370665D01*
Y358332D01*
X367999Y355666D01*
Y355000D01*
X410100Y275500D02*
Y279499D01*
X412099D01*
X412766Y278832D01*
Y277499D01*
X412099Y276833D01*
X410100D01*
X411433D02*
X412766Y275500D01*
X414099Y279499D02*
X416764D01*
Y278832D01*
X414099Y276166D01*
Y275500D01*
X397100Y290500D02*
X393101D01*
Y292499D01*
X393768Y293166D01*
X395101D01*
X395767Y292499D01*
Y290500D01*
Y291833D02*
X397100Y293166D01*
X393101Y297165D02*
X393768Y295832D01*
X395101Y294499D01*
X396434D01*
X397100Y295165D01*
Y296498D01*
X396434Y297165D01*
X395767D01*
X395101Y296498D01*
Y294499D01*
X416100Y290500D02*
X412101D01*
Y292499D01*
X412768Y293166D01*
X414101D01*
X414767Y292499D01*
Y290500D01*
Y291833D02*
X416100Y293166D01*
X412101Y297165D02*
Y294499D01*
X414101D01*
X413434Y295832D01*
Y296498D01*
X414101Y297165D01*
X415434D01*
X416100Y296498D01*
Y295165D01*
X415434Y294499D01*
X371407Y303500D02*
Y307499D01*
X373406D01*
X374073Y306832D01*
Y305499D01*
X373406Y304833D01*
X371407D01*
X372740D02*
X374073Y303500D01*
X377405D02*
Y307499D01*
X375406Y305499D01*
X378072D01*
X397100Y275500D02*
Y279499D01*
X399099D01*
X399766Y278832D01*
Y277499D01*
X399099Y276833D01*
X397100D01*
X398433D02*
X399766Y275500D01*
X401099Y278832D02*
X401765Y279499D01*
X403098D01*
X403764Y278832D01*
Y278166D01*
X403098Y277499D01*
X402432D01*
X403098D01*
X403764Y276833D01*
Y276166D01*
X403098Y275500D01*
X401765D01*
X401099Y276166D01*
X371100Y295500D02*
Y299499D01*
X373099D01*
X373766Y298832D01*
Y297499D01*
X373099Y296833D01*
X371100D01*
X372433D02*
X373766Y295500D01*
X377765D02*
X375099D01*
X377765Y298166D01*
Y298832D01*
X377098Y299499D01*
X375765D01*
X375099Y298832D01*
X379666Y265499D02*
X378333D01*
X378999D01*
Y262166D01*
X378333Y261500D01*
X377666D01*
X377000Y262166D01*
X383664Y261500D02*
X380999D01*
X383664Y264166D01*
Y264832D01*
X382998Y265499D01*
X381665D01*
X380999Y264832D01*
X399766Y312832D02*
X399099Y313499D01*
X397766D01*
X397100Y312832D01*
Y310166D01*
X397766Y309500D01*
X399099D01*
X399766Y310166D01*
X403098Y309500D02*
Y313499D01*
X401099Y311499D01*
X403764D01*
X412766Y312832D02*
X412099Y313499D01*
X410766D01*
X410100Y312832D01*
Y310166D01*
X410766Y309500D01*
X412099D01*
X412766Y310166D01*
X414099Y312832D02*
X414765Y313499D01*
X416098D01*
X416764Y312832D01*
Y312166D01*
X416098Y311499D01*
X415432D01*
X416098D01*
X416764Y310833D01*
Y310166D01*
X416098Y309500D01*
X414765D01*
X414099Y310166D01*
X384500Y377499D02*
Y374166D01*
X385166Y373500D01*
X386499D01*
X387166Y374166D01*
Y377499D01*
X388499Y373500D02*
X389832D01*
X389165D01*
Y377499D01*
X388499Y376832D01*
X464168Y369666D02*
X463501Y368999D01*
Y367666D01*
X464168Y367000D01*
X466834D01*
X467500Y367666D01*
Y368999D01*
X466834Y369666D01*
X467500Y370999D02*
Y372332D01*
Y371665D01*
X463501D01*
X464168Y370999D01*
X472168Y369666D02*
X471501Y368999D01*
Y367666D01*
X472168Y367000D01*
X474834D01*
X475500Y367666D01*
Y368999D01*
X474834Y369666D01*
X475500Y373664D02*
Y370999D01*
X472834Y373664D01*
X472168D01*
X471501Y372998D01*
Y371665D01*
X472168Y370999D01*
X307066Y414499D02*
X305733D01*
X306399D01*
Y411166D01*
X305733Y410500D01*
X305066D01*
X304400Y411166D01*
X308399Y410500D02*
X309732D01*
X309065D01*
Y414499D01*
X308399Y413832D01*
X447647Y367700D02*
Y371699D01*
X449646D01*
X450312Y371032D01*
Y369699D01*
X449646Y369033D01*
X447647D01*
X448979D02*
X450312Y367700D01*
X451645D02*
X452978D01*
X452312D01*
Y371699D01*
X451645Y371032D01*
X395668Y395666D02*
X395001Y394999D01*
Y393666D01*
X395668Y393000D01*
X398334D01*
X399000Y393666D01*
Y394999D01*
X398334Y395666D01*
X395001Y399664D02*
Y396999D01*
X397001D01*
X396334Y398332D01*
Y398998D01*
X397001Y399664D01*
X398334D01*
X399000Y398998D01*
Y397665D01*
X398334Y396999D01*
X429168Y363166D02*
X428501Y362499D01*
Y361166D01*
X429168Y360500D01*
X431834D01*
X432500Y361166D01*
Y362499D01*
X431834Y363166D01*
X432500Y364499D02*
Y365832D01*
Y365165D01*
X428501D01*
X429168Y364499D01*
X432500Y370497D02*
Y367831D01*
X429834Y370497D01*
X429168D01*
X428501Y369830D01*
Y368497D01*
X429168Y367831D01*
X317500Y320500D02*
Y326498D01*
X320499D01*
X321499Y325498D01*
Y323499D01*
X320499Y322499D01*
X317500D01*
X323498Y320500D02*
Y324499D01*
X325497Y326498D01*
X327497Y324499D01*
Y320500D01*
Y323499D01*
X323498D01*
X329496Y325498D02*
X330496Y326498D01*
X332495D01*
X333495Y325498D01*
Y321500D01*
X332495Y320500D01*
X330496D01*
X329496Y321500D01*
Y325498D01*
X335494Y326498D02*
X339493D01*
Y325498D01*
X335494Y321500D01*
Y320500D01*
X317500Y310500D02*
Y316498D01*
X320499D01*
X321499Y315498D01*
Y313499D01*
X320499Y312499D01*
X317500D01*
X323498Y310500D02*
Y314499D01*
X325497Y316498D01*
X327497Y314499D01*
Y310500D01*
Y313499D01*
X323498D01*
X329496Y315498D02*
X330496Y316498D01*
X332495D01*
X333495Y315498D01*
Y311500D01*
X332495Y310500D01*
X330496D01*
X329496Y311500D01*
Y315498D01*
X339493Y316498D02*
X337493Y315498D01*
X335494Y313499D01*
Y311500D01*
X336494Y310500D01*
X338493D01*
X339493Y311500D01*
Y312499D01*
X338493Y313499D01*
X335494D01*
X354499Y432998D02*
X353499Y433998D01*
X351500D01*
X350500Y432998D01*
Y431999D01*
X351500Y430999D01*
X353499D01*
X354499Y429999D01*
Y429000D01*
X353499Y428000D01*
X351500D01*
X350500Y429000D01*
X356498Y428000D02*
Y431999D01*
X358497Y433998D01*
X360497Y431999D01*
Y428000D01*
Y430999D01*
X356498D01*
X362496Y428000D02*
Y433998D01*
X364495Y431999D01*
X366495Y433998D01*
Y428000D01*
X371493D02*
Y433998D01*
X368494Y430999D01*
X372493D01*
X374492Y433998D02*
Y428000D01*
X378491D01*
X386488Y433998D02*
X390487D01*
X388488D01*
Y428000D01*
X393486Y431999D02*
X395485D01*
X396485Y430999D01*
Y428000D01*
X393486D01*
X392486Y429000D01*
X393486Y429999D01*
X396485D01*
X398484Y431999D02*
Y428000D01*
Y429999D01*
X399484Y430999D01*
X400484Y431999D01*
X401483D01*
X406482Y426001D02*
X407482D01*
X408481Y427000D01*
Y431999D01*
X405482D01*
X404483Y430999D01*
Y429000D01*
X405482Y428000D01*
X408481D01*
X413480D02*
X411480D01*
X410481Y429000D01*
Y430999D01*
X411480Y431999D01*
X413480D01*
X414479Y430999D01*
Y429999D01*
X410481D01*
X417478Y432998D02*
Y431999D01*
X416479D01*
X418478D01*
X417478D01*
Y429000D01*
X418478Y428000D01*
X427475Y433998D02*
Y428000D01*
X430474D01*
X431474Y429000D01*
Y429999D01*
X430474Y430999D01*
X427475D01*
X430474D01*
X431474Y431999D01*
Y432998D01*
X430474Y433998D01*
X427475D01*
X434473Y428000D02*
X436472D01*
X437472Y429000D01*
Y430999D01*
X436472Y431999D01*
X434473D01*
X433473Y430999D01*
Y429000D01*
X434473Y428000D01*
X440471Y431999D02*
X442470D01*
X443470Y430999D01*
Y428000D01*
X440471D01*
X439471Y429000D01*
X440471Y429999D01*
X443470D01*
X445469Y431999D02*
Y428000D01*
Y429999D01*
X446469Y430999D01*
X447469Y431999D01*
X448468D01*
X455466Y433998D02*
Y428000D01*
X452467D01*
X451467Y429000D01*
Y430999D01*
X452467Y431999D01*
X455466D01*
X370500Y285497D02*
Y278833D01*
X371833Y277500D01*
X374499D01*
X375832Y278833D01*
Y285497D01*
X383829Y284165D02*
X382496Y285497D01*
X379830D01*
X378497Y284165D01*
Y282832D01*
X379830Y281499D01*
X382496D01*
X383829Y280166D01*
Y278833D01*
X382496Y277500D01*
X379830D01*
X378497Y278833D01*
X386495Y285497D02*
Y277500D01*
X390493D01*
X391826Y278833D01*
Y280166D01*
X390493Y281499D01*
X386495D01*
X390493D01*
X391826Y282832D01*
Y284165D01*
X390493Y285497D01*
X386495D01*
X317500Y330500D02*
Y336498D01*
X320499D01*
X321499Y335498D01*
Y333499D01*
X320499Y332499D01*
X317500D01*
X323498Y330500D02*
Y334499D01*
X325497Y336498D01*
X327497Y334499D01*
Y330500D01*
Y333499D01*
X323498D01*
X329496Y330500D02*
X331495D01*
X330496D01*
Y336498D01*
X329496Y335498D01*
X334494Y330500D02*
X336494D01*
X335494D01*
Y336498D01*
X334494Y335498D01*
X339493Y330500D02*
X343492Y334499D01*
X345491Y330500D02*
Y336498D01*
X348490D01*
X349490Y335498D01*
Y333499D01*
X348490Y332499D01*
X345491D01*
X347490D02*
X349490Y330500D01*
X351489Y336498D02*
X355488Y330500D01*
Y336498D02*
X351489Y330500D01*
X317500Y340500D02*
Y346498D01*
X320499D01*
X321499Y345498D01*
Y343499D01*
X320499Y342499D01*
X317500D01*
X323498Y340500D02*
Y344499D01*
X325497Y346498D01*
X327497Y344499D01*
Y340500D01*
Y343499D01*
X323498D01*
X329496Y340500D02*
X331495D01*
X330496D01*
Y346498D01*
X329496Y345498D01*
X338493Y340500D02*
X334494D01*
X338493Y344499D01*
Y345498D01*
X337493Y346498D01*
X335494D01*
X334494Y345498D01*
X340493Y340500D02*
X344491Y344499D01*
X346491Y346498D02*
X350489D01*
X348490D01*
Y340500D01*
X352489Y346498D02*
X356487Y340500D01*
Y346498D02*
X352489Y340500D01*
X317500Y300500D02*
Y306498D01*
X320499D01*
X321499Y305498D01*
Y303499D01*
X320499Y302499D01*
X317500D01*
X319499D02*
X321499Y300500D01*
X327497Y305498D02*
X326497Y306498D01*
X324498D01*
X323498Y305498D01*
Y304499D01*
X324498Y303499D01*
X326497D01*
X327497Y302499D01*
Y301500D01*
X326497Y300500D01*
X324498D01*
X323498Y301500D01*
X329496Y306498D02*
X333495D01*
X331495D01*
Y300500D01*
X317500Y290500D02*
Y296498D01*
X320499D01*
X321499Y295498D01*
Y293499D01*
X320499Y292499D01*
X317500D01*
X323498Y290500D02*
Y294499D01*
X325497Y296498D01*
X327497Y294499D01*
Y290500D01*
Y293499D01*
X323498D01*
X333495Y290500D02*
X329496D01*
X333495Y294499D01*
Y295498D01*
X332495Y296498D01*
X330496D01*
X329496Y295498D01*
X335494D02*
X336494Y296498D01*
X338493D01*
X339493Y295498D01*
Y294499D01*
X338493Y293499D01*
X337493D01*
X338493D01*
X339493Y292499D01*
Y291500D01*
X338493Y290500D01*
X336494D01*
X335494Y291500D01*
X317500Y280500D02*
Y286498D01*
X320499D01*
X321499Y285498D01*
Y283499D01*
X320499Y282499D01*
X317500D01*
X323498Y280500D02*
Y284499D01*
X325497Y286498D01*
X327497Y284499D01*
Y280500D01*
Y283499D01*
X323498D01*
X333495Y280500D02*
X329496D01*
X333495Y284499D01*
Y285498D01*
X332495Y286498D01*
X330496D01*
X329496Y285498D01*
X335494Y280500D02*
X337493D01*
X336494D01*
Y286498D01*
X335494Y285498D01*
X317500Y270500D02*
Y276498D01*
X320499D01*
X321499Y275498D01*
Y273499D01*
X320499Y272499D01*
X317500D01*
X323498Y270500D02*
Y274499D01*
X325497Y276498D01*
X327497Y274499D01*
Y270500D01*
Y273499D01*
X323498D01*
X333495Y270500D02*
X329496D01*
X333495Y274499D01*
Y275498D01*
X332495Y276498D01*
X330496D01*
X329496Y275498D01*
X339493Y270500D02*
X335494D01*
X339493Y274499D01*
Y275498D01*
X338493Y276498D01*
X336494D01*
X335494Y275498D01*
X331000Y202500D02*
X325002D01*
Y205499D01*
X326002Y206499D01*
X328001D01*
X329001Y205499D01*
Y202500D01*
X331000Y208498D02*
X327001D01*
X325002Y210497D01*
X327001Y212497D01*
X331000D01*
X328001D01*
Y208498D01*
X331000Y218495D02*
Y214496D01*
X327001Y218495D01*
X326002D01*
X325002Y217495D01*
Y215496D01*
X326002Y214496D01*
X331000Y223493D02*
X325002D01*
X328001Y220494D01*
Y224493D01*
X341000Y202500D02*
X335002D01*
Y205499D01*
X336002Y206499D01*
X338001D01*
X339001Y205499D01*
Y202500D01*
X341000Y208498D02*
X337001D01*
X335002Y210497D01*
X337001Y212497D01*
X341000D01*
X338001D01*
Y208498D01*
X341000Y218495D02*
Y214496D01*
X337001Y218495D01*
X336002D01*
X335002Y217495D01*
Y215496D01*
X336002Y214496D01*
Y220494D02*
X335002Y221494D01*
Y223493D01*
X336002Y224493D01*
X337001D01*
X338001Y223493D01*
Y222494D01*
Y223493D01*
X339001Y224493D01*
X340000D01*
X341000Y223493D01*
Y221494D01*
X340000Y220494D01*
X351000Y202500D02*
X345002D01*
Y205499D01*
X346002Y206499D01*
X348001D01*
X349001Y205499D01*
Y202500D01*
X351000Y208498D02*
X347001D01*
X345002Y210497D01*
X347001Y212497D01*
X351000D01*
X348001D01*
Y208498D01*
X346002Y214496D02*
X345002Y215496D01*
Y217495D01*
X346002Y218495D01*
X350000D01*
X351000Y217495D01*
Y215496D01*
X350000Y214496D01*
X346002D01*
Y220494D02*
X345002Y221494D01*
Y223493D01*
X346002Y224493D01*
X347001D01*
X348001Y223493D01*
Y222494D01*
Y223493D01*
X349001Y224493D01*
X350000D01*
X351000Y223493D01*
Y221494D01*
X350000Y220494D01*
X355002Y202500D02*
Y206499D01*
Y204499D01*
X361000D01*
X356002Y212497D02*
X355002Y211497D01*
Y209498D01*
X356002Y208498D01*
X360000D01*
X361000Y209498D01*
Y211497D01*
X360000Y212497D01*
X355002Y214496D02*
X361000D01*
X359001D01*
X355002Y218495D01*
X358001Y215496D01*
X361000Y218495D01*
X381000Y202500D02*
X375002D01*
Y205499D01*
X376002Y206499D01*
X378001D01*
X379001Y205499D01*
Y202500D01*
Y204499D02*
X381000Y206499D01*
X376002Y212497D02*
X375002Y211497D01*
Y209498D01*
X376002Y208498D01*
X377001D01*
X378001Y209498D01*
Y211497D01*
X379001Y212497D01*
X380000D01*
X381000Y211497D01*
Y209498D01*
X380000Y208498D01*
X375002Y214496D02*
Y218495D01*
Y216495D01*
X381000D01*
X466000Y230500D02*
Y236498D01*
X468999D01*
X469999Y235498D01*
Y233499D01*
X468999Y232499D01*
X466000D01*
X471998Y230500D02*
Y234499D01*
X473997Y236498D01*
X475997Y234499D01*
Y230500D01*
Y233499D01*
X471998D01*
X477996Y235498D02*
X478996Y236498D01*
X480995D01*
X481995Y235498D01*
Y231500D01*
X480995Y230500D01*
X478996D01*
X477996Y231500D01*
Y235498D01*
X483994D02*
X484994Y236498D01*
X486993D01*
X487993Y235498D01*
Y231500D01*
X486993Y230500D01*
X484994D01*
X483994Y231500D01*
Y235498D01*
X466000Y221000D02*
Y226998D01*
X468999D01*
X469999Y225998D01*
Y223999D01*
X468999Y222999D01*
X466000D01*
X471998Y221000D02*
Y224999D01*
X473997Y226998D01*
X475997Y224999D01*
Y221000D01*
Y223999D01*
X471998D01*
X477996Y225998D02*
X478996Y226998D01*
X480995D01*
X481995Y225998D01*
Y222000D01*
X480995Y221000D01*
X478996D01*
X477996Y222000D01*
Y225998D01*
X483994Y221000D02*
X485993D01*
X484994D01*
Y226998D01*
X483994Y225998D01*
X466000Y210500D02*
Y216498D01*
X468999D01*
X469999Y215498D01*
Y213499D01*
X468999Y212499D01*
X466000D01*
X471998Y210500D02*
Y214499D01*
X473997Y216498D01*
X475997Y214499D01*
Y210500D01*
Y213499D01*
X471998D01*
X477996Y215498D02*
X478996Y216498D01*
X480995D01*
X481995Y215498D01*
Y211500D01*
X480995Y210500D01*
X478996D01*
X477996Y211500D01*
Y215498D01*
X486993Y210500D02*
Y216498D01*
X483994Y213499D01*
X487993D01*
D17*
X367000Y254000D02*
X423000D01*
X367000D02*
Y315700D01*
X423000Y254000D02*
Y315700D01*
X367000D02*
X423000D01*
D21*
X387021Y269012D02*
G03*
X385840Y267831I0J-1181D01*
G01*
X418124Y268224D02*
G03*
X417336Y269012I-787J0D01*
G01*
X417336Y259169D02*
G03*
X418124Y261070I-1901J1901D01*
G01*
X385840D02*
G03*
X386628Y259169I2688J0D01*
G01*
X387021Y269012D02*
X387577D01*
X416169D02*
X417336D01*
X418124Y261070D02*
Y268224D01*
X385840Y261070D02*
Y267831D01*
D23*
X300000Y185500D02*
X505500D01*
Y439500D01*
X300000D02*
X505500D01*
X300000Y185500D02*
Y439500D01*
D34*
X434634Y279436D02*
G03*
X434634Y279436I-223J0D01*
G01*
D35*
X422028Y344417D02*
G03*
X422028Y344417I-492J0D01*
G01*
D36*
X414449Y349732D02*
G03*
X414449Y349732I-1181J0D01*
G01*
D37*
X433744Y360382D02*
X439256D01*
X433744Y370618D02*
X439256D01*
Y360382D02*
Y370618D01*
X433744Y360382D02*
Y370618D01*
X394244Y381382D02*
Y391618D01*
X399756Y381382D02*
Y391618D01*
X394244D02*
X399756D01*
X394244Y381382D02*
X399756D01*
X470744Y365618D02*
X476256D01*
X470744Y355382D02*
X476256D01*
X470744D02*
Y365618D01*
X476256Y355382D02*
Y365618D01*
X468256Y355382D02*
Y365618D01*
X462744Y355382D02*
Y365618D01*
Y355382D02*
X468256D01*
X462744Y365618D02*
X468256D01*
X408738Y302744D02*
Y308256D01*
X418974Y302744D02*
Y308256D01*
X408738Y302744D02*
X418974D01*
X408738Y308256D02*
X418974D01*
X395226Y302744D02*
X405462D01*
X395226Y308256D02*
X405462D01*
X395226Y302744D02*
Y308256D01*
X405462Y302744D02*
Y308256D01*
X382374Y354244D02*
Y359756D01*
X372138Y354244D02*
Y359756D01*
X382374D01*
X372138Y354244D02*
X382374D01*
X372126Y332244D02*
X382362D01*
X372126Y337756D02*
X382362D01*
X372126Y332244D02*
Y337756D01*
X382362Y332244D02*
Y337756D01*
X400774Y318344D02*
Y323856D01*
X390538Y318344D02*
Y323856D01*
X400774D01*
X390538Y318344D02*
X400774D01*
X429744Y381382D02*
Y391618D01*
X435256Y381382D02*
Y391618D01*
X429744D02*
X435256D01*
X429744Y381382D02*
X435256D01*
X402744D02*
X408256D01*
X402744Y391618D02*
X408256D01*
Y381382D02*
Y391618D01*
X402744Y381382D02*
Y391618D01*
X372126Y362244D02*
X382362D01*
X372126Y367756D02*
X382362D01*
X372126Y362244D02*
Y367756D01*
X382362Y362244D02*
Y367756D01*
X432244Y326441D02*
X437756D01*
X432244Y338252D02*
X437756D01*
X432244Y326441D02*
Y338252D01*
X437756Y326441D02*
Y338252D01*
X438244Y380594D02*
X443756D01*
X438244Y392406D02*
X443756D01*
X438244Y380594D02*
Y392406D01*
X443756Y380594D02*
Y392406D01*
X420744Y380594D02*
X426256D01*
X420744Y392406D02*
X426256D01*
X420744Y380594D02*
Y392406D01*
X426256Y380594D02*
Y392406D01*
X444095Y360744D02*
X455905D01*
X444095Y366256D02*
X455905D01*
Y360744D02*
Y366256D01*
X444095Y360744D02*
Y366256D01*
X390659Y302744D02*
Y308256D01*
X378848Y302744D02*
Y308256D01*
Y302744D02*
X390659D01*
X378848Y308256D02*
X390659D01*
X378848Y294744D02*
Y300256D01*
X390659Y294744D02*
Y300256D01*
X378848D02*
X390659D01*
X378848Y294744D02*
X390659D01*
X405344Y300059D02*
X410856D01*
X405344Y288248D02*
X410856D01*
Y300059D01*
X405344Y288248D02*
Y300059D01*
X398344Y288248D02*
X403856D01*
X398344Y300059D02*
X403856D01*
X398344Y288248D02*
Y300059D01*
X403856Y288248D02*
Y300059D01*
X406659Y280744D02*
Y286256D01*
X394848Y280744D02*
Y286256D01*
Y280744D02*
X406659D01*
X394848Y286256D02*
X406659D01*
X408541Y280744D02*
Y286256D01*
X420352Y280744D02*
Y286256D01*
X408541D02*
X420352D01*
X408541Y280744D02*
X420352D01*
D38*
X417205Y345795D02*
Y370205D01*
X392795Y345795D02*
Y370205D01*
Y345795D02*
X417205D01*
X392795Y370205D02*
X417205D01*
X414974Y256807D02*
X417336Y259169D01*
X388990Y256807D02*
X414974D01*
X386628Y259169D02*
X388990Y256807D01*
X387577Y269012D02*
X416169D01*
M02*
