G04 Layer_Physical_Order=2*
G04 Layer_Color=16711680*
%FSLAX25Y25*%
%MOIN*%
G70*
G01*
G75*
%ADD16C,0.01000*%
%ADD17C,0.02000*%
%ADD19C,0.03000*%
%ADD23C,0.00500*%
G04:AMPARAMS|DCode=24|XSize=39.37mil|YSize=62.99mil|CornerRadius=19.68mil|HoleSize=0mil|Usage=FLASHONLY|Rotation=0.000|XOffset=0mil|YOffset=0mil|HoleType=Round|Shape=RoundedRectangle|*
%AMROUNDEDRECTD24*
21,1,0.03937,0.02362,0,0,0.0*
21,1,0.00000,0.06299,0,0,0.0*
1,1,0.03937,0.00000,-0.01181*
1,1,0.03937,0.00000,-0.01181*
1,1,0.03937,0.00000,0.01181*
1,1,0.03937,0.00000,0.01181*
%
%ADD24ROUNDEDRECTD24*%
%ADD25C,0.02953*%
%ADD26C,0.25000*%
%ADD27O,0.11000X0.06000*%
%ADD28R,0.11000X0.06000*%
%ADD29O,0.06000X0.11000*%
%ADD30R,0.06000X0.11000*%
%ADD31C,0.02400*%
%ADD32C,0.03400*%
%ADD33R,0.05000X0.02500*%
G36*
X368721Y206000D02*
X365960Y203240D01*
X365479Y202613D01*
X365177Y201883D01*
X365074Y201100D01*
Y199857D01*
X364434Y199366D01*
X363632Y198322D01*
X363129Y197105D01*
X362957Y195800D01*
Y190800D01*
X362732Y190543D01*
X361856D01*
X361631Y190800D01*
Y195800D01*
X361507Y196740D01*
X361145Y197616D01*
X360567Y198368D01*
X359816Y198945D01*
X358940Y199307D01*
X358000Y199431D01*
X357060Y199307D01*
X356185Y198945D01*
X355433Y198368D01*
X354855Y197616D01*
X354493Y196740D01*
X354369Y195800D01*
Y190800D01*
X354144Y190543D01*
X351856D01*
X351631Y190800D01*
Y195800D01*
X351507Y196740D01*
X351145Y197616D01*
X350568Y198368D01*
X349816Y198945D01*
X348940Y199307D01*
X348000Y199431D01*
X347060Y199307D01*
X346184Y198945D01*
X345432Y198368D01*
X344855Y197616D01*
X344493Y196740D01*
X344369Y195800D01*
Y190800D01*
X344144Y190543D01*
X341856D01*
X341631Y190800D01*
Y195800D01*
X341507Y196740D01*
X341145Y197616D01*
X340567Y198368D01*
X339815Y198945D01*
X338940Y199307D01*
X338000Y199431D01*
X337060Y199307D01*
X336185Y198945D01*
X335433Y198368D01*
X334855Y197616D01*
X334493Y196740D01*
X334369Y195800D01*
Y190800D01*
X334144Y190543D01*
X331856D01*
X331631Y190800D01*
Y195800D01*
X331507Y196740D01*
X331145Y197616D01*
X330568Y198368D01*
X329816Y198945D01*
X328940Y199307D01*
X328000Y199431D01*
X327060Y199307D01*
X326185Y198945D01*
X325432Y198368D01*
X324855Y197616D01*
X324493Y196740D01*
X324369Y195800D01*
Y190800D01*
X324144Y190543D01*
X321856D01*
X321631Y190800D01*
Y195800D01*
X321507Y196740D01*
X321145Y197616D01*
X320567Y198368D01*
X319815Y198945D01*
X318940Y199307D01*
X318000Y199431D01*
X317060Y199307D01*
X316184Y198945D01*
X315433Y198368D01*
X314855Y197616D01*
X314493Y196740D01*
X314369Y195800D01*
Y190800D01*
X314144Y190543D01*
X312000D01*
Y192800D01*
X308000D01*
Y193300D01*
X307500D01*
Y199800D01*
X305043D01*
Y207862D01*
X305494Y208258D01*
X305500Y208257D01*
X310500D01*
X311805Y208429D01*
X313022Y208932D01*
X314066Y209734D01*
X314480Y210274D01*
X364447D01*
X368721Y206000D01*
D02*
G37*
G36*
X500457Y407300D02*
X498500D01*
Y403300D01*
Y399300D01*
X500457D01*
Y396931D01*
X495500D01*
X494560Y396807D01*
X493684Y396445D01*
X492932Y395867D01*
X492355Y395115D01*
X491993Y394240D01*
X491869Y393300D01*
X491993Y392360D01*
X492355Y391484D01*
X492932Y390733D01*
X493684Y390155D01*
X494560Y389793D01*
X495500Y389669D01*
X500457D01*
Y386931D01*
X495500D01*
X494560Y386807D01*
X493684Y386445D01*
X492932Y385868D01*
X492355Y385116D01*
X491993Y384240D01*
X491869Y383300D01*
X491993Y382360D01*
X492355Y381485D01*
X492932Y380732D01*
X493684Y380155D01*
X494560Y379793D01*
X495500Y379669D01*
X500457D01*
Y377334D01*
X498500D01*
Y373300D01*
Y369266D01*
X500457D01*
Y366931D01*
X495500D01*
X494560Y366807D01*
X493684Y366445D01*
X492932Y365867D01*
X492355Y365115D01*
X491993Y364240D01*
X491869Y363300D01*
X491993Y362360D01*
X492355Y361485D01*
X492932Y360733D01*
X493684Y360155D01*
X494560Y359793D01*
X495500Y359669D01*
X500457D01*
Y356931D01*
X495500D01*
X494560Y356807D01*
X493684Y356445D01*
X492932Y355868D01*
X492355Y355116D01*
X491993Y354240D01*
X491869Y353300D01*
X491993Y352360D01*
X492355Y351484D01*
X492932Y350732D01*
X493684Y350155D01*
X494560Y349793D01*
X495500Y349669D01*
X500457D01*
Y347335D01*
X498500D01*
Y343300D01*
Y339265D01*
X500457D01*
Y338343D01*
X495500D01*
X494195Y338171D01*
X492978Y337667D01*
X491934Y336866D01*
X491132Y335822D01*
X490629Y334605D01*
X490457Y333300D01*
X490629Y331995D01*
X491132Y330778D01*
X491934Y329734D01*
X492978Y328932D01*
X494195Y328429D01*
X495500Y328257D01*
X500457D01*
Y327334D01*
X498500D01*
Y323300D01*
Y319266D01*
X500457D01*
Y317335D01*
X498500D01*
Y313300D01*
Y309265D01*
X500457D01*
Y306931D01*
X495500D01*
X494560Y306807D01*
X493684Y306445D01*
X492932Y305868D01*
X492355Y305116D01*
X491993Y304240D01*
X491869Y303300D01*
X491993Y302360D01*
X492355Y301484D01*
X492932Y300732D01*
X493684Y300155D01*
X494560Y299793D01*
X495500Y299669D01*
X500457D01*
Y298343D01*
X495500D01*
X494195Y298171D01*
X492978Y297668D01*
X491934Y296866D01*
X491132Y295822D01*
X490629Y294605D01*
X490457Y293300D01*
X490629Y291995D01*
X491132Y290778D01*
X491934Y289734D01*
X492978Y288932D01*
X494195Y288429D01*
X495500Y288257D01*
X500457D01*
Y286931D01*
X495500D01*
X494560Y286807D01*
X493684Y286445D01*
X492932Y285868D01*
X492355Y285116D01*
X491993Y284240D01*
X491869Y283300D01*
X491993Y282360D01*
X492355Y281485D01*
X492932Y280732D01*
X493684Y280155D01*
X494560Y279793D01*
X495500Y279669D01*
X500457D01*
Y278343D01*
X495500D01*
X494195Y278171D01*
X492978Y277667D01*
X491934Y276866D01*
X491132Y275822D01*
X490629Y274605D01*
X490457Y273300D01*
X490629Y271995D01*
X491132Y270778D01*
X491934Y269734D01*
X492978Y268933D01*
X494195Y268429D01*
X495500Y268257D01*
X500457D01*
Y266931D01*
X495500D01*
X494560Y266807D01*
X493684Y266445D01*
X492932Y265867D01*
X492355Y265115D01*
X491993Y264240D01*
X491869Y263300D01*
X491993Y262360D01*
X492355Y261485D01*
X492932Y260733D01*
X493684Y260155D01*
X494560Y259793D01*
X495500Y259669D01*
X500457D01*
Y257334D01*
X498500D01*
Y253300D01*
Y249266D01*
X500457D01*
Y247335D01*
X498500D01*
Y243300D01*
Y239265D01*
X500457D01*
Y236931D01*
X495500D01*
X494560Y236807D01*
X493684Y236445D01*
X492932Y235868D01*
X492355Y235116D01*
X491993Y234240D01*
X491869Y233300D01*
X491993Y232360D01*
X492355Y231485D01*
X492932Y230732D01*
X493684Y230155D01*
X494560Y229793D01*
X495500Y229669D01*
X500457D01*
Y226931D01*
X495500D01*
X494560Y226807D01*
X493684Y226445D01*
X492932Y225868D01*
X492355Y225115D01*
X491993Y224240D01*
X491869Y223300D01*
X491993Y222360D01*
X492355Y221484D01*
X492932Y220732D01*
X493684Y220155D01*
X494560Y219793D01*
X495500Y219669D01*
X500457D01*
Y216931D01*
X495500D01*
X494560Y216807D01*
X493684Y216445D01*
X492932Y215867D01*
X492355Y215115D01*
X491993Y214240D01*
X491869Y213300D01*
X491993Y212360D01*
X492355Y211485D01*
X492932Y210733D01*
X493684Y210155D01*
X494560Y209793D01*
X495500Y209669D01*
X500457D01*
Y199131D01*
X499919Y198865D01*
X499816Y198945D01*
X498940Y199307D01*
X498000Y199431D01*
X497060Y199307D01*
X496184Y198945D01*
X495432Y198368D01*
X494855Y197616D01*
X494493Y196740D01*
X494369Y195800D01*
Y190800D01*
X494144Y190543D01*
X491856D01*
X491631Y190800D01*
Y195800D01*
X491507Y196740D01*
X491145Y197616D01*
X490568Y198368D01*
X489816Y198945D01*
X488940Y199307D01*
X488000Y199431D01*
X487060Y199307D01*
X486185Y198945D01*
X485432Y198368D01*
X484855Y197616D01*
X484493Y196740D01*
X484369Y195800D01*
Y190800D01*
X484144Y190543D01*
X481856D01*
X481631Y190800D01*
Y195800D01*
X481507Y196740D01*
X481145Y197616D01*
X480568Y198368D01*
X479815Y198945D01*
X478940Y199307D01*
X478000Y199431D01*
X477060Y199307D01*
X476185Y198945D01*
X475432Y198368D01*
X474855Y197616D01*
X474493Y196740D01*
X474369Y195800D01*
Y190800D01*
X474144Y190543D01*
X471856D01*
X471631Y190800D01*
Y195800D01*
X471507Y196740D01*
X471145Y197616D01*
X470568Y198368D01*
X469815Y198945D01*
X468940Y199307D01*
X468000Y199431D01*
X467060Y199307D01*
X466185Y198945D01*
X465432Y198368D01*
X464855Y197616D01*
X464493Y196740D01*
X464369Y195800D01*
Y190800D01*
X464144Y190543D01*
X461856D01*
X461631Y190800D01*
Y195800D01*
X461507Y196740D01*
X461145Y197616D01*
X460568Y198368D01*
X459816Y198945D01*
X458940Y199307D01*
X458000Y199431D01*
X457060Y199307D01*
X456184Y198945D01*
X455432Y198368D01*
X454855Y197616D01*
X454493Y196740D01*
X454369Y195800D01*
Y190800D01*
X454144Y190543D01*
X451856D01*
X451631Y190800D01*
Y195800D01*
X451507Y196740D01*
X451145Y197616D01*
X450568Y198368D01*
X449816Y198945D01*
X448940Y199307D01*
X448000Y199431D01*
X447060Y199307D01*
X446184Y198945D01*
X445432Y198368D01*
X444855Y197616D01*
X444493Y196740D01*
X444369Y195800D01*
Y190800D01*
X444144Y190543D01*
X441856D01*
X441631Y190800D01*
Y195800D01*
X441507Y196740D01*
X441145Y197616D01*
X440568Y198368D01*
X439816Y198945D01*
X438940Y199307D01*
X438000Y199431D01*
X437060Y199307D01*
X436185Y198945D01*
X435432Y198368D01*
X434855Y197616D01*
X434493Y196740D01*
X434369Y195800D01*
Y190800D01*
X434144Y190543D01*
X431856D01*
X431631Y190800D01*
Y195800D01*
X431507Y196740D01*
X431145Y197616D01*
X430568Y198368D01*
X429815Y198945D01*
X428940Y199307D01*
X428000Y199431D01*
X427060Y199307D01*
X426185Y198945D01*
X425432Y198368D01*
X424855Y197616D01*
X424493Y196740D01*
X424369Y195800D01*
Y190800D01*
X424144Y190543D01*
X421856D01*
X421631Y190800D01*
Y195800D01*
X421507Y196740D01*
X421145Y197616D01*
X420568Y198368D01*
X419815Y198945D01*
X418940Y199307D01*
X418000Y199431D01*
X417060Y199307D01*
X416185Y198945D01*
X415432Y198368D01*
X414855Y197616D01*
X414493Y196740D01*
X414369Y195800D01*
Y190800D01*
X414144Y190543D01*
X411856D01*
X411631Y190800D01*
Y195800D01*
X411507Y196740D01*
X411145Y197616D01*
X410568Y198368D01*
X409816Y198945D01*
X408940Y199307D01*
X408000Y199431D01*
X407060Y199307D01*
X406184Y198945D01*
X405433Y198368D01*
X404855Y197616D01*
X404493Y196740D01*
X404369Y195800D01*
Y190800D01*
X404144Y190543D01*
X402260D01*
X402035Y190800D01*
Y192800D01*
X398000D01*
X393966D01*
Y190800D01*
X393740Y190543D01*
X392260D01*
X392035Y190800D01*
Y192800D01*
X388000D01*
X383965D01*
Y190800D01*
X383740Y190543D01*
X381856D01*
X381631Y190800D01*
Y195800D01*
X381507Y196740D01*
X381145Y197616D01*
X380568Y198368D01*
X379816Y198945D01*
X378940Y199307D01*
X378000Y199431D01*
X377060Y199307D01*
X376185Y198945D01*
X375432Y198368D01*
X374855Y197616D01*
X374493Y196740D01*
X374369Y195800D01*
Y190800D01*
X374144Y190543D01*
X373268D01*
X373043Y190800D01*
Y195800D01*
X372871Y197105D01*
X372368Y198322D01*
X371566Y199366D01*
X371513Y199407D01*
X371466Y200187D01*
X374253Y202974D01*
X422900D01*
X423683Y203077D01*
X424413Y203380D01*
X425040Y203860D01*
X468630Y247451D01*
X468966Y247495D01*
X469866Y247868D01*
X470639Y248461D01*
X471232Y249234D01*
X471605Y250134D01*
X471732Y251100D01*
X471605Y252066D01*
X471232Y252966D01*
X470639Y253739D01*
X469866Y254332D01*
X468966Y254705D01*
X468000Y254832D01*
X467034Y254705D01*
X466134Y254332D01*
X465361Y253739D01*
X464768Y252966D01*
X464395Y252066D01*
X464351Y251730D01*
X421647Y209026D01*
X374253D01*
X367840Y215440D01*
X367213Y215920D01*
X366483Y216223D01*
X365700Y216326D01*
X314480D01*
X314066Y216866D01*
X313022Y217668D01*
X311805Y218171D01*
X310500Y218343D01*
X305535D01*
X305084Y218771D01*
X305084Y219267D01*
X305500Y219669D01*
X310500D01*
X311440Y219793D01*
X312316Y220155D01*
X313068Y220732D01*
X313645Y221484D01*
X314007Y222360D01*
X314131Y223300D01*
X314007Y224240D01*
X313645Y225115D01*
X313068Y225868D01*
X312316Y226445D01*
X311440Y226807D01*
X310500Y226931D01*
X305500D01*
X305494Y226930D01*
X305043Y227326D01*
Y229274D01*
X305494Y229670D01*
X305500Y229669D01*
X310500D01*
X311440Y229793D01*
X312316Y230155D01*
X313068Y230732D01*
X313645Y231485D01*
X314007Y232360D01*
X314131Y233300D01*
X314007Y234240D01*
X313645Y235116D01*
X313068Y235868D01*
X312316Y236445D01*
X311440Y236807D01*
X310500Y236931D01*
X305500D01*
X305494Y236930D01*
X305043Y237326D01*
Y239274D01*
X305494Y239670D01*
X305500Y239669D01*
X310500D01*
X311440Y239793D01*
X312316Y240155D01*
X313068Y240733D01*
X313645Y241484D01*
X314007Y242360D01*
X314131Y243300D01*
X314007Y244240D01*
X313645Y245115D01*
X313068Y245867D01*
X312316Y246445D01*
X311440Y246807D01*
X310500Y246931D01*
X305500D01*
X305494Y246930D01*
X305043Y247326D01*
Y248871D01*
X305494Y249266D01*
X305500Y249266D01*
X307500D01*
Y253300D01*
Y257334D01*
X305500D01*
X305494Y257334D01*
X305043Y257729D01*
Y258871D01*
X305494Y259266D01*
X305500Y259265D01*
X307500D01*
Y263300D01*
Y267335D01*
X305500D01*
X305494Y267334D01*
X305043Y267729D01*
Y269274D01*
X305494Y269670D01*
X305500Y269669D01*
X310500D01*
X311440Y269793D01*
X312316Y270155D01*
X313068Y270732D01*
X313645Y271484D01*
X314007Y272360D01*
X314131Y273300D01*
X314007Y274240D01*
X313645Y275115D01*
X313068Y275868D01*
X312316Y276445D01*
X311440Y276807D01*
X310500Y276931D01*
X305500D01*
X305494Y276930D01*
X305043Y277326D01*
Y279274D01*
X305494Y279670D01*
X305500Y279669D01*
X310500D01*
X311440Y279793D01*
X312316Y280155D01*
X313068Y280732D01*
X313645Y281485D01*
X314007Y282360D01*
X314131Y283300D01*
X314007Y284240D01*
X313645Y285116D01*
X313068Y285868D01*
X312316Y286445D01*
X311440Y286807D01*
X310500Y286931D01*
X305500D01*
X305494Y286930D01*
X305043Y287326D01*
Y289274D01*
X305494Y289670D01*
X305500Y289669D01*
X310500D01*
X311440Y289793D01*
X312316Y290155D01*
X313068Y290733D01*
X313645Y291484D01*
X314007Y292360D01*
X314131Y293300D01*
X314007Y294240D01*
X313645Y295115D01*
X313068Y295867D01*
X312316Y296445D01*
X311440Y296807D01*
X310500Y296931D01*
X305500D01*
X305494Y296930D01*
X305043Y297326D01*
Y299274D01*
X305494Y299670D01*
X305500Y299669D01*
X310500D01*
X311440Y299793D01*
X312316Y300155D01*
X313068Y300732D01*
X313645Y301484D01*
X314007Y302360D01*
X314131Y303300D01*
X314007Y304240D01*
X313645Y305116D01*
X313068Y305868D01*
X312316Y306445D01*
X311440Y306807D01*
X310500Y306931D01*
X305500D01*
X305494Y306930D01*
X305043Y307326D01*
Y309274D01*
X305494Y309670D01*
X305500Y309669D01*
X310500D01*
X311440Y309793D01*
X312316Y310155D01*
X313068Y310733D01*
X313645Y311485D01*
X314007Y312360D01*
X314131Y313300D01*
X314007Y314240D01*
X313645Y315115D01*
X313068Y315867D01*
X312316Y316445D01*
X311440Y316807D01*
X310500Y316931D01*
X305500D01*
X305494Y316930D01*
X305043Y317326D01*
Y319274D01*
X305494Y319670D01*
X305500Y319669D01*
X310500D01*
X311440Y319793D01*
X312316Y320155D01*
X313068Y320732D01*
X313645Y321484D01*
X314007Y322360D01*
X314131Y323300D01*
X314007Y324240D01*
X313645Y325115D01*
X313068Y325868D01*
X312316Y326445D01*
X311440Y326807D01*
X310500Y326931D01*
X305500D01*
X305494Y326930D01*
X305043Y327326D01*
Y329274D01*
X305494Y329670D01*
X305500Y329669D01*
X310500D01*
X311440Y329793D01*
X312316Y330155D01*
X313068Y330732D01*
X313645Y331485D01*
X314007Y332360D01*
X314131Y333300D01*
X314007Y334240D01*
X313645Y335116D01*
X313068Y335868D01*
X312316Y336445D01*
X311440Y336807D01*
X310500Y336931D01*
X305500D01*
X305494Y336930D01*
X305043Y337326D01*
Y339274D01*
X305494Y339670D01*
X305500Y339669D01*
X310500D01*
X311440Y339793D01*
X312316Y340155D01*
X313068Y340733D01*
X313645Y341484D01*
X314007Y342360D01*
X314131Y343300D01*
X314007Y344240D01*
X313645Y345115D01*
X313068Y345867D01*
X312316Y346445D01*
X311440Y346807D01*
X310500Y346931D01*
X305500D01*
X305494Y346930D01*
X305043Y347326D01*
Y348871D01*
X305494Y349266D01*
X305500Y349266D01*
X307500D01*
Y353300D01*
Y357334D01*
X305500D01*
X305494Y357334D01*
X305043Y357729D01*
Y359274D01*
X305494Y359670D01*
X305500Y359669D01*
X310500D01*
X311440Y359793D01*
X312316Y360155D01*
X313068Y360733D01*
X313645Y361485D01*
X314007Y362360D01*
X314131Y363300D01*
X314007Y364240D01*
X313645Y365115D01*
X313068Y365867D01*
X312316Y366445D01*
X311440Y366807D01*
X310500Y366931D01*
X305500D01*
X305494Y366930D01*
X305043Y367326D01*
Y368871D01*
X305494Y369266D01*
X305500Y369266D01*
X307500D01*
Y373300D01*
Y377334D01*
X305500D01*
X305494Y377334D01*
X305043Y377729D01*
Y379274D01*
X305494Y379670D01*
X305500Y379669D01*
X310500D01*
X311440Y379793D01*
X312316Y380155D01*
X313068Y380732D01*
X313645Y381485D01*
X314007Y382360D01*
X314131Y383300D01*
X314007Y384240D01*
X313645Y385116D01*
X313068Y385868D01*
X312316Y386445D01*
X311440Y386807D01*
X310500Y386931D01*
X305500D01*
X305494Y386930D01*
X305043Y387326D01*
Y388871D01*
X305494Y389266D01*
X305500Y389265D01*
X307500D01*
Y393300D01*
Y397335D01*
X305500D01*
X305494Y397334D01*
X305043Y397729D01*
Y399700D01*
X314100D01*
Y406900D01*
X305043D01*
Y434457D01*
X320101D01*
X320190Y433857D01*
X318708Y432592D01*
X317369Y431024D01*
X316292Y429266D01*
X315503Y427361D01*
X315021Y425356D01*
X314860Y423300D01*
X315021Y421244D01*
X315503Y419239D01*
X316292Y417334D01*
X317369Y415576D01*
X318708Y414008D01*
X320276Y412669D01*
X322034Y411592D01*
X323939Y410803D01*
X325944Y410321D01*
X328000Y410159D01*
X330056Y410321D01*
X332061Y410803D01*
X333966Y411592D01*
X335724Y412669D01*
X337292Y414008D01*
X338631Y415576D01*
X339708Y417334D01*
X340497Y419239D01*
X340979Y421244D01*
X341141Y423300D01*
X340979Y425356D01*
X340497Y427361D01*
X339708Y429266D01*
X338631Y431024D01*
X337292Y432592D01*
X335810Y433857D01*
X335899Y434457D01*
X470101D01*
X470190Y433857D01*
X468708Y432592D01*
X467369Y431024D01*
X466292Y429266D01*
X465503Y427361D01*
X465021Y425356D01*
X464859Y423300D01*
X465021Y421244D01*
X465503Y419239D01*
X466292Y417334D01*
X467369Y415576D01*
X468708Y414008D01*
X470276Y412669D01*
X472034Y411592D01*
X473939Y410803D01*
X475944Y410321D01*
X478000Y410159D01*
X480056Y410321D01*
X482061Y410803D01*
X483966Y411592D01*
X485724Y412669D01*
X487292Y414008D01*
X488631Y415576D01*
X489708Y417334D01*
X490497Y419239D01*
X490979Y421244D01*
X491141Y423300D01*
X490979Y425356D01*
X490497Y427361D01*
X489708Y429266D01*
X488631Y431024D01*
X487292Y432592D01*
X485810Y433857D01*
X485899Y434457D01*
X500457D01*
Y407300D01*
D02*
G37*
%LPC*%
G36*
X312000Y199800D02*
X308500D01*
Y193800D01*
X312000D01*
Y199800D01*
D02*
G37*
G36*
X419051Y262134D02*
X416557D01*
Y258524D01*
X416832Y258561D01*
X417554Y258860D01*
X418174Y259336D01*
X418650Y259956D01*
X418949Y260678D01*
X419051Y261453D01*
Y262134D01*
D02*
G37*
G36*
X314469Y262800D02*
X308500D01*
Y259265D01*
X310500D01*
X311544Y259403D01*
X312517Y259806D01*
X313353Y260447D01*
X313994Y261283D01*
X314397Y262256D01*
X314469Y262800D01*
D02*
G37*
G36*
X415557Y262134D02*
X413063D01*
Y261453D01*
X413165Y260678D01*
X413464Y259956D01*
X413940Y259336D01*
X414560Y258860D01*
X415282Y258561D01*
X415557Y258524D01*
Y262134D01*
D02*
G37*
G36*
X497500Y257334D02*
X495500D01*
X494456Y257197D01*
X493483Y256794D01*
X492647Y256153D01*
X492006Y255317D01*
X491603Y254344D01*
X491531Y253800D01*
X497500D01*
Y257334D01*
D02*
G37*
G36*
X387407Y262134D02*
X384913D01*
Y261453D01*
X385015Y260678D01*
X385314Y259956D01*
X385790Y259336D01*
X386410Y258860D01*
X387132Y258561D01*
X387407Y258524D01*
Y262134D01*
D02*
G37*
G36*
X390901D02*
X388407D01*
Y258524D01*
X388682Y258561D01*
X389404Y258860D01*
X390024Y259336D01*
X390500Y259956D01*
X390799Y260678D01*
X390901Y261453D01*
Y262134D01*
D02*
G37*
G36*
X388407Y266743D02*
Y263134D01*
X390901D01*
Y263815D01*
X390799Y264590D01*
X390500Y265312D01*
X390024Y265932D01*
X389404Y266408D01*
X388682Y266707D01*
X388407Y266743D01*
D02*
G37*
G36*
X415557D02*
X415282Y266707D01*
X414560Y266408D01*
X413940Y265932D01*
X413464Y265312D01*
X413165Y264590D01*
X413063Y263815D01*
Y263134D01*
X415557D01*
Y266743D01*
D02*
G37*
G36*
X416557D02*
Y263134D01*
X419051D01*
Y263815D01*
X418949Y264590D01*
X418650Y265312D01*
X418174Y265932D01*
X417554Y266408D01*
X416832Y266707D01*
X416557Y266743D01*
D02*
G37*
G36*
X439500Y279335D02*
X438798Y279196D01*
X438202Y278798D01*
X437804Y278202D01*
X437665Y277500D01*
X437804Y276798D01*
X438202Y276202D01*
X438378Y276085D01*
Y275465D01*
X430707Y267793D01*
X430464Y267429D01*
X430378Y267000D01*
X430378Y267000D01*
Y263915D01*
X430202Y263798D01*
X429804Y263202D01*
X429665Y262500D01*
X429804Y261798D01*
X430202Y261202D01*
X430798Y260804D01*
X431500Y260665D01*
X432202Y260804D01*
X432798Y261202D01*
X433196Y261798D01*
X433335Y262500D01*
X433196Y263202D01*
X432798Y263798D01*
X432622Y263915D01*
Y266535D01*
X440293Y274207D01*
X440293Y274207D01*
X440536Y274571D01*
X440622Y275000D01*
X440622Y275000D01*
Y276085D01*
X440798Y276202D01*
X441196Y276798D01*
X441335Y277500D01*
X441196Y278202D01*
X440798Y278798D01*
X440202Y279196D01*
X439500Y279335D01*
D02*
G37*
G36*
X409525Y263000D02*
X407600D01*
Y261075D01*
X408066Y261167D01*
X408885Y261715D01*
X409433Y262534D01*
X409525Y263000D01*
D02*
G37*
G36*
X387407Y266743D02*
X387132Y266707D01*
X386410Y266408D01*
X385790Y265932D01*
X385314Y265312D01*
X385015Y264590D01*
X384913Y263815D01*
Y263134D01*
X387407D01*
Y266743D01*
D02*
G37*
G36*
X388500Y199769D02*
Y193800D01*
X392035D01*
Y195800D01*
X391897Y196844D01*
X391494Y197817D01*
X390853Y198653D01*
X390017Y199294D01*
X389044Y199697D01*
X388500Y199769D01*
D02*
G37*
G36*
X398500D02*
Y193800D01*
X402035D01*
Y195800D01*
X401897Y196844D01*
X401494Y197817D01*
X400853Y198653D01*
X400017Y199294D01*
X399044Y199697D01*
X398500Y199769D01*
D02*
G37*
G36*
X398000Y236440D02*
X395944Y236279D01*
X393939Y235797D01*
X392034Y235008D01*
X390276Y233931D01*
X388708Y232592D01*
X387369Y231024D01*
X386292Y229266D01*
X385503Y227361D01*
X385021Y225356D01*
X384859Y223300D01*
X385021Y221244D01*
X385503Y219239D01*
X386292Y217334D01*
X387369Y215576D01*
X388708Y214008D01*
X390276Y212669D01*
X392034Y211592D01*
X393939Y210803D01*
X395944Y210321D01*
X398000Y210159D01*
X400056Y210321D01*
X402061Y210803D01*
X403966Y211592D01*
X405724Y212669D01*
X407292Y214008D01*
X408631Y215576D01*
X409708Y217334D01*
X410497Y219239D01*
X410979Y221244D01*
X411140Y223300D01*
X410979Y225356D01*
X410497Y227361D01*
X409708Y229266D01*
X408631Y231024D01*
X407292Y232592D01*
X405724Y233931D01*
X403966Y235008D01*
X402061Y235797D01*
X400056Y236279D01*
X398000Y236440D01*
D02*
G37*
G36*
X387500Y199769D02*
X386956Y199697D01*
X385983Y199294D01*
X385147Y198653D01*
X384506Y197817D01*
X384103Y196844D01*
X383965Y195800D01*
Y193800D01*
X387500D01*
Y199769D01*
D02*
G37*
G36*
X397500D02*
X396956Y199697D01*
X395983Y199294D01*
X395147Y198653D01*
X394506Y197817D01*
X394103Y196844D01*
X393966Y195800D01*
Y193800D01*
X397500D01*
Y199769D01*
D02*
G37*
G36*
X314469Y252800D02*
X308500D01*
Y249266D01*
X310500D01*
X311544Y249403D01*
X312517Y249806D01*
X313353Y250447D01*
X313994Y251283D01*
X314397Y252256D01*
X314469Y252800D01*
D02*
G37*
G36*
X497500D02*
X491531D01*
X491603Y252256D01*
X492006Y251283D01*
X492647Y250447D01*
X493483Y249806D01*
X494456Y249403D01*
X495500Y249266D01*
X497500D01*
Y252800D01*
D02*
G37*
G36*
X310500Y257334D02*
X308500D01*
Y253800D01*
X314469D01*
X314397Y254344D01*
X313994Y255317D01*
X313353Y256153D01*
X312517Y256794D01*
X311544Y257197D01*
X310500Y257334D01*
D02*
G37*
G36*
X355000Y237335D02*
X354298Y237196D01*
X353702Y236798D01*
X353304Y236202D01*
X353165Y235500D01*
X353304Y234798D01*
X353702Y234202D01*
X354298Y233804D01*
X355000Y233665D01*
X355208Y233706D01*
X364207Y224707D01*
X364207Y224707D01*
X364571Y224464D01*
X365000Y224378D01*
X365000Y224378D01*
X373718D01*
X373836Y224202D01*
X374431Y223804D01*
X375133Y223665D01*
X375836Y223804D01*
X376431Y224202D01*
X376829Y224798D01*
X376969Y225500D01*
X376829Y226202D01*
X376431Y226798D01*
X375836Y227196D01*
X375133Y227335D01*
X374431Y227196D01*
X373836Y226798D01*
X373718Y226622D01*
X365465D01*
X356794Y235292D01*
X356835Y235500D01*
X356696Y236202D01*
X356298Y236798D01*
X355702Y237196D01*
X355000Y237335D01*
D02*
G37*
G36*
X497500Y242800D02*
X491531D01*
X491603Y242256D01*
X492006Y241283D01*
X492647Y240447D01*
X493483Y239806D01*
X494456Y239403D01*
X495500Y239265D01*
X497500D01*
Y242800D01*
D02*
G37*
G36*
Y247335D02*
X495500D01*
X494456Y247197D01*
X493483Y246794D01*
X492647Y246153D01*
X492006Y245317D01*
X491603Y244344D01*
X491531Y243800D01*
X497500D01*
Y247335D01*
D02*
G37*
G36*
X314469Y372800D02*
X308500D01*
Y369266D01*
X310500D01*
X311544Y369403D01*
X312517Y369806D01*
X313353Y370447D01*
X313994Y371283D01*
X314397Y372256D01*
X314469Y372800D01*
D02*
G37*
G36*
X497500D02*
X491531D01*
X491603Y372256D01*
X492006Y371283D01*
X492647Y370447D01*
X493483Y369806D01*
X494456Y369403D01*
X495500Y369266D01*
X497500D01*
Y372800D01*
D02*
G37*
G36*
X310500Y377334D02*
X308500D01*
Y373800D01*
X314469D01*
X314397Y374344D01*
X313994Y375317D01*
X313353Y376153D01*
X312517Y376794D01*
X311544Y377197D01*
X310500Y377334D01*
D02*
G37*
G36*
X497500Y407300D02*
X491500D01*
Y403800D01*
X497500D01*
Y407300D01*
D02*
G37*
G36*
X431000Y369835D02*
X430298Y369696D01*
X429702Y369298D01*
X429304Y368702D01*
X429165Y368000D01*
X429304Y367298D01*
X429702Y366702D01*
X430298Y366304D01*
X430369Y366290D01*
Y365644D01*
X430292Y365593D01*
X428900D01*
Y361893D01*
Y358650D01*
X430369D01*
Y355798D01*
X430304Y355702D01*
X430165Y355000D01*
X430304Y354298D01*
X430702Y353702D01*
X431298Y353304D01*
X432000Y353165D01*
X432702Y353304D01*
X433298Y353702D01*
X433696Y354298D01*
X433835Y355000D01*
X433696Y355702D01*
X433631Y355798D01*
Y358650D01*
X435100D01*
Y361893D01*
Y365593D01*
X433631D01*
Y367000D01*
X433507Y367624D01*
X433153Y368154D01*
X432718Y368589D01*
X432696Y368702D01*
X432298Y369298D01*
X431702Y369696D01*
X431000Y369835D01*
D02*
G37*
G36*
X310500Y357334D02*
X308500D01*
Y353800D01*
X314469D01*
X314397Y354344D01*
X313994Y355317D01*
X313353Y356153D01*
X312517Y356794D01*
X311544Y357197D01*
X310500Y357334D01*
D02*
G37*
G36*
X314469Y392800D02*
X308500D01*
Y389265D01*
X310500D01*
X311544Y389403D01*
X312517Y389806D01*
X313353Y390447D01*
X313994Y391283D01*
X314397Y392256D01*
X314469Y392800D01*
D02*
G37*
G36*
X310500Y397335D02*
X308500D01*
Y393800D01*
X314469D01*
X314397Y394344D01*
X313994Y395317D01*
X313353Y396153D01*
X312517Y396794D01*
X311544Y397197D01*
X310500Y397335D01*
D02*
G37*
G36*
X497500Y402800D02*
X491500D01*
Y399300D01*
X497500D01*
Y402800D01*
D02*
G37*
G36*
Y377334D02*
X495500D01*
X494456Y377197D01*
X493483Y376794D01*
X492647Y376153D01*
X492006Y375317D01*
X491603Y374344D01*
X491531Y373800D01*
X497500D01*
Y377334D01*
D02*
G37*
G36*
X370300Y384035D02*
X369598Y383896D01*
X369002Y383498D01*
X368604Y382902D01*
X368465Y382200D01*
X368448Y382169D01*
X367943Y381747D01*
X367500Y381835D01*
X366798Y381696D01*
X366202Y381298D01*
X365804Y380702D01*
X365665Y380000D01*
X365804Y379298D01*
X366202Y378702D01*
X366378Y378585D01*
Y372465D01*
X364708Y370794D01*
X364500Y370835D01*
X363798Y370696D01*
X363202Y370298D01*
X362804Y369702D01*
X362665Y369000D01*
X362804Y368298D01*
X363202Y367702D01*
X363798Y367304D01*
X364500Y367165D01*
X365202Y367304D01*
X365798Y367702D01*
X366196Y368298D01*
X366335Y369000D01*
X366294Y369208D01*
X368293Y371207D01*
X368536Y371571D01*
X368579Y371783D01*
X369179Y371724D01*
Y370671D01*
X368798Y370596D01*
X368202Y370198D01*
X367804Y369602D01*
X367665Y368900D01*
X367804Y368198D01*
X368202Y367602D01*
X368798Y367204D01*
X369500Y367065D01*
X370202Y367204D01*
X370798Y367602D01*
X371196Y368198D01*
X371335Y368900D01*
X371263Y369262D01*
X371336Y369371D01*
X371422Y369800D01*
X371422Y369800D01*
Y380785D01*
X371598Y380902D01*
X371996Y381498D01*
X372135Y382200D01*
X371996Y382902D01*
X371598Y383498D01*
X371002Y383896D01*
X370300Y384035D01*
D02*
G37*
G36*
X428244Y387274D02*
X419744D01*
X418830Y387154D01*
X417979Y386801D01*
X417248Y386240D01*
X415000Y383993D01*
X412752Y386240D01*
X412021Y386801D01*
X411170Y387154D01*
X410256Y387274D01*
X401256D01*
X400342Y387154D01*
X399491Y386801D01*
X398760Y386240D01*
X398199Y385509D01*
X397846Y384658D01*
X397726Y383744D01*
X397846Y382830D01*
X398199Y381979D01*
X398760Y381248D01*
X399491Y380687D01*
X400342Y380334D01*
X401256Y380214D01*
X408794D01*
X411470Y377538D01*
Y369000D01*
Y367235D01*
X410798Y367101D01*
X410202Y366703D01*
X410051Y366476D01*
X409876Y366442D01*
X409512Y366199D01*
X409512Y366198D01*
X398108Y354794D01*
X397900Y354835D01*
X397198Y354696D01*
X396602Y354298D01*
X396204Y353702D01*
X396065Y353000D01*
X396138Y352630D01*
X395716Y352030D01*
X383500D01*
X382586Y351910D01*
X381735Y351557D01*
X381004Y350996D01*
X377504Y347496D01*
X376943Y346765D01*
X376590Y345914D01*
X376470Y345000D01*
X376590Y344086D01*
X376943Y343235D01*
X377504Y342504D01*
X378235Y341943D01*
X379086Y341590D01*
X380000Y341470D01*
X380914Y341590D01*
X381326Y341761D01*
X381666Y341252D01*
X377707Y337293D01*
X377464Y336929D01*
X377378Y336500D01*
X377379Y336500D01*
Y320915D01*
X377202Y320798D01*
X376804Y320202D01*
X376665Y319500D01*
X376804Y318798D01*
X377202Y318202D01*
X377798Y317804D01*
X378500Y317665D01*
X379202Y317804D01*
X379578Y318056D01*
X380000Y318155D01*
X380421Y318056D01*
X380798Y317804D01*
X381500Y317665D01*
X382202Y317804D01*
X382798Y318202D01*
X382889Y318339D01*
X383611D01*
X383702Y318202D01*
X384298Y317804D01*
X385000Y317665D01*
X385702Y317804D01*
X386298Y318202D01*
X386389Y318339D01*
X387111D01*
X387202Y318202D01*
X387798Y317804D01*
X388500Y317665D01*
X389202Y317804D01*
X389798Y318202D01*
X390196Y318798D01*
X390335Y319500D01*
X390196Y320202D01*
X389798Y320798D01*
X389621Y320915D01*
Y333108D01*
X389900Y333665D01*
X390602Y333804D01*
X391198Y334202D01*
X391596Y334798D01*
X391735Y335500D01*
X391596Y336202D01*
X391198Y336798D01*
X390602Y337196D01*
X389900Y337335D01*
X389363Y337228D01*
X389049Y337763D01*
X389692Y338406D01*
X389900Y338365D01*
X390602Y338504D01*
X391198Y338902D01*
X391596Y339498D01*
X391735Y340200D01*
X391596Y340902D01*
X391198Y341498D01*
X390602Y341896D01*
X389900Y342035D01*
X389198Y341896D01*
X388602Y341498D01*
X388204Y340902D01*
X388065Y340200D01*
X388106Y339992D01*
X386770Y338656D01*
X386104Y338839D01*
X385798Y339298D01*
X385202Y339696D01*
X384500Y339835D01*
X384216Y339779D01*
X383959Y340275D01*
X384348Y340695D01*
X384500Y340665D01*
X385202Y340804D01*
X385798Y341202D01*
X386196Y341798D01*
X386335Y342500D01*
X386196Y343202D01*
X385798Y343798D01*
X385488Y344005D01*
X385307Y344698D01*
X385324Y344781D01*
X385465Y344970D01*
X413538D01*
X432508Y326000D01*
X431138Y324630D01*
X402700D01*
X401786Y324510D01*
X400935Y324157D01*
X400204Y323596D01*
X399643Y322865D01*
X399290Y322014D01*
X399170Y321100D01*
X399290Y320186D01*
X399643Y319335D01*
X400204Y318604D01*
X400935Y318043D01*
X401786Y317690D01*
X402700Y317570D01*
X432600D01*
X433514Y317690D01*
X434365Y318043D01*
X435096Y318604D01*
X437500Y321007D01*
X442694Y315814D01*
X442768Y315634D01*
X443361Y314861D01*
X444134Y314268D01*
X445034Y313895D01*
X446000Y313768D01*
X446966Y313895D01*
X447866Y314268D01*
X448639Y314861D01*
X449232Y315634D01*
X449605Y316534D01*
X449732Y317500D01*
X449605Y318466D01*
X449232Y319366D01*
X448639Y320139D01*
X447866Y320732D01*
X447686Y320807D01*
X439996Y328496D01*
X439996Y328496D01*
X428626Y339866D01*
X428702Y340639D01*
X428798Y340702D01*
X429196Y341298D01*
X429335Y342000D01*
X429196Y342702D01*
X428798Y343298D01*
X428622Y343415D01*
Y344753D01*
X428622Y344753D01*
X428536Y345182D01*
X428293Y345546D01*
X427122Y346717D01*
Y364585D01*
X427298Y364702D01*
X427696Y365298D01*
X427835Y366000D01*
X427696Y366702D01*
X427298Y367298D01*
X427161Y367389D01*
Y368111D01*
X427298Y368202D01*
X427696Y368798D01*
X427835Y369500D01*
X427696Y370202D01*
X427298Y370798D01*
X426702Y371196D01*
X426000Y371335D01*
X425298Y371196D01*
X424702Y370798D01*
X424304Y370202D01*
X424165Y369500D01*
X424206Y369292D01*
X422707Y367793D01*
X422464Y367429D01*
X422378Y367000D01*
X422378Y367000D01*
Y346898D01*
X421824Y346668D01*
X418530Y349962D01*
Y369000D01*
Y377538D01*
X421206Y380214D01*
X428244D01*
X429158Y380334D01*
X430009Y380687D01*
X430740Y381248D01*
X431301Y381979D01*
X431654Y382830D01*
X431774Y383744D01*
X431654Y384658D01*
X431301Y385509D01*
X430740Y386240D01*
X430009Y386801D01*
X429158Y387154D01*
X428244Y387274D01*
D02*
G37*
G36*
X367500Y294835D02*
X366798Y294696D01*
X366202Y294298D01*
X365804Y293702D01*
X365665Y293000D01*
X365748Y292581D01*
X364407Y291240D01*
X364164Y290877D01*
X364078Y290447D01*
X364078Y290447D01*
Y290210D01*
X363902Y290092D01*
X363504Y289497D01*
X363365Y288795D01*
X363504Y288092D01*
X363902Y287497D01*
X364498Y287099D01*
X365200Y286959D01*
X365902Y287099D01*
X366498Y287497D01*
X366896Y288092D01*
X367035Y288795D01*
X366896Y289497D01*
X366498Y290092D01*
X366492Y290153D01*
X367504Y291166D01*
X368202Y291304D01*
X368798Y291702D01*
X369196Y292298D01*
X369335Y293000D01*
X369196Y293702D01*
X368798Y294298D01*
X368202Y294696D01*
X367500Y294835D01*
D02*
G37*
G36*
X340000Y301835D02*
X339298Y301696D01*
X338702Y301298D01*
X338304Y300702D01*
X338165Y300000D01*
X338304Y299298D01*
X338702Y298702D01*
X339298Y298304D01*
X340000Y298165D01*
X340702Y298304D01*
X341298Y298702D01*
X341415Y298879D01*
X344035D01*
X347588Y295326D01*
X347206Y294860D01*
X347002Y294996D01*
X346300Y295135D01*
X345598Y294996D01*
X345002Y294598D01*
X344818Y294321D01*
X334215D01*
X334098Y294498D01*
X333502Y294896D01*
X332800Y295035D01*
X332098Y294896D01*
X331502Y294498D01*
X331104Y293902D01*
X330965Y293200D01*
X331104Y292498D01*
X331502Y291902D01*
X332098Y291504D01*
X332800Y291365D01*
X333502Y291504D01*
X334098Y291902D01*
X334215Y292078D01*
X344951D01*
X345002Y292002D01*
X345598Y291604D01*
X346300Y291465D01*
X347002Y291604D01*
X347598Y292002D01*
X347996Y292598D01*
X348135Y293300D01*
X347996Y294002D01*
X347860Y294206D01*
X348326Y294588D01*
X348879Y294035D01*
Y289915D01*
X348702Y289798D01*
X348304Y289202D01*
X348165Y288500D01*
X348304Y287798D01*
X348702Y287202D01*
X349298Y286804D01*
X350000Y286665D01*
X350702Y286804D01*
X351298Y287202D01*
X351696Y287798D01*
X351835Y288500D01*
X351696Y289202D01*
X351298Y289798D01*
X351121Y289915D01*
Y294500D01*
X351036Y294929D01*
X350793Y295293D01*
X350793Y295293D01*
X345293Y300793D01*
X344929Y301036D01*
X344500Y301122D01*
X344500Y301121D01*
X341415D01*
X341298Y301298D01*
X340702Y301696D01*
X340000Y301835D01*
D02*
G37*
G36*
X497500Y312800D02*
X491531D01*
X491603Y312256D01*
X492006Y311283D01*
X492647Y310447D01*
X493483Y309806D01*
X494456Y309403D01*
X495500Y309265D01*
X497500D01*
Y312800D01*
D02*
G37*
G36*
X310500Y267335D02*
X308500D01*
Y263800D01*
X314469D01*
X314397Y264344D01*
X313994Y265317D01*
X313353Y266153D01*
X312517Y266794D01*
X311544Y267197D01*
X310500Y267335D01*
D02*
G37*
G36*
X406600Y265925D02*
X406134Y265833D01*
X405315Y265285D01*
X404767Y264466D01*
X404643Y263841D01*
X404031D01*
X403938Y264310D01*
X403479Y264997D01*
X402792Y265456D01*
X401982Y265617D01*
X401172Y265456D01*
X400485Y264997D01*
X400026Y264310D01*
X399865Y263500D01*
X400026Y262690D01*
X400461Y262039D01*
X400401Y261903D01*
X400388Y261877D01*
X400128Y261540D01*
X399423Y261680D01*
X398718Y261540D01*
X398458Y261877D01*
X398444Y261903D01*
X398385Y262039D01*
X398820Y262690D01*
X398981Y263500D01*
X398820Y264310D01*
X398361Y264997D01*
X397674Y265456D01*
X396864Y265617D01*
X396054Y265456D01*
X395367Y264997D01*
X394908Y264310D01*
X394747Y263500D01*
X394908Y262690D01*
X395367Y262003D01*
X396054Y261544D01*
X396864Y261383D01*
X397569Y261523D01*
X397829Y261185D01*
X397842Y261160D01*
X397902Y261024D01*
X397467Y260373D01*
X397306Y259563D01*
X397467Y258753D01*
X397926Y258066D01*
X398613Y257607D01*
X399423Y257446D01*
X400233Y257607D01*
X400920Y258066D01*
X401379Y258753D01*
X401540Y259563D01*
X401379Y260373D01*
X400944Y261024D01*
X401003Y261160D01*
X401017Y261186D01*
X401277Y261523D01*
X401982Y261383D01*
X402687Y261523D01*
X402947Y261185D01*
X402960Y261160D01*
X403020Y261024D01*
X402585Y260373D01*
X402424Y259563D01*
X402585Y258753D01*
X403044Y258066D01*
X403731Y257607D01*
X404541Y257446D01*
X405351Y257607D01*
X406038Y258066D01*
X406497Y258753D01*
X406658Y259563D01*
X406497Y260373D01*
X406412Y260500D01*
X406600Y260782D01*
Y263500D01*
Y265925D01*
D02*
G37*
G36*
X407600D02*
Y264000D01*
X409525D01*
X409433Y264466D01*
X408885Y265285D01*
X408066Y265833D01*
X407600Y265925D01*
D02*
G37*
G36*
X497500Y342800D02*
X491531D01*
X491603Y342256D01*
X492006Y341283D01*
X492647Y340447D01*
X493483Y339806D01*
X494456Y339403D01*
X495500Y339265D01*
X497500D01*
Y342800D01*
D02*
G37*
G36*
Y347335D02*
X495500D01*
X494456Y347197D01*
X493483Y346794D01*
X492647Y346153D01*
X492006Y345317D01*
X491603Y344344D01*
X491531Y343800D01*
X497500D01*
Y347335D01*
D02*
G37*
G36*
X314469Y352800D02*
X308500D01*
Y349266D01*
X310500D01*
X311544Y349403D01*
X312517Y349806D01*
X313353Y350447D01*
X313994Y351283D01*
X314397Y352256D01*
X314469Y352800D01*
D02*
G37*
G36*
X497500Y317335D02*
X495500D01*
X494456Y317197D01*
X493483Y316794D01*
X492647Y316153D01*
X492006Y315317D01*
X491603Y314344D01*
X491531Y313800D01*
X497500D01*
Y317335D01*
D02*
G37*
G36*
Y322800D02*
X491531D01*
X491603Y322256D01*
X492006Y321283D01*
X492647Y320447D01*
X493483Y319806D01*
X494456Y319403D01*
X495500Y319266D01*
X497500D01*
Y322800D01*
D02*
G37*
G36*
Y327334D02*
X495500D01*
X494456Y327197D01*
X493483Y326794D01*
X492647Y326153D01*
X492006Y325317D01*
X491603Y324344D01*
X491531Y323800D01*
X497500D01*
Y327334D01*
D02*
G37*
%LPD*%
G36*
X410798Y360710D02*
X411470Y360576D01*
Y352030D01*
X403336D01*
X402914Y352630D01*
X402988Y353000D01*
X402946Y353208D01*
X410588Y360850D01*
X410798Y360710D01*
D02*
G37*
D16*
X367500Y372000D02*
Y380000D01*
X370300Y369800D02*
Y382200D01*
X369500Y368900D02*
Y369000D01*
X370300Y369800D01*
X350000Y288500D02*
Y294500D01*
X410744Y383744D02*
X411000Y384000D01*
X431500Y262500D02*
Y267000D01*
X439500Y275000D01*
Y277500D01*
X423500Y345500D02*
X425000Y344000D01*
X423500Y345500D02*
Y367000D01*
X426000Y369500D01*
X410305Y365406D02*
X411500D01*
X410558Y362405D02*
X411500D01*
X397900Y353000D02*
X410305Y365406D01*
X401153Y353000D02*
X410558Y362405D01*
X431000Y364743D02*
X432000Y363743D01*
X388500Y334100D02*
X389900Y335500D01*
X388500Y319500D02*
Y334100D01*
X386800Y337100D02*
X389900Y340200D01*
X386800Y337047D02*
Y337100D01*
X385453Y335700D02*
X386800Y337047D01*
X385400Y335700D02*
X385453D01*
X385000Y335300D02*
X385400Y335700D01*
X385000Y319500D02*
Y335300D01*
X381500Y319500D02*
Y335000D01*
X384500Y338000D01*
X378500Y336500D02*
X384500Y342500D01*
X378500Y319500D02*
Y336500D01*
X367500Y292747D02*
Y293000D01*
X365200Y288795D02*
Y290447D01*
X344500Y300000D02*
X350000Y294500D01*
X340000Y300000D02*
X344500D01*
X332800Y293200D02*
X346200D01*
X346300Y293300D01*
X365200Y290447D02*
X367500Y292747D01*
X426000Y346253D02*
Y366000D01*
Y346253D02*
X427500Y344753D01*
Y342000D02*
Y344753D01*
X355000Y235500D02*
X365000Y225500D01*
X375133D01*
X364500Y369000D02*
X367500Y372000D01*
D17*
X308100Y213300D02*
X365700D01*
X373000Y206000D01*
X368100Y201100D02*
X373000Y206000D01*
X422900D01*
X468000Y251100D01*
X415000Y369000D02*
X415012Y368988D01*
X432000Y355000D02*
Y360500D01*
Y363743D02*
Y367000D01*
X431000Y368000D02*
X432000Y367000D01*
X368100Y193300D02*
Y201100D01*
D19*
X410256Y383744D02*
X415000Y379000D01*
X401256Y383744D02*
X410256D01*
X419744D02*
X428244D01*
X415000Y379000D02*
X419744Y383744D01*
X380000Y345000D02*
X383500Y348500D01*
X415000D01*
Y369000D01*
X437500Y326000D02*
X446000Y317500D01*
X415000Y348500D02*
X437500Y326000D01*
X415000Y369000D02*
Y379000D01*
X402700Y321100D02*
X432600D01*
X437500Y326000D01*
D23*
X300000Y185500D02*
X505500D01*
Y439500D01*
X300000D02*
X505500D01*
X300000Y185500D02*
Y439500D01*
D24*
X416057Y262634D02*
D03*
X387907D02*
D03*
D25*
X404541Y259563D02*
D03*
X407100Y263500D02*
D03*
X401982D02*
D03*
X399423Y259563D02*
D03*
X396864Y263500D02*
D03*
D26*
X478000Y423300D02*
D03*
X328000D02*
D03*
X398000Y223300D02*
D03*
D27*
X498000Y213300D02*
D03*
Y223300D02*
D03*
Y233300D02*
D03*
Y243300D02*
D03*
Y253300D02*
D03*
Y263300D02*
D03*
Y273300D02*
D03*
Y283300D02*
D03*
Y293300D02*
D03*
Y303300D02*
D03*
Y313300D02*
D03*
Y323300D02*
D03*
Y333300D02*
D03*
Y343300D02*
D03*
Y353300D02*
D03*
Y363300D02*
D03*
Y373300D02*
D03*
Y383300D02*
D03*
Y393300D02*
D03*
X308000Y213300D02*
D03*
Y223300D02*
D03*
Y233300D02*
D03*
Y243300D02*
D03*
Y253300D02*
D03*
Y263300D02*
D03*
Y273300D02*
D03*
Y283300D02*
D03*
Y293300D02*
D03*
Y303300D02*
D03*
Y313300D02*
D03*
Y323300D02*
D03*
Y333300D02*
D03*
Y343300D02*
D03*
Y353300D02*
D03*
Y363300D02*
D03*
Y373300D02*
D03*
Y383300D02*
D03*
Y393300D02*
D03*
D28*
X498000Y403300D02*
D03*
X308000D02*
D03*
D29*
X498000Y193300D02*
D03*
X488000D02*
D03*
X478000D02*
D03*
X468000D02*
D03*
X458000D02*
D03*
X448000D02*
D03*
X438000D02*
D03*
X428000D02*
D03*
X418000D02*
D03*
X408000D02*
D03*
X398000D02*
D03*
X388000D02*
D03*
X378000D02*
D03*
X368000D02*
D03*
X358000D02*
D03*
X348000D02*
D03*
X338000D02*
D03*
X328000D02*
D03*
X318000D02*
D03*
D30*
X308000D02*
D03*
D31*
X367500Y380000D02*
D03*
X370300Y382200D02*
D03*
X381400Y370400D02*
D03*
X369500Y368900D02*
D03*
X364500Y369000D02*
D03*
X350000Y288500D02*
D03*
X317000Y318500D02*
D03*
X408000Y379500D02*
D03*
X401256Y389256D02*
D03*
X437153Y389846D02*
D03*
X428256Y389256D02*
D03*
X428244Y383744D02*
D03*
X392244Y389256D02*
D03*
X401256Y383744D02*
D03*
X380000Y345000D02*
D03*
X375133Y225500D02*
D03*
X355000Y235500D02*
D03*
X435000Y287500D02*
D03*
Y314500D02*
D03*
X411500Y359000D02*
D03*
X406000Y352500D02*
D03*
X431500Y262500D02*
D03*
X439500Y277500D02*
D03*
X427500Y342000D02*
D03*
X425000Y344000D02*
D03*
X426000Y369500D02*
D03*
X431000Y368000D02*
D03*
X426000Y366000D02*
D03*
X411500Y365406D02*
D03*
Y362405D02*
D03*
X397900Y353000D02*
D03*
X401153D02*
D03*
X432000Y355000D02*
D03*
X459500Y406000D02*
D03*
X428500Y405500D02*
D03*
X488000Y328000D02*
D03*
X472500Y330000D02*
D03*
X420000Y225000D02*
D03*
Y315000D02*
D03*
X435000Y255000D02*
D03*
X322500Y210000D02*
D03*
X375000Y345000D02*
D03*
X465000Y315000D02*
D03*
X382500Y270000D02*
D03*
X472500Y240000D02*
D03*
X345000Y255000D02*
D03*
X405000D02*
D03*
X330000Y225000D02*
D03*
X367500Y360000D02*
D03*
X352500Y420000D02*
D03*
X322500Y270000D02*
D03*
X367500Y390000D02*
D03*
X390000Y405000D02*
D03*
X472500Y210000D02*
D03*
X345000Y375000D02*
D03*
X450000Y345000D02*
D03*
X345000Y225000D02*
D03*
X330000Y315000D02*
D03*
X345000Y285000D02*
D03*
Y315000D02*
D03*
X412500Y210000D02*
D03*
X405000Y405000D02*
D03*
X412500Y420000D02*
D03*
X442500D02*
D03*
Y270000D02*
D03*
X390000Y255000D02*
D03*
X420000Y375000D02*
D03*
X337500Y390000D02*
D03*
X375000Y255000D02*
D03*
X442500Y300000D02*
D03*
X472500D02*
D03*
X322500Y330000D02*
D03*
Y390000D02*
D03*
X337500Y360000D02*
D03*
X367500Y330000D02*
D03*
X375000Y285000D02*
D03*
X382500Y390000D02*
D03*
X322500Y360000D02*
D03*
X442500Y210000D02*
D03*
X487500Y240000D02*
D03*
Y300000D02*
D03*
X382500Y210000D02*
D03*
X442500Y240000D02*
D03*
X397500Y360000D02*
D03*
X360000Y405000D02*
D03*
X352500Y330000D02*
D03*
X450000Y225000D02*
D03*
X487500Y210000D02*
D03*
X322500Y240000D02*
D03*
X330000Y405000D02*
D03*
X352500Y300000D02*
D03*
X442500Y330000D02*
D03*
X465000Y285000D02*
D03*
X382500Y420000D02*
D03*
X345000Y345000D02*
D03*
X330000Y255000D02*
D03*
X393000Y276000D02*
D03*
X387500Y289500D02*
D03*
X388500Y319500D02*
D03*
X385000D02*
D03*
X381500D02*
D03*
X378500D02*
D03*
X364000Y206500D02*
D03*
X372000Y217000D02*
D03*
X357500Y246000D02*
D03*
Y263500D02*
D03*
Y280500D02*
D03*
X413500Y328500D02*
D03*
X421500Y331000D02*
D03*
X367500Y293000D02*
D03*
X365200Y288795D02*
D03*
X384500Y342500D02*
D03*
Y338000D02*
D03*
X340000Y300000D02*
D03*
X332800Y293200D02*
D03*
X389900Y340200D02*
D03*
Y335500D02*
D03*
X346300Y293300D02*
D03*
X436500Y373000D02*
D03*
X484500Y367000D02*
D03*
X456763Y377546D02*
D03*
Y370746D02*
D03*
X465400Y388500D02*
D03*
X481000Y367000D02*
D03*
X485800Y388500D02*
D03*
X477500Y367000D02*
D03*
X463450Y366940D02*
D03*
X469276Y380037D02*
D03*
X472676D02*
D03*
X474000Y367000D02*
D03*
X485300Y358400D02*
D03*
X460000Y367000D02*
D03*
X459400Y359200D02*
D03*
X481400Y351086D02*
D03*
X462476Y380037D02*
D03*
X478996Y353490D02*
D03*
X465876Y380037D02*
D03*
X470500Y367000D02*
D03*
X456763Y374146D02*
D03*
X449700Y378300D02*
D03*
X479000Y388500D02*
D03*
X456763Y367346D02*
D03*
X455000Y359300D02*
D03*
X488034Y350037D02*
D03*
X488000Y367000D02*
D03*
X479476Y380037D02*
D03*
X476076D02*
D03*
X484634Y350037D02*
D03*
X490800Y358300D02*
D03*
X475600Y388500D02*
D03*
X462000D02*
D03*
X482876Y380037D02*
D03*
X482400Y388500D02*
D03*
X466850Y366975D02*
D03*
X486276Y380037D02*
D03*
X469500Y357700D02*
D03*
X489200Y388500D02*
D03*
X468800D02*
D03*
X449700Y368100D02*
D03*
X450400Y359300D02*
D03*
X472200Y388500D02*
D03*
X459076Y380037D02*
D03*
X449700Y374900D02*
D03*
Y371500D02*
D03*
X402700Y321100D02*
D03*
X392900Y316600D02*
D03*
X416600Y300900D02*
D03*
X397600D02*
D03*
X381400Y310100D02*
D03*
X417800Y288100D02*
D03*
D32*
X468000Y251100D02*
D03*
X446000Y317500D02*
D03*
D33*
X432000Y363743D02*
D03*
Y360500D02*
D03*
M02*
